# OBJ file
mtllib ICON.ICO.mtl
v 2.284668 3.650879 -0.000244 0.501961 0.501961 0.501961 #0.501961
v -2.284668 1.128906 -0.000244 0.501961 0.501961 0.501961 #0.501961
v -2.284668 3.650879 -0.000244 0.501961 0.501961 0.501961 #0.501961
v 2.284668 1.128906 -0.000244 0.501961 0.501961 0.501961 #0.501961
v -2.284668 1.128906 -0.000244 0.501961 0.501961 0.501961 #0.501961
v 2.284668 3.650879 -0.000244 0.501961 0.501961 0.501961 #0.501961
v -2.284668 3.650879 0.000244 0.501961 0.501961 0.501961 #0.501961
v -2.284668 1.128906 0.000244 0.501961 0.501961 0.501961 #0.501961
v 2.284668 3.650879 0.000244 0.501961 0.501961 0.501961 #0.501961
v 2.284668 3.650879 0.000244 0.501961 0.501961 0.501961 #0.501961
v -2.284668 1.128906 0.000244 0.501961 0.501961 0.501961 #0.501961
v 2.284668 1.128906 0.000244 0.501961 0.501961 0.501961 #0.501961
vt 0.008057 0.333984 0.000000
vt 0.991699 0.665771 0.000000
vt 0.991699 0.333984 0.000000
vt 0.008057 0.665771 0.000000
vt 0.991699 0.665771 0.000000
vt 0.008057 0.333984 0.000000
vt 0.008057 0.333984 0.000000
vt 0.008057 0.665771 0.000000
vt 0.991699 0.333984 0.000000
vt 0.991699 0.333984 0.000000
vt 0.008057 0.665771 0.000000
vt 0.991699 0.665771 0.000000
vn 0.000000 0.000000 -1.000000
vn 0.000000 0.000000 -1.000000
vn 0.000000 0.000000 -1.000000
vn 0.000000 0.000000 -1.000000
vn 0.000000 0.000000 -1.000000
vn 0.000000 0.000000 -1.000000
vn 0.000000 0.000000 1.000000
vn 0.000000 0.000000 1.000000
vn 0.000000 0.000000 1.000000
vn 0.000000 0.000000 1.000000
vn 0.000000 0.000000 1.000000
vn 0.000000 0.000000 1.000000
usemtl Texture
f 1/1/1 2/2/2 3/3/3
f 4/4/4 5/5/5 6/6/6
f 7/7/7 8/8/8 9/9/9
f 10/10/10 11/11/11 12/12/12
