# OBJ file
mtllib sm_00.ico.mtl
v 0.344971 2.570312 -0.933838 0.466667 0.466667 0.466667 #0.501961
v 0.250244 2.604248 -0.842529 0.466667 0.466667 0.466667 #0.501961
v 0.687012 2.447021 -0.984131 0.466667 0.466667 0.466667 #0.501961
v 0.687012 2.447021 -0.984131 0.466667 0.466667 0.466667 #0.501961
v 0.250244 2.604248 -0.842529 0.466667 0.466667 0.466667 #0.501961
v 0.810547 2.402344 -0.927246 0.466667 0.466667 0.466667 #0.501961
v 0.250244 2.604248 -0.842529 0.466667 0.466667 0.466667 #0.501961
v 0.198242 2.623047 -0.746338 0.466667 0.466667 0.466667 #0.501961
v 0.810547 2.402344 -0.927246 0.466667 0.466667 0.466667 #0.501961
v 0.810547 2.402344 -0.927246 0.466667 0.466667 0.466667 #0.501961
v 0.198242 2.623047 -0.746338 0.466667 0.466667 0.466667 #0.501961
v 0.951660 2.351562 -0.802979 0.466667 0.466667 0.466667 #0.501961
v -0.112061 2.735107 -0.183838 0.466667 0.466667 0.466667 #0.501961
v -0.057129 2.715332 -0.138428 0.466667 0.466667 0.466667 #0.501961
v -0.123291 2.739014 -0.357422 0.466667 0.466667 0.466667 #0.501961
v -0.123291 2.739014 -0.357422 0.466667 0.466667 0.466667 #0.501961
v -0.057129 2.715332 -0.138428 0.466667 0.466667 0.466667 #0.501961
v -0.068604 2.719482 -0.398926 0.466667 0.466667 0.466667 #0.501961
v 1.104980 2.296143 -0.640381 0.466667 0.466667 0.466667 #0.501961
v 0.951660 2.351562 -0.802979 0.466667 0.466667 0.466667 #0.501961
v 0.177490 2.630615 -0.638184 0.466667 0.466667 0.466667 #0.501961
v 0.177490 2.630615 -0.638184 0.466667 0.466667 0.466667 #0.501961
v 0.951660 2.351562 -0.802979 0.466667 0.466667 0.466667 #0.501961
v 0.198242 2.623047 -0.746338 0.466667 0.466667 0.466667 #0.501961
v 0.177490 2.630615 -0.638184 0.466667 0.466667 0.466667 #0.501961
v 0.196533 2.623779 -0.504150 0.466667 0.466667 0.466667 #0.501961
v 1.104980 2.296143 -0.640381 0.466667 0.466667 0.466667 #0.501961
v 1.104980 2.296143 -0.640381 0.466667 0.466667 0.466667 #0.501961
v 0.196533 2.623779 -0.504150 0.466667 0.466667 0.466667 #0.501961
v 1.204102 2.260498 -0.479736 0.466667 0.466667 0.466667 #0.501961
v 0.196533 2.623779 -0.504150 0.466667 0.466667 0.466667 #0.501961
v 0.516357 2.508545 0.440186 0.466667 0.466667 0.466667 #0.501961
v 1.204102 2.260498 -0.479736 0.466667 0.466667 0.466667 #0.501961
v 1.204102 2.260498 -0.479736 0.466667 0.466667 0.466667 #0.501961
v 0.516357 2.508545 0.440186 0.466667 0.466667 0.466667 #0.501961
v 0.966797 2.345947 -0.038330 0.466667 0.466667 0.466667 #0.501961
v 0.687012 2.447021 -0.984131 0.466667 0.466667 0.466667 #0.501961
v 0.573975 2.487549 -1.000977 0.466667 0.466667 0.466667 #0.501961
v 0.344971 2.570312 -0.933838 0.466667 0.466667 0.466667 #0.501961
v 0.344971 2.570312 -0.933838 0.466667 0.466667 0.466667 #0.501961
v 0.573975 2.487549 -1.000977 0.466667 0.466667 0.466667 #0.501961
v 0.452881 2.531250 -0.989990 0.466667 0.466667 0.466667 #0.501961
v 0.160645 2.636719 -0.510010 0.466667 0.466667 0.466667 #0.501961
v 0.006836 2.692139 -0.429199 0.466667 0.466667 0.466667 #0.501961
v 0.362793 2.563721 0.261963 0.466667 0.466667 0.466667 #0.501961
v 0.362793 2.563721 0.261963 0.466667 0.466667 0.466667 #0.501961
v 0.006836 2.692139 -0.429199 0.466667 0.466667 0.466667 #0.501961
v 0.020264 2.687256 -0.102051 0.466667 0.466667 0.466667 #0.501961
v 0.006836 2.692139 -0.429199 0.466667 0.466667 0.466667 #0.501961
v -0.068604 2.719482 -0.398926 0.466667 0.466667 0.466667 #0.501961
v 0.020264 2.687256 -0.102051 0.466667 0.466667 0.466667 #0.501961
v 0.020264 2.687256 -0.102051 0.466667 0.466667 0.466667 #0.501961
v -0.068604 2.719482 -0.398926 0.466667 0.466667 0.466667 #0.501961
v -0.057129 2.715332 -0.138428 0.466667 0.466667 0.466667 #0.501961
v 0.196533 2.623779 -0.504150 0.466667 0.466667 0.466667 #0.501961
v 0.160645 2.636719 -0.510010 0.466667 0.466667 0.466667 #0.501961
v 0.516357 2.508545 0.440186 0.466667 0.466667 0.466667 #0.501961
v 0.516357 2.508545 0.440186 0.466667 0.466667 0.466667 #0.501961
v 0.160645 2.636719 -0.510010 0.466667 0.466667 0.466667 #0.501961
v 0.362793 2.563721 0.261963 0.466667 0.466667 0.466667 #0.501961
v 0.362793 2.563721 0.261963 0.466667 0.466667 0.466667 #0.501961
v 0.356934 2.565918 0.333252 0.466667 0.466667 0.466667 #0.501961
v 0.516357 2.508545 0.440186 0.466667 0.466667 0.466667 #0.501961
v 0.516357 2.508545 0.440186 0.466667 0.466667 0.466667 #0.501961
v 0.356934 2.565918 0.333252 0.466667 0.466667 0.466667 #0.501961
v 0.465088 2.526855 0.445312 0.466667 0.466667 0.466667 #0.501961
v -0.123291 2.739014 -0.357422 0.466667 0.466667 0.466667 #0.501961
v -0.155518 2.750732 -0.295898 0.466667 0.466667 0.466667 #0.501961
v -0.112061 2.735107 -0.183838 0.466667 0.466667 0.466667 #0.501961
v -0.112061 2.735107 -0.183838 0.466667 0.466667 0.466667 #0.501961
v -0.155518 2.750732 -0.295898 0.466667 0.466667 0.466667 #0.501961
v -0.149658 2.748535 -0.240234 0.466667 0.466667 0.466667 #0.501961
v 0.966797 2.345947 -0.038330 0.466667 0.466667 0.466667 #0.501961
v 1.019043 2.327148 -0.026123 0.466667 0.466667 0.466667 #0.501961
v 1.204102 2.260498 -0.479736 0.466667 0.466667 0.466667 #0.501961
v 1.204102 2.260498 -0.479736 0.466667 0.466667 0.466667 #0.501961
v 1.019043 2.327148 -0.026123 0.466667 0.466667 0.466667 #0.501961
v 1.231201 2.250732 -0.478271 0.466667 0.466667 0.466667 #0.501961
v 1.019043 2.327148 -0.026123 0.466667 0.466667 0.466667 #0.501961
v 1.185791 2.267090 0.701660 0.466667 0.466667 0.466667 #0.501961
v 1.231201 2.250732 -0.478271 0.466667 0.466667 0.466667 #0.501961
v 1.231201 2.250732 -0.478271 0.466667 0.466667 0.466667 #0.501961
v 1.185791 2.267090 0.701660 0.466667 0.466667 0.466667 #0.501961
v 1.610840 2.114014 0.249756 0.466667 0.466667 0.466667 #0.501961
v 1.019043 2.327148 -0.026123 0.466667 0.466667 0.466667 #0.501961
v 0.904541 2.368408 0.780518 0.466667 0.466667 0.466667 #0.501961
v 1.185791 2.267090 0.701660 0.466667 0.466667 0.466667 #0.501961
v 1.185791 2.267090 0.701660 0.466667 0.466667 0.466667 #0.501961
v 0.904541 2.368408 0.780518 0.466667 0.466667 0.466667 #0.501961
v 1.020752 2.326660 0.876953 0.466667 0.466667 0.466667 #0.501961
v 1.019043 2.327148 -0.026123 0.466667 0.466667 0.466667 #0.501961
v 0.541016 2.499512 0.482666 0.466667 0.466667 0.466667 #0.501961
v 0.904541 2.368408 0.780518 0.466667 0.466667 0.466667 #0.501961
v 0.904541 2.368408 0.780518 0.466667 0.466667 0.466667 #0.501961
v 0.541016 2.499512 0.482666 0.466667 0.466667 0.466667 #0.501961
v 0.789307 2.410156 0.716797 0.466667 0.466667 0.466667 #0.501961
v 0.541016 2.499512 0.482666 0.466667 0.466667 0.466667 #0.501961
v 0.534424 2.501953 0.542236 0.466667 0.466667 0.466667 #0.501961
v 0.789307 2.410156 0.716797 0.466667 0.466667 0.466667 #0.501961
v 0.789307 2.410156 0.716797 0.466667 0.466667 0.466667 #0.501961
v 0.534424 2.501953 0.542236 0.466667 0.466667 0.466667 #0.501961
v 0.665527 2.454590 0.676270 0.466667 0.466667 0.466667 #0.501961
v 0.356934 2.565918 0.333252 0.466667 0.466667 0.466667 #0.501961
v 0.380859 2.557373 0.387939 0.466667 0.466667 0.466667 #0.501961
v 0.465088 2.526855 0.445312 0.466667 0.466667 0.466667 #0.501961
v 0.465088 2.526855 0.445312 0.466667 0.466667 0.466667 #0.501961
v 0.380859 2.557373 0.387939 0.466667 0.466667 0.466667 #0.501961
v 0.416504 2.544434 0.426270 0.466667 0.466667 0.466667 #0.501961
v 1.610840 2.114014 0.249756 0.466667 0.466667 0.466667 #0.501961
v 1.730225 2.070801 0.376953 0.466667 0.466667 0.466667 #0.501961
v 1.231201 2.250732 -0.478271 0.466667 0.466667 0.466667 #0.501961
v 1.231201 2.250732 -0.478271 0.466667 0.466667 0.466667 #0.501961
v 1.730225 2.070801 0.376953 0.466667 0.466667 0.466667 #0.501961
v 1.862793 2.022949 0.192627 0.466667 0.466667 0.466667 #0.501961
v 1.730225 2.070801 0.376953 0.466667 0.466667 0.466667 #0.501961
v 1.772705 2.055664 0.384766 0.466667 0.466667 0.466667 #0.501961
v 1.862793 2.022949 0.192627 0.466667 0.466667 0.466667 #0.501961
v 1.862793 2.022949 0.192627 0.466667 0.466667 0.466667 #0.501961
v 1.772705 2.055664 0.384766 0.466667 0.466667 0.466667 #0.501961
v 1.877197 2.017822 0.256592 0.466667 0.466667 0.466667 #0.501961
v 0.534424 2.501953 0.542236 0.466667 0.466667 0.466667 #0.501961
v 0.550537 2.496094 0.579346 0.466667 0.466667 0.466667 #0.501961
v 0.665527 2.454590 0.676270 0.466667 0.466667 0.466667 #0.501961
v 0.665527 2.454590 0.676270 0.466667 0.466667 0.466667 #0.501961
v 0.550537 2.496094 0.579346 0.466667 0.466667 0.466667 #0.501961
v 0.614746 2.472900 0.647705 0.466667 0.466667 0.466667 #0.501961
v 1.020752 2.326660 0.876953 0.466667 0.466667 0.466667 #0.501961
v 1.120361 2.290771 0.982910 0.466667 0.466667 0.466667 #0.501961
v 1.185791 2.267090 0.701660 0.466667 0.466667 0.466667 #0.501961
v 1.185791 2.267090 0.701660 0.466667 0.466667 0.466667 #0.501961
v 1.120361 2.290771 0.982910 0.466667 0.466667 0.466667 #0.501961
v 1.285400 2.231201 0.807617 0.466667 0.466667 0.466667 #0.501961
v 1.120361 2.290771 0.982910 0.466667 0.466667 0.466667 #0.501961
v 1.178467 2.269775 1.000488 0.466667 0.466667 0.466667 #0.501961
v 1.285400 2.231201 0.807617 0.466667 0.466667 0.466667 #0.501961
v 1.285400 2.231201 0.807617 0.466667 0.466667 0.466667 #0.501961
v 1.178467 2.269775 1.000488 0.466667 0.466667 0.466667 #0.501961
v 1.300049 2.225830 0.871338 0.466667 0.466667 0.466667 #0.501961
v 1.772705 2.055664 0.384766 0.466667 0.466667 0.466667 #0.501961
v 1.816650 2.039795 0.369629 0.466667 0.466667 0.466667 #0.501961
v 1.877197 2.017822 0.256592 0.466667 0.466667 0.466667 #0.501961
v 1.877197 2.017822 0.256592 0.466667 0.466667 0.466667 #0.501961
v 1.816650 2.039795 0.369629 0.466667 0.466667 0.466667 #0.501961
v 1.861572 2.023438 0.321045 0.466667 0.466667 0.466667 #0.501961
v 1.178467 2.269775 1.000488 0.466667 0.466667 0.466667 #0.501961
v 1.235596 2.249023 0.987549 0.466667 0.466667 0.466667 #0.501961
v 1.300049 2.225830 0.871338 0.466667 0.466667 0.466667 #0.501961
v 1.300049 2.225830 0.871338 0.466667 0.466667 0.466667 #0.501961
v 1.235596 2.249023 0.987549 0.466667 0.466667 0.466667 #0.501961
v 1.284668 2.231445 0.935547 0.466667 0.466667 0.466667 #0.501961
v 0.578369 1.693604 -1.643799 0.466667 0.466667 0.466667 #0.501961
v 0.901123 2.135254 -1.643799 0.466667 0.466667 0.466667 #0.501961
v 2.047607 1.302734 -0.123535 0.466667 0.466667 0.466667 #0.501961
v 2.047607 1.302734 -0.123535 0.466667 0.466667 0.466667 #0.501961
v 0.901123 2.135254 -1.643799 0.466667 0.466667 0.466667 #0.501961
v 2.331543 1.619629 -0.123535 0.466667 0.466667 0.466667 #0.501961
v -1.129150 2.147949 -0.123535 0.466667 0.466667 0.466667 #0.501961
v -0.760986 2.734619 -0.123535 0.466667 0.466667 0.466667 #0.501961
v 0.340088 1.757080 -1.644043 0.466667 0.466667 0.466667 #0.501961
v 0.340088 1.757080 -1.644043 0.466667 0.466667 0.466667 #0.501961
v -0.760986 2.734619 -0.123535 0.466667 0.466667 0.466667 #0.501961
v 0.669189 2.218994 -1.644043 0.466667 0.466667 0.466667 #0.501961
v 0.339355 1.757324 1.644043 0.466667 0.466667 0.466667 #0.501961
v 0.668457 2.219238 1.644043 0.466667 0.466667 0.466667 #0.501961
v -1.129639 2.148193 0.123779 0.466667 0.466667 0.466667 #0.501961
v -1.129639 2.148193 0.123779 0.466667 0.466667 0.466667 #0.501961
v 0.668457 2.219238 1.644043 0.466667 0.466667 0.466667 #0.501961
v -0.761475 2.734863 0.123779 0.466667 0.466667 0.466667 #0.501961
v 2.048340 1.302734 0.123535 0.466667 0.466667 0.466667 #0.501961
v 2.332275 1.619385 0.123535 0.466667 0.466667 0.466667 #0.501961
v 0.579102 1.693604 1.644043 0.466667 0.466667 0.466667 #0.501961
v 0.579102 1.693604 1.644043 0.466667 0.466667 0.466667 #0.501961
v 2.332275 1.619385 0.123535 0.466667 0.466667 0.466667 #0.501961
v 0.901855 2.135010 1.644043 0.466667 0.466667 0.466667 #0.501961
v 0.000000 0.025391 1.520508 0.466667 0.466667 0.466667 #0.501961
v -1.520264 0.025391 0.000000 0.466667 0.466667 0.466667 #0.501961
v 1.520264 0.025391 0.000000 0.466667 0.466667 0.466667 #0.501961
v 1.520264 0.025391 0.000000 0.466667 0.466667 0.466667 #0.501961
v -1.520264 0.025391 0.000000 0.466667 0.466667 0.466667 #0.501961
v 0.000000 0.025391 -1.520264 0.466667 0.466667 0.466667 #0.501961
v 2.274170 1.824219 -0.000244 0.466667 0.466667 0.466667 #0.501961
v 0.843994 2.339844 -1.520508 0.466667 0.466667 0.466667 #0.501961
v 0.843994 2.339844 1.520020 0.466667 0.466667 0.466667 #0.501961
v 0.843994 2.339844 1.520020 0.466667 0.466667 0.466667 #0.501961
v 0.843994 2.339844 -1.520508 0.466667 0.466667 0.466667 #0.501961
v -0.586182 2.855469 -0.000244 0.466667 0.466667 0.466667 #0.501961
v 2.338379 1.747070 -0.087891 0.466667 0.466667 0.466667 #0.501961
v 2.331543 1.619629 -0.123535 0.466667 0.466667 0.466667 #0.501961
v 0.907715 2.262939 -1.608887 0.466667 0.466667 0.466667 #0.501961
v 0.907715 2.262939 -1.608887 0.466667 0.466667 0.466667 #0.501961
v 2.331543 1.619629 -0.123535 0.466667 0.466667 0.466667 #0.501961
v 0.901123 2.135254 -1.643799 0.466667 0.466667 0.466667 #0.501961
v 2.047607 1.302734 -0.123535 0.466667 0.466667 0.466667 #0.501961
v 2.331543 1.619629 -0.123535 0.466667 0.466667 0.466667 #0.501961
v 2.064209 1.298340 0.001221 0.466667 0.466667 0.466667 #0.501961
v 2.064209 1.298340 0.001221 0.466667 0.466667 0.466667 #0.501961
v 2.331543 1.619629 -0.123535 0.466667 0.466667 0.466667 #0.501961
v 2.347412 1.614014 0.001221 0.466667 0.466667 0.466667 #0.501961
v 0.087891 0.078613 -1.606934 0.466667 0.466667 0.466667 #0.501961
v 0.123535 0.198730 -1.643799 0.466667 0.466667 0.466667 #0.501961
v 1.606934 0.078613 -0.087646 0.466667 0.466667 0.466667 #0.501961
v 1.606934 0.078613 -0.087646 0.466667 0.466667 0.466667 #0.501961
v 0.123535 0.198730 -1.643799 0.466667 0.466667 0.466667 #0.501961
v 1.644043 0.198730 -0.123535 0.466667 0.466667 0.466667 #0.501961
v 0.458984 1.725586 -1.660400 0.466667 0.466667 0.466667 #0.501961
v 0.784912 2.177246 -1.660400 0.466667 0.466667 0.466667 #0.501961
v 0.578369 1.693604 -1.643799 0.466667 0.466667 0.466667 #0.501961
v 0.578369 1.693604 -1.643799 0.466667 0.466667 0.466667 #0.501961
v 0.784912 2.177246 -1.660400 0.466667 0.466667 0.466667 #0.501961
v 0.901123 2.135254 -1.643799 0.466667 0.466667 0.466667 #0.501961
v 0.735596 2.299072 -1.608154 0.466667 0.466667 0.466667 #0.501961
v 0.669189 2.218994 -1.644043 0.466667 0.466667 0.466667 #0.501961
v -0.694092 2.814941 -0.087891 0.466667 0.466667 0.466667 #0.501961
v -0.694092 2.814941 -0.087891 0.466667 0.466667 0.466667 #0.501961
v 0.669189 2.218994 -1.644043 0.466667 0.466667 0.466667 #0.501961
v -0.760986 2.734619 -0.123535 0.466667 0.466667 0.466667 #0.501961
v -1.607666 0.099365 -0.087646 0.466667 0.466667 0.466667 #0.501961
v -1.643555 0.198730 -0.123047 0.466667 0.466667 0.466667 #0.501961
v -0.087646 0.099365 -1.607422 0.466667 0.466667 0.466667 #0.501961
v -0.087646 0.099365 -1.607422 0.466667 0.466667 0.466667 #0.501961
v -1.643555 0.198730 -0.123047 0.466667 0.466667 0.466667 #0.501961
v -0.123291 0.198730 -1.643555 0.466667 0.466667 0.466667 #0.501961
v -0.687500 2.836182 0.086426 0.466667 0.466667 0.466667 #0.501961
v -0.761475 2.734863 0.123779 0.466667 0.466667 0.466667 #0.501961
v 0.742920 2.320557 1.607178 0.466667 0.466667 0.466667 #0.501961
v 0.742920 2.320557 1.607178 0.466667 0.466667 0.466667 #0.501961
v -0.761475 2.734863 0.123779 0.466667 0.466667 0.466667 #0.501961
v 0.668457 2.219238 1.644043 0.466667 0.466667 0.466667 #0.501961
v -0.087158 0.076904 1.606445 0.466667 0.466667 0.466667 #0.501961
v -0.123535 0.198730 1.644043 0.466667 0.466667 0.466667 #0.501961
v -1.606201 0.076904 0.087158 0.466667 0.466667 0.466667 #0.501961
v -1.606201 0.076904 0.087158 0.466667 0.466667 0.466667 #0.501961
v -0.123535 0.198730 1.644043 0.466667 0.466667 0.466667 #0.501961
v -1.644043 0.198730 0.123779 0.466667 0.466667 0.466667 #0.501961
v 0.458008 1.725830 1.661377 0.466667 0.466667 0.466667 #0.501961
v 0.783936 2.177734 1.661377 0.466667 0.466667 0.466667 #0.501961
v 0.339355 1.757324 1.644043 0.466667 0.466667 0.466667 #0.501961
v 0.339355 1.757324 1.644043 0.466667 0.466667 0.466667 #0.501961
v 0.783936 2.177734 1.661377 0.466667 0.466667 0.466667 #0.501961
v 0.668457 2.219238 1.644043 0.466667 0.466667 0.466667 #0.501961
v 0.902100 2.240723 1.608398 0.466667 0.466667 0.466667 #0.501961
v 0.901855 2.135010 1.644043 0.466667 0.466667 0.466667 #0.501961
v 2.332031 1.724609 0.088135 0.466667 0.466667 0.466667 #0.501961
v 2.332031 1.724609 0.088135 0.466667 0.466667 0.466667 #0.501961
v 0.901855 2.135010 1.644043 0.466667 0.466667 0.466667 #0.501961
v 2.332275 1.619385 0.123535 0.466667 0.466667 0.466667 #0.501961
v 1.607666 0.100342 0.087891 0.466667 0.466667 0.466667 #0.501961
v 1.644287 0.198730 0.123779 0.466667 0.466667 0.466667 #0.501961
v 0.087646 0.100342 1.607666 0.466667 0.466667 0.466667 #0.501961
v 0.087646 0.100342 1.607666 0.466667 0.466667 0.466667 #0.501961
v 1.644287 0.198730 0.123779 0.466667 0.466667 0.466667 #0.501961
v 0.123779 0.198730 1.644287 0.466667 0.466667 0.466667 #0.501961
v 1.625244 0.125000 0.000000 0.466667 0.466667 0.466667 #0.501961
v 1.607666 0.100342 0.087891 0.466667 0.466667 0.466667 #0.501961
v 1.606934 0.078613 -0.087646 0.466667 0.466667 0.466667 #0.501961
v 1.606934 0.078613 -0.087646 0.466667 0.466667 0.466667 #0.501961
v 1.607666 0.100342 0.087891 0.466667 0.466667 0.466667 #0.501961
v 1.520264 0.025391 0.000000 0.466667 0.466667 0.466667 #0.501961
v 0.000000 0.123291 -1.626221 0.466667 0.466667 0.466667 #0.501961
v 0.087891 0.078613 -1.606934 0.466667 0.466667 0.466667 #0.501961
v -0.087646 0.099365 -1.607422 0.466667 0.466667 0.466667 #0.501961
v -0.087646 0.099365 -1.607422 0.466667 0.466667 0.466667 #0.501961
v 0.087891 0.078613 -1.606934 0.466667 0.466667 0.466667 #0.501961
v 0.000000 0.025391 -1.520264 0.466667 0.466667 0.466667 #0.501961
v 2.340332 1.694580 0.000000 0.466667 0.466667 0.466667 #0.501961
v 2.338379 1.747070 -0.087891 0.466667 0.466667 0.466667 #0.501961
v 2.332031 1.724609 0.088135 0.466667 0.466667 0.466667 #0.501961
v 2.332031 1.724609 0.088135 0.466667 0.466667 0.466667 #0.501961
v 2.338379 1.747070 -0.087891 0.466667 0.466667 0.466667 #0.501961
v 2.274170 1.824219 -0.000244 0.466667 0.466667 0.466667 #0.501961
v 0.809326 2.248779 -1.629150 0.466667 0.466667 0.466667 #0.501961
v 0.735596 2.299072 -1.608154 0.466667 0.466667 0.466667 #0.501961
v 0.907715 2.262939 -1.608887 0.466667 0.466667 0.466667 #0.501961
v 0.907715 2.262939 -1.608887 0.466667 0.466667 0.466667 #0.501961
v 0.735596 2.299072 -1.608154 0.466667 0.466667 0.466667 #0.501961
v 0.843994 2.339844 -1.520508 0.466667 0.466667 0.466667 #0.501961
v -0.001221 0.125000 1.626465 0.466667 0.466667 0.466667 #0.501961
v -0.087158 0.076904 1.606445 0.466667 0.466667 0.466667 #0.501961
v 0.087646 0.100342 1.607666 0.466667 0.466667 0.466667 #0.501961
v 0.087646 0.100342 1.607666 0.466667 0.466667 0.466667 #0.501961
v -0.087158 0.076904 1.606445 0.466667 0.466667 0.466667 #0.501961
v 0.000000 0.025391 1.520508 0.466667 0.466667 0.466667 #0.501961
v -1.626709 0.124023 -0.000488 0.466667 0.466667 0.466667 #0.501961
v -1.607666 0.099365 -0.087646 0.466667 0.466667 0.466667 #0.501961
v -1.606201 0.076904 0.087158 0.466667 0.466667 0.466667 #0.501961
v -1.606201 0.076904 0.087158 0.466667 0.466667 0.466667 #0.501961
v -1.607666 0.099365 -0.087646 0.466667 0.466667 0.466667 #0.501961
v -1.520264 0.025391 0.000000 0.466667 0.466667 0.466667 #0.501961
v 0.810303 2.247314 1.626465 0.466667 0.466667 0.466667 #0.501961
v 0.902100 2.240723 1.608398 0.466667 0.466667 0.466667 #0.501961
v 0.742920 2.320557 1.607178 0.466667 0.466667 0.466667 #0.501961
v 0.742920 2.320557 1.607178 0.466667 0.466667 0.466667 #0.501961
v 0.902100 2.240723 1.608398 0.466667 0.466667 0.466667 #0.501961
v 0.843994 2.339844 1.520020 0.466667 0.466667 0.466667 #0.501961
v -0.722656 2.800781 -0.001709 0.466667 0.466667 0.466667 #0.501961
v -0.687500 2.836182 0.086426 0.466667 0.466667 0.466667 #0.501961
v -0.694092 2.814941 -0.087891 0.466667 0.466667 0.466667 #0.501961
v -0.694092 2.814941 -0.087891 0.466667 0.466667 0.466667 #0.501961
v -0.687500 2.836182 0.086426 0.466667 0.466667 0.466667 #0.501961
v -0.586182 2.855469 -0.000244 0.466667 0.466667 0.466667 #0.501961
v -0.776855 2.740479 0.000000 0.466667 0.466667 0.466667 #0.501961
v -0.761475 2.734863 0.123779 0.466667 0.466667 0.466667 #0.501961
v -0.722656 2.800781 -0.001709 0.466667 0.466667 0.466667 #0.501961
v -0.722656 2.800781 -0.001709 0.466667 0.466667 0.466667 #0.501961
v -0.761475 2.734863 0.123779 0.466667 0.466667 0.466667 #0.501961
v -0.687500 2.836182 0.086426 0.466667 0.466667 0.466667 #0.501961
v -0.694092 2.814941 -0.087891 0.466667 0.466667 0.466667 #0.501961
v -0.586182 2.855469 -0.000244 0.466667 0.466667 0.466667 #0.501961
v 0.735596 2.299072 -1.608154 0.466667 0.466667 0.466667 #0.501961
v 0.735596 2.299072 -1.608154 0.466667 0.466667 0.466667 #0.501961
v -0.586182 2.855469 -0.000244 0.466667 0.466667 0.466667 #0.501961
v 0.843994 2.339844 -1.520508 0.466667 0.466667 0.466667 #0.501961
v 0.742920 2.320557 1.607178 0.466667 0.466667 0.466667 #0.501961
v 0.843994 2.339844 1.520020 0.466667 0.466667 0.466667 #0.501961
v -0.687500 2.836182 0.086426 0.466667 0.466667 0.466667 #0.501961
v -0.687500 2.836182 0.086426 0.466667 0.466667 0.466667 #0.501961
v 0.843994 2.339844 1.520020 0.466667 0.466667 0.466667 #0.501961
v -0.586182 2.855469 -0.000244 0.466667 0.466667 0.466667 #0.501961
v 0.783936 2.177734 1.661377 0.466667 0.466667 0.466667 #0.501961
v 0.901855 2.135010 1.644043 0.466667 0.466667 0.466667 #0.501961
v 0.810303 2.247314 1.626465 0.466667 0.466667 0.466667 #0.501961
v 0.810303 2.247314 1.626465 0.466667 0.466667 0.466667 #0.501961
v 0.901855 2.135010 1.644043 0.466667 0.466667 0.466667 #0.501961
v 0.902100 2.240723 1.608398 0.466667 0.466667 0.466667 #0.501961
v 2.332031 1.724609 0.088135 0.466667 0.466667 0.466667 #0.501961
v 2.274170 1.824219 -0.000244 0.466667 0.466667 0.466667 #0.501961
v 0.902100 2.240723 1.608398 0.466667 0.466667 0.466667 #0.501961
v 0.902100 2.240723 1.608398 0.466667 0.466667 0.466667 #0.501961
v 2.274170 1.824219 -0.000244 0.466667 0.466667 0.466667 #0.501961
v 0.843994 2.339844 1.520020 0.466667 0.466667 0.466667 #0.501961
v 2.347412 1.614014 0.001221 0.466667 0.466667 0.466667 #0.501961
v 2.331543 1.619629 -0.123535 0.466667 0.466667 0.466667 #0.501961
v 2.340332 1.694580 0.000000 0.466667 0.466667 0.466667 #0.501961
v 2.340332 1.694580 0.000000 0.466667 0.466667 0.466667 #0.501961
v 2.331543 1.619629 -0.123535 0.466667 0.466667 0.466667 #0.501961
v 2.338379 1.747070 -0.087891 0.466667 0.466667 0.466667 #0.501961
v 0.907715 2.262939 -1.608887 0.466667 0.466667 0.466667 #0.501961
v 0.843994 2.339844 -1.520508 0.466667 0.466667 0.466667 #0.501961
v 2.338379 1.747070 -0.087891 0.466667 0.466667 0.466667 #0.501961
v 2.338379 1.747070 -0.087891 0.466667 0.466667 0.466667 #0.501961
v 0.843994 2.339844 -1.520508 0.466667 0.466667 0.466667 #0.501961
v 2.274170 1.824219 -0.000244 0.466667 0.466667 0.466667 #0.501961
v 0.784912 2.177246 -1.660400 0.466667 0.466667 0.466667 #0.501961
v 0.669189 2.218994 -1.644043 0.466667 0.466667 0.466667 #0.501961
v 0.809326 2.248779 -1.629150 0.466667 0.466667 0.466667 #0.501961
v 0.809326 2.248779 -1.629150 0.466667 0.466667 0.466667 #0.501961
v 0.669189 2.218994 -1.644043 0.466667 0.466667 0.466667 #0.501961
v 0.735596 2.299072 -1.608154 0.466667 0.466667 0.466667 #0.501961
v -1.660400 0.198730 0.000000 0.466667 0.466667 0.466667 #0.501961
v -1.643555 0.198730 -0.123047 0.466667 0.466667 0.466667 #0.501961
v -1.626709 0.124023 -0.000488 0.466667 0.466667 0.466667 #0.501961
v -1.626709 0.124023 -0.000488 0.466667 0.466667 0.466667 #0.501961
v -1.643555 0.198730 -0.123047 0.466667 0.466667 0.466667 #0.501961
v -1.607666 0.099365 -0.087646 0.466667 0.466667 0.466667 #0.501961
v -1.606201 0.076904 0.087158 0.466667 0.466667 0.466667 #0.501961
v -1.520264 0.025391 0.000000 0.466667 0.466667 0.466667 #0.501961
v -0.087158 0.076904 1.606445 0.466667 0.466667 0.466667 #0.501961
v -0.087158 0.076904 1.606445 0.466667 0.466667 0.466667 #0.501961
v -1.520264 0.025391 0.000000 0.466667 0.466667 0.466667 #0.501961
v 0.000000 0.025391 1.520508 0.466667 0.466667 0.466667 #0.501961
v -0.000977 0.198730 1.661377 0.466667 0.466667 0.466667 #0.501961
v -0.123535 0.198730 1.644043 0.466667 0.466667 0.466667 #0.501961
v -0.001221 0.125000 1.626465 0.466667 0.466667 0.466667 #0.501961
v -0.001221 0.125000 1.626465 0.466667 0.466667 0.466667 #0.501961
v -0.123535 0.198730 1.644043 0.466667 0.466667 0.466667 #0.501961
v -0.087158 0.076904 1.606445 0.466667 0.466667 0.466667 #0.501961
v 0.087646 0.100342 1.607666 0.466667 0.466667 0.466667 #0.501961
v 0.000000 0.025391 1.520508 0.466667 0.466667 0.466667 #0.501961
v 1.607666 0.100342 0.087891 0.466667 0.466667 0.466667 #0.501961
v 1.607666 0.100342 0.087891 0.466667 0.466667 0.466667 #0.501961
v 0.000000 0.025391 1.520508 0.466667 0.466667 0.466667 #0.501961
v 1.520264 0.025391 0.000000 0.466667 0.466667 0.466667 #0.501961
v 1.660889 0.198730 0.001221 0.466667 0.466667 0.466667 #0.501961
v 1.644287 0.198730 0.123779 0.466667 0.466667 0.466667 #0.501961
v 1.625244 0.125000 0.000000 0.466667 0.466667 0.466667 #0.501961
v 1.625244 0.125000 0.000000 0.466667 0.466667 0.466667 #0.501961
v 1.644287 0.198730 0.123779 0.466667 0.466667 0.466667 #0.501961
v 1.607666 0.100342 0.087891 0.466667 0.466667 0.466667 #0.501961
v 1.606934 0.078613 -0.087646 0.466667 0.466667 0.466667 #0.501961
v 1.520264 0.025391 0.000000 0.466667 0.466667 0.466667 #0.501961
v 0.087891 0.078613 -1.606934 0.466667 0.466667 0.466667 #0.501961
v 0.087891 0.078613 -1.606934 0.466667 0.466667 0.466667 #0.501961
v 1.520264 0.025391 0.000000 0.466667 0.466667 0.466667 #0.501961
v 0.000000 0.025391 -1.520264 0.466667 0.466667 0.466667 #0.501961
v 0.000000 0.198730 -1.660400 0.466667 0.466667 0.466667 #0.501961
v 0.123535 0.198730 -1.643799 0.466667 0.466667 0.466667 #0.501961
v 0.000000 0.123291 -1.626221 0.466667 0.466667 0.466667 #0.501961
v 0.000000 0.123291 -1.626221 0.466667 0.466667 0.466667 #0.501961
v 0.123535 0.198730 -1.643799 0.466667 0.466667 0.466667 #0.501961
v 0.087891 0.078613 -1.606934 0.466667 0.466667 0.466667 #0.501961
v -0.087646 0.099365 -1.607422 0.466667 0.466667 0.466667 #0.501961
v 0.000000 0.025391 -1.520264 0.466667 0.466667 0.466667 #0.501961
v -1.607666 0.099365 -0.087646 0.466667 0.466667 0.466667 #0.501961
v -1.607666 0.099365 -0.087646 0.466667 0.466667 0.466667 #0.501961
v 0.000000 0.025391 -1.520264 0.466667 0.466667 0.466667 #0.501961
v -1.520264 0.025391 0.000000 0.466667 0.466667 0.466667 #0.501961
v 0.809326 2.248779 -1.629150 0.466667 0.466667 0.466667 #0.501961
v 0.907715 2.262939 -1.608887 0.466667 0.466667 0.466667 #0.501961
v 0.784912 2.177246 -1.660400 0.466667 0.466667 0.466667 #0.501961
v 0.784912 2.177246 -1.660400 0.466667 0.466667 0.466667 #0.501961
v 0.907715 2.262939 -1.608887 0.466667 0.466667 0.466667 #0.501961
v 0.901123 2.135254 -1.643799 0.466667 0.466667 0.466667 #0.501961
v 0.340088 1.757080 -1.644043 0.466667 0.466667 0.466667 #0.501961
v 0.669189 2.218994 -1.644043 0.466667 0.466667 0.466667 #0.501961
v 0.458984 1.725586 -1.660400 0.466667 0.466667 0.466667 #0.501961
v 0.458984 1.725586 -1.660400 0.466667 0.466667 0.466667 #0.501961
v 0.669189 2.218994 -1.644043 0.466667 0.466667 0.466667 #0.501961
v 0.784912 2.177246 -1.660400 0.466667 0.466667 0.466667 #0.501961
v 0.000000 0.123291 -1.626221 0.466667 0.466667 0.466667 #0.501961
v -0.087646 0.099365 -1.607422 0.466667 0.466667 0.466667 #0.501961
v 0.000000 0.198730 -1.660400 0.466667 0.466667 0.466667 #0.501961
v 0.000000 0.198730 -1.660400 0.466667 0.466667 0.466667 #0.501961
v -0.087646 0.099365 -1.607422 0.466667 0.466667 0.466667 #0.501961
v -0.123291 0.198730 -1.643555 0.466667 0.466667 0.466667 #0.501961
v -1.626709 0.124023 -0.000488 0.466667 0.466667 0.466667 #0.501961
v -1.606201 0.076904 0.087158 0.466667 0.466667 0.466667 #0.501961
v -1.660400 0.198730 0.000000 0.466667 0.466667 0.466667 #0.501961
v -1.660400 0.198730 0.000000 0.466667 0.466667 0.466667 #0.501961
v -1.606201 0.076904 0.087158 0.466667 0.466667 0.466667 #0.501961
v -1.644043 0.198730 0.123779 0.466667 0.466667 0.466667 #0.501961
v -1.129639 2.148193 0.123779 0.466667 0.466667 0.466667 #0.501961
v -0.761475 2.734863 0.123779 0.466667 0.466667 0.466667 #0.501961
v -1.145508 2.152344 0.000000 0.466667 0.466667 0.466667 #0.501961
v -1.145508 2.152344 0.000000 0.466667 0.466667 0.466667 #0.501961
v -0.761475 2.734863 0.123779 0.466667 0.466667 0.466667 #0.501961
v -0.776855 2.740479 0.000000 0.466667 0.466667 0.466667 #0.501961
v -0.722656 2.800781 -0.001709 0.466667 0.466667 0.466667 #0.501961
v -0.694092 2.814941 -0.087891 0.466667 0.466667 0.466667 #0.501961
v -0.776855 2.740479 0.000000 0.466667 0.466667 0.466667 #0.501961
v -0.776855 2.740479 0.000000 0.466667 0.466667 0.466667 #0.501961
v -0.694092 2.814941 -0.087891 0.466667 0.466667 0.466667 #0.501961
v -0.760986 2.734619 -0.123535 0.466667 0.466667 0.466667 #0.501961
v -0.001221 0.125000 1.626465 0.466667 0.466667 0.466667 #0.501961
v 0.087646 0.100342 1.607666 0.466667 0.466667 0.466667 #0.501961
v -0.000977 0.198730 1.661377 0.466667 0.466667 0.466667 #0.501961
v -0.000977 0.198730 1.661377 0.466667 0.466667 0.466667 #0.501961
v 0.087646 0.100342 1.607666 0.466667 0.466667 0.466667 #0.501961
v 0.123779 0.198730 1.644287 0.466667 0.466667 0.466667 #0.501961
v 0.579102 1.693604 1.644043 0.466667 0.466667 0.466667 #0.501961
v 0.901855 2.135010 1.644043 0.466667 0.466667 0.466667 #0.501961
v 0.458008 1.725830 1.661377 0.466667 0.466667 0.466667 #0.501961
v 0.458008 1.725830 1.661377 0.466667 0.466667 0.466667 #0.501961
v 0.901855 2.135010 1.644043 0.466667 0.466667 0.466667 #0.501961
v 0.783936 2.177734 1.661377 0.466667 0.466667 0.466667 #0.501961
v 0.810303 2.247314 1.626465 0.466667 0.466667 0.466667 #0.501961
v 0.742920 2.320557 1.607178 0.466667 0.466667 0.466667 #0.501961
v 0.783936 2.177734 1.661377 0.466667 0.466667 0.466667 #0.501961
v 0.783936 2.177734 1.661377 0.466667 0.466667 0.466667 #0.501961
v 0.742920 2.320557 1.607178 0.466667 0.466667 0.466667 #0.501961
v 0.668457 2.219238 1.644043 0.466667 0.466667 0.466667 #0.501961
v 2.340332 1.694580 0.000000 0.466667 0.466667 0.466667 #0.501961
v 2.332031 1.724609 0.088135 0.466667 0.466667 0.466667 #0.501961
v 2.347412 1.614014 0.001221 0.466667 0.466667 0.466667 #0.501961
v 2.347412 1.614014 0.001221 0.466667 0.466667 0.466667 #0.501961
v 2.332031 1.724609 0.088135 0.466667 0.466667 0.466667 #0.501961
v 2.332275 1.619385 0.123535 0.466667 0.466667 0.466667 #0.501961
v 2.064209 1.298340 0.001221 0.466667 0.466667 0.466667 #0.501961
v 2.347412 1.614014 0.001221 0.466667 0.466667 0.466667 #0.501961
v 2.048340 1.302734 0.123535 0.466667 0.466667 0.466667 #0.501961
v 2.048340 1.302734 0.123535 0.466667 0.466667 0.466667 #0.501961
v 2.347412 1.614014 0.001221 0.466667 0.466667 0.466667 #0.501961
v 2.332275 1.619385 0.123535 0.466667 0.466667 0.466667 #0.501961
v 1.625244 0.125000 0.000000 0.466667 0.466667 0.466667 #0.501961
v 1.606934 0.078613 -0.087646 0.466667 0.466667 0.466667 #0.501961
v 1.660889 0.198730 0.001221 0.466667 0.466667 0.466667 #0.501961
v 1.660889 0.198730 0.001221 0.466667 0.466667 0.466667 #0.501961
v 1.606934 0.078613 -0.087646 0.466667 0.466667 0.466667 #0.501961
v 1.644043 0.198730 -0.123535 0.466667 0.466667 0.466667 #0.501961
v -1.145508 2.152344 0.000000 0.466667 0.466667 0.466667 #0.501961
v -0.776855 2.740479 0.000000 0.466667 0.466667 0.466667 #0.501961
v -1.129150 2.147949 -0.123535 0.466667 0.466667 0.466667 #0.501961
v -1.129150 2.147949 -0.123535 0.466667 0.466667 0.466667 #0.501961
v -0.776855 2.740479 0.000000 0.466667 0.466667 0.466667 #0.501961
v -0.760986 2.734619 -0.123535 0.466667 0.466667 0.466667 #0.501961
v 1.717285 0.582275 0.001221 0.466667 0.466667 0.466667 #0.501961
v 1.660889 0.198730 0.001221 0.466667 0.466667 0.466667 #0.501961
v 1.700439 0.583740 -0.123535 0.466667 0.466667 0.466667 #0.501961
v 1.700439 0.583740 -0.123535 0.466667 0.466667 0.466667 #0.501961
v 1.660889 0.198730 0.001221 0.466667 0.466667 0.466667 #0.501961
v 1.644043 0.198730 -0.123535 0.466667 0.466667 0.466667 #0.501961
v 1.700928 0.583740 0.123779 0.466667 0.466667 0.466667 #0.501961
v 1.644287 0.198730 0.123779 0.466667 0.466667 0.466667 #0.501961
v 1.717285 0.582275 0.001221 0.466667 0.466667 0.466667 #0.501961
v 1.717285 0.582275 0.001221 0.466667 0.466667 0.466667 #0.501961
v 1.644287 0.198730 0.123779 0.466667 0.466667 0.466667 #0.501961
v 1.660889 0.198730 0.001221 0.466667 0.466667 0.466667 #0.501961
v 0.186035 0.714355 1.644287 0.466667 0.466667 0.466667 #0.501961
v 0.123779 0.198730 1.644287 0.466667 0.466667 0.466667 #0.501961
v 1.700928 0.583740 0.123779 0.466667 0.466667 0.466667 #0.501961
v 1.700928 0.583740 0.123779 0.466667 0.466667 0.466667 #0.501961
v 0.123779 0.198730 1.644287 0.466667 0.466667 0.466667 #0.501961
v 1.644287 0.198730 0.123779 0.466667 0.466667 0.466667 #0.501961
v 0.061279 0.725098 1.661377 0.466667 0.466667 0.466667 #0.501961
v -0.000977 0.198730 1.661377 0.466667 0.466667 0.466667 #0.501961
v 0.186035 0.714355 1.644287 0.466667 0.466667 0.466667 #0.501961
v 0.186035 0.714355 1.644287 0.466667 0.466667 0.466667 #0.501961
v -0.000977 0.198730 1.661377 0.466667 0.466667 0.466667 #0.501961
v 0.123779 0.198730 1.644287 0.466667 0.466667 0.466667 #0.501961
v -0.060547 0.735596 1.644043 0.466667 0.466667 0.466667 #0.501961
v -0.123535 0.198730 1.644043 0.466667 0.466667 0.466667 #0.501961
v 0.061279 0.725098 1.661377 0.466667 0.466667 0.466667 #0.501961
v 0.061279 0.725098 1.661377 0.466667 0.466667 0.466667 #0.501961
v -0.123535 0.198730 1.644043 0.466667 0.466667 0.466667 #0.501961
v -0.000977 0.198730 1.661377 0.466667 0.466667 0.466667 #0.501961
v -1.575439 0.866211 0.123779 0.466667 0.466667 0.466667 #0.501961
v -1.644043 0.198730 0.123779 0.466667 0.466667 0.466667 #0.501961
v -0.060547 0.735596 1.644043 0.466667 0.466667 0.466667 #0.501961
v -0.060547 0.735596 1.644043 0.466667 0.466667 0.466667 #0.501961
v -1.644043 0.198730 0.123779 0.466667 0.466667 0.466667 #0.501961
v -0.123535 0.198730 1.644043 0.466667 0.466667 0.466667 #0.501961
v -1.591553 0.867676 0.000000 0.466667 0.466667 0.466667 #0.501961
v -1.660400 0.198730 0.000000 0.466667 0.466667 0.466667 #0.501961
v -1.575439 0.866211 0.123779 0.466667 0.466667 0.466667 #0.501961
v -1.575439 0.866211 0.123779 0.466667 0.466667 0.466667 #0.501961
v -1.660400 0.198730 0.000000 0.466667 0.466667 0.466667 #0.501961
v -1.644043 0.198730 0.123779 0.466667 0.466667 0.466667 #0.501961
v -1.574951 0.866211 -0.123291 0.466667 0.466667 0.466667 #0.501961
v -1.643555 0.198730 -0.123047 0.466667 0.466667 0.466667 #0.501961
v -1.591553 0.867676 0.000000 0.466667 0.466667 0.466667 #0.501961
v -1.591553 0.867676 0.000000 0.466667 0.466667 0.466667 #0.501961
v -1.643555 0.198730 -0.123047 0.466667 0.466667 0.466667 #0.501961
v -1.660400 0.198730 0.000000 0.466667 0.466667 0.466667 #0.501961
v -0.060059 0.735596 -1.643799 0.466667 0.466667 0.466667 #0.501961
v -0.123291 0.198730 -1.643555 0.466667 0.466667 0.466667 #0.501961
v -1.574951 0.866211 -0.123291 0.466667 0.466667 0.466667 #0.501961
v -1.574951 0.866211 -0.123291 0.466667 0.466667 0.466667 #0.501961
v -0.123291 0.198730 -1.643555 0.466667 0.466667 0.466667 #0.501961
v -1.643555 0.198730 -0.123047 0.466667 0.466667 0.466667 #0.501961
v 0.062500 0.724854 -1.660400 0.466667 0.466667 0.466667 #0.501961
v 0.000000 0.198730 -1.660400 0.466667 0.466667 0.466667 #0.501961
v -0.060059 0.735596 -1.643799 0.466667 0.466667 0.466667 #0.501961
v -0.060059 0.735596 -1.643799 0.466667 0.466667 0.466667 #0.501961
v 0.000000 0.198730 -1.660400 0.466667 0.466667 0.466667 #0.501961
v -0.123291 0.198730 -1.643555 0.466667 0.466667 0.466667 #0.501961
v 0.185547 0.714355 -1.643799 0.466667 0.466667 0.466667 #0.501961
v 0.123535 0.198730 -1.643799 0.466667 0.466667 0.466667 #0.501961
v 0.062500 0.724854 -1.660400 0.466667 0.466667 0.466667 #0.501961
v 0.062500 0.724854 -1.660400 0.466667 0.466667 0.466667 #0.501961
v 0.123535 0.198730 -1.643799 0.466667 0.466667 0.466667 #0.501961
v 0.000000 0.198730 -1.660400 0.466667 0.466667 0.466667 #0.501961
v 1.700439 0.583740 -0.123535 0.466667 0.466667 0.466667 #0.501961
v 1.644043 0.198730 -0.123535 0.466667 0.466667 0.466667 #0.501961
v 0.185547 0.714355 -1.643799 0.466667 0.466667 0.466667 #0.501961
v 0.185547 0.714355 -1.643799 0.466667 0.466667 0.466667 #0.501961
v 1.644043 0.198730 -0.123535 0.466667 0.466667 0.466667 #0.501961
v 0.123535 0.198730 -1.643799 0.466667 0.466667 0.466667 #0.501961
v 1.853516 0.949951 0.001221 0.466667 0.466667 0.466667 #0.501961
v 1.717285 0.582275 0.001221 0.466667 0.466667 0.466667 #0.501961
v 1.836670 0.952881 -0.123535 0.466667 0.466667 0.466667 #0.501961
v 1.836670 0.952881 -0.123535 0.466667 0.466667 0.466667 #0.501961
v 1.717285 0.582275 0.001221 0.466667 0.466667 0.466667 #0.501961
v 1.700439 0.583740 -0.123535 0.466667 0.466667 0.466667 #0.501961
v 1.837158 0.952881 0.123779 0.466667 0.466667 0.466667 #0.501961
v 1.700928 0.583740 0.123779 0.466667 0.466667 0.466667 #0.501961
v 1.853516 0.949951 0.001221 0.466667 0.466667 0.466667 #0.501961
v 1.853516 0.949951 0.001221 0.466667 0.466667 0.466667 #0.501961
v 1.700928 0.583740 0.123779 0.466667 0.466667 0.466667 #0.501961
v 1.717285 0.582275 0.001221 0.466667 0.466667 0.466667 #0.501961
v 0.339844 1.216064 1.644043 0.466667 0.466667 0.466667 #0.501961
v 0.186035 0.714355 1.644287 0.466667 0.466667 0.466667 #0.501961
v 1.837158 0.952881 0.123779 0.466667 0.466667 0.466667 #0.501961
v 1.837158 0.952881 0.123779 0.466667 0.466667 0.466667 #0.501961
v 0.186035 0.714355 1.644287 0.466667 0.466667 0.466667 #0.501961
v 1.700928 0.583740 0.123779 0.466667 0.466667 0.466667 #0.501961
v 0.216309 1.237793 1.661377 0.466667 0.466667 0.466667 #0.501961
v 0.061279 0.725098 1.661377 0.466667 0.466667 0.466667 #0.501961
v 0.339844 1.216064 1.644043 0.466667 0.466667 0.466667 #0.501961
v 0.339844 1.216064 1.644043 0.466667 0.466667 0.466667 #0.501961
v 0.061279 0.725098 1.661377 0.466667 0.466667 0.466667 #0.501961
v 0.186035 0.714355 1.644287 0.466667 0.466667 0.466667 #0.501961
v 0.095703 1.259033 1.644043 0.466667 0.466667 0.466667 #0.501961
v -0.060547 0.735596 1.644043 0.466667 0.466667 0.466667 #0.501961
v 0.216309 1.237793 1.661377 0.466667 0.466667 0.466667 #0.501961
v 0.216309 1.237793 1.661377 0.466667 0.466667 0.466667 #0.501961
v -0.060547 0.735596 1.644043 0.466667 0.466667 0.466667 #0.501961
v 0.061279 0.725098 1.661377 0.466667 0.466667 0.466667 #0.501961
v -1.401611 1.522217 0.123779 0.466667 0.466667 0.466667 #0.501961
v -1.575439 0.866211 0.123779 0.466667 0.466667 0.466667 #0.501961
v 0.095703 1.259033 1.644043 0.466667 0.466667 0.466667 #0.501961
v 0.095703 1.259033 1.644043 0.466667 0.466667 0.466667 #0.501961
v -1.575439 0.866211 0.123779 0.466667 0.466667 0.466667 #0.501961
v -0.060547 0.735596 1.644043 0.466667 0.466667 0.466667 #0.501961
v -1.417725 1.525146 0.000000 0.466667 0.466667 0.466667 #0.501961
v -1.591553 0.867676 0.000000 0.466667 0.466667 0.466667 #0.501961
v -1.401611 1.522217 0.123779 0.466667 0.466667 0.466667 #0.501961
v -1.401611 1.522217 0.123779 0.466667 0.466667 0.466667 #0.501961
v -1.591553 0.867676 0.000000 0.466667 0.466667 0.466667 #0.501961
v -1.575439 0.866211 0.123779 0.466667 0.466667 0.466667 #0.501961
v -1.401123 1.522217 -0.123291 0.466667 0.466667 0.466667 #0.501961
v -1.574951 0.866211 -0.123291 0.466667 0.466667 0.466667 #0.501961
v -1.417725 1.525146 0.000000 0.466667 0.466667 0.466667 #0.501961
v -1.417725 1.525146 0.000000 0.466667 0.466667 0.466667 #0.501961
v -1.574951 0.866211 -0.123291 0.466667 0.466667 0.466667 #0.501961
v -1.591553 0.867676 0.000000 0.466667 0.466667 0.466667 #0.501961
v 0.096191 1.259033 -1.643799 0.466667 0.466667 0.466667 #0.501961
v -0.060059 0.735596 -1.643799 0.466667 0.466667 0.466667 #0.501961
v -1.401123 1.522217 -0.123291 0.466667 0.466667 0.466667 #0.501961
v -1.401123 1.522217 -0.123291 0.466667 0.466667 0.466667 #0.501961
v -0.060059 0.735596 -1.643799 0.466667 0.466667 0.466667 #0.501961
v -1.574951 0.866211 -0.123291 0.466667 0.466667 0.466667 #0.501961
v 0.217529 1.237549 -1.660400 0.466667 0.466667 0.466667 #0.501961
v 0.062500 0.724854 -1.660400 0.466667 0.466667 0.466667 #0.501961
v 0.096191 1.259033 -1.643799 0.466667 0.466667 0.466667 #0.501961
v 0.096191 1.259033 -1.643799 0.466667 0.466667 0.466667 #0.501961
v 0.062500 0.724854 -1.660400 0.466667 0.466667 0.466667 #0.501961
v -0.060059 0.735596 -1.643799 0.466667 0.466667 0.466667 #0.501961
v 0.339111 1.216309 -1.643799 0.466667 0.466667 0.466667 #0.501961
v 0.185547 0.714355 -1.643799 0.466667 0.466667 0.466667 #0.501961
v 0.217529 1.237549 -1.660400 0.466667 0.466667 0.466667 #0.501961
v 0.217529 1.237549 -1.660400 0.466667 0.466667 0.466667 #0.501961
v 0.185547 0.714355 -1.643799 0.466667 0.466667 0.466667 #0.501961
v 0.062500 0.724854 -1.660400 0.466667 0.466667 0.466667 #0.501961
v 1.836670 0.952881 -0.123535 0.466667 0.466667 0.466667 #0.501961
v 1.700439 0.583740 -0.123535 0.466667 0.466667 0.466667 #0.501961
v 0.339111 1.216309 -1.643799 0.466667 0.466667 0.466667 #0.501961
v 0.339111 1.216309 -1.643799 0.466667 0.466667 0.466667 #0.501961
v 1.700439 0.583740 -0.123535 0.466667 0.466667 0.466667 #0.501961
v 0.185547 0.714355 -1.643799 0.466667 0.466667 0.466667 #0.501961
v 2.064209 1.298340 0.001221 0.466667 0.466667 0.466667 #0.501961
v 1.853516 0.949951 0.001221 0.466667 0.466667 0.466667 #0.501961
v 2.047607 1.302734 -0.123535 0.466667 0.466667 0.466667 #0.501961
v 2.047607 1.302734 -0.123535 0.466667 0.466667 0.466667 #0.501961
v 1.853516 0.949951 0.001221 0.466667 0.466667 0.466667 #0.501961
v 1.836670 0.952881 -0.123535 0.466667 0.466667 0.466667 #0.501961
v 2.048340 1.302734 0.123535 0.466667 0.466667 0.466667 #0.501961
v 1.837158 0.952881 0.123779 0.466667 0.466667 0.466667 #0.501961
v 2.064209 1.298340 0.001221 0.466667 0.466667 0.466667 #0.501961
v 2.064209 1.298340 0.001221 0.466667 0.466667 0.466667 #0.501961
v 1.837158 0.952881 0.123779 0.466667 0.466667 0.466667 #0.501961
v 1.853516 0.949951 0.001221 0.466667 0.466667 0.466667 #0.501961
v 0.579102 1.693604 1.644043 0.466667 0.466667 0.466667 #0.501961
v 0.339844 1.216064 1.644043 0.466667 0.466667 0.466667 #0.501961
v 2.048340 1.302734 0.123535 0.466667 0.466667 0.466667 #0.501961
v 2.048340 1.302734 0.123535 0.466667 0.466667 0.466667 #0.501961
v 0.339844 1.216064 1.644043 0.466667 0.466667 0.466667 #0.501961
v 1.837158 0.952881 0.123779 0.466667 0.466667 0.466667 #0.501961
v 0.458008 1.725830 1.661377 0.466667 0.466667 0.466667 #0.501961
v 0.216309 1.237793 1.661377 0.466667 0.466667 0.466667 #0.501961
v 0.579102 1.693604 1.644043 0.466667 0.466667 0.466667 #0.501961
v 0.579102 1.693604 1.644043 0.466667 0.466667 0.466667 #0.501961
v 0.216309 1.237793 1.661377 0.466667 0.466667 0.466667 #0.501961
v 0.339844 1.216064 1.644043 0.466667 0.466667 0.466667 #0.501961
v 0.339355 1.757324 1.644043 0.466667 0.466667 0.466667 #0.501961
v 0.095703 1.259033 1.644043 0.466667 0.466667 0.466667 #0.501961
v 0.458008 1.725830 1.661377 0.466667 0.466667 0.466667 #0.501961
v 0.458008 1.725830 1.661377 0.466667 0.466667 0.466667 #0.501961
v 0.095703 1.259033 1.644043 0.466667 0.466667 0.466667 #0.501961
v 0.216309 1.237793 1.661377 0.466667 0.466667 0.466667 #0.501961
v -1.129639 2.148193 0.123779 0.466667 0.466667 0.466667 #0.501961
v -1.401611 1.522217 0.123779 0.466667 0.466667 0.466667 #0.501961
v 0.339355 1.757324 1.644043 0.466667 0.466667 0.466667 #0.501961
v 0.339355 1.757324 1.644043 0.466667 0.466667 0.466667 #0.501961
v -1.401611 1.522217 0.123779 0.466667 0.466667 0.466667 #0.501961
v 0.095703 1.259033 1.644043 0.466667 0.466667 0.466667 #0.501961
v -1.145508 2.152344 0.000000 0.466667 0.466667 0.466667 #0.501961
v -1.417725 1.525146 0.000000 0.466667 0.466667 0.466667 #0.501961
v -1.129639 2.148193 0.123779 0.466667 0.466667 0.466667 #0.501961
v -1.129639 2.148193 0.123779 0.466667 0.466667 0.466667 #0.501961
v -1.417725 1.525146 0.000000 0.466667 0.466667 0.466667 #0.501961
v -1.401611 1.522217 0.123779 0.466667 0.466667 0.466667 #0.501961
v -1.129150 2.147949 -0.123535 0.466667 0.466667 0.466667 #0.501961
v -1.401123 1.522217 -0.123291 0.466667 0.466667 0.466667 #0.501961
v -1.145508 2.152344 0.000000 0.466667 0.466667 0.466667 #0.501961
v -1.145508 2.152344 0.000000 0.466667 0.466667 0.466667 #0.501961
v -1.401123 1.522217 -0.123291 0.466667 0.466667 0.466667 #0.501961
v -1.417725 1.525146 0.000000 0.466667 0.466667 0.466667 #0.501961
v 0.340088 1.757080 -1.644043 0.466667 0.466667 0.466667 #0.501961
v 0.096191 1.259033 -1.643799 0.466667 0.466667 0.466667 #0.501961
v -1.129150 2.147949 -0.123535 0.466667 0.466667 0.466667 #0.501961
v -1.129150 2.147949 -0.123535 0.466667 0.466667 0.466667 #0.501961
v 0.096191 1.259033 -1.643799 0.466667 0.466667 0.466667 #0.501961
v -1.401123 1.522217 -0.123291 0.466667 0.466667 0.466667 #0.501961
v 0.458984 1.725586 -1.660400 0.466667 0.466667 0.466667 #0.501961
v 0.217529 1.237549 -1.660400 0.466667 0.466667 0.466667 #0.501961
v 0.340088 1.757080 -1.644043 0.466667 0.466667 0.466667 #0.501961
v 0.340088 1.757080 -1.644043 0.466667 0.466667 0.466667 #0.501961
v 0.217529 1.237549 -1.660400 0.466667 0.466667 0.466667 #0.501961
v 0.096191 1.259033 -1.643799 0.466667 0.466667 0.466667 #0.501961
v 0.578369 1.693604 -1.643799 0.466667 0.466667 0.466667 #0.501961
v 0.339111 1.216309 -1.643799 0.466667 0.466667 0.466667 #0.501961
v 0.458984 1.725586 -1.660400 0.466667 0.466667 0.466667 #0.501961
v 0.458984 1.725586 -1.660400 0.466667 0.466667 0.466667 #0.501961
v 0.339111 1.216309 -1.643799 0.466667 0.466667 0.466667 #0.501961
v 0.217529 1.237549 -1.660400 0.466667 0.466667 0.466667 #0.501961
v 2.047607 1.302734 -0.123535 0.466667 0.466667 0.466667 #0.501961
v 1.836670 0.952881 -0.123535 0.466667 0.466667 0.466667 #0.501961
v 0.578369 1.693604 -1.643799 0.466667 0.466667 0.466667 #0.501961
v 0.578369 1.693604 -1.643799 0.466667 0.466667 0.466667 #0.501961
v 1.836670 0.952881 -0.123535 0.466667 0.466667 0.466667 #0.501961
v 0.339111 1.216309 -1.643799 0.466667 0.466667 0.466667 #0.501961
vt 0.145020 1.002441 0.000000
vt 0.198242 1.002441 0.000000
vt 0.024658 0.921875 0.000000
vt 0.024658 0.921875 0.000000
vt 0.198242 1.002441 0.000000
vt 0.007080 0.873535 0.000000
vt 0.198242 1.002441 0.000000
vt 0.241943 0.994385 0.000000
vt 0.007080 0.873535 0.000000
vt 0.007080 0.873535 0.000000
vt 0.241943 0.994385 0.000000
vt 0.000000 0.802979 0.000000
vt 0.493652 0.934570 0.000000
vt 0.489990 0.907959 0.000000
vt 0.447998 0.982422 0.000000
vt 0.447998 0.982422 0.000000
vt 0.489990 0.907959 0.000000
vt 0.419922 0.978027 0.000000
vt 0.000000 0.719238 0.000000
vt 0.000000 0.802979 0.000000
vt 0.278564 0.972168 0.000000
vt 0.278564 0.972168 0.000000
vt 0.000000 0.802979 0.000000
vt 0.241943 0.994385 0.000000
vt 0.278564 0.972168 0.000000
vt 0.310791 0.932617 0.000000
vt 0.000000 0.719238 0.000000
vt 0.000000 0.719238 0.000000
vt 0.310791 0.932617 0.000000
vt 0.015381 0.650879 0.000000
vt 0.310791 0.932617 0.000000
vt 0.481201 0.602295 0.000000
vt 0.015381 0.650879 0.000000
vt 0.015381 0.650879 0.000000
vt 0.481201 0.602295 0.000000
vt 0.211182 0.602295 0.000000
vt 0.024658 0.921875 0.000000
vt 0.057373 0.957275 0.000000
vt 0.145020 1.002441 0.000000
vt 0.145020 1.002441 0.000000
vt 0.057373 0.957275 0.000000
vt 0.096680 0.987305 0.000000
vt 0.319824 0.943848 0.000000
vt 0.388672 0.965088 0.000000
vt 0.477051 0.696045 0.000000
vt 0.477051 0.696045 0.000000
vt 0.388672 0.965088 0.000000
vt 0.477051 0.877441 0.000000
vt 0.388672 0.965088 0.000000
vt 0.419922 0.978027 0.000000
vt 0.477051 0.877441 0.000000
vt 0.477051 0.877441 0.000000
vt 0.419922 0.978027 0.000000
vt 0.489990 0.907959 0.000000
vt 0.310791 0.932617 0.000000
vt 0.319824 0.943848 0.000000
vt 0.481201 0.602295 0.000000
vt 0.481201 0.602295 0.000000
vt 0.319824 0.943848 0.000000
vt 0.477051 0.696045 0.000000
vt 0.477051 0.696045 0.000000
vt 0.498779 0.673340 0.000000
vt 0.481201 0.602295 0.000000
vt 0.481201 0.602295 0.000000
vt 0.498779 0.673340 0.000000
vt 0.498047 0.614990 0.000000
vt 0.447998 0.982422 0.000000
vt 0.475098 0.975342 0.000000
vt 0.493652 0.934570 0.000000
vt 0.493652 0.934570 0.000000
vt 0.475098 0.975342 0.000000
vt 0.489014 0.959473 0.000000
vt 0.211182 0.602295 0.000000
vt 0.198730 0.584961 0.000000
vt 0.015381 0.650879 0.000000
vt 0.015381 0.650879 0.000000
vt 0.198730 0.584961 0.000000
vt 0.007568 0.643066 0.000000
vt 0.198730 0.584961 0.000000
vt 0.354248 0.352051 0.000000
vt 0.007568 0.643066 0.000000
vt 0.007568 0.643066 0.000000
vt 0.354248 0.352051 0.000000
vt 0.099365 0.352051 0.000000
vt 0.198730 0.584961 0.000000
vt 0.460938 0.408691 0.000000
vt 0.354248 0.352051 0.000000
vt 0.354248 0.352051 0.000000
vt 0.460938 0.408691 0.000000
vt 0.453125 0.352295 0.000000
vt 0.198730 0.584961 0.000000
vt 0.486084 0.585205 0.000000
vt 0.460938 0.408691 0.000000
vt 0.460938 0.408691 0.000000
vt 0.486084 0.585205 0.000000
vt 0.479492 0.461426 0.000000
vt 0.486084 0.585205 0.000000
vt 0.500000 0.573242 0.000000
vt 0.479492 0.461426 0.000000
vt 0.479492 0.461426 0.000000
vt 0.500000 0.573242 0.000000
vt 0.500000 0.501709 0.000000
vt 0.498779 0.673340 0.000000
vt 0.507080 0.652832 0.000000
vt 0.498047 0.614990 0.000000
vt 0.498047 0.614990 0.000000
vt 0.507080 0.652832 0.000000
vt 0.507324 0.633057 0.000000
vt 0.099365 0.352051 0.000000
vt 0.099365 0.286621 0.000000
vt 0.007568 0.643066 0.000000
vt 0.007568 0.643066 0.000000
vt 0.099365 0.286621 0.000000
vt 0.007568 0.299561 0.000000
vt 0.099365 0.286621 0.000000
vt 0.088867 0.273438 0.000000
vt 0.007568 0.299561 0.000000
vt 0.007568 0.299561 0.000000
vt 0.088867 0.273438 0.000000
vt 0.021484 0.279541 0.000000
vt 0.500000 0.573242 0.000000
vt 0.506592 0.556885 0.000000
vt 0.500000 0.501709 0.000000
vt 0.500000 0.501709 0.000000
vt 0.506592 0.556885 0.000000
vt 0.507812 0.524414 0.000000
vt 0.453125 0.352295 0.000000
vt 0.453125 0.297607 0.000000
vt 0.354248 0.352051 0.000000
vt 0.354248 0.352051 0.000000
vt 0.453125 0.297607 0.000000
vt 0.354248 0.297607 0.000000
vt 0.453125 0.297607 0.000000
vt 0.440674 0.277100 0.000000
vt 0.354248 0.297607 0.000000
vt 0.354248 0.297607 0.000000
vt 0.440674 0.277100 0.000000
vt 0.367920 0.277100 0.000000
vt 0.088867 0.273438 0.000000
vt 0.071533 0.265869 0.000000
vt 0.021484 0.279541 0.000000
vt 0.021484 0.279541 0.000000
vt 0.071533 0.265869 0.000000
vt 0.044189 0.266846 0.000000
vt 0.440674 0.277100 0.000000
vt 0.419922 0.264893 0.000000
vt 0.367920 0.277100 0.000000
vt 0.367920 0.277100 0.000000
vt 0.419922 0.264893 0.000000
vt 0.390625 0.264893 0.000000
vt 1.000000 0.640625 0.000000
vt 1.000000 0.523438 0.000000
vt 0.515625 0.640625 0.000000
vt 0.515625 0.640625 0.000000
vt 1.000000 0.523438 0.000000
vt 0.515625 0.523438 0.000000
vt 0.257812 0.062500 0.000000
vt 0.257812 0.000000 0.000000
vt 0.000000 0.062500 0.000000
vt 0.000000 0.062500 0.000000
vt 0.257812 0.000000 0.000000
vt 0.000000 0.000000 0.000000
vt 1.000000 0.062500 0.000000
vt 1.000000 0.000000 0.000000
vt 0.750000 0.062500 0.000000
vt 0.750000 0.062500 0.000000
vt 1.000000 0.000000 0.000000
vt 0.750000 0.000000 0.000000
vt 0.757812 0.062500 0.000000
vt 0.757812 0.000000 0.000000
vt 0.492188 0.062500 0.000000
vt 0.492188 0.062500 0.000000
vt 0.757812 0.000000 0.000000
vt 0.492188 0.000000 0.000000
vt 0.250000 0.250000 0.000000
vt 0.500000 0.250000 0.000000
vt 0.250000 0.000000 0.000000
vt 0.250000 0.000000 0.000000
vt 0.500000 0.250000 0.000000
vt 0.500000 0.000000 0.000000
vt 0.154297 0.174805 0.000000
vt 0.220215 0.174805 0.000000
vt 0.154297 0.134277 0.000000
vt 0.154297 0.134277 0.000000
vt 0.220215 0.174805 0.000000
vt 0.220215 0.134277 0.000000
vt 0.679688 0.320312 0.000000
vt 0.679688 0.382812 0.000000
vt 0.734375 0.320312 0.000000
vt 0.734375 0.320312 0.000000
vt 0.679688 0.382812 0.000000
vt 0.734375 0.382812 0.000000
vt 0.679688 0.464844 0.000000
vt 0.679688 0.492188 0.000000
vt 0.625000 0.464844 0.000000
vt 0.625000 0.464844 0.000000
vt 0.679688 0.492188 0.000000
vt 0.625000 0.492188 0.000000
vt 0.679688 0.320312 0.000000
vt 0.679688 0.382812 0.000000
vt 0.734375 0.320312 0.000000
vt 0.734375 0.320312 0.000000
vt 0.679688 0.382812 0.000000
vt 0.734375 0.382812 0.000000
vt 0.625000 0.409912 0.000000
vt 0.625000 0.382812 0.000000
vt 0.570312 0.409912 0.000000
vt 0.570312 0.409912 0.000000
vt 0.625000 0.382812 0.000000
vt 0.570312 0.382812 0.000000
vt 0.679688 0.320312 0.000000
vt 0.679688 0.382812 0.000000
vt 0.734375 0.320312 0.000000
vt 0.734375 0.320312 0.000000
vt 0.679688 0.382812 0.000000
vt 0.734375 0.382812 0.000000
vt 0.679688 0.320312 0.000000
vt 0.679688 0.382812 0.000000
vt 0.734375 0.320312 0.000000
vt 0.734375 0.320312 0.000000
vt 0.679688 0.382812 0.000000
vt 0.734375 0.382812 0.000000
vt 0.679688 0.320312 0.000000
vt 0.679688 0.382812 0.000000
vt 0.734375 0.320312 0.000000
vt 0.734375 0.320312 0.000000
vt 0.679688 0.382812 0.000000
vt 0.734375 0.382812 0.000000
vt 0.679688 0.320312 0.000000
vt 0.679688 0.382812 0.000000
vt 0.734375 0.320312 0.000000
vt 0.734375 0.320312 0.000000
vt 0.679688 0.382812 0.000000
vt 0.734375 0.382812 0.000000
vt 0.625000 0.409912 0.000000
vt 0.625000 0.382812 0.000000
vt 0.570312 0.409912 0.000000
vt 0.570312 0.409912 0.000000
vt 0.625000 0.382812 0.000000
vt 0.570312 0.382812 0.000000
vt 0.679688 0.320312 0.000000
vt 0.679688 0.382812 0.000000
vt 0.734375 0.320312 0.000000
vt 0.734375 0.320312 0.000000
vt 0.679688 0.382812 0.000000
vt 0.734375 0.382812 0.000000
vt 0.679688 0.320312 0.000000
vt 0.679688 0.382812 0.000000
vt 0.734375 0.320312 0.000000
vt 0.734375 0.320312 0.000000
vt 0.679688 0.382812 0.000000
vt 0.734375 0.382812 0.000000
vt 0.625000 0.344238 0.000000
vt 0.679688 0.320312 0.000000
vt 0.570312 0.320312 0.000000
vt 0.570312 0.320312 0.000000
vt 0.679688 0.320312 0.000000
vt 0.625000 0.257812 0.000000
vt 0.625000 0.344238 0.000000
vt 0.570312 0.320312 0.000000
vt 0.679688 0.320312 0.000000
vt 0.679688 0.320312 0.000000
vt 0.570312 0.320312 0.000000
vt 0.625000 0.257812 0.000000
vt 0.625000 0.344238 0.000000
vt 0.570312 0.320312 0.000000
vt 0.679688 0.320312 0.000000
vt 0.679688 0.320312 0.000000
vt 0.570312 0.320312 0.000000
vt 0.625000 0.257812 0.000000
vt 0.625000 0.344238 0.000000
vt 0.679688 0.320312 0.000000
vt 0.570312 0.320312 0.000000
vt 0.570312 0.320312 0.000000
vt 0.679688 0.320312 0.000000
vt 0.625000 0.257812 0.000000
vt 0.625000 0.344238 0.000000
vt 0.570312 0.320312 0.000000
vt 0.679688 0.320312 0.000000
vt 0.679688 0.320312 0.000000
vt 0.570312 0.320312 0.000000
vt 0.625000 0.257812 0.000000
vt 0.625000 0.344238 0.000000
vt 0.679688 0.320312 0.000000
vt 0.570312 0.320312 0.000000
vt 0.570312 0.320312 0.000000
vt 0.679688 0.320312 0.000000
vt 0.625000 0.257812 0.000000
vt 0.625000 0.344238 0.000000
vt 0.679688 0.320312 0.000000
vt 0.570312 0.320312 0.000000
vt 0.570312 0.320312 0.000000
vt 0.679688 0.320312 0.000000
vt 0.625000 0.257812 0.000000
vt 0.625000 0.344238 0.000000
vt 0.679688 0.320312 0.000000
vt 0.570312 0.320312 0.000000
vt 0.570312 0.320312 0.000000
vt 0.679688 0.320312 0.000000
vt 0.625000 0.257812 0.000000
vt 0.625000 0.382812 0.000000
vt 0.679688 0.382812 0.000000
vt 0.625000 0.344238 0.000000
vt 0.625000 0.344238 0.000000
vt 0.679688 0.382812 0.000000
vt 0.679688 0.320312 0.000000
vt 0.570312 0.320312 0.000000
vt 0.625000 0.257812 0.000000
vt 0.515625 0.320312 0.000000
vt 0.515625 0.320312 0.000000
vt 0.625000 0.257812 0.000000
vt 0.515625 0.257812 0.000000
vt 0.734375 0.320312 0.000000
vt 0.734375 0.257812 0.000000
vt 0.679688 0.320312 0.000000
vt 0.679688 0.320312 0.000000
vt 0.734375 0.257812 0.000000
vt 0.625000 0.257812 0.000000
vt 0.625000 0.382812 0.000000
vt 0.679688 0.382812 0.000000
vt 0.625000 0.344238 0.000000
vt 0.625000 0.344238 0.000000
vt 0.679688 0.382812 0.000000
vt 0.679688 0.320312 0.000000
vt 0.734375 0.320312 0.000000
vt 0.734375 0.257812 0.000000
vt 0.679688 0.320312 0.000000
vt 0.679688 0.320312 0.000000
vt 0.734375 0.257812 0.000000
vt 0.625000 0.257812 0.000000
vt 0.625000 0.382812 0.000000
vt 0.570312 0.382812 0.000000
vt 0.625000 0.344238 0.000000
vt 0.625000 0.344238 0.000000
vt 0.570312 0.382812 0.000000
vt 0.570312 0.320312 0.000000
vt 0.734375 0.320312 0.000000
vt 0.734375 0.257812 0.000000
vt 0.679688 0.320312 0.000000
vt 0.679688 0.320312 0.000000
vt 0.734375 0.257812 0.000000
vt 0.625000 0.257812 0.000000
vt 0.625000 0.382812 0.000000
vt 0.679688 0.382812 0.000000
vt 0.625000 0.344238 0.000000
vt 0.625000 0.344238 0.000000
vt 0.679688 0.382812 0.000000
vt 0.679688 0.320312 0.000000
vt 0.625000 0.382812 0.000000
vt 0.679688 0.382812 0.000000
vt 0.625000 0.344238 0.000000
vt 0.625000 0.344238 0.000000
vt 0.679688 0.382812 0.000000
vt 0.679688 0.320312 0.000000
vt 0.734375 0.320312 0.000000
vt 0.734375 0.257812 0.000000
vt 0.679688 0.320312 0.000000
vt 0.679688 0.320312 0.000000
vt 0.734375 0.257812 0.000000
vt 0.625000 0.257812 0.000000
vt 0.625000 0.382812 0.000000
vt 0.570312 0.382812 0.000000
vt 0.625000 0.344238 0.000000
vt 0.625000 0.344238 0.000000
vt 0.570312 0.382812 0.000000
vt 0.570312 0.320312 0.000000
vt 0.734375 0.320312 0.000000
vt 0.734375 0.257812 0.000000
vt 0.679688 0.320312 0.000000
vt 0.679688 0.320312 0.000000
vt 0.734375 0.257812 0.000000
vt 0.625000 0.257812 0.000000
vt 0.625000 0.382812 0.000000
vt 0.679688 0.382812 0.000000
vt 0.625000 0.344238 0.000000
vt 0.625000 0.344238 0.000000
vt 0.679688 0.382812 0.000000
vt 0.679688 0.320312 0.000000
vt 0.734375 0.320312 0.000000
vt 0.734375 0.257812 0.000000
vt 0.679688 0.320312 0.000000
vt 0.679688 0.320312 0.000000
vt 0.734375 0.257812 0.000000
vt 0.625000 0.257812 0.000000
vt 0.625000 0.382812 0.000000
vt 0.570312 0.382812 0.000000
vt 0.625000 0.344238 0.000000
vt 0.625000 0.344238 0.000000
vt 0.570312 0.382812 0.000000
vt 0.570312 0.320312 0.000000
vt 0.734375 0.320312 0.000000
vt 0.734375 0.257812 0.000000
vt 0.679688 0.320312 0.000000
vt 0.679688 0.320312 0.000000
vt 0.734375 0.257812 0.000000
vt 0.625000 0.257812 0.000000
vt 0.625000 0.344238 0.000000
vt 0.570312 0.320312 0.000000
vt 0.625000 0.382812 0.000000
vt 0.625000 0.382812 0.000000
vt 0.570312 0.320312 0.000000
vt 0.570312 0.382812 0.000000
vt 0.679688 0.464844 0.000000
vt 0.679688 0.492188 0.000000
vt 0.625000 0.464844 0.000000
vt 0.625000 0.464844 0.000000
vt 0.679688 0.492188 0.000000
vt 0.625000 0.492188 0.000000
vt 0.625000 0.344238 0.000000
vt 0.679688 0.320312 0.000000
vt 0.625000 0.382812 0.000000
vt 0.625000 0.382812 0.000000
vt 0.679688 0.320312 0.000000
vt 0.679688 0.382812 0.000000
vt 0.625000 0.344238 0.000000
vt 0.570312 0.320312 0.000000
vt 0.625000 0.382812 0.000000
vt 0.625000 0.382812 0.000000
vt 0.570312 0.320312 0.000000
vt 0.570312 0.382812 0.000000
vt 0.679688 0.409912 0.000000
vt 0.679688 0.382812 0.000000
vt 0.625000 0.409912 0.000000
vt 0.625000 0.409912 0.000000
vt 0.679688 0.382812 0.000000
vt 0.625000 0.382812 0.000000
vt 0.625000 0.344238 0.000000
vt 0.570312 0.320312 0.000000
vt 0.625000 0.382812 0.000000
vt 0.625000 0.382812 0.000000
vt 0.570312 0.320312 0.000000
vt 0.570312 0.382812 0.000000
vt 0.625000 0.344238 0.000000
vt 0.679688 0.320312 0.000000
vt 0.625000 0.382812 0.000000
vt 0.625000 0.382812 0.000000
vt 0.679688 0.320312 0.000000
vt 0.679688 0.382812 0.000000
vt 0.679688 0.464844 0.000000
vt 0.679688 0.492188 0.000000
vt 0.625000 0.464844 0.000000
vt 0.625000 0.464844 0.000000
vt 0.679688 0.492188 0.000000
vt 0.625000 0.492188 0.000000
vt 0.625000 0.344238 0.000000
vt 0.570312 0.320312 0.000000
vt 0.625000 0.382812 0.000000
vt 0.625000 0.382812 0.000000
vt 0.570312 0.320312 0.000000
vt 0.570312 0.382812 0.000000
vt 0.625000 0.344238 0.000000
vt 0.679688 0.320312 0.000000
vt 0.625000 0.382812 0.000000
vt 0.625000 0.382812 0.000000
vt 0.679688 0.320312 0.000000
vt 0.679688 0.382812 0.000000
vt 0.625000 0.409912 0.000000
vt 0.625000 0.382812 0.000000
vt 0.570312 0.409912 0.000000
vt 0.570312 0.409912 0.000000
vt 0.625000 0.382812 0.000000
vt 0.570312 0.382812 0.000000
vt 0.625000 0.344238 0.000000
vt 0.570312 0.320312 0.000000
vt 0.625000 0.382812 0.000000
vt 0.625000 0.382812 0.000000
vt 0.570312 0.320312 0.000000
vt 0.570312 0.382812 0.000000
vt 0.625000 0.409912 0.000000
vt 0.625000 0.382812 0.000000
vt 0.570312 0.409912 0.000000
vt 0.570312 0.409912 0.000000
vt 0.625000 0.382812 0.000000
vt 0.570312 0.382812 0.000000
vt 0.625000 0.409912 0.000000
vt 0.625000 0.382812 0.000000
vt 0.679688 0.409912 0.000000
vt 0.679688 0.409912 0.000000
vt 0.625000 0.382812 0.000000
vt 0.679688 0.382812 0.000000
vt 0.570312 0.464844 0.000000
vt 0.570312 0.492188 0.000000
vt 0.625000 0.464844 0.000000
vt 0.625000 0.464844 0.000000
vt 0.570312 0.492188 0.000000
vt 0.625000 0.492188 0.000000
vt 0.492188 0.187500 0.000000
vt 0.492188 0.250000 0.000000
vt 0.757812 0.187500 0.000000
vt 0.757812 0.187500 0.000000
vt 0.492188 0.250000 0.000000
vt 0.757812 0.250000 0.000000
vt 0.625000 0.409912 0.000000
vt 0.625000 0.382812 0.000000
vt 0.679688 0.409912 0.000000
vt 0.679688 0.409912 0.000000
vt 0.625000 0.382812 0.000000
vt 0.679688 0.382812 0.000000
vt 0.570312 0.464844 0.000000
vt 0.570312 0.492188 0.000000
vt 0.625000 0.464844 0.000000
vt 0.625000 0.464844 0.000000
vt 0.570312 0.492188 0.000000
vt 0.625000 0.492188 0.000000
vt 0.750000 0.187500 0.000000
vt 0.750000 0.250000 0.000000
vt 1.000000 0.187500 0.000000
vt 1.000000 0.187500 0.000000
vt 0.750000 0.250000 0.000000
vt 1.000000 0.250000 0.000000
vt 0.625000 0.464844 0.000000
vt 0.625000 0.492188 0.000000
vt 0.679688 0.464844 0.000000
vt 0.679688 0.464844 0.000000
vt 0.625000 0.492188 0.000000
vt 0.679688 0.492188 0.000000
vt 0.570312 0.464844 0.000000
vt 0.570312 0.492188 0.000000
vt 0.625000 0.464844 0.000000
vt 0.625000 0.464844 0.000000
vt 0.570312 0.492188 0.000000
vt 0.625000 0.492188 0.000000
vt 0.000000 0.187500 0.000000
vt 0.000000 0.250000 0.000000
vt 0.257812 0.187500 0.000000
vt 0.257812 0.187500 0.000000
vt 0.000000 0.250000 0.000000
vt 0.257812 0.250000 0.000000
vt 0.625000 0.409912 0.000000
vt 0.625000 0.382812 0.000000
vt 0.679688 0.409912 0.000000
vt 0.679688 0.409912 0.000000
vt 0.625000 0.382812 0.000000
vt 0.679688 0.382812 0.000000
vt 0.570312 0.464844 0.000000
vt 0.570312 0.492188 0.000000
vt 0.625000 0.464844 0.000000
vt 0.625000 0.464844 0.000000
vt 0.570312 0.492188 0.000000
vt 0.625000 0.492188 0.000000
vt 0.515625 0.882812 0.000000
vt 0.515625 1.000000 0.000000
vt 1.000000 0.882812 0.000000
vt 1.000000 0.882812 0.000000
vt 0.515625 1.000000 0.000000
vt 1.000000 1.000000 0.000000
vt 0.625000 0.437500 0.000000
vt 0.625000 0.409912 0.000000
vt 0.679688 0.437500 0.000000
vt 0.679688 0.437500 0.000000
vt 0.625000 0.409912 0.000000
vt 0.679688 0.409912 0.000000
vt 0.570312 0.437500 0.000000
vt 0.570312 0.464844 0.000000
vt 0.625000 0.437500 0.000000
vt 0.625000 0.437500 0.000000
vt 0.570312 0.464844 0.000000
vt 0.625000 0.464844 0.000000
vt 0.492188 0.125000 0.000000
vt 0.492188 0.187500 0.000000
vt 0.757812 0.125000 0.000000
vt 0.757812 0.125000 0.000000
vt 0.492188 0.187500 0.000000
vt 0.757812 0.187500 0.000000
vt 0.625000 0.437500 0.000000
vt 0.625000 0.409912 0.000000
vt 0.679688 0.437500 0.000000
vt 0.679688 0.437500 0.000000
vt 0.625000 0.409912 0.000000
vt 0.679688 0.409912 0.000000
vt 0.570312 0.437500 0.000000
vt 0.570312 0.464844 0.000000
vt 0.625000 0.437500 0.000000
vt 0.625000 0.437500 0.000000
vt 0.570312 0.464844 0.000000
vt 0.625000 0.464844 0.000000
vt 0.750000 0.125000 0.000000
vt 0.750000 0.187500 0.000000
vt 1.000000 0.125000 0.000000
vt 1.000000 0.125000 0.000000
vt 0.750000 0.187500 0.000000
vt 1.000000 0.187500 0.000000
vt 0.625000 0.437500 0.000000
vt 0.625000 0.464844 0.000000
vt 0.679688 0.437500 0.000000
vt 0.679688 0.437500 0.000000
vt 0.625000 0.464844 0.000000
vt 0.679688 0.464844 0.000000
vt 0.570312 0.437500 0.000000
vt 0.570312 0.464844 0.000000
vt 0.625000 0.437500 0.000000
vt 0.625000 0.437500 0.000000
vt 0.570312 0.464844 0.000000
vt 0.625000 0.464844 0.000000
vt 0.000000 0.125000 0.000000
vt 0.000000 0.187500 0.000000
vt 0.257812 0.125000 0.000000
vt 0.257812 0.125000 0.000000
vt 0.000000 0.187500 0.000000
vt 0.257812 0.187500 0.000000
vt 0.625000 0.437500 0.000000
vt 0.625000 0.409912 0.000000
vt 0.679688 0.437500 0.000000
vt 0.679688 0.437500 0.000000
vt 0.625000 0.409912 0.000000
vt 0.679688 0.409912 0.000000
vt 0.570312 0.437500 0.000000
vt 0.570312 0.464844 0.000000
vt 0.625000 0.437500 0.000000
vt 0.625000 0.437500 0.000000
vt 0.570312 0.464844 0.000000
vt 0.625000 0.464844 0.000000
vt 0.515625 0.757812 0.000000
vt 0.515625 0.882812 0.000000
vt 1.000000 0.757812 0.000000
vt 1.000000 0.757812 0.000000
vt 0.515625 0.882812 0.000000
vt 1.000000 0.882812 0.000000
vt 0.625000 0.464844 0.000000
vt 0.625000 0.437500 0.000000
vt 0.679688 0.464844 0.000000
vt 0.679688 0.464844 0.000000
vt 0.625000 0.437500 0.000000
vt 0.679688 0.437500 0.000000
vt 0.570312 0.409912 0.000000
vt 0.570312 0.437500 0.000000
vt 0.625000 0.409912 0.000000
vt 0.625000 0.409912 0.000000
vt 0.570312 0.437500 0.000000
vt 0.625000 0.437500 0.000000
vt 0.492188 0.062500 0.000000
vt 0.492188 0.125000 0.000000
vt 0.757812 0.062500 0.000000
vt 0.757812 0.062500 0.000000
vt 0.492188 0.125000 0.000000
vt 0.757812 0.125000 0.000000
vt 0.625000 0.464844 0.000000
vt 0.625000 0.437500 0.000000
vt 0.679688 0.464844 0.000000
vt 0.679688 0.464844 0.000000
vt 0.625000 0.437500 0.000000
vt 0.679688 0.437500 0.000000
vt 0.570312 0.409912 0.000000
vt 0.570312 0.437500 0.000000
vt 0.625000 0.409912 0.000000
vt 0.625000 0.409912 0.000000
vt 0.570312 0.437500 0.000000
vt 0.625000 0.437500 0.000000
vt 0.750000 0.062500 0.000000
vt 0.750000 0.125000 0.000000
vt 1.000000 0.062500 0.000000
vt 1.000000 0.062500 0.000000
vt 0.750000 0.125000 0.000000
vt 1.000000 0.125000 0.000000
vt 0.625000 0.409912 0.000000
vt 0.625000 0.437500 0.000000
vt 0.679688 0.409912 0.000000
vt 0.679688 0.409912 0.000000
vt 0.625000 0.437500 0.000000
vt 0.679688 0.437500 0.000000
vt 0.570312 0.409912 0.000000
vt 0.570312 0.437500 0.000000
vt 0.625000 0.409912 0.000000
vt 0.625000 0.409912 0.000000
vt 0.570312 0.437500 0.000000
vt 0.625000 0.437500 0.000000
vt 0.000000 0.062500 0.000000
vt 0.000000 0.125000 0.000000
vt 0.257812 0.062500 0.000000
vt 0.257812 0.062500 0.000000
vt 0.000000 0.125000 0.000000
vt 0.257812 0.125000 0.000000
vt 0.625000 0.464844 0.000000
vt 0.625000 0.437500 0.000000
vt 0.679688 0.464844 0.000000
vt 0.679688 0.464844 0.000000
vt 0.625000 0.437500 0.000000
vt 0.679688 0.437500 0.000000
vt 0.570312 0.409912 0.000000
vt 0.570312 0.437500 0.000000
vt 0.625000 0.409912 0.000000
vt 0.625000 0.409912 0.000000
vt 0.570312 0.437500 0.000000
vt 0.625000 0.437500 0.000000
vt 0.515625 0.640625 0.000000
vt 0.515625 0.757812 0.000000
vt 1.000000 0.640625 0.000000
vt 1.000000 0.640625 0.000000
vt 0.515625 0.757812 0.000000
vt 1.000000 0.757812 0.000000
vn 0.339111 0.940674 0.000000
vn 0.339111 0.940674 0.000000
vn 0.339111 0.940674 0.000000
vn 0.339111 0.940674 0.000000
vn 0.339111 0.940674 0.000000
vn 0.339111 0.940674 0.000000
vn 0.339111 0.940674 0.000000
vn 0.339111 0.940674 0.000000
vn 0.339111 0.940674 0.000000
vn 0.339111 0.940674 0.000000
vn 0.339111 0.940674 0.000000
vn 0.339111 0.940674 0.000000
vn 0.338867 0.940674 0.000000
vn 0.339111 0.940674 0.000000
vn 0.338867 0.940674 0.000000
vn 0.338867 0.940674 0.000000
vn 0.339111 0.940674 0.000000
vn 0.339111 0.940674 0.000000
vn 0.339111 0.940674 0.000000
vn 0.339111 0.940674 0.000000
vn 0.339111 0.940674 0.000000
vn 0.339111 0.940674 0.000000
vn 0.339111 0.940674 0.000000
vn 0.339111 0.940674 0.000000
vn 0.339111 0.940674 0.000000
vn 0.339111 0.940674 0.000000
vn 0.339111 0.940674 0.000000
vn 0.339111 0.940674 0.000000
vn 0.339111 0.940674 0.000000
vn 0.339111 0.940674 0.000000
vn 0.339111 0.940674 0.000000
vn 0.339111 0.940674 0.000000
vn 0.339111 0.940674 0.000000
vn 0.339111 0.940674 0.000000
vn 0.339111 0.940674 0.000000
vn 0.339111 0.940674 0.000000
vn 0.339111 0.940674 0.000000
vn 0.339111 0.940674 0.000000
vn 0.339111 0.940674 0.000000
vn 0.339111 0.940674 0.000000
vn 0.339111 0.940674 0.000000
vn 0.339111 0.940674 0.000000
vn 0.339111 0.940674 0.000000
vn 0.339111 0.940674 0.000000
vn 0.339111 0.940674 0.000000
vn 0.339111 0.940674 0.000000
vn 0.339111 0.940674 0.000000
vn 0.339111 0.940674 0.000000
vn 0.339111 0.940674 0.000000
vn 0.339111 0.940674 0.000000
vn 0.339111 0.940674 0.000000
vn 0.339111 0.940674 0.000000
vn 0.339111 0.940674 0.000000
vn 0.339111 0.940674 0.000000
vn 0.339111 0.940674 0.000000
vn 0.339111 0.940674 0.000000
vn 0.339111 0.940674 0.000000
vn 0.339111 0.940674 0.000000
vn 0.339111 0.940674 0.000000
vn 0.339111 0.940674 0.000000
vn 0.339111 0.940674 0.000000
vn 0.339111 0.940674 0.000000
vn 0.339111 0.940674 0.000000
vn 0.339111 0.940674 0.000000
vn 0.339111 0.940674 0.000000
vn 0.339111 0.940674 0.000000
vn 0.338867 0.940674 0.000000
vn 0.338867 0.940674 0.000000
vn 0.338867 0.940674 0.000000
vn 0.338867 0.940674 0.000000
vn 0.338867 0.940674 0.000000
vn 0.338867 0.940674 0.000000
vn 0.339111 0.940674 0.000000
vn 0.339111 0.940674 0.000000
vn 0.339111 0.940674 0.000000
vn 0.339111 0.940674 0.000000
vn 0.339111 0.940674 0.000000
vn 0.339111 0.940674 0.000000
vn 0.339111 0.940674 0.000000
vn 0.339111 0.940674 0.000000
vn 0.339111 0.940674 0.000000
vn 0.339111 0.940674 0.000000
vn 0.339111 0.940674 0.000000
vn 0.339111 0.940674 0.000000
vn 0.339111 0.940674 0.000000
vn 0.339111 0.940674 0.000000
vn 0.339111 0.940674 0.000000
vn 0.339111 0.940674 0.000000
vn 0.339111 0.940674 0.000000
vn 0.339111 0.940674 0.000000
vn 0.339111 0.940674 0.000000
vn 0.339111 0.940674 0.000000
vn 0.339111 0.940674 0.000000
vn 0.339111 0.940674 0.000000
vn 0.339111 0.940674 0.000000
vn 0.339111 0.940674 0.000000
vn 0.339111 0.940674 0.000000
vn 0.339111 0.940674 0.000000
vn 0.339111 0.940674 0.000000
vn 0.339111 0.940674 0.000000
vn 0.339111 0.940674 0.000000
vn 0.339111 0.940674 0.000000
vn 0.339111 0.940674 0.000000
vn 0.339111 0.940674 0.000000
vn 0.339111 0.940674 0.000000
vn 0.339111 0.940674 0.000000
vn 0.339111 0.940674 0.000000
vn 0.339111 0.940674 0.000000
vn 0.339111 0.940674 0.000000
vn 0.339111 0.940674 0.000000
vn 0.339111 0.940674 0.000000
vn 0.339111 0.940674 0.000000
vn 0.339111 0.940674 0.000000
vn 0.339111 0.940674 0.000000
vn 0.339111 0.940674 0.000000
vn 0.339111 0.940674 0.000000
vn 0.339111 0.940674 0.000000
vn 0.339111 0.940674 0.000000
vn 0.339111 0.940674 0.000000
vn 0.339111 0.940674 0.000000
vn 0.339111 0.940674 0.000000
vn 0.338867 0.940674 0.000000
vn 0.339111 0.940674 0.000000
vn 0.339111 0.940674 0.000000
vn 0.338867 0.940674 0.000000
vn 0.338867 0.940674 0.000000
vn 0.339111 0.940674 0.000000
vn 0.339111 0.940674 0.000000
vn 0.339111 0.940674 0.000000
vn 0.339111 0.940674 0.000000
vn 0.339111 0.940674 0.000000
vn 0.339111 0.940674 0.000000
vn 0.339111 0.940674 0.000000
vn 0.339111 0.940674 0.000000
vn 0.339111 0.940674 0.000000
vn 0.339111 0.940674 0.000000
vn 0.339111 0.940674 0.000000
vn 0.339111 0.940674 0.000000
vn 0.339111 0.940674 0.000000
vn 0.338867 0.940674 0.000000
vn 0.339111 0.940674 0.000000
vn 0.339111 0.940674 0.000000
vn 0.338867 0.940674 0.000000
vn 0.338867 0.940674 0.000000
vn 0.339111 0.940674 0.000000
vn 0.339111 0.940674 0.000000
vn 0.339111 0.940674 0.000000
vn 0.339111 0.940674 0.000000
vn 0.339111 0.940674 0.000000
vn 0.339111 0.940674 0.000000
vn 0.382324 -0.250732 0.889160
vn 0.446533 -0.031982 0.894043
vn 0.737061 -0.521729 0.428955
vn 0.737061 -0.521729 0.428955
vn 0.446533 -0.031982 0.894043
vn 0.859375 -0.271240 0.432861
vn -0.791504 0.427246 0.436523
vn -0.690430 0.590332 0.417725
vn -0.393799 0.222168 0.891846
vn -0.393799 0.222168 0.891846
vn -0.690430 0.590332 0.417725
vn -0.303955 0.406494 0.861328
vn -0.396240 0.223633 -0.890381
vn -0.308594 0.383789 -0.870117
vn -0.792480 0.427734 -0.434326
vn -0.792480 0.427734 -0.434326
vn -0.308594 0.383789 -0.870117
vn -0.711426 0.568115 -0.413086
vn 0.737549 -0.522217 -0.427734
vn 0.866943 -0.241211 -0.435791
vn 0.383789 -0.251465 -0.888428
vn 0.383789 -0.251465 -0.888428
vn 0.866943 -0.241211 -0.435791
vn 0.460693 0.000244 -0.887451
vn 0.048828 -0.934326 -0.352783
vn -0.350098 -0.935303 0.046875
vn 0.355713 -0.933350 -0.046143
vn 0.355713 -0.933350 -0.046143
vn -0.350098 -0.935303 0.046875
vn -0.044189 -0.935059 0.351562
vn 0.645752 0.761719 -0.047607
vn 0.267090 0.899414 0.345215
vn 0.359131 0.865234 -0.349121
vn 0.359131 0.865234 -0.349121
vn 0.267090 0.899414 0.345215
vn -0.008057 0.998535 0.050049
vn 0.887207 0.385010 0.253418
vn 0.859375 -0.271240 0.432861
vn 0.463135 0.539062 0.703369
vn 0.463135 0.539062 0.703369
vn 0.859375 -0.271240 0.432861
vn 0.446533 -0.031982 0.894043
vn 0.737061 -0.521729 0.428955
vn 0.859375 -0.271240 0.432861
vn 0.803711 -0.594971 0.001221
vn 0.803711 -0.594971 0.001221
vn 0.859375 -0.271240 0.432861
vn 0.940430 -0.339355 -0.004883
vn 0.257324 -0.663574 0.702148
vn 0.420166 -0.229248 0.877686
vn 0.704102 -0.662842 0.254150
vn 0.704102 -0.662842 0.254150
vn 0.420166 -0.229248 0.877686
vn 0.869385 -0.264160 0.417236
vn 0.000000 -0.000488 1.000000
vn 0.053955 0.174072 0.983154
vn 0.382324 -0.250732 0.889160
vn 0.382324 -0.250732 0.889160
vn 0.053955 0.174072 0.983154
vn 0.446533 -0.031982 0.894043
vn -0.086914 0.721436 0.686768
vn -0.303955 0.406494 0.861328
vn -0.425781 0.843750 0.326172
vn -0.425781 0.843750 0.326172
vn -0.303955 0.406494 0.861328
vn -0.690430 0.590332 0.417725
vn -0.690430 -0.649414 0.317627
vn -0.883789 -0.181396 0.431152
vn -0.316650 -0.650391 0.689941
vn -0.316650 -0.650391 0.689941
vn -0.883789 -0.181396 0.431152
vn -0.428467 -0.204102 0.879883
vn -0.434814 0.863281 -0.255859
vn -0.711426 0.568115 -0.413086
vn -0.015869 0.712891 -0.700928
vn -0.015869 0.712891 -0.700928
vn -0.711426 0.568115 -0.413086
vn -0.308594 0.383789 -0.870117
vn -0.253418 -0.665527 -0.701904
vn -0.426514 -0.179443 -0.886230
vn -0.701660 -0.665283 -0.254150
vn -0.701660 -0.665283 -0.254150
vn -0.426514 -0.179443 -0.886230
vn -0.890625 -0.155518 -0.426758
vn -0.001221 0.000244 -0.999756
vn 0.070068 0.178955 -0.981201
vn -0.396240 0.223633 -0.890381
vn -0.396240 0.223633 -0.890381
vn 0.070068 0.178955 -0.981201
vn -0.308594 0.383789 -0.870117
vn 0.517578 0.505859 -0.689697
vn 0.460693 0.000244 -0.887451
vn 0.870605 0.377197 -0.315430
vn 0.870605 0.377197 -0.315430
vn 0.460693 0.000244 -0.887451
vn 0.866943 -0.241211 -0.435791
vn 0.689697 -0.651855 -0.314453
vn 0.859131 -0.294678 -0.417969
vn 0.317139 -0.651611 -0.688965
vn 0.317139 -0.651611 -0.688965
vn 0.859131 -0.294678 -0.417969
vn 0.421631 -0.261230 -0.868164
vn 0.860596 -0.507568 -0.038086
vn 0.689697 -0.651855 -0.314453
vn 0.704102 -0.662842 0.254150
vn 0.704102 -0.662842 0.254150
vn 0.689697 -0.651855 -0.314453
vn 0.355713 -0.933350 -0.046143
vn -0.037354 -0.505127 0.862061
vn 0.257324 -0.663574 0.702148
vn -0.316650 -0.650391 0.689941
vn -0.316650 -0.650391 0.689941
vn 0.257324 -0.663574 0.702148
vn -0.044189 -0.935059 0.351562
vn 0.982910 0.179688 -0.037598
vn 0.887207 0.385010 0.253418
vn 0.870605 0.377197 -0.315430
vn 0.870605 0.377197 -0.315430
vn 0.887207 0.385010 0.253418
vn 0.645752 0.761719 -0.047607
vn 0.124268 0.485596 0.864990
vn -0.086914 0.721436 0.686768
vn 0.463135 0.539062 0.703369
vn 0.463135 0.539062 0.703369
vn -0.086914 0.721436 0.686768
vn 0.267090 0.899414 0.345215
vn 0.038818 -0.507324 -0.860596
vn -0.253418 -0.665527 -0.701904
vn 0.317139 -0.651611 -0.688965
vn 0.317139 -0.651611 -0.688965
vn -0.253418 -0.665527 -0.701904
vn 0.048828 -0.934326 -0.352783
vn -0.862793 -0.503662 0.039062
vn -0.690430 -0.649414 0.317627
vn -0.701660 -0.665283 -0.254150
vn -0.701660 -0.665283 -0.254150
vn -0.690430 -0.649414 0.317627
vn -0.350098 -0.935303 0.046875
vn 0.205566 0.464111 -0.861328
vn 0.517578 0.505859 -0.689697
vn -0.015869 0.712891 -0.700928
vn -0.015869 0.712891 -0.700928
vn 0.517578 0.505859 -0.689697
vn 0.359131 0.865234 -0.349121
vn -0.644043 0.763184 0.046143
vn -0.434814 0.863281 -0.255859
vn -0.425781 0.843750 0.326172
vn -0.425781 0.843750 0.326172
vn -0.434814 0.863281 -0.255859
vn -0.008057 0.998535 0.050049
vn -0.804443 0.593750 0.010254
vn -0.711426 0.568115 -0.413086
vn -0.644043 0.763184 0.046143
vn -0.644043 0.763184 0.046143
vn -0.711426 0.568115 -0.413086
vn -0.434814 0.863281 -0.255859
vn -0.425781 0.843750 0.326172
vn -0.008057 0.998535 0.050049
vn -0.086914 0.721436 0.686768
vn -0.086914 0.721436 0.686768
vn -0.008057 0.998535 0.050049
vn 0.267090 0.899414 0.345215
vn -0.015869 0.712891 -0.700928
vn 0.359131 0.865234 -0.349121
vn -0.434814 0.863281 -0.255859
vn -0.434814 0.863281 -0.255859
vn 0.359131 0.865234 -0.349121
vn -0.008057 0.998535 0.050049
vn 0.070068 0.178955 -0.981201
vn 0.460693 0.000244 -0.887451
vn 0.205566 0.464111 -0.861328
vn 0.205566 0.464111 -0.861328
vn 0.460693 0.000244 -0.887451
vn 0.517578 0.505859 -0.689697
vn 0.870605 0.377197 -0.315430
vn 0.645752 0.761719 -0.047607
vn 0.517578 0.505859 -0.689697
vn 0.517578 0.505859 -0.689697
vn 0.645752 0.761719 -0.047607
vn 0.359131 0.865234 -0.349121
vn 0.940430 -0.339355 -0.004883
vn 0.859375 -0.271240 0.432861
vn 0.982910 0.179688 -0.037598
vn 0.982910 0.179688 -0.037598
vn 0.859375 -0.271240 0.432861
vn 0.887207 0.385010 0.253418
vn 0.463135 0.539062 0.703369
vn 0.267090 0.899414 0.345215
vn 0.887207 0.385010 0.253418
vn 0.887207 0.385010 0.253418
vn 0.267090 0.899414 0.345215
vn 0.645752 0.761719 -0.047607
vn 0.053955 0.174072 0.983154
vn -0.303955 0.406494 0.861328
vn 0.124268 0.485596 0.864990
vn 0.124268 0.485596 0.864990
vn -0.303955 0.406494 0.861328
vn -0.086914 0.721436 0.686768
vn -0.989990 -0.139893 0.007568
vn -0.883789 -0.181396 0.431152
vn -0.862793 -0.503662 0.039062
vn -0.862793 -0.503662 0.039062
vn -0.883789 -0.181396 0.431152
vn -0.690430 -0.649414 0.317627
vn -0.701660 -0.665283 -0.254150
vn -0.350098 -0.935303 0.046875
vn -0.253418 -0.665527 -0.701904
vn -0.253418 -0.665527 -0.701904
vn -0.350098 -0.935303 0.046875
vn 0.048828 -0.934326 -0.352783
vn 0.004639 -0.195312 -0.980469
vn -0.426514 -0.179443 -0.886230
vn 0.038818 -0.507324 -0.860596
vn 0.038818 -0.507324 -0.860596
vn -0.426514 -0.179443 -0.886230
vn -0.253418 -0.665527 -0.701904
vn 0.317139 -0.651611 -0.688965
vn 0.048828 -0.934326 -0.352783
vn 0.689697 -0.651855 -0.314453
vn 0.689697 -0.651855 -0.314453
vn 0.048828 -0.934326 -0.352783
vn 0.355713 -0.933350 -0.046143
vn 0.963379 -0.267334 -0.005859
vn 0.859131 -0.294678 -0.417969
vn 0.860596 -0.507568 -0.038086
vn 0.860596 -0.507568 -0.038086
vn 0.859131 -0.294678 -0.417969
vn 0.689697 -0.651855 -0.314453
vn 0.704102 -0.662842 0.254150
vn 0.355713 -0.933350 -0.046143
vn 0.257324 -0.663574 0.702148
vn 0.257324 -0.663574 0.702148
vn 0.355713 -0.933350 -0.046143
vn -0.044189 -0.935059 0.351562
vn -0.006836 -0.191162 0.981445
vn 0.420166 -0.229248 0.877686
vn -0.037354 -0.505127 0.862061
vn -0.037354 -0.505127 0.862061
vn 0.420166 -0.229248 0.877686
vn 0.257324 -0.663574 0.702148
vn -0.316650 -0.650391 0.689941
vn -0.044189 -0.935059 0.351562
vn -0.690430 -0.649414 0.317627
vn -0.690430 -0.649414 0.317627
vn -0.044189 -0.935059 0.351562
vn -0.350098 -0.935303 0.046875
vn 0.124268 0.485596 0.864990
vn 0.463135 0.539062 0.703369
vn 0.053955 0.174072 0.983154
vn 0.053955 0.174072 0.983154
vn 0.463135 0.539062 0.703369
vn 0.446533 -0.031982 0.894043
vn -0.393799 0.222168 0.891846
vn -0.303955 0.406494 0.861328
vn 0.000000 -0.000488 1.000000
vn 0.000000 -0.000488 1.000000
vn -0.303955 0.406494 0.861328
vn 0.053955 0.174072 0.983154
vn -0.037354 -0.505127 0.862061
vn -0.316650 -0.650391 0.689941
vn -0.006836 -0.191162 0.981445
vn -0.006836 -0.191162 0.981445
vn -0.316650 -0.650391 0.689941
vn -0.428467 -0.204102 0.879883
vn -0.862793 -0.503662 0.039062
vn -0.701660 -0.665283 -0.254150
vn -0.989990 -0.139893 0.007568
vn -0.989990 -0.139893 0.007568
vn -0.701660 -0.665283 -0.254150
vn -0.890625 -0.155518 -0.426758
vn -0.792480 0.427734 -0.434326
vn -0.711426 0.568115 -0.413086
vn -0.884521 0.466064 0.002197
vn -0.884521 0.466064 0.002197
vn -0.711426 0.568115 -0.413086
vn -0.804443 0.593750 0.010254
vn -0.644043 0.763184 0.046143
vn -0.425781 0.843750 0.326172
vn -0.804443 0.593750 0.010254
vn -0.804443 0.593750 0.010254
vn -0.425781 0.843750 0.326172
vn -0.690430 0.590332 0.417725
vn 0.038818 -0.507324 -0.860596
vn 0.317139 -0.651611 -0.688965
vn 0.004639 -0.195312 -0.980469
vn 0.004639 -0.195312 -0.980469
vn 0.317139 -0.651611 -0.688965
vn 0.421631 -0.261230 -0.868164
vn 0.383789 -0.251465 -0.888428
vn 0.460693 0.000244 -0.887451
vn -0.001221 0.000244 -0.999756
vn -0.001221 0.000244 -0.999756
vn 0.460693 0.000244 -0.887451
vn 0.070068 0.178955 -0.981201
vn 0.205566 0.464111 -0.861328
vn -0.015869 0.712891 -0.700928
vn 0.070068 0.178955 -0.981201
vn 0.070068 0.178955 -0.981201
vn -0.015869 0.712891 -0.700928
vn -0.308594 0.383789 -0.870117
vn 0.982910 0.179688 -0.037598
vn 0.870605 0.377197 -0.315430
vn 0.940430 -0.339355 -0.004883
vn 0.940430 -0.339355 -0.004883
vn 0.870605 0.377197 -0.315430
vn 0.866943 -0.241211 -0.435791
vn 0.803711 -0.594971 0.001221
vn 0.940430 -0.339355 -0.004883
vn 0.737549 -0.522217 -0.427734
vn 0.737549 -0.522217 -0.427734
vn 0.940430 -0.339355 -0.004883
vn 0.866943 -0.241211 -0.435791
vn 0.860596 -0.507568 -0.038086
vn 0.704102 -0.662842 0.254150
vn 0.963379 -0.267334 -0.005859
vn 0.963379 -0.267334 -0.005859
vn 0.704102 -0.662842 0.254150
vn 0.869385 -0.264160 0.417236
vn -0.884521 0.466064 0.002197
vn -0.804443 0.593750 0.010254
vn -0.791504 0.427246 0.436523
vn -0.791504 0.427246 0.436523
vn -0.804443 0.593750 0.010254
vn -0.690430 0.590332 0.417725
vn 0.968750 -0.247314 0.000732
vn 0.963379 -0.267334 -0.005859
vn 0.870850 -0.213135 0.442383
vn 0.870850 -0.213135 0.442383
vn 0.963379 -0.267334 -0.005859
vn 0.869385 -0.264160 0.417236
vn 0.871094 -0.213135 -0.441895
vn 0.859131 -0.294678 -0.417969
vn 0.968750 -0.247314 0.000732
vn 0.968750 -0.247314 0.000732
vn 0.859131 -0.294678 -0.417969
vn 0.963379 -0.267334 -0.005859
vn 0.435059 -0.098633 -0.894775
vn 0.421631 -0.261230 -0.868164
vn 0.871094 -0.213135 -0.441895
vn 0.871094 -0.213135 -0.441895
vn 0.421631 -0.261230 -0.868164
vn 0.859131 -0.294678 -0.417969
vn -0.001953 0.000244 -0.999756
vn 0.004639 -0.195312 -0.980469
vn 0.435059 -0.098633 -0.894775
vn 0.435059 -0.098633 -0.894775
vn 0.004639 -0.195312 -0.980469
vn 0.421631 -0.261230 -0.868164
vn -0.438965 0.085938 -0.894287
vn -0.426514 -0.179443 -0.886230
vn -0.001953 0.000244 -0.999756
vn -0.001953 0.000244 -0.999756
vn -0.426514 -0.179443 -0.886230
vn 0.004639 -0.195312 -0.980469
vn -0.881836 0.164795 -0.441406
vn -0.890625 -0.155518 -0.426758
vn -0.438965 0.085938 -0.894287
vn -0.438965 0.085938 -0.894287
vn -0.890625 -0.155518 -0.426758
vn -0.426514 -0.179443 -0.886230
vn -0.983643 0.179443 0.001465
vn -0.989990 -0.139893 0.007568
vn -0.881836 0.164795 -0.441406
vn -0.881836 0.164795 -0.441406
vn -0.989990 -0.139893 0.007568
vn -0.890625 -0.155518 -0.426758
vn -0.881104 0.164795 0.442871
vn -0.883789 -0.181396 0.431152
vn -0.983643 0.179443 0.001465
vn -0.983643 0.179443 0.001465
vn -0.883789 -0.181396 0.431152
vn -0.989990 -0.139893 0.007568
vn -0.436768 0.085449 0.895264
vn -0.428467 -0.204102 0.879883
vn -0.881104 0.164795 0.442871
vn -0.881104 0.164795 0.442871
vn -0.428467 -0.204102 0.879883
vn -0.883789 -0.181396 0.431152
vn -0.000488 0.000000 1.000000
vn -0.006836 -0.191162 0.981445
vn -0.436768 0.085449 0.895264
vn -0.436768 0.085449 0.895264
vn -0.006836 -0.191162 0.981445
vn -0.428467 -0.204102 0.879883
vn 0.434326 -0.098633 0.895264
vn 0.420166 -0.229248 0.877686
vn -0.000488 0.000000 1.000000
vn -0.000488 0.000000 1.000000
vn 0.420166 -0.229248 0.877686
vn -0.006836 -0.191162 0.981445
vn 0.870850 -0.213135 0.442383
vn 0.869385 -0.264160 0.417236
vn 0.434326 -0.098633 0.895264
vn 0.434326 -0.098633 0.895264
vn 0.869385 -0.264160 0.417236
vn 0.420166 -0.229248 0.877686
vn 0.900879 -0.433838 0.000977
vn 0.968750 -0.247314 0.000732
vn 0.816650 -0.376953 0.436768
vn 0.816650 -0.376953 0.436768
vn 0.968750 -0.247314 0.000732
vn 0.870850 -0.213135 0.442383
vn 0.816895 -0.377197 -0.435791
vn 0.871094 -0.213135 -0.441895
vn 0.900879 -0.433838 0.000977
vn 0.900879 -0.433838 0.000977
vn 0.871094 -0.213135 -0.441895
vn 0.968750 -0.247314 0.000732
vn 0.415039 -0.177979 -0.892090
vn 0.435059 -0.098633 -0.894775
vn 0.816895 -0.377197 -0.435791
vn 0.816895 -0.377197 -0.435791
vn 0.435059 -0.098633 -0.894775
vn 0.871094 -0.213135 -0.441895
vn -0.001465 0.000244 -0.999756
vn -0.001953 0.000244 -0.999756
vn 0.415039 -0.177979 -0.892090
vn 0.415039 -0.177979 -0.892090
vn -0.001953 0.000244 -0.999756
vn 0.435059 -0.098633 -0.894775
vn -0.422119 0.156738 -0.892578
vn -0.438965 0.085938 -0.894287
vn -0.001465 0.000244 -0.999756
vn -0.001465 0.000244 -0.999756
vn -0.438965 0.085938 -0.894287
vn -0.001953 0.000244 -0.999756
vn -0.846680 0.301025 -0.438477
vn -0.881836 0.164795 -0.441406
vn -0.422119 0.156738 -0.892578
vn -0.422119 0.156738 -0.892578
vn -0.881836 0.164795 -0.441406
vn -0.438965 0.085938 -0.894287
vn -0.944580 0.327881 0.001953
vn -0.983643 0.179443 0.001465
vn -0.846680 0.301025 -0.438477
vn -0.846680 0.301025 -0.438477
vn -0.983643 0.179443 0.001465
vn -0.881836 0.164795 -0.441406
vn -0.845703 0.300537 0.440430
vn -0.881104 0.164795 0.442871
vn -0.944580 0.327881 0.001953
vn -0.944580 0.327881 0.001953
vn -0.881104 0.164795 0.442871
vn -0.983643 0.179443 0.001465
vn -0.419922 0.155762 0.893799
vn -0.436768 0.085449 0.895264
vn -0.845703 0.300537 0.440430
vn -0.845703 0.300537 0.440430
vn -0.436768 0.085449 0.895264
vn -0.881104 0.164795 0.442871
vn 0.000000 -0.000244 1.000000
vn -0.000488 0.000000 1.000000
vn -0.419922 0.155762 0.893799
vn -0.419922 0.155762 0.893799
vn -0.000488 0.000000 1.000000
vn -0.436768 0.085449 0.895264
vn 0.413818 -0.177490 0.892578
vn 0.434326 -0.098633 0.895264
vn 0.000000 -0.000244 1.000000
vn 0.000000 -0.000244 1.000000
vn 0.434326 -0.098633 0.895264
vn -0.000488 0.000000 1.000000
vn 0.816650 -0.376953 0.436768
vn 0.870850 -0.213135 0.442383
vn 0.413818 -0.177490 0.892578
vn 0.413818 -0.177490 0.892578
vn 0.870850 -0.213135 0.442383
vn 0.434326 -0.098633 0.895264
vn 0.803711 -0.594971 0.001221
vn 0.900879 -0.433838 0.000977
vn 0.737061 -0.521729 0.428955
vn 0.737061 -0.521729 0.428955
vn 0.900879 -0.433838 0.000977
vn 0.816650 -0.376953 0.436768
vn 0.737549 -0.522217 -0.427734
vn 0.816895 -0.377197 -0.435791
vn 0.803711 -0.594971 0.001221
vn 0.803711 -0.594971 0.001221
vn 0.816895 -0.377197 -0.435791
vn 0.900879 -0.433838 0.000977
vn 0.383789 -0.251465 -0.888428
vn 0.415039 -0.177979 -0.892090
vn 0.737549 -0.522217 -0.427734
vn 0.737549 -0.522217 -0.427734
vn 0.415039 -0.177979 -0.892090
vn 0.816895 -0.377197 -0.435791
vn -0.001221 0.000244 -0.999756
vn -0.001465 0.000244 -0.999756
vn 0.383789 -0.251465 -0.888428
vn 0.383789 -0.251465 -0.888428
vn -0.001465 0.000244 -0.999756
vn 0.415039 -0.177979 -0.892090
vn -0.396240 0.223633 -0.890381
vn -0.422119 0.156738 -0.892578
vn -0.001221 0.000244 -0.999756
vn -0.001221 0.000244 -0.999756
vn -0.422119 0.156738 -0.892578
vn -0.001465 0.000244 -0.999756
vn -0.792480 0.427734 -0.434326
vn -0.846680 0.301025 -0.438477
vn -0.396240 0.223633 -0.890381
vn -0.396240 0.223633 -0.890381
vn -0.846680 0.301025 -0.438477
vn -0.422119 0.156738 -0.892578
vn -0.884521 0.466064 0.002197
vn -0.944580 0.327881 0.001953
vn -0.792480 0.427734 -0.434326
vn -0.792480 0.427734 -0.434326
vn -0.944580 0.327881 0.001953
vn -0.846680 0.301025 -0.438477
vn -0.791504 0.427246 0.436523
vn -0.845703 0.300537 0.440430
vn -0.884521 0.466064 0.002197
vn -0.884521 0.466064 0.002197
vn -0.845703 0.300537 0.440430
vn -0.944580 0.327881 0.001953
vn -0.393799 0.222168 0.891846
vn -0.419922 0.155762 0.893799
vn -0.791504 0.427246 0.436523
vn -0.791504 0.427246 0.436523
vn -0.419922 0.155762 0.893799
vn -0.845703 0.300537 0.440430
vn 0.000000 -0.000488 1.000000
vn 0.000000 -0.000244 1.000000
vn -0.393799 0.222168 0.891846
vn -0.393799 0.222168 0.891846
vn 0.000000 -0.000244 1.000000
vn -0.419922 0.155762 0.893799
vn 0.382324 -0.250732 0.889160
vn 0.413818 -0.177490 0.892578
vn 0.000000 -0.000488 1.000000
vn 0.000000 -0.000488 1.000000
vn 0.413818 -0.177490 0.892578
vn 0.000000 -0.000244 1.000000
vn 0.737061 -0.521729 0.428955
vn 0.816650 -0.376953 0.436768
vn 0.382324 -0.250732 0.889160
vn 0.382324 -0.250732 0.889160
vn 0.816650 -0.376953 0.436768
vn 0.413818 -0.177490 0.892578
usemtl Texture
f 1/1/1 2/2/2 3/3/3
f 4/4/4 5/5/5 6/6/6
f 7/7/7 8/8/8 9/9/9
f 10/10/10 11/11/11 12/12/12
f 13/13/13 14/14/14 15/15/15
f 16/16/16 17/17/17 18/18/18
f 19/19/19 20/20/20 21/21/21
f 22/22/22 23/23/23 24/24/24
f 25/25/25 26/26/26 27/27/27
f 28/28/28 29/29/29 30/30/30
f 31/31/31 32/32/32 33/33/33
f 34/34/34 35/35/35 36/36/36
f 37/37/37 38/38/38 39/39/39
f 40/40/40 41/41/41 42/42/42
f 43/43/43 44/44/44 45/45/45
f 46/46/46 47/47/47 48/48/48
f 49/49/49 50/50/50 51/51/51
f 52/52/52 53/53/53 54/54/54
f 55/55/55 56/56/56 57/57/57
f 58/58/58 59/59/59 60/60/60
f 61/61/61 62/62/62 63/63/63
f 64/64/64 65/65/65 66/66/66
f 67/67/67 68/68/68 69/69/69
f 70/70/70 71/71/71 72/72/72
f 73/73/73 74/74/74 75/75/75
f 76/76/76 77/77/77 78/78/78
f 79/79/79 80/80/80 81/81/81
f 82/82/82 83/83/83 84/84/84
f 85/85/85 86/86/86 87/87/87
f 88/88/88 89/89/89 90/90/90
f 91/91/91 92/92/92 93/93/93
f 94/94/94 95/95/95 96/96/96
f 97/97/97 98/98/98 99/99/99
f 100/100/100 101/101/101 102/102/102
f 103/103/103 104/104/104 105/105/105
f 106/106/106 107/107/107 108/108/108
f 109/109/109 110/110/110 111/111/111
f 112/112/112 113/113/113 114/114/114
f 115/115/115 116/116/116 117/117/117
f 118/118/118 119/119/119 120/120/120
f 121/121/121 122/122/122 123/123/123
f 124/124/124 125/125/125 126/126/126
f 127/127/127 128/128/128 129/129/129
f 130/130/130 131/131/131 132/132/132
f 133/133/133 134/134/134 135/135/135
f 136/136/136 137/137/137 138/138/138
f 139/139/139 140/140/140 141/141/141
f 142/142/142 143/143/143 144/144/144
f 145/145/145 146/146/146 147/147/147
f 148/148/148 149/149/149 150/150/150
f 151/151/151 152/152/152 153/153/153
f 154/154/154 155/155/155 156/156/156
f 157/157/157 158/158/158 159/159/159
f 160/160/160 161/161/161 162/162/162
f 163/163/163 164/164/164 165/165/165
f 166/166/166 167/167/167 168/168/168
f 169/169/169 170/170/170 171/171/171
f 172/172/172 173/173/173 174/174/174
f 175/175/175 176/176/176 177/177/177
f 178/178/178 179/179/179 180/180/180
f 181/181/181 182/182/182 183/183/183
f 184/184/184 185/185/185 186/186/186
f 187/187/187 188/188/188 189/189/189
f 190/190/190 191/191/191 192/192/192
f 193/193/193 194/194/194 195/195/195
f 196/196/196 197/197/197 198/198/198
f 199/199/199 200/200/200 201/201/201
f 202/202/202 203/203/203 204/204/204
f 205/205/205 206/206/206 207/207/207
f 208/208/208 209/209/209 210/210/210
f 211/211/211 212/212/212 213/213/213
f 214/214/214 215/215/215 216/216/216
f 217/217/217 218/218/218 219/219/219
f 220/220/220 221/221/221 222/222/222
f 223/223/223 224/224/224 225/225/225
f 226/226/226 227/227/227 228/228/228
f 229/229/229 230/230/230 231/231/231
f 232/232/232 233/233/233 234/234/234
f 235/235/235 236/236/236 237/237/237
f 238/238/238 239/239/239 240/240/240
f 241/241/241 242/242/242 243/243/243
f 244/244/244 245/245/245 246/246/246
f 247/247/247 248/248/248 249/249/249
f 250/250/250 251/251/251 252/252/252
f 253/253/253 254/254/254 255/255/255
f 256/256/256 257/257/257 258/258/258
f 259/259/259 260/260/260 261/261/261
f 262/262/262 263/263/263 264/264/264
f 265/265/265 266/266/266 267/267/267
f 268/268/268 269/269/269 270/270/270
f 271/271/271 272/272/272 273/273/273
f 274/274/274 275/275/275 276/276/276
f 277/277/277 278/278/278 279/279/279
f 280/280/280 281/281/281 282/282/282
f 283/283/283 284/284/284 285/285/285
f 286/286/286 287/287/287 288/288/288
f 289/289/289 290/290/290 291/291/291
f 292/292/292 293/293/293 294/294/294
f 295/295/295 296/296/296 297/297/297
f 298/298/298 299/299/299 300/300/300
f 301/301/301 302/302/302 303/303/303
f 304/304/304 305/305/305 306/306/306
f 307/307/307 308/308/308 309/309/309
f 310/310/310 311/311/311 312/312/312
f 313/313/313 314/314/314 315/315/315
f 316/316/316 317/317/317 318/318/318
f 319/319/319 320/320/320 321/321/321
f 322/322/322 323/323/323 324/324/324
f 325/325/325 326/326/326 327/327/327
f 328/328/328 329/329/329 330/330/330
f 331/331/331 332/332/332 333/333/333
f 334/334/334 335/335/335 336/336/336
f 337/337/337 338/338/338 339/339/339
f 340/340/340 341/341/341 342/342/342
f 343/343/343 344/344/344 345/345/345
f 346/346/346 347/347/347 348/348/348
f 349/349/349 350/350/350 351/351/351
f 352/352/352 353/353/353 354/354/354
f 355/355/355 356/356/356 357/357/357
f 358/358/358 359/359/359 360/360/360
f 361/361/361 362/362/362 363/363/363
f 364/364/364 365/365/365 366/366/366
f 367/367/367 368/368/368 369/369/369
f 370/370/370 371/371/371 372/372/372
f 373/373/373 374/374/374 375/375/375
f 376/376/376 377/377/377 378/378/378
f 379/379/379 380/380/380 381/381/381
f 382/382/382 383/383/383 384/384/384
f 385/385/385 386/386/386 387/387/387
f 388/388/388 389/389/389 390/390/390
f 391/391/391 392/392/392 393/393/393
f 394/394/394 395/395/395 396/396/396
f 397/397/397 398/398/398 399/399/399
f 400/400/400 401/401/401 402/402/402
f 403/403/403 404/404/404 405/405/405
f 406/406/406 407/407/407 408/408/408
f 409/409/409 410/410/410 411/411/411
f 412/412/412 413/413/413 414/414/414
f 415/415/415 416/416/416 417/417/417
f 418/418/418 419/419/419 420/420/420
f 421/421/421 422/422/422 423/423/423
f 424/424/424 425/425/425 426/426/426
f 427/427/427 428/428/428 429/429/429
f 430/430/430 431/431/431 432/432/432
f 433/433/433 434/434/434 435/435/435
f 436/436/436 437/437/437 438/438/438
f 439/439/439 440/440/440 441/441/441
f 442/442/442 443/443/443 444/444/444
f 445/445/445 446/446/446 447/447/447
f 448/448/448 449/449/449 450/450/450
f 451/451/451 452/452/452 453/453/453
f 454/454/454 455/455/455 456/456/456
f 457/457/457 458/458/458 459/459/459
f 460/460/460 461/461/461 462/462/462
f 463/463/463 464/464/464 465/465/465
f 466/466/466 467/467/467 468/468/468
f 469/469/469 470/470/470 471/471/471
f 472/472/472 473/473/473 474/474/474
f 475/475/475 476/476/476 477/477/477
f 478/478/478 479/479/479 480/480/480
f 481/481/481 482/482/482 483/483/483
f 484/484/484 485/485/485 486/486/486
f 487/487/487 488/488/488 489/489/489
f 490/490/490 491/491/491 492/492/492
f 493/493/493 494/494/494 495/495/495
f 496/496/496 497/497/497 498/498/498
f 499/499/499 500/500/500 501/501/501
f 502/502/502 503/503/503 504/504/504
f 505/505/505 506/506/506 507/507/507
f 508/508/508 509/509/509 510/510/510
f 511/511/511 512/512/512 513/513/513
f 514/514/514 515/515/515 516/516/516
f 517/517/517 518/518/518 519/519/519
f 520/520/520 521/521/521 522/522/522
f 523/523/523 524/524/524 525/525/525
f 526/526/526 527/527/527 528/528/528
f 529/529/529 530/530/530 531/531/531
f 532/532/532 533/533/533 534/534/534
f 535/535/535 536/536/536 537/537/537
f 538/538/538 539/539/539 540/540/540
f 541/541/541 542/542/542 543/543/543
f 544/544/544 545/545/545 546/546/546
f 547/547/547 548/548/548 549/549/549
f 550/550/550 551/551/551 552/552/552
f 553/553/553 554/554/554 555/555/555
f 556/556/556 557/557/557 558/558/558
f 559/559/559 560/560/560 561/561/561
f 562/562/562 563/563/563 564/564/564
f 565/565/565 566/566/566 567/567/567
f 568/568/568 569/569/569 570/570/570
f 571/571/571 572/572/572 573/573/573
f 574/574/574 575/575/575 576/576/576
f 577/577/577 578/578/578 579/579/579
f 580/580/580 581/581/581 582/582/582
f 583/583/583 584/584/584 585/585/585
f 586/586/586 587/587/587 588/588/588
f 589/589/589 590/590/590 591/591/591
f 592/592/592 593/593/593 594/594/594
f 595/595/595 596/596/596 597/597/597
f 598/598/598 599/599/599 600/600/600
f 601/601/601 602/602/602 603/603/603
f 604/604/604 605/605/605 606/606/606
f 607/607/607 608/608/608 609/609/609
f 610/610/610 611/611/611 612/612/612
f 613/613/613 614/614/614 615/615/615
f 616/616/616 617/617/617 618/618/618
f 619/619/619 620/620/620 621/621/621
f 622/622/622 623/623/623 624/624/624
f 625/625/625 626/626/626 627/627/627
f 628/628/628 629/629/629 630/630/630
f 631/631/631 632/632/632 633/633/633
f 634/634/634 635/635/635 636/636/636
f 637/637/637 638/638/638 639/639/639
f 640/640/640 641/641/641 642/642/642
f 643/643/643 644/644/644 645/645/645
f 646/646/646 647/647/647 648/648/648
f 649/649/649 650/650/650 651/651/651
f 652/652/652 653/653/653 654/654/654
f 655/655/655 656/656/656 657/657/657
f 658/658/658 659/659/659 660/660/660
f 661/661/661 662/662/662 663/663/663
f 664/664/664 665/665/665 666/666/666
f 667/667/667 668/668/668 669/669/669
f 670/670/670 671/671/671 672/672/672
f 673/673/673 674/674/674 675/675/675
f 676/676/676 677/677/677 678/678/678
f 679/679/679 680/680/680 681/681/681
f 682/682/682 683/683/683 684/684/684
f 685/685/685 686/686/686 687/687/687
f 688/688/688 689/689/689 690/690/690
