# OBJ file
mtllib AO.ICO.mtl
v 2.312500 0.000000 -0.000244 0.784314 0.784314 0.784314 #0.000000
v -2.312500 0.000000 -0.000244 0.784314 0.784314 0.784314 #0.000000
v -2.312500 4.625000 -0.000244 0.784314 0.784314 0.784314 #0.000000
v 2.312500 0.000000 -0.000244 0.784314 0.784314 0.784314 #0.000000
v -2.312500 4.625000 -0.000244 0.784314 0.784314 0.784314 #0.000000
v 2.312500 4.625000 -0.000244 0.784314 0.784314 0.784314 #0.000000
v -2.312500 0.000000 0.000244 0.784314 0.784314 0.784314 #0.000000
v 2.312500 0.000000 0.000244 0.784314 0.784314 0.784314 #0.000000
v 2.312500 4.625000 0.000244 0.784314 0.784314 0.784314 #0.000000
v -2.312500 0.000000 0.000244 0.784314 0.784314 0.784314 #0.000000
v 2.312500 4.625000 0.000244 0.784314 0.784314 0.784314 #0.000000
v -2.312500 4.625000 0.000244 0.784314 0.784314 0.784314 #0.000000
vt 0.004883 0.000000 0.000000
vt 0.479980 0.000000 0.000000
vt 0.479980 1.000000 0.000000
vt 0.004883 0.000000 0.000000
vt 0.479980 1.000000 0.000000
vt 0.004883 1.000000 0.000000
vt 0.489990 0.000000 0.000000
vt 0.994873 0.000000 0.000000
vt 0.994873 1.000000 0.000000
vt 0.489990 0.000000 0.000000
vt 0.994873 1.000000 0.000000
vt 0.489990 1.000000 0.000000
vn 0.000000 0.000000 -1.000000
vn 0.000000 0.000000 -1.000000
vn 0.000000 0.000000 -1.000000
vn 0.000000 0.000000 -1.000000
vn 0.000000 0.000000 -1.000000
vn 0.000000 0.000000 -1.000000
vn 0.000000 0.000000 1.000000
vn 0.000000 0.000000 1.000000
vn 0.000000 0.000000 1.000000
vn 0.000000 0.000000 1.000000
vn 0.000000 0.000000 1.000000
vn 0.000000 0.000000 1.000000
usemtl Texture
f 1/1/1 2/2/2 3/3/3
f 4/4/4 5/5/5 6/6/6
f 7/7/7 8/8/8 9/9/9
f 10/10/10 11/11/11 12/12/12
