# OBJ file
mtllib view.ico.mtl
v 0.462402 2.073242 -0.117676 0.501961 0.501961 0.501961 #0.501961
v 1.147949 2.040527 0.000000 0.501961 0.501961 0.501961 #0.501961
v 0.464111 1.923584 0.000000 0.501961 0.501961 0.501961 #0.501961
v 0.462402 2.856934 -0.122803 0.501961 0.501961 0.501961 #0.501961
v 0.467285 3.003662 0.000000 0.501961 0.501961 0.501961 #0.501961
v 1.162598 2.793457 0.000000 0.501961 0.501961 0.501961 #0.501961
v 1.147949 2.040527 0.000000 0.501961 0.501961 0.501961 #0.501961
v 0.462402 2.073242 -0.117676 0.501961 0.501961 0.501961 #0.501961
v 0.467285 2.485107 -0.223145 0.501961 0.501961 0.501961 #0.501961
v 1.159180 2.473633 -0.110596 0.501961 0.501961 0.501961 #0.501961
v 1.147949 2.040527 0.000000 0.501961 0.501961 0.501961 #0.501961
v 0.467285 2.485107 -0.223145 0.501961 0.501961 0.501961 #0.501961
v 1.162598 2.793457 0.000000 0.501961 0.501961 0.501961 #0.501961
v 1.159180 2.473633 -0.110596 0.501961 0.501961 0.501961 #0.501961
v 0.467285 2.485107 -0.223145 0.501961 0.501961 0.501961 #0.501961
v 0.462402 2.856934 -0.122803 0.501961 0.501961 0.501961 #0.501961
v 1.162598 2.793457 0.000000 0.501961 0.501961 0.501961 #0.501961
v 0.467285 2.485107 -0.223145 0.501961 0.501961 0.501961 #0.501961
v 1.159180 2.473633 -0.110596 0.501961 0.501961 0.501961 #0.501961
v 1.162598 2.793457 0.000000 0.501961 0.501961 0.501961 #0.501961
v 1.730713 3.031982 0.000000 0.501961 0.501961 0.501961 #0.501961
v 1.923096 2.466797 0.000000 0.501961 0.501961 0.501961 #0.501961
v 1.159180 2.473633 -0.110596 0.501961 0.501961 0.501961 #0.501961
v 1.730713 3.031982 0.000000 0.501961 0.501961 0.501961 #0.501961
v 1.923096 2.466797 0.000000 0.501961 0.501961 0.501961 #0.501961
v 1.730713 1.867432 0.000000 0.501961 0.501961 0.501961 #0.501961
v 1.159180 2.473633 -0.110596 0.501961 0.501961 0.501961 #0.501961
v 1.730713 1.867432 0.000000 0.501961 0.501961 0.501961 #0.501961
v 1.147949 2.040527 0.000000 0.501961 0.501961 0.501961 #0.501961
v 1.159180 2.473633 -0.110596 0.501961 0.501961 0.501961 #0.501961
v 1.147949 2.040527 0.000000 0.501961 0.501961 0.501961 #0.501961
v 0.462402 2.073242 0.117676 0.501961 0.501961 0.501961 #0.501961
v 0.464111 1.923584 0.000000 0.501961 0.501961 0.501961 #0.501961
v 0.467285 3.003662 0.000000 0.501961 0.501961 0.501961 #0.501961
v 0.462402 2.856934 0.122803 0.501961 0.501961 0.501961 #0.501961
v 1.162598 2.793457 0.000000 0.501961 0.501961 0.501961 #0.501961
v 1.147949 2.040527 0.000000 0.501961 0.501961 0.501961 #0.501961
v 1.159180 2.473633 0.110596 0.501961 0.501961 0.501961 #0.501961
v 0.467285 2.485107 0.223145 0.501961 0.501961 0.501961 #0.501961
v 0.462402 2.073242 0.117676 0.501961 0.501961 0.501961 #0.501961
v 1.147949 2.040527 0.000000 0.501961 0.501961 0.501961 #0.501961
v 0.467285 2.485107 0.223145 0.501961 0.501961 0.501961 #0.501961
v 1.162598 2.793457 0.000000 0.501961 0.501961 0.501961 #0.501961
v 0.462402 2.856934 0.122803 0.501961 0.501961 0.501961 #0.501961
v 0.467285 2.485107 0.223145 0.501961 0.501961 0.501961 #0.501961
v 1.159180 2.473633 0.110596 0.501961 0.501961 0.501961 #0.501961
v 1.162598 2.793457 0.000000 0.501961 0.501961 0.501961 #0.501961
v 0.467285 2.485107 0.223145 0.501961 0.501961 0.501961 #0.501961
v 1.162598 2.793457 0.000000 0.501961 0.501961 0.501961 #0.501961
v 1.159180 2.473633 0.110596 0.501961 0.501961 0.501961 #0.501961
v 1.730713 3.031982 0.000000 0.501961 0.501961 0.501961 #0.501961
v 1.159180 2.473633 0.110596 0.501961 0.501961 0.501961 #0.501961
v 1.923096 2.466797 0.000000 0.501961 0.501961 0.501961 #0.501961
v 1.730713 3.031982 0.000000 0.501961 0.501961 0.501961 #0.501961
v 1.730713 1.867432 0.000000 0.501961 0.501961 0.501961 #0.501961
v 1.923096 2.466797 0.000000 0.501961 0.501961 0.501961 #0.501961
v 1.159180 2.473633 0.110596 0.501961 0.501961 0.501961 #0.501961
v 1.147949 2.040527 0.000000 0.501961 0.501961 0.501961 #0.501961
v 1.730713 1.867432 0.000000 0.501961 0.501961 0.501961 #0.501961
v 1.159180 2.473633 0.110596 0.501961 0.501961 0.501961 #0.501961
v 0.467285 3.003662 0.000000 0.501961 0.501961 0.501961 #0.501961
v 0.462402 2.856934 -0.122803 0.501961 0.501961 0.501961 #0.501961
v -0.195068 2.992920 -0.199463 0.501961 0.501961 0.501961 #0.501961
v -0.192871 3.305176 0.000000 0.501961 0.501961 0.501961 #0.501961
v 0.467285 3.003662 0.000000 0.501961 0.501961 0.501961 #0.501961
v -0.195068 2.992920 -0.199463 0.501961 0.501961 0.501961 #0.501961
v 0.462402 2.856934 0.122803 0.501961 0.501961 0.501961 #0.501961
v 0.467285 3.003662 0.000000 0.501961 0.501961 0.501961 #0.501961
v -0.192871 3.305176 0.000000 0.501961 0.501961 0.501961 #0.501961
v -0.195068 2.992920 0.199463 0.501961 0.501961 0.501961 #0.501961
v 0.462402 2.856934 0.122803 0.501961 0.501961 0.501961 #0.501961
v -0.192871 3.305176 0.000000 0.501961 0.501961 0.501961 #0.501961
v 0.467285 2.485107 0.223145 0.501961 0.501961 0.501961 #0.501961
v 0.462402 2.856934 0.122803 0.501961 0.501961 0.501961 #0.501961
v -0.195068 2.992920 0.199463 0.501961 0.501961 0.501961 #0.501961
v -0.192871 2.483643 0.346191 0.501961 0.501961 0.501961 #0.501961
v 0.467285 2.485107 0.223145 0.501961 0.501961 0.501961 #0.501961
v -0.195068 2.992920 0.199463 0.501961 0.501961 0.501961 #0.501961
v 0.462402 2.073242 0.117676 0.501961 0.501961 0.501961 #0.501961
v 0.467285 2.485107 0.223145 0.501961 0.501961 0.501961 #0.501961
v -0.192871 2.483643 0.346191 0.501961 0.501961 0.501961 #0.501961
v -0.192871 1.998291 0.185547 0.501961 0.501961 0.501961 #0.501961
v 0.462402 2.073242 0.117676 0.501961 0.501961 0.501961 #0.501961
v -0.192871 2.483643 0.346191 0.501961 0.501961 0.501961 #0.501961
v 0.464111 1.923584 0.000000 0.501961 0.501961 0.501961 #0.501961
v 0.462402 2.073242 0.117676 0.501961 0.501961 0.501961 #0.501961
v -0.192871 1.998291 0.185547 0.501961 0.501961 0.501961 #0.501961
v -0.195068 1.734131 0.000000 0.501961 0.501961 0.501961 #0.501961
v 0.464111 1.923584 0.000000 0.501961 0.501961 0.501961 #0.501961
v -0.192871 1.998291 0.185547 0.501961 0.501961 0.501961 #0.501961
v 0.462402 2.073242 -0.117676 0.501961 0.501961 0.501961 #0.501961
v 0.464111 1.923584 0.000000 0.501961 0.501961 0.501961 #0.501961
v -0.195068 1.734131 0.000000 0.501961 0.501961 0.501961 #0.501961
v -0.192871 1.998291 -0.185547 0.501961 0.501961 0.501961 #0.501961
v 0.462402 2.073242 -0.117676 0.501961 0.501961 0.501961 #0.501961
v -0.195068 1.734131 0.000000 0.501961 0.501961 0.501961 #0.501961
v 0.467285 2.485107 -0.223145 0.501961 0.501961 0.501961 #0.501961
v 0.462402 2.073242 -0.117676 0.501961 0.501961 0.501961 #0.501961
v -0.192871 1.998291 -0.185547 0.501961 0.501961 0.501961 #0.501961
v -0.192871 2.483643 -0.346191 0.501961 0.501961 0.501961 #0.501961
v 0.467285 2.485107 -0.223145 0.501961 0.501961 0.501961 #0.501961
v -0.192871 1.998291 -0.185547 0.501961 0.501961 0.501961 #0.501961
v 0.462402 2.856934 -0.122803 0.501961 0.501961 0.501961 #0.501961
v 0.467285 2.485107 -0.223145 0.501961 0.501961 0.501961 #0.501961
v -0.192871 2.483643 -0.346191 0.501961 0.501961 0.501961 #0.501961
v -0.195068 2.992920 -0.199463 0.501961 0.501961 0.501961 #0.501961
v 0.462402 2.856934 -0.122803 0.501961 0.501961 0.501961 #0.501961
v -0.192871 2.483643 -0.346191 0.501961 0.501961 0.501961 #0.501961
v -2.174072 2.827393 0.000000 0.501961 0.501961 0.501961 #0.501961
v -1.494873 3.296631 0.000000 0.501961 0.501961 0.501961 #0.501961
v -1.488525 2.925049 -0.176270 0.501961 0.501961 0.501961 #0.501961
v -2.174072 2.827393 0.000000 0.501961 0.501961 0.501961 #0.501961
v -1.488525 2.925049 0.176270 0.501961 0.501961 0.501961 #0.501961
v -1.494873 3.296631 0.000000 0.501961 0.501961 0.501961 #0.501961
v -1.493652 2.476318 0.274658 0.501961 0.501961 0.501961 #0.501961
v -1.488525 2.925049 0.176270 0.501961 0.501961 0.501961 #0.501961
v -2.174072 2.827393 0.000000 0.501961 0.501961 0.501961 #0.501961
v -2.366455 2.481445 0.000000 0.501961 0.501961 0.501961 #0.501961
v -1.493652 2.476318 0.274658 0.501961 0.501961 0.501961 #0.501961
v -2.174072 2.827393 0.000000 0.501961 0.501961 0.501961 #0.501961
v -1.495850 2.095459 0.144775 0.501961 0.501961 0.501961 #0.501961
v -1.493652 2.476318 0.274658 0.501961 0.501961 0.501961 #0.501961
v -2.366455 2.481445 0.000000 0.501961 0.501961 0.501961 #0.501961
v -2.199951 2.202148 0.000000 0.501961 0.501961 0.501961 #0.501961
v -1.495850 2.095459 0.144775 0.501961 0.501961 0.501961 #0.501961
v -2.366455 2.481445 0.000000 0.501961 0.501961 0.501961 #0.501961
v -2.199951 2.202148 0.000000 0.501961 0.501961 0.501961 #0.501961
v -1.569092 1.859619 0.000000 0.501961 0.501961 0.501961 #0.501961
v -1.495850 2.095459 0.144775 0.501961 0.501961 0.501961 #0.501961
v -2.199951 2.202148 0.000000 0.501961 0.501961 0.501961 #0.501961
v -1.495850 2.095459 -0.144775 0.501961 0.501961 0.501961 #0.501961
v -1.569092 1.859619 0.000000 0.501961 0.501961 0.501961 #0.501961
v -1.493652 2.476318 -0.274658 0.501961 0.501961 0.501961 #0.501961
v -1.495850 2.095459 -0.144775 0.501961 0.501961 0.501961 #0.501961
v -2.199951 2.202148 0.000000 0.501961 0.501961 0.501961 #0.501961
v -2.366455 2.481445 0.000000 0.501961 0.501961 0.501961 #0.501961
v -1.493652 2.476318 -0.274658 0.501961 0.501961 0.501961 #0.501961
v -2.199951 2.202148 0.000000 0.501961 0.501961 0.501961 #0.501961
v -1.488525 2.925049 -0.176270 0.501961 0.501961 0.501961 #0.501961
v -1.493652 2.476318 -0.274658 0.501961 0.501961 0.501961 #0.501961
v -2.366455 2.481445 0.000000 0.501961 0.501961 0.501961 #0.501961
v -2.174072 2.827393 0.000000 0.501961 0.501961 0.501961 #0.501961
v -1.488525 2.925049 -0.176270 0.501961 0.501961 0.501961 #0.501961
v -2.366455 2.481445 0.000000 0.501961 0.501961 0.501961 #0.501961
v -0.195068 2.992920 0.199463 0.501961 0.501961 0.501961 #0.501961
v -1.488525 2.925049 0.176270 0.501961 0.501961 0.501961 #0.501961
v -1.493652 2.476318 0.274658 0.501961 0.501961 0.501961 #0.501961
v -0.192871 2.483643 0.346191 0.501961 0.501961 0.501961 #0.501961
v -0.195068 2.992920 0.199463 0.501961 0.501961 0.501961 #0.501961
v -1.493652 2.476318 0.274658 0.501961 0.501961 0.501961 #0.501961
v -0.192871 3.305176 0.000000 0.501961 0.501961 0.501961 #0.501961
v -1.494873 3.296631 0.000000 0.501961 0.501961 0.501961 #0.501961
v -1.488525 2.925049 0.176270 0.501961 0.501961 0.501961 #0.501961
v -0.195068 2.992920 0.199463 0.501961 0.501961 0.501961 #0.501961
v -0.192871 3.305176 0.000000 0.501961 0.501961 0.501961 #0.501961
v -1.488525 2.925049 0.176270 0.501961 0.501961 0.501961 #0.501961
v -0.195068 2.992920 -0.199463 0.501961 0.501961 0.501961 #0.501961
v -1.488525 2.925049 -0.176270 0.501961 0.501961 0.501961 #0.501961
v -1.494873 3.296631 0.000000 0.501961 0.501961 0.501961 #0.501961
v -0.192871 3.305176 0.000000 0.501961 0.501961 0.501961 #0.501961
v -0.195068 2.992920 -0.199463 0.501961 0.501961 0.501961 #0.501961
v -1.494873 3.296631 0.000000 0.501961 0.501961 0.501961 #0.501961
v -0.192871 2.483643 -0.346191 0.501961 0.501961 0.501961 #0.501961
v -1.493652 2.476318 -0.274658 0.501961 0.501961 0.501961 #0.501961
v -1.488525 2.925049 -0.176270 0.501961 0.501961 0.501961 #0.501961
v -0.195068 2.992920 -0.199463 0.501961 0.501961 0.501961 #0.501961
v -0.192871 2.483643 -0.346191 0.501961 0.501961 0.501961 #0.501961
v -1.488525 2.925049 -0.176270 0.501961 0.501961 0.501961 #0.501961
v -0.192871 1.998291 -0.185547 0.501961 0.501961 0.501961 #0.501961
v -1.495850 2.095459 -0.144775 0.501961 0.501961 0.501961 #0.501961
v -1.493652 2.476318 -0.274658 0.501961 0.501961 0.501961 #0.501961
v -0.192871 2.483643 -0.346191 0.501961 0.501961 0.501961 #0.501961
v -0.192871 1.998291 -0.185547 0.501961 0.501961 0.501961 #0.501961
v -1.493652 2.476318 -0.274658 0.501961 0.501961 0.501961 #0.501961
v -0.195068 1.734131 0.000000 0.501961 0.501961 0.501961 #0.501961
v -1.569092 1.859619 0.000000 0.501961 0.501961 0.501961 #0.501961
v -1.495850 2.095459 -0.144775 0.501961 0.501961 0.501961 #0.501961
v -0.192871 1.998291 -0.185547 0.501961 0.501961 0.501961 #0.501961
v -0.195068 1.734131 0.000000 0.501961 0.501961 0.501961 #0.501961
v -1.495850 2.095459 -0.144775 0.501961 0.501961 0.501961 #0.501961
v -0.192871 1.998291 0.185547 0.501961 0.501961 0.501961 #0.501961
v -1.495850 2.095459 0.144775 0.501961 0.501961 0.501961 #0.501961
v -1.569092 1.859619 0.000000 0.501961 0.501961 0.501961 #0.501961
v -0.195068 1.734131 0.000000 0.501961 0.501961 0.501961 #0.501961
v -0.192871 1.998291 0.185547 0.501961 0.501961 0.501961 #0.501961
v -1.569092 1.859619 0.000000 0.501961 0.501961 0.501961 #0.501961
v -0.192871 2.483643 0.346191 0.501961 0.501961 0.501961 #0.501961
v -1.493652 2.476318 0.274658 0.501961 0.501961 0.501961 #0.501961
v -1.495850 2.095459 0.144775 0.501961 0.501961 0.501961 #0.501961
v -0.192871 1.998291 0.185547 0.501961 0.501961 0.501961 #0.501961
v -0.192871 2.483643 0.346191 0.501961 0.501961 0.501961 #0.501961
v -1.495850 2.095459 0.144775 0.501961 0.501961 0.501961 #0.501961
v -0.610840 3.759766 0.000000 0.501961 0.501961 0.501961 #0.501961
v -0.049072 3.179199 0.000000 0.501961 0.501961 0.501961 #0.501961
v -1.474854 3.152832 0.000000 0.501961 0.501961 0.501961 #0.501961
v -0.887451 3.759766 0.000000 0.501961 0.501961 0.501961 #0.501961
v -0.610840 3.759766 0.000000 0.501961 0.501961 0.501961 #0.501961
v -1.474854 3.152832 0.000000 0.501961 0.501961 0.501961 #0.501961
v -0.610840 3.759766 0.000000 0.501961 0.501961 0.501961 #0.501961
v -0.887451 3.759766 0.000000 0.501961 0.501961 0.501961 #0.501961
v -1.474854 3.152832 0.000000 0.501961 0.501961 0.501961 #0.501961
v -0.049072 3.179199 0.000000 0.501961 0.501961 0.501961 #0.501961
v -0.610840 3.759766 0.000000 0.501961 0.501961 0.501961 #0.501961
v -1.474854 3.152832 0.000000 0.501961 0.501961 0.501961 #0.501961
v 0.889893 3.380859 0.000000 0.501961 0.501961 0.501961 #0.501961
v 1.011230 3.336670 0.000000 0.501961 0.501961 0.501961 #0.501961
v 1.076660 2.728027 0.000000 0.501961 0.501961 0.501961 #0.501961
v 0.446289 2.975098 0.000000 0.501961 0.501961 0.501961 #0.501961
v 0.889893 3.380859 0.000000 0.501961 0.501961 0.501961 #0.501961
v 1.076660 2.728027 0.000000 0.501961 0.501961 0.501961 #0.501961
v 0.889893 3.380859 0.000000 0.501961 0.501961 0.501961 #0.501961
v 0.446289 2.975098 0.000000 0.501961 0.501961 0.501961 #0.501961
v -0.322510 3.239990 0.000000 0.501961 0.501961 0.501961 #0.501961
v 0.746826 3.432861 0.000000 0.501961 0.501961 0.501961 #0.501961
v 0.889893 3.380859 0.000000 0.501961 0.501961 0.501961 #0.501961
v -0.322510 3.239990 0.000000 0.501961 0.501961 0.501961 #0.501961
v 0.889893 3.380859 0.000000 0.501961 0.501961 0.501961 #0.501961
v 0.446289 2.975098 0.000000 0.501961 0.501961 0.501961 #0.501961
v 1.076660 2.728027 0.000000 0.501961 0.501961 0.501961 #0.501961
v 1.011230 3.336670 0.000000 0.501961 0.501961 0.501961 #0.501961
v 0.889893 3.380859 0.000000 0.501961 0.501961 0.501961 #0.501961
v 1.076660 2.728027 0.000000 0.501961 0.501961 0.501961 #0.501961
v 0.889893 3.380859 0.000000 0.501961 0.501961 0.501961 #0.501961
v 0.746826 3.432861 0.000000 0.501961 0.501961 0.501961 #0.501961
v -0.322510 3.239990 0.000000 0.501961 0.501961 0.501961 #0.501961
v 0.446289 2.975098 0.000000 0.501961 0.501961 0.501961 #0.501961
v 0.889893 3.380859 0.000000 0.501961 0.501961 0.501961 #0.501961
v -0.322510 3.239990 0.000000 0.501961 0.501961 0.501961 #0.501961
v 1.043457 1.646484 0.000000 0.501961 0.501961 0.501961 #0.501961
v 0.753174 1.543701 0.000000 0.501961 0.501961 0.501961 #0.501961
v 0.459473 1.924072 0.000000 0.501961 0.501961 0.501961 #0.501961
v 1.007080 2.071289 0.000000 0.501961 0.501961 0.501961 #0.501961
v 1.043457 1.646484 0.000000 0.501961 0.501961 0.501961 #0.501961
v 0.459473 1.924072 0.000000 0.501961 0.501961 0.501961 #0.501961
v 0.753174 1.543701 0.000000 0.501961 0.501961 0.501961 #0.501961
v 0.502686 1.482178 0.000000 0.501961 0.501961 0.501961 #0.501961
v -0.377441 1.806396 0.000000 0.501961 0.501961 0.501961 #0.501961
v 0.459473 1.924072 0.000000 0.501961 0.501961 0.501961 #0.501961
v 0.753174 1.543701 0.000000 0.501961 0.501961 0.501961 #0.501961
v -0.377441 1.806396 0.000000 0.501961 0.501961 0.501961 #0.501961
v 1.043457 1.646484 0.000000 0.501961 0.501961 0.501961 #0.501961
v 1.007080 2.071289 0.000000 0.501961 0.501961 0.501961 #0.501961
v 0.459473 1.924072 0.000000 0.501961 0.501961 0.501961 #0.501961
v 0.753174 1.543701 0.000000 0.501961 0.501961 0.501961 #0.501961
v 1.043457 1.646484 0.000000 0.501961 0.501961 0.501961 #0.501961
v 0.459473 1.924072 0.000000 0.501961 0.501961 0.501961 #0.501961
v 0.753174 1.543701 0.000000 0.501961 0.501961 0.501961 #0.501961
v 0.459473 1.924072 0.000000 0.501961 0.501961 0.501961 #0.501961
v -0.377441 1.806396 0.000000 0.501961 0.501961 0.501961 #0.501961
v 0.502686 1.482178 0.000000 0.501961 0.501961 0.501961 #0.501961
v 0.753174 1.543701 0.000000 0.501961 0.501961 0.501961 #0.501961
v -0.377441 1.806396 0.000000 0.501961 0.501961 0.501961 #0.501961
v -0.759033 2.031738 0.372070 0.501961 0.501961 0.501961 #0.501961
v -0.463867 2.156006 0.572754 0.501961 0.501961 0.501961 #0.501961
v -1.277588 2.459473 0.247314 0.501961 0.501961 0.501961 #0.501961
v -1.276367 2.017822 0.092285 0.501961 0.501961 0.501961 #0.501961
v -0.759033 2.031738 0.372070 0.501961 0.501961 0.501961 #0.501961
v -1.277588 2.459473 0.247314 0.501961 0.501961 0.501961 #0.501961
v -0.759033 2.031738 0.372070 0.501961 0.501961 0.501961 #0.501961
v -1.276367 2.017822 0.092285 0.501961 0.501961 0.501961 #0.501961
v -1.277588 2.459473 0.247314 0.501961 0.501961 0.501961 #0.501961
v -0.463867 2.156006 0.572754 0.501961 0.501961 0.501961 #0.501961
v -0.759033 2.031738 0.372070 0.501961 0.501961 0.501961 #0.501961
v -1.277588 2.459473 0.247314 0.501961 0.501961 0.501961 #0.501961
v -0.759033 2.031738 -0.372070 0.501961 0.501961 0.501961 #0.501961
v -1.276367 2.017822 -0.092285 0.501961 0.501961 0.501961 #0.501961
v -1.277588 2.459473 -0.247314 0.501961 0.501961 0.501961 #0.501961
v -0.463867 2.156006 -0.572754 0.501961 0.501961 0.501961 #0.501961
v -0.759033 2.031738 -0.372070 0.501961 0.501961 0.501961 #0.501961
v -1.277588 2.459473 -0.247314 0.501961 0.501961 0.501961 #0.501961
v -0.759033 2.031738 -0.372070 0.501961 0.501961 0.501961 #0.501961
v -0.463867 2.156006 -0.572754 0.501961 0.501961 0.501961 #0.501961
v -1.277588 2.459473 -0.247314 0.501961 0.501961 0.501961 #0.501961
v -1.276367 2.017822 -0.092285 0.501961 0.501961 0.501961 #0.501961
v -0.759033 2.031738 -0.372070 0.501961 0.501961 0.501961 #0.501961
v -1.277588 2.459473 -0.247314 0.501961 0.501961 0.501961 #0.501961
v -0.523438 1.160645 0.219727 0.501961 0.501961 0.501961 #0.501961
v -0.957275 1.258789 0.209229 0.501961 0.501961 0.501961 #0.501961
v -1.197998 2.285156 -0.039063 0.501961 0.501961 0.501961 #0.501961
v -0.400146 1.246094 0.194336 0.501961 0.501961 0.501961 #0.501961
v -0.523438 1.160645 0.219727 0.501961 0.501961 0.501961 #0.501961
v -1.197998 2.285156 -0.039063 0.501961 0.501961 0.501961 #0.501961
v -0.424561 1.614258 0.103271 0.501961 0.501961 0.501961 #0.501961
v -0.400146 1.246094 0.194336 0.501961 0.501961 0.501961 #0.501961
v -1.197998 2.285156 -0.039063 0.501961 0.501961 0.501961 #0.501961
v -0.400146 1.246094 0.194336 0.501961 0.501961 0.501961 #0.501961
v -0.424561 1.614258 0.103271 0.501961 0.501961 0.501961 #0.501961
v -1.197998 2.285156 -0.039063 0.501961 0.501961 0.501961 #0.501961
v -0.523438 1.160645 0.219727 0.501961 0.501961 0.501961 #0.501961
v -0.400146 1.246094 0.194336 0.501961 0.501961 0.501961 #0.501961
v -1.197998 2.285156 -0.039063 0.501961 0.501961 0.501961 #0.501961
v -0.957275 1.258789 0.209229 0.501961 0.501961 0.501961 #0.501961
v -0.523438 1.160645 0.219727 0.501961 0.501961 0.501961 #0.501961
v -1.197998 2.285156 -0.039063 0.501961 0.501961 0.501961 #0.501961
v -0.400146 1.246094 -0.194336 0.501961 0.501961 0.501961 #0.501961
v -0.424561 1.614258 -0.103516 0.501961 0.501961 0.501961 #0.501961
v -1.197998 2.285156 0.039063 0.501961 0.501961 0.501961 #0.501961
v -0.523438 1.160645 -0.219727 0.501961 0.501961 0.501961 #0.501961
v -0.400146 1.246094 -0.194336 0.501961 0.501961 0.501961 #0.501961
v -1.197998 2.285156 0.039063 0.501961 0.501961 0.501961 #0.501961
v -0.957275 1.258789 -0.208984 0.501961 0.501961 0.501961 #0.501961
v -0.523438 1.160645 -0.219727 0.501961 0.501961 0.501961 #0.501961
v -1.197998 2.285156 0.039063 0.501961 0.501961 0.501961 #0.501961
v -0.523438 1.160645 -0.219727 0.501961 0.501961 0.501961 #0.501961
v -0.957275 1.258789 -0.208984 0.501961 0.501961 0.501961 #0.501961
v -1.197998 2.285156 0.039063 0.501961 0.501961 0.501961 #0.501961
v -0.400146 1.246094 -0.194336 0.501961 0.501961 0.501961 #0.501961
v -0.523438 1.160645 -0.219727 0.501961 0.501961 0.501961 #0.501961
v -1.197998 2.285156 0.039063 0.501961 0.501961 0.501961 #0.501961
v -0.424561 1.614258 -0.103516 0.501961 0.501961 0.501961 #0.501961
v -0.400146 1.246094 -0.194336 0.501961 0.501961 0.501961 #0.501961
v -1.197998 2.285156 0.039063 0.501961 0.501961 0.501961 #0.501961
v -0.312012 2.897217 0.889160 0.501961 0.501961 0.501961 #0.501961
v -0.683838 2.984375 0.723877 0.501961 0.501961 0.501961 #0.501961
v -1.277588 2.459473 0.247314 0.501961 0.501961 0.501961 #0.501961
v -0.194336 2.738525 0.899414 0.501961 0.501961 0.501961 #0.501961
v -0.312012 2.897217 0.889160 0.501961 0.501961 0.501961 #0.501961
v -1.277588 2.459473 0.247314 0.501961 0.501961 0.501961 #0.501961
v -0.179443 2.275635 0.758789 0.501961 0.501961 0.501961 #0.501961
v -0.194336 2.738525 0.899414 0.501961 0.501961 0.501961 #0.501961
v -1.277588 2.459473 0.247314 0.501961 0.501961 0.501961 #0.501961
v -0.463867 2.156006 0.572754 0.501961 0.501961 0.501961 #0.501961
v -0.179443 2.275635 0.758789 0.501961 0.501961 0.501961 #0.501961
v -1.277588 2.459473 0.247314 0.501961 0.501961 0.501961 #0.501961
v -0.179443 2.275635 0.758789 0.501961 0.501961 0.501961 #0.501961
v -0.463867 2.156006 0.572754 0.501961 0.501961 0.501961 #0.501961
v -1.277588 2.459473 0.247314 0.501961 0.501961 0.501961 #0.501961
v -0.194336 2.738525 0.899414 0.501961 0.501961 0.501961 #0.501961
v -0.179443 2.275635 0.758789 0.501961 0.501961 0.501961 #0.501961
v -1.277588 2.459473 0.247314 0.501961 0.501961 0.501961 #0.501961
v -0.312012 2.897217 0.889160 0.501961 0.501961 0.501961 #0.501961
v -0.194336 2.738525 0.899414 0.501961 0.501961 0.501961 #0.501961
v -1.277588 2.459473 0.247314 0.501961 0.501961 0.501961 #0.501961
v -0.683838 2.984375 0.723877 0.501961 0.501961 0.501961 #0.501961
v -0.312012 2.897217 0.889160 0.501961 0.501961 0.501961 #0.501961
v -1.277588 2.459473 0.247314 0.501961 0.501961 0.501961 #0.501961
v -0.179443 2.275635 -0.758789 0.501961 0.501961 0.501961 #0.501961
v -0.463867 2.156006 -0.572754 0.501961 0.501961 0.501961 #0.501961
v -1.277588 2.459473 -0.247314 0.501961 0.501961 0.501961 #0.501961
v -0.194336 2.738525 -0.899414 0.501961 0.501961 0.501961 #0.501961
v -0.179443 2.275635 -0.758789 0.501961 0.501961 0.501961 #0.501961
v -1.277588 2.459473 -0.247314 0.501961 0.501961 0.501961 #0.501961
v -0.312012 2.897217 -0.889160 0.501961 0.501961 0.501961 #0.501961
v -0.194336 2.738525 -0.899414 0.501961 0.501961 0.501961 #0.501961
v -1.277588 2.459473 -0.247314 0.501961 0.501961 0.501961 #0.501961
v -0.683838 2.984375 -0.723877 0.501961 0.501961 0.501961 #0.501961
v -0.312012 2.897217 -0.889160 0.501961 0.501961 0.501961 #0.501961
v -1.277588 2.459473 -0.247314 0.501961 0.501961 0.501961 #0.501961
v -0.312012 2.897217 -0.889160 0.501961 0.501961 0.501961 #0.501961
v -0.683838 2.984375 -0.723877 0.501961 0.501961 0.501961 #0.501961
v -1.277588 2.459473 -0.247314 0.501961 0.501961 0.501961 #0.501961
v -0.194336 2.738525 -0.899414 0.501961 0.501961 0.501961 #0.501961
v -0.312012 2.897217 -0.889160 0.501961 0.501961 0.501961 #0.501961
v -1.277588 2.459473 -0.247314 0.501961 0.501961 0.501961 #0.501961
v -0.179443 2.275635 -0.758789 0.501961 0.501961 0.501961 #0.501961
v -0.194336 2.738525 -0.899414 0.501961 0.501961 0.501961 #0.501961
v -1.277588 2.459473 -0.247314 0.501961 0.501961 0.501961 #0.501961
v -0.463867 2.156006 -0.572754 0.501961 0.501961 0.501961 #0.501961
v -0.179443 2.275635 -0.758789 0.501961 0.501961 0.501961 #0.501961
v -1.277588 2.459473 -0.247314 0.501961 0.501961 0.501961 #0.501961
vt 0.545166 0.470703 0.000000
vt 0.683350 0.486816 0.000000
vt 0.544922 0.527344 0.000000
vt 0.545166 0.182861 0.000000
vt 0.544922 0.130371 0.000000
vt 0.687256 0.207520 0.000000
vt 0.683350 0.486816 0.000000
vt 0.545166 0.470703 0.000000
vt 0.544922 0.320313 0.000000
vt 0.685547 0.320313 0.000000
vt 0.683350 0.486816 0.000000
vt 0.544922 0.320313 0.000000
vt 0.687256 0.207520 0.000000
vt 0.685547 0.320313 0.000000
vt 0.544922 0.320313 0.000000
vt 0.545166 0.182861 0.000000
vt 0.687256 0.207520 0.000000
vt 0.544922 0.320313 0.000000
vt 0.685547 0.320313 0.000000
vt 0.687256 0.207520 0.000000
vt 0.802490 0.122314 0.000000
vt 0.866943 0.316895 0.000000
vt 0.685547 0.320313 0.000000
vt 0.802490 0.122314 0.000000
vt 0.866943 0.316895 0.000000
vt 0.819580 0.552246 0.000000
vt 0.685547 0.320313 0.000000
vt 0.819580 0.552246 0.000000
vt 0.683350 0.486816 0.000000
vt 0.685547 0.320313 0.000000
vt 0.683350 0.486816 0.000000
vt 0.545166 0.470703 0.000000
vt 0.544922 0.527344 0.000000
vt 0.544922 0.130371 0.000000
vt 0.545166 0.182861 0.000000
vt 0.687256 0.207520 0.000000
vt 0.683350 0.486816 0.000000
vt 0.685547 0.320313 0.000000
vt 0.544922 0.320313 0.000000
vt 0.545166 0.470703 0.000000
vt 0.683350 0.486816 0.000000
vt 0.544922 0.320313 0.000000
vt 0.687256 0.207520 0.000000
vt 0.545166 0.182861 0.000000
vt 0.544922 0.320313 0.000000
vt 0.685547 0.320313 0.000000
vt 0.687256 0.207520 0.000000
vt 0.544922 0.320313 0.000000
vt 0.687256 0.207520 0.000000
vt 0.685547 0.320313 0.000000
vt 0.802490 0.122314 0.000000
vt 0.685547 0.320313 0.000000
vt 0.866943 0.316895 0.000000
vt 0.802490 0.122314 0.000000
vt 0.819580 0.552246 0.000000
vt 0.866943 0.316895 0.000000
vt 0.685547 0.320313 0.000000
vt 0.682373 0.486816 0.000000
vt 0.819580 0.552246 0.000000
vt 0.685547 0.320313 0.000000
vt 0.544922 0.130371 0.000000
vt 0.545166 0.182861 0.000000
vt 0.412109 0.144531 0.000000
vt 0.410156 0.032959 0.000000
vt 0.544922 0.130371 0.000000
vt 0.412109 0.144531 0.000000
vt 0.545166 0.182861 0.000000
vt 0.544922 0.130371 0.000000
vt 0.410156 0.032959 0.000000
vt 0.412109 0.144531 0.000000
vt 0.545166 0.182861 0.000000
vt 0.410156 0.032959 0.000000
vt 0.544922 0.320313 0.000000
vt 0.545166 0.182861 0.000000
vt 0.412109 0.144531 0.000000
vt 0.412109 0.320313 0.000000
vt 0.544922 0.320313 0.000000
vt 0.412109 0.144531 0.000000
vt 0.545166 0.470703 0.000000
vt 0.544922 0.320313 0.000000
vt 0.412109 0.320313 0.000000
vt 0.412109 0.492188 0.000000
vt 0.545166 0.470703 0.000000
vt 0.412109 0.320313 0.000000
vt 0.544922 0.527344 0.000000
vt 0.545166 0.470703 0.000000
vt 0.412109 0.492188 0.000000
vt 0.412109 0.591797 0.000000
vt 0.544922 0.527344 0.000000
vt 0.412109 0.492188 0.000000
vt 0.545166 0.470703 0.000000
vt 0.544922 0.527344 0.000000
vt 0.412109 0.591797 0.000000
vt 0.412109 0.492188 0.000000
vt 0.545166 0.470703 0.000000
vt 0.412109 0.591797 0.000000
vt 0.544922 0.320313 0.000000
vt 0.545166 0.470703 0.000000
vt 0.412109 0.492188 0.000000
vt 0.412109 0.320313 0.000000
vt 0.544922 0.320313 0.000000
vt 0.412109 0.492188 0.000000
vt 0.545166 0.182861 0.000000
vt 0.544922 0.320313 0.000000
vt 0.412109 0.320313 0.000000
vt 0.412109 0.144531 0.000000
vt 0.545166 0.182861 0.000000
vt 0.412109 0.320313 0.000000
vt 0.036865 0.227539 0.000000
vt 0.168213 0.055176 0.000000
vt 0.174805 0.161377 0.000000
vt 0.036865 0.227539 0.000000
vt 0.174805 0.161377 0.000000
vt 0.168213 0.055176 0.000000
vt 0.184082 0.318359 0.000000
vt 0.174805 0.161377 0.000000
vt 0.036865 0.227539 0.000000
vt 0.020508 0.318115 0.000000
vt 0.184082 0.318359 0.000000
vt 0.036865 0.227539 0.000000
vt 0.185303 0.463623 0.000000
vt 0.184082 0.318359 0.000000
vt 0.020508 0.318115 0.000000
vt 0.038818 0.410156 0.000000
vt 0.185303 0.463623 0.000000
vt 0.020508 0.318115 0.000000
vt 0.038818 0.410156 0.000000
vt 0.173096 0.544189 0.000000
vt 0.185303 0.463623 0.000000
vt 0.038818 0.410156 0.000000
vt 0.185303 0.463623 0.000000
vt 0.173096 0.544189 0.000000
vt 0.184082 0.318359 0.000000
vt 0.185303 0.463623 0.000000
vt 0.038818 0.410156 0.000000
vt 0.020508 0.318115 0.000000
vt 0.184082 0.318359 0.000000
vt 0.038818 0.410156 0.000000
vt 0.174805 0.161377 0.000000
vt 0.184082 0.318359 0.000000
vt 0.020508 0.318115 0.000000
vt 0.036865 0.227539 0.000000
vt 0.174805 0.161377 0.000000
vt 0.020508 0.318115 0.000000
vt 0.412109 0.144531 0.000000
vt 0.174805 0.161377 0.000000
vt 0.184082 0.318359 0.000000
vt 0.412109 0.320313 0.000000
vt 0.412109 0.144531 0.000000
vt 0.184082 0.318359 0.000000
vt 0.410156 0.032959 0.000000
vt 0.168213 0.055176 0.000000
vt 0.174805 0.161377 0.000000
vt 0.412109 0.144531 0.000000
vt 0.410156 0.032959 0.000000
vt 0.174805 0.161377 0.000000
vt 0.412109 0.144531 0.000000
vt 0.174805 0.161377 0.000000
vt 0.168213 0.055176 0.000000
vt 0.410156 0.032959 0.000000
vt 0.412109 0.144531 0.000000
vt 0.168213 0.055176 0.000000
vt 0.412109 0.320313 0.000000
vt 0.184082 0.318359 0.000000
vt 0.174805 0.161377 0.000000
vt 0.412109 0.144531 0.000000
vt 0.412109 0.320313 0.000000
vt 0.174805 0.161377 0.000000
vt 0.412109 0.492188 0.000000
vt 0.185303 0.463623 0.000000
vt 0.184082 0.318359 0.000000
vt 0.412109 0.320313 0.000000
vt 0.412109 0.492188 0.000000
vt 0.184082 0.318359 0.000000
vt 0.412109 0.591797 0.000000
vt 0.173096 0.544189 0.000000
vt 0.185303 0.463623 0.000000
vt 0.412109 0.492188 0.000000
vt 0.412109 0.591797 0.000000
vt 0.185303 0.463623 0.000000
vt 0.412109 0.492188 0.000000
vt 0.185303 0.463623 0.000000
vt 0.173096 0.544189 0.000000
vt 0.412109 0.591797 0.000000
vt 0.412109 0.492188 0.000000
vt 0.173096 0.544189 0.000000
vt 0.412109 0.320313 0.000000
vt 0.184082 0.318359 0.000000
vt 0.185303 0.463623 0.000000
vt 0.412109 0.492188 0.000000
vt 0.412109 0.320313 0.000000
vt 0.185303 0.463623 0.000000
vt 0.157959 0.693848 0.000000
vt 0.235352 0.865234 0.000000
vt 0.028564 0.864990 0.000000
vt 0.110840 0.692383 0.000000
vt 0.157959 0.693848 0.000000
vt 0.028564 0.864990 0.000000
vt 0.157959 0.693848 0.000000
vt 0.110840 0.692383 0.000000
vt 0.028564 0.864990 0.000000
vt 0.235352 0.865234 0.000000
vt 0.157959 0.693848 0.000000
vt 0.028564 0.864990 0.000000
vt 0.377441 0.784668 0.000000
vt 0.397705 0.795410 0.000000
vt 0.400146 0.977783 0.000000
vt 0.295166 0.916504 0.000000
vt 0.377441 0.784668 0.000000
vt 0.400146 0.977783 0.000000
vt 0.377441 0.784668 0.000000
vt 0.295166 0.916504 0.000000
vt 0.185547 0.851563 0.000000
vt 0.356934 0.771729 0.000000
vt 0.377441 0.784668 0.000000
vt 0.185547 0.851563 0.000000
vt 0.377441 0.784668 0.000000
vt 0.295166 0.916504 0.000000
vt 0.400146 0.977783 0.000000
vt 0.397705 0.795410 0.000000
vt 0.377441 0.784668 0.000000
vt 0.400146 0.977783 0.000000
vt 0.377441 0.784668 0.000000
vt 0.356934 0.771729 0.000000
vt 0.185547 0.851563 0.000000
vt 0.295166 0.916504 0.000000
vt 0.377441 0.784668 0.000000
vt 0.185547 0.851563 0.000000
vt 0.742432 0.681885 0.000000
vt 0.708740 0.724609 0.000000
vt 0.650635 0.586426 0.000000
vt 0.745117 0.547363 0.000000
vt 0.742432 0.681885 0.000000
vt 0.650635 0.586426 0.000000
vt 0.708740 0.724609 0.000000
vt 0.647461 0.730469 0.000000
vt 0.579102 0.615723 0.000000
vt 0.650635 0.586426 0.000000
vt 0.708740 0.724609 0.000000
vt 0.579102 0.615723 0.000000
vt 0.742432 0.681885 0.000000
vt 0.745117 0.547363 0.000000
vt 0.650635 0.586426 0.000000
vt 0.708740 0.724609 0.000000
vt 0.742432 0.681885 0.000000
vt 0.650635 0.586426 0.000000
vt 0.708740 0.724609 0.000000
vt 0.650635 0.586426 0.000000
vt 0.579102 0.615723 0.000000
vt 0.647461 0.730469 0.000000
vt 0.708740 0.724609 0.000000
vt 0.579102 0.615723 0.000000
vt 0.881592 0.851807 0.000000
vt 0.921143 0.812500 0.000000
vt 0.812256 0.725342 0.000000
vt 0.812500 0.858887 0.000000
vt 0.881592 0.851807 0.000000
vt 0.812256 0.725342 0.000000
vt 0.881592 0.851807 0.000000
vt 0.812500 0.858887 0.000000
vt 0.812256 0.725342 0.000000
vt 0.921143 0.812500 0.000000
vt 0.881592 0.851807 0.000000
vt 0.812256 0.725342 0.000000
vt 0.881592 0.851807 0.000000
vt 0.812500 0.858887 0.000000
vt 0.812256 0.725342 0.000000
vt 0.921143 0.812500 0.000000
vt 0.881592 0.851807 0.000000
vt 0.812256 0.725342 0.000000
vt 0.881592 0.851807 0.000000
vt 0.921143 0.812500 0.000000
vt 0.812256 0.725342 0.000000
vt 0.812500 0.858887 0.000000
vt 0.881592 0.851807 0.000000
vt 0.812256 0.725342 0.000000
vt 0.544922 0.873779 0.000000
vt 0.518311 0.842285 0.000000
vt 0.488037 0.582031 0.000000
vt 0.599609 0.847168 0.000000
vt 0.544922 0.873779 0.000000
vt 0.488037 0.582031 0.000000
vt 0.606689 0.756348 0.000000
vt 0.599609 0.847168 0.000000
vt 0.488037 0.582031 0.000000
vt 0.599854 0.846924 0.000000
vt 0.606689 0.756348 0.000000
vt 0.488037 0.582031 0.000000
vt 0.545166 0.873535 0.000000
vt 0.599854 0.846924 0.000000
vt 0.488037 0.582031 0.000000
vt 0.518311 0.842285 0.000000
vt 0.545166 0.873535 0.000000
vt 0.488037 0.582031 0.000000
vt 0.599854 0.846924 0.000000
vt 0.606689 0.756348 0.000000
vt 0.488037 0.582031 0.000000
vt 0.545166 0.873535 0.000000
vt 0.599854 0.846924 0.000000
vt 0.488037 0.582031 0.000000
vt 0.518311 0.842285 0.000000
vt 0.545166 0.873535 0.000000
vt 0.488037 0.582031 0.000000
vt 0.544922 0.873779 0.000000
vt 0.518311 0.842285 0.000000
vt 0.488037 0.582031 0.000000
vt 0.599609 0.847168 0.000000
vt 0.544922 0.873779 0.000000
vt 0.488037 0.582031 0.000000
vt 0.606689 0.756348 0.000000
vt 0.599609 0.847168 0.000000
vt 0.488037 0.582031 0.000000
vt 0.944336 0.621582 0.000000
vt 0.907227 0.599365 0.000000
vt 0.812256 0.725342 0.000000
vt 0.955322 0.649658 0.000000
vt 0.944336 0.621582 0.000000
vt 0.812256 0.725342 0.000000
vt 0.954346 0.724365 0.000000
vt 0.955322 0.649658 0.000000
vt 0.812256 0.725342 0.000000
vt 0.921143 0.812500 0.000000
vt 0.954346 0.724365 0.000000
vt 0.812256 0.725342 0.000000
vt 0.954346 0.724365 0.000000
vt 0.921143 0.812500 0.000000
vt 0.812256 0.725342 0.000000
vt 0.955322 0.649658 0.000000
vt 0.954346 0.724365 0.000000
vt 0.812256 0.725342 0.000000
vt 0.944336 0.621582 0.000000
vt 0.955322 0.649658 0.000000
vt 0.812256 0.725342 0.000000
vt 0.907227 0.599365 0.000000
vt 0.944336 0.621582 0.000000
vt 0.812256 0.725342 0.000000
vt 0.954346 0.724365 0.000000
vt 0.921143 0.812500 0.000000
vt 0.812256 0.725342 0.000000
vt 0.955322 0.649658 0.000000
vt 0.954346 0.724365 0.000000
vt 0.812256 0.725342 0.000000
vt 0.944336 0.621582 0.000000
vt 0.955322 0.649658 0.000000
vt 0.812256 0.725342 0.000000
vt 0.907227 0.599365 0.000000
vt 0.944336 0.621582 0.000000
vt 0.812256 0.725342 0.000000
vt 0.944336 0.621582 0.000000
vt 0.907227 0.599365 0.000000
vt 0.812256 0.725342 0.000000
vt 0.955322 0.649658 0.000000
vt 0.944336 0.621582 0.000000
vt 0.812256 0.725342 0.000000
vt 0.954346 0.724365 0.000000
vt 0.955322 0.649658 0.000000
vt 0.812256 0.725342 0.000000
vt 0.921143 0.812500 0.000000
vt 0.954346 0.724365 0.000000
vt 0.812256 0.725342 0.000000
vn -0.140381 0.442139 -0.885742
vn -0.163818 0.986328 0.000000
vn -0.215332 0.976318 0.000732
vn -0.185303 -0.428223 -0.884277
vn -0.336182 -0.941650 -0.002441
vn -0.172607 -0.984863 0.000000
vn -0.163818 0.986328 0.000000
vn -0.140381 0.442139 -0.885742
vn -0.160889 0.006592 -0.986816
vn -0.066650 -0.016357 -0.997559
vn -0.163818 0.986328 0.000000
vn -0.160889 0.006592 -0.986816
vn -0.172607 -0.984863 0.000000
vn -0.066650 -0.016357 -0.997559
vn -0.160889 0.006592 -0.986816
vn -0.185303 -0.428223 -0.884277
vn -0.172607 -0.984863 0.000000
vn -0.160889 0.006592 -0.986816
vn -0.066650 -0.016357 -0.997559
vn -0.172607 -0.984863 0.000000
vn -0.019287 -0.999756 0.000000
vn -0.999756 -0.010498 0.000000
vn -0.066650 -0.016357 -0.997559
vn -0.019287 -0.999756 0.000000
vn -0.999756 -0.010498 0.000000
vn -0.233643 0.972168 0.000000
vn -0.066650 -0.016357 -0.997559
vn -0.233643 0.972168 0.000000
vn -0.163818 0.986328 0.000000
vn -0.066650 -0.016357 -0.997559
vn -0.163818 0.986328 0.000000
vn -0.147217 0.441895 0.884521
vn -0.215332 0.976318 0.000732
vn -0.336182 -0.941650 -0.002441
vn -0.191650 -0.427490 0.883301
vn -0.172607 -0.984863 0.000000
vn -0.163818 0.986328 0.000000
vn -0.066650 -0.016357 0.997559
vn -0.169434 0.006104 0.985352
vn -0.147217 0.441895 0.884521
vn -0.163818 0.986328 0.000000
vn -0.169434 0.006104 0.985352
vn -0.172607 -0.984863 0.000000
vn -0.191650 -0.427490 0.883301
vn -0.169434 0.006104 0.985352
vn -0.066650 -0.016357 0.997559
vn -0.172607 -0.984863 0.000000
vn -0.169434 0.006104 0.985352
vn -0.172607 -0.984863 0.000000
vn -0.066650 -0.016357 0.997559
vn -0.019287 -0.999756 0.000000
vn -0.066650 -0.016357 0.997559
vn -0.999756 -0.010498 0.000000
vn -0.019287 -0.999756 0.000000
vn -0.233643 0.972168 0.000000
vn -0.999756 -0.010498 0.000000
vn -0.066650 -0.016357 0.997559
vn -0.163818 0.986328 0.000000
vn -0.233643 0.972168 0.000000
vn -0.066650 -0.016357 0.997559
vn -0.336182 -0.941650 -0.002441
vn -0.185303 -0.428223 -0.884277
vn -0.088379 -0.365723 -0.926270
vn -0.206299 -0.978271 -0.003418
vn -0.336182 -0.941650 -0.002441
vn -0.088379 -0.365723 -0.926270
vn -0.191650 -0.427490 0.883301
vn -0.336182 -0.941650 -0.002441
vn -0.206299 -0.978271 -0.003418
vn -0.079102 -0.365723 0.927246
vn -0.191650 -0.427490 0.883301
vn -0.206299 -0.978271 -0.003418
vn -0.169434 0.006104 0.985352
vn -0.191650 -0.427490 0.883301
vn -0.079102 -0.365723 0.927246
vn -0.061035 0.037354 0.997314
vn -0.169434 0.006104 0.985352
vn -0.079102 -0.365723 0.927246
vn -0.147217 0.441895 0.884521
vn -0.169434 0.006104 0.985352
vn -0.061035 0.037354 0.997314
vn -0.056396 0.434082 0.898926
vn -0.147217 0.441895 0.884521
vn -0.061035 0.037354 0.997314
vn -0.215332 0.976318 0.000732
vn -0.147217 0.441895 0.884521
vn -0.056396 0.434082 0.898926
vn -0.092285 0.995605 0.000000
vn -0.215332 0.976318 0.000732
vn -0.056396 0.434082 0.898926
vn -0.140381 0.442139 -0.885742
vn -0.215332 0.976318 0.000732
vn -0.092285 0.995605 0.000000
vn -0.045654 0.433105 -0.899902
vn -0.140381 0.442139 -0.885742
vn -0.092285 0.995605 0.000000
vn -0.160889 0.006592 -0.986816
vn -0.140381 0.442139 -0.885742
vn -0.045654 0.433105 -0.899902
vn -0.059814 0.038086 -0.997314
vn -0.160889 0.006592 -0.986816
vn -0.045654 0.433105 -0.899902
vn -0.185303 -0.428223 -0.884277
vn -0.160889 0.006592 -0.986816
vn -0.059814 0.038086 -0.997314
vn -0.088379 -0.365723 -0.926270
vn -0.185303 -0.428223 -0.884277
vn -0.059814 0.038086 -0.997314
vn 0.706299 -0.707764 0.007080
vn 0.340088 -0.940186 -0.000244
vn 0.154541 -0.308838 -0.938232
vn 0.706299 -0.707764 0.007080
vn 0.162598 -0.303711 0.938721
vn 0.340088 -0.940186 -0.000244
vn 0.173096 0.034912 0.984131
vn 0.162598 -0.303711 0.938721
vn 0.706299 -0.707764 0.007080
vn 0.999756 -0.004883 -0.015869
vn 0.173096 0.034912 0.984131
vn 0.706299 -0.707764 0.007080
vn 0.162842 0.371094 0.914063
vn 0.173096 0.034912 0.984131
vn 0.999756 -0.004883 -0.015869
vn 0.638916 0.768799 -0.018066
vn 0.162842 0.371094 0.914063
vn 0.999756 -0.004883 -0.015869
vn 0.638916 0.768799 -0.018066
vn 0.298340 0.954346 -0.000732
vn 0.162842 0.371094 0.914063
vn 0.638916 0.768799 -0.018066
vn 0.146729 0.358398 -0.921875
vn 0.298340 0.954346 -0.000732
vn 0.152832 0.018799 -0.988037
vn 0.146729 0.358398 -0.921875
vn 0.638916 0.768799 -0.018066
vn 0.999756 -0.004883 -0.015869
vn 0.152832 0.018799 -0.988037
vn 0.638916 0.768799 -0.018066
vn 0.154541 -0.308838 -0.938232
vn 0.152832 0.018799 -0.988037
vn 0.999756 -0.004883 -0.015869
vn 0.706299 -0.707764 0.007080
vn 0.154541 -0.308838 -0.938232
vn 0.999756 -0.004883 -0.015869
vn -0.079102 -0.365723 0.927246
vn 0.162598 -0.303711 0.938721
vn 0.173096 0.034912 0.984131
vn -0.061035 0.037354 0.997314
vn -0.079102 -0.365723 0.927246
vn 0.173096 0.034912 0.984131
vn -0.206299 -0.978271 -0.003418
vn 0.340088 -0.940186 -0.000244
vn 0.162598 -0.303711 0.938721
vn -0.079102 -0.365723 0.927246
vn -0.206299 -0.978271 -0.003418
vn 0.162598 -0.303711 0.938721
vn -0.088379 -0.365723 -0.926270
vn 0.154541 -0.308838 -0.938232
vn 0.340088 -0.940186 -0.000244
vn -0.206299 -0.978271 -0.003418
vn -0.088379 -0.365723 -0.926270
vn 0.340088 -0.940186 -0.000244
vn -0.059814 0.038086 -0.997314
vn 0.152832 0.018799 -0.988037
vn 0.154541 -0.308838 -0.938232
vn -0.088379 -0.365723 -0.926270
vn -0.059814 0.038086 -0.997314
vn 0.154541 -0.308838 -0.938232
vn -0.045654 0.433105 -0.899902
vn 0.146729 0.358398 -0.921875
vn 0.152832 0.018799 -0.988037
vn -0.059814 0.038086 -0.997314
vn -0.045654 0.433105 -0.899902
vn 0.152832 0.018799 -0.988037
vn -0.092285 0.995605 0.000000
vn 0.298340 0.954346 -0.000732
vn 0.146729 0.358398 -0.921875
vn -0.045654 0.433105 -0.899902
vn -0.092285 0.995605 0.000000
vn 0.146729 0.358398 -0.921875
vn -0.056396 0.434082 0.898926
vn 0.162842 0.371094 0.914063
vn 0.298340 0.954346 -0.000732
vn -0.092285 0.995605 0.000000
vn -0.056396 0.434082 0.898926
vn 0.298340 0.954346 -0.000732
vn -0.061035 0.037354 0.997314
vn 0.173096 0.034912 0.984131
vn 0.162842 0.371094 0.914063
vn -0.056396 0.434082 0.898926
vn -0.061035 0.037354 0.997314
vn 0.162842 0.371094 0.914063
vn 0.000000 0.000000 0.000000
vn 0.000000 0.000000 0.000000
vn 0.000000 0.000000 0.000000
vn 0.000000 0.000000 0.000000
vn 0.000000 0.000000 0.000000
vn 0.000000 0.000000 0.000000
vn 0.000000 0.000000 0.000000
vn 0.000000 0.000000 0.000000
vn 0.000000 0.000000 0.000000
vn 0.000000 0.000000 0.000000
vn 0.000000 0.000000 0.000000
vn 0.000000 0.000000 0.000000
vn 0.000000 0.000000 0.000000
vn 0.000000 0.000000 0.000000
vn 0.000000 0.000000 0.000000
vn 0.000000 0.000000 0.000000
vn 0.000000 0.000000 0.000000
vn 0.000000 0.000000 0.000000
vn 0.000000 0.000000 0.000000
vn 0.000000 0.000000 0.000000
vn 0.000000 0.000000 0.000000
vn 0.000000 0.000000 0.000000
vn 0.000000 0.000000 0.000000
vn 0.000000 0.000000 0.000000
vn 0.000000 0.000000 0.000000
vn 0.000000 0.000000 0.000000
vn 0.000000 0.000000 0.000000
vn 0.000000 0.000000 0.000000
vn 0.000000 0.000000 0.000000
vn 0.000000 0.000000 0.000000
vn 0.000000 0.000000 0.000000
vn 0.000000 0.000000 0.000000
vn 0.000000 0.000000 0.000000
vn 0.000000 0.000000 0.000000
vn 0.000000 0.000000 0.000000
vn 0.000000 0.000000 0.000000
vn 0.000000 0.000000 0.000000
vn 0.000000 0.000000 0.000000
vn 0.000000 0.000000 0.000000
vn 0.000000 0.000000 0.000000
vn 0.000000 0.000000 0.000000
vn 0.000000 0.000000 0.000000
vn 0.000000 0.000000 0.000000
vn 0.000000 0.000000 0.000000
vn 0.000000 0.000000 0.000000
vn 0.000000 0.000000 0.000000
vn 0.000000 0.000000 0.000000
vn 0.000000 0.000000 0.000000
vn 0.000000 0.000000 0.000000
vn 0.000000 0.000000 0.000000
vn 0.000000 0.000000 0.000000
vn 0.000000 0.000000 0.000000
vn 0.000000 0.000000 0.000000
vn 0.000000 0.000000 0.000000
vn 0.000000 0.000000 0.000000
vn 0.000000 0.000000 0.000000
vn 0.000000 0.000000 0.000000
vn 0.000000 0.000000 0.000000
vn 0.000000 0.000000 0.000000
vn 0.000000 0.000000 0.000000
vn 0.000000 0.000000 0.000000
vn 0.000000 0.000000 0.000000
vn 0.445557 0.285156 0.848389
vn 0.447754 0.296875 0.843018
vn 0.000000 0.000000 0.000000
vn 0.445557 0.285156 0.848389
vn 0.000000 0.000000 0.000000
vn -0.447754 -0.296875 -0.843018
vn -0.445557 -0.285156 -0.848389
vn 0.000000 0.000000 0.000000
vn 0.000000 0.000000 0.000000
vn -0.445557 -0.285156 -0.848389
vn 0.000000 0.000000 0.000000
vn 0.447754 0.296875 -0.843018
vn 0.445557 0.285156 -0.848389
vn 0.000000 0.000000 0.000000
vn 0.000000 0.000000 0.000000
vn 0.445557 0.285156 -0.848389
vn 0.000000 0.000000 0.000000
vn 0.000000 0.000000 0.000000
vn -0.445557 -0.285156 0.848389
vn -0.447754 -0.296875 0.843018
vn 0.000000 0.000000 0.000000
vn -0.445557 -0.285156 0.848389
vn 0.031250 0.241943 -0.969727
vn 0.000000 0.000000 0.000000
vn 0.000000 0.000000 0.000000
vn 0.031250 0.241943 -0.969727
vn 0.031250 0.241943 -0.969727
vn 0.000000 0.000000 0.000000
vn 0.000000 0.000000 0.000000
vn 0.031250 0.241943 -0.969727
vn 0.000000 0.000000 0.000000
vn -0.031250 -0.241943 0.969727
vn 0.000000 0.000000 0.000000
vn 0.000000 0.000000 0.000000
vn -0.031250 -0.241943 0.969727
vn -0.031250 -0.241943 0.969727
vn 0.000000 0.000000 0.000000
vn 0.000000 0.000000 0.000000
vn -0.031250 -0.241943 0.969727
vn 0.000000 0.000000 0.000000
vn 0.030762 0.241699 0.969727
vn 0.000000 0.000000 0.000000
vn 0.000000 0.000000 0.000000
vn 0.030762 0.241699 0.969727
vn 0.030762 0.241699 0.969727
vn 0.000000 0.000000 0.000000
vn 0.000000 0.000000 0.000000
vn 0.030762 0.241699 0.969727
vn 0.000000 0.000000 0.000000
vn -0.030762 -0.241699 -0.969727
vn 0.000000 0.000000 0.000000
vn 0.000000 0.000000 0.000000
vn -0.030762 -0.241699 -0.969727
vn -0.030762 -0.241699 -0.969727
vn 0.000000 0.000000 0.000000
vn 0.000000 0.000000 0.000000
vn -0.030762 -0.241699 -0.969727
vn 0.000000 0.000000 0.000000
vn 0.000000 0.000000 0.000000
vn 0.000000 0.000000 0.000000
vn 0.445557 0.285156 0.848389
vn 0.000000 0.000000 0.000000
vn 0.000000 0.000000 0.000000
vn 0.445557 0.285156 0.848389
vn 0.000000 0.000000 0.000000
vn 0.000000 0.000000 0.000000
vn 0.445557 0.285156 0.848389
vn 0.000000 0.000000 0.000000
vn 0.000000 0.000000 0.000000
vn 0.445557 0.285156 0.848389
vn 0.000000 0.000000 0.000000
vn 0.000000 0.000000 0.000000
vn -0.445557 -0.285156 -0.848389
vn 0.000000 0.000000 0.000000
vn 0.000000 0.000000 0.000000
vn -0.445557 -0.285156 -0.848389
vn 0.000000 0.000000 0.000000
vn 0.000000 0.000000 0.000000
vn -0.445557 -0.285156 -0.848389
vn 0.000000 0.000000 0.000000
vn 0.000000 0.000000 0.000000
vn -0.445557 -0.285156 -0.848389
vn 0.000000 0.000000 0.000000
vn 0.000000 0.000000 0.000000
vn 0.445557 0.285156 -0.848389
vn 0.000000 0.000000 0.000000
vn 0.000000 0.000000 0.000000
vn 0.445557 0.285156 -0.848389
vn 0.000000 0.000000 0.000000
vn 0.000000 0.000000 0.000000
vn 0.445557 0.285156 -0.848389
vn 0.000000 0.000000 0.000000
vn 0.000000 0.000000 0.000000
vn 0.445557 0.285156 -0.848389
vn 0.000000 0.000000 0.000000
vn 0.000000 0.000000 0.000000
vn -0.445557 -0.285156 0.848389
vn 0.000000 0.000000 0.000000
vn 0.000000 0.000000 0.000000
vn -0.445557 -0.285156 0.848389
vn 0.000000 0.000000 0.000000
vn 0.000000 0.000000 0.000000
vn -0.445557 -0.285156 0.848389
vn 0.000000 0.000000 0.000000
vn 0.000000 0.000000 0.000000
vn -0.445557 -0.285156 0.848389
usemtl Texture
f 1/1/1 2/2/2 3/3/3
f 4/4/4 5/5/5 6/6/6
f 7/7/7 8/8/8 9/9/9
f 10/10/10 11/11/11 12/12/12
f 13/13/13 14/14/14 15/15/15
f 16/16/16 17/17/17 18/18/18
f 19/19/19 20/20/20 21/21/21
f 22/22/22 23/23/23 24/24/24
f 25/25/25 26/26/26 27/27/27
f 28/28/28 29/29/29 30/30/30
f 31/31/31 32/32/32 33/33/33
f 34/34/34 35/35/35 36/36/36
f 37/37/37 38/38/38 39/39/39
f 40/40/40 41/41/41 42/42/42
f 43/43/43 44/44/44 45/45/45
f 46/46/46 47/47/47 48/48/48
f 49/49/49 50/50/50 51/51/51
f 52/52/52 53/53/53 54/54/54
f 55/55/55 56/56/56 57/57/57
f 58/58/58 59/59/59 60/60/60
f 61/61/61 62/62/62 63/63/63
f 64/64/64 65/65/65 66/66/66
f 67/67/67 68/68/68 69/69/69
f 70/70/70 71/71/71 72/72/72
f 73/73/73 74/74/74 75/75/75
f 76/76/76 77/77/77 78/78/78
f 79/79/79 80/80/80 81/81/81
f 82/82/82 83/83/83 84/84/84
f 85/85/85 86/86/86 87/87/87
f 88/88/88 89/89/89 90/90/90
f 91/91/91 92/92/92 93/93/93
f 94/94/94 95/95/95 96/96/96
f 97/97/97 98/98/98 99/99/99
f 100/100/100 101/101/101 102/102/102
f 103/103/103 104/104/104 105/105/105
f 106/106/106 107/107/107 108/108/108
f 109/109/109 110/110/110 111/111/111
f 112/112/112 113/113/113 114/114/114
f 115/115/115 116/116/116 117/117/117
f 118/118/118 119/119/119 120/120/120
f 121/121/121 122/122/122 123/123/123
f 124/124/124 125/125/125 126/126/126
f 127/127/127 128/128/128 129/129/129
f 130/130/130 131/131/131 132/132/132
f 133/133/133 134/134/134 135/135/135
f 136/136/136 137/137/137 138/138/138
f 139/139/139 140/140/140 141/141/141
f 142/142/142 143/143/143 144/144/144
f 145/145/145 146/146/146 147/147/147
f 148/148/148 149/149/149 150/150/150
f 151/151/151 152/152/152 153/153/153
f 154/154/154 155/155/155 156/156/156
f 157/157/157 158/158/158 159/159/159
f 160/160/160 161/161/161 162/162/162
f 163/163/163 164/164/164 165/165/165
f 166/166/166 167/167/167 168/168/168
f 169/169/169 170/170/170 171/171/171
f 172/172/172 173/173/173 174/174/174
f 175/175/175 176/176/176 177/177/177
f 178/178/178 179/179/179 180/180/180
f 181/181/181 182/182/182 183/183/183
f 184/184/184 185/185/185 186/186/186
f 187/187/187 188/188/188 189/189/189
f 190/190/190 191/191/191 192/192/192
f 193/193/193 194/194/194 195/195/195
f 196/196/196 197/197/197 198/198/198
f 199/199/199 200/200/200 201/201/201
f 202/202/202 203/203/203 204/204/204
f 205/205/205 206/206/206 207/207/207
f 208/208/208 209/209/209 210/210/210
f 211/211/211 212/212/212 213/213/213
f 214/214/214 215/215/215 216/216/216
f 217/217/217 218/218/218 219/219/219
f 220/220/220 221/221/221 222/222/222
f 223/223/223 224/224/224 225/225/225
f 226/226/226 227/227/227 228/228/228
f 229/229/229 230/230/230 231/231/231
f 232/232/232 233/233/233 234/234/234
f 235/235/235 236/236/236 237/237/237
f 238/238/238 239/239/239 240/240/240
f 241/241/241 242/242/242 243/243/243
f 244/244/244 245/245/245 246/246/246
f 247/247/247 248/248/248 249/249/249
f 250/250/250 251/251/251 252/252/252
f 253/253/253 254/254/254 255/255/255
f 256/256/256 257/257/257 258/258/258
f 259/259/259 260/260/260 261/261/261
f 262/262/262 263/263/263 264/264/264
f 265/265/265 266/266/266 267/267/267
f 268/268/268 269/269/269 270/270/270
f 271/271/271 272/272/272 273/273/273
f 274/274/274 275/275/275 276/276/276
f 277/277/277 278/278/278 279/279/279
f 280/280/280 281/281/281 282/282/282
f 283/283/283 284/284/284 285/285/285
f 286/286/286 287/287/287 288/288/288
f 289/289/289 290/290/290 291/291/291
f 292/292/292 293/293/293 294/294/294
f 295/295/295 296/296/296 297/297/297
f 298/298/298 299/299/299 300/300/300
f 301/301/301 302/302/302 303/303/303
f 304/304/304 305/305/305 306/306/306
f 307/307/307 308/308/308 309/309/309
f 310/310/310 311/311/311 312/312/312
f 313/313/313 314/314/314 315/315/315
f 316/316/316 317/317/317 318/318/318
f 319/319/319 320/320/320 321/321/321
f 322/322/322 323/323/323 324/324/324
f 325/325/325 326/326/326 327/327/327
f 328/328/328 329/329/329 330/330/330
f 331/331/331 332/332/332 333/333/333
f 334/334/334 335/335/335 336/336/336
f 337/337/337 338/338/338 339/339/339
f 340/340/340 341/341/341 342/342/342
f 343/343/343 344/344/344 345/345/345
f 346/346/346 347/347/347 348/348/348
f 349/349/349 350/350/350 351/351/351
f 352/352/352 353/353/353 354/354/354
f 355/355/355 356/356/356 357/357/357
f 358/358/358 359/359/359 360/360/360