# OBJ file
mtllib system.ico.mtl
v 0.026367 4.137451 0.931152 0.501961 0.501961 0.501961 #0.000000
v 0.042725 4.158203 0.906494 0.501961 0.501961 0.501961 #0.000000
v 0.010010 4.139648 0.889648 0.501961 0.501961 0.501961 #0.000000
v 0.010010 4.270020 0.511475 0.501961 0.501961 0.501961 #0.000000
v 0.042725 4.294922 0.509521 0.501961 0.501961 0.501961 #0.000000
v 0.026367 4.293701 0.477295 0.501961 0.501961 0.501961 #0.000000
v 2.084717 1.400879 -0.042480 0.501961 0.501961 0.501961 #0.000000
v 2.068115 1.380127 -0.018066 0.501961 0.501961 0.501961 #0.000000
v 2.051758 1.382324 -0.059570 0.501961 0.501961 0.501961 #0.000000
v 2.084717 1.537598 -0.439697 0.501961 0.501961 0.501961 #0.000000
v 2.051758 1.512695 -0.437744 0.501961 0.501961 0.501961 #0.000000
v 2.068115 1.536377 -0.471680 0.501961 0.501961 0.501961 #0.000000
v -1.954102 2.828613 0.247803 0.501961 0.501961 0.501961 #0.000000
v -1.942627 2.819580 0.223633 0.501961 0.501961 0.501961 #0.000000
v -1.958984 2.802246 0.238770 0.501961 0.501961 0.501961 #0.000000
v 0.007324 0.186279 -0.682861 0.501961 0.501961 0.501961 #0.000000
v 0.018799 0.164307 -0.669434 0.501961 0.501961 0.501961 #0.000000
v -0.008789 0.168945 -0.667725 0.501961 0.501961 0.501961 #0.000000
v -1.942627 2.819580 0.223633 0.501961 0.501961 0.501961 #0.000000
v -1.954102 2.841553 0.209961 0.501961 0.501961 0.501961 #0.000000
v -1.958984 2.815186 0.200928 0.501961 0.501961 0.501961 #0.000000
v 0.018799 0.177246 -0.707275 0.501961 0.501961 0.501961 #0.000000
v 0.007324 0.186279 -0.682861 0.501961 0.501961 0.501961 #0.000000
v -0.008789 0.181885 -0.705566 0.501961 0.501961 0.501961 #0.000000
v 0.010010 4.270020 0.511475 0.501961 0.501961 0.501961 #0.000000
v 0.044434 4.223389 0.495361 0.501961 0.501961 0.501961 #0.000000
v 0.044434 4.093262 0.873779 0.501961 0.501961 0.501961 #0.000000
v 0.010010 4.270020 0.511475 0.501961 0.501961 0.501961 #0.000000
v 0.044434 4.093262 0.873779 0.501961 0.501961 0.501961 #0.000000
v 0.010010 4.139648 0.889648 0.501961 0.501961 0.501961 #0.000000
v 0.044434 4.223389 0.495361 0.501961 0.501961 0.501961 #0.000000
v 2.017334 1.559082 -0.421631 0.501961 0.501961 0.501961 #0.000000
v 2.017334 1.428955 -0.043457 0.501961 0.501961 0.501961 #0.000000
v 0.044434 4.223389 0.495361 0.501961 0.501961 0.501961 #0.000000
v 2.017334 1.428955 -0.043457 0.501961 0.501961 0.501961 #0.000000
v 0.044434 4.093262 0.873779 0.501961 0.501961 0.501961 #0.000000
v 2.051758 1.382324 -0.059570 0.501961 0.501961 0.501961 #0.000000
v 2.017334 1.428955 -0.043457 0.501961 0.501961 0.501961 #0.000000
v 2.017334 1.559082 -0.421631 0.501961 0.501961 0.501961 #0.000000
v 2.051758 1.382324 -0.059570 0.501961 0.501961 0.501961 #0.000000
v 2.017334 1.559082 -0.421631 0.501961 0.501961 0.501961 #0.000000
v 2.051758 1.512695 -0.437744 0.501961 0.501961 0.501961 #0.000000
v 0.060791 4.091064 0.915283 0.501961 0.501961 0.501961 #0.000000
v 0.077148 4.111572 0.890625 0.501961 0.501961 0.501961 #0.000000
v 0.042725 4.158203 0.906494 0.501961 0.501961 0.501961 #0.000000
v 0.060791 4.091064 0.915283 0.501961 0.501961 0.501961 #0.000000
v 0.042725 4.158203 0.906494 0.501961 0.501961 0.501961 #0.000000
v 0.026367 4.137451 0.931152 0.501961 0.501961 0.501961 #0.000000
v 0.042725 4.294922 0.509521 0.501961 0.501961 0.501961 #0.000000
v 0.077148 4.248291 0.493408 0.501961 0.501961 0.501961 #0.000000
v 0.060791 4.247314 0.461426 0.501961 0.501961 0.501961 #0.000000
v 0.042725 4.294922 0.509521 0.501961 0.501961 0.501961 #0.000000
v 0.060791 4.247314 0.461426 0.501961 0.501961 0.501961 #0.000000
v 0.026367 4.293701 0.477295 0.501961 0.501961 0.501961 #0.000000
v 2.084717 1.400879 -0.042480 0.501961 0.501961 0.501961 #0.000000
v 2.050293 1.447266 -0.026611 0.501961 0.501961 0.501961 #0.000000
v 2.033936 1.426758 -0.001953 0.501961 0.501961 0.501961 #0.000000
v 2.084717 1.400879 -0.042480 0.501961 0.501961 0.501961 #0.000000
v 2.033936 1.426758 -0.001953 0.501961 0.501961 0.501961 #0.000000
v 2.068115 1.380127 -0.018066 0.501961 0.501961 0.501961 #0.000000
v 2.068115 1.536377 -0.471680 0.501961 0.501961 0.501961 #0.000000
v 2.033936 1.583008 -0.455811 0.501961 0.501961 0.501961 #0.000000
v 2.050293 1.583984 -0.423584 0.501961 0.501961 0.501961 #0.000000
v 2.068115 1.536377 -0.471680 0.501961 0.501961 0.501961 #0.000000
v 2.050293 1.583984 -0.423584 0.501961 0.501961 0.501961 #0.000000
v 2.084717 1.537598 -0.439697 0.501961 0.501961 0.501961 #0.000000
v -2.019775 2.726562 0.403076 0.501961 0.501961 0.501961 #0.000000
v -2.031250 2.741943 0.408447 0.501961 0.501961 0.501961 #0.000000
v -2.021240 2.794678 0.426514 0.501961 0.501961 0.501961 #0.000000
v -2.019775 2.726562 0.403076 0.501961 0.501961 0.501961 #0.000000
v -2.021240 2.794678 0.426514 0.501961 0.501961 0.501961 #0.000000
v -2.004883 2.805664 0.430176 0.501961 0.501961 0.501961 #0.000000
v -2.019775 2.726562 0.403076 0.501961 0.501961 0.501961 #0.000000
v -2.004883 2.805664 0.430176 0.501961 0.501961 0.501961 #0.000000
v -1.896729 2.807861 0.431152 0.501961 0.501961 0.501961 #0.000000
v 0.044434 4.093262 0.873779 0.501961 0.501961 0.501961 #0.000000
v -1.896729 2.807861 0.431152 0.501961 0.501961 0.501961 #0.000000
v -2.004883 2.805664 0.430176 0.501961 0.501961 0.501961 #0.000000
v 0.044434 4.093262 0.873779 0.501961 0.501961 0.501961 #0.000000
v -2.004883 2.805664 0.430176 0.501961 0.501961 0.501961 #0.000000
v 0.010010 4.139648 0.889648 0.501961 0.501961 0.501961 #0.000000
v -2.004883 2.792480 0.468018 0.501961 0.501961 0.501961 #0.000000
v -2.021240 2.781738 0.464355 0.501961 0.501961 0.501961 #0.000000
v -2.031250 2.729004 0.446289 0.501961 0.501961 0.501961 #0.000000
v -2.004883 2.792480 0.468018 0.501961 0.501961 0.501961 #0.000000
v -2.031250 2.729004 0.446289 0.501961 0.501961 0.501961 #0.000000
v -2.019775 2.713623 0.440918 0.501961 0.501961 0.501961 #0.000000
v -2.004883 2.792480 0.468018 0.501961 0.501961 0.501961 #0.000000
v -2.019775 2.713623 0.440918 0.501961 0.501961 0.501961 #0.000000
v -1.970459 2.746094 0.452148 0.501961 0.501961 0.501961 #0.000000
v 0.026367 4.137451 0.931152 0.501961 0.501961 0.501961 #0.000000
v -2.004883 2.792480 0.468018 0.501961 0.501961 0.501961 #0.000000
v -1.970459 2.746094 0.452148 0.501961 0.501961 0.501961 #0.000000
v 0.026367 4.137451 0.931152 0.501961 0.501961 0.501961 #0.000000
v -1.970459 2.746094 0.452148 0.501961 0.501961 0.501961 #0.000000
v 0.060791 4.091064 0.915283 0.501961 0.501961 0.501961 #0.000000
v -2.004883 2.935791 0.052002 0.501961 0.501961 0.501961 #0.000000
v -2.021240 2.925049 0.048340 0.501961 0.501961 0.501961 #0.000000
v -2.031250 2.872314 0.030273 0.501961 0.501961 0.501961 #0.000000
v -2.004883 2.935791 0.052002 0.501961 0.501961 0.501961 #0.000000
v -2.031250 2.872314 0.030273 0.501961 0.501961 0.501961 #0.000000
v -2.019775 2.856689 0.024902 0.501961 0.501961 0.501961 #0.000000
v -2.004883 2.935791 0.052002 0.501961 0.501961 0.501961 #0.000000
v -2.019775 2.856689 0.024902 0.501961 0.501961 0.501961 #0.000000
v -1.896729 2.938232 0.052979 0.501961 0.501961 0.501961 #0.000000
v -1.896729 2.938232 0.052979 0.501961 0.501961 0.501961 #0.000000
v 0.044434 4.223389 0.495361 0.501961 0.501961 0.501961 #0.000000
v 0.010010 4.270020 0.511475 0.501961 0.501961 0.501961 #0.000000
v -1.896729 2.938232 0.052979 0.501961 0.501961 0.501961 #0.000000
v 0.010010 4.270020 0.511475 0.501961 0.501961 0.501961 #0.000000
v -2.004883 2.935791 0.052002 0.501961 0.501961 0.501961 #0.000000
v -2.019775 2.869873 -0.012695 0.501961 0.501961 0.501961 #0.000000
v -2.031250 2.885254 -0.007324 0.501961 0.501961 0.501961 #0.000000
v -2.021240 2.937988 0.010498 0.501961 0.501961 0.501961 #0.000000
v -2.019775 2.869873 -0.012695 0.501961 0.501961 0.501961 #0.000000
v -2.021240 2.937988 0.010498 0.501961 0.501961 0.501961 #0.000000
v -2.004883 2.948730 0.014160 0.501961 0.501961 0.501961 #0.000000
v -2.019775 2.869873 -0.012695 0.501961 0.501961 0.501961 #0.000000
v -2.004883 2.948730 0.014160 0.501961 0.501961 0.501961 #0.000000
v -1.970459 2.902344 -0.001465 0.501961 0.501961 0.501961 #0.000000
v 0.060791 4.247314 0.461426 0.501961 0.501961 0.501961 #0.000000
v -1.970459 2.902344 -0.001465 0.501961 0.501961 0.501961 #0.000000
v -2.004883 2.948730 0.014160 0.501961 0.501961 0.501961 #0.000000
v 0.060791 4.247314 0.461426 0.501961 0.501961 0.501961 #0.000000
v -2.004883 2.948730 0.014160 0.501961 0.501961 0.501961 #0.000000
v 0.026367 4.293701 0.477295 0.501961 0.501961 0.501961 #0.000000
v 0.036621 0.048340 -0.518799 0.501961 0.501961 0.501961 #0.000000
v 0.020264 0.037354 -0.522705 0.501961 0.501961 0.501961 #0.000000
v -0.035156 0.046631 -0.519531 0.501961 0.501961 0.501961 #0.000000
v 0.036621 0.048340 -0.518799 0.501961 0.501961 0.501961 #0.000000
v -0.035156 0.046631 -0.519531 0.501961 0.501961 0.501961 #0.000000
v -0.046631 0.062256 -0.514160 0.501961 0.501961 0.501961 #0.000000
v 0.036621 0.048340 -0.518799 0.501961 0.501961 0.501961 #0.000000
v -0.046631 0.062256 -0.514160 0.501961 0.501961 0.501961 #0.000000
v 0.075928 0.143555 -0.486084 0.501961 0.501961 0.501961 #0.000000
v 2.051758 1.382324 -0.059570 0.501961 0.501961 0.501961 #0.000000
v 0.036621 0.048340 -0.518799 0.501961 0.501961 0.501961 #0.000000
v 0.075928 0.143555 -0.486084 0.501961 0.501961 0.501961 #0.000000
v 2.051758 1.382324 -0.059570 0.501961 0.501961 0.501961 #0.000000
v 0.075928 0.143555 -0.486084 0.501961 0.501961 0.501961 #0.000000
v 2.017334 1.428955 -0.043457 0.501961 0.501961 0.501961 #0.000000
v 0.075928 0.143555 -0.486084 0.501961 0.501961 0.501961 #0.000000
v -1.896729 2.807861 0.431152 0.501961 0.501961 0.501961 #0.000000
v 0.044434 4.093262 0.873779 0.501961 0.501961 0.501961 #0.000000
v 0.075928 0.143555 -0.486084 0.501961 0.501961 0.501961 #0.000000
v 0.044434 4.093262 0.873779 0.501961 0.501961 0.501961 #0.000000
v 2.017334 1.428955 -0.043457 0.501961 0.501961 0.501961 #0.000000
v -2.019775 2.726562 0.403076 0.501961 0.501961 0.501961 #0.000000
v -1.896729 2.807861 0.431152 0.501961 0.501961 0.501961 #0.000000
v 0.075928 0.143555 -0.486084 0.501961 0.501961 0.501961 #0.000000
v -2.019775 2.726562 0.403076 0.501961 0.501961 0.501961 #0.000000
v 0.075928 0.143555 -0.486084 0.501961 0.501961 0.501961 #0.000000
v -0.046631 0.062256 -0.514160 0.501961 0.501961 0.501961 #0.000000
v -0.046631 0.049072 -0.476318 0.501961 0.501961 0.501961 #0.000000
v -0.035156 0.033691 -0.481689 0.501961 0.501961 0.501961 #0.000000
v 0.020264 0.024414 -0.484863 0.501961 0.501961 0.501961 #0.000000
v -0.046631 0.049072 -0.476318 0.501961 0.501961 0.501961 #0.000000
v 0.020264 0.024414 -0.484863 0.501961 0.501961 0.501961 #0.000000
v 0.036621 0.035156 -0.480957 0.501961 0.501961 0.501961 #0.000000
v -0.046631 0.049072 -0.476318 0.501961 0.501961 0.501961 #0.000000
v 0.036621 0.035156 -0.480957 0.501961 0.501961 0.501961 #0.000000
v 0.002197 0.081787 -0.465088 0.501961 0.501961 0.501961 #0.000000
v 2.033936 1.426758 -0.001953 0.501961 0.501961 0.501961 #0.000000
v 0.002197 0.081787 -0.465088 0.501961 0.501961 0.501961 #0.000000
v 0.036621 0.035156 -0.480957 0.501961 0.501961 0.501961 #0.000000
v 2.033936 1.426758 -0.001953 0.501961 0.501961 0.501961 #0.000000
v 0.036621 0.035156 -0.480957 0.501961 0.501961 0.501961 #0.000000
v 2.068115 1.380127 -0.018066 0.501961 0.501961 0.501961 #0.000000
v 0.002197 0.081787 -0.465088 0.501961 0.501961 0.501961 #0.000000
v -1.970459 2.746094 0.452148 0.501961 0.501961 0.501961 #0.000000
v -2.019775 2.713623 0.440918 0.501961 0.501961 0.501961 #0.000000
v 0.002197 0.081787 -0.465088 0.501961 0.501961 0.501961 #0.000000
v -2.019775 2.713623 0.440918 0.501961 0.501961 0.501961 #0.000000
v -0.046631 0.049072 -0.476318 0.501961 0.501961 0.501961 #0.000000
v -0.046631 0.192383 -0.892334 0.501961 0.501961 0.501961 #0.000000
v -0.035156 0.177002 -0.897705 0.501961 0.501961 0.501961 #0.000000
v 0.020264 0.167725 -0.900879 0.501961 0.501961 0.501961 #0.000000
v -0.046631 0.192383 -0.892334 0.501961 0.501961 0.501961 #0.000000
v 0.020264 0.167725 -0.900879 0.501961 0.501961 0.501961 #0.000000
v 0.036621 0.178467 -0.896973 0.501961 0.501961 0.501961 #0.000000
v -0.046631 0.192383 -0.892334 0.501961 0.501961 0.501961 #0.000000
v 0.036621 0.178467 -0.896973 0.501961 0.501961 0.501961 #0.000000
v 0.075928 0.273682 -0.864258 0.501961 0.501961 0.501961 #0.000000
v 2.017334 1.559082 -0.421631 0.501961 0.501961 0.501961 #0.000000
v 0.075928 0.273682 -0.864258 0.501961 0.501961 0.501961 #0.000000
v 0.036621 0.178467 -0.896973 0.501961 0.501961 0.501961 #0.000000
v 2.017334 1.559082 -0.421631 0.501961 0.501961 0.501961 #0.000000
v 0.036621 0.178467 -0.896973 0.501961 0.501961 0.501961 #0.000000
v 2.051758 1.512695 -0.437744 0.501961 0.501961 0.501961 #0.000000
v 0.075928 0.273682 -0.864258 0.501961 0.501961 0.501961 #0.000000
v -1.896729 2.938232 0.052979 0.501961 0.501961 0.501961 #0.000000
v -2.019775 2.856689 0.024902 0.501961 0.501961 0.501961 #0.000000
v 0.075928 0.273682 -0.864258 0.501961 0.501961 0.501961 #0.000000
v -2.019775 2.856689 0.024902 0.501961 0.501961 0.501961 #0.000000
v -0.046631 0.192383 -0.892334 0.501961 0.501961 0.501961 #0.000000
v 0.044434 4.223389 0.495361 0.501961 0.501961 0.501961 #0.000000
v -1.896729 2.938232 0.052979 0.501961 0.501961 0.501961 #0.000000
v 0.075928 0.273682 -0.864258 0.501961 0.501961 0.501961 #0.000000
v 0.044434 4.223389 0.495361 0.501961 0.501961 0.501961 #0.000000
v 0.075928 0.273682 -0.864258 0.501961 0.501961 0.501961 #0.000000
v 2.017334 1.559082 -0.421631 0.501961 0.501961 0.501961 #0.000000
v 0.036621 0.191406 -0.934814 0.501961 0.501961 0.501961 #0.000000
v 0.020264 0.180664 -0.938721 0.501961 0.501961 0.501961 #0.000000
v -0.035156 0.189941 -0.935547 0.501961 0.501961 0.501961 #0.000000
v 0.036621 0.191406 -0.934814 0.501961 0.501961 0.501961 #0.000000
v -0.035156 0.189941 -0.935547 0.501961 0.501961 0.501961 #0.000000
v -0.046631 0.205566 -0.930176 0.501961 0.501961 0.501961 #0.000000
v 0.036621 0.191406 -0.934814 0.501961 0.501961 0.501961 #0.000000
v -0.046631 0.205566 -0.930176 0.501961 0.501961 0.501961 #0.000000
v 0.002197 0.238037 -0.918945 0.501961 0.501961 0.501961 #0.000000
v 2.068115 1.536377 -0.471680 0.501961 0.501961 0.501961 #0.000000
v 0.036621 0.191406 -0.934814 0.501961 0.501961 0.501961 #0.000000
v 0.002197 0.238037 -0.918945 0.501961 0.501961 0.501961 #0.000000
v 2.068115 1.536377 -0.471680 0.501961 0.501961 0.501961 #0.000000
v 0.002197 0.238037 -0.918945 0.501961 0.501961 0.501961 #0.000000
v 2.033936 1.583008 -0.455811 0.501961 0.501961 0.501961 #0.000000
v -2.019775 2.869873 -0.012695 0.501961 0.501961 0.501961 #0.000000
v -1.970459 2.902344 -0.001465 0.501961 0.501961 0.501961 #0.000000
v 0.002197 0.238037 -0.918945 0.501961 0.501961 0.501961 #0.000000
v -2.019775 2.869873 -0.012695 0.501961 0.501961 0.501961 #0.000000
v 0.002197 0.238037 -0.918945 0.501961 0.501961 0.501961 #0.000000
v -0.046631 0.205566 -0.930176 0.501961 0.501961 0.501961 #0.000000
v -2.031250 2.729004 0.446289 0.501961 0.501961 0.501961 #0.000000
v -2.021240 2.781738 0.464355 0.501961 0.501961 0.501961 #0.000000
v -2.021240 2.794678 0.426514 0.501961 0.501961 0.501961 #0.000000
v -2.031250 2.729004 0.446289 0.501961 0.501961 0.501961 #0.000000
v -2.021240 2.794678 0.426514 0.501961 0.501961 0.501961 #0.000000
v -2.031250 2.741943 0.408447 0.501961 0.501961 0.501961 #0.000000
v -2.031250 2.872314 0.030273 0.501961 0.501961 0.501961 #0.000000
v -2.021240 2.925049 0.048340 0.501961 0.501961 0.501961 #0.000000
v -2.021240 2.937988 0.010498 0.501961 0.501961 0.501961 #0.000000
v -2.031250 2.872314 0.030273 0.501961 0.501961 0.501961 #0.000000
v -2.021240 2.937988 0.010498 0.501961 0.501961 0.501961 #0.000000
v -2.031250 2.885254 -0.007324 0.501961 0.501961 0.501961 #0.000000
v -2.021240 2.781738 0.464355 0.501961 0.501961 0.501961 #0.000000
v -2.004883 2.792480 0.468018 0.501961 0.501961 0.501961 #0.000000
v -2.004883 2.805664 0.430176 0.501961 0.501961 0.501961 #0.000000
v -2.021240 2.781738 0.464355 0.501961 0.501961 0.501961 #0.000000
v -2.004883 2.805664 0.430176 0.501961 0.501961 0.501961 #0.000000
v -2.021240 2.794678 0.426514 0.501961 0.501961 0.501961 #0.000000
v 0.010010 4.139648 0.889648 0.501961 0.501961 0.501961 #0.000000
v -2.004883 2.805664 0.430176 0.501961 0.501961 0.501961 #0.000000
v -2.004883 2.792480 0.468018 0.501961 0.501961 0.501961 #0.000000
v 0.010010 4.139648 0.889648 0.501961 0.501961 0.501961 #0.000000
v -2.004883 2.792480 0.468018 0.501961 0.501961 0.501961 #0.000000
v 0.026367 4.137451 0.931152 0.501961 0.501961 0.501961 #0.000000
v -2.004883 2.935791 0.052002 0.501961 0.501961 0.501961 #0.000000
v 0.010010 4.270020 0.511475 0.501961 0.501961 0.501961 #0.000000
v 0.026367 4.293701 0.477295 0.501961 0.501961 0.501961 #0.000000
v -2.004883 2.935791 0.052002 0.501961 0.501961 0.501961 #0.000000
v 0.026367 4.293701 0.477295 0.501961 0.501961 0.501961 #0.000000
v -2.004883 2.948730 0.014160 0.501961 0.501961 0.501961 #0.000000
v -2.021240 2.925049 0.048340 0.501961 0.501961 0.501961 #0.000000
v -2.004883 2.935791 0.052002 0.501961 0.501961 0.501961 #0.000000
v -2.004883 2.948730 0.014160 0.501961 0.501961 0.501961 #0.000000
v -2.021240 2.925049 0.048340 0.501961 0.501961 0.501961 #0.000000
v -2.004883 2.948730 0.014160 0.501961 0.501961 0.501961 #0.000000
v -2.021240 2.937988 0.010498 0.501961 0.501961 0.501961 #0.000000
v -0.035156 0.046631 -0.519531 0.501961 0.501961 0.501961 #0.000000
v 0.020264 0.037354 -0.522705 0.501961 0.501961 0.501961 #0.000000
v 0.020264 0.024414 -0.484863 0.501961 0.501961 0.501961 #0.000000
v -0.035156 0.046631 -0.519531 0.501961 0.501961 0.501961 #0.000000
v 0.020264 0.024414 -0.484863 0.501961 0.501961 0.501961 #0.000000
v -0.035156 0.033691 -0.481689 0.501961 0.501961 0.501961 #0.000000
v -0.035156 0.189941 -0.935547 0.501961 0.501961 0.501961 #0.000000
v 0.020264 0.180664 -0.938721 0.501961 0.501961 0.501961 #0.000000
v 0.020264 0.167725 -0.900879 0.501961 0.501961 0.501961 #0.000000
v -0.035156 0.189941 -0.935547 0.501961 0.501961 0.501961 #0.000000
v 0.020264 0.167725 -0.900879 0.501961 0.501961 0.501961 #0.000000
v -0.035156 0.177002 -0.897705 0.501961 0.501961 0.501961 #0.000000
v 0.036621 0.048340 -0.518799 0.501961 0.501961 0.501961 #0.000000
v 2.051758 1.382324 -0.059570 0.501961 0.501961 0.501961 #0.000000
v 2.068115 1.380127 -0.018066 0.501961 0.501961 0.501961 #0.000000
v 0.036621 0.048340 -0.518799 0.501961 0.501961 0.501961 #0.000000
v 2.068115 1.380127 -0.018066 0.501961 0.501961 0.501961 #0.000000
v 0.036621 0.035156 -0.480957 0.501961 0.501961 0.501961 #0.000000
v 0.020264 0.037354 -0.522705 0.501961 0.501961 0.501961 #0.000000
v 0.036621 0.048340 -0.518799 0.501961 0.501961 0.501961 #0.000000
v 0.036621 0.035156 -0.480957 0.501961 0.501961 0.501961 #0.000000
v 0.020264 0.037354 -0.522705 0.501961 0.501961 0.501961 #0.000000
v 0.036621 0.035156 -0.480957 0.501961 0.501961 0.501961 #0.000000
v 0.020264 0.024414 -0.484863 0.501961 0.501961 0.501961 #0.000000
v 0.020264 0.180664 -0.938721 0.501961 0.501961 0.501961 #0.000000
v 0.036621 0.191406 -0.934814 0.501961 0.501961 0.501961 #0.000000
v 0.036621 0.178467 -0.896973 0.501961 0.501961 0.501961 #0.000000
v 0.020264 0.180664 -0.938721 0.501961 0.501961 0.501961 #0.000000
v 0.036621 0.178467 -0.896973 0.501961 0.501961 0.501961 #0.000000
v 0.020264 0.167725 -0.900879 0.501961 0.501961 0.501961 #0.000000
v 2.051758 1.512695 -0.437744 0.501961 0.501961 0.501961 #0.000000
v 0.036621 0.178467 -0.896973 0.501961 0.501961 0.501961 #0.000000
v 0.036621 0.191406 -0.934814 0.501961 0.501961 0.501961 #0.000000
v 2.051758 1.512695 -0.437744 0.501961 0.501961 0.501961 #0.000000
v 0.036621 0.191406 -0.934814 0.501961 0.501961 0.501961 #0.000000
v 2.068115 1.536377 -0.471680 0.501961 0.501961 0.501961 #0.000000
v -2.031250 2.741943 0.408447 0.501961 0.501961 0.501961 #0.000000
v -2.019775 2.726562 0.403076 0.501961 0.501961 0.501961 #0.000000
v -2.019775 2.713623 0.440918 0.501961 0.501961 0.501961 #0.000000
v -2.031250 2.741943 0.408447 0.501961 0.501961 0.501961 #0.000000
v -2.019775 2.713623 0.440918 0.501961 0.501961 0.501961 #0.000000
v -2.031250 2.729004 0.446289 0.501961 0.501961 0.501961 #0.000000
v -2.019775 2.869873 -0.012695 0.501961 0.501961 0.501961 #0.000000
v -2.019775 2.856689 0.024902 0.501961 0.501961 0.501961 #0.000000
v -2.031250 2.872314 0.030273 0.501961 0.501961 0.501961 #0.000000
v -2.019775 2.869873 -0.012695 0.501961 0.501961 0.501961 #0.000000
v -2.031250 2.872314 0.030273 0.501961 0.501961 0.501961 #0.000000
v -2.031250 2.885254 -0.007324 0.501961 0.501961 0.501961 #0.000000
v -2.019775 2.726562 0.403076 0.501961 0.501961 0.501961 #0.000000
v -0.046631 0.062256 -0.514160 0.501961 0.501961 0.501961 #0.000000
v -0.046631 0.049072 -0.476318 0.501961 0.501961 0.501961 #0.000000
v -2.019775 2.726562 0.403076 0.501961 0.501961 0.501961 #0.000000
v -0.046631 0.049072 -0.476318 0.501961 0.501961 0.501961 #0.000000
v -2.019775 2.713623 0.440918 0.501961 0.501961 0.501961 #0.000000
v -0.035156 0.033691 -0.481689 0.501961 0.501961 0.501961 #0.000000
v -0.046631 0.049072 -0.476318 0.501961 0.501961 0.501961 #0.000000
v -0.046631 0.062256 -0.514160 0.501961 0.501961 0.501961 #0.000000
v -0.035156 0.033691 -0.481689 0.501961 0.501961 0.501961 #0.000000
v -0.046631 0.062256 -0.514160 0.501961 0.501961 0.501961 #0.000000
v -0.035156 0.046631 -0.519531 0.501961 0.501961 0.501961 #0.000000
v -2.019775 2.869873 -0.012695 0.501961 0.501961 0.501961 #0.000000
v -0.046631 0.205566 -0.930176 0.501961 0.501961 0.501961 #0.000000
v -0.046631 0.192383 -0.892334 0.501961 0.501961 0.501961 #0.000000
v -2.019775 2.869873 -0.012695 0.501961 0.501961 0.501961 #0.000000
v -0.046631 0.192383 -0.892334 0.501961 0.501961 0.501961 #0.000000
v -2.019775 2.856689 0.024902 0.501961 0.501961 0.501961 #0.000000
v -0.035156 0.177002 -0.897705 0.501961 0.501961 0.501961 #0.000000
v -0.046631 0.192383 -0.892334 0.501961 0.501961 0.501961 #0.000000
v -0.046631 0.205566 -0.930176 0.501961 0.501961 0.501961 #0.000000
v -0.035156 0.177002 -0.897705 0.501961 0.501961 0.501961 #0.000000
v -0.046631 0.205566 -0.930176 0.501961 0.501961 0.501961 #0.000000
v -0.035156 0.189941 -0.935547 0.501961 0.501961 0.501961 #0.000000
v 0.042725 4.294922 0.509521 0.501961 0.501961 0.501961 #0.000000
v 0.042725 4.158203 0.906494 0.501961 0.501961 0.501961 #0.000000
v 0.077148 4.111572 0.890625 0.501961 0.501961 0.501961 #0.000000
v 0.042725 4.294922 0.509521 0.501961 0.501961 0.501961 #0.000000
v 0.077148 4.111572 0.890625 0.501961 0.501961 0.501961 #0.000000
v 0.077148 4.248291 0.493408 0.501961 0.501961 0.501961 #0.000000
v 2.050293 1.447266 -0.026611 0.501961 0.501961 0.501961 #0.000000
v 2.084717 1.400879 -0.042480 0.501961 0.501961 0.501961 #0.000000
v 2.084717 1.537598 -0.439697 0.501961 0.501961 0.501961 #0.000000
v 2.050293 1.447266 -0.026611 0.501961 0.501961 0.501961 #0.000000
v 2.084717 1.537598 -0.439697 0.501961 0.501961 0.501961 #0.000000
v 2.050293 1.583984 -0.423584 0.501961 0.501961 0.501961 #0.000000
v 0.010010 4.270020 0.511475 0.501961 0.501961 0.501961 #0.000000
v 0.010010 4.139648 0.889648 0.501961 0.501961 0.501961 #0.000000
v 0.042725 4.158203 0.906494 0.501961 0.501961 0.501961 #0.000000
v 0.010010 4.270020 0.511475 0.501961 0.501961 0.501961 #0.000000
v 0.042725 4.158203 0.906494 0.501961 0.501961 0.501961 #0.000000
v 0.042725 4.294922 0.509521 0.501961 0.501961 0.501961 #0.000000
v 2.084717 1.400879 -0.042480 0.501961 0.501961 0.501961 #0.000000
v 2.051758 1.382324 -0.059570 0.501961 0.501961 0.501961 #0.000000
v 2.051758 1.512695 -0.437744 0.501961 0.501961 0.501961 #0.000000
v 2.084717 1.400879 -0.042480 0.501961 0.501961 0.501961 #0.000000
v 2.051758 1.512695 -0.437744 0.501961 0.501961 0.501961 #0.000000
v 2.084717 1.537598 -0.439697 0.501961 0.501961 0.501961 #0.000000
v 0.093506 4.158203 0.790283 0.501961 0.501961 0.501961 #0.000000
v 0.093506 4.223389 0.601318 0.501961 0.501961 0.501961 #0.000000
v 0.077148 4.248291 0.493408 0.501961 0.501961 0.501961 #0.000000
v 0.093506 4.158203 0.790283 0.501961 0.501961 0.501961 #0.000000
v 0.077148 4.248291 0.493408 0.501961 0.501961 0.501961 #0.000000
v 0.077148 4.111572 0.890625 0.501961 0.501961 0.501961 #0.000000
v 2.066650 1.559082 -0.315918 0.501961 0.501961 0.501961 #0.000000
v 2.066650 1.493896 -0.126953 0.501961 0.501961 0.501961 #0.000000
v 2.050293 1.447266 -0.026611 0.501961 0.501961 0.501961 #0.000000
v 2.066650 1.559082 -0.315918 0.501961 0.501961 0.501961 #0.000000
v 2.050293 1.447266 -0.026611 0.501961 0.501961 0.501961 #0.000000
v 2.050293 1.583984 -0.423584 0.501961 0.501961 0.501961 #0.000000
v 0.060791 4.091064 0.915283 0.501961 0.501961 0.501961 #0.000000
v 2.033936 1.426758 -0.001953 0.501961 0.501961 0.501961 #0.000000
v 2.050293 1.447266 -0.026611 0.501961 0.501961 0.501961 #0.000000
v 0.060791 4.091064 0.915283 0.501961 0.501961 0.501961 #0.000000
v 2.050293 1.447266 -0.026611 0.501961 0.501961 0.501961 #0.000000
v 0.077148 4.111572 0.890625 0.501961 0.501961 0.501961 #0.000000
v 2.050293 1.583984 -0.423584 0.501961 0.501961 0.501961 #0.000000
v 2.033936 1.583008 -0.455811 0.501961 0.501961 0.501961 #0.000000
v 0.060791 4.247314 0.461426 0.501961 0.501961 0.501961 #0.000000
v 2.050293 1.583984 -0.423584 0.501961 0.501961 0.501961 #0.000000
v 0.060791 4.247314 0.461426 0.501961 0.501961 0.501961 #0.000000
v 0.077148 4.248291 0.493408 0.501961 0.501961 0.501961 #0.000000
v 0.060791 4.091064 0.915283 0.501961 0.501961 0.501961 #0.000000
v -1.970459 2.746094 0.452148 0.501961 0.501961 0.501961 #0.000000
v 0.002197 0.081787 -0.465088 0.501961 0.501961 0.501961 #0.000000
v 0.060791 4.091064 0.915283 0.501961 0.501961 0.501961 #0.000000
v 0.002197 0.081787 -0.465088 0.501961 0.501961 0.501961 #0.000000
v 2.033936 1.426758 -0.001953 0.501961 0.501961 0.501961 #0.000000
v 0.002197 0.238037 -0.918945 0.501961 0.501961 0.501961 #0.000000
v -1.970459 2.902344 -0.001465 0.501961 0.501961 0.501961 #0.000000
v 0.060791 4.247314 0.461426 0.501961 0.501961 0.501961 #0.000000
v 0.002197 0.238037 -0.918945 0.501961 0.501961 0.501961 #0.000000
v 0.060791 4.247314 0.461426 0.501961 0.501961 0.501961 #0.000000
v 2.033936 1.583008 -0.455811 0.501961 0.501961 0.501961 #0.000000
v 0.077148 4.248291 0.493408 0.501961 0.501961 0.501961 #0.000000
v 0.093506 4.223389 0.601318 0.501961 0.501961 0.501961 #0.000000
v 2.066650 1.559082 -0.315918 0.501961 0.501961 0.501961 #0.000000
v 0.077148 4.248291 0.493408 0.501961 0.501961 0.501961 #0.000000
v 2.066650 1.559082 -0.315918 0.501961 0.501961 0.501961 #0.000000
v 2.050293 1.583984 -0.423584 0.501961 0.501961 0.501961 #0.000000
v 0.093506 4.158203 0.790283 0.501961 0.501961 0.501961 #0.000000
v 2.066650 1.493896 -0.126953 0.501961 0.501961 0.501961 #0.000000
v 2.066650 1.559082 -0.315918 0.501961 0.501961 0.501961 #0.000000
v 0.093506 4.158203 0.790283 0.501961 0.501961 0.501961 #0.000000
v 2.066650 1.559082 -0.315918 0.501961 0.501961 0.501961 #0.000000
v 0.093506 4.223389 0.601318 0.501961 0.501961 0.501961 #0.000000
v 2.050293 1.447266 -0.026611 0.501961 0.501961 0.501961 #0.000000
v 2.066650 1.493896 -0.126953 0.501961 0.501961 0.501961 #0.000000
v 0.093506 4.158203 0.790283 0.501961 0.501961 0.501961 #0.000000
v 2.050293 1.447266 -0.026611 0.501961 0.501961 0.501961 #0.000000
v 0.093506 4.158203 0.790283 0.501961 0.501961 0.501961 #0.000000
v 0.077148 4.111572 0.890625 0.501961 0.501961 0.501961 #0.000000
v 0.055908 4.142822 0.679199 0.501961 0.501961 0.501961 #0.000000
v -1.942627 2.819580 0.223633 0.501961 0.501961 0.501961 #0.000000
v -1.954102 2.828613 0.247803 0.501961 0.501961 0.501961 #0.000000
v 0.055908 4.142822 0.679199 0.501961 0.501961 0.501961 #0.000000
v -1.954102 2.828613 0.247803 0.501961 0.501961 0.501961 #0.000000
v 0.044434 4.151855 0.703369 0.501961 0.501961 0.501961 #0.000000
v -1.954102 2.828613 0.247803 0.501961 0.501961 0.501961 #0.000000
v -1.954102 2.770020 0.417969 0.501961 0.501961 0.501961 #0.000000
v 0.044434 4.093262 0.873779 0.501961 0.501961 0.501961 #0.000000
v -1.954102 2.828613 0.247803 0.501961 0.501961 0.501961 #0.000000
v 0.044434 4.093262 0.873779 0.501961 0.501961 0.501961 #0.000000
v 0.044434 4.151855 0.703369 0.501961 0.501961 0.501961 #0.000000
v 2.017334 1.487549 -0.213623 0.501961 0.501961 0.501961 #0.000000
v 0.018799 0.164307 -0.669434 0.501961 0.501961 0.501961 #0.000000
v 0.007324 0.186279 -0.682861 0.501961 0.501961 0.501961 #0.000000
v 2.017334 1.487549 -0.213623 0.501961 0.501961 0.501961 #0.000000
v 0.007324 0.186279 -0.682861 0.501961 0.501961 0.501961 #0.000000
v 2.005859 1.509521 -0.227295 0.501961 0.501961 0.501961 #0.000000
v 2.017334 1.428955 -0.043457 0.501961 0.501961 0.501961 #0.000000
v 0.018799 0.105469 -0.499023 0.501961 0.501961 0.501961 #0.000000
v 0.018799 0.164307 -0.669434 0.501961 0.501961 0.501961 #0.000000
v 2.017334 1.428955 -0.043457 0.501961 0.501961 0.501961 #0.000000
v 0.018799 0.164307 -0.669434 0.501961 0.501961 0.501961 #0.000000
v 2.017334 1.487549 -0.213623 0.501961 0.501961 0.501961 #0.000000
v -1.954102 2.841553 0.209961 0.501961 0.501961 0.501961 #0.000000
v -1.942627 2.819580 0.223633 0.501961 0.501961 0.501961 #0.000000
v 0.055908 4.142822 0.679199 0.501961 0.501961 0.501961 #0.000000
v -1.954102 2.841553 0.209961 0.501961 0.501961 0.501961 #0.000000
v 0.055908 4.142822 0.679199 0.501961 0.501961 0.501961 #0.000000
v 0.044434 4.164795 0.665771 0.501961 0.501961 0.501961 #0.000000
v 0.044434 4.223389 0.495361 0.501961 0.501961 0.501961 #0.000000
v -1.954102 2.900146 0.039795 0.501961 0.501961 0.501961 #0.000000
v -1.954102 2.841553 0.209961 0.501961 0.501961 0.501961 #0.000000
v 0.044434 4.223389 0.495361 0.501961 0.501961 0.501961 #0.000000
v -1.954102 2.841553 0.209961 0.501961 0.501961 0.501961 #0.000000
v 0.044434 4.164795 0.665771 0.501961 0.501961 0.501961 #0.000000
v 2.005859 1.509521 -0.227295 0.501961 0.501961 0.501961 #0.000000
v 0.007324 0.186279 -0.682861 0.501961 0.501961 0.501961 #0.000000
v 0.018799 0.177246 -0.707275 0.501961 0.501961 0.501961 #0.000000
v 2.005859 1.509521 -0.227295 0.501961 0.501961 0.501961 #0.000000
v 0.018799 0.177246 -0.707275 0.501961 0.501961 0.501961 #0.000000
v 2.017334 1.500488 -0.251465 0.501961 0.501961 0.501961 #0.000000
v 0.018799 0.177246 -0.707275 0.501961 0.501961 0.501961 #0.000000
v 0.018799 0.235840 -0.877441 0.501961 0.501961 0.501961 #0.000000
v 2.017334 1.559082 -0.421631 0.501961 0.501961 0.501961 #0.000000
v 0.018799 0.177246 -0.707275 0.501961 0.501961 0.501961 #0.000000
v 2.017334 1.559082 -0.421631 0.501961 0.501961 0.501961 #0.000000
v 2.017334 1.500488 -0.251465 0.501961 0.501961 0.501961 #0.000000
v -1.958984 2.743652 0.408936 0.501961 0.501961 0.501961 #0.000000
v -1.958984 2.802246 0.238770 0.501961 0.501961 0.501961 #0.000000
v -0.008789 0.168945 -0.667725 0.501961 0.501961 0.501961 #0.000000
v -1.958984 2.743652 0.408936 0.501961 0.501961 0.501961 #0.000000
v -0.008789 0.168945 -0.667725 0.501961 0.501961 0.501961 #0.000000
v -0.008789 0.110352 -0.497559 0.501961 0.501961 0.501961 #0.000000
v -1.958984 2.743652 0.408936 0.501961 0.501961 0.501961 #0.000000
v -1.954102 2.770020 0.417969 0.501961 0.501961 0.501961 #0.000000
v -1.954102 2.828613 0.247803 0.501961 0.501961 0.501961 #0.000000
v -1.958984 2.743652 0.408936 0.501961 0.501961 0.501961 #0.000000
v -1.954102 2.828613 0.247803 0.501961 0.501961 0.501961 #0.000000
v -1.958984 2.802246 0.238770 0.501961 0.501961 0.501961 #0.000000
v -1.942627 2.819580 0.223633 0.501961 0.501961 0.501961 #0.000000
v 0.007324 0.186279 -0.682861 0.501961 0.501961 0.501961 #0.000000
v -0.008789 0.168945 -0.667725 0.501961 0.501961 0.501961 #0.000000
v -1.942627 2.819580 0.223633 0.501961 0.501961 0.501961 #0.000000
v -0.008789 0.168945 -0.667725 0.501961 0.501961 0.501961 #0.000000
v -1.958984 2.802246 0.238770 0.501961 0.501961 0.501961 #0.000000
v 0.018799 0.164307 -0.669434 0.501961 0.501961 0.501961 #0.000000
v 0.018799 0.105469 -0.499023 0.501961 0.501961 0.501961 #0.000000
v -0.008789 0.110352 -0.497559 0.501961 0.501961 0.501961 #0.000000
v 0.018799 0.164307 -0.669434 0.501961 0.501961 0.501961 #0.000000
v -0.008789 0.110352 -0.497559 0.501961 0.501961 0.501961 #0.000000
v -0.008789 0.168945 -0.667725 0.501961 0.501961 0.501961 #0.000000
v -1.942627 2.819580 0.223633 0.501961 0.501961 0.501961 #0.000000
v -1.958984 2.815186 0.200928 0.501961 0.501961 0.501961 #0.000000
v -0.008789 0.181885 -0.705566 0.501961 0.501961 0.501961 #0.000000
v -1.942627 2.819580 0.223633 0.501961 0.501961 0.501961 #0.000000
v -0.008789 0.181885 -0.705566 0.501961 0.501961 0.501961 #0.000000
v 0.007324 0.186279 -0.682861 0.501961 0.501961 0.501961 #0.000000
v -0.008789 0.240479 -0.875732 0.501961 0.501961 0.501961 #0.000000
v -0.008789 0.181885 -0.705566 0.501961 0.501961 0.501961 #0.000000
v -1.958984 2.815186 0.200928 0.501961 0.501961 0.501961 #0.000000
v -0.008789 0.240479 -0.875732 0.501961 0.501961 0.501961 #0.000000
v -1.958984 2.815186 0.200928 0.501961 0.501961 0.501961 #0.000000
v -1.958984 2.873779 0.030762 0.501961 0.501961 0.501961 #0.000000
v -1.954102 2.841553 0.209961 0.501961 0.501961 0.501961 #0.000000
v -1.954102 2.900146 0.039795 0.501961 0.501961 0.501961 #0.000000
v -1.958984 2.873779 0.030762 0.501961 0.501961 0.501961 #0.000000
v -1.954102 2.841553 0.209961 0.501961 0.501961 0.501961 #0.000000
v -1.958984 2.873779 0.030762 0.501961 0.501961 0.501961 #0.000000
v -1.958984 2.815186 0.200928 0.501961 0.501961 0.501961 #0.000000
v -0.008789 0.240479 -0.875732 0.501961 0.501961 0.501961 #0.000000
v 0.018799 0.235840 -0.877441 0.501961 0.501961 0.501961 #0.000000
v 0.018799 0.177246 -0.707275 0.501961 0.501961 0.501961 #0.000000
v -0.008789 0.240479 -0.875732 0.501961 0.501961 0.501961 #0.000000
v 0.018799 0.177246 -0.707275 0.501961 0.501961 0.501961 #0.000000
v -0.008789 0.181885 -0.705566 0.501961 0.501961 0.501961 #0.000000
vt 0.455078 0.994629 0.000000
vt 0.462158 1.000000 0.000000
vt 0.464111 0.989502 0.000000
vt 0.535645 0.989502 0.000000
vt 0.537598 1.000000 0.000000
vt 0.544678 0.994629 0.000000
vt 0.462158 0.086182 0.000000
vt 0.455078 0.091309 0.000000
vt 0.464111 0.096436 0.000000
vt 0.537598 0.086182 0.000000
vt 0.535645 0.096436 0.000000
vt 0.544678 0.091309 0.000000
vt 0.998535 0.039062 0.000000
vt 0.992676 0.035645 0.000000
vt 0.992676 0.039062 0.000000
vt 0.005615 0.035645 0.000000
vt 0.000000 0.039062 0.000000
vt 0.005615 0.039062 0.000000
vt 0.992676 0.035645 0.000000
vt 0.998535 0.031982 0.000000
vt 0.992676 0.031982 0.000000
vt 0.000000 0.031982 0.000000
vt 0.005615 0.035645 0.000000
vt 0.005615 0.031982 0.000000
vt 0.535645 1.000000 0.000000
vt 0.535645 0.984375 0.000000
vt 0.464111 0.984375 0.000000
vt 0.535645 1.000000 0.000000
vt 0.464111 0.984375 0.000000
vt 0.464111 1.000000 0.000000
vt 0.535645 0.984375 0.000000
vt 0.535645 0.101562 0.000000
vt 0.464111 0.101562 0.000000
vt 0.535645 0.984375 0.000000
vt 0.464111 0.101562 0.000000
vt 0.464111 0.984375 0.000000
vt 0.464111 0.086182 0.000000
vt 0.464111 0.101562 0.000000
vt 0.535645 0.101562 0.000000
vt 0.464111 0.086182 0.000000
vt 0.535645 0.101562 0.000000
vt 0.535645 0.086182 0.000000
vt 0.455078 0.984375 0.000000
vt 0.462158 0.984375 0.000000
vt 0.462158 1.000000 0.000000
vt 0.455078 0.984375 0.000000
vt 0.462158 1.000000 0.000000
vt 0.455078 1.000000 0.000000
vt 0.537598 1.000000 0.000000
vt 0.537598 0.984375 0.000000
vt 0.544678 0.984375 0.000000
vt 0.537598 1.000000 0.000000
vt 0.544678 0.984375 0.000000
vt 0.544678 1.000000 0.000000
vt 0.462158 0.086182 0.000000
vt 0.462158 0.101562 0.000000
vt 0.455078 0.101562 0.000000
vt 0.462158 0.086182 0.000000
vt 0.455078 0.101562 0.000000
vt 0.455078 0.086182 0.000000
vt 0.544678 0.086182 0.000000
vt 0.544678 0.101562 0.000000
vt 0.537598 0.101562 0.000000
vt 0.544678 0.086182 0.000000
vt 0.537598 0.101562 0.000000
vt 0.537598 0.086182 0.000000
vt 0.000000 0.984375 0.000000
vt 0.000000 0.989502 0.000000
vt 0.007080 1.000000 0.000000
vt 0.000000 0.984375 0.000000
vt 0.007080 1.000000 0.000000
vt 0.010742 1.000000 0.000000
vt 0.000000 0.984375 0.000000
vt 0.010742 1.000000 0.000000
vt 0.010742 0.984375 0.000000
vt 0.451416 0.984375 0.000000
vt 0.010742 0.984375 0.000000
vt 0.010742 1.000000 0.000000
vt 0.451416 0.984375 0.000000
vt 0.010742 1.000000 0.000000
vt 0.451416 1.000000 0.000000
vt 0.010742 1.000000 0.000000
vt 0.007080 1.000000 0.000000
vt 0.000000 0.989502 0.000000
vt 0.010742 1.000000 0.000000
vt 0.000000 0.989502 0.000000
vt 0.000000 0.984375 0.000000
vt 0.010742 1.000000 0.000000
vt 0.000000 0.984375 0.000000
vt 0.010742 0.984375 0.000000
vt 0.455078 1.000000 0.000000
vt 0.010742 1.000000 0.000000
vt 0.010742 0.984375 0.000000
vt 0.455078 1.000000 0.000000
vt 0.010742 0.984375 0.000000
vt 0.455078 0.984375 0.000000
vt 0.989014 1.000000 0.000000
vt 0.992676 1.000000 0.000000
vt 1.000000 0.989502 0.000000
vt 0.989014 1.000000 0.000000
vt 1.000000 0.989502 0.000000
vt 1.000000 0.984375 0.000000
vt 0.989014 1.000000 0.000000
vt 1.000000 0.984375 0.000000
vt 0.989014 0.984375 0.000000
vt 0.989014 0.984375 0.000000
vt 0.548340 0.984375 0.000000
vt 0.548340 1.000000 0.000000
vt 0.989014 0.984375 0.000000
vt 0.548340 1.000000 0.000000
vt 0.989014 1.000000 0.000000
vt 1.000000 0.984375 0.000000
vt 1.000000 0.989502 0.000000
vt 0.992676 1.000000 0.000000
vt 1.000000 0.984375 0.000000
vt 0.992676 1.000000 0.000000
vt 0.989014 1.000000 0.000000
vt 1.000000 0.984375 0.000000
vt 0.989014 1.000000 0.000000
vt 0.989014 0.984375 0.000000
vt 0.544678 0.984375 0.000000
vt 0.989014 0.984375 0.000000
vt 0.989014 1.000000 0.000000
vt 0.544678 0.984375 0.000000
vt 0.989014 1.000000 0.000000
vt 0.544678 1.000000 0.000000
vt 0.010742 0.086182 0.000000
vt 0.007080 0.086182 0.000000
vt 0.000000 0.096436 0.000000
vt 0.010742 0.086182 0.000000
vt 0.000000 0.096436 0.000000
vt 0.000000 0.101562 0.000000
vt 0.010742 0.086182 0.000000
vt 0.000000 0.101562 0.000000
vt 0.010742 0.101562 0.000000
vt 0.451416 0.086182 0.000000
vt 0.010742 0.086182 0.000000
vt 0.010742 0.101562 0.000000
vt 0.451416 0.086182 0.000000
vt 0.010742 0.101562 0.000000
vt 0.451416 0.101562 0.000000
vt 0.010742 0.101562 0.000000
vt 0.010742 0.984375 0.000000
vt 0.451416 0.984375 0.000000
vt 0.010742 0.101562 0.000000
vt 0.451416 0.984375 0.000000
vt 0.451416 0.101562 0.000000
vt 0.000000 0.984375 0.000000
vt 0.010742 0.984375 0.000000
vt 0.010742 0.101562 0.000000
vt 0.000000 0.984375 0.000000
vt 0.010742 0.101562 0.000000
vt 0.000000 0.101562 0.000000
vt 0.000000 0.101562 0.000000
vt 0.000000 0.096436 0.000000
vt 0.007080 0.086182 0.000000
vt 0.000000 0.101562 0.000000
vt 0.007080 0.086182 0.000000
vt 0.010742 0.086182 0.000000
vt 0.000000 0.101562 0.000000
vt 0.010742 0.086182 0.000000
vt 0.010742 0.101562 0.000000
vt 0.455078 0.101562 0.000000
vt 0.010742 0.101562 0.000000
vt 0.010742 0.086182 0.000000
vt 0.455078 0.101562 0.000000
vt 0.010742 0.086182 0.000000
vt 0.455078 0.086182 0.000000
vt 0.010742 0.101562 0.000000
vt 0.010742 0.984375 0.000000
vt 0.000000 0.984375 0.000000
vt 0.010742 0.101562 0.000000
vt 0.000000 0.984375 0.000000
vt 0.000000 0.101562 0.000000
vt 1.000000 0.101562 0.000000
vt 1.000000 0.096436 0.000000
vt 0.992676 0.086182 0.000000
vt 1.000000 0.101562 0.000000
vt 0.992676 0.086182 0.000000
vt 0.989014 0.086182 0.000000
vt 1.000000 0.101562 0.000000
vt 0.989014 0.086182 0.000000
vt 0.989014 0.101562 0.000000
vt 0.548340 0.101562 0.000000
vt 0.989014 0.101562 0.000000
vt 0.989014 0.086182 0.000000
vt 0.548340 0.101562 0.000000
vt 0.989014 0.086182 0.000000
vt 0.548340 0.086182 0.000000
vt 0.989014 0.101562 0.000000
vt 0.989014 0.984375 0.000000
vt 1.000000 0.984375 0.000000
vt 0.989014 0.101562 0.000000
vt 1.000000 0.984375 0.000000
vt 1.000000 0.101562 0.000000
vt 0.548340 0.984375 0.000000
vt 0.989014 0.984375 0.000000
vt 0.989014 0.101562 0.000000
vt 0.548340 0.984375 0.000000
vt 0.989014 0.101562 0.000000
vt 0.548340 0.101562 0.000000
vt 0.989014 0.086182 0.000000
vt 0.992676 0.086182 0.000000
vt 1.000000 0.096436 0.000000
vt 0.989014 0.086182 0.000000
vt 1.000000 0.096436 0.000000
vt 1.000000 0.101562 0.000000
vt 0.989014 0.086182 0.000000
vt 1.000000 0.101562 0.000000
vt 0.989014 0.101562 0.000000
vt 0.544678 0.086182 0.000000
vt 0.989014 0.086182 0.000000
vt 0.989014 0.101562 0.000000
vt 0.544678 0.086182 0.000000
vt 0.989014 0.101562 0.000000
vt 0.544678 0.101562 0.000000
vt 1.000000 0.984375 0.000000
vt 0.989014 0.984375 0.000000
vt 0.989014 0.101562 0.000000
vt 1.000000 0.984375 0.000000
vt 0.989014 0.101562 0.000000
vt 1.000000 0.101562 0.000000
vt 0.000000 1.000000 0.000000
vt 0.007080 1.000000 0.000000
vt 0.007080 0.989502 0.000000
vt 0.000000 1.000000 0.000000
vt 0.007080 0.989502 0.000000
vt 0.000000 0.989502 0.000000
vt 1.000000 0.989502 0.000000
vt 0.992676 0.989502 0.000000
vt 0.992676 1.000000 0.000000
vt 1.000000 0.989502 0.000000
vt 0.992676 1.000000 0.000000
vt 1.000000 1.000000 0.000000
vt 0.007080 1.000000 0.000000
vt 0.010742 1.000000 0.000000
vt 0.010742 0.989502 0.000000
vt 0.007080 1.000000 0.000000
vt 0.010742 0.989502 0.000000
vt 0.007080 0.989502 0.000000
vt 0.451416 0.989502 0.000000
vt 0.010742 0.989502 0.000000
vt 0.010742 1.000000 0.000000
vt 0.451416 0.989502 0.000000
vt 0.010742 1.000000 0.000000
vt 0.455078 1.000000 0.000000
vt 0.989014 0.989502 0.000000
vt 0.548340 0.989502 0.000000
vt 0.544678 1.000000 0.000000
vt 0.989014 0.989502 0.000000
vt 0.544678 1.000000 0.000000
vt 0.989014 1.000000 0.000000
vt 0.992676 0.989502 0.000000
vt 0.989014 0.989502 0.000000
vt 0.989014 1.000000 0.000000
vt 0.992676 0.989502 0.000000
vt 0.989014 1.000000 0.000000
vt 0.992676 1.000000 0.000000
vt 0.000000 0.096436 0.000000
vt 0.007080 0.096436 0.000000
vt 0.007080 0.086182 0.000000
vt 0.000000 0.096436 0.000000
vt 0.007080 0.086182 0.000000
vt 0.000000 0.086182 0.000000
vt 1.000000 0.086182 0.000000
vt 0.992676 0.086182 0.000000
vt 0.992676 0.096436 0.000000
vt 1.000000 0.086182 0.000000
vt 0.992676 0.096436 0.000000
vt 1.000000 0.096436 0.000000
vt 0.010742 0.096436 0.000000
vt 0.451416 0.096436 0.000000
vt 0.455078 0.086182 0.000000
vt 0.010742 0.096436 0.000000
vt 0.455078 0.086182 0.000000
vt 0.010742 0.086182 0.000000
vt 0.007080 0.096436 0.000000
vt 0.010742 0.096436 0.000000
vt 0.010742 0.086182 0.000000
vt 0.007080 0.096436 0.000000
vt 0.010742 0.086182 0.000000
vt 0.007080 0.086182 0.000000
vt 0.992676 0.086182 0.000000
vt 0.989014 0.086182 0.000000
vt 0.989014 0.096436 0.000000
vt 0.992676 0.086182 0.000000
vt 0.989014 0.096436 0.000000
vt 0.992676 0.096436 0.000000
vt 0.548340 0.096436 0.000000
vt 0.989014 0.096436 0.000000
vt 0.989014 0.086182 0.000000
vt 0.548340 0.096436 0.000000
vt 0.989014 0.086182 0.000000
vt 0.544678 0.086182 0.000000
vt 0.007080 0.989502 0.000000
vt 0.007080 0.984375 0.000000
vt 0.000000 0.984375 0.000000
vt 0.007080 0.989502 0.000000
vt 0.000000 0.984375 0.000000
vt 0.000000 0.989502 0.000000
vt 1.000000 0.984375 0.000000
vt 0.992676 0.984375 0.000000
vt 0.992676 0.989502 0.000000
vt 1.000000 0.984375 0.000000
vt 0.992676 0.989502 0.000000
vt 1.000000 0.989502 0.000000
vt 0.007080 0.984375 0.000000
vt 0.007080 0.101562 0.000000
vt 0.000000 0.101562 0.000000
vt 0.007080 0.984375 0.000000
vt 0.000000 0.101562 0.000000
vt 0.000000 0.984375 0.000000
vt 0.000000 0.096436 0.000000
vt 0.000000 0.101562 0.000000
vt 0.007080 0.101562 0.000000
vt 0.000000 0.096436 0.000000
vt 0.007080 0.101562 0.000000
vt 0.007080 0.096436 0.000000
vt 1.000000 0.984375 0.000000
vt 1.000000 0.101562 0.000000
vt 0.992676 0.101562 0.000000
vt 1.000000 0.984375 0.000000
vt 0.992676 0.101562 0.000000
vt 0.992676 0.984375 0.000000
vt 0.992676 0.096436 0.000000
vt 0.992676 0.101562 0.000000
vt 1.000000 0.101562 0.000000
vt 0.992676 0.096436 0.000000
vt 1.000000 0.101562 0.000000
vt 1.000000 0.096436 0.000000
vt 0.537598 1.000000 0.000000
vt 0.462158 1.000000 0.000000
vt 0.462158 0.984375 0.000000
vt 0.537598 1.000000 0.000000
vt 0.462158 0.984375 0.000000
vt 0.537598 0.984375 0.000000
vt 0.462158 0.101562 0.000000
vt 0.462158 0.086182 0.000000
vt 0.537598 0.086182 0.000000
vt 0.462158 0.101562 0.000000
vt 0.537598 0.086182 0.000000
vt 0.537598 0.101562 0.000000
vt 0.535645 0.989502 0.000000
vt 0.464111 0.989502 0.000000
vt 0.462158 1.000000 0.000000
vt 0.535645 0.989502 0.000000
vt 0.462158 1.000000 0.000000
vt 0.537598 1.000000 0.000000
vt 0.462158 0.086182 0.000000
vt 0.464111 0.096436 0.000000
vt 0.535645 0.096436 0.000000
vt 0.462158 0.086182 0.000000
vt 0.535645 0.096436 0.000000
vt 0.537598 0.086182 0.000000
vt 0.481934 1.000000 0.000000
vt 0.517822 1.000000 0.000000
vt 0.537598 1.000000 0.000000
vt 0.481934 1.000000 0.000000
vt 0.537598 1.000000 0.000000
vt 0.462158 1.000000 0.000000
vt 0.517822 0.086182 0.000000
vt 0.481934 0.086182 0.000000
vt 0.462158 0.086182 0.000000
vt 0.517822 0.086182 0.000000
vt 0.462158 0.086182 0.000000
vt 0.537598 0.086182 0.000000
vt 0.455078 0.984375 0.000000
vt 0.455078 0.101562 0.000000
vt 0.462158 0.101562 0.000000
vt 0.455078 0.984375 0.000000
vt 0.462158 0.101562 0.000000
vt 0.462158 0.984375 0.000000
vt 0.537598 0.101562 0.000000
vt 0.544678 0.101562 0.000000
vt 0.544678 0.984375 0.000000
vt 0.537598 0.101562 0.000000
vt 0.544678 0.984375 0.000000
vt 0.537598 0.984375 0.000000
vt 0.455078 0.984375 0.000000
vt 0.010742 0.984375 0.000000
vt 0.010742 0.101562 0.000000
vt 0.455078 0.984375 0.000000
vt 0.010742 0.101562 0.000000
vt 0.455078 0.101562 0.000000
vt 0.989014 0.101562 0.000000
vt 0.989014 0.984375 0.000000
vt 0.544678 0.984375 0.000000
vt 0.989014 0.101562 0.000000
vt 0.544678 0.984375 0.000000
vt 0.544678 0.101562 0.000000
vt 0.537598 0.984375 0.000000
vt 0.517822 0.984375 0.000000
vt 0.517822 0.101562 0.000000
vt 0.537598 0.984375 0.000000
vt 0.517822 0.101562 0.000000
vt 0.537598 0.101562 0.000000
vt 0.481934 0.984375 0.000000
vt 0.481934 0.101562 0.000000
vt 0.517822 0.101562 0.000000
vt 0.481934 0.984375 0.000000
vt 0.517822 0.101562 0.000000
vt 0.517822 0.984375 0.000000
vt 0.462158 0.101562 0.000000
vt 0.481934 0.101562 0.000000
vt 0.481934 0.984375 0.000000
vt 0.462158 0.101562 0.000000
vt 0.481934 0.984375 0.000000
vt 0.462158 0.984375 0.000000
vt 0.284424 0.035645 0.000000
vt 0.992676 0.035645 0.000000
vt 0.992676 0.039062 0.000000
vt 0.284424 0.035645 0.000000
vt 0.992676 0.039062 0.000000
vt 0.284424 0.039062 0.000000
vt 0.992676 0.039062 0.000000
vt 0.992676 0.071289 0.000000
vt 0.284424 0.071289 0.000000
vt 0.992676 0.039062 0.000000
vt 0.284424 0.071289 0.000000
vt 0.284424 0.039062 0.000000
vt 0.284424 0.039062 0.000000
vt 0.992676 0.039062 0.000000
vt 0.992676 0.035645 0.000000
vt 0.284424 0.039062 0.000000
vt 0.992676 0.035645 0.000000
vt 0.284424 0.035645 0.000000
vt 0.284424 0.071289 0.000000
vt 0.992676 0.071289 0.000000
vt 0.992676 0.039062 0.000000
vt 0.284424 0.071289 0.000000
vt 0.992676 0.039062 0.000000
vt 0.284424 0.039062 0.000000
vt 0.992676 0.031982 0.000000
vt 0.992676 0.035645 0.000000
vt 0.284424 0.035645 0.000000
vt 0.992676 0.031982 0.000000
vt 0.284424 0.035645 0.000000
vt 0.284424 0.031982 0.000000
vt 0.284424 0.000000 0.000000
vt 0.992676 0.000000 0.000000
vt 0.992676 0.031982 0.000000
vt 0.284424 0.000000 0.000000
vt 0.992676 0.031982 0.000000
vt 0.284424 0.031982 0.000000
vt 0.284424 0.035645 0.000000
vt 0.992676 0.035645 0.000000
vt 0.992676 0.031982 0.000000
vt 0.284424 0.035645 0.000000
vt 0.992676 0.031982 0.000000
vt 0.284424 0.031982 0.000000
vt 0.992676 0.031982 0.000000
vt 0.992676 0.000000 0.000000
vt 0.284424 0.000000 0.000000
vt 0.992676 0.031982 0.000000
vt 0.284424 0.000000 0.000000
vt 0.284424 0.031982 0.000000
vt 0.992676 0.071289 0.000000
vt 0.992676 0.039062 0.000000
vt 0.005615 0.039062 0.000000
vt 0.992676 0.071289 0.000000
vt 0.005615 0.039062 0.000000
vt 0.005615 0.071289 0.000000
vt 0.992676 0.071289 0.000000
vt 0.998535 0.071289 0.000000
vt 0.998535 0.039062 0.000000
vt 0.992676 0.071289 0.000000
vt 0.998535 0.039062 0.000000
vt 0.992676 0.039062 0.000000
vt 0.992676 0.035645 0.000000
vt 0.005615 0.035645 0.000000
vt 0.005615 0.039062 0.000000
vt 0.992676 0.035645 0.000000
vt 0.005615 0.039062 0.000000
vt 0.992676 0.039062 0.000000
vt 0.000000 0.039062 0.000000
vt 0.000000 0.071289 0.000000
vt 0.005615 0.071289 0.000000
vt 0.000000 0.039062 0.000000
vt 0.005615 0.071289 0.000000
vt 0.005615 0.039062 0.000000
vt 0.992676 0.035645 0.000000
vt 0.992676 0.031982 0.000000
vt 0.005615 0.031982 0.000000
vt 0.992676 0.035645 0.000000
vt 0.005615 0.031982 0.000000
vt 0.005615 0.035645 0.000000
vt 0.005615 0.000000 0.000000
vt 0.005615 0.031982 0.000000
vt 0.992676 0.031982 0.000000
vt 0.005615 0.000000 0.000000
vt 0.992676 0.031982 0.000000
vt 0.992676 0.000000 0.000000
vt 0.998535 0.031982 0.000000
vt 0.998535 0.000000 0.000000
vt 0.992676 0.000000 0.000000
vt 0.998535 0.031982 0.000000
vt 0.992676 0.000000 0.000000
vt 0.992676 0.031982 0.000000
vt 0.005615 0.000000 0.000000
vt 0.000000 0.000000 0.000000
vt 0.000000 0.031982 0.000000
vt 0.005615 0.000000 0.000000
vt 0.000000 0.031982 0.000000
vt 0.005615 0.031982 0.000000
vn 0.573486 -0.774414 0.266602
vn 0.573486 -0.774414 0.266602
vn 0.573486 -0.774414 0.266602
vn 0.573486 -0.774414 0.266602
vn 0.573486 -0.774414 0.266602
vn 0.573486 -0.774414 0.266602
vn -0.573486 0.774414 -0.266602
vn -0.573486 0.774414 -0.266602
vn -0.573486 0.774414 -0.266602
vn -0.573486 0.774414 -0.266602
vn -0.573486 0.774414 -0.266602
vn -0.573486 0.774414 -0.266602
vn 0.790771 -0.582275 -0.187500
vn 0.867432 -0.298584 -0.397461
vn 0.910645 0.059814 -0.408691
vn 0.152832 0.666260 -0.729736
vn -0.189453 0.741455 -0.643311
vn 0.489502 0.628174 -0.604492
vn 0.867432 0.009277 0.497070
vn 0.790771 -0.343506 0.506348
vn 0.910645 0.298584 0.285156
vn -0.189453 0.980469 0.050293
vn 0.152832 0.974365 0.164795
vn 0.489502 0.867188 0.089355
vn 0.819092 0.542236 -0.186523
vn 0.819092 0.542236 -0.186523
vn 0.819092 0.542236 -0.186523
vn 0.819092 0.542236 -0.186523
vn 0.819092 0.542236 -0.186523
vn 0.819092 0.542236 -0.186523
vn 0.819092 0.542236 -0.186523
vn 0.819092 0.542236 -0.186523
vn 0.819092 0.542236 -0.186523
vn 0.819092 0.542236 -0.186523
vn 0.819092 0.542236 -0.186523
vn 0.819092 0.542236 -0.186523
vn 0.819092 0.542236 -0.186523
vn 0.819092 0.542236 -0.186523
vn 0.819092 0.542236 -0.186523
vn 0.819092 0.542236 -0.186523
vn 0.819092 0.542236 -0.186523
vn 0.819092 0.542236 -0.186523
vn -0.386475 0.031006 0.921631
vn -0.783936 -0.424561 0.452637
vn -0.783936 -0.424561 0.452637
vn -0.386475 0.031006 0.921631
vn -0.783936 -0.424561 0.452637
vn -0.386475 0.031006 0.921631
vn -0.783936 -0.613281 -0.095215
vn -0.783936 -0.613281 -0.095215
vn -0.386475 -0.542725 -0.745361
vn -0.783936 -0.613281 -0.095215
vn -0.386475 -0.542725 -0.745361
vn -0.386475 -0.542725 -0.745361
vn -0.783936 -0.424561 0.452637
vn -0.783936 -0.424561 0.452637
vn -0.386475 0.031006 0.921631
vn -0.783936 -0.424561 0.452637
vn -0.386475 0.031006 0.921631
vn -0.681396 -0.270508 0.679688
vn -0.681396 -0.631836 -0.368896
vn -0.386475 -0.542725 -0.745361
vn -0.783936 -0.613281 -0.095215
vn -0.681396 -0.631836 -0.368896
vn -0.783936 -0.613281 -0.095215
vn -0.783936 -0.613281 -0.095215
vn 0.000000 -0.325439 -0.945312
vn 0.000000 -0.325439 -0.945312
vn 0.000000 -0.325439 -0.945312
vn 0.000000 -0.325439 -0.945312
vn 0.000000 -0.325439 -0.945312
vn 0.000000 -0.325439 -0.945312
vn 0.000000 -0.325439 -0.945312
vn 0.000000 -0.325439 -0.945312
vn 0.000000 -0.325439 -0.945312
vn 0.000000 -0.325439 -0.945312
vn 0.000000 -0.325439 -0.945312
vn 0.000000 -0.325439 -0.945312
vn 0.000000 -0.325439 -0.945312
vn 0.000000 -0.325439 -0.945312
vn 0.000000 -0.325439 -0.945312
vn 0.000000 0.325439 0.945312
vn 0.000000 0.325439 0.945312
vn 0.000000 0.325439 0.945312
vn 0.000000 0.325439 0.945312
vn 0.000000 0.325439 0.945312
vn 0.000000 0.325439 0.945312
vn 0.000000 0.325439 0.945312
vn 0.000000 0.325439 0.945312
vn 0.000000 0.325439 0.945312
vn -0.386475 0.031006 0.921631
vn 0.000000 0.325439 0.945312
vn 0.000000 0.325439 0.945312
vn -0.386475 0.031006 0.921631
vn 0.000000 0.325439 0.945312
vn -0.386475 0.031006 0.921631
vn 0.000000 0.325439 0.945312
vn 0.000000 0.325439 0.945312
vn 0.000000 0.325439 0.945312
vn 0.000000 0.325439 0.945312
vn 0.000000 0.325439 0.945312
vn 0.000000 0.325439 0.945312
vn 0.000000 0.325439 0.945312
vn 0.000000 0.325439 0.945312
vn 0.000000 0.325439 0.945312
vn 0.000000 0.325439 0.945312
vn 0.000000 0.325439 0.945312
vn 0.000000 0.325439 0.945312
vn 0.000000 0.325439 0.945312
vn 0.000000 0.325439 0.945312
vn 0.000000 0.325439 0.945312
vn 0.000000 -0.325439 -0.945312
vn 0.000000 -0.325439 -0.945312
vn 0.000000 -0.325439 -0.945312
vn 0.000000 -0.325439 -0.945312
vn 0.000000 -0.325439 -0.945312
vn 0.000000 -0.325439 -0.945312
vn 0.000000 -0.325439 -0.945312
vn 0.000000 -0.325439 -0.945312
vn 0.000000 -0.325439 -0.945312
vn -0.386475 -0.542725 -0.745361
vn 0.000000 -0.325439 -0.945312
vn 0.000000 -0.325439 -0.945312
vn -0.386475 -0.542725 -0.745361
vn 0.000000 -0.325439 -0.945312
vn -0.386475 -0.542725 -0.745361
vn 0.000000 -0.325439 -0.945312
vn 0.000000 -0.325439 -0.945312
vn 0.000000 -0.325439 -0.945312
vn 0.000000 -0.325439 -0.945312
vn 0.000000 -0.325439 -0.945312
vn 0.000000 -0.325439 -0.945312
vn 0.000000 -0.325439 -0.945312
vn 0.000000 -0.325439 -0.945312
vn 0.000000 -0.325439 -0.945312
vn 0.000000 -0.325439 -0.945312
vn 0.000000 -0.325439 -0.945312
vn 0.000000 -0.325439 -0.945312
vn 0.000000 -0.325439 -0.945312
vn 0.000000 -0.325439 -0.945312
vn 0.000000 -0.325439 -0.945312
vn 0.000000 -0.325439 -0.945312
vn 0.000000 -0.325439 -0.945312
vn 0.000000 -0.325439 -0.945312
vn 0.000000 -0.325439 -0.945312
vn 0.000000 -0.325439 -0.945312
vn 0.000000 -0.325439 -0.945312
vn 0.000000 -0.325439 -0.945312
vn 0.000000 -0.325439 -0.945312
vn 0.000000 -0.325439 -0.945312
vn 0.000000 -0.325439 -0.945312
vn 0.000000 -0.325439 -0.945312
vn 0.000000 -0.325439 -0.945312
vn 0.000000 0.325439 0.945312
vn 0.000000 0.325439 0.945312
vn 0.000000 0.325439 0.945312
vn 0.000000 0.325439 0.945312
vn 0.000000 0.325439 0.945312
vn 0.000000 0.325439 0.945312
vn 0.000000 0.325439 0.945312
vn 0.000000 0.325439 0.945312
vn 0.000000 0.325439 0.945312
vn -0.386475 0.031006 0.921631
vn 0.000000 0.325439 0.945312
vn 0.000000 0.325439 0.945312
vn -0.386475 0.031006 0.921631
vn 0.000000 0.325439 0.945312
vn 0.000000 0.325439 0.945312
vn 0.000000 0.325439 0.945312
vn 0.000000 0.325439 0.945312
vn 0.000000 0.325439 0.945312
vn 0.000000 0.325439 0.945312
vn 0.000000 0.325439 0.945312
vn 0.000000 0.325439 0.945312
vn 0.000000 0.325439 0.945312
vn 0.000000 0.325439 0.945312
vn 0.000000 0.325439 0.945312
vn 0.000000 0.325439 0.945312
vn 0.000000 0.325439 0.945312
vn 0.000000 0.325439 0.945312
vn 0.000000 0.325439 0.945312
vn 0.000000 0.325439 0.945312
vn 0.000000 0.325439 0.945312
vn 0.000000 0.325439 0.945312
vn 0.000000 0.325439 0.945312
vn 0.000000 0.325439 0.945312
vn 0.000000 0.325439 0.945312
vn 0.000000 0.325439 0.945312
vn 0.000000 0.325439 0.945312
vn 0.000000 0.325439 0.945312
vn 0.000000 0.325439 0.945312
vn 0.000000 0.325439 0.945312
vn 0.000000 0.325439 0.945312
vn 0.000000 0.325439 0.945312
vn 0.000000 0.325439 0.945312
vn 0.000000 0.325439 0.945312
vn 0.000000 0.325439 0.945312
vn 0.000000 0.325439 0.945312
vn 0.000000 0.325439 0.945312
vn 0.000000 0.325439 0.945312
vn 0.000000 0.325439 0.945312
vn 0.000000 -0.325439 -0.945312
vn 0.000000 -0.325439 -0.945312
vn 0.000000 -0.325439 -0.945312
vn 0.000000 -0.325439 -0.945312
vn 0.000000 -0.325439 -0.945312
vn 0.000000 -0.325439 -0.945312
vn 0.000000 -0.325439 -0.945312
vn 0.000000 -0.325439 -0.945312
vn 0.000000 -0.325439 -0.945312
vn 0.000000 -0.325439 -0.945312
vn 0.000000 -0.325439 -0.945312
vn 0.000000 -0.325439 -0.945312
vn 0.000000 -0.325439 -0.945312
vn 0.000000 -0.325439 -0.945312
vn -0.386475 -0.542725 -0.745361
vn 0.000000 -0.325439 -0.945312
vn 0.000000 -0.325439 -0.945312
vn 0.000000 -0.325439 -0.945312
vn 0.000000 -0.325439 -0.945312
vn 0.000000 -0.325439 -0.945312
vn 0.000000 -0.325439 -0.945312
vn 0.976074 0.204590 -0.070312
vn 0.843262 -0.507812 0.174805
vn 0.843262 -0.507812 0.174805
vn 0.976074 0.204590 -0.070312
vn 0.843262 -0.507812 0.174805
vn 0.976074 0.204590 -0.070312
vn 0.976074 0.204590 -0.070312
vn 0.843262 -0.507812 0.174805
vn 0.843262 -0.507812 0.174805
vn 0.976074 0.204590 -0.070312
vn 0.843262 -0.507812 0.174805
vn 0.976074 0.204590 -0.070312
vn 0.843262 -0.507812 0.174805
vn 0.573486 -0.774414 0.266602
vn 0.573486 -0.774414 0.266602
vn 0.843262 -0.507812 0.174805
vn 0.573486 -0.774414 0.266602
vn 0.843262 -0.507812 0.174805
vn 0.573486 -0.774414 0.266602
vn 0.573486 -0.774414 0.266602
vn 0.573486 -0.774414 0.266602
vn 0.573486 -0.774414 0.266602
vn 0.573486 -0.774414 0.266602
vn 0.573486 -0.774414 0.266602
vn 0.573486 -0.774414 0.266602
vn 0.573486 -0.774414 0.266602
vn 0.573486 -0.774414 0.266602
vn 0.573486 -0.774414 0.266602
vn 0.573486 -0.774414 0.266602
vn 0.573486 -0.774414 0.266602
vn 0.843262 -0.507812 0.174805
vn 0.573486 -0.774414 0.266602
vn 0.573486 -0.774414 0.266602
vn 0.843262 -0.507812 0.174805
vn 0.573486 -0.774414 0.266602
vn 0.843262 -0.507812 0.174805
vn 0.537109 0.797363 -0.274414
vn -0.216309 0.923096 -0.317627
vn -0.216309 0.923096 -0.317627
vn 0.537109 0.797363 -0.274414
vn -0.216309 0.923096 -0.317627
vn 0.537109 0.797363 -0.274414
vn 0.537109 0.797363 -0.274414
vn -0.216309 0.923096 -0.317627
vn -0.216309 0.923096 -0.317627
vn 0.537109 0.797363 -0.274414
vn -0.216309 0.923096 -0.317627
vn 0.537109 0.797363 -0.274414
vn -0.573486 0.774414 -0.266602
vn -0.573486 0.774414 -0.266602
vn -0.573486 0.774414 -0.266602
vn -0.573486 0.774414 -0.266602
vn -0.573486 0.774414 -0.266602
vn -0.573486 0.774414 -0.266602
vn -0.216309 0.923096 -0.317627
vn -0.573486 0.774414 -0.266602
vn -0.573486 0.774414 -0.266602
vn -0.216309 0.923096 -0.317627
vn -0.573486 0.774414 -0.266602
vn -0.216309 0.923096 -0.317627
vn -0.216309 0.923096 -0.317627
vn -0.573486 0.774414 -0.266602
vn -0.573486 0.774414 -0.266602
vn -0.216309 0.923096 -0.317627
vn -0.573486 0.774414 -0.266602
vn -0.216309 0.923096 -0.317627
vn -0.573486 0.774414 -0.266602
vn -0.573486 0.774414 -0.266602
vn -0.573486 0.774414 -0.266602
vn -0.573486 0.774414 -0.266602
vn -0.573486 0.774414 -0.266602
vn -0.573486 0.774414 -0.266602
vn 0.976074 0.204590 -0.070312
vn 0.819092 0.542236 -0.186523
vn 0.819092 0.542236 -0.186523
vn 0.976074 0.204590 -0.070312
vn 0.819092 0.542236 -0.186523
vn 0.976074 0.204590 -0.070312
vn 0.819092 0.542236 -0.186523
vn 0.819092 0.542236 -0.186523
vn 0.976074 0.204590 -0.070312
vn 0.819092 0.542236 -0.186523
vn 0.976074 0.204590 -0.070312
vn 0.976074 0.204590 -0.070312
vn 0.819092 0.542236 -0.186523
vn 0.819092 0.542236 -0.186523
vn 0.819092 0.542236 -0.186523
vn 0.819092 0.542236 -0.186523
vn 0.819092 0.542236 -0.186523
vn 0.819092 0.542236 -0.186523
vn 0.537109 0.797363 -0.274414
vn 0.819092 0.542236 -0.186523
vn 0.819092 0.542236 -0.186523
vn 0.537109 0.797363 -0.274414
vn 0.819092 0.542236 -0.186523
vn 0.537109 0.797363 -0.274414
vn 0.819092 0.542236 -0.186523
vn 0.819092 0.542236 -0.186523
vn 0.819092 0.542236 -0.186523
vn 0.819092 0.542236 -0.186523
vn 0.819092 0.542236 -0.186523
vn 0.819092 0.542236 -0.186523
vn 0.537109 0.797363 -0.274414
vn 0.819092 0.542236 -0.186523
vn 0.819092 0.542236 -0.186523
vn 0.537109 0.797363 -0.274414
vn 0.819092 0.542236 -0.186523
vn 0.537109 0.797363 -0.274414
vn -0.783936 -0.613281 -0.095215
vn -0.783936 -0.424561 0.452637
vn -0.783936 -0.424561 0.452637
vn -0.783936 -0.613281 -0.095215
vn -0.783936 -0.424561 0.452637
vn -0.783936 -0.613281 -0.095215
vn -0.783936 -0.424561 0.452637
vn -0.783936 -0.424561 0.452637
vn -0.783936 -0.613281 -0.095215
vn -0.783936 -0.424561 0.452637
vn -0.783936 -0.613281 -0.095215
vn -0.783936 -0.613281 -0.095215
vn 0.573486 -0.774414 0.266602
vn 0.573486 -0.774414 0.266602
vn 0.573486 -0.774414 0.266602
vn 0.573486 -0.774414 0.266602
vn 0.573486 -0.774414 0.266602
vn 0.573486 -0.774414 0.266602
vn -0.573486 0.774414 -0.266602
vn -0.573486 0.774414 -0.266602
vn -0.573486 0.774414 -0.266602
vn -0.573486 0.774414 -0.266602
vn -0.573486 0.774414 -0.266602
vn -0.573486 0.774414 -0.266602
vn 0.573486 -0.774414 0.266602
vn 0.573486 -0.774414 0.266602
vn 0.573486 -0.774414 0.266602
vn 0.573486 -0.774414 0.266602
vn 0.573486 -0.774414 0.266602
vn 0.573486 -0.774414 0.266602
vn -0.573486 0.774414 -0.266602
vn -0.573486 0.774414 -0.266602
vn -0.573486 0.774414 -0.266602
vn -0.573486 0.774414 -0.266602
vn -0.573486 0.774414 -0.266602
vn -0.573486 0.774414 -0.266602
vn -0.386475 0.031006 0.921631
vn -0.386475 0.031006 0.921631
vn -0.759277 -0.380859 0.527100
vn -0.386475 0.031006 0.921631
vn -0.759277 -0.380859 0.527100
vn -0.759277 -0.380859 0.527100
vn -0.759277 -0.624756 -0.180908
vn -0.386475 -0.542725 -0.745361
vn -0.386475 -0.542725 -0.745361
vn -0.759277 -0.624756 -0.180908
vn -0.386475 -0.542725 -0.745361
vn -0.759277 -0.624756 -0.180908
vn -0.386475 0.031006 0.921631
vn 0.000000 0.325439 0.945312
vn 0.000000 0.325439 0.945312
vn -0.386475 0.031006 0.921631
vn 0.000000 0.325439 0.945312
vn -0.386475 0.031006 0.921631
vn 0.000000 -0.325439 -0.945312
vn 0.000000 -0.325439 -0.945312
vn -0.386475 -0.542725 -0.745361
vn 0.000000 -0.325439 -0.945312
vn -0.386475 -0.542725 -0.745361
vn -0.386475 -0.542725 -0.745361
vn -0.759277 -0.624756 -0.180908
vn -0.815674 -0.569336 0.100830
vn -0.815674 -0.569336 0.100830
vn -0.759277 -0.624756 -0.180908
vn -0.815674 -0.569336 0.100830
vn -0.759277 -0.624756 -0.180908
vn -0.815674 -0.510742 0.270752
vn -0.815674 -0.510742 0.270752
vn -0.815674 -0.569336 0.100830
vn -0.815674 -0.510742 0.270752
vn -0.815674 -0.569336 0.100830
vn -0.815674 -0.569336 0.100830
vn -0.759277 -0.380859 0.527100
vn -0.815674 -0.510742 0.270752
vn -0.815674 -0.510742 0.270752
vn -0.759277 -0.380859 0.527100
vn -0.815674 -0.510742 0.270752
vn -0.759277 -0.380859 0.527100
vn 0.405518 -0.777832 -0.479980
vn 0.663574 -0.351074 -0.660400
vn 0.790771 -0.582275 -0.187500
vn 0.405518 -0.777832 -0.479980
vn 0.790771 -0.582275 -0.187500
vn 0.529785 -0.840088 -0.115234
vn 0.790771 -0.582275 -0.187500
vn 0.843262 -0.507812 0.174805
vn 0.573486 -0.774414 0.266602
vn 0.790771 -0.582275 -0.187500
vn 0.573486 -0.774414 0.266602
vn 0.529785 -0.840088 -0.115234
vn -0.529785 0.590820 -0.608154
vn -0.189453 0.741455 -0.643311
vn 0.116943 0.386719 -0.914551
vn -0.529785 0.590820 -0.608154
vn 0.116943 0.386719 -0.914551
vn -0.405518 0.317383 -0.856934
vn -0.573486 0.774414 -0.266602
vn -0.216309 0.923096 -0.317627
vn -0.189453 0.741455 -0.643311
vn -0.573486 0.774414 -0.266602
vn -0.189453 0.741455 -0.643311
vn -0.529785 0.590820 -0.608154
vn 0.790771 -0.343506 0.506348
vn 0.663574 0.129883 0.736572
vn 0.405518 -0.317383 0.856934
vn 0.790771 -0.343506 0.506348
vn 0.405518 -0.317383 0.856934
vn 0.529785 -0.590820 0.608154
vn 0.573486 -0.774414 0.266602
vn 0.843262 -0.507812 0.174805
vn 0.790771 -0.343506 0.506348
vn 0.573486 -0.774414 0.266602
vn 0.790771 -0.343506 0.506348
vn 0.529785 -0.590820 0.608154
vn -0.405518 0.777832 0.479980
vn 0.116943 0.867920 0.482422
vn -0.189453 0.980469 0.050293
vn -0.405518 0.777832 0.479980
vn -0.189453 0.980469 0.050293
vn -0.529785 0.840088 0.115234
vn -0.189453 0.980469 0.050293
vn -0.216309 0.923096 -0.317627
vn -0.573486 0.774414 -0.266602
vn -0.189453 0.980469 0.050293
vn -0.573486 0.774414 -0.266602
vn -0.529785 0.840088 0.115234
vn 0.976074 0.204590 -0.070312
vn 0.910645 0.059814 -0.408691
vn 0.489502 0.628174 -0.604492
vn 0.976074 0.204590 -0.070312
vn 0.489502 0.628174 -0.604492
vn 0.537109 0.797363 -0.274414
vn 0.976074 0.204590 -0.070312
vn 0.843262 -0.507812 0.174805
vn 0.790771 -0.582275 -0.187500
vn 0.976074 0.204590 -0.070312
vn 0.790771 -0.582275 -0.187500
vn 0.910645 0.059814 -0.408691
vn 0.663574 -0.351074 -0.660400
vn 0.116943 0.386719 -0.914551
vn 0.489502 0.628174 -0.604492
vn 0.663574 -0.351074 -0.660400
vn 0.489502 0.628174 -0.604492
vn 0.910645 0.059814 -0.408691
vn -0.189453 0.741455 -0.643311
vn -0.216309 0.923096 -0.317627
vn 0.537109 0.797363 -0.274414
vn -0.189453 0.741455 -0.643311
vn 0.537109 0.797363 -0.274414
vn 0.489502 0.628174 -0.604492
vn 0.663574 0.129883 0.736572
vn 0.910645 0.298584 0.285156
vn 0.489502 0.867188 0.089355
vn 0.663574 0.129883 0.736572
vn 0.489502 0.867188 0.089355
vn 0.116943 0.867920 0.482422
vn 0.537109 0.797363 -0.274414
vn 0.489502 0.867188 0.089355
vn 0.910645 0.298584 0.285156
vn 0.537109 0.797363 -0.274414
vn 0.910645 0.298584 0.285156
vn 0.976074 0.204590 -0.070312
vn 0.790771 -0.343506 0.506348
vn 0.843262 -0.507812 0.174805
vn 0.976074 0.204590 -0.070312
vn 0.790771 -0.343506 0.506348
vn 0.976074 0.204590 -0.070312
vn 0.910645 0.298584 0.285156
vn 0.537109 0.797363 -0.274414
vn -0.216309 0.923096 -0.317627
vn -0.189453 0.980469 0.050293
vn 0.537109 0.797363 -0.274414
vn -0.189453 0.980469 0.050293
vn 0.489502 0.867188 0.089355
usemtl Texture
f 1/1/1 2/2/2 3/3/3
f 4/4/4 5/5/5 6/6/6
f 7/7/7 8/8/8 9/9/9
f 10/10/10 11/11/11 12/12/12
f 13/13/13 14/14/14 15/15/15
f 16/16/16 17/17/17 18/18/18
f 19/19/19 20/20/20 21/21/21
f 22/22/22 23/23/23 24/24/24
f 25/25/25 26/26/26 27/27/27
f 28/28/28 29/29/29 30/30/30
f 31/31/31 32/32/32 33/33/33
f 34/34/34 35/35/35 36/36/36
f 37/37/37 38/38/38 39/39/39
f 40/40/40 41/41/41 42/42/42
f 43/43/43 44/44/44 45/45/45
f 46/46/46 47/47/47 48/48/48
f 49/49/49 50/50/50 51/51/51
f 52/52/52 53/53/53 54/54/54
f 55/55/55 56/56/56 57/57/57
f 58/58/58 59/59/59 60/60/60
f 61/61/61 62/62/62 63/63/63
f 64/64/64 65/65/65 66/66/66
f 67/67/67 68/68/68 69/69/69
f 70/70/70 71/71/71 72/72/72
f 73/73/73 74/74/74 75/75/75
f 76/76/76 77/77/77 78/78/78
f 79/79/79 80/80/80 81/81/81
f 82/82/82 83/83/83 84/84/84
f 85/85/85 86/86/86 87/87/87
f 88/88/88 89/89/89 90/90/90
f 91/91/91 92/92/92 93/93/93
f 94/94/94 95/95/95 96/96/96
f 97/97/97 98/98/98 99/99/99
f 100/100/100 101/101/101 102/102/102
f 103/103/103 104/104/104 105/105/105
f 106/106/106 107/107/107 108/108/108
f 109/109/109 110/110/110 111/111/111
f 112/112/112 113/113/113 114/114/114
f 115/115/115 116/116/116 117/117/117
f 118/118/118 119/119/119 120/120/120
f 121/121/121 122/122/122 123/123/123
f 124/124/124 125/125/125 126/126/126
f 127/127/127 128/128/128 129/129/129
f 130/130/130 131/131/131 132/132/132
f 133/133/133 134/134/134 135/135/135
f 136/136/136 137/137/137 138/138/138
f 139/139/139 140/140/140 141/141/141
f 142/142/142 143/143/143 144/144/144
f 145/145/145 146/146/146 147/147/147
f 148/148/148 149/149/149 150/150/150
f 151/151/151 152/152/152 153/153/153
f 154/154/154 155/155/155 156/156/156
f 157/157/157 158/158/158 159/159/159
f 160/160/160 161/161/161 162/162/162
f 163/163/163 164/164/164 165/165/165
f 166/166/166 167/167/167 168/168/168
f 169/169/169 170/170/170 171/171/171
f 172/172/172 173/173/173 174/174/174
f 175/175/175 176/176/176 177/177/177
f 178/178/178 179/179/179 180/180/180
f 181/181/181 182/182/182 183/183/183
f 184/184/184 185/185/185 186/186/186
f 187/187/187 188/188/188 189/189/189
f 190/190/190 191/191/191 192/192/192
f 193/193/193 194/194/194 195/195/195
f 196/196/196 197/197/197 198/198/198
f 199/199/199 200/200/200 201/201/201
f 202/202/202 203/203/203 204/204/204
f 205/205/205 206/206/206 207/207/207
f 208/208/208 209/209/209 210/210/210
f 211/211/211 212/212/212 213/213/213
f 214/214/214 215/215/215 216/216/216
f 217/217/217 218/218/218 219/219/219
f 220/220/220 221/221/221 222/222/222
f 223/223/223 224/224/224 225/225/225
f 226/226/226 227/227/227 228/228/228
f 229/229/229 230/230/230 231/231/231
f 232/232/232 233/233/233 234/234/234
f 235/235/235 236/236/236 237/237/237
f 238/238/238 239/239/239 240/240/240
f 241/241/241 242/242/242 243/243/243
f 244/244/244 245/245/245 246/246/246
f 247/247/247 248/248/248 249/249/249
f 250/250/250 251/251/251 252/252/252
f 253/253/253 254/254/254 255/255/255
f 256/256/256 257/257/257 258/258/258
f 259/259/259 260/260/260 261/261/261
f 262/262/262 263/263/263 264/264/264
f 265/265/265 266/266/266 267/267/267
f 268/268/268 269/269/269 270/270/270
f 271/271/271 272/272/272 273/273/273
f 274/274/274 275/275/275 276/276/276
f 277/277/277 278/278/278 279/279/279
f 280/280/280 281/281/281 282/282/282
f 283/283/283 284/284/284 285/285/285
f 286/286/286 287/287/287 288/288/288
f 289/289/289 290/290/290 291/291/291
f 292/292/292 293/293/293 294/294/294
f 295/295/295 296/296/296 297/297/297
f 298/298/298 299/299/299 300/300/300
f 301/301/301 302/302/302 303/303/303
f 304/304/304 305/305/305 306/306/306
f 307/307/307 308/308/308 309/309/309
f 310/310/310 311/311/311 312/312/312
f 313/313/313 314/314/314 315/315/315
f 316/316/316 317/317/317 318/318/318
f 319/319/319 320/320/320 321/321/321
f 322/322/322 323/323/323 324/324/324
f 325/325/325 326/326/326 327/327/327
f 328/328/328 329/329/329 330/330/330
f 331/331/331 332/332/332 333/333/333
f 334/334/334 335/335/335 336/336/336
f 337/337/337 338/338/338 339/339/339
f 340/340/340 341/341/341 342/342/342
f 343/343/343 344/344/344 345/345/345
f 346/346/346 347/347/347 348/348/348
f 349/349/349 350/350/350 351/351/351
f 352/352/352 353/353/353 354/354/354
f 355/355/355 356/356/356 357/357/357
f 358/358/358 359/359/359 360/360/360
f 361/361/361 362/362/362 363/363/363
f 364/364/364 365/365/365 366/366/366
f 367/367/367 368/368/368 369/369/369
f 370/370/370 371/371/371 372/372/372
f 373/373/373 374/374/374 375/375/375
f 376/376/376 377/377/377 378/378/378
f 379/379/379 380/380/380 381/381/381
f 382/382/382 383/383/383 384/384/384
f 385/385/385 386/386/386 387/387/387
f 388/388/388 389/389/389 390/390/390
f 391/391/391 392/392/392 393/393/393
f 394/394/394 395/395/395 396/396/396
f 397/397/397 398/398/398 399/399/399
f 400/400/400 401/401/401 402/402/402
f 403/403/403 404/404/404 405/405/405
f 406/406/406 407/407/407 408/408/408
f 409/409/409 410/410/410 411/411/411
f 412/412/412 413/413/413 414/414/414
f 415/415/415 416/416/416 417/417/417
f 418/418/418 419/419/419 420/420/420
f 421/421/421 422/422/422 423/423/423
f 424/424/424 425/425/425 426/426/426
f 427/427/427 428/428/428 429/429/429
f 430/430/430 431/431/431 432/432/432
f 433/433/433 434/434/434 435/435/435
f 436/436/436 437/437/437 438/438/438
f 439/439/439 440/440/440 441/441/441
f 442/442/442 443/443/443 444/444/444
f 445/445/445 446/446/446 447/447/447
f 448/448/448 449/449/449 450/450/450
f 451/451/451 452/452/452 453/453/453
f 454/454/454 455/455/455 456/456/456
f 457/457/457 458/458/458 459/459/459
f 460/460/460 461/461/461 462/462/462
f 463/463/463 464/464/464 465/465/465
f 466/466/466 467/467/467 468/468/468
f 469/469/469 470/470/470 471/471/471
f 472/472/472 473/473/473 474/474/474
f 475/475/475 476/476/476 477/477/477
f 478/478/478 479/479/479 480/480/480
f 481/481/481 482/482/482 483/483/483
f 484/484/484 485/485/485 486/486/486
f 487/487/487 488/488/488 489/489/489
f 490/490/490 491/491/491 492/492/492
f 493/493/493 494/494/494 495/495/495
f 496/496/496 497/497/497 498/498/498
f 499/499/499 500/500/500 501/501/501
f 502/502/502 503/503/503 504/504/504
