# OBJ file
mtllib icon_def.ico.mtl
v -0.878906 0.551270 0.879395 0.262745 0.231373 0.149020 #1.000000
v -0.794922 0.378418 0.795410 0.262745 0.231373 0.149020 #1.000000
v 0.000244 0.378418 1.124756 0.376471 0.349020 0.290196 #1.000000
v -1.250732 0.551270 0.000000 0.094118 0.078431 0.050980 #1.000000
v -1.124512 0.378418 0.000000 0.152941 0.129412 0.086275 #1.000000
v -0.794922 0.378418 0.795410 0.254902 0.227451 0.172549 #1.000000
v -1.250732 0.551270 0.000000 0.094118 0.078431 0.050980 #1.000000
v -0.794922 0.378418 0.795410 0.254902 0.227451 0.172549 #1.000000
v -0.878906 0.551270 0.879395 0.262745 0.231373 0.149020 #1.000000
v -0.719482 0.236816 0.000000 0.133333 0.105882 0.070588 #1.000000
v -0.508545 0.236816 0.509033 0.133333 0.105882 0.070588 #1.000000
v -0.794922 0.378418 0.795410 0.254902 0.227451 0.172549 #1.000000
v -0.719482 0.236816 0.000000 0.133333 0.105882 0.070588 #1.000000
v -0.794922 0.378418 0.795410 0.254902 0.227451 0.172549 #1.000000
v -1.124512 0.378418 0.000000 0.152941 0.129412 0.086275 #1.000000
v -0.859131 2.863770 0.859619 0.262745 0.231373 0.149020 #1.000000
v -0.874512 3.230713 0.875000 0.262745 0.231373 0.149020 #1.000000
v -1.251953 3.230713 0.000000 0.094118 0.078431 0.050980 #1.000000
v -0.859131 2.863770 0.859619 0.262745 0.231373 0.149020 #1.000000
v -1.251953 3.230713 0.000000 0.094118 0.078431 0.050980 #1.000000
v -1.226318 2.863770 0.000000 0.050980 0.043137 0.011765 #1.000000
v -1.126709 3.438721 0.000000 0.450980 0.439216 0.392157 #1.000000
v -0.787109 3.438721 0.787354 0.431373 0.411765 0.352941 #1.000000
v -0.679932 3.408691 0.680420 0.368627 0.329412 0.250980 #1.000000
v -1.126709 3.438721 0.000000 0.450980 0.439216 0.392157 #1.000000
v -0.679932 3.408691 0.680420 0.368627 0.329412 0.250980 #1.000000
v -0.961670 3.408691 0.000000 0.368627 0.329412 0.250980 #1.000000
v -0.961670 3.121826 0.000000 0.149020 0.215686 0.117647 #1.000000
v -0.679932 3.121826 0.680420 0.149020 0.215686 0.117647 #1.000000
v 0.000244 3.121826 0.000000 0.270588 0.384314 0.121569 #1.000000
v -0.878906 0.551270 -0.879395 0.262745 0.231373 0.149020 #1.000000
v -0.794922 0.378418 -0.795410 0.254902 0.227451 0.172549 #1.000000
v -1.124512 0.378418 0.000000 0.152941 0.129412 0.086275 #1.000000
v -0.878906 0.551270 -0.879395 0.262745 0.231373 0.149020 #1.000000
v -1.124512 0.378418 0.000000 0.152941 0.129412 0.086275 #1.000000
v -1.250732 0.551270 0.000000 0.094118 0.078431 0.050980 #1.000000
v 0.000244 0.378418 -1.124756 0.376471 0.349020 0.290196 #1.000000
v -0.794922 0.378418 -0.795410 0.254902 0.227451 0.172549 #1.000000
v -0.878906 0.551270 -0.879395 0.262745 0.231373 0.149020 #1.000000
v -0.508545 0.236816 0.509033 0.133333 0.105882 0.070588 #1.000000
v 0.000244 0.236816 0.719971 0.133333 0.105882 0.070588 #1.000000
v 0.000244 0.378418 1.124756 0.376471 0.349020 0.290196 #1.000000
v -0.508545 0.236816 0.509033 0.133333 0.105882 0.070588 #1.000000
v 0.000244 0.378418 1.124756 0.376471 0.349020 0.290196 #1.000000
v -0.794922 0.378418 0.795410 0.262745 0.231373 0.149020 #1.000000
v 0.000244 2.863770 1.215576 0.490196 0.494118 0.478431 #1.000000
v 0.000244 3.230713 1.237305 0.482353 0.486275 0.462745 #1.000000
v -0.874512 3.230713 0.875000 0.262745 0.231373 0.149020 #1.000000
v 0.000244 2.863770 1.215576 0.490196 0.494118 0.478431 #1.000000
v -0.874512 3.230713 0.875000 0.262745 0.231373 0.149020 #1.000000
v -0.859131 2.863770 0.859619 0.262745 0.231373 0.149020 #1.000000
v -0.787109 3.438721 0.787354 0.450980 0.439216 0.392157 #1.000000
v 0.000244 3.438721 1.113525 0.454902 0.439216 0.392157 #1.000000
v 0.000244 3.408691 0.962158 0.368627 0.329412 0.250980 #1.000000
v -0.787109 3.438721 0.787354 0.431373 0.411765 0.352941 #1.000000
v 0.000244 3.408691 0.962158 0.368627 0.329412 0.250980 #1.000000
v -0.679932 3.408691 0.680420 0.368627 0.329412 0.250980 #1.000000
v -0.679932 3.121826 0.680420 0.149020 0.215686 0.117647 #1.000000
v 0.000244 3.121826 0.962158 0.149020 0.215686 0.117647 #1.000000
v 0.000244 3.121826 0.000000 0.270588 0.384314 0.121569 #1.000000
v 0.879883 0.551270 -0.879395 0.262745 0.231373 0.149020 #1.000000
v 0.795898 0.378418 -0.795410 0.254902 0.227451 0.172549 #1.000000
v 0.000244 0.378418 -1.124756 0.376471 0.349020 0.290196 #1.000000
v 0.879883 0.551270 -0.879395 0.262745 0.231373 0.149020 #1.000000
v 0.000244 0.378418 -1.124756 0.376471 0.349020 0.290196 #1.000000
v 0.000244 0.551270 -1.243652 0.498039 0.498039 0.498039 #1.000000
v 1.251465 0.551270 0.000000 0.094118 0.078431 0.050980 #1.000000
v 1.125244 0.378418 0.000000 0.094118 0.078431 0.050980 #1.000000
v 0.795898 0.378418 -0.795410 0.254902 0.227451 0.172549 #1.000000
v 1.251465 0.551270 0.000000 0.094118 0.078431 0.050980 #1.000000
v 0.795898 0.378418 -0.795410 0.254902 0.227451 0.172549 #1.000000
v 0.879883 0.551270 -0.879395 0.262745 0.231373 0.149020 #1.000000
v 0.000244 0.236816 0.719971 0.133333 0.105882 0.070588 #1.000000
v 0.509521 0.236816 0.509033 0.133333 0.105882 0.070588 #1.000000
v 0.795898 0.378418 0.795410 0.254902 0.227451 0.172549 #1.000000
v 0.000244 0.236816 0.719971 0.133333 0.105882 0.070588 #1.000000
v 0.795898 0.378418 0.795410 0.254902 0.227451 0.172549 #1.000000
v 0.000244 0.378418 1.124756 0.376471 0.349020 0.290196 #1.000000
v 0.860107 2.863770 0.859619 0.262745 0.231373 0.149020 #1.000000
v 0.875244 3.230713 0.875000 0.262745 0.231373 0.149020 #1.000000
v 0.000244 3.230713 1.237305 0.482353 0.486275 0.462745 #1.000000
v 0.860107 2.863770 0.859619 0.262745 0.231373 0.149020 #1.000000
v 0.000244 3.230713 1.237305 0.482353 0.486275 0.462745 #1.000000
v 0.000244 2.863770 1.215576 0.490196 0.494118 0.478431 #1.000000
v 0.000244 3.438721 1.113525 0.454902 0.439216 0.392157 #1.000000
v 0.787842 3.438721 0.787354 0.431373 0.411765 0.352941 #1.000000
v 0.680664 3.408691 0.680420 0.368627 0.329412 0.250980 #1.000000
v 0.000244 3.438721 1.113525 0.454902 0.439216 0.392157 #1.000000
v 0.680664 3.408691 0.680420 0.368627 0.329412 0.250980 #1.000000
v 0.000244 3.408691 0.962158 0.368627 0.329412 0.250980 #1.000000
v 0.000244 3.121826 0.962158 0.149020 0.215686 0.117647 #1.000000
v 0.680664 3.121826 0.680420 0.149020 0.215686 0.117647 #1.000000
v 0.000244 3.121826 0.000000 0.270588 0.384314 0.121569 #1.000000
v 0.879883 0.551270 0.879395 0.262745 0.231373 0.149020 #1.000000
v 0.795898 0.378418 0.795410 0.262745 0.231373 0.149020 #1.000000
v 1.125244 0.378418 0.000000 0.094118 0.078431 0.050980 #1.000000
v 0.879883 0.551270 0.879395 0.262745 0.231373 0.149020 #1.000000
v 1.125244 0.378418 0.000000 0.094118 0.078431 0.050980 #1.000000
v 1.251465 0.551270 0.000000 0.094118 0.078431 0.050980 #1.000000
v 0.000244 0.378418 1.124756 0.376471 0.349020 0.290196 #1.000000
v 0.795898 0.378418 0.795410 0.262745 0.231373 0.149020 #1.000000
v 0.879883 0.551270 0.879395 0.262745 0.231373 0.149020 #1.000000
v 0.509521 0.236816 0.509033 0.133333 0.105882 0.070588 #1.000000
v 0.720215 0.236816 0.000000 0.133333 0.105882 0.070588 #1.000000
v 1.125244 0.378418 0.000000 0.094118 0.078431 0.050980 #1.000000
v 0.509521 0.236816 0.509033 0.133333 0.105882 0.070588 #1.000000
v 1.125244 0.378418 0.000000 0.094118 0.078431 0.050980 #1.000000
v 0.795898 0.378418 0.795410 0.254902 0.227451 0.172549 #1.000000
v 1.226807 2.863770 0.000000 0.050980 0.043137 0.011765 #1.000000
v 1.252441 3.230713 0.000000 0.094118 0.078431 0.050980 #1.000000
v 0.875244 3.230713 0.875000 0.262745 0.231373 0.149020 #1.000000
v 1.226807 2.863770 0.000000 0.050980 0.043137 0.011765 #1.000000
v 0.875244 3.230713 0.875000 0.262745 0.231373 0.149020 #1.000000
v 0.860107 2.863770 0.859619 0.262745 0.231373 0.149020 #1.000000
v 0.787842 3.438721 0.787354 0.450980 0.439216 0.392157 #1.000000
v 1.127197 3.438721 0.000000 0.450980 0.439216 0.392157 #1.000000
v 0.962646 3.408691 0.000000 0.368627 0.329412 0.250980 #1.000000
v 0.787842 3.438721 0.787354 0.431373 0.411765 0.352941 #1.000000
v 0.962646 3.408691 0.000000 0.368627 0.329412 0.250980 #1.000000
v 0.680664 3.408691 0.680420 0.368627 0.329412 0.250980 #1.000000
v 0.680664 3.121826 0.680420 0.149020 0.215686 0.117647 #1.000000
v 0.962646 3.121826 0.000000 0.149020 0.215686 0.117647 #1.000000
v 0.000244 3.121826 0.000000 0.270588 0.384314 0.121569 #1.000000
v 0.875244 3.230713 -0.875000 0.262745 0.231373 0.149020 #1.000000
v 0.000244 3.230713 -1.237305 0.498039 0.498039 0.498039 #1.000000
v 0.000244 3.438721 -1.113525 0.498039 0.498039 0.498039 #1.000000
v 0.875244 3.230713 -0.875000 0.262745 0.231373 0.149020 #1.000000
v 0.000244 3.438721 -1.113525 0.498039 0.498039 0.498039 #1.000000
v 0.787842 3.438721 -0.787354 0.431373 0.411765 0.352941 #1.000000
v 1.252441 3.230713 0.000000 0.094118 0.078431 0.050980 #1.000000
v 0.875244 3.230713 -0.875000 0.262745 0.231373 0.149020 #1.000000
v 0.787842 3.438721 -0.787354 0.431373 0.411765 0.352941 #1.000000
v 1.252441 3.230713 0.000000 0.094118 0.078431 0.050980 #1.000000
v 0.787842 3.438721 -0.787354 0.431373 0.411765 0.352941 #1.000000
v 1.127197 3.438721 0.000000 0.450980 0.439216 0.392157 #1.000000
v 0.720215 0.236816 0.000000 0.133333 0.105882 0.070588 #1.000000
v 0.509521 0.236816 -0.509033 0.133333 0.105882 0.070588 #1.000000
v 0.795898 0.378418 -0.795410 0.254902 0.227451 0.172549 #1.000000
v 0.720215 0.236816 0.000000 0.133333 0.105882 0.070588 #1.000000
v 0.795898 0.378418 -0.795410 0.254902 0.227451 0.172549 #1.000000
v 1.125244 0.378418 0.000000 0.094118 0.078431 0.050980 #1.000000
v 0.860107 2.863770 -0.859619 0.262745 0.231373 0.149020 #1.000000
v 0.875244 3.230713 -0.875000 0.262745 0.231373 0.149020 #1.000000
v 1.252441 3.230713 0.000000 0.094118 0.078431 0.050980 #1.000000
v 0.860107 2.863770 -0.859619 0.262745 0.231373 0.149020 #1.000000
v 1.252441 3.230713 0.000000 0.094118 0.078431 0.050980 #1.000000
v 1.226807 2.863770 0.000000 0.050980 0.043137 0.011765 #1.000000
v 1.127197 3.438721 0.000000 0.450980 0.439216 0.392157 #1.000000
v 0.787842 3.438721 -0.787354 0.431373 0.411765 0.352941 #1.000000
v 0.680664 3.408691 -0.680420 0.368627 0.329412 0.250980 #1.000000
v 1.127197 3.438721 0.000000 0.450980 0.439216 0.392157 #1.000000
v 0.680664 3.408691 -0.680420 0.368627 0.329412 0.250980 #1.000000
v 0.962646 3.408691 0.000000 0.368627 0.329412 0.250980 #1.000000
v 0.962646 3.121826 0.000000 0.149020 0.215686 0.117647 #1.000000
v 0.680664 3.121826 -0.680420 0.149020 0.215686 0.117647 #1.000000
v 0.000244 3.121826 0.000000 0.270588 0.384314 0.121569 #1.000000
v 0.875244 3.230713 0.875000 0.262745 0.231373 0.149020 #1.000000
v 1.252441 3.230713 0.000000 0.094118 0.078431 0.050980 #1.000000
v 1.127197 3.438721 0.000000 0.450980 0.439216 0.392157 #1.000000
v 0.875244 3.230713 0.875000 0.262745 0.231373 0.149020 #1.000000
v 1.127197 3.438721 0.000000 0.450980 0.439216 0.392157 #1.000000
v 0.787842 3.438721 0.787354 0.431373 0.411765 0.352941 #1.000000
v -0.874512 3.230713 -0.875000 0.262745 0.231373 0.149020 #1.000000
v -0.787109 3.438721 -0.787354 0.431373 0.411765 0.352941 #1.000000
v 0.000244 3.438721 -1.113525 0.498039 0.498039 0.498039 #1.000000
v 0.509521 0.236816 -0.509033 0.133333 0.105882 0.070588 #1.000000
v 0.000244 0.236816 -0.719971 0.133333 0.105882 0.070588 #1.000000
v 0.000244 0.378418 -1.124756 0.376471 0.349020 0.290196 #1.000000
v 0.509521 0.236816 -0.509033 0.133333 0.105882 0.070588 #1.000000
v 0.000244 0.378418 -1.124756 0.376471 0.349020 0.290196 #1.000000
v 0.795898 0.378418 -0.795410 0.254902 0.227451 0.172549 #1.000000
v 0.000244 2.863770 -1.215576 0.498039 0.498039 0.498039 #1.000000
v 0.000244 3.230713 -1.237305 0.498039 0.498039 0.498039 #1.000000
v 0.875244 3.230713 -0.875000 0.262745 0.231373 0.149020 #1.000000
v 0.000244 2.863770 -1.215576 0.498039 0.498039 0.498039 #1.000000
v 0.875244 3.230713 -0.875000 0.262745 0.231373 0.149020 #1.000000
v 0.860107 2.863770 -0.859619 0.262745 0.231373 0.149020 #1.000000
v 0.787842 3.438721 -0.787354 0.431373 0.411765 0.352941 #1.000000
v 0.000244 3.438721 -1.113525 0.498039 0.498039 0.498039 #1.000000
v 0.000244 3.408691 -0.962158 0.368627 0.329412 0.250980 #1.000000
v 0.787842 3.438721 -0.787354 0.431373 0.411765 0.352941 #1.000000
v 0.000244 3.408691 -0.962158 0.368627 0.329412 0.250980 #1.000000
v 0.680664 3.408691 -0.680420 0.368627 0.329412 0.250980 #1.000000
v 0.680664 3.121826 -0.680420 0.149020 0.215686 0.117647 #1.000000
v 0.000244 3.121826 -0.962158 0.149020 0.215686 0.117647 #1.000000
v 0.000244 3.121826 0.000000 0.270588 0.384314 0.121569 #1.000000
v 0.875244 3.230713 0.875000 0.262745 0.231373 0.149020 #1.000000
v 0.787842 3.438721 0.787354 0.431373 0.411765 0.352941 #1.000000
v 0.000244 3.438721 1.113525 0.454902 0.439216 0.392157 #1.000000
v -0.874512 3.230713 0.875000 0.262745 0.231373 0.149020 #1.000000
v 0.000244 3.230713 1.237305 0.482353 0.486275 0.462745 #1.000000
v 0.000244 3.438721 1.113525 0.454902 0.439216 0.392157 #1.000000
v -0.874512 3.230713 0.875000 0.262745 0.231373 0.149020 #1.000000
v 0.000244 3.438721 1.113525 0.454902 0.439216 0.392157 #1.000000
v -0.787109 3.438721 0.787354 0.431373 0.411765 0.352941 #1.000000
v 0.000244 0.236816 -0.719971 0.133333 0.105882 0.070588 #1.000000
v -0.508545 0.236816 -0.509033 0.133333 0.105882 0.070588 #1.000000
v -0.794922 0.378418 -0.795410 0.254902 0.227451 0.172549 #1.000000
v 0.000244 0.236816 -0.719971 0.133333 0.105882 0.070588 #1.000000
v -0.794922 0.378418 -0.795410 0.254902 0.227451 0.172549 #1.000000
v 0.000244 0.378418 -1.124756 0.376471 0.349020 0.290196 #1.000000
v -0.859131 2.863770 -0.859619 0.262745 0.231373 0.149020 #1.000000
v -0.874512 3.230713 -0.875000 0.262745 0.231373 0.149020 #1.000000
v 0.000244 3.230713 -1.237305 0.498039 0.498039 0.498039 #1.000000
v -0.859131 2.863770 -0.859619 0.262745 0.231373 0.149020 #1.000000
v 0.000244 3.230713 -1.237305 0.498039 0.498039 0.498039 #1.000000
v 0.000244 2.863770 -1.215576 0.498039 0.498039 0.498039 #1.000000
v 0.000244 3.438721 -1.113525 0.498039 0.498039 0.498039 #1.000000
v -0.787109 3.438721 -0.787354 0.431373 0.411765 0.352941 #1.000000
v -0.679932 3.408691 -0.680420 0.368627 0.329412 0.250980 #1.000000
v 0.000244 3.438721 -1.113525 0.498039 0.498039 0.498039 #1.000000
v -0.679932 3.408691 -0.680420 0.368627 0.329412 0.250980 #1.000000
v 0.000244 3.408691 -0.962158 0.368627 0.329412 0.250980 #1.000000
v 0.000244 3.121826 -0.962158 0.149020 0.215686 0.117647 #1.000000
v -0.679932 3.121826 -0.680420 0.149020 0.215686 0.117647 #1.000000
v 0.000244 3.121826 0.000000 0.270588 0.384314 0.121569 #1.000000
v -1.251953 3.230713 0.000000 0.094118 0.078431 0.050980 #1.000000
v -0.874512 3.230713 0.875000 0.262745 0.231373 0.149020 #1.000000
v -0.787109 3.438721 0.787354 0.431373 0.411765 0.352941 #1.000000
v -1.251953 3.230713 0.000000 0.094118 0.078431 0.050980 #1.000000
v -0.787109 3.438721 0.787354 0.450980 0.439216 0.392157 #1.000000
v -1.126709 3.438721 0.000000 0.450980 0.439216 0.392157 #1.000000
v -0.874512 3.230713 -0.875000 0.262745 0.231373 0.149020 #1.000000
v -1.251953 3.230713 0.000000 0.094118 0.078431 0.050980 #1.000000
v -1.126709 3.438721 0.000000 0.450980 0.439216 0.392157 #1.000000
v -0.874512 3.230713 -0.875000 0.262745 0.231373 0.149020 #1.000000
v -1.126709 3.438721 0.000000 0.450980 0.439216 0.392157 #1.000000
v -0.787109 3.438721 -0.787354 0.431373 0.411765 0.352941 #1.000000
v -0.508545 0.236816 -0.509033 0.133333 0.105882 0.070588 #1.000000
v -0.719482 0.236816 0.000000 0.133333 0.105882 0.070588 #1.000000
v -1.124512 0.378418 0.000000 0.152941 0.129412 0.086275 #1.000000
v -0.508545 0.236816 -0.509033 0.133333 0.105882 0.070588 #1.000000
v -1.124512 0.378418 0.000000 0.152941 0.129412 0.086275 #1.000000
v -0.794922 0.378418 -0.795410 0.254902 0.227451 0.172549 #1.000000
v -1.226318 2.863770 0.000000 0.050980 0.043137 0.011765 #1.000000
v -1.251953 3.230713 0.000000 0.094118 0.078431 0.050980 #1.000000
v -0.874512 3.230713 -0.875000 0.262745 0.231373 0.149020 #1.000000
v -1.226318 2.863770 0.000000 0.050980 0.043137 0.011765 #1.000000
v -0.874512 3.230713 -0.875000 0.262745 0.231373 0.149020 #1.000000
v -0.859131 2.863770 -0.859619 0.262745 0.231373 0.149020 #1.000000
v -0.787109 3.438721 -0.787354 0.431373 0.411765 0.352941 #1.000000
v -1.126709 3.438721 0.000000 0.450980 0.439216 0.392157 #1.000000
v -0.961670 3.408691 0.000000 0.368627 0.329412 0.250980 #1.000000
v -0.787109 3.438721 -0.787354 0.431373 0.411765 0.352941 #1.000000
v -0.961670 3.408691 0.000000 0.368627 0.329412 0.250980 #1.000000
v -0.679932 3.408691 -0.680420 0.368627 0.329412 0.250980 #1.000000
v -0.679932 3.121826 -0.680420 0.149020 0.215686 0.117647 #1.000000
v -0.961670 3.121826 0.000000 0.149020 0.215686 0.117647 #1.000000
v 0.000244 3.121826 0.000000 0.270588 0.384314 0.121569 #1.000000
v -0.508545 0.236816 0.509033 0.262745 0.231373 0.149020 #1.000000
v -0.719482 0.236816 0.000000 0.105882 0.086275 0.050980 #1.000000
v -0.719482 0.005127 0.000000 0.152941 0.129412 0.086275 #1.000000
v -0.508545 0.236816 0.509033 0.262745 0.231373 0.149020 #1.000000
v -0.719482 0.005127 0.000000 0.152941 0.129412 0.086275 #1.000000
v -0.508545 0.005127 0.509033 0.262745 0.231373 0.149020 #1.000000
v 0.000244 0.236816 0.719971 0.450980 0.439216 0.392157 #1.000000
v -0.508545 0.236816 0.509033 0.262745 0.231373 0.149020 #1.000000
v -0.508545 0.005127 0.509033 0.262745 0.231373 0.149020 #1.000000
v 0.000244 0.236816 0.719971 0.450980 0.439216 0.392157 #1.000000
v -0.508545 0.005127 0.509033 0.262745 0.231373 0.149020 #1.000000
v 0.000244 0.005127 0.719971 0.478431 0.466667 0.435294 #1.000000
v 0.509521 0.236816 0.509033 0.262745 0.231373 0.149020 #1.000000
v 0.000244 0.236816 0.719971 0.450980 0.439216 0.392157 #1.000000
v 0.000244 0.005127 0.719971 0.478431 0.466667 0.435294 #1.000000
v 0.509521 0.236816 0.509033 0.262745 0.231373 0.149020 #1.000000
v 0.000244 0.005127 0.719971 0.478431 0.466667 0.435294 #1.000000
v 0.509521 0.005127 0.509033 0.262745 0.231373 0.149020 #1.000000
v 0.720215 0.236816 0.000000 0.105882 0.086275 0.050980 #1.000000
v 0.509521 0.236816 0.509033 0.262745 0.231373 0.149020 #1.000000
v 0.509521 0.005127 0.509033 0.262745 0.231373 0.149020 #1.000000
v 0.720215 0.236816 0.000000 0.105882 0.086275 0.050980 #1.000000
v 0.509521 0.005127 0.509033 0.262745 0.231373 0.149020 #1.000000
v 0.720215 0.005127 0.000000 0.152941 0.129412 0.086275 #1.000000
v 0.509521 0.236816 -0.509033 0.262745 0.231373 0.149020 #1.000000
v 0.720215 0.236816 0.000000 0.105882 0.086275 0.050980 #1.000000
v 0.720215 0.005127 0.000000 0.152941 0.129412 0.086275 #1.000000
v 0.509521 0.236816 -0.509033 0.262745 0.231373 0.149020 #1.000000
v 0.720215 0.005127 0.000000 0.152941 0.129412 0.086275 #1.000000
v 0.509521 0.005127 -0.509033 0.262745 0.231373 0.149020 #1.000000
v 0.000244 0.236816 -0.719971 0.450980 0.439216 0.392157 #1.000000
v 0.509521 0.236816 -0.509033 0.262745 0.231373 0.149020 #1.000000
v 0.509521 0.005127 -0.509033 0.262745 0.231373 0.149020 #1.000000
v 0.000244 0.236816 -0.719971 0.450980 0.439216 0.392157 #1.000000
v 0.509521 0.005127 -0.509033 0.262745 0.231373 0.149020 #1.000000
v 0.000244 0.005127 -0.719971 0.478431 0.466667 0.435294 #1.000000
v -0.508545 0.236816 -0.509033 0.262745 0.231373 0.149020 #1.000000
v 0.000244 0.236816 -0.719971 0.450980 0.439216 0.392157 #1.000000
v 0.000244 0.005127 -0.719971 0.478431 0.466667 0.435294 #1.000000
v -0.508545 0.236816 -0.509033 0.262745 0.231373 0.149020 #1.000000
v 0.000244 0.005127 -0.719971 0.478431 0.466667 0.435294 #1.000000
v -0.508545 0.005127 -0.509033 0.262745 0.231373 0.149020 #1.000000
v -0.719482 0.236816 0.000000 0.105882 0.086275 0.050980 #1.000000
v -0.508545 0.236816 -0.509033 0.262745 0.231373 0.149020 #1.000000
v -0.508545 0.005127 -0.509033 0.262745 0.231373 0.149020 #1.000000
v -0.719482 0.236816 0.000000 0.105882 0.086275 0.050980 #1.000000
v -0.508545 0.005127 -0.509033 0.262745 0.231373 0.149020 #1.000000
v -0.719482 0.005127 0.000000 0.152941 0.129412 0.086275 #1.000000
v -0.679932 3.408691 -0.680420 0.368627 0.329412 0.250980 #1.000000
v -0.961670 3.408691 0.000000 0.368627 0.329412 0.250980 #1.000000
v -0.961670 3.121826 0.000000 0.133333 0.105882 0.070588 #1.000000
v -0.679932 3.408691 -0.680420 0.368627 0.329412 0.250980 #1.000000
v -0.961670 3.121826 0.000000 0.133333 0.105882 0.070588 #1.000000
v -0.679932 3.121826 -0.680420 0.133333 0.105882 0.070588 #1.000000
v 0.000244 3.408691 -0.962158 0.368627 0.329412 0.250980 #1.000000
v -0.679932 3.408691 -0.680420 0.368627 0.329412 0.250980 #1.000000
v -0.679932 3.121826 -0.680420 0.133333 0.105882 0.070588 #1.000000
v 0.000244 3.408691 -0.962158 0.368627 0.329412 0.250980 #1.000000
v -0.679932 3.121826 -0.680420 0.133333 0.105882 0.070588 #1.000000
v 0.000244 3.121826 -0.962158 0.133333 0.105882 0.070588 #1.000000
v 0.680664 3.408691 -0.680420 0.368627 0.329412 0.250980 #1.000000
v 0.000244 3.408691 -0.962158 0.368627 0.329412 0.250980 #1.000000
v 0.000244 3.121826 -0.962158 0.133333 0.105882 0.070588 #1.000000
v 0.680664 3.408691 -0.680420 0.368627 0.329412 0.250980 #1.000000
v 0.000244 3.121826 -0.962158 0.133333 0.105882 0.070588 #1.000000
v 0.680664 3.121826 -0.680420 0.133333 0.105882 0.070588 #1.000000
v 0.962646 3.408691 0.000000 0.368627 0.329412 0.250980 #1.000000
v 0.680664 3.408691 -0.680420 0.368627 0.329412 0.250980 #1.000000
v 0.680664 3.121826 -0.680420 0.133333 0.105882 0.070588 #1.000000
v 0.962646 3.408691 0.000000 0.368627 0.329412 0.250980 #1.000000
v 0.680664 3.121826 -0.680420 0.133333 0.105882 0.070588 #1.000000
v 0.962646 3.121826 0.000000 0.133333 0.105882 0.070588 #1.000000
v 0.680664 3.408691 0.680420 0.368627 0.329412 0.250980 #1.000000
v 0.962646 3.408691 0.000000 0.368627 0.329412 0.250980 #1.000000
v 0.962646 3.121826 0.000000 0.133333 0.105882 0.070588 #1.000000
v 0.680664 3.408691 0.680420 0.368627 0.329412 0.250980 #1.000000
v 0.962646 3.121826 0.000000 0.133333 0.105882 0.070588 #1.000000
v 0.680664 3.121826 0.680420 0.133333 0.105882 0.070588 #1.000000
v 0.000244 3.408691 0.962158 0.368627 0.329412 0.250980 #1.000000
v 0.680664 3.408691 0.680420 0.368627 0.329412 0.250980 #1.000000
v 0.680664 3.121826 0.680420 0.133333 0.105882 0.070588 #1.000000
v 0.000244 3.408691 0.962158 0.368627 0.329412 0.250980 #1.000000
v 0.680664 3.121826 0.680420 0.133333 0.105882 0.070588 #1.000000
v 0.000244 3.121826 0.962158 0.133333 0.105882 0.070588 #1.000000
v -0.679932 3.408691 0.680420 0.368627 0.329412 0.250980 #1.000000
v 0.000244 3.408691 0.962158 0.368627 0.329412 0.250980 #1.000000
v 0.000244 3.121826 0.962158 0.133333 0.105882 0.070588 #1.000000
v -0.679932 3.408691 0.680420 0.368627 0.329412 0.250980 #1.000000
v 0.000244 3.121826 0.962158 0.133333 0.105882 0.070588 #1.000000
v -0.679932 3.121826 0.680420 0.133333 0.105882 0.070588 #1.000000
v -0.961670 3.408691 0.000000 0.368627 0.329412 0.250980 #1.000000
v -0.679932 3.408691 0.680420 0.368627 0.329412 0.250980 #1.000000
v -0.679932 3.121826 0.680420 0.133333 0.105882 0.070588 #1.000000
v -0.961670 3.408691 0.000000 0.368627 0.329412 0.250980 #1.000000
v -0.679932 3.121826 0.680420 0.133333 0.105882 0.070588 #1.000000
v -0.961670 3.121826 0.000000 0.133333 0.105882 0.070588 #1.000000
v 0.000244 0.378418 1.124756 0.376471 0.349020 0.290196 #1.000000
v 0.000244 0.551270 1.243652 0.498039 0.498039 0.498039 #1.000000
v -0.878906 0.551270 0.879395 0.262745 0.231373 0.149020 #1.000000
v 0.879883 0.551270 0.879395 0.262745 0.231373 0.149020 #1.000000
v 0.000244 0.551270 1.243652 0.498039 0.498039 0.498039 #1.000000
v 0.000244 0.378418 1.124756 0.376471 0.349020 0.290196 #1.000000
v -0.878906 0.551270 -0.879395 0.262745 0.231373 0.149020 #1.000000
v 0.000244 0.551270 -1.243652 0.498039 0.498039 0.498039 #1.000000
v 0.000244 0.378418 -1.124756 0.376471 0.349020 0.290196 #1.000000
v 0.000244 3.438721 1.113525 0.454902 0.439216 0.392157 #1.000000
v 0.000244 3.230713 1.237305 0.482353 0.486275 0.462745 #1.000000
v 0.875244 3.230713 0.875000 0.262745 0.231373 0.149020 #1.000000
v 0.000244 3.438721 -1.113525 0.498039 0.498039 0.498039 #1.000000
v 0.000244 3.230713 -1.237305 0.498039 0.498039 0.498039 #1.000000
v -0.874512 3.230713 -0.875000 0.262745 0.231373 0.149020 #1.000000
v -0.860352 0.945801 0.860596 0.262745 0.231373 0.149020 #1.000000
v -0.878906 0.551270 0.879395 0.262745 0.231373 0.149020 #1.000000
v 0.000244 0.551270 1.243652 0.498039 0.498039 0.498039 #1.000000
v -0.860352 0.945801 0.860596 0.262745 0.231373 0.149020 #1.000000
v 0.000244 0.551270 1.243652 0.498039 0.498039 0.498039 #1.000000
v 0.000244 0.945801 1.217285 0.494118 0.494118 0.490196 #1.000000
v 0.000244 0.945801 1.217285 0.494118 0.494118 0.490196 #1.000000
v 0.000244 0.551270 1.243652 0.498039 0.498039 0.498039 #1.000000
v 0.879883 0.551270 0.879395 0.262745 0.231373 0.149020 #1.000000
v 0.000244 0.945801 1.217285 0.494118 0.494118 0.490196 #1.000000
v 0.879883 0.551270 0.879395 0.262745 0.231373 0.149020 #1.000000
v 0.861084 0.945801 0.860596 0.262745 0.231373 0.149020 #1.000000
v 0.861084 0.945801 0.860596 0.262745 0.231373 0.149020 #1.000000
v 0.879883 0.551270 0.879395 0.262745 0.231373 0.149020 #1.000000
v 1.251465 0.551270 0.000000 0.094118 0.078431 0.050980 #1.000000
v 0.861084 0.945801 0.860596 0.262745 0.231373 0.149020 #1.000000
v 1.251465 0.551270 0.000000 0.094118 0.078431 0.050980 #1.000000
v 1.226563 0.945801 0.000000 0.050980 0.043137 0.011765 #1.000000
v 1.226563 0.945801 0.000000 0.050980 0.043137 0.011765 #1.000000
v 1.251465 0.551270 0.000000 0.094118 0.078431 0.050980 #1.000000
v 0.879883 0.551270 -0.879395 0.262745 0.231373 0.149020 #1.000000
v 1.226563 0.945801 0.000000 0.050980 0.043137 0.011765 #1.000000
v 0.879883 0.551270 -0.879395 0.262745 0.231373 0.149020 #1.000000
v 0.861084 0.945801 -0.860596 0.262745 0.231373 0.149020 #1.000000
v 1.226807 2.863770 0.000000 0.050980 0.043137 0.011765 #1.000000
v 1.226563 0.945801 0.000000 0.050980 0.043137 0.011765 #1.000000
v 0.861084 0.945801 -0.860596 0.262745 0.231373 0.149020 #1.000000
v 1.226807 2.863770 0.000000 0.050980 0.043137 0.011765 #1.000000
v 0.861084 0.945801 -0.860596 0.262745 0.231373 0.149020 #1.000000
v 0.860107 2.863770 -0.859619 0.262745 0.231373 0.149020 #1.000000
v 0.860107 2.863770 0.859619 0.262745 0.231373 0.149020 #1.000000
v 0.861084 0.945801 0.860596 0.262745 0.231373 0.149020 #1.000000
v 1.226563 0.945801 0.000000 0.050980 0.043137 0.011765 #1.000000
v 0.860107 2.863770 0.859619 0.262745 0.231373 0.149020 #1.000000
v 1.226563 0.945801 0.000000 0.050980 0.043137 0.011765 #1.000000
v 1.226807 2.863770 0.000000 0.050980 0.043137 0.011765 #1.000000
v 0.000244 2.863770 1.215576 0.490196 0.494118 0.478431 #1.000000
v 0.000244 0.945801 1.217285 0.494118 0.494118 0.490196 #1.000000
v 0.861084 0.945801 0.860596 0.262745 0.231373 0.149020 #1.000000
v 0.000244 2.863770 1.215576 0.490196 0.494118 0.478431 #1.000000
v 0.861084 0.945801 0.860596 0.262745 0.231373 0.149020 #1.000000
v 0.860107 2.863770 0.859619 0.262745 0.231373 0.149020 #1.000000
v -0.859131 2.863770 0.859619 0.262745 0.231373 0.149020 #1.000000
v -0.860352 0.945801 0.860596 0.262745 0.231373 0.149020 #1.000000
v 0.000244 0.945801 1.217285 0.494118 0.494118 0.490196 #1.000000
v -0.859131 2.863770 0.859619 0.262745 0.231373 0.149020 #1.000000
v 0.000244 0.945801 1.217285 0.494118 0.494118 0.490196 #1.000000
v 0.000244 2.863770 1.215576 0.490196 0.494118 0.478431 #1.000000
v -1.226074 0.945801 0.000000 0.050980 0.043137 0.011765 #1.000000
v -1.250732 0.551270 0.000000 0.094118 0.078431 0.050980 #1.000000
v -0.878906 0.551270 0.879395 0.262745 0.231373 0.149020 #1.000000
v -1.226074 0.945801 0.000000 0.050980 0.043137 0.011765 #1.000000
v -0.878906 0.551270 0.879395 0.262745 0.231373 0.149020 #1.000000
v -0.860352 0.945801 0.860596 0.262745 0.231373 0.149020 #1.000000
v -0.860352 0.945801 -0.860596 0.262745 0.231373 0.149020 #1.000000
v -0.878906 0.551270 -0.879395 0.262745 0.231373 0.149020 #1.000000
v -1.250732 0.551270 0.000000 0.094118 0.078431 0.050980 #1.000000
v -0.860352 0.945801 -0.860596 0.262745 0.231373 0.149020 #1.000000
v -1.250732 0.551270 0.000000 0.094118 0.078431 0.050980 #1.000000
v -1.226074 0.945801 0.000000 0.050980 0.043137 0.011765 #1.000000
v -0.859131 2.863770 -0.859619 0.262745 0.231373 0.149020 #1.000000
v -0.860352 0.945801 -0.860596 0.262745 0.231373 0.149020 #1.000000
v -1.226074 0.945801 0.000000 0.050980 0.043137 0.011765 #1.000000
v -0.859131 2.863770 -0.859619 0.262745 0.231373 0.149020 #1.000000
v -1.226074 0.945801 0.000000 0.050980 0.043137 0.011765 #1.000000
v -1.226318 2.863770 0.000000 0.050980 0.043137 0.011765 #1.000000
v -1.226318 2.863770 0.000000 0.050980 0.043137 0.011765 #1.000000
v -1.226074 0.945801 0.000000 0.050980 0.043137 0.011765 #1.000000
v -0.860352 0.945801 0.860596 0.262745 0.231373 0.149020 #1.000000
v -1.226318 2.863770 0.000000 0.050980 0.043137 0.011765 #1.000000
v -0.860352 0.945801 0.860596 0.262745 0.231373 0.149020 #1.000000
v -0.859131 2.863770 0.859619 0.262745 0.231373 0.149020 #1.000000
v 0.000244 0.945801 -1.217285 0.498039 0.498039 0.498039 #1.000000
v 0.000244 0.551270 -1.243652 0.498039 0.498039 0.498039 #1.000000
v -0.878906 0.551270 -0.879395 0.262745 0.231373 0.149020 #1.000000
v 0.000244 0.945801 -1.217285 0.498039 0.498039 0.498039 #1.000000
v -0.878906 0.551270 -0.879395 0.262745 0.231373 0.149020 #1.000000
v -0.860352 0.945801 -0.860596 0.262745 0.231373 0.149020 #1.000000
v 0.861084 0.945801 -0.860596 0.262745 0.231373 0.149020 #1.000000
v 0.879883 0.551270 -0.879395 0.262745 0.231373 0.149020 #1.000000
v 0.000244 0.551270 -1.243652 0.498039 0.498039 0.498039 #1.000000
v 0.861084 0.945801 -0.860596 0.262745 0.231373 0.149020 #1.000000
v 0.000244 0.551270 -1.243652 0.498039 0.498039 0.498039 #1.000000
v 0.000244 0.945801 -1.217285 0.498039 0.498039 0.498039 #1.000000
v 0.860107 2.863770 -0.859619 0.262745 0.231373 0.149020 #1.000000
v 0.861084 0.945801 -0.860596 0.262745 0.231373 0.149020 #1.000000
v 0.000244 0.945801 -1.217285 0.498039 0.498039 0.498039 #1.000000
v 0.860107 2.863770 -0.859619 0.262745 0.231373 0.149020 #1.000000
v 0.000244 0.945801 -1.217285 0.498039 0.498039 0.498039 #1.000000
v 0.000244 2.863770 -1.215576 0.498039 0.498039 0.498039 #1.000000
v 0.000244 2.863770 -1.215576 0.498039 0.498039 0.498039 #1.000000
v 0.000244 0.945801 -1.217285 0.498039 0.498039 0.498039 #1.000000
v -0.860352 0.945801 -0.860596 0.262745 0.231373 0.149020 #1.000000
v 0.000244 2.863770 -1.215576 0.498039 0.498039 0.498039 #1.000000
v -0.860352 0.945801 -0.860596 0.262745 0.231373 0.149020 #1.000000
v -0.859131 2.863770 -0.859619 0.262745 0.231373 0.149020 #1.000000
vt 0.764893 0.840820 0.000000
vt 0.731445 0.891113 0.000000
vt 0.499756 0.891113 0.000000
vt 0.999268 0.840820 0.000000
vt 0.948975 0.891113 0.000000
vt 0.731445 0.891113 0.000000
vt 0.999268 0.840820 0.000000
vt 0.731445 0.891113 0.000000
vt 0.764893 0.840820 0.000000
vt 0.701416 0.893311 0.000000
vt 0.617188 0.893311 0.000000
vt 0.731445 0.891113 0.000000
vt 0.701416 0.893311 0.000000
vt 0.731445 0.891113 0.000000
vt 0.948975 0.891113 0.000000
vt 0.248535 0.145996 0.000000
vt 0.239746 0.060547 0.000000
vt 0.000000 0.060547 0.000000
vt 0.248535 0.145996 0.000000
vt 0.000000 0.060547 0.000000
vt 0.007324 0.145996 0.000000
vt 0.949951 0.000000 0.000000
vt 0.728271 0.000000 0.000000
vt 0.685547 0.008789 0.000000
vt 0.949951 0.000000 0.000000
vt 0.685547 0.008789 0.000000
vt 0.798096 0.008789 0.000000
vt 0.798096 0.076660 0.000000
vt 0.685547 0.076660 0.000000
vt 0.499756 0.076660 0.000000
vt 0.764893 0.840820 0.000000
vt 0.731445 0.891113 0.000000
vt 0.948975 0.891113 0.000000
vt 0.764893 0.840820 0.000000
vt 0.948975 0.891113 0.000000
vt 0.999268 0.840820 0.000000
vt 0.499756 0.891113 0.000000
vt 0.731445 0.891113 0.000000
vt 0.764893 0.840820 0.000000
vt 0.617188 0.893311 0.000000
vt 0.499756 0.893311 0.000000
vt 0.499756 0.891113 0.000000
vt 0.617188 0.893311 0.000000
vt 0.499756 0.891113 0.000000
vt 0.731445 0.891113 0.000000
vt 0.507568 0.145996 0.000000
vt 0.499756 0.060547 0.000000
vt 0.239746 0.060547 0.000000
vt 0.507568 0.145996 0.000000
vt 0.239746 0.060547 0.000000
vt 0.248535 0.145996 0.000000
vt 0.728271 0.000000 0.000000
vt 0.499756 0.000000 0.000000
vt 0.499756 0.008789 0.000000
vt 0.728271 0.000000 0.000000
vt 0.499756 0.008789 0.000000
vt 0.685547 0.008789 0.000000
vt 0.685547 0.076660 0.000000
vt 0.499756 0.076660 0.000000
vt 0.499756 0.076660 0.000000
vt 0.218994 0.840820 0.000000
vt 0.252441 0.891113 0.000000
vt 0.499756 0.891113 0.000000
vt 0.218994 0.840820 0.000000
vt 0.499756 0.891113 0.000000
vt 0.499756 0.840820 0.000000
vt 0.000244 0.840820 0.000000
vt 0.050537 0.891113 0.000000
vt 0.252441 0.891113 0.000000
vt 0.000244 0.840820 0.000000
vt 0.252441 0.891113 0.000000
vt 0.218994 0.840820 0.000000
vt 0.499756 0.893311 0.000000
vt 0.366943 0.893311 0.000000
vt 0.252441 0.891113 0.000000
vt 0.499756 0.893311 0.000000
vt 0.252441 0.891113 0.000000
vt 0.499756 0.891113 0.000000
vt 0.774658 0.145996 0.000000
vt 0.767578 0.060547 0.000000
vt 0.499756 0.060547 0.000000
vt 0.774658 0.145996 0.000000
vt 0.499756 0.060547 0.000000
vt 0.507568 0.145996 0.000000
vt 0.499756 0.000000 0.000000
vt 0.255615 0.000000 0.000000
vt 0.298340 0.008789 0.000000
vt 0.499756 0.000000 0.000000
vt 0.298340 0.008789 0.000000
vt 0.499756 0.008789 0.000000
vt 0.499756 0.076660 0.000000
vt 0.298340 0.076660 0.000000
vt 0.499756 0.076660 0.000000
vt 0.218994 0.840820 0.000000
vt 0.252441 0.891113 0.000000
vt 0.050537 0.891113 0.000000
vt 0.218994 0.840820 0.000000
vt 0.050537 0.891113 0.000000
vt 0.000244 0.840820 0.000000
vt 0.499756 0.891113 0.000000
vt 0.252441 0.891113 0.000000
vt 0.218994 0.840820 0.000000
vt 0.366943 0.893311 0.000000
vt 0.282715 0.893311 0.000000
vt 0.050537 0.891113 0.000000
vt 0.366943 0.893311 0.000000
vt 0.050537 0.891113 0.000000
vt 0.252441 0.891113 0.000000
vt 0.007813 0.145996 0.000000
vt 0.000000 0.060547 0.000000
vt 0.142578 0.060547 0.000000
vt 0.007813 0.145996 0.000000
vt 0.142578 0.060547 0.000000
vt 0.149658 0.145996 0.000000
vt 0.255615 0.000000 0.000000
vt 0.049805 0.000000 0.000000
vt 0.186035 0.008789 0.000000
vt 0.255615 0.000000 0.000000
vt 0.186035 0.008789 0.000000
vt 0.298340 0.008789 0.000000
vt 0.298340 0.076660 0.000000
vt 0.186035 0.076660 0.000000
vt 0.499756 0.076660 0.000000
vt 0.220703 0.060547 0.000000
vt 0.499756 0.060547 0.000000
vt 0.499756 0.000000 0.000000
vt 0.220703 0.060547 0.000000
vt 0.499756 0.000000 0.000000
vt 0.255615 0.000000 0.000000
vt 0.000000 0.060547 0.000000
vt 0.220703 0.060547 0.000000
vt 0.255615 0.000000 0.000000
vt 0.000000 0.060547 0.000000
vt 0.255615 0.000000 0.000000
vt 0.049805 0.000000 0.000000
vt 0.282715 0.893311 0.000000
vt 0.366943 0.893311 0.000000
vt 0.252441 0.891113 0.000000
vt 0.282715 0.893311 0.000000
vt 0.252441 0.891113 0.000000
vt 0.050537 0.891113 0.000000
vt 0.243408 0.145996 0.000000
vt 0.236328 0.060547 0.000000
vt 0.000000 0.060547 0.000000
vt 0.243408 0.145996 0.000000
vt 0.000000 0.060547 0.000000
vt 0.007813 0.145996 0.000000
vt 0.049805 0.000000 0.000000
vt 0.255615 0.000000 0.000000
vt 0.298340 0.008789 0.000000
vt 0.049805 0.000000 0.000000
vt 0.298340 0.008789 0.000000
vt 0.186035 0.008789 0.000000
vt 0.186035 0.076660 0.000000
vt 0.298340 0.076660 0.000000
vt 0.499756 0.076660 0.000000
vt 0.220703 0.060547 0.000000
vt 0.000000 0.060547 0.000000
vt 0.049805 0.000000 0.000000
vt 0.220703 0.060547 0.000000
vt 0.049805 0.000000 0.000000
vt 0.255615 0.000000 0.000000
vt 0.763184 0.060547 0.000000
vt 0.728271 0.000000 0.000000
vt 0.499756 0.000000 0.000000
vt 0.366943 0.893311 0.000000
vt 0.499756 0.893311 0.000000
vt 0.499756 0.891113 0.000000
vt 0.366943 0.893311 0.000000
vt 0.499756 0.891113 0.000000
vt 0.252441 0.891113 0.000000
vt 0.507568 0.145996 0.000000
vt 0.499756 0.060547 0.000000
vt 0.236328 0.060547 0.000000
vt 0.507568 0.145996 0.000000
vt 0.236328 0.060547 0.000000
vt 0.243408 0.145996 0.000000
vt 0.255615 0.000000 0.000000
vt 0.499756 0.000000 0.000000
vt 0.499756 0.008789 0.000000
vt 0.255615 0.000000 0.000000
vt 0.499756 0.008789 0.000000
vt 0.298340 0.008789 0.000000
vt 0.298340 0.076660 0.000000
vt 0.499756 0.076660 0.000000
vt 0.499756 0.076660 0.000000
vt 0.220703 0.060547 0.000000
vt 0.255615 0.000000 0.000000
vt 0.499756 0.000000 0.000000
vt 0.763184 0.060547 0.000000
vt 0.499756 0.060547 0.000000
vt 0.499756 0.000000 0.000000
vt 0.763184 0.060547 0.000000
vt 0.499756 0.000000 0.000000
vt 0.728271 0.000000 0.000000
vt 0.499756 0.893311 0.000000
vt 0.617188 0.893311 0.000000
vt 0.731445 0.891113 0.000000
vt 0.499756 0.893311 0.000000
vt 0.731445 0.891113 0.000000
vt 0.499756 0.891113 0.000000
vt 0.771973 0.145996 0.000000
vt 0.763184 0.060547 0.000000
vt 0.499756 0.060547 0.000000
vt 0.771973 0.145996 0.000000
vt 0.499756 0.060547 0.000000
vt 0.507568 0.145996 0.000000
vt 0.499756 0.000000 0.000000
vt 0.728271 0.000000 0.000000
vt 0.685547 0.008789 0.000000
vt 0.499756 0.000000 0.000000
vt 0.685547 0.008789 0.000000
vt 0.499756 0.008789 0.000000
vt 0.499756 0.076660 0.000000
vt 0.685547 0.076660 0.000000
vt 0.499756 0.076660 0.000000
vt 0.999756 0.060547 0.000000
vt 0.763184 0.060547 0.000000
vt 0.728271 0.000000 0.000000
vt 0.999756 0.060547 0.000000
vt 0.728271 0.000000 0.000000
vt 0.949951 0.000000 0.000000
vt 0.763184 0.060547 0.000000
vt 0.999756 0.060547 0.000000
vt 0.949951 0.000000 0.000000
vt 0.763184 0.060547 0.000000
vt 0.949951 0.000000 0.000000
vt 0.728271 0.000000 0.000000
vt 0.617188 0.893311 0.000000
vt 0.701416 0.893311 0.000000
vt 0.948975 0.891113 0.000000
vt 0.617188 0.893311 0.000000
vt 0.948975 0.891113 0.000000
vt 0.731445 0.891113 0.000000
vt 0.007324 0.145996 0.000000
vt 0.000000 0.060547 0.000000
vt 0.106934 0.060547 0.000000
vt 0.007324 0.145996 0.000000
vt 0.106934 0.060547 0.000000
vt 0.115723 0.145996 0.000000
vt 0.728271 0.000000 0.000000
vt 0.949951 0.000000 0.000000
vt 0.798096 0.008789 0.000000
vt 0.728271 0.000000 0.000000
vt 0.798096 0.008789 0.000000
vt 0.685547 0.008789 0.000000
vt 0.685547 0.076660 0.000000
vt 0.798096 0.076660 0.000000
vt 0.499756 0.076660 0.000000
vt 0.617188 0.893311 0.000000
vt 0.701416 0.893311 0.000000
vt 0.701416 0.992188 0.000000
vt 0.617188 0.893311 0.000000
vt 0.701416 0.992188 0.000000
vt 0.617188 0.992188 0.000000
vt 0.499756 0.893311 0.000000
vt 0.617188 0.893311 0.000000
vt 0.617188 0.992188 0.000000
vt 0.499756 0.893311 0.000000
vt 0.617188 0.992188 0.000000
vt 0.499756 0.992188 0.000000
vt 0.366943 0.893311 0.000000
vt 0.499756 0.893311 0.000000
vt 0.499756 0.992188 0.000000
vt 0.366943 0.893311 0.000000
vt 0.499756 0.992188 0.000000
vt 0.366943 0.992188 0.000000
vt 0.282715 0.893311 0.000000
vt 0.366943 0.893311 0.000000
vt 0.366943 0.992188 0.000000
vt 0.282715 0.893311 0.000000
vt 0.366943 0.992188 0.000000
vt 0.282715 0.992188 0.000000
vt 0.366943 0.893311 0.000000
vt 0.282715 0.893311 0.000000
vt 0.282715 0.992188 0.000000
vt 0.366943 0.893311 0.000000
vt 0.282715 0.992188 0.000000
vt 0.366943 0.992188 0.000000
vt 0.499756 0.893311 0.000000
vt 0.366943 0.893311 0.000000
vt 0.366943 0.992188 0.000000
vt 0.499756 0.893311 0.000000
vt 0.366943 0.992188 0.000000
vt 0.499756 0.992188 0.000000
vt 0.617188 0.893311 0.000000
vt 0.499756 0.893311 0.000000
vt 0.499756 0.992188 0.000000
vt 0.617188 0.893311 0.000000
vt 0.499756 0.992188 0.000000
vt 0.617188 0.992188 0.000000
vt 0.701416 0.893311 0.000000
vt 0.617188 0.893311 0.000000
vt 0.617188 0.992188 0.000000
vt 0.701416 0.893311 0.000000
vt 0.617188 0.992188 0.000000
vt 0.701416 0.992188 0.000000
vt 0.685547 0.008789 0.000000
vt 0.798096 0.008789 0.000000
vt 0.798096 0.076660 0.000000
vt 0.685547 0.008789 0.000000
vt 0.798096 0.076660 0.000000
vt 0.685547 0.076660 0.000000
vt 0.499756 0.008789 0.000000
vt 0.685547 0.008789 0.000000
vt 0.685547 0.076660 0.000000
vt 0.499756 0.008789 0.000000
vt 0.685547 0.076660 0.000000
vt 0.499756 0.076660 0.000000
vt 0.298340 0.008789 0.000000
vt 0.499756 0.008789 0.000000
vt 0.499756 0.076660 0.000000
vt 0.298340 0.008789 0.000000
vt 0.499756 0.076660 0.000000
vt 0.298340 0.076660 0.000000
vt 0.186035 0.008789 0.000000
vt 0.298340 0.008789 0.000000
vt 0.298340 0.076660 0.000000
vt 0.186035 0.008789 0.000000
vt 0.298340 0.076660 0.000000
vt 0.186035 0.076660 0.000000
vt 0.298340 0.008789 0.000000
vt 0.186035 0.008789 0.000000
vt 0.186035 0.076660 0.000000
vt 0.298340 0.008789 0.000000
vt 0.186035 0.076660 0.000000
vt 0.298340 0.076660 0.000000
vt 0.499756 0.008789 0.000000
vt 0.298340 0.008789 0.000000
vt 0.298340 0.076660 0.000000
vt 0.499756 0.008789 0.000000
vt 0.298340 0.076660 0.000000
vt 0.499756 0.076660 0.000000
vt 0.685547 0.008789 0.000000
vt 0.499756 0.008789 0.000000
vt 0.499756 0.076660 0.000000
vt 0.685547 0.008789 0.000000
vt 0.499756 0.076660 0.000000
vt 0.685547 0.076660 0.000000
vt 0.798096 0.008789 0.000000
vt 0.685547 0.008789 0.000000
vt 0.685547 0.076660 0.000000
vt 0.798096 0.008789 0.000000
vt 0.685547 0.076660 0.000000
vt 0.798096 0.076660 0.000000
vt 0.499756 0.891113 0.000000
vt 0.499756 0.840820 0.000000
vt 0.764893 0.840820 0.000000
vt 0.218994 0.840820 0.000000
vt 0.499756 0.840820 0.000000
vt 0.499756 0.891113 0.000000
vt 0.764893 0.840820 0.000000
vt 0.499756 0.840820 0.000000
vt 0.499756 0.891113 0.000000
vt 0.499756 0.000000 0.000000
vt 0.499756 0.060547 0.000000
vt 0.220703 0.060547 0.000000
vt 0.499756 0.000000 0.000000
vt 0.499756 0.060547 0.000000
vt 0.763184 0.060547 0.000000
vt 0.249023 0.731689 0.000000
vt 0.241455 0.840820 0.000000
vt 0.499756 0.840820 0.000000
vt 0.249023 0.731689 0.000000
vt 0.499756 0.840820 0.000000
vt 0.507568 0.731689 0.000000
vt 0.507568 0.731689 0.000000
vt 0.499756 0.840820 0.000000
vt 0.765869 0.840820 0.000000
vt 0.507568 0.731689 0.000000
vt 0.765869 0.840820 0.000000
vt 0.774170 0.731689 0.000000
vt 0.149170 0.731689 0.000000
vt 0.140869 0.840820 0.000000
vt 0.000244 0.840820 0.000000
vt 0.149170 0.731689 0.000000
vt 0.000244 0.840820 0.000000
vt 0.008057 0.731689 0.000000
vt 0.008057 0.731689 0.000000
vt 0.000244 0.840820 0.000000
vt 0.234619 0.840820 0.000000
vt 0.008057 0.731689 0.000000
vt 0.234619 0.840820 0.000000
vt 0.242920 0.731689 0.000000
vt 0.007813 0.145996 0.000000
vt 0.008057 0.731689 0.000000
vt 0.242920 0.731689 0.000000
vt 0.007813 0.145996 0.000000
vt 0.242920 0.731689 0.000000
vt 0.243408 0.145996 0.000000
vt 0.149658 0.145996 0.000000
vt 0.149170 0.731689 0.000000
vt 0.008057 0.731689 0.000000
vt 0.149658 0.145996 0.000000
vt 0.008057 0.731689 0.000000
vt 0.007813 0.145996 0.000000
vt 0.507568 0.145996 0.000000
vt 0.507568 0.731689 0.000000
vt 0.774170 0.731689 0.000000
vt 0.507568 0.145996 0.000000
vt 0.774170 0.731689 0.000000
vt 0.774658 0.145996 0.000000
vt 0.248535 0.145996 0.000000
vt 0.249023 0.731689 0.000000
vt 0.507568 0.731689 0.000000
vt 0.248535 0.145996 0.000000
vt 0.507568 0.731689 0.000000
vt 0.507568 0.145996 0.000000
vt 0.007324 0.731689 0.000000
vt -0.000488 0.840820 0.000000
vt 0.241455 0.840820 0.000000
vt 0.007324 0.731689 0.000000
vt 0.241455 0.840820 0.000000
vt 0.249023 0.731689 0.000000
vt 0.116211 0.731689 0.000000
vt 0.108643 0.840820 0.000000
vt -0.000488 0.840820 0.000000
vt 0.116211 0.731689 0.000000
vt -0.000488 0.840820 0.000000
vt 0.007324 0.731689 0.000000
vt 0.115723 0.145996 0.000000
vt 0.116211 0.731689 0.000000
vt 0.007324 0.731689 0.000000
vt 0.115723 0.145996 0.000000
vt 0.007324 0.731689 0.000000
vt 0.007324 0.145996 0.000000
vt 0.007324 0.145996 0.000000
vt 0.007324 0.731689 0.000000
vt 0.249023 0.731689 0.000000
vt 0.007324 0.145996 0.000000
vt 0.249023 0.731689 0.000000
vt 0.248535 0.145996 0.000000
vt 0.507568 0.731689 0.000000
vt 0.499756 0.840820 0.000000
vt 0.764893 0.840820 0.000000
vt 0.507568 0.731689 0.000000
vt 0.764893 0.840820 0.000000
vt 0.772461 0.731689 0.000000
vt 0.242920 0.731689 0.000000
vt 0.234619 0.840820 0.000000
vt 0.499756 0.840820 0.000000
vt 0.242920 0.731689 0.000000
vt 0.499756 0.840820 0.000000
vt 0.507568 0.731689 0.000000
vt 0.243408 0.145996 0.000000
vt 0.242920 0.731689 0.000000
vt 0.507568 0.731689 0.000000
vt 0.243408 0.145996 0.000000
vt 0.507568 0.731689 0.000000
vt 0.507568 0.145996 0.000000
vt 0.507568 0.145996 0.000000
vt 0.507568 0.731689 0.000000
vt 0.772461 0.731689 0.000000
vt 0.507568 0.145996 0.000000
vt 0.772461 0.731689 0.000000
vt 0.771973 0.145996 0.000000
vn 0.686035 0.268555 0.676025
vn 0.478027 0.799072 0.364258
vn 0.020996 0.769775 0.637695
vn 0.959717 0.279785 -0.012695
vn 0.591553 0.801758 -0.083496
vn 0.478027 0.799072 0.364258
vn 0.959717 0.279785 -0.012695
vn 0.478027 0.799072 0.364258
vn 0.686035 0.268555 0.676025
vn 0.329346 0.942871 0.045410
vn 0.200684 0.942871 0.264893
vn 0.478027 0.799072 0.364258
vn 0.329346 0.942871 0.045410
vn 0.478027 0.799072 0.364258
vn 0.591553 0.801758 -0.083496
vn 0.702148 0.030762 0.710938
vn 0.582764 -0.236816 0.777100
vn 0.961670 -0.236084 0.137695
vn 0.702148 0.030762 0.710938
vn 0.961670 -0.236084 0.137695
vn 0.999268 0.032959 -0.000732
vn -0.184326 -0.982422 -0.026611
vn -0.118164 -0.980225 -0.157959
vn -0.151123 -0.981201 -0.117676
vn -0.184326 -0.982422 -0.026611
vn -0.151123 -0.981201 -0.117676
vn -0.185059 -0.982178 0.027832
vn 0.000000 -1.000000 0.000000
vn 0.000000 -1.000000 0.000000
vn 0.000000 -1.000000 0.000000
vn 0.623047 0.318359 -0.714111
vn 0.366699 0.835938 -0.407959
vn 0.591553 0.801758 -0.083496
vn 0.623047 0.318359 -0.714111
vn 0.591553 0.801758 -0.083496
vn 0.959717 0.279785 -0.012695
vn -0.020996 0.769775 -0.637695
vn 0.366699 0.835938 -0.407959
vn 0.623047 0.318359 -0.714111
vn 0.200684 0.942871 0.264893
vn -0.045410 0.942871 0.329346
vn 0.020996 0.769775 0.637695
vn 0.200684 0.942871 0.264893
vn 0.020996 0.769775 0.637695
vn 0.478027 0.799072 0.364258
vn 0.000000 0.029053 0.999512
vn -0.085205 -0.178467 0.979980
vn 0.582764 -0.236816 0.777100
vn 0.000000 0.029053 0.999512
vn 0.582764 -0.236816 0.777100
vn 0.702148 0.030762 0.710938
vn -0.118164 -0.980225 -0.157959
vn 0.026855 -0.980225 -0.195313
vn -0.026855 -0.980225 -0.195313
vn -0.118164 -0.980225 -0.157959
vn -0.026855 -0.980225 -0.195313
vn -0.151123 -0.981201 -0.117676
vn 0.000000 -1.000000 0.000000
vn 0.000000 -1.000000 0.000000
vn 0.000000 -1.000000 0.000000
vn -0.686035 0.268555 -0.675781
vn -0.478027 0.799072 -0.364258
vn -0.020996 0.769775 -0.637695
vn -0.686035 0.268555 -0.675781
vn -0.020996 0.769775 -0.637695
vn -0.085938 0.199707 -0.975830
vn -0.959961 0.279541 0.012695
vn -0.591797 0.801514 0.083252
vn -0.478027 0.799072 -0.364258
vn -0.959961 0.279541 0.012695
vn -0.478027 0.799072 -0.364258
vn -0.686035 0.268555 -0.675781
vn -0.045410 0.942871 0.329346
vn -0.264893 0.942871 0.200684
vn -0.366699 0.835938 0.407959
vn -0.045410 0.942871 0.329346
vn -0.366699 0.835938 0.407959
vn 0.020996 0.769775 0.637695
vn -0.703125 0.029053 0.710205
vn -0.715332 -0.279541 0.640137
vn -0.085205 -0.178467 0.979980
vn -0.703125 0.029053 0.710205
vn -0.085205 -0.178467 0.979980
vn 0.000000 0.029053 0.999512
vn 0.026855 -0.980225 -0.195313
vn 0.152100 -0.981201 -0.117920
vn 0.118896 -0.980225 -0.157227
vn 0.026855 -0.980225 -0.195313
vn 0.118896 -0.980225 -0.157227
vn -0.026855 -0.980225 -0.195313
vn 0.000000 -1.000000 0.000000
vn 0.000000 -1.000000 0.000000
vn 0.000000 -1.000000 0.000000
vn -0.623291 0.318359 0.714111
vn -0.366699 0.835938 0.407959
vn -0.591797 0.801514 0.083252
vn -0.623291 0.318359 0.714111
vn -0.591797 0.801514 0.083252
vn -0.959961 0.279541 0.012695
vn 0.020996 0.769775 0.637695
vn -0.366699 0.835938 0.407959
vn -0.623291 0.318359 0.714111
vn -0.264893 0.942871 0.200684
vn -0.329346 0.942871 -0.045410
vn -0.591797 0.801514 0.083252
vn -0.264893 0.942871 0.200684
vn -0.591797 0.801514 0.083252
vn -0.366699 0.835938 0.407959
vn -0.999268 0.032959 0.000732
vn -0.961670 -0.236328 -0.137451
vn -0.715332 -0.279541 0.640137
vn -0.999268 0.032959 0.000732
vn -0.715332 -0.279541 0.640137
vn -0.703125 0.029053 0.710205
vn 0.152100 -0.981201 -0.117920
vn 0.184570 -0.982422 0.026611
vn 0.185303 -0.982178 -0.027832
vn 0.152100 -0.981201 -0.117920
vn 0.185303 -0.982178 -0.027832
vn 0.118896 -0.980225 -0.157227
vn 0.000000 -1.000000 0.000000
vn 0.000000 -1.000000 0.000000
vn 0.000000 -1.000000 0.000000
vn -0.583008 -0.236816 -0.776855
vn 0.085205 -0.178467 -0.979980
vn 0.000000 -0.510986 -0.859375
vn -0.583008 -0.236816 -0.776855
vn 0.000000 -0.510986 -0.859375
vn -0.681152 -0.508057 -0.526855
vn -0.961670 -0.236328 -0.137451
vn -0.583008 -0.236816 -0.776855
vn -0.681152 -0.508057 -0.526855
vn -0.961670 -0.236328 -0.137451
vn -0.681152 -0.508057 -0.526855
vn -0.850342 -0.511719 0.122070
vn -0.329346 0.942871 -0.045410
vn -0.200684 0.942871 -0.264893
vn -0.478027 0.799072 -0.364258
vn -0.329346 0.942871 -0.045410
vn -0.478027 0.799072 -0.364258
vn -0.591797 0.801514 0.083252
vn -0.702393 0.030762 -0.710938
vn -0.583008 -0.236816 -0.776855
vn -0.961670 -0.236328 -0.137451
vn -0.702393 0.030762 -0.710938
vn -0.961670 -0.236328 -0.137451
vn -0.999268 0.032959 0.000732
vn 0.184570 -0.982422 0.026611
vn 0.118164 -0.980225 0.157959
vn 0.151367 -0.981201 0.117676
vn 0.184570 -0.982422 0.026611
vn 0.151367 -0.981201 0.117676
vn 0.185303 -0.982178 -0.027832
vn 0.000000 -1.000000 0.000000
vn 0.000000 -1.000000 0.000000
vn 0.000000 -1.000000 0.000000
vn -0.715332 -0.279541 0.640137
vn -0.961670 -0.236328 -0.137451
vn -0.850342 -0.511719 0.122070
vn -0.715332 -0.279541 0.640137
vn -0.850342 -0.511719 0.122070
vn -0.603027 -0.510986 0.612061
vn 0.715332 -0.279541 -0.640137
vn 0.603027 -0.510986 -0.612305
vn 0.000000 -0.510986 -0.859375
vn -0.200684 0.942871 -0.264893
vn 0.045410 0.942871 -0.329346
vn -0.020996 0.769775 -0.637695
vn -0.200684 0.942871 -0.264893
vn -0.020996 0.769775 -0.637695
vn -0.478027 0.799072 -0.364258
vn 0.000000 0.029053 -0.999512
vn 0.085205 -0.178467 -0.979980
vn -0.583008 -0.236816 -0.776855
vn 0.000000 0.029053 -0.999512
vn -0.583008 -0.236816 -0.776855
vn -0.702393 0.030762 -0.710938
vn 0.118164 -0.980225 0.157959
vn -0.026855 -0.980225 0.195313
vn 0.026855 -0.980225 0.195313
vn 0.118164 -0.980225 0.157959
vn 0.026855 -0.980225 0.195313
vn 0.151367 -0.981201 0.117676
vn 0.000000 -1.000000 0.000000
vn 0.000000 -1.000000 0.000000
vn 0.000000 -1.000000 0.000000
vn -0.715332 -0.279541 0.640137
vn -0.603027 -0.510986 0.612061
vn 0.000000 -0.510986 0.859375
vn 0.582764 -0.236816 0.777100
vn -0.085205 -0.178467 0.979980
vn 0.000000 -0.510986 0.859375
vn 0.582764 -0.236816 0.777100
vn 0.000000 -0.510986 0.859375
vn 0.681152 -0.508057 0.526855
vn 0.045410 0.942871 -0.329346
vn 0.264893 0.942871 -0.200684
vn 0.366699 0.835938 -0.407959
vn 0.045410 0.942871 -0.329346
vn 0.366699 0.835938 -0.407959
vn -0.020996 0.769775 -0.637695
vn 0.703125 0.029053 -0.710205
vn 0.715332 -0.279541 -0.640137
vn 0.085205 -0.178467 -0.979980
vn 0.703125 0.029053 -0.710205
vn 0.085205 -0.178467 -0.979980
vn 0.000000 0.029053 -0.999512
vn -0.026855 -0.980225 0.195313
vn -0.152100 -0.981201 0.117920
vn -0.118896 -0.980225 0.157227
vn -0.026855 -0.980225 0.195313
vn -0.118896 -0.980225 0.157227
vn 0.026855 -0.980225 0.195313
vn 0.000000 -1.000000 0.000000
vn 0.000000 -1.000000 0.000000
vn 0.000000 -1.000000 0.000000
vn 0.961670 -0.236084 0.137695
vn 0.582764 -0.236816 0.777100
vn 0.681152 -0.508057 0.526855
vn 0.961670 -0.236084 0.137695
vn 0.681152 -0.508057 0.526855
vn 0.850098 -0.511719 -0.122070
vn 0.715332 -0.279541 -0.640137
vn 0.961670 -0.236084 0.137695
vn 0.850098 -0.511719 -0.122070
vn 0.715332 -0.279541 -0.640137
vn 0.850098 -0.511719 -0.122070
vn 0.603027 -0.510986 -0.612305
vn 0.264893 0.942871 -0.200684
vn 0.329346 0.942871 0.045410
vn 0.591553 0.801758 -0.083496
vn 0.264893 0.942871 -0.200684
vn 0.591553 0.801758 -0.083496
vn 0.366699 0.835938 -0.407959
vn 0.999268 0.032959 -0.000732
vn 0.961670 -0.236084 0.137695
vn 0.715332 -0.279541 -0.640137
vn 0.999268 0.032959 -0.000732
vn 0.715332 -0.279541 -0.640137
vn 0.703125 0.029053 -0.710205
vn -0.152100 -0.981201 0.117920
vn -0.184326 -0.982422 -0.026611
vn -0.185059 -0.982178 0.027832
vn -0.152100 -0.981201 0.117920
vn -0.185059 -0.982178 0.027832
vn -0.118896 -0.980225 0.157227
vn 0.000000 -1.000000 0.000000
vn 0.000000 -1.000000 0.000000
vn 0.000000 -1.000000 0.000000
vn 0.797119 0.000000 0.603516
vn 0.990479 0.000000 -0.136719
vn 0.990479 0.000000 0.136719
vn 0.797119 0.000000 0.603516
vn 0.990479 0.000000 0.136719
vn 0.603516 0.000000 0.797119
vn 0.136719 0.000000 0.990479
vn 0.797119 0.000000 0.603516
vn 0.603516 0.000000 0.797119
vn 0.136719 0.000000 0.990479
vn 0.603516 0.000000 0.797119
vn -0.136719 0.000000 0.990479
vn -0.603516 0.000000 0.797119
vn 0.136719 0.000000 0.990479
vn -0.136719 0.000000 0.990479
vn -0.603516 0.000000 0.797119
vn -0.136719 0.000000 0.990479
vn -0.797119 0.000000 0.603516
vn -0.990479 0.000000 0.136719
vn -0.603516 0.000000 0.797119
vn -0.797119 0.000000 0.603516
vn -0.990479 0.000000 0.136719
vn -0.797119 0.000000 0.603516
vn -0.990479 0.000000 -0.136719
vn -0.797119 0.000000 -0.603516
vn -0.990479 0.000000 0.136719
vn -0.990479 0.000000 -0.136719
vn -0.797119 0.000000 -0.603516
vn -0.990479 0.000000 -0.136719
vn -0.603516 0.000000 -0.797119
vn -0.136719 0.000000 -0.990479
vn -0.797119 0.000000 -0.603516
vn -0.603516 0.000000 -0.797119
vn -0.136719 0.000000 -0.990479
vn -0.603516 0.000000 -0.797119
vn 0.136719 0.000000 -0.990479
vn 0.603516 0.000000 -0.797119
vn -0.136719 0.000000 -0.990479
vn 0.136719 0.000000 -0.990479
vn 0.603516 0.000000 -0.797119
vn 0.136719 0.000000 -0.990479
vn 0.797119 0.000000 -0.603516
vn 0.990479 0.000000 -0.136719
vn 0.603516 0.000000 -0.797119
vn 0.797119 0.000000 -0.603516
vn 0.990479 0.000000 -0.136719
vn 0.797119 0.000000 -0.603516
vn 0.990479 0.000000 0.136719
vn -0.797119 0.000000 0.603516
vn -0.990479 0.000000 -0.136719
vn -0.990479 0.000000 0.136719
vn -0.797119 0.000000 0.603516
vn -0.990479 0.000000 0.136719
vn -0.603516 0.000000 0.797119
vn -0.136719 0.000000 0.990479
vn -0.797119 0.000000 0.603516
vn -0.603516 0.000000 0.797119
vn -0.136719 0.000000 0.990479
vn -0.603516 0.000000 0.797119
vn 0.136719 0.000000 0.990479
vn 0.603516 0.000000 0.797119
vn -0.136719 0.000000 0.990479
vn 0.136719 0.000000 0.990479
vn 0.603516 0.000000 0.797119
vn 0.136719 0.000000 0.990479
vn 0.797119 0.000000 0.603516
vn 0.990479 0.000000 0.136719
vn 0.603516 0.000000 0.797119
vn 0.797119 0.000000 0.603516
vn 0.990479 0.000000 0.136719
vn 0.797119 0.000000 0.603516
vn 0.990479 0.000000 -0.136719
vn 0.797119 0.000000 -0.603516
vn 0.990479 0.000000 0.136719
vn 0.990479 0.000000 -0.136719
vn 0.797119 0.000000 -0.603516
vn 0.990479 0.000000 -0.136719
vn 0.603516 0.000000 -0.797119
vn 0.136719 0.000000 -0.990479
vn 0.797119 0.000000 -0.603516
vn 0.603516 0.000000 -0.797119
vn 0.136719 0.000000 -0.990479
vn 0.603516 0.000000 -0.797119
vn -0.136719 0.000000 -0.990479
vn -0.603516 0.000000 -0.797119
vn 0.136719 0.000000 -0.990479
vn -0.136719 0.000000 -0.990479
vn -0.603516 0.000000 -0.797119
vn -0.136719 0.000000 -0.990479
vn -0.797119 0.000000 -0.603516
vn -0.990479 0.000000 -0.136719
vn -0.603516 0.000000 -0.797119
vn -0.797119 0.000000 -0.603516
vn -0.990479 0.000000 -0.136719
vn -0.797119 0.000000 -0.603516
vn -0.990479 0.000000 0.136719
vn 0.020996 0.769775 0.637695
vn 0.085938 0.199707 0.975830
vn 0.686035 0.268555 0.676025
vn -0.623291 0.318359 0.714111
vn 0.085938 0.199707 0.975830
vn 0.020996 0.769775 0.637695
vn 0.623047 0.318359 -0.714111
vn -0.085938 0.199707 -0.975830
vn -0.020996 0.769775 -0.637695
vn 0.000000 -0.510986 0.859375
vn -0.085205 -0.178467 0.979980
vn -0.715332 -0.279541 0.640137
vn 0.000000 -0.510986 -0.859375
vn 0.085205 -0.178467 -0.979980
vn 0.715332 -0.279541 -0.640137
vn 0.703125 -0.033447 0.709961
vn 0.686035 0.268555 0.676025
vn 0.085938 0.199707 0.975830
vn 0.703125 -0.033447 0.709961
vn 0.085938 0.199707 0.975830
vn 0.000000 -0.033691 0.999268
vn 0.000000 -0.033691 0.999268
vn 0.085938 0.199707 0.975830
vn -0.623291 0.318359 0.714111
vn 0.000000 -0.033691 0.999268
vn -0.623291 0.318359 0.714111
vn -0.703613 -0.032959 0.709717
vn -0.703613 -0.032959 0.709717
vn -0.623291 0.318359 0.714111
vn -0.959961 0.279541 0.012695
vn -0.703613 -0.032959 0.709717
vn -0.959961 0.279541 0.012695
vn -0.999268 -0.031982 0.000488
vn -0.999268 -0.031982 0.000488
vn -0.959961 0.279541 0.012695
vn -0.686035 0.268555 -0.675781
vn -0.999268 -0.031982 0.000488
vn -0.686035 0.268555 -0.675781
vn -0.703369 -0.033447 -0.709717
vn -0.999268 0.032959 0.000732
vn -0.999268 -0.031982 0.000488
vn -0.703369 -0.033447 -0.709717
vn -0.999268 0.032959 0.000732
vn -0.703369 -0.033447 -0.709717
vn -0.702393 0.030762 -0.710938
vn -0.703125 0.029053 0.710205
vn -0.703613 -0.032959 0.709717
vn -0.999268 -0.031982 0.000488
vn -0.703125 0.029053 0.710205
vn -0.999268 -0.031982 0.000488
vn -0.999268 0.032959 0.000732
vn 0.000000 0.029053 0.999512
vn 0.000000 -0.033691 0.999268
vn -0.703613 -0.032959 0.709717
vn 0.000000 0.029053 0.999512
vn -0.703613 -0.032959 0.709717
vn -0.703125 0.029053 0.710205
vn 0.702148 0.030762 0.710938
vn 0.703125 -0.033447 0.709961
vn 0.000000 -0.033691 0.999268
vn 0.702148 0.030762 0.710938
vn 0.000000 -0.033691 0.999268
vn 0.000000 0.029053 0.999512
vn 0.999268 -0.031982 -0.000732
vn 0.959717 0.279785 -0.012695
vn 0.686035 0.268555 0.676025
vn 0.999268 -0.031982 -0.000732
vn 0.686035 0.268555 0.676025
vn 0.703125 -0.033447 0.709961
vn 0.703613 -0.032959 -0.709717
vn 0.623047 0.318359 -0.714111
vn 0.959717 0.279785 -0.012695
vn 0.703613 -0.032959 -0.709717
vn 0.959717 0.279785 -0.012695
vn 0.999268 -0.031982 -0.000732
vn 0.703125 0.029053 -0.710205
vn 0.703613 -0.032959 -0.709717
vn 0.999268 -0.031982 -0.000732
vn 0.703125 0.029053 -0.710205
vn 0.999268 -0.031982 -0.000732
vn 0.999268 0.032959 -0.000732
vn 0.999268 0.032959 -0.000732
vn 0.999268 -0.031982 -0.000732
vn 0.703125 -0.033447 0.709961
vn 0.999268 0.032959 -0.000732
vn 0.703125 -0.033447 0.709961
vn 0.702148 0.030762 0.710938
vn 0.000000 -0.033691 -0.999268
vn -0.085938 0.199707 -0.975830
vn 0.623047 0.318359 -0.714111
vn 0.000000 -0.033691 -0.999268
vn 0.623047 0.318359 -0.714111
vn 0.703613 -0.032959 -0.709717
vn -0.703369 -0.033447 -0.709717
vn -0.686035 0.268555 -0.675781
vn -0.085938 0.199707 -0.975830
vn -0.703369 -0.033447 -0.709717
vn -0.085938 0.199707 -0.975830
vn 0.000000 -0.033691 -0.999268
vn -0.702393 0.030762 -0.710938
vn -0.703369 -0.033447 -0.709717
vn 0.000000 -0.033691 -0.999268
vn -0.702393 0.030762 -0.710938
vn 0.000000 -0.033691 -0.999268
vn 0.000000 0.029053 -0.999512
vn 0.000000 0.029053 -0.999512
vn 0.000000 -0.033691 -0.999268
vn 0.703613 -0.032959 -0.709717
vn 0.000000 0.029053 -0.999512
vn 0.703613 -0.032959 -0.709717
vn 0.703125 0.029053 -0.710205
usemtl Texture
f 1/1/1 2/2/2 3/3/3
f 4/4/4 5/5/5 6/6/6
f 7/7/7 8/8/8 9/9/9
f 10/10/10 11/11/11 12/12/12
f 13/13/13 14/14/14 15/15/15
f 16/16/16 17/17/17 18/18/18
f 19/19/19 20/20/20 21/21/21
f 22/22/22 23/23/23 24/24/24
f 25/25/25 26/26/26 27/27/27
f 28/28/28 29/29/29 30/30/30
f 31/31/31 32/32/32 33/33/33
f 34/34/34 35/35/35 36/36/36
f 37/37/37 38/38/38 39/39/39
f 40/40/40 41/41/41 42/42/42
f 43/43/43 44/44/44 45/45/45
f 46/46/46 47/47/47 48/48/48
f 49/49/49 50/50/50 51/51/51
f 52/52/52 53/53/53 54/54/54
f 55/55/55 56/56/56 57/57/57
f 58/58/58 59/59/59 60/60/60
f 61/61/61 62/62/62 63/63/63
f 64/64/64 65/65/65 66/66/66
f 67/67/67 68/68/68 69/69/69
f 70/70/70 71/71/71 72/72/72
f 73/73/73 74/74/74 75/75/75
f 76/76/76 77/77/77 78/78/78
f 79/79/79 80/80/80 81/81/81
f 82/82/82 83/83/83 84/84/84
f 85/85/85 86/86/86 87/87/87
f 88/88/88 89/89/89 90/90/90
f 91/91/91 92/92/92 93/93/93
f 94/94/94 95/95/95 96/96/96
f 97/97/97 98/98/98 99/99/99
f 100/100/100 101/101/101 102/102/102
f 103/103/103 104/104/104 105/105/105
f 106/106/106 107/107/107 108/108/108
f 109/109/109 110/110/110 111/111/111
f 112/112/112 113/113/113 114/114/114
f 115/115/115 116/116/116 117/117/117
f 118/118/118 119/119/119 120/120/120
f 121/121/121 122/122/122 123/123/123
f 124/124/124 125/125/125 126/126/126
f 127/127/127 128/128/128 129/129/129
f 130/130/130 131/131/131 132/132/132
f 133/133/133 134/134/134 135/135/135
f 136/136/136 137/137/137 138/138/138
f 139/139/139 140/140/140 141/141/141
f 142/142/142 143/143/143 144/144/144
f 145/145/145 146/146/146 147/147/147
f 148/148/148 149/149/149 150/150/150
f 151/151/151 152/152/152 153/153/153
f 154/154/154 155/155/155 156/156/156
f 157/157/157 158/158/158 159/159/159
f 160/160/160 161/161/161 162/162/162
f 163/163/163 164/164/164 165/165/165
f 166/166/166 167/167/167 168/168/168
f 169/169/169 170/170/170 171/171/171
f 172/172/172 173/173/173 174/174/174
f 175/175/175 176/176/176 177/177/177
f 178/178/178 179/179/179 180/180/180
f 181/181/181 182/182/182 183/183/183
f 184/184/184 185/185/185 186/186/186
f 187/187/187 188/188/188 189/189/189
f 190/190/190 191/191/191 192/192/192
f 193/193/193 194/194/194 195/195/195
f 196/196/196 197/197/197 198/198/198
f 199/199/199 200/200/200 201/201/201
f 202/202/202 203/203/203 204/204/204
f 205/205/205 206/206/206 207/207/207
f 208/208/208 209/209/209 210/210/210
f 211/211/211 212/212/212 213/213/213
f 214/214/214 215/215/215 216/216/216
f 217/217/217 218/218/218 219/219/219
f 220/220/220 221/221/221 222/222/222
f 223/223/223 224/224/224 225/225/225
f 226/226/226 227/227/227 228/228/228
f 229/229/229 230/230/230 231/231/231
f 232/232/232 233/233/233 234/234/234
f 235/235/235 236/236/236 237/237/237
f 238/238/238 239/239/239 240/240/240
f 241/241/241 242/242/242 243/243/243
f 244/244/244 245/245/245 246/246/246
f 247/247/247 248/248/248 249/249/249
f 250/250/250 251/251/251 252/252/252
f 253/253/253 254/254/254 255/255/255
f 256/256/256 257/257/257 258/258/258
f 259/259/259 260/260/260 261/261/261
f 262/262/262 263/263/263 264/264/264
f 265/265/265 266/266/266 267/267/267
f 268/268/268 269/269/269 270/270/270
f 271/271/271 272/272/272 273/273/273
f 274/274/274 275/275/275 276/276/276
f 277/277/277 278/278/278 279/279/279
f 280/280/280 281/281/281 282/282/282
f 283/283/283 284/284/284 285/285/285
f 286/286/286 287/287/287 288/288/288
f 289/289/289 290/290/290 291/291/291
f 292/292/292 293/293/293 294/294/294
f 295/295/295 296/296/296 297/297/297
f 298/298/298 299/299/299 300/300/300
f 301/301/301 302/302/302 303/303/303
f 304/304/304 305/305/305 306/306/306
f 307/307/307 308/308/308 309/309/309
f 310/310/310 311/311/311 312/312/312
f 313/313/313 314/314/314 315/315/315
f 316/316/316 317/317/317 318/318/318
f 319/319/319 320/320/320 321/321/321
f 322/322/322 323/323/323 324/324/324
f 325/325/325 326/326/326 327/327/327
f 328/328/328 329/329/329 330/330/330
f 331/331/331 332/332/332 333/333/333
f 334/334/334 335/335/335 336/336/336
f 337/337/337 338/338/338 339/339/339
f 340/340/340 341/341/341 342/342/342
f 343/343/343 344/344/344 345/345/345
f 346/346/346 347/347/347 348/348/348
f 349/349/349 350/350/350 351/351/351
f 352/352/352 353/353/353 354/354/354
f 355/355/355 356/356/356 357/357/357
f 358/358/358 359/359/359 360/360/360
f 361/361/361 362/362/362 363/363/363
f 364/364/364 365/365/365 366/366/366
f 367/367/367 368/368/368 369/369/369
f 370/370/370 371/371/371 372/372/372
f 373/373/373 374/374/374 375/375/375
f 376/376/376 377/377/377 378/378/378
f 379/379/379 380/380/380 381/381/381
f 382/382/382 383/383/383 384/384/384
f 385/385/385 386/386/386 387/387/387
f 388/388/388 389/389/389 390/390/390
f 391/391/391 392/392/392 393/393/393
f 394/394/394 395/395/395 396/396/396
f 397/397/397 398/398/398 399/399/399
f 400/400/400 401/401/401 402/402/402
f 403/403/403 404/404/404 405/405/405
f 406/406/406 407/407/407 408/408/408
f 409/409/409 410/410/410 411/411/411
f 412/412/412 413/413/413 414/414/414
f 415/415/415 416/416/416 417/417/417
f 418/418/418 419/419/419 420/420/420
f 421/421/421 422/422/422 423/423/423
f 424/424/424 425/425/425 426/426/426
f 427/427/427 428/428/428 429/429/429
f 430/430/430 431/431/431 432/432/432
f 433/433/433 434/434/434 435/435/435
f 436/436/436 437/437/437 438/438/438
f 439/439/439 440/440/440 441/441/441
f 442/442/442 443/443/443 444/444/444
f 445/445/445 446/446/446 447/447/447
f 448/448/448 449/449/449 450/450/450
f 451/451/451 452/452/452 453/453/453
f 454/454/454 455/455/455 456/456/456