# OBJ file
mtllib HH2kIcon.ico.mtl
v 0.792480 3.737305 0.062256 0.290196 0.290196 0.290196 #0.000000
v -0.273438 3.682373 0.076660 0.290196 0.290196 0.290196 #0.000000
v 0.791016 3.641113 0.799316 0.290196 0.290196 0.290196 #0.000000
v -0.273438 3.682373 0.076660 0.290196 0.290196 0.290196 #0.000000
v -0.843994 3.468506 0.085938 0.290196 0.290196 0.290196 #0.000000
v -0.406982 3.548828 0.951660 0.290196 0.290196 0.290196 #0.000000
v -0.273438 3.682373 0.076660 0.290196 0.290196 0.290196 #0.000000
v -0.406982 3.548828 0.951660 0.290196 0.290196 0.290196 #0.000000
v 0.791016 3.641113 0.799316 0.290196 0.290196 0.290196 #0.000000
v 0.791016 3.641113 0.799316 0.290196 0.290196 0.290196 #0.000000
v -0.406982 3.548828 0.951660 0.290196 0.290196 0.290196 #0.000000
v 0.758789 3.286621 1.335205 0.290196 0.290196 0.290196 #0.000000
v -0.843994 3.468506 0.085938 0.290196 0.290196 0.290196 #0.000000
v -1.080566 2.941650 0.092773 0.290196 0.290196 0.290196 #0.000000
v -0.981689 3.158447 0.950928 0.290196 0.290196 0.290196 #0.000000
v -0.843994 3.468506 0.085938 0.290196 0.290196 0.290196 #0.000000
v -0.981689 3.158447 0.950928 0.290196 0.290196 0.290196 #0.000000
v -0.406982 3.548828 0.951660 0.290196 0.290196 0.290196 #0.000000
v -0.406982 3.548828 0.951660 0.290196 0.290196 0.290196 #0.000000
v -0.981689 3.158447 0.950928 0.290196 0.290196 0.290196 #0.000000
v -0.295166 2.993164 1.479736 0.290196 0.290196 0.290196 #0.000000
v -0.406982 3.548828 0.951660 0.290196 0.290196 0.290196 #0.000000
v -0.295166 2.993164 1.479736 0.290196 0.290196 0.290196 #0.000000
v 0.758789 3.286621 1.335205 0.290196 0.290196 0.290196 #0.000000
v 0.758789 3.286621 1.335205 0.290196 0.290196 0.290196 #0.000000
v -0.295166 2.993164 1.479736 0.290196 0.290196 0.290196 #0.000000
v 0.670898 2.834229 1.517090 0.290196 0.290196 0.290196 #0.000000
v -1.080566 2.941650 0.092773 0.290196 0.290196 0.290196 #0.000000
v -1.302490 2.246094 0.102539 0.290196 0.290196 0.290196 #0.000000
v -1.221680 2.245605 0.697021 0.290196 0.290196 0.290196 #0.000000
v -1.080566 2.941650 0.092773 0.290196 0.290196 0.290196 #0.000000
v -1.221680 2.245605 0.697021 0.290196 0.290196 0.290196 #0.000000
v -0.981689 3.158447 0.950928 0.290196 0.290196 0.290196 #0.000000
v -0.981689 3.158447 0.950928 0.290196 0.290196 0.290196 #0.000000
v -1.221680 2.245605 0.697021 0.290196 0.290196 0.290196 #0.000000
v -0.814209 2.210693 1.229248 0.290196 0.290196 0.290196 #0.000000
v -0.981689 3.158447 0.950928 0.290196 0.290196 0.290196 #0.000000
v -0.814209 2.210693 1.229248 0.290196 0.290196 0.290196 #0.000000
v -0.295166 2.993164 1.479736 0.290196 0.290196 0.290196 #0.000000
v -0.295166 2.993164 1.479736 0.290196 0.290196 0.290196 #0.000000
v -0.814209 2.210693 1.229248 0.290196 0.290196 0.290196 #0.000000
v -0.234863 2.155273 1.482910 0.290196 0.290196 0.290196 #0.000000
v -0.295166 2.993164 1.479736 0.290196 0.290196 0.290196 #0.000000
v -0.234863 2.155273 1.482910 0.290196 0.290196 0.290196 #0.000000
v 0.670898 2.834229 1.517090 0.290196 0.290196 0.290196 #0.000000
v 0.670898 2.834229 1.517090 0.290196 0.290196 0.290196 #0.000000
v -0.234863 2.155273 1.482910 0.290196 0.290196 0.290196 #0.000000
v 0.629639 2.063232 1.491455 0.290196 0.290196 0.290196 #0.000000
v 0.792480 3.737305 0.062256 0.290196 0.290196 0.290196 #0.000000
v 0.791016 3.641113 0.799316 0.290196 0.290196 0.290196 #0.000000
v 1.959961 3.393066 0.049316 0.290196 0.290196 0.290196 #0.000000
v 0.791016 3.641113 0.799316 0.290196 0.290196 0.290196 #0.000000
v 0.758789 3.286621 1.335205 0.290196 0.290196 0.290196 #0.000000
v 1.936523 3.245850 0.720947 0.290196 0.290196 0.290196 #0.000000
v 0.791016 3.641113 0.799316 0.290196 0.290196 0.290196 #0.000000
v 1.936523 3.245850 0.720947 0.290196 0.290196 0.290196 #0.000000
v 1.959961 3.393066 0.049316 0.290196 0.290196 0.290196 #0.000000
v 1.959961 3.393066 0.049316 0.290196 0.290196 0.290196 #0.000000
v 1.936523 3.245850 0.720947 0.290196 0.290196 0.290196 #0.000000
v 2.364502 2.865723 0.047852 0.290196 0.290196 0.290196 #0.000000
v 0.758789 3.286621 1.335205 0.290196 0.290196 0.290196 #0.000000
v 0.670898 2.834229 1.517090 0.290196 0.290196 0.290196 #0.000000
v 1.724365 2.769043 1.260010 0.290196 0.290196 0.290196 #0.000000
v 0.758789 3.286621 1.335205 0.290196 0.290196 0.290196 #0.000000
v 1.724365 2.769043 1.260010 0.290196 0.290196 0.290196 #0.000000
v 1.936523 3.245850 0.720947 0.290196 0.290196 0.290196 #0.000000
v 1.936523 3.245850 0.720947 0.290196 0.290196 0.290196 #0.000000
v 1.724365 2.769043 1.260010 0.290196 0.290196 0.290196 #0.000000
v 2.306396 2.544922 0.709473 0.290196 0.290196 0.290196 #0.000000
v 1.936523 3.245850 0.720947 0.290196 0.290196 0.290196 #0.000000
v 2.306396 2.544922 0.709473 0.290196 0.290196 0.290196 #0.000000
v 2.364502 2.865723 0.047852 0.290196 0.290196 0.290196 #0.000000
v 2.364502 2.865723 0.047852 0.290196 0.290196 0.290196 #0.000000
v 2.306396 2.544922 0.709473 0.290196 0.290196 0.290196 #0.000000
v 2.480713 2.299805 0.050537 0.290196 0.290196 0.290196 #0.000000
v 0.670898 2.834229 1.517090 0.290196 0.290196 0.290196 #0.000000
v 0.629639 2.063232 1.491455 0.290196 0.290196 0.290196 #0.000000
v 1.492188 1.964355 1.380127 0.290196 0.290196 0.290196 #0.000000
v 0.670898 2.834229 1.517090 0.290196 0.290196 0.290196 #0.000000
v 1.492188 1.964355 1.380127 0.290196 0.290196 0.290196 #0.000000
v 1.724365 2.769043 1.260010 0.290196 0.290196 0.290196 #0.000000
v 1.724365 2.769043 1.260010 0.290196 0.290196 0.290196 #0.000000
v 1.492188 1.964355 1.380127 0.290196 0.290196 0.290196 #0.000000
v 2.247803 1.865967 0.820313 0.290196 0.290196 0.290196 #0.000000
v 1.724365 2.769043 1.260010 0.290196 0.290196 0.290196 #0.000000
v 2.247803 1.865967 0.820313 0.290196 0.290196 0.290196 #0.000000
v 2.306396 2.544922 0.709473 0.290196 0.290196 0.290196 #0.000000
v 2.306396 2.544922 0.709473 0.290196 0.290196 0.290196 #0.000000
v 2.247803 1.865967 0.820313 0.290196 0.290196 0.290196 #0.000000
v 2.472656 2.117432 0.337158 0.290196 0.290196 0.290196 #0.000000
v 2.472656 2.117432 0.337158 0.290196 0.290196 0.290196 #0.000000
v 2.247803 1.865967 0.820313 0.290196 0.290196 0.290196 #0.000000
v 2.417480 1.871826 0.340088 0.290196 0.290196 0.290196 #0.000000
v 0.792480 3.737305 0.062256 0.290196 0.290196 0.290196 #0.000000
v 1.959961 3.393066 0.049316 0.290196 0.290196 0.290196 #0.000000
v 0.771729 3.630371 -0.672607 0.290196 0.290196 0.290196 #0.000000
v 1.959961 3.393066 0.049316 0.290196 0.290196 0.290196 #0.000000
v 2.364502 2.865723 0.047852 0.290196 0.290196 0.290196 #0.000000
v 1.918945 3.236084 -0.618896 0.290196 0.290196 0.290196 #0.000000
v 1.959961 3.393066 0.049316 0.290196 0.290196 0.290196 #0.000000
v 1.918945 3.236084 -0.618896 0.290196 0.290196 0.290196 #0.000000
v 0.771729 3.630371 -0.672607 0.290196 0.290196 0.290196 #0.000000
v -0.286377 3.520508 -0.785889 0.290196 0.290196 0.290196 #0.000000
v 0.771729 3.630371 -0.672607 0.290196 0.290196 0.290196 #0.000000
v 0.725098 3.268311 -1.202393 0.290196 0.290196 0.290196 #0.000000
v 2.364502 2.865723 0.047852 0.290196 0.290196 0.290196 #0.000000
v 2.480713 2.299805 0.050537 0.290196 0.290196 0.290196 #0.000000
v 2.289063 2.535400 -0.606934 0.290196 0.290196 0.290196 #0.000000
v 2.364502 2.865723 0.047852 0.290196 0.290196 0.290196 #0.000000
v 2.289063 2.535400 -0.606934 0.290196 0.290196 0.290196 #0.000000
v 1.918945 3.236084 -0.618896 0.290196 0.290196 0.290196 #0.000000
v 1.918945 3.236084 -0.618896 0.290196 0.290196 0.290196 #0.000000
v 2.289063 2.535400 -0.606934 0.290196 0.290196 0.290196 #0.000000
v 1.692627 2.751465 -1.145020 0.290196 0.290196 0.290196 #0.000000
v 1.918945 3.236084 -0.618896 0.290196 0.290196 0.290196 #0.000000
v 1.692627 2.751465 -1.145020 0.290196 0.290196 0.290196 #0.000000
v 0.725098 3.268311 -1.202393 0.290196 0.290196 0.290196 #0.000000
v 0.725098 3.268311 -1.202393 0.290196 0.290196 0.290196 #0.000000
v 1.692627 2.751465 -1.145020 0.290196 0.290196 0.290196 #0.000000
v 0.660156 2.696777 -1.374756 0.290196 0.290196 0.290196 #0.000000
v 2.465820 2.113525 -0.231201 0.290196 0.290196 0.290196 #0.000000
v 2.227539 1.854980 -0.703125 0.290196 0.290196 0.290196 #0.000000
v 2.289063 2.535400 -0.606934 0.290196 0.290196 0.290196 #0.000000
v 2.289063 2.535400 -0.606934 0.290196 0.290196 0.290196 #0.000000
v 2.227539 1.854980 -0.703125 0.290196 0.290196 0.290196 #0.000000
v 1.692627 2.751465 -1.145020 0.290196 0.290196 0.290196 #0.000000
v 1.692627 2.751465 -1.145020 0.290196 0.290196 0.290196 #0.000000
v 2.227539 1.854980 -0.703125 0.290196 0.290196 0.290196 #0.000000
v 1.457520 1.945313 -1.244141 0.290196 0.290196 0.290196 #0.000000
v 1.692627 2.751465 -1.145020 0.290196 0.290196 0.290196 #0.000000
v 1.457520 1.945313 -1.244141 0.290196 0.290196 0.290196 #0.000000
v 0.660156 2.696777 -1.374756 0.290196 0.290196 0.290196 #0.000000
v 0.660156 2.696777 -1.374756 0.290196 0.290196 0.290196 #0.000000
v 1.457520 1.945313 -1.244141 0.290196 0.290196 0.290196 #0.000000
v 0.592285 2.042725 -1.334229 0.290196 0.290196 0.290196 #0.000000
v 0.792480 3.737305 0.062256 0.290196 0.290196 0.290196 #0.000000
v 0.771729 3.630371 -0.672607 0.290196 0.290196 0.290196 #0.000000
v -0.273438 3.682373 0.076660 0.290196 0.290196 0.290196 #0.000000
v 0.771729 3.630371 -0.672607 0.290196 0.290196 0.290196 #0.000000
v 1.918945 3.236084 -0.618896 0.290196 0.290196 0.290196 #0.000000
v 0.725098 3.268311 -1.202393 0.290196 0.290196 0.290196 #0.000000
v 0.771729 3.630371 -0.672607 0.290196 0.290196 0.290196 #0.000000
v -0.286377 3.520508 -0.785889 0.290196 0.290196 0.290196 #0.000000
v -0.273438 3.682373 0.076660 0.290196 0.290196 0.290196 #0.000000
v -0.273438 3.682373 0.076660 0.290196 0.290196 0.290196 #0.000000
v -0.286377 3.520508 -0.785889 0.290196 0.290196 0.290196 #0.000000
v -0.843994 3.468506 0.085938 0.290196 0.290196 0.290196 #0.000000
v 0.725098 3.268311 -1.202393 0.290196 0.290196 0.290196 #0.000000
v 0.660156 2.696777 -1.374756 0.290196 0.290196 0.290196 #0.000000
v -0.188721 2.957275 -1.304688 0.290196 0.290196 0.290196 #0.000000
v 0.725098 3.268311 -1.202393 0.290196 0.290196 0.290196 #0.000000
v -0.188721 2.957275 -1.304688 0.290196 0.290196 0.290196 #0.000000
v -0.286377 3.520508 -0.785889 0.290196 0.290196 0.290196 #0.000000
v -0.286377 3.520508 -0.785889 0.290196 0.290196 0.290196 #0.000000
v -0.188721 2.957275 -1.304688 0.290196 0.290196 0.290196 #0.000000
v -0.861084 3.130127 -0.772949 0.290196 0.290196 0.290196 #0.000000
v -0.286377 3.520508 -0.785889 0.290196 0.290196 0.290196 #0.000000
v -0.861084 3.130127 -0.772949 0.290196 0.290196 0.290196 #0.000000
v -0.843994 3.468506 0.085938 0.290196 0.290196 0.290196 #0.000000
v -0.843994 3.468506 0.085938 0.290196 0.290196 0.290196 #0.000000
v -0.861084 3.130127 -0.772949 0.290196 0.290196 0.290196 #0.000000
v -1.080566 2.941650 0.092773 0.290196 0.290196 0.290196 #0.000000
v 0.660156 2.696777 -1.374756 0.290196 0.290196 0.290196 #0.000000
v 0.592285 2.042725 -1.334229 0.290196 0.290196 0.290196 #0.000000
v -0.271729 2.135010 -1.304443 0.290196 0.290196 0.290196 #0.000000
v 0.660156 2.696777 -1.374756 0.290196 0.290196 0.290196 #0.000000
v -0.271729 2.135010 -1.304443 0.290196 0.290196 0.290196 #0.000000
v -0.188721 2.957275 -1.304688 0.290196 0.290196 0.290196 #0.000000
v -0.188721 2.957275 -1.304688 0.290196 0.290196 0.290196 #0.000000
v -0.271729 2.135010 -1.304443 0.290196 0.290196 0.290196 #0.000000
v -0.843994 2.194336 -1.036377 0.290196 0.290196 0.290196 #0.000000
v -0.188721 2.957275 -1.304688 0.290196 0.290196 0.290196 #0.000000
v -0.843994 2.194336 -1.036377 0.290196 0.290196 0.290196 #0.000000
v -0.861084 3.130127 -0.772949 0.290196 0.290196 0.290196 #0.000000
v -0.861084 3.130127 -0.772949 0.290196 0.290196 0.290196 #0.000000
v -0.843994 2.194336 -1.036377 0.290196 0.290196 0.290196 #0.000000
v -1.237305 2.237061 -0.493652 0.290196 0.290196 0.290196 #0.000000
v -0.861084 3.130127 -0.772949 0.290196 0.290196 0.290196 #0.000000
v -1.237305 2.237061 -0.493652 0.290196 0.290196 0.290196 #0.000000
v -1.080566 2.941650 0.092773 0.290196 0.290196 0.290196 #0.000000
v -1.080566 2.941650 0.092773 0.290196 0.290196 0.290196 #0.000000
v -1.237305 2.237061 -0.493652 0.290196 0.290196 0.290196 #0.000000
v -1.302490 2.246094 0.102539 0.290196 0.290196 0.290196 #0.000000
v -1.309326 2.088623 0.105469 0.290196 0.290196 0.290196 #0.000000
v -1.271973 2.085449 0.637939 0.290196 0.290196 0.290196 #0.000000
v -1.302490 2.246094 0.102539 0.290196 0.290196 0.290196 #0.000000
v -1.221680 2.245605 0.697021 0.290196 0.290196 0.290196 #0.000000
v -1.041016 2.067627 1.080566 0.290196 0.290196 0.290196 #0.000000
v -0.814209 2.210693 1.229248 0.290196 0.290196 0.290196 #0.000000
v -0.677734 2.025879 1.313965 0.290196 0.290196 0.290196 #0.000000
v -0.339111 1.993408 1.433594 0.290196 0.290196 0.290196 #0.000000
v -0.234863 2.155273 1.482910 0.290196 0.290196 0.290196 #0.000000
v -0.339111 1.993408 1.433594 0.290196 0.290196 0.290196 #0.000000
v 0.629639 2.063232 1.491455 0.290196 0.290196 0.290196 #0.000000
v -0.234863 2.155273 1.482910 0.290196 0.290196 0.290196 #0.000000
v -0.339111 1.993408 1.433594 0.290196 0.290196 0.290196 #0.000000
v 0.612793 1.888672 1.515869 0.290196 0.290196 0.290196 #0.000000
v 0.629639 2.063232 1.491455 0.290196 0.290196 0.290196 #0.000000
v 0.612793 1.888672 1.515869 0.290196 0.290196 0.290196 #0.000000
v 1.492188 1.964355 1.380127 0.290196 0.290196 0.290196 #0.000000
v 0.629639 2.063232 1.491455 0.290196 0.290196 0.290196 #0.000000
v 0.612793 1.888672 1.515869 0.290196 0.290196 0.290196 #0.000000
v 1.510498 1.770508 1.437500 0.290196 0.290196 0.290196 #0.000000
v 1.492188 1.964355 1.380127 0.290196 0.290196 0.290196 #0.000000
v 1.510498 1.770508 1.437500 0.290196 0.290196 0.290196 #0.000000
v 2.247803 1.865967 0.820313 0.290196 0.290196 0.290196 #0.000000
v 1.492188 1.964355 1.380127 0.290196 0.290196 0.290196 #0.000000
v 1.510498 1.770508 1.437500 0.290196 0.290196 0.290196 #0.000000
v 2.200928 1.689941 0.905273 0.290196 0.290196 0.290196 #0.000000
v 2.247803 1.865967 0.820313 0.290196 0.290196 0.290196 #0.000000
v 2.200928 1.689941 0.905273 0.290196 0.290196 0.290196 #0.000000
v 2.417480 1.871826 0.340088 0.290196 0.290196 0.290196 #0.000000
v 2.247803 1.865967 0.820313 0.290196 0.290196 0.290196 #0.000000
v 2.417480 1.871826 0.340088 0.290196 0.290196 0.290196 #0.000000
v 2.362305 1.655762 0.188232 0.290196 0.290196 0.290196 #0.000000
v 2.435791 1.873779 -0.228516 0.290196 0.290196 0.290196 #0.000000
v 2.435791 1.873779 -0.228516 0.290196 0.290196 0.290196 #0.000000
v 2.182129 1.679443 -0.524658 0.290196 0.290196 0.290196 #0.000000
v 2.227539 1.854980 -0.703125 0.290196 0.290196 0.290196 #0.000000
v 2.182129 1.679443 -0.524658 0.290196 0.290196 0.290196 #0.000000
v 1.457520 1.945313 -1.244141 0.290196 0.290196 0.290196 #0.000000
v 2.227539 1.854980 -0.703125 0.290196 0.290196 0.290196 #0.000000
v 2.182129 1.679443 -0.524658 0.290196 0.290196 0.290196 #0.000000
v 1.472656 1.795166 -1.050293 0.290196 0.290196 0.290196 #0.000000
v 1.457520 1.945313 -1.244141 0.290196 0.290196 0.290196 #0.000000
v 1.472656 1.795166 -1.050293 0.290196 0.290196 0.290196 #0.000000
v 0.592285 2.042725 -1.334229 0.290196 0.290196 0.290196 #0.000000
v 1.457520 1.945313 -1.244141 0.290196 0.290196 0.290196 #0.000000
v 1.472656 1.795166 -1.050293 0.290196 0.290196 0.290196 #0.000000
v 0.543945 1.792480 -1.229980 0.290196 0.290196 0.290196 #0.000000
v 0.592285 2.042725 -1.334229 0.290196 0.290196 0.290196 #0.000000
v 0.543945 1.792480 -1.229980 0.290196 0.290196 0.290196 #0.000000
v -0.271729 2.135010 -1.304443 0.290196 0.290196 0.290196 #0.000000
v 0.592285 2.042725 -1.334229 0.290196 0.290196 0.290196 #0.000000
v 0.543945 1.792480 -1.229980 0.290196 0.290196 0.290196 #0.000000
v -0.374512 1.973877 -1.247070 0.290196 0.290196 0.290196 #0.000000
v -0.271729 2.135010 -1.304443 0.290196 0.290196 0.290196 #0.000000
v -0.374512 1.973877 -1.247070 0.290196 0.290196 0.290196 #0.000000
v -0.843994 2.194336 -1.036377 0.290196 0.290196 0.290196 #0.000000
v -0.271729 2.135010 -1.304443 0.290196 0.290196 0.290196 #0.000000
v -0.709961 2.008301 -1.119141 0.290196 0.290196 0.290196 #0.000000
v -1.066895 2.053467 -0.876465 0.290196 0.290196 0.290196 #0.000000
v -0.843994 2.194336 -1.036377 0.290196 0.290196 0.290196 #0.000000
v -1.066895 2.053467 -0.876465 0.290196 0.290196 0.290196 #0.000000
v -1.237305 2.237061 -0.493652 0.290196 0.290196 0.290196 #0.000000
v -0.843994 2.194336 -1.036377 0.290196 0.290196 0.290196 #0.000000
v -1.285889 2.077881 -0.427490 0.290196 0.290196 0.290196 #0.000000
v -1.309326 2.088623 0.105469 0.290196 0.290196 0.290196 #0.000000
v -1.302490 2.246094 0.102539 0.290196 0.290196 0.290196 #0.000000
v -1.302490 2.246094 0.102539 0.290196 0.290196 0.290196 #0.000000
v -1.271973 2.085449 0.637939 0.290196 0.290196 0.290196 #0.000000
v -1.221680 2.245605 0.697021 0.290196 0.290196 0.290196 #0.000000
v -1.066895 2.053467 -0.876465 0.290196 0.290196 0.290196 #0.000000
v -1.285889 2.077881 -0.427490 0.290196 0.290196 0.290196 #0.000000
v -1.237305 2.237061 -0.493652 0.290196 0.290196 0.290196 #0.000000
v -1.237305 2.237061 -0.493652 0.290196 0.290196 0.290196 #0.000000
v -1.285889 2.077881 -0.427490 0.290196 0.290196 0.290196 #0.000000
v -1.302490 2.246094 0.102539 0.290196 0.290196 0.290196 #0.000000
v -1.221680 2.245605 0.697021 0.290196 0.290196 0.290196 #0.000000
v -1.271973 2.085449 0.637939 0.290196 0.290196 0.290196 #0.000000
v -1.041016 2.067627 1.080566 0.290196 0.290196 0.290196 #0.000000
v -1.041016 2.067627 1.080566 0.290196 0.290196 0.290196 #0.000000
v -0.677734 2.025879 1.313965 0.290196 0.290196 0.290196 #0.000000
v -0.814209 2.210693 1.229248 0.290196 0.290196 0.290196 #0.000000
v -0.814209 2.210693 1.229248 0.290196 0.290196 0.290196 #0.000000
v -0.677734 2.025879 1.313965 0.290196 0.290196 0.290196 #0.000000
v -0.234863 2.155273 1.482910 0.290196 0.290196 0.290196 #0.000000
v -0.374512 1.973877 -1.247070 0.290196 0.290196 0.290196 #0.000000
v -0.709961 2.008301 -1.119141 0.290196 0.290196 0.290196 #0.000000
v -0.843994 2.194336 -1.036377 0.290196 0.290196 0.290196 #0.000000
v -2.413086 1.677979 0.633545 0.290196 0.290196 0.290196 #0.000000
v -2.031250 1.584229 1.152344 0.290196 0.290196 0.290196 #0.000000
v -1.041016 2.067627 1.080566 0.290196 0.290196 0.290196 #0.000000
v -1.041016 2.067627 1.080566 0.290196 0.290196 0.290196 #0.000000
v -1.271973 2.085449 0.637939 0.290196 0.290196 0.290196 #0.000000
v -2.413086 1.677979 0.633545 0.290196 0.290196 0.290196 #0.000000
v -1.412842 1.515137 1.461182 0.290196 0.290196 0.290196 #0.000000
v -0.712891 1.493896 1.527100 0.290196 0.290196 0.290196 #0.000000
v -0.339111 1.993408 1.433594 0.290196 0.290196 0.290196 #0.000000
v -0.339111 1.993408 1.433594 0.290196 0.290196 0.290196 #0.000000
v -0.677734 2.025879 1.313965 0.290196 0.290196 0.290196 #0.000000
v -1.412842 1.515137 1.461182 0.290196 0.290196 0.290196 #0.000000
v -0.339111 1.993408 1.433594 0.290196 0.290196 0.290196 #0.000000
v 0.258789 1.635742 1.484863 0.290196 0.290196 0.290196 #0.000000
v 0.612793 1.888672 1.515869 0.290196 0.290196 0.290196 #0.000000
v -0.096680 1.531738 1.503906 0.290196 0.290196 0.290196 #0.000000
v -0.339111 1.993408 1.433594 0.290196 0.290196 0.290196 #0.000000
v -0.712891 1.493896 1.527100 0.290196 0.290196 0.290196 #0.000000
v -0.133789 1.511230 -1.316895 0.290196 0.290196 0.290196 #0.000000
v -0.750244 1.474121 -1.322998 0.290196 0.290196 0.290196 #0.000000
v -0.374512 1.973877 -1.247070 0.290196 0.290196 0.290196 #0.000000
v -0.374512 1.973877 -1.247070 0.290196 0.290196 0.290196 #0.000000
v 0.221924 1.615479 -1.308594 0.290196 0.290196 0.290196 #0.000000
v -0.133789 1.511230 -1.316895 0.290196 0.290196 0.290196 #0.000000
v -1.448730 1.494873 -1.239014 0.290196 0.290196 0.290196 #0.000000
v -2.058594 1.569580 -0.914795 0.290196 0.290196 0.290196 #0.000000
v -1.066895 2.053467 -0.876465 0.290196 0.290196 0.290196 #0.000000
v -1.066895 2.053467 -0.876465 0.290196 0.290196 0.290196 #0.000000
v -0.709961 2.008301 -1.119141 0.290196 0.290196 0.290196 #0.000000
v -1.448730 1.494873 -1.239014 0.290196 0.290196 0.290196 #0.000000
v -2.426514 1.670654 -0.387695 0.290196 0.290196 0.290196 #0.000000
v -2.492188 1.712646 0.123535 0.290196 0.290196 0.290196 #0.000000
v -1.309326 2.088623 0.105469 0.290196 0.290196 0.290196 #0.000000
v -1.309326 2.088623 0.105469 0.290196 0.290196 0.290196 #0.000000
v -1.285889 2.077881 -0.427490 0.290196 0.290196 0.290196 #0.000000
v -2.426514 1.670654 -0.387695 0.290196 0.290196 0.290196 #0.000000
v -2.058594 1.569580 -0.914795 0.290196 0.290196 0.290196 #0.000000
v -2.426514 1.670654 -0.387695 0.290196 0.290196 0.290196 #0.000000
v -1.285889 2.077881 -0.427490 0.290196 0.290196 0.290196 #0.000000
v -1.285889 2.077881 -0.427490 0.290196 0.290196 0.290196 #0.000000
v -1.066895 2.053467 -0.876465 0.290196 0.290196 0.290196 #0.000000
v -2.058594 1.569580 -0.914795 0.290196 0.290196 0.290196 #0.000000
v -2.492188 1.712646 0.123535 0.290196 0.290196 0.290196 #0.000000
v -2.413086 1.677979 0.633545 0.290196 0.290196 0.290196 #0.000000
v -1.271973 2.085449 0.637939 0.290196 0.290196 0.290196 #0.000000
v -1.271973 2.085449 0.637939 0.290196 0.290196 0.290196 #0.000000
v -1.309326 2.088623 0.105469 0.290196 0.290196 0.290196 #0.000000
v -2.492188 1.712646 0.123535 0.290196 0.290196 0.290196 #0.000000
v -2.031250 1.584229 1.152344 0.290196 0.290196 0.290196 #0.000000
v -1.412842 1.515137 1.461182 0.290196 0.290196 0.290196 #0.000000
v -0.677734 2.025879 1.313965 0.290196 0.290196 0.290196 #0.000000
v -0.677734 2.025879 1.313965 0.290196 0.290196 0.290196 #0.000000
v -1.041016 2.067627 1.080566 0.290196 0.290196 0.290196 #0.000000
v -2.031250 1.584229 1.152344 0.290196 0.290196 0.290196 #0.000000
v -0.750244 1.474121 -1.322998 0.290196 0.290196 0.290196 #0.000000
v -1.448730 1.494873 -1.239014 0.290196 0.290196 0.290196 #0.000000
v -0.709961 2.008301 -1.119141 0.290196 0.290196 0.290196 #0.000000
v -0.709961 2.008301 -1.119141 0.290196 0.290196 0.290196 #0.000000
v -0.374512 1.973877 -1.247070 0.290196 0.290196 0.290196 #0.000000
v -0.750244 1.474121 -1.322998 0.290196 0.290196 0.290196 #0.000000
v -0.339111 1.993408 1.433594 0.290196 0.290196 0.290196 #0.000000
v -0.096680 1.531738 1.503906 0.290196 0.290196 0.290196 #0.000000
v 0.258789 1.635742 1.484863 0.290196 0.290196 0.290196 #0.000000
v -0.374512 1.973877 -1.247070 0.290196 0.290196 0.290196 #0.000000
v 0.543945 1.792480 -1.229980 0.290196 0.290196 0.290196 #0.000000
v 0.221924 1.615479 -1.308594 0.290196 0.290196 0.290196 #0.000000
v -2.420898 1.607178 0.634033 0.290196 0.290196 0.290196 #0.000000
v -2.039063 1.513428 1.152832 0.290196 0.290196 0.290196 #0.000000
v -2.031250 1.584229 1.152344 0.290196 0.290196 0.290196 #0.000000
v -2.031250 1.584229 1.152344 0.290196 0.290196 0.290196 #0.000000
v -2.413086 1.677979 0.633545 0.290196 0.290196 0.290196 #0.000000
v -2.420898 1.607178 0.634033 0.290196 0.290196 0.290196 #0.000000
v -1.420654 1.444336 1.461914 0.290196 0.290196 0.290196 #0.000000
v -0.720703 1.423096 1.527588 0.290196 0.290196 0.290196 #0.000000
v -0.712891 1.493896 1.527100 0.290196 0.290196 0.290196 #0.000000
v -0.712891 1.493896 1.527100 0.290196 0.290196 0.290196 #0.000000
v -1.412842 1.515137 1.461182 0.290196 0.290196 0.290196 #0.000000
v -1.420654 1.444336 1.461914 0.290196 0.290196 0.290196 #0.000000
v 0.250977 1.564941 1.485596 0.290196 0.290196 0.290196 #0.000000
v 0.602051 1.775391 1.512695 0.290196 0.290196 0.290196 #0.000000
v 0.612793 1.888672 1.515869 0.290196 0.290196 0.290196 #0.000000
v 0.612793 1.888672 1.515869 0.290196 0.290196 0.290196 #0.000000
v 0.258789 1.635742 1.484863 0.290196 0.290196 0.290196 #0.000000
v 0.250977 1.564941 1.485596 0.290196 0.290196 0.290196 #0.000000
v -0.141602 1.440430 -1.316162 0.290196 0.290196 0.290196 #0.000000
v -0.758057 1.403076 -1.322266 0.290196 0.290196 0.290196 #0.000000
v -0.750244 1.474121 -1.322998 0.290196 0.290196 0.290196 #0.000000
v -0.750244 1.474121 -1.322998 0.290196 0.290196 0.290196 #0.000000
v -0.133789 1.511230 -1.316895 0.290196 0.290196 0.290196 #0.000000
v -0.141602 1.440430 -1.316162 0.290196 0.290196 0.290196 #0.000000
v 0.214111 1.544678 -1.307861 0.290196 0.290196 0.290196 #0.000000
v -0.141602 1.440430 -1.316162 0.290196 0.290196 0.290196 #0.000000
v -0.133789 1.511230 -1.316895 0.290196 0.290196 0.290196 #0.000000
v -0.133789 1.511230 -1.316895 0.290196 0.290196 0.290196 #0.000000
v 0.221924 1.615479 -1.308594 0.290196 0.290196 0.290196 #0.000000
v 0.214111 1.544678 -1.307861 0.290196 0.290196 0.290196 #0.000000
v -1.456543 1.424072 -1.238525 0.290196 0.290196 0.290196 #0.000000
v -2.066406 1.498779 -0.914307 0.290196 0.290196 0.290196 #0.000000
v -2.058594 1.569580 -0.914795 0.290196 0.290196 0.290196 #0.000000
v -2.058594 1.569580 -0.914795 0.290196 0.290196 0.290196 #0.000000
v -1.448730 1.494873 -1.239014 0.290196 0.290196 0.290196 #0.000000
v -1.456543 1.424072 -1.238525 0.290196 0.290196 0.290196 #0.000000
v -2.434326 1.599854 -0.386963 0.290196 0.290196 0.290196 #0.000000
v -2.500000 1.641846 0.124023 0.290196 0.290196 0.290196 #0.000000
v -2.492188 1.712646 0.123535 0.290196 0.290196 0.290196 #0.000000
v -2.492188 1.712646 0.123535 0.290196 0.290196 0.290196 #0.000000
v -2.426514 1.670654 -0.387695 0.290196 0.290196 0.290196 #0.000000
v -2.434326 1.599854 -0.386963 0.290196 0.290196 0.290196 #0.000000
v -2.066406 1.498779 -0.914307 0.290196 0.290196 0.290196 #0.000000
v -2.434326 1.599854 -0.386963 0.290196 0.290196 0.290196 #0.000000
v -2.426514 1.670654 -0.387695 0.290196 0.290196 0.290196 #0.000000
v -2.426514 1.670654 -0.387695 0.290196 0.290196 0.290196 #0.000000
v -2.058594 1.569580 -0.914795 0.290196 0.290196 0.290196 #0.000000
v -2.066406 1.498779 -0.914307 0.290196 0.290196 0.290196 #0.000000
v -2.500000 1.641846 0.124023 0.290196 0.290196 0.290196 #0.000000
v -2.420898 1.607178 0.634033 0.290196 0.290196 0.290196 #0.000000
v -2.413086 1.677979 0.633545 0.290196 0.290196 0.290196 #0.000000
v -2.413086 1.677979 0.633545 0.290196 0.290196 0.290196 #0.000000
v -2.492188 1.712646 0.123535 0.290196 0.290196 0.290196 #0.000000
v -2.500000 1.641846 0.124023 0.290196 0.290196 0.290196 #0.000000
v -2.039063 1.513428 1.152832 0.290196 0.290196 0.290196 #0.000000
v -1.420654 1.444336 1.461914 0.290196 0.290196 0.290196 #0.000000
v -1.412842 1.515137 1.461182 0.290196 0.290196 0.290196 #0.000000
v -1.412842 1.515137 1.461182 0.290196 0.290196 0.290196 #0.000000
v -2.031250 1.584229 1.152344 0.290196 0.290196 0.290196 #0.000000
v -2.039063 1.513428 1.152832 0.290196 0.290196 0.290196 #0.000000
v -0.758057 1.403076 -1.322266 0.290196 0.290196 0.290196 #0.000000
v -1.456543 1.424072 -1.238525 0.290196 0.290196 0.290196 #0.000000
v -1.448730 1.494873 -1.239014 0.290196 0.290196 0.290196 #0.000000
v -1.448730 1.494873 -1.239014 0.290196 0.290196 0.290196 #0.000000
v -0.750244 1.474121 -1.322998 0.290196 0.290196 0.290196 #0.000000
v -0.758057 1.403076 -1.322266 0.290196 0.290196 0.290196 #0.000000
v -0.720703 1.423096 1.527588 0.290196 0.290196 0.290196 #0.000000
v -0.104492 1.460938 1.504639 0.290196 0.290196 0.290196 #0.000000
v -0.096680 1.531738 1.503906 0.290196 0.290196 0.290196 #0.000000
v -0.096680 1.531738 1.503906 0.290196 0.290196 0.290196 #0.000000
v -0.712891 1.493896 1.527100 0.290196 0.290196 0.290196 #0.000000
v -0.720703 1.423096 1.527588 0.290196 0.290196 0.290196 #0.000000
v -0.104492 1.460938 1.504639 0.290196 0.290196 0.290196 #0.000000
v 0.250977 1.564941 1.485596 0.290196 0.290196 0.290196 #0.000000
v 0.258789 1.635742 1.484863 0.290196 0.290196 0.290196 #0.000000
v 0.258789 1.635742 1.484863 0.290196 0.290196 0.290196 #0.000000
v -0.096680 1.531738 1.503906 0.290196 0.290196 0.290196 #0.000000
v -0.104492 1.460938 1.504639 0.290196 0.290196 0.290196 #0.000000
v 0.543945 1.792480 -1.229980 0.290196 0.290196 0.290196 #0.000000
v 0.214111 1.544678 -1.307861 0.290196 0.290196 0.290196 #0.000000
v 0.221924 1.615479 -1.308594 0.290196 0.290196 0.290196 #0.000000
v -1.169434 1.824463 0.659668 0.290196 0.290196 0.290196 #0.000000
v -0.945313 1.745850 1.085449 0.290196 0.290196 0.290196 #0.000000
v -2.039063 1.513428 1.152832 0.290196 0.290196 0.290196 #0.000000
v -2.039063 1.513428 1.152832 0.290196 0.290196 0.290196 #0.000000
v -2.420898 1.607178 0.634033 0.290196 0.290196 0.290196 #0.000000
v -1.169434 1.824463 0.659668 0.290196 0.290196 0.290196 #0.000000
v -0.584717 1.683594 1.281982 0.290196 0.290196 0.290196 #0.000000
v -0.117920 1.779297 1.395508 0.290196 0.290196 0.290196 #0.000000
v -0.720703 1.423096 1.527588 0.290196 0.290196 0.290196 #0.000000
v -0.720703 1.423096 1.527588 0.290196 0.290196 0.290196 #0.000000
v -1.420654 1.444336 1.461914 0.290196 0.290196 0.290196 #0.000000
v -0.584717 1.683594 1.281982 0.290196 0.290196 0.290196 #0.000000
v -0.758057 1.403076 -1.322266 0.290196 0.290196 0.290196 #0.000000
v -0.141602 1.440430 -1.316162 0.290196 0.290196 0.290196 #0.000000
v -0.275635 1.732910 -0.916260 0.290196 0.290196 0.290196 #0.000000
v -0.141602 1.440430 -1.316162 0.290196 0.290196 0.290196 #0.000000
v 0.214111 1.544678 -1.307861 0.290196 0.290196 0.290196 #0.000000
v -0.275635 1.732910 -0.916260 0.290196 0.290196 0.290196 #0.000000
v -0.613037 1.667725 -0.848877 0.290196 0.290196 0.290196 #0.000000
v -0.968018 1.733643 -0.643799 0.290196 0.290196 0.290196 #0.000000
v -2.066406 1.498779 -0.914307 0.290196 0.290196 0.290196 #0.000000
v -2.066406 1.498779 -0.914307 0.290196 0.290196 0.290196 #0.000000
v -1.456543 1.424072 -1.238525 0.290196 0.290196 0.290196 #0.000000
v -0.613037 1.667725 -0.848877 0.290196 0.290196 0.290196 #0.000000
v -1.181152 1.818115 -0.213379 0.290196 0.290196 0.290196 #0.000000
v -1.217529 1.852539 0.223633 0.290196 0.290196 0.290196 #0.000000
v -2.500000 1.641846 0.124023 0.290196 0.290196 0.290196 #0.000000
v -2.500000 1.641846 0.124023 0.290196 0.290196 0.290196 #0.000000
v -2.434326 1.599854 -0.386963 0.290196 0.290196 0.290196 #0.000000
v -1.181152 1.818115 -0.213379 0.290196 0.290196 0.290196 #0.000000
v -0.968018 1.733643 -0.643799 0.290196 0.290196 0.290196 #0.000000
v -1.181152 1.818115 -0.213379 0.290196 0.290196 0.290196 #0.000000
v -2.434326 1.599854 -0.386963 0.290196 0.290196 0.290196 #0.000000
v -2.434326 1.599854 -0.386963 0.290196 0.290196 0.290196 #0.000000
v -2.066406 1.498779 -0.914307 0.290196 0.290196 0.290196 #0.000000
v -0.968018 1.733643 -0.643799 0.290196 0.290196 0.290196 #0.000000
v -1.217529 1.852539 0.223633 0.290196 0.290196 0.290196 #0.000000
v -1.169434 1.824463 0.659668 0.290196 0.290196 0.290196 #0.000000
v -2.420898 1.607178 0.634033 0.290196 0.290196 0.290196 #0.000000
v -2.420898 1.607178 0.634033 0.290196 0.290196 0.290196 #0.000000
v -2.500000 1.641846 0.124023 0.290196 0.290196 0.290196 #0.000000
v -1.217529 1.852539 0.223633 0.290196 0.290196 0.290196 #0.000000
v -0.945313 1.745850 1.085449 0.290196 0.290196 0.290196 #0.000000
v -0.584717 1.683594 1.281982 0.290196 0.290196 0.290196 #0.000000
v -1.420654 1.444336 1.461914 0.290196 0.290196 0.290196 #0.000000
v -1.420654 1.444336 1.461914 0.290196 0.290196 0.290196 #0.000000
v -2.039063 1.513428 1.152832 0.290196 0.290196 0.290196 #0.000000
v -0.945313 1.745850 1.085449 0.290196 0.290196 0.290196 #0.000000
v -0.275635 1.732910 -0.916260 0.290196 0.290196 0.290196 #0.000000
v -0.613037 1.667725 -0.848877 0.290196 0.290196 0.290196 #0.000000
v -1.456543 1.424072 -1.238525 0.290196 0.290196 0.290196 #0.000000
v -1.456543 1.424072 -1.238525 0.290196 0.290196 0.290196 #0.000000
v -0.758057 1.403076 -1.322266 0.290196 0.290196 0.290196 #0.000000
v -0.275635 1.732910 -0.916260 0.290196 0.290196 0.290196 #0.000000
v -0.104492 1.460938 1.504639 0.290196 0.290196 0.290196 #0.000000
v -0.720703 1.423096 1.527588 0.290196 0.290196 0.290196 #0.000000
v -0.117920 1.779297 1.395508 0.290196 0.290196 0.290196 #0.000000
v 0.250977 1.564941 1.485596 0.290196 0.290196 0.290196 #0.000000
v -0.104492 1.460938 1.504639 0.290196 0.290196 0.290196 #0.000000
v -0.117920 1.779297 1.395508 0.290196 0.290196 0.290196 #0.000000
v 0.808838 3.836426 0.059814 0.290196 0.290196 0.290196 #0.000000
v 0.685791 3.813477 0.061523 0.290196 0.290196 0.290196 #0.000000
v 0.806641 3.801270 0.199219 0.290196 0.290196 0.290196 #0.000000
v 0.685791 3.813477 0.061523 0.290196 0.290196 0.290196 #0.000000
v 0.650879 3.717041 0.062744 0.290196 0.290196 0.290196 #0.000000
v 0.695801 3.727783 0.183105 0.290196 0.290196 0.290196 #0.000000
v 0.685791 3.813477 0.061523 0.290196 0.290196 0.290196 #0.000000
v 0.695801 3.727783 0.183105 0.290196 0.290196 0.290196 #0.000000
v 0.806641 3.801270 0.199219 0.290196 0.290196 0.290196 #0.000000
v 0.806641 3.801270 0.199219 0.290196 0.290196 0.290196 #0.000000
v 0.695801 3.727783 0.183105 0.290196 0.290196 0.290196 #0.000000
v 0.797119 3.710449 0.229492 0.290196 0.290196 0.290196 #0.000000
v 0.808838 3.836426 0.059814 0.290196 0.290196 0.290196 #0.000000
v 0.806641 3.801270 0.199219 0.290196 0.290196 0.290196 #0.000000
v 0.923828 3.787109 0.058594 0.290196 0.290196 0.290196 #0.000000
v 0.806641 3.801270 0.199219 0.290196 0.290196 0.290196 #0.000000
v 0.797119 3.710449 0.229492 0.290196 0.290196 0.290196 #0.000000
v 0.898438 3.705322 0.177002 0.290196 0.290196 0.290196 #0.000000
v 0.806641 3.801270 0.199219 0.290196 0.290196 0.290196 #0.000000
v 0.898438 3.705322 0.177002 0.290196 0.290196 0.290196 #0.000000
v 0.923828 3.787109 0.058594 0.290196 0.290196 0.290196 #0.000000
v 0.923828 3.787109 0.058594 0.290196 0.290196 0.290196 #0.000000
v 0.898438 3.705322 0.177002 0.290196 0.290196 0.290196 #0.000000
v 0.937256 3.685547 0.059326 0.290196 0.290196 0.290196 #0.000000
v 0.808838 3.836426 0.059814 0.290196 0.290196 0.290196 #0.000000
v 0.923828 3.787109 0.058594 0.290196 0.290196 0.290196 #0.000000
v 0.802979 3.799316 -0.078857 0.290196 0.290196 0.290196 #0.000000
v 0.923828 3.787109 0.058594 0.290196 0.290196 0.290196 #0.000000
v 0.937256 3.685547 0.059326 0.290196 0.290196 0.290196 #0.000000
v 0.895264 3.703613 -0.057617 0.290196 0.290196 0.290196 #0.000000
v 0.923828 3.787109 0.058594 0.290196 0.290196 0.290196 #0.000000
v 0.895264 3.703613 -0.057617 0.290196 0.290196 0.290196 #0.000000
v 0.802979 3.799316 -0.078857 0.290196 0.290196 0.290196 #0.000000
v 0.802979 3.799316 -0.078857 0.290196 0.290196 0.290196 #0.000000
v 0.895264 3.703613 -0.057617 0.290196 0.290196 0.290196 #0.000000
v 0.792725 3.708008 -0.107422 0.290196 0.290196 0.290196 #0.000000
v 0.808838 3.836426 0.059814 0.290196 0.290196 0.290196 #0.000000
v 0.802979 3.799316 -0.078857 0.290196 0.290196 0.290196 #0.000000
v 0.685791 3.813477 0.061523 0.290196 0.290196 0.290196 #0.000000
v 0.802979 3.799316 -0.078857 0.290196 0.290196 0.290196 #0.000000
v 0.792725 3.708008 -0.107422 0.290196 0.290196 0.290196 #0.000000
v 0.692627 3.726074 -0.058838 0.290196 0.290196 0.290196 #0.000000
v 0.802979 3.799316 -0.078857 0.290196 0.290196 0.290196 #0.000000
v 0.692627 3.726074 -0.058838 0.290196 0.290196 0.290196 #0.000000
v 0.685791 3.813477 0.061523 0.290196 0.290196 0.290196 #0.000000
v 0.685791 3.813477 0.061523 0.290196 0.290196 0.290196 #0.000000
v 0.692627 3.726074 -0.058838 0.290196 0.290196 0.290196 #0.000000
v 0.650879 3.717041 0.062744 0.290196 0.290196 0.290196 #0.000000
v 2.480713 2.299805 0.050537 0.290196 0.290196 0.290196 #0.000000
v 2.465820 2.113525 -0.231201 0.290196 0.290196 0.290196 #0.000000
v 2.289063 2.535400 -0.606934 0.290196 0.290196 0.290196 #0.000000
v 2.480713 2.299805 0.050537 0.290196 0.290196 0.290196 #0.000000
v 2.472656 2.117432 0.337158 0.290196 0.290196 0.290196 #0.000000
v 2.465820 2.113525 -0.231201 0.290196 0.290196 0.290196 #0.000000
v 2.465820 2.113525 -0.231201 0.290196 0.290196 0.290196 #0.000000
v 2.472656 2.117432 0.337158 0.290196 0.290196 0.290196 #0.000000
v 2.435791 1.873779 -0.228516 0.290196 0.290196 0.290196 #0.000000
v 2.306396 2.544922 0.709473 0.290196 0.290196 0.290196 #0.000000
v 2.472656 2.117432 0.337158 0.290196 0.290196 0.290196 #0.000000
v 2.480713 2.299805 0.050537 0.290196 0.290196 0.290196 #0.000000
v 2.362305 1.655762 0.188232 0.290196 0.290196 0.290196 #0.000000
v 2.182129 1.679443 -0.524658 0.290196 0.290196 0.290196 #0.000000
v 2.435791 1.873779 -0.228516 0.290196 0.290196 0.290196 #0.000000
v 2.465820 2.113525 -0.231201 0.290196 0.290196 0.290196 #0.000000
v 2.435791 1.873779 -0.228516 0.290196 0.290196 0.290196 #0.000000
v 2.227539 1.854980 -0.703125 0.290196 0.290196 0.290196 #0.000000
v 2.200928 1.689941 0.905273 0.290196 0.290196 0.290196 #0.000000
v 2.362305 1.655762 0.188232 0.290196 0.290196 0.290196 #0.000000
v 2.417480 1.871826 0.340088 0.290196 0.290196 0.290196 #0.000000
v 2.472656 2.117432 0.337158 0.290196 0.290196 0.290196 #0.000000
v 2.417480 1.871826 0.340088 0.290196 0.290196 0.290196 #0.000000
v 2.435791 1.873779 -0.228516 0.290196 0.290196 0.290196 #0.000000
v 0.104004 2.732178 0.194580 0.290196 0.290196 0.290196 #0.000000
v 1.172363 2.976318 0.181396 0.290196 0.290196 0.290196 #0.000000
v 1.069092 2.853271 0.942627 0.290196 0.290196 0.290196 #0.000000
v 0.104004 2.732178 0.194580 0.290196 0.290196 0.290196 #0.000000
v -1.217529 1.852539 0.223633 0.290196 0.290196 0.290196 #0.000000
v -1.181152 1.818115 -0.213379 0.290196 0.290196 0.290196 #0.000000
v -1.181152 1.818115 -0.213379 0.290196 0.290196 0.290196 #0.000000
v 0.360596 2.770508 -0.664063 0.290196 0.290196 0.290196 #0.000000
v 0.104004 2.732178 0.194580 0.290196 0.290196 0.290196 #0.000000
v 0.958740 2.983643 -0.613770 0.290196 0.290196 0.290196 #0.000000
v 1.472656 1.795166 -1.050293 0.290196 0.290196 0.290196 #0.000000
v 2.182129 1.679443 -0.524658 0.290196 0.290196 0.290196 #0.000000
v 0.214111 1.544678 -1.307861 0.290196 0.290196 0.290196 #0.000000
v 0.543945 1.792480 -1.229980 0.290196 0.290196 0.290196 #0.000000
v -0.275635 1.732910 -0.916260 0.290196 0.290196 0.290196 #0.000000
v -1.217529 1.852539 0.223633 0.290196 0.290196 0.290196 #0.000000
v 0.311279 2.720703 0.991211 0.290196 0.290196 0.290196 #0.000000
v -1.169434 1.824463 0.659668 0.290196 0.290196 0.290196 #0.000000
v 1.172363 2.976318 0.181396 0.290196 0.290196 0.290196 #0.000000
v 0.958740 2.983643 -0.613770 0.290196 0.290196 0.290196 #0.000000
v 2.182129 1.679443 -0.524658 0.290196 0.290196 0.290196 #0.000000
v 1.172363 2.976318 0.181396 0.290196 0.290196 0.290196 #0.000000
v 2.182129 1.679443 -0.524658 0.290196 0.290196 0.290196 #0.000000
v 2.362305 1.655762 0.188232 0.290196 0.290196 0.290196 #0.000000
v 2.362305 1.655762 0.188232 0.290196 0.290196 0.290196 #0.000000
v 2.200928 1.689941 0.905273 0.290196 0.290196 0.290196 #0.000000
v 1.172363 2.976318 0.181396 0.290196 0.290196 0.290196 #0.000000
v -1.217529 1.852539 0.223633 0.290196 0.290196 0.290196 #0.000000
v 0.104004 2.732178 0.194580 0.290196 0.290196 0.290196 #0.000000
v 0.311279 2.720703 0.991211 0.290196 0.290196 0.290196 #0.000000
v 0.311279 2.720703 0.991211 0.290196 0.290196 0.290196 #0.000000
v -0.117920 1.779297 1.395508 0.290196 0.290196 0.290196 #0.000000
v -0.584717 1.683594 1.281982 0.290196 0.290196 0.290196 #0.000000
v 0.311279 2.720703 0.991211 0.290196 0.290196 0.290196 #0.000000
v -0.584717 1.683594 1.281982 0.290196 0.290196 0.290196 #0.000000
v -0.945313 1.745850 1.085449 0.290196 0.290196 0.290196 #0.000000
v 0.311279 2.720703 0.991211 0.290196 0.290196 0.290196 #0.000000
v -0.945313 1.745850 1.085449 0.290196 0.290196 0.290196 #0.000000
v -1.169434 1.824463 0.659668 0.290196 0.290196 0.290196 #0.000000
v 1.069092 2.853271 0.942627 0.290196 0.290196 0.290196 #0.000000
v 2.200928 1.689941 0.905273 0.290196 0.290196 0.290196 #0.000000
v 1.510498 1.770508 1.437500 0.290196 0.290196 0.290196 #0.000000
v 1.510498 1.770508 1.437500 0.290196 0.290196 0.290196 #0.000000
v 0.612793 1.888672 1.515869 0.290196 0.290196 0.290196 #0.000000
v 0.311279 2.720703 0.991211 0.290196 0.290196 0.290196 #0.000000
v 0.612793 1.888672 1.515869 0.290196 0.290196 0.290196 #0.000000
v 0.250977 1.564941 1.485596 0.290196 0.290196 0.290196 #0.000000
v -0.117920 1.779297 1.395508 0.290196 0.290196 0.290196 #0.000000
v -0.117920 1.779297 1.395508 0.290196 0.290196 0.290196 #0.000000
v 0.311279 2.720703 0.991211 0.290196 0.290196 0.290196 #0.000000
v 0.612793 1.888672 1.515869 0.290196 0.290196 0.290196 #0.000000
v -1.181152 1.818115 -0.213379 0.290196 0.290196 0.290196 #0.000000
v -0.968018 1.733643 -0.643799 0.290196 0.290196 0.290196 #0.000000
v 0.360596 2.770508 -0.664063 0.290196 0.290196 0.290196 #0.000000
v -0.968018 1.733643 -0.643799 0.290196 0.290196 0.290196 #0.000000
v -0.613037 1.667725 -0.848877 0.290196 0.290196 0.290196 #0.000000
v 0.360596 2.770508 -0.664063 0.290196 0.290196 0.290196 #0.000000
v -0.613037 1.667725 -0.848877 0.290196 0.290196 0.290196 #0.000000
v -0.275635 1.732910 -0.916260 0.290196 0.290196 0.290196 #0.000000
v 0.360596 2.770508 -0.664063 0.290196 0.290196 0.290196 #0.000000
v 0.958740 2.983643 -0.613770 0.290196 0.290196 0.290196 #0.000000
v 0.543945 1.792480 -1.229980 0.290196 0.290196 0.290196 #0.000000
v 1.472656 1.795166 -1.050293 0.290196 0.290196 0.290196 #0.000000
v -0.275635 1.732910 -0.916260 0.290196 0.290196 0.290196 #0.000000
v 0.543945 1.792480 -1.229980 0.290196 0.290196 0.290196 #0.000000
v 0.360596 2.770508 -0.664063 0.290196 0.290196 0.290196 #0.000000
v 0.311279 2.720703 0.991211 0.290196 0.290196 0.290196 #0.000000
v 1.069092 2.853271 0.942627 0.290196 0.290196 0.290196 #0.000000
v 1.510498 1.770508 1.437500 0.290196 0.290196 0.290196 #0.000000
v 0.104004 2.732178 0.194580 0.290196 0.290196 0.290196 #0.000000
v 1.069092 2.853271 0.942627 0.290196 0.290196 0.290196 #0.000000
v 0.311279 2.720703 0.991211 0.290196 0.290196 0.290196 #0.000000
v 1.172363 2.976318 0.181396 0.290196 0.290196 0.290196 #0.000000
v 2.200928 1.689941 0.905273 0.290196 0.290196 0.290196 #0.000000
v 1.069092 2.853271 0.942627 0.290196 0.290196 0.290196 #0.000000
v 0.104004 2.732178 0.194580 0.290196 0.290196 0.290196 #0.000000
v 0.958740 2.983643 -0.613770 0.290196 0.290196 0.290196 #0.000000
v 1.172363 2.976318 0.181396 0.290196 0.290196 0.290196 #0.000000
v 0.104004 2.732178 0.194580 0.290196 0.290196 0.290196 #0.000000
v 0.360596 2.770508 -0.664063 0.290196 0.290196 0.290196 #0.000000
v 0.958740 2.983643 -0.613770 0.290196 0.290196 0.290196 #0.000000
v 0.360596 2.770508 -0.664063 0.290196 0.290196 0.290196 #0.000000
v 0.543945 1.792480 -1.229980 0.290196 0.290196 0.290196 #0.000000
v 0.958740 2.983643 -0.613770 0.290196 0.290196 0.290196 #0.000000
vt 0.008301 0.505859 0.000000
vt 0.311768 0.505859 0.000000
vt 0.008301 0.296875 0.000000
vt 0.311768 0.505859 0.000000
vt 0.428223 0.505859 0.000000
vt 0.414307 0.264648 0.000000
vt 0.311768 0.505859 0.000000
vt 0.414307 0.264648 0.000000
vt 0.008301 0.296875 0.000000
vt 0.008301 0.296875 0.000000
vt 0.414307 0.264648 0.000000
vt 0.008301 0.202881 0.000000
vt 0.428467 0.505859 0.000000
vt 0.641357 0.505859 0.000000
vt 0.565430 0.812012 0.000000
vt 0.428223 0.505859 0.000000
vt 0.565674 0.240723 0.000000
vt 0.414307 0.264648 0.000000
vt 0.414307 0.264648 0.000000
vt 0.565674 0.240723 0.000000
vt 0.356201 0.188477 0.000000
vt 0.414307 0.264648 0.000000
vt 0.356201 0.188477 0.000000
vt 0.008301 0.202881 0.000000
vt 0.008301 0.202881 0.000000
vt 0.356201 0.188477 0.000000
vt 0.008301 0.132324 0.000000
vt 0.641357 0.505859 0.000000
vt 0.926514 0.505859 0.000000
vt 0.914307 0.707031 0.000000
vt 0.641357 0.505859 0.000000
vt 0.914307 0.707031 0.000000
vt 0.565430 0.812012 0.000000
vt 0.565674 0.240479 0.000000
vt 0.913330 0.324463 0.000000
vt 0.591309 0.074463 0.000000
vt 0.565674 0.240723 0.000000
vt 0.591309 0.074707 0.000000
vt 0.356201 0.188477 0.000000
vt 0.356201 0.188477 0.000000
vt 0.591309 0.074707 0.000000
vt 0.433594 0.054688 0.000000
vt 0.356201 0.188477 0.000000
vt 0.433594 0.054688 0.000000
vt 0.008301 0.132324 0.000000
vt 0.008301 0.132324 0.000000
vt 0.433594 0.054688 0.000000
vt 0.008301 0.040771 0.000000
vt 0.008301 0.505859 0.000000
vt 0.008301 0.296875 0.000000
vt 0.312744 0.505859 0.000000
vt 0.008301 0.296875 0.000000
vt 0.008301 0.202881 0.000000
vt 0.414307 0.264160 0.000000
vt 0.008301 0.296875 0.000000
vt 0.414307 0.264160 0.000000
vt 0.312744 0.505859 0.000000
vt 0.312744 0.505859 0.000000
vt 0.414307 0.264160 0.000000
vt 0.427734 0.505859 0.000000
vt 0.008301 0.202881 0.000000
vt 0.008301 0.132324 0.000000
vt 0.356201 0.188477 0.000000
vt 0.008301 0.202881 0.000000
vt 0.356201 0.188477 0.000000
vt 0.414307 0.264160 0.000000
vt 0.414307 0.264160 0.000000
vt 0.356201 0.188477 0.000000
vt 0.565674 0.240723 0.000000
vt 0.414307 0.264160 0.000000
vt 0.565674 0.240723 0.000000
vt 0.427734 0.505859 0.000000
vt 0.427734 0.505859 0.000000
vt 0.565674 0.240723 0.000000
vt 0.313232 0.505859 0.000000
vt 0.008301 0.132324 0.000000
vt 0.008301 0.040771 0.000000
vt 0.433594 0.054688 0.000000
vt 0.008301 0.132324 0.000000
vt 0.433594 0.054688 0.000000
vt 0.356201 0.188477 0.000000
vt 0.356201 0.188477 0.000000
vt 0.433594 0.054688 0.000000
vt 0.591309 0.074707 0.000000
vt 0.356201 0.188477 0.000000
vt 0.591309 0.074707 0.000000
vt 0.565674 0.240723 0.000000
vt 0.565674 0.240723 0.000000
vt 0.591309 0.074707 0.000000
vt 0.356445 0.188477 0.000000
vt 0.356445 0.188477 0.000000
vt 0.591309 0.074707 0.000000
vt 0.433594 0.054688 0.000000
vt 0.008301 0.505859 0.000000
vt 0.312744 0.505859 0.000000
vt 0.008301 0.297119 0.000000
vt 0.312744 0.505859 0.000000
vt 0.427734 0.505859 0.000000
vt 0.414307 0.264160 0.000000
vt 0.312744 0.505859 0.000000
vt 0.414307 0.264160 0.000000
vt 0.008301 0.297119 0.000000
vt 0.414307 0.264648 0.000000
vt 0.008301 0.297119 0.000000
vt 0.008301 0.202881 0.000000
vt 0.427734 0.505859 0.000000
vt 0.313232 0.505859 0.000000
vt 0.565674 0.240723 0.000000
vt 0.427734 0.505859 0.000000
vt 0.565674 0.240723 0.000000
vt 0.414307 0.264160 0.000000
vt 0.414307 0.264160 0.000000
vt 0.565674 0.240723 0.000000
vt 0.356445 0.188477 0.000000
vt 0.414307 0.264160 0.000000
vt 0.356445 0.188477 0.000000
vt 0.008301 0.202881 0.000000
vt 0.008301 0.202881 0.000000
vt 0.356445 0.188477 0.000000
vt 0.008301 0.132324 0.000000
vt 0.359375 0.190674 0.000000
vt 0.591309 0.074707 0.000000
vt 0.565674 0.240723 0.000000
vt 0.565674 0.240723 0.000000
vt 0.591309 0.074707 0.000000
vt 0.356445 0.188477 0.000000
vt 0.356445 0.188477 0.000000
vt 0.591309 0.074707 0.000000
vt 0.433594 0.054688 0.000000
vt 0.356445 0.188477 0.000000
vt 0.433594 0.054688 0.000000
vt 0.008301 0.132324 0.000000
vt 0.008301 0.132324 0.000000
vt 0.433594 0.054688 0.000000
vt 0.008301 0.040771 0.000000
vt 0.008301 0.505859 0.000000
vt 0.008301 0.297119 0.000000
vt 0.311768 0.505859 0.000000
vt 0.008301 0.297119 0.000000
vt 0.414307 0.264160 0.000000
vt 0.008301 0.202881 0.000000
vt 0.008301 0.297119 0.000000
vt 0.414307 0.264648 0.000000
vt 0.311768 0.505859 0.000000
vt 0.311768 0.505859 0.000000
vt 0.414307 0.264648 0.000000
vt 0.428223 0.505859 0.000000
vt 0.008301 0.202881 0.000000
vt 0.008301 0.132324 0.000000
vt 0.356201 0.188477 0.000000
vt 0.008301 0.202881 0.000000
vt 0.356201 0.188477 0.000000
vt 0.414307 0.264648 0.000000
vt 0.414307 0.264648 0.000000
vt 0.356201 0.188477 0.000000
vt 0.565674 0.240723 0.000000
vt 0.414307 0.264648 0.000000
vt 0.565674 0.240723 0.000000
vt 0.428223 0.505859 0.000000
vt 0.428467 0.505859 0.000000
vt 0.565674 0.240723 0.000000
vt 0.641357 0.505859 0.000000
vt 0.008301 0.132324 0.000000
vt 0.008301 0.040771 0.000000
vt 0.433594 0.054688 0.000000
vt 0.008301 0.132324 0.000000
vt 0.433594 0.054688 0.000000
vt 0.356201 0.188477 0.000000
vt 0.356201 0.188477 0.000000
vt 0.433594 0.054688 0.000000
vt 0.591309 0.074707 0.000000
vt 0.356201 0.188477 0.000000
vt 0.591309 0.074707 0.000000
vt 0.565674 0.240723 0.000000
vt 0.565674 0.240723 0.000000
vt 0.591309 0.074707 0.000000
vt 0.913818 0.324219 0.000000
vt 0.565674 0.240723 0.000000
vt 0.913818 0.324219 0.000000
vt 0.641357 0.505859 0.000000
vt 0.641357 0.505859 0.000000
vt 0.913818 0.324219 0.000000
vt 0.926514 0.505859 0.000000
vt 0.959717 0.498535 0.000000
vt 0.955078 0.319092 0.000000
vt 0.926514 0.505859 0.000000
vt 0.913818 0.324219 0.000000
vt 0.784180 0.126221 0.000000
vt 0.591309 0.074707 0.000000
vt 0.538574 0.035156 0.000000
vt 0.446045 0.031982 0.000000
vt 0.433594 0.054688 0.000000
vt 0.446045 0.031982 0.000000
vt 0.008301 0.040771 0.000000
vt 0.433594 0.054688 0.000000
vt 0.446045 0.031982 0.000000
vt 0.008301 0.006348 0.000000
vt 0.008301 0.040771 0.000000
vt 0.008301 0.006348 0.000000
vt 0.433594 0.054688 0.000000
vt 0.008301 0.040771 0.000000
vt 0.008301 0.006348 0.000000
vt 0.446289 0.031738 0.000000
vt 0.433594 0.054688 0.000000
vt 0.446289 0.031738 0.000000
vt 0.591309 0.074707 0.000000
vt 0.433594 0.054688 0.000000
vt 0.446289 0.031738 0.000000
vt 0.784912 0.125732 0.000000
vt 0.591309 0.074707 0.000000
vt 0.784912 0.125732 0.000000
vt 0.433594 0.054688 0.000000
vt 0.591309 0.074707 0.000000
vt 0.433594 0.054688 0.000000
vt 0.447021 0.031494 0.000000
vt 0.433594 0.054688 0.000000
vt 0.433594 0.054688 0.000000
vt 0.785156 0.125732 0.000000
vt 0.591309 0.074707 0.000000
vt 0.785156 0.125732 0.000000
vt 0.433594 0.054688 0.000000
vt 0.591309 0.074707 0.000000
vt 0.785156 0.125732 0.000000
vt 0.446533 0.031738 0.000000
vt 0.433594 0.054688 0.000000
vt 0.446533 0.031738 0.000000
vt 0.008301 0.040771 0.000000
vt 0.433594 0.054688 0.000000
vt 0.446533 0.031738 0.000000
vt 0.008301 0.006348 0.000000
vt 0.008301 0.040771 0.000000
vt 0.008301 0.006348 0.000000
vt 0.433594 0.054688 0.000000
vt 0.008301 0.040771 0.000000
vt 0.008301 0.006348 0.000000
vt 0.446045 0.031982 0.000000
vt 0.433594 0.054688 0.000000
vt 0.446045 0.031982 0.000000
vt 0.591309 0.074707 0.000000
vt 0.433594 0.054688 0.000000
vt 0.538330 0.035156 0.000000
vt 0.783936 0.126221 0.000000
vt 0.591309 0.074707 0.000000
vt 0.783936 0.126221 0.000000
vt 0.913818 0.324219 0.000000
vt 0.591309 0.074707 0.000000
vt 0.954834 0.318848 0.000000
vt 0.959717 0.498535 0.000000
vt 0.926514 0.505859 0.000000
vt 0.926514 0.505859 0.000000
vt 0.955078 0.319092 0.000000
vt 0.913818 0.324219 0.000000
vt 0.783936 0.126221 0.000000
vt 0.954834 0.318848 0.000000
vt 0.913818 0.324219 0.000000
vt 0.913818 0.324219 0.000000
vt 0.954834 0.318848 0.000000
vt 0.926514 0.505859 0.000000
vt 0.913818 0.324219 0.000000
vt 0.955078 0.319092 0.000000
vt 0.784180 0.126221 0.000000
vt 0.784180 0.126221 0.000000
vt 0.538574 0.035156 0.000000
vt 0.591309 0.074707 0.000000
vt 0.591309 0.074707 0.000000
vt 0.538574 0.035156 0.000000
vt 0.433594 0.054688 0.000000
vt 0.446045 0.031982 0.000000
vt 0.538330 0.035156 0.000000
vt 0.591309 0.074707 0.000000
vt 0.172363 0.560791 0.000000
vt 0.093750 0.592041 0.000000
vt 0.141602 0.905273 0.000000
vt 0.141602 0.905273 0.000000
vt 0.188965 0.905518 0.000000
vt 0.172363 0.560791 0.000000
vt 0.041016 0.681885 0.000000
vt 0.033691 0.757080 0.000000
vt 0.065918 0.916260 0.000000
vt 0.065918 0.916260 0.000000
vt 0.104980 0.904541 0.000000
vt 0.041016 0.681885 0.000000
vt 0.065918 0.916260 0.000000
vt 0.035889 0.914307 0.000000
vt 0.020020 0.968994 0.000000
vt 0.033447 0.869141 0.000000
vt 0.065918 0.916260 0.000000
vt 0.033691 0.757080 0.000000
vt 0.033936 0.869141 0.000000
vt 0.034180 0.757080 0.000000
vt 0.066406 0.916260 0.000000
vt 0.066406 0.916260 0.000000
vt 0.036377 0.914307 0.000000
vt 0.033936 0.869141 0.000000
vt 0.041504 0.681885 0.000000
vt 0.094238 0.592041 0.000000
vt 0.142090 0.905273 0.000000
vt 0.142090 0.905273 0.000000
vt 0.105469 0.904541 0.000000
vt 0.041504 0.681885 0.000000
vt 0.172607 0.560791 0.000000
vt 0.245605 0.557617 0.000000
vt 0.247803 0.909424 0.000000
vt 0.247803 0.909424 0.000000
vt 0.189697 0.905518 0.000000
vt 0.172607 0.560791 0.000000
vt 0.094238 0.592041 0.000000
vt 0.172607 0.560791 0.000000
vt 0.189697 0.905518 0.000000
vt 0.189697 0.905518 0.000000
vt 0.142090 0.905273 0.000000
vt 0.094238 0.592041 0.000000
vt 0.245605 0.557617 0.000000
vt 0.172363 0.560791 0.000000
vt 0.188965 0.905518 0.000000
vt 0.188965 0.905518 0.000000
vt 0.247803 0.909424 0.000000
vt 0.245605 0.557617 0.000000
vt 0.093750 0.592041 0.000000
vt 0.041016 0.681885 0.000000
vt 0.104980 0.904541 0.000000
vt 0.104980 0.904541 0.000000
vt 0.141602 0.905273 0.000000
vt 0.093750 0.592041 0.000000
vt 0.034180 0.757080 0.000000
vt 0.041504 0.681885 0.000000
vt 0.105469 0.904541 0.000000
vt 0.105469 0.904541 0.000000
vt 0.066406 0.916260 0.000000
vt 0.034180 0.757080 0.000000
vt 0.065918 0.916260 0.000000
vt 0.033447 0.869141 0.000000
vt 0.035889 0.914307 0.000000
vt 0.066406 0.916260 0.000000
vt 0.020508 0.968994 0.000000
vt 0.036377 0.914307 0.000000
vt 0.167725 0.545898 0.000000
vt 0.084717 0.577393 0.000000
vt 0.093750 0.592041 0.000000
vt 0.093750 0.592041 0.000000
vt 0.172363 0.560791 0.000000
vt 0.167725 0.545898 0.000000
vt 0.029053 0.667236 0.000000
vt 0.021240 0.742188 0.000000
vt 0.033691 0.757080 0.000000
vt 0.033691 0.757080 0.000000
vt 0.041016 0.681885 0.000000
vt 0.029053 0.667236 0.000000
vt 0.019287 0.915283 0.000000
vt 0.020020 0.962891 0.000000
vt 0.020020 0.968994 0.000000
vt 0.020020 0.968994 0.000000
vt 0.035889 0.914307 0.000000
vt 0.019287 0.915283 0.000000
vt 0.018555 0.840088 0.000000
vt 0.021484 0.742188 0.000000
vt 0.034180 0.757080 0.000000
vt 0.034180 0.757080 0.000000
vt 0.033936 0.869141 0.000000
vt 0.018555 0.840088 0.000000
vt 0.019775 0.915283 0.000000
vt 0.018555 0.840088 0.000000
vt 0.033936 0.869141 0.000000
vt 0.033936 0.869141 0.000000
vt 0.036377 0.914307 0.000000
vt 0.019775 0.915283 0.000000
vt 0.029541 0.667236 0.000000
vt 0.085205 0.577393 0.000000
vt 0.094238 0.592041 0.000000
vt 0.094238 0.592041 0.000000
vt 0.041504 0.681885 0.000000
vt 0.029541 0.667236 0.000000
vt 0.168213 0.546143 0.000000
vt 0.245605 0.542969 0.000000
vt 0.245605 0.557617 0.000000
vt 0.245605 0.557617 0.000000
vt 0.172607 0.560791 0.000000
vt 0.168213 0.546143 0.000000
vt 0.085205 0.577393 0.000000
vt 0.168213 0.546143 0.000000
vt 0.172607 0.560791 0.000000
vt 0.172607 0.560791 0.000000
vt 0.094238 0.592041 0.000000
vt 0.085205 0.577393 0.000000
vt 0.245605 0.542969 0.000000
vt 0.167725 0.545898 0.000000
vt 0.172363 0.560791 0.000000
vt 0.172363 0.560791 0.000000
vt 0.245605 0.557617 0.000000
vt 0.245605 0.542969 0.000000
vt 0.084717 0.577393 0.000000
vt 0.029053 0.667236 0.000000
vt 0.041016 0.681885 0.000000
vt 0.041016 0.681885 0.000000
vt 0.093750 0.592041 0.000000
vt 0.084717 0.577393 0.000000
vt 0.021484 0.742188 0.000000
vt 0.029541 0.667236 0.000000
vt 0.041504 0.681885 0.000000
vt 0.041504 0.681885 0.000000
vt 0.034180 0.757080 0.000000
vt 0.021484 0.742188 0.000000
vt 0.021240 0.742188 0.000000
vt 0.018066 0.840088 0.000000
vt 0.033447 0.869141 0.000000
vt 0.033447 0.869141 0.000000
vt 0.033691 0.757080 0.000000
vt 0.021240 0.742188 0.000000
vt 0.018066 0.840088 0.000000
vt 0.019287 0.915283 0.000000
vt 0.035889 0.914307 0.000000
vt 0.035889 0.914307 0.000000
vt 0.033447 0.869141 0.000000
vt 0.018066 0.840088 0.000000
vt 0.020508 0.965332 0.000000
vt 0.019775 0.915283 0.000000
vt 0.036377 0.914307 0.000000
vt 0.307129 0.931152 0.000000
vt 0.351563 0.948975 0.000000
vt 0.393799 0.602539 0.000000
vt 0.393799 0.602539 0.000000
vt 0.325684 0.556885 0.000000
vt 0.307129 0.931152 0.000000
vt 0.390137 0.961426 0.000000
vt 0.433594 0.977539 0.000000
vt 0.444336 0.781006 0.000000
vt 0.444336 0.781006 0.000000
vt 0.423584 0.689941 0.000000
vt 0.390137 0.961426 0.000000
vt 0.444336 0.781006 0.000000
vt 0.469971 0.944824 0.000000
vt 0.433838 0.977539 0.000000
vt 0.469971 0.944824 0.000000
vt 0.477051 0.997559 0.000000
vt 0.433838 0.977539 0.000000
vt 0.390381 0.961426 0.000000
vt 0.351563 0.948975 0.000000
vt 0.393799 0.602539 0.000000
vt 0.393799 0.602539 0.000000
vt 0.423584 0.689941 0.000000
vt 0.390381 0.961426 0.000000
vt 0.307129 0.931152 0.000000
vt 0.259277 0.922852 0.000000
vt 0.259277 0.543701 0.000000
vt 0.259277 0.543701 0.000000
vt 0.325684 0.556885 0.000000
vt 0.307129 0.931152 0.000000
vt 0.351563 0.948975 0.000000
vt 0.307129 0.931152 0.000000
vt 0.325684 0.556885 0.000000
vt 0.325684 0.556885 0.000000
vt 0.393799 0.602539 0.000000
vt 0.351563 0.948975 0.000000
vt 0.259277 0.922852 0.000000
vt 0.307129 0.931152 0.000000
vt 0.325684 0.556885 0.000000
vt 0.325684 0.556885 0.000000
vt 0.259277 0.543701 0.000000
vt 0.259277 0.922852 0.000000
vt 0.351563 0.948975 0.000000
vt 0.390137 0.961426 0.000000
vt 0.423584 0.689941 0.000000
vt 0.423584 0.689941 0.000000
vt 0.393799 0.602539 0.000000
vt 0.351563 0.948975 0.000000
vt 0.433838 0.977539 0.000000
vt 0.390381 0.961426 0.000000
vt 0.423584 0.689941 0.000000
vt 0.423584 0.689941 0.000000
vt 0.444336 0.781006 0.000000
vt 0.433838 0.977539 0.000000
vt 0.469971 0.944824 0.000000
vt 0.444336 0.781006 0.000000
vt 0.433594 0.977539 0.000000
vt 0.476807 0.997559 0.000000
vt 0.469971 0.944824 0.000000
vt 0.433594 0.977539 0.000000
vt 0.921387 0.064453 0.000000
vt 0.923096 0.099609 0.000000
vt 0.885742 0.065674 0.000000
vt 0.923096 0.099609 0.000000
vt 0.923828 0.104736 0.000000
vt 0.888184 0.088867 0.000000
vt 0.923096 0.099609 0.000000
vt 0.888184 0.088867 0.000000
vt 0.885742 0.065674 0.000000
vt 0.885742 0.065674 0.000000
vt 0.888184 0.088867 0.000000
vt 0.878662 0.064209 0.000000
vt 0.921387 0.064453 0.000000
vt 0.885742 0.065674 0.000000
vt 0.919922 0.027588 0.000000
vt 0.885742 0.065674 0.000000
vt 0.878662 0.064209 0.000000
vt 0.890381 0.032959 0.000000
vt 0.885742 0.065674 0.000000
vt 0.890381 0.032959 0.000000
vt 0.919922 0.027588 0.000000
vt 0.919922 0.027588 0.000000
vt 0.890381 0.032959 0.000000
vt 0.919922 0.018311 0.000000
vt 0.921387 0.064453 0.000000
vt 0.919922 0.027588 0.000000
vt 0.957031 0.061523 0.000000
vt 0.919922 0.027588 0.000000
vt 0.919922 0.018311 0.000000
vt 0.950684 0.029541 0.000000
vt 0.919922 0.027588 0.000000
vt 0.950684 0.029541 0.000000
vt 0.957031 0.061523 0.000000
vt 0.957031 0.061523 0.000000
vt 0.950684 0.029541 0.000000
vt 0.965088 0.059082 0.000000
vt 0.921387 0.064453 0.000000
vt 0.957031 0.061523 0.000000
vt 0.923096 0.099609 0.000000
vt 0.957031 0.061523 0.000000
vt 0.965088 0.059082 0.000000
vt 0.954346 0.090576 0.000000
vt 0.957031 0.061523 0.000000
vt 0.954346 0.090576 0.000000
vt 0.923096 0.099609 0.000000
vt 0.923096 0.099609 0.000000
vt 0.954346 0.090576 0.000000
vt 0.923828 0.104736 0.000000
vt 0.313232 0.505859 0.000000
vt 0.359375 0.190674 0.000000
vt 0.565674 0.240723 0.000000
vt 0.313232 0.505859 0.000000
vt 0.356445 0.188477 0.000000
vt 0.359375 0.190674 0.000000
vt 0.985352 0.986328 0.000000
vt 0.669434 0.986084 0.000000
vt 0.985352 0.817627 0.000000
vt 0.565674 0.240723 0.000000
vt 0.356445 0.188477 0.000000
vt 0.313232 0.505859 0.000000
vt 0.447021 0.031494 0.000000
vt 0.785156 0.125732 0.000000
vt 0.433594 0.054688 0.000000
vt 0.359375 0.190674 0.000000
vt 0.433594 0.054688 0.000000
vt 0.591309 0.074707 0.000000
vt 0.784912 0.125732 0.000000
vt 0.447021 0.031494 0.000000
vt 0.433594 0.054688 0.000000
vt 0.669434 0.986084 0.000000
vt 0.670166 0.817627 0.000000
vt 0.985352 0.817627 0.000000
vt 0.379150 0.304199 0.000000
vt 0.256592 0.304688 0.000000
vt 0.272217 0.403320 0.000000
vt 0.379150 0.304199 0.000000
vt 0.545410 0.304932 0.000000
vt 0.541504 0.248047 0.000000
vt 0.541504 0.248047 0.000000
vt 0.348877 0.193115 0.000000
vt 0.379150 0.304199 0.000000
vt 0.278320 0.200928 0.000000
vt 0.252197 0.143799 0.000000
vt 0.178711 0.213379 0.000000
vt 0.395020 0.107910 0.000000
vt 0.353027 0.118896 0.000000
vt 0.444092 0.158203 0.000000
vt 0.545410 0.304932 0.000000
vt 0.358154 0.408203 0.000000
vt 0.541504 0.361816 0.000000
vt 0.256592 0.304688 0.000000
vt 0.278320 0.200928 0.000000
vt 0.178711 0.213379 0.000000
vt 0.256592 0.304688 0.000000
vt 0.178711 0.213379 0.000000
vt 0.160889 0.306396 0.000000
vt 0.160889 0.306396 0.000000
vt 0.178711 0.399414 0.000000
vt 0.256592 0.304688 0.000000
vt 0.545410 0.304932 0.000000
vt 0.379150 0.304199 0.000000
vt 0.358154 0.408203 0.000000
vt 0.358154 0.408203 0.000000
vt 0.429443 0.459229 0.000000
vt 0.482666 0.443604 0.000000
vt 0.358154 0.408203 0.000000
vt 0.482666 0.443604 0.000000
vt 0.519775 0.417480 0.000000
vt 0.358154 0.408203 0.000000
vt 0.519775 0.417480 0.000000
vt 0.541504 0.361816 0.000000
vt 0.272217 0.403320 0.000000
vt 0.178711 0.399414 0.000000
vt 0.252686 0.467529 0.000000
vt 0.252686 0.467529 0.000000
vt 0.353516 0.492432 0.000000
vt 0.358154 0.408203 0.000000
vt 0.353516 0.492432 0.000000
vt 0.395020 0.471191 0.000000
vt 0.429443 0.459229 0.000000
vt 0.429443 0.459229 0.000000
vt 0.358154 0.408203 0.000000
vt 0.353516 0.492432 0.000000
vt 0.541504 0.248047 0.000000
vt 0.519775 0.192383 0.000000
vt 0.348877 0.193115 0.000000
vt 0.519775 0.192383 0.000000
vt 0.482666 0.166260 0.000000
vt 0.348877 0.193115 0.000000
vt 0.482666 0.166260 0.000000
vt 0.444092 0.158203 0.000000
vt 0.348877 0.193115 0.000000
vt 0.278320 0.200928 0.000000
vt 0.353027 0.118896 0.000000
vt 0.252197 0.143799 0.000000
vt 0.444092 0.158203 0.000000
vt 0.353027 0.118896 0.000000
vt 0.348877 0.193115 0.000000
vt 0.358154 0.408203 0.000000
vt 0.272217 0.403320 0.000000
vt 0.252686 0.467529 0.000000
vt 0.379150 0.304199 0.000000
vt 0.272217 0.403320 0.000000
vt 0.358154 0.408203 0.000000
vt 0.256592 0.304688 0.000000
vt 0.178711 0.399414 0.000000
vt 0.272217 0.403320 0.000000
vt 0.379150 0.304199 0.000000
vt 0.278320 0.200928 0.000000
vt 0.256592 0.304688 0.000000
vt 0.379150 0.304199 0.000000
vt 0.348877 0.193115 0.000000
vt 0.278320 0.200928 0.000000
vt 0.348877 0.193115 0.000000
vt 0.353027 0.118896 0.000000
vt 0.278320 0.200928 0.000000
vn -0.341064 0.000000 -0.939941
vn -0.070313 -0.017334 -0.997314
vn -0.349609 0.302246 -0.886475
vn -0.070313 -0.017334 -0.997314
vn 0.452148 -0.059082 -0.889893
vn 0.059326 0.435547 -0.897949
vn -0.070313 -0.017334 -0.997314
vn 0.059326 0.435547 -0.897949
vn -0.349609 0.302246 -0.886475
vn -0.349609 0.302246 -0.886475
vn 0.059326 0.435547 -0.897949
vn -0.281738 0.768555 -0.574219
vn 0.452148 -0.059082 -0.889893
vn 0.838867 -0.048340 -0.541992
vn 0.681885 0.437988 -0.585449
vn 0.452148 -0.059082 -0.889893
vn 0.681885 0.437988 -0.585449
vn 0.059326 0.435547 -0.897949
vn 0.059326 0.435547 -0.897949
vn 0.681885 0.437988 -0.585449
vn 0.202148 0.909912 -0.361572
vn 0.059326 0.435547 -0.897949
vn 0.202148 0.909912 -0.361572
vn -0.281738 0.768555 -0.574219
vn -0.281738 0.768555 -0.574219
vn 0.202148 0.909912 -0.361572
vn -0.108887 0.989990 -0.088135
vn 0.838867 -0.048340 -0.541992
vn 0.907715 0.000000 -0.419434
vn 0.831543 0.325684 -0.449707
vn 0.838867 -0.048340 -0.541992
vn 0.831543 0.325684 -0.449707
vn 0.681885 0.437988 -0.585449
vn 0.681885 0.437988 -0.585449
vn 0.831543 0.325684 -0.449707
vn 0.550781 0.793213 -0.258545
vn 0.681885 0.437988 -0.585449
vn 0.550781 0.793213 -0.258545
vn 0.202148 0.909912 -0.361572
vn 0.202148 0.909912 -0.361572
vn 0.550781 0.793213 -0.258545
vn 0.226563 0.973877 0.000000
vn 0.202148 0.909912 -0.361572
vn 0.226563 0.973877 0.000000
vn -0.108887 0.989990 -0.088135
vn -0.108887 0.989990 -0.088135
vn 0.226563 0.973877 0.000000
vn -0.010498 0.999512 0.024658
vn -0.341064 0.000000 -0.939941
vn -0.349609 0.302246 -0.886475
vn -0.677002 0.000000 -0.735840
vn -0.349609 0.302246 -0.886475
vn -0.281738 0.768555 -0.574219
vn -0.729492 0.457520 -0.507813
vn -0.349609 0.302246 -0.886475
vn -0.729492 0.457520 -0.507813
vn -0.677002 0.000000 -0.735840
vn -0.677002 0.000000 -0.735840
vn -0.729492 0.457520 -0.507813
vn -0.976807 0.000000 -0.213867
vn -0.281738 0.768555 -0.574219
vn -0.108887 0.989990 -0.088135
vn -0.534912 0.836426 -0.117676
vn -0.281738 0.768555 -0.574219
vn -0.534912 0.836426 -0.117676
vn -0.729492 0.457520 -0.507813
vn -0.729492 0.457520 -0.507813
vn -0.534912 0.836426 -0.117676
vn -0.904785 0.425537 -0.012207
vn -0.729492 0.457520 -0.507813
vn -0.904785 0.425537 -0.012207
vn -0.976807 0.000000 -0.213867
vn -0.976807 0.000000 -0.213867
vn -0.904785 0.425537 -0.012207
vn -0.997314 0.000244 0.070068
vn -0.108887 0.989990 -0.088135
vn -0.010498 0.999512 0.024658
vn -0.318115 0.947021 -0.039307
vn -0.108887 0.989990 -0.088135
vn -0.318115 0.947021 -0.039307
vn -0.534912 0.836426 -0.117676
vn -0.534912 0.836426 -0.117676
vn -0.318115 0.947021 -0.039307
vn -0.764404 0.625488 0.155029
vn -0.534912 0.836426 -0.117676
vn -0.764404 0.625488 0.155029
vn -0.904785 0.425537 -0.012207
vn -0.904785 0.425537 -0.012207
vn -0.764404 0.625488 0.155029
vn -0.941162 0.169922 0.291260
vn -0.941162 0.169922 0.291260
vn -0.764404 0.625488 0.155029
vn -0.870850 0.200684 0.448242
vn -0.341064 0.000000 -0.939941
vn -0.677002 0.000000 -0.735840
vn -0.343262 -0.307129 -0.887451
vn -0.677002 0.000000 -0.735840
vn -0.976807 0.000000 -0.213867
vn -0.729492 -0.457520 -0.507813
vn -0.677002 0.000000 -0.735840
vn -0.729492 -0.457520 -0.507813
vn -0.343262 -0.307129 -0.887451
vn 0.067383 -0.467041 -0.881592
vn -0.343262 -0.307129 -0.887451
vn -0.268311 -0.782715 -0.561035
vn -0.976807 0.000000 -0.213867
vn -0.997314 0.000244 0.070068
vn -0.904541 -0.425781 -0.011719
vn -0.976807 0.000000 -0.213867
vn -0.904541 -0.425781 -0.011719
vn -0.729492 -0.457520 -0.507813
vn -0.729492 -0.457520 -0.507813
vn -0.904541 -0.425781 -0.011719
vn -0.529297 -0.841309 -0.109619
vn -0.729492 -0.457520 -0.507813
vn -0.529297 -0.841309 -0.109619
vn -0.268311 -0.782715 -0.561035
vn -0.268311 -0.782715 -0.561035
vn -0.529297 -0.841309 -0.109619
vn -0.098145 -0.992676 -0.069092
vn -0.948242 -0.204346 0.241943
vn -0.687500 -0.593506 0.417725
vn -0.904541 -0.425781 -0.011719
vn -0.904541 -0.425781 -0.011719
vn -0.687500 -0.593506 0.417725
vn -0.529297 -0.841309 -0.109619
vn -0.529297 -0.841309 -0.109619
vn -0.687500 -0.593506 0.417725
vn -0.188965 -0.855957 0.480713
vn -0.529297 -0.841309 -0.109619
vn -0.188965 -0.855957 0.480713
vn -0.098145 -0.992676 -0.069092
vn -0.098145 -0.992676 -0.069092
vn -0.188965 -0.855957 0.480713
vn 0.041016 -0.935059 0.351318
vn -0.341064 0.000000 -0.939941
vn -0.343262 -0.307129 -0.887451
vn -0.070313 -0.017334 -0.997314
vn -0.343262 -0.307129 -0.887451
vn -0.729492 -0.457520 -0.507813
vn -0.268311 -0.782715 -0.561035
vn -0.343262 -0.307129 -0.887451
vn 0.067383 -0.467041 -0.881592
vn -0.070313 -0.017334 -0.997314
vn -0.070313 -0.017334 -0.997314
vn 0.067383 -0.467041 -0.881592
vn 0.452148 -0.059082 -0.889893
vn -0.268311 -0.782715 -0.561035
vn -0.098145 -0.992676 -0.069092
vn 0.192871 -0.905518 -0.377441
vn -0.268311 -0.782715 -0.561035
vn 0.192871 -0.905518 -0.377441
vn 0.067383 -0.467041 -0.881592
vn 0.067383 -0.467041 -0.881592
vn 0.192871 -0.905518 -0.377441
vn 0.621094 -0.492676 -0.609131
vn 0.067383 -0.467041 -0.881592
vn 0.621094 -0.492676 -0.609131
vn 0.452148 -0.059082 -0.889893
vn 0.452148 -0.059082 -0.889893
vn 0.621094 -0.492676 -0.609131
vn 0.838867 -0.048340 -0.541992
vn -0.098145 -0.992676 -0.069092
vn 0.041016 -0.935059 0.351318
vn 0.195801 -0.977539 0.076660
vn -0.098145 -0.992676 -0.069092
vn 0.195801 -0.977539 0.076660
vn 0.192871 -0.905518 -0.377441
vn 0.192871 -0.905518 -0.377441
vn 0.195801 -0.977539 0.076660
vn 0.504883 -0.818848 -0.272217
vn 0.192871 -0.905518 -0.377441
vn 0.504883 -0.818848 -0.272217
vn 0.621094 -0.492676 -0.609131
vn 0.621094 -0.492676 -0.609131
vn 0.504883 -0.818848 -0.272217
vn 0.807617 -0.345459 -0.477783
vn 0.621094 -0.492676 -0.609131
vn 0.807617 -0.345459 -0.477783
vn 0.838867 -0.048340 -0.541992
vn 0.838867 -0.048340 -0.541992
vn 0.807617 -0.345459 -0.477783
vn 0.907715 0.000000 -0.419434
vn 0.527588 -0.027588 -0.848877
vn 0.586914 0.194336 -0.785645
vn 0.907715 0.000000 -0.419434
vn 0.831543 0.325684 -0.449707
vn 0.442871 0.575195 -0.687500
vn 0.550781 0.793213 -0.258545
vn 0.295898 0.856689 -0.422119
vn 0.088623 0.986572 -0.136719
vn 0.226563 0.973877 0.000000
vn 0.088623 0.986572 -0.136719
vn -0.010498 0.999512 0.024658
vn 0.226563 0.973877 0.000000
vn 0.088623 0.986572 -0.136719
vn 0.000000 0.982422 0.186279
vn -0.010498 0.999512 0.024658
vn 0.000000 0.982422 0.186279
vn -0.318115 0.947021 -0.039307
vn -0.010498 0.999512 0.024658
vn 0.000000 0.982422 0.186279
vn -0.470947 0.103271 0.875977
vn -0.318115 0.947021 -0.039307
vn -0.470947 0.103271 0.875977
vn -0.764404 0.625488 0.155029
vn -0.318115 0.947021 -0.039307
vn -0.470947 0.103271 0.875977
vn 0.024658 0.145264 0.989014
vn -0.764404 0.625488 0.155029
vn 0.024658 0.145264 0.989014
vn -0.870850 0.200684 0.448242
vn -0.764404 0.625488 0.155029
vn -0.870850 0.200684 0.448242
vn -0.173584 0.023682 0.984375
vn -0.833008 -0.142090 0.534424
vn -0.833008 -0.142090 0.534424
vn 0.188232 -0.167480 0.967529
vn -0.687500 -0.593506 0.417725
vn 0.188232 -0.167480 0.967529
vn -0.188965 -0.855957 0.480713
vn -0.687500 -0.593506 0.417725
vn 0.188232 -0.167480 0.967529
vn 0.312012 -0.196289 0.929443
vn -0.188965 -0.855957 0.480713
vn 0.312012 -0.196289 0.929443
vn 0.041016 -0.935059 0.351318
vn -0.188965 -0.855957 0.480713
vn 0.312012 -0.196289 0.929443
vn -0.104248 -0.427002 0.897949
vn 0.041016 -0.935059 0.351318
vn -0.104248 -0.427002 0.897949
vn 0.195801 -0.977539 0.076660
vn 0.041016 -0.935059 0.351318
vn -0.104248 -0.427002 0.897949
vn 0.112305 -0.982422 -0.147949
vn 0.195801 -0.977539 0.076660
vn 0.112305 -0.982422 -0.147949
vn 0.504883 -0.818848 -0.272217
vn 0.195801 -0.977539 0.076660
vn 0.252930 -0.884033 -0.392578
vn 0.453613 -0.632324 -0.627686
vn 0.504883 -0.818848 -0.272217
vn 0.453613 -0.632324 -0.627686
vn 0.807617 -0.345459 -0.477783
vn 0.504883 -0.818848 -0.272217
vn 0.604736 -0.252441 -0.755127
vn 0.527588 -0.027588 -0.848877
vn 0.907715 0.000000 -0.419434
vn 0.907715 0.000000 -0.419434
vn 0.586914 0.194336 -0.785645
vn 0.831543 0.325684 -0.449707
vn 0.453613 -0.632324 -0.627686
vn 0.604736 -0.252441 -0.755127
vn 0.807617 -0.345459 -0.477783
vn 0.807617 -0.345459 -0.477783
vn 0.604736 -0.252441 -0.755127
vn 0.907715 0.000000 -0.419434
vn 0.831543 0.325684 -0.449707
vn 0.586914 0.194336 -0.785645
vn 0.442871 0.575195 -0.687500
vn 0.442871 0.575195 -0.687500
vn 0.295898 0.856689 -0.422119
vn 0.550781 0.793213 -0.258545
vn 0.550781 0.793213 -0.258545
vn 0.295898 0.856689 -0.422119
vn 0.226563 0.973877 0.000000
vn 0.112305 -0.982422 -0.147949
vn 0.252930 -0.884033 -0.392578
vn 0.504883 -0.818848 -0.272217
vn 0.593018 0.320557 -0.738281
vn 0.444580 0.702637 -0.555176
vn 0.442871 0.575195 -0.687500
vn 0.442871 0.575195 -0.687500
vn 0.586914 0.194336 -0.785645
vn 0.593018 0.320557 -0.738281
vn 0.219238 0.919922 -0.324463
vn 0.033936 0.994873 -0.093506
vn 0.088623 0.986572 -0.136719
vn 0.088623 0.986572 -0.136719
vn 0.295898 0.856689 -0.422119
vn 0.219238 0.919922 -0.324463
vn 0.088623 0.986572 -0.136719
vn 0.020508 0.999023 -0.034180
vn 0.000000 0.982422 0.186279
vn -0.031982 0.998047 -0.053223
vn 0.088623 0.986572 -0.136719
vn 0.033936 0.994873 -0.093506
vn -0.035156 -0.997803 -0.051758
vn 0.034668 -0.985596 -0.164795
vn 0.112305 -0.982422 -0.147949
vn 0.112305 -0.982422 -0.147949
vn -0.119873 -0.989502 -0.077881
vn -0.035156 -0.997803 -0.051758
vn 0.167725 -0.916260 -0.363037
vn 0.389648 -0.702637 -0.595215
vn 0.453613 -0.632324 -0.627686
vn 0.453613 -0.632324 -0.627686
vn 0.252930 -0.884033 -0.392578
vn 0.167725 -0.916260 -0.363037
vn 0.547852 -0.370605 -0.749756
vn 0.611328 -0.022461 -0.790771
vn 0.527588 -0.027588 -0.848877
vn 0.527588 -0.027588 -0.848877
vn 0.604736 -0.252441 -0.755127
vn 0.547852 -0.370605 -0.749756
vn 0.389648 -0.702637 -0.595215
vn 0.547852 -0.370605 -0.749756
vn 0.604736 -0.252441 -0.755127
vn 0.604736 -0.252441 -0.755127
vn 0.453613 -0.632324 -0.627686
vn 0.389648 -0.702637 -0.595215
vn 0.611328 -0.022461 -0.790771
vn 0.593018 0.320557 -0.738281
vn 0.586914 0.194336 -0.785645
vn 0.586914 0.194336 -0.785645
vn 0.527588 -0.027588 -0.848877
vn 0.611328 -0.022461 -0.790771
vn 0.444580 0.702637 -0.555176
vn 0.219238 0.919922 -0.324463
vn 0.295898 0.856689 -0.422119
vn 0.295898 0.856689 -0.422119
vn 0.442871 0.575195 -0.687500
vn 0.444580 0.702637 -0.555176
vn 0.034668 -0.985596 -0.164795
vn 0.167725 -0.916260 -0.363037
vn 0.252930 -0.884033 -0.392578
vn 0.252930 -0.884033 -0.392578
vn 0.112305 -0.982422 -0.147949
vn 0.034668 -0.985596 -0.164795
vn 0.088623 0.986572 -0.136719
vn -0.031982 0.998047 -0.053223
vn 0.020508 0.999023 -0.034180
vn 0.112305 -0.982422 -0.147949
vn -0.104248 -0.427002 0.897949
vn -0.119873 -0.989502 -0.077881
vn 0.759277 0.245605 0.602295
vn 0.562012 0.419189 0.712646
vn 0.444580 0.702637 -0.555176
vn 0.444580 0.702637 -0.555176
vn 0.593018 0.320557 -0.738281
vn 0.759277 0.245605 0.602295
vn 0.320068 0.439697 0.838867
vn 0.053955 0.375977 0.924805
vn 0.033936 0.994873 -0.093506
vn 0.033936 0.994873 -0.093506
vn 0.219238 0.919922 -0.324463
vn 0.320068 0.439697 0.838867
vn 0.007080 0.922852 0.384766
vn 0.082031 0.996338 0.010010
vn 0.000000 0.982422 0.186279
vn 0.000000 0.982422 0.186279
vn 0.020508 0.999023 -0.034180
vn 0.007080 0.922852 0.384766
vn 0.019775 -0.743408 0.668213
vn 0.197021 -0.749512 0.631836
vn 0.034668 -0.985596 -0.164795
vn 0.034668 -0.985596 -0.164795
vn -0.035156 -0.997803 -0.051758
vn 0.019775 -0.743408 0.668213
vn -0.212891 -0.699707 0.681641
vn 0.019775 -0.743408 0.668213
vn -0.035156 -0.997803 -0.051758
vn -0.035156 -0.997803 -0.051758
vn -0.119873 -0.989502 -0.077881
vn -0.212891 -0.699707 0.681641
vn 0.395752 -0.530762 0.749268
vn 0.705566 -0.305908 0.638672
vn 0.389648 -0.702637 -0.595215
vn 0.389648 -0.702637 -0.595215
vn 0.167725 -0.916260 -0.363037
vn 0.395752 -0.530762 0.749268
vn 0.821045 -0.076904 0.565430
vn 0.832031 0.063721 0.550781
vn 0.611328 -0.022461 -0.790771
vn 0.611328 -0.022461 -0.790771
vn 0.547852 -0.370605 -0.749756
vn 0.821045 -0.076904 0.565430
vn 0.705566 -0.305908 0.638672
vn 0.821045 -0.076904 0.565430
vn 0.547852 -0.370605 -0.749756
vn 0.547852 -0.370605 -0.749756
vn 0.389648 -0.702637 -0.595215
vn 0.705566 -0.305908 0.638672
vn 0.832031 0.063721 0.550781
vn 0.759277 0.245605 0.602295
vn 0.593018 0.320557 -0.738281
vn 0.593018 0.320557 -0.738281
vn 0.611328 -0.022461 -0.790771
vn 0.832031 0.063721 0.550781
vn 0.562012 0.419189 0.712646
vn 0.320068 0.439697 0.838867
vn 0.219238 0.919922 -0.324463
vn 0.219238 0.919922 -0.324463
vn 0.444580 0.702637 -0.555176
vn 0.562012 0.419189 0.712646
vn 0.197021 -0.749512 0.631836
vn 0.395752 -0.530762 0.749268
vn 0.167725 -0.916260 -0.363037
vn 0.167725 -0.916260 -0.363037
vn 0.034668 -0.985596 -0.164795
vn 0.197021 -0.749512 0.631836
vn 0.053955 0.375977 0.924805
vn -0.003662 0.856934 0.514893
vn -0.031982 0.998047 -0.053223
vn -0.031982 0.998047 -0.053223
vn 0.033936 0.994873 -0.093506
vn 0.053955 0.375977 0.924805
vn -0.003662 0.856934 0.514893
vn 0.007080 0.922852 0.384766
vn 0.020508 0.999023 -0.034180
vn 0.020508 0.999023 -0.034180
vn -0.031982 0.998047 -0.053223
vn -0.003662 0.856934 0.514893
vn -0.104248 -0.427002 0.897949
vn -0.212891 -0.699707 0.681641
vn -0.119873 -0.989502 -0.077881
vn -0.114014 -0.244873 0.962646
vn -0.094482 -0.518066 0.849854
vn 0.562012 0.419189 0.712646
vn 0.562012 0.419189 0.712646
vn 0.759277 0.245605 0.602295
vn -0.114014 -0.244873 0.962646
vn -0.079346 -0.706299 0.703125
vn -0.087158 -0.890625 0.445801
vn 0.053955 0.375977 0.924805
vn 0.053955 0.375977 0.924805
vn 0.320068 0.439697 0.838867
vn -0.079346 -0.706299 0.703125
vn 0.197021 -0.749512 0.631836
vn 0.019775 -0.743408 0.668213
vn -0.036133 0.659912 0.750244
vn 0.019775 -0.743408 0.668213
vn -0.212891 -0.699707 0.681641
vn -0.036133 0.659912 0.750244
vn -0.026611 0.572998 0.818848
vn -0.066162 0.459717 0.885498
vn 0.705566 -0.305908 0.638672
vn 0.705566 -0.305908 0.638672
vn 0.395752 -0.530762 0.749268
vn -0.026611 0.572998 0.818848
vn -0.142090 0.187744 0.971680
vn -0.142090 -0.042969 0.988770
vn 0.832031 0.063721 0.550781
vn 0.832031 0.063721 0.550781
vn 0.821045 -0.076904 0.565430
vn -0.142090 0.187744 0.971680
vn -0.066162 0.459717 0.885498
vn -0.142090 0.187744 0.971680
vn 0.821045 -0.076904 0.565430
vn 0.821045 -0.076904 0.565430
vn 0.705566 -0.305908 0.638672
vn -0.066162 0.459717 0.885498
vn -0.142090 -0.042969 0.988770
vn -0.114014 -0.244873 0.962646
vn 0.759277 0.245605 0.602295
vn 0.759277 0.245605 0.602295
vn 0.832031 0.063721 0.550781
vn -0.142090 -0.042969 0.988770
vn -0.094482 -0.518066 0.849854
vn -0.079346 -0.706299 0.703125
vn 0.320068 0.439697 0.838867
vn 0.320068 0.439697 0.838867
vn 0.562012 0.419189 0.712646
vn -0.094482 -0.518066 0.849854
vn -0.036133 0.659912 0.750244
vn -0.026611 0.572998 0.818848
vn 0.395752 -0.530762 0.749268
vn 0.395752 -0.530762 0.749268
vn 0.197021 -0.749512 0.631836
vn -0.036133 0.659912 0.750244
vn -0.003662 0.856934 0.514893
vn 0.053955 0.375977 0.924805
vn -0.087158 -0.890625 0.445801
vn 0.007080 0.922852 0.384766
vn -0.003662 0.856934 0.514893
vn -0.087158 -0.890625 0.445801
vn -0.333740 0.000000 -0.942627
vn 0.441895 0.000000 -0.896729
vn -0.254395 0.669678 -0.697510
vn 0.441895 0.000000 -0.896729
vn 0.836182 0.000000 -0.548096
vn 0.514404 0.604980 -0.607422
vn 0.441895 0.000000 -0.896729
vn 0.514404 0.604980 -0.607422
vn -0.254395 0.669678 -0.697510
vn -0.254395 0.669678 -0.697510
vn 0.514404 0.604980 -0.607422
vn -0.115723 0.951660 -0.284180
vn -0.333740 0.000000 -0.942627
vn -0.254395 0.669678 -0.697510
vn -0.910400 0.000000 -0.413330
vn -0.254395 0.669678 -0.697510
vn -0.115723 0.951660 -0.284180
vn -0.785645 0.603027 -0.137451
vn -0.254395 0.669678 -0.697510
vn -0.785645 0.603027 -0.137451
vn -0.910400 0.000000 -0.413330
vn -0.910400 0.000000 -0.413330
vn -0.785645 0.603027 -0.137451
vn -0.994873 0.000000 0.100098
vn -0.333740 0.000000 -0.942627
vn -0.910400 0.000000 -0.413330
vn -0.254639 -0.669678 -0.697510
vn -0.910400 0.000000 -0.413330
vn -0.994873 0.000000 0.100098
vn -0.785645 -0.602783 -0.137451
vn -0.910400 0.000000 -0.413330
vn -0.785645 -0.602783 -0.137451
vn -0.254639 -0.669678 -0.697510
vn -0.254639 -0.669678 -0.697510
vn -0.785645 -0.602783 -0.137451
vn -0.115967 -0.951416 -0.284424
vn -0.333740 0.000000 -0.942627
vn -0.254639 -0.669678 -0.697510
vn 0.441895 0.000000 -0.896729
vn -0.254639 -0.669678 -0.697510
vn -0.115967 -0.951416 -0.284424
vn 0.513916 -0.605225 -0.607666
vn -0.254639 -0.669678 -0.697510
vn 0.513916 -0.605225 -0.607666
vn 0.441895 0.000000 -0.896729
vn 0.441895 0.000000 -0.896729
vn 0.513916 -0.605225 -0.607666
vn 0.836182 0.000000 -0.548096
vn -0.997314 0.000244 0.070068
vn -0.948242 -0.204346 0.241943
vn -0.904541 -0.425781 -0.011719
vn -0.997314 0.000244 0.070068
vn -0.941162 0.169922 0.291260
vn -0.948242 -0.204346 0.241943
vn -0.948242 -0.204346 0.241943
vn -0.941162 0.169922 0.291260
vn -0.833008 -0.142090 0.534424
vn -0.904785 0.425537 -0.012207
vn -0.941162 0.169922 0.291260
vn -0.997314 0.000244 0.070068
vn -0.173584 0.023682 0.984375
vn 0.188232 -0.167480 0.967529
vn -0.833008 -0.142090 0.534424
vn -0.948242 -0.204346 0.241943
vn -0.833008 -0.142090 0.534424
vn -0.687500 -0.593506 0.417725
vn 0.024658 0.145264 0.989014
vn -0.173584 0.023682 0.984375
vn -0.870850 0.200684 0.448242
vn -0.941162 0.169922 0.291260
vn -0.870850 0.200684 0.448242
vn -0.833008 -0.142090 0.534424
vn -0.155762 -0.018066 0.987549
vn 0.658447 -0.047363 0.750977
vn 0.391357 -0.477783 0.786377
vn -0.155762 -0.018066 0.987549
vn -0.142090 -0.042969 0.988770
vn -0.142090 0.187744 0.971680
vn -0.142090 0.187744 0.971680
vn -0.225098 0.631836 0.741455
vn -0.155762 -0.018066 0.987549
vn 0.360596 0.533447 0.764893
vn 0.312012 -0.196289 0.929443
vn 0.188232 -0.167480 0.967529
vn -0.212891 -0.699707 0.681641
vn -0.104248 -0.427002 0.897949
vn -0.036133 0.659912 0.750244
vn -0.142090 -0.042969 0.988770
vn -0.146240 -0.614990 0.774658
vn -0.114014 -0.244873 0.962646
vn 0.658447 -0.047363 0.750977
vn 0.360596 0.533447 0.764893
vn 0.188232 -0.167480 0.967529
vn 0.658447 -0.047363 0.750977
vn 0.188232 -0.167480 0.967529
vn -0.173584 0.023682 0.984375
vn -0.173584 0.023682 0.984375
vn 0.024658 0.145264 0.989014
vn 0.658447 -0.047363 0.750977
vn -0.142090 -0.042969 0.988770
vn -0.155762 -0.018066 0.987549
vn -0.146240 -0.614990 0.774658
vn -0.146240 -0.614990 0.774658
vn -0.087158 -0.890625 0.445801
vn -0.079346 -0.706299 0.703125
vn -0.146240 -0.614990 0.774658
vn -0.079346 -0.706299 0.703125
vn -0.094482 -0.518066 0.849854
vn -0.146240 -0.614990 0.774658
vn -0.094482 -0.518066 0.849854
vn -0.114014 -0.244873 0.962646
vn 0.391357 -0.477783 0.786377
vn 0.024658 0.145264 0.989014
vn -0.470947 0.103271 0.875977
vn -0.470947 0.103271 0.875977
vn 0.000000 0.982422 0.186279
vn -0.146240 -0.614990 0.774658
vn 0.000000 0.982422 0.186279
vn 0.007080 0.922852 0.384766
vn -0.087158 -0.890625 0.445801
vn -0.087158 -0.890625 0.445801
vn -0.146240 -0.614990 0.774658
vn 0.000000 0.982422 0.186279
vn -0.142090 0.187744 0.971680
vn -0.066162 0.459717 0.885498
vn -0.225098 0.631836 0.741455
vn -0.066162 0.459717 0.885498
vn -0.026611 0.572998 0.818848
vn -0.225098 0.631836 0.741455
vn -0.026611 0.572998 0.818848
vn -0.036133 0.659912 0.750244
vn -0.225098 0.631836 0.741455
vn 0.360596 0.533447 0.764893
vn -0.104248 -0.427002 0.897949
vn 0.312012 -0.196289 0.929443
vn -0.036133 0.659912 0.750244
vn -0.104248 -0.427002 0.897949
vn -0.225098 0.631836 0.741455
vn -0.146240 -0.614990 0.774658
vn 0.391357 -0.477783 0.786377
vn -0.470947 0.103271 0.875977
vn -0.155762 -0.018066 0.987549
vn 0.391357 -0.477783 0.786377
vn -0.146240 -0.614990 0.774658
vn 0.658447 -0.047363 0.750977
vn 0.024658 0.145264 0.989014
vn 0.391357 -0.477783 0.786377
vn -0.155762 -0.018066 0.987549
vn 0.360596 0.533447 0.764893
vn 0.658447 -0.047363 0.750977
vn -0.155762 -0.018066 0.987549
vn -0.225098 0.631836 0.741455
vn 0.360596 0.533447 0.764893
vn -0.225098 0.631836 0.741455
vn -0.104248 -0.427002 0.897949
vn 0.360596 0.533447 0.764893
usemtl Texture
f 1/1/1 2/2/2 3/3/3
f 4/4/4 5/5/5 6/6/6
f 7/7/7 8/8/8 9/9/9
f 10/10/10 11/11/11 12/12/12
f 13/13/13 14/14/14 15/15/15
f 16/16/16 17/17/17 18/18/18
f 19/19/19 20/20/20 21/21/21
f 22/22/22 23/23/23 24/24/24
f 25/25/25 26/26/26 27/27/27
f 28/28/28 29/29/29 30/30/30
f 31/31/31 32/32/32 33/33/33
f 34/34/34 35/35/35 36/36/36
f 37/37/37 38/38/38 39/39/39
f 40/40/40 41/41/41 42/42/42
f 43/43/43 44/44/44 45/45/45
f 46/46/46 47/47/47 48/48/48
f 49/49/49 50/50/50 51/51/51
f 52/52/52 53/53/53 54/54/54
f 55/55/55 56/56/56 57/57/57
f 58/58/58 59/59/59 60/60/60
f 61/61/61 62/62/62 63/63/63
f 64/64/64 65/65/65 66/66/66
f 67/67/67 68/68/68 69/69/69
f 70/70/70 71/71/71 72/72/72
f 73/73/73 74/74/74 75/75/75
f 76/76/76 77/77/77 78/78/78
f 79/79/79 80/80/80 81/81/81
f 82/82/82 83/83/83 84/84/84
f 85/85/85 86/86/86 87/87/87
f 88/88/88 89/89/89 90/90/90
f 91/91/91 92/92/92 93/93/93
f 94/94/94 95/95/95 96/96/96
f 97/97/97 98/98/98 99/99/99
f 100/100/100 101/101/101 102/102/102
f 103/103/103 104/104/104 105/105/105
f 106/106/106 107/107/107 108/108/108
f 109/109/109 110/110/110 111/111/111
f 112/112/112 113/113/113 114/114/114
f 115/115/115 116/116/116 117/117/117
f 118/118/118 119/119/119 120/120/120
f 121/121/121 122/122/122 123/123/123
f 124/124/124 125/125/125 126/126/126
f 127/127/127 128/128/128 129/129/129
f 130/130/130 131/131/131 132/132/132
f 133/133/133 134/134/134 135/135/135
f 136/136/136 137/137/137 138/138/138
f 139/139/139 140/140/140 141/141/141
f 142/142/142 143/143/143 144/144/144
f 145/145/145 146/146/146 147/147/147
f 148/148/148 149/149/149 150/150/150
f 151/151/151 152/152/152 153/153/153
f 154/154/154 155/155/155 156/156/156
f 157/157/157 158/158/158 159/159/159
f 160/160/160 161/161/161 162/162/162
f 163/163/163 164/164/164 165/165/165
f 166/166/166 167/167/167 168/168/168
f 169/169/169 170/170/170 171/171/171
f 172/172/172 173/173/173 174/174/174
f 175/175/175 176/176/176 177/177/177
f 178/178/178 179/179/179 180/180/180
f 181/181/181 182/182/182 183/183/183
f 184/184/184 185/185/185 186/186/186
f 187/187/187 188/188/188 189/189/189
f 190/190/190 191/191/191 192/192/192
f 193/193/193 194/194/194 195/195/195
f 196/196/196 197/197/197 198/198/198
f 199/199/199 200/200/200 201/201/201
f 202/202/202 203/203/203 204/204/204
f 205/205/205 206/206/206 207/207/207
f 208/208/208 209/209/209 210/210/210
f 211/211/211 212/212/212 213/213/213
f 214/214/214 215/215/215 216/216/216
f 217/217/217 218/218/218 219/219/219
f 220/220/220 221/221/221 222/222/222
f 223/223/223 224/224/224 225/225/225
f 226/226/226 227/227/227 228/228/228
f 229/229/229 230/230/230 231/231/231
f 232/232/232 233/233/233 234/234/234
f 235/235/235 236/236/236 237/237/237
f 238/238/238 239/239/239 240/240/240
f 241/241/241 242/242/242 243/243/243
f 244/244/244 245/245/245 246/246/246
f 247/247/247 248/248/248 249/249/249
f 250/250/250 251/251/251 252/252/252
f 253/253/253 254/254/254 255/255/255
f 256/256/256 257/257/257 258/258/258
f 259/259/259 260/260/260 261/261/261
f 262/262/262 263/263/263 264/264/264
f 265/265/265 266/266/266 267/267/267
f 268/268/268 269/269/269 270/270/270
f 271/271/271 272/272/272 273/273/273
f 274/274/274 275/275/275 276/276/276
f 277/277/277 278/278/278 279/279/279
f 280/280/280 281/281/281 282/282/282
f 283/283/283 284/284/284 285/285/285
f 286/286/286 287/287/287 288/288/288
f 289/289/289 290/290/290 291/291/291
f 292/292/292 293/293/293 294/294/294
f 295/295/295 296/296/296 297/297/297
f 298/298/298 299/299/299 300/300/300
f 301/301/301 302/302/302 303/303/303
f 304/304/304 305/305/305 306/306/306
f 307/307/307 308/308/308 309/309/309
f 310/310/310 311/311/311 312/312/312
f 313/313/313 314/314/314 315/315/315
f 316/316/316 317/317/317 318/318/318
f 319/319/319 320/320/320 321/321/321
f 322/322/322 323/323/323 324/324/324
f 325/325/325 326/326/326 327/327/327
f 328/328/328 329/329/329 330/330/330
f 331/331/331 332/332/332 333/333/333
f 334/334/334 335/335/335 336/336/336
f 337/337/337 338/338/338 339/339/339
f 340/340/340 341/341/341 342/342/342
f 343/343/343 344/344/344 345/345/345
f 346/346/346 347/347/347 348/348/348
f 349/349/349 350/350/350 351/351/351
f 352/352/352 353/353/353 354/354/354
f 355/355/355 356/356/356 357/357/357
f 358/358/358 359/359/359 360/360/360
f 361/361/361 362/362/362 363/363/363
f 364/364/364 365/365/365 366/366/366
f 367/367/367 368/368/368 369/369/369
f 370/370/370 371/371/371 372/372/372
f 373/373/373 374/374/374 375/375/375
f 376/376/376 377/377/377 378/378/378
f 379/379/379 380/380/380 381/381/381
f 382/382/382 383/383/383 384/384/384
f 385/385/385 386/386/386 387/387/387
f 388/388/388 389/389/389 390/390/390
f 391/391/391 392/392/392 393/393/393
f 394/394/394 395/395/395 396/396/396
f 397/397/397 398/398/398 399/399/399
f 400/400/400 401/401/401 402/402/402
f 403/403/403 404/404/404 405/405/405
f 406/406/406 407/407/407 408/408/408
f 409/409/409 410/410/410 411/411/411
f 412/412/412 413/413/413 414/414/414
f 415/415/415 416/416/416 417/417/417
f 418/418/418 419/419/419 420/420/420
f 421/421/421 422/422/422 423/423/423
f 424/424/424 425/425/425 426/426/426
f 427/427/427 428/428/428 429/429/429
f 430/430/430 431/431/431 432/432/432
f 433/433/433 434/434/434 435/435/435
f 436/436/436 437/437/437 438/438/438
f 439/439/439 440/440/440 441/441/441
f 442/442/442 443/443/443 444/444/444
f 445/445/445 446/446/446 447/447/447
f 448/448/448 449/449/449 450/450/450
f 451/451/451 452/452/452 453/453/453
f 454/454/454 455/455/455 456/456/456
f 457/457/457 458/458/458 459/459/459
f 460/460/460 461/461/461 462/462/462
f 463/463/463 464/464/464 465/465/465
f 466/466/466 467/467/467 468/468/468
f 469/469/469 470/470/470 471/471/471
f 472/472/472 473/473/473 474/474/474
f 475/475/475 476/476/476 477/477/477
f 478/478/478 479/479/479 480/480/480
f 481/481/481 482/482/482 483/483/483
f 484/484/484 485/485/485 486/486/486
f 487/487/487 488/488/488 489/489/489
f 490/490/490 491/491/491 492/492/492
f 493/493/493 494/494/494 495/495/495
f 496/496/496 497/497/497 498/498/498
f 499/499/499 500/500/500 501/501/501
f 502/502/502 503/503/503 504/504/504
f 505/505/505 506/506/506 507/507/507
f 508/508/508 509/509/509 510/510/510
f 511/511/511 512/512/512 513/513/513
f 514/514/514 515/515/515 516/516/516
f 517/517/517 518/518/518 519/519/519
f 520/520/520 521/521/521 522/522/522
f 523/523/523 524/524/524 525/525/525
f 526/526/526 527/527/527 528/528/528
f 529/529/529 530/530/530 531/531/531
f 532/532/532 533/533/533 534/534/534
f 535/535/535 536/536/536 537/537/537
f 538/538/538 539/539/539 540/540/540
f 541/541/541 542/542/542 543/543/543
f 544/544/544 545/545/545 546/546/546
f 547/547/547 548/548/548 549/549/549
f 550/550/550 551/551/551 552/552/552
f 553/553/553 554/554/554 555/555/555
f 556/556/556 557/557/557 558/558/558
f 559/559/559 560/560/560 561/561/561
f 562/562/562 563/563/563 564/564/564
f 565/565/565 566/566/566 567/567/567
f 568/568/568 569/569/569 570/570/570
f 571/571/571 572/572/572 573/573/573
f 574/574/574 575/575/575 576/576/576
f 577/577/577 578/578/578 579/579/579
f 580/580/580 581/581/581 582/582/582
f 583/583/583 584/584/584 585/585/585
f 586/586/586 587/587/587 588/588/588
f 589/589/589 590/590/590 591/591/591
f 592/592/592 593/593/593 594/594/594
f 595/595/595 596/596/596 597/597/597
f 598/598/598 599/599/599 600/600/600
f 601/601/601 602/602/602 603/603/603
f 604/604/604 605/605/605 606/606/606
f 607/607/607 608/608/608 609/609/609
f 610/610/610 611/611/611 612/612/612
f 613/613/613 614/614/614 615/615/615
f 616/616/616 617/617/617 618/618/618
f 619/619/619 620/620/620 621/621/621
f 622/622/622 623/623/623 624/624/624
f 625/625/625 626/626/626 627/627/627
f 628/628/628 629/629/629 630/630/630
f 631/631/631 632/632/632 633/633/633