# OBJ file
mtllib icon.ico.mtl
v 0.589844 0.273682 -1.627686 1.000000 1.000000 1.000000 #0.501961
v 0.694092 0.236572 -1.585693 1.000000 1.000000 1.000000 #0.501961
v 0.560547 0.236084 -1.570068 1.000000 1.000000 1.000000 #0.501961
v -0.348633 3.353271 0.876953 1.000000 1.000000 1.000000 #0.501961
v -0.856934 3.353271 0.368652 1.000000 1.000000 1.000000 #0.501961
v -0.365967 3.377930 0.985596 1.000000 1.000000 1.000000 #0.501961
v -0.365967 3.377930 0.985596 1.000000 1.000000 1.000000 #0.501961
v -0.970947 3.377930 0.380615 1.000000 1.000000 1.000000 #0.501961
v -1.051270 3.357910 0.414795 1.000000 1.000000 1.000000 #0.501961
v -0.393066 3.357910 1.072998 1.000000 1.000000 1.000000 #0.501961
v -0.365967 3.377930 0.985596 1.000000 1.000000 1.000000 #0.501961
v -1.051270 3.357910 0.414795 1.000000 1.000000 1.000000 #0.501961
v 0.983643 1.172119 -1.466553 1.000000 1.000000 1.000000 #0.501961
v 1.486816 1.172119 -0.963379 1.000000 1.000000 1.000000 #0.501961
v 1.568604 1.078125 -0.955322 1.000000 1.000000 1.000000 #0.501961
v 0.983643 1.172119 -1.466553 1.000000 1.000000 1.000000 #0.501961
v 1.568604 1.078125 -0.955322 1.000000 1.000000 1.000000 #0.501961
v 0.970215 1.078125 -1.553711 1.000000 1.000000 1.000000 #0.501961
v 1.568604 1.078125 -0.955322 1.000000 1.000000 1.000000 #0.501961
v 1.603027 0.985107 -0.929443 1.000000 1.000000 1.000000 #0.501961
v 0.951660 0.985107 -1.581055 1.000000 1.000000 1.000000 #0.501961
v 0.970215 1.078125 -1.553711 1.000000 1.000000 1.000000 #0.501961
v 1.568604 1.078125 -0.955322 1.000000 1.000000 1.000000 #0.501961
v 0.951660 0.985107 -1.581055 1.000000 1.000000 1.000000 #0.501961
v 1.460693 1.267090 -0.829346 1.000000 1.000000 1.000000 #0.501961
v -0.235107 3.279541 0.866455 1.000000 1.000000 1.000000 #0.501961
v -0.233398 3.296387 0.980957 1.000000 1.000000 1.000000 #0.501961
v 1.460693 1.267090 -0.829346 1.000000 1.000000 1.000000 #0.501961
v -0.233398 3.296387 0.980957 1.000000 1.000000 1.000000 #0.501961
v 1.568115 1.158203 -0.820801 1.000000 1.000000 1.000000 #0.501961
v -0.233398 3.296387 0.980957 1.000000 1.000000 1.000000 #0.501961
v -0.254150 3.274170 1.071045 1.000000 1.000000 1.000000 #0.501961
v 1.595459 1.078857 -0.778809 1.000000 1.000000 1.000000 #0.501961
v 1.568115 1.158203 -0.820801 1.000000 1.000000 1.000000 #0.501961
v -0.233398 3.296387 0.980957 1.000000 1.000000 1.000000 #0.501961
v 1.595459 1.078857 -0.778809 1.000000 1.000000 1.000000 #0.501961
v -0.978027 3.301758 0.245117 1.000000 1.000000 1.000000 #0.501961
v 0.855469 1.252686 -1.458984 1.000000 1.000000 1.000000 #0.501961
v 0.820801 1.166260 -1.554688 1.000000 1.000000 1.000000 #0.501961
v -0.857422 3.285400 0.253906 1.000000 1.000000 1.000000 #0.501961
v 0.855469 1.252686 -1.458984 1.000000 1.000000 1.000000 #0.501961
v -0.978027 3.301758 0.245117 1.000000 1.000000 1.000000 #0.501961
v -1.060791 3.278564 0.271973 1.000000 1.000000 1.000000 #0.501961
v 0.820801 1.166260 -1.554688 1.000000 1.000000 1.000000 #0.501961
v 0.800781 1.069336 -1.589600 1.000000 1.000000 1.000000 #0.501961
v -0.978027 3.301758 0.245117 1.000000 1.000000 1.000000 #0.501961
v 0.820801 1.166260 -1.554688 1.000000 1.000000 1.000000 #0.501961
v -1.060791 3.278564 0.271973 1.000000 1.000000 1.000000 #0.501961
v -0.828613 3.003174 1.704102 1.000000 1.000000 1.000000 #0.501961
v -1.704834 3.003174 0.827637 1.000000 1.000000 1.000000 #0.501961
v -1.606445 2.826904 0.670166 1.000000 1.000000 1.000000 #0.501961
v -0.828613 3.003174 1.704102 1.000000 1.000000 1.000000 #0.501961
v -1.606445 2.826904 0.670166 1.000000 1.000000 1.000000 #0.501961
v -0.656006 2.816162 1.602783 1.000000 1.000000 1.000000 #0.501961
v 0.644287 0.221924 -1.510254 1.000000 1.000000 1.000000 #0.501961
v 1.509521 0.221924 -0.645020 1.000000 1.000000 1.000000 #0.501961
v 1.392090 0.360840 -0.486816 1.000000 1.000000 1.000000 #0.501961
v 0.644287 0.221924 -1.510254 1.000000 1.000000 1.000000 #0.501961
v 1.392090 0.360840 -0.486816 1.000000 1.000000 1.000000 #0.501961
v 0.502686 0.337158 -1.416016 1.000000 1.000000 1.000000 #0.501961
v 1.530029 0.341553 -0.422607 1.000000 1.000000 1.000000 #0.501961
v -0.597900 2.867188 1.705566 1.000000 1.000000 1.000000 #0.501961
v -0.656006 2.816162 1.602783 1.000000 1.000000 1.000000 #0.501961
v 1.530029 0.341553 -0.422607 1.000000 1.000000 1.000000 #0.501961
v -0.656006 2.816162 1.602783 1.000000 1.000000 1.000000 #0.501961
v 1.392090 0.360840 -0.486816 1.000000 1.000000 1.000000 #0.501961
v -1.708008 2.868164 0.596924 1.000000 1.000000 1.000000 #0.501961
v 0.421387 0.340820 -1.532471 1.000000 1.000000 1.000000 #0.501961
v -1.606445 2.826904 0.670166 1.000000 1.000000 1.000000 #0.501961
v -1.606445 2.826904 0.670166 1.000000 1.000000 1.000000 #0.501961
v 0.421387 0.340820 -1.532471 1.000000 1.000000 1.000000 #0.501961
v 0.502686 0.337158 -1.416016 1.000000 1.000000 1.000000 #0.501961
v -0.797119 3.072998 1.701172 1.000000 1.000000 1.000000 #0.501961
v -1.700684 3.072998 0.797607 1.000000 1.000000 1.000000 #0.501961
v -0.828613 3.003174 1.704102 1.000000 1.000000 1.000000 #0.501961
v -1.700684 3.072998 0.797607 1.000000 1.000000 1.000000 #0.501961
v -1.704834 3.003174 0.827637 1.000000 1.000000 1.000000 #0.501961
v -0.828613 3.003174 1.704102 1.000000 1.000000 1.000000 #0.501961
v -0.764648 3.118652 1.644775 1.000000 1.000000 1.000000 #0.501961
v -1.643555 3.118652 0.765625 1.000000 1.000000 1.000000 #0.501961
v -0.797119 3.072998 1.701172 1.000000 1.000000 1.000000 #0.501961
v -1.643555 3.118652 0.765625 1.000000 1.000000 1.000000 #0.501961
v -1.700684 3.072998 0.797607 1.000000 1.000000 1.000000 #0.501961
v -0.797119 3.072998 1.701172 1.000000 1.000000 1.000000 #0.501961
v 0.694092 0.236572 -1.585693 1.000000 1.000000 1.000000 #0.501961
v 1.586426 0.236572 -0.693604 1.000000 1.000000 1.000000 #0.501961
v 1.509521 0.221924 -0.645020 1.000000 1.000000 1.000000 #0.501961
v 0.644287 0.221924 -1.510254 1.000000 1.000000 1.000000 #0.501961
v 0.694092 0.236572 -1.585693 1.000000 1.000000 1.000000 #0.501961
v 1.509521 0.221924 -0.645020 1.000000 1.000000 1.000000 #0.501961
v 0.694092 0.236572 -1.585693 1.000000 1.000000 1.000000 #0.501961
v 0.731934 0.305908 -1.598877 1.000000 1.000000 1.000000 #0.501961
v 1.586426 0.236572 -0.693604 1.000000 1.000000 1.000000 #0.501961
v 0.731934 0.305908 -1.598877 1.000000 1.000000 1.000000 #0.501961
v 1.599854 0.305908 -0.730957 1.000000 1.000000 1.000000 #0.501961
v 1.586426 0.236572 -0.693604 1.000000 1.000000 1.000000 #0.501961
v 1.592285 0.378662 -0.448486 1.000000 1.000000 1.000000 #0.501961
v -0.597900 2.867188 1.705566 1.000000 1.000000 1.000000 #0.501961
v 1.530029 0.341553 -0.422607 1.000000 1.000000 1.000000 #0.501961
v 1.592285 0.378662 -0.448486 1.000000 1.000000 1.000000 #0.501961
v -0.565186 2.940186 1.708984 1.000000 1.000000 1.000000 #0.501961
v -0.597900 2.867188 1.705566 1.000000 1.000000 1.000000 #0.501961
v 1.604492 0.445313 -0.491211 1.000000 1.000000 1.000000 #0.501961
v -0.565186 2.940186 1.708984 1.000000 1.000000 1.000000 #0.501961
v 1.592285 0.378662 -0.448486 1.000000 1.000000 1.000000 #0.501961
v 1.604492 0.445313 -0.491211 1.000000 1.000000 1.000000 #0.501961
v -0.539307 2.989746 1.652832 1.000000 1.000000 1.000000 #0.501961
v -0.565186 2.940186 1.708984 1.000000 1.000000 1.000000 #0.501961
v -1.707520 2.938232 0.563721 1.000000 1.000000 1.000000 #0.501961
v 0.446533 0.380859 -1.590088 1.000000 1.000000 1.000000 #0.501961
v -1.708008 2.868164 0.596924 1.000000 1.000000 1.000000 #0.501961
v -1.708008 2.868164 0.596924 1.000000 1.000000 1.000000 #0.501961
v 0.446533 0.380859 -1.590088 1.000000 1.000000 1.000000 #0.501961
v 0.421387 0.340820 -1.532471 1.000000 1.000000 1.000000 #0.501961
v -1.649414 2.986572 0.537354 1.000000 1.000000 1.000000 #0.501961
v 0.488770 0.448975 -1.600830 1.000000 1.000000 1.000000 #0.501961
v -1.707520 2.938232 0.563721 1.000000 1.000000 1.000000 #0.501961
v -1.707520 2.938232 0.563721 1.000000 1.000000 1.000000 #0.501961
v 0.488770 0.448975 -1.600830 1.000000 1.000000 1.000000 #0.501961
v 0.446533 0.380859 -1.590088 1.000000 1.000000 1.000000 #0.501961
v -0.348633 3.353271 0.876953 1.000000 1.000000 1.000000 #0.501961
v -0.365967 3.377930 0.985596 1.000000 1.000000 1.000000 #0.501961
v -0.293945 3.354248 1.017822 1.000000 1.000000 1.000000 #0.501961
v -0.235107 3.279541 0.866455 1.000000 1.000000 1.000000 #0.501961
v -0.348633 3.353271 0.876953 1.000000 1.000000 1.000000 #0.501961
v -0.233398 3.296387 0.980957 1.000000 1.000000 1.000000 #0.501961
v -0.348633 3.353271 0.876953 1.000000 1.000000 1.000000 #0.501961
v -0.293945 3.354248 1.017822 1.000000 1.000000 1.000000 #0.501961
v -0.233398 3.296387 0.980957 1.000000 1.000000 1.000000 #0.501961
v -0.293945 3.354248 1.017822 1.000000 1.000000 1.000000 #0.501961
v -0.393066 3.357910 1.072998 1.000000 1.000000 1.000000 #0.501961
v -0.312256 3.329834 1.106689 1.000000 1.000000 1.000000 #0.501961
v -0.293945 3.354248 1.017822 1.000000 1.000000 1.000000 #0.501961
v -0.365967 3.377930 0.985596 1.000000 1.000000 1.000000 #0.501961
v -0.393066 3.357910 1.072998 1.000000 1.000000 1.000000 #0.501961
v -0.233398 3.296387 0.980957 1.000000 1.000000 1.000000 #0.501961
v -0.293945 3.354248 1.017822 1.000000 1.000000 1.000000 #0.501961
v -0.254150 3.274170 1.071045 1.000000 1.000000 1.000000 #0.501961
v -0.293945 3.354248 1.017822 1.000000 1.000000 1.000000 #0.501961
v -0.312256 3.329834 1.106689 1.000000 1.000000 1.000000 #0.501961
v -0.254150 3.274170 1.071045 1.000000 1.000000 1.000000 #0.501961
v -0.696045 2.955811 1.756592 1.000000 1.000000 1.000000 #0.501961
v -0.828613 3.003174 1.704102 1.000000 1.000000 1.000000 #0.501961
v -0.656006 2.816162 1.602783 1.000000 1.000000 1.000000 #0.501961
v -0.597900 2.867188 1.705566 1.000000 1.000000 1.000000 #0.501961
v -0.696045 2.955811 1.756592 1.000000 1.000000 1.000000 #0.501961
v -0.656006 2.816162 1.602783 1.000000 1.000000 1.000000 #0.501961
v -0.565186 2.940186 1.708984 1.000000 1.000000 1.000000 #0.501961
v -0.696045 2.955811 1.756592 1.000000 1.000000 1.000000 #0.501961
v -0.597900 2.867188 1.705566 1.000000 1.000000 1.000000 #0.501961
v -0.565186 2.940186 1.708984 1.000000 1.000000 1.000000 #0.501961
v -0.664063 3.027588 1.757568 1.000000 1.000000 1.000000 #0.501961
v -0.696045 2.955811 1.756592 1.000000 1.000000 1.000000 #0.501961
v -0.797119 3.072998 1.701172 1.000000 1.000000 1.000000 #0.501961
v -0.828613 3.003174 1.704102 1.000000 1.000000 1.000000 #0.501961
v -0.696045 2.955811 1.756592 1.000000 1.000000 1.000000 #0.501961
v -0.664063 3.027588 1.757568 1.000000 1.000000 1.000000 #0.501961
v -0.797119 3.072998 1.701172 1.000000 1.000000 1.000000 #0.501961
v -0.696045 2.955811 1.756592 1.000000 1.000000 1.000000 #0.501961
v -0.633789 3.073975 1.700439 1.000000 1.000000 1.000000 #0.501961
v -0.797119 3.072998 1.701172 1.000000 1.000000 1.000000 #0.501961
v -0.664063 3.027588 1.757568 1.000000 1.000000 1.000000 #0.501961
v -0.633789 3.073975 1.700439 1.000000 1.000000 1.000000 #0.501961
v -0.764648 3.118652 1.644775 1.000000 1.000000 1.000000 #0.501961
v -0.797119 3.072998 1.701172 1.000000 1.000000 1.000000 #0.501961
v -0.633789 3.073975 1.700439 1.000000 1.000000 1.000000 #0.501961
v -0.664063 3.027588 1.757568 1.000000 1.000000 1.000000 #0.501961
v -0.565186 2.940186 1.708984 1.000000 1.000000 1.000000 #0.501961
v -0.539307 2.989746 1.652832 1.000000 1.000000 1.000000 #0.501961
v -0.633789 3.073975 1.700439 1.000000 1.000000 1.000000 #0.501961
v -0.565186 2.940186 1.708984 1.000000 1.000000 1.000000 #0.501961
v -0.970947 3.377930 0.380615 1.000000 1.000000 1.000000 #0.501961
v -0.856934 3.353271 0.368652 1.000000 1.000000 1.000000 #0.501961
v -1.005127 3.356445 0.310303 1.000000 1.000000 1.000000 #0.501961
v -0.856934 3.353271 0.368652 1.000000 1.000000 1.000000 #0.501961
v -0.857422 3.285400 0.253906 1.000000 1.000000 1.000000 #0.501961
v -0.978027 3.301758 0.245117 1.000000 1.000000 1.000000 #0.501961
v -1.005127 3.356445 0.310303 1.000000 1.000000 1.000000 #0.501961
v -0.856934 3.353271 0.368652 1.000000 1.000000 1.000000 #0.501961
v -0.978027 3.301758 0.245117 1.000000 1.000000 1.000000 #0.501961
v -0.970947 3.377930 0.380615 1.000000 1.000000 1.000000 #0.501961
v -1.005127 3.356445 0.310303 1.000000 1.000000 1.000000 #0.501961
v -1.086426 3.336426 0.343262 1.000000 1.000000 1.000000 #0.501961
v -1.051270 3.357910 0.414795 1.000000 1.000000 1.000000 #0.501961
v -0.970947 3.377930 0.380615 1.000000 1.000000 1.000000 #0.501961
v -1.086426 3.336426 0.343262 1.000000 1.000000 1.000000 #0.501961
v -1.005127 3.356445 0.310303 1.000000 1.000000 1.000000 #0.501961
v -0.978027 3.301758 0.245117 1.000000 1.000000 1.000000 #0.501961
v -1.060791 3.278564 0.271973 1.000000 1.000000 1.000000 #0.501961
v -1.086426 3.336426 0.343262 1.000000 1.000000 1.000000 #0.501961
v -1.005127 3.356445 0.310303 1.000000 1.000000 1.000000 #0.501961
v -1.060791 3.278564 0.271973 1.000000 1.000000 1.000000 #0.501961
v -1.704834 3.003174 0.827637 1.000000 1.000000 1.000000 #0.501961
v -1.749023 2.957031 0.706055 1.000000 1.000000 1.000000 #0.501961
v -1.606445 2.826904 0.670166 1.000000 1.000000 1.000000 #0.501961
v -1.749023 2.957031 0.706055 1.000000 1.000000 1.000000 #0.501961
v -1.708008 2.868164 0.596924 1.000000 1.000000 1.000000 #0.501961
v -1.606445 2.826904 0.670166 1.000000 1.000000 1.000000 #0.501961
v -1.749023 2.957031 0.706055 1.000000 1.000000 1.000000 #0.501961
v -1.707520 2.938232 0.563721 1.000000 1.000000 1.000000 #0.501961
v -1.708008 2.868164 0.596924 1.000000 1.000000 1.000000 #0.501961
v -1.746582 3.026123 0.672607 1.000000 1.000000 1.000000 #0.501961
v -1.707520 2.938232 0.563721 1.000000 1.000000 1.000000 #0.501961
v -1.749023 2.957031 0.706055 1.000000 1.000000 1.000000 #0.501961
v -1.700684 3.072998 0.797607 1.000000 1.000000 1.000000 #0.501961
v -1.746582 3.026123 0.672607 1.000000 1.000000 1.000000 #0.501961
v -1.749023 2.957031 0.706055 1.000000 1.000000 1.000000 #0.501961
v -1.704834 3.003174 0.827637 1.000000 1.000000 1.000000 #0.501961
v -1.700684 3.072998 0.797607 1.000000 1.000000 1.000000 #0.501961
v -1.749023 2.957031 0.706055 1.000000 1.000000 1.000000 #0.501961
v -1.746582 3.026123 0.672607 1.000000 1.000000 1.000000 #0.501961
v -1.688477 3.072021 0.642334 1.000000 1.000000 1.000000 #0.501961
v -1.707520 2.938232 0.563721 1.000000 1.000000 1.000000 #0.501961
v -1.688477 3.072021 0.642334 1.000000 1.000000 1.000000 #0.501961
v -1.649414 2.986572 0.537354 1.000000 1.000000 1.000000 #0.501961
v -1.707520 2.938232 0.563721 1.000000 1.000000 1.000000 #0.501961
v -1.643555 3.118652 0.765625 1.000000 1.000000 1.000000 #0.501961
v -1.688477 3.072021 0.642334 1.000000 1.000000 1.000000 #0.501961
v -1.700684 3.072998 0.797607 1.000000 1.000000 1.000000 #0.501961
v -1.700684 3.072998 0.797607 1.000000 1.000000 1.000000 #0.501961
v -1.688477 3.072021 0.642334 1.000000 1.000000 1.000000 #0.501961
v -1.746582 3.026123 0.672607 1.000000 1.000000 1.000000 #0.501961
v 0.820801 1.166260 -1.554688 1.000000 1.000000 1.000000 #0.501961
v 0.983643 1.172119 -1.466553 1.000000 1.000000 1.000000 #0.501961
v 0.894043 1.105225 -1.584229 1.000000 1.000000 1.000000 #0.501961
v 0.855469 1.252686 -1.458984 1.000000 1.000000 1.000000 #0.501961
v 0.983643 1.172119 -1.466553 1.000000 1.000000 1.000000 #0.501961
v 0.820801 1.166260 -1.554688 1.000000 1.000000 1.000000 #0.501961
v 0.894043 1.105225 -1.584229 1.000000 1.000000 1.000000 #0.501961
v 0.983643 1.172119 -1.466553 1.000000 1.000000 1.000000 #0.501961
v 0.970215 1.078125 -1.553711 1.000000 1.000000 1.000000 #0.501961
v 0.800781 1.069336 -1.589600 1.000000 1.000000 1.000000 #0.501961
v 0.894043 1.105225 -1.584229 1.000000 1.000000 1.000000 #0.501961
v 0.880859 1.007813 -1.613525 1.000000 1.000000 1.000000 #0.501961
v 0.820801 1.166260 -1.554688 1.000000 1.000000 1.000000 #0.501961
v 0.894043 1.105225 -1.584229 1.000000 1.000000 1.000000 #0.501961
v 0.800781 1.069336 -1.589600 1.000000 1.000000 1.000000 #0.501961
v 0.880859 1.007813 -1.613525 1.000000 1.000000 1.000000 #0.501961
v 0.894043 1.105225 -1.584229 1.000000 1.000000 1.000000 #0.501961
v 0.951660 0.985107 -1.581055 1.000000 1.000000 1.000000 #0.501961
v 0.894043 1.105225 -1.584229 1.000000 1.000000 1.000000 #0.501961
v 0.970215 1.078125 -1.553711 1.000000 1.000000 1.000000 #0.501961
v 0.951660 0.985107 -1.581055 1.000000 1.000000 1.000000 #0.501961
v 0.560547 0.236084 -1.570068 1.000000 1.000000 1.000000 #0.501961
v 0.644287 0.221924 -1.510254 1.000000 1.000000 1.000000 #0.501961
v 0.502686 0.337158 -1.416016 1.000000 1.000000 1.000000 #0.501961
v 0.421387 0.340820 -1.532471 1.000000 1.000000 1.000000 #0.501961
v 0.560547 0.236084 -1.570068 1.000000 1.000000 1.000000 #0.501961
v 0.502686 0.337158 -1.416016 1.000000 1.000000 1.000000 #0.501961
v 0.446533 0.380859 -1.590088 1.000000 1.000000 1.000000 #0.501961
v 0.589844 0.273682 -1.627686 1.000000 1.000000 1.000000 #0.501961
v 0.560547 0.236084 -1.570068 1.000000 1.000000 1.000000 #0.501961
v 0.421387 0.340820 -1.532471 1.000000 1.000000 1.000000 #0.501961
v 0.446533 0.380859 -1.590088 1.000000 1.000000 1.000000 #0.501961
v 0.560547 0.236084 -1.570068 1.000000 1.000000 1.000000 #0.501961
v -0.365967 3.377930 0.985596 1.000000 1.000000 1.000000 #0.501961
v -0.856934 3.353271 0.368652 1.000000 1.000000 1.000000 #0.501961
v -0.970947 3.377930 0.380615 1.000000 1.000000 1.000000 #0.501961
v 0.560547 0.236084 -1.570068 1.000000 1.000000 1.000000 #0.501961
v 0.694092 0.236572 -1.585693 1.000000 1.000000 1.000000 #0.501961
v 0.644287 0.221924 -1.510254 1.000000 1.000000 1.000000 #0.501961
v 0.628418 0.343506 -1.638916 1.000000 1.000000 1.000000 #0.501961
v 0.731934 0.305908 -1.598877 1.000000 1.000000 1.000000 #0.501961
v 0.694092 0.236572 -1.585693 1.000000 1.000000 1.000000 #0.501961
v 0.589844 0.273682 -1.627686 1.000000 1.000000 1.000000 #0.501961
v 0.628418 0.343506 -1.638916 1.000000 1.000000 1.000000 #0.501961
v 0.694092 0.236572 -1.585693 1.000000 1.000000 1.000000 #0.501961
v 0.446533 0.380859 -1.590088 1.000000 1.000000 1.000000 #0.501961
v 0.628418 0.343506 -1.638916 1.000000 1.000000 1.000000 #0.501961
v 0.589844 0.273682 -1.627686 1.000000 1.000000 1.000000 #0.501961
v 0.488770 0.448975 -1.600830 1.000000 1.000000 1.000000 #0.501961
v 0.628418 0.343506 -1.638916 1.000000 1.000000 1.000000 #0.501961
v 0.446533 0.380859 -1.590088 1.000000 1.000000 1.000000 #0.501961
v 1.486816 1.172119 -0.963379 1.000000 1.000000 1.000000 #0.501961
v 1.568115 1.158203 -0.820801 1.000000 1.000000 1.000000 #0.501961
v 1.587158 1.109131 -0.884521 1.000000 1.000000 1.000000 #0.501961
v 1.486816 1.172119 -0.963379 1.000000 1.000000 1.000000 #0.501961
v 1.460693 1.267090 -0.829346 1.000000 1.000000 1.000000 #0.501961
v 1.568115 1.158203 -0.820801 1.000000 1.000000 1.000000 #0.501961
v 1.486816 1.172119 -0.963379 1.000000 1.000000 1.000000 #0.501961
v 1.587158 1.109131 -0.884521 1.000000 1.000000 1.000000 #0.501961
v 1.568604 1.078125 -0.955322 1.000000 1.000000 1.000000 #0.501961
v 1.587158 1.109131 -0.884521 1.000000 1.000000 1.000000 #0.501961
v 1.595459 1.078857 -0.778809 1.000000 1.000000 1.000000 #0.501961
v 1.615479 1.024902 -0.849854 1.000000 1.000000 1.000000 #0.501961
v 1.587158 1.109131 -0.884521 1.000000 1.000000 1.000000 #0.501961
v 1.568115 1.158203 -0.820801 1.000000 1.000000 1.000000 #0.501961
v 1.595459 1.078857 -0.778809 1.000000 1.000000 1.000000 #0.501961
v 1.587158 1.109131 -0.884521 1.000000 1.000000 1.000000 #0.501961
v 1.615479 1.024902 -0.849854 1.000000 1.000000 1.000000 #0.501961
v 1.603027 0.985107 -0.929443 1.000000 1.000000 1.000000 #0.501961
v 1.568604 1.078125 -0.955322 1.000000 1.000000 1.000000 #0.501961
v 1.587158 1.109131 -0.884521 1.000000 1.000000 1.000000 #0.501961
v 1.603027 0.985107 -0.929443 1.000000 1.000000 1.000000 #0.501961
v 1.509521 0.221924 -0.645020 1.000000 1.000000 1.000000 #0.501961
v 1.556885 0.254639 -0.542480 1.000000 1.000000 1.000000 #0.501961
v 1.392090 0.360840 -0.486816 1.000000 1.000000 1.000000 #0.501961
v 1.556885 0.254639 -0.542480 1.000000 1.000000 1.000000 #0.501961
v 1.530029 0.341553 -0.422607 1.000000 1.000000 1.000000 #0.501961
v 1.392090 0.360840 -0.486816 1.000000 1.000000 1.000000 #0.501961
v 1.586426 0.236572 -0.693604 1.000000 1.000000 1.000000 #0.501961
v 1.556885 0.254639 -0.542480 1.000000 1.000000 1.000000 #0.501961
v 1.509521 0.221924 -0.645020 1.000000 1.000000 1.000000 #0.501961
v 1.586426 0.236572 -0.693604 1.000000 1.000000 1.000000 #0.501961
v 1.617432 0.290527 -0.571533 1.000000 1.000000 1.000000 #0.501961
v 1.556885 0.254639 -0.542480 1.000000 1.000000 1.000000 #0.501961
v 1.617432 0.290527 -0.571533 1.000000 1.000000 1.000000 #0.501961
v 1.592285 0.378662 -0.448486 1.000000 1.000000 1.000000 #0.501961
v 1.556885 0.254639 -0.542480 1.000000 1.000000 1.000000 #0.501961
v 1.592285 0.378662 -0.448486 1.000000 1.000000 1.000000 #0.501961
v 1.530029 0.341553 -0.422607 1.000000 1.000000 1.000000 #0.501961
v 1.556885 0.254639 -0.542480 1.000000 1.000000 1.000000 #0.501961
v 1.630127 0.359375 -0.610596 1.000000 1.000000 1.000000 #0.501961
v 1.604492 0.445313 -0.491211 1.000000 1.000000 1.000000 #0.501961
v 1.592285 0.378662 -0.448486 1.000000 1.000000 1.000000 #0.501961
v 1.630127 0.359375 -0.610596 1.000000 1.000000 1.000000 #0.501961
v 1.592285 0.378662 -0.448486 1.000000 1.000000 1.000000 #0.501961
v 1.617432 0.290527 -0.571533 1.000000 1.000000 1.000000 #0.501961
v 1.630127 0.359375 -0.610596 1.000000 1.000000 1.000000 #0.501961
v 1.617432 0.290527 -0.571533 1.000000 1.000000 1.000000 #0.501961
v 1.586426 0.236572 -0.693604 1.000000 1.000000 1.000000 #0.501961
v 1.599854 0.305908 -0.730957 1.000000 1.000000 1.000000 #0.501961
v 1.630127 0.359375 -0.610596 1.000000 1.000000 1.000000 #0.501961
v 1.586426 0.236572 -0.693604 1.000000 1.000000 1.000000 #0.501961
v -0.656006 2.816162 1.602783 1.000000 1.000000 1.000000 #0.501961
v -1.606445 2.826904 0.670166 1.000000 1.000000 1.000000 #0.501961
v 1.392090 0.360840 -0.486816 1.000000 1.000000 1.000000 #0.501961
v 1.392090 0.360840 -0.486816 1.000000 1.000000 1.000000 #0.501961
v -1.606445 2.826904 0.670166 1.000000 1.000000 1.000000 #0.501961
v 0.502686 0.337158 -1.416016 1.000000 1.000000 1.000000 #0.501961
v -0.567139 3.228027 1.334961 1.000000 1.000000 1.000000 #0.501961
v -1.051270 3.357910 0.414795 1.000000 1.000000 1.000000 #0.501961
v -1.321533 3.228027 0.580566 1.000000 1.000000 1.000000 #0.501961
v -0.393066 3.357910 1.072998 1.000000 1.000000 1.000000 #0.501961
v -1.051270 3.357910 0.414795 1.000000 1.000000 1.000000 #0.501961
v -0.567139 3.228027 1.334961 1.000000 1.000000 1.000000 #0.501961
v -0.764648 3.118652 1.644775 1.000000 1.000000 1.000000 #0.501961
v -1.321533 3.228027 0.580566 1.000000 1.000000 1.000000 #0.501961
v -1.643555 3.118652 0.765625 1.000000 1.000000 1.000000 #0.501961
v -0.567139 3.228027 1.334961 1.000000 1.000000 1.000000 #0.501961
v -1.321533 3.228027 0.580566 1.000000 1.000000 1.000000 #0.501961
v -0.764648 3.118652 1.644775 1.000000 1.000000 1.000000 #0.501961
v 0.951660 0.985107 -1.581055 1.000000 1.000000 1.000000 #0.501961
v 1.587891 0.665771 -0.828369 1.000000 1.000000 1.000000 #0.501961
v 0.842041 0.665771 -1.574219 1.000000 1.000000 1.000000 #0.501961
v 0.951660 0.985107 -1.581055 1.000000 1.000000 1.000000 #0.501961
v 1.603027 0.985107 -0.929443 1.000000 1.000000 1.000000 #0.501961
v 1.587891 0.665771 -0.828369 1.000000 1.000000 1.000000 #0.501961
v 0.842041 0.665771 -1.574219 1.000000 1.000000 1.000000 #0.501961
v 1.587891 0.665771 -0.828369 1.000000 1.000000 1.000000 #0.501961
v 1.599854 0.305908 -0.730957 1.000000 1.000000 1.000000 #0.501961
v 0.842041 0.665771 -1.574219 1.000000 1.000000 1.000000 #0.501961
v 1.599854 0.305908 -0.730957 1.000000 1.000000 1.000000 #0.501961
v 0.731934 0.305908 -1.598877 1.000000 1.000000 1.000000 #0.501961
v -0.254150 3.274170 1.071045 1.000000 1.000000 1.000000 #0.501961
v -0.392090 3.125732 1.337402 1.000000 1.000000 1.000000 #0.501961
v 1.584961 0.779541 -0.639404 1.000000 1.000000 1.000000 #0.501961
v 1.595459 1.078857 -0.778809 1.000000 1.000000 1.000000 #0.501961
v -0.254150 3.274170 1.071045 1.000000 1.000000 1.000000 #0.501961
v 1.584961 0.779541 -0.639404 1.000000 1.000000 1.000000 #0.501961
v -0.392090 3.125732 1.337402 1.000000 1.000000 1.000000 #0.501961
v -0.539307 2.989746 1.652832 1.000000 1.000000 1.000000 #0.501961
v 1.604492 0.445313 -0.491211 1.000000 1.000000 1.000000 #0.501961
v 1.584961 0.779541 -0.639404 1.000000 1.000000 1.000000 #0.501961
v -0.392090 3.125732 1.337402 1.000000 1.000000 1.000000 #0.501961
v 1.604492 0.445313 -0.491211 1.000000 1.000000 1.000000 #0.501961
v -1.060791 3.278564 0.271973 1.000000 1.000000 1.000000 #0.501961
v 0.800781 1.069336 -1.589600 1.000000 1.000000 1.000000 #0.501961
v 0.651855 0.775146 -1.579834 1.000000 1.000000 1.000000 #0.501961
v -1.329834 3.127197 0.401855 1.000000 1.000000 1.000000 #0.501961
v -1.060791 3.278564 0.271973 1.000000 1.000000 1.000000 #0.501961
v 0.651855 0.775146 -1.579834 1.000000 1.000000 1.000000 #0.501961
v -1.329834 3.127197 0.401855 1.000000 1.000000 1.000000 #0.501961
v 0.651855 0.775146 -1.579834 1.000000 1.000000 1.000000 #0.501961
v 0.488770 0.448975 -1.600830 1.000000 1.000000 1.000000 #0.501961
v -1.649414 2.986572 0.537354 1.000000 1.000000 1.000000 #0.501961
v -1.329834 3.127197 0.401855 1.000000 1.000000 1.000000 #0.501961
v 0.488770 0.448975 -1.600830 1.000000 1.000000 1.000000 #0.501961
v -0.312256 3.329834 1.106689 1.000000 1.000000 1.000000 #0.501961
v -0.465332 3.193359 1.378174 1.000000 1.000000 1.000000 #0.501961
v -0.392090 3.125732 1.337402 1.000000 1.000000 1.000000 #0.501961
v -0.254150 3.274170 1.071045 1.000000 1.000000 1.000000 #0.501961
v -0.312256 3.329834 1.106689 1.000000 1.000000 1.000000 #0.501961
v -0.392090 3.125732 1.337402 1.000000 1.000000 1.000000 #0.501961
v -0.465332 3.193359 1.378174 1.000000 1.000000 1.000000 #0.501961
v -0.633789 3.073975 1.700439 1.000000 1.000000 1.000000 #0.501961
v -0.539307 2.989746 1.652832 1.000000 1.000000 1.000000 #0.501961
v -0.392090 3.125732 1.337402 1.000000 1.000000 1.000000 #0.501961
v -0.465332 3.193359 1.378174 1.000000 1.000000 1.000000 #0.501961
v -0.539307 2.989746 1.652832 1.000000 1.000000 1.000000 #0.501961
v -0.312256 3.329834 1.106689 1.000000 1.000000 1.000000 #0.501961
v -0.567139 3.228027 1.334961 1.000000 1.000000 1.000000 #0.501961
v -0.465332 3.193359 1.378174 1.000000 1.000000 1.000000 #0.501961
v -0.312256 3.329834 1.106689 1.000000 1.000000 1.000000 #0.501961
v -0.393066 3.357910 1.072998 1.000000 1.000000 1.000000 #0.501961
v -0.567139 3.228027 1.334961 1.000000 1.000000 1.000000 #0.501961
v -0.465332 3.193359 1.378174 1.000000 1.000000 1.000000 #0.501961
v -0.567139 3.228027 1.334961 1.000000 1.000000 1.000000 #0.501961
v -0.764648 3.118652 1.644775 1.000000 1.000000 1.000000 #0.501961
v -0.465332 3.193359 1.378174 1.000000 1.000000 1.000000 #0.501961
v -0.764648 3.118652 1.644775 1.000000 1.000000 1.000000 #0.501961
v -0.633789 3.073975 1.700439 1.000000 1.000000 1.000000 #0.501961
v -1.321533 3.228027 0.580566 1.000000 1.000000 1.000000 #0.501961
v -1.086426 3.336426 0.343262 1.000000 1.000000 1.000000 #0.501961
v -1.361084 3.196289 0.487305 1.000000 1.000000 1.000000 #0.501961
v -1.051270 3.357910 0.414795 1.000000 1.000000 1.000000 #0.501961
v -1.086426 3.336426 0.343262 1.000000 1.000000 1.000000 #0.501961
v -1.321533 3.228027 0.580566 1.000000 1.000000 1.000000 #0.501961
v -1.643555 3.118652 0.765625 1.000000 1.000000 1.000000 #0.501961
v -1.361084 3.196289 0.487305 1.000000 1.000000 1.000000 #0.501961
v -1.688477 3.072021 0.642334 1.000000 1.000000 1.000000 #0.501961
v -1.321533 3.228027 0.580566 1.000000 1.000000 1.000000 #0.501961
v -1.361084 3.196289 0.487305 1.000000 1.000000 1.000000 #0.501961
v -1.643555 3.118652 0.765625 1.000000 1.000000 1.000000 #0.501961
v -1.361084 3.196289 0.487305 1.000000 1.000000 1.000000 #0.501961
v -1.086426 3.336426 0.343262 1.000000 1.000000 1.000000 #0.501961
v -1.329834 3.127197 0.401855 1.000000 1.000000 1.000000 #0.501961
v -1.086426 3.336426 0.343262 1.000000 1.000000 1.000000 #0.501961
v -1.060791 3.278564 0.271973 1.000000 1.000000 1.000000 #0.501961
v -1.329834 3.127197 0.401855 1.000000 1.000000 1.000000 #0.501961
v -1.361084 3.196289 0.487305 1.000000 1.000000 1.000000 #0.501961
v -1.329834 3.127197 0.401855 1.000000 1.000000 1.000000 #0.501961
v -1.649414 2.986572 0.537354 1.000000 1.000000 1.000000 #0.501961
v -1.688477 3.072021 0.642334 1.000000 1.000000 1.000000 #0.501961
v -1.361084 3.196289 0.487305 1.000000 1.000000 1.000000 #0.501961
v -1.649414 2.986572 0.537354 1.000000 1.000000 1.000000 #0.501961
v 0.651855 0.775146 -1.579834 1.000000 1.000000 1.000000 #0.501961
v 0.880859 1.007813 -1.613525 1.000000 1.000000 1.000000 #0.501961
v 0.759033 0.692627 -1.611816 1.000000 1.000000 1.000000 #0.501961
v 0.800781 1.069336 -1.589600 1.000000 1.000000 1.000000 #0.501961
v 0.880859 1.007813 -1.613525 1.000000 1.000000 1.000000 #0.501961
v 0.651855 0.775146 -1.579834 1.000000 1.000000 1.000000 #0.501961
v 0.488770 0.448975 -1.600830 1.000000 1.000000 1.000000 #0.501961
v 0.759033 0.692627 -1.611816 1.000000 1.000000 1.000000 #0.501961
v 0.628418 0.343506 -1.638916 1.000000 1.000000 1.000000 #0.501961
v 0.651855 0.775146 -1.579834 1.000000 1.000000 1.000000 #0.501961
v 0.759033 0.692627 -1.611816 1.000000 1.000000 1.000000 #0.501961
v 0.488770 0.448975 -1.600830 1.000000 1.000000 1.000000 #0.501961
v 0.759033 0.692627 -1.611816 1.000000 1.000000 1.000000 #0.501961
v 0.880859 1.007813 -1.613525 1.000000 1.000000 1.000000 #0.501961
v 0.842041 0.665771 -1.574219 1.000000 1.000000 1.000000 #0.501961
v 0.880859 1.007813 -1.613525 1.000000 1.000000 1.000000 #0.501961
v 0.951660 0.985107 -1.581055 1.000000 1.000000 1.000000 #0.501961
v 0.842041 0.665771 -1.574219 1.000000 1.000000 1.000000 #0.501961
v 0.759033 0.692627 -1.611816 1.000000 1.000000 1.000000 #0.501961
v 0.842041 0.665771 -1.574219 1.000000 1.000000 1.000000 #0.501961
v 0.731934 0.305908 -1.598877 1.000000 1.000000 1.000000 #0.501961
v 0.628418 0.343506 -1.638916 1.000000 1.000000 1.000000 #0.501961
v 0.759033 0.692627 -1.611816 1.000000 1.000000 1.000000 #0.501961
v 0.731934 0.305908 -1.598877 1.000000 1.000000 1.000000 #0.501961
v 1.615479 1.024902 -0.849854 1.000000 1.000000 1.000000 #0.501961
v 1.584961 0.779541 -0.639404 1.000000 1.000000 1.000000 #0.501961
v 1.610107 0.708496 -0.733887 1.000000 1.000000 1.000000 #0.501961
v 1.615479 1.024902 -0.849854 1.000000 1.000000 1.000000 #0.501961
v 1.595459 1.078857 -0.778809 1.000000 1.000000 1.000000 #0.501961
v 1.584961 0.779541 -0.639404 1.000000 1.000000 1.000000 #0.501961
v 1.610107 0.708496 -0.733887 1.000000 1.000000 1.000000 #0.501961
v 1.584961 0.779541 -0.639404 1.000000 1.000000 1.000000 #0.501961
v 1.604492 0.445313 -0.491211 1.000000 1.000000 1.000000 #0.501961
v 1.610107 0.708496 -0.733887 1.000000 1.000000 1.000000 #0.501961
v 1.604492 0.445313 -0.491211 1.000000 1.000000 1.000000 #0.501961
v 1.630127 0.359375 -0.610596 1.000000 1.000000 1.000000 #0.501961
v 1.615479 1.024902 -0.849854 1.000000 1.000000 1.000000 #0.501961
v 1.610107 0.708496 -0.733887 1.000000 1.000000 1.000000 #0.501961
v 1.587891 0.665771 -0.828369 1.000000 1.000000 1.000000 #0.501961
v 1.603027 0.985107 -0.929443 1.000000 1.000000 1.000000 #0.501961
v 1.615479 1.024902 -0.849854 1.000000 1.000000 1.000000 #0.501961
v 1.587891 0.665771 -0.828369 1.000000 1.000000 1.000000 #0.501961
v 1.610107 0.708496 -0.733887 1.000000 1.000000 1.000000 #0.501961
v 1.630127 0.359375 -0.610596 1.000000 1.000000 1.000000 #0.501961
v 1.599854 0.305908 -0.730957 1.000000 1.000000 1.000000 #0.501961
v 1.587891 0.665771 -0.828369 1.000000 1.000000 1.000000 #0.501961
v 1.610107 0.708496 -0.733887 1.000000 1.000000 1.000000 #0.501961
v 1.599854 0.305908 -0.730957 1.000000 1.000000 1.000000 #0.501961
v -0.857422 3.285400 0.253906 1.000000 1.000000 1.000000 #0.501961
v -0.856934 3.353271 0.368652 1.000000 1.000000 1.000000 #0.501961
v -0.411377 2.981689 0.412109 1.000000 1.000000 1.000000 #0.501961
v -0.856934 3.353271 0.368652 1.000000 1.000000 1.000000 #0.501961
v -0.348633 3.353271 0.876953 1.000000 1.000000 1.000000 #0.501961
v -0.411377 2.981689 0.412109 1.000000 1.000000 1.000000 #0.501961
v -0.348633 3.353271 0.876953 1.000000 1.000000 1.000000 #0.501961
v -0.235107 3.279541 0.866455 1.000000 1.000000 1.000000 #0.501961
v -0.411377 2.981689 0.412109 1.000000 1.000000 1.000000 #0.501961
v 1.460693 1.267090 -0.829346 1.000000 1.000000 1.000000 #0.501961
v 1.486816 1.172119 -0.963379 1.000000 1.000000 1.000000 #0.501961
v 0.941895 1.375244 -0.941162 1.000000 1.000000 1.000000 #0.501961
v 1.486816 1.172119 -0.963379 1.000000 1.000000 1.000000 #0.501961
v 0.983643 1.172119 -1.466553 1.000000 1.000000 1.000000 #0.501961
v 0.941895 1.375244 -0.941162 1.000000 1.000000 1.000000 #0.501961
v 0.983643 1.172119 -1.466553 1.000000 1.000000 1.000000 #0.501961
v 0.855469 1.252686 -1.458984 1.000000 1.000000 1.000000 #0.501961
v 0.941895 1.375244 -0.941162 1.000000 1.000000 1.000000 #0.501961
v 1.460693 1.267090 -0.829346 1.000000 1.000000 1.000000 #0.501961
v 0.941895 1.375244 -0.941162 1.000000 1.000000 1.000000 #0.501961
v 0.237305 2.145020 -0.236572 1.000000 1.000000 1.000000 #0.501961
v 0.941895 1.375244 -0.941162 1.000000 1.000000 1.000000 #0.501961
v 0.855469 1.252686 -1.458984 1.000000 1.000000 1.000000 #0.501961
v 0.237305 2.145020 -0.236572 1.000000 1.000000 1.000000 #0.501961
v -0.235107 3.279541 0.866455 1.000000 1.000000 1.000000 #0.501961
v 1.460693 1.267090 -0.829346 1.000000 1.000000 1.000000 #0.501961
v 0.237305 2.145020 -0.236572 1.000000 1.000000 1.000000 #0.501961
v -0.411377 2.981689 0.412109 1.000000 1.000000 1.000000 #0.501961
v -0.235107 3.279541 0.866455 1.000000 1.000000 1.000000 #0.501961
v 0.237305 2.145020 -0.236572 1.000000 1.000000 1.000000 #0.501961
v 0.855469 1.252686 -1.458984 1.000000 1.000000 1.000000 #0.501961
v -0.857422 3.285400 0.253906 1.000000 1.000000 1.000000 #0.501961
v 0.237305 2.145020 -0.236572 1.000000 1.000000 1.000000 #0.501961
v -0.857422 3.285400 0.253906 1.000000 1.000000 1.000000 #0.501961
v -0.411377 2.981689 0.412109 1.000000 1.000000 1.000000 #0.501961
v 0.237305 2.145020 -0.236572 1.000000 1.000000 1.000000 #0.501961
vt 0.953613 0.986816 0.000000
vt 0.889648 1.000000 0.000000
vt 0.941162 0.981689 0.000000
vt 0.268799 0.115234 0.000000
vt 0.713379 0.115234 0.000000
vt 0.229004 0.096191 0.000000
vt 0.229004 0.096191 0.000000
vt 0.758057 0.096191 0.000000
vt 0.778320 0.085205 0.000000
vt 0.202637 0.085205 0.000000
vt 0.229004 0.096191 0.000000
vt 0.778320 0.085205 0.000000
vt 0.710938 0.884521 0.000000
vt 0.270996 0.884521 0.000000
vt 0.231689 0.907227 0.000000
vt 0.710938 0.884521 0.000000
vt 0.231689 0.907227 0.000000
vt 0.755127 0.907227 0.000000
vt 0.231689 0.907227 0.000000
vt 0.205566 0.921875 0.000000
vt 0.775146 0.921875 0.000000
vt 0.755127 0.907227 0.000000
vt 0.231689 0.907227 0.000000
vt 0.775146 0.921875 0.000000
vt 0.223877 0.851074 0.000000
vt 0.223877 0.141357 0.000000
vt 0.173096 0.125000 0.000000
vt 0.223877 0.851074 0.000000
vt 0.173096 0.125000 0.000000
vt 0.173096 0.878906 0.000000
vt 0.173096 0.125000 0.000000
vt 0.142822 0.114502 0.000000
vt 0.142822 0.888672 0.000000
vt 0.173096 0.878906 0.000000
vt 0.173096 0.125000 0.000000
vt 0.142822 0.888672 0.000000
vt 0.820313 0.123047 0.000000
vt 0.763672 0.855957 0.000000
vt 0.820801 0.876221 0.000000
vt 0.763672 0.139160 0.000000
vt 0.763672 0.855957 0.000000
vt 0.820313 0.123047 0.000000
vt 0.844727 0.113037 0.000000
vt 0.820801 0.876221 0.000000
vt 0.844727 0.892090 0.000000
vt 0.820313 0.123047 0.000000
vt 0.820801 0.876221 0.000000
vt 0.844727 0.113037 0.000000
vt 0.259033 0.125000 0.000000
vt 0.730225 0.104980 0.000000
vt 0.747803 0.150879 0.000000
vt 0.259033 0.125000 0.000000
vt 0.747803 0.150879 0.000000
vt 0.277832 0.173828 0.000000
vt 0.687012 0.884766 0.000000
vt 0.262207 0.884766 0.000000
vt 0.250000 0.841309 0.000000
vt 0.687012 0.884766 0.000000
vt 0.250000 0.841309 0.000000
vt 0.691162 0.818115 0.000000
vt 0.189941 0.850830 0.000000
vt 0.229980 0.163574 0.000000
vt 0.277832 0.173828 0.000000
vt 0.189941 0.850830 0.000000
vt 0.277832 0.173828 0.000000
vt 0.250000 0.841309 0.000000
vt 0.799805 0.143311 0.000000
vt 0.789795 0.801025 0.000000
vt 0.747803 0.150879 0.000000
vt 0.747803 0.150879 0.000000
vt 0.789795 0.801025 0.000000
vt 0.691162 0.818115 0.000000
vt 0.104736 0.000000 0.000000
vt 0.894775 0.000000 0.000000
vt 0.117188 0.005859 0.000000
vt 0.894775 0.000000 0.000000
vt 0.883301 0.005859 0.000000
vt 0.117188 0.005859 0.000000
vt 0.115234 0.004150 0.000000
vt 0.883789 0.004150 0.000000
vt 0.104736 0.000000 0.000000
vt 0.883789 0.004150 0.000000
vt 0.894775 0.000000 0.000000
vt 0.104736 0.000000 0.000000
vt 0.889648 1.000000 0.000000
vt 0.109619 1.000000 0.000000
vt 0.122070 0.986572 0.000000
vt 0.878418 0.986572 0.000000
vt 0.889648 1.000000 0.000000
vt 0.122070 0.986572 0.000000
vt 0.889648 1.000000 0.000000
vt 0.878906 0.996094 0.000000
vt 0.109619 1.000000 0.000000
vt 0.878906 0.996094 0.000000
vt 0.120117 0.996094 0.000000
vt 0.109619 1.000000 0.000000
vt 0.000000 0.949707 0.000000
vt 0.015625 0.053711 0.000000
vt 0.015625 0.944336 0.000000
vt 0.000000 0.949707 0.000000
vt 0.000000 0.046631 0.000000
vt 0.015625 0.053711 0.000000
vt 0.013184 0.946777 0.000000
vt 0.000000 0.046631 0.000000
vt 0.000000 0.949707 0.000000
vt 0.013184 0.946777 0.000000
vt 0.013184 0.049561 0.000000
vt 0.000000 0.046631 0.000000
vt 1.000000 0.047363 0.000000
vt 1.000000 0.948975 0.000000
vt 0.985596 0.053467 0.000000
vt 0.985596 0.053467 0.000000
vt 1.000000 0.948975 0.000000
vt 0.985596 0.944580 0.000000
vt 0.986084 0.050781 0.000000
vt 0.986084 0.945557 0.000000
vt 1.000000 0.047363 0.000000
vt 1.000000 0.047363 0.000000
vt 0.986084 0.945557 0.000000
vt 1.000000 0.948975 0.000000
vt 0.268799 0.115234 0.000000
vt 0.229004 0.096191 0.000000
vt 0.183594 0.104492 0.000000
vt 0.223877 0.141357 0.000000
vt 0.268799 0.115234 0.000000
vt 0.173096 0.125000 0.000000
vt 0.268799 0.115234 0.000000
vt 0.183594 0.104492 0.000000
vt 0.173096 0.125000 0.000000
vt 0.183594 0.104492 0.000000
vt 0.202637 0.085205 0.000000
vt 0.152588 0.094971 0.000000
vt 0.183594 0.104492 0.000000
vt 0.229004 0.096191 0.000000
vt 0.202637 0.085205 0.000000
vt 0.173096 0.125000 0.000000
vt 0.183594 0.104492 0.000000
vt 0.142822 0.114502 0.000000
vt 0.183594 0.104492 0.000000
vt 0.152588 0.094971 0.000000
vt 0.142822 0.114502 0.000000
vt 0.243896 0.138428 0.000000
vt 0.259033 0.125000 0.000000
vt 0.277832 0.173828 0.000000
vt 0.229980 0.163574 0.000000
vt 0.243896 0.138428 0.000000
vt 0.277832 0.173828 0.000000
vt 0.000000 0.046631 0.000000
vt 0.036377 0.022461 0.000000
vt 0.015625 0.053711 0.000000
vt 0.000000 0.046631 0.000000
vt 0.021973 0.015869 0.000000
vt 0.036377 0.022461 0.000000
vt 0.104736 0.000000 0.000000
vt 0.117188 0.005859 0.000000
vt 0.036377 0.022461 0.000000
vt 0.021973 0.015869 0.000000
vt 0.104736 0.000000 0.000000
vt 0.036377 0.022461 0.000000
vt 0.033691 0.019775 0.000000
vt 0.104736 0.000000 0.000000
vt 0.021973 0.015869 0.000000
vt 0.033691 0.019775 0.000000
vt 0.115234 0.004150 0.000000
vt 0.104736 0.000000 0.000000
vt 0.033691 0.019775 0.000000
vt 0.021973 0.015869 0.000000
vt 0.000000 0.046631 0.000000
vt 0.013184 0.049561 0.000000
vt 0.033691 0.019775 0.000000
vt 0.000000 0.046631 0.000000
vt 0.758057 0.096191 0.000000
vt 0.713379 0.115234 0.000000
vt 0.803711 0.103760 0.000000
vt 0.713379 0.115234 0.000000
vt 0.763672 0.139160 0.000000
vt 0.820313 0.123047 0.000000
vt 0.803711 0.103760 0.000000
vt 0.713379 0.115234 0.000000
vt 0.820313 0.123047 0.000000
vt 0.758057 0.096191 0.000000
vt 0.803711 0.103760 0.000000
vt 0.824707 0.092773 0.000000
vt 0.778320 0.085205 0.000000
vt 0.758057 0.096191 0.000000
vt 0.824707 0.092773 0.000000
vt 0.803711 0.103760 0.000000
vt 0.820313 0.123047 0.000000
vt 0.844727 0.113037 0.000000
vt 0.824707 0.092773 0.000000
vt 0.803711 0.103760 0.000000
vt 0.844727 0.113037 0.000000
vt 0.730225 0.104980 0.000000
vt 0.779541 0.117920 0.000000
vt 0.747803 0.150879 0.000000
vt 0.779541 0.117920 0.000000
vt 0.799805 0.143311 0.000000
vt 0.747803 0.150879 0.000000
vt 0.955811 0.021973 0.000000
vt 1.000000 0.047363 0.000000
vt 0.985596 0.053467 0.000000
vt 0.969238 0.016357 0.000000
vt 1.000000 0.047363 0.000000
vt 0.955811 0.021973 0.000000
vt 0.894775 0.000000 0.000000
vt 0.969238 0.016357 0.000000
vt 0.955811 0.021973 0.000000
vt 0.883301 0.005859 0.000000
vt 0.894775 0.000000 0.000000
vt 0.955811 0.021973 0.000000
vt 0.969238 0.016357 0.000000
vt 0.957275 0.020508 0.000000
vt 1.000000 0.047363 0.000000
vt 0.957275 0.020508 0.000000
vt 0.986084 0.050781 0.000000
vt 1.000000 0.047363 0.000000
vt 0.883789 0.004150 0.000000
vt 0.957275 0.020508 0.000000
vt 0.894775 0.000000 0.000000
vt 0.894775 0.000000 0.000000
vt 0.957275 0.020508 0.000000
vt 0.969238 0.016357 0.000000
vt 0.820801 0.876221 0.000000
vt 0.710938 0.884521 0.000000
vt 0.801514 0.897705 0.000000
vt 0.763672 0.855957 0.000000
vt 0.710938 0.884521 0.000000
vt 0.820801 0.876221 0.000000
vt 0.801514 0.897705 0.000000
vt 0.710938 0.884521 0.000000
vt 0.755127 0.907227 0.000000
vt 0.844727 0.892090 0.000000
vt 0.801514 0.897705 0.000000
vt 0.820313 0.913818 0.000000
vt 0.820801 0.876221 0.000000
vt 0.801514 0.897705 0.000000
vt 0.844727 0.892090 0.000000
vt 0.820313 0.913818 0.000000
vt 0.801514 0.897705 0.000000
vt 0.775146 0.921875 0.000000
vt 0.801514 0.897705 0.000000
vt 0.755127 0.907227 0.000000
vt 0.775146 0.921875 0.000000
vt 0.759766 0.840820 0.000000
vt 0.687012 0.884766 0.000000
vt 0.691162 0.818115 0.000000
vt 0.789795 0.801025 0.000000
vt 0.759766 0.840820 0.000000
vt 0.691162 0.818115 0.000000
vt 1.000000 0.948975 0.000000
vt 0.953613 0.986816 0.000000
vt 0.941162 0.981689 0.000000
vt 0.985596 0.944580 0.000000
vt 1.000000 0.948975 0.000000
vt 0.941162 0.981689 0.000000
vt 0.229004 0.096191 0.000000
vt 0.713379 0.115234 0.000000
vt 0.758057 0.096191 0.000000
vt 0.941162 0.981689 0.000000
vt 0.889648 1.000000 0.000000
vt 0.878418 0.986572 0.000000
vt 0.941650 0.982666 0.000000
vt 0.878906 0.996094 0.000000
vt 0.889648 1.000000 0.000000
vt 0.953613 0.986816 0.000000
vt 0.941650 0.982666 0.000000
vt 0.889648 1.000000 0.000000
vt 1.000000 0.948975 0.000000
vt 0.941650 0.982666 0.000000
vt 0.953613 0.986816 0.000000
vt 0.986084 0.945557 0.000000
vt 0.941650 0.982666 0.000000
vt 1.000000 0.948975 0.000000
vt 0.270996 0.884521 0.000000
vt 0.173096 0.878906 0.000000
vt 0.192627 0.896240 0.000000
vt 0.270996 0.884521 0.000000
vt 0.223877 0.851074 0.000000
vt 0.173096 0.878906 0.000000
vt 0.270996 0.884521 0.000000
vt 0.192627 0.896240 0.000000
vt 0.231689 0.907227 0.000000
vt 0.192627 0.896240 0.000000
vt 0.142822 0.888672 0.000000
vt 0.165283 0.907715 0.000000
vt 0.192627 0.896240 0.000000
vt 0.173096 0.878906 0.000000
vt 0.142822 0.888672 0.000000
vt 0.192627 0.896240 0.000000
vt 0.165283 0.907715 0.000000
vt 0.205566 0.921875 0.000000
vt 0.231689 0.907227 0.000000
vt 0.192627 0.896240 0.000000
vt 0.205566 0.921875 0.000000
vt 0.262207 0.884766 0.000000
vt 0.217529 0.875488 0.000000
vt 0.250000 0.841309 0.000000
vt 0.217529 0.875488 0.000000
vt 0.189941 0.850830 0.000000
vt 0.250000 0.841309 0.000000
vt 0.109619 1.000000 0.000000
vt 0.056396 0.975098 0.000000
vt 0.122070 0.986572 0.000000
vt 0.109619 1.000000 0.000000
vt 0.042725 0.980957 0.000000
vt 0.056396 0.975098 0.000000
vt 0.042725 0.980957 0.000000
vt 0.000000 0.949707 0.000000
vt 0.056396 0.975098 0.000000
vt 0.000000 0.949707 0.000000
vt 0.015625 0.944336 0.000000
vt 0.056396 0.975098 0.000000
vt 0.054199 0.977295 0.000000
vt 0.013184 0.946777 0.000000
vt 0.000000 0.949707 0.000000
vt 0.054199 0.977295 0.000000
vt 0.000000 0.949707 0.000000
vt 0.042725 0.980957 0.000000
vt 0.054199 0.977295 0.000000
vt 0.042725 0.980957 0.000000
vt 0.109619 1.000000 0.000000
vt 0.120117 0.996094 0.000000
vt 0.054199 0.977295 0.000000
vt 0.109619 1.000000 0.000000
vt 0.277832 0.173828 0.000000
vt 0.747803 0.150879 0.000000
vt 0.250000 0.841309 0.000000
vt 0.250000 0.841309 0.000000
vt 0.747803 0.150879 0.000000
vt 0.691162 0.818115 0.000000
vt 0.164307 0.050537 0.000000
vt 0.778320 0.085205 0.000000
vt 0.823975 0.050537 0.000000
vt 0.202637 0.085205 0.000000
vt 0.778320 0.085205 0.000000
vt 0.164307 0.050537 0.000000
vt 0.115234 0.004150 0.000000
vt 0.823975 0.050537 0.000000
vt 0.883789 0.004150 0.000000
vt 0.164307 0.050537 0.000000
vt 0.823975 0.050537 0.000000
vt 0.115234 0.004150 0.000000
vt 0.775146 0.921875 0.000000
vt 0.167969 0.954102 0.000000
vt 0.820068 0.954102 0.000000
vt 0.775146 0.921875 0.000000
vt 0.205566 0.921875 0.000000
vt 0.167969 0.954102 0.000000
vt 0.820068 0.954102 0.000000
vt 0.167969 0.954102 0.000000
vt 0.120117 0.996094 0.000000
vt 0.820068 0.954102 0.000000
vt 0.120117 0.996094 0.000000
vt 0.878906 0.996094 0.000000
vt 0.142822 0.114502 0.000000
vt 0.086670 0.086670 0.000000
vt 0.086670 0.913818 0.000000
vt 0.142822 0.888672 0.000000
vt 0.142822 0.114502 0.000000
vt 0.086670 0.913818 0.000000
vt 0.086670 0.086670 0.000000
vt 0.013184 0.049561 0.000000
vt 0.013184 0.946777 0.000000
vt 0.086670 0.913818 0.000000
vt 0.086670 0.086670 0.000000
vt 0.013184 0.946777 0.000000
vt 0.844727 0.113037 0.000000
vt 0.844727 0.892090 0.000000
vt 0.905518 0.915527 0.000000
vt 0.905518 0.086182 0.000000
vt 0.844727 0.113037 0.000000
vt 0.905518 0.915527 0.000000
vt 0.905518 0.086182 0.000000
vt 0.905518 0.915527 0.000000
vt 0.986084 0.945557 0.000000
vt 0.986084 0.050781 0.000000
vt 0.905518 0.086182 0.000000
vt 0.986084 0.945557 0.000000
vt 0.152588 0.094971 0.000000
vt 0.100830 0.062744 0.000000
vt 0.086670 0.086670 0.000000
vt 0.142822 0.114502 0.000000
vt 0.152588 0.094971 0.000000
vt 0.086670 0.086670 0.000000
vt 0.100830 0.062744 0.000000
vt 0.033691 0.019775 0.000000
vt 0.013184 0.049561 0.000000
vt 0.086670 0.086670 0.000000
vt 0.100830 0.062744 0.000000
vt 0.013184 0.049561 0.000000
vt 0.152588 0.094971 0.000000
vt 0.164307 0.050537 0.000000
vt 0.100830 0.062744 0.000000
vt 0.152588 0.094971 0.000000
vt 0.202637 0.085205 0.000000
vt 0.164307 0.050537 0.000000
vt 0.100830 0.062744 0.000000
vt 0.164307 0.050537 0.000000
vt 0.115234 0.004150 0.000000
vt 0.100830 0.062744 0.000000
vt 0.115234 0.004150 0.000000
vt 0.033691 0.019775 0.000000
vt 0.823975 0.050537 0.000000
vt 0.824707 0.092773 0.000000
vt 0.881836 0.061768 0.000000
vt 0.778320 0.085205 0.000000
vt 0.824707 0.092773 0.000000
vt 0.823975 0.050537 0.000000
vt 0.883789 0.004150 0.000000
vt 0.881836 0.061768 0.000000
vt 0.957275 0.020508 0.000000
vt 0.823975 0.050537 0.000000
vt 0.881836 0.061768 0.000000
vt 0.883789 0.004150 0.000000
vt 0.881836 0.061768 0.000000
vt 0.824707 0.092773 0.000000
vt 0.905518 0.086182 0.000000
vt 0.824707 0.092773 0.000000
vt 0.844727 0.113037 0.000000
vt 0.905518 0.086182 0.000000
vt 0.881836 0.061768 0.000000
vt 0.905518 0.086182 0.000000
vt 0.986084 0.050781 0.000000
vt 0.957275 0.020508 0.000000
vt 0.881836 0.061768 0.000000
vt 0.986084 0.050781 0.000000
vt 0.905518 0.915527 0.000000
vt 0.820313 0.913818 0.000000
vt 0.872803 0.944580 0.000000
vt 0.844727 0.892090 0.000000
vt 0.820313 0.913818 0.000000
vt 0.905518 0.915527 0.000000
vt 0.986084 0.945557 0.000000
vt 0.872803 0.944580 0.000000
vt 0.941650 0.982666 0.000000
vt 0.905518 0.915527 0.000000
vt 0.872803 0.944580 0.000000
vt 0.986084 0.945557 0.000000
vt 0.872803 0.944580 0.000000
vt 0.820313 0.913818 0.000000
vt 0.820068 0.954102 0.000000
vt 0.820313 0.913818 0.000000
vt 0.775146 0.921875 0.000000
vt 0.820068 0.954102 0.000000
vt 0.872803 0.944580 0.000000
vt 0.820068 0.954102 0.000000
vt 0.878906 0.996094 0.000000
vt 0.941650 0.982666 0.000000
vt 0.872803 0.944580 0.000000
vt 0.878906 0.996094 0.000000
vt 0.165283 0.907715 0.000000
vt 0.086670 0.913818 0.000000
vt 0.116943 0.938965 0.000000
vt 0.165283 0.907715 0.000000
vt 0.142822 0.888672 0.000000
vt 0.086670 0.913818 0.000000
vt 0.116943 0.938965 0.000000
vt 0.086670 0.913818 0.000000
vt 0.013184 0.946777 0.000000
vt 0.116943 0.938965 0.000000
vt 0.013184 0.946777 0.000000
vt 0.054199 0.977295 0.000000
vt 0.165283 0.907715 0.000000
vt 0.116943 0.938965 0.000000
vt 0.167969 0.954102 0.000000
vt 0.205566 0.921875 0.000000
vt 0.165283 0.907715 0.000000
vt 0.167969 0.954102 0.000000
vt 0.116943 0.938965 0.000000
vt 0.054199 0.977295 0.000000
vt 0.120117 0.996094 0.000000
vt 0.167969 0.954102 0.000000
vt 0.116943 0.938965 0.000000
vt 0.120117 0.996094 0.000000
vt 0.763672 0.139160 0.000000
vt 0.713379 0.115234 0.000000
vt 0.499512 0.218750 0.000000
vt 0.713379 0.115234 0.000000
vt 0.268799 0.115234 0.000000
vt 0.499512 0.218750 0.000000
vt 0.268799 0.115234 0.000000
vt 0.223877 0.141357 0.000000
vt 0.499512 0.218750 0.000000
vt 0.223877 0.851074 0.000000
vt 0.270996 0.884521 0.000000
vt 0.499512 0.785156 0.000000
vt 0.270996 0.884521 0.000000
vt 0.710938 0.884521 0.000000
vt 0.499512 0.785156 0.000000
vt 0.710938 0.884521 0.000000
vt 0.763672 0.855957 0.000000
vt 0.499512 0.785156 0.000000
vt 0.223877 0.851074 0.000000
vt 0.499512 0.785156 0.000000
vt 0.499512 0.500000 0.000000
vt 0.499512 0.785156 0.000000
vt 0.763672 0.855957 0.000000
vt 0.499512 0.500000 0.000000
vt 0.223877 0.141357 0.000000
vt 0.223877 0.851074 0.000000
vt 0.499512 0.500000 0.000000
vt 0.499512 0.218750 0.000000
vt 0.223877 0.141357 0.000000
vt 0.499512 0.500000 0.000000
vt 0.763672 0.855957 0.000000
vt 0.763672 0.139160 0.000000
vt 0.499512 0.500000 0.000000
vt 0.763672 0.139160 0.000000
vt 0.499512 0.218750 0.000000
vt 0.499512 0.500000 0.000000
vn 0.175049 0.465576 -0.867432
vn -0.210938 0.793945 -0.570068
vn 0.416748 0.872314 -0.254883
vn -0.455811 -0.828857 -0.323730
vn -0.311035 -0.856934 -0.410889
vn -0.102783 -0.994385 0.015137
vn -0.102783 -0.994385 0.015137
vn 0.084717 -0.986572 -0.138428
vn 0.277588 -0.953125 0.119385
vn -0.007813 -0.950928 0.308838
vn -0.102783 -0.994385 0.015137
vn 0.277588 -0.953125 0.119385
vn -0.472412 -0.674072 -0.567627
vn -0.562988 -0.701904 -0.436035
vn -0.735107 -0.330566 -0.591553
vn -0.472412 -0.674072 -0.567627
vn -0.735107 -0.330566 -0.591553
vn -0.572998 -0.333496 -0.748291
vn -0.735107 -0.330566 -0.591553
vn -0.895020 -0.039307 -0.443848
vn -0.594727 0.020752 -0.803467
vn -0.572998 -0.333496 -0.748291
vn -0.735107 -0.330566 -0.591553
vn -0.594727 0.020752 -0.803467
vn -0.504639 -0.763428 -0.402588
vn -0.455078 -0.771729 -0.443604
vn -0.741943 -0.668457 0.050049
vn -0.504639 -0.763428 -0.402588
vn -0.741943 -0.668457 0.050049
vn -0.804932 -0.586182 -0.090088
vn -0.741943 -0.668457 0.050049
vn -0.794922 -0.414795 0.442383
vn -0.916748 -0.317627 0.241943
vn -0.804932 -0.586182 -0.090088
vn -0.741943 -0.668457 0.050049
vn -0.916748 -0.317627 0.241943
vn 0.015625 -0.714355 -0.699219
vn -0.416504 -0.762695 -0.494141
vn 0.004395 -0.562256 -0.826660
vn -0.456299 -0.771484 -0.443115
vn -0.416504 -0.762695 -0.494141
vn 0.015625 -0.714355 -0.699219
vn 0.469238 -0.437012 -0.767090
vn 0.004395 -0.562256 -0.826660
vn 0.262451 -0.276855 -0.924072
vn 0.015625 -0.714355 -0.699219
vn 0.004395 -0.562256 -0.826660
vn 0.469238 -0.437012 -0.767090
vn 0.611084 0.259766 0.747559
vn 0.781006 0.272461 0.561768
vn 0.513184 0.742188 0.430664
vn 0.611084 0.259766 0.747559
vn 0.513184 0.742188 0.430664
vn 0.412354 0.743652 0.525879
vn 0.243164 0.951172 0.189697
vn 0.059082 0.983643 0.169434
vn 0.401367 0.792725 0.458252
vn 0.243164 0.951172 0.189697
vn 0.401367 0.792725 0.458252
vn 0.466064 0.795166 0.387451
vn -0.011475 0.727783 0.685303
vn -0.143066 0.506836 0.849854
vn 0.412354 0.743652 0.525879
vn -0.011475 0.727783 0.685303
vn 0.412354 0.743652 0.525879
vn 0.401367 0.792725 0.458252
vn 0.862793 0.486084 -0.136719
vn 0.695313 0.718018 -0.025879
vn 0.513184 0.742188 0.430664
vn 0.513184 0.742188 0.430664
vn 0.695313 0.718018 -0.025879
vn 0.466064 0.795166 0.387451
vn 0.338135 -0.599365 0.725098
vn 0.775391 -0.527344 0.346680
vn 0.611084 0.259766 0.747559
vn 0.775391 -0.527344 0.346680
vn 0.781006 0.272461 0.561768
vn 0.611084 0.259766 0.747559
vn 0.096436 -0.915039 0.390869
vn 0.434082 -0.893311 0.114014
vn 0.338135 -0.599365 0.725098
vn 0.434082 -0.893311 0.114014
vn 0.775391 -0.527344 0.346680
vn 0.338135 -0.599365 0.725098
vn -0.210938 0.793945 -0.570068
vn -0.690674 0.691650 -0.209717
vn 0.059082 0.983643 0.169434
vn 0.243164 0.951172 0.189697
vn -0.210938 0.793945 -0.570068
vn 0.059082 0.983643 0.169434
vn -0.210938 0.793945 -0.570068
vn -0.509521 0.260986 -0.819580
vn -0.690674 0.691650 -0.209717
vn -0.509521 0.260986 -0.819580
vn -0.867432 0.193359 -0.457764
vn -0.690674 0.691650 -0.209717
vn -0.771240 0.245850 0.586914
vn -0.143066 0.506836 0.849854
vn -0.011475 0.727783 0.685303
vn -0.771240 0.245850 0.586914
vn -0.621582 -0.086914 0.778320
vn -0.143066 0.506836 0.849854
vn -0.906006 -0.169922 0.387207
vn -0.621582 -0.086914 0.778320
vn -0.771240 0.245850 0.586914
vn -0.906006 -0.169922 0.387207
vn -0.746582 -0.361328 0.558350
vn -0.621582 -0.086914 0.778320
vn 0.791016 -0.134521 -0.596436
vn 0.591797 0.207275 -0.778809
vn 0.862793 0.486084 -0.136719
vn 0.862793 0.486084 -0.136719
vn 0.591797 0.207275 -0.778809
vn 0.695313 0.718018 -0.025879
vn 0.552246 -0.422852 -0.718262
vn 0.386719 -0.191895 -0.901855
vn 0.791016 -0.134521 -0.596436
vn 0.791016 -0.134521 -0.596436
vn 0.386719 -0.191895 -0.901855
vn 0.591797 0.207275 -0.778809
vn -0.455811 -0.828857 -0.323730
vn -0.102783 -0.994385 0.015137
vn -0.510010 -0.847412 0.145996
vn -0.455078 -0.771729 -0.443604
vn -0.455811 -0.828857 -0.323730
vn -0.741943 -0.668457 0.050049
vn -0.455811 -0.828857 -0.323730
vn -0.510010 -0.847412 0.145996
vn -0.741943 -0.668457 0.050049
vn -0.510010 -0.847412 0.145996
vn -0.007813 -0.950928 0.308838
vn -0.463135 -0.730225 0.501709
vn -0.510010 -0.847412 0.145996
vn -0.102783 -0.994385 0.015137
vn -0.007813 -0.950928 0.308838
vn -0.741943 -0.668457 0.050049
vn -0.510010 -0.847412 0.145996
vn -0.794922 -0.414795 0.442383
vn -0.510010 -0.847412 0.145996
vn -0.463135 -0.730225 0.501709
vn -0.794922 -0.414795 0.442383
vn 0.165039 0.287354 0.943359
vn 0.611084 0.259766 0.747559
vn 0.412354 0.743652 0.525879
vn -0.143066 0.506836 0.849854
vn 0.165039 0.287354 0.943359
vn 0.412354 0.743652 0.525879
vn -0.621582 -0.086914 0.778320
vn 0.165039 0.287354 0.943359
vn -0.143066 0.506836 0.849854
vn -0.621582 -0.086914 0.778320
vn -0.184326 -0.334473 0.924072
vn 0.165039 0.287354 0.943359
vn 0.338135 -0.599365 0.725098
vn 0.611084 0.259766 0.747559
vn 0.165039 0.287354 0.943359
vn -0.184326 -0.334473 0.924072
vn 0.338135 -0.599365 0.725098
vn 0.165039 0.287354 0.943359
vn -0.388428 -0.668457 0.634033
vn 0.338135 -0.599365 0.725098
vn -0.184326 -0.334473 0.924072
vn -0.388428 -0.668457 0.634033
vn 0.096436 -0.915039 0.390869
vn 0.338135 -0.599365 0.725098
vn -0.388428 -0.668457 0.634033
vn -0.184326 -0.334473 0.924072
vn -0.621582 -0.086914 0.778320
vn -0.746582 -0.361328 0.558350
vn -0.388428 -0.668457 0.634033
vn -0.621582 -0.086914 0.778320
vn 0.084717 -0.986572 -0.138428
vn -0.311035 -0.856934 -0.410889
vn 0.151855 -0.840332 -0.519775
vn -0.311035 -0.856934 -0.410889
vn -0.456299 -0.771484 -0.443115
vn 0.015625 -0.714355 -0.699219
vn 0.151855 -0.840332 -0.519775
vn -0.311035 -0.856934 -0.410889
vn 0.015625 -0.714355 -0.699219
vn 0.084717 -0.986572 -0.138428
vn 0.151855 -0.840332 -0.519775
vn 0.475586 -0.804932 -0.354492
vn 0.277588 -0.953125 0.119385
vn 0.084717 -0.986572 -0.138428
vn 0.475586 -0.804932 -0.354492
vn 0.151855 -0.840332 -0.519775
vn 0.015625 -0.714355 -0.699219
vn 0.469238 -0.437012 -0.767090
vn 0.475586 -0.804932 -0.354492
vn 0.151855 -0.840332 -0.519775
vn 0.469238 -0.437012 -0.767090
vn 0.781006 0.272461 0.561768
vn 0.952393 0.253174 0.168701
vn 0.513184 0.742188 0.430664
vn 0.952393 0.253174 0.168701
vn 0.862793 0.486084 -0.136719
vn 0.513184 0.742188 0.430664
vn 0.952393 0.253174 0.168701
vn 0.791016 -0.134521 -0.596436
vn 0.862793 0.486084 -0.136719
vn 0.912109 -0.367188 -0.181152
vn 0.791016 -0.134521 -0.596436
vn 0.952393 0.253174 0.168701
vn 0.775391 -0.527344 0.346680
vn 0.912109 -0.367188 -0.181152
vn 0.952393 0.253174 0.168701
vn 0.781006 0.272461 0.561768
vn 0.775391 -0.527344 0.346680
vn 0.952393 0.253174 0.168701
vn 0.912109 -0.367188 -0.181152
vn 0.623779 -0.683594 -0.378662
vn 0.791016 -0.134521 -0.596436
vn 0.623779 -0.683594 -0.378662
vn 0.552246 -0.422852 -0.718262
vn 0.791016 -0.134521 -0.596436
vn 0.434082 -0.893311 0.114014
vn 0.623779 -0.683594 -0.378662
vn 0.775391 -0.527344 0.346680
vn 0.775391 -0.527344 0.346680
vn 0.623779 -0.683594 -0.378662
vn 0.912109 -0.367188 -0.181152
vn 0.004395 -0.562256 -0.826660
vn -0.472412 -0.674072 -0.567627
vn -0.270508 -0.401855 -0.874756
vn -0.416504 -0.762695 -0.494141
vn -0.472412 -0.674072 -0.567627
vn 0.004395 -0.562256 -0.826660
vn -0.270508 -0.401855 -0.874756
vn -0.472412 -0.674072 -0.567627
vn -0.572998 -0.333496 -0.748291
vn 0.262451 -0.276855 -0.924072
vn -0.270508 -0.401855 -0.874756
vn -0.122314 -0.063965 -0.990234
vn 0.004395 -0.562256 -0.826660
vn -0.270508 -0.401855 -0.874756
vn 0.262451 -0.276855 -0.924072
vn -0.122314 -0.063965 -0.990234
vn -0.270508 -0.401855 -0.874756
vn -0.594727 0.020752 -0.803467
vn -0.270508 -0.401855 -0.874756
vn -0.572998 -0.333496 -0.748291
vn -0.594727 0.020752 -0.803467
vn 0.416748 0.872314 -0.254883
vn 0.243164 0.951172 0.189697
vn 0.466064 0.795166 0.387451
vn 0.695313 0.718018 -0.025879
vn 0.416748 0.872314 -0.254883
vn 0.466064 0.795166 0.387451
vn 0.591797 0.207275 -0.778809
vn 0.175049 0.465576 -0.867432
vn 0.416748 0.872314 -0.254883
vn 0.695313 0.718018 -0.025879
vn 0.591797 0.207275 -0.778809
vn 0.416748 0.872314 -0.254883
vn -0.102783 -0.994385 0.015137
vn -0.311035 -0.856934 -0.410889
vn 0.084717 -0.986572 -0.138428
vn 0.416748 0.872314 -0.254883
vn -0.210938 0.793945 -0.570068
vn 0.243164 0.951172 0.189697
vn -0.030029 0.091797 -0.995117
vn -0.509521 0.260986 -0.819580
vn -0.210938 0.793945 -0.570068
vn 0.175049 0.465576 -0.867432
vn -0.030029 0.091797 -0.995117
vn -0.210938 0.793945 -0.570068
vn 0.591797 0.207275 -0.778809
vn -0.030029 0.091797 -0.995117
vn 0.175049 0.465576 -0.867432
vn 0.386719 -0.191895 -0.901855
vn -0.030029 0.091797 -0.995117
vn 0.591797 0.207275 -0.778809
vn -0.562988 -0.701904 -0.436035
vn -0.804932 -0.586182 -0.090088
vn -0.884277 -0.407959 -0.226074
vn -0.562988 -0.701904 -0.436035
vn -0.504639 -0.763428 -0.402588
vn -0.804932 -0.586182 -0.090088
vn -0.562988 -0.701904 -0.436035
vn -0.884277 -0.407959 -0.226074
vn -0.735107 -0.330566 -0.591553
vn -0.884277 -0.407959 -0.226074
vn -0.916748 -0.317627 0.241943
vn -0.996094 -0.085205 -0.018066
vn -0.884277 -0.407959 -0.226074
vn -0.804932 -0.586182 -0.090088
vn -0.916748 -0.317627 0.241943
vn -0.884277 -0.407959 -0.226074
vn -0.996094 -0.085205 -0.018066
vn -0.895020 -0.039307 -0.443848
vn -0.735107 -0.330566 -0.591553
vn -0.884277 -0.407959 -0.226074
vn -0.895020 -0.039307 -0.443848
vn 0.059082 0.983643 0.169434
vn -0.249756 0.854492 0.455078
vn 0.401367 0.792725 0.458252
vn -0.249756 0.854492 0.455078
vn -0.011475 0.727783 0.685303
vn 0.401367 0.792725 0.458252
vn -0.690674 0.691650 -0.209717
vn -0.249756 0.854492 0.455078
vn 0.059082 0.983643 0.169434
vn -0.690674 0.691650 -0.209717
vn -0.855713 0.461670 0.233154
vn -0.249756 0.854492 0.455078
vn -0.855713 0.461670 0.233154
vn -0.771240 0.245850 0.586914
vn -0.249756 0.854492 0.455078
vn -0.771240 0.245850 0.586914
vn -0.011475 0.727783 0.685303
vn -0.249756 0.854492 0.455078
vn -0.995850 0.086670 0.017822
vn -0.906006 -0.169922 0.387207
vn -0.771240 0.245850 0.586914
vn -0.995850 0.086670 0.017822
vn -0.771240 0.245850 0.586914
vn -0.855713 0.461670 0.233154
vn -0.995850 0.086670 0.017822
vn -0.855713 0.461670 0.233154
vn -0.690674 0.691650 -0.209717
vn -0.867432 0.193359 -0.457764
vn -0.995850 0.086670 0.017822
vn -0.690674 0.691650 -0.209717
vn 0.412354 0.743652 0.525879
vn 0.513184 0.742188 0.430664
vn 0.401367 0.792725 0.458252
vn 0.401367 0.792725 0.458252
vn 0.513184 0.742188 0.430664
vn 0.466064 0.795166 0.387451
vn 0.073975 -0.927734 0.365234
vn 0.277588 -0.953125 0.119385
vn 0.343994 -0.936279 0.069824
vn -0.007813 -0.950928 0.308838
vn 0.277588 -0.953125 0.119385
vn 0.073975 -0.927734 0.365234
vn 0.096436 -0.915039 0.390869
vn 0.343994 -0.936279 0.069824
vn 0.434082 -0.893311 0.114014
vn 0.073975 -0.927734 0.365234
vn 0.343994 -0.936279 0.069824
vn 0.096436 -0.915039 0.390869
vn -0.594727 0.020752 -0.803467
vn -0.878174 0.150635 -0.453613
vn -0.547363 0.158936 -0.821533
vn -0.594727 0.020752 -0.803467
vn -0.895020 -0.039307 -0.443848
vn -0.878174 0.150635 -0.453613
vn -0.547363 0.158936 -0.821533
vn -0.878174 0.150635 -0.453613
vn -0.867432 0.193359 -0.457764
vn -0.547363 0.158936 -0.821533
vn -0.867432 0.193359 -0.457764
vn -0.509521 0.260986 -0.819580
vn -0.794922 -0.414795 0.442383
vn -0.768555 -0.334473 0.544922
vn -0.913086 -0.166260 0.371582
vn -0.916748 -0.317627 0.241943
vn -0.794922 -0.414795 0.442383
vn -0.913086 -0.166260 0.371582
vn -0.768555 -0.334473 0.544922
vn -0.746582 -0.361328 0.558350
vn -0.906006 -0.169922 0.387207
vn -0.913086 -0.166260 0.371582
vn -0.768555 -0.334473 0.544922
vn -0.906006 -0.169922 0.387207
vn 0.469238 -0.437012 -0.767090
vn 0.262451 -0.276855 -0.924072
vn 0.367188 -0.184814 -0.911377
vn 0.538330 -0.406738 -0.737793
vn 0.469238 -0.437012 -0.767090
vn 0.367188 -0.184814 -0.911377
vn 0.538330 -0.406738 -0.737793
vn 0.367188 -0.184814 -0.911377
vn 0.386719 -0.191895 -0.901855
vn 0.552246 -0.422852 -0.718262
vn 0.538330 -0.406738 -0.737793
vn 0.386719 -0.191895 -0.901855
vn -0.463135 -0.730225 0.501709
vn -0.444092 -0.719971 0.532959
vn -0.768555 -0.334473 0.544922
vn -0.794922 -0.414795 0.442383
vn -0.463135 -0.730225 0.501709
vn -0.768555 -0.334473 0.544922
vn -0.444092 -0.719971 0.532959
vn -0.388428 -0.668457 0.634033
vn -0.746582 -0.361328 0.558350
vn -0.768555 -0.334473 0.544922
vn -0.444092 -0.719971 0.532959
vn -0.746582 -0.361328 0.558350
vn -0.463135 -0.730225 0.501709
vn 0.073975 -0.927734 0.365234
vn -0.444092 -0.719971 0.532959
vn -0.463135 -0.730225 0.501709
vn -0.007813 -0.950928 0.308838
vn 0.073975 -0.927734 0.365234
vn -0.444092 -0.719971 0.532959
vn 0.073975 -0.927734 0.365234
vn 0.096436 -0.915039 0.390869
vn -0.444092 -0.719971 0.532959
vn 0.096436 -0.915039 0.390869
vn -0.388428 -0.668457 0.634033
vn 0.343994 -0.936279 0.069824
vn 0.475586 -0.804932 -0.354492
vn 0.514404 -0.753174 -0.409424
vn 0.277588 -0.953125 0.119385
vn 0.475586 -0.804932 -0.354492
vn 0.343994 -0.936279 0.069824
vn 0.434082 -0.893311 0.114014
vn 0.514404 -0.753174 -0.409424
vn 0.623779 -0.683594 -0.378662
vn 0.343994 -0.936279 0.069824
vn 0.514404 -0.753174 -0.409424
vn 0.434082 -0.893311 0.114014
vn 0.514404 -0.753174 -0.409424
vn 0.475586 -0.804932 -0.354492
vn 0.538330 -0.406738 -0.737793
vn 0.475586 -0.804932 -0.354492
vn 0.469238 -0.437012 -0.767090
vn 0.538330 -0.406738 -0.737793
vn 0.514404 -0.753174 -0.409424
vn 0.538330 -0.406738 -0.737793
vn 0.552246 -0.422852 -0.718262
vn 0.623779 -0.683594 -0.378662
vn 0.514404 -0.753174 -0.409424
vn 0.552246 -0.422852 -0.718262
vn 0.367188 -0.184814 -0.911377
vn -0.122314 -0.063965 -0.990234
vn -0.094971 -0.018555 -0.995117
vn 0.262451 -0.276855 -0.924072
vn -0.122314 -0.063965 -0.990234
vn 0.367188 -0.184814 -0.911377
vn 0.386719 -0.191895 -0.901855
vn -0.094971 -0.018555 -0.995117
vn -0.030029 0.091797 -0.995117
vn 0.367188 -0.184814 -0.911377
vn -0.094971 -0.018555 -0.995117
vn 0.386719 -0.191895 -0.901855
vn -0.094971 -0.018555 -0.995117
vn -0.122314 -0.063965 -0.990234
vn -0.547363 0.158936 -0.821533
vn -0.122314 -0.063965 -0.990234
vn -0.594727 0.020752 -0.803467
vn -0.547363 0.158936 -0.821533
vn -0.094971 -0.018555 -0.995117
vn -0.547363 0.158936 -0.821533
vn -0.509521 0.260986 -0.819580
vn -0.030029 0.091797 -0.995117
vn -0.094971 -0.018555 -0.995117
vn -0.509521 0.260986 -0.819580
vn -0.996094 -0.085205 -0.018066
vn -0.913086 -0.166260 0.371582
vn -0.999268 -0.026611 -0.021973
vn -0.996094 -0.085205 -0.018066
vn -0.916748 -0.317627 0.241943
vn -0.913086 -0.166260 0.371582
vn -0.999268 -0.026611 -0.021973
vn -0.913086 -0.166260 0.371582
vn -0.906006 -0.169922 0.387207
vn -0.999268 -0.026611 -0.021973
vn -0.906006 -0.169922 0.387207
vn -0.995850 0.086670 0.017822
vn -0.996094 -0.085205 -0.018066
vn -0.999268 -0.026611 -0.021973
vn -0.878174 0.150635 -0.453613
vn -0.895020 -0.039307 -0.443848
vn -0.996094 -0.085205 -0.018066
vn -0.878174 0.150635 -0.453613
vn -0.999268 -0.026611 -0.021973
vn -0.995850 0.086670 0.017822
vn -0.867432 0.193359 -0.457764
vn -0.878174 0.150635 -0.453613
vn -0.999268 -0.026611 -0.021973
vn -0.867432 0.193359 -0.457764
vn -0.456299 -0.771484 -0.443115
vn -0.311035 -0.856934 -0.410889
vn -0.507568 -0.696045 -0.507568
vn -0.311035 -0.856934 -0.410889
vn -0.455811 -0.828857 -0.323730
vn -0.507568 -0.696045 -0.507568
vn -0.455811 -0.828857 -0.323730
vn -0.455078 -0.771729 -0.443604
vn -0.507568 -0.696045 -0.507568
vn -0.504639 -0.763428 -0.402588
vn -0.562988 -0.701904 -0.436035
vn -0.396240 -0.827148 -0.397705
vn -0.562988 -0.701904 -0.436035
vn -0.472412 -0.674072 -0.567627
vn -0.396240 -0.827148 -0.397705
vn -0.472412 -0.674072 -0.567627
vn -0.416504 -0.762695 -0.494141
vn -0.396240 -0.827148 -0.397705
vn -0.504639 -0.763428 -0.402588
vn -0.396240 -0.827148 -0.397705
vn -0.457764 -0.765869 -0.451172
vn -0.396240 -0.827148 -0.397705
vn -0.416504 -0.762695 -0.494141
vn -0.457764 -0.765869 -0.451172
vn -0.455078 -0.771729 -0.443604
vn -0.504639 -0.763428 -0.402588
vn -0.457764 -0.765869 -0.451172
vn -0.507568 -0.696045 -0.507568
vn -0.455078 -0.771729 -0.443604
vn -0.457764 -0.765869 -0.451172
vn -0.416504 -0.762695 -0.494141
vn -0.456299 -0.771484 -0.443115
vn -0.457764 -0.765869 -0.451172
vn -0.456299 -0.771484 -0.443115
vn -0.507568 -0.696045 -0.507568
vn -0.457764 -0.765869 -0.451172
usemtl Texture
f 1/1/1 2/2/2 3/3/3
f 4/4/4 5/5/5 6/6/6
f 7/7/7 8/8/8 9/9/9
f 10/10/10 11/11/11 12/12/12
f 13/13/13 14/14/14 15/15/15
f 16/16/16 17/17/17 18/18/18
f 19/19/19 20/20/20 21/21/21
f 22/22/22 23/23/23 24/24/24
f 25/25/25 26/26/26 27/27/27
f 28/28/28 29/29/29 30/30/30
f 31/31/31 32/32/32 33/33/33
f 34/34/34 35/35/35 36/36/36
f 37/37/37 38/38/38 39/39/39
f 40/40/40 41/41/41 42/42/42
f 43/43/43 44/44/44 45/45/45
f 46/46/46 47/47/47 48/48/48
f 49/49/49 50/50/50 51/51/51
f 52/52/52 53/53/53 54/54/54
f 55/55/55 56/56/56 57/57/57
f 58/58/58 59/59/59 60/60/60
f 61/61/61 62/62/62 63/63/63
f 64/64/64 65/65/65 66/66/66
f 67/67/67 68/68/68 69/69/69
f 70/70/70 71/71/71 72/72/72
f 73/73/73 74/74/74 75/75/75
f 76/76/76 77/77/77 78/78/78
f 79/79/79 80/80/80 81/81/81
f 82/82/82 83/83/83 84/84/84
f 85/85/85 86/86/86 87/87/87
f 88/88/88 89/89/89 90/90/90
f 91/91/91 92/92/92 93/93/93
f 94/94/94 95/95/95 96/96/96
f 97/97/97 98/98/98 99/99/99
f 100/100/100 101/101/101 102/102/102
f 103/103/103 104/104/104 105/105/105
f 106/106/106 107/107/107 108/108/108
f 109/109/109 110/110/110 111/111/111
f 112/112/112 113/113/113 114/114/114
f 115/115/115 116/116/116 117/117/117
f 118/118/118 119/119/119 120/120/120
f 121/121/121 122/122/122 123/123/123
f 124/124/124 125/125/125 126/126/126
f 127/127/127 128/128/128 129/129/129
f 130/130/130 131/131/131 132/132/132
f 133/133/133 134/134/134 135/135/135
f 136/136/136 137/137/137 138/138/138
f 139/139/139 140/140/140 141/141/141
f 142/142/142 143/143/143 144/144/144
f 145/145/145 146/146/146 147/147/147
f 148/148/148 149/149/149 150/150/150
f 151/151/151 152/152/152 153/153/153
f 154/154/154 155/155/155 156/156/156
f 157/157/157 158/158/158 159/159/159
f 160/160/160 161/161/161 162/162/162
f 163/163/163 164/164/164 165/165/165
f 166/166/166 167/167/167 168/168/168
f 169/169/169 170/170/170 171/171/171
f 172/172/172 173/173/173 174/174/174
f 175/175/175 176/176/176 177/177/177
f 178/178/178 179/179/179 180/180/180
f 181/181/181 182/182/182 183/183/183
f 184/184/184 185/185/185 186/186/186
f 187/187/187 188/188/188 189/189/189
f 190/190/190 191/191/191 192/192/192
f 193/193/193 194/194/194 195/195/195
f 196/196/196 197/197/197 198/198/198
f 199/199/199 200/200/200 201/201/201
f 202/202/202 203/203/203 204/204/204
f 205/205/205 206/206/206 207/207/207
f 208/208/208 209/209/209 210/210/210
f 211/211/211 212/212/212 213/213/213
f 214/214/214 215/215/215 216/216/216
f 217/217/217 218/218/218 219/219/219
f 220/220/220 221/221/221 222/222/222
f 223/223/223 224/224/224 225/225/225
f 226/226/226 227/227/227 228/228/228
f 229/229/229 230/230/230 231/231/231
f 232/232/232 233/233/233 234/234/234
f 235/235/235 236/236/236 237/237/237
f 238/238/238 239/239/239 240/240/240
f 241/241/241 242/242/242 243/243/243
f 244/244/244 245/245/245 246/246/246
f 247/247/247 248/248/248 249/249/249
f 250/250/250 251/251/251 252/252/252
f 253/253/253 254/254/254 255/255/255
f 256/256/256 257/257/257 258/258/258
f 259/259/259 260/260/260 261/261/261
f 262/262/262 263/263/263 264/264/264
f 265/265/265 266/266/266 267/267/267
f 268/268/268 269/269/269 270/270/270
f 271/271/271 272/272/272 273/273/273
f 274/274/274 275/275/275 276/276/276
f 277/277/277 278/278/278 279/279/279
f 280/280/280 281/281/281 282/282/282
f 283/283/283 284/284/284 285/285/285
f 286/286/286 287/287/287 288/288/288
f 289/289/289 290/290/290 291/291/291
f 292/292/292 293/293/293 294/294/294
f 295/295/295 296/296/296 297/297/297
f 298/298/298 299/299/299 300/300/300
f 301/301/301 302/302/302 303/303/303
f 304/304/304 305/305/305 306/306/306
f 307/307/307 308/308/308 309/309/309
f 310/310/310 311/311/311 312/312/312
f 313/313/313 314/314/314 315/315/315
f 316/316/316 317/317/317 318/318/318
f 319/319/319 320/320/320 321/321/321
f 322/322/322 323/323/323 324/324/324
f 325/325/325 326/326/326 327/327/327
f 328/328/328 329/329/329 330/330/330
f 331/331/331 332/332/332 333/333/333
f 334/334/334 335/335/335 336/336/336
f 337/337/337 338/338/338 339/339/339
f 340/340/340 341/341/341 342/342/342
f 343/343/343 344/344/344 345/345/345
f 346/346/346 347/347/347 348/348/348
f 349/349/349 350/350/350 351/351/351
f 352/352/352 353/353/353 354/354/354
f 355/355/355 356/356/356 357/357/357
f 358/358/358 359/359/359 360/360/360
f 361/361/361 362/362/362 363/363/363
f 364/364/364 365/365/365 366/366/366
f 367/367/367 368/368/368 369/369/369
f 370/370/370 371/371/371 372/372/372
f 373/373/373 374/374/374 375/375/375
f 376/376/376 377/377/377 378/378/378
f 379/379/379 380/380/380 381/381/381
f 382/382/382 383/383/383 384/384/384
f 385/385/385 386/386/386 387/387/387
f 388/388/388 389/389/389 390/390/390
f 391/391/391 392/392/392 393/393/393
f 394/394/394 395/395/395 396/396/396
f 397/397/397 398/398/398 399/399/399
f 400/400/400 401/401/401 402/402/402
f 403/403/403 404/404/404 405/405/405
f 406/406/406 407/407/407 408/408/408
f 409/409/409 410/410/410 411/411/411
f 412/412/412 413/413/413 414/414/414
f 415/415/415 416/416/416 417/417/417
f 418/418/418 419/419/419 420/420/420
f 421/421/421 422/422/422 423/423/423
f 424/424/424 425/425/425 426/426/426
f 427/427/427 428/428/428 429/429/429
f 430/430/430 431/431/431 432/432/432
f 433/433/433 434/434/434 435/435/435
f 436/436/436 437/437/437 438/438/438
f 439/439/439 440/440/440 441/441/441
f 442/442/442 443/443/443 444/444/444
f 445/445/445 446/446/446 447/447/447
f 448/448/448 449/449/449 450/450/450
f 451/451/451 452/452/452 453/453/453
f 454/454/454 455/455/455 456/456/456
f 457/457/457 458/458/458 459/459/459
f 460/460/460 461/461/461 462/462/462
f 463/463/463 464/464/464 465/465/465
f 466/466/466 467/467/467 468/468/468
f 469/469/469 470/470/470 471/471/471
f 472/472/472 473/473/473 474/474/474
f 475/475/475 476/476/476 477/477/477
f 478/478/478 479/479/479 480/480/480
f 481/481/481 482/482/482 483/483/483
f 484/484/484 485/485/485 486/486/486
f 487/487/487 488/488/488 489/489/489
f 490/490/490 491/491/491 492/492/492
f 493/493/493 494/494/494 495/495/495
f 496/496/496 497/497/497 498/498/498
f 499/499/499 500/500/500 501/501/501
f 502/502/502 503/503/503 504/504/504
f 505/505/505 506/506/506 507/507/507
f 508/508/508 509/509/509 510/510/510