# OBJ file
mtllib icon1.ico.mtl
v -0.440674 0.159912 0.040039 1.000000 1.000000 1.000000 #0.501961
v 0.057617 0.229004 0.040039 1.000000 1.000000 1.000000 #0.501961
v -0.782959 2.030518 0.040039 1.000000 1.000000 1.000000 #0.501961
v 0.057617 0.229004 0.040039 1.000000 1.000000 1.000000 #0.501961
v 0.389893 2.102539 0.040039 1.000000 1.000000 1.000000 #0.501961
v -0.782959 2.030518 0.040039 1.000000 1.000000 1.000000 #0.501961
v 0.389893 2.102539 0.040039 1.000000 1.000000 1.000000 #0.501961
v 0.033936 2.927246 0.040039 1.000000 1.000000 1.000000 #0.501961
v -0.782959 2.030518 0.040039 1.000000 1.000000 1.000000 #0.501961
v -0.782959 2.030518 0.040039 1.000000 1.000000 1.000000 #0.501961
v 0.033936 2.927246 0.040039 1.000000 1.000000 1.000000 #0.501961
v -0.705566 2.406494 0.040039 1.000000 1.000000 1.000000 #0.501961
v -0.705566 2.406494 0.040039 1.000000 1.000000 1.000000 #0.501961
v 0.033936 2.927246 0.040039 1.000000 1.000000 1.000000 #0.501961
v -0.337891 2.864014 0.040039 1.000000 1.000000 1.000000 #0.501961
v -0.440674 0.159912 -0.040039 1.000000 1.000000 1.000000 #0.501961
v -0.782959 2.030518 -0.040039 1.000000 1.000000 1.000000 #0.501961
v 0.057617 0.229004 -0.040039 1.000000 1.000000 1.000000 #0.501961
v 0.057617 0.229004 -0.040039 1.000000 1.000000 1.000000 #0.501961
v -0.782959 2.030518 -0.040039 1.000000 1.000000 1.000000 #0.501961
v 0.389893 2.102539 -0.040039 1.000000 1.000000 1.000000 #0.501961
v 0.389893 2.102539 -0.040039 1.000000 1.000000 1.000000 #0.501961
v -0.782959 2.030518 -0.040039 1.000000 1.000000 1.000000 #0.501961
v 0.033936 2.927246 -0.040039 1.000000 1.000000 1.000000 #0.501961
v -0.782959 2.030518 -0.040039 1.000000 1.000000 1.000000 #0.501961
v -0.705566 2.406494 -0.040039 1.000000 1.000000 1.000000 #0.501961
v 0.033936 2.927246 -0.040039 1.000000 1.000000 1.000000 #0.501961
v -0.705566 2.406494 -0.040039 1.000000 1.000000 1.000000 #0.501961
v -0.337891 2.864014 -0.040039 1.000000 1.000000 1.000000 #0.501961
v 0.033936 2.927246 -0.040039 1.000000 1.000000 1.000000 #0.501961
v -0.705566 2.406494 -0.040039 1.000000 1.000000 1.000000 #0.501961
v -0.705566 2.406494 0.040039 1.000000 1.000000 1.000000 #0.501961
v -0.337891 2.864014 -0.040039 1.000000 1.000000 1.000000 #0.501961
v -0.337891 2.864014 -0.040039 1.000000 1.000000 1.000000 #0.501961
v -0.705566 2.406494 0.040039 1.000000 1.000000 1.000000 #0.501961
v -0.337891 2.864014 0.040039 1.000000 1.000000 1.000000 #0.501961
v -0.337891 2.864014 -0.040039 1.000000 1.000000 1.000000 #0.501961
v -0.337891 2.864014 0.040039 1.000000 1.000000 1.000000 #0.501961
v 0.033936 2.927246 -0.040039 1.000000 1.000000 1.000000 #0.501961
v 0.033936 2.927246 -0.040039 1.000000 1.000000 1.000000 #0.501961
v -0.337891 2.864014 0.040039 1.000000 1.000000 1.000000 #0.501961
v 0.033936 2.927246 0.040039 1.000000 1.000000 1.000000 #0.501961
v 0.033936 2.927246 -0.040039 1.000000 1.000000 1.000000 #0.501961
v 0.033936 2.927246 0.040039 1.000000 1.000000 1.000000 #0.501961
v 0.389893 2.102539 -0.040039 1.000000 1.000000 1.000000 #0.501961
v 0.389893 2.102539 -0.040039 1.000000 1.000000 1.000000 #0.501961
v 0.033936 2.927246 0.040039 1.000000 1.000000 1.000000 #0.501961
v 0.389893 2.102539 0.040039 1.000000 1.000000 1.000000 #0.501961
v 0.057617 0.229004 -0.040039 1.000000 1.000000 1.000000 #0.501961
v 0.057617 0.229004 0.040039 1.000000 1.000000 1.000000 #0.501961
v -0.440674 0.159912 -0.040039 1.000000 1.000000 1.000000 #0.501961
v -0.440674 0.159912 -0.040039 1.000000 1.000000 1.000000 #0.501961
v 0.057617 0.229004 0.040039 1.000000 1.000000 1.000000 #0.501961
v -0.440674 0.159912 0.040039 1.000000 1.000000 1.000000 #0.501961
v -0.782959 2.030518 -0.040039 1.000000 1.000000 1.000000 #0.501961
v -0.782959 2.030518 0.040039 1.000000 1.000000 1.000000 #0.501961
v -0.705566 2.406494 -0.040039 1.000000 1.000000 1.000000 #0.501961
v -0.705566 2.406494 -0.040039 1.000000 1.000000 1.000000 #0.501961
v -0.782959 2.030518 0.040039 1.000000 1.000000 1.000000 #0.501961
v -0.705566 2.406494 0.040039 1.000000 1.000000 1.000000 #0.501961
v -0.175537 3.936768 0.040039 1.000000 1.000000 1.000000 #0.501961
v 0.177734 3.518799 0.040039 1.000000 1.000000 1.000000 #0.501961
v 0.420654 4.503174 0.040039 1.000000 1.000000 1.000000 #0.501961
v 0.177734 3.518799 0.040039 1.000000 1.000000 1.000000 #0.501961
v 0.842773 3.951660 0.040039 1.000000 1.000000 1.000000 #0.501961
v 0.420654 4.503174 0.040039 1.000000 1.000000 1.000000 #0.501961
v 0.842773 3.951660 0.040039 1.000000 1.000000 1.000000 #0.501961
v 0.982910 4.259277 0.040039 1.000000 1.000000 1.000000 #0.501961
v 0.420654 4.503174 0.040039 1.000000 1.000000 1.000000 #0.501961
v 0.420654 4.503174 0.040039 1.000000 1.000000 1.000000 #0.501961
v 0.982910 4.259277 0.040039 1.000000 1.000000 1.000000 #0.501961
v 0.869141 4.558105 0.040039 1.000000 1.000000 1.000000 #0.501961
v -0.175537 3.936768 -0.040039 1.000000 1.000000 1.000000 #0.501961
v 0.420654 4.503174 -0.040039 1.000000 1.000000 1.000000 #0.501961
v 0.177734 3.518799 -0.040039 1.000000 1.000000 1.000000 #0.501961
v 0.177734 3.518799 -0.040039 1.000000 1.000000 1.000000 #0.501961
v 0.420654 4.503174 -0.040039 1.000000 1.000000 1.000000 #0.501961
v 0.842773 3.951660 -0.040039 1.000000 1.000000 1.000000 #0.501961
v 0.842773 3.951660 -0.040039 1.000000 1.000000 1.000000 #0.501961
v 0.420654 4.503174 -0.040039 1.000000 1.000000 1.000000 #0.501961
v 0.982910 4.259277 -0.040039 1.000000 1.000000 1.000000 #0.501961
v 0.982910 4.259277 -0.040039 1.000000 1.000000 1.000000 #0.501961
v 0.420654 4.503174 -0.040039 1.000000 1.000000 1.000000 #0.501961
v 0.869141 4.558105 -0.040039 1.000000 1.000000 1.000000 #0.501961
v -0.175537 3.936768 -0.040039 1.000000 1.000000 1.000000 #0.501961
v -0.175537 3.936768 0.040039 1.000000 1.000000 1.000000 #0.501961
v 0.420654 4.503174 -0.040039 1.000000 1.000000 1.000000 #0.501961
v 0.420654 4.503174 -0.040039 1.000000 1.000000 1.000000 #0.501961
v -0.175537 3.936768 0.040039 1.000000 1.000000 1.000000 #0.501961
v 0.420654 4.503174 0.040039 1.000000 1.000000 1.000000 #0.501961
v 0.420654 4.503174 -0.040039 1.000000 1.000000 1.000000 #0.501961
v 0.420654 4.503174 0.040039 1.000000 1.000000 1.000000 #0.501961
v 0.869141 4.558105 -0.040039 1.000000 1.000000 1.000000 #0.501961
v 0.869141 4.558105 -0.040039 1.000000 1.000000 1.000000 #0.501961
v 0.420654 4.503174 0.040039 1.000000 1.000000 1.000000 #0.501961
v 0.869141 4.558105 0.040039 1.000000 1.000000 1.000000 #0.501961
v 0.869141 4.558105 -0.040039 1.000000 1.000000 1.000000 #0.501961
v 0.869141 4.558105 0.040039 1.000000 1.000000 1.000000 #0.501961
v 0.982910 4.259277 -0.040039 1.000000 1.000000 1.000000 #0.501961
v 0.982910 4.259277 -0.040039 1.000000 1.000000 1.000000 #0.501961
v 0.869141 4.558105 0.040039 1.000000 1.000000 1.000000 #0.501961
v 0.982910 4.259277 0.040039 1.000000 1.000000 1.000000 #0.501961
v 0.982910 4.259277 -0.040039 1.000000 1.000000 1.000000 #0.501961
v 0.982910 4.259277 0.040039 1.000000 1.000000 1.000000 #0.501961
v 0.842773 3.951660 -0.040039 1.000000 1.000000 1.000000 #0.501961
v 0.842773 3.951660 -0.040039 1.000000 1.000000 1.000000 #0.501961
v 0.982910 4.259277 0.040039 1.000000 1.000000 1.000000 #0.501961
v 0.842773 3.951660 0.040039 1.000000 1.000000 1.000000 #0.501961
v 0.842773 3.951660 0.040039 1.000000 1.000000 1.000000 #0.501961
v 0.177734 3.518799 0.040039 1.000000 1.000000 1.000000 #0.501961
v 0.842773 3.951660 -0.040039 1.000000 1.000000 1.000000 #0.501961
v 0.842773 3.951660 -0.040039 1.000000 1.000000 1.000000 #0.501961
v 0.177734 3.518799 0.040039 1.000000 1.000000 1.000000 #0.501961
v 0.177734 3.518799 -0.040039 1.000000 1.000000 1.000000 #0.501961
v 0.177734 3.518799 -0.040039 1.000000 1.000000 1.000000 #0.501961
v 0.177734 3.518799 0.040039 1.000000 1.000000 1.000000 #0.501961
v -0.175537 3.936768 -0.040039 1.000000 1.000000 1.000000 #0.501961
v -0.175537 3.936768 -0.040039 1.000000 1.000000 1.000000 #0.501961
v 0.177734 3.518799 0.040039 1.000000 1.000000 1.000000 #0.501961
v -0.175537 3.936768 0.040039 1.000000 1.000000 1.000000 #0.501961
v 0.458252 3.495117 0.040039 1.000000 1.000000 1.000000 #0.501961
v 0.397949 3.298828 0.040039 1.000000 1.000000 1.000000 #0.501961
v 0.960693 3.340332 0.040039 1.000000 1.000000 1.000000 #0.501961
v 0.397949 3.298828 0.040039 1.000000 1.000000 1.000000 #0.501961
v 0.907471 3.005859 0.040039 1.000000 1.000000 1.000000 #0.501961
v 0.960693 3.340332 0.040039 1.000000 1.000000 1.000000 #0.501961
v 0.960693 3.340332 0.040039 1.000000 1.000000 1.000000 #0.501961
v 0.907471 3.005859 0.040039 1.000000 1.000000 1.000000 #0.501961
v 1.057617 3.246826 0.040039 1.000000 1.000000 1.000000 #0.501961
v 1.084961 3.119141 0.040039 1.000000 1.000000 1.000000 #0.501961
v 1.057617 3.246826 0.040039 1.000000 1.000000 1.000000 #0.501961
v 0.907471 3.005859 0.040039 1.000000 1.000000 1.000000 #0.501961
v 0.458252 3.495117 -0.040039 1.000000 1.000000 1.000000 #0.501961
v 0.960693 3.340332 -0.040039 1.000000 1.000000 1.000000 #0.501961
v 0.397949 3.298828 -0.040039 1.000000 1.000000 1.000000 #0.501961
v 0.397949 3.298828 -0.040039 1.000000 1.000000 1.000000 #0.501961
v 0.960693 3.340332 -0.040039 1.000000 1.000000 1.000000 #0.501961
v 0.907471 3.005859 -0.040039 1.000000 1.000000 1.000000 #0.501961
v 0.960693 3.340332 -0.040039 1.000000 1.000000 1.000000 #0.501961
v 1.057617 3.246826 -0.040039 1.000000 1.000000 1.000000 #0.501961
v 0.907471 3.005859 -0.040039 1.000000 1.000000 1.000000 #0.501961
v 1.084961 3.119141 -0.040039 1.000000 1.000000 1.000000 #0.501961
v 0.907471 3.005859 -0.040039 1.000000 1.000000 1.000000 #0.501961
v 1.057617 3.246826 -0.040039 1.000000 1.000000 1.000000 #0.501961
v 1.084961 3.119141 -0.040039 1.000000 1.000000 1.000000 #0.501961
v 1.084961 3.119141 0.040039 1.000000 1.000000 1.000000 #0.501961
v 0.907471 3.005859 -0.040039 1.000000 1.000000 1.000000 #0.501961
v 0.907471 3.005859 -0.040039 1.000000 1.000000 1.000000 #0.501961
v 1.084961 3.119141 0.040039 1.000000 1.000000 1.000000 #0.501961
v 0.907471 3.005859 0.040039 1.000000 1.000000 1.000000 #0.501961
v 0.397949 3.298828 -0.040039 1.000000 1.000000 1.000000 #0.501961
v 0.397949 3.298828 0.040039 1.000000 1.000000 1.000000 #0.501961
v 0.458252 3.495117 -0.040039 1.000000 1.000000 1.000000 #0.501961
v 0.458252 3.495117 -0.040039 1.000000 1.000000 1.000000 #0.501961
v 0.397949 3.298828 0.040039 1.000000 1.000000 1.000000 #0.501961
v 0.458252 3.495117 0.040039 1.000000 1.000000 1.000000 #0.501961
v 0.458252 3.495117 -0.040039 1.000000 1.000000 1.000000 #0.501961
v 0.458252 3.495117 0.040039 1.000000 1.000000 1.000000 #0.501961
v 0.960693 3.340332 -0.040039 1.000000 1.000000 1.000000 #0.501961
v 0.960693 3.340332 -0.040039 1.000000 1.000000 1.000000 #0.501961
v 0.458252 3.495117 0.040039 1.000000 1.000000 1.000000 #0.501961
v 0.960693 3.340332 0.040039 1.000000 1.000000 1.000000 #0.501961
v 0.960693 3.340332 -0.040039 1.000000 1.000000 1.000000 #0.501961
v 0.960693 3.340332 0.040039 1.000000 1.000000 1.000000 #0.501961
v 1.057617 3.246826 -0.040039 1.000000 1.000000 1.000000 #0.501961
v 1.057617 3.246826 -0.040039 1.000000 1.000000 1.000000 #0.501961
v 0.960693 3.340332 0.040039 1.000000 1.000000 1.000000 #0.501961
v 1.057617 3.246826 0.040039 1.000000 1.000000 1.000000 #0.501961
v 1.057617 3.246826 -0.040039 1.000000 1.000000 1.000000 #0.501961
v 1.057617 3.246826 0.040039 1.000000 1.000000 1.000000 #0.501961
v 1.084961 3.119141 -0.040039 1.000000 1.000000 1.000000 #0.501961
v 1.084961 3.119141 -0.040039 1.000000 1.000000 1.000000 #0.501961
v 1.057617 3.246826 0.040039 1.000000 1.000000 1.000000 #0.501961
v 1.084961 3.119141 0.040039 1.000000 1.000000 1.000000 #0.501961
v 1.389648 1.732422 0.040039 1.000000 1.000000 1.000000 #0.501961
v 1.581299 2.043457 0.040039 1.000000 1.000000 1.000000 #0.501961
v 0.431396 2.190430 0.040039 1.000000 1.000000 1.000000 #0.501961
v 1.581299 2.043457 0.040039 1.000000 1.000000 1.000000 #0.501961
v 0.819580 2.939941 0.040039 1.000000 1.000000 1.000000 #0.501961
v 0.431396 2.190430 0.040039 1.000000 1.000000 1.000000 #0.501961
v 0.819580 2.939941 0.040039 1.000000 1.000000 1.000000 #0.501961
v 0.327637 3.228516 0.040039 1.000000 1.000000 1.000000 #0.501961
v 0.431396 2.190430 0.040039 1.000000 1.000000 1.000000 #0.501961
v 0.091309 2.987549 0.040039 1.000000 1.000000 1.000000 #0.501961
v 0.431396 2.190430 0.040039 1.000000 1.000000 1.000000 #0.501961
v 0.327637 3.228516 0.040039 1.000000 1.000000 1.000000 #0.501961
v 1.389648 1.732422 -0.040039 1.000000 1.000000 1.000000 #0.501961
v 0.431396 2.190430 -0.040039 1.000000 1.000000 1.000000 #0.501961
v 1.581299 2.043457 -0.040039 1.000000 1.000000 1.000000 #0.501961
v 1.581299 2.043457 -0.040039 1.000000 1.000000 1.000000 #0.501961
v 0.431396 2.190430 -0.040039 1.000000 1.000000 1.000000 #0.501961
v 0.819580 2.939941 -0.040039 1.000000 1.000000 1.000000 #0.501961
v 0.819580 2.939941 -0.040039 1.000000 1.000000 1.000000 #0.501961
v 0.431396 2.190430 -0.040039 1.000000 1.000000 1.000000 #0.501961
v 0.327637 3.228516 -0.040039 1.000000 1.000000 1.000000 #0.501961
v 0.091309 2.987549 -0.040039 1.000000 1.000000 1.000000 #0.501961
v 0.327637 3.228516 -0.040039 1.000000 1.000000 1.000000 #0.501961
v 0.431396 2.190430 -0.040039 1.000000 1.000000 1.000000 #0.501961
v 0.091309 2.987549 -0.040039 1.000000 1.000000 1.000000 #0.501961
v 0.091309 2.987549 0.040039 1.000000 1.000000 1.000000 #0.501961
v 0.327637 3.228516 -0.040039 1.000000 1.000000 1.000000 #0.501961
v 0.327637 3.228516 -0.040039 1.000000 1.000000 1.000000 #0.501961
v 0.091309 2.987549 0.040039 1.000000 1.000000 1.000000 #0.501961
v 0.327637 3.228516 0.040039 1.000000 1.000000 1.000000 #0.501961
v 0.327637 3.228516 -0.040039 1.000000 1.000000 1.000000 #0.501961
v 0.327637 3.228516 0.040039 1.000000 1.000000 1.000000 #0.501961
v 0.819580 2.939941 -0.040039 1.000000 1.000000 1.000000 #0.501961
v 0.819580 2.939941 -0.040039 1.000000 1.000000 1.000000 #0.501961
v 0.327637 3.228516 0.040039 1.000000 1.000000 1.000000 #0.501961
v 0.819580 2.939941 0.040039 1.000000 1.000000 1.000000 #0.501961
v 0.819580 2.939941 -0.040039 1.000000 1.000000 1.000000 #0.501961
v 0.819580 2.939941 0.040039 1.000000 1.000000 1.000000 #0.501961
v 1.581299 2.043457 -0.040039 1.000000 1.000000 1.000000 #0.501961
v 1.581299 2.043457 -0.040039 1.000000 1.000000 1.000000 #0.501961
v 0.819580 2.939941 0.040039 1.000000 1.000000 1.000000 #0.501961
v 1.581299 2.043457 0.040039 1.000000 1.000000 1.000000 #0.501961
v 1.581299 2.043457 -0.040039 1.000000 1.000000 1.000000 #0.501961
v 1.581299 2.043457 0.040039 1.000000 1.000000 1.000000 #0.501961
v 1.389648 1.732422 -0.040039 1.000000 1.000000 1.000000 #0.501961
v 1.389648 1.732422 -0.040039 1.000000 1.000000 1.000000 #0.501961
v 1.581299 2.043457 0.040039 1.000000 1.000000 1.000000 #0.501961
v 1.389648 1.732422 0.040039 1.000000 1.000000 1.000000 #0.501961
v 1.389648 1.732422 -0.040039 1.000000 1.000000 1.000000 #0.501961
v 1.389648 1.732422 0.040039 1.000000 1.000000 1.000000 #0.501961
v 0.431396 2.190430 -0.040039 1.000000 1.000000 1.000000 #0.501961
v 0.431396 2.190430 -0.040039 1.000000 1.000000 1.000000 #0.501961
v 1.389648 1.732422 0.040039 1.000000 1.000000 1.000000 #0.501961
v 0.431396 2.190430 0.040039 1.000000 1.000000 1.000000 #0.501961
v 0.431396 2.190430 -0.040039 1.000000 1.000000 1.000000 #0.501961
v 0.431396 2.190430 0.040039 1.000000 1.000000 1.000000 #0.501961
v 0.091309 2.987549 -0.040039 1.000000 1.000000 1.000000 #0.501961
v 0.091309 2.987549 -0.040039 1.000000 1.000000 1.000000 #0.501961
v 0.431396 2.190430 0.040039 1.000000 1.000000 1.000000 #0.501961
v 0.091309 2.987549 0.040039 1.000000 1.000000 1.000000 #0.501961
v 1.487549 4.682617 0.040039 1.000000 1.000000 1.000000 #0.501961
v 1.353516 4.830078 0.040039 1.000000 1.000000 1.000000 #0.501961
v 1.212402 4.351807 0.040039 1.000000 1.000000 1.000000 #0.501961
v 1.353516 4.830078 0.040039 1.000000 1.000000 1.000000 #0.501961
v 1.074463 4.771240 0.040039 1.000000 1.000000 1.000000 #0.501961
v 1.212402 4.351807 0.040039 1.000000 1.000000 1.000000 #0.501961
v 1.074463 4.771240 0.040039 1.000000 1.000000 1.000000 #0.501961
v 0.923584 4.563232 0.040039 1.000000 1.000000 1.000000 #0.501961
v 1.212402 4.351807 0.040039 1.000000 1.000000 1.000000 #0.501961
v 0.923584 4.563232 0.040039 1.000000 1.000000 1.000000 #0.501961
v 1.031738 4.306641 0.040039 1.000000 1.000000 1.000000 #0.501961
v 1.212402 4.351807 0.040039 1.000000 1.000000 1.000000 #0.501961
v 1.031738 4.306641 -0.040039 1.000000 1.000000 1.000000 #0.501961
v 0.923584 4.563232 -0.040039 1.000000 1.000000 1.000000 #0.501961
v 1.212402 4.351807 -0.040039 1.000000 1.000000 1.000000 #0.501961
v 0.923584 4.563232 -0.040039 1.000000 1.000000 1.000000 #0.501961
v 1.074463 4.771240 -0.040039 1.000000 1.000000 1.000000 #0.501961
v 1.212402 4.351807 -0.040039 1.000000 1.000000 1.000000 #0.501961
v 1.074463 4.771240 -0.040039 1.000000 1.000000 1.000000 #0.501961
v 1.353516 4.830078 -0.040039 1.000000 1.000000 1.000000 #0.501961
v 1.212402 4.351807 -0.040039 1.000000 1.000000 1.000000 #0.501961
v 1.212402 4.351807 -0.040039 1.000000 1.000000 1.000000 #0.501961
v 1.353516 4.830078 -0.040039 1.000000 1.000000 1.000000 #0.501961
v 1.487549 4.682617 -0.040039 1.000000 1.000000 1.000000 #0.501961
v 0.923584 4.563232 -0.040039 1.000000 1.000000 1.000000 #0.501961
v 0.923584 4.563232 0.040039 1.000000 1.000000 1.000000 #0.501961
v 1.074463 4.771240 -0.040039 1.000000 1.000000 1.000000 #0.501961
v 1.074463 4.771240 -0.040039 1.000000 1.000000 1.000000 #0.501961
v 0.923584 4.563232 0.040039 1.000000 1.000000 1.000000 #0.501961
v 1.074463 4.771240 0.040039 1.000000 1.000000 1.000000 #0.501961
v 1.074463 4.771240 -0.040039 1.000000 1.000000 1.000000 #0.501961
v 1.074463 4.771240 0.040039 1.000000 1.000000 1.000000 #0.501961
v 1.353516 4.830078 -0.040039 1.000000 1.000000 1.000000 #0.501961
v 1.353516 4.830078 -0.040039 1.000000 1.000000 1.000000 #0.501961
v 1.074463 4.771240 0.040039 1.000000 1.000000 1.000000 #0.501961
v 1.353516 4.830078 0.040039 1.000000 1.000000 1.000000 #0.501961
v 1.353516 4.830078 -0.040039 1.000000 1.000000 1.000000 #0.501961
v 1.353516 4.830078 0.040039 1.000000 1.000000 1.000000 #0.501961
v 1.487549 4.682617 -0.040039 1.000000 1.000000 1.000000 #0.501961
v 1.487549 4.682617 -0.040039 1.000000 1.000000 1.000000 #0.501961
v 1.353516 4.830078 0.040039 1.000000 1.000000 1.000000 #0.501961
v 1.487549 4.682617 0.040039 1.000000 1.000000 1.000000 #0.501961
v 1.487549 4.682617 -0.040039 1.000000 1.000000 1.000000 #0.501961
v 1.487549 4.682617 0.040039 1.000000 1.000000 1.000000 #0.501961
v 1.212402 4.351807 -0.040039 1.000000 1.000000 1.000000 #0.501961
v 1.212402 4.351807 -0.040039 1.000000 1.000000 1.000000 #0.501961
v 1.487549 4.682617 0.040039 1.000000 1.000000 1.000000 #0.501961
v 1.212402 4.351807 0.040039 1.000000 1.000000 1.000000 #0.501961
v 1.212402 4.351807 -0.040039 1.000000 1.000000 1.000000 #0.501961
v 1.212402 4.351807 0.040039 1.000000 1.000000 1.000000 #0.501961
v 1.031738 4.306641 -0.040039 1.000000 1.000000 1.000000 #0.501961
v 1.031738 4.306641 -0.040039 1.000000 1.000000 1.000000 #0.501961
v 1.212402 4.351807 0.040039 1.000000 1.000000 1.000000 #0.501961
v 1.031738 4.306641 0.040039 1.000000 1.000000 1.000000 #0.501961
v 1.031738 4.306641 -0.040039 1.000000 1.000000 1.000000 #0.501961
v 1.031738 4.306641 0.040039 1.000000 1.000000 1.000000 #0.501961
v 0.923584 4.563232 -0.040039 1.000000 1.000000 1.000000 #0.501961
v 0.923584 4.563232 -0.040039 1.000000 1.000000 1.000000 #0.501961
v 1.031738 4.306641 0.040039 1.000000 1.000000 1.000000 #0.501961
v 0.923584 4.563232 0.040039 1.000000 1.000000 1.000000 #0.501961
v 1.186768 3.373779 0.040039 1.000000 1.000000 1.000000 #0.501961
v 1.099854 3.544434 0.040039 1.000000 1.000000 1.000000 #0.501961
v 1.090332 3.299561 0.040039 1.000000 1.000000 1.000000 #0.501961
v 1.090332 3.299561 0.040039 1.000000 1.000000 1.000000 #0.501961
v 1.099854 3.544434 0.040039 1.000000 1.000000 1.000000 #0.501961
v 0.956543 3.406738 0.040039 1.000000 1.000000 1.000000 #0.501961
v 0.992920 3.541504 0.040039 1.000000 1.000000 1.000000 #0.501961
v 0.956543 3.406738 0.040039 1.000000 1.000000 1.000000 #0.501961
v 1.099854 3.544434 0.040039 1.000000 1.000000 1.000000 #0.501961
v 1.186768 3.373779 -0.040039 1.000000 1.000000 1.000000 #0.501961
v 1.090332 3.299561 -0.040039 1.000000 1.000000 1.000000 #0.501961
v 1.099854 3.544434 -0.040039 1.000000 1.000000 1.000000 #0.501961
v 1.090332 3.299561 -0.040039 1.000000 1.000000 1.000000 #0.501961
v 0.956543 3.406738 -0.040039 1.000000 1.000000 1.000000 #0.501961
v 1.099854 3.544434 -0.040039 1.000000 1.000000 1.000000 #0.501961
v 0.992920 3.541504 -0.040039 1.000000 1.000000 1.000000 #0.501961
v 1.099854 3.544434 -0.040039 1.000000 1.000000 1.000000 #0.501961
v 0.956543 3.406738 -0.040039 1.000000 1.000000 1.000000 #0.501961
v 0.992920 3.541504 -0.040039 1.000000 1.000000 1.000000 #0.501961
v 0.992920 3.541504 0.040039 1.000000 1.000000 1.000000 #0.501961
v 1.099854 3.544434 -0.040039 1.000000 1.000000 1.000000 #0.501961
v 1.099854 3.544434 -0.040039 1.000000 1.000000 1.000000 #0.501961
v 0.992920 3.541504 0.040039 1.000000 1.000000 1.000000 #0.501961
v 1.099854 3.544434 0.040039 1.000000 1.000000 1.000000 #0.501961
v 1.099854 3.544434 -0.040039 1.000000 1.000000 1.000000 #0.501961
v 1.099854 3.544434 0.040039 1.000000 1.000000 1.000000 #0.501961
v 1.186768 3.373779 -0.040039 1.000000 1.000000 1.000000 #0.501961
v 1.186768 3.373779 -0.040039 1.000000 1.000000 1.000000 #0.501961
v 1.099854 3.544434 0.040039 1.000000 1.000000 1.000000 #0.501961
v 1.186768 3.373779 0.040039 1.000000 1.000000 1.000000 #0.501961
v 1.090332 3.299561 -0.040039 1.000000 1.000000 1.000000 #0.501961
v 1.090332 3.299561 0.040039 1.000000 1.000000 1.000000 #0.501961
v 0.956543 3.406738 -0.040039 1.000000 1.000000 1.000000 #0.501961
v 0.956543 3.406738 -0.040039 1.000000 1.000000 1.000000 #0.501961
v 1.090332 3.299561 0.040039 1.000000 1.000000 1.000000 #0.501961
v 0.956543 3.406738 0.040039 1.000000 1.000000 1.000000 #0.501961
v 0.956543 3.406738 -0.040039 1.000000 1.000000 1.000000 #0.501961
v 0.956543 3.406738 0.040039 1.000000 1.000000 1.000000 #0.501961
v 0.992920 3.541504 -0.040039 1.000000 1.000000 1.000000 #0.501961
v 0.992920 3.541504 -0.040039 1.000000 1.000000 1.000000 #0.501961
v 0.956543 3.406738 0.040039 1.000000 1.000000 1.000000 #0.501961
v 0.992920 3.541504 0.040039 1.000000 1.000000 1.000000 #0.501961
v 1.239990 4.294678 0.040039 1.000000 1.000000 1.000000 #0.501961
v 1.065918 4.237793 0.040039 1.000000 1.000000 1.000000 #0.501961
v 1.374756 4.049561 0.040039 1.000000 1.000000 1.000000 #0.501961
v 1.065918 4.237793 0.040039 1.000000 1.000000 1.000000 #0.501961
v 0.917236 3.891846 0.040039 1.000000 1.000000 1.000000 #0.501961
v 1.374756 4.049561 0.040039 1.000000 1.000000 1.000000 #0.501961
v 1.102051 3.587891 0.040039 1.000000 1.000000 1.000000 #0.501961
v 1.374756 4.049561 0.040039 1.000000 1.000000 1.000000 #0.501961
v 1.017822 3.599365 0.040039 1.000000 1.000000 1.000000 #0.501961
v 1.374756 4.049561 0.040039 1.000000 1.000000 1.000000 #0.501961
v 0.917236 3.891846 0.040039 1.000000 1.000000 1.000000 #0.501961
v 1.017822 3.599365 0.040039 1.000000 1.000000 1.000000 #0.501961
v 1.239990 4.294678 -0.040039 1.000000 1.000000 1.000000 #0.501961
v 1.374756 4.049561 -0.040039 1.000000 1.000000 1.000000 #0.501961
v 1.065918 4.237793 -0.040039 1.000000 1.000000 1.000000 #0.501961
v 1.065918 4.237793 -0.040039 1.000000 1.000000 1.000000 #0.501961
v 1.374756 4.049561 -0.040039 1.000000 1.000000 1.000000 #0.501961
v 0.917236 3.891846 -0.040039 1.000000 1.000000 1.000000 #0.501961
v 1.102051 3.587891 -0.040039 1.000000 1.000000 1.000000 #0.501961
v 1.017822 3.599609 -0.040039 1.000000 1.000000 1.000000 #0.501961
v 1.374756 4.049561 -0.040039 1.000000 1.000000 1.000000 #0.501961
v 0.917236 3.891846 -0.040039 1.000000 1.000000 1.000000 #0.501961
v 1.374756 4.049561 -0.040039 1.000000 1.000000 1.000000 #0.501961
v 1.017822 3.599609 -0.040039 1.000000 1.000000 1.000000 #0.501961
v 1.239990 4.294678 -0.040039 1.000000 1.000000 1.000000 #0.501961
v 1.239990 4.294678 0.040039 1.000000 1.000000 1.000000 #0.501961
v 1.374756 4.049561 -0.040039 1.000000 1.000000 1.000000 #0.501961
v 1.374756 4.049561 -0.040039 1.000000 1.000000 1.000000 #0.501961
v 1.239990 4.294678 0.040039 1.000000 1.000000 1.000000 #0.501961
v 1.374756 4.049561 0.040039 1.000000 1.000000 1.000000 #0.501961
v 0.917236 3.891846 -0.040039 1.000000 1.000000 1.000000 #0.501961
v 1.017822 3.599609 -0.040039 1.000000 1.000000 1.000000 #0.501961
v 0.917236 3.891846 0.040039 1.000000 1.000000 1.000000 #0.501961
v 1.017822 3.599609 -0.040039 1.000000 1.000000 1.000000 #0.501961
v 1.017822 3.599365 0.040039 1.000000 1.000000 1.000000 #0.501961
v 0.917236 3.891846 0.040039 1.000000 1.000000 1.000000 #0.501961
v 0.917236 3.891846 -0.040039 1.000000 1.000000 1.000000 #0.501961
v 0.917236 3.891846 0.040039 1.000000 1.000000 1.000000 #0.501961
v 1.065918 4.237793 -0.040039 1.000000 1.000000 1.000000 #0.501961
v 1.065918 4.237793 -0.040039 1.000000 1.000000 1.000000 #0.501961
v 0.917236 3.891846 0.040039 1.000000 1.000000 1.000000 #0.501961
v 1.065918 4.237793 0.040039 1.000000 1.000000 1.000000 #0.501961
v 1.065918 4.237793 -0.040039 1.000000 1.000000 1.000000 #0.501961
v 1.065918 4.237793 0.040039 1.000000 1.000000 1.000000 #0.501961
v 1.239990 4.294678 -0.040039 1.000000 1.000000 1.000000 #0.501961
v 1.239990 4.294678 -0.040039 1.000000 1.000000 1.000000 #0.501961
v 1.065918 4.237793 0.040039 1.000000 1.000000 1.000000 #0.501961
v 1.239990 4.294678 0.040039 1.000000 1.000000 1.000000 #0.501961
v 0.003906 3.036133 0.040039 1.000000 1.000000 1.000000 #0.501961
v 0.120361 3.482178 0.040039 1.000000 1.000000 1.000000 #0.501961
v -0.343750 2.968994 0.040039 1.000000 1.000000 1.000000 #0.501961
v 0.120361 3.482178 0.040039 1.000000 1.000000 1.000000 #0.501961
v -0.224121 3.887451 0.040039 1.000000 1.000000 1.000000 #0.501961
v -0.343750 2.968994 0.040039 1.000000 1.000000 1.000000 #0.501961
v -0.343750 2.968994 0.040039 1.000000 1.000000 1.000000 #0.501961
v -0.224121 3.887451 0.040039 1.000000 1.000000 1.000000 #0.501961
v -0.554932 3.652100 0.040039 1.000000 1.000000 1.000000 #0.501961
v -0.224121 3.887451 -0.040039 1.000000 1.000000 1.000000 #0.501961
v 0.120361 3.482178 -0.040039 1.000000 1.000000 1.000000 #0.501961
v -0.554932 3.652100 -0.040039 1.000000 1.000000 1.000000 #0.501961
v -0.554932 3.652100 -0.040039 1.000000 1.000000 1.000000 #0.501961
v 0.120361 3.482178 -0.040039 1.000000 1.000000 1.000000 #0.501961
v -0.343750 2.968994 -0.040039 1.000000 1.000000 1.000000 #0.501961
v 0.120361 3.482178 -0.040039 1.000000 1.000000 1.000000 #0.501961
v 0.003906 3.036133 -0.040039 1.000000 1.000000 1.000000 #0.501961
v -0.343750 2.968994 -0.040039 1.000000 1.000000 1.000000 #0.501961
v 0.120361 3.482178 -0.040039 1.000000 1.000000 1.000000 #0.501961
v 0.120361 3.482178 0.040039 1.000000 1.000000 1.000000 #0.501961
v 0.003906 3.036133 -0.040039 1.000000 1.000000 1.000000 #0.501961
v 0.003906 3.036133 -0.040039 1.000000 1.000000 1.000000 #0.501961
v 0.120361 3.482178 0.040039 1.000000 1.000000 1.000000 #0.501961
v 0.003906 3.036133 0.040039 1.000000 1.000000 1.000000 #0.501961
v 0.003906 3.036133 -0.040039 1.000000 1.000000 1.000000 #0.501961
v 0.003906 3.036133 0.040039 1.000000 1.000000 1.000000 #0.501961
v -0.343750 2.968994 -0.040039 1.000000 1.000000 1.000000 #0.501961
v -0.343750 2.968994 -0.040039 1.000000 1.000000 1.000000 #0.501961
v 0.003906 3.036133 0.040039 1.000000 1.000000 1.000000 #0.501961
v -0.343750 2.968994 0.040039 1.000000 1.000000 1.000000 #0.501961
v -0.554932 3.652100 -0.040039 1.000000 1.000000 1.000000 #0.501961
v -0.343750 2.968994 -0.040039 1.000000 1.000000 1.000000 #0.501961
v -0.554932 3.652100 0.040039 1.000000 1.000000 1.000000 #0.501961
v -0.343750 2.968994 -0.040039 1.000000 1.000000 1.000000 #0.501961
v -0.343750 2.968994 0.040039 1.000000 1.000000 1.000000 #0.501961
v -0.554932 3.652100 0.040039 1.000000 1.000000 1.000000 #0.501961
v -0.554932 3.652100 -0.040039 1.000000 1.000000 1.000000 #0.501961
v -0.554932 3.652100 0.040039 1.000000 1.000000 1.000000 #0.501961
v -0.224121 3.887451 -0.040039 1.000000 1.000000 1.000000 #0.501961
v -0.224121 3.887451 -0.040039 1.000000 1.000000 1.000000 #0.501961
v -0.554932 3.652100 0.040039 1.000000 1.000000 1.000000 #0.501961
v -0.224121 3.887451 0.040039 1.000000 1.000000 1.000000 #0.501961
v 0.120361 3.482178 -0.040039 1.000000 1.000000 1.000000 #0.501961
v -0.224121 3.887451 -0.040039 1.000000 1.000000 1.000000 #0.501961
v 0.120361 3.482178 0.040039 1.000000 1.000000 1.000000 #0.501961
v -0.224121 3.887451 -0.040039 1.000000 1.000000 1.000000 #0.501961
v -0.224121 3.887451 0.040039 1.000000 1.000000 1.000000 #0.501961
v 0.120361 3.482178 0.040039 1.000000 1.000000 1.000000 #0.501961
v -1.516357 2.990723 0.040039 1.000000 1.000000 1.000000 #0.501961
v -1.577637 2.897217 0.040039 1.000000 1.000000 1.000000 #0.501961
v -0.827393 2.580078 0.040039 1.000000 1.000000 1.000000 #0.501961
v -1.577637 2.897217 0.040039 1.000000 1.000000 1.000000 #0.501961
v -1.246338 2.187256 0.040039 1.000000 1.000000 1.000000 #0.501961
v -0.827393 2.580078 0.040039 1.000000 1.000000 1.000000 #0.501961
v -0.827393 2.580078 0.040039 1.000000 1.000000 1.000000 #0.501961
v -1.246338 2.187256 0.040039 1.000000 1.000000 1.000000 #0.501961
v -0.786621 2.470215 0.040039 1.000000 1.000000 1.000000 #0.501961
v -0.786621 2.470215 0.040039 1.000000 1.000000 1.000000 #0.501961
v -1.246338 2.187256 0.040039 1.000000 1.000000 1.000000 #0.501961
v -0.864502 2.048828 0.040039 1.000000 1.000000 1.000000 #0.501961
v -0.864502 2.048828 -0.040039 1.000000 1.000000 1.000000 #0.501961
v -1.246338 2.187256 -0.040039 1.000000 1.000000 1.000000 #0.501961
v -0.786621 2.470215 -0.040039 1.000000 1.000000 1.000000 #0.501961
v -1.246338 2.187256 -0.040039 1.000000 1.000000 1.000000 #0.501961
v -1.577637 2.897217 -0.040039 1.000000 1.000000 1.000000 #0.501961
v -0.786621 2.470215 -0.040039 1.000000 1.000000 1.000000 #0.501961
v -0.786621 2.470215 -0.040039 1.000000 1.000000 1.000000 #0.501961
v -1.577637 2.897217 -0.040039 1.000000 1.000000 1.000000 #0.501961
v -0.827393 2.580078 -0.040039 1.000000 1.000000 1.000000 #0.501961
v -0.827393 2.580078 -0.040039 1.000000 1.000000 1.000000 #0.501961
v -1.577637 2.897217 -0.040039 1.000000 1.000000 1.000000 #0.501961
v -1.516357 2.990723 -0.040039 1.000000 1.000000 1.000000 #0.501961
v -0.786621 2.470215 -0.040039 1.000000 1.000000 1.000000 #0.501961
v -0.786621 2.470215 0.040039 1.000000 1.000000 1.000000 #0.501961
v -0.864502 2.048828 -0.040039 1.000000 1.000000 1.000000 #0.501961
v -0.864502 2.048828 -0.040039 1.000000 1.000000 1.000000 #0.501961
v -0.786621 2.470215 0.040039 1.000000 1.000000 1.000000 #0.501961
v -0.864502 2.048828 0.040039 1.000000 1.000000 1.000000 #0.501961
v -1.246338 2.187256 -0.040039 1.000000 1.000000 1.000000 #0.501961
v -1.246338 2.187256 0.040039 1.000000 1.000000 1.000000 #0.501961
v -1.577637 2.897217 -0.040039 1.000000 1.000000 1.000000 #0.501961
v -1.577637 2.897217 -0.040039 1.000000 1.000000 1.000000 #0.501961
v -1.246338 2.187256 0.040039 1.000000 1.000000 1.000000 #0.501961
v -1.577637 2.897217 0.040039 1.000000 1.000000 1.000000 #0.501961
v -1.577637 2.897217 -0.040039 1.000000 1.000000 1.000000 #0.501961
v -1.577637 2.897217 0.040039 1.000000 1.000000 1.000000 #0.501961
v -1.516357 2.990723 -0.040039 1.000000 1.000000 1.000000 #0.501961
v -1.516357 2.990723 -0.040039 1.000000 1.000000 1.000000 #0.501961
v -1.577637 2.897217 0.040039 1.000000 1.000000 1.000000 #0.501961
v -1.516357 2.990723 0.040039 1.000000 1.000000 1.000000 #0.501961
v -1.516357 2.990723 -0.040039 1.000000 1.000000 1.000000 #0.501961
v -1.516357 2.990723 0.040039 1.000000 1.000000 1.000000 #0.501961
v -0.827393 2.580078 -0.040039 1.000000 1.000000 1.000000 #0.501961
v -0.827393 2.580078 -0.040039 1.000000 1.000000 1.000000 #0.501961
v -1.516357 2.990723 0.040039 1.000000 1.000000 1.000000 #0.501961
v -0.827393 2.580078 0.040039 1.000000 1.000000 1.000000 #0.501961
v -1.246338 2.187256 -0.040039 1.000000 1.000000 1.000000 #0.501961
v -0.864502 2.048828 -0.040039 1.000000 1.000000 1.000000 #0.501961
v -1.246338 2.187256 0.040039 1.000000 1.000000 1.000000 #0.501961
v -0.864502 2.048828 -0.040039 1.000000 1.000000 1.000000 #0.501961
v -0.864502 2.048828 0.040039 1.000000 1.000000 1.000000 #0.501961
v -1.246338 2.187256 0.040039 1.000000 1.000000 1.000000 #0.501961
v 1.374756 4.049561 -0.040039 1.000000 1.000000 1.000000 #0.501961
v 1.374756 4.049561 0.040039 1.000000 1.000000 1.000000 #0.501961
v 1.102051 3.587891 -0.040039 1.000000 1.000000 1.000000 #0.501961
v 1.102051 3.587891 -0.040039 1.000000 1.000000 1.000000 #0.501961
v 1.374756 4.049561 0.040039 1.000000 1.000000 1.000000 #0.501961
v 1.102051 3.587891 0.040039 1.000000 1.000000 1.000000 #0.501961
v 1.186768 3.373779 -0.040039 1.000000 1.000000 1.000000 #0.501961
v 1.186768 3.373779 0.040039 1.000000 1.000000 1.000000 #0.501961
v 1.090332 3.299561 -0.040039 1.000000 1.000000 1.000000 #0.501961
v 1.090332 3.299561 -0.040039 1.000000 1.000000 1.000000 #0.501961
v 1.186768 3.373779 0.040039 1.000000 1.000000 1.000000 #0.501961
v 1.090332 3.299561 0.040039 1.000000 1.000000 1.000000 #0.501961
v -0.440674 0.159912 -0.040039 1.000000 1.000000 1.000000 #0.501961
v -0.440674 0.159912 0.040039 1.000000 1.000000 1.000000 #0.501961
v -0.782959 2.030518 -0.040039 1.000000 1.000000 1.000000 #0.501961
v -0.782959 2.030518 -0.040039 1.000000 1.000000 1.000000 #0.501961
v -0.440674 0.159912 0.040039 1.000000 1.000000 1.000000 #0.501961
v -0.782959 2.030518 0.040039 1.000000 1.000000 1.000000 #0.501961
v 0.389893 2.102539 -0.040039 1.000000 1.000000 1.000000 #0.501961
v 0.389893 2.102539 0.040039 1.000000 1.000000 1.000000 #0.501961
v 0.057617 0.229004 -0.040039 1.000000 1.000000 1.000000 #0.501961
v 0.057617 0.229004 -0.040039 1.000000 1.000000 1.000000 #0.501961
v 0.389893 2.102539 0.040039 1.000000 1.000000 1.000000 #0.501961
v 0.057617 0.229004 0.040039 1.000000 1.000000 1.000000 #0.501961
v -0.827393 2.580078 -0.040039 1.000000 1.000000 1.000000 #0.501961
v -0.827393 2.580078 0.040039 1.000000 1.000000 1.000000 #0.501961
v -0.786621 2.470215 -0.040039 1.000000 1.000000 1.000000 #0.501961
v -0.786621 2.470215 -0.040039 1.000000 1.000000 1.000000 #0.501961
v -0.827393 2.580078 0.040039 1.000000 1.000000 1.000000 #0.501961
v -0.786621 2.470215 0.040039 1.000000 1.000000 1.000000 #0.501961
v 1.102051 3.587891 -0.040039 1.000000 1.000000 1.000000 #0.501961
v 1.102051 3.587891 0.040039 1.000000 1.000000 1.000000 #0.501961
v 1.017822 3.599609 -0.040039 1.000000 1.000000 1.000000 #0.501961
v 1.017822 3.599609 -0.040039 1.000000 1.000000 1.000000 #0.501961
v 1.102051 3.587891 0.040039 1.000000 1.000000 1.000000 #0.501961
v 1.017822 3.599365 0.040039 1.000000 1.000000 1.000000 #0.501961
v 0.907471 3.005859 -0.040039 1.000000 1.000000 1.000000 #0.501961
v 0.907471 3.005859 0.040039 1.000000 1.000000 1.000000 #0.501961
v 0.397949 3.298828 -0.040039 1.000000 1.000000 1.000000 #0.501961
v 0.397949 3.298828 -0.040039 1.000000 1.000000 1.000000 #0.501961
v 0.907471 3.005859 0.040039 1.000000 1.000000 1.000000 #0.501961
v 0.397949 3.298828 0.040039 1.000000 1.000000 1.000000 #0.501961
vt 0.812500 0.320313 0.000000
vt 0.867188 0.328125 0.000000
vt 0.796875 0.453125 0.000000
vt 0.867188 0.328125 0.000000
vt 0.890625 0.500000 0.000000
vt 0.796875 0.453125 0.000000
vt 0.890625 0.500000 0.000000
vt 0.864746 0.570313 0.000000
vt 0.796875 0.453125 0.000000
vt 0.796875 0.453125 0.000000
vt 0.864746 0.570313 0.000000
vt 0.796875 0.484375 0.000000
vt 0.796875 0.484375 0.000000
vt 0.864746 0.570313 0.000000
vt 0.844971 0.570313 0.000000
vt 0.929688 0.328125 0.000000
vt 0.906250 0.453125 0.000000
vt 0.984375 0.320313 0.000000
vt 0.984375 0.320313 0.000000
vt 0.906250 0.453125 0.000000
vt 0.992188 0.484375 0.000000
vt 0.992188 0.484375 0.000000
vt 0.906250 0.453125 0.000000
vt 0.947266 0.570313 0.000000
vt 0.906250 0.453125 0.000000
vt 0.898438 0.500000 0.000000
vt 0.947266 0.570313 0.000000
vt 0.898438 0.500000 0.000000
vt 0.924072 0.570313 0.000000
vt 0.947266 0.570313 0.000000
vt 0.867188 0.109375 0.000000
vt 0.898438 0.109375 0.000000
vt 0.867188 0.085938 0.000000
vt 0.867188 0.085938 0.000000
vt 0.898438 0.109375 0.000000
vt 0.898438 0.085938 0.000000
vt 0.828125 0.109375 0.000000
vt 0.859375 0.109375 0.000000
vt 0.828125 0.085938 0.000000
vt 0.828125 0.085938 0.000000
vt 0.859375 0.109375 0.000000
vt 0.859375 0.085938 0.000000
vt 0.710938 0.085938 0.000000
vt 0.710938 0.109375 0.000000
vt 0.742188 0.085938 0.000000
vt 0.742188 0.085938 0.000000
vt 0.710938 0.109375 0.000000
vt 0.742188 0.109375 0.000000
vt 0.765625 0.085938 0.000000
vt 0.765625 0.109375 0.000000
vt 0.781250 0.085938 0.000000
vt 0.781250 0.085938 0.000000
vt 0.765625 0.109375 0.000000
vt 0.781250 0.109375 0.000000
vt 0.820313 0.097656 0.000000
vt 0.789063 0.097656 0.000000
vt 0.820313 0.109375 0.000000
vt 0.820313 0.109375 0.000000
vt 0.789063 0.097656 0.000000
vt 0.789063 0.109375 0.000000
vt 0.054688 0.812500 0.000000
vt 0.125000 0.640625 0.000000
vt 0.328125 0.984375 0.000000
vt 0.125000 0.640625 0.000000
vt 0.437500 0.718750 0.000000
vt 0.328125 0.984375 0.000000
vt 0.437500 0.718750 0.000000
vt 0.484375 0.859375 0.000000
vt 0.328125 0.984375 0.000000
vt 0.328125 0.984375 0.000000
vt 0.484375 0.859375 0.000000
vt 0.406250 0.984375 0.000000
vt 0.984375 0.820313 0.000000
vt 0.671875 0.984375 0.000000
vt 0.898438 0.648438 0.000000
vt 0.898438 0.648438 0.000000
vt 0.671875 0.984375 0.000000
vt 0.562500 0.726563 0.000000
vt 0.562500 0.726563 0.000000
vt 0.671875 0.984375 0.000000
vt 0.515625 0.859375 0.000000
vt 0.515625 0.859375 0.000000
vt 0.671875 0.984375 0.000000
vt 0.593750 0.984375 0.000000
vt 0.625000 0.046875 0.000000
vt 0.625000 0.031250 0.000000
vt 0.601563 0.046875 0.000000
vt 0.601563 0.046875 0.000000
vt 0.625000 0.031250 0.000000
vt 0.601563 0.031250 0.000000
vt 0.710938 0.046875 0.000000
vt 0.742188 0.046875 0.000000
vt 0.710938 0.031250 0.000000
vt 0.710938 0.031250 0.000000
vt 0.742188 0.046875 0.000000
vt 0.742188 0.031250 0.000000
vt 0.851563 0.046875 0.000000
vt 0.851563 0.031250 0.000000
vt 0.820313 0.046875 0.000000
vt 0.820313 0.046875 0.000000
vt 0.851563 0.031250 0.000000
vt 0.820313 0.031250 0.000000
vt 0.750000 0.031250 0.000000
vt 0.750000 0.046875 0.000000
vt 0.773438 0.031250 0.000000
vt 0.773438 0.031250 0.000000
vt 0.750000 0.046875 0.000000
vt 0.773438 0.046875 0.000000
vt 0.664063 0.031250 0.000000
vt 0.632813 0.031250 0.000000
vt 0.664063 0.046875 0.000000
vt 0.664063 0.046875 0.000000
vt 0.632813 0.031250 0.000000
vt 0.632813 0.046875 0.000000
vt 0.671875 0.046875 0.000000
vt 0.703125 0.046875 0.000000
vt 0.671875 0.031250 0.000000
vt 0.671875 0.031250 0.000000
vt 0.703125 0.046875 0.000000
vt 0.703125 0.031250 0.000000
vt 0.679688 0.265625 0.000000
vt 0.679688 0.203125 0.000000
vt 0.609375 0.257813 0.000000
vt 0.679688 0.203125 0.000000
vt 0.679688 0.156250 0.000000
vt 0.609375 0.257813 0.000000
vt 0.609375 0.257813 0.000000
vt 0.679688 0.156250 0.000000
vt 0.585938 0.210938 0.000000
vt 0.609375 0.132813 0.000000
vt 0.585938 0.210938 0.000000
vt 0.679688 0.156250 0.000000
vt 0.687500 0.265625 0.000000
vt 0.750000 0.257813 0.000000
vt 0.687500 0.203125 0.000000
vt 0.687500 0.203125 0.000000
vt 0.750000 0.257813 0.000000
vt 0.687500 0.156250 0.000000
vt 0.750000 0.257813 0.000000
vt 0.781250 0.218750 0.000000
vt 0.687500 0.156250 0.000000
vt 0.757813 0.132813 0.000000
vt 0.687500 0.156250 0.000000
vt 0.781250 0.218750 0.000000
vt 0.898438 0.054688 0.000000
vt 0.867188 0.054688 0.000000
vt 0.898438 0.066406 0.000000
vt 0.898438 0.066406 0.000000
vt 0.867188 0.054688 0.000000
vt 0.867188 0.066406 0.000000
vt 0.859375 0.054688 0.000000
vt 0.828125 0.054688 0.000000
vt 0.859375 0.078125 0.000000
vt 0.859375 0.078125 0.000000
vt 0.828125 0.054688 0.000000
vt 0.828125 0.078125 0.000000
vt 0.781250 0.078125 0.000000
vt 0.750000 0.078125 0.000000
vt 0.781250 0.054688 0.000000
vt 0.781250 0.054688 0.000000
vt 0.750000 0.078125 0.000000
vt 0.750000 0.054688 0.000000
vt 0.820313 0.078125 0.000000
vt 0.789063 0.078125 0.000000
vt 0.820313 0.054688 0.000000
vt 0.820313 0.054688 0.000000
vt 0.789063 0.078125 0.000000
vt 0.789063 0.054688 0.000000
vt 0.742188 0.054688 0.000000
vt 0.710938 0.054688 0.000000
vt 0.742188 0.078125 0.000000
vt 0.742188 0.078125 0.000000
vt 0.710938 0.054688 0.000000
vt 0.710938 0.078125 0.000000
vt 0.570313 0.296875 0.000000
vt 0.593750 0.375000 0.000000
vt 0.500000 0.281250 0.000000
vt 0.593750 0.375000 0.000000
vt 0.531250 0.539063 0.000000
vt 0.500000 0.281250 0.000000
vt 0.531250 0.539063 0.000000
vt 0.476563 0.562500 0.000000
vt 0.500000 0.281250 0.000000
vt 0.429688 0.421875 0.000000
vt 0.500000 0.281250 0.000000
vt 0.476563 0.562500 0.000000
vt 0.640625 0.296875 0.000000
vt 0.710938 0.289063 0.000000
vt 0.609375 0.375000 0.000000
vt 0.609375 0.375000 0.000000
vt 0.710938 0.289063 0.000000
vt 0.671875 0.539063 0.000000
vt 0.671875 0.539063 0.000000
vt 0.710938 0.289063 0.000000
vt 0.718750 0.562500 0.000000
vt 0.765625 0.421875 0.000000
vt 0.718750 0.562500 0.000000
vt 0.710938 0.289063 0.000000
vt 0.429688 0.046875 0.000000
vt 0.406250 0.046875 0.000000
vt 0.429688 0.031250 0.000000
vt 0.429688 0.031250 0.000000
vt 0.406250 0.046875 0.000000
vt 0.406250 0.031250 0.000000
vt 0.437500 0.046875 0.000000
vt 0.460938 0.046875 0.000000
vt 0.437500 0.031250 0.000000
vt 0.437500 0.031250 0.000000
vt 0.460938 0.046875 0.000000
vt 0.460938 0.031250 0.000000
vt 0.562500 0.031250 0.000000
vt 0.539063 0.031250 0.000000
vt 0.562500 0.046875 0.000000
vt 0.562500 0.046875 0.000000
vt 0.539063 0.031250 0.000000
vt 0.539063 0.046875 0.000000
vt 0.523438 0.046875 0.000000
vt 0.523438 0.031250 0.000000
vt 0.500000 0.046875 0.000000
vt 0.500000 0.046875 0.000000
vt 0.523438 0.031250 0.000000
vt 0.500000 0.031250 0.000000
vt 0.398438 0.046875 0.000000
vt 0.398438 0.031250 0.000000
vt 0.375000 0.046875 0.000000
vt 0.375000 0.046875 0.000000
vt 0.398438 0.031250 0.000000
vt 0.375000 0.031250 0.000000
vt 0.492188 0.031250 0.000000
vt 0.492188 0.046875 0.000000
vt 0.468750 0.031250 0.000000
vt 0.468750 0.031250 0.000000
vt 0.492188 0.046875 0.000000
vt 0.468750 0.046875 0.000000
vt 0.203125 0.445313 0.000000
vt 0.203125 0.554688 0.000000
vt 0.132813 0.296875 0.000000
vt 0.203125 0.554688 0.000000
vt 0.054688 0.554688 0.000000
vt 0.132813 0.296875 0.000000
vt 0.054688 0.554688 0.000000
vt 0.015625 0.460938 0.000000
vt 0.132813 0.296875 0.000000
vt 0.015625 0.460938 0.000000
vt 0.070313 0.335938 0.000000
vt 0.132813 0.296875 0.000000
vt 0.351563 0.335938 0.000000
vt 0.414063 0.460938 0.000000
vt 0.296875 0.296875 0.000000
vt 0.414063 0.460938 0.000000
vt 0.359375 0.554688 0.000000
vt 0.296875 0.296875 0.000000
vt 0.359375 0.554688 0.000000
vt 0.226563 0.554688 0.000000
vt 0.296875 0.296875 0.000000
vt 0.296875 0.296875 0.000000
vt 0.226563 0.554688 0.000000
vt 0.226563 0.445313 0.000000
vt 0.859375 0.007813 0.000000
vt 0.843750 0.007813 0.000000
vt 0.859375 0.023438 0.000000
vt 0.859375 0.023438 0.000000
vt 0.843750 0.007813 0.000000
vt 0.843750 0.023438 0.000000
vt 0.882813 0.023438 0.000000
vt 0.867188 0.023438 0.000000
vt 0.882813 0.007813 0.000000
vt 0.882813 0.007813 0.000000
vt 0.867188 0.023438 0.000000
vt 0.867188 0.007813 0.000000
vt 0.906250 0.023438 0.000000
vt 0.890625 0.023438 0.000000
vt 0.906250 0.007813 0.000000
vt 0.906250 0.007813 0.000000
vt 0.890625 0.023438 0.000000
vt 0.890625 0.007813 0.000000
vt 0.953125 0.007813 0.000000
vt 0.937500 0.007813 0.000000
vt 0.953125 0.023438 0.000000
vt 0.953125 0.023438 0.000000
vt 0.937500 0.007813 0.000000
vt 0.937500 0.023438 0.000000
vt 0.976563 0.007813 0.000000
vt 0.960938 0.007813 0.000000
vt 0.976563 0.023438 0.000000
vt 0.976563 0.023438 0.000000
vt 0.960938 0.007813 0.000000
vt 0.960938 0.023438 0.000000
vt 0.929688 0.007813 0.000000
vt 0.914063 0.007813 0.000000
vt 0.929688 0.023438 0.000000
vt 0.929688 0.023438 0.000000
vt 0.914063 0.007813 0.000000
vt 0.914063 0.023438 0.000000
vt 0.460938 0.164063 0.000000
vt 0.359375 0.164063 0.000000
vt 0.460938 0.214844 0.000000
vt 0.460938 0.214844 0.000000
vt 0.359375 0.164063 0.000000
vt 0.460938 0.265625 0.000000
vt 0.359375 0.265625 0.000000
vt 0.460938 0.265625 0.000000
vt 0.359375 0.164063 0.000000
vt 0.468750 0.164063 0.000000
vt 0.519531 0.164063 0.000000
vt 0.468750 0.265625 0.000000
vt 0.519531 0.164063 0.000000
vt 0.570313 0.164063 0.000000
vt 0.468750 0.265625 0.000000
vt 0.570313 0.265625 0.000000
vt 0.468750 0.265625 0.000000
vt 0.570313 0.164063 0.000000
vt 0.789063 0.023438 0.000000
vt 0.757813 0.023438 0.000000
vt 0.789063 0.007813 0.000000
vt 0.789063 0.007813 0.000000
vt 0.757813 0.023438 0.000000
vt 0.757813 0.007813 0.000000
vt 0.710938 0.007813 0.000000
vt 0.679688 0.007813 0.000000
vt 0.710938 0.023438 0.000000
vt 0.710938 0.023438 0.000000
vt 0.679688 0.007813 0.000000
vt 0.679688 0.023438 0.000000
vt 0.750000 0.015625 0.000000
vt 0.718750 0.015625 0.000000
vt 0.750000 0.023438 0.000000
vt 0.750000 0.023438 0.000000
vt 0.718750 0.015625 0.000000
vt 0.718750 0.023438 0.000000
vt 0.828125 0.023438 0.000000
vt 0.796875 0.023438 0.000000
vt 0.828125 0.007813 0.000000
vt 0.828125 0.007813 0.000000
vt 0.796875 0.023438 0.000000
vt 0.796875 0.007813 0.000000
vt 0.031250 0.265625 0.000000
vt 0.031250 0.164063 0.000000
vt 0.187500 0.265625 0.000000
vt 0.031250 0.164063 0.000000
vt 0.101563 0.164063 0.000000
vt 0.187500 0.265625 0.000000
vt 0.164063 0.210938 0.000000
vt 0.187500 0.265625 0.000000
vt 0.148438 0.187500 0.000000
vt 0.187500 0.265625 0.000000
vt 0.101563 0.164063 0.000000
vt 0.148438 0.187500 0.000000
vt 0.335938 0.265625 0.000000
vt 0.203125 0.265625 0.000000
vt 0.335938 0.164063 0.000000
vt 0.335938 0.164063 0.000000
vt 0.203125 0.265625 0.000000
vt 0.296875 0.164063 0.000000
vt 0.226563 0.210938 0.000000
vt 0.250000 0.187500 0.000000
vt 0.203125 0.265625 0.000000
vt 0.296875 0.164063 0.000000
vt 0.203125 0.265625 0.000000
vt 0.250000 0.187500 0.000000
vt 0.562500 0.023438 0.000000
vt 0.539063 0.023438 0.000000
vt 0.562500 0.007813 0.000000
vt 0.562500 0.007813 0.000000
vt 0.539063 0.023438 0.000000
vt 0.539063 0.007813 0.000000
vt 0.593750 0.031250 0.000000
vt 0.593750 0.011719 0.000000
vt 0.570313 0.031250 0.000000
vt 0.593750 0.011719 0.000000
vt 0.570313 0.011719 0.000000
vt 0.570313 0.031250 0.000000
vt 0.625000 0.007813 0.000000
vt 0.601563 0.007813 0.000000
vt 0.625000 0.023438 0.000000
vt 0.625000 0.023438 0.000000
vt 0.601563 0.007813 0.000000
vt 0.601563 0.023438 0.000000
vt 0.664063 0.007813 0.000000
vt 0.632813 0.007813 0.000000
vt 0.664063 0.023438 0.000000
vt 0.664063 0.023438 0.000000
vt 0.632813 0.007813 0.000000
vt 0.632813 0.023438 0.000000
vt 0.226563 0.132813 0.000000
vt 0.140625 0.132813 0.000000
vt 0.226563 0.062500 0.000000
vt 0.140625 0.132813 0.000000
vt 0.148438 0.007813 0.000000
vt 0.226563 0.062500 0.000000
vt 0.226563 0.062500 0.000000
vt 0.148438 0.007813 0.000000
vt 0.187500 0.007813 0.000000
vt 0.320313 0.007813 0.000000
vt 0.328125 0.132813 0.000000
vt 0.273438 0.007813 0.000000
vt 0.273438 0.007813 0.000000
vt 0.328125 0.132813 0.000000
vt 0.242188 0.062500 0.000000
vt 0.328125 0.132813 0.000000
vt 0.242188 0.132813 0.000000
vt 0.242188 0.062500 0.000000
vt 0.468750 0.007813 0.000000
vt 0.468750 0.023438 0.000000
vt 0.492188 0.007813 0.000000
vt 0.492188 0.007813 0.000000
vt 0.468750 0.023438 0.000000
vt 0.492188 0.023438 0.000000
vt 0.437500 0.007813 0.000000
vt 0.437500 0.023438 0.000000
vt 0.460938 0.007813 0.000000
vt 0.460938 0.007813 0.000000
vt 0.437500 0.023438 0.000000
vt 0.460938 0.023438 0.000000
vt 0.375000 0.007813 0.000000
vt 0.375000 0.023438 0.000000
vt 0.398438 0.007813 0.000000
vt 0.375000 0.023438 0.000000
vt 0.398438 0.023438 0.000000
vt 0.398438 0.007813 0.000000
vt 0.429688 0.023438 0.000000
vt 0.429688 0.007813 0.000000
vt 0.406250 0.023438 0.000000
vt 0.406250 0.023438 0.000000
vt 0.429688 0.007813 0.000000
vt 0.406250 0.007813 0.000000
vt 0.500000 0.007813 0.000000
vt 0.523438 0.007813 0.000000
vt 0.500000 0.023438 0.000000
vt 0.523438 0.007813 0.000000
vt 0.523438 0.023438 0.000000
vt 0.500000 0.023438 0.000000
vt 0.085938 0.023438 0.000000
vt 0.117188 0.007813 0.000000
vt 0.082031 0.078125 0.000000
vt 0.117188 0.007813 0.000000
vt 0.121094 0.070313 0.000000
vt 0.082031 0.078125 0.000000
vt 0.082031 0.078125 0.000000
vt 0.121094 0.070313 0.000000
vt 0.078125 0.132813 0.000000
vt 0.078125 0.132813 0.000000
vt 0.121094 0.070313 0.000000
vt 0.125000 0.132813 0.000000
vt 0.070313 0.132813 0.000000
vt 0.066406 0.078125 0.000000
vt 0.023438 0.132813 0.000000
vt 0.066406 0.078125 0.000000
vt 0.062500 0.023438 0.000000
vt 0.023438 0.132813 0.000000
vt 0.023438 0.132813 0.000000
vt 0.062500 0.023438 0.000000
vt 0.027344 0.070313 0.000000
vt 0.027344 0.070313 0.000000
vt 0.062500 0.023438 0.000000
vt 0.031250 0.007813 0.000000
vt 0.460938 0.070313 0.000000
vt 0.460938 0.054688 0.000000
vt 0.437500 0.070313 0.000000
vt 0.437500 0.070313 0.000000
vt 0.460938 0.054688 0.000000
vt 0.437500 0.054688 0.000000
vt 0.375977 0.062500 0.000000
vt 0.398438 0.062500 0.000000
vt 0.375977 0.054688 0.000000
vt 0.375977 0.054688 0.000000
vt 0.398438 0.062500 0.000000
vt 0.398438 0.054688 0.000000
vt 0.470215 0.070313 0.000000
vt 0.492188 0.070313 0.000000
vt 0.470215 0.053711 0.000000
vt 0.470215 0.053711 0.000000
vt 0.492188 0.070313 0.000000
vt 0.492188 0.053711 0.000000
vt 0.429688 0.070313 0.000000
vt 0.429688 0.054688 0.000000
vt 0.414063 0.070313 0.000000
vt 0.414063 0.070313 0.000000
vt 0.429688 0.054688 0.000000
vt 0.414063 0.054688 0.000000
vt 0.375977 0.062500 0.000000
vt 0.375977 0.070313 0.000000
vt 0.398438 0.062500 0.000000
vt 0.375977 0.070313 0.000000
vt 0.398438 0.070313 0.000000
vt 0.398438 0.062500 0.000000
vt 0.593750 0.046875 0.000000
vt 0.570313 0.046875 0.000000
vt 0.593750 0.023438 0.000000
vt 0.593750 0.023438 0.000000
vt 0.570313 0.046875 0.000000
vt 0.570313 0.023438 0.000000
vt 0.750000 0.007813 0.000000
vt 0.718750 0.007813 0.000000
vt 0.750000 0.015625 0.000000
vt 0.750000 0.015625 0.000000
vt 0.718750 0.007813 0.000000
vt 0.718750 0.015625 0.000000
vt 0.820313 0.085938 0.000000
vt 0.789063 0.085938 0.000000
vt 0.820313 0.097656 0.000000
vt 0.820313 0.097656 0.000000
vt 0.789063 0.085938 0.000000
vt 0.789063 0.097656 0.000000
vt 0.750000 0.085938 0.000000
vt 0.750000 0.109375 0.000000
vt 0.765625 0.085938 0.000000
vt 0.765625 0.085938 0.000000
vt 0.750000 0.109375 0.000000
vt 0.765625 0.109375 0.000000
vt 0.414063 0.070313 0.000000
vt 0.414063 0.054688 0.000000
vt 0.407715 0.070313 0.000000
vt 0.407715 0.070313 0.000000
vt 0.414063 0.054688 0.000000
vt 0.407715 0.054688 0.000000
vt 0.593750 0.023438 0.000000
vt 0.570313 0.023438 0.000000
vt 0.593750 0.011719 0.000000
vt 0.593750 0.011719 0.000000
vt 0.570313 0.023438 0.000000
vt 0.570313 0.011719 0.000000
vt 0.898438 0.066406 0.000000
vt 0.867188 0.066406 0.000000
vt 0.898438 0.078125 0.000000
vt 0.898438 0.078125 0.000000
vt 0.867188 0.066406 0.000000
vt 0.867188 0.078125 0.000000
vn 0.000000 0.000000 1.000000
vn 0.000000 0.000000 1.000000
vn 0.000000 0.000000 1.000000
vn 0.000000 0.000000 1.000000
vn 0.000000 0.000000 1.000000
vn 0.000000 0.000000 1.000000
vn 0.000000 0.000000 1.000000
vn 0.000000 0.000000 1.000000
vn 0.000000 0.000000 1.000000
vn 0.000000 0.000000 1.000000
vn 0.000000 0.000000 1.000000
vn 0.000000 0.000000 1.000000
vn 0.000000 0.000000 1.000000
vn 0.000000 0.000000 1.000000
vn 0.000000 0.000000 1.000000
vn 0.000000 0.000000 -1.000000
vn 0.000000 0.000000 -1.000000
vn 0.000000 0.000000 -1.000000
vn 0.000000 0.000000 -1.000000
vn 0.000000 0.000000 -1.000000
vn 0.000000 0.000000 -1.000000
vn 0.000000 0.000000 -1.000000
vn 0.000000 0.000000 -1.000000
vn 0.000000 0.000000 -1.000000
vn 0.000000 0.000000 -1.000000
vn 0.000000 0.000000 -1.000000
vn 0.000000 0.000000 -1.000000
vn 0.000000 0.000000 -1.000000
vn 0.000000 0.000000 -1.000000
vn 0.000000 0.000000 -1.000000
vn 0.936035 -0.351807 0.000000
vn 0.867676 -0.496826 0.000000
vn 0.779541 -0.626221 0.000000
vn 0.779541 -0.626221 0.000000
vn 0.867676 -0.496826 0.000000
vn 0.779541 -0.626221 0.000000
vn 0.167236 -0.985840 0.000000
vn 0.167236 -0.985840 0.000000
vn 0.167236 -0.985840 0.000000
vn 0.167236 -0.985840 0.000000
vn 0.167236 -0.985840 0.000000
vn 0.167236 -0.985840 0.000000
vn -0.917969 -0.396240 0.000000
vn -0.917969 -0.396240 0.000000
vn -0.976807 -0.213867 0.000000
vn -0.976807 -0.213867 0.000000
vn -0.917969 -0.396240 0.000000
vn -0.999756 -0.016113 0.000000
vn -0.136963 0.990479 0.000000
vn -0.136963 0.990479 0.000000
vn -0.136963 0.990479 0.000000
vn -0.136963 0.990479 0.000000
vn -0.136963 0.990479 0.000000
vn -0.136963 0.990479 0.000000
vn 0.979248 -0.201416 0.000000
vn 0.979248 -0.201416 0.000000
vn 0.936035 -0.351807 0.000000
vn 0.936035 -0.351807 0.000000
vn 0.979248 -0.201416 0.000000
vn 0.867676 -0.496826 0.000000
vn 0.000000 0.000000 1.000000
vn 0.000000 0.000000 1.000000
vn 0.000000 0.000000 1.000000
vn 0.000000 0.000000 1.000000
vn 0.000000 0.000000 1.000000
vn 0.000000 0.000000 1.000000
vn 0.000000 0.000000 1.000000
vn 0.000000 0.000000 1.000000
vn 0.000000 0.000000 1.000000
vn 0.000000 0.000000 1.000000
vn 0.000000 0.000000 1.000000
vn 0.000000 0.000000 1.000000
vn 0.000000 0.000000 -1.000000
vn 0.000000 0.000000 -1.000000
vn 0.000000 0.000000 -1.000000
vn 0.000000 0.000000 -1.000000
vn 0.000000 0.000000 -1.000000
vn 0.000000 0.000000 -1.000000
vn 0.000000 0.000000 -1.000000
vn 0.000000 0.000000 -1.000000
vn 0.000000 0.000000 -1.000000
vn 0.000000 0.000000 -1.000000
vn 0.000000 0.000000 -1.000000
vn 0.000000 0.000000 -1.000000
vn 0.688477 -0.725098 0.000000
vn 0.688477 -0.725098 0.000000
vn 0.522705 -0.852295 0.000000
vn 0.522705 -0.852295 0.000000
vn 0.688477 -0.725098 0.000000
vn 0.324951 -0.945557 0.000000
vn 0.522705 -0.852295 0.000000
vn 0.324951 -0.945557 0.000000
vn 0.121582 -0.992432 0.000000
vn 0.121582 -0.992432 0.000000
vn 0.324951 -0.945557 0.000000
vn 0.121582 -0.992432 0.000000
vn -0.934570 -0.355469 0.000000
vn -0.934570 -0.355469 0.000000
vn -0.934570 -0.355469 0.000000
vn -0.934570 -0.355469 0.000000
vn -0.934570 -0.355469 0.000000
vn -0.934570 -0.355469 0.000000
vn -0.909912 0.414551 0.000000
vn -0.909912 0.414551 0.000000
vn -0.909912 0.414551 0.000000
vn -0.909912 0.414551 0.000000
vn -0.909912 0.414551 0.000000
vn -0.909912 0.414551 0.000000
vn -0.545410 0.837891 0.000000
vn -0.545410 0.837891 0.000000
vn -0.545410 0.837891 0.000000
vn -0.545410 0.837891 0.000000
vn -0.545410 0.837891 0.000000
vn -0.545410 0.837891 0.000000
vn 0.763428 0.645752 0.000000
vn 0.763428 0.645752 0.000000
vn 0.763428 0.645752 0.000000
vn 0.763428 0.645752 0.000000
vn 0.763428 0.645752 0.000000
vn 0.763428 0.645752 0.000000
vn 0.000000 0.000000 1.000000
vn 0.000000 0.000000 1.000000
vn 0.000000 0.000000 1.000000
vn 0.000000 0.000000 1.000000
vn 0.000000 0.000000 1.000000
vn 0.000000 0.000000 1.000000
vn 0.000000 0.000000 1.000000
vn 0.000000 0.000000 1.000000
vn 0.000000 0.000000 1.000000
vn 0.000000 0.000000 1.000000
vn 0.000000 0.000000 1.000000
vn 0.000000 0.000000 1.000000
vn 0.000000 0.000000 -1.000000
vn 0.000000 0.000000 -1.000000
vn 0.000000 0.000000 -1.000000
vn 0.000000 0.000000 -1.000000
vn 0.000000 0.000000 -1.000000
vn 0.000000 0.000000 -1.000000
vn 0.000000 0.000000 -1.000000
vn 0.000000 0.000000 -1.000000
vn 0.000000 0.000000 -1.000000
vn 0.000000 0.000000 -1.000000
vn 0.000000 0.000000 -1.000000
vn 0.000000 0.000000 -1.000000
vn -0.985840 0.166992 0.000000
vn -0.812256 0.583008 0.000000
vn -0.538574 0.842529 0.000000
vn -0.538574 0.842529 0.000000
vn -0.812256 0.583008 0.000000
vn -0.538574 0.842529 0.000000
vn 0.955811 -0.293457 0.000000
vn 0.955811 -0.293457 0.000000
vn 0.955811 -0.293457 0.000000
vn 0.955811 -0.293457 0.000000
vn 0.955811 -0.293457 0.000000
vn 0.955811 -0.293457 0.000000
vn -0.294678 -0.955322 0.000000
vn -0.294678 -0.955322 0.000000
vn -0.438477 -0.898682 0.000000
vn -0.438477 -0.898682 0.000000
vn -0.294678 -0.955322 0.000000
vn -0.574951 -0.818115 0.000000
vn -0.438477 -0.898682 0.000000
vn -0.574951 -0.818115 0.000000
vn -0.694092 -0.719727 0.000000
vn -0.694092 -0.719727 0.000000
vn -0.574951 -0.818115 0.000000
vn -0.694092 -0.719727 0.000000
vn -0.977539 -0.209961 0.000000
vn -0.977539 -0.209961 0.000000
vn -0.985840 0.166992 0.000000
vn -0.985840 0.166992 0.000000
vn -0.977539 -0.209961 0.000000
vn -0.812256 0.583008 0.000000
vn 0.000000 0.000000 1.000000
vn 0.000000 0.000000 1.000000
vn 0.000000 0.000000 1.000000
vn 0.000000 0.000000 1.000000
vn 0.000000 0.000000 1.000000
vn 0.000000 0.000000 1.000000
vn 0.000000 0.000000 1.000000
vn 0.000000 0.000000 1.000000
vn 0.000000 0.000000 1.000000
vn 0.000000 0.000000 1.000000
vn 0.000000 0.000000 1.000000
vn 0.000000 0.000000 1.000000
vn 0.000000 0.000000 -1.000000
vn 0.000000 0.000000 -1.000000
vn 0.000000 0.000000 -1.000000
vn 0.000000 0.000000 -1.000000
vn 0.000000 0.000000 -1.000000
vn 0.000000 0.000000 -1.000000
vn 0.000000 0.000000 -1.000000
vn 0.000000 0.000000 -1.000000
vn 0.000000 0.000000 -1.000000
vn 0.000000 0.000000 -1.000000
vn 0.000000 0.000000 -1.000000
vn 0.000000 0.000000 -1.000000
vn 0.713867 -0.699951 0.000000
vn 0.713867 -0.699951 0.000000
vn 0.713867 -0.699951 0.000000
vn 0.713867 -0.699951 0.000000
vn 0.713867 -0.699951 0.000000
vn 0.713867 -0.699951 0.000000
vn -0.506104 -0.862305 0.000000
vn -0.506104 -0.862305 0.000000
vn -0.506104 -0.862305 0.000000
vn -0.506104 -0.862305 0.000000
vn -0.506104 -0.862305 0.000000
vn -0.506104 -0.862305 0.000000
vn -0.761963 -0.647461 0.000000
vn -0.761963 -0.647461 0.000000
vn -0.761963 -0.647461 0.000000
vn -0.761963 -0.647461 0.000000
vn -0.761963 -0.647461 0.000000
vn -0.761963 -0.647461 0.000000
vn -0.851318 0.524414 0.000000
vn -0.851318 0.524414 0.000000
vn -0.851318 0.524414 0.000000
vn -0.851318 0.524414 0.000000
vn -0.851318 0.524414 0.000000
vn -0.851318 0.524414 0.000000
vn 0.431152 0.902100 0.000000
vn 0.431152 0.902100 0.000000
vn 0.431152 0.902100 0.000000
vn 0.431152 0.902100 0.000000
vn 0.431152 0.902100 0.000000
vn 0.431152 0.902100 0.000000
vn 0.919678 0.392578 0.000000
vn 0.919678 0.392578 0.000000
vn 0.919678 0.392578 0.000000
vn 0.919678 0.392578 0.000000
vn 0.919678 0.392578 0.000000
vn 0.919678 0.392578 0.000000
vn 0.000000 0.000000 1.000000
vn 0.000000 0.000000 1.000000
vn 0.000000 0.000000 1.000000
vn 0.000000 0.000000 1.000000
vn 0.000000 0.000000 1.000000
vn 0.000000 0.000000 1.000000
vn 0.000000 0.000000 1.000000
vn 0.000000 0.000000 1.000000
vn 0.000000 0.000000 1.000000
vn 0.000000 0.000000 1.000000
vn 0.000000 0.000000 1.000000
vn 0.000000 0.000000 1.000000
vn 0.000000 0.000000 -1.000000
vn 0.000000 0.000000 -1.000000
vn 0.000000 0.000000 -1.000000
vn 0.000000 0.000000 -1.000000
vn 0.000000 0.000000 -1.000000
vn 0.000000 0.000000 -1.000000
vn 0.000000 0.000000 -1.000000
vn 0.000000 0.000000 -1.000000
vn 0.000000 0.000000 -1.000000
vn 0.000000 0.000000 -1.000000
vn 0.000000 0.000000 -1.000000
vn 0.000000 0.000000 -1.000000
vn 0.997314 0.071533 0.000000
vn 0.955322 -0.295166 0.000000
vn 0.809570 -0.586670 0.000000
vn 0.809570 -0.586670 0.000000
vn 0.955322 -0.295166 0.000000
vn 0.809570 -0.586670 0.000000
vn 0.205566 -0.978516 0.000000
vn 0.205566 -0.978516 0.000000
vn 0.205566 -0.978516 0.000000
vn 0.205566 -0.978516 0.000000
vn 0.205566 -0.978516 0.000000
vn 0.205566 -0.978516 0.000000
vn -0.739990 -0.672363 0.000000
vn -0.739990 -0.672363 0.000000
vn -0.739990 -0.672363 0.000000
vn -0.739990 -0.672363 0.000000
vn -0.739990 -0.672363 0.000000
vn -0.739990 -0.672363 0.000000
vn -0.768799 0.639160 0.000000
vn -0.768799 0.639160 0.000000
vn -0.768799 0.639160 0.000000
vn -0.768799 0.639160 0.000000
vn -0.768799 0.639160 0.000000
vn -0.768799 0.639160 0.000000
vn -0.242920 0.969971 0.000000
vn -0.242920 0.969971 0.000000
vn 0.183594 0.982910 0.000000
vn 0.183594 0.982910 0.000000
vn -0.242920 0.969971 0.000000
vn 0.675049 0.737549 0.000000
vn 0.183594 0.982910 0.000000
vn 0.675049 0.737549 0.000000
vn 0.997314 0.071533 0.000000
vn 0.997314 0.071533 0.000000
vn 0.675049 0.737549 0.000000
vn 0.955322 -0.295166 0.000000
vn 0.000000 0.000000 1.000000
vn 0.000000 0.000000 1.000000
vn 0.000000 0.000000 1.000000
vn 0.000000 0.000000 1.000000
vn 0.000000 0.000000 1.000000
vn 0.000000 0.000000 1.000000
vn 0.000000 0.000000 1.000000
vn 0.000000 0.000000 1.000000
vn 0.000000 0.000000 1.000000
vn 0.000000 0.000000 -1.000000
vn 0.000000 0.000000 -1.000000
vn 0.000000 0.000000 -1.000000
vn 0.000000 0.000000 -1.000000
vn 0.000000 0.000000 -1.000000
vn 0.000000 0.000000 -1.000000
vn 0.000000 0.000000 -1.000000
vn 0.000000 0.000000 -1.000000
vn 0.000000 0.000000 -1.000000
vn 0.026367 -0.999512 0.000000
vn 0.026367 -0.999512 0.000000
vn 0.026367 -0.999512 0.000000
vn 0.026367 -0.999512 0.000000
vn 0.026367 -0.999512 0.000000
vn 0.026367 -0.999512 0.000000
vn -0.890869 -0.453857 0.000000
vn -0.890869 -0.453857 0.000000
vn -0.890869 -0.453857 0.000000
vn -0.890869 -0.453857 0.000000
vn -0.890869 -0.453857 0.000000
vn -0.890869 -0.453857 0.000000
vn 0.625488 0.780029 0.000000
vn 0.625488 0.780029 0.000000
vn 0.625488 0.780029 0.000000
vn 0.625488 0.780029 0.000000
vn 0.625488 0.780029 0.000000
vn 0.625488 0.780029 0.000000
vn 0.965088 -0.261230 0.000000
vn 0.965088 -0.261230 0.000000
vn 0.965088 -0.261230 0.000000
vn 0.965088 -0.261230 0.000000
vn 0.965088 -0.261230 0.000000
vn 0.965088 -0.261230 0.000000
vn 0.000000 0.000000 1.000000
vn 0.000000 0.000000 1.000000
vn 0.000000 0.000000 1.000000
vn 0.000000 0.000000 1.000000
vn 0.000000 0.000000 1.000000
vn 0.000000 0.000000 1.000000
vn 0.000000 0.000000 1.000000
vn 0.000000 0.000000 1.000000
vn 0.000000 0.000000 1.000000
vn 0.000000 0.000000 1.000000
vn 0.000000 0.000000 1.000000
vn 0.000000 0.000000 1.000000
vn 0.000000 0.000000 -1.000000
vn 0.000000 0.000000 -1.000000
vn 0.000000 0.000000 -1.000000
vn 0.000000 0.000000 -1.000000
vn 0.000000 0.000000 -1.000000
vn 0.000000 0.000000 -1.000000
vn 0.000000 0.000000 -1.000000
vn 0.000000 0.000000 -1.000000
vn 0.000000 0.000000 -1.000000
vn 0.000000 0.000000 -1.000000
vn 0.000000 0.000000 -1.000000
vn 0.000000 0.000000 -1.000000
vn -0.876465 -0.481201 0.000000
vn -0.876465 -0.481201 0.000000
vn -0.876465 -0.481201 0.000000
vn -0.876465 -0.481201 0.000000
vn -0.876465 -0.481201 0.000000
vn -0.876465 -0.481201 0.000000
vn 0.945557 0.325195 0.000000
vn 0.945557 0.325195 0.000000
vn 0.945557 0.325195 0.000000
vn 0.945557 0.325195 0.000000
vn 0.945557 0.325195 0.000000
vn 0.945557 0.325195 0.000000
vn 0.918701 -0.394287 0.000000
vn 0.918701 -0.394287 0.000000
vn 0.918701 -0.394287 0.000000
vn 0.918701 -0.394287 0.000000
vn 0.918701 -0.394287 0.000000
vn 0.918701 -0.394287 0.000000
vn 0.311035 -0.950195 0.000000
vn 0.311035 -0.950195 0.000000
vn 0.311035 -0.950195 0.000000
vn 0.311035 -0.950195 0.000000
vn 0.311035 -0.950195 0.000000
vn 0.311035 -0.950195 0.000000
vn -0.484131 0.797363 0.359619
vn -0.849121 -0.193848 0.490967
vn 0.228516 0.381348 0.895508
vn -0.849121 -0.193848 0.490967
vn -0.073242 -0.588623 0.804932
vn 0.228516 0.381348 0.895508
vn 0.228516 0.381348 0.895508
vn -0.073242 -0.588623 0.804932
vn 0.905029 -0.306152 0.294678
vn 0.000000 0.000000 -1.000000
vn 0.000000 0.000000 -1.000000
vn 0.000000 0.000000 -1.000000
vn 0.000000 0.000000 -1.000000
vn 0.000000 0.000000 -1.000000
vn 0.000000 0.000000 -1.000000
vn 0.000000 0.000000 -1.000000
vn 0.000000 0.000000 -1.000000
vn 0.000000 0.000000 -1.000000
vn -0.967529 0.252686 0.000000
vn -0.849121 -0.193848 0.490967
vn -0.967529 0.252686 0.000000
vn -0.967529 0.252686 0.000000
vn -0.849121 -0.193848 0.490967
vn -0.484131 0.797363 0.359619
vn -0.189209 0.981689 0.000000
vn -0.484131 0.797363 0.359619
vn -0.189209 0.981689 0.000000
vn -0.189209 0.981689 0.000000
vn -0.484131 0.797363 0.359619
vn 0.228516 0.381348 0.895508
vn 0.955078 0.295654 0.000000
vn 0.955078 0.295654 0.000000
vn 0.905029 -0.306152 0.294678
vn 0.955078 0.295654 0.000000
vn 0.228516 0.381348 0.895508
vn 0.905029 -0.306152 0.294678
vn 0.579590 -0.814697 0.000000
vn 0.905029 -0.306152 0.294678
vn 0.579590 -0.814697 0.000000
vn 0.579590 -0.814697 0.000000
vn 0.905029 -0.306152 0.294678
vn -0.073242 -0.588623 0.804932
vn -0.761719 -0.647705 0.000000
vn -0.761719 -0.647705 0.000000
vn -0.849121 -0.193848 0.490967
vn -0.761719 -0.647705 0.000000
vn -0.073242 -0.588623 0.804932
vn -0.849121 -0.193848 0.490967
vn 0.590820 -0.388184 0.707031
vn 0.773682 -0.202637 0.600098
vn 0.000000 0.000000 1.000000
vn 0.773682 -0.202637 0.600098
vn 0.523926 0.572754 0.630127
vn 0.000000 0.000000 1.000000
vn 0.000000 0.000000 1.000000
vn 0.523926 0.572754 0.630127
vn -0.695313 0.128174 0.707031
vn -0.695313 0.128174 0.707031
vn 0.523926 0.572754 0.630127
vn -0.393066 0.686279 0.611572
vn 0.000000 0.000000 -1.000000
vn 0.000000 0.000000 -1.000000
vn 0.000000 0.000000 -1.000000
vn 0.000000 0.000000 -1.000000
vn 0.000000 0.000000 -1.000000
vn 0.000000 0.000000 -1.000000
vn 0.000000 0.000000 -1.000000
vn 0.000000 0.000000 -1.000000
vn 0.000000 0.000000 -1.000000
vn 0.000000 0.000000 -1.000000
vn 0.000000 0.000000 -1.000000
vn 0.000000 0.000000 -1.000000
vn -0.983154 0.181396 0.000000
vn -0.695313 0.128174 0.707031
vn -0.983154 0.181396 0.000000
vn -0.983154 0.181396 0.000000
vn -0.695313 0.128174 0.707031
vn -0.393066 0.686279 0.611572
vn 0.906006 0.422852 0.000000
vn 0.523926 0.572754 0.630127
vn 0.906006 0.422852 0.000000
vn 0.906006 0.422852 0.000000
vn 0.523926 0.572754 0.630127
vn 0.773682 -0.202637 0.600098
vn 0.835693 -0.548828 0.000000
vn 0.773682 -0.202637 0.600098
vn 0.835693 -0.548828 0.000000
vn 0.835693 -0.548828 0.000000
vn 0.773682 -0.202637 0.600098
vn 0.590820 -0.388184 0.707031
vn -0.511963 -0.858887 0.000000
vn -0.511963 -0.858887 0.000000
vn -0.511963 -0.858887 0.000000
vn -0.511963 -0.858887 0.000000
vn -0.511963 -0.858887 0.000000
vn -0.511963 -0.858887 0.000000
vn 0.340576 0.940186 0.000000
vn 0.340576 0.940186 0.000000
vn 0.523926 0.572754 0.630127
vn 0.340576 0.940186 0.000000
vn -0.393066 0.686279 0.611572
vn 0.523926 0.572754 0.630127
vn -0.861084 0.508301 0.000000
vn -0.861084 0.508301 0.000000
vn -0.861084 0.508301 0.000000
vn -0.861084 0.508301 0.000000
vn -0.861084 0.508301 0.000000
vn -0.861084 0.508301 0.000000
vn -0.610840 0.791504 0.000000
vn -0.610840 0.791504 0.000000
vn -0.610840 0.791504 0.000000
vn -0.610840 0.791504 0.000000
vn -0.610840 0.791504 0.000000
vn -0.610840 0.791504 0.000000
vn 0.983643 0.179932 0.000000
vn 0.983643 0.179932 0.000000
vn 0.983643 0.179932 0.000000
vn 0.983643 0.179932 0.000000
vn 0.983643 0.179932 0.000000
vn 0.983643 0.179932 0.000000
vn -0.976807 -0.213867 0.000000
vn -0.999756 -0.016113 0.000000
vn -0.984619 0.174561 0.000000
vn -0.984619 0.174561 0.000000
vn -0.999756 -0.016113 0.000000
vn -0.984619 0.174561 0.000000
vn -0.937256 -0.347900 0.000000
vn -0.937256 -0.347900 0.000000
vn -0.937256 -0.347900 0.000000
vn -0.937256 -0.347900 0.000000
vn -0.937256 -0.347900 0.000000
vn -0.937256 -0.347900 0.000000
vn 0.137695 0.990234 0.000000
vn 0.137207 0.990479 -0.000244
vn 0.137207 0.990479 -0.000244
vn 0.137207 0.990479 -0.000244
vn 0.137207 0.990479 -0.000244
vn 0.136963 0.990479 -0.000488
vn 0.498291 0.866699 0.000000
vn 0.498291 0.866699 0.000000
vn 0.498291 0.866699 0.000000
vn 0.498291 0.866699 0.000000
vn 0.498291 0.866699 0.000000
vn 0.498291 0.866699 0.000000
usemtl Texture
f 1/1/1 2/2/2 3/3/3
f 4/4/4 5/5/5 6/6/6
f 7/7/7 8/8/8 9/9/9
f 10/10/10 11/11/11 12/12/12
f 13/13/13 14/14/14 15/15/15
f 16/16/16 17/17/17 18/18/18
f 19/19/19 20/20/20 21/21/21
f 22/22/22 23/23/23 24/24/24
f 25/25/25 26/26/26 27/27/27
f 28/28/28 29/29/29 30/30/30
f 31/31/31 32/32/32 33/33/33
f 34/34/34 35/35/35 36/36/36
f 37/37/37 38/38/38 39/39/39
f 40/40/40 41/41/41 42/42/42
f 43/43/43 44/44/44 45/45/45
f 46/46/46 47/47/47 48/48/48
f 49/49/49 50/50/50 51/51/51
f 52/52/52 53/53/53 54/54/54
f 55/55/55 56/56/56 57/57/57
f 58/58/58 59/59/59 60/60/60
f 61/61/61 62/62/62 63/63/63
f 64/64/64 65/65/65 66/66/66
f 67/67/67 68/68/68 69/69/69
f 70/70/70 71/71/71 72/72/72
f 73/73/73 74/74/74 75/75/75
f 76/76/76 77/77/77 78/78/78
f 79/79/79 80/80/80 81/81/81
f 82/82/82 83/83/83 84/84/84
f 85/85/85 86/86/86 87/87/87
f 88/88/88 89/89/89 90/90/90
f 91/91/91 92/92/92 93/93/93
f 94/94/94 95/95/95 96/96/96
f 97/97/97 98/98/98 99/99/99
f 100/100/100 101/101/101 102/102/102
f 103/103/103 104/104/104 105/105/105
f 106/106/106 107/107/107 108/108/108
f 109/109/109 110/110/110 111/111/111
f 112/112/112 113/113/113 114/114/114
f 115/115/115 116/116/116 117/117/117
f 118/118/118 119/119/119 120/120/120
f 121/121/121 122/122/122 123/123/123
f 124/124/124 125/125/125 126/126/126
f 127/127/127 128/128/128 129/129/129
f 130/130/130 131/131/131 132/132/132
f 133/133/133 134/134/134 135/135/135
f 136/136/136 137/137/137 138/138/138
f 139/139/139 140/140/140 141/141/141
f 142/142/142 143/143/143 144/144/144
f 145/145/145 146/146/146 147/147/147
f 148/148/148 149/149/149 150/150/150
f 151/151/151 152/152/152 153/153/153
f 154/154/154 155/155/155 156/156/156
f 157/157/157 158/158/158 159/159/159
f 160/160/160 161/161/161 162/162/162
f 163/163/163 164/164/164 165/165/165
f 166/166/166 167/167/167 168/168/168
f 169/169/169 170/170/170 171/171/171
f 172/172/172 173/173/173 174/174/174
f 175/175/175 176/176/176 177/177/177
f 178/178/178 179/179/179 180/180/180
f 181/181/181 182/182/182 183/183/183
f 184/184/184 185/185/185 186/186/186
f 187/187/187 188/188/188 189/189/189
f 190/190/190 191/191/191 192/192/192
f 193/193/193 194/194/194 195/195/195
f 196/196/196 197/197/197 198/198/198
f 199/199/199 200/200/200 201/201/201
f 202/202/202 203/203/203 204/204/204
f 205/205/205 206/206/206 207/207/207
f 208/208/208 209/209/209 210/210/210
f 211/211/211 212/212/212 213/213/213
f 214/214/214 215/215/215 216/216/216
f 217/217/217 218/218/218 219/219/219
f 220/220/220 221/221/221 222/222/222
f 223/223/223 224/224/224 225/225/225
f 226/226/226 227/227/227 228/228/228
f 229/229/229 230/230/230 231/231/231
f 232/232/232 233/233/233 234/234/234
f 235/235/235 236/236/236 237/237/237
f 238/238/238 239/239/239 240/240/240
f 241/241/241 242/242/242 243/243/243
f 244/244/244 245/245/245 246/246/246
f 247/247/247 248/248/248 249/249/249
f 250/250/250 251/251/251 252/252/252
f 253/253/253 254/254/254 255/255/255
f 256/256/256 257/257/257 258/258/258
f 259/259/259 260/260/260 261/261/261
f 262/262/262 263/263/263 264/264/264
f 265/265/265 266/266/266 267/267/267
f 268/268/268 269/269/269 270/270/270
f 271/271/271 272/272/272 273/273/273
f 274/274/274 275/275/275 276/276/276
f 277/277/277 278/278/278 279/279/279
f 280/280/280 281/281/281 282/282/282
f 283/283/283 284/284/284 285/285/285
f 286/286/286 287/287/287 288/288/288
f 289/289/289 290/290/290 291/291/291
f 292/292/292 293/293/293 294/294/294
f 295/295/295 296/296/296 297/297/297
f 298/298/298 299/299/299 300/300/300
f 301/301/301 302/302/302 303/303/303
f 304/304/304 305/305/305 306/306/306
f 307/307/307 308/308/308 309/309/309
f 310/310/310 311/311/311 312/312/312
f 313/313/313 314/314/314 315/315/315
f 316/316/316 317/317/317 318/318/318
f 319/319/319 320/320/320 321/321/321
f 322/322/322 323/323/323 324/324/324
f 325/325/325 326/326/326 327/327/327
f 328/328/328 329/329/329 330/330/330
f 331/331/331 332/332/332 333/333/333
f 334/334/334 335/335/335 336/336/336
f 337/337/337 338/338/338 339/339/339
f 340/340/340 341/341/341 342/342/342
f 343/343/343 344/344/344 345/345/345
f 346/346/346 347/347/347 348/348/348
f 349/349/349 350/350/350 351/351/351
f 352/352/352 353/353/353 354/354/354
f 355/355/355 356/356/356 357/357/357
f 358/358/358 359/359/359 360/360/360
f 361/361/361 362/362/362 363/363/363
f 364/364/364 365/365/365 366/366/366
f 367/367/367 368/368/368 369/369/369
f 370/370/370 371/371/371 372/372/372
f 373/373/373 374/374/374 375/375/375
f 376/376/376 377/377/377 378/378/378
f 379/379/379 380/380/380 381/381/381
f 382/382/382 383/383/383 384/384/384
f 385/385/385 386/386/386 387/387/387
f 388/388/388 389/389/389 390/390/390
f 391/391/391 392/392/392 393/393/393
f 394/394/394 395/395/395 396/396/396
f 397/397/397 398/398/398 399/399/399
f 400/400/400 401/401/401 402/402/402
f 403/403/403 404/404/404 405/405/405
f 406/406/406 407/407/407 408/408/408
f 409/409/409 410/410/410 411/411/411
f 412/412/412 413/413/413 414/414/414
f 415/415/415 416/416/416 417/417/417
f 418/418/418 419/419/419 420/420/420
f 421/421/421 422/422/422 423/423/423
f 424/424/424 425/425/425 426/426/426
f 427/427/427 428/428/428 429/429/429
f 430/430/430 431/431/431 432/432/432
f 433/433/433 434/434/434 435/435/435
f 436/436/436 437/437/437 438/438/438
f 439/439/439 440/440/440 441/441/441
f 442/442/442 443/443/443 444/444/444
f 445/445/445 446/446/446 447/447/447
f 448/448/448 449/449/449 450/450/450
f 451/451/451 452/452/452 453/453/453
f 454/454/454 455/455/455 456/456/456
f 457/457/457 458/458/458 459/459/459
f 460/460/460 461/461/461 462/462/462
f 463/463/463 464/464/464 465/465/465
f 466/466/466 467/467/467 468/468/468
f 469/469/469 470/470/470 471/471/471
f 472/472/472 473/473/473 474/474/474
f 475/475/475 476/476/476 477/477/477
f 478/478/478 479/479/479 480/480/480
f 481/481/481 482/482/482 483/483/483
f 484/484/484 485/485/485 486/486/486
f 487/487/487 488/488/488 489/489/489
f 490/490/490 491/491/491 492/492/492
f 493/493/493 494/494/494 495/495/495
f 496/496/496 497/497/497 498/498/498
f 499/499/499 500/500/500 501/501/501
f 502/502/502 503/503/503 504/504/504
f 505/505/505 506/506/506 507/507/507
f 508/508/508 509/509/509 510/510/510
f 511/511/511 512/512/512 513/513/513
f 514/514/514 515/515/515 516/516/516
f 517/517/517 518/518/518 519/519/519
f 520/520/520 521/521/521 522/522/522
f 523/523/523 524/524/524 525/525/525
f 526/526/526 527/527/527 528/528/528