# OBJ file
mtllib takuyo.ico.mtl
v 1.327637 0.192139 -0.948486 0.501961 0.501961 0.501961 #0.501961
v 1.327637 0.192139 -0.841064 0.501961 0.501961 0.501961 #0.501961
v 0.842041 0.192139 -0.841064 0.501961 0.501961 0.501961 #0.501961
v 0.842041 0.192139 -0.841064 0.501961 0.501961 0.501961 #0.501961
v 0.842041 0.192139 -0.948486 0.501961 0.501961 0.501961 #0.501961
v 1.327637 0.192139 -0.948486 0.501961 0.501961 0.501961 #0.501961
v 0.842041 0.192139 -0.948486 0.501961 0.501961 0.501961 #0.501961
v 0.842041 0.192139 -0.841064 0.501961 0.501961 0.501961 #0.501961
v -0.842773 0.192139 -0.841064 0.501961 0.501961 0.501961 #0.501961
v -0.842773 0.192139 -0.841064 0.501961 0.501961 0.501961 #0.501961
v -0.842773 0.192139 -0.948486 0.501961 0.501961 0.501961 #0.501961
v 0.842041 0.192139 -0.948486 0.501961 0.501961 0.501961 #0.501961
v -0.842773 0.192139 -0.948486 0.501961 0.501961 0.501961 #0.501961
v -0.842773 0.192139 -0.841064 0.501961 0.501961 0.501961 #0.501961
v -1.328125 0.192139 -0.841064 0.501961 0.501961 0.501961 #0.501961
v -1.328125 0.192139 -0.841064 0.501961 0.501961 0.501961 #0.501961
v -1.328125 0.192139 -0.948486 0.501961 0.501961 0.501961 #0.501961
v -0.842773 0.192139 -0.948486 0.501961 0.501961 0.501961 #0.501961
v 1.327637 4.588135 -0.175049 0.501961 0.501961 0.501961 #0.501961
v 0.842041 4.937256 -0.113525 0.501961 0.501961 0.501961 #0.501961
v 0.842041 4.937256 -0.005859 0.501961 0.501961 0.501961 #0.501961
v 0.842041 4.937256 -0.005859 0.501961 0.501961 0.501961 #0.501961
v 1.327637 4.588135 -0.067627 0.501961 0.501961 0.501961 #0.501961
v 1.327637 4.588135 -0.175049 0.501961 0.501961 0.501961 #0.501961
v 0.842041 4.937256 -0.113525 0.501961 0.501961 0.501961 #0.501961
v -0.842773 4.937256 -0.113525 0.501961 0.501961 0.501961 #0.501961
v -0.842773 4.937256 -0.005859 0.501961 0.501961 0.501961 #0.501961
v -0.842773 4.937256 -0.005859 0.501961 0.501961 0.501961 #0.501961
v 0.842041 4.937256 -0.005859 0.501961 0.501961 0.501961 #0.501961
v 0.842041 4.937256 -0.113525 0.501961 0.501961 0.501961 #0.501961
v -0.842773 4.937256 -0.113525 0.501961 0.501961 0.501961 #0.501961
v -1.328125 4.588135 -0.175049 0.501961 0.501961 0.501961 #0.501961
v -1.328125 4.588135 -0.067627 0.501961 0.501961 0.501961 #0.501961
v -1.328125 4.588135 -0.067627 0.501961 0.501961 0.501961 #0.501961
v -0.842773 4.937256 -0.005859 0.501961 0.501961 0.501961 #0.501961
v -0.842773 4.937256 -0.113525 0.501961 0.501961 0.501961 #0.501961
v 1.327637 0.192139 -0.948486 0.501961 0.501961 0.501961 #0.501961
v 0.842041 0.192139 -0.948486 0.501961 0.501961 0.501961 #0.501961
v 0.842041 4.359619 -0.215332 0.501961 0.501961 0.501961 #0.501961
v 0.842041 4.359619 -0.215332 0.501961 0.501961 0.501961 #0.501961
v 1.327637 4.359619 -0.215332 0.501961 0.501961 0.501961 #0.501961
v 1.327637 0.192139 -0.948486 0.501961 0.501961 0.501961 #0.501961
v 0.842041 0.192139 -0.948486 0.501961 0.501961 0.501961 #0.501961
v -0.842773 0.192139 -0.948486 0.501961 0.501961 0.501961 #0.501961
v -0.842773 4.359619 -0.215332 0.501961 0.501961 0.501961 #0.501961
v -0.842773 4.359619 -0.215332 0.501961 0.501961 0.501961 #0.501961
v 0.842041 4.359619 -0.215332 0.501961 0.501961 0.501961 #0.501961
v 0.842041 0.192139 -0.948486 0.501961 0.501961 0.501961 #0.501961
v -0.842773 0.192139 -0.948486 0.501961 0.501961 0.501961 #0.501961
v -1.328125 0.192139 -0.948486 0.501961 0.501961 0.501961 #0.501961
v -1.328125 4.359619 -0.215332 0.501961 0.501961 0.501961 #0.501961
v -1.328125 4.359619 -0.215332 0.501961 0.501961 0.501961 #0.501961
v -0.842773 4.359619 -0.215332 0.501961 0.501961 0.501961 #0.501961
v -0.842773 0.192139 -0.948486 0.501961 0.501961 0.501961 #0.501961
v 1.327637 4.359619 -0.215332 0.501961 0.501961 0.501961 #0.501961
v 0.842041 4.359619 -0.215332 0.501961 0.501961 0.501961 #0.501961
v 0.842041 4.937256 -0.113525 0.501961 0.501961 0.501961 #0.501961
v 0.842041 4.937256 -0.113525 0.501961 0.501961 0.501961 #0.501961
v 1.327637 4.588135 -0.175049 0.501961 0.501961 0.501961 #0.501961
v 1.327637 4.359619 -0.215332 0.501961 0.501961 0.501961 #0.501961
v 0.842041 4.359619 -0.215332 0.501961 0.501961 0.501961 #0.501961
v -0.842773 4.359619 -0.215332 0.501961 0.501961 0.501961 #0.501961
v -0.842773 4.937256 -0.113525 0.501961 0.501961 0.501961 #0.501961
v -0.842773 4.937256 -0.113525 0.501961 0.501961 0.501961 #0.501961
v 0.842041 4.937256 -0.113525 0.501961 0.501961 0.501961 #0.501961
v 0.842041 4.359619 -0.215332 0.501961 0.501961 0.501961 #0.501961
v -0.842773 4.359619 -0.215332 0.501961 0.501961 0.501961 #0.501961
v -1.328125 4.359619 -0.215332 0.501961 0.501961 0.501961 #0.501961
v -1.328125 4.588135 -0.175049 0.501961 0.501961 0.501961 #0.501961
v -1.328125 4.588135 -0.175049 0.501961 0.501961 0.501961 #0.501961
v -0.842773 4.937256 -0.113525 0.501961 0.501961 0.501961 #0.501961
v -0.842773 4.359619 -0.215332 0.501961 0.501961 0.501961 #0.501961
v -1.328125 0.192139 -0.948486 0.501961 0.501961 0.501961 #0.501961
v -1.328125 0.192139 -0.841064 0.501961 0.501961 0.501961 #0.501961
v -1.328125 4.359619 -0.107910 0.501961 0.501961 0.501961 #0.501961
v -1.328125 4.359619 -0.107910 0.501961 0.501961 0.501961 #0.501961
v -1.328125 4.359619 -0.215332 0.501961 0.501961 0.501961 #0.501961
v -1.328125 0.192139 -0.948486 0.501961 0.501961 0.501961 #0.501961
v -1.328125 4.359619 -0.215332 0.501961 0.501961 0.501961 #0.501961
v -1.328125 4.359619 -0.107910 0.501961 0.501961 0.501961 #0.501961
v -1.328125 4.588135 -0.067627 0.501961 0.501961 0.501961 #0.501961
v -1.328125 4.588135 -0.067627 0.501961 0.501961 0.501961 #0.501961
v -1.328125 4.588135 -0.175049 0.501961 0.501961 0.501961 #0.501961
v -1.328125 4.359619 -0.215332 0.501961 0.501961 0.501961 #0.501961
v -1.328125 0.192139 -0.841064 0.501961 0.501961 0.501961 #0.501961
v -0.842773 0.192139 -0.841064 0.501961 0.501961 0.501961 #0.501961
v -0.842773 4.359619 -0.107910 0.501961 0.501961 0.501961 #0.501961
v -0.842773 4.359619 -0.107910 0.501961 0.501961 0.501961 #0.501961
v -1.328125 4.359619 -0.107910 0.501961 0.501961 0.501961 #0.501961
v -1.328125 0.192139 -0.841064 0.501961 0.501961 0.501961 #0.501961
v -0.842773 0.192139 -0.841064 0.501961 0.501961 0.501961 #0.501961
v 0.842041 0.192139 -0.841064 0.501961 0.501961 0.501961 #0.501961
v 0.842041 4.359619 -0.107910 0.501961 0.501961 0.501961 #0.501961
v 0.842041 4.359619 -0.107910 0.501961 0.501961 0.501961 #0.501961
v -0.842773 4.359619 -0.107910 0.501961 0.501961 0.501961 #0.501961
v -0.842773 0.192139 -0.841064 0.501961 0.501961 0.501961 #0.501961
v 0.842041 0.192139 -0.841064 0.501961 0.501961 0.501961 #0.501961
v 1.327637 0.192139 -0.841064 0.501961 0.501961 0.501961 #0.501961
v 1.327637 4.359619 -0.107910 0.501961 0.501961 0.501961 #0.501961
v 1.327637 4.359619 -0.107910 0.501961 0.501961 0.501961 #0.501961
v 0.842041 4.359619 -0.107910 0.501961 0.501961 0.501961 #0.501961
v 0.842041 0.192139 -0.841064 0.501961 0.501961 0.501961 #0.501961
v -1.328125 4.359619 -0.107910 0.501961 0.501961 0.501961 #0.501961
v -0.842773 4.359619 -0.107910 0.501961 0.501961 0.501961 #0.501961
v -0.842773 4.937256 -0.005859 0.501961 0.501961 0.501961 #0.501961
v -0.842773 4.937256 -0.005859 0.501961 0.501961 0.501961 #0.501961
v -1.328125 4.588135 -0.067627 0.501961 0.501961 0.501961 #0.501961
v -1.328125 4.359619 -0.107910 0.501961 0.501961 0.501961 #0.501961
v -0.842773 4.359619 -0.107910 0.501961 0.501961 0.501961 #0.501961
v 0.842041 4.359619 -0.107910 0.501961 0.501961 0.501961 #0.501961
v 0.842041 4.937256 -0.005859 0.501961 0.501961 0.501961 #0.501961
v 0.842041 4.937256 -0.005859 0.501961 0.501961 0.501961 #0.501961
v -0.842773 4.937256 -0.005859 0.501961 0.501961 0.501961 #0.501961
v -0.842773 4.359619 -0.107910 0.501961 0.501961 0.501961 #0.501961
v 0.842041 4.359619 -0.107910 0.501961 0.501961 0.501961 #0.501961
v 1.327637 4.359619 -0.107910 0.501961 0.501961 0.501961 #0.501961
v 1.327637 4.588135 -0.067627 0.501961 0.501961 0.501961 #0.501961
v 1.327637 4.588135 -0.067627 0.501961 0.501961 0.501961 #0.501961
v 0.842041 4.937256 -0.005859 0.501961 0.501961 0.501961 #0.501961
v 0.842041 4.359619 -0.107910 0.501961 0.501961 0.501961 #0.501961
v 1.327637 0.192139 -0.841064 0.501961 0.501961 0.501961 #0.501961
v 1.327637 0.192139 -0.948486 0.501961 0.501961 0.501961 #0.501961
v 1.327637 4.359619 -0.215332 0.501961 0.501961 0.501961 #0.501961
v 1.327637 4.359619 -0.215332 0.501961 0.501961 0.501961 #0.501961
v 1.327637 4.359619 -0.107910 0.501961 0.501961 0.501961 #0.501961
v 1.327637 0.192139 -0.841064 0.501961 0.501961 0.501961 #0.501961
v 1.327637 4.359619 -0.107910 0.501961 0.501961 0.501961 #0.501961
v 1.327637 4.359619 -0.215332 0.501961 0.501961 0.501961 #0.501961
v 1.327637 4.588135 -0.175049 0.501961 0.501961 0.501961 #0.501961
v 1.327637 4.588135 -0.175049 0.501961 0.501961 0.501961 #0.501961
v 1.327637 4.588135 -0.067627 0.501961 0.501961 0.501961 #0.501961
v 1.327637 4.359619 -0.107910 0.501961 0.501961 0.501961 #0.501961
v 0.794678 0.192139 -0.854004 0.501961 0.501961 0.501961 #0.501961
v 0.794678 0.192139 -0.804199 0.501961 0.501961 0.501961 #0.501961
v 0.733398 0.192139 -0.804199 0.501961 0.501961 0.501961 #0.501961
v 0.733398 0.192139 -0.804199 0.501961 0.501961 0.501961 #0.501961
v 0.733398 0.192139 -0.854004 0.501961 0.501961 0.501961 #0.501961
v 0.794678 0.192139 -0.854004 0.501961 0.501961 0.501961 #0.501961
v 0.733398 0.192139 -0.854004 0.501961 0.501961 0.501961 #0.501961
v 0.733398 0.192139 -0.804199 0.501961 0.501961 0.501961 #0.501961
v -0.733887 0.192139 -0.804199 0.501961 0.501961 0.501961 #0.501961
v -0.733887 0.192139 -0.804199 0.501961 0.501961 0.501961 #0.501961
v -0.733887 0.192139 -0.854004 0.501961 0.501961 0.501961 #0.501961
v 0.733398 0.192139 -0.854004 0.501961 0.501961 0.501961 #0.501961
v -0.733887 0.192139 -0.854004 0.501961 0.501961 0.501961 #0.501961
v -0.733887 0.192139 -0.804199 0.501961 0.501961 0.501961 #0.501961
v -0.795410 0.192139 -0.804199 0.501961 0.501961 0.501961 #0.501961
v -0.795410 0.192139 -0.804199 0.501961 0.501961 0.501961 #0.501961
v -0.795410 0.192139 -0.854004 0.501961 0.501961 0.501961 #0.501961
v -0.733887 0.192139 -0.854004 0.501961 0.501961 0.501961 #0.501961
v 0.794678 4.299316 -0.130615 0.501961 0.501961 0.501961 #0.501961
v 0.733398 4.299316 -0.130615 0.501961 0.501961 0.501961 #0.501961
v 0.733398 4.299316 -0.080811 0.501961 0.501961 0.501961 #0.501961
v 0.733398 4.299316 -0.080811 0.501961 0.501961 0.501961 #0.501961
v 0.794678 4.299316 -0.080811 0.501961 0.501961 0.501961 #0.501961
v 0.794678 4.299316 -0.130615 0.501961 0.501961 0.501961 #0.501961
v 0.733398 4.299316 -0.130615 0.501961 0.501961 0.501961 #0.501961
v -0.733887 4.299316 -0.130615 0.501961 0.501961 0.501961 #0.501961
v -0.733887 4.299316 -0.080811 0.501961 0.501961 0.501961 #0.501961
v -0.733887 4.299316 -0.080811 0.501961 0.501961 0.501961 #0.501961
v 0.733398 4.299316 -0.080811 0.501961 0.501961 0.501961 #0.501961
v 0.733398 4.299316 -0.130615 0.501961 0.501961 0.501961 #0.501961
v -0.733887 4.299316 -0.130615 0.501961 0.501961 0.501961 #0.501961
v -0.795410 4.299316 -0.130615 0.501961 0.501961 0.501961 #0.501961
v -0.795410 4.299316 -0.080811 0.501961 0.501961 0.501961 #0.501961
v -0.795410 4.299316 -0.080811 0.501961 0.501961 0.501961 #0.501961
v -0.733887 4.299316 -0.080811 0.501961 0.501961 0.501961 #0.501961
v -0.733887 4.299316 -0.130615 0.501961 0.501961 0.501961 #0.501961
v 0.794678 0.192139 -0.854004 0.501961 0.501961 0.501961 #0.501961
v 0.733398 0.192139 -0.854004 0.501961 0.501961 0.501961 #0.501961
v 0.733398 1.341797 -0.643066 0.501961 0.501961 0.501961 #0.501961
v 0.733398 1.341797 -0.643066 0.501961 0.501961 0.501961 #0.501961
v 0.794678 1.341797 -0.643066 0.501961 0.501961 0.501961 #0.501961
v 0.794678 0.192139 -0.854004 0.501961 0.501961 0.501961 #0.501961
v 0.733398 0.192139 -0.854004 0.501961 0.501961 0.501961 #0.501961
v -0.733887 0.192139 -0.854004 0.501961 0.501961 0.501961 #0.501961
v -0.733887 1.341797 -0.643066 0.501961 0.501961 0.501961 #0.501961
v -0.733887 1.341797 -0.643066 0.501961 0.501961 0.501961 #0.501961
v 0.733398 1.341797 -0.643066 0.501961 0.501961 0.501961 #0.501961
v 0.733398 0.192139 -0.854004 0.501961 0.501961 0.501961 #0.501961
v -0.733887 0.192139 -0.854004 0.501961 0.501961 0.501961 #0.501961
v -0.795410 0.192139 -0.854004 0.501961 0.501961 0.501961 #0.501961
v -0.795410 1.341797 -0.643066 0.501961 0.501961 0.501961 #0.501961
v -0.795410 1.341797 -0.643066 0.501961 0.501961 0.501961 #0.501961
v -0.733887 1.341797 -0.643066 0.501961 0.501961 0.501961 #0.501961
v -0.733887 0.192139 -0.854004 0.501961 0.501961 0.501961 #0.501961
v 0.794678 1.341797 -0.643066 0.501961 0.501961 0.501961 #0.501961
v 0.733398 1.341797 -0.643066 0.501961 0.501961 0.501961 #0.501961
v 0.733398 2.931641 -0.371826 0.501961 0.501961 0.501961 #0.501961
v 0.733398 2.931641 -0.371826 0.501961 0.501961 0.501961 #0.501961
v 0.794678 2.931641 -0.371826 0.501961 0.501961 0.501961 #0.501961
v 0.794678 1.341797 -0.643066 0.501961 0.501961 0.501961 #0.501961
v 0.733398 1.341797 -0.643066 0.501961 0.501961 0.501961 #0.501961
v -0.733887 1.341797 -0.643066 0.501961 0.501961 0.501961 #0.501961
v -0.733887 2.931641 -0.371826 0.501961 0.501961 0.501961 #0.501961
v -0.733887 2.931641 -0.371826 0.501961 0.501961 0.501961 #0.501961
v 0.733398 2.931641 -0.371826 0.501961 0.501961 0.501961 #0.501961
v 0.733398 1.341797 -0.643066 0.501961 0.501961 0.501961 #0.501961
v -0.733887 1.341797 -0.643066 0.501961 0.501961 0.501961 #0.501961
v -0.795410 1.341797 -0.643066 0.501961 0.501961 0.501961 #0.501961
v -0.795410 2.931641 -0.371826 0.501961 0.501961 0.501961 #0.501961
v -0.795410 2.931641 -0.371826 0.501961 0.501961 0.501961 #0.501961
v -0.733887 2.931641 -0.371826 0.501961 0.501961 0.501961 #0.501961
v -0.733887 1.341797 -0.643066 0.501961 0.501961 0.501961 #0.501961
v 0.794678 2.931641 -0.371826 0.501961 0.501961 0.501961 #0.501961
v 0.733398 2.931641 -0.371826 0.501961 0.501961 0.501961 #0.501961
v 0.733398 4.299316 -0.130615 0.501961 0.501961 0.501961 #0.501961
v 0.733398 4.299316 -0.130615 0.501961 0.501961 0.501961 #0.501961
v 0.794678 4.299316 -0.130615 0.501961 0.501961 0.501961 #0.501961
v 0.794678 2.931641 -0.371826 0.501961 0.501961 0.501961 #0.501961
v 0.733398 2.931641 -0.371826 0.501961 0.501961 0.501961 #0.501961
v -0.733887 2.931641 -0.371826 0.501961 0.501961 0.501961 #0.501961
v -0.733887 4.299316 -0.130615 0.501961 0.501961 0.501961 #0.501961
v -0.733887 4.299316 -0.130615 0.501961 0.501961 0.501961 #0.501961
v 0.733398 4.299316 -0.130615 0.501961 0.501961 0.501961 #0.501961
v 0.733398 2.931641 -0.371826 0.501961 0.501961 0.501961 #0.501961
v -0.733887 2.931641 -0.371826 0.501961 0.501961 0.501961 #0.501961
v -0.795410 2.931641 -0.371826 0.501961 0.501961 0.501961 #0.501961
v -0.795410 4.299316 -0.130615 0.501961 0.501961 0.501961 #0.501961
v -0.795410 4.299316 -0.130615 0.501961 0.501961 0.501961 #0.501961
v -0.733887 4.299316 -0.130615 0.501961 0.501961 0.501961 #0.501961
v -0.733887 2.931641 -0.371826 0.501961 0.501961 0.501961 #0.501961
v -0.795410 0.192139 -0.854004 0.501961 0.501961 0.501961 #0.501961
v -0.795410 0.192139 -0.804199 0.501961 0.501961 0.501961 #0.501961
v -0.795410 1.341797 -0.593262 0.501961 0.501961 0.501961 #0.501961
v -0.795410 1.341797 -0.593262 0.501961 0.501961 0.501961 #0.501961
v -0.795410 1.341797 -0.643066 0.501961 0.501961 0.501961 #0.501961
v -0.795410 0.192139 -0.854004 0.501961 0.501961 0.501961 #0.501961
v -0.795410 1.341797 -0.643066 0.501961 0.501961 0.501961 #0.501961
v -0.795410 1.341797 -0.593262 0.501961 0.501961 0.501961 #0.501961
v -0.795410 2.931641 -0.321777 0.501961 0.501961 0.501961 #0.501961
v -0.795410 2.931641 -0.321777 0.501961 0.501961 0.501961 #0.501961
v -0.795410 2.931641 -0.371826 0.501961 0.501961 0.501961 #0.501961
v -0.795410 1.341797 -0.643066 0.501961 0.501961 0.501961 #0.501961
v -0.795410 2.931641 -0.371826 0.501961 0.501961 0.501961 #0.501961
v -0.795410 2.931641 -0.321777 0.501961 0.501961 0.501961 #0.501961
v -0.795410 4.299316 -0.080811 0.501961 0.501961 0.501961 #0.501961
v -0.795410 4.299316 -0.080811 0.501961 0.501961 0.501961 #0.501961
v -0.795410 4.299316 -0.130615 0.501961 0.501961 0.501961 #0.501961
v -0.795410 2.931641 -0.371826 0.501961 0.501961 0.501961 #0.501961
v -0.795410 0.192139 0.552734 0.501961 0.501961 0.501961 #0.501961
v -0.733887 0.192139 0.552734 0.501961 0.501961 0.501961 #0.501961
v -0.733887 1.564209 0.459961 0.501961 0.501961 0.501961 #0.501961
v -0.733887 1.564209 0.459961 0.501961 0.501961 0.501961 #0.501961
v -0.795410 1.564209 0.459961 0.501961 0.501961 0.501961 #0.501961
v -0.795410 0.192139 0.552734 0.501961 0.501961 0.501961 #0.501961
v -0.733887 0.192139 -0.804199 0.501961 0.501961 0.501961 #0.501961
v 0.733398 0.192139 -0.804199 0.501961 0.501961 0.501961 #0.501961
v 0.733398 1.341797 -0.593262 0.501961 0.501961 0.501961 #0.501961
v 0.733398 1.341797 -0.593262 0.501961 0.501961 0.501961 #0.501961
v -0.733887 1.341797 -0.593262 0.501961 0.501961 0.501961 #0.501961
v -0.733887 0.192139 -0.804199 0.501961 0.501961 0.501961 #0.501961
v 0.733398 0.192139 0.552734 0.501961 0.501961 0.501961 #0.501961
v 0.794678 0.192139 0.552734 0.501961 0.501961 0.501961 #0.501961
v 0.794678 1.564209 0.459961 0.501961 0.501961 0.501961 #0.501961
v 0.794678 1.564209 0.459961 0.501961 0.501961 0.501961 #0.501961
v 0.733398 1.564209 0.459961 0.501961 0.501961 0.501961 #0.501961
v 0.733398 0.192139 0.552734 0.501961 0.501961 0.501961 #0.501961
v -0.795410 1.341797 -0.593262 0.501961 0.501961 0.501961 #0.501961
v -0.733887 1.341797 -0.593262 0.501961 0.501961 0.501961 #0.501961
v -0.733887 2.931641 -0.321777 0.501961 0.501961 0.501961 #0.501961
v -0.733887 2.931641 -0.321777 0.501961 0.501961 0.501961 #0.501961
v -0.795410 2.931641 -0.321777 0.501961 0.501961 0.501961 #0.501961
v -0.795410 1.341797 -0.593262 0.501961 0.501961 0.501961 #0.501961
v -0.733887 1.341797 -0.593262 0.501961 0.501961 0.501961 #0.501961
v 0.733398 1.341797 -0.593262 0.501961 0.501961 0.501961 #0.501961
v 0.733398 2.931641 -0.321777 0.501961 0.501961 0.501961 #0.501961
v 0.733398 2.931641 -0.321777 0.501961 0.501961 0.501961 #0.501961
v -0.733887 2.931641 -0.321777 0.501961 0.501961 0.501961 #0.501961
v -0.733887 1.341797 -0.593262 0.501961 0.501961 0.501961 #0.501961
v 0.733398 1.341797 -0.593262 0.501961 0.501961 0.501961 #0.501961
v 0.794678 1.341797 -0.593262 0.501961 0.501961 0.501961 #0.501961
v 0.794678 2.931641 -0.321777 0.501961 0.501961 0.501961 #0.501961
v 0.794678 2.931641 -0.321777 0.501961 0.501961 0.501961 #0.501961
v 0.733398 2.931641 -0.321777 0.501961 0.501961 0.501961 #0.501961
v 0.733398 1.341797 -0.593262 0.501961 0.501961 0.501961 #0.501961
v -0.795410 2.931641 0.259521 0.501961 0.501961 0.501961 #0.501961
v -0.733887 2.931641 0.259521 0.501961 0.501961 0.501961 #0.501961
v -0.733887 4.299316 0.306885 0.501961 0.501961 0.501961 #0.501961
v -0.733887 4.299316 0.306885 0.501961 0.501961 0.501961 #0.501961
v -0.795410 4.299316 0.306885 0.501961 0.501961 0.501961 #0.501961
v -0.795410 2.931641 0.259521 0.501961 0.501961 0.501961 #0.501961
v -0.733887 2.931641 -0.321777 0.501961 0.501961 0.501961 #0.501961
v 0.733398 2.931641 -0.321777 0.501961 0.501961 0.501961 #0.501961
v 0.733398 4.299316 -0.080811 0.501961 0.501961 0.501961 #0.501961
v 0.733398 4.299316 -0.080811 0.501961 0.501961 0.501961 #0.501961
v -0.733887 4.299316 -0.080811 0.501961 0.501961 0.501961 #0.501961
v -0.733887 2.931641 -0.321777 0.501961 0.501961 0.501961 #0.501961
v 0.733398 2.931641 0.259521 0.501961 0.501961 0.501961 #0.501961
v 0.794678 2.931641 0.259521 0.501961 0.501961 0.501961 #0.501961
v 0.794678 4.299316 0.306885 0.501961 0.501961 0.501961 #0.501961
v 0.794678 4.299316 0.306885 0.501961 0.501961 0.501961 #0.501961
v 0.733398 4.299316 0.306885 0.501961 0.501961 0.501961 #0.501961
v 0.733398 2.931641 0.259521 0.501961 0.501961 0.501961 #0.501961
v 0.794678 0.192139 -0.804199 0.501961 0.501961 0.501961 #0.501961
v 0.794678 0.192139 -0.854004 0.501961 0.501961 0.501961 #0.501961
v 0.794678 1.341797 -0.643066 0.501961 0.501961 0.501961 #0.501961
v 0.794678 1.341797 -0.643066 0.501961 0.501961 0.501961 #0.501961
v 0.794678 1.341797 -0.593262 0.501961 0.501961 0.501961 #0.501961
v 0.794678 0.192139 -0.804199 0.501961 0.501961 0.501961 #0.501961
v 0.794678 1.341797 -0.593262 0.501961 0.501961 0.501961 #0.501961
v 0.794678 1.341797 -0.643066 0.501961 0.501961 0.501961 #0.501961
v 0.794678 2.931641 -0.371826 0.501961 0.501961 0.501961 #0.501961
v 0.794678 2.931641 -0.371826 0.501961 0.501961 0.501961 #0.501961
v 0.794678 2.931641 -0.321777 0.501961 0.501961 0.501961 #0.501961
v 0.794678 1.341797 -0.593262 0.501961 0.501961 0.501961 #0.501961
v 0.794678 2.931641 -0.321777 0.501961 0.501961 0.501961 #0.501961
v 0.794678 2.931641 -0.371826 0.501961 0.501961 0.501961 #0.501961
v 0.794678 4.299316 -0.130615 0.501961 0.501961 0.501961 #0.501961
v 0.794678 4.299316 -0.130615 0.501961 0.501961 0.501961 #0.501961
v 0.794678 4.299316 -0.080811 0.501961 0.501961 0.501961 #0.501961
v 0.794678 2.931641 -0.321777 0.501961 0.501961 0.501961 #0.501961
v 0.733398 0.192139 -0.804199 0.501961 0.501961 0.501961 #0.501961
v 0.794678 0.192139 -0.804199 0.501961 0.501961 0.501961 #0.501961
v 0.794678 0.192139 -0.416504 0.501961 0.501961 0.501961 #0.501961
v 0.794678 0.192139 -0.416504 0.501961 0.501961 0.501961 #0.501961
v 0.733398 0.192139 -0.416504 0.501961 0.501961 0.501961 #0.501961
v 0.733398 0.192139 -0.804199 0.501961 0.501961 0.501961 #0.501961
v -0.795410 0.192139 -0.804199 0.501961 0.501961 0.501961 #0.501961
v -0.733887 0.192139 -0.804199 0.501961 0.501961 0.501961 #0.501961
v -0.733887 0.192139 -0.416504 0.501961 0.501961 0.501961 #0.501961
v -0.733887 0.192139 -0.416504 0.501961 0.501961 0.501961 #0.501961
v -0.795410 0.192139 -0.416504 0.501961 0.501961 0.501961 #0.501961
v -0.795410 0.192139 -0.804199 0.501961 0.501961 0.501961 #0.501961
v 0.794678 4.299316 -0.080811 0.501961 0.501961 0.501961 #0.501961
v 0.733398 4.299316 -0.080811 0.501961 0.501961 0.501961 #0.501961
v 0.733398 4.299316 0.306885 0.501961 0.501961 0.501961 #0.501961
v 0.733398 4.299316 0.306885 0.501961 0.501961 0.501961 #0.501961
v 0.794678 4.299316 0.306885 0.501961 0.501961 0.501961 #0.501961
v 0.794678 4.299316 -0.080811 0.501961 0.501961 0.501961 #0.501961
v -0.733887 4.299316 -0.080811 0.501961 0.501961 0.501961 #0.501961
v -0.795410 4.299316 -0.080811 0.501961 0.501961 0.501961 #0.501961
v -0.795410 4.299316 0.306885 0.501961 0.501961 0.501961 #0.501961
v -0.795410 4.299316 0.306885 0.501961 0.501961 0.501961 #0.501961
v -0.733887 4.299316 0.306885 0.501961 0.501961 0.501961 #0.501961
v -0.733887 4.299316 -0.080811 0.501961 0.501961 0.501961 #0.501961
v -0.795410 1.341797 -0.593262 0.501961 0.501961 0.501961 #0.501961
v -0.795410 0.192139 -0.804199 0.501961 0.501961 0.501961 #0.501961
v -0.795410 0.192139 -0.416504 0.501961 0.501961 0.501961 #0.501961
v -0.795410 0.192139 -0.416504 0.501961 0.501961 0.501961 #0.501961
v -0.795410 1.457764 -0.175293 0.501961 0.501961 0.501961 #0.501961
v -0.795410 1.341797 -0.593262 0.501961 0.501961 0.501961 #0.501961
v -0.795410 4.299316 -0.080811 0.501961 0.501961 0.501961 #0.501961
v -0.795410 2.931641 -0.321777 0.501961 0.501961 0.501961 #0.501961
v -0.795410 2.931641 0.259521 0.501961 0.501961 0.501961 #0.501961
v -0.795410 2.931641 0.259521 0.501961 0.501961 0.501961 #0.501961
v -0.795410 4.299316 0.306885 0.501961 0.501961 0.501961 #0.501961
v -0.795410 4.299316 -0.080811 0.501961 0.501961 0.501961 #0.501961
v -0.733887 0.192139 -0.804199 0.501961 0.501961 0.501961 #0.501961
v -0.733887 1.341797 -0.593262 0.501961 0.501961 0.501961 #0.501961
v -0.733887 1.457764 -0.175293 0.501961 0.501961 0.501961 #0.501961
v -0.733887 1.457764 -0.175293 0.501961 0.501961 0.501961 #0.501961
v -0.733887 0.192139 -0.416504 0.501961 0.501961 0.501961 #0.501961
v -0.733887 0.192139 -0.804199 0.501961 0.501961 0.501961 #0.501961
v -0.733887 1.341797 -0.593262 0.501961 0.501961 0.501961 #0.501961
v -0.795410 1.341797 -0.593262 0.501961 0.501961 0.501961 #0.501961
v -0.795410 1.457764 -0.175293 0.501961 0.501961 0.501961 #0.501961
v -0.795410 1.457764 -0.175293 0.501961 0.501961 0.501961 #0.501961
v -0.733887 1.457764 -0.175293 0.501961 0.501961 0.501961 #0.501961
v -0.733887 1.341797 -0.593262 0.501961 0.501961 0.501961 #0.501961
v 0.733398 1.341797 -0.593262 0.501961 0.501961 0.501961 #0.501961
v 0.733398 0.192139 -0.804199 0.501961 0.501961 0.501961 #0.501961
v 0.733398 0.192139 -0.416504 0.501961 0.501961 0.501961 #0.501961
v 0.733398 0.192139 -0.416504 0.501961 0.501961 0.501961 #0.501961
v 0.733398 1.457764 -0.175293 0.501961 0.501961 0.501961 #0.501961
v 0.733398 1.341797 -0.593262 0.501961 0.501961 0.501961 #0.501961
v 0.794678 0.192139 -0.804199 0.501961 0.501961 0.501961 #0.501961
v 0.794678 1.341797 -0.593262 0.501961 0.501961 0.501961 #0.501961
v 0.794678 1.457764 -0.175293 0.501961 0.501961 0.501961 #0.501961
v 0.794678 1.457764 -0.175293 0.501961 0.501961 0.501961 #0.501961
v 0.794678 0.192139 -0.416504 0.501961 0.501961 0.501961 #0.501961
v 0.794678 0.192139 -0.804199 0.501961 0.501961 0.501961 #0.501961
v 0.794678 1.341797 -0.593262 0.501961 0.501961 0.501961 #0.501961
v 0.733398 1.341797 -0.593262 0.501961 0.501961 0.501961 #0.501961
v 0.733398 1.457764 -0.175293 0.501961 0.501961 0.501961 #0.501961
v 0.733398 1.457764 -0.175293 0.501961 0.501961 0.501961 #0.501961
v 0.794678 1.457764 -0.175293 0.501961 0.501961 0.501961 #0.501961
v 0.794678 1.341797 -0.593262 0.501961 0.501961 0.501961 #0.501961
v -0.795410 2.931641 -0.321777 0.501961 0.501961 0.501961 #0.501961
v -0.733887 2.931641 -0.321777 0.501961 0.501961 0.501961 #0.501961
v -0.733887 2.931641 0.259521 0.501961 0.501961 0.501961 #0.501961
v -0.733887 2.931641 0.259521 0.501961 0.501961 0.501961 #0.501961
v -0.795410 2.931641 0.259521 0.501961 0.501961 0.501961 #0.501961
v -0.795410 2.931641 -0.321777 0.501961 0.501961 0.501961 #0.501961
v 0.733398 2.931641 -0.321777 0.501961 0.501961 0.501961 #0.501961
v 0.794678 2.931641 -0.321777 0.501961 0.501961 0.501961 #0.501961
v 0.794678 2.931641 0.259521 0.501961 0.501961 0.501961 #0.501961
v 0.794678 2.931641 0.259521 0.501961 0.501961 0.501961 #0.501961
v 0.733398 2.931641 0.259521 0.501961 0.501961 0.501961 #0.501961
v 0.733398 2.931641 -0.321777 0.501961 0.501961 0.501961 #0.501961
v -0.733887 2.931641 -0.321777 0.501961 0.501961 0.501961 #0.501961
v -0.733887 4.299316 -0.080811 0.501961 0.501961 0.501961 #0.501961
v -0.733887 4.299316 0.306885 0.501961 0.501961 0.501961 #0.501961
v -0.733887 4.299316 0.306885 0.501961 0.501961 0.501961 #0.501961
v -0.733887 2.931641 0.259521 0.501961 0.501961 0.501961 #0.501961
v -0.733887 2.931641 -0.321777 0.501961 0.501961 0.501961 #0.501961
v 0.733398 4.299316 -0.080811 0.501961 0.501961 0.501961 #0.501961
v 0.733398 2.931641 -0.321777 0.501961 0.501961 0.501961 #0.501961
v 0.733398 2.931641 0.259521 0.501961 0.501961 0.501961 #0.501961
v 0.733398 2.931641 0.259521 0.501961 0.501961 0.501961 #0.501961
v 0.733398 4.299316 0.306885 0.501961 0.501961 0.501961 #0.501961
v 0.733398 4.299316 -0.080811 0.501961 0.501961 0.501961 #0.501961
v 0.794678 2.931641 -0.321777 0.501961 0.501961 0.501961 #0.501961
v 0.794678 4.299316 -0.080811 0.501961 0.501961 0.501961 #0.501961
v 0.794678 4.299316 0.306885 0.501961 0.501961 0.501961 #0.501961
v 0.794678 4.299316 0.306885 0.501961 0.501961 0.501961 #0.501961
v 0.794678 2.931641 0.259521 0.501961 0.501961 0.501961 #0.501961
v 0.794678 2.931641 -0.321777 0.501961 0.501961 0.501961 #0.501961
v -0.795410 0.192139 -0.416504 0.501961 0.501961 0.501961 #0.501961
v -0.733887 0.192139 -0.416504 0.501961 0.501961 0.501961 #0.501961
v -0.733887 0.192139 -0.028564 0.501961 0.501961 0.501961 #0.501961
v -0.733887 0.192139 -0.028564 0.501961 0.501961 0.501961 #0.501961
v -0.795410 0.192139 -0.028564 0.501961 0.501961 0.501961 #0.501961
v -0.795410 0.192139 -0.416504 0.501961 0.501961 0.501961 #0.501961
v -0.733887 0.192139 -0.416504 0.501961 0.501961 0.501961 #0.501961
v -0.733887 1.457764 -0.175293 0.501961 0.501961 0.501961 #0.501961
v -0.733887 1.564209 0.212158 0.501961 0.501961 0.501961 #0.501961
v -0.733887 1.564209 0.212158 0.501961 0.501961 0.501961 #0.501961
v -0.733887 0.192139 -0.028564 0.501961 0.501961 0.501961 #0.501961
v -0.733887 0.192139 -0.416504 0.501961 0.501961 0.501961 #0.501961
v -0.733887 1.457764 -0.175293 0.501961 0.501961 0.501961 #0.501961
v -0.795410 1.457764 -0.175293 0.501961 0.501961 0.501961 #0.501961
v -0.795410 1.564209 0.212158 0.501961 0.501961 0.501961 #0.501961
v -0.795410 1.564209 0.212158 0.501961 0.501961 0.501961 #0.501961
v -0.733887 1.564209 0.212158 0.501961 0.501961 0.501961 #0.501961
v -0.733887 1.457764 -0.175293 0.501961 0.501961 0.501961 #0.501961
v -0.795410 1.457764 -0.175293 0.501961 0.501961 0.501961 #0.501961
v -0.795410 0.192139 -0.416504 0.501961 0.501961 0.501961 #0.501961
v -0.795410 0.192139 -0.028564 0.501961 0.501961 0.501961 #0.501961
v -0.795410 0.192139 -0.028564 0.501961 0.501961 0.501961 #0.501961
v -0.795410 1.564209 0.212158 0.501961 0.501961 0.501961 #0.501961
v -0.795410 1.457764 -0.175293 0.501961 0.501961 0.501961 #0.501961
v 0.733398 0.192139 -0.416504 0.501961 0.501961 0.501961 #0.501961
v 0.794678 0.192139 -0.416504 0.501961 0.501961 0.501961 #0.501961
v 0.794678 0.192139 -0.028564 0.501961 0.501961 0.501961 #0.501961
v 0.794678 0.192139 -0.028564 0.501961 0.501961 0.501961 #0.501961
v 0.733398 0.192139 -0.028564 0.501961 0.501961 0.501961 #0.501961
v 0.733398 0.192139 -0.416504 0.501961 0.501961 0.501961 #0.501961
v 0.794678 0.192139 -0.416504 0.501961 0.501961 0.501961 #0.501961
v 0.794678 1.457764 -0.175293 0.501961 0.501961 0.501961 #0.501961
v 0.794678 1.564209 0.212158 0.501961 0.501961 0.501961 #0.501961
v 0.794678 1.564209 0.212158 0.501961 0.501961 0.501961 #0.501961
v 0.794678 0.192139 -0.028564 0.501961 0.501961 0.501961 #0.501961
v 0.794678 0.192139 -0.416504 0.501961 0.501961 0.501961 #0.501961
v 0.794678 1.457764 -0.175293 0.501961 0.501961 0.501961 #0.501961
v 0.733398 1.457764 -0.175293 0.501961 0.501961 0.501961 #0.501961
v 0.733398 1.564209 0.212158 0.501961 0.501961 0.501961 #0.501961
v 0.733398 1.564209 0.212158 0.501961 0.501961 0.501961 #0.501961
v 0.794678 1.564209 0.212158 0.501961 0.501961 0.501961 #0.501961
v 0.794678 1.457764 -0.175293 0.501961 0.501961 0.501961 #0.501961
v 0.733398 1.457764 -0.175293 0.501961 0.501961 0.501961 #0.501961
v 0.733398 0.192139 -0.416504 0.501961 0.501961 0.501961 #0.501961
v 0.733398 0.192139 -0.028564 0.501961 0.501961 0.501961 #0.501961
v 0.733398 0.192139 -0.028564 0.501961 0.501961 0.501961 #0.501961
v 0.733398 1.564209 0.212158 0.501961 0.501961 0.501961 #0.501961
v 0.733398 1.457764 -0.175293 0.501961 0.501961 0.501961 #0.501961
v -0.795410 0.192139 -0.028564 0.501961 0.501961 0.501961 #0.501961
v -0.733887 0.192139 -0.028564 0.501961 0.501961 0.501961 #0.501961
v -0.733887 0.192139 0.552734 0.501961 0.501961 0.501961 #0.501961
v -0.733887 0.192139 0.552734 0.501961 0.501961 0.501961 #0.501961
v -0.795410 0.192139 0.552734 0.501961 0.501961 0.501961 #0.501961
v -0.795410 0.192139 -0.028564 0.501961 0.501961 0.501961 #0.501961
v -0.733887 0.192139 -0.028564 0.501961 0.501961 0.501961 #0.501961
v -0.733887 1.564209 0.212158 0.501961 0.501961 0.501961 #0.501961
v -0.733887 1.564209 0.459961 0.501961 0.501961 0.501961 #0.501961
v -0.733887 1.564209 0.459961 0.501961 0.501961 0.501961 #0.501961
v -0.733887 0.192139 0.552734 0.501961 0.501961 0.501961 #0.501961
v -0.733887 0.192139 -0.028564 0.501961 0.501961 0.501961 #0.501961
v -0.733887 4.299316 0.306885 0.501961 0.501961 0.501961 #0.501961
v -0.795166 4.299316 0.306885 0.501961 0.501961 0.501961 #0.501961
v -0.795410 4.299316 0.333984 0.501961 0.501961 0.501961 #0.501961
v -0.795410 4.299316 0.333984 0.501961 0.501961 0.501961 #0.501961
v -0.733887 4.299316 0.333984 0.501961 0.501961 0.501961 #0.501961
v -0.733887 4.299316 0.306885 0.501961 0.501961 0.501961 #0.501961
v -0.795410 1.564209 0.212158 0.501961 0.501961 0.501961 #0.501961
v -0.795410 0.192139 -0.028564 0.501961 0.501961 0.501961 #0.501961
v -0.795410 0.192139 0.552734 0.501961 0.501961 0.501961 #0.501961
v -0.795410 0.192139 0.552734 0.501961 0.501961 0.501961 #0.501961
v -0.795410 1.564209 0.459961 0.501961 0.501961 0.501961 #0.501961
v -0.795410 1.564209 0.212158 0.501961 0.501961 0.501961 #0.501961
v 0.733398 0.192139 -0.028564 0.501961 0.501961 0.501961 #0.501961
v 0.794678 0.192139 -0.028564 0.501961 0.501961 0.501961 #0.501961
v 0.794678 0.192139 0.552734 0.501961 0.501961 0.501961 #0.501961
v 0.794678 0.192139 0.552734 0.501961 0.501961 0.501961 #0.501961
v 0.733398 0.192139 0.552734 0.501961 0.501961 0.501961 #0.501961
v 0.733398 0.192139 -0.028564 0.501961 0.501961 0.501961 #0.501961
v 0.794678 0.192139 -0.028564 0.501961 0.501961 0.501961 #0.501961
v 0.794678 1.564209 0.212158 0.501961 0.501961 0.501961 #0.501961
v 0.794678 1.564209 0.459961 0.501961 0.501961 0.501961 #0.501961
v 0.794678 1.564209 0.459961 0.501961 0.501961 0.501961 #0.501961
v 0.794678 0.192139 0.552734 0.501961 0.501961 0.501961 #0.501961
v 0.794678 0.192139 -0.028564 0.501961 0.501961 0.501961 #0.501961
v 0.794678 4.299316 0.306885 0.501961 0.501961 0.501961 #0.501961
v 0.733398 4.299316 0.306885 0.501961 0.501961 0.501961 #0.501961
v 0.733398 4.299316 0.333984 0.501961 0.501961 0.501961 #0.501961
v 0.733398 4.299316 0.333984 0.501961 0.501961 0.501961 #0.501961
v 0.794678 4.299316 0.333984 0.501961 0.501961 0.501961 #0.501961
v 0.794678 4.299316 0.306885 0.501961 0.501961 0.501961 #0.501961
v 0.733398 1.564209 0.212158 0.501961 0.501961 0.501961 #0.501961
v 0.733398 0.192139 -0.028564 0.501961 0.501961 0.501961 #0.501961
v 0.733398 0.192139 0.552734 0.501961 0.501961 0.501961 #0.501961
v 0.733398 0.192139 0.552734 0.501961 0.501961 0.501961 #0.501961
v 0.733398 1.564209 0.459961 0.501961 0.501961 0.501961 #0.501961
v 0.733398 1.564209 0.212158 0.501961 0.501961 0.501961 #0.501961
v -0.795410 1.564209 0.459961 0.501961 0.501961 0.501961 #0.501961
v -0.733887 1.564209 0.459961 0.501961 0.501961 0.501961 #0.501961
v -0.733887 4.299316 0.333984 0.501961 0.501961 0.501961 #0.501961
v -0.733887 4.299316 0.333984 0.501961 0.501961 0.501961 #0.501961
v -0.795410 4.299316 0.333984 0.501961 0.501961 0.501961 #0.501961
v -0.795410 1.564209 0.459961 0.501961 0.501961 0.501961 #0.501961
v 0.733398 1.564209 0.459961 0.501961 0.501961 0.501961 #0.501961
v 0.794678 1.564209 0.459961 0.501961 0.501961 0.501961 #0.501961
v 0.794678 4.299316 0.333984 0.501961 0.501961 0.501961 #0.501961
v 0.794678 4.299316 0.333984 0.501961 0.501961 0.501961 #0.501961
v 0.733398 4.299316 0.333984 0.501961 0.501961 0.501961 #0.501961
v 0.733398 1.564209 0.459961 0.501961 0.501961 0.501961 #0.501961
v -0.733887 1.564209 0.212158 0.501961 0.501961 0.501961 #0.501961
v -0.795410 1.564209 0.212158 0.501961 0.501961 0.501961 #0.501961
v -0.795166 4.299316 0.306885 0.501961 0.501961 0.501961 #0.501961
v -0.795166 4.299316 0.306885 0.501961 0.501961 0.501961 #0.501961
v -0.733887 4.299316 0.306885 0.501961 0.501961 0.501961 #0.501961
v -0.733887 1.564209 0.212158 0.501961 0.501961 0.501961 #0.501961
v 0.794678 1.564209 0.212158 0.501961 0.501961 0.501961 #0.501961
v 0.733398 1.564209 0.212158 0.501961 0.501961 0.501961 #0.501961
v 0.733398 4.299316 0.306885 0.501961 0.501961 0.501961 #0.501961
v 0.733398 4.299316 0.306885 0.501961 0.501961 0.501961 #0.501961
v 0.794678 4.299316 0.306885 0.501961 0.501961 0.501961 #0.501961
v 0.794678 1.564209 0.212158 0.501961 0.501961 0.501961 #0.501961
v -0.733887 1.564209 0.459961 0.501961 0.501961 0.501961 #0.501961
v -0.733887 1.564209 0.212158 0.501961 0.501961 0.501961 #0.501961
v -0.733887 4.299316 0.306885 0.501961 0.501961 0.501961 #0.501961
v -0.733887 4.299316 0.306885 0.501961 0.501961 0.501961 #0.501961
v -0.733887 4.299316 0.333984 0.501961 0.501961 0.501961 #0.501961
v -0.733887 1.564209 0.459961 0.501961 0.501961 0.501961 #0.501961
v -0.795410 1.564209 0.212158 0.501961 0.501961 0.501961 #0.501961
v -0.795410 1.564209 0.459961 0.501961 0.501961 0.501961 #0.501961
v -0.795410 4.299316 0.333984 0.501961 0.501961 0.501961 #0.501961
v -0.795410 4.299316 0.333984 0.501961 0.501961 0.501961 #0.501961
v -0.795166 4.299316 0.306885 0.501961 0.501961 0.501961 #0.501961
v -0.795410 1.564209 0.212158 0.501961 0.501961 0.501961 #0.501961
v 0.794678 1.564209 0.459961 0.501961 0.501961 0.501961 #0.501961
v 0.794678 1.564209 0.212158 0.501961 0.501961 0.501961 #0.501961
v 0.794678 4.299316 0.306885 0.501961 0.501961 0.501961 #0.501961
v 0.794678 4.299316 0.306885 0.501961 0.501961 0.501961 #0.501961
v 0.794678 4.299316 0.333984 0.501961 0.501961 0.501961 #0.501961
v 0.794678 1.564209 0.459961 0.501961 0.501961 0.501961 #0.501961
v 0.733398 1.564209 0.212158 0.501961 0.501961 0.501961 #0.501961
v 0.733398 1.564209 0.459961 0.501961 0.501961 0.501961 #0.501961
v 0.733398 4.299316 0.333984 0.501961 0.501961 0.501961 #0.501961
v 0.733398 4.299316 0.333984 0.501961 0.501961 0.501961 #0.501961
v 0.733398 4.299316 0.306885 0.501961 0.501961 0.501961 #0.501961
v 0.733398 1.564209 0.212158 0.501961 0.501961 0.501961 #0.501961
v 1.156738 1.563965 -0.578125 0.501961 0.501961 0.501961 #0.501961
v 1.156738 1.563965 0.245117 0.501961 0.501961 0.501961 #0.501961
v -1.157227 1.563965 0.245117 0.501961 0.501961 0.501961 #0.501961
v -1.157227 1.563965 0.245117 0.501961 0.501961 0.501961 #0.501961
v -1.157227 1.563965 -0.578125 0.501961 0.501961 0.501961 #0.501961
v 1.156738 1.563965 -0.578125 0.501961 0.501961 0.501961 #0.501961
v 1.156738 1.605713 -0.578125 0.501961 0.501961 0.501961 #0.501961
v -1.157227 1.605713 -0.578125 0.501961 0.501961 0.501961 #0.501961
v -1.157227 1.605713 0.245117 0.501961 0.501961 0.501961 #0.501961
v -1.157227 1.605713 0.245117 0.501961 0.501961 0.501961 #0.501961
v 1.156738 1.605713 0.245117 0.501961 0.501961 0.501961 #0.501961
v 1.156738 1.605713 -0.578125 0.501961 0.501961 0.501961 #0.501961
v 1.156738 1.563965 -0.578125 0.501961 0.501961 0.501961 #0.501961
v -1.157227 1.563965 -0.578125 0.501961 0.501961 0.501961 #0.501961
v -1.157227 1.605713 -0.578125 0.501961 0.501961 0.501961 #0.501961
v -1.157227 1.605713 -0.578125 0.501961 0.501961 0.501961 #0.501961
v 1.156738 1.605713 -0.578125 0.501961 0.501961 0.501961 #0.501961
v 1.156738 1.563965 -0.578125 0.501961 0.501961 0.501961 #0.501961
v -1.157227 1.563965 -0.578125 0.501961 0.501961 0.501961 #0.501961
v -1.157227 1.563965 0.245117 0.501961 0.501961 0.501961 #0.501961
v -1.157227 1.605713 0.245117 0.501961 0.501961 0.501961 #0.501961
v -1.157227 1.605713 0.245117 0.501961 0.501961 0.501961 #0.501961
v -1.157227 1.605713 -0.578125 0.501961 0.501961 0.501961 #0.501961
v -1.157227 1.563965 -0.578125 0.501961 0.501961 0.501961 #0.501961
v -1.157227 1.563965 0.245117 0.501961 0.501961 0.501961 #0.501961
v 1.156738 1.563965 0.245117 0.501961 0.501961 0.501961 #0.501961
v 1.156738 1.605713 0.245117 0.501961 0.501961 0.501961 #0.501961
v 1.156738 1.605713 0.245117 0.501961 0.501961 0.501961 #0.501961
v -1.157227 1.605713 0.245117 0.501961 0.501961 0.501961 #0.501961
v -1.157227 1.563965 0.245117 0.501961 0.501961 0.501961 #0.501961
v 1.156738 1.563965 0.245117 0.501961 0.501961 0.501961 #0.501961
v 1.156738 1.563965 -0.578125 0.501961 0.501961 0.501961 #0.501961
v 1.156738 1.605713 -0.578125 0.501961 0.501961 0.501961 #0.501961
v 1.156738 1.605713 -0.578125 0.501961 0.501961 0.501961 #0.501961
v 1.156738 1.605713 0.245117 0.501961 0.501961 0.501961 #0.501961
v 1.156738 1.563965 0.245117 0.501961 0.501961 0.501961 #0.501961
vt 0.967285 0.062012 0.000000
vt 0.967285 0.073975 0.000000
vt 0.913086 0.073975 0.000000
vt 0.913086 0.073975 0.000000
vt 0.913086 0.062012 0.000000
vt 0.967285 0.062012 0.000000
vt 0.913086 0.062012 0.000000
vt 0.913086 0.073975 0.000000
vt 0.724854 0.073975 0.000000
vt 0.724854 0.073975 0.000000
vt 0.724854 0.062012 0.000000
vt 0.913086 0.062012 0.000000
vt 0.724854 0.062012 0.000000
vt 0.724854 0.073975 0.000000
vt 0.670654 0.073975 0.000000
vt 0.670654 0.073975 0.000000
vt 0.670654 0.062012 0.000000
vt 0.724854 0.062012 0.000000
vt 0.920898 0.683105 0.000000
vt 0.946045 0.813477 0.000000
vt 0.923340 0.820557 0.000000
vt 0.923340 0.820557 0.000000
vt 0.898193 0.689941 0.000000
vt 0.920898 0.683105 0.000000
vt 0.702637 0.020996 0.000000
vt 0.973633 0.020996 0.000000
vt 0.973633 0.038330 0.000000
vt 0.973633 0.038330 0.000000
vt 0.702637 0.038330 0.000000
vt 0.702637 0.020996 0.000000
vt 0.898926 0.649658 0.000000
vt 0.920898 0.535889 0.000000
vt 0.940674 0.541992 0.000000
vt 0.940674 0.541992 0.000000
vt 0.918701 0.655762 0.000000
vt 0.898926 0.649658 0.000000
vt 0.016113 0.044434 0.000000
vt 0.108643 0.044434 0.000000
vt 0.108643 0.850098 0.000000
vt 0.108643 0.850098 0.000000
vt 0.016113 0.850098 0.000000
vt 0.016113 0.044434 0.000000
vt 0.108643 0.044434 0.000000
vt 0.429443 0.044434 0.000000
vt 0.429443 0.850098 0.000000
vt 0.429443 0.850098 0.000000
vt 0.108643 0.850098 0.000000
vt 0.108643 0.044434 0.000000
vt 0.429443 0.044434 0.000000
vt 0.521973 0.044434 0.000000
vt 0.521973 0.850098 0.000000
vt 0.521973 0.850098 0.000000
vt 0.429443 0.850098 0.000000
vt 0.429443 0.044434 0.000000
vt 0.016113 0.850098 0.000000
vt 0.108643 0.850098 0.000000
vt 0.108643 0.961670 0.000000
vt 0.108643 0.961670 0.000000
vt 0.016113 0.894287 0.000000
vt 0.016113 0.850098 0.000000
vt 0.108643 0.850098 0.000000
vt 0.429443 0.850098 0.000000
vt 0.429443 0.961670 0.000000
vt 0.429443 0.961670 0.000000
vt 0.108643 0.961670 0.000000
vt 0.108643 0.850098 0.000000
vt 0.429443 0.850098 0.000000
vt 0.521973 0.850098 0.000000
vt 0.521973 0.894287 0.000000
vt 0.521973 0.894287 0.000000
vt 0.429443 0.961670 0.000000
vt 0.429443 0.850098 0.000000
vt 0.970459 0.134033 0.000000
vt 0.979736 0.135498 0.000000
vt 0.979492 0.510742 0.000000
vt 0.979492 0.510742 0.000000
vt 0.970215 0.509033 0.000000
vt 0.970459 0.134033 0.000000
vt 0.899414 0.402100 0.000000
vt 0.949707 0.411133 0.000000
vt 0.949707 0.520752 0.000000
vt 0.949707 0.520752 0.000000
vt 0.899414 0.511963 0.000000
vt 0.899414 0.402100 0.000000
vt 0.706299 0.684326 0.000000
vt 0.736084 0.684326 0.000000
vt 0.736084 0.943848 0.000000
vt 0.736084 0.943848 0.000000
vt 0.706299 0.943848 0.000000
vt 0.706299 0.684326 0.000000
vt 0.736084 0.684326 0.000000
vt 0.839600 0.684326 0.000000
vt 0.839600 0.943848 0.000000
vt 0.839600 0.943848 0.000000
vt 0.736084 0.943848 0.000000
vt 0.736084 0.684326 0.000000
vt 0.839600 0.684326 0.000000
vt 0.869141 0.684326 0.000000
vt 0.869141 0.943848 0.000000
vt 0.869141 0.943848 0.000000
vt 0.839600 0.943848 0.000000
vt 0.839600 0.684326 0.000000
vt 0.706299 0.943848 0.000000
vt 0.736084 0.943848 0.000000
vt 0.736084 0.979736 0.000000
vt 0.736084 0.979736 0.000000
vt 0.706299 0.958008 0.000000
vt 0.706299 0.943848 0.000000
vt 0.736084 0.943848 0.000000
vt 0.839600 0.943848 0.000000
vt 0.839600 0.979736 0.000000
vt 0.839600 0.979736 0.000000
vt 0.736084 0.979736 0.000000
vt 0.736084 0.943848 0.000000
vt 0.839600 0.943848 0.000000
vt 0.869141 0.943848 0.000000
vt 0.869141 0.958008 0.000000
vt 0.869141 0.958008 0.000000
vt 0.839600 0.979736 0.000000
vt 0.839600 0.943848 0.000000
vt 0.963867 0.599609 0.000000
vt 0.971924 0.598145 0.000000
vt 0.971924 0.962158 0.000000
vt 0.971924 0.962158 0.000000
vt 0.963867 0.963867 0.000000
vt 0.963867 0.599609 0.000000
vt 0.886963 0.849121 0.000000
vt 0.942871 0.839355 0.000000
vt 0.942871 0.961670 0.000000
vt 0.942871 0.961670 0.000000
vt 0.886963 0.971436 0.000000
vt 0.886963 0.849121 0.000000
vt 0.946045 0.420898 0.000000
vt 0.946045 0.427490 0.000000
vt 0.937744 0.427490 0.000000
vt 0.937744 0.427490 0.000000
vt 0.937744 0.420898 0.000000
vt 0.946045 0.420898 0.000000
vt 0.937744 0.420898 0.000000
vt 0.937744 0.427490 0.000000
vt 0.741211 0.427490 0.000000
vt 0.741211 0.427490 0.000000
vt 0.741211 0.420898 0.000000
vt 0.937744 0.420898 0.000000
vt 0.741211 0.420898 0.000000
vt 0.741211 0.427490 0.000000
vt 0.732910 0.427490 0.000000
vt 0.732910 0.427490 0.000000
vt 0.732910 0.420898 0.000000
vt 0.741211 0.420898 0.000000
vt 0.628906 0.629883 0.000000
vt 0.640869 0.629883 0.000000
vt 0.640869 0.639648 0.000000
vt 0.640869 0.639648 0.000000
vt 0.628906 0.639648 0.000000
vt 0.628906 0.629883 0.000000
vt 0.640869 0.629883 0.000000
vt 0.923828 0.629883 0.000000
vt 0.923828 0.639648 0.000000
vt 0.923828 0.639648 0.000000
vt 0.640869 0.639648 0.000000
vt 0.640869 0.629883 0.000000
vt 0.923828 0.629883 0.000000
vt 0.935547 0.629883 0.000000
vt 0.935547 0.639648 0.000000
vt 0.935547 0.639648 0.000000
vt 0.923828 0.639648 0.000000
vt 0.923828 0.629883 0.000000
vt 0.698486 0.032959 0.000000
vt 0.701904 0.032959 0.000000
vt 0.702148 0.103271 0.000000
vt 0.702148 0.103271 0.000000
vt 0.698486 0.103271 0.000000
vt 0.698486 0.032959 0.000000
vt 0.701904 0.032959 0.000000
vt 0.785889 0.032715 0.000000
vt 0.786133 0.103271 0.000000
vt 0.786133 0.103271 0.000000
vt 0.702148 0.103271 0.000000
vt 0.701904 0.032959 0.000000
vt 0.785889 0.032715 0.000000
vt 0.789307 0.032715 0.000000
vt 0.789551 0.103271 0.000000
vt 0.789551 0.103271 0.000000
vt 0.786133 0.103271 0.000000
vt 0.785889 0.032715 0.000000
vt 0.698486 0.103271 0.000000
vt 0.702148 0.103271 0.000000
vt 0.701904 0.200439 0.000000
vt 0.701904 0.200439 0.000000
vt 0.698486 0.200439 0.000000
vt 0.698486 0.103271 0.000000
vt 0.702148 0.103271 0.000000
vt 0.786133 0.103271 0.000000
vt 0.785889 0.200439 0.000000
vt 0.785889 0.200439 0.000000
vt 0.701904 0.200439 0.000000
vt 0.702148 0.103271 0.000000
vt 0.786133 0.103271 0.000000
vt 0.789551 0.103271 0.000000
vt 0.789307 0.200439 0.000000
vt 0.789307 0.200439 0.000000
vt 0.785889 0.200439 0.000000
vt 0.786133 0.103271 0.000000
vt 0.698486 0.200439 0.000000
vt 0.701904 0.200439 0.000000
vt 0.701904 0.284180 0.000000
vt 0.701904 0.284180 0.000000
vt 0.698486 0.284180 0.000000
vt 0.698486 0.200439 0.000000
vt 0.701904 0.200439 0.000000
vt 0.785889 0.200439 0.000000
vt 0.785889 0.284180 0.000000
vt 0.785889 0.284180 0.000000
vt 0.701904 0.284180 0.000000
vt 0.701904 0.200439 0.000000
vt 0.785889 0.200439 0.000000
vt 0.789307 0.200439 0.000000
vt 0.789307 0.284180 0.000000
vt 0.789307 0.284180 0.000000
vt 0.785889 0.284180 0.000000
vt 0.785889 0.200439 0.000000
vt 0.789307 0.032715 0.000000
vt 0.790283 0.033447 0.000000
vt 0.790527 0.103760 0.000000
vt 0.790527 0.103760 0.000000
vt 0.789551 0.103271 0.000000
vt 0.789307 0.032715 0.000000
vt 0.789551 0.103271 0.000000
vt 0.790527 0.103760 0.000000
vt 0.790283 0.201172 0.000000
vt 0.790283 0.201172 0.000000
vt 0.789307 0.200439 0.000000
vt 0.789551 0.103271 0.000000
vt 0.789307 0.200439 0.000000
vt 0.790283 0.201172 0.000000
vt 0.790283 0.284668 0.000000
vt 0.790283 0.284668 0.000000
vt 0.789307 0.284180 0.000000
vt 0.789307 0.200439 0.000000
vt 0.514160 0.225830 0.000000
vt 0.516846 0.225830 0.000000
vt 0.516846 0.282715 0.000000
vt 0.516846 0.282715 0.000000
vt 0.514160 0.282715 0.000000
vt 0.514160 0.225830 0.000000
vt 0.498779 0.421143 0.000000
vt 0.582275 0.421143 0.000000
vt 0.582275 0.487549 0.000000
vt 0.582275 0.487549 0.000000
vt 0.498779 0.487549 0.000000
vt 0.498779 0.421143 0.000000
vt 0.577393 0.225830 0.000000
vt 0.579834 0.225830 0.000000
vt 0.579834 0.282715 0.000000
vt 0.579834 0.282715 0.000000
vt 0.577393 0.282715 0.000000
vt 0.577393 0.225830 0.000000
vt 0.999756 0.523438 0.000000
vt 0.961182 0.523438 0.000000
vt 0.961182 0.517090 0.000000
vt 0.961182 0.517090 0.000000
vt 0.999756 0.517090 0.000000
vt 0.999756 0.523438 0.000000
vt 0.498779 0.487549 0.000000
vt 0.582275 0.487549 0.000000
vt 0.582275 0.579346 0.000000
vt 0.582275 0.579346 0.000000
vt 0.498779 0.579346 0.000000
vt 0.498779 0.487549 0.000000
vt 0.930908 0.072266 0.000000
vt 0.930908 0.076416 0.000000
vt 0.824463 0.076416 0.000000
vt 0.824463 0.076416 0.000000
vt 0.824463 0.072266 0.000000
vt 0.930908 0.072266 0.000000
vt 0.999756 0.930176 0.000000
vt 0.961182 0.930176 0.000000
vt 0.961182 0.792480 0.000000
vt 0.961182 0.792480 0.000000
vt 0.999756 0.792480 0.000000
vt 0.999756 0.930176 0.000000
vt 0.498779 0.579346 0.000000
vt 0.582275 0.579346 0.000000
vt 0.582275 0.658203 0.000000
vt 0.582275 0.658203 0.000000
vt 0.498779 0.658203 0.000000
vt 0.498779 0.579346 0.000000
vt 0.928467 0.088379 0.000000
vt 0.928467 0.092773 0.000000
vt 0.833008 0.092773 0.000000
vt 0.833008 0.092773 0.000000
vt 0.833008 0.088379 0.000000
vt 0.928467 0.088379 0.000000
vt 0.913818 0.748047 0.000000
vt 0.916504 0.747559 0.000000
vt 0.916016 0.811768 0.000000
vt 0.916016 0.811768 0.000000
vt 0.913330 0.812256 0.000000
vt 0.913818 0.748047 0.000000
vt 0.913330 0.812256 0.000000
vt 0.916016 0.811768 0.000000
vt 0.916504 0.900146 0.000000
vt 0.916504 0.900146 0.000000
vt 0.913818 0.900635 0.000000
vt 0.913330 0.812256 0.000000
vt 0.913818 0.900635 0.000000
vt 0.916504 0.900146 0.000000
vt 0.916504 0.976318 0.000000
vt 0.916504 0.976318 0.000000
vt 0.913818 0.976807 0.000000
vt 0.913818 0.900635 0.000000
vt 0.937744 0.427490 0.000000
vt 0.946045 0.427490 0.000000
vt 0.946045 0.479492 0.000000
vt 0.946045 0.479492 0.000000
vt 0.937744 0.479492 0.000000
vt 0.937744 0.427490 0.000000
vt 0.732910 0.427490 0.000000
vt 0.741211 0.427490 0.000000
vt 0.741211 0.479492 0.000000
vt 0.741211 0.479492 0.000000
vt 0.732910 0.479492 0.000000
vt 0.732910 0.427490 0.000000
vt 0.628906 0.639648 0.000000
vt 0.640869 0.639648 0.000000
vt 0.640869 0.714355 0.000000
vt 0.640869 0.714355 0.000000
vt 0.628906 0.714355 0.000000
vt 0.628906 0.639648 0.000000
vt 0.923828 0.639648 0.000000
vt 0.935547 0.639648 0.000000
vt 0.935547 0.714355 0.000000
vt 0.935547 0.714355 0.000000
vt 0.923828 0.714355 0.000000
vt 0.923828 0.639648 0.000000
vt 0.494385 0.761963 0.000000
vt 0.493896 0.680176 0.000000
vt 0.520508 0.684814 0.000000
vt 0.520508 0.684814 0.000000
vt 0.521973 0.774902 0.000000
vt 0.494385 0.761963 0.000000
vt 0.493896 0.971924 0.000000
vt 0.493896 0.874756 0.000000
vt 0.533936 0.881836 0.000000
vt 0.533936 0.881836 0.000000
vt 0.520508 0.976562 0.000000
vt 0.493896 0.971924 0.000000
vt 0.694336 0.755615 0.000000
vt 0.693848 0.814209 0.000000
vt 0.669189 0.825439 0.000000
vt 0.669189 0.825439 0.000000
vt 0.670410 0.760986 0.000000
vt 0.694336 0.755615 0.000000
vt 0.826416 0.327637 0.000000
vt 0.831787 0.327637 0.000000
vt 0.831787 0.365723 0.000000
vt 0.831787 0.365723 0.000000
vt 0.826416 0.365723 0.000000
vt 0.826416 0.327637 0.000000
vt 0.742676 0.812744 0.000000
vt 0.742188 0.752441 0.000000
vt 0.761963 0.755859 0.000000
vt 0.761963 0.755859 0.000000
vt 0.762939 0.822510 0.000000
vt 0.742676 0.812744 0.000000
vt 0.913818 0.748047 0.000000
vt 0.913330 0.812256 0.000000
vt 0.891846 0.822510 0.000000
vt 0.891846 0.822510 0.000000
vt 0.892822 0.751709 0.000000
vt 0.913818 0.748047 0.000000
vt 0.692139 0.327637 0.000000
vt 0.697510 0.327637 0.000000
vt 0.697510 0.365723 0.000000
vt 0.697510 0.365723 0.000000
vt 0.692139 0.365723 0.000000
vt 0.692139 0.327637 0.000000
vt 0.775146 0.328369 0.000000
vt 0.782471 0.328369 0.000000
vt 0.782471 0.398193 0.000000
vt 0.782471 0.398193 0.000000
vt 0.775146 0.398193 0.000000
vt 0.775146 0.328369 0.000000
vt 0.959229 0.328369 0.000000
vt 0.966553 0.328369 0.000000
vt 0.966553 0.398193 0.000000
vt 0.966553 0.398193 0.000000
vt 0.959229 0.398193 0.000000
vt 0.959229 0.328369 0.000000
vt 0.694336 0.894775 0.000000
vt 0.694336 0.964111 0.000000
vt 0.670410 0.969482 0.000000
vt 0.670410 0.969482 0.000000
vt 0.658447 0.902832 0.000000
vt 0.694336 0.894775 0.000000
vt 0.742188 0.968262 0.000000
vt 0.742188 0.896240 0.000000
vt 0.771729 0.901611 0.000000
vt 0.771729 0.901611 0.000000
vt 0.761963 0.971680 0.000000
vt 0.742188 0.968262 0.000000
vt 0.913818 0.900635 0.000000
vt 0.913818 0.976807 0.000000
vt 0.892822 0.980469 0.000000
vt 0.892822 0.980469 0.000000
vt 0.882324 0.906250 0.000000
vt 0.913818 0.900635 0.000000
vt 0.732910 0.479492 0.000000
vt 0.741211 0.479492 0.000000
vt 0.741211 0.531494 0.000000
vt 0.741211 0.531494 0.000000
vt 0.732910 0.531494 0.000000
vt 0.732910 0.479492 0.000000
vt 0.670410 0.760986 0.000000
vt 0.669189 0.825439 0.000000
vt 0.646484 0.836182 0.000000
vt 0.646484 0.836182 0.000000
vt 0.646484 0.766357 0.000000
vt 0.670410 0.760986 0.000000
vt 0.826416 0.365723 0.000000
vt 0.831787 0.365723 0.000000
vt 0.831787 0.401123 0.000000
vt 0.831787 0.401123 0.000000
vt 0.826416 0.401123 0.000000
vt 0.826416 0.365723 0.000000
vt 0.521973 0.774902 0.000000
vt 0.520508 0.684814 0.000000
vt 0.547363 0.689453 0.000000
vt 0.547363 0.689453 0.000000
vt 0.547363 0.786865 0.000000
vt 0.521973 0.774902 0.000000
vt 0.937744 0.479492 0.000000
vt 0.946045 0.479492 0.000000
vt 0.946045 0.531494 0.000000
vt 0.946045 0.531494 0.000000
vt 0.937744 0.531494 0.000000
vt 0.937744 0.479492 0.000000
vt 0.892822 0.751709 0.000000
vt 0.891846 0.822510 0.000000
vt 0.872070 0.831787 0.000000
vt 0.872070 0.831787 0.000000
vt 0.871826 0.755371 0.000000
vt 0.892822 0.751709 0.000000
vt 0.692139 0.365723 0.000000
vt 0.697510 0.365723 0.000000
vt 0.697510 0.401123 0.000000
vt 0.697510 0.401123 0.000000
vt 0.692139 0.401123 0.000000
vt 0.692139 0.365723 0.000000
vt 0.762939 0.822510 0.000000
vt 0.761963 0.755859 0.000000
vt 0.781738 0.759277 0.000000
vt 0.781738 0.759277 0.000000
vt 0.781738 0.831543 0.000000
vt 0.762939 0.822510 0.000000
vt 0.732910 0.531494 0.000000
vt 0.741211 0.531494 0.000000
vt 0.741211 0.609131 0.000000
vt 0.741211 0.609131 0.000000
vt 0.732910 0.609131 0.000000
vt 0.732910 0.531494 0.000000
vt 0.646484 0.766357 0.000000
vt 0.646484 0.836182 0.000000
vt 0.631104 0.839600 0.000000
vt 0.631104 0.839600 0.000000
vt 0.610352 0.774658 0.000000
vt 0.646484 0.766357 0.000000
vt 0.923828 0.714355 0.000000
vt 0.935547 0.714355 0.000000
vt 0.935547 0.719727 0.000000
vt 0.935547 0.719727 0.000000
vt 0.923828 0.719727 0.000000
vt 0.923828 0.714355 0.000000
vt 0.547363 0.786865 0.000000
vt 0.547363 0.689453 0.000000
vt 0.587402 0.696533 0.000000
vt 0.587402 0.696533 0.000000
vt 0.564209 0.790039 0.000000
vt 0.547363 0.786865 0.000000
vt 0.937744 0.531494 0.000000
vt 0.946045 0.531494 0.000000
vt 0.946045 0.609131 0.000000
vt 0.946045 0.609131 0.000000
vt 0.937744 0.609131 0.000000
vt 0.937744 0.531494 0.000000
vt 0.871826 0.755371 0.000000
vt 0.872070 0.831787 0.000000
vt 0.858643 0.834229 0.000000
vt 0.858643 0.834229 0.000000
vt 0.840576 0.760986 0.000000
vt 0.871826 0.755371 0.000000
vt 0.628906 0.714355 0.000000
vt 0.640869 0.714355 0.000000
vt 0.640869 0.719727 0.000000
vt 0.640869 0.719727 0.000000
vt 0.628906 0.719727 0.000000
vt 0.628906 0.714355 0.000000
vt 0.781738 0.831543 0.000000
vt 0.781738 0.759277 0.000000
vt 0.811279 0.764648 0.000000
vt 0.811279 0.764648 0.000000
vt 0.794189 0.833740 0.000000
vt 0.781738 0.831543 0.000000
vt 0.514160 0.282715 0.000000
vt 0.516846 0.282715 0.000000
vt 0.516846 0.395752 0.000000
vt 0.516846 0.395752 0.000000
vt 0.514160 0.395752 0.000000
vt 0.514160 0.282715 0.000000
vt 0.577393 0.282715 0.000000
vt 0.579834 0.282715 0.000000
vt 0.579834 0.395752 0.000000
vt 0.579834 0.395752 0.000000
vt 0.577393 0.395752 0.000000
vt 0.577393 0.282715 0.000000
vt 0.630615 0.331055 0.000000
vt 0.636475 0.331055 0.000000
vt 0.636475 0.594971 0.000000
vt 0.636475 0.594971 0.000000
vt 0.630615 0.594971 0.000000
vt 0.630615 0.331055 0.000000
vt 0.483154 0.331055 0.000000
vt 0.489014 0.331055 0.000000
vt 0.489014 0.594971 0.000000
vt 0.489014 0.594971 0.000000
vt 0.483154 0.594971 0.000000
vt 0.483154 0.331055 0.000000
vt 0.631104 0.839600 0.000000
vt 0.646484 0.836182 0.000000
vt 0.670410 0.969482 0.000000
vt 0.670410 0.969482 0.000000
vt 0.668701 0.969971 0.000000
vt 0.631104 0.839600 0.000000
vt 0.547363 0.786865 0.000000
vt 0.564209 0.790039 0.000000
vt 0.522461 0.976807 0.000000
vt 0.522461 0.976807 0.000000
vt 0.520508 0.976562 0.000000
vt 0.547363 0.786865 0.000000
vt 0.858643 0.834229 0.000000
vt 0.872070 0.831787 0.000000
vt 0.892822 0.980469 0.000000
vt 0.892822 0.980469 0.000000
vt 0.891357 0.980713 0.000000
vt 0.858643 0.834229 0.000000
vt 0.781738 0.831543 0.000000
vt 0.794189 0.833740 0.000000
vt 0.763184 0.971924 0.000000
vt 0.763184 0.971924 0.000000
vt 0.761963 0.971680 0.000000
vt 0.781738 0.831543 0.000000
vt 0.753418 0.787842 0.000000
vt 0.753418 0.717285 0.000000
vt 0.951416 0.717285 0.000000
vt 0.951416 0.717285 0.000000
vt 0.951416 0.787842 0.000000
vt 0.753418 0.787842 0.000000
vt 0.497070 0.820557 0.000000
vt 0.745850 0.820557 0.000000
vt 0.745850 0.909180 0.000000
vt 0.745850 0.909180 0.000000
vt 0.497070 0.909180 0.000000
vt 0.497070 0.820557 0.000000
vt 0.569336 0.515625 0.000000
vt 0.892090 0.515625 0.000000
vt 0.892090 0.521484 0.000000
vt 0.892090 0.521484 0.000000
vt 0.569336 0.521484 0.000000
vt 0.569336 0.515625 0.000000
vt 0.573730 0.649414 0.000000
vt 0.831543 0.649414 0.000000
vt 0.831543 0.662354 0.000000
vt 0.831543 0.662354 0.000000
vt 0.573730 0.662354 0.000000
vt 0.573730 0.649414 0.000000
vt 0.494873 0.561768 0.000000
vt 0.897949 0.561768 0.000000
vt 0.897949 0.569092 0.000000
vt 0.897949 0.569092 0.000000
vt 0.494873 0.569092 0.000000
vt 0.494873 0.561768 0.000000
vt 0.476074 0.605957 0.000000
vt 0.717041 0.605957 0.000000
vt 0.717041 0.618164 0.000000
vt 0.717041 0.618164 0.000000
vt 0.476074 0.618164 0.000000
vt 0.476074 0.605957 0.000000
vn -0.108887 -0.147461 -0.982910
vn -0.398438 0.181152 0.898926
vn 0.000000 0.197754 0.980225
vn 0.000000 0.197754 0.980225
vn 0.000000 -0.148438 -0.988770
vn -0.108887 -0.147461 -0.982910
vn 0.000000 -0.148438 -0.988770
vn 0.000000 0.197754 0.980225
vn 0.000000 0.197754 0.980225
vn 0.000000 0.197754 0.980225
vn 0.000000 -0.148438 -0.988770
vn 0.000000 -0.148438 -0.988770
vn 0.000000 -0.148438 -0.988770
vn 0.000000 0.197754 0.980225
vn 0.107910 0.196533 0.974365
vn 0.107910 0.196533 0.974365
vn 0.401367 -0.135742 -0.905518
vn 0.000000 -0.148438 -0.988770
vn -0.598389 -0.596924 -0.533936
vn -0.024658 -0.432617 -0.901123
vn -0.033447 0.047852 0.998047
vn -0.033447 0.047852 0.998047
vn -0.156494 0.042236 0.986572
vn -0.598389 -0.596924 -0.533936
vn -0.024658 -0.432617 -0.901123
vn 0.032227 -0.291016 -0.956055
vn 0.027100 -0.126465 0.991455
vn 0.027100 -0.126465 0.991455
vn -0.033447 0.047852 0.998047
vn -0.024658 -0.432617 -0.901123
vn 0.032227 -0.291016 -0.956055
vn 0.149902 -0.292480 -0.944336
vn 0.664795 -0.453857 0.593018
vn 0.664795 -0.453857 0.593018
vn 0.027100 -0.126465 0.991455
vn 0.032227 -0.291016 -0.956055
vn -0.108887 -0.147461 -0.982910
vn 0.000000 -0.148438 -0.988770
vn 0.000000 -0.173096 -0.984863
vn 0.000000 -0.173096 -0.984863
vn -0.351807 -0.162109 -0.921875
vn -0.108887 -0.147461 -0.982910
vn 0.000000 -0.148438 -0.988770
vn 0.000000 -0.148438 -0.988770
vn 0.000000 -0.173096 -0.984863
vn 0.000000 -0.173096 -0.984863
vn 0.000000 -0.173096 -0.984863
vn 0.000000 -0.148438 -0.988770
vn 0.000000 -0.148438 -0.988770
vn 0.401367 -0.135742 -0.905518
vn 0.116943 -0.171875 -0.978027
vn 0.116943 -0.171875 -0.978027
vn 0.000000 -0.173096 -0.984863
vn 0.000000 -0.148438 -0.988770
vn -0.351807 -0.162109 -0.921875
vn 0.000000 -0.173096 -0.984863
vn -0.024658 -0.432617 -0.901123
vn -0.024658 -0.432617 -0.901123
vn -0.598389 -0.596924 -0.533936
vn -0.351807 -0.162109 -0.921875
vn 0.000000 -0.173096 -0.984863
vn 0.000000 -0.173096 -0.984863
vn 0.032227 -0.291016 -0.956055
vn 0.032227 -0.291016 -0.956055
vn -0.024658 -0.432617 -0.901123
vn 0.000000 -0.173096 -0.984863
vn 0.000000 -0.173096 -0.984863
vn 0.116943 -0.171875 -0.978027
vn 0.149902 -0.292480 -0.944336
vn 0.149902 -0.292480 -0.944336
vn 0.032227 -0.291016 -0.956055
vn 0.000000 -0.173096 -0.984863
vn 0.401367 -0.135742 -0.905518
vn 0.107910 0.196533 0.974365
vn 0.351807 0.162109 0.921875
vn 0.351807 0.162109 0.921875
vn 0.116943 -0.171875 -0.978027
vn 0.401367 -0.135742 -0.905518
vn 0.116943 -0.171875 -0.978027
vn 0.351807 0.162109 0.921875
vn 0.664795 -0.453857 0.593018
vn 0.664795 -0.453857 0.593018
vn 0.149902 -0.292480 -0.944336
vn 0.116943 -0.171875 -0.978027
vn 0.107910 0.196533 0.974365
vn 0.000000 0.197754 0.980225
vn 0.000000 0.173096 0.984863
vn 0.000000 0.173096 0.984863
vn 0.351807 0.162109 0.921875
vn 0.107910 0.196533 0.974365
vn 0.000000 0.197754 0.980225
vn 0.000000 0.197754 0.980225
vn 0.000000 0.173096 0.984863
vn 0.000000 0.173096 0.984863
vn 0.000000 0.173096 0.984863
vn 0.000000 0.197754 0.980225
vn 0.000000 0.197754 0.980225
vn -0.398438 0.181152 0.898926
vn -0.116943 0.171875 0.978027
vn -0.116943 0.171875 0.978027
vn 0.000000 0.173096 0.984863
vn 0.000000 0.197754 0.980225
vn 0.351807 0.162109 0.921875
vn 0.000000 0.173096 0.984863
vn 0.027100 -0.126465 0.991455
vn 0.027100 -0.126465 0.991455
vn 0.664795 -0.453857 0.593018
vn 0.351807 0.162109 0.921875
vn 0.000000 0.173096 0.984863
vn 0.000000 0.173096 0.984863
vn -0.033447 0.047852 0.998047
vn -0.033447 0.047852 0.998047
vn 0.027100 -0.126465 0.991455
vn 0.000000 0.173096 0.984863
vn 0.000000 0.173096 0.984863
vn -0.116943 0.171875 0.978027
vn -0.156494 0.042236 0.986572
vn -0.156494 0.042236 0.986572
vn -0.033447 0.047852 0.998047
vn 0.000000 0.173096 0.984863
vn -0.398438 0.181152 0.898926
vn -0.108887 -0.147461 -0.982910
vn -0.351807 -0.162109 -0.921875
vn -0.351807 -0.162109 -0.921875
vn -0.116943 0.171875 0.978027
vn -0.398438 0.181152 0.898926
vn -0.116943 0.171875 0.978027
vn -0.351807 -0.162109 -0.921875
vn -0.598389 -0.596924 -0.533936
vn -0.598389 -0.596924 -0.533936
vn -0.156494 0.042236 0.986572
vn -0.116943 0.171875 0.978027
vn -0.372803 -0.128418 -0.918701
vn -0.999512 0.025146 0.000000
vn 0.247803 0.242432 0.937744
vn 0.247803 0.242432 0.937744
vn 0.000000 -0.138428 -0.990234
vn -0.372803 -0.128418 -0.918701
vn 0.000000 -0.138428 -0.990234
vn 0.247803 0.242432 0.937744
vn -0.263428 0.220215 0.938965
vn -0.263428 0.220215 0.938965
vn 0.000000 -0.138428 -0.990234
vn 0.000000 -0.138428 -0.990234
vn 0.000000 -0.138428 -0.990234
vn -0.263428 0.220215 0.938965
vn 0.994141 0.106201 0.000000
vn 0.994141 0.106201 0.000000
vn 0.848877 -0.073242 -0.522949
vn 0.000000 -0.138428 -0.990234
vn -0.843994 -0.129639 -0.520020
vn 0.000000 -0.237793 -0.971191
vn 0.310303 0.141357 0.939941
vn 0.310303 0.141357 0.939941
vn -0.996338 -0.084229 0.000000
vn -0.843994 -0.129639 -0.520020
vn 0.000000 -0.237793 -0.971191
vn 0.000000 -0.191895 -0.981201
vn -0.254639 0.075195 0.963867
vn -0.254639 0.075195 0.963867
vn 0.310303 0.141357 0.939941
vn 0.000000 -0.237793 -0.971191
vn 0.000000 -0.191895 -0.981201
vn 0.369873 -0.177246 -0.911865
vn 0.999756 -0.020264 0.000000
vn 0.999756 -0.020264 0.000000
vn -0.254639 0.075195 0.963867
vn 0.000000 -0.191895 -0.981201
vn -0.372803 -0.128418 -0.918701
vn 0.000000 -0.138428 -0.990234
vn 0.000000 -0.171631 -0.985107
vn 0.000000 -0.171631 -0.985107
vn -0.583252 -0.139160 -0.800049
vn -0.372803 -0.128418 -0.918701
vn 0.000000 -0.138428 -0.990234
vn 0.000000 -0.138428 -0.990234
vn 0.000000 -0.175049 -0.984375
vn 0.000000 -0.175049 -0.984375
vn 0.000000 -0.171631 -0.985107
vn 0.000000 -0.138428 -0.990234
vn 0.000000 -0.138428 -0.990234
vn 0.848877 -0.073242 -0.522949
vn 0.664307 -0.131104 -0.735596
vn 0.664307 -0.131104 -0.735596
vn 0.000000 -0.175049 -0.984375
vn 0.000000 -0.138428 -0.990234
vn -0.583252 -0.139160 -0.800049
vn 0.000000 -0.171631 -0.985107
vn 0.000000 -0.171387 -0.985107
vn 0.000000 -0.171387 -0.985107
vn -0.643311 -0.131348 -0.753906
vn -0.583252 -0.139160 -0.800049
vn 0.000000 -0.171631 -0.985107
vn 0.000000 -0.175049 -0.984375
vn 0.000000 -0.169922 -0.985352
vn 0.000000 -0.169922 -0.985352
vn 0.000000 -0.171387 -0.985107
vn 0.000000 -0.171631 -0.985107
vn 0.000000 -0.175049 -0.984375
vn 0.664307 -0.131104 -0.735596
vn 0.605225 -0.135010 -0.784180
vn 0.605225 -0.135010 -0.784180
vn 0.000000 -0.169922 -0.985352
vn 0.000000 -0.175049 -0.984375
vn -0.643311 -0.131348 -0.753906
vn 0.000000 -0.171387 -0.985107
vn 0.000000 -0.237793 -0.971191
vn 0.000000 -0.237793 -0.971191
vn -0.843994 -0.129639 -0.520020
vn -0.643311 -0.131348 -0.753906
vn 0.000000 -0.171387 -0.985107
vn 0.000000 -0.169922 -0.985352
vn 0.000000 -0.191895 -0.981201
vn 0.000000 -0.191895 -0.981201
vn 0.000000 -0.237793 -0.971191
vn 0.000000 -0.171387 -0.985107
vn 0.000000 -0.169922 -0.985352
vn 0.605225 -0.135010 -0.784180
vn 0.369873 -0.177246 -0.911865
vn 0.369873 -0.177246 -0.911865
vn 0.000000 -0.191895 -0.981201
vn 0.000000 -0.169922 -0.985352
vn 0.848877 -0.073242 -0.522949
vn 0.994141 0.106201 0.000000
vn 0.986572 0.006592 0.162842
vn 0.986572 0.006592 0.162842
vn 0.664307 -0.131104 -0.735596
vn 0.848877 -0.073242 -0.522949
vn 0.664307 -0.131104 -0.735596
vn 0.986572 0.006592 0.162842
vn 0.991699 0.085449 0.094727
vn 0.991699 0.085449 0.094727
vn 0.605225 -0.135010 -0.784180
vn 0.664307 -0.131104 -0.735596
vn 0.605225 -0.135010 -0.784180
vn 0.991699 0.085449 0.094727
vn 0.999756 -0.020264 0.000000
vn 0.999756 -0.020264 0.000000
vn 0.369873 -0.177246 -0.911865
vn 0.605225 -0.135010 -0.784180
vn 0.988770 0.020996 0.146484
vn -0.990967 0.081543 0.104736
vn -0.984375 -0.009766 0.175293
vn -0.984375 -0.009766 0.175293
vn 0.923828 -0.019043 0.381836
vn 0.988770 0.020996 0.146484
vn -0.263428 0.220215 0.938965
vn 0.247803 0.242432 0.937744
vn 0.156250 0.168945 0.972900
vn 0.156250 0.168945 0.972900
vn -0.069580 0.163574 0.983887
vn -0.263428 0.220215 0.938965
vn 0.988770 0.020996 0.146484
vn -0.990967 0.081543 0.104736
vn -0.984375 -0.009766 0.175293
vn -0.984375 -0.009766 0.175293
vn 0.923828 -0.019043 0.381836
vn 0.988770 0.020996 0.146484
vn 0.986572 0.006592 0.162842
vn -0.069580 0.163574 0.983887
vn -0.195557 0.173340 0.965088
vn -0.195557 0.173340 0.965088
vn 0.991699 0.085449 0.094727
vn 0.986572 0.006592 0.162842
vn -0.069580 0.163574 0.983887
vn 0.156250 0.168945 0.972900
vn 0.114746 0.178711 0.977051
vn 0.114746 0.178711 0.977051
vn -0.195557 0.173340 0.965088
vn -0.069580 0.163574 0.983887
vn 0.156250 0.168945 0.972900
vn -0.990967 -0.051025 0.123047
vn -0.990967 0.044434 0.125488
vn -0.990967 0.044434 0.125488
vn 0.114746 0.178711 0.977051
vn 0.156250 0.168945 0.972900
vn 0.991455 0.031006 0.125732
vn -0.989990 0.092529 0.104492
vn -0.991943 -0.013428 0.125732
vn -0.991943 -0.013428 0.125732
vn 0.984131 -0.083008 0.156006
vn 0.991455 0.031006 0.125732
vn -0.195557 0.173340 0.965088
vn 0.114746 0.178711 0.977051
vn 0.310303 0.141357 0.939941
vn 0.310303 0.141357 0.939941
vn -0.254639 0.075195 0.963867
vn -0.195557 0.173340 0.965088
vn 0.991455 0.031006 0.125732
vn -0.989990 0.092529 0.104492
vn -0.991943 -0.013428 0.125732
vn -0.991943 -0.013428 0.125732
vn 0.984131 -0.083008 0.156006
vn 0.991455 0.031006 0.125732
vn -0.999512 0.025146 0.000000
vn -0.372803 -0.128418 -0.918701
vn -0.583252 -0.139160 -0.800049
vn -0.583252 -0.139160 -0.800049
vn -0.990967 -0.051025 0.123047
vn -0.999512 0.025146 0.000000
vn -0.990967 -0.051025 0.123047
vn -0.583252 -0.139160 -0.800049
vn -0.643311 -0.131348 -0.753906
vn -0.643311 -0.131348 -0.753906
vn -0.990967 0.044434 0.125488
vn -0.990967 -0.051025 0.123047
vn -0.990967 0.044434 0.125488
vn -0.643311 -0.131348 -0.753906
vn -0.843994 -0.129639 -0.520020
vn -0.843994 -0.129639 -0.520020
vn -0.996338 -0.084229 0.000000
vn -0.990967 0.044434 0.125488
vn 0.247803 0.242432 0.937744
vn -0.999512 0.025146 0.000000
vn -0.998779 0.047852 0.000000
vn -0.998779 0.047852 0.000000
vn 0.998535 0.049561 0.000000
vn 0.247803 0.242432 0.937744
vn 0.994141 0.106201 0.000000
vn -0.263428 0.220215 0.938965
vn -0.998779 0.047852 0.000000
vn -0.998779 0.047852 0.000000
vn 0.998535 0.049561 0.000000
vn 0.994141 0.106201 0.000000
vn -0.996338 -0.084229 0.000000
vn 0.310303 0.141357 0.939941
vn 0.984131 -0.083008 0.156006
vn 0.984131 -0.083008 0.156006
vn -0.991943 -0.013428 0.125732
vn -0.996338 -0.084229 0.000000
vn -0.254639 0.075195 0.963867
vn 0.999756 -0.020264 0.000000
vn 0.984131 -0.083008 0.156006
vn 0.984131 -0.083008 0.156006
vn -0.991943 -0.013428 0.125732
vn -0.254639 0.075195 0.963867
vn 0.986572 0.006592 0.162842
vn 0.994141 0.106201 0.000000
vn 0.998535 0.049561 0.000000
vn 0.998535 0.049561 0.000000
vn 0.998535 -0.050049 -0.013672
vn 0.986572 0.006592 0.162842
vn 0.999756 -0.020264 0.000000
vn 0.991699 0.085449 0.094727
vn 0.991455 0.031006 0.125732
vn 0.991455 0.031006 0.125732
vn 0.984131 -0.083008 0.156006
vn 0.999756 -0.020264 0.000000
vn -0.263428 0.220215 0.938965
vn -0.069580 0.163574 0.983887
vn -0.998535 -0.051758 -0.014160
vn -0.998535 -0.051758 -0.014160
vn -0.998779 0.047852 0.000000
vn -0.263428 0.220215 0.938965
vn -0.069580 0.163574 0.983887
vn 0.986572 0.006592 0.162842
vn 0.998535 -0.050049 -0.013672
vn 0.998535 -0.050049 -0.013672
vn -0.998535 -0.051758 -0.014160
vn -0.069580 0.163574 0.983887
vn 0.156250 0.168945 0.972900
vn 0.247803 0.242432 0.937744
vn 0.998535 0.049561 0.000000
vn 0.998535 0.049561 0.000000
vn 0.998535 -0.050049 -0.013672
vn 0.156250 0.168945 0.972900
vn -0.999512 0.025146 0.000000
vn -0.990967 -0.051025 0.123047
vn -0.998535 -0.051758 -0.014160
vn -0.998535 -0.051758 -0.014160
vn -0.998779 0.047852 0.000000
vn -0.999512 0.025146 0.000000
vn -0.990967 -0.051025 0.123047
vn 0.156250 0.168945 0.972900
vn 0.998535 -0.050049 -0.013672
vn 0.998535 -0.050049 -0.013672
vn -0.998535 -0.051758 -0.014160
vn -0.990967 -0.051025 0.123047
vn 0.991699 0.085449 0.094727
vn -0.195557 0.173340 0.965088
vn -0.989990 0.092529 0.104492
vn -0.989990 0.092529 0.104492
vn 0.991455 0.031006 0.125732
vn 0.991699 0.085449 0.094727
vn 0.114746 0.178711 0.977051
vn -0.990967 0.044434 0.125488
vn -0.989990 0.092529 0.104492
vn -0.989990 0.092529 0.104492
vn 0.991455 0.031006 0.125732
vn 0.114746 0.178711 0.977051
vn -0.195557 0.173340 0.965088
vn -0.254639 0.075195 0.963867
vn -0.991943 -0.013428 0.125732
vn -0.991943 -0.013428 0.125732
vn -0.989990 0.092529 0.104492
vn -0.195557 0.173340 0.965088
vn 0.310303 0.141357 0.939941
vn 0.114746 0.178711 0.977051
vn 0.991455 0.031006 0.125732
vn 0.991455 0.031006 0.125732
vn 0.984131 -0.083008 0.156006
vn 0.310303 0.141357 0.939941
vn -0.990967 0.044434 0.125488
vn -0.996338 -0.084229 0.000000
vn -0.991943 -0.013428 0.125732
vn -0.991943 -0.013428 0.125732
vn -0.989990 0.092529 0.104492
vn -0.990967 0.044434 0.125488
vn 0.998535 0.049561 0.000000
vn -0.998779 0.047852 0.000000
vn -0.998535 0.049805 0.000000
vn -0.998535 0.049805 0.000000
vn 0.998535 0.052979 0.000000
vn 0.998535 0.049561 0.000000
vn -0.998779 0.047852 0.000000
vn -0.998535 -0.051758 -0.014160
vn -0.985596 -0.017334 -0.167725
vn -0.985596 -0.017334 -0.167725
vn -0.998535 0.049805 0.000000
vn -0.998779 0.047852 0.000000
vn -0.998535 -0.051758 -0.014160
vn 0.998535 -0.050049 -0.013672
vn 0.996826 -0.022217 -0.075195
vn 0.996826 -0.022217 -0.075195
vn -0.985596 -0.017334 -0.167725
vn -0.998535 -0.051758 -0.014160
vn 0.998535 -0.050049 -0.013672
vn 0.998535 0.049561 0.000000
vn 0.998535 0.052979 0.000000
vn 0.998535 0.052979 0.000000
vn 0.996826 -0.022217 -0.075195
vn 0.998535 -0.050049 -0.013672
vn 0.998535 0.049561 0.000000
vn -0.998779 0.047852 0.000000
vn -0.998535 0.049805 0.000000
vn -0.998535 0.049805 0.000000
vn 0.998535 0.052979 0.000000
vn 0.998535 0.049561 0.000000
vn -0.998779 0.047852 0.000000
vn -0.998535 -0.051758 -0.014160
vn -0.985596 -0.017334 -0.167725
vn -0.985596 -0.017334 -0.167725
vn -0.998535 0.049805 0.000000
vn -0.998779 0.047852 0.000000
vn -0.998535 -0.051758 -0.014160
vn 0.998535 -0.050049 -0.013672
vn 0.996826 -0.022217 -0.075195
vn 0.996826 -0.022217 -0.075195
vn -0.985596 -0.017334 -0.167725
vn -0.998535 -0.051758 -0.014160
vn 0.998535 -0.050049 -0.013672
vn 0.998535 0.049561 0.000000
vn 0.998535 0.052979 0.000000
vn 0.998535 0.052979 0.000000
vn 0.996826 -0.022217 -0.075195
vn 0.998535 -0.050049 -0.013672
vn 0.998535 0.052979 0.000000
vn -0.998535 0.049805 0.000000
vn -0.990967 0.081543 0.104736
vn -0.990967 0.081543 0.104736
vn 0.988770 0.020996 0.146484
vn 0.998535 0.052979 0.000000
vn -0.998535 0.049805 0.000000
vn -0.985596 -0.017334 -0.167725
vn -0.984375 -0.009766 0.175293
vn -0.984375 -0.009766 0.175293
vn -0.990967 0.081543 0.104736
vn -0.998535 0.049805 0.000000
vn -0.975586 -0.011719 -0.218018
vn 0.215820 -0.038574 -0.975586
vn 0.975586 -0.014160 0.218018
vn 0.975586 -0.014160 0.218018
vn -0.215820 -0.049561 0.975098
vn -0.975586 -0.011719 -0.218018
vn 0.996826 -0.022217 -0.075195
vn 0.998535 0.052979 0.000000
vn 0.988770 0.020996 0.146484
vn 0.988770 0.020996 0.146484
vn 0.923828 -0.019043 0.381836
vn 0.996826 -0.022217 -0.075195
vn 0.998535 0.052979 0.000000
vn -0.998535 0.049805 0.000000
vn -0.990967 0.081543 0.104736
vn -0.990967 0.081543 0.104736
vn 0.988770 0.020996 0.146484
vn 0.998535 0.052979 0.000000
vn -0.998535 0.049805 0.000000
vn -0.985596 -0.017334 -0.167725
vn -0.984375 -0.009766 0.175293
vn -0.984375 -0.009766 0.175293
vn -0.990967 0.081543 0.104736
vn -0.998535 0.049805 0.000000
vn -0.975586 -0.011719 -0.218018
vn 0.215820 -0.038574 -0.975586
vn 0.975586 -0.014160 0.218018
vn 0.975586 -0.014160 0.218018
vn -0.215820 -0.049561 0.975098
vn -0.975586 -0.011719 -0.218018
vn 0.996826 -0.022217 -0.075195
vn 0.998535 0.052979 0.000000
vn 0.988770 0.020996 0.146484
vn 0.988770 0.020996 0.146484
vn 0.923828 -0.019043 0.381836
vn 0.996826 -0.022217 -0.075195
vn 0.923828 -0.019043 0.381836
vn -0.984375 -0.009766 0.175293
vn -0.215820 -0.049561 0.975098
vn -0.215820 -0.049561 0.975098
vn 0.975586 -0.014160 0.218018
vn 0.923828 -0.019043 0.381836
vn 0.923828 -0.019043 0.381836
vn -0.984375 -0.009766 0.175293
vn -0.215820 -0.049561 0.975098
vn -0.215820 -0.049561 0.975098
vn 0.975586 -0.014160 0.218018
vn 0.923828 -0.019043 0.381836
vn -0.985596 -0.017334 -0.167725
vn 0.996826 -0.022217 -0.075195
vn 0.215820 -0.038574 -0.975586
vn 0.215820 -0.038574 -0.975586
vn -0.975586 -0.011719 -0.218018
vn -0.985596 -0.017334 -0.167725
vn -0.985596 -0.017334 -0.167725
vn 0.996826 -0.022217 -0.075195
vn 0.215820 -0.038574 -0.975586
vn 0.215820 -0.038574 -0.975586
vn -0.975586 -0.011719 -0.218018
vn -0.985596 -0.017334 -0.167725
vn -0.984375 -0.009766 0.175293
vn -0.985596 -0.017334 -0.167725
vn -0.975586 -0.011719 -0.218018
vn -0.975586 -0.011719 -0.218018
vn -0.215820 -0.049561 0.975098
vn -0.984375 -0.009766 0.175293
vn 0.996826 -0.022217 -0.075195
vn 0.923828 -0.019043 0.381836
vn 0.975586 -0.014160 0.218018
vn 0.975586 -0.014160 0.218018
vn 0.215820 -0.038574 -0.975586
vn 0.996826 -0.022217 -0.075195
vn -0.984375 -0.009766 0.175293
vn -0.985596 -0.017334 -0.167725
vn -0.975586 -0.011719 -0.218018
vn -0.975586 -0.011719 -0.218018
vn -0.215820 -0.049561 0.975098
vn -0.984375 -0.009766 0.175293
vn 0.996826 -0.022217 -0.075195
vn 0.923828 -0.019043 0.381836
vn 0.975586 -0.014160 0.218018
vn 0.975586 -0.014160 0.218018
vn 0.215820 -0.038574 -0.975586
vn 0.996826 -0.022217 -0.075195
vn -0.008789 0.998535 -0.050537
vn -0.035889 0.998047 0.050537
vn 0.008789 0.998535 0.050537
vn 0.008789 0.998535 0.050537
vn 0.035889 0.998047 -0.050537
vn -0.008789 0.998535 -0.050537
vn -0.017822 -0.999512 -0.025146
vn 0.017822 -0.994629 -0.100830
vn 0.017822 -0.999512 0.025146
vn 0.017822 -0.999512 0.025146
vn -0.017822 -0.994629 0.100830
vn -0.017822 -0.999512 -0.025146
vn -0.008789 0.998535 -0.050537
vn 0.035889 0.998047 -0.050537
vn 0.017822 -0.994629 -0.100830
vn 0.017822 -0.994629 -0.100830
vn -0.017822 -0.999512 -0.025146
vn -0.008789 0.998535 -0.050537
vn 0.035889 0.998047 -0.050537
vn 0.008789 0.998535 0.050537
vn 0.017822 -0.999512 0.025146
vn 0.017822 -0.999512 0.025146
vn 0.017822 -0.994629 -0.100830
vn 0.035889 0.998047 -0.050537
vn 0.008789 0.998535 0.050537
vn -0.035889 0.998047 0.050537
vn -0.017822 -0.994629 0.100830
vn -0.017822 -0.994629 0.100830
vn 0.017822 -0.999512 0.025146
vn 0.008789 0.998535 0.050537
vn -0.035889 0.998047 0.050537
vn -0.008789 0.998535 -0.050537
vn -0.017822 -0.999512 -0.025146
vn -0.017822 -0.999512 -0.025146
vn -0.017822 -0.994629 0.100830
vn -0.035889 0.998047 0.050537
usemtl Texture
f 1/1/1 2/2/2 3/3/3
f 4/4/4 5/5/5 6/6/6
f 7/7/7 8/8/8 9/9/9
f 10/10/10 11/11/11 12/12/12
f 13/13/13 14/14/14 15/15/15
f 16/16/16 17/17/17 18/18/18
f 19/19/19 20/20/20 21/21/21
f 22/22/22 23/23/23 24/24/24
f 25/25/25 26/26/26 27/27/27
f 28/28/28 29/29/29 30/30/30
f 31/31/31 32/32/32 33/33/33
f 34/34/34 35/35/35 36/36/36
f 37/37/37 38/38/38 39/39/39
f 40/40/40 41/41/41 42/42/42
f 43/43/43 44/44/44 45/45/45
f 46/46/46 47/47/47 48/48/48
f 49/49/49 50/50/50 51/51/51
f 52/52/52 53/53/53 54/54/54
f 55/55/55 56/56/56 57/57/57
f 58/58/58 59/59/59 60/60/60
f 61/61/61 62/62/62 63/63/63
f 64/64/64 65/65/65 66/66/66
f 67/67/67 68/68/68 69/69/69
f 70/70/70 71/71/71 72/72/72
f 73/73/73 74/74/74 75/75/75
f 76/76/76 77/77/77 78/78/78
f 79/79/79 80/80/80 81/81/81
f 82/82/82 83/83/83 84/84/84
f 85/85/85 86/86/86 87/87/87
f 88/88/88 89/89/89 90/90/90
f 91/91/91 92/92/92 93/93/93
f 94/94/94 95/95/95 96/96/96
f 97/97/97 98/98/98 99/99/99
f 100/100/100 101/101/101 102/102/102
f 103/103/103 104/104/104 105/105/105
f 106/106/106 107/107/107 108/108/108
f 109/109/109 110/110/110 111/111/111
f 112/112/112 113/113/113 114/114/114
f 115/115/115 116/116/116 117/117/117
f 118/118/118 119/119/119 120/120/120
f 121/121/121 122/122/122 123/123/123
f 124/124/124 125/125/125 126/126/126
f 127/127/127 128/128/128 129/129/129
f 130/130/130 131/131/131 132/132/132
f 133/133/133 134/134/134 135/135/135
f 136/136/136 137/137/137 138/138/138
f 139/139/139 140/140/140 141/141/141
f 142/142/142 143/143/143 144/144/144
f 145/145/145 146/146/146 147/147/147
f 148/148/148 149/149/149 150/150/150
f 151/151/151 152/152/152 153/153/153
f 154/154/154 155/155/155 156/156/156
f 157/157/157 158/158/158 159/159/159
f 160/160/160 161/161/161 162/162/162
f 163/163/163 164/164/164 165/165/165
f 166/166/166 167/167/167 168/168/168
f 169/169/169 170/170/170 171/171/171
f 172/172/172 173/173/173 174/174/174
f 175/175/175 176/176/176 177/177/177
f 178/178/178 179/179/179 180/180/180
f 181/181/181 182/182/182 183/183/183
f 184/184/184 185/185/185 186/186/186
f 187/187/187 188/188/188 189/189/189
f 190/190/190 191/191/191 192/192/192
f 193/193/193 194/194/194 195/195/195
f 196/196/196 197/197/197 198/198/198
f 199/199/199 200/200/200 201/201/201
f 202/202/202 203/203/203 204/204/204
f 205/205/205 206/206/206 207/207/207
f 208/208/208 209/209/209 210/210/210
f 211/211/211 212/212/212 213/213/213
f 214/214/214 215/215/215 216/216/216
f 217/217/217 218/218/218 219/219/219
f 220/220/220 221/221/221 222/222/222
f 223/223/223 224/224/224 225/225/225
f 226/226/226 227/227/227 228/228/228
f 229/229/229 230/230/230 231/231/231
f 232/232/232 233/233/233 234/234/234
f 235/235/235 236/236/236 237/237/237
f 238/238/238 239/239/239 240/240/240
f 241/241/241 242/242/242 243/243/243
f 244/244/244 245/245/245 246/246/246
f 247/247/247 248/248/248 249/249/249
f 250/250/250 251/251/251 252/252/252
f 253/253/253 254/254/254 255/255/255
f 256/256/256 257/257/257 258/258/258
f 259/259/259 260/260/260 261/261/261
f 262/262/262 263/263/263 264/264/264
f 265/265/265 266/266/266 267/267/267
f 268/268/268 269/269/269 270/270/270
f 271/271/271 272/272/272 273/273/273
f 274/274/274 275/275/275 276/276/276
f 277/277/277 278/278/278 279/279/279
f 280/280/280 281/281/281 282/282/282
f 283/283/283 284/284/284 285/285/285
f 286/286/286 287/287/287 288/288/288
f 289/289/289 290/290/290 291/291/291
f 292/292/292 293/293/293 294/294/294
f 295/295/295 296/296/296 297/297/297
f 298/298/298 299/299/299 300/300/300
f 301/301/301 302/302/302 303/303/303
f 304/304/304 305/305/305 306/306/306
f 307/307/307 308/308/308 309/309/309
f 310/310/310 311/311/311 312/312/312
f 313/313/313 314/314/314 315/315/315
f 316/316/316 317/317/317 318/318/318
f 319/319/319 320/320/320 321/321/321
f 322/322/322 323/323/323 324/324/324
f 325/325/325 326/326/326 327/327/327
f 328/328/328 329/329/329 330/330/330
f 331/331/331 332/332/332 333/333/333
f 334/334/334 335/335/335 336/336/336
f 337/337/337 338/338/338 339/339/339
f 340/340/340 341/341/341 342/342/342
f 343/343/343 344/344/344 345/345/345
f 346/346/346 347/347/347 348/348/348
f 349/349/349 350/350/350 351/351/351
f 352/352/352 353/353/353 354/354/354
f 355/355/355 356/356/356 357/357/357
f 358/358/358 359/359/359 360/360/360
f 361/361/361 362/362/362 363/363/363
f 364/364/364 365/365/365 366/366/366
f 367/367/367 368/368/368 369/369/369
f 370/370/370 371/371/371 372/372/372
f 373/373/373 374/374/374 375/375/375
f 376/376/376 377/377/377 378/378/378
f 379/379/379 380/380/380 381/381/381
f 382/382/382 383/383/383 384/384/384
f 385/385/385 386/386/386 387/387/387
f 388/388/388 389/389/389 390/390/390
f 391/391/391 392/392/392 393/393/393
f 394/394/394 395/395/395 396/396/396
f 397/397/397 398/398/398 399/399/399
f 400/400/400 401/401/401 402/402/402
f 403/403/403 404/404/404 405/405/405
f 406/406/406 407/407/407 408/408/408
f 409/409/409 410/410/410 411/411/411
f 412/412/412 413/413/413 414/414/414
f 415/415/415 416/416/416 417/417/417
f 418/418/418 419/419/419 420/420/420
f 421/421/421 422/422/422 423/423/423
f 424/424/424 425/425/425 426/426/426
f 427/427/427 428/428/428 429/429/429
f 430/430/430 431/431/431 432/432/432
f 433/433/433 434/434/434 435/435/435
f 436/436/436 437/437/437 438/438/438
f 439/439/439 440/440/440 441/441/441
f 442/442/442 443/443/443 444/444/444
f 445/445/445 446/446/446 447/447/447
f 448/448/448 449/449/449 450/450/450
f 451/451/451 452/452/452 453/453/453
f 454/454/454 455/455/455 456/456/456
f 457/457/457 458/458/458 459/459/459
f 460/460/460 461/461/461 462/462/462
f 463/463/463 464/464/464 465/465/465
f 466/466/466 467/467/467 468/468/468
f 469/469/469 470/470/470 471/471/471
f 472/472/472 473/473/473 474/474/474
f 475/475/475 476/476/476 477/477/477
f 478/478/478 479/479/479 480/480/480
f 481/481/481 482/482/482 483/483/483
f 484/484/484 485/485/485 486/486/486
f 487/487/487 488/488/488 489/489/489
f 490/490/490 491/491/491 492/492/492
f 493/493/493 494/494/494 495/495/495
f 496/496/496 497/497/497 498/498/498
f 499/499/499 500/500/500 501/501/501
f 502/502/502 503/503/503 504/504/504
f 505/505/505 506/506/506 507/507/507
f 508/508/508 509/509/509 510/510/510
f 511/511/511 512/512/512 513/513/513
f 514/514/514 515/515/515 516/516/516
f 517/517/517 518/518/518 519/519/519
f 520/520/520 521/521/521 522/522/522
f 523/523/523 524/524/524 525/525/525
f 526/526/526 527/527/527 528/528/528
f 529/529/529 530/530/530 531/531/531
f 532/532/532 533/533/533 534/534/534
f 535/535/535 536/536/536 537/537/537
f 538/538/538 539/539/539 540/540/540
f 541/541/541 542/542/542 543/543/543
f 544/544/544 545/545/545 546/546/546
f 547/547/547 548/548/548 549/549/549
f 550/550/550 551/551/551 552/552/552
f 553/553/553 554/554/554 555/555/555
f 556/556/556 557/557/557 558/558/558
f 559/559/559 560/560/560 561/561/561
f 562/562/562 563/563/563 564/564/564
f 565/565/565 566/566/566 567/567/567
f 568/568/568 569/569/569 570/570/570
f 571/571/571 572/572/572 573/573/573
f 574/574/574 575/575/575 576/576/576
f 577/577/577 578/578/578 579/579/579
f 580/580/580 581/581/581 582/582/582
f 583/583/583 584/584/584 585/585/585
f 586/586/586 587/587/587 588/588/588
