# OBJ file
mtllib icon.ico.mtl
v -0.221924 2.479248 -0.017334 0.356863 0.427451 0.341176 #0.000000
v -0.221924 1.957275 -0.017334 0.356863 0.427451 0.341176 #0.000000
v -0.048584 2.520752 -0.017334 0.356863 0.427451 0.341176 #0.000000
v -0.221924 2.479248 -0.017334 0.356863 0.427451 0.341176 #0.000000
v -0.689697 2.398193 -0.017334 0.356863 0.427451 0.341176 #0.000000
v -0.664307 1.711182 -0.017334 0.356863 0.427451 0.341176 #0.000000
v -0.664307 1.711182 -0.017334 0.356863 0.427451 0.341176 #0.000000
v -0.221924 1.684082 -0.017334 0.356863 0.427451 0.341176 #0.000000
v -0.221924 1.957275 -0.017334 0.356863 0.427451 0.341176 #0.000000
v -0.221924 2.479248 -0.017334 0.356863 0.427451 0.341176 #0.000000
v -0.664307 1.711182 -0.017334 0.356863 0.427451 0.341176 #0.000000
v -0.221924 1.957275 -0.017334 0.356863 0.427451 0.341176 #0.000000
v -0.938232 1.710938 -0.017334 0.356863 0.427451 0.341176 #0.000000
v -0.807129 1.711182 0.084473 0.356863 0.427451 0.341176 #0.000000
v -0.806152 2.380371 0.084473 0.356863 0.427451 0.341176 #0.000000
v -0.806152 2.380371 0.084473 0.356863 0.427451 0.341176 #0.000000
v -0.907227 2.364990 -0.017334 0.356863 0.427451 0.341176 #0.000000
v -0.938232 1.710938 -0.017334 0.356863 0.427451 0.341176 #0.000000
v -2.236328 1.874756 -0.017334 0.356863 0.427451 0.341176 #0.000000
v -0.938232 1.710938 -0.017334 0.356863 0.427451 0.341176 #0.000000
v -0.907227 2.364990 -0.017334 0.356863 0.427451 0.341176 #0.000000
v -0.907227 2.364990 -0.017334 0.356863 0.427451 0.341176 #0.000000
v -2.279053 2.079346 -0.017334 0.356863 0.427451 0.341176 #0.000000
v -2.236328 1.874756 -0.017334 0.356863 0.427451 0.341176 #0.000000
v -0.176270 1.194336 0.136230 0.356863 0.427451 0.341176 #0.000000
v -0.048584 1.194336 0.275879 0.356863 0.427451 0.341176 #0.000000
v -0.048584 1.684082 0.275879 0.356863 0.427451 0.341176 #0.000000
v -0.048584 1.684082 0.275879 0.356863 0.427451 0.341176 #0.000000
v -0.191895 1.684082 0.136230 0.356863 0.427451 0.341176 #0.000000
v -0.176270 1.194336 0.136230 0.356863 0.427451 0.341176 #0.000000
v -0.142090 1.004395 0.136230 0.356863 0.427451 0.341176 #0.000000
v -0.048584 0.819092 -0.017334 0.356863 0.427451 0.341176 #0.000000
v -0.048584 1.194336 0.275879 0.356863 0.427451 0.341176 #0.000000
v -0.048584 1.194336 0.275879 0.356863 0.427451 0.341176 #0.000000
v -0.176270 1.194336 0.136230 0.356863 0.427451 0.341176 #0.000000
v -0.142090 1.004395 0.136230 0.356863 0.427451 0.341176 #0.000000
v -0.888916 1.122070 -0.017334 0.356863 0.427451 0.341176 #0.000000
v -0.808105 1.233154 0.084473 0.356863 0.427451 0.341176 #0.000000
v -0.807129 1.711182 0.084473 0.356863 0.427451 0.341176 #0.000000
v -0.807129 1.711182 0.084473 0.356863 0.427451 0.341176 #0.000000
v -0.938232 1.710938 -0.017334 0.356863 0.427451 0.341176 #0.000000
v -0.888916 1.122070 -0.017334 0.356863 0.427451 0.341176 #0.000000
v -0.907227 2.364990 -0.017334 0.356863 0.427451 0.341176 #0.000000
v -0.806152 2.380371 0.084473 0.356863 0.427451 0.341176 #0.000000
v -0.801025 4.061279 -0.023193 0.356863 0.427451 0.341176 #0.000000
v -0.808105 1.233154 0.084473 0.356863 0.427451 0.341176 #0.000000
v -0.716553 1.122314 -0.017334 0.356863 0.427451 0.341176 #0.000000
v -0.664307 1.711182 -0.017334 0.356863 0.427451 0.341176 #0.000000
v -0.664307 1.711182 -0.017334 0.356863 0.427451 0.341176 #0.000000
v -0.807129 1.711182 0.084473 0.356863 0.427451 0.341176 #0.000000
v -0.808105 1.233154 0.084473 0.356863 0.427451 0.341176 #0.000000
v -0.807129 1.711182 0.084473 0.356863 0.427451 0.341176 #0.000000
v -0.664307 1.711182 -0.017334 0.356863 0.427451 0.341176 #0.000000
v -0.689697 2.398193 -0.017334 0.356863 0.427451 0.341176 #0.000000
v -0.689697 2.398193 -0.017334 0.356863 0.427451 0.341176 #0.000000
v -0.806152 2.380371 0.084473 0.356863 0.427451 0.341176 #0.000000
v -0.807129 1.711182 0.084473 0.356863 0.427451 0.341176 #0.000000
v -0.806152 2.380371 0.084473 0.356863 0.427451 0.341176 #0.000000
v -0.689697 2.398193 -0.017334 0.356863 0.427451 0.341176 #0.000000
v -0.801025 4.061279 -0.023193 0.356863 0.427451 0.341176 #0.000000
v -0.048584 2.520752 -0.017334 0.356863 0.427451 0.341176 #0.000000
v -0.221924 1.957275 -0.017334 0.356863 0.427451 0.341176 #0.000000
v -0.191895 1.957275 0.136230 0.356863 0.427451 0.341176 #0.000000
v -0.221924 1.957275 -0.017334 0.356863 0.427451 0.341176 #0.000000
v -0.221924 1.684082 -0.017334 0.356863 0.427451 0.341176 #0.000000
v -0.191895 1.684082 0.136230 0.356863 0.427451 0.341176 #0.000000
v -0.191895 1.684082 0.136230 0.356863 0.427451 0.341176 #0.000000
v -0.191895 1.957275 0.136230 0.356863 0.427451 0.341176 #0.000000
v -0.221924 1.957275 -0.017334 0.356863 0.427451 0.341176 #0.000000
v -0.221924 1.684082 -0.017334 0.356863 0.427451 0.341176 #0.000000
v -0.206299 1.194336 -0.017334 0.356863 0.427451 0.341176 #0.000000
v -0.176270 1.194336 0.136230 0.356863 0.427451 0.341176 #0.000000
v -0.176270 1.194336 0.136230 0.356863 0.427451 0.341176 #0.000000
v -0.191895 1.684082 0.136230 0.356863 0.427451 0.341176 #0.000000
v -0.221924 1.684082 -0.017334 0.356863 0.427451 0.341176 #0.000000
v -0.048584 0.819092 -0.017334 0.356863 0.427451 0.341176 #0.000000
v -0.142090 1.004395 0.136230 0.356863 0.427451 0.341176 #0.000000
v -0.172119 1.004395 -0.017334 0.356863 0.427451 0.341176 #0.000000
v -0.206299 1.194336 -0.017334 0.356863 0.427451 0.341176 #0.000000
v -0.172119 1.004395 -0.017334 0.356863 0.427451 0.341176 #0.000000
v -0.142090 1.004395 0.136230 0.356863 0.427451 0.341176 #0.000000
v -0.142090 1.004395 0.136230 0.356863 0.427451 0.341176 #0.000000
v -0.176270 1.194336 0.136230 0.356863 0.427451 0.341176 #0.000000
v -0.206299 1.194336 -0.017334 0.356863 0.427451 0.341176 #0.000000
v -0.794922 3.673340 -0.017334 0.356863 0.427451 0.341176 #0.000000
v -0.048584 3.673340 -0.017334 0.356863 0.427451 0.341176 #0.000000
v -0.048584 4.058350 -0.017334 0.356863 0.427451 0.341176 #0.000000
v -0.048584 4.058350 -0.017334 0.356863 0.427451 0.341176 #0.000000
v -0.801025 4.061279 -0.023193 0.356863 0.427451 0.341176 #0.000000
v -0.794922 3.673340 -0.017334 0.356863 0.427451 0.341176 #0.000000
v -0.925049 3.699707 -0.017334 0.356863 0.427451 0.341176 #0.000000
v -0.794922 3.673340 -0.017334 0.356863 0.427451 0.341176 #0.000000
v -0.801025 4.061279 -0.023193 0.356863 0.427451 0.341176 #0.000000
v -0.801025 4.061279 -0.023193 0.356863 0.427451 0.341176 #0.000000
v -0.925049 4.001953 -0.017334 0.356863 0.427451 0.341176 #0.000000
v -0.925049 3.699707 -0.017334 0.356863 0.427451 0.341176 #0.000000
v -1.009277 3.781738 -0.017334 0.356863 0.427451 0.341176 #0.000000
v -0.925049 3.699707 -0.017334 0.356863 0.427451 0.341176 #0.000000
v -0.925049 4.001953 -0.017334 0.356863 0.427451 0.341176 #0.000000
v -0.925049 4.001953 -0.017334 0.356863 0.427451 0.341176 #0.000000
v -1.009277 3.919922 -0.017334 0.356863 0.427451 0.341176 #0.000000
v -1.009277 3.781738 -0.017334 0.356863 0.427451 0.341176 #0.000000
v -0.221924 2.479248 -0.017334 0.356863 0.427451 0.341176 #0.000000
v -0.048584 2.520752 -0.017334 0.356863 0.427451 0.341176 #0.000000
v -0.221924 1.957275 -0.017334 0.356863 0.427451 0.341176 #0.000000
v -0.221924 1.957275 -0.017334 0.356863 0.427451 0.341176 #0.000000
v -0.664307 1.711182 -0.017334 0.356863 0.427451 0.341176 #0.000000
v -0.221924 2.479248 -0.017334 0.356863 0.427451 0.341176 #0.000000
v -0.689697 2.398193 -0.017334 0.356863 0.427451 0.341176 #0.000000
v -0.221924 2.479248 -0.017334 0.356863 0.427451 0.341176 #0.000000
v -0.664307 1.711182 -0.017334 0.356863 0.427451 0.341176 #0.000000
v -0.806152 2.380371 -0.312256 0.356863 0.427451 0.341176 #0.000000
v -0.807129 1.711182 -0.312256 0.356863 0.427451 0.341176 #0.000000
v -0.900391 1.710938 -0.210938 0.356863 0.427451 0.341176 #0.000000
v -0.900391 1.710938 -0.210938 0.356863 0.427451 0.341176 #0.000000
v -0.877930 2.364990 -0.210938 0.356863 0.427451 0.341176 #0.000000
v -0.806152 2.380371 -0.312256 0.356863 0.427451 0.341176 #0.000000
v -0.938232 1.710938 -0.017334 0.356863 0.427451 0.341176 #0.000000
v -2.236328 1.874756 -0.017334 0.356863 0.427451 0.341176 #0.000000
v -0.907227 2.364990 -0.017334 0.356863 0.427451 0.341176 #0.000000
v -2.279053 2.079346 -0.017334 0.356863 0.427451 0.341176 #0.000000
v -0.907227 2.364990 -0.017334 0.356863 0.427451 0.341176 #0.000000
v -2.236328 1.874756 -0.017334 0.356863 0.427451 0.341176 #0.000000
v -0.221924 1.684082 -0.017334 0.356863 0.427451 0.341176 #0.000000
v -0.664307 1.711182 -0.017334 0.356863 0.427451 0.341176 #0.000000
v -0.221924 1.957275 -0.017334 0.356863 0.427451 0.341176 #0.000000
v -0.048584 1.684082 -0.375977 0.356863 0.427451 0.341176 #0.000000
v -0.048584 1.194336 -0.375977 0.356863 0.427451 0.341176 #0.000000
v -0.176270 1.194336 -0.170898 0.356863 0.427451 0.341176 #0.000000
v -0.176270 1.194336 -0.170898 0.356863 0.427451 0.341176 #0.000000
v -0.191895 1.684082 -0.236328 0.356863 0.427451 0.341176 #0.000000
v -0.048584 1.684082 -0.375977 0.356863 0.427451 0.341176 #0.000000
v -0.048584 1.194336 -0.375977 0.356863 0.427451 0.341176 #0.000000
v -0.048584 0.819092 -0.017334 0.356863 0.427451 0.341176 #0.000000
v -0.142090 1.004395 -0.170898 0.356863 0.427451 0.341176 #0.000000
v -0.142090 1.004395 -0.170898 0.356863 0.427451 0.341176 #0.000000
v -0.176270 1.194336 -0.170898 0.356863 0.427451 0.341176 #0.000000
v -0.048584 1.194336 -0.375977 0.356863 0.427451 0.341176 #0.000000
v -0.807129 1.711182 -0.312256 0.356863 0.427451 0.341176 #0.000000
v -0.808105 1.233154 -0.312256 0.356863 0.427451 0.341176 #0.000000
v -0.864502 1.122070 -0.210938 0.356863 0.427451 0.341176 #0.000000
v -0.864502 1.122070 -0.210938 0.356863 0.427451 0.341176 #0.000000
v -0.900391 1.710938 -0.210938 0.356863 0.427451 0.341176 #0.000000
v -0.807129 1.711182 -0.312256 0.356863 0.427451 0.341176 #0.000000
v -0.877930 2.364990 -0.210938 0.356863 0.427451 0.341176 #0.000000
v -0.801025 4.061279 -0.023193 0.356863 0.427451 0.341176 #0.000000
v -0.806152 2.380371 -0.312256 0.356863 0.427451 0.341176 #0.000000
v -0.701904 1.711182 -0.210938 0.356863 0.427451 0.341176 #0.000000
v -0.739746 1.122314 -0.210938 0.356863 0.427451 0.341176 #0.000000
v -0.808105 1.233154 -0.312256 0.356863 0.427451 0.341176 #0.000000
v -0.808105 1.233154 -0.312256 0.356863 0.427451 0.341176 #0.000000
v -0.807129 1.711182 -0.312256 0.356863 0.427451 0.341176 #0.000000
v -0.701904 1.711182 -0.210938 0.356863 0.427451 0.341176 #0.000000
v -0.720459 2.398193 -0.210938 0.356863 0.427451 0.341176 #0.000000
v -0.701904 1.711182 -0.210938 0.356863 0.427451 0.341176 #0.000000
v -0.807129 1.711182 -0.312256 0.356863 0.427451 0.341176 #0.000000
v -0.807129 1.711182 -0.312256 0.356863 0.427451 0.341176 #0.000000
v -0.806152 2.380371 -0.312256 0.356863 0.427451 0.341176 #0.000000
v -0.720459 2.398193 -0.210938 0.356863 0.427451 0.341176 #0.000000
v -0.806152 2.380371 -0.312256 0.356863 0.427451 0.341176 #0.000000
v -0.801025 4.061279 -0.023193 0.356863 0.427451 0.341176 #0.000000
v -0.720459 2.398193 -0.210938 0.356863 0.427451 0.341176 #0.000000
v -0.048584 2.520752 -0.017334 0.356863 0.427451 0.341176 #0.000000
v -0.191895 1.957275 -0.236328 0.356863 0.427451 0.341176 #0.000000
v -0.221924 1.957275 -0.017334 0.356863 0.427451 0.341176 #0.000000
v -0.221924 1.957275 -0.017334 0.356863 0.427451 0.341176 #0.000000
v -0.191895 1.684082 -0.236328 0.356863 0.427451 0.341176 #0.000000
v -0.221924 1.684082 -0.017334 0.356863 0.427451 0.341176 #0.000000
v -0.191895 1.684082 -0.236328 0.356863 0.427451 0.341176 #0.000000
v -0.221924 1.957275 -0.017334 0.356863 0.427451 0.341176 #0.000000
v -0.191895 1.957275 -0.236328 0.356863 0.427451 0.341176 #0.000000
v -0.176270 1.194336 -0.170898 0.356863 0.427451 0.341176 #0.000000
v -0.206299 1.194336 -0.017334 0.356863 0.427451 0.341176 #0.000000
v -0.221924 1.684082 -0.017334 0.356863 0.427451 0.341176 #0.000000
v -0.221924 1.684082 -0.017334 0.356863 0.427451 0.341176 #0.000000
v -0.191895 1.684082 -0.236328 0.356863 0.427451 0.341176 #0.000000
v -0.176270 1.194336 -0.170898 0.356863 0.427451 0.341176 #0.000000
v -0.048584 0.819092 -0.017334 0.356863 0.427451 0.341176 #0.000000
v -0.172119 1.004395 -0.017334 0.356863 0.427451 0.341176 #0.000000
v -0.142090 1.004395 -0.170898 0.356863 0.427451 0.341176 #0.000000
v -0.142090 1.004395 -0.170898 0.356863 0.427451 0.341176 #0.000000
v -0.172119 1.004395 -0.017334 0.356863 0.427451 0.341176 #0.000000
v -0.206299 1.194336 -0.017334 0.356863 0.427451 0.341176 #0.000000
v -0.206299 1.194336 -0.017334 0.356863 0.427451 0.341176 #0.000000
v -0.176270 1.194336 -0.170898 0.356863 0.427451 0.341176 #0.000000
v -0.142090 1.004395 -0.170898 0.356863 0.427451 0.341176 #0.000000
v -0.664307 1.711182 -0.017334 0.356863 0.427451 0.341176 #0.000000
v -0.720459 2.398193 -0.210938 0.356863 0.427451 0.341176 #0.000000
v -0.689697 2.398193 -0.017334 0.356863 0.427451 0.341176 #0.000000
v -0.720459 2.398193 -0.210938 0.356863 0.427451 0.341176 #0.000000
v -0.664307 1.711182 -0.017334 0.356863 0.427451 0.341176 #0.000000
v -0.701904 1.711182 -0.210938 0.356863 0.427451 0.341176 #0.000000
v -0.907227 2.364990 -0.017334 0.356863 0.427451 0.341176 #0.000000
v -0.900391 1.710938 -0.210938 0.356863 0.427451 0.341176 #0.000000
v -0.938232 1.710938 -0.017334 0.356863 0.427451 0.341176 #0.000000
v -0.900391 1.710938 -0.210938 0.356863 0.427451 0.341176 #0.000000
v -0.907227 2.364990 -0.017334 0.356863 0.427451 0.341176 #0.000000
v -0.877930 2.364990 -0.210938 0.356863 0.427451 0.341176 #0.000000
v -0.864502 1.122070 -0.210938 0.356863 0.427451 0.341176 #0.000000
v -0.888916 1.122070 -0.017334 0.356863 0.427451 0.341176 #0.000000
v -0.938232 1.710938 -0.017334 0.356863 0.427451 0.341176 #0.000000
v -0.938232 1.710938 -0.017334 0.356863 0.427451 0.341176 #0.000000
v -0.900391 1.710938 -0.210938 0.356863 0.427451 0.341176 #0.000000
v -0.864502 1.122070 -0.210938 0.356863 0.427451 0.341176 #0.000000
v -0.801025 4.061279 -0.023193 0.356863 0.427451 0.341176 #0.000000
v -0.877930 2.364990 -0.210938 0.356863 0.427451 0.341176 #0.000000
v -0.907227 2.364990 -0.017334 0.356863 0.427451 0.341176 #0.000000
v -0.701904 1.711182 -0.210938 0.356863 0.427451 0.341176 #0.000000
v -0.664307 1.711182 -0.017334 0.356863 0.427451 0.341176 #0.000000
v -0.716553 1.122314 -0.017334 0.356863 0.427451 0.341176 #0.000000
v -0.716553 1.122314 -0.017334 0.356863 0.427451 0.341176 #0.000000
v -0.739746 1.122314 -0.210938 0.356863 0.427451 0.341176 #0.000000
v -0.701904 1.711182 -0.210938 0.356863 0.427451 0.341176 #0.000000
v -0.801025 4.061279 -0.023193 0.356863 0.427451 0.341176 #0.000000
v -0.689697 2.398193 -0.017334 0.356863 0.427451 0.341176 #0.000000
v -0.720459 2.398193 -0.210938 0.356863 0.427451 0.341176 #0.000000
v -0.048584 1.684082 0.275879 0.356863 0.427451 0.341176 #0.000000
v -0.048584 1.969971 0.201904 0.356863 0.427451 0.341176 #0.000000
v -0.191895 1.957275 0.136230 0.356863 0.427451 0.341176 #0.000000
v -0.191895 1.957275 0.136230 0.356863 0.427451 0.341176 #0.000000
v -0.191895 1.684082 0.136230 0.356863 0.427451 0.341176 #0.000000
v -0.048584 1.684082 0.275879 0.356863 0.427451 0.341176 #0.000000
v -0.048584 1.969971 0.201904 0.356863 0.427451 0.341176 #0.000000
v -0.048584 2.520752 -0.017334 0.356863 0.427451 0.341176 #0.000000
v -0.191895 1.957275 0.136230 0.356863 0.427451 0.341176 #0.000000
v -0.191895 1.957275 -0.236328 0.356863 0.427451 0.341176 #0.000000
v -0.048584 2.006348 -0.296631 0.356863 0.427451 0.341176 #0.000000
v -0.048584 1.684082 -0.375977 0.356863 0.427451 0.341176 #0.000000
v -0.048584 1.684082 -0.375977 0.356863 0.427451 0.341176 #0.000000
v -0.191895 1.684082 -0.236328 0.356863 0.427451 0.341176 #0.000000
v -0.191895 1.957275 -0.236328 0.356863 0.427451 0.341176 #0.000000
v -0.048584 2.520752 -0.017334 0.356863 0.427451 0.341176 #0.000000
v -0.048584 2.006348 -0.296631 0.356863 0.427451 0.341176 #0.000000
v -0.191895 1.957275 -0.236328 0.356863 0.427451 0.341176 #0.000000
v -0.793701 3.749023 0.407471 0.356863 0.427451 0.341176 #0.000000
v -0.799805 3.994141 0.401611 0.356863 0.427451 0.341176 #0.000000
v -0.801025 4.061279 -0.023193 0.356863 0.427451 0.341176 #0.000000
v -0.801025 4.061279 -0.023193 0.356863 0.427451 0.341176 #0.000000
v -0.794922 3.673340 -0.017334 0.356863 0.427451 0.341176 #0.000000
v -0.793701 3.749023 0.407471 0.356863 0.427451 0.341176 #0.000000
v -0.796143 3.741211 -0.401611 0.356863 0.427451 0.341176 #0.000000
v -0.802246 3.986328 -0.407471 0.356863 0.427451 0.341176 #0.000000
v -0.801025 4.061279 -0.023193 0.356863 0.427451 0.341176 #0.000000
v -0.801025 4.061279 -0.023193 0.356863 0.427451 0.341176 #0.000000
v -0.794922 3.673340 -0.017334 0.356863 0.427451 0.341176 #0.000000
v -0.796143 3.741211 -0.401611 0.356863 0.427451 0.341176 #0.000000
v -0.925049 4.031738 -0.043457 0.356863 0.427451 0.341176 #0.000000
v -0.794922 4.058105 -0.043213 0.356863 0.427451 0.341176 #0.000000
v -0.801025 3.669922 -0.039063 0.356863 0.427451 0.341176 #0.000000
v -0.801025 3.669922 -0.039063 0.356863 0.427451 0.341176 #0.000000
v -0.925049 3.729492 -0.044678 0.356863 0.427451 0.341176 #0.000000
v -0.925049 4.031738 -0.043457 0.356863 0.427451 0.341176 #0.000000
v -1.009277 3.949707 -0.043701 0.356863 0.427451 0.341176 #0.000000
v -0.925049 4.031738 -0.043457 0.356863 0.427451 0.341176 #0.000000
v -0.925049 3.729492 -0.044678 0.356863 0.427451 0.341176 #0.000000
v -0.925049 3.729492 -0.044678 0.356863 0.427451 0.341176 #0.000000
v -1.009277 3.811523 -0.044434 0.356863 0.427451 0.341176 #0.000000
v -1.009277 3.949707 -0.043701 0.356863 0.427451 0.341176 #0.000000
v -0.048584 3.673096 -0.044922 0.356863 0.427451 0.341176 #0.000000
v -0.801025 3.669922 -0.039063 0.356863 0.427451 0.341176 #0.000000
v -0.794922 4.058105 -0.043213 0.356863 0.427451 0.341176 #0.000000
v -0.794922 4.058105 -0.043213 0.356863 0.427451 0.341176 #0.000000
v -0.048584 4.058105 -0.043213 0.356863 0.427451 0.341176 #0.000000
v -0.048584 3.865723 -0.044189 0.356863 0.427451 0.341176 #0.000000
v -0.048584 3.673096 -0.044922 0.356863 0.427451 0.341176 #0.000000
v -0.794922 4.058105 -0.043213 0.356863 0.427451 0.341176 #0.000000
v -0.048584 3.865723 -0.044189 0.356863 0.427451 0.341176 #0.000000
v 0.124512 1.957275 -0.017334 0.356863 0.427451 0.341176 #0.000000
v 0.124512 2.479248 -0.017334 0.356863 0.427451 0.341176 #0.000000
v -0.048584 2.520752 -0.017334 0.356863 0.427451 0.341176 #0.000000
v 0.124512 1.957275 -0.017334 0.356863 0.427451 0.341176 #0.000000
v 0.124512 1.684082 -0.017334 0.356863 0.427451 0.341176 #0.000000
v 0.566895 1.711182 -0.017334 0.356863 0.427451 0.341176 #0.000000
v 0.566895 1.711182 -0.017334 0.356863 0.427451 0.341176 #0.000000
v 0.592041 2.398193 -0.017334 0.356863 0.427451 0.341176 #0.000000
v 0.124512 2.479248 -0.017334 0.356863 0.427451 0.341176 #0.000000
v 0.124512 1.957275 -0.017334 0.356863 0.427451 0.341176 #0.000000
v 0.566895 1.711182 -0.017334 0.356863 0.427451 0.341176 #0.000000
v 0.124512 2.479248 -0.017334 0.356863 0.427451 0.341176 #0.000000
v 0.708496 2.380371 0.084473 0.356863 0.427451 0.341176 #0.000000
v 0.709717 1.711182 0.084473 0.356863 0.427451 0.341176 #0.000000
v 0.840576 1.710938 -0.017334 0.356863 0.427451 0.341176 #0.000000
v 0.840576 1.710938 -0.017334 0.356863 0.427451 0.341176 #0.000000
v 0.809814 2.364990 -0.017334 0.356863 0.427451 0.341176 #0.000000
v 0.708496 2.380371 0.084473 0.356863 0.427451 0.341176 #0.000000
v 0.809814 2.364990 -0.017334 0.356863 0.427451 0.341176 #0.000000
v 0.840576 1.710938 -0.017334 0.356863 0.427451 0.341176 #0.000000
v 2.138672 1.874756 -0.017334 0.356863 0.427451 0.341176 #0.000000
v 2.138672 1.874756 -0.017334 0.356863 0.427451 0.341176 #0.000000
v 2.181396 2.079346 -0.017334 0.356863 0.427451 0.341176 #0.000000
v 0.809814 2.364990 -0.017334 0.356863 0.427451 0.341176 #0.000000
v -0.048584 1.684082 0.275879 0.356863 0.427451 0.341176 #0.000000
v -0.048584 1.194336 0.275879 0.356863 0.427451 0.341176 #0.000000
v 0.078613 1.194336 0.136230 0.356863 0.427451 0.341176 #0.000000
v 0.078613 1.194336 0.136230 0.356863 0.427451 0.341176 #0.000000
v 0.094482 1.684082 0.136230 0.356863 0.427451 0.341176 #0.000000
v -0.048584 1.684082 0.275879 0.356863 0.427451 0.341176 #0.000000
v -0.048584 1.194336 0.275879 0.356863 0.427451 0.341176 #0.000000
v -0.048584 0.819092 -0.017334 0.356863 0.427451 0.341176 #0.000000
v 0.044434 1.004395 0.136230 0.356863 0.427451 0.341176 #0.000000
v 0.044434 1.004395 0.136230 0.356863 0.427451 0.341176 #0.000000
v 0.078613 1.194336 0.136230 0.356863 0.427451 0.341176 #0.000000
v -0.048584 1.194336 0.275879 0.356863 0.427451 0.341176 #0.000000
v 0.709717 1.711182 0.084473 0.356863 0.427451 0.341176 #0.000000
v 0.710449 1.233154 0.084473 0.356863 0.427451 0.341176 #0.000000
v 0.791260 1.122070 -0.017334 0.356863 0.427451 0.341176 #0.000000
v 0.791260 1.122070 -0.017334 0.356863 0.427451 0.341176 #0.000000
v 0.840576 1.710938 -0.017334 0.356863 0.427451 0.341176 #0.000000
v 0.709717 1.711182 0.084473 0.356863 0.427451 0.341176 #0.000000
v 0.708496 2.380371 0.084473 0.356863 0.427451 0.341176 #0.000000
v 0.809814 2.364990 -0.017334 0.356863 0.427451 0.341176 #0.000000
v 0.703613 4.061279 -0.023193 0.356863 0.427451 0.341176 #0.000000
v 0.566895 1.711182 -0.017334 0.356863 0.427451 0.341176 #0.000000
v 0.619141 1.122314 -0.017334 0.356863 0.427451 0.341176 #0.000000
v 0.710449 1.233154 0.084473 0.356863 0.427451 0.341176 #0.000000
v 0.710449 1.233154 0.084473 0.356863 0.427451 0.341176 #0.000000
v 0.709717 1.711182 0.084473 0.356863 0.427451 0.341176 #0.000000
v 0.566895 1.711182 -0.017334 0.356863 0.427451 0.341176 #0.000000
v 0.592041 2.398193 -0.017334 0.356863 0.427451 0.341176 #0.000000
v 0.566895 1.711182 -0.017334 0.356863 0.427451 0.341176 #0.000000
v 0.709717 1.711182 0.084473 0.356863 0.427451 0.341176 #0.000000
v 0.709717 1.711182 0.084473 0.356863 0.427451 0.341176 #0.000000
v 0.708496 2.380371 0.084473 0.356863 0.427451 0.341176 #0.000000
v 0.592041 2.398193 -0.017334 0.356863 0.427451 0.341176 #0.000000
v 0.592041 2.398193 -0.017334 0.356863 0.427451 0.341176 #0.000000
v 0.708496 2.380371 0.084473 0.356863 0.427451 0.341176 #0.000000
v 0.703613 4.061279 -0.023193 0.356863 0.427451 0.341176 #0.000000
v 0.124512 1.957275 -0.017334 0.356863 0.427451 0.341176 #0.000000
v -0.048584 2.520752 -0.017334 0.356863 0.427451 0.341176 #0.000000
v 0.094482 1.957275 0.136230 0.356863 0.427451 0.341176 #0.000000
v 0.094482 1.684082 0.136230 0.356863 0.427451 0.341176 #0.000000
v 0.124512 1.684082 -0.017334 0.356863 0.427451 0.341176 #0.000000
v 0.124512 1.957275 -0.017334 0.356863 0.427451 0.341176 #0.000000
v 0.124512 1.957275 -0.017334 0.356863 0.427451 0.341176 #0.000000
v 0.094482 1.957275 0.136230 0.356863 0.427451 0.341176 #0.000000
v 0.094482 1.684082 0.136230 0.356863 0.427451 0.341176 #0.000000
v 0.078613 1.194336 0.136230 0.356863 0.427451 0.341176 #0.000000
v 0.108643 1.194336 -0.017334 0.356863 0.427451 0.341176 #0.000000
v 0.124512 1.684082 -0.017334 0.356863 0.427451 0.341176 #0.000000
v 0.124512 1.684082 -0.017334 0.356863 0.427451 0.341176 #0.000000
v 0.094482 1.684082 0.136230 0.356863 0.427451 0.341176 #0.000000
v 0.078613 1.194336 0.136230 0.356863 0.427451 0.341176 #0.000000
v 0.044434 1.004395 0.136230 0.356863 0.427451 0.341176 #0.000000
v -0.048584 0.819092 -0.017334 0.356863 0.427451 0.341176 #0.000000
v 0.074463 1.004395 -0.017334 0.356863 0.427451 0.341176 #0.000000
v 0.044434 1.004395 0.136230 0.356863 0.427451 0.341176 #0.000000
v 0.074463 1.004395 -0.017334 0.356863 0.427451 0.341176 #0.000000
v 0.108643 1.194336 -0.017334 0.356863 0.427451 0.341176 #0.000000
v 0.108643 1.194336 -0.017334 0.356863 0.427451 0.341176 #0.000000
v 0.078613 1.194336 0.136230 0.356863 0.427451 0.341176 #0.000000
v 0.044434 1.004395 0.136230 0.356863 0.427451 0.341176 #0.000000
v -0.048584 4.058350 -0.017334 0.356863 0.427451 0.341176 #0.000000
v -0.048584 3.673340 -0.017334 0.356863 0.427451 0.341176 #0.000000
v 0.697266 3.673340 -0.017334 0.356863 0.427451 0.341176 #0.000000
v 0.697266 3.673340 -0.017334 0.356863 0.427451 0.341176 #0.000000
v 0.703613 4.061279 -0.023193 0.356863 0.427451 0.341176 #0.000000
v -0.048584 4.058350 -0.017334 0.356863 0.427451 0.341176 #0.000000
v 0.703613 4.061279 -0.023193 0.356863 0.427451 0.341176 #0.000000
v 0.697266 3.673340 -0.017334 0.356863 0.427451 0.341176 #0.000000
v 0.827393 3.699707 -0.017334 0.356863 0.427451 0.341176 #0.000000
v 0.827393 3.699707 -0.017334 0.356863 0.427451 0.341176 #0.000000
v 0.827393 4.001953 -0.017334 0.356863 0.427451 0.341176 #0.000000
v 0.703613 4.061279 -0.023193 0.356863 0.427451 0.341176 #0.000000
v 0.827393 4.001953 -0.017334 0.356863 0.427451 0.341176 #0.000000
v 0.827393 3.699707 -0.017334 0.356863 0.427451 0.341176 #0.000000
v 0.911865 3.781738 -0.017334 0.356863 0.427451 0.341176 #0.000000
v 0.911865 3.781738 -0.017334 0.356863 0.427451 0.341176 #0.000000
v 0.911865 3.919922 -0.017334 0.356863 0.427451 0.341176 #0.000000
v 0.827393 4.001953 -0.017334 0.356863 0.427451 0.341176 #0.000000
v -0.048584 2.520752 -0.017334 0.356863 0.427451 0.341176 #0.000000
v 0.124512 2.479248 -0.017334 0.356863 0.427451 0.341176 #0.000000
v 0.124512 1.957275 -0.017334 0.356863 0.427451 0.341176 #0.000000
v 0.566895 1.711182 -0.017334 0.356863 0.427451 0.341176 #0.000000
v 0.124512 1.957275 -0.017334 0.356863 0.427451 0.341176 #0.000000
v 0.124512 2.479248 -0.017334 0.356863 0.427451 0.341176 #0.000000
v 0.124512 2.479248 -0.017334 0.356863 0.427451 0.341176 #0.000000
v 0.592041 2.398193 -0.017334 0.356863 0.427451 0.341176 #0.000000
v 0.566895 1.711182 -0.017334 0.356863 0.427451 0.341176 #0.000000
v 0.802734 1.710938 -0.210938 0.356863 0.427451 0.341176 #0.000000
v 0.709717 1.711182 -0.312256 0.356863 0.427451 0.341176 #0.000000
v 0.708496 2.380371 -0.312256 0.356863 0.427451 0.341176 #0.000000
v 0.708496 2.380371 -0.312256 0.356863 0.427451 0.341176 #0.000000
v 0.780273 2.364990 -0.210938 0.356863 0.427451 0.341176 #0.000000
v 0.802734 1.710938 -0.210938 0.356863 0.427451 0.341176 #0.000000
v 2.138672 1.874756 -0.017334 0.356863 0.427451 0.341176 #0.000000
v 0.840576 1.710938 -0.017334 0.356863 0.427451 0.341176 #0.000000
v 0.809814 2.364990 -0.017334 0.356863 0.427451 0.341176 #0.000000
v 0.809814 2.364990 -0.017334 0.356863 0.427451 0.341176 #0.000000
v 2.181396 2.079346 -0.017334 0.356863 0.427451 0.341176 #0.000000
v 2.138672 1.874756 -0.017334 0.356863 0.427451 0.341176 #0.000000
v 0.566895 1.711182 -0.017334 0.356863 0.427451 0.341176 #0.000000
v 0.124512 1.684082 -0.017334 0.356863 0.427451 0.341176 #0.000000
v 0.124512 1.957275 -0.017334 0.356863 0.427451 0.341176 #0.000000
v 0.078613 1.194336 -0.170898 0.356863 0.427451 0.341176 #0.000000
v -0.048584 1.194336 -0.375977 0.356863 0.427451 0.341176 #0.000000
v -0.048584 1.684082 -0.375977 0.356863 0.427451 0.341176 #0.000000
v -0.048584 1.684082 -0.375977 0.356863 0.427451 0.341176 #0.000000
v 0.094482 1.684082 -0.236328 0.356863 0.427451 0.341176 #0.000000
v 0.078613 1.194336 -0.170898 0.356863 0.427451 0.341176 #0.000000
v 0.044434 1.004395 -0.170898 0.356863 0.427451 0.341176 #0.000000
v -0.048584 0.819092 -0.017334 0.356863 0.427451 0.341176 #0.000000
v -0.048584 1.194336 -0.375977 0.356863 0.427451 0.341176 #0.000000
v -0.048584 1.194336 -0.375977 0.356863 0.427451 0.341176 #0.000000
v 0.078613 1.194336 -0.170898 0.356863 0.427451 0.341176 #0.000000
v 0.044434 1.004395 -0.170898 0.356863 0.427451 0.341176 #0.000000
v 0.767090 1.122070 -0.210938 0.356863 0.427451 0.341176 #0.000000
v 0.710449 1.233154 -0.312256 0.356863 0.427451 0.341176 #0.000000
v 0.709717 1.711182 -0.312256 0.356863 0.427451 0.341176 #0.000000
v 0.709717 1.711182 -0.312256 0.356863 0.427451 0.341176 #0.000000
v 0.802734 1.710938 -0.210938 0.356863 0.427451 0.341176 #0.000000
v 0.767090 1.122070 -0.210938 0.356863 0.427451 0.341176 #0.000000
v 0.703613 4.061279 -0.023193 0.356863 0.427451 0.341176 #0.000000
v 0.780273 2.364990 -0.210938 0.356863 0.427451 0.341176 #0.000000
v 0.708496 2.380371 -0.312256 0.356863 0.427451 0.341176 #0.000000
v 0.710449 1.233154 -0.312256 0.356863 0.427451 0.341176 #0.000000
v 0.642334 1.122314 -0.210938 0.356863 0.427451 0.341176 #0.000000
v 0.604492 1.711182 -0.210938 0.356863 0.427451 0.341176 #0.000000
v 0.604492 1.711182 -0.210938 0.356863 0.427451 0.341176 #0.000000
v 0.709717 1.711182 -0.312256 0.356863 0.427451 0.341176 #0.000000
v 0.710449 1.233154 -0.312256 0.356863 0.427451 0.341176 #0.000000
v 0.709717 1.711182 -0.312256 0.356863 0.427451 0.341176 #0.000000
v 0.604492 1.711182 -0.210938 0.356863 0.427451 0.341176 #0.000000
v 0.622803 2.398193 -0.210938 0.356863 0.427451 0.341176 #0.000000
v 0.622803 2.398193 -0.210938 0.356863 0.427451 0.341176 #0.000000
v 0.708496 2.380371 -0.312256 0.356863 0.427451 0.341176 #0.000000
v 0.709717 1.711182 -0.312256 0.356863 0.427451 0.341176 #0.000000
v 0.703613 4.061279 -0.023193 0.356863 0.427451 0.341176 #0.000000
v 0.708496 2.380371 -0.312256 0.356863 0.427451 0.341176 #0.000000
v 0.622803 2.398193 -0.210938 0.356863 0.427451 0.341176 #0.000000
v 0.094482 1.957275 -0.236328 0.356863 0.427451 0.341176 #0.000000
v -0.048584 2.520752 -0.017334 0.356863 0.427451 0.341176 #0.000000
v 0.124512 1.957275 -0.017334 0.356863 0.427451 0.341176 #0.000000
v 0.094482 1.684082 -0.236328 0.356863 0.427451 0.341176 #0.000000
v 0.124512 1.957275 -0.017334 0.356863 0.427451 0.341176 #0.000000
v 0.124512 1.684082 -0.017334 0.356863 0.427451 0.341176 #0.000000
v 0.124512 1.957275 -0.017334 0.356863 0.427451 0.341176 #0.000000
v 0.094482 1.684082 -0.236328 0.356863 0.427451 0.341176 #0.000000
v 0.094482 1.957275 -0.236328 0.356863 0.427451 0.341176 #0.000000
v 0.124512 1.684082 -0.017334 0.356863 0.427451 0.341176 #0.000000
v 0.108643 1.194336 -0.017334 0.356863 0.427451 0.341176 #0.000000
v 0.078613 1.194336 -0.170898 0.356863 0.427451 0.341176 #0.000000
v 0.078613 1.194336 -0.170898 0.356863 0.427451 0.341176 #0.000000
v 0.094482 1.684082 -0.236328 0.356863 0.427451 0.341176 #0.000000
v 0.124512 1.684082 -0.017334 0.356863 0.427451 0.341176 #0.000000
v 0.074463 1.004395 -0.017334 0.356863 0.427451 0.341176 #0.000000
v -0.048584 0.819092 -0.017334 0.356863 0.427451 0.341176 #0.000000
v 0.044434 1.004395 -0.170898 0.356863 0.427451 0.341176 #0.000000
v 0.108643 1.194336 -0.017334 0.356863 0.427451 0.341176 #0.000000
v 0.074463 1.004395 -0.017334 0.356863 0.427451 0.341176 #0.000000
v 0.044434 1.004395 -0.170898 0.356863 0.427451 0.341176 #0.000000
v 0.044434 1.004395 -0.170898 0.356863 0.427451 0.341176 #0.000000
v 0.078613 1.194336 -0.170898 0.356863 0.427451 0.341176 #0.000000
v 0.108643 1.194336 -0.017334 0.356863 0.427451 0.341176 #0.000000
v 0.622803 2.398193 -0.210938 0.356863 0.427451 0.341176 #0.000000
v 0.566895 1.711182 -0.017334 0.356863 0.427451 0.341176 #0.000000
v 0.592041 2.398193 -0.017334 0.356863 0.427451 0.341176 #0.000000
v 0.566895 1.711182 -0.017334 0.356863 0.427451 0.341176 #0.000000
v 0.622803 2.398193 -0.210938 0.356863 0.427451 0.341176 #0.000000
v 0.604492 1.711182 -0.210938 0.356863 0.427451 0.341176 #0.000000
v 0.802734 1.710938 -0.210938 0.356863 0.427451 0.341176 #0.000000
v 0.809814 2.364990 -0.017334 0.356863 0.427451 0.341176 #0.000000
v 0.840576 1.710938 -0.017334 0.356863 0.427451 0.341176 #0.000000
v 0.809814 2.364990 -0.017334 0.356863 0.427451 0.341176 #0.000000
v 0.802734 1.710938 -0.210938 0.356863 0.427451 0.341176 #0.000000
v 0.780273 2.364990 -0.210938 0.356863 0.427451 0.341176 #0.000000
v 0.840576 1.710938 -0.017334 0.356863 0.427451 0.341176 #0.000000
v 0.791260 1.122070 -0.017334 0.356863 0.427451 0.341176 #0.000000
v 0.767090 1.122070 -0.210938 0.356863 0.427451 0.341176 #0.000000
v 0.767090 1.122070 -0.210938 0.356863 0.427451 0.341176 #0.000000
v 0.802734 1.710938 -0.210938 0.356863 0.427451 0.341176 #0.000000
v 0.840576 1.710938 -0.017334 0.356863 0.427451 0.341176 #0.000000
v 0.780273 2.364990 -0.210938 0.356863 0.427451 0.341176 #0.000000
v 0.703613 4.061279 -0.023193 0.356863 0.427451 0.341176 #0.000000
v 0.809814 2.364990 -0.017334 0.356863 0.427451 0.341176 #0.000000
v 0.619141 1.122314 -0.017334 0.356863 0.427451 0.341176 #0.000000
v 0.566895 1.711182 -0.017334 0.356863 0.427451 0.341176 #0.000000
v 0.604492 1.711182 -0.210938 0.356863 0.427451 0.341176 #0.000000
v 0.604492 1.711182 -0.210938 0.356863 0.427451 0.341176 #0.000000
v 0.642334 1.122314 -0.210938 0.356863 0.427451 0.341176 #0.000000
v 0.619141 1.122314 -0.017334 0.356863 0.427451 0.341176 #0.000000
v 0.592041 2.398193 -0.017334 0.356863 0.427451 0.341176 #0.000000
v 0.703613 4.061279 -0.023193 0.356863 0.427451 0.341176 #0.000000
v 0.622803 2.398193 -0.210938 0.356863 0.427451 0.341176 #0.000000
v 0.094482 1.957275 0.136230 0.356863 0.427451 0.341176 #0.000000
v -0.048584 1.969971 0.201904 0.356863 0.427451 0.341176 #0.000000
v -0.048584 1.684082 0.275879 0.356863 0.427451 0.341176 #0.000000
v -0.048584 1.684082 0.275879 0.356863 0.427451 0.341176 #0.000000
v 0.094482 1.684082 0.136230 0.356863 0.427451 0.341176 #0.000000
v 0.094482 1.957275 0.136230 0.356863 0.427451 0.341176 #0.000000
v -0.048584 2.520752 -0.017334 0.356863 0.427451 0.341176 #0.000000
v -0.048584 1.969971 0.201904 0.356863 0.427451 0.341176 #0.000000
v 0.094482 1.957275 0.136230 0.356863 0.427451 0.341176 #0.000000
v -0.048584 1.684082 -0.375977 0.356863 0.427451 0.341176 #0.000000
v -0.048584 2.006348 -0.296631 0.356863 0.427451 0.341176 #0.000000
v 0.094482 1.957275 -0.236328 0.356863 0.427451 0.341176 #0.000000
v 0.094482 1.957275 -0.236328 0.356863 0.427451 0.341176 #0.000000
v 0.094482 1.684082 -0.236328 0.356863 0.427451 0.341176 #0.000000
v -0.048584 1.684082 -0.375977 0.356863 0.427451 0.341176 #0.000000
v -0.048584 2.006348 -0.296631 0.356863 0.427451 0.341176 #0.000000
v -0.048584 2.520752 -0.017334 0.356863 0.427451 0.341176 #0.000000
v 0.094482 1.957275 -0.236328 0.356863 0.427451 0.341176 #0.000000
v 0.702148 3.994141 0.401611 0.356863 0.427451 0.341176 #0.000000
v 0.696045 3.749023 0.407471 0.356863 0.427451 0.341176 #0.000000
v 0.703613 4.061279 -0.023193 0.356863 0.427451 0.341176 #0.000000
v 0.697266 3.673340 -0.017334 0.356863 0.427451 0.341176 #0.000000
v 0.703613 4.061279 -0.023193 0.356863 0.427451 0.341176 #0.000000
v 0.696045 3.749023 0.407471 0.356863 0.427451 0.341176 #0.000000
v 0.704590 3.986328 -0.407471 0.356863 0.427451 0.341176 #0.000000
v 0.698486 3.741211 -0.401611 0.356863 0.427451 0.341176 #0.000000
v 0.703613 4.061279 -0.023193 0.356863 0.427451 0.341176 #0.000000
v 0.697266 3.673340 -0.017334 0.356863 0.427451 0.341176 #0.000000
v 0.703613 4.061279 -0.023193 0.356863 0.427451 0.341176 #0.000000
v 0.698486 3.741211 -0.401611 0.356863 0.427451 0.341176 #0.000000
v 0.703613 3.669922 -0.039063 0.356863 0.427451 0.341176 #0.000000
v 0.697266 4.058105 -0.043213 0.356863 0.427451 0.341176 #0.000000
v 0.827393 4.031738 -0.043457 0.356863 0.427451 0.341176 #0.000000
v 0.827393 4.031738 -0.043457 0.356863 0.427451 0.341176 #0.000000
v 0.827393 3.729492 -0.044678 0.356863 0.427451 0.341176 #0.000000
v 0.703613 3.669922 -0.039063 0.356863 0.427451 0.341176 #0.000000
v 0.827393 3.729492 -0.044678 0.356863 0.427451 0.341176 #0.000000
v 0.827393 4.031738 -0.043457 0.356863 0.427451 0.341176 #0.000000
v 0.911865 3.949707 -0.043701 0.356863 0.427451 0.341176 #0.000000
v 0.911865 3.949707 -0.043701 0.356863 0.427451 0.341176 #0.000000
v 0.911865 3.811523 -0.044434 0.356863 0.427451 0.341176 #0.000000
v 0.827393 3.729492 -0.044678 0.356863 0.427451 0.341176 #0.000000
v 0.697266 4.058105 -0.043213 0.356863 0.427451 0.341176 #0.000000
v 0.703613 3.669922 -0.039063 0.356863 0.427451 0.341176 #0.000000
v -0.048584 3.673096 -0.044922 0.356863 0.427451 0.341176 #0.000000
v 0.697266 4.058105 -0.043213 0.356863 0.427451 0.341176 #0.000000
v -0.048584 3.673096 -0.044922 0.356863 0.427451 0.341176 #0.000000
v -0.048584 3.865723 -0.044189 0.356863 0.427451 0.341176 #0.000000
v 0.697266 4.058105 -0.043213 0.356863 0.427451 0.341176 #0.000000
v -0.048584 3.865723 -0.044189 0.356863 0.427451 0.341176 #0.000000
v -0.048584 4.058105 -0.043213 0.356863 0.427451 0.341176 #0.000000
v 0.693359 3.749023 0.407471 0.356863 0.427451 0.341176 #0.000000
v 0.687256 3.994141 0.401611 0.356863 0.427451 0.341176 #0.000000
v 0.686035 4.061279 -0.023193 0.356863 0.427451 0.341176 #0.000000
v 0.686035 4.061279 -0.023193 0.356863 0.427451 0.341176 #0.000000
v 0.692139 3.673340 -0.017334 0.356863 0.427451 0.341176 #0.000000
v 0.693359 3.749023 0.407471 0.356863 0.427451 0.341176 #0.000000
v -0.775391 4.061279 -0.023193 0.356863 0.427451 0.341176 #0.000000
v -0.774170 3.986328 -0.407471 0.356863 0.427451 0.341176 #0.000000
v -0.780518 3.741211 -0.401611 0.356863 0.427451 0.341176 #0.000000
v -0.780518 3.741211 -0.401611 0.356863 0.427451 0.341176 #0.000000
v -0.781738 3.673340 -0.017334 0.356863 0.427451 0.341176 #0.000000
v -0.775391 4.061279 -0.023193 0.356863 0.427451 0.341176 #0.000000
v 0.702393 3.741211 -0.401611 0.356863 0.427451 0.341176 #0.000000
v 0.696289 3.986328 -0.407471 0.356863 0.427451 0.341176 #0.000000
v 0.697510 4.061279 -0.023193 0.356863 0.427451 0.341176 #0.000000
v 0.697510 4.061279 -0.023193 0.356863 0.427451 0.341176 #0.000000
v 0.703613 3.673340 -0.017334 0.356863 0.427451 0.341176 #0.000000
v 0.702393 3.741211 -0.401611 0.356863 0.427451 0.341176 #0.000000
v -0.795166 4.061279 -0.023193 0.356863 0.427451 0.341176 #0.000000
v -0.796387 3.994141 0.401611 0.356863 0.427451 0.341176 #0.000000
v -0.802490 3.749023 0.407471 0.356863 0.427451 0.341176 #0.000000
v -0.802490 3.749023 0.407471 0.356863 0.427451 0.341176 #0.000000
v -0.801270 3.673340 -0.017334 0.356863 0.427451 0.341176 #0.000000
v -0.795166 4.061279 -0.023193 0.356863 0.427451 0.341176 #0.000000
vt 0.000000 0.000000 0.000000
vt 0.000000 0.000000 0.000000
vt 0.000000 0.000000 0.000000
vt 0.000000 0.000000 0.000000
vt 0.000000 0.000000 0.000000
vt 0.000000 0.000000 0.000000
vt 0.000000 0.000000 0.000000
vt 0.000000 0.000000 0.000000
vt 0.000000 0.000000 0.000000
vt 0.000000 0.000000 0.000000
vt 0.000000 0.000000 0.000000
vt 0.000000 0.000000 0.000000
vt 0.000000 0.000000 0.000000
vt 0.000000 0.000000 0.000000
vt 0.000000 0.000000 0.000000
vt 0.000000 0.000000 0.000000
vt 0.000000 0.000000 0.000000
vt 0.000000 0.000000 0.000000
vt 0.000000 0.000000 0.000000
vt 0.000000 0.000000 0.000000
vt 0.000000 0.000000 0.000000
vt 0.000000 0.000000 0.000000
vt 0.000000 0.000000 0.000000
vt 0.000000 0.000000 0.000000
vt 0.000000 0.000000 0.000000
vt 0.000000 0.000000 0.000000
vt 0.000000 0.000000 0.000000
vt 0.000000 0.000000 0.000000
vt 0.000000 0.000000 0.000000
vt 0.000000 0.000000 0.000000
vt 0.000000 0.000000 0.000000
vt 0.000000 0.000000 0.000000
vt 0.000000 0.000000 0.000000
vt 0.000000 0.000000 0.000000
vt 0.000000 0.000000 0.000000
vt 0.000000 0.000000 0.000000
vt 0.000000 0.000000 0.000000
vt 0.000000 0.000000 0.000000
vt 0.000000 0.000000 0.000000
vt 0.000000 0.000000 0.000000
vt 0.000000 0.000000 0.000000
vt 0.000000 0.000000 0.000000
vt 0.000000 0.000000 0.000000
vt 0.000000 0.000000 0.000000
vt 0.000000 0.000000 0.000000
vt 0.000000 0.000000 0.000000
vt 0.000000 0.000000 0.000000
vt 0.000000 0.000000 0.000000
vt 0.000000 0.000000 0.000000
vt 0.000000 0.000000 0.000000
vt 0.000000 0.000000 0.000000
vt 0.000000 0.000000 0.000000
vt 0.000000 0.000000 0.000000
vt 0.000000 0.000000 0.000000
vt 0.000000 0.000000 0.000000
vt 0.000000 0.000000 0.000000
vt 0.000000 0.000000 0.000000
vt 0.000000 0.000000 0.000000
vt 0.000000 0.000000 0.000000
vt 0.000000 0.000000 0.000000
vt 0.000000 0.000000 0.000000
vt 0.000000 0.000000 0.000000
vt 0.000000 0.000000 0.000000
vt 0.000000 0.000000 0.000000
vt 0.000000 0.000000 0.000000
vt 0.000000 0.000000 0.000000
vt 0.000000 0.000000 0.000000
vt 0.000000 0.000000 0.000000
vt 0.000000 0.000000 0.000000
vt 0.000000 0.000000 0.000000
vt 0.000000 0.000000 0.000000
vt 0.000000 0.000000 0.000000
vt 0.000000 0.000000 0.000000
vt 0.000000 0.000000 0.000000
vt 0.000000 0.000000 0.000000
vt 0.000000 0.000000 0.000000
vt 0.000000 0.000000 0.000000
vt 0.000000 0.000000 0.000000
vt 0.000000 0.000000 0.000000
vt 0.000000 0.000000 0.000000
vt 0.000000 0.000000 0.000000
vt 0.000000 0.000000 0.000000
vt 0.000000 0.000000 0.000000
vt 0.000000 0.000000 0.000000
vt 0.000000 0.000000 0.000000
vt 0.000000 0.000000 0.000000
vt 0.000000 0.000000 0.000000
vt 0.000000 0.000000 0.000000
vt 0.000000 0.000000 0.000000
vt 0.000000 0.000000 0.000000
vt 0.000000 0.000000 0.000000
vt 0.000000 0.000000 0.000000
vt 0.000000 0.000000 0.000000
vt 0.000000 0.000000 0.000000
vt 0.000000 0.000000 0.000000
vt 0.000000 0.000000 0.000000
vt 0.000000 0.000000 0.000000
vt 0.000000 0.000000 0.000000
vt 0.000000 0.000000 0.000000
vt 0.000000 0.000000 0.000000
vt 0.000000 0.000000 0.000000
vt 0.000000 0.000000 0.000000
vt 0.000000 0.000000 0.000000
vt 0.000000 0.000000 0.000000
vt 0.000000 0.000000 0.000000
vt 0.000000 0.000000 0.000000
vt 0.000000 0.000000 0.000000
vt 0.000000 0.000000 0.000000
vt 0.000000 0.000000 0.000000
vt 0.000000 0.000000 0.000000
vt 0.000000 0.000000 0.000000
vt 0.000000 0.000000 0.000000
vt 0.000000 0.000000 0.000000
vt 0.000000 0.000000 0.000000
vt 0.000000 0.000000 0.000000
vt 0.000000 0.000000 0.000000
vt 0.000000 0.000000 0.000000
vt 0.000000 0.000000 0.000000
vt 0.000000 0.000000 0.000000
vt 0.000000 0.000000 0.000000
vt 0.000000 0.000000 0.000000
vt 0.000000 0.000000 0.000000
vt 0.000000 0.000000 0.000000
vt 0.000000 0.000000 0.000000
vt 0.000000 0.000000 0.000000
vt 0.000000 0.000000 0.000000
vt 0.000000 0.000000 0.000000
vt 0.000000 0.000000 0.000000
vt 0.000000 0.000000 0.000000
vt 0.000000 0.000000 0.000000
vt 0.000000 0.000000 0.000000
vt 0.000000 0.000000 0.000000
vt 0.000000 0.000000 0.000000
vt 0.000000 0.000000 0.000000
vt 0.000000 0.000000 0.000000
vt 0.000000 0.000000 0.000000
vt 0.000000 0.000000 0.000000
vt 0.000000 0.000000 0.000000
vt 0.000000 0.000000 0.000000
vt 0.000000 0.000000 0.000000
vt 0.000000 0.000000 0.000000
vt 0.000000 0.000000 0.000000
vt 0.000000 0.000000 0.000000
vt 0.000000 0.000000 0.000000
vt 0.000000 0.000000 0.000000
vt 0.000000 0.000000 0.000000
vt 0.000000 0.000000 0.000000
vt 0.000000 0.000000 0.000000
vt 0.000000 0.000000 0.000000
vt 0.000000 0.000000 0.000000
vt 0.000000 0.000000 0.000000
vt 0.000000 0.000000 0.000000
vt 0.000000 0.000000 0.000000
vt 0.000000 0.000000 0.000000
vt 0.000000 0.000000 0.000000
vt 0.000000 0.000000 0.000000
vt 0.000000 0.000000 0.000000
vt 0.000000 0.000000 0.000000
vt 0.000000 0.000000 0.000000
vt 0.000000 0.000000 0.000000
vt 0.000000 0.000000 0.000000
vt 0.000000 0.000000 0.000000
vt 0.000000 0.000000 0.000000
vt 0.000000 0.000000 0.000000
vt 0.000000 0.000000 0.000000
vt 0.000000 0.000000 0.000000
vt 0.000000 0.000000 0.000000
vt 0.000000 0.000000 0.000000
vt 0.000000 0.000000 0.000000
vt 0.000000 0.000000 0.000000
vt 0.000000 0.000000 0.000000
vt 0.000000 0.000000 0.000000
vt 0.000000 0.000000 0.000000
vt 0.000000 0.000000 0.000000
vt 0.000000 0.000000 0.000000
vt 0.000000 0.000000 0.000000
vt 0.000000 0.000000 0.000000
vt 0.000000 0.000000 0.000000
vt 0.000000 0.000000 0.000000
vt 0.000000 0.000000 0.000000
vt 0.000000 0.000000 0.000000
vt 0.000000 0.000000 0.000000
vt 0.000000 0.000000 0.000000
vt 0.000000 0.000000 0.000000
vt 0.000000 0.000000 0.000000
vt 0.000000 0.000000 0.000000
vt 0.000000 0.000000 0.000000
vt 0.000000 0.000000 0.000000
vt 0.000000 0.000000 0.000000
vt 0.000000 0.000000 0.000000
vt 0.000000 0.000000 0.000000
vt 0.000000 0.000000 0.000000
vt 0.000000 0.000000 0.000000
vt 0.000000 0.000000 0.000000
vt 0.000000 0.000000 0.000000
vt 0.000000 0.000000 0.000000
vt 0.000000 0.000000 0.000000
vt 0.000000 0.000000 0.000000
vt 0.000000 0.000000 0.000000
vt 0.000000 0.000000 0.000000
vt 0.000000 0.000000 0.000000
vt 0.000000 0.000000 0.000000
vt 0.000000 0.000000 0.000000
vt 0.000000 0.000000 0.000000
vt 0.000000 0.000000 0.000000
vt 0.000000 0.000000 0.000000
vt 0.000000 0.000000 0.000000
vt 0.000000 0.000000 0.000000
vt 0.000000 0.000000 0.000000
vt 0.000000 0.000000 0.000000
vt 0.000000 0.000000 0.000000
vt 0.000000 0.000000 0.000000
vt 0.000000 0.000000 0.000000
vt 0.000000 0.000000 0.000000
vt 0.000000 0.000000 0.000000
vt 0.000000 0.000000 0.000000
vt 0.000000 0.000000 0.000000
vt 0.000000 0.000000 0.000000
vt 0.000000 0.000000 0.000000
vt 0.000000 0.000000 0.000000
vt 0.000000 0.000000 0.000000
vt 0.000000 0.000000 0.000000
vt 0.000000 0.000000 0.000000
vt 0.000000 0.000000 0.000000
vt 0.000000 0.000000 0.000000
vt 0.000000 0.000000 0.000000
vt 0.000000 0.000000 0.000000
vt 0.000000 0.000000 0.000000
vt 0.000000 0.000000 0.000000
vt 0.000000 0.000000 0.000000
vt 0.000000 0.000000 0.000000
vt 0.000000 0.000000 0.000000
vt 0.000000 0.000000 0.000000
vt 0.000000 0.000000 0.000000
vt 0.000000 0.000000 0.000000
vt 0.000000 0.000000 0.000000
vt 0.000000 0.000000 0.000000
vt 0.000000 0.000000 0.000000
vt 0.000000 0.000000 0.000000
vt 0.000000 0.000000 0.000000
vt 0.000000 0.000000 0.000000
vt 0.000000 0.000000 0.000000
vt 0.000000 0.000000 0.000000
vt 0.000000 0.000000 0.000000
vt 0.000000 0.000000 0.000000
vt 0.000000 0.000000 0.000000
vt 0.000000 0.000000 0.000000
vt 0.000000 0.000000 0.000000
vt 0.000000 0.000000 0.000000
vt 0.000000 0.000000 0.000000
vt 0.000000 0.000000 0.000000
vt 0.000000 0.000000 0.000000
vt 0.000000 0.000000 0.000000
vt 0.000000 0.000000 0.000000
vt 0.000000 0.000000 0.000000
vt 0.000000 0.000000 0.000000
vt 0.000000 0.000000 0.000000
vt 0.000000 0.000000 0.000000
vt 0.000000 0.000000 0.000000
vt 0.000000 0.000000 0.000000
vt 0.000000 0.000000 0.000000
vt 0.000000 0.000000 0.000000
vt 0.000000 0.000000 0.000000
vt 0.000000 0.000000 0.000000
vt 0.000000 0.000000 0.000000
vt 0.000000 0.000000 0.000000
vt 0.000000 0.000000 0.000000
vt 0.000000 0.000000 0.000000
vt 0.000000 0.000000 0.000000
vt 0.000000 0.000000 0.000000
vt 0.000000 0.000000 0.000000
vt 0.000000 0.000000 0.000000
vt 0.000000 0.000000 0.000000
vt 0.000000 0.000000 0.000000
vt 0.000000 0.000000 0.000000
vt 0.000000 0.000000 0.000000
vt 0.000000 0.000000 0.000000
vt 0.000000 0.000000 0.000000
vt 0.000000 0.000000 0.000000
vt 0.000000 0.000000 0.000000
vt 0.000000 0.000000 0.000000
vt 0.000000 0.000000 0.000000
vt 0.000000 0.000000 0.000000
vt 0.000000 0.000000 0.000000
vt 0.000000 0.000000 0.000000
vt 0.000000 0.000000 0.000000
vt 0.000000 0.000000 0.000000
vt 0.000000 0.000000 0.000000
vt 0.000000 0.000000 0.000000
vt 0.000000 0.000000 0.000000
vt 0.000000 0.000000 0.000000
vt 0.000000 0.000000 0.000000
vt 0.000000 0.000000 0.000000
vt 0.000000 0.000000 0.000000
vt 0.000000 0.000000 0.000000
vt 0.000000 0.000000 0.000000
vt 0.000000 0.000000 0.000000
vt 0.000000 0.000000 0.000000
vt 0.000000 0.000000 0.000000
vt 0.000000 0.000000 0.000000
vt 0.000000 0.000000 0.000000
vt 0.000000 0.000000 0.000000
vt 0.000000 0.000000 0.000000
vt 0.000000 0.000000 0.000000
vt 0.000000 0.000000 0.000000
vt 0.000000 0.000000 0.000000
vt 0.000000 0.000000 0.000000
vt 0.000000 0.000000 0.000000
vt 0.000000 0.000000 0.000000
vt 0.000000 0.000000 0.000000
vt 0.000000 0.000000 0.000000
vt 0.000000 0.000000 0.000000
vt 0.000000 0.000000 0.000000
vt 0.000000 0.000000 0.000000
vt 0.000000 0.000000 0.000000
vt 0.000000 0.000000 0.000000
vt 0.000000 0.000000 0.000000
vt 0.000000 0.000000 0.000000
vt 0.000000 0.000000 0.000000
vt 0.000000 0.000000 0.000000
vt 0.000000 0.000000 0.000000
vt 0.000000 0.000000 0.000000
vt 0.000000 0.000000 0.000000
vt 0.000000 0.000000 0.000000
vt 0.000000 0.000000 0.000000
vt 0.000000 0.000000 0.000000
vt 0.000000 0.000000 0.000000
vt 0.000000 0.000000 0.000000
vt 0.000000 0.000000 0.000000
vt 0.000000 0.000000 0.000000
vt 0.000000 0.000000 0.000000
vt 0.000000 0.000000 0.000000
vt 0.000000 0.000000 0.000000
vt 0.000000 0.000000 0.000000
vt 0.000000 0.000000 0.000000
vt 0.000000 0.000000 0.000000
vt 0.000000 0.000000 0.000000
vt 0.000000 0.000000 0.000000
vt 0.000000 0.000000 0.000000
vt 0.000000 0.000000 0.000000
vt 0.000000 0.000000 0.000000
vt 0.000000 0.000000 0.000000
vt 0.000000 0.000000 0.000000
vt 0.000000 0.000000 0.000000
vt 0.000000 0.000000 0.000000
vt 0.000000 0.000000 0.000000
vt 0.000000 0.000000 0.000000
vt 0.000000 0.000000 0.000000
vt 0.000000 0.000000 0.000000
vt 0.000000 0.000000 0.000000
vt 0.000000 0.000000 0.000000
vt 0.000000 0.000000 0.000000
vt 0.000000 0.000000 0.000000
vt 0.000000 0.000000 0.000000
vt 0.000000 0.000000 0.000000
vt 0.000000 0.000000 0.000000
vt 0.000000 0.000000 0.000000
vt 0.000000 0.000000 0.000000
vt 0.000000 0.000000 0.000000
vt 0.000000 0.000000 0.000000
vt 0.000000 0.000000 0.000000
vt 0.000000 0.000000 0.000000
vt 0.000000 0.000000 0.000000
vt 0.000000 0.000000 0.000000
vt 0.000000 0.000000 0.000000
vt 0.000000 0.000000 0.000000
vt 0.000000 0.000000 0.000000
vt 0.000000 0.000000 0.000000
vt 0.000000 0.000000 0.000000
vt 0.000000 0.000000 0.000000
vt 0.000000 0.000000 0.000000
vt 0.000000 0.000000 0.000000
vt 0.000000 0.000000 0.000000
vt 0.000000 0.000000 0.000000
vt 0.000000 0.000000 0.000000
vt 0.000000 0.000000 0.000000
vt 0.000000 0.000000 0.000000
vt 0.000000 0.000000 0.000000
vt 0.000000 0.000000 0.000000
vt 0.000000 0.000000 0.000000
vt 0.000000 0.000000 0.000000
vt 0.000000 0.000000 0.000000
vt 0.000000 0.000000 0.000000
vt 0.000000 0.000000 0.000000
vt 0.000000 0.000000 0.000000
vt 0.000000 0.000000 0.000000
vt 0.000000 0.000000 0.000000
vt 0.000000 0.000000 0.000000
vt 0.000000 0.000000 0.000000
vt 0.000000 0.000000 0.000000
vt 0.000000 0.000000 0.000000
vt 0.000000 0.000000 0.000000
vt 0.000000 0.000000 0.000000
vt 0.000000 0.000000 0.000000
vt 0.000000 0.000000 0.000000
vt 0.000000 0.000000 0.000000
vt 0.000000 0.000000 0.000000
vt 0.000000 0.000000 0.000000
vt 0.000000 0.000000 0.000000
vt 0.000000 0.000000 0.000000
vt 0.000000 0.000000 0.000000
vt 0.000000 0.000000 0.000000
vt 0.000000 0.000000 0.000000
vt 0.000000 0.000000 0.000000
vt 0.000000 0.000000 0.000000
vt 0.000000 0.000000 0.000000
vt 0.000000 0.000000 0.000000
vt 0.000000 0.000000 0.000000
vt 0.000000 0.000000 0.000000
vt 0.000000 0.000000 0.000000
vt 0.000000 0.000000 0.000000
vt 0.000000 0.000000 0.000000
vt 0.000000 0.000000 0.000000
vt 0.000000 0.000000 0.000000
vt 0.000000 0.000000 0.000000
vt 0.000000 0.000000 0.000000
vt 0.000000 0.000000 0.000000
vt 0.000000 0.000000 0.000000
vt 0.000000 0.000000 0.000000
vt 0.000000 0.000000 0.000000
vt 0.000000 0.000000 0.000000
vt 0.000000 0.000000 0.000000
vt 0.000000 0.000000 0.000000
vt 0.000000 0.000000 0.000000
vt 0.000000 0.000000 0.000000
vt 0.000000 0.000000 0.000000
vt 0.000000 0.000000 0.000000
vt 0.000000 0.000000 0.000000
vt 0.000000 0.000000 0.000000
vt 0.000000 0.000000 0.000000
vt 0.000000 0.000000 0.000000
vt 0.000000 0.000000 0.000000
vt 0.000000 0.000000 0.000000
vt 0.000000 0.000000 0.000000
vt 0.000000 0.000000 0.000000
vt 0.000000 0.000000 0.000000
vt 0.000000 0.000000 0.000000
vt 0.000000 0.000000 0.000000
vt 0.000000 0.000000 0.000000
vt 0.000000 0.000000 0.000000
vt 0.000000 0.000000 0.000000
vt 0.000000 0.000000 0.000000
vt 0.000000 0.000000 0.000000
vt 0.000000 0.000000 0.000000
vt 0.000000 0.000000 0.000000
vt 0.000000 0.000000 0.000000
vt 0.000000 0.000000 0.000000
vt 0.000000 0.000000 0.000000
vt 0.000000 0.000000 0.000000
vt 0.000000 0.000000 0.000000
vt 0.000000 0.000000 0.000000
vt 0.000000 0.000000 0.000000
vt 0.000000 0.000000 0.000000
vt 0.000000 0.000000 0.000000
vt 0.000000 0.000000 0.000000
vt 0.000000 0.000000 0.000000
vt 0.000000 0.000000 0.000000
vt 0.000000 0.000000 0.000000
vt 0.000000 0.000000 0.000000
vt 0.000000 0.000000 0.000000
vt 0.000000 0.000000 0.000000
vt 0.000000 0.000000 0.000000
vt 0.000000 0.000000 0.000000
vt 0.000000 0.000000 0.000000
vt 0.000000 0.000000 0.000000
vt 0.000000 0.000000 0.000000
vt 0.000000 0.000000 0.000000
vt 0.000000 0.000000 0.000000
vt 0.000000 0.000000 0.000000
vt 0.000000 0.000000 0.000000
vt 0.000000 0.000000 0.000000
vt 0.000000 0.000000 0.000000
vt 0.000000 0.000000 0.000000
vt 0.000000 0.000000 0.000000
vt 0.000000 0.000000 0.000000
vt 0.000000 0.000000 0.000000
vt 0.000000 0.000000 0.000000
vt 0.000000 0.000000 0.000000
vt 0.000000 0.000000 0.000000
vt 0.000000 0.000000 0.000000
vt 0.000000 0.000000 0.000000
vt 0.000000 0.000000 0.000000
vt 0.000000 0.000000 0.000000
vt 0.000000 0.000000 0.000000
vt 0.000000 0.000000 0.000000
vt 0.000000 0.000000 0.000000
vt 0.000000 0.000000 0.000000
vt 0.000000 0.000000 0.000000
vt 0.000000 0.000000 0.000000
vt 0.000000 0.000000 0.000000
vt 0.000000 0.000000 0.000000
vt 0.000000 0.000000 0.000000
vt 0.000000 0.000000 0.000000
vt 0.000000 0.000000 0.000000
vt 0.000000 0.000000 0.000000
vt 0.000000 0.000000 0.000000
vt 0.000000 0.000000 0.000000
vt 0.000000 0.000000 0.000000
vt 0.000000 0.000000 0.000000
vt 0.000000 0.000000 0.000000
vt 0.000000 0.000000 0.000000
vt 0.000000 0.000000 0.000000
vt 0.000000 0.000000 0.000000
vt 0.000000 0.000000 0.000000
vt 0.000000 0.000000 0.000000
vt 0.000000 0.000000 0.000000
vt 0.000000 0.000000 0.000000
vt 0.000000 0.000000 0.000000
vt 0.000000 0.000000 0.000000
vt 0.000000 0.000000 0.000000
vt 0.000000 0.000000 0.000000
vt 0.000000 0.000000 0.000000
vt 0.000000 0.000000 0.000000
vt 0.000000 0.000000 0.000000
vt 0.000000 0.000000 0.000000
vt 0.000000 0.000000 0.000000
vt 0.000000 0.000000 0.000000
vt 0.000000 0.000000 0.000000
vt 0.000000 0.000000 0.000000
vt 0.000000 0.000000 0.000000
vt 0.000000 0.000000 0.000000
vt 0.000000 0.000000 0.000000
vt 0.000000 0.000000 0.000000
vt 0.000000 0.000000 0.000000
vt 0.000000 0.000000 0.000000
vt 0.000000 0.000000 0.000000
vt 0.000000 0.000000 0.000000
vt 0.000000 0.000000 0.000000
vt 0.000000 0.000000 0.000000
vt 0.000000 0.000000 0.000000
vt 0.000000 0.000000 0.000000
vt 0.000000 0.000000 0.000000
vt 0.000000 0.000000 0.000000
vt 0.000000 0.000000 0.000000
vt 0.000000 0.000000 0.000000
vt 0.000000 0.000000 0.000000
vt 0.000000 0.000000 0.000000
vt 0.000000 0.000000 0.000000
vt 0.000000 0.000000 0.000000
vt 0.000000 0.000000 0.000000
vt 0.000000 0.000000 0.000000
vt 0.000000 0.000000 0.000000
vt 0.000000 0.000000 0.000000
vt 0.000000 0.000000 0.000000
vt 0.000000 0.000000 0.000000
vt 0.000000 0.000000 0.000000
vt 0.000000 0.000000 0.000000
vt 0.000000 0.000000 0.000000
vt 0.000000 0.000000 0.000000
vt 0.000000 0.000000 0.000000
vt 0.000000 0.000000 0.000000
vt 0.000000 0.000000 0.000000
vt 0.000000 0.000000 0.000000
vt 0.000000 0.000000 0.000000
vt 0.000000 0.000000 0.000000
vt 0.000000 0.000000 0.000000
vt 0.000000 0.000000 0.000000
vt 0.000000 0.000000 0.000000
vn 0.000000 0.000000 -1.000000
vn 0.000000 0.000000 -1.000000
vn 0.000000 0.000000 -1.000000
vn 0.000000 0.000000 -1.000000
vn 0.000000 0.000000 -1.000000
vn 0.000000 0.000000 -1.000000
vn 0.000000 0.000000 -1.000000
vn 0.926025 0.024170 -0.376465
vn 0.620605 -0.091553 -0.778564
vn 0.000000 0.000000 -1.000000
vn 0.000000 0.000000 -1.000000
vn 0.620605 -0.091553 -0.778564
vn 0.621582 0.022461 -0.782715
vn 0.627441 0.021484 -0.778076
vn 0.705322 -0.038086 -0.707764
vn 0.705322 -0.038086 -0.707764
vn 0.712402 -0.039551 -0.700439
vn 0.621582 0.022461 -0.782715
vn 0.000000 0.000000 -1.000000
vn 0.000000 0.000000 -1.000000
vn 0.000000 0.000000 -1.000000
vn 0.000000 0.000000 -1.000000
vn 0.000000 0.000000 -1.000000
vn 0.000000 0.000000 -1.000000
vn 0.890137 0.088623 -0.446777
vn 0.000000 0.176025 -0.984131
vn 0.000000 -0.037598 -0.999268
vn 0.000000 -0.037598 -0.999268
vn 0.880127 0.013916 -0.474121
vn 0.890137 0.088623 -0.446777
vn 0.591309 0.516113 -0.619385
vn 0.000000 0.999756 -0.020020
vn 0.000000 0.176025 -0.984131
vn 0.000000 0.176025 -0.984131
vn 0.890137 0.088623 -0.446777
vn 0.591309 0.516113 -0.619385
vn 0.737793 0.014404 -0.674561
vn 0.784668 -0.001221 -0.619629
vn 0.627441 0.021484 -0.778076
vn 0.627441 0.021484 -0.778076
vn 0.621582 0.022461 -0.782715
vn 0.737793 0.014404 -0.674561
vn 0.712402 -0.039551 -0.700439
vn 0.705322 -0.038086 -0.707764
vn 0.712646 -0.046875 -0.699707
vn -0.689941 0.053223 -0.721680
vn -0.708252 0.062744 -0.702881
vn -0.593994 -0.004395 -0.804443
vn -0.593994 -0.004395 -0.804443
vn -0.586914 -0.008545 -0.809570
vn -0.689941 0.053223 -0.721680
vn -0.586914 -0.008545 -0.809570
vn -0.593994 -0.004395 -0.804443
vn -0.650879 -0.025635 -0.758545
vn -0.650879 -0.025635 -0.758545
vn -0.657227 -0.020508 -0.753174
vn -0.586914 -0.008545 -0.809570
vn -0.657227 -0.020508 -0.753174
vn -0.650879 -0.025635 -0.758545
vn -0.654541 -0.046387 -0.754395
vn 0.000000 -0.518799 -0.854736
vn 0.620605 -0.091553 -0.778564
vn 0.792969 -0.203613 -0.573975
vn 0.620605 -0.091553 -0.778564
vn 0.926025 0.024170 -0.376465
vn 0.880127 0.013916 -0.474121
vn 0.880127 0.013916 -0.474121
vn 0.792969 -0.203613 -0.573975
vn 0.620605 -0.091553 -0.778564
vn 0.926025 0.024170 -0.376465
vn 0.994385 0.104004 0.000000
vn 0.890137 0.088623 -0.446777
vn 0.890137 0.088623 -0.446777
vn 0.880127 0.013916 -0.474121
vn 0.926025 0.024170 -0.376465
vn 0.000000 0.999756 -0.020020
vn 0.591309 0.516113 -0.619385
vn 0.930664 0.365234 0.000000
vn 0.994385 0.104004 0.000000
vn 0.930664 0.365234 0.000000
vn 0.591309 0.516113 -0.619385
vn 0.591309 0.516113 -0.619385
vn 0.890137 0.088623 -0.446777
vn 0.994385 0.104004 0.000000
vn 0.001465 -0.012695 -0.999756
vn 0.000000 0.000000 -1.000000
vn 0.000000 -0.004639 -0.999756
vn 0.000000 -0.004639 -0.999756
vn -0.009766 -0.010498 -0.999756
vn 0.001465 -0.012695 -0.999756
vn -0.007813 -0.008545 -0.999756
vn 0.001465 -0.012695 -0.999756
vn -0.009766 -0.010498 -0.999756
vn -0.009766 -0.010498 -0.999756
vn -0.033936 0.000000 -0.999268
vn -0.007813 -0.008545 -0.999756
vn 0.000000 0.000000 -1.000000
vn -0.007813 -0.008545 -0.999756
vn -0.033936 0.000000 -0.999268
vn -0.033936 0.000000 -0.999268
vn 0.000000 0.000000 -1.000000
vn 0.000000 0.000000 -1.000000
vn 0.000000 0.000000 1.000000
vn 0.000000 0.000000 1.000000
vn 0.000000 0.000000 1.000000
vn 0.000000 0.000000 1.000000
vn 0.000000 0.000000 1.000000
vn 0.000000 0.000000 1.000000
vn 0.000000 0.000000 1.000000
vn 0.000000 0.000000 1.000000
vn 0.000000 0.000000 1.000000
vn 0.813721 -0.063232 0.577393
vn 0.746094 0.018799 0.665283
vn 0.862793 0.030273 0.504395
vn 0.862793 0.030273 0.504395
vn 0.924561 -0.055908 0.376465
vn 0.813721 -0.063232 0.577393
vn 0.000000 0.000000 1.000000
vn 0.000000 0.000000 1.000000
vn 0.000000 0.000000 1.000000
vn 0.000000 0.000000 1.000000
vn 0.000000 0.000000 1.000000
vn 0.000000 0.000000 1.000000
vn 0.000000 0.000000 1.000000
vn 0.000000 0.000000 1.000000
vn 0.000000 0.000000 1.000000
vn 0.000000 0.012451 0.999756
vn 0.000000 0.224365 0.974365
vn 0.925781 0.099365 0.364258
vn 0.925781 0.099365 0.364258
vn 0.857910 0.052246 0.510742
vn 0.000000 0.012451 0.999756
vn 0.000000 0.224365 0.974365
vn 0.000000 0.999756 -0.020020
vn 0.687988 0.507813 0.518311
vn 0.687988 0.507813 0.518311
vn 0.925781 0.099365 0.364258
vn 0.000000 0.224365 0.974365
vn 0.746094 0.018799 0.665283
vn 0.874023 -0.001465 0.485596
vn 0.956787 0.055664 0.284668
vn 0.956787 0.055664 0.284668
vn 0.862793 0.030273 0.504395
vn 0.746094 0.018799 0.665283
vn 0.924561 -0.055908 0.376465
vn 0.944336 -0.077881 0.319336
vn 0.813721 -0.063232 0.577393
vn -0.885010 0.012451 0.464844
vn -0.952148 0.061035 0.298584
vn -0.788818 0.044922 0.612549
vn -0.788818 0.044922 0.612549
vn -0.697998 -0.007324 0.715820
vn -0.885010 0.012451 0.464844
vn -0.864258 -0.062500 0.498535
vn -0.885010 0.012451 0.464844
vn -0.697998 -0.007324 0.715820
vn -0.697998 -0.007324 0.715820
vn -0.758545 -0.046875 0.649658
vn -0.864258 -0.062500 0.498535
vn -0.758545 -0.046875 0.649658
vn -0.926025 -0.086182 0.366943
vn -0.864258 -0.062500 0.498535
vn 0.947510 -0.291504 0.129639
vn 0.947510 -0.291504 0.129639
vn 0.947510 -0.291504 0.129639
vn 0.990723 0.000000 0.135498
vn 0.990723 0.000000 0.135498
vn 0.990723 0.000000 0.135498
vn 0.857910 0.052246 0.510742
vn 0.990723 0.000000 0.135498
vn 0.740723 -0.186279 0.645264
vn 0.925781 0.099365 0.364258
vn 0.994385 0.104004 0.000000
vn 0.926025 0.024170 -0.376465
vn 0.926025 0.024170 -0.376465
vn 0.857910 0.052246 0.510742
vn 0.925781 0.099365 0.364258
vn 0.000000 0.999756 -0.020020
vn 0.930664 0.365234 0.000000
vn 0.687988 0.507813 0.518311
vn 0.687988 0.507813 0.518311
vn 0.930664 0.365234 0.000000
vn 0.994385 0.104004 0.000000
vn 0.994385 0.104004 0.000000
vn 0.925781 0.099365 0.364258
vn 0.687988 0.507813 0.518311
vn -0.986816 -0.036377 0.156006
vn -0.986816 -0.036377 0.156006
vn -0.986816 -0.036377 0.156006
vn -0.864258 -0.062500 0.498535
vn -0.980957 0.035400 0.190430
vn -0.885010 0.012451 0.464844
vn 0.980225 -0.046143 0.191650
vn 0.980225 -0.046143 0.191650
vn 0.980225 -0.046143 0.191650
vn 0.862793 0.030273 0.504395
vn 0.987305 -0.048828 0.149658
vn 0.924561 -0.055908 0.376465
vn 0.956787 0.055664 0.284668
vn 0.988770 0.082520 0.123779
vn 0.981934 0.063965 0.177734
vn 0.981934 0.063965 0.177734
vn 0.862793 0.030273 0.504395
vn 0.956787 0.055664 0.284668
vn 0.944336 -0.077881 0.319336
vn 0.924561 -0.055908 0.376465
vn 0.987305 -0.048828 0.149658
vn -0.885010 0.012451 0.464844
vn -0.980957 0.035400 0.190430
vn -0.988525 0.068359 0.133301
vn -0.988525 0.068359 0.133301
vn -0.952148 0.061035 0.298584
vn -0.885010 0.012451 0.464844
vn -0.926025 -0.086182 0.366943
vn -0.985352 -0.065430 0.155762
vn -0.864258 -0.062500 0.498535
vn 0.000000 -0.037598 -0.999268
vn 0.000000 -0.308838 -0.950928
vn 0.792969 -0.203613 -0.573975
vn 0.792969 -0.203613 -0.573975
vn 0.880127 0.013916 -0.474121
vn 0.000000 -0.037598 -0.999268
vn 0.000000 -0.308838 -0.950928
vn 0.000000 -0.518799 -0.854736
vn 0.792969 -0.203613 -0.573975
vn 0.740723 -0.186279 0.645264
vn 0.000000 -0.371582 0.928223
vn 0.000000 0.012451 0.999756
vn 0.000000 0.012451 0.999756
vn 0.857910 0.052246 0.510742
vn 0.740723 -0.186279 0.645264
vn 0.000000 -0.477295 0.878662
vn 0.000000 -0.371582 0.928223
vn 0.740723 -0.186279 0.645264
vn 0.999512 0.024902 0.000732
vn 0.999512 0.024902 0.000732
vn 0.999512 0.024902 0.000732
vn 0.999756 0.015625 -0.005859
vn 0.999756 0.015625 -0.005859
vn 0.999756 0.015625 -0.005859
vn -0.999512 -0.024658 0.007813
vn -0.999512 -0.024658 0.007813
vn -0.999512 -0.024658 0.007813
vn -0.999756 -0.015625 0.000244
vn -0.999756 -0.015625 0.000244
vn -0.999756 -0.015625 0.000244
vn -0.007813 0.003906 0.999756
vn 0.001465 0.008301 0.999756
vn -0.009766 0.006104 0.999756
vn -0.009766 0.006104 0.999756
vn -0.033936 -0.004395 0.999268
vn -0.007813 0.003906 0.999756
vn 0.000000 -0.004395 0.999756
vn -0.007813 0.003906 0.999756
vn -0.033936 -0.004395 0.999268
vn -0.033936 -0.004395 0.999268
vn 0.000000 -0.004395 0.999756
vn 0.000000 -0.004395 0.999756
vn 0.000000 0.000244 0.999756
vn -0.009766 0.006104 0.999756
vn 0.001465 0.008301 0.999756
vn 0.001465 0.008301 0.999756
vn 0.000000 -0.004150 0.999756
vn 0.000000 -0.004150 0.999756
vn 0.000000 0.000244 0.999756
vn 0.001465 0.008301 0.999756
vn 0.000000 -0.004150 0.999756
vn 0.000000 0.000000 -1.000000
vn 0.000000 0.000000 -1.000000
vn 0.000000 0.000000 -1.000000
vn -0.620605 -0.091553 -0.778564
vn -0.926025 0.024170 -0.376465
vn 0.000000 0.000000 -1.000000
vn 0.000000 0.000000 -1.000000
vn 0.000000 0.000000 -1.000000
vn 0.000000 0.000000 -1.000000
vn -0.620605 -0.091553 -0.778564
vn 0.000000 0.000000 -1.000000
vn 0.000000 0.000000 -1.000000
vn -0.705322 -0.038086 -0.707764
vn -0.627441 0.021484 -0.778076
vn -0.621582 0.022461 -0.782715
vn -0.621582 0.022461 -0.782715
vn -0.712402 -0.039551 -0.700439
vn -0.705322 -0.038086 -0.707764
vn 0.000000 0.000000 -1.000000
vn 0.000000 0.000000 -1.000000
vn 0.000000 0.000000 -1.000000
vn 0.000000 0.000000 -1.000000
vn 0.000000 0.000000 -1.000000
vn 0.000000 0.000000 -1.000000
vn 0.000000 -0.037598 -0.999268
vn 0.000000 0.176025 -0.984131
vn -0.890137 0.088623 -0.446777
vn -0.890137 0.088623 -0.446777
vn -0.880127 0.013916 -0.474121
vn 0.000000 -0.037598 -0.999268
vn 0.000000 0.176025 -0.984131
vn 0.000000 0.999756 -0.020020
vn -0.591309 0.516113 -0.619385
vn -0.591309 0.516113 -0.619385
vn -0.890137 0.088623 -0.446777
vn 0.000000 0.176025 -0.984131
vn -0.627441 0.021484 -0.778076
vn -0.784668 -0.001221 -0.619629
vn -0.737793 0.014404 -0.674561
vn -0.737793 0.014404 -0.674561
vn -0.621582 0.022461 -0.782715
vn -0.627441 0.021484 -0.778076
vn -0.705322 -0.038086 -0.707764
vn -0.712402 -0.039551 -0.700439
vn -0.712646 -0.046875 -0.699707
vn 0.593994 -0.004395 -0.804443
vn 0.708252 0.062744 -0.702881
vn 0.689941 0.053223 -0.721680
vn 0.689941 0.053223 -0.721680
vn 0.586914 -0.008545 -0.809570
vn 0.593994 -0.004395 -0.804443
vn 0.650879 -0.025635 -0.758545
vn 0.593994 -0.004395 -0.804443
vn 0.586914 -0.008545 -0.809570
vn 0.586914 -0.008545 -0.809570
vn 0.657227 -0.020508 -0.753174
vn 0.650879 -0.025635 -0.758545
vn 0.650879 -0.025635 -0.758545
vn 0.657227 -0.020508 -0.753174
vn 0.654541 -0.046387 -0.754395
vn -0.620605 -0.091553 -0.778564
vn 0.000000 -0.518799 -0.854736
vn -0.792969 -0.203613 -0.573975
vn -0.880127 0.013916 -0.474121
vn -0.926025 0.024170 -0.376465
vn -0.620605 -0.091553 -0.778564
vn -0.620605 -0.091553 -0.778564
vn -0.792969 -0.203613 -0.573975
vn -0.880127 0.013916 -0.474121
vn -0.890137 0.088623 -0.446777
vn -0.994385 0.104004 0.000000
vn -0.926025 0.024170 -0.376465
vn -0.926025 0.024170 -0.376465
vn -0.880127 0.013916 -0.474121
vn -0.890137 0.088623 -0.446777
vn -0.591309 0.516113 -0.619385
vn 0.000000 0.999756 -0.020020
vn -0.930664 0.365234 0.000000
vn -0.591309 0.516113 -0.619385
vn -0.930664 0.365234 0.000000
vn -0.994385 0.104004 0.000000
vn -0.994385 0.104004 0.000000
vn -0.890137 0.088623 -0.446777
vn -0.591309 0.516113 -0.619385
vn 0.000000 -0.004639 -0.999756
vn 0.000000 0.000000 -1.000000
vn -0.001465 -0.012695 -0.999756
vn -0.001465 -0.012695 -0.999756
vn 0.009766 -0.010498 -0.999756
vn 0.000000 -0.004639 -0.999756
vn 0.009766 -0.010498 -0.999756
vn -0.001465 -0.012695 -0.999756
vn 0.007813 -0.008545 -0.999756
vn 0.007813 -0.008545 -0.999756
vn 0.033936 0.000000 -0.999268
vn 0.009766 -0.010498 -0.999756
vn 0.033936 0.000000 -0.999268
vn 0.007813 -0.008545 -0.999756
vn 0.000000 0.000000 -1.000000
vn 0.000000 0.000000 -1.000000
vn 0.000000 0.000000 -1.000000
vn 0.033936 0.000000 -0.999268
vn 0.000000 0.000000 1.000000
vn 0.000000 0.000000 1.000000
vn 0.000000 0.000000 1.000000
vn 0.000000 0.000000 1.000000
vn 0.000000 0.000000 1.000000
vn 0.000000 0.000000 1.000000
vn 0.000000 0.000000 1.000000
vn 0.000000 0.000000 1.000000
vn 0.000000 0.000000 1.000000
vn -0.862793 0.030273 0.504395
vn -0.746094 0.018799 0.665283
vn -0.813721 -0.063232 0.577393
vn -0.813721 -0.063232 0.577393
vn -0.924561 -0.055908 0.376465
vn -0.862793 0.030273 0.504395
vn 0.000000 0.000000 1.000000
vn 0.000000 0.000000 1.000000
vn 0.000000 0.000000 1.000000
vn 0.000000 0.000000 1.000000
vn 0.000000 0.000000 1.000000
vn 0.000000 0.000000 1.000000
vn 0.000000 0.000000 1.000000
vn 0.000000 0.000000 1.000000
vn 0.000000 0.000000 1.000000
vn -0.925781 0.099365 0.364258
vn 0.000000 0.224365 0.974365
vn 0.000000 0.012451 0.999756
vn 0.000000 0.012451 0.999756
vn -0.857910 0.052246 0.510742
vn -0.925781 0.099365 0.364258
vn -0.687988 0.507813 0.518311
vn 0.000000 0.999756 -0.020020
vn 0.000000 0.224365 0.974365
vn 0.000000 0.224365 0.974365
vn -0.925781 0.099365 0.364258
vn -0.687988 0.507813 0.518311
vn -0.956787 0.055664 0.284668
vn -0.874023 -0.001465 0.485596
vn -0.746094 0.018799 0.665283
vn -0.746094 0.018799 0.665283
vn -0.862793 0.030273 0.504395
vn -0.956787 0.055664 0.284668
vn -0.944336 -0.077881 0.319336
vn -0.924561 -0.055908 0.376465
vn -0.813721 -0.063232 0.577393
vn 0.788818 0.044922 0.612549
vn 0.952148 0.061035 0.298584
vn 0.885010 0.012451 0.464844
vn 0.885010 0.012451 0.464844
vn 0.697998 -0.007324 0.715820
vn 0.788818 0.044922 0.612549
vn 0.697998 -0.007324 0.715820
vn 0.885010 0.012451 0.464844
vn 0.864258 -0.062500 0.498535
vn 0.864258 -0.062500 0.498535
vn 0.758545 -0.046875 0.649658
vn 0.697998 -0.007324 0.715820
vn 0.926025 -0.086182 0.366943
vn 0.758545 -0.046875 0.649658
vn 0.864258 -0.062500 0.498535
vn -0.947510 -0.291504 0.129639
vn -0.947510 -0.291504 0.129639
vn -0.947510 -0.291504 0.129639
vn -0.990723 0.000000 0.135498
vn -0.990723 0.000000 0.135498
vn -0.990723 0.000000 0.135498
vn -0.990723 0.000000 0.135498
vn -0.857910 0.052246 0.510742
vn -0.740723 -0.186279 0.645264
vn -0.926025 0.024170 -0.376465
vn -0.994385 0.104004 0.000000
vn -0.925781 0.099365 0.364258
vn -0.925781 0.099365 0.364258
vn -0.857910 0.052246 0.510742
vn -0.926025 0.024170 -0.376465
vn -0.930664 0.365234 0.000000
vn 0.000000 0.999756 -0.020020
vn -0.687988 0.507813 0.518311
vn -0.994385 0.104004 0.000000
vn -0.930664 0.365234 0.000000
vn -0.687988 0.507813 0.518311
vn -0.687988 0.507813 0.518311
vn -0.925781 0.099365 0.364258
vn -0.994385 0.104004 0.000000
vn 0.986816 -0.036377 0.156006
vn 0.986816 -0.036377 0.156006
vn 0.986816 -0.036377 0.156006
vn 0.980957 0.035400 0.190430
vn 0.864258 -0.062500 0.498535
vn 0.885010 0.012451 0.464844
vn -0.980225 -0.046143 0.191650
vn -0.980225 -0.046143 0.191650
vn -0.980225 -0.046143 0.191650
vn -0.987305 -0.048828 0.149658
vn -0.862793 0.030273 0.504395
vn -0.924561 -0.055908 0.376465
vn -0.981934 0.063965 0.177734
vn -0.988770 0.082520 0.123779
vn -0.956787 0.055664 0.284668
vn -0.956787 0.055664 0.284668
vn -0.862793 0.030273 0.504395
vn -0.981934 0.063965 0.177734
vn -0.924561 -0.055908 0.376465
vn -0.944336 -0.077881 0.319336
vn -0.987305 -0.048828 0.149658
vn 0.988525 0.068359 0.133301
vn 0.980957 0.035400 0.190430
vn 0.885010 0.012451 0.464844
vn 0.885010 0.012451 0.464844
vn 0.952148 0.061035 0.298584
vn 0.988525 0.068359 0.133301
vn 0.985352 -0.065430 0.155762
vn 0.926025 -0.086182 0.366943
vn 0.864258 -0.062500 0.498535
vn -0.792969 -0.203613 -0.573975
vn 0.000000 -0.308838 -0.950928
vn 0.000000 -0.037598 -0.999268
vn 0.000000 -0.037598 -0.999268
vn -0.880127 0.013916 -0.474121
vn -0.792969 -0.203613 -0.573975
vn 0.000000 -0.518799 -0.854736
vn 0.000000 -0.308838 -0.950928
vn -0.792969 -0.203613 -0.573975
vn 0.000000 0.012451 0.999756
vn 0.000000 -0.371582 0.928223
vn -0.740723 -0.186279 0.645264
vn -0.740723 -0.186279 0.645264
vn -0.857910 0.052246 0.510742
vn 0.000000 0.012451 0.999756
vn 0.000000 -0.371582 0.928223
vn 0.000000 -0.477295 0.878662
vn -0.740723 -0.186279 0.645264
vn -0.999512 0.024902 0.000732
vn -0.999512 0.024902 0.000732
vn -0.999512 0.024902 0.000732
vn -0.999756 0.015625 -0.005859
vn -0.999756 0.015625 -0.005859
vn -0.999756 0.015625 -0.005859
vn 0.999512 -0.024658 0.007813
vn 0.999512 -0.024658 0.007813
vn 0.999512 -0.024658 0.007813
vn 0.999756 -0.015625 0.000244
vn 0.999756 -0.015625 0.000244
vn 0.999756 -0.015625 0.000244
vn 0.009766 0.006104 0.999756
vn -0.001465 0.008301 0.999756
vn 0.007813 0.003906 0.999756
vn 0.007813 0.003906 0.999756
vn 0.033936 -0.004395 0.999268
vn 0.009766 0.006104 0.999756
vn 0.033936 -0.004395 0.999268
vn 0.007813 0.003906 0.999756
vn 0.000000 -0.004395 0.999756
vn 0.000000 -0.004395 0.999756
vn 0.000000 -0.004395 0.999756
vn 0.033936 -0.004395 0.999268
vn -0.001465 0.008301 0.999756
vn 0.009766 0.006104 0.999756
vn 0.000000 0.000244 0.999756
vn -0.001465 0.008301 0.999756
vn 0.000000 0.000244 0.999756
vn 0.000000 -0.004150 0.999756
vn -0.001465 0.008301 0.999756
vn 0.000000 -0.004150 0.999756
vn 0.000000 -0.004150 0.999756
vn 0.999756 0.020508 -0.002197
vn 0.999512 0.024902 0.000732
vn 0.999756 0.018799 -0.003418
vn 0.999756 0.018799 -0.003418
vn 0.999756 0.015625 -0.005859
vn 0.999756 0.020508 -0.002197
vn 0.999756 -0.019043 0.002930
vn 0.999512 -0.024658 0.007813
vn 0.999756 -0.020264 0.004150
vn 0.999756 -0.020264 0.004150
vn 0.999756 -0.015625 0.000244
vn 0.999756 -0.019043 0.002930
vn -0.999756 -0.020264 0.004150
vn -0.999512 -0.024658 0.007813
vn -0.999756 -0.019043 0.002930
vn -0.999756 -0.019043 0.002930
vn -0.999756 -0.015625 0.000244
vn -0.999756 -0.020264 0.004150
vn -0.999756 0.018799 -0.003418
vn -0.999512 0.024902 0.000732
vn -0.999756 0.020508 -0.002197
vn -0.999756 0.020508 -0.002197
vn -0.999756 0.015625 -0.005859
vn -0.999756 0.018799 -0.003418
usemtl Texture
f 1/1/1 2/2/2 3/3/3
f 4/4/4 5/5/5 6/6/6
f 7/7/7 8/8/8 9/9/9
f 10/10/10 11/11/11 12/12/12
f 13/13/13 14/14/14 15/15/15
f 16/16/16 17/17/17 18/18/18
f 19/19/19 20/20/20 21/21/21
f 22/22/22 23/23/23 24/24/24
f 25/25/25 26/26/26 27/27/27
f 28/28/28 29/29/29 30/30/30
f 31/31/31 32/32/32 33/33/33
f 34/34/34 35/35/35 36/36/36
f 37/37/37 38/38/38 39/39/39
f 40/40/40 41/41/41 42/42/42
f 43/43/43 44/44/44 45/45/45
f 46/46/46 47/47/47 48/48/48
f 49/49/49 50/50/50 51/51/51
f 52/52/52 53/53/53 54/54/54
f 55/55/55 56/56/56 57/57/57
f 58/58/58 59/59/59 60/60/60
f 61/61/61 62/62/62 63/63/63
f 64/64/64 65/65/65 66/66/66
f 67/67/67 68/68/68 69/69/69
f 70/70/70 71/71/71 72/72/72
f 73/73/73 74/74/74 75/75/75
f 76/76/76 77/77/77 78/78/78
f 79/79/79 80/80/80 81/81/81
f 82/82/82 83/83/83 84/84/84
f 85/85/85 86/86/86 87/87/87
f 88/88/88 89/89/89 90/90/90
f 91/91/91 92/92/92 93/93/93
f 94/94/94 95/95/95 96/96/96
f 97/97/97 98/98/98 99/99/99
f 100/100/100 101/101/101 102/102/102
f 103/103/103 104/104/104 105/105/105
f 106/106/106 107/107/107 108/108/108
f 109/109/109 110/110/110 111/111/111
f 112/112/112 113/113/113 114/114/114
f 115/115/115 116/116/116 117/117/117
f 118/118/118 119/119/119 120/120/120
f 121/121/121 122/122/122 123/123/123
f 124/124/124 125/125/125 126/126/126
f 127/127/127 128/128/128 129/129/129
f 130/130/130 131/131/131 132/132/132
f 133/133/133 134/134/134 135/135/135
f 136/136/136 137/137/137 138/138/138
f 139/139/139 140/140/140 141/141/141
f 142/142/142 143/143/143 144/144/144
f 145/145/145 146/146/146 147/147/147
f 148/148/148 149/149/149 150/150/150
f 151/151/151 152/152/152 153/153/153
f 154/154/154 155/155/155 156/156/156
f 157/157/157 158/158/158 159/159/159
f 160/160/160 161/161/161 162/162/162
f 163/163/163 164/164/164 165/165/165
f 166/166/166 167/167/167 168/168/168
f 169/169/169 170/170/170 171/171/171
f 172/172/172 173/173/173 174/174/174
f 175/175/175 176/176/176 177/177/177
f 178/178/178 179/179/179 180/180/180
f 181/181/181 182/182/182 183/183/183
f 184/184/184 185/185/185 186/186/186
f 187/187/187 188/188/188 189/189/189
f 190/190/190 191/191/191 192/192/192
f 193/193/193 194/194/194 195/195/195
f 196/196/196 197/197/197 198/198/198
f 199/199/199 200/200/200 201/201/201
f 202/202/202 203/203/203 204/204/204
f 205/205/205 206/206/206 207/207/207
f 208/208/208 209/209/209 210/210/210
f 211/211/211 212/212/212 213/213/213
f 214/214/214 215/215/215 216/216/216
f 217/217/217 218/218/218 219/219/219
f 220/220/220 221/221/221 222/222/222
f 223/223/223 224/224/224 225/225/225
f 226/226/226 227/227/227 228/228/228
f 229/229/229 230/230/230 231/231/231
f 232/232/232 233/233/233 234/234/234
f 235/235/235 236/236/236 237/237/237
f 238/238/238 239/239/239 240/240/240
f 241/241/241 242/242/242 243/243/243
f 244/244/244 245/245/245 246/246/246
f 247/247/247 248/248/248 249/249/249
f 250/250/250 251/251/251 252/252/252
f 253/253/253 254/254/254 255/255/255
f 256/256/256 257/257/257 258/258/258
f 259/259/259 260/260/260 261/261/261
f 262/262/262 263/263/263 264/264/264
f 265/265/265 266/266/266 267/267/267
f 268/268/268 269/269/269 270/270/270
f 271/271/271 272/272/272 273/273/273
f 274/274/274 275/275/275 276/276/276
f 277/277/277 278/278/278 279/279/279
f 280/280/280 281/281/281 282/282/282
f 283/283/283 284/284/284 285/285/285
f 286/286/286 287/287/287 288/288/288
f 289/289/289 290/290/290 291/291/291
f 292/292/292 293/293/293 294/294/294
f 295/295/295 296/296/296 297/297/297
f 298/298/298 299/299/299 300/300/300
f 301/301/301 302/302/302 303/303/303
f 304/304/304 305/305/305 306/306/306
f 307/307/307 308/308/308 309/309/309
f 310/310/310 311/311/311 312/312/312
f 313/313/313 314/314/314 315/315/315
f 316/316/316 317/317/317 318/318/318
f 319/319/319 320/320/320 321/321/321
f 322/322/322 323/323/323 324/324/324
f 325/325/325 326/326/326 327/327/327
f 328/328/328 329/329/329 330/330/330
f 331/331/331 332/332/332 333/333/333
f 334/334/334 335/335/335 336/336/336
f 337/337/337 338/338/338 339/339/339
f 340/340/340 341/341/341 342/342/342
f 343/343/343 344/344/344 345/345/345
f 346/346/346 347/347/347 348/348/348
f 349/349/349 350/350/350 351/351/351
f 352/352/352 353/353/353 354/354/354
f 355/355/355 356/356/356 357/357/357
f 358/358/358 359/359/359 360/360/360
f 361/361/361 362/362/362 363/363/363
f 364/364/364 365/365/365 366/366/366
f 367/367/367 368/368/368 369/369/369
f 370/370/370 371/371/371 372/372/372
f 373/373/373 374/374/374 375/375/375
f 376/376/376 377/377/377 378/378/378
f 379/379/379 380/380/380 381/381/381
f 382/382/382 383/383/383 384/384/384
f 385/385/385 386/386/386 387/387/387
f 388/388/388 389/389/389 390/390/390
f 391/391/391 392/392/392 393/393/393
f 394/394/394 395/395/395 396/396/396
f 397/397/397 398/398/398 399/399/399
f 400/400/400 401/401/401 402/402/402
f 403/403/403 404/404/404 405/405/405
f 406/406/406 407/407/407 408/408/408
f 409/409/409 410/410/410 411/411/411
f 412/412/412 413/413/413 414/414/414
f 415/415/415 416/416/416 417/417/417
f 418/418/418 419/419/419 420/420/420
f 421/421/421 422/422/422 423/423/423
f 424/424/424 425/425/425 426/426/426
f 427/427/427 428/428/428 429/429/429
f 430/430/430 431/431/431 432/432/432
f 433/433/433 434/434/434 435/435/435
f 436/436/436 437/437/437 438/438/438
f 439/439/439 440/440/440 441/441/441
f 442/442/442 443/443/443 444/444/444
f 445/445/445 446/446/446 447/447/447
f 448/448/448 449/449/449 450/450/450
f 451/451/451 452/452/452 453/453/453
f 454/454/454 455/455/455 456/456/456
f 457/457/457 458/458/458 459/459/459
f 460/460/460 461/461/461 462/462/462
f 463/463/463 464/464/464 465/465/465
f 466/466/466 467/467/467 468/468/468
f 469/469/469 470/470/470 471/471/471
f 472/472/472 473/473/473 474/474/474
f 475/475/475 476/476/476 477/477/477
f 478/478/478 479/479/479 480/480/480
f 481/481/481 482/482/482 483/483/483
f 484/484/484 485/485/485 486/486/486
f 487/487/487 488/488/488 489/489/489
f 490/490/490 491/491/491 492/492/492
f 493/493/493 494/494/494 495/495/495
f 496/496/496 497/497/497 498/498/498
f 499/499/499 500/500/500 501/501/501
f 502/502/502 503/503/503 504/504/504
f 505/505/505 506/506/506 507/507/507
f 508/508/508 509/509/509 510/510/510
f 511/511/511 512/512/512 513/513/513
f 514/514/514 515/515/515 516/516/516
f 517/517/517 518/518/518 519/519/519
f 520/520/520 521/521/521 522/522/522
f 523/523/523 524/524/524 525/525/525
f 526/526/526 527/527/527 528/528/528
f 529/529/529 530/530/530 531/531/531
f 532/532/532 533/533/533 534/534/534
f 535/535/535 536/536/536 537/537/537
f 538/538/538 539/539/539 540/540/540
f 541/541/541 542/542/542 543/543/543
f 544/544/544 545/545/545 546/546/546
f 547/547/547 548/548/548 549/549/549
f 550/550/550 551/551/551 552/552/552
f 553/553/553 554/554/554 555/555/555
f 556/556/556 557/557/557 558/558/558