# OBJ file
mtllib list.ico.mtl
v 1.572754 1.836182 -0.330322 0.501961 0.501961 0.501961 #0.501961
v 1.118652 1.268555 -1.060303 0.501961 0.501961 0.501961 #0.501961
v 0.963135 1.281738 -0.986328 0.501961 0.501961 0.501961 #0.501961
v 0.963135 1.281738 -0.986328 0.501961 0.501961 0.501961 #0.501961
v 0.916016 1.691650 -0.288818 0.501961 0.501961 0.501961 #0.501961
v 1.572754 1.836182 -0.330322 0.501961 0.501961 0.501961 #0.501961
v 0.777588 2.357178 0.352539 0.501961 0.501961 0.501961 #0.501961
v 1.430176 2.598633 0.377686 0.501961 0.501961 0.501961 #0.501961
v 1.572754 1.836182 -0.330322 0.501961 0.501961 0.501961 #0.501961
v 1.572754 1.836182 -0.330322 0.501961 0.501961 0.501961 #0.501961
v 0.916016 1.691650 -0.288818 0.501961 0.501961 0.501961 #0.501961
v 0.777588 2.357178 0.352539 0.501961 0.501961 0.501961 #0.501961
v 0.777588 2.357178 0.352539 0.501961 0.501961 0.501961 #0.501961
v 0.611572 3.063721 0.714111 0.501961 0.501961 0.501961 #0.501961
v 0.911621 3.333984 0.647705 0.501961 0.501961 0.501961 #0.501961
v 0.911621 3.333984 0.647705 0.501961 0.501961 0.501961 #0.501961
v 1.430176 2.598633 0.377686 0.501961 0.501961 0.501961 #0.501961
v 0.777588 2.357178 0.352539 0.501961 0.501961 0.501961 #0.501961
v 0.916016 1.691650 -0.288818 0.501961 0.501961 0.501961 #0.501961
v 0.963135 1.281738 -0.986328 0.501961 0.501961 0.501961 #0.501961
v 0.968018 1.159180 -0.972656 0.501961 0.501961 0.501961 #0.501961
v 0.968018 1.159180 -0.972656 0.501961 0.501961 0.501961 #0.501961
v 1.095215 1.354492 0.098389 0.501961 0.501961 0.501961 #0.501961
v 0.916016 1.691650 -0.288818 0.501961 0.501961 0.501961 #0.501961
v 0.916016 1.691650 -0.288818 0.501961 0.501961 0.501961 #0.501961
v 1.095215 1.354492 0.098389 0.501961 0.501961 0.501961 #0.501961
v 0.928711 2.148438 0.870850 0.501961 0.501961 0.501961 #0.501961
v 0.928711 2.148438 0.870850 0.501961 0.501961 0.501961 #0.501961
v 0.777588 2.357178 0.352539 0.501961 0.501961 0.501961 #0.501961
v 0.916016 1.691650 -0.288818 0.501961 0.501961 0.501961 #0.501961
v 0.186523 3.788574 0.906006 0.501961 0.501961 0.501961 #0.501961
v 0.611572 3.063721 0.714111 0.501961 0.501961 0.501961 #0.501961
v 0.637939 2.928467 1.148682 0.501961 0.501961 0.501961 #0.501961
v 0.637939 2.928467 1.148682 0.501961 0.501961 0.501961 #0.501961
v 0.080078 3.769287 1.121582 0.501961 0.501961 0.501961 #0.501961
v 0.186523 3.788574 0.906006 0.501961 0.501961 0.501961 #0.501961
v 1.095703 1.130127 -1.031006 0.501961 0.501961 0.501961 #0.501961
v 1.118652 1.268555 -1.060303 0.501961 0.501961 0.501961 #0.501961
v 1.572754 1.836182 -0.330322 0.501961 0.501961 0.501961 #0.501961
v 1.572754 1.836182 -0.330322 0.501961 0.501961 0.501961 #0.501961
v 1.519287 1.448486 0.092773 0.501961 0.501961 0.501961 #0.501961
v 1.095703 1.130127 -1.031006 0.501961 0.501961 0.501961 #0.501961
v 1.095215 1.354492 0.098389 0.501961 0.501961 0.501961 #0.501961
v 1.519287 1.448486 0.092773 0.501961 0.501961 0.501961 #0.501961
v 1.355957 2.326416 0.948975 0.501961 0.501961 0.501961 #0.501961
v 1.355957 2.326416 0.948975 0.501961 0.501961 0.501961 #0.501961
v 0.928711 2.148438 0.870850 0.501961 0.501961 0.501961 #0.501961
v 1.095215 1.354492 0.098389 0.501961 0.501961 0.501961 #0.501961
v 1.519287 1.448486 0.092773 0.501961 0.501961 0.501961 #0.501961
v 1.572754 1.836182 -0.330322 0.501961 0.501961 0.501961 #0.501961
v 1.430176 2.598633 0.377686 0.501961 0.501961 0.501961 #0.501961
v 1.430176 2.598633 0.377686 0.501961 0.501961 0.501961 #0.501961
v 1.355957 2.326416 0.948975 0.501961 0.501961 0.501961 #0.501961
v 1.519287 1.448486 0.092773 0.501961 0.501961 0.501961 #0.501961
v 0.080078 3.769287 1.121582 0.501961 0.501961 0.501961 #0.501961
v 0.637939 2.928467 1.148682 0.501961 0.501961 0.501961 #0.501961
v 1.005371 3.133789 1.223389 0.501961 0.501961 0.501961 #0.501961
v 1.005371 3.133789 1.223389 0.501961 0.501961 0.501961 #0.501961
v 0.273682 3.938232 1.169678 0.501961 0.501961 0.501961 #0.501961
v 0.080078 3.769287 1.121582 0.501961 0.501961 0.501961 #0.501961
v 0.273682 3.938232 1.169678 0.501961 0.501961 0.501961 #0.501961
v 1.005371 3.133789 1.223389 0.501961 0.501961 0.501961 #0.501961
v 0.911621 3.333984 0.647705 0.501961 0.501961 0.501961 #0.501961
v 0.911621 3.333984 0.647705 0.501961 0.501961 0.501961 #0.501961
v 0.393311 4.069336 0.917969 0.501961 0.501961 0.501961 #0.501961
v 0.273682 3.938232 1.169678 0.501961 0.501961 0.501961 #0.501961
v -0.170166 1.716553 -0.717285 0.501961 0.501961 0.501961 #0.501961
v 0.310791 1.449707 -0.529541 0.501961 0.501961 0.501961 #0.501961
v -0.077637 1.292480 -1.470703 0.501961 0.501961 0.501961 #0.501961
v -0.077637 1.292480 -1.470703 0.501961 0.501961 0.501961 #0.501961
v -0.191162 1.391846 -1.433105 0.501961 0.501961 0.501961 #0.501961
v -0.170166 1.716553 -0.717285 0.501961 0.501961 0.501961 #0.501961
v -0.191162 1.391846 -1.433105 0.501961 0.501961 0.501961 #0.501961
v -0.281006 1.266357 -1.452881 0.501961 0.501961 0.501961 #0.501961
v -0.530029 1.341797 -0.456055 0.501961 0.501961 0.501961 #0.501961
v -0.530029 1.341797 -0.456055 0.501961 0.501961 0.501961 #0.501961
v -0.170166 1.716553 -0.717285 0.501961 0.501961 0.501961 #0.501961
v -0.191162 1.391846 -1.433105 0.501961 0.501961 0.501961 #0.501961
v -0.168213 2.270264 0.042480 0.501961 0.501961 0.501961 #0.501961
v 0.327881 2.086670 0.330566 0.501961 0.501961 0.501961 #0.501961
v 0.310791 1.449707 -0.529541 0.501961 0.501961 0.501961 #0.501961
v 0.310791 1.449707 -0.529541 0.501961 0.501961 0.501961 #0.501961
v -0.170166 1.716553 -0.717285 0.501961 0.501961 0.501961 #0.501961
v -0.168213 2.270264 0.042480 0.501961 0.501961 0.501961 #0.501961
v -0.170166 1.716553 -0.717285 0.501961 0.501961 0.501961 #0.501961
v -0.530029 1.341797 -0.456055 0.501961 0.501961 0.501961 #0.501961
v -0.545898 1.974609 0.406982 0.501961 0.501961 0.501961 #0.501961
v -0.545898 1.974609 0.406982 0.501961 0.501961 0.501961 #0.501961
v -0.168213 2.270264 0.042480 0.501961 0.501961 0.501961 #0.501961
v -0.170166 1.716553 -0.717285 0.501961 0.501961 0.501961 #0.501961
v -0.168213 2.270264 0.042480 0.501961 0.501961 0.501961 #0.501961
v -0.149658 2.951416 0.487549 0.501961 0.501961 0.501961 #0.501961
v 0.254150 2.907715 0.746338 0.501961 0.501961 0.501961 #0.501961
v 0.254150 2.907715 0.746338 0.501961 0.501961 0.501961 #0.501961
v 0.327881 2.086670 0.330566 0.501961 0.501961 0.501961 #0.501961
v -0.168213 2.270264 0.042480 0.501961 0.501961 0.501961 #0.501961
v -0.153564 3.686035 0.833252 0.501961 0.501961 0.501961 #0.501961
v -0.149658 2.951416 0.487549 0.501961 0.501961 0.501961 #0.501961
v -0.493408 2.809326 0.813477 0.501961 0.501961 0.501961 #0.501961
v -0.493408 2.809326 0.813477 0.501961 0.501961 0.501961 #0.501961
v -0.356445 3.741455 1.019531 0.501961 0.501961 0.501961 #0.501961
v -0.153564 3.686035 0.833252 0.501961 0.501961 0.501961 #0.501961
v -0.107666 1.110107 -0.223389 0.501961 0.501961 0.501961 #0.501961
v -0.530029 1.341797 -0.456055 0.501961 0.501961 0.501961 #0.501961
v -0.281006 1.266357 -1.452881 0.501961 0.501961 0.501961 #0.501961
v -0.281006 1.266357 -1.452881 0.501961 0.501961 0.501961 #0.501961
v -0.169189 1.183105 -1.486328 0.501961 0.501961 0.501961 #0.501961
v -0.107666 1.110107 -0.223389 0.501961 0.501961 0.501961 #0.501961
v -0.530029 1.341797 -0.456055 0.501961 0.501961 0.501961 #0.501961
v -0.107666 1.110107 -0.223389 0.501961 0.501961 0.501961 #0.501961
v -0.107910 1.825439 0.781006 0.501961 0.501961 0.501961 #0.501961
v -0.107910 1.825439 0.781006 0.501961 0.501961 0.501961 #0.501961
v -0.545898 1.974609 0.406982 0.501961 0.501961 0.501961 #0.501961
v -0.530029 1.341797 -0.456055 0.501961 0.501961 0.501961 #0.501961
v -0.356445 3.741455 1.019531 0.501961 0.501961 0.501961 #0.501961
v -0.493408 2.809326 0.813477 0.501961 0.501961 0.501961 #0.501961
v -0.179443 2.822021 1.118408 0.501961 0.501961 0.501961 #0.501961
v -0.179443 2.822021 1.118408 0.501961 0.501961 0.501961 #0.501961
v -0.263916 3.912354 1.160400 0.501961 0.501961 0.501961 #0.501961
v -0.356445 3.741455 1.019531 0.501961 0.501961 0.501961 #0.501961
v -0.169189 1.183105 -1.486328 0.501961 0.501961 0.501961 #0.501961
v -0.077637 1.292480 -1.470703 0.501961 0.501961 0.501961 #0.501961
v 0.310791 1.449707 -0.529541 0.501961 0.501961 0.501961 #0.501961
v 0.310791 1.449707 -0.529541 0.501961 0.501961 0.501961 #0.501961
v -0.107666 1.110107 -0.223389 0.501961 0.501961 0.501961 #0.501961
v -0.169189 1.183105 -1.486328 0.501961 0.501961 0.501961 #0.501961
v -0.107666 1.110107 -0.223389 0.501961 0.501961 0.501961 #0.501961
v 0.310791 1.449707 -0.529541 0.501961 0.501961 0.501961 #0.501961
v 0.327881 2.086670 0.330566 0.501961 0.501961 0.501961 #0.501961
v 0.327881 2.086670 0.330566 0.501961 0.501961 0.501961 #0.501961
v -0.107910 1.825439 0.781006 0.501961 0.501961 0.501961 #0.501961
v -0.107666 1.110107 -0.223389 0.501961 0.501961 0.501961 #0.501961
v 0.032471 3.795898 0.982422 0.501961 0.501961 0.501961 #0.501961
v -0.263916 3.912354 1.160400 0.501961 0.501961 0.501961 #0.501961
v -0.179443 2.822021 1.118408 0.501961 0.501961 0.501961 #0.501961
v -0.179443 2.822021 1.118408 0.501961 0.501961 0.501961 #0.501961
v 0.254150 2.907715 0.746338 0.501961 0.501961 0.501961 #0.501961
v 0.032471 3.795898 0.982422 0.501961 0.501961 0.501961 #0.501961
v -1.358154 1.986572 -1.052490 0.501961 0.501961 0.501961 #0.501961
v -0.914795 1.901611 -1.026367 0.501961 0.501961 0.501961 #0.501961
v -0.999023 1.739014 -1.815918 0.501961 0.501961 0.501961 #0.501961
v -0.999023 1.739014 -1.815918 0.501961 0.501961 0.501961 #0.501961
v -1.104004 1.756592 -1.831787 0.501961 0.501961 0.501961 #0.501961
v -1.358154 1.986572 -1.052490 0.501961 0.501961 0.501961 #0.501961
v -0.914795 1.901611 -1.026367 0.501961 0.501961 0.501961 #0.501961
v -1.358154 1.986572 -1.052490 0.501961 0.501961 0.501961 #0.501961
v -1.338623 2.451416 -0.189697 0.501961 0.501961 0.501961 #0.501961
v -1.338623 2.451416 -0.189697 0.501961 0.501961 0.501961 #0.501961
v -0.887207 2.358154 -0.175537 0.501961 0.501961 0.501961 #0.501961
v -0.914795 1.901611 -1.026367 0.501961 0.501961 0.501961 #0.501961
v -0.786865 3.879395 0.937012 0.501961 0.501961 0.501961 #0.501961
v -0.554932 3.806641 0.938965 0.501961 0.501961 0.501961 #0.501961
v -0.812988 3.074951 0.420898 0.501961 0.501961 0.501961 #0.501961
v -0.812988 3.074951 0.420898 0.501961 0.501961 0.501961 #0.501961
v -1.217285 3.173096 0.411621 0.501961 0.501961 0.501961 #0.501961
v -0.786865 3.879395 0.937012 0.501961 0.501961 0.501961 #0.501961
v -1.567139 1.763672 -0.929199 0.501961 0.501961 0.501961 #0.501961
v -1.358154 1.986572 -1.052490 0.501961 0.501961 0.501961 #0.501961
v -1.104004 1.756592 -1.831787 0.501961 0.501961 0.501961 #0.501961
v -1.104004 1.756592 -1.831787 0.501961 0.501961 0.501961 #0.501961
v -1.154053 1.684814 -1.869629 0.501961 0.501961 0.501961 #0.501961
v -1.567139 1.763672 -0.929199 0.501961 0.501961 0.501961 #0.501961
v -1.154053 1.684814 -1.869629 0.501961 0.501961 0.501961 #0.501961
v -1.044678 1.552734 -1.896240 0.501961 0.501961 0.501961 #0.501961
v -1.117188 1.321045 -0.707031 0.501961 0.501961 0.501961 #0.501961
v -1.117188 1.321045 -0.707031 0.501961 0.501961 0.501961 #0.501961
v -1.567139 1.763672 -0.929199 0.501961 0.501961 0.501961 #0.501961
v -1.154053 1.684814 -1.869629 0.501961 0.501961 0.501961 #0.501961
v -1.358154 1.986572 -1.052490 0.501961 0.501961 0.501961 #0.501961
v -1.567139 1.763672 -0.929199 0.501961 0.501961 0.501961 #0.501961
v -1.551514 2.284912 0.018799 0.501961 0.501961 0.501961 #0.501961
v -1.551514 2.284912 0.018799 0.501961 0.501961 0.501961 #0.501961
v -1.338623 2.451416 -0.189697 0.501961 0.501961 0.501961 #0.501961
v -1.358154 1.986572 -1.052490 0.501961 0.501961 0.501961 #0.501961
v -1.567139 1.763672 -0.929199 0.501961 0.501961 0.501961 #0.501961
v -1.117188 1.321045 -0.707031 0.501961 0.501961 0.501961 #0.501961
v -1.080811 1.896729 0.400391 0.501961 0.501961 0.501961 #0.501961
v -1.080811 1.896729 0.400391 0.501961 0.501961 0.501961 #0.501961
v -1.551514 2.284912 0.018799 0.501961 0.501961 0.501961 #0.501961
v -1.567139 1.763672 -0.929199 0.501961 0.501961 0.501961 #0.501961
v -0.786865 3.879395 0.937012 0.501961 0.501961 0.501961 #0.501961
v -1.217285 3.173096 0.411621 0.501961 0.501961 0.501961 #0.501961
v -1.372070 3.120850 0.620850 0.501961 0.501961 0.501961 #0.501961
v -1.372070 3.120850 0.620850 0.501961 0.501961 0.501961 #0.501961
v -0.835205 3.957520 1.081787 0.501961 0.501961 0.501961 #0.501961
v -0.786865 3.879395 0.937012 0.501961 0.501961 0.501961 #0.501961
v -0.835205 3.957520 1.081787 0.501961 0.501961 0.501961 #0.501961
v -1.372070 3.120850 0.620850 0.501961 0.501961 0.501961 #0.501961
v -0.918213 2.923096 0.940430 0.501961 0.501961 0.501961 #0.501961
v -0.918213 2.923096 0.940430 0.501961 0.501961 0.501961 #0.501961
v -0.539062 4.011719 1.240479 0.501961 0.501961 0.501961 #0.501961
v -0.835205 3.957520 1.081787 0.501961 0.501961 0.501961 #0.501961
v -1.044678 1.552734 -1.896240 0.501961 0.501961 0.501961 #0.501961
v -0.999023 1.739014 -1.815918 0.501961 0.501961 0.501961 #0.501961
v -0.914795 1.901611 -1.026367 0.501961 0.501961 0.501961 #0.501961
v -0.914795 1.901611 -1.026367 0.501961 0.501961 0.501961 #0.501961
v -1.117188 1.321045 -0.707031 0.501961 0.501961 0.501961 #0.501961
v -1.044678 1.552734 -1.896240 0.501961 0.501961 0.501961 #0.501961
v -1.117188 1.321045 -0.707031 0.501961 0.501961 0.501961 #0.501961
v -0.914795 1.901611 -1.026367 0.501961 0.501961 0.501961 #0.501961
v -0.887207 2.358154 -0.175537 0.501961 0.501961 0.501961 #0.501961
v -0.887207 2.358154 -0.175537 0.501961 0.501961 0.501961 #0.501961
v -1.080811 1.896729 0.400391 0.501961 0.501961 0.501961 #0.501961
v -1.117188 1.321045 -0.707031 0.501961 0.501961 0.501961 #0.501961
v -0.918213 2.923096 0.940430 0.501961 0.501961 0.501961 #0.501961
v -0.812988 3.074951 0.420898 0.501961 0.501961 0.501961 #0.501961
v -0.554932 3.806641 0.938965 0.501961 0.501961 0.501961 #0.501961
v -0.554932 3.806641 0.938965 0.501961 0.501961 0.501961 #0.501961
v -0.539062 4.011719 1.240479 0.501961 0.501961 0.501961 #0.501961
v -0.918213 2.923096 0.940430 0.501961 0.501961 0.501961 #0.501961
v -1.278320 1.798584 0.880615 0.501961 0.501961 0.501961 #0.501961
v -0.833740 1.596191 1.039062 0.501961 0.501961 0.501961 #0.501961
v -1.400635 1.037354 0.154541 0.501961 0.501961 0.501961 #0.501961
v -1.400635 1.037354 0.154541 0.501961 0.501961 0.501961 #0.501961
v -1.505371 1.123535 0.158447 0.501961 0.501961 0.501961 #0.501961
v -1.278320 1.798584 0.880615 0.501961 0.501961 0.501961 #0.501961
v -1.137695 2.282227 1.169922 0.501961 0.501961 0.501961 #0.501961
v -0.603760 2.176514 1.317627 0.501961 0.501961 0.501961 #0.501961
v -0.833740 1.596191 1.039062 0.501961 0.501961 0.501961 #0.501961
v -0.833740 1.596191 1.039062 0.501961 0.501961 0.501961 #0.501961
v -1.278320 1.798584 0.880615 0.501961 0.501961 0.501961 #0.501961
v -1.137695 2.282227 1.169922 0.501961 0.501961 0.501961 #0.501961
v -0.603760 2.176514 1.317627 0.501961 0.501961 0.501961 #0.501961
v -1.137695 2.282227 1.169922 0.501961 0.501961 0.501961 #0.501961
v -1.024658 2.969238 1.416504 0.501961 0.501961 0.501961 #0.501961
v -1.024658 2.969238 1.416504 0.501961 0.501961 0.501961 #0.501961
v -0.539062 2.914307 1.521729 0.501961 0.501961 0.501961 #0.501961
v -0.603760 2.176514 1.317627 0.501961 0.501961 0.501961 #0.501961
v -1.400391 1.652344 1.390137 0.501961 0.501961 0.501961 #0.501961
v -1.278320 1.798584 0.880615 0.501961 0.501961 0.501961 #0.501961
v -1.505371 1.123535 0.158447 0.501961 0.501961 0.501961 #0.501961
v -1.505371 1.123535 0.158447 0.501961 0.501961 0.501961 #0.501961
v -1.572754 0.982910 0.190186 0.501961 0.501961 0.501961 #0.501961
v -1.400391 1.652344 1.390137 0.501961 0.501961 0.501961 #0.501961
v -1.177490 2.419678 1.776123 0.501961 0.501961 0.501961 #0.501961
v -1.137695 2.282227 1.169922 0.501961 0.501961 0.501961 #0.501961
v -1.278320 1.798584 0.880615 0.501961 0.501961 0.501961 #0.501961
v -1.278320 1.798584 0.880615 0.501961 0.501961 0.501961 #0.501961
v -1.400391 1.652344 1.390137 0.501961 0.501961 0.501961 #0.501961
v -1.177490 2.419678 1.776123 0.501961 0.501961 0.501961 #0.501961
v -1.177490 2.419678 1.776123 0.501961 0.501961 0.501961 #0.501961
v -1.038574 3.196777 1.853516 0.501961 0.501961 0.501961 #0.501961
v -1.024658 2.969238 1.416504 0.501961 0.501961 0.501961 #0.501961
v -1.024658 2.969238 1.416504 0.501961 0.501961 0.501961 #0.501961
v -1.137695 2.282227 1.169922 0.501961 0.501961 0.501961 #0.501961
v -1.177490 2.419678 1.776123 0.501961 0.501961 0.501961 #0.501961
v -0.830811 1.467285 1.445801 0.501961 0.501961 0.501961 #0.501961
v -1.400391 1.652344 1.390137 0.501961 0.501961 0.501961 #0.501961
v -1.572754 0.982910 0.190186 0.501961 0.501961 0.501961 #0.501961
v -1.572754 0.982910 0.190186 0.501961 0.501961 0.501961 #0.501961
v -1.446533 0.911133 0.180664 0.501961 0.501961 0.501961 #0.501961
v -0.830811 1.467285 1.445801 0.501961 0.501961 0.501961 #0.501961
v -0.573975 2.307617 1.862061 0.501961 0.501961 0.501961 #0.501961
v -1.177490 2.419678 1.776123 0.501961 0.501961 0.501961 #0.501961
v -1.400391 1.652344 1.390137 0.501961 0.501961 0.501961 #0.501961
v -1.400391 1.652344 1.390137 0.501961 0.501961 0.501961 #0.501961
v -0.830811 1.467285 1.445801 0.501961 0.501961 0.501961 #0.501961
v -0.573975 2.307617 1.862061 0.501961 0.501961 0.501961 #0.501961
v -0.573975 2.307617 1.862061 0.501961 0.501961 0.501961 #0.501961
v -0.510986 3.126709 1.892334 0.501961 0.501961 0.501961 #0.501961
v -1.038574 3.196777 1.853516 0.501961 0.501961 0.501961 #0.501961
v -1.038574 3.196777 1.853516 0.501961 0.501961 0.501961 #0.501961
v -1.177490 2.419678 1.776123 0.501961 0.501961 0.501961 #0.501961
v -0.573975 2.307617 1.862061 0.501961 0.501961 0.501961 #0.501961
v -0.833740 1.596191 1.039062 0.501961 0.501961 0.501961 #0.501961
v -0.830811 1.467285 1.445801 0.501961 0.501961 0.501961 #0.501961
v -1.446533 0.911133 0.180664 0.501961 0.501961 0.501961 #0.501961
v -1.446533 0.911133 0.180664 0.501961 0.501961 0.501961 #0.501961
v -1.400635 1.037354 0.154541 0.501961 0.501961 0.501961 #0.501961
v -0.833740 1.596191 1.039062 0.501961 0.501961 0.501961 #0.501961
v -0.603760 2.176514 1.317627 0.501961 0.501961 0.501961 #0.501961
v -0.573975 2.307617 1.862061 0.501961 0.501961 0.501961 #0.501961
v -0.830811 1.467285 1.445801 0.501961 0.501961 0.501961 #0.501961
v -0.830811 1.467285 1.445801 0.501961 0.501961 0.501961 #0.501961
v -0.833740 1.596191 1.039062 0.501961 0.501961 0.501961 #0.501961
v -0.603760 2.176514 1.317627 0.501961 0.501961 0.501961 #0.501961
v -0.539062 2.914307 1.521729 0.501961 0.501961 0.501961 #0.501961
v -0.510986 3.126709 1.892334 0.501961 0.501961 0.501961 #0.501961
v -0.573975 2.307617 1.862061 0.501961 0.501961 0.501961 #0.501961
v -0.573975 2.307617 1.862061 0.501961 0.501961 0.501961 #0.501961
v -0.603760 2.176514 1.317627 0.501961 0.501961 0.501961 #0.501961
v -0.539062 2.914307 1.521729 0.501961 0.501961 0.501961 #0.501961
v 0.324951 1.536865 0.867676 0.501961 0.501961 0.501961 #0.501961
v 0.793945 1.724365 0.693115 0.501961 0.501961 0.501961 #0.501961
v 0.782227 1.142822 0.183105 0.501961 0.501961 0.501961 #0.501961
v 0.782227 1.142822 0.183105 0.501961 0.501961 0.501961 #0.501961
v 0.628662 1.114258 0.189941 0.501961 0.501961 0.501961 #0.501961
v 0.324951 1.536865 0.867676 0.501961 0.501961 0.501961 #0.501961
v 0.175049 2.130615 1.363525 0.501961 0.501961 0.501961 #0.501961
v 0.653076 2.261230 1.094238 0.501961 0.501961 0.501961 #0.501961
v 0.793945 1.724365 0.693115 0.501961 0.501961 0.501961 #0.501961
v 0.793945 1.724365 0.693115 0.501961 0.501961 0.501961 #0.501961
v 0.324951 1.536865 0.867676 0.501961 0.501961 0.501961 #0.501961
v 0.175049 2.130615 1.363525 0.501961 0.501961 0.501961 #0.501961
v 0.175049 2.130615 1.363525 0.501961 0.501961 0.501961 #0.501961
v 0.048584 2.923828 1.592773 0.501961 0.501961 0.501961 #0.501961
v 0.492920 3.003174 1.377686 0.501961 0.501961 0.501961 #0.501961
v 0.492920 3.003174 1.377686 0.501961 0.501961 0.501961 #0.501961
v 0.653076 2.261230 1.094238 0.501961 0.501961 0.501961 #0.501961
v 0.175049 2.130615 1.363525 0.501961 0.501961 0.501961 #0.501961
v 0.659668 1.317627 1.240723 0.501961 0.501961 0.501961 #0.501961
v 0.324951 1.536865 0.867676 0.501961 0.501961 0.501961 #0.501961
v 0.628662 1.114258 0.189941 0.501961 0.501961 0.501961 #0.501961
v 0.628662 1.114258 0.189941 0.501961 0.501961 0.501961 #0.501961
v 0.716309 0.983643 0.169678 0.501961 0.501961 0.501961 #0.501961
v 0.659668 1.317627 1.240723 0.501961 0.501961 0.501961 #0.501961
v 0.473145 2.370117 1.896240 0.501961 0.501961 0.501961 #0.501961
v 0.175049 2.130615 1.363525 0.501961 0.501961 0.501961 #0.501961
v 0.324951 1.536865 0.867676 0.501961 0.501961 0.501961 #0.501961
v 0.324951 1.536865 0.867676 0.501961 0.501961 0.501961 #0.501961
v 0.659668 1.317627 1.240723 0.501961 0.501961 0.501961 #0.501961
v 0.473145 2.370117 1.896240 0.501961 0.501961 0.501961 #0.501961
v 0.473145 2.370117 1.896240 0.501961 0.501961 0.501961 #0.501961
v 0.271973 3.228760 1.947266 0.501961 0.501961 0.501961 #0.501961
v 0.048584 2.923828 1.592773 0.501961 0.501961 0.501961 #0.501961
v 0.048584 2.923828 1.592773 0.501961 0.501961 0.501961 #0.501961
v 0.175049 2.130615 1.363525 0.501961 0.501961 0.501961 #0.501961
v 0.473145 2.370117 1.896240 0.501961 0.501961 0.501961 #0.501961
v 1.107422 1.557129 0.946777 0.501961 0.501961 0.501961 #0.501961
v 0.659668 1.317627 1.240723 0.501961 0.501961 0.501961 #0.501961
v 0.716309 0.983643 0.169678 0.501961 0.501961 0.501961 #0.501961
v 0.716309 0.983643 0.169678 0.501961 0.501961 0.501961 #0.501961
v 0.782227 1.142822 0.183105 0.501961 0.501961 0.501961 #0.501961
v 1.107422 1.557129 0.946777 0.501961 0.501961 0.501961 #0.501961
v 0.782227 1.142822 0.183105 0.501961 0.501961 0.501961 #0.501961
v 0.793945 1.724365 0.693115 0.501961 0.501961 0.501961 #0.501961
v 1.107422 1.557129 0.946777 0.501961 0.501961 0.501961 #0.501961
v 0.948486 2.412842 1.435303 0.501961 0.501961 0.501961 #0.501961
v 0.473145 2.370117 1.896240 0.501961 0.501961 0.501961 #0.501961
v 0.659668 1.317627 1.240723 0.501961 0.501961 0.501961 #0.501961
v 0.659668 1.317627 1.240723 0.501961 0.501961 0.501961 #0.501961
v 1.107422 1.557129 0.946777 0.501961 0.501961 0.501961 #0.501961
v 0.948486 2.412842 1.435303 0.501961 0.501961 0.501961 #0.501961
v 0.653076 2.261230 1.094238 0.501961 0.501961 0.501961 #0.501961
v 0.948486 2.412842 1.435303 0.501961 0.501961 0.501961 #0.501961
v 1.107422 1.557129 0.946777 0.501961 0.501961 0.501961 #0.501961
v 1.107422 1.557129 0.946777 0.501961 0.501961 0.501961 #0.501961
v 0.793945 1.724365 0.693115 0.501961 0.501961 0.501961 #0.501961
v 0.653076 2.261230 1.094238 0.501961 0.501961 0.501961 #0.501961
v 0.473145 2.370117 1.896240 0.501961 0.501961 0.501961 #0.501961
v 0.948486 2.412842 1.435303 0.501961 0.501961 0.501961 #0.501961
v 0.721924 3.203613 1.635986 0.501961 0.501961 0.501961 #0.501961
v 0.721924 3.203613 1.635986 0.501961 0.501961 0.501961 #0.501961
v 0.271973 3.228760 1.947266 0.501961 0.501961 0.501961 #0.501961
v 0.473145 2.370117 1.896240 0.501961 0.501961 0.501961 #0.501961
v 0.948486 2.412842 1.435303 0.501961 0.501961 0.501961 #0.501961
v 0.653076 2.261230 1.094238 0.501961 0.501961 0.501961 #0.501961
v 0.492920 3.003174 1.377686 0.501961 0.501961 0.501961 #0.501961
v 0.492920 3.003174 1.377686 0.501961 0.501961 0.501961 #0.501961
v 0.721924 3.203613 1.635986 0.501961 0.501961 0.501961 #0.501961
v 0.948486 2.412842 1.435303 0.501961 0.501961 0.501961 #0.501961
v 1.118652 1.268555 -1.060303 0.501961 0.501961 0.501961 #0.501961
v 1.095703 1.130127 -1.031006 0.501961 0.501961 0.501961 #0.501961
v 0.968018 1.159180 -0.972656 0.501961 0.501961 0.501961 #0.501961
v 0.968018 1.159180 -0.972656 0.501961 0.501961 0.501961 #0.501961
v 0.963135 1.281738 -0.986328 0.501961 0.501961 0.501961 #0.501961
v 1.118652 1.268555 -1.060303 0.501961 0.501961 0.501961 #0.501961
v -0.077637 1.292480 -1.470703 0.501961 0.501961 0.501961 #0.501961
v -0.169189 1.183105 -1.486328 0.501961 0.501961 0.501961 #0.501961
v -0.281006 1.266357 -1.452881 0.501961 0.501961 0.501961 #0.501961
v -0.281006 1.266357 -1.452881 0.501961 0.501961 0.501961 #0.501961
v -0.191162 1.391846 -1.433105 0.501961 0.501961 0.501961 #0.501961
v -0.077637 1.292480 -1.470703 0.501961 0.501961 0.501961 #0.501961
v -0.999023 1.739014 -1.815918 0.501961 0.501961 0.501961 #0.501961
v -1.044678 1.552734 -1.896240 0.501961 0.501961 0.501961 #0.501961
v -1.154053 1.684814 -1.869629 0.501961 0.501961 0.501961 #0.501961
v -1.154053 1.684814 -1.869629 0.501961 0.501961 0.501961 #0.501961
v -1.104004 1.756592 -1.831787 0.501961 0.501961 0.501961 #0.501961
v -0.999023 1.739014 -1.815918 0.501961 0.501961 0.501961 #0.501961
v -1.400635 1.037354 0.154541 0.501961 0.501961 0.501961 #0.501961
v -1.446533 0.911133 0.180664 0.501961 0.501961 0.501961 #0.501961
v -1.572754 0.982910 0.190186 0.501961 0.501961 0.501961 #0.501961
v -1.572754 0.982910 0.190186 0.501961 0.501961 0.501961 #0.501961
v -1.505371 1.123535 0.158447 0.501961 0.501961 0.501961 #0.501961
v -1.400635 1.037354 0.154541 0.501961 0.501961 0.501961 #0.501961
v 0.782227 1.142822 0.183105 0.501961 0.501961 0.501961 #0.501961
v 0.716309 0.983643 0.169678 0.501961 0.501961 0.501961 #0.501961
v 0.628662 1.114258 0.189941 0.501961 0.501961 0.501961 #0.501961
v 0.393311 4.069336 0.917969 0.501961 0.501961 0.501961 #0.501961
v 0.186523 3.788574 0.906006 0.501961 0.501961 0.501961 #0.501961
v -0.046875 4.588623 0.937256 0.501961 0.501961 0.501961 #0.501961
v 0.186523 3.788574 0.906006 0.501961 0.501961 0.501961 #0.501961
v 0.080078 3.769287 1.121582 0.501961 0.501961 0.501961 #0.501961
v -0.046875 4.588623 0.937256 0.501961 0.501961 0.501961 #0.501961
v 0.080078 3.769287 1.121582 0.501961 0.501961 0.501961 #0.501961
v 0.273682 3.938232 1.169678 0.501961 0.501961 0.501961 #0.501961
v -0.046875 4.588623 0.937256 0.501961 0.501961 0.501961 #0.501961
v 0.273682 3.938232 1.169678 0.501961 0.501961 0.501961 #0.501961
v 0.393311 4.069336 0.917969 0.501961 0.501961 0.501961 #0.501961
v -0.046875 4.588623 0.937256 0.501961 0.501961 0.501961 #0.501961
v -0.153564 3.686035 0.833252 0.501961 0.501961 0.501961 #0.501961
v -0.356445 3.741455 1.019531 0.501961 0.501961 0.501961 #0.501961
v -0.046875 4.588623 0.937256 0.501961 0.501961 0.501961 #0.501961
v -0.356445 3.741455 1.019531 0.501961 0.501961 0.501961 #0.501961
v -0.263916 3.912354 1.160400 0.501961 0.501961 0.501961 #0.501961
v -0.046875 4.588623 0.937256 0.501961 0.501961 0.501961 #0.501961
v -0.263916 3.912354 1.160400 0.501961 0.501961 0.501961 #0.501961
v 0.032471 3.795898 0.982422 0.501961 0.501961 0.501961 #0.501961
v -0.046875 4.588623 0.937256 0.501961 0.501961 0.501961 #0.501961
v 0.032471 3.795898 0.982422 0.501961 0.501961 0.501961 #0.501961
v -0.153564 3.686035 0.833252 0.501961 0.501961 0.501961 #0.501961
v -0.046875 4.588623 0.937256 0.501961 0.501961 0.501961 #0.501961
v -0.554932 3.806641 0.938965 0.501961 0.501961 0.501961 #0.501961
v -0.786865 3.879395 0.937012 0.501961 0.501961 0.501961 #0.501961
v -0.046875 4.588623 0.937256 0.501961 0.501961 0.501961 #0.501961
v -0.786865 3.879395 0.937012 0.501961 0.501961 0.501961 #0.501961
v -0.835205 3.957520 1.081787 0.501961 0.501961 0.501961 #0.501961
v -0.046875 4.588623 0.937256 0.501961 0.501961 0.501961 #0.501961
v -0.835205 3.957520 1.081787 0.501961 0.501961 0.501961 #0.501961
v -0.539062 4.011719 1.240479 0.501961 0.501961 0.501961 #0.501961
v -0.046875 4.588623 0.937256 0.501961 0.501961 0.501961 #0.501961
v -0.539062 4.011719 1.240479 0.501961 0.501961 0.501961 #0.501961
v -0.554932 3.806641 0.938965 0.501961 0.501961 0.501961 #0.501961
v -0.046875 4.588623 0.937256 0.501961 0.501961 0.501961 #0.501961
v -0.375732 3.717041 1.305176 0.501961 0.501961 0.501961 #0.501961
v -0.662109 3.704346 1.275146 0.501961 0.501961 0.501961 #0.501961
v -0.046875 4.588623 0.937256 0.501961 0.501961 0.501961 #0.501961
v -0.662109 3.704346 1.275146 0.501961 0.501961 0.501961 #0.501961
v -0.645996 3.951172 1.407471 0.501961 0.501961 0.501961 #0.501961
v -0.046875 4.588623 0.937256 0.501961 0.501961 0.501961 #0.501961
v -0.645996 3.951172 1.407471 0.501961 0.501961 0.501961 #0.501961
v -0.358398 3.945068 1.386963 0.501961 0.501961 0.501961 #0.501961
v -0.046875 4.588623 0.937256 0.501961 0.501961 0.501961 #0.501961
v -0.358398 3.945068 1.386963 0.501961 0.501961 0.501961 #0.501961
v -0.375732 3.717041 1.305176 0.501961 0.501961 0.501961 #0.501961
v -0.046875 4.588623 0.937256 0.501961 0.501961 0.501961 #0.501961
v 0.110596 3.782471 1.285400 0.501961 0.501961 0.501961 #0.501961
v -0.161621 3.779053 1.379395 0.501961 0.501961 0.501961 #0.501961
v -0.046875 4.588623 0.937256 0.501961 0.501961 0.501961 #0.501961
v -0.161621 3.779053 1.379395 0.501961 0.501961 0.501961 #0.501961
v -0.082275 4.054688 1.445557 0.501961 0.501961 0.501961 #0.501961
v -0.046875 4.588623 0.937256 0.501961 0.501961 0.501961 #0.501961
v -0.082275 4.054688 1.445557 0.501961 0.501961 0.501961 #0.501961
v 0.202393 3.969727 1.380615 0.501961 0.501961 0.501961 #0.501961
v -0.046875 4.588623 0.937256 0.501961 0.501961 0.501961 #0.501961
v 0.202393 3.969727 1.380615 0.501961 0.501961 0.501961 #0.501961
v 0.110596 3.782471 1.285400 0.501961 0.501961 0.501961 #0.501961
v -0.046875 4.588623 0.937256 0.501961 0.501961 0.501961 #0.501961
v 1.519287 1.448486 0.092773 0.501961 0.501961 0.501961 #0.501961
v 1.095215 1.354492 0.098389 0.501961 0.501961 0.501961 #0.501961
v 0.968018 1.159180 -0.972656 0.501961 0.501961 0.501961 #0.501961
v 0.968018 1.159180 -0.972656 0.501961 0.501961 0.501961 #0.501961
v 1.095703 1.130127 -1.031006 0.501961 0.501961 0.501961 #0.501961
v 1.519287 1.448486 0.092773 0.501961 0.501961 0.501961 #0.501961
v 0.186523 3.788574 0.906006 0.501961 0.501961 0.501961 #0.501961
v 0.393311 4.069336 0.917969 0.501961 0.501961 0.501961 #0.501961
v 0.911621 3.333984 0.647705 0.501961 0.501961 0.501961 #0.501961
v 0.911621 3.333984 0.647705 0.501961 0.501961 0.501961 #0.501961
v 0.611572 3.063721 0.714111 0.501961 0.501961 0.501961 #0.501961
v 0.186523 3.788574 0.906006 0.501961 0.501961 0.501961 #0.501961
v 0.777588 2.357178 0.352539 0.501961 0.501961 0.501961 #0.501961
v 0.928711 2.148438 0.870850 0.501961 0.501961 0.501961 #0.501961
v 0.637939 2.928467 1.148682 0.501961 0.501961 0.501961 #0.501961
v 0.637939 2.928467 1.148682 0.501961 0.501961 0.501961 #0.501961
v 0.611572 3.063721 0.714111 0.501961 0.501961 0.501961 #0.501961
v 0.777588 2.357178 0.352539 0.501961 0.501961 0.501961 #0.501961
v 0.928711 2.148438 0.870850 0.501961 0.501961 0.501961 #0.501961
v 1.355957 2.326416 0.948975 0.501961 0.501961 0.501961 #0.501961
v 1.005371 3.133789 1.223389 0.501961 0.501961 0.501961 #0.501961
v 1.005371 3.133789 1.223389 0.501961 0.501961 0.501961 #0.501961
v 0.637939 2.928467 1.148682 0.501961 0.501961 0.501961 #0.501961
v 0.928711 2.148438 0.870850 0.501961 0.501961 0.501961 #0.501961
v 1.005371 3.133789 1.223389 0.501961 0.501961 0.501961 #0.501961
v 1.355957 2.326416 0.948975 0.501961 0.501961 0.501961 #0.501961
v 1.430176 2.598633 0.377686 0.501961 0.501961 0.501961 #0.501961
v 1.430176 2.598633 0.377686 0.501961 0.501961 0.501961 #0.501961
v 0.911621 3.333984 0.647705 0.501961 0.501961 0.501961 #0.501961
v 1.005371 3.133789 1.223389 0.501961 0.501961 0.501961 #0.501961
v -0.153564 3.686035 0.833252 0.501961 0.501961 0.501961 #0.501961
v 0.032471 3.795898 0.982422 0.501961 0.501961 0.501961 #0.501961
v 0.254150 2.907715 0.746338 0.501961 0.501961 0.501961 #0.501961
v 0.254150 2.907715 0.746338 0.501961 0.501961 0.501961 #0.501961
v -0.149658 2.951416 0.487549 0.501961 0.501961 0.501961 #0.501961
v -0.153564 3.686035 0.833252 0.501961 0.501961 0.501961 #0.501961
v -0.168213 2.270264 0.042480 0.501961 0.501961 0.501961 #0.501961
v -0.545898 1.974609 0.406982 0.501961 0.501961 0.501961 #0.501961
v -0.493408 2.809326 0.813477 0.501961 0.501961 0.501961 #0.501961
v -0.493408 2.809326 0.813477 0.501961 0.501961 0.501961 #0.501961
v -0.149658 2.951416 0.487549 0.501961 0.501961 0.501961 #0.501961
v -0.168213 2.270264 0.042480 0.501961 0.501961 0.501961 #0.501961
v -0.493408 2.809326 0.813477 0.501961 0.501961 0.501961 #0.501961
v -0.545898 1.974609 0.406982 0.501961 0.501961 0.501961 #0.501961
v -0.107910 1.825439 0.781006 0.501961 0.501961 0.501961 #0.501961
v -0.107910 1.825439 0.781006 0.501961 0.501961 0.501961 #0.501961
v -0.179443 2.822021 1.118408 0.501961 0.501961 0.501961 #0.501961
v -0.493408 2.809326 0.813477 0.501961 0.501961 0.501961 #0.501961
v -0.179443 2.822021 1.118408 0.501961 0.501961 0.501961 #0.501961
v -0.107910 1.825439 0.781006 0.501961 0.501961 0.501961 #0.501961
v 0.327881 2.086670 0.330566 0.501961 0.501961 0.501961 #0.501961
v 0.327881 2.086670 0.330566 0.501961 0.501961 0.501961 #0.501961
v 0.254150 2.907715 0.746338 0.501961 0.501961 0.501961 #0.501961
v -0.179443 2.822021 1.118408 0.501961 0.501961 0.501961 #0.501961
v -0.887207 2.358154 -0.175537 0.501961 0.501961 0.501961 #0.501961
v -1.338623 2.451416 -0.189697 0.501961 0.501961 0.501961 #0.501961
v -1.217285 3.173096 0.411621 0.501961 0.501961 0.501961 #0.501961
v -1.217285 3.173096 0.411621 0.501961 0.501961 0.501961 #0.501961
v -0.812988 3.074951 0.420898 0.501961 0.501961 0.501961 #0.501961
v -0.887207 2.358154 -0.175537 0.501961 0.501961 0.501961 #0.501961
v -1.338623 2.451416 -0.189697 0.501961 0.501961 0.501961 #0.501961
v -1.551514 2.284912 0.018799 0.501961 0.501961 0.501961 #0.501961
v -1.372070 3.120850 0.620850 0.501961 0.501961 0.501961 #0.501961
v -1.372070 3.120850 0.620850 0.501961 0.501961 0.501961 #0.501961
v -1.217285 3.173096 0.411621 0.501961 0.501961 0.501961 #0.501961
v -1.338623 2.451416 -0.189697 0.501961 0.501961 0.501961 #0.501961
v -1.372070 3.120850 0.620850 0.501961 0.501961 0.501961 #0.501961
v -1.551514 2.284912 0.018799 0.501961 0.501961 0.501961 #0.501961
v -1.080811 1.896729 0.400391 0.501961 0.501961 0.501961 #0.501961
v -1.080811 1.896729 0.400391 0.501961 0.501961 0.501961 #0.501961
v -0.918213 2.923096 0.940430 0.501961 0.501961 0.501961 #0.501961
v -1.372070 3.120850 0.620850 0.501961 0.501961 0.501961 #0.501961
v -0.918213 2.923096 0.940430 0.501961 0.501961 0.501961 #0.501961
v -1.080811 1.896729 0.400391 0.501961 0.501961 0.501961 #0.501961
v -0.887207 2.358154 -0.175537 0.501961 0.501961 0.501961 #0.501961
v -0.887207 2.358154 -0.175537 0.501961 0.501961 0.501961 #0.501961
v -0.812988 3.074951 0.420898 0.501961 0.501961 0.501961 #0.501961
v -0.918213 2.923096 0.940430 0.501961 0.501961 0.501961 #0.501961
v -0.662109 3.704346 1.275146 0.501961 0.501961 0.501961 #0.501961
v -0.375732 3.717041 1.305176 0.501961 0.501961 0.501961 #0.501961
v -0.539062 2.914307 1.521729 0.501961 0.501961 0.501961 #0.501961
v -0.539062 2.914307 1.521729 0.501961 0.501961 0.501961 #0.501961
v -1.024658 2.969238 1.416504 0.501961 0.501961 0.501961 #0.501961
v -0.662109 3.704346 1.275146 0.501961 0.501961 0.501961 #0.501961
v -1.038574 3.196777 1.853516 0.501961 0.501961 0.501961 #0.501961
v -0.645996 3.951172 1.407471 0.501961 0.501961 0.501961 #0.501961
v -0.662109 3.704346 1.275146 0.501961 0.501961 0.501961 #0.501961
v -0.662109 3.704346 1.275146 0.501961 0.501961 0.501961 #0.501961
v -1.024658 2.969238 1.416504 0.501961 0.501961 0.501961 #0.501961
v -1.038574 3.196777 1.853516 0.501961 0.501961 0.501961 #0.501961
v -0.510986 3.126709 1.892334 0.501961 0.501961 0.501961 #0.501961
v -0.358398 3.945068 1.386963 0.501961 0.501961 0.501961 #0.501961
v -0.645996 3.951172 1.407471 0.501961 0.501961 0.501961 #0.501961
v -0.645996 3.951172 1.407471 0.501961 0.501961 0.501961 #0.501961
v -1.038574 3.196777 1.853516 0.501961 0.501961 0.501961 #0.501961
v -0.510986 3.126709 1.892334 0.501961 0.501961 0.501961 #0.501961
v -0.375732 3.717041 1.305176 0.501961 0.501961 0.501961 #0.501961
v -0.358398 3.945068 1.386963 0.501961 0.501961 0.501961 #0.501961
v -0.510986 3.126709 1.892334 0.501961 0.501961 0.501961 #0.501961
v -0.510986 3.126709 1.892334 0.501961 0.501961 0.501961 #0.501961
v -0.539062 2.914307 1.521729 0.501961 0.501961 0.501961 #0.501961
v -0.375732 3.717041 1.305176 0.501961 0.501961 0.501961 #0.501961
v 0.048584 2.923828 1.592773 0.501961 0.501961 0.501961 #0.501961
v -0.161621 3.779053 1.379395 0.501961 0.501961 0.501961 #0.501961
v 0.110596 3.782471 1.285400 0.501961 0.501961 0.501961 #0.501961
v 0.110596 3.782471 1.285400 0.501961 0.501961 0.501961 #0.501961
v 0.492920 3.003174 1.377686 0.501961 0.501961 0.501961 #0.501961
v 0.048584 2.923828 1.592773 0.501961 0.501961 0.501961 #0.501961
v 0.271973 3.228760 1.947266 0.501961 0.501961 0.501961 #0.501961
v -0.082275 4.054688 1.445557 0.501961 0.501961 0.501961 #0.501961
v -0.161621 3.779053 1.379395 0.501961 0.501961 0.501961 #0.501961
v -0.161621 3.779053 1.379395 0.501961 0.501961 0.501961 #0.501961
v 0.048584 2.923828 1.592773 0.501961 0.501961 0.501961 #0.501961
v 0.271973 3.228760 1.947266 0.501961 0.501961 0.501961 #0.501961
v 0.202393 3.969727 1.380615 0.501961 0.501961 0.501961 #0.501961
v -0.082275 4.054688 1.445557 0.501961 0.501961 0.501961 #0.501961
v 0.271973 3.228760 1.947266 0.501961 0.501961 0.501961 #0.501961
v 0.271973 3.228760 1.947266 0.501961 0.501961 0.501961 #0.501961
v 0.721924 3.203613 1.635986 0.501961 0.501961 0.501961 #0.501961
v 0.202393 3.969727 1.380615 0.501961 0.501961 0.501961 #0.501961
v 0.110596 3.782471 1.285400 0.501961 0.501961 0.501961 #0.501961
v 0.202393 3.969727 1.380615 0.501961 0.501961 0.501961 #0.501961
v 0.721924 3.203613 1.635986 0.501961 0.501961 0.501961 #0.501961
v 0.721924 3.203613 1.635986 0.501961 0.501961 0.501961 #0.501961
v 0.492920 3.003174 1.377686 0.501961 0.501961 0.501961 #0.501961
v 0.110596 3.782471 1.285400 0.501961 0.501961 0.501961 #0.501961
vt 0.371094 0.730469 0.000000
vt 0.019531 0.949219 0.000000
vt 0.050781 0.949219 0.000000
vt 0.050781 0.949219 0.000000
vt 0.433594 0.761719 0.000000
vt 0.371094 0.730469 0.000000
vt 0.589844 0.613281 0.000000
vt 0.589844 0.566406 0.000000
vt 0.371094 0.730469 0.000000
vt 0.371094 0.730469 0.000000
vt 0.433594 0.761719 0.000000
vt 0.589844 0.613281 0.000000
vt 0.589844 0.613281 0.000000
vt 0.621094 0.433594 0.000000
vt 0.621094 0.386719 0.000000
vt 0.621094 0.386719 0.000000
vt 0.589844 0.566406 0.000000
vt 0.589844 0.613281 0.000000
vt 0.433594 0.761719 0.000000
vt 0.050781 0.949219 0.000000
vt 0.050781 0.980469 0.000000
vt 0.050781 0.980469 0.000000
vt 0.652344 0.917969 0.000000
vt 0.433594 0.761719 0.000000
vt 0.433594 0.761719 0.000000
vt 0.652344 0.917969 0.000000
vt 0.972656 0.660156 0.000000
vt 0.972656 0.660156 0.000000
vt 0.589844 0.613281 0.000000
vt 0.433594 0.761719 0.000000
vt 0.652344 0.253906 0.000000
vt 0.621094 0.433594 0.000000
vt 0.878906 0.449219 0.000000
vt 0.878906 0.449219 0.000000
vt 0.785156 0.238281 0.000000
vt 0.652344 0.253906 0.000000
vt 0.050781 0.980469 0.000000
vt 0.019531 0.949219 0.000000
vt 0.371094 0.730469 0.000000
vt 0.371094 0.730469 0.000000
vt 0.652344 0.886719 0.000000
vt 0.050781 0.980469 0.000000
vt 0.652344 0.917969 0.000000
vt 0.652344 0.886719 0.000000
vt 0.972656 0.613281 0.000000
vt 0.972656 0.613281 0.000000
vt 0.972656 0.660156 0.000000
vt 0.652344 0.917969 0.000000
vt 0.652344 0.886719 0.000000
vt 0.371094 0.730469 0.000000
vt 0.589844 0.566406 0.000000
vt 0.589844 0.566406 0.000000
vt 0.972656 0.613281 0.000000
vt 0.652344 0.886719 0.000000
vt 0.785156 0.238281 0.000000
vt 0.878906 0.449219 0.000000
vt 0.878906 0.410156 0.000000
vt 0.878906 0.410156 0.000000
vt 0.785156 0.207031 0.000000
vt 0.785156 0.238281 0.000000
vt 0.785156 0.207031 0.000000
vt 0.878906 0.410156 0.000000
vt 0.621094 0.386719 0.000000
vt 0.621094 0.386719 0.000000
vt 0.652344 0.207031 0.000000
vt 0.785156 0.207031 0.000000
vt 0.371094 0.730469 0.000000
vt 0.464844 0.824219 0.000000
vt 0.050781 0.949219 0.000000
vt 0.050781 0.949219 0.000000
vt 0.050781 0.917969 0.000000
vt 0.371094 0.730469 0.000000
vt 0.050781 0.917969 0.000000
vt 0.050781 0.964844 0.000000
vt 0.527344 0.839844 0.000000
vt 0.527344 0.839844 0.000000
vt 0.371094 0.730469 0.000000
vt 0.050781 0.917969 0.000000
vt 0.558594 0.628906 0.000000
vt 0.722656 0.628906 0.000000
vt 0.464844 0.824219 0.000000
vt 0.464844 0.824219 0.000000
vt 0.371094 0.730469 0.000000
vt 0.558594 0.628906 0.000000
vt 0.371094 0.730469 0.000000
vt 0.527344 0.839844 0.000000
vt 0.785156 0.644531 0.000000
vt 0.785156 0.644531 0.000000
vt 0.558594 0.628906 0.000000
vt 0.371094 0.730469 0.000000
vt 0.558594 0.628906 0.000000
vt 0.605469 0.425781 0.000000
vt 0.722656 0.410156 0.000000
vt 0.722656 0.410156 0.000000
vt 0.722656 0.628906 0.000000
vt 0.558594 0.628906 0.000000
vt 0.652344 0.222656 0.000000
vt 0.605469 0.425781 0.000000
vt 0.769531 0.425781 0.000000
vt 0.769531 0.425781 0.000000
vt 0.753906 0.207031 0.000000
vt 0.652344 0.222656 0.000000
vt 0.652344 0.902344 0.000000
vt 0.527344 0.839844 0.000000
vt 0.050781 0.964844 0.000000
vt 0.050781 0.964844 0.000000
vt 0.019531 0.980469 0.000000
vt 0.652344 0.902344 0.000000
vt 0.527344 0.839844 0.000000
vt 0.652344 0.902344 0.000000
vt 0.972656 0.628906 0.000000
vt 0.972656 0.628906 0.000000
vt 0.785156 0.644531 0.000000
vt 0.527344 0.839844 0.000000
vt 0.753906 0.207031 0.000000
vt 0.769531 0.425781 0.000000
vt 0.878906 0.394531 0.000000
vt 0.878906 0.394531 0.000000
vt 0.785156 0.160156 0.000000
vt 0.753906 0.207031 0.000000
vt 0.019531 0.980469 0.000000
vt 0.050781 0.949219 0.000000
vt 0.464844 0.824219 0.000000
vt 0.464844 0.824219 0.000000
vt 0.652344 0.902344 0.000000
vt 0.019531 0.980469 0.000000
vt 0.652344 0.902344 0.000000
vt 0.464844 0.824219 0.000000
vt 0.722656 0.628906 0.000000
vt 0.722656 0.628906 0.000000
vt 0.972656 0.628906 0.000000
vt 0.652344 0.902344 0.000000
vt 0.722656 0.191406 0.000000
vt 0.785156 0.160156 0.000000
vt 0.878906 0.394531 0.000000
vt 0.878906 0.394531 0.000000
vt 0.722656 0.410156 0.000000
vt 0.722656 0.191406 0.000000
vt 0.402344 0.730469 0.000000
vt 0.402344 0.839844 0.000000
vt 0.113281 0.917969 0.000000
vt 0.113281 0.917969 0.000000
vt 0.019531 0.933594 0.000000
vt 0.402344 0.730469 0.000000
vt 0.402344 0.839844 0.000000
vt 0.402344 0.730469 0.000000
vt 0.558594 0.613281 0.000000
vt 0.558594 0.613281 0.000000
vt 0.589844 0.628906 0.000000
vt 0.402344 0.839844 0.000000
vt 0.652344 0.253906 0.000000
vt 0.652344 0.253906 0.000000
vt 0.621094 0.441406 0.000000
vt 0.621094 0.441406 0.000000
vt 0.605469 0.433594 0.000000
vt 0.652344 0.253906 0.000000
vt 0.464844 0.839844 0.000000
vt 0.402344 0.730469 0.000000
vt 0.019531 0.933594 0.000000
vt 0.019531 0.933594 0.000000
vt 0.019531 0.949219 0.000000
vt 0.464844 0.839844 0.000000
vt 0.019531 0.949219 0.000000
vt 0.050781 0.964844 0.000000
vt 0.652344 0.917969 0.000000
vt 0.652344 0.917969 0.000000
vt 0.464844 0.839844 0.000000
vt 0.019531 0.949219 0.000000
vt 0.402344 0.730469 0.000000
vt 0.464844 0.839844 0.000000
vt 0.722656 0.613281 0.000000
vt 0.722656 0.613281 0.000000
vt 0.558594 0.613281 0.000000
vt 0.402344 0.730469 0.000000
vt 0.464844 0.839844 0.000000
vt 0.652344 0.917969 0.000000
vt 0.972656 0.613281 0.000000
vt 0.972656 0.613281 0.000000
vt 0.722656 0.613281 0.000000
vt 0.464844 0.839844 0.000000
vt 0.652344 0.253906 0.000000
vt 0.605469 0.433594 0.000000
vt 0.722656 0.425781 0.000000
vt 0.722656 0.425781 0.000000
vt 0.722656 0.238281 0.000000
vt 0.652344 0.253906 0.000000
vt 0.722656 0.238281 0.000000
vt 0.722656 0.425781 0.000000
vt 0.878906 0.402344 0.000000
vt 0.878906 0.402344 0.000000
vt 0.785156 0.191406 0.000000
vt 0.722656 0.238281 0.000000
vt 0.050781 0.964844 0.000000
vt 0.113281 0.917969 0.000000
vt 0.402344 0.839844 0.000000
vt 0.402344 0.839844 0.000000
vt 0.652344 0.917969 0.000000
vt 0.050781 0.964844 0.000000
vt 0.652344 0.917969 0.000000
vt 0.402344 0.839844 0.000000
vt 0.589844 0.628906 0.000000
vt 0.589844 0.628906 0.000000
vt 0.972656 0.613281 0.000000
vt 0.652344 0.917969 0.000000
vt 0.878906 0.402344 0.000000
vt 0.621094 0.441406 0.000000
vt 0.652344 0.253906 0.000000
vt 0.652344 0.253906 0.000000
vt 0.785156 0.191406 0.000000
vt 0.878906 0.402344 0.000000
vt 0.402344 0.730469 0.000000
vt 0.527344 0.777344 0.000000
vt 0.050781 0.933594 0.000000
vt 0.050781 0.933594 0.000000
vt 0.050781 0.917969 0.000000
vt 0.402344 0.730469 0.000000
vt 0.589844 0.613281 0.000000
vt 0.652344 0.644531 0.000000
vt 0.527344 0.777344 0.000000
vt 0.527344 0.777344 0.000000
vt 0.402344 0.730469 0.000000
vt 0.589844 0.613281 0.000000
vt 0.652344 0.644531 0.000000
vt 0.589844 0.613281 0.000000
vt 0.621094 0.441406 0.000000
vt 0.621094 0.441406 0.000000
vt 0.652344 0.449219 0.000000
vt 0.652344 0.644531 0.000000
vt 0.722656 0.761719 0.000000
vt 0.402344 0.730469 0.000000
vt 0.050781 0.917969 0.000000
vt 0.050781 0.917969 0.000000
vt 0.050781 0.949219 0.000000
vt 0.722656 0.761719 0.000000
vt 0.910156 0.582031 0.000000
vt 0.589844 0.613281 0.000000
vt 0.402344 0.730469 0.000000
vt 0.402344 0.730469 0.000000
vt 0.722656 0.761719 0.000000
vt 0.910156 0.582031 0.000000
vt 0.910156 0.582031 0.000000
vt 0.816406 0.394531 0.000000
vt 0.621094 0.441406 0.000000
vt 0.621094 0.441406 0.000000
vt 0.589844 0.613281 0.000000
vt 0.910156 0.582031 0.000000
vt 0.652344 0.902344 0.000000
vt 0.722656 0.761719 0.000000
vt 0.050781 0.949219 0.000000
vt 0.050781 0.949219 0.000000
vt 0.050781 0.964844 0.000000
vt 0.652344 0.902344 0.000000
vt 0.972656 0.613281 0.000000
vt 0.910156 0.582031 0.000000
vt 0.722656 0.761719 0.000000
vt 0.722656 0.761719 0.000000
vt 0.652344 0.902344 0.000000
vt 0.972656 0.613281 0.000000
vt 0.972656 0.613281 0.000000
vt 0.847656 0.410156 0.000000
vt 0.816406 0.394531 0.000000
vt 0.816406 0.394531 0.000000
vt 0.910156 0.582031 0.000000
vt 0.972656 0.613281 0.000000
vt 0.527344 0.777344 0.000000
vt 0.652344 0.902344 0.000000
vt 0.050781 0.964844 0.000000
vt 0.050781 0.964844 0.000000
vt 0.050781 0.933594 0.000000
vt 0.527344 0.777344 0.000000
vt 0.652344 0.644531 0.000000
vt 0.972656 0.613281 0.000000
vt 0.652344 0.902344 0.000000
vt 0.652344 0.902344 0.000000
vt 0.527344 0.777344 0.000000
vt 0.652344 0.644531 0.000000
vt 0.652344 0.449219 0.000000
vt 0.847656 0.410156 0.000000
vt 0.972656 0.613281 0.000000
vt 0.972656 0.613281 0.000000
vt 0.652344 0.644531 0.000000
vt 0.652344 0.449219 0.000000
vt 0.402344 0.855469 0.000000
vt 0.371094 0.777344 0.000000
vt 0.050781 0.949219 0.000000
vt 0.050781 0.949219 0.000000
vt 0.050781 0.949219 0.000000
vt 0.402344 0.855469 0.000000
vt 0.722656 0.691406 0.000000
vt 0.558594 0.660156 0.000000
vt 0.371094 0.777344 0.000000
vt 0.371094 0.777344 0.000000
vt 0.402344 0.855469 0.000000
vt 0.722656 0.691406 0.000000
vt 0.722656 0.691406 0.000000
vt 0.722656 0.472656 0.000000
vt 0.605469 0.457031 0.000000
vt 0.605469 0.457031 0.000000
vt 0.558594 0.660156 0.000000
vt 0.722656 0.691406 0.000000
vt 0.652344 0.917969 0.000000
vt 0.402344 0.855469 0.000000
vt 0.050781 0.949219 0.000000
vt 0.050781 0.949219 0.000000
vt 0.050781 0.964844 0.000000
vt 0.652344 0.917969 0.000000
vt 0.972656 0.628906 0.000000
vt 0.722656 0.691406 0.000000
vt 0.402344 0.855469 0.000000
vt 0.402344 0.855469 0.000000
vt 0.652344 0.917969 0.000000
vt 0.972656 0.628906 0.000000
vt 0.972656 0.628906 0.000000
vt 0.847656 0.402344 0.000000
vt 0.722656 0.472656 0.000000
vt 0.722656 0.472656 0.000000
vt 0.722656 0.691406 0.000000
vt 0.972656 0.628906 0.000000
vt 0.496094 0.839844 0.000000
vt 0.652344 0.917969 0.000000
vt 0.050781 0.964844 0.000000
vt 0.050781 0.964844 0.000000
vt 0.050781 0.949219 0.000000
vt 0.496094 0.839844 0.000000
vt 0.050781 0.949219 0.000000
vt 0.371094 0.777344 0.000000
vt 0.496094 0.839844 0.000000
vt 0.722656 0.613281 0.000000
vt 0.972656 0.628906 0.000000
vt 0.652344 0.917969 0.000000
vt 0.652344 0.917969 0.000000
vt 0.496094 0.839844 0.000000
vt 0.722656 0.613281 0.000000
vt 0.558594 0.660156 0.000000
vt 0.722656 0.613281 0.000000
vt 0.496094 0.839844 0.000000
vt 0.496094 0.839844 0.000000
vt 0.371094 0.777344 0.000000
vt 0.558594 0.660156 0.000000
vt 0.972656 0.628906 0.000000
vt 0.722656 0.613281 0.000000
vt 0.722656 0.402344 0.000000
vt 0.722656 0.402344 0.000000
vt 0.847656 0.402344 0.000000
vt 0.972656 0.628906 0.000000
vt 0.722656 0.613281 0.000000
vt 0.558594 0.660156 0.000000
vt 0.605469 0.457031 0.000000
vt 0.605469 0.457031 0.000000
vt 0.722656 0.402344 0.000000
vt 0.722656 0.613281 0.000000
vt 0.019531 0.949219 0.000000
vt 0.050781 0.980469 0.000000
vt 0.050781 0.980469 0.000000
vt 0.050781 0.980469 0.000000
vt 0.050781 0.949219 0.000000
vt 0.019531 0.949219 0.000000
vt 0.050781 0.949219 0.000000
vt 0.019531 0.980469 0.000000
vt 0.050781 0.964844 0.000000
vt 0.050781 0.964844 0.000000
vt 0.050781 0.917969 0.000000
vt 0.050781 0.949219 0.000000
vt 0.113281 0.917969 0.000000
vt 0.050781 0.964844 0.000000
vt 0.019531 0.949219 0.000000
vt 0.019531 0.949219 0.000000
vt 0.019531 0.933594 0.000000
vt 0.113281 0.917969 0.000000
vt 0.050781 0.933594 0.000000
vt 0.050781 0.964844 0.000000
vt 0.050781 0.949219 0.000000
vt 0.050781 0.949219 0.000000
vt 0.050781 0.917969 0.000000
vt 0.050781 0.933594 0.000000
vt 0.050781 0.949219 0.000000
vt 0.050781 0.964844 0.000000
vt 0.050781 0.949219 0.000000
vt 0.652344 0.207031 0.000000
vt 0.652344 0.253906 0.000000
vt 0.496094 0.019531 0.000000
vt 0.652344 0.253906 0.000000
vt 0.785156 0.238281 0.000000
vt 0.496094 0.019531 0.000000
vt 0.785156 0.238281 0.000000
vt 0.785156 0.207031 0.000000
vt 0.496094 0.019531 0.000000
vt 0.785156 0.207031 0.000000
vt 0.652344 0.207031 0.000000
vt 0.496094 0.019531 0.000000
vt 0.652344 0.222656 0.000000
vt 0.753906 0.207031 0.000000
vt 0.496094 0.019531 0.000000
vt 0.753906 0.207031 0.000000
vt 0.785156 0.160156 0.000000
vt 0.496094 0.019531 0.000000
vt 0.785156 0.160156 0.000000
vt 0.722656 0.191406 0.000000
vt 0.496094 0.019531 0.000000
vt 0.722656 0.191406 0.000000
vt 0.652344 0.222656 0.000000
vt 0.496094 0.019531 0.000000
vt 0.652344 0.253906 0.000000
vt 0.652344 0.253906 0.000000
vt 0.527344 0.035156 0.000000
vt 0.652344 0.253906 0.000000
vt 0.722656 0.238281 0.000000
vt 0.527344 0.035156 0.000000
vt 0.722656 0.238281 0.000000
vt 0.785156 0.191406 0.000000
vt 0.527344 0.035156 0.000000
vt 0.785156 0.191406 0.000000
vt 0.652344 0.253906 0.000000
vt 0.527344 0.035156 0.000000
vt 0.652344 0.253906 0.000000
vt 0.652344 0.269531 0.000000
vt 0.496094 0.035156 0.000000
vt 0.652344 0.269531 0.000000
vt 0.722656 0.207031 0.000000
vt 0.496094 0.035156 0.000000
vt 0.722656 0.207031 0.000000
vt 0.722656 0.207031 0.000000
vt 0.496094 0.035156 0.000000
vt 0.722656 0.207031 0.000000
vt 0.652344 0.253906 0.000000
vt 0.496094 0.035156 0.000000
vt 0.652344 0.253906 0.000000
vt 0.722656 0.253906 0.000000
vt 0.496094 0.019531 0.000000
vt 0.722656 0.253906 0.000000
vt 0.722656 0.175781 0.000000
vt 0.496094 0.019531 0.000000
vt 0.722656 0.175781 0.000000
vt 0.722656 0.191406 0.000000
vt 0.496094 0.019531 0.000000
vt 0.722656 0.191406 0.000000
vt 0.652344 0.253906 0.000000
vt 0.496094 0.019531 0.000000
vt 0.652344 0.886719 0.000000
vt 0.652344 0.917969 0.000000
vt 0.050781 0.980469 0.000000
vt 0.050781 0.980469 0.000000
vt 0.050781 0.980469 0.000000
vt 0.652344 0.886719 0.000000
vt 0.652344 0.253906 0.000000
vt 0.652344 0.207031 0.000000
vt 0.621094 0.386719 0.000000
vt 0.621094 0.386719 0.000000
vt 0.621094 0.433594 0.000000
vt 0.652344 0.253906 0.000000
vt 0.589844 0.613281 0.000000
vt 0.972656 0.660156 0.000000
vt 0.878906 0.449219 0.000000
vt 0.878906 0.449219 0.000000
vt 0.621094 0.433594 0.000000
vt 0.589844 0.613281 0.000000
vt 0.972656 0.660156 0.000000
vt 0.972656 0.613281 0.000000
vt 0.878906 0.410156 0.000000
vt 0.878906 0.410156 0.000000
vt 0.878906 0.449219 0.000000
vt 0.972656 0.660156 0.000000
vt 0.878906 0.410156 0.000000
vt 0.972656 0.613281 0.000000
vt 0.589844 0.566406 0.000000
vt 0.589844 0.566406 0.000000
vt 0.621094 0.386719 0.000000
vt 0.878906 0.410156 0.000000
vt 0.652344 0.222656 0.000000
vt 0.722656 0.191406 0.000000
vt 0.722656 0.410156 0.000000
vt 0.722656 0.410156 0.000000
vt 0.605469 0.425781 0.000000
vt 0.652344 0.222656 0.000000
vt 0.558594 0.628906 0.000000
vt 0.785156 0.644531 0.000000
vt 0.769531 0.425781 0.000000
vt 0.769531 0.425781 0.000000
vt 0.605469 0.425781 0.000000
vt 0.558594 0.628906 0.000000
vt 0.769531 0.425781 0.000000
vt 0.785156 0.644531 0.000000
vt 0.972656 0.628906 0.000000
vt 0.972656 0.628906 0.000000
vt 0.878906 0.394531 0.000000
vt 0.769531 0.425781 0.000000
vt 0.878906 0.394531 0.000000
vt 0.972656 0.628906 0.000000
vt 0.722656 0.628906 0.000000
vt 0.722656 0.628906 0.000000
vt 0.722656 0.410156 0.000000
vt 0.878906 0.394531 0.000000
vt 0.589844 0.628906 0.000000
vt 0.558594 0.613281 0.000000
vt 0.605469 0.433594 0.000000
vt 0.605469 0.433594 0.000000
vt 0.621094 0.441406 0.000000
vt 0.589844 0.628906 0.000000
vt 0.558594 0.613281 0.000000
vt 0.722656 0.613281 0.000000
vt 0.722656 0.425781 0.000000
vt 0.722656 0.425781 0.000000
vt 0.605469 0.433594 0.000000
vt 0.558594 0.613281 0.000000
vt 0.722656 0.425781 0.000000
vt 0.722656 0.613281 0.000000
vt 0.972656 0.613281 0.000000
vt 0.972656 0.613281 0.000000
vt 0.878906 0.402344 0.000000
vt 0.722656 0.425781 0.000000
vt 0.878906 0.402344 0.000000
vt 0.972656 0.613281 0.000000
vt 0.589844 0.628906 0.000000
vt 0.589844 0.628906 0.000000
vt 0.621094 0.441406 0.000000
vt 0.878906 0.402344 0.000000
vt 0.652344 0.269531 0.000000
vt 0.652344 0.253906 0.000000
vt 0.652344 0.449219 0.000000
vt 0.652344 0.449219 0.000000
vt 0.621094 0.441406 0.000000
vt 0.652344 0.269531 0.000000
vt 0.816406 0.394531 0.000000
vt 0.722656 0.207031 0.000000
vt 0.652344 0.269531 0.000000
vt 0.652344 0.269531 0.000000
vt 0.621094 0.441406 0.000000
vt 0.816406 0.394531 0.000000
vt 0.847656 0.410156 0.000000
vt 0.722656 0.207031 0.000000
vt 0.722656 0.207031 0.000000
vt 0.722656 0.207031 0.000000
vt 0.816406 0.394531 0.000000
vt 0.847656 0.410156 0.000000
vt 0.652344 0.253906 0.000000
vt 0.722656 0.207031 0.000000
vt 0.847656 0.410156 0.000000
vt 0.847656 0.410156 0.000000
vt 0.652344 0.449219 0.000000
vt 0.652344 0.253906 0.000000
vt 0.722656 0.472656 0.000000
vt 0.722656 0.253906 0.000000
vt 0.652344 0.253906 0.000000
vt 0.652344 0.253906 0.000000
vt 0.605469 0.457031 0.000000
vt 0.722656 0.472656 0.000000
vt 0.847656 0.402344 0.000000
vt 0.722656 0.175781 0.000000
vt 0.722656 0.253906 0.000000
vt 0.722656 0.253906 0.000000
vt 0.722656 0.472656 0.000000
vt 0.847656 0.402344 0.000000
vt 0.722656 0.191406 0.000000
vt 0.722656 0.175781 0.000000
vt 0.847656 0.402344 0.000000
vt 0.847656 0.402344 0.000000
vt 0.722656 0.402344 0.000000
vt 0.722656 0.191406 0.000000
vt 0.652344 0.253906 0.000000
vt 0.722656 0.191406 0.000000
vt 0.722656 0.402344 0.000000
vt 0.722656 0.402344 0.000000
vt 0.605469 0.457031 0.000000
vt 0.652344 0.253906 0.000000
vn -0.743896 -0.392578 -0.540527
vn -0.638184 -0.362305 -0.678955
vn 0.768799 -0.520264 -0.371338
vn 0.768799 -0.520264 -0.371338
vn 0.892090 -0.302734 -0.335205
vn -0.743896 -0.392578 -0.540527
vn 0.860840 -0.092773 -0.500000
vn -0.734375 -0.517334 -0.439209
vn -0.743896 -0.392578 -0.540527
vn -0.743896 -0.392578 -0.540527
vn 0.892090 -0.302734 -0.335205
vn 0.860840 -0.092773 -0.500000
vn 0.860840 -0.092773 -0.500000
vn 0.813232 0.083252 -0.575684
vn -0.408936 -0.646240 -0.644043
vn -0.408936 -0.646240 -0.644043
vn -0.734375 -0.517334 -0.439209
vn 0.860840 -0.092773 -0.500000
vn 0.892090 -0.302734 -0.335205
vn 0.768799 -0.520264 -0.371338
vn 0.590332 0.777344 0.216309
vn 0.590332 0.777344 0.216309
vn 0.395996 0.820312 0.412354
vn 0.892090 -0.302734 -0.335205
vn 0.892090 -0.302734 -0.335205
vn 0.395996 0.820312 0.412354
vn 0.484375 0.577637 0.656738
vn 0.484375 0.577637 0.656738
vn 0.860840 -0.092773 -0.500000
vn 0.892090 -0.302734 -0.335205
vn 0.601318 0.196045 -0.774414
vn 0.813232 0.083252 -0.575684
vn 0.616211 0.388672 0.684814
vn 0.616211 0.388672 0.684814
vn 0.697754 0.449951 0.557129
vn 0.601318 0.196045 -0.774414
vn -0.554932 0.831543 -0.021973
vn -0.638184 -0.362305 -0.678955
vn -0.743896 -0.392578 -0.540527
vn -0.743896 -0.392578 -0.540527
vn -0.724854 0.610596 0.318359
vn -0.554932 0.831543 -0.021973
vn 0.395996 0.820312 0.412354
vn -0.724854 0.610596 0.318359
vn -0.653809 0.215576 0.725098
vn -0.653809 0.215576 0.725098
vn 0.484375 0.577637 0.656738
vn 0.395996 0.820312 0.412354
vn -0.724854 0.610596 0.318359
vn -0.743896 -0.392578 -0.540527
vn -0.734375 -0.517334 -0.439209
vn -0.734375 -0.517334 -0.439209
vn -0.653809 0.215576 0.725098
vn -0.724854 0.610596 0.318359
vn 0.697754 0.449951 0.557129
vn 0.616211 0.388672 0.684814
vn -0.542725 -0.259521 0.798584
vn -0.542725 -0.259521 0.798584
vn -0.405518 -0.252197 0.878418
vn 0.697754 0.449951 0.557129
vn -0.405518 -0.252197 0.878418
vn -0.542725 -0.259521 0.798584
vn -0.408936 -0.646240 -0.644043
vn -0.408936 -0.646240 -0.644043
vn -0.761230 -0.613525 -0.209473
vn -0.405518 -0.252197 0.878418
vn 0.152588 -0.855469 -0.494629
vn -0.977295 0.097900 -0.187012
vn -0.924561 0.034668 -0.379150
vn -0.924561 0.034668 -0.379150
vn 0.154053 -0.902832 -0.401367
vn 0.152588 -0.855469 -0.494629
vn 0.154053 -0.902832 -0.401367
vn 0.936523 0.309570 -0.163574
vn 0.951904 0.300537 -0.057861
vn 0.951904 0.300537 -0.057861
vn 0.152588 -0.855469 -0.494629
vn 0.154053 -0.902832 -0.401367
vn 0.159424 -0.671631 -0.723389
vn -0.999023 -0.038086 0.010498
vn -0.977295 0.097900 -0.187012
vn -0.977295 0.097900 -0.187012
vn 0.152588 -0.855469 -0.494629
vn 0.159424 -0.671631 -0.723389
vn 0.152588 -0.855469 -0.494629
vn 0.951904 0.300537 -0.057861
vn 0.981445 0.124023 0.145020
vn 0.981445 0.124023 0.145020
vn 0.159424 -0.671631 -0.723389
vn 0.152588 -0.855469 -0.494629
vn 0.159424 -0.671631 -0.723389
vn 0.122803 -0.489746 -0.863037
vn -0.986572 -0.159424 0.030518
vn -0.986572 -0.159424 0.030518
vn -0.999023 -0.038086 0.010498
vn 0.159424 -0.671631 -0.723389
vn 0.071289 -0.369629 -0.926270
vn 0.122803 -0.489746 -0.863037
vn 0.990234 -0.076172 0.114502
vn 0.990234 -0.076172 0.114502
vn 0.972168 -0.045166 0.229004
vn 0.071289 -0.369629 -0.926270
vn -0.082031 0.942383 0.324219
vn 0.951904 0.300537 -0.057861
vn 0.936523 0.309570 -0.163574
vn 0.936523 0.309570 -0.163574
vn -0.095947 0.987305 -0.125732
vn -0.082031 0.942383 0.324219
vn 0.951904 0.300537 -0.057861
vn -0.082031 0.942383 0.324219
vn -0.079590 0.576904 0.812744
vn -0.079590 0.576904 0.812744
vn 0.981445 0.124023 0.145020
vn 0.951904 0.300537 -0.057861
vn 0.972168 -0.045166 0.229004
vn 0.990234 -0.076172 0.114502
vn 0.012451 0.202148 0.979004
vn 0.012451 0.202148 0.979004
vn 0.014404 0.039551 0.999023
vn 0.972168 -0.045166 0.229004
vn -0.095947 0.987305 -0.125732
vn -0.924561 0.034668 -0.379150
vn -0.977295 0.097900 -0.187012
vn -0.977295 0.097900 -0.187012
vn -0.082031 0.942383 0.324219
vn -0.095947 0.987305 -0.125732
vn -0.082031 0.942383 0.324219
vn -0.977295 0.097900 -0.187012
vn -0.999023 -0.038086 0.010498
vn -0.999023 -0.038086 0.010498
vn -0.079590 0.576904 0.812744
vn -0.082031 0.942383 0.324219
vn -0.881348 -0.190674 0.431641
vn 0.014404 0.039551 0.999023
vn 0.012451 0.202148 0.979004
vn 0.012451 0.202148 0.979004
vn -0.986572 -0.159424 0.030518
vn -0.881348 -0.190674 0.431641
vn 0.393799 -0.819336 -0.416016
vn -0.891357 -0.402344 -0.208252
vn -0.878906 -0.439453 -0.185059
vn -0.878906 -0.439453 -0.185059
vn 0.310303 -0.890381 -0.332275
vn 0.393799 -0.819336 -0.416016
vn -0.891357 -0.402344 -0.208252
vn 0.393799 -0.819336 -0.416016
vn 0.378174 -0.734863 -0.562500
vn 0.378174 -0.734863 -0.562500
vn -0.884033 -0.325928 -0.334229
vn -0.891357 -0.402344 -0.208252
vn 0.267334 -0.650635 -0.710449
vn -0.957764 0.072021 -0.277832
vn -0.823242 -0.226562 -0.520264
vn -0.823242 -0.226562 -0.520264
vn 0.367676 -0.655762 -0.659180
vn 0.267334 -0.650635 -0.710449
vn 0.973633 0.165039 -0.156494
vn 0.393799 -0.819336 -0.416016
vn 0.310303 -0.890381 -0.332275
vn 0.310303 -0.890381 -0.332275
vn 0.930176 0.170410 -0.324463
vn 0.973633 0.165039 -0.156494
vn 0.930176 0.170410 -0.324463
vn -0.104736 0.968018 -0.227295
vn -0.172119 0.968994 0.175537
vn -0.172119 0.968994 0.175537
vn 0.973633 0.165039 -0.156494
vn 0.930176 0.170410 -0.324463
vn 0.393799 -0.819336 -0.416016
vn 0.973633 0.165039 -0.156494
vn 0.991455 0.016602 0.127441
vn 0.991455 0.016602 0.127441
vn 0.378174 -0.734863 -0.562500
vn 0.393799 -0.819336 -0.416016
vn 0.973633 0.165039 -0.156494
vn -0.172119 0.968994 0.175537
vn -0.173584 0.717773 0.674072
vn -0.173584 0.717773 0.674072
vn 0.991455 0.016602 0.127441
vn 0.973633 0.165039 -0.156494
vn 0.267334 -0.650635 -0.710449
vn 0.367676 -0.655762 -0.659180
vn 0.932861 -0.253662 0.254883
vn 0.932861 -0.253662 0.254883
vn 0.723389 -0.183105 0.665283
vn 0.267334 -0.650635 -0.710449
vn 0.723389 -0.183105 0.665283
vn 0.932861 -0.253662 0.254883
vn -0.260254 0.435547 0.861572
vn -0.260254 0.435547 0.861572
vn -0.192139 0.322266 0.926758
vn 0.723389 -0.183105 0.665283
vn -0.104736 0.968018 -0.227295
vn -0.878906 -0.439453 -0.185059
vn -0.891357 -0.402344 -0.208252
vn -0.891357 -0.402344 -0.208252
vn -0.172119 0.968994 0.175537
vn -0.104736 0.968018 -0.227295
vn -0.172119 0.968994 0.175537
vn -0.891357 -0.402344 -0.208252
vn -0.884033 -0.325928 -0.334229
vn -0.884033 -0.325928 -0.334229
vn -0.173584 0.717773 0.674072
vn -0.172119 0.968994 0.175537
vn -0.260254 0.435547 0.861572
vn -0.823242 -0.226562 -0.520264
vn -0.957764 0.072021 -0.277832
vn -0.957764 0.072021 -0.277832
vn -0.192139 0.322266 0.926758
vn -0.260254 0.435547 0.861572
vn 0.370361 -0.659668 -0.653809
vn -0.846191 0.083252 -0.526123
vn -0.821533 -0.048096 -0.567627
vn -0.821533 -0.048096 -0.567627
vn 0.413818 -0.726562 -0.548340
vn 0.370361 -0.659668 -0.653809
vn 0.452393 -0.458984 -0.764404
vn -0.833008 -0.008057 -0.552734
vn -0.846191 0.083252 -0.526123
vn -0.846191 0.083252 -0.526123
vn 0.370361 -0.659668 -0.653809
vn 0.452393 -0.458984 -0.764404
vn -0.833008 -0.008057 -0.552734
vn 0.452393 -0.458984 -0.764404
vn 0.623779 -0.234863 -0.745117
vn 0.623779 -0.234863 -0.745117
vn -0.812988 0.093994 -0.574219
vn -0.833008 -0.008057 -0.552734
vn 0.828613 0.258545 0.495850
vn 0.370361 -0.659668 -0.653809
vn 0.413818 -0.726562 -0.548340
vn 0.413818 -0.726562 -0.548340
vn 0.843018 0.391602 0.368408
vn 0.828613 0.258545 0.495850
vn 0.766357 0.023682 0.641602
vn 0.452393 -0.458984 -0.764404
vn 0.370361 -0.659668 -0.653809
vn 0.370361 -0.659668 -0.653809
vn 0.828613 0.258545 0.495850
vn 0.766357 0.023682 0.641602
vn 0.766357 0.023682 0.641602
vn 0.696045 -0.369141 0.615479
vn 0.623779 -0.234863 -0.745117
vn 0.623779 -0.234863 -0.745117
vn 0.452393 -0.458984 -0.764404
vn 0.766357 0.023682 0.641602
vn -0.451904 0.730225 0.511963
vn 0.828613 0.258545 0.495850
vn 0.843018 0.391602 0.368408
vn 0.843018 0.391602 0.368408
vn -0.219238 0.936523 0.273193
vn -0.451904 0.730225 0.511963
vn -0.610596 0.286377 0.738281
vn 0.766357 0.023682 0.641602
vn 0.828613 0.258545 0.495850
vn 0.828613 0.258545 0.495850
vn -0.451904 0.730225 0.511963
vn -0.610596 0.286377 0.738281
vn -0.610596 0.286377 0.738281
vn -0.624268 -0.102295 0.774170
vn 0.696045 -0.369141 0.615479
vn 0.696045 -0.369141 0.615479
vn 0.766357 0.023682 0.641602
vn -0.610596 0.286377 0.738281
vn -0.846191 0.083252 -0.526123
vn -0.451904 0.730225 0.511963
vn -0.219238 0.936523 0.273193
vn -0.219238 0.936523 0.273193
vn -0.821533 -0.048096 -0.567627
vn -0.846191 0.083252 -0.526123
vn -0.833008 -0.008057 -0.552734
vn -0.610596 0.286377 0.738281
vn -0.451904 0.730225 0.511963
vn -0.451904 0.730225 0.511963
vn -0.846191 0.083252 -0.526123
vn -0.833008 -0.008057 -0.552734
vn -0.812988 0.093994 -0.574219
vn -0.624268 -0.102295 0.774170
vn -0.610596 0.286377 0.738281
vn -0.610596 0.286377 0.738281
vn -0.833008 -0.008057 -0.552734
vn -0.812988 0.093994 -0.574219
vn 0.959717 0.115967 -0.255371
vn -0.169189 -0.640381 -0.749023
vn -0.708252 -0.254150 -0.658203
vn -0.708252 -0.254150 -0.658203
vn 0.945557 -0.025879 -0.323975
vn 0.959717 0.115967 -0.255371
vn 0.966553 0.235596 -0.099365
vn -0.035156 -0.480957 -0.875732
vn -0.169189 -0.640381 -0.749023
vn -0.169189 -0.640381 -0.749023
vn 0.959717 0.115967 -0.255371
vn 0.966553 0.235596 -0.099365
vn 0.966553 0.235596 -0.099365
vn 0.973389 0.196777 -0.116211
vn -0.143066 -0.189697 -0.971191
vn -0.143066 -0.189697 -0.971191
vn -0.035156 -0.480957 -0.875732
vn 0.966553 0.235596 -0.099365
vn 0.047607 0.766846 0.639648
vn 0.959717 0.115967 -0.255371
vn 0.945557 -0.025879 -0.323975
vn 0.945557 -0.025879 -0.323975
vn -0.062988 0.991699 0.110352
vn 0.047607 0.766846 0.639648
vn 0.026855 0.316406 0.947998
vn 0.966553 0.235596 -0.099365
vn 0.959717 0.115967 -0.255371
vn 0.959717 0.115967 -0.255371
vn 0.047607 0.766846 0.639648
vn 0.026855 0.316406 0.947998
vn 0.026855 0.316406 0.947998
vn 0.137451 -0.193604 0.971191
vn 0.973389 0.196777 -0.116211
vn 0.973389 0.196777 -0.116211
vn 0.966553 0.235596 -0.099365
vn 0.026855 0.316406 0.947998
vn -0.992676 0.111328 0.042236
vn 0.047607 0.766846 0.639648
vn -0.062988 0.991699 0.110352
vn -0.062988 0.991699 0.110352
vn -0.708252 -0.254150 -0.658203
vn -0.992676 0.111328 0.042236
vn -0.708252 -0.254150 -0.658203
vn -0.169189 -0.640381 -0.749023
vn -0.992676 0.111328 0.042236
vn -0.984131 -0.166748 0.060059
vn 0.026855 0.316406 0.947998
vn 0.047607 0.766846 0.639648
vn 0.047607 0.766846 0.639648
vn -0.992676 0.111328 0.042236
vn -0.984131 -0.166748 0.060059
vn -0.035156 -0.480957 -0.875732
vn -0.984131 -0.166748 0.060059
vn -0.992676 0.111328 0.042236
vn -0.992676 0.111328 0.042236
vn -0.169189 -0.640381 -0.749023
vn -0.035156 -0.480957 -0.875732
vn 0.026855 0.316406 0.947998
vn -0.984131 -0.166748 0.060059
vn -0.907715 -0.402344 0.117432
vn -0.907715 -0.402344 0.117432
vn 0.137451 -0.193604 0.971191
vn 0.026855 0.316406 0.947998
vn -0.984131 -0.166748 0.060059
vn -0.035156 -0.480957 -0.875732
vn -0.143066 -0.189697 -0.971191
vn -0.143066 -0.189697 -0.971191
vn -0.907715 -0.402344 0.117432
vn -0.984131 -0.166748 0.060059
vn -0.638184 -0.362305 -0.678955
vn -0.554932 0.831543 -0.021973
vn 0.590332 0.777344 0.216309
vn 0.590332 0.777344 0.216309
vn 0.768799 -0.520264 -0.371338
vn -0.638184 -0.362305 -0.678955
vn -0.924561 0.034668 -0.379150
vn -0.095947 0.987305 -0.125732
vn 0.936523 0.309570 -0.163574
vn 0.936523 0.309570 -0.163574
vn 0.154053 -0.902832 -0.401367
vn -0.924561 0.034668 -0.379150
vn -0.878906 -0.439453 -0.185059
vn -0.104736 0.968018 -0.227295
vn 0.930176 0.170410 -0.324463
vn 0.930176 0.170410 -0.324463
vn 0.310303 -0.890381 -0.332275
vn -0.878906 -0.439453 -0.185059
vn -0.821533 -0.048096 -0.567627
vn -0.219238 0.936523 0.273193
vn 0.843018 0.391602 0.368408
vn 0.843018 0.391602 0.368408
vn 0.413818 -0.726562 -0.548340
vn -0.821533 -0.048096 -0.567627
vn -0.708252 -0.254150 -0.658203
vn -0.062988 0.991699 0.110352
vn 0.945557 -0.025879 -0.323975
vn -0.761230 -0.613525 -0.209473
vn 0.601318 0.196045 -0.774414
vn -0.003174 -0.040039 -0.999023
vn 0.601318 0.196045 -0.774414
vn 0.697754 0.449951 0.557129
vn -0.003174 -0.040039 -0.999023
vn 0.697754 0.449951 0.557129
vn -0.405518 -0.252197 0.878418
vn -0.003174 -0.040039 -0.999023
vn -0.405518 -0.252197 0.878418
vn -0.761230 -0.613525 -0.209473
vn -0.003174 -0.040039 -0.999023
vn 0.071289 -0.369629 -0.926270
vn 0.972168 -0.045166 0.229004
vn 0.642334 -0.162109 -0.748779
vn 0.972168 -0.045166 0.229004
vn 0.014404 0.039551 0.999023
vn 0.642334 -0.162109 -0.748779
vn 0.014404 0.039551 0.999023
vn -0.881348 -0.190674 0.431641
vn 0.642334 -0.162109 -0.748779
vn -0.881348 -0.190674 0.431641
vn 0.071289 -0.369629 -0.926270
vn 0.642334 -0.162109 -0.748779
vn -0.957764 0.072021 -0.277832
vn 0.267334 -0.650635 -0.710449
vn -0.006348 0.006104 -0.999756
vn 0.267334 -0.650635 -0.710449
vn 0.723389 -0.183105 0.665283
vn -0.006348 0.006104 -0.999756
vn 0.723389 -0.183105 0.665283
vn -0.192139 0.322266 0.926758
vn -0.006348 0.006104 -0.999756
vn -0.192139 0.322266 0.926758
vn -0.957764 0.072021 -0.277832
vn -0.006348 0.006104 -0.999756
vn -0.112549 0.421875 -0.899414
vn -0.112549 0.421875 -0.899414
vn -0.112549 0.421875 -0.899414
vn -0.112549 0.421875 -0.899414
vn 0.776367 -0.336426 -0.532715
vn -0.112549 0.421875 -0.899414
vn 0.776367 -0.336426 -0.532715
vn -0.071289 -0.547607 0.833496
vn -0.112549 0.421875 -0.899414
vn -0.071289 -0.547607 0.833496
vn -0.112549 0.421875 -0.899414
vn -0.112549 0.421875 -0.899414
vn 0.289795 0.426514 -0.856445
vn 0.289795 0.426514 -0.856445
vn 0.289795 0.426514 -0.856445
vn 0.289795 0.426514 -0.856445
vn 0.956055 -0.232178 0.177490
vn 0.289795 0.426514 -0.856445
vn 0.956055 -0.232178 0.177490
vn -0.346680 -0.634277 0.690674
vn 0.289795 0.426514 -0.856445
vn -0.346680 -0.634277 0.690674
vn 0.289795 0.426514 -0.856445
vn 0.289795 0.426514 -0.856445
vn -0.724854 0.610596 0.318359
vn 0.395996 0.820312 0.412354
vn 0.590332 0.777344 0.216309
vn 0.590332 0.777344 0.216309
vn -0.554932 0.831543 -0.021973
vn -0.724854 0.610596 0.318359
vn 0.601318 0.196045 -0.774414
vn -0.761230 -0.613525 -0.209473
vn -0.408936 -0.646240 -0.644043
vn -0.408936 -0.646240 -0.644043
vn 0.813232 0.083252 -0.575684
vn 0.601318 0.196045 -0.774414
vn 0.860840 -0.092773 -0.500000
vn 0.484375 0.577637 0.656738
vn 0.616211 0.388672 0.684814
vn 0.616211 0.388672 0.684814
vn 0.813232 0.083252 -0.575684
vn 0.860840 -0.092773 -0.500000
vn 0.484375 0.577637 0.656738
vn -0.653809 0.215576 0.725098
vn -0.542725 -0.259521 0.798584
vn -0.542725 -0.259521 0.798584
vn 0.616211 0.388672 0.684814
vn 0.484375 0.577637 0.656738
vn -0.542725 -0.259521 0.798584
vn -0.653809 0.215576 0.725098
vn -0.734375 -0.517334 -0.439209
vn -0.734375 -0.517334 -0.439209
vn -0.408936 -0.646240 -0.644043
vn -0.542725 -0.259521 0.798584
vn 0.071289 -0.369629 -0.926270
vn -0.881348 -0.190674 0.431641
vn -0.986572 -0.159424 0.030518
vn -0.986572 -0.159424 0.030518
vn 0.122803 -0.489746 -0.863037
vn 0.071289 -0.369629 -0.926270
vn 0.159424 -0.671631 -0.723389
vn 0.981445 0.124023 0.145020
vn 0.990234 -0.076172 0.114502
vn 0.990234 -0.076172 0.114502
vn 0.122803 -0.489746 -0.863037
vn 0.159424 -0.671631 -0.723389
vn 0.990234 -0.076172 0.114502
vn 0.981445 0.124023 0.145020
vn -0.079590 0.576904 0.812744
vn -0.079590 0.576904 0.812744
vn 0.012451 0.202148 0.979004
vn 0.990234 -0.076172 0.114502
vn 0.012451 0.202148 0.979004
vn -0.079590 0.576904 0.812744
vn -0.999023 -0.038086 0.010498
vn -0.999023 -0.038086 0.010498
vn -0.986572 -0.159424 0.030518
vn 0.012451 0.202148 0.979004
vn -0.884033 -0.325928 -0.334229
vn 0.378174 -0.734863 -0.562500
vn 0.367676 -0.655762 -0.659180
vn 0.367676 -0.655762 -0.659180
vn -0.823242 -0.226562 -0.520264
vn -0.884033 -0.325928 -0.334229
vn 0.378174 -0.734863 -0.562500
vn 0.991455 0.016602 0.127441
vn 0.932861 -0.253662 0.254883
vn 0.932861 -0.253662 0.254883
vn 0.367676 -0.655762 -0.659180
vn 0.378174 -0.734863 -0.562500
vn 0.932861 -0.253662 0.254883
vn 0.991455 0.016602 0.127441
vn -0.173584 0.717773 0.674072
vn -0.173584 0.717773 0.674072
vn -0.260254 0.435547 0.861572
vn 0.932861 -0.253662 0.254883
vn -0.260254 0.435547 0.861572
vn -0.173584 0.717773 0.674072
vn -0.884033 -0.325928 -0.334229
vn -0.884033 -0.325928 -0.334229
vn -0.823242 -0.226562 -0.520264
vn -0.260254 0.435547 0.861572
vn -0.112549 0.421875 -0.899414
vn -0.112549 0.421875 -0.899414
vn -0.812988 0.093994 -0.574219
vn -0.812988 0.093994 -0.574219
vn 0.623779 -0.234863 -0.745117
vn -0.112549 0.421875 -0.899414
vn 0.696045 -0.369141 0.615479
vn 0.776367 -0.336426 -0.532715
vn -0.112549 0.421875 -0.899414
vn -0.112549 0.421875 -0.899414
vn 0.623779 -0.234863 -0.745117
vn 0.696045 -0.369141 0.615479
vn -0.624268 -0.102295 0.774170
vn -0.071289 -0.547607 0.833496
vn 0.776367 -0.336426 -0.532715
vn 0.776367 -0.336426 -0.532715
vn 0.696045 -0.369141 0.615479
vn -0.624268 -0.102295 0.774170
vn -0.112549 0.421875 -0.899414
vn -0.071289 -0.547607 0.833496
vn -0.624268 -0.102295 0.774170
vn -0.624268 -0.102295 0.774170
vn -0.812988 0.093994 -0.574219
vn -0.112549 0.421875 -0.899414
vn 0.973389 0.196777 -0.116211
vn 0.289795 0.426514 -0.856445
vn 0.289795 0.426514 -0.856445
vn 0.289795 0.426514 -0.856445
vn -0.143066 -0.189697 -0.971191
vn 0.973389 0.196777 -0.116211
vn 0.137451 -0.193604 0.971191
vn 0.956055 -0.232178 0.177490
vn 0.289795 0.426514 -0.856445
vn 0.289795 0.426514 -0.856445
vn 0.973389 0.196777 -0.116211
vn 0.137451 -0.193604 0.971191
vn -0.346680 -0.634277 0.690674
vn 0.956055 -0.232178 0.177490
vn 0.137451 -0.193604 0.971191
vn 0.137451 -0.193604 0.971191
vn -0.907715 -0.402344 0.117432
vn -0.346680 -0.634277 0.690674
vn 0.289795 0.426514 -0.856445
vn -0.346680 -0.634277 0.690674
vn -0.907715 -0.402344 0.117432
vn -0.907715 -0.402344 0.117432
vn -0.143066 -0.189697 -0.971191
vn 0.289795 0.426514 -0.856445
usemtl Texture
f 1/1/1 2/2/2 3/3/3
f 4/4/4 5/5/5 6/6/6
f 7/7/7 8/8/8 9/9/9
f 10/10/10 11/11/11 12/12/12
f 13/13/13 14/14/14 15/15/15
f 16/16/16 17/17/17 18/18/18
f 19/19/19 20/20/20 21/21/21
f 22/22/22 23/23/23 24/24/24
f 25/25/25 26/26/26 27/27/27
f 28/28/28 29/29/29 30/30/30
f 31/31/31 32/32/32 33/33/33
f 34/34/34 35/35/35 36/36/36
f 37/37/37 38/38/38 39/39/39
f 40/40/40 41/41/41 42/42/42
f 43/43/43 44/44/44 45/45/45
f 46/46/46 47/47/47 48/48/48
f 49/49/49 50/50/50 51/51/51
f 52/52/52 53/53/53 54/54/54
f 55/55/55 56/56/56 57/57/57
f 58/58/58 59/59/59 60/60/60
f 61/61/61 62/62/62 63/63/63
f 64/64/64 65/65/65 66/66/66
f 67/67/67 68/68/68 69/69/69
f 70/70/70 71/71/71 72/72/72
f 73/73/73 74/74/74 75/75/75
f 76/76/76 77/77/77 78/78/78
f 79/79/79 80/80/80 81/81/81
f 82/82/82 83/83/83 84/84/84
f 85/85/85 86/86/86 87/87/87
f 88/88/88 89/89/89 90/90/90
f 91/91/91 92/92/92 93/93/93
f 94/94/94 95/95/95 96/96/96
f 97/97/97 98/98/98 99/99/99
f 100/100/100 101/101/101 102/102/102
f 103/103/103 104/104/104 105/105/105
f 106/106/106 107/107/107 108/108/108
f 109/109/109 110/110/110 111/111/111
f 112/112/112 113/113/113 114/114/114
f 115/115/115 116/116/116 117/117/117
f 118/118/118 119/119/119 120/120/120
f 121/121/121 122/122/122 123/123/123
f 124/124/124 125/125/125 126/126/126
f 127/127/127 128/128/128 129/129/129
f 130/130/130 131/131/131 132/132/132
f 133/133/133 134/134/134 135/135/135
f 136/136/136 137/137/137 138/138/138
f 139/139/139 140/140/140 141/141/141
f 142/142/142 143/143/143 144/144/144
f 145/145/145 146/146/146 147/147/147
f 148/148/148 149/149/149 150/150/150
f 151/151/151 152/152/152 153/153/153
f 154/154/154 155/155/155 156/156/156
f 157/157/157 158/158/158 159/159/159
f 160/160/160 161/161/161 162/162/162
f 163/163/163 164/164/164 165/165/165
f 166/166/166 167/167/167 168/168/168
f 169/169/169 170/170/170 171/171/171
f 172/172/172 173/173/173 174/174/174
f 175/175/175 176/176/176 177/177/177
f 178/178/178 179/179/179 180/180/180
f 181/181/181 182/182/182 183/183/183
f 184/184/184 185/185/185 186/186/186
f 187/187/187 188/188/188 189/189/189
f 190/190/190 191/191/191 192/192/192
f 193/193/193 194/194/194 195/195/195
f 196/196/196 197/197/197 198/198/198
f 199/199/199 200/200/200 201/201/201
f 202/202/202 203/203/203 204/204/204
f 205/205/205 206/206/206 207/207/207
f 208/208/208 209/209/209 210/210/210
f 211/211/211 212/212/212 213/213/213
f 214/214/214 215/215/215 216/216/216
f 217/217/217 218/218/218 219/219/219
f 220/220/220 221/221/221 222/222/222
f 223/223/223 224/224/224 225/225/225
f 226/226/226 227/227/227 228/228/228
f 229/229/229 230/230/230 231/231/231
f 232/232/232 233/233/233 234/234/234
f 235/235/235 236/236/236 237/237/237
f 238/238/238 239/239/239 240/240/240
f 241/241/241 242/242/242 243/243/243
f 244/244/244 245/245/245 246/246/246
f 247/247/247 248/248/248 249/249/249
f 250/250/250 251/251/251 252/252/252
f 253/253/253 254/254/254 255/255/255
f 256/256/256 257/257/257 258/258/258
f 259/259/259 260/260/260 261/261/261
f 262/262/262 263/263/263 264/264/264
f 265/265/265 266/266/266 267/267/267
f 268/268/268 269/269/269 270/270/270
f 271/271/271 272/272/272 273/273/273
f 274/274/274 275/275/275 276/276/276
f 277/277/277 278/278/278 279/279/279
f 280/280/280 281/281/281 282/282/282
f 283/283/283 284/284/284 285/285/285
f 286/286/286 287/287/287 288/288/288
f 289/289/289 290/290/290 291/291/291
f 292/292/292 293/293/293 294/294/294
f 295/295/295 296/296/296 297/297/297
f 298/298/298 299/299/299 300/300/300
f 301/301/301 302/302/302 303/303/303
f 304/304/304 305/305/305 306/306/306
f 307/307/307 308/308/308 309/309/309
f 310/310/310 311/311/311 312/312/312
f 313/313/313 314/314/314 315/315/315
f 316/316/316 317/317/317 318/318/318
f 319/319/319 320/320/320 321/321/321
f 322/322/322 323/323/323 324/324/324
f 325/325/325 326/326/326 327/327/327
f 328/328/328 329/329/329 330/330/330
f 331/331/331 332/332/332 333/333/333
f 334/334/334 335/335/335 336/336/336
f 337/337/337 338/338/338 339/339/339
f 340/340/340 341/341/341 342/342/342
f 343/343/343 344/344/344 345/345/345
f 346/346/346 347/347/347 348/348/348
f 349/349/349 350/350/350 351/351/351
f 352/352/352 353/353/353 354/354/354
f 355/355/355 356/356/356 357/357/357
f 358/358/358 359/359/359 360/360/360
f 361/361/361 362/362/362 363/363/363
f 364/364/364 365/365/365 366/366/366
f 367/367/367 368/368/368 369/369/369
f 370/370/370 371/371/371 372/372/372
f 373/373/373 374/374/374 375/375/375
f 376/376/376 377/377/377 378/378/378
f 379/379/379 380/380/380 381/381/381
f 382/382/382 383/383/383 384/384/384
f 385/385/385 386/386/386 387/387/387
f 388/388/388 389/389/389 390/390/390
f 391/391/391 392/392/392 393/393/393
f 394/394/394 395/395/395 396/396/396
f 397/397/397 398/398/398 399/399/399
f 400/400/400 401/401/401 402/402/402
f 403/403/403 404/404/404 405/405/405
f 406/406/406 407/407/407 408/408/408
f 409/409/409 410/410/410 411/411/411
f 412/412/412 413/413/413 414/414/414
f 415/415/415 416/416/416 417/417/417
f 418/418/418 419/419/419 420/420/420
f 421/421/421 422/422/422 423/423/423
f 424/424/424 425/425/425 426/426/426
f 427/427/427 428/428/428 429/429/429
f 430/430/430 431/431/431 432/432/432
f 433/433/433 434/434/434 435/435/435
f 436/436/436 437/437/437 438/438/438
f 439/439/439 440/440/440 441/441/441
f 442/442/442 443/443/443 444/444/444
f 445/445/445 446/446/446 447/447/447
f 448/448/448 449/449/449 450/450/450
f 451/451/451 452/452/452 453/453/453
f 454/454/454 455/455/455 456/456/456
f 457/457/457 458/458/458 459/459/459
f 460/460/460 461/461/461 462/462/462
f 463/463/463 464/464/464 465/465/465
f 466/466/466 467/467/467 468/468/468
f 469/469/469 470/470/470 471/471/471
f 472/472/472 473/473/473 474/474/474
f 475/475/475 476/476/476 477/477/477
f 478/478/478 479/479/479 480/480/480
f 481/481/481 482/482/482 483/483/483
f 484/484/484 485/485/485 486/486/486
f 487/487/487 488/488/488 489/489/489
f 490/490/490 491/491/491 492/492/492
f 493/493/493 494/494/494 495/495/495
f 496/496/496 497/497/497 498/498/498
f 499/499/499 500/500/500 501/501/501
f 502/502/502 503/503/503 504/504/504
f 505/505/505 506/506/506 507/507/507
f 508/508/508 509/509/509 510/510/510
f 511/511/511 512/512/512 513/513/513
f 514/514/514 515/515/515 516/516/516
f 517/517/517 518/518/518 519/519/519
f 520/520/520 521/521/521 522/522/522
f 523/523/523 524/524/524 525/525/525
f 526/526/526 527/527/527 528/528/528
f 529/529/529 530/530/530 531/531/531
f 532/532/532 533/533/533 534/534/534
f 535/535/535 536/536/536 537/537/537
f 538/538/538 539/539/539 540/540/540
f 541/541/541 542/542/542 543/543/543
f 544/544/544 545/545/545 546/546/546
f 547/547/547 548/548/548 549/549/549
f 550/550/550 551/551/551 552/552/552
f 553/553/553 554/554/554 555/555/555
f 556/556/556 557/557/557 558/558/558
f 559/559/559 560/560/560 561/561/561
f 562/562/562 563/563/563 564/564/564
