# OBJ file
mtllib So3Btl.ico.mtl
v -0.244141 1.211914 0.614014 0.501961 0.501961 0.501961 #0.250980
v -0.692871 0.514160 1.192627 0.501961 0.501961 0.501961 #0.250980
v -0.357422 1.331299 0.706543 0.501961 0.501961 0.501961 #0.250980
v -0.751709 0.905029 1.499512 0.501961 0.501961 0.501961 #0.250980
v -0.357422 1.331299 0.706543 0.501961 0.501961 0.501961 #0.250980
v -0.692871 0.514160 1.192627 0.501961 0.501961 0.501961 #0.250980
v -0.357422 1.331299 0.706543 0.501961 0.501961 0.501961 #0.250980
v -0.751709 0.905029 1.499512 0.501961 0.501961 0.501961 #0.250980
v 0.000000 1.446045 0.760498 0.501961 0.501961 0.501961 #0.250980
v 0.000000 1.237061 1.765381 0.501961 0.501961 0.501961 #0.250980
v 0.000000 1.446045 0.760498 0.501961 0.501961 0.501961 #0.250980
v -0.751709 0.905029 1.499512 0.501961 0.501961 0.501961 #0.250980
v 0.000000 1.446045 0.760498 0.501961 0.501961 0.501961 #0.250980
v 0.000000 1.237061 1.765381 0.501961 0.501961 0.501961 #0.250980
v 0.751709 0.905029 1.499512 0.501961 0.501961 0.501961 #0.250980
v 0.432861 0.351074 1.777832 0.501961 0.501961 0.501961 #0.250980
v 0.751709 0.905029 1.499512 0.501961 0.501961 0.501961 #0.250980
v 0.000000 1.237061 1.765381 0.501961 0.501961 0.501961 #0.250980
v 0.751709 0.905029 1.499512 0.501961 0.501961 0.501961 #0.250980
v 0.432861 0.351074 1.777832 0.501961 0.501961 0.501961 #0.250980
v 0.692871 0.514160 1.192627 0.501961 0.501961 0.501961 #0.250980
v -0.432861 0.351074 1.777832 0.501961 0.501961 0.501961 #0.250980
v 0.692871 0.514160 1.192627 0.501961 0.501961 0.501961 #0.250980
v 0.432861 0.351074 1.777832 0.501961 0.501961 0.501961 #0.250980
v 0.692871 0.514160 1.192627 0.501961 0.501961 0.501961 #0.250980
v -0.432861 0.351074 1.777832 0.501961 0.501961 0.501961 #0.250980
v -0.692871 0.514160 1.192627 0.501961 0.501961 0.501961 #0.250980
v 0.868896 2.886475 0.633545 0.501961 0.501961 0.501961 #0.250980
v 0.649414 2.634033 0.674561 0.501961 0.501961 0.501961 #0.250980
v 1.351318 2.942627 1.333496 0.501961 0.501961 0.501961 #0.250980
v 1.184326 2.691650 1.284912 0.501961 0.501961 0.501961 #0.250980
v 1.351318 2.942627 1.333496 0.501961 0.501961 0.501961 #0.250980
v 0.649414 2.634033 0.674561 0.501961 0.501961 0.501961 #0.250980
v 1.351318 2.942627 1.333496 0.501961 0.501961 0.501961 #0.250980
v 1.184326 2.691650 1.284912 0.501961 0.501961 0.501961 #0.250980
v 1.575928 2.709229 1.813477 0.501961 0.501961 0.501961 #0.250980
v 1.339355 2.527832 1.676514 0.501961 0.501961 0.501961 #0.250980
v 1.575928 2.709229 1.813477 0.501961 0.501961 0.501961 #0.250980
v 1.184326 2.691650 1.284912 0.501961 0.501961 0.501961 #0.250980
v 1.575928 2.709229 1.813477 0.501961 0.501961 0.501961 #0.250980
v 1.339355 2.527832 1.676514 0.501961 0.501961 0.501961 #0.250980
v 1.470459 2.050293 2.218262 0.501961 0.501961 0.501961 #0.250980
v 1.351563 1.864502 2.146484 0.501961 0.501961 0.501961 #0.250980
v 1.470459 2.050293 2.218262 0.501961 0.501961 0.501961 #0.250980
v 1.339355 2.527832 1.676514 0.501961 0.501961 0.501961 #0.250980
v 1.470459 2.050293 2.218262 0.501961 0.501961 0.501961 #0.250980
v 1.351563 1.864502 2.146484 0.501961 0.501961 0.501961 #0.250980
v 1.363281 1.151611 2.608643 0.501961 0.501961 0.501961 #0.250980
v 0.244141 1.211914 0.614014 0.501961 0.501961 0.501961 #0.250980
v 0.357422 1.331299 0.706543 0.501961 0.501961 0.501961 #0.250980
v 0.692871 0.514160 1.192627 0.501961 0.501961 0.501961 #0.250980
v 0.751709 0.905029 1.499512 0.501961 0.501961 0.501961 #0.250980
v 0.692871 0.514160 1.192627 0.501961 0.501961 0.501961 #0.250980
v 0.357422 1.331299 0.706543 0.501961 0.501961 0.501961 #0.250980
v -0.432861 0.351074 1.777832 0.501961 0.501961 0.501961 #0.250980
v 0.000000 0.608643 2.026611 0.501961 0.501961 0.501961 #0.250980
v 0.000000 1.237061 1.765381 0.501961 0.501961 0.501961 #0.250980
v 0.432861 0.351074 1.777832 0.501961 0.501961 0.501961 #0.250980
v 0.000000 1.237061 1.765381 0.501961 0.501961 0.501961 #0.250980
v 0.000000 0.608643 2.026611 0.501961 0.501961 0.501961 #0.250980
v -0.751709 0.905029 1.499512 0.501961 0.501961 0.501961 #0.250980
v -0.432861 0.351074 1.777832 0.501961 0.501961 0.501961 #0.250980
v 0.000000 1.237061 1.765381 0.501961 0.501961 0.501961 #0.250980
v -0.649414 2.634033 0.674561 0.501961 0.501961 0.501961 #0.250980
v -1.351318 2.942627 1.333496 0.501961 0.501961 0.501961 #0.250980
v -1.184326 2.691650 1.284912 0.501961 0.501961 0.501961 #0.250980
v -1.575928 2.709229 1.813477 0.501961 0.501961 0.501961 #0.250980
v -1.184326 2.691650 1.284912 0.501961 0.501961 0.501961 #0.250980
v -1.351318 2.942627 1.333496 0.501961 0.501961 0.501961 #0.250980
v -1.184326 2.691650 1.284912 0.501961 0.501961 0.501961 #0.250980
v -1.575928 2.709229 1.813477 0.501961 0.501961 0.501961 #0.250980
v -1.339355 2.527832 1.676514 0.501961 0.501961 0.501961 #0.250980
v -1.470459 2.050293 2.218262 0.501961 0.501961 0.501961 #0.250980
v -1.339355 2.527832 1.676514 0.501961 0.501961 0.501961 #0.250980
v -1.575928 2.709229 1.813477 0.501961 0.501961 0.501961 #0.250980
v -1.339355 2.527832 1.676514 0.501961 0.501961 0.501961 #0.250980
v -1.470459 2.050293 2.218262 0.501961 0.501961 0.501961 #0.250980
v -1.351563 1.864502 2.146484 0.501961 0.501961 0.501961 #0.250980
v -1.363281 1.151611 2.608643 0.501961 0.501961 0.501961 #0.250980
v -1.351563 1.864502 2.146484 0.501961 0.501961 0.501961 #0.250980
v -1.470459 2.050293 2.218262 0.501961 0.501961 0.501961 #0.250980
v -0.691650 2.157959 -0.465576 0.501961 0.501961 0.501961 #0.250980
v -0.427734 2.543701 -0.485352 0.501961 0.501961 0.501961 #0.250980
v -0.302490 1.950684 -0.901611 0.501961 0.501961 0.501961 #0.250980
v 0.000000 2.594727 -0.521973 0.501961 0.501961 0.501961 #0.250980
v -0.302490 1.950684 -0.901611 0.501961 0.501961 0.501961 #0.250980
v -0.427734 2.543701 -0.485352 0.501961 0.501961 0.501961 #0.250980
v -0.302490 1.950684 -0.901611 0.501961 0.501961 0.501961 #0.250980
v 0.000000 2.594727 -0.521973 0.501961 0.501961 0.501961 #0.250980
v 0.000000 2.130371 -0.811768 0.501961 0.501961 0.501961 #0.250980
v 0.302490 1.950684 -0.900635 0.501961 0.501961 0.501961 #0.250980
v 0.000000 2.130371 -0.811768 0.501961 0.501961 0.501961 #0.250980
v 0.000000 2.594727 -0.521973 0.501961 0.501961 0.501961 #0.250980
v 0.000000 2.130371 -0.811768 0.501961 0.501961 0.501961 #0.250980
v 0.302490 1.950684 -0.900635 0.501961 0.501961 0.501961 #0.250980
v -0.302490 1.950684 -0.901611 0.501961 0.501961 0.501961 #0.250980
v -0.366699 1.650635 -0.887451 0.501961 0.501961 0.501961 #0.250980
v -0.302490 1.950684 -0.901611 0.501961 0.501961 0.501961 #0.250980
v 0.302490 1.950684 -0.900635 0.501961 0.501961 0.501961 #0.250980
v 0.427734 2.543457 -0.483887 0.501961 0.501961 0.501961 #0.250980
v 0.302490 1.950684 -0.900635 0.501961 0.501961 0.501961 #0.250980
v 0.000000 2.594727 -0.521973 0.501961 0.501961 0.501961 #0.250980
v 0.815186 0.830322 -0.713379 0.501961 0.501961 0.501961 #0.250980
v 0.888428 1.513916 -0.739014 0.501961 0.501961 0.501961 #0.250980
v 0.711670 0.860352 -0.772461 0.501961 0.501961 0.501961 #0.250980
v 0.853271 1.769043 -0.746094 0.501961 0.501961 0.501961 #0.250980
v 0.711670 0.860352 -0.772461 0.501961 0.501961 0.501961 #0.250980
v 0.888428 1.513916 -0.739014 0.501961 0.501961 0.501961 #0.250980
v 0.711670 0.860352 -0.772461 0.501961 0.501961 0.501961 #0.250980
v 0.853271 1.769043 -0.746094 0.501961 0.501961 0.501961 #0.250980
v 0.764893 1.539063 -0.843750 0.501961 0.501961 0.501961 #0.250980
v 0.698242 1.787598 -0.887207 0.501961 0.501961 0.501961 #0.250980
v 0.764893 1.539063 -0.843750 0.501961 0.501961 0.501961 #0.250980
v 0.853271 1.769043 -0.746094 0.501961 0.501961 0.501961 #0.250980
v 0.764893 1.539063 -0.843750 0.501961 0.501961 0.501961 #0.250980
v 0.698242 1.787598 -0.887207 0.501961 0.501961 0.501961 #0.250980
v 0.575928 1.810547 -0.947021 0.501961 0.501961 0.501961 #0.250980
v 0.615234 0.866455 -0.884766 0.501961 0.501961 0.501961 #0.250980
v 0.764893 1.539063 -0.843750 0.501961 0.501961 0.501961 #0.250980
v 0.734131 0.846191 -0.826660 0.501961 0.501961 0.501961 #0.250980
v 0.875732 1.754639 -0.800537 0.501961 0.501961 0.501961 #0.250980
v 0.734131 0.846191 -0.826660 0.501961 0.501961 0.501961 #0.250980
v 0.764893 1.539063 -0.843750 0.501961 0.501961 0.501961 #0.250980
v 0.734131 0.846191 -0.826660 0.501961 0.501961 0.501961 #0.250980
v 0.875732 1.754639 -0.800537 0.501961 0.501961 0.501961 #0.250980
v 0.888428 1.513916 -0.739014 0.501961 0.501961 0.501961 #0.250980
v 0.999268 1.730713 -0.627930 0.501961 0.501961 0.501961 #0.250980
v 0.888428 1.513916 -0.739014 0.501961 0.501961 0.501961 #0.250980
v 0.875732 1.754639 -0.800537 0.501961 0.501961 0.501961 #0.250980
v 0.888428 1.513916 -0.739014 0.501961 0.501961 0.501961 #0.250980
v 0.999268 1.730713 -0.627930 0.501961 0.501961 0.501961 #0.250980
v 1.071289 1.716797 -0.527100 0.501961 0.501961 0.501961 #0.250980
v 0.000000 0.608643 2.026611 0.501961 0.501961 0.501961 #0.250980
v -0.432861 0.351074 1.777832 0.501961 0.501961 0.501961 #0.250980
v 0.432861 0.351074 1.777832 0.501961 0.501961 0.501961 #0.250980
v 1.847900 0.166504 -1.058838 0.501961 0.501961 0.501961 #0.250980
v 1.856445 -0.148926 -1.011230 0.501961 0.501961 0.501961 #0.250980
v 1.677002 0.137939 -1.182129 0.501961 0.501961 0.501961 #0.250980
v 1.686768 -0.148682 -1.143311 0.501961 0.501961 0.501961 #0.250980
v 1.677002 0.137939 -1.182129 0.501961 0.501961 0.501961 #0.250980
v 1.856445 -0.148926 -1.011230 0.501961 0.501961 0.501961 #0.250980
v 1.677002 0.137939 -1.182129 0.501961 0.501961 0.501961 #0.250980
v 1.686768 -0.148682 -1.143311 0.501961 0.501961 0.501961 #0.250980
v 1.431641 0.334473 -0.833984 0.501961 0.501961 0.501961 #0.250980
v 1.467529 -0.166504 -1.315430 0.501961 0.501961 0.501961 #0.250980
v 1.431641 0.334473 -0.833984 0.501961 0.501961 0.501961 #0.250980
v 1.686768 -0.148682 -1.143311 0.501961 0.501961 0.501961 #0.250980
v 1.431641 0.334473 -0.833984 0.501961 0.501961 0.501961 #0.250980
v 1.467529 -0.166504 -1.315430 0.501961 0.501961 0.501961 #0.250980
v 1.322998 0.211426 -1.407715 0.501961 0.501961 0.501961 #0.250980
v 1.066162 2.577393 0.665283 0.501961 0.501961 0.501961 #0.250980
v 0.868896 2.886475 0.633545 0.501961 0.501961 0.501961 #0.250980
v 1.549316 2.632080 1.287354 0.501961 0.501961 0.501961 #0.250980
v 1.351318 2.942627 1.333496 0.501961 0.501961 0.501961 #0.250980
v 1.549316 2.632080 1.287354 0.501961 0.501961 0.501961 #0.250980
v 0.868896 2.886475 0.633545 0.501961 0.501961 0.501961 #0.250980
v 1.549316 2.632080 1.287354 0.501961 0.501961 0.501961 #0.250980
v 1.351318 2.942627 1.333496 0.501961 0.501961 0.501961 #0.250980
v 1.773438 2.450928 1.728760 0.501961 0.501961 0.501961 #0.250980
v 1.575928 2.709229 1.813477 0.501961 0.501961 0.501961 #0.250980
v 1.773438 2.450928 1.728760 0.501961 0.501961 0.501961 #0.250980
v 1.351318 2.942627 1.333496 0.501961 0.501961 0.501961 #0.250980
v 1.773438 2.450928 1.728760 0.501961 0.501961 0.501961 #0.250980
v 1.575928 2.709229 1.813477 0.501961 0.501961 0.501961 #0.250980
v 1.563721 2.082520 2.222900 0.501961 0.501961 0.501961 #0.250980
v 0.366699 1.650635 -0.887451 0.501961 0.501961 0.501961 #0.250980
v 1.013672 1.457275 -0.578613 0.501961 0.501961 0.501961 #0.250980
v 1.194092 0.586182 -0.528564 0.501961 0.501961 0.501961 #0.250980
v 1.191406 1.566895 0.599609 0.501961 0.501961 0.501961 #0.250980
v 1.194092 0.586182 -0.528564 0.501961 0.501961 0.501961 #0.250980
v 1.013672 1.457275 -0.578613 0.501961 0.501961 0.501961 #0.250980
v 1.194092 0.586182 -0.528564 0.501961 0.501961 0.501961 #0.250980
v 1.191406 1.566895 0.599609 0.501961 0.501961 0.501961 #0.250980
v 1.315674 0.602295 0.641602 0.501961 0.501961 0.501961 #0.250980
v 0.846680 1.397949 1.098389 0.501961 0.501961 0.501961 #0.250980
v 1.315674 0.602295 0.641602 0.501961 0.501961 0.501961 #0.250980
v 1.191406 1.566895 0.599609 0.501961 0.501961 0.501961 #0.250980
v 1.315674 0.602295 0.641602 0.501961 0.501961 0.501961 #0.250980
v 0.846680 1.397949 1.098389 0.501961 0.501961 0.501961 #0.250980
v 0.801270 0.585449 1.090088 0.501961 0.501961 0.501961 #0.250980
v 0.455566 2.657227 0.054199 0.501961 0.501961 0.501961 #0.250980
v -0.455566 2.657471 0.052490 0.501961 0.501961 0.501961 #0.250980
v 0.391357 2.571777 0.598633 0.501961 0.501961 0.501961 #0.250980
v -0.391357 2.572021 0.597412 0.501961 0.501961 0.501961 #0.250980
v 0.391357 2.571777 0.598633 0.501961 0.501961 0.501961 #0.250980
v -0.455566 2.657471 0.052490 0.501961 0.501961 0.501961 #0.250980
v 0.391357 2.571777 0.598633 0.501961 0.501961 0.501961 #0.250980
v -0.391357 2.572021 0.597412 0.501961 0.501961 0.501961 #0.250980
v 0.638916 2.069336 0.904785 0.501961 0.501961 0.501961 #0.250980
v -0.640137 2.069580 0.902588 0.501961 0.501961 0.501961 #0.250980
v 0.638916 2.069336 0.904785 0.501961 0.501961 0.501961 #0.250980
v -0.391357 2.572021 0.597412 0.501961 0.501961 0.501961 #0.250980
v 0.638916 2.069336 0.904785 0.501961 0.501961 0.501961 #0.250980
v -0.640137 2.069580 0.902588 0.501961 0.501961 0.501961 #0.250980
v -0.849121 1.398682 1.095459 0.501961 0.501961 0.501961 #0.250980
v -0.867188 0.232422 0.016357 0.501961 0.501961 0.501961 #0.250980
v -0.803955 0.585693 1.087402 0.501961 0.501961 0.501961 #0.250980
v -1.316895 0.602539 0.636963 0.501961 0.501961 0.501961 #0.250980
v -0.849121 1.398682 1.095459 0.501961 0.501961 0.501961 #0.250980
v -1.316895 0.602539 0.636963 0.501961 0.501961 0.501961 #0.250980
v -0.803955 0.585693 1.087402 0.501961 0.501961 0.501961 #0.250980
v -1.316895 0.602539 0.636963 0.501961 0.501961 0.501961 #0.250980
v -0.849121 1.398682 1.095459 0.501961 0.501961 0.501961 #0.250980
v -1.191406 1.568115 0.595703 0.501961 0.501961 0.501961 #0.250980
v -0.640137 2.069580 0.902588 0.501961 0.501961 0.501961 #0.250980
v -1.191406 1.568115 0.595703 0.501961 0.501961 0.501961 #0.250980
v -0.849121 1.398682 1.095459 0.501961 0.501961 0.501961 #0.250980
v -1.191406 1.568115 0.595703 0.501961 0.501961 0.501961 #0.250980
v -0.640137 2.069580 0.902588 0.501961 0.501961 0.501961 #0.250980
v -0.829834 2.343750 0.356201 0.501961 0.501961 0.501961 #0.250980
v -0.867188 0.232422 0.016357 0.501961 0.501961 0.501961 #0.250980
v -1.316895 0.602539 0.636963 0.501961 0.501961 0.501961 #0.250980
v -1.191406 0.586182 -0.532715 0.501961 0.501961 0.501961 #0.250980
v -1.191406 1.568115 0.595703 0.501961 0.501961 0.501961 #0.250980
v -1.191406 0.586182 -0.532715 0.501961 0.501961 0.501961 #0.250980
v -1.316895 0.602539 0.636963 0.501961 0.501961 0.501961 #0.250980
v -1.191406 0.586182 -0.532715 0.501961 0.501961 0.501961 #0.250980
v -1.191406 1.568115 0.595703 0.501961 0.501961 0.501961 #0.250980
v -1.013672 1.458984 -0.582031 0.501961 0.501961 0.501961 #0.250980
v -0.829834 2.343750 0.356201 0.501961 0.501961 0.501961 #0.250980
v -1.013672 1.458984 -0.582031 0.501961 0.501961 0.501961 #0.250980
v -1.191406 1.568115 0.595703 0.501961 0.501961 0.501961 #0.250980
v -1.013672 1.458984 -0.582031 0.501961 0.501961 0.501961 #0.250980
v -0.829834 2.343750 0.356201 0.501961 0.501961 0.501961 #0.250980
v -0.691650 2.157959 -0.465576 0.501961 0.501961 0.501961 #0.250980
v -0.478516 0.407715 -0.938232 0.501961 0.501961 0.501961 #0.250980
v -0.867188 0.232422 0.016357 0.501961 0.501961 0.501961 #0.250980
v -1.191406 0.586182 -0.532715 0.501961 0.501961 0.501961 #0.250980
v 1.261230 4.227539 -0.729004 0.501961 0.501961 0.501961 #0.250980
v 0.853271 1.769043 -0.746094 0.501961 0.501961 0.501961 #0.250980
v 0.999268 1.730713 -0.627930 0.501961 0.501961 0.501961 #0.250980
v 0.888428 1.513916 -0.739014 0.501961 0.501961 0.501961 #0.250980
v 0.999268 1.730713 -0.627930 0.501961 0.501961 0.501961 #0.250980
v 0.853271 1.769043 -0.746094 0.501961 0.501961 0.501961 #0.250980
v 0.999268 1.730713 -0.627930 0.501961 0.501961 0.501961 #0.250980
v 0.888428 1.513916 -0.739014 0.501961 0.501961 0.501961 #0.250980
v 1.071289 1.716797 -0.527100 0.501961 0.501961 0.501961 #0.250980
v 1.036865 1.496338 -0.533447 0.501961 0.501961 0.501961 #0.250980
v 1.071289 1.716797 -0.527100 0.501961 0.501961 0.501961 #0.250980
v 0.888428 1.513916 -0.739014 0.501961 0.501961 0.501961 #0.250980
v 1.261230 4.227539 -0.729004 0.501961 0.501961 0.501961 #0.250980
v 0.698242 1.787598 -0.887207 0.501961 0.501961 0.501961 #0.250980
v 0.853271 1.769043 -0.746094 0.501961 0.501961 0.501961 #0.250980
v -0.286133 1.751709 -0.943604 0.501961 0.501961 0.501961 #0.250980
v -0.401123 0.951660 -1.128906 0.501961 0.501961 0.501961 #0.250980
v -0.993896 1.803955 -0.685547 0.501961 0.501961 0.501961 #0.250980
v -1.173096 0.638672 -0.941162 0.501961 0.501961 0.501961 #0.250980
v -0.993896 1.803955 -0.685547 0.501961 0.501961 0.501961 #0.250980
v -0.401123 0.951660 -1.128906 0.501961 0.501961 0.501961 #0.250980
v -0.993896 1.803955 -0.685547 0.501961 0.501961 0.501961 #0.250980
v -1.173096 0.638672 -0.941162 0.501961 0.501961 0.501961 #0.250980
v -1.478516 1.751709 -0.108643 0.501961 0.501961 0.501961 #0.250980
v -1.593750 0.951660 -0.293945 0.501961 0.501961 0.501961 #0.250980
v -1.478516 1.751709 -0.108643 0.501961 0.501961 0.501961 #0.250980
v -1.173096 0.638672 -0.941162 0.501961 0.501961 0.501961 #0.250980
v 1.261230 4.227539 -0.729004 0.501961 0.501961 0.501961 #0.250980
v 0.999268 1.730713 -0.627930 0.501961 0.501961 0.501961 #0.250980
v 0.875732 1.754639 -0.800537 0.501961 0.501961 0.501961 #0.250980
v 1.261230 4.227539 -0.729004 0.501961 0.501961 0.501961 #0.250980
v 0.875732 1.754639 -0.800537 0.501961 0.501961 0.501961 #0.250980
v 0.698242 1.787598 -0.887207 0.501961 0.501961 0.501961 #0.250980
v 0.764893 1.539063 -0.843750 0.501961 0.501961 0.501961 #0.250980
v 0.698242 1.787598 -0.887207 0.501961 0.501961 0.501961 #0.250980
v 0.875732 1.754639 -0.800537 0.501961 0.501961 0.501961 #0.250980
v 0.698242 1.787598 -0.887207 0.501961 0.501961 0.501961 #0.250980
v 0.764893 1.539063 -0.843750 0.501961 0.501961 0.501961 #0.250980
v 0.575928 1.810547 -0.947021 0.501961 0.501961 0.501961 #0.250980
v 0.541504 1.590332 -0.953369 0.501961 0.501961 0.501961 #0.250980
v 0.575928 1.810547 -0.947021 0.501961 0.501961 0.501961 #0.250980
v 0.764893 1.539063 -0.843750 0.501961 0.501961 0.501961 #0.250980
v 0.815186 0.830322 -0.713379 0.501961 0.501961 0.501961 #0.250980
v 0.734131 0.846191 -0.826660 0.501961 0.501961 0.501961 #0.250980
v 0.888428 1.513916 -0.739014 0.501961 0.501961 0.501961 #0.250980
v 0.357422 1.331299 0.706543 0.501961 0.501961 0.501961 #0.250980
v 0.000000 1.446045 0.760498 0.501961 0.501961 0.501961 #0.250980
v 0.751709 0.905029 1.499512 0.501961 0.501961 0.501961 #0.250980
v 0.624268 -0.133301 -1.416748 0.501961 0.501961 0.501961 #0.250980
v 0.622314 0.130127 -1.447021 0.501961 0.501961 0.501961 #0.250980
v 0.860352 -0.137207 -1.427490 0.501961 0.501961 0.501961 #0.250980
v 0.864014 0.160400 -1.466553 0.501961 0.501961 0.501961 #0.250980
v 0.860352 -0.137207 -1.427490 0.501961 0.501961 0.501961 #0.250980
v 0.622314 0.130127 -1.447021 0.501961 0.501961 0.501961 #0.250980
v 0.860352 -0.137207 -1.427490 0.501961 0.501961 0.501961 #0.250980
v 0.864014 0.160400 -1.466553 0.501961 0.501961 0.501961 #0.250980
v 1.184814 -0.166504 -1.414063 0.501961 0.501961 0.501961 #0.250980
v 0.979492 0.333252 -0.987305 0.501961 0.501961 0.501961 #0.250980
v 1.184814 -0.166504 -1.414063 0.501961 0.501961 0.501961 #0.250980
v 0.864014 0.160400 -1.466553 0.501961 0.501961 0.501961 #0.250980
v -1.322998 0.211426 -1.407715 0.501961 0.501961 0.501961 #0.250980
v -1.467529 -0.166504 -1.315430 0.501961 0.501961 0.501961 #0.250980
v -1.431641 0.334473 -0.833984 0.501961 0.501961 0.501961 #0.250980
v -1.686768 -0.148682 -1.143311 0.501961 0.501961 0.501961 #0.250980
v -1.431641 0.334473 -0.833984 0.501961 0.501961 0.501961 #0.250980
v -1.467529 -0.166504 -1.315430 0.501961 0.501961 0.501961 #0.250980
v -1.431641 0.334473 -0.833984 0.501961 0.501961 0.501961 #0.250980
v -1.686768 -0.148682 -1.143311 0.501961 0.501961 0.501961 #0.250980
v -1.677002 0.137939 -1.182129 0.501961 0.501961 0.501961 #0.250980
v -1.856445 -0.148926 -1.011230 0.501961 0.501961 0.501961 #0.250980
v -1.677002 0.137939 -1.182129 0.501961 0.501961 0.501961 #0.250980
v -1.686768 -0.148682 -1.143311 0.501961 0.501961 0.501961 #0.250980
v 1.632813 1.503418 2.540283 0.501961 0.501961 0.501961 #0.250980
v 1.729492 1.873291 2.171387 0.501961 0.501961 0.501961 #0.250980
v 1.563721 2.082520 2.222900 0.501961 0.501961 0.501961 #0.250980
v 1.773438 2.450928 1.728760 0.501961 0.501961 0.501961 #0.250980
v 1.563721 2.082520 2.222900 0.501961 0.501961 0.501961 #0.250980
v 1.729492 1.873291 2.171387 0.501961 0.501961 0.501961 #0.250980
v -0.868896 2.886475 0.633545 0.501961 0.501961 0.501961 #0.250980
v -1.549316 2.632080 1.287354 0.501961 0.501961 0.501961 #0.250980
v -1.351318 2.942627 1.333496 0.501961 0.501961 0.501961 #0.250980
v -1.773438 2.450928 1.728760 0.501961 0.501961 0.501961 #0.250980
v -1.351318 2.942627 1.333496 0.501961 0.501961 0.501961 #0.250980
v -1.549316 2.632080 1.287354 0.501961 0.501961 0.501961 #0.250980
v -1.351318 2.942627 1.333496 0.501961 0.501961 0.501961 #0.250980
v -1.773438 2.450928 1.728760 0.501961 0.501961 0.501961 #0.250980
v -1.575928 2.709229 1.813477 0.501961 0.501961 0.501961 #0.250980
v -1.563721 2.082520 2.222900 0.501961 0.501961 0.501961 #0.250980
v -1.575928 2.709229 1.813477 0.501961 0.501961 0.501961 #0.250980
v -1.773438 2.450928 1.728760 0.501961 0.501961 0.501961 #0.250980
v -0.829834 2.343750 0.356201 0.501961 0.501961 0.501961 #0.250980
v -1.066162 2.577393 0.665283 0.501961 0.501961 0.501961 #0.250980
v -0.455566 2.657471 0.052490 0.501961 0.501961 0.501961 #0.250980
v -0.868896 2.886475 0.633545 0.501961 0.501961 0.501961 #0.250980
v -0.455566 2.657471 0.052490 0.501961 0.501961 0.501961 #0.250980
v -1.066162 2.577393 0.665283 0.501961 0.501961 0.501961 #0.250980
v -0.455566 2.657471 0.052490 0.501961 0.501961 0.501961 #0.250980
v -0.868896 2.886475 0.633545 0.501961 0.501961 0.501961 #0.250980
v -0.391357 2.572021 0.597412 0.501961 0.501961 0.501961 #0.250980
v -0.649414 2.634033 0.674561 0.501961 0.501961 0.501961 #0.250980
v -0.391357 2.572021 0.597412 0.501961 0.501961 0.501961 #0.250980
v -0.868896 2.886475 0.633545 0.501961 0.501961 0.501961 #0.250980
v 0.638916 2.069336 0.904785 0.501961 0.501961 0.501961 #0.250980
v 0.846680 1.397949 1.098389 0.501961 0.501961 0.501961 #0.250980
v 1.191406 1.566895 0.599609 0.501961 0.501961 0.501961 #0.250980
v 0.829834 2.343750 0.356201 0.501961 0.501961 0.501961 #0.250980
v 0.638916 2.069336 0.904785 0.501961 0.501961 0.501961 #0.250980
v 1.191406 1.566895 0.599609 0.501961 0.501961 0.501961 #0.250980
v 0.691650 2.157471 -0.463135 0.501961 0.501961 0.501961 #0.250980
v 0.829834 2.343750 0.356201 0.501961 0.501961 0.501961 #0.250980
v 1.013672 1.457275 -0.578613 0.501961 0.501961 0.501961 #0.250980
v 1.191406 1.566895 0.599609 0.501961 0.501961 0.501961 #0.250980
v 1.013672 1.457275 -0.578613 0.501961 0.501961 0.501961 #0.250980
v 0.829834 2.343750 0.356201 0.501961 0.501961 0.501961 #0.250980
v 0.867188 0.232422 0.016357 0.501961 0.501961 0.501961 #0.250980
v 1.194092 0.586182 -0.528564 0.501961 0.501961 0.501961 #0.250980
v 1.315674 0.602295 0.641602 0.501961 0.501961 0.501961 #0.250980
v 0.478516 0.407715 -0.938232 0.501961 0.501961 0.501961 #0.250980
v 0.366699 1.650635 -0.887451 0.501961 0.501961 0.501961 #0.250980
v 1.194092 0.586182 -0.528564 0.501961 0.501961 0.501961 #0.250980
v -0.691650 2.157959 -0.465576 0.501961 0.501961 0.501961 #0.250980
v -0.302490 1.950684 -0.901611 0.501961 0.501961 0.501961 #0.250980
v -0.366699 1.650635 -0.887451 0.501961 0.501961 0.501961 #0.250980
v -1.322998 0.211426 -1.407715 0.501961 0.501961 0.501961 #0.250980
v -1.431641 0.334473 -0.833984 0.501961 0.501961 0.501961 #0.250980
v -0.979492 0.333252 -0.987305 0.501961 0.501961 0.501961 #0.250980
v -0.685303 0.954834 0.647461 0.501961 0.501961 0.501961 #0.250980
v -0.979492 0.333252 -0.987305 0.501961 0.501961 0.501961 #0.250980
v -1.431641 0.334473 -0.833984 0.501961 0.501961 0.501961 #0.250980
v -0.979492 0.333252 -0.987305 0.501961 0.501961 0.501961 #0.250980
v -0.685303 0.954834 0.647461 0.501961 0.501961 0.501961 #0.250980
v -0.622314 0.130127 -1.447021 0.501961 0.501961 0.501961 #0.250980
v -0.860352 -0.137207 -1.427490 0.501961 0.501961 0.501961 #0.250980
v -1.184814 -0.166504 -1.414063 0.501961 0.501961 0.501961 #0.250980
v -0.864014 0.160400 -1.466553 0.501961 0.501961 0.501961 #0.250980
v -0.979492 0.333252 -0.987305 0.501961 0.501961 0.501961 #0.250980
v -0.864014 0.160400 -1.466553 0.501961 0.501961 0.501961 #0.250980
v -1.184814 -0.166504 -1.414063 0.501961 0.501961 0.501961 #0.250980
v -0.864014 0.160400 -1.466553 0.501961 0.501961 0.501961 #0.250980
v -0.979492 0.333252 -0.987305 0.501961 0.501961 0.501961 #0.250980
v -0.622314 0.130127 -1.447021 0.501961 0.501961 0.501961 #0.250980
v -1.184814 -0.166504 -1.414063 0.501961 0.501961 0.501961 #0.250980
v -1.322998 0.211426 -1.407715 0.501961 0.501961 0.501961 #0.250980
v -0.979492 0.333252 -0.987305 0.501961 0.501961 0.501961 #0.250980
v -0.622314 0.130127 -1.447021 0.501961 0.501961 0.501961 #0.250980
v -0.860352 -0.137207 -1.427490 0.501961 0.501961 0.501961 #0.250980
v -0.864014 0.160400 -1.466553 0.501961 0.501961 0.501961 #0.250980
v -0.857422 0.103516 0.996582 0.501961 0.501961 0.501961 #0.250980
v -0.685303 0.954834 0.647461 0.501961 0.501961 0.501961 #0.250980
v -1.551270 -0.174805 -0.461426 0.501961 0.501961 0.501961 #0.250980
v -1.847900 0.166504 -1.058838 0.501961 0.501961 0.501961 #0.250980
v -1.551270 -0.174805 -0.461426 0.501961 0.501961 0.501961 #0.250980
v -0.685303 0.954834 0.647461 0.501961 0.501961 0.501961 #0.250980
v -1.551270 -0.174805 -0.461426 0.501961 0.501961 0.501961 #0.250980
v -1.847900 0.166504 -1.058838 0.501961 0.501961 0.501961 #0.250980
v -1.856445 -0.148926 -1.011230 0.501961 0.501961 0.501961 #0.250980
v 1.066162 2.577393 0.665283 0.501961 0.501961 0.501961 #0.250980
v 0.455566 2.657227 0.054199 0.501961 0.501961 0.501961 #0.250980
v 0.868896 2.886475 0.633545 0.501961 0.501961 0.501961 #0.250980
v 0.391357 2.571777 0.598633 0.501961 0.501961 0.501961 #0.250980
v 0.868896 2.886475 0.633545 0.501961 0.501961 0.501961 #0.250980
v 0.455566 2.657227 0.054199 0.501961 0.501961 0.501961 #0.250980
v 0.868896 2.886475 0.633545 0.501961 0.501961 0.501961 #0.250980
v 0.391357 2.571777 0.598633 0.501961 0.501961 0.501961 #0.250980
v 0.649414 2.634033 0.674561 0.501961 0.501961 0.501961 #0.250980
v -0.649414 2.634033 0.674561 0.501961 0.501961 0.501961 #0.250980
v -0.868896 2.886475 0.633545 0.501961 0.501961 0.501961 #0.250980
v -1.351318 2.942627 1.333496 0.501961 0.501961 0.501961 #0.250980
v 0.638916 2.069336 0.904785 0.501961 0.501961 0.501961 #0.250980
v -0.849121 1.398682 1.095459 0.501961 0.501961 0.501961 #0.250980
v 0.846680 1.397949 1.098389 0.501961 0.501961 0.501961 #0.250980
v -0.803955 0.585693 1.087402 0.501961 0.501961 0.501961 #0.250980
v 0.846680 1.397949 1.098389 0.501961 0.501961 0.501961 #0.250980
v -0.849121 1.398682 1.095459 0.501961 0.501961 0.501961 #0.250980
v 0.846680 1.397949 1.098389 0.501961 0.501961 0.501961 #0.250980
v -0.803955 0.585693 1.087402 0.501961 0.501961 0.501961 #0.250980
v 0.801270 0.585449 1.090088 0.501961 0.501961 0.501961 #0.250980
v 0.867188 0.232422 0.016357 0.501961 0.501961 0.501961 #0.250980
v 0.478516 0.407715 -0.938232 0.501961 0.501961 0.501961 #0.250980
v 1.194092 0.586182 -0.528564 0.501961 0.501961 0.501961 #0.250980
v -0.366699 1.650635 -0.887451 0.501961 0.501961 0.501961 #0.250980
v 0.366699 1.650635 -0.887451 0.501961 0.501961 0.501961 #0.250980
v -0.478516 0.407715 -0.938232 0.501961 0.501961 0.501961 #0.250980
v 0.478516 0.407715 -0.938232 0.501961 0.501961 0.501961 #0.250980
v -0.478516 0.407715 -0.938232 0.501961 0.501961 0.501961 #0.250980
v 0.366699 1.650635 -0.887451 0.501961 0.501961 0.501961 #0.250980
v -0.478516 0.407715 -0.938232 0.501961 0.501961 0.501961 #0.250980
v 0.478516 0.407715 -0.938232 0.501961 0.501961 0.501961 #0.250980
v 0.867188 0.232422 0.016357 0.501961 0.501961 0.501961 #0.250980
v 0.427734 2.543457 -0.483887 0.501961 0.501961 0.501961 #0.250980
v 0.691650 2.157471 -0.463135 0.501961 0.501961 0.501961 #0.250980
v 0.302490 1.950684 -0.900635 0.501961 0.501961 0.501961 #0.250980
v 0.366699 1.650635 -0.887451 0.501961 0.501961 0.501961 #0.250980
v 0.302490 1.950684 -0.900635 0.501961 0.501961 0.501961 #0.250980
v 0.691650 2.157471 -0.463135 0.501961 0.501961 0.501961 #0.250980
v 0.302490 1.950684 -0.900635 0.501961 0.501961 0.501961 #0.250980
v 0.366699 1.650635 -0.887451 0.501961 0.501961 0.501961 #0.250980
v -0.366699 1.650635 -0.887451 0.501961 0.501961 0.501961 #0.250980
v -0.366699 1.650635 -0.887451 0.501961 0.501961 0.501961 #0.250980
v -1.191406 0.586182 -0.532715 0.501961 0.501961 0.501961 #0.250980
v -1.013672 1.458984 -0.582031 0.501961 0.501961 0.501961 #0.250980
v -0.366699 1.650635 -0.887451 0.501961 0.501961 0.501961 #0.250980
v -0.478516 0.407715 -0.938232 0.501961 0.501961 0.501961 #0.250980
v -1.191406 0.586182 -0.532715 0.501961 0.501961 0.501961 #0.250980
v 0.541504 1.590332 -0.953369 0.501961 0.501961 0.501961 #0.250980
v 0.764893 1.539063 -0.843750 0.501961 0.501961 0.501961 #0.250980
v 0.575928 1.810547 -0.947021 0.501961 0.501961 0.501961 #0.250980
v 0.615234 0.866455 -0.884766 0.501961 0.501961 0.501961 #0.250980
v 0.711670 0.860352 -0.772461 0.501961 0.501961 0.501961 #0.250980
v 0.764893 1.539063 -0.843750 0.501961 0.501961 0.501961 #0.250980
v 1.036865 1.496338 -0.533447 0.501961 0.501961 0.501961 #0.250980
v 0.888428 1.513916 -0.739014 0.501961 0.501961 0.501961 #0.250980
v 1.071289 1.716797 -0.527100 0.501961 0.501961 0.501961 #0.250980
v -0.432861 0.351074 1.777832 0.501961 0.501961 0.501961 #0.250980
v -0.751709 0.905029 1.499512 0.501961 0.501961 0.501961 #0.250980
v -0.692871 0.514160 1.192627 0.501961 0.501961 0.501961 #0.250980
v 0.622314 0.130127 -1.447021 0.501961 0.501961 0.501961 #0.250980
v 0.979492 0.333252 -0.987305 0.501961 0.501961 0.501961 #0.250980
v 0.864014 0.160400 -1.466553 0.501961 0.501961 0.501961 #0.250980
v 0.622314 0.130127 -1.447021 0.501961 0.501961 0.501961 #0.250980
v 0.685303 0.954834 0.647461 0.501961 0.501961 0.501961 #0.250980
v 0.979492 0.333252 -0.987305 0.501961 0.501961 0.501961 #0.250980
v 1.431641 0.334473 -0.833984 0.501961 0.501961 0.501961 #0.250980
v 0.979492 0.333252 -0.987305 0.501961 0.501961 0.501961 #0.250980
v 0.685303 0.954834 0.647461 0.501961 0.501961 0.501961 #0.250980
v 1.322998 0.211426 -1.407715 0.501961 0.501961 0.501961 #0.250980
v 0.979492 0.333252 -0.987305 0.501961 0.501961 0.501961 #0.250980
v 1.431641 0.334473 -0.833984 0.501961 0.501961 0.501961 #0.250980
v 1.677002 0.137939 -1.182129 0.501961 0.501961 0.501961 #0.250980
v 1.431641 0.334473 -0.833984 0.501961 0.501961 0.501961 #0.250980
v 1.847900 0.166504 -1.058838 0.501961 0.501961 0.501961 #0.250980
v 0.685303 0.954834 0.647461 0.501961 0.501961 0.501961 #0.250980
v 1.847900 0.166504 -1.058838 0.501961 0.501961 0.501961 #0.250980
v 1.431641 0.334473 -0.833984 0.501961 0.501961 0.501961 #0.250980
v 1.184814 -0.166504 -1.414063 0.501961 0.501961 0.501961 #0.250980
v 0.979492 0.333252 -0.987305 0.501961 0.501961 0.501961 #0.250980
v 1.322998 0.211426 -1.407715 0.501961 0.501961 0.501961 #0.250980
v 1.856445 -0.148926 -1.011230 0.501961 0.501961 0.501961 #0.250980
v 1.847900 0.166504 -1.058838 0.501961 0.501961 0.501961 #0.250980
v 1.551270 -0.174805 -0.461426 0.501961 0.501961 0.501961 #0.250980
v 0.685303 0.954834 0.647461 0.501961 0.501961 0.501961 #0.250980
v 1.551270 -0.174805 -0.461426 0.501961 0.501961 0.501961 #0.250980
v 1.847900 0.166504 -1.058838 0.501961 0.501961 0.501961 #0.250980
v 0.622314 0.130127 -1.447021 0.501961 0.501961 0.501961 #0.250980
v 0.624268 -0.133301 -1.416748 0.501961 0.501961 0.501961 #0.250980
v 0.685303 0.954834 0.647461 0.501961 0.501961 0.501961 #0.250980
v 0.463867 -0.180908 -0.862549 0.501961 0.501961 0.501961 #0.250980
v 0.685303 0.954834 0.647461 0.501961 0.501961 0.501961 #0.250980
v 0.624268 -0.133301 -1.416748 0.501961 0.501961 0.501961 #0.250980
v 0.857422 0.103516 0.996582 0.501961 0.501961 0.501961 #0.250980
v 1.551270 -0.174805 -0.461426 0.501961 0.501961 0.501961 #0.250980
v 0.685303 0.954834 0.647461 0.501961 0.501961 0.501961 #0.250980
v 0.463867 -0.180908 -0.862549 0.501961 0.501961 0.501961 #0.250980
v 1.551270 -0.174805 -0.461426 0.501961 0.501961 0.501961 #0.250980
v 0.518066 0.125244 0.910645 0.501961 0.501961 0.501961 #0.250980
v 0.857422 0.103516 0.996582 0.501961 0.501961 0.501961 #0.250980
v 0.518066 0.125244 0.910645 0.501961 0.501961 0.501961 #0.250980
v 1.551270 -0.174805 -0.461426 0.501961 0.501961 0.501961 #0.250980
v -1.847900 0.166504 -1.058838 0.501961 0.501961 0.501961 #0.250980
v -1.431641 0.334473 -0.833984 0.501961 0.501961 0.501961 #0.250980
v -1.677002 0.137939 -1.182129 0.501961 0.501961 0.501961 #0.250980
v -0.685303 0.954834 0.647461 0.501961 0.501961 0.501961 #0.250980
v -1.431641 0.334473 -0.833984 0.501961 0.501961 0.501961 #0.250980
v -1.847900 0.166504 -1.058838 0.501961 0.501961 0.501961 #0.250980
v -0.624268 -0.133301 -1.416748 0.501961 0.501961 0.501961 #0.250980
v -0.860352 -0.137207 -1.427490 0.501961 0.501961 0.501961 #0.250980
v -0.622314 0.130127 -1.447021 0.501961 0.501961 0.501961 #0.250980
v -1.847900 0.166504 -1.058838 0.501961 0.501961 0.501961 #0.250980
v -1.677002 0.137939 -1.182129 0.501961 0.501961 0.501961 #0.250980
v -1.856445 -0.148926 -1.011230 0.501961 0.501961 0.501961 #0.250980
v -0.622314 0.130127 -1.447021 0.501961 0.501961 0.501961 #0.250980
v -0.685303 0.954834 0.647461 0.501961 0.501961 0.501961 #0.250980
v -0.624268 -0.133301 -1.416748 0.501961 0.501961 0.501961 #0.250980
v -0.463867 -0.180908 -0.862549 0.501961 0.501961 0.501961 #0.250980
v -0.624268 -0.133301 -1.416748 0.501961 0.501961 0.501961 #0.250980
v -0.685303 0.954834 0.647461 0.501961 0.501961 0.501961 #0.250980
v -0.463867 -0.180908 -0.862549 0.501961 0.501961 0.501961 #0.250980
v -0.518066 0.125244 0.910645 0.501961 0.501961 0.501961 #0.250980
v -1.551270 -0.174805 -0.461426 0.501961 0.501961 0.501961 #0.250980
v -0.857422 0.103516 0.996582 0.501961 0.501961 0.501961 #0.250980
v -1.551270 -0.174805 -0.461426 0.501961 0.501961 0.501961 #0.250980
v -0.518066 0.125244 0.910645 0.501961 0.501961 0.501961 #0.250980
v 0.829834 2.343750 0.356201 0.501961 0.501961 0.501961 #0.250980
v 0.455566 2.657227 0.054199 0.501961 0.501961 0.501961 #0.250980
v 1.066162 2.577393 0.665283 0.501961 0.501961 0.501961 #0.250980
v -1.729492 1.873291 2.171387 0.501961 0.501961 0.501961 #0.250980
v -1.563721 2.082520 2.222900 0.501961 0.501961 0.501961 #0.250980
v -1.773438 2.450928 1.728760 0.501961 0.501961 0.501961 #0.250980
v -1.632813 1.503418 2.540283 0.501961 0.501961 0.501961 #0.250980
v -1.563721 2.082520 2.222900 0.501961 0.501961 0.501961 #0.250980
v -1.729492 1.873291 2.171387 0.501961 0.501961 0.501961 #0.250980
v -1.066162 2.577393 0.665283 0.501961 0.501961 0.501961 #0.250980
v -1.549316 2.632080 1.287354 0.501961 0.501961 0.501961 #0.250980
v -0.868896 2.886475 0.633545 0.501961 0.501961 0.501961 #0.250980
v 0.455566 2.657227 0.054199 0.501961 0.501961 0.501961 #0.250980
v 0.391357 2.571777 0.598633 0.501961 0.501961 0.501961 #0.250980
v 0.829834 2.343750 0.356201 0.501961 0.501961 0.501961 #0.250980
v 0.638916 2.069336 0.904785 0.501961 0.501961 0.501961 #0.250980
v 0.829834 2.343750 0.356201 0.501961 0.501961 0.501961 #0.250980
v 0.391357 2.571777 0.598633 0.501961 0.501961 0.501961 #0.250980
v 0.867188 0.232422 0.016357 0.501961 0.501961 0.501961 #0.250980
v 1.315674 0.602295 0.641602 0.501961 0.501961 0.501961 #0.250980
v 0.801270 0.585449 1.090088 0.501961 0.501961 0.501961 #0.250980
v 0.867188 0.232422 0.016357 0.501961 0.501961 0.501961 #0.250980
v 0.801270 0.585449 1.090088 0.501961 0.501961 0.501961 #0.250980
v -0.867188 0.232422 0.016357 0.501961 0.501961 0.501961 #0.250980
v -0.803955 0.585693 1.087402 0.501961 0.501961 0.501961 #0.250980
v -0.867188 0.232422 0.016357 0.501961 0.501961 0.501961 #0.250980
v 0.801270 0.585449 1.090088 0.501961 0.501961 0.501961 #0.250980
v 0.427734 2.543457 -0.483887 0.501961 0.501961 0.501961 #0.250980
v 0.455566 2.657227 0.054199 0.501961 0.501961 0.501961 #0.250980
v 0.691650 2.157471 -0.463135 0.501961 0.501961 0.501961 #0.250980
v 0.829834 2.343750 0.356201 0.501961 0.501961 0.501961 #0.250980
v 0.691650 2.157471 -0.463135 0.501961 0.501961 0.501961 #0.250980
v 0.455566 2.657227 0.054199 0.501961 0.501961 0.501961 #0.250980
v -0.867188 0.232422 0.016357 0.501961 0.501961 0.501961 #0.250980
v -0.478516 0.407715 -0.938232 0.501961 0.501961 0.501961 #0.250980
v 0.867188 0.232422 0.016357 0.501961 0.501961 0.501961 #0.250980
v -0.455566 2.657471 0.052490 0.501961 0.501961 0.501961 #0.250980
v -0.829834 2.343750 0.356201 0.501961 0.501961 0.501961 #0.250980
v -0.391357 2.572021 0.597412 0.501961 0.501961 0.501961 #0.250980
v -0.640137 2.069580 0.902588 0.501961 0.501961 0.501961 #0.250980
v -0.391357 2.572021 0.597412 0.501961 0.501961 0.501961 #0.250980
v -0.829834 2.343750 0.356201 0.501961 0.501961 0.501961 #0.250980
v -0.427734 2.543701 -0.485352 0.501961 0.501961 0.501961 #0.250980
v -0.455566 2.657471 0.052490 0.501961 0.501961 0.501961 #0.250980
v 0.000000 2.594727 -0.521973 0.501961 0.501961 0.501961 #0.250980
v 0.455566 2.657227 0.054199 0.501961 0.501961 0.501961 #0.250980
v 0.000000 2.594727 -0.521973 0.501961 0.501961 0.501961 #0.250980
v -0.455566 2.657471 0.052490 0.501961 0.501961 0.501961 #0.250980
v 0.427734 2.543457 -0.483887 0.501961 0.501961 0.501961 #0.250980
v 0.000000 2.594727 -0.521973 0.501961 0.501961 0.501961 #0.250980
v 0.455566 2.657227 0.054199 0.501961 0.501961 0.501961 #0.250980
v -0.427734 2.543701 -0.485352 0.501961 0.501961 0.501961 #0.250980
v -0.691650 2.157959 -0.465576 0.501961 0.501961 0.501961 #0.250980
v -0.455566 2.657471 0.052490 0.501961 0.501961 0.501961 #0.250980
v -0.829834 2.343750 0.356201 0.501961 0.501961 0.501961 #0.250980
v -0.455566 2.657471 0.052490 0.501961 0.501961 0.501961 #0.250980
v -0.691650 2.157959 -0.465576 0.501961 0.501961 0.501961 #0.250980
v 0.857422 0.103516 0.996582 0.501961 0.501961 0.501961 #0.250980
v 0.685303 0.954834 0.647461 0.501961 0.501961 0.501961 #0.250980
v 0.518066 0.125244 0.910645 0.501961 0.501961 0.501961 #0.250980
v 0.518066 0.125244 0.910645 0.501961 0.501961 0.501961 #0.250980
v 0.685303 0.954834 0.647461 0.501961 0.501961 0.501961 #0.250980
v 0.463867 -0.180908 -0.862549 0.501961 0.501961 0.501961 #0.250980
v 1.467529 -0.166504 -1.315430 0.501961 0.501961 0.501961 #0.250980
v 1.184814 -0.166504 -1.414063 0.501961 0.501961 0.501961 #0.250980
v 1.322998 0.211426 -1.407715 0.501961 0.501961 0.501961 #0.250980
v -0.518066 0.125244 0.910645 0.501961 0.501961 0.501961 #0.250980
v -0.685303 0.954834 0.647461 0.501961 0.501961 0.501961 #0.250980
v -0.857422 0.103516 0.996582 0.501961 0.501961 0.501961 #0.250980
v -0.463867 -0.180908 -0.862549 0.501961 0.501961 0.501961 #0.250980
v -0.685303 0.954834 0.647461 0.501961 0.501961 0.501961 #0.250980
v -0.518066 0.125244 0.910645 0.501961 0.501961 0.501961 #0.250980
v -1.322998 0.211426 -1.407715 0.501961 0.501961 0.501961 #0.250980
v -1.184814 -0.166504 -1.414063 0.501961 0.501961 0.501961 #0.250980
v -1.467529 -0.166504 -1.315430 0.501961 0.501961 0.501961 #0.250980
v 1.013672 1.457275 -0.578613 0.501961 0.501961 0.501961 #0.250980
v 0.366699 1.650635 -0.887451 0.501961 0.501961 0.501961 #0.250980
v 0.691650 2.157471 -0.463135 0.501961 0.501961 0.501961 #0.250980
v -1.013672 1.458984 -0.582031 0.501961 0.501961 0.501961 #0.250980
v -0.691650 2.157959 -0.465576 0.501961 0.501961 0.501961 #0.250980
v -0.366699 1.650635 -0.887451 0.501961 0.501961 0.501961 #0.250980
vt 0.250732 0.190430 0.000000
vt 0.255127 0.192383 0.000000
vt 0.250244 0.186035 0.000000
vt 0.254883 0.184814 0.000000
vt 0.250244 0.186035 0.000000
vt 0.255127 0.192383 0.000000
vt 0.250244 0.186035 0.000000
vt 0.254883 0.184814 0.000000
vt 0.250244 0.182617 0.000000
vt 0.256836 0.182861 0.000000
vt 0.250244 0.182617 0.000000
vt 0.254883 0.184814 0.000000
vt 0.250244 0.182617 0.000000
vt 0.256836 0.182861 0.000000
vt 0.254883 0.184814 0.000000
vt 0.259521 0.189209 0.000000
vt 0.254883 0.184814 0.000000
vt 0.256836 0.182861 0.000000
vt 0.254883 0.184814 0.000000
vt 0.259521 0.189209 0.000000
vt 0.255127 0.192383 0.000000
vt 0.261963 0.194336 0.000000
vt 0.255127 0.192383 0.000000
vt 0.259521 0.189209 0.000000
vt 0.255127 0.192383 0.000000
vt 0.261963 0.194336 0.000000
vt 0.255371 0.198242 0.000000
vt 0.094727 0.912354 0.000000
vt 0.099365 0.886719 0.000000
vt 0.162354 0.917725 0.000000
vt 0.162842 0.891357 0.000000
vt 0.162354 0.917725 0.000000
vt 0.099365 0.886719 0.000000
vt 0.162354 0.917725 0.000000
vt 0.162842 0.891357 0.000000
vt 0.409912 0.938232 0.000000
vt 0.405029 0.890381 0.000000
vt 0.409912 0.938232 0.000000
vt 0.162842 0.891357 0.000000
vt 0.409912 0.938232 0.000000
vt 0.405029 0.890381 0.000000
vt 0.436035 0.931641 0.000000
vt 0.434814 0.887939 0.000000
vt 0.436035 0.931641 0.000000
vt 0.405029 0.890381 0.000000
vt 0.436035 0.931641 0.000000
vt 0.434814 0.887939 0.000000
vt 0.481201 0.908691 0.000000
vt 0.250732 0.190430 0.000000
vt 0.250244 0.186035 0.000000
vt 0.255127 0.192383 0.000000
vt 0.254883 0.184814 0.000000
vt 0.255127 0.192383 0.000000
vt 0.250244 0.186035 0.000000
vt 0.259521 0.189209 0.000000
vt 0.261230 0.186279 0.000000
vt 0.256836 0.182861 0.000000
vt 0.259521 0.189209 0.000000
vt 0.256836 0.182861 0.000000
vt 0.261230 0.186279 0.000000
vt 0.254883 0.184814 0.000000
vt 0.259521 0.189209 0.000000
vt 0.256836 0.182861 0.000000
vt 0.099365 0.886719 0.000000
vt 0.162354 0.917725 0.000000
vt 0.162842 0.891357 0.000000
vt 0.409912 0.938232 0.000000
vt 0.162842 0.891357 0.000000
vt 0.162354 0.917725 0.000000
vt 0.162842 0.891357 0.000000
vt 0.409912 0.938232 0.000000
vt 0.405029 0.890381 0.000000
vt 0.436035 0.931641 0.000000
vt 0.405029 0.890381 0.000000
vt 0.409912 0.938232 0.000000
vt 0.405029 0.890381 0.000000
vt 0.436035 0.931641 0.000000
vt 0.434814 0.887939 0.000000
vt 0.481201 0.908691 0.000000
vt 0.434814 0.887939 0.000000
vt 0.436035 0.931641 0.000000
vt 0.480957 0.385254 0.000000
vt 0.390869 0.165039 0.000000
vt 0.348145 0.625244 0.000000
vt 0.245117 0.120361 0.000000
vt 0.348145 0.625244 0.000000
vt 0.390869 0.165039 0.000000
vt 0.348145 0.625244 0.000000
vt 0.245117 0.120361 0.000000
vt 0.245117 0.439941 0.000000
vt 0.141846 0.625488 0.000000
vt 0.245117 0.439941 0.000000
vt 0.245117 0.120361 0.000000
vt 0.245117 0.439941 0.000000
vt 0.141846 0.625488 0.000000
vt 0.348145 0.625244 0.000000
vt 0.370117 0.840820 0.000000
vt 0.348145 0.625244 0.000000
vt 0.141846 0.625488 0.000000
vt 0.099365 0.165283 0.000000
vt 0.141846 0.625488 0.000000
vt 0.245117 0.120361 0.000000
vt 0.543457 0.186768 0.000000
vt 0.647705 0.186768 0.000000
vt 0.531494 0.232666 0.000000
vt 0.669434 0.234863 0.000000
vt 0.531494 0.232666 0.000000
vt 0.647705 0.186768 0.000000
vt 0.531494 0.232666 0.000000
vt 0.669434 0.234863 0.000000
vt 0.647705 0.186768 0.000000
vt 0.683350 0.145508 0.000000
vt 0.647705 0.186768 0.000000
vt 0.669434 0.234863 0.000000
vt 0.647705 0.186768 0.000000
vt 0.683350 0.145508 0.000000
vt 0.669434 0.041992 0.000000
vt 0.543457 0.186768 0.000000
vt 0.647705 0.186768 0.000000
vt 0.531494 0.232666 0.000000
vt 0.669434 0.234863 0.000000
vt 0.531494 0.232666 0.000000
vt 0.647705 0.186768 0.000000
vt 0.531494 0.232666 0.000000
vt 0.669434 0.234863 0.000000
vt 0.647705 0.186768 0.000000
vt 0.683350 0.145508 0.000000
vt 0.647705 0.186768 0.000000
vt 0.669434 0.234863 0.000000
vt 0.647705 0.186768 0.000000
vt 0.683350 0.145508 0.000000
vt 0.669434 0.041992 0.000000
vt 0.261230 0.186279 0.000000
vt 0.261963 0.194336 0.000000
vt 0.259521 0.189209 0.000000
vt 0.248535 0.154053 0.000000
vt 0.246826 0.153320 0.000000
vt 0.249512 0.153564 0.000000
vt 0.249268 0.150879 0.000000
vt 0.249512 0.153564 0.000000
vt 0.246826 0.153320 0.000000
vt 0.249512 0.153564 0.000000
vt 0.249268 0.150879 0.000000
vt 0.251465 0.155518 0.000000
vt 0.250732 0.152588 0.000000
vt 0.251465 0.155518 0.000000
vt 0.249268 0.150879 0.000000
vt 0.251465 0.155518 0.000000
vt 0.250732 0.152588 0.000000
vt 0.252197 0.153076 0.000000
vt 0.092285 0.956787 0.000000
vt 0.094727 0.912354 0.000000
vt 0.150879 0.963623 0.000000
vt 0.162354 0.917725 0.000000
vt 0.150879 0.963623 0.000000
vt 0.094727 0.912354 0.000000
vt 0.150879 0.963623 0.000000
vt 0.162354 0.917725 0.000000
vt 0.407715 0.985596 0.000000
vt 0.409912 0.938232 0.000000
vt 0.407715 0.985596 0.000000
vt 0.162354 0.917725 0.000000
vt 0.407715 0.985596 0.000000
vt 0.409912 0.938232 0.000000
vt 0.443848 0.942139 0.000000
vt 0.226074 0.152100 0.000000
vt 0.230225 0.144775 0.000000
vt 0.229980 0.155273 0.000000
vt 0.234375 0.149902 0.000000
vt 0.229980 0.155273 0.000000
vt 0.230225 0.144775 0.000000
vt 0.229980 0.155273 0.000000
vt 0.234375 0.149902 0.000000
vt 0.233643 0.162842 0.000000
vt 0.238525 0.147461 0.000000
vt 0.233643 0.162842 0.000000
vt 0.234375 0.149902 0.000000
vt 0.233643 0.162842 0.000000
vt 0.238525 0.147461 0.000000
vt 0.238281 0.163330 0.000000
vt 0.244629 0.099365 0.000000
vt 0.239014 0.099609 0.000000
vt 0.244873 0.113037 0.000000
vt 0.239258 0.112549 0.000000
vt 0.244873 0.113037 0.000000
vt 0.239014 0.099609 0.000000
vt 0.244873 0.113037 0.000000
vt 0.239258 0.112549 0.000000
vt 0.245117 0.128662 0.000000
vt 0.242188 0.128174 0.000000
vt 0.245117 0.128662 0.000000
vt 0.239258 0.112549 0.000000
vt 0.245117 0.128662 0.000000
vt 0.242188 0.128174 0.000000
vt 0.245117 0.147217 0.000000
vt 0.229980 0.171143 0.000000
vt 0.238281 0.163330 0.000000
vt 0.233643 0.162842 0.000000
vt 0.238525 0.147461 0.000000
vt 0.233643 0.162842 0.000000
vt 0.238281 0.163330 0.000000
vt 0.233643 0.162842 0.000000
vt 0.238525 0.147461 0.000000
vt 0.234375 0.149902 0.000000
vt 0.238525 0.128662 0.000000
vt 0.234375 0.149902 0.000000
vt 0.238525 0.147461 0.000000
vt 0.234375 0.149902 0.000000
vt 0.238525 0.128662 0.000000
vt 0.235596 0.127441 0.000000
vt 0.230469 0.161865 0.000000
vt 0.233643 0.162842 0.000000
vt 0.229980 0.155273 0.000000
vt 0.234375 0.149902 0.000000
vt 0.229980 0.155273 0.000000
vt 0.233643 0.162842 0.000000
vt 0.229980 0.155273 0.000000
vt 0.234375 0.149902 0.000000
vt 0.230225 0.144775 0.000000
vt 0.232666 0.127441 0.000000
vt 0.230225 0.144775 0.000000
vt 0.234375 0.149902 0.000000
vt 0.230225 0.144775 0.000000
vt 0.232666 0.127441 0.000000
vt 0.229492 0.129150 0.000000
vt 0.226074 0.157715 0.000000
vt 0.230469 0.161865 0.000000
vt 0.229980 0.155273 0.000000
vt 0.926758 0.222656 0.000000
vt 0.669434 0.234863 0.000000
vt 0.683350 0.145508 0.000000
vt 0.647705 0.186768 0.000000
vt 0.683350 0.145508 0.000000
vt 0.669434 0.234863 0.000000
vt 0.683350 0.145508 0.000000
vt 0.647705 0.186768 0.000000
vt 0.669434 0.041992 0.000000
vt 0.639893 0.035889 0.000000
vt 0.669434 0.041992 0.000000
vt 0.647705 0.186768 0.000000
vt 0.926758 0.222656 0.000000
vt 0.683350 0.145508 0.000000
vt 0.669434 0.234863 0.000000
vt 0.523682 0.318604 0.000000
vt 0.523682 0.757080 0.000000
vt 0.748047 0.318604 0.000000
vt 0.748047 0.976563 0.000000
vt 0.748047 0.318604 0.000000
vt 0.523682 0.757080 0.000000
vt 0.748047 0.318604 0.000000
vt 0.748047 0.976563 0.000000
vt 0.972656 0.318604 0.000000
vt 0.974365 0.766113 0.000000
vt 0.972656 0.318604 0.000000
vt 0.748047 0.976563 0.000000
vt 0.926758 0.222656 0.000000
vt 0.683350 0.145508 0.000000
vt 0.669434 0.234863 0.000000
vt 0.926758 0.222656 0.000000
vt 0.669434 0.234863 0.000000
vt 0.683350 0.145508 0.000000
vt 0.647705 0.186768 0.000000
vt 0.683350 0.145508 0.000000
vt 0.669434 0.234863 0.000000
vt 0.683350 0.145508 0.000000
vt 0.647705 0.186768 0.000000
vt 0.669434 0.041992 0.000000
vt 0.639893 0.035889 0.000000
vt 0.669434 0.041992 0.000000
vt 0.647705 0.186768 0.000000
vt 0.543457 0.186768 0.000000
vt 0.531494 0.232666 0.000000
vt 0.647705 0.186768 0.000000
vt 0.250244 0.186035 0.000000
vt 0.250244 0.182617 0.000000
vt 0.254883 0.184814 0.000000
vt 0.258545 0.152344 0.000000
vt 0.257813 0.154053 0.000000
vt 0.256348 0.151123 0.000000
vt 0.256348 0.153076 0.000000
vt 0.256348 0.151123 0.000000
vt 0.257813 0.154053 0.000000
vt 0.256348 0.151123 0.000000
vt 0.256348 0.153076 0.000000
vt 0.254883 0.152588 0.000000
vt 0.254639 0.155273 0.000000
vt 0.254883 0.152588 0.000000
vt 0.256348 0.153076 0.000000
vt 0.252197 0.153076 0.000000
vt 0.250732 0.152588 0.000000
vt 0.251465 0.155518 0.000000
vt 0.249268 0.150879 0.000000
vt 0.251465 0.155518 0.000000
vt 0.250732 0.152588 0.000000
vt 0.251465 0.155518 0.000000
vt 0.249268 0.150879 0.000000
vt 0.249512 0.153564 0.000000
vt 0.246826 0.153320 0.000000
vt 0.249512 0.153564 0.000000
vt 0.249268 0.150879 0.000000
vt 0.470459 0.960693 0.000000
vt 0.435791 0.978516 0.000000
vt 0.443848 0.942139 0.000000
vt 0.407715 0.985596 0.000000
vt 0.443848 0.942139 0.000000
vt 0.435791 0.978516 0.000000
vt 0.094727 0.912354 0.000000
vt 0.150879 0.963623 0.000000
vt 0.162354 0.917725 0.000000
vt 0.407715 0.985596 0.000000
vt 0.162354 0.917725 0.000000
vt 0.150879 0.963623 0.000000
vt 0.162354 0.917725 0.000000
vt 0.407715 0.985596 0.000000
vt 0.409912 0.938232 0.000000
vt 0.443848 0.942139 0.000000
vt 0.409912 0.938232 0.000000
vt 0.407715 0.985596 0.000000
vt 0.260254 0.152100 0.000000
vt 0.260254 0.157471 0.000000
vt 0.262939 0.151611 0.000000
vt 0.263184 0.157471 0.000000
vt 0.262939 0.151611 0.000000
vt 0.260254 0.157471 0.000000
vt 0.262939 0.151611 0.000000
vt 0.263184 0.157471 0.000000
vt 0.265381 0.151611 0.000000
vt 0.264893 0.157471 0.000000
vt 0.265381 0.151611 0.000000
vt 0.263184 0.157471 0.000000
vt 0.238525 0.128662 0.000000
vt 0.238525 0.147461 0.000000
vt 0.234375 0.149902 0.000000
vt 0.235596 0.127441 0.000000
vt 0.238525 0.128662 0.000000
vt 0.234375 0.149902 0.000000
vt 0.229492 0.129150 0.000000
vt 0.232666 0.127441 0.000000
vt 0.230225 0.144775 0.000000
vt 0.234375 0.149902 0.000000
vt 0.230225 0.144775 0.000000
vt 0.232666 0.127441 0.000000
vt 0.230469 0.161865 0.000000
vt 0.229980 0.155273 0.000000
vt 0.233643 0.162842 0.000000
vt 0.226074 0.157715 0.000000
vt 0.226074 0.152100 0.000000
vt 0.229980 0.155273 0.000000
vt 0.480957 0.385254 0.000000
vt 0.348145 0.625244 0.000000
vt 0.370117 0.840820 0.000000
vt 0.253662 0.152832 0.000000
vt 0.253906 0.155029 0.000000
vt 0.254639 0.155273 0.000000
vt 0.254883 0.158936 0.000000
vt 0.254639 0.155273 0.000000
vt 0.253906 0.155029 0.000000
vt 0.254639 0.155273 0.000000
vt 0.254883 0.158936 0.000000
vt 0.255615 0.156982 0.000000
vt 0.256348 0.151123 0.000000
vt 0.254883 0.152588 0.000000
vt 0.256348 0.153076 0.000000
vt 0.254639 0.155273 0.000000
vt 0.256348 0.153076 0.000000
vt 0.254883 0.152588 0.000000
vt 0.256348 0.153076 0.000000
vt 0.254639 0.155273 0.000000
vt 0.255859 0.155273 0.000000
vt 0.253906 0.150879 0.000000
vt 0.253662 0.152832 0.000000
vt 0.254639 0.155273 0.000000
vt 0.257813 0.154053 0.000000
vt 0.256348 0.151123 0.000000
vt 0.256348 0.153076 0.000000
vt 0.248779 0.169434 0.000000
vt 0.249512 0.159180 0.000000
vt 0.247070 0.160156 0.000000
vt 0.248291 0.156494 0.000000
vt 0.247070 0.160156 0.000000
vt 0.249512 0.159180 0.000000
vt 0.247070 0.160156 0.000000
vt 0.248291 0.156494 0.000000
vt 0.246582 0.157227 0.000000
vt 0.260254 0.157471 0.000000
vt 0.262939 0.151611 0.000000
vt 0.263184 0.157471 0.000000
vt 0.265381 0.151611 0.000000
vt 0.263184 0.157471 0.000000
vt 0.262939 0.151611 0.000000
vt 0.263184 0.157471 0.000000
vt 0.265381 0.151611 0.000000
vt 0.264893 0.157471 0.000000
vt 0.099365 0.886719 0.000000
vt 0.094727 0.912354 0.000000
vt 0.162354 0.917725 0.000000
vt 0.242188 0.128174 0.000000
vt 0.245117 0.147217 0.000000
vt 0.242676 0.152100 0.000000
vt 0.245850 0.165283 0.000000
vt 0.242676 0.152100 0.000000
vt 0.245117 0.147217 0.000000
vt 0.242676 0.152100 0.000000
vt 0.245850 0.165283 0.000000
vt 0.242920 0.162354 0.000000
vt 0.230469 0.161865 0.000000
vt 0.226074 0.157715 0.000000
vt 0.229980 0.155273 0.000000
vt 0.218994 0.151855 0.000000
vt 0.224121 0.150879 0.000000
vt 0.218750 0.159424 0.000000
vt 0.226074 0.157715 0.000000
vt 0.218750 0.159424 0.000000
vt 0.224121 0.150879 0.000000
vt 0.218750 0.159424 0.000000
vt 0.226074 0.157715 0.000000
vt 0.226807 0.163330 0.000000
vt 0.099365 0.165283 0.000000
vt 0.009521 0.385742 0.000000
vt 0.141846 0.625488 0.000000
vt 0.119873 0.841064 0.000000
vt 0.141846 0.625488 0.000000
vt 0.009521 0.385742 0.000000
vt 0.141846 0.625488 0.000000
vt 0.119873 0.841064 0.000000
vt 0.370117 0.840820 0.000000
vt 0.226074 0.152100 0.000000
vt 0.229980 0.155273 0.000000
vt 0.230225 0.144775 0.000000
vt 0.226074 0.152100 0.000000
vt 0.226074 0.157715 0.000000
vt 0.229980 0.155273 0.000000
vt 0.639893 0.035889 0.000000
vt 0.647705 0.186768 0.000000
vt 0.669434 0.041992 0.000000
vt 0.543457 0.186768 0.000000
vt 0.531494 0.232666 0.000000
vt 0.647705 0.186768 0.000000
vt 0.639893 0.035889 0.000000
vt 0.647705 0.186768 0.000000
vt 0.669434 0.041992 0.000000
vt 0.259521 0.189209 0.000000
vt 0.254883 0.184814 0.000000
vt 0.255127 0.192383 0.000000
vt 0.255859 0.155273 0.000000
vt 0.254639 0.155273 0.000000
vt 0.256348 0.153076 0.000000
vt 0.255615 0.156982 0.000000
vt 0.254883 0.158936 0.000000
vt 0.254639 0.155273 0.000000
vt 0.253906 0.155029 0.000000
vt 0.254639 0.155273 0.000000
vt 0.254883 0.158936 0.000000
vt 0.253662 0.152832 0.000000
vt 0.254639 0.155273 0.000000
vt 0.253906 0.155029 0.000000
vt 0.249512 0.153564 0.000000
vt 0.251465 0.155518 0.000000
vt 0.250000 0.155273 0.000000
vt 0.251709 0.158691 0.000000
vt 0.250000 0.155273 0.000000
vt 0.251465 0.155518 0.000000
vt 0.253906 0.150879 0.000000
vt 0.254639 0.155273 0.000000
vt 0.253662 0.152832 0.000000
vt 0.246582 0.157227 0.000000
vt 0.248291 0.156494 0.000000
vt 0.247070 0.160156 0.000000
vt 0.249512 0.159180 0.000000
vt 0.247070 0.160156 0.000000
vt 0.248291 0.156494 0.000000
vt 0.258301 0.156982 0.000000
vt 0.259277 0.157471 0.000000
vt 0.256836 0.158936 0.000000
vt 0.258545 0.160400 0.000000
vt 0.256836 0.158936 0.000000
vt 0.259277 0.157471 0.000000
vt 0.248779 0.169434 0.000000
vt 0.247070 0.160156 0.000000
vt 0.249512 0.159180 0.000000
vt 0.232666 0.199707 0.000000
vt 0.231934 0.189209 0.000000
vt 0.222168 0.197510 0.000000
vt 0.223145 0.191895 0.000000
vt 0.222168 0.197510 0.000000
vt 0.231934 0.189209 0.000000
vt 0.250000 0.155273 0.000000
vt 0.251465 0.155518 0.000000
vt 0.249512 0.153564 0.000000
vt 0.251709 0.158691 0.000000
vt 0.251465 0.155518 0.000000
vt 0.250000 0.155273 0.000000
vt 0.258545 0.152344 0.000000
vt 0.256348 0.151123 0.000000
vt 0.257813 0.154053 0.000000
vt 0.248535 0.154053 0.000000
vt 0.249512 0.153564 0.000000
vt 0.246826 0.153320 0.000000
vt 0.258301 0.156982 0.000000
vt 0.256836 0.158936 0.000000
vt 0.259277 0.157471 0.000000
vt 0.258545 0.160400 0.000000
vt 0.259277 0.157471 0.000000
vt 0.256836 0.158936 0.000000
vt 0.232666 0.199707 0.000000
vt 0.222168 0.197510 0.000000
vt 0.231934 0.189209 0.000000
vt 0.223145 0.191895 0.000000
vt 0.231934 0.189209 0.000000
vt 0.222168 0.197510 0.000000
vt 0.260254 0.152100 0.000000
vt 0.262939 0.151611 0.000000
vt 0.260254 0.157471 0.000000
vt 0.435791 0.978516 0.000000
vt 0.443848 0.942139 0.000000
vt 0.407715 0.985596 0.000000
vt 0.470459 0.960693 0.000000
vt 0.443848 0.942139 0.000000
vt 0.435791 0.978516 0.000000
vt 0.092285 0.956787 0.000000
vt 0.150879 0.963623 0.000000
vt 0.094727 0.912354 0.000000
vt 0.239014 0.099609 0.000000
vt 0.239258 0.112549 0.000000
vt 0.236084 0.114258 0.000000
vt 0.238525 0.128662 0.000000
vt 0.236084 0.114258 0.000000
vt 0.239258 0.112549 0.000000
vt 0.229980 0.171143 0.000000
vt 0.233643 0.162842 0.000000
vt 0.238281 0.163330 0.000000
vt 0.242676 0.191406 0.000000
vt 0.242432 0.175049 0.000000
vt 0.246094 0.190918 0.000000
vt 0.245850 0.178223 0.000000
vt 0.246094 0.190918 0.000000
vt 0.242432 0.175049 0.000000
vt 0.225342 0.106445 0.000000
vt 0.228516 0.101563 0.000000
vt 0.229248 0.117920 0.000000
vt 0.231689 0.112549 0.000000
vt 0.229248 0.117920 0.000000
vt 0.228516 0.101563 0.000000
vt 0.218994 0.166260 0.000000
vt 0.218750 0.159424 0.000000
vt 0.226807 0.163330 0.000000
vt 0.239014 0.099609 0.000000
vt 0.236084 0.114258 0.000000
vt 0.239258 0.112549 0.000000
vt 0.238525 0.128662 0.000000
vt 0.239258 0.112549 0.000000
vt 0.236084 0.114258 0.000000
vt 0.225342 0.106445 0.000000
vt 0.228516 0.101563 0.000000
vt 0.221436 0.105957 0.000000
vt 0.218018 0.098389 0.000000
vt 0.221436 0.105957 0.000000
vt 0.228516 0.101563 0.000000
vt 0.217529 0.105713 0.000000
vt 0.221436 0.105957 0.000000
vt 0.218018 0.098389 0.000000
vt 0.225342 0.106445 0.000000
vt 0.229248 0.117920 0.000000
vt 0.228516 0.101563 0.000000
vt 0.231689 0.112549 0.000000
vt 0.228516 0.101563 0.000000
vt 0.229248 0.117920 0.000000
vt 0.250244 0.175049 0.000000
vt 0.251465 0.172607 0.000000
vt 0.253174 0.177734 0.000000
vt 0.257568 0.168701 0.000000
vt 0.255127 0.168213 0.000000
vt 0.258545 0.160400 0.000000
vt 0.251953 0.150879 0.000000
vt 0.253906 0.150879 0.000000
vt 0.252197 0.153076 0.000000
vt 0.253174 0.177734 0.000000
vt 0.251465 0.172607 0.000000
vt 0.250244 0.175049 0.000000
vt 0.258545 0.160400 0.000000
vt 0.255127 0.168213 0.000000
vt 0.257568 0.168701 0.000000
vt 0.252197 0.153076 0.000000
vt 0.253906 0.150879 0.000000
vt 0.251953 0.150879 0.000000
vt 0.230225 0.144775 0.000000
vt 0.225098 0.142822 0.000000
vt 0.223633 0.128418 0.000000
vt 0.239502 0.142090 0.000000
vt 0.235840 0.125732 0.000000
vt 0.234375 0.140137 0.000000
vn 0.704102 0.126465 -0.698486
vn 0.832275 0.431396 -0.347900
vn 0.853760 -0.401123 -0.331543
vn 0.806152 -0.476074 0.351074
vn 0.853760 -0.401123 -0.331543
vn 0.832275 0.431396 -0.347900
vn 0.853760 -0.401123 -0.331543
vn 0.806152 -0.476074 0.351074
vn 0.000000 -0.962646 0.269775
vn 0.000000 -0.610352 0.791992
vn 0.000000 -0.962646 0.269775
vn 0.806152 -0.476074 0.351074
vn 0.000000 -0.962646 0.269775
vn 0.000000 -0.610352 0.791992
vn -0.806152 -0.476074 0.351074
vn -0.560303 0.444092 0.698975
vn -0.806152 -0.476074 0.351074
vn 0.000000 -0.610352 0.791992
vn -0.806152 -0.476074 0.351074
vn -0.560303 0.444092 0.698975
vn -0.691406 0.624268 -0.363037
vn 0.505371 0.657227 0.558838
vn -0.691406 0.624268 -0.363037
vn -0.560303 0.444092 0.698975
vn -0.691406 0.624268 -0.363037
vn 0.505371 0.657227 0.558838
vn 0.832275 0.431396 -0.347900
vn -0.158691 -0.978027 -0.134033
vn 0.595947 -0.497070 0.630371
vn -0.051514 -0.968750 0.241943
vn 0.720459 -0.428955 0.544678
vn -0.051514 -0.968750 0.241943
vn 0.595947 -0.497070 0.630371
vn -0.051514 -0.968750 0.241943
vn 0.720459 -0.428955 0.544678
vn 0.187988 -0.731201 0.655518
vn 0.731445 -0.441162 0.519531
vn 0.187988 -0.731201 0.655518
vn 0.720459 -0.428955 0.544678
vn 0.187988 -0.731201 0.655518
vn 0.731445 -0.441162 0.519531
vn 0.767334 -0.369629 0.523438
vn 0.805176 -0.322754 0.497070
vn 0.767334 -0.369629 0.523438
vn 0.731445 -0.441162 0.519531
vn 0.767334 -0.369629 0.523438
vn 0.805176 -0.322754 0.497070
vn 0.801270 -0.315918 0.507813
vn -0.704102 0.126465 -0.698486
vn -0.853760 -0.401123 -0.331543
vn -0.691406 0.624268 -0.363037
vn -0.806152 -0.476074 0.351074
vn -0.691406 0.624268 -0.363037
vn -0.853760 -0.401123 -0.331543
vn 0.505371 0.657227 0.558838
vn 0.000000 0.038086 0.999268
vn 0.000000 -0.610352 0.791992
vn -0.560303 0.444092 0.698975
vn 0.000000 -0.610352 0.791992
vn 0.000000 0.038086 0.999268
vn 0.806152 -0.476074 0.351074
vn 0.505371 0.657227 0.558838
vn 0.000000 -0.610352 0.791992
vn -0.596924 -0.497559 0.629150
vn 0.051514 -0.968750 0.241943
vn -0.720215 -0.429199 0.544678
vn -0.187988 -0.731201 0.655518
vn -0.720215 -0.429199 0.544678
vn 0.051514 -0.968750 0.241943
vn -0.720215 -0.429199 0.544678
vn -0.187988 -0.731201 0.655518
vn -0.731201 -0.441162 0.519775
vn -0.767334 -0.369629 0.523438
vn -0.731201 -0.441162 0.519775
vn -0.187988 -0.731201 0.655518
vn -0.731201 -0.441162 0.519775
vn -0.767334 -0.369629 0.523438
vn -0.805176 -0.322754 0.497070
vn -0.801270 -0.315918 0.507813
vn -0.805176 -0.322754 0.497070
vn -0.767334 -0.369629 0.523438
vn 0.743896 -0.434814 -0.507080
vn 0.478027 -0.692383 -0.540039
vn 0.270752 -0.354492 -0.894775
vn -0.001221 -0.795410 -0.605713
vn 0.270752 -0.354492 -0.894775
vn 0.478027 -0.692383 -0.540039
vn 0.270752 -0.354492 -0.894775
vn -0.001221 -0.795410 -0.605713
vn -0.001465 -0.501709 -0.864746
vn -0.235352 -0.298584 -0.924561
vn -0.001465 -0.501709 -0.864746
vn -0.001221 -0.795410 -0.605713
vn -0.001465 -0.501709 -0.864746
vn -0.235352 -0.298584 -0.924561
vn 0.270752 -0.354492 -0.894775
vn 0.317627 -0.081543 -0.944580
vn 0.270752 -0.354492 -0.894775
vn -0.235352 -0.298584 -0.924561
vn -0.479736 -0.691650 -0.539551
vn -0.235352 -0.298584 -0.924561
vn -0.001221 -0.795410 -0.605713
vn 0.475098 -0.083740 0.875732
vn 0.606689 -0.048828 0.793213
vn 0.601074 -0.087646 0.794189
vn 0.627441 -0.034912 0.777588
vn 0.601074 -0.087646 0.794189
vn 0.606689 -0.048828 0.793213
vn 0.601074 -0.087646 0.794189
vn 0.627441 -0.034912 0.777588
vn 0.648438 -0.056885 0.758789
vn 0.596680 -0.031494 0.801758
vn 0.648438 -0.056885 0.758789
vn 0.627441 -0.034912 0.777588
vn 0.648438 -0.056885 0.758789
vn 0.596680 -0.031494 0.801758
vn 0.432129 -0.041260 0.900635
vn -0.432129 0.041260 -0.900635
vn -0.432129 0.041260 -0.900635
vn -0.635986 0.076904 -0.767578
vn -0.635986 0.076904 -0.767578
vn -0.635986 0.076904 -0.767578
vn -0.432129 0.041260 -0.900635
vn -0.635986 0.076904 -0.767578
vn -0.635986 0.076904 -0.767578
vn -0.801270 0.107910 -0.588135
vn -0.801270 0.107910 -0.588135
vn -0.801270 0.107910 -0.588135
vn -0.635986 0.076904 -0.767578
vn -0.801270 0.107910 -0.588135
vn -0.801270 0.107910 -0.588135
vn -0.801270 0.107910 -0.588135
vn 0.000000 0.038086 0.999268
vn 0.505371 0.657227 0.558838
vn -0.560303 0.444092 0.698975
vn -0.795898 -0.587646 -0.144531
vn -0.883057 0.039063 -0.467529
vn -0.192383 -0.230713 -0.953613
vn -0.107178 -0.223633 -0.968506
vn -0.192383 -0.230713 -0.953613
vn -0.883057 0.039063 -0.467529
vn -0.192383 -0.230713 -0.953613
vn -0.107178 -0.223633 -0.968506
vn -0.200928 -0.847900 -0.490234
vn -0.648682 -0.316895 -0.691650
vn -0.200928 -0.847900 -0.490234
vn -0.107178 -0.223633 -0.968506
vn -0.200928 -0.847900 -0.490234
vn -0.648682 -0.316895 -0.691650
vn -0.239502 -0.555176 -0.796387
vn -0.702637 -0.318359 -0.636230
vn -0.158691 -0.978027 -0.134033
vn -0.750977 -0.493896 -0.437744
vn -0.051514 -0.968750 0.241943
vn -0.750977 -0.493896 -0.437744
vn -0.158691 -0.978027 -0.134033
vn -0.750977 -0.493896 -0.437744
vn -0.051514 -0.968750 0.241943
vn -0.815186 -0.522705 0.249023
vn 0.187988 -0.731201 0.655518
vn -0.815186 -0.522705 0.249023
vn -0.051514 -0.968750 0.241943
vn -0.815186 -0.522705 0.249023
vn 0.187988 -0.731201 0.655518
vn -0.706543 -0.391846 0.588867
vn -0.319336 -0.095459 -0.942627
vn -0.808838 -0.307129 -0.501221
vn -0.827881 0.241455 -0.506104
vn -0.923340 -0.307861 0.228760
vn -0.827881 0.241455 -0.506104
vn -0.808838 -0.307129 -0.501221
vn -0.827881 0.241455 -0.506104
vn -0.923340 -0.307861 0.228760
vn -0.856934 0.354736 0.373535
vn -0.395264 -0.134766 0.908447
vn -0.856934 0.354736 0.373535
vn -0.923340 -0.307861 0.228760
vn -0.856934 0.354736 0.373535
vn -0.395264 -0.134766 0.908447
vn -0.237061 0.706543 0.666504
vn -0.423340 -0.876709 -0.227783
vn 0.378906 -0.906738 -0.184082
vn -0.039551 -0.882080 0.468994
vn 0.039551 -0.806396 0.589600
vn -0.039551 -0.882080 0.468994
vn 0.378906 -0.906738 -0.184082
vn -0.039551 -0.882080 0.468994
vn 0.039551 -0.806396 0.589600
vn -0.312744 -0.480713 0.818848
vn 0.439209 -0.497803 0.747559
vn -0.312744 -0.480713 0.818848
vn 0.039551 -0.806396 0.589600
vn -0.312744 -0.480713 0.818848
vn 0.439209 -0.497803 0.747559
vn 0.397461 -0.187744 0.897949
vn 0.249756 0.965820 0.067627
vn 0.242188 0.478027 0.843994
vn 0.858398 0.354004 0.370605
vn 0.397461 -0.187744 0.897949
vn 0.858398 0.354004 0.370605
vn 0.242188 0.478027 0.843994
vn 0.858398 0.354004 0.370605
vn 0.397461 -0.187744 0.897949
vn 0.923828 -0.307617 0.226807
vn 0.439209 -0.497803 0.747559
vn 0.923828 -0.307617 0.226807
vn 0.397461 -0.187744 0.897949
vn 0.923828 -0.307617 0.226807
vn 0.439209 -0.497803 0.747559
vn 0.819824 -0.571777 -0.025879
vn 0.249756 0.965820 0.067627
vn 0.858398 0.354004 0.370605
vn 0.826416 0.242188 -0.507813
vn 0.923828 -0.307617 0.226807
vn 0.826416 0.242188 -0.507813
vn 0.858398 0.354004 0.370605
vn 0.826416 0.242188 -0.507813
vn 0.923828 -0.307617 0.226807
vn 0.807861 -0.307129 -0.502441
vn 0.819824 -0.571777 -0.025879
vn 0.807861 -0.307129 -0.502441
vn 0.923828 -0.307617 0.226807
vn 0.807861 -0.307129 -0.502441
vn 0.819824 -0.571777 -0.025879
vn 0.743896 -0.434814 -0.507080
vn 0.193115 0.588867 -0.784668
vn 0.249756 0.965820 0.067627
vn 0.826416 0.242188 -0.507813
vn 0.636963 -0.100342 0.763916
vn 0.627441 -0.034912 0.777588
vn 0.691162 -0.046143 0.720947
vn 0.606689 -0.048828 0.793213
vn 0.691162 -0.046143 0.720947
vn 0.627441 -0.034912 0.777588
vn 0.691162 -0.046143 0.720947
vn 0.606689 -0.048828 0.793213
vn 0.801270 -0.107910 0.588135
vn 0.801270 -0.107910 0.588135
vn 0.801270 -0.107910 0.588135
vn 0.606689 -0.048828 0.793213
vn 0.636963 -0.100342 0.763916
vn 0.596680 -0.031494 0.801758
vn 0.627441 -0.034912 0.777588
vn 0.314209 -0.256836 -0.913818
vn 0.318848 -0.253418 -0.913086
vn 0.478516 -0.260254 -0.838379
vn 0.628906 -0.257568 -0.733398
vn 0.478516 -0.260254 -0.838379
vn 0.318848 -0.253418 -0.913086
vn 0.478516 -0.260254 -0.838379
vn 0.628906 -0.257568 -0.733398
vn 0.752197 -0.249268 -0.609619
vn 0.752197 -0.249268 -0.609619
vn 0.752197 -0.249268 -0.609619
vn 0.628906 -0.257568 -0.733398
vn -0.635986 0.076904 -0.767578
vn -0.801270 0.107910 -0.588135
vn -0.635986 0.076904 -0.767578
vn -0.635986 0.076904 -0.767578
vn -0.635986 0.076904 -0.767578
vn -0.432129 0.041260 -0.900635
vn -0.432129 0.041260 -0.900635
vn -0.432129 0.041260 -0.900635
vn -0.635986 0.076904 -0.767578
vn -0.432129 0.041260 -0.900635
vn -0.432129 0.041260 -0.900635
vn -0.432129 0.041260 -0.900635
vn -0.432129 0.041260 -0.900635
vn -0.432129 0.041260 -0.900635
vn -0.432129 0.041260 -0.900635
vn -0.801270 0.107910 -0.588135
vn -0.635986 0.076904 -0.767578
vn -0.801270 0.107910 -0.588135
vn -0.853760 -0.401123 -0.331543
vn 0.000000 -0.962646 0.269775
vn -0.806152 -0.476074 0.351074
vn 0.843262 -0.146484 -0.516846
vn 0.391602 -0.484619 -0.781982
vn 0.026855 0.124756 -0.991699
vn -0.169922 -0.429688 -0.886719
vn 0.026855 0.124756 -0.991699
vn 0.391602 -0.484619 -0.781982
vn 0.026855 0.124756 -0.991699
vn -0.169922 -0.429688 -0.886719
vn -0.110596 -0.211426 -0.970947
vn 0.006592 -0.898926 -0.437500
vn -0.110596 -0.211426 -0.970947
vn -0.169922 -0.429688 -0.886719
vn 0.239502 -0.555176 -0.796387
vn 0.648682 -0.316895 -0.691650
vn 0.200928 -0.847900 -0.490234
vn 0.107178 -0.223633 -0.968506
vn 0.200928 -0.847900 -0.490234
vn 0.648682 -0.316895 -0.691650
vn 0.200928 -0.847900 -0.490234
vn 0.107178 -0.223633 -0.968506
vn 0.192383 -0.230713 -0.953613
vn 0.883057 0.039063 -0.467529
vn 0.192383 -0.230713 -0.953613
vn 0.107178 -0.223633 -0.968506
vn -0.697021 -0.406738 0.590088
vn -0.695801 -0.405029 0.592773
vn -0.706543 -0.391846 0.588867
vn -0.815186 -0.522705 0.249023
vn -0.706543 -0.391846 0.588867
vn -0.695801 -0.405029 0.592773
vn 0.157715 -0.978027 -0.134277
vn 0.750977 -0.493896 -0.437744
vn 0.051514 -0.968750 0.241943
vn 0.815186 -0.522705 0.249023
vn 0.051514 -0.968750 0.241943
vn 0.750977 -0.493896 -0.437744
vn 0.051514 -0.968750 0.241943
vn 0.815186 -0.522705 0.249023
vn -0.187988 -0.731201 0.655518
vn 0.706299 -0.391846 0.589111
vn -0.187988 -0.731201 0.655518
vn 0.815186 -0.522705 0.249023
vn 0.819824 -0.571777 -0.025879
vn 0.703125 -0.317871 -0.635742
vn 0.378906 -0.906738 -0.184082
vn 0.157715 -0.978027 -0.134277
vn 0.378906 -0.906738 -0.184082
vn 0.703125 -0.317871 -0.635742
vn 0.378906 -0.906738 -0.184082
vn 0.157715 -0.978027 -0.134277
vn 0.039551 -0.806396 0.589600
vn -0.596924 -0.497559 0.629150
vn 0.039551 -0.806396 0.589600
vn 0.157715 -0.978027 -0.134277
vn -0.312744 -0.480713 0.818848
vn -0.395264 -0.134766 0.908447
vn -0.923340 -0.307861 0.228760
vn -0.819580 -0.571777 -0.026123
vn -0.312744 -0.480713 0.818848
vn -0.923340 -0.307861 0.228760
vn -0.744629 -0.434570 -0.506348
vn -0.819580 -0.571777 -0.026123
vn -0.808838 -0.307129 -0.501221
vn -0.923340 -0.307861 0.228760
vn -0.808838 -0.307129 -0.501221
vn -0.819580 -0.571777 -0.026123
vn -0.248291 0.968262 -0.020508
vn -0.827881 0.241455 -0.506104
vn -0.856934 0.354736 0.373535
vn -0.286621 0.562988 -0.774902
vn -0.319336 -0.095459 -0.942627
vn -0.827881 0.241455 -0.506104
vn 0.743896 -0.434814 -0.507080
vn 0.270752 -0.354492 -0.894775
vn 0.317627 -0.081543 -0.944580
vn 0.239502 -0.555176 -0.796387
vn 0.200928 -0.847900 -0.490234
vn -0.006592 -0.898926 -0.437500
vn -0.238037 -0.960938 0.140381
vn -0.006592 -0.898926 -0.437500
vn 0.200928 -0.847900 -0.490234
vn -0.006592 -0.898926 -0.437500
vn -0.238037 -0.960938 0.140381
vn -0.391602 -0.484619 -0.781982
vn -0.026855 0.124756 -0.991699
vn 0.110596 -0.211426 -0.970947
vn 0.169922 -0.429688 -0.886719
vn -0.006592 -0.898926 -0.437500
vn 0.169922 -0.429688 -0.886719
vn 0.110596 -0.211426 -0.970947
vn 0.169922 -0.429688 -0.886719
vn -0.006592 -0.898926 -0.437500
vn -0.391602 -0.484619 -0.781982
vn 0.110596 -0.211426 -0.970947
vn 0.239502 -0.555176 -0.796387
vn -0.006592 -0.898926 -0.437500
vn -0.391602 -0.484619 -0.781982
vn -0.026855 0.124756 -0.991699
vn 0.169922 -0.429688 -0.886719
vn 0.363525 0.209961 0.907471
vn -0.238037 -0.960938 0.140381
vn 0.746338 0.427734 0.509277
vn 0.795898 -0.587646 -0.144531
vn 0.746338 0.427734 0.509277
vn -0.238037 -0.960938 0.140381
vn 0.746338 0.427734 0.509277
vn 0.795898 -0.587646 -0.144531
vn 0.883057 0.039063 -0.467529
vn -0.702637 -0.318359 -0.636230
vn -0.423340 -0.876709 -0.227783
vn -0.158691 -0.978027 -0.134033
vn -0.039551 -0.882080 0.468994
vn -0.158691 -0.978027 -0.134033
vn -0.423340 -0.876709 -0.227783
vn -0.158691 -0.978027 -0.134033
vn -0.039551 -0.882080 0.468994
vn 0.595947 -0.497070 0.630371
vn -0.596924 -0.497559 0.629150
vn 0.157715 -0.978027 -0.134277
vn 0.051514 -0.968750 0.241943
vn -0.312744 -0.480713 0.818848
vn 0.397461 -0.187744 0.897949
vn -0.395264 -0.134766 0.908447
vn 0.242188 0.478027 0.843994
vn -0.395264 -0.134766 0.908447
vn 0.397461 -0.187744 0.897949
vn -0.395264 -0.134766 0.908447
vn 0.242188 0.478027 0.843994
vn -0.237061 0.706543 0.666504
vn -0.248291 0.968262 -0.020508
vn -0.286621 0.562988 -0.774902
vn -0.827881 0.241455 -0.506104
vn 0.317627 -0.081543 -0.944580
vn -0.319336 -0.095459 -0.942627
vn 0.193115 0.588867 -0.784668
vn -0.286621 0.562988 -0.774902
vn 0.193115 0.588867 -0.784668
vn -0.319336 -0.095459 -0.942627
vn 0.193115 0.588867 -0.784668
vn -0.286621 0.562988 -0.774902
vn -0.248291 0.968262 -0.020508
vn -0.479736 -0.691650 -0.539551
vn -0.744629 -0.434570 -0.506348
vn -0.235352 -0.298584 -0.924561
vn -0.319336 -0.095459 -0.942627
vn -0.235352 -0.298584 -0.924561
vn -0.744629 -0.434570 -0.506348
vn -0.235352 -0.298584 -0.924561
vn -0.319336 -0.095459 -0.942627
vn 0.317627 -0.081543 -0.944580
vn 0.317627 -0.081543 -0.944580
vn 0.826416 0.242188 -0.507813
vn 0.807861 -0.307129 -0.502441
vn 0.317627 -0.081543 -0.944580
vn 0.193115 0.588867 -0.784668
vn 0.826416 0.242188 -0.507813
vn 0.432129 -0.041260 0.900635
vn 0.648438 -0.056885 0.758789
vn 0.432129 -0.041260 0.900635
vn 0.749023 -0.126953 0.649902
vn 0.601074 -0.087646 0.794189
vn 0.648438 -0.056885 0.758789
vn -0.801270 0.107910 -0.588135
vn -0.801270 0.107910 -0.588135
vn -0.801270 0.107910 -0.588135
vn 0.505371 0.657227 0.558838
vn 0.806152 -0.476074 0.351074
vn 0.832275 0.431396 -0.347900
vn 0.391602 -0.484619 -0.781982
vn 0.006592 -0.898926 -0.437500
vn -0.169922 -0.429688 -0.886719
vn 0.391602 -0.484619 -0.781982
vn 0.238037 -0.960938 0.140381
vn 0.006592 -0.898926 -0.437500
vn -0.200928 -0.847900 -0.490234
vn 0.006592 -0.898926 -0.437500
vn 0.238037 -0.960938 0.140381
vn -0.239502 -0.555176 -0.796387
vn 0.006592 -0.898926 -0.437500
vn -0.200928 -0.847900 -0.490234
vn -0.192383 -0.230713 -0.953613
vn -0.200928 -0.847900 -0.490234
vn -0.795898 -0.587646 -0.144531
vn 0.238037 -0.960938 0.140381
vn -0.795898 -0.587646 -0.144531
vn -0.200928 -0.847900 -0.490234
vn -0.110596 -0.211426 -0.970947
vn 0.006592 -0.898926 -0.437500
vn -0.239502 -0.555176 -0.796387
vn -0.883057 0.039063 -0.467529
vn -0.795898 -0.587646 -0.144531
vn -0.746338 0.427734 0.509277
vn 0.238037 -0.960938 0.140381
vn -0.746338 0.427734 0.509277
vn -0.795898 -0.587646 -0.144531
vn 0.391602 -0.484619 -0.781982
vn 0.843262 -0.146484 -0.516846
vn 0.238037 -0.960938 0.140381
vn 0.984375 0.173584 -0.022705
vn 0.238037 -0.960938 0.140381
vn 0.843262 -0.146484 -0.516846
vn -0.363525 0.209961 0.907471
vn -0.746338 0.427734 0.509277
vn 0.238037 -0.960938 0.140381
vn 0.984375 0.173584 -0.022705
vn -0.746338 0.427734 0.509277
vn 0.580566 0.619141 0.528564
vn -0.363525 0.209961 0.907471
vn 0.580566 0.619141 0.528564
vn -0.746338 0.427734 0.509277
vn 0.795898 -0.587646 -0.144531
vn 0.200928 -0.847900 -0.490234
vn 0.192383 -0.230713 -0.953613
vn -0.238037 -0.960938 0.140381
vn 0.200928 -0.847900 -0.490234
vn 0.795898 -0.587646 -0.144531
vn -0.843262 -0.146484 -0.516846
vn -0.026855 0.124756 -0.991699
vn -0.391602 -0.484619 -0.781982
vn 0.795898 -0.587646 -0.144531
vn 0.192383 -0.230713 -0.953613
vn 0.883057 0.039063 -0.467529
vn -0.391602 -0.484619 -0.781982
vn -0.238037 -0.960938 0.140381
vn -0.843262 -0.146484 -0.516846
vn -0.984375 0.173584 -0.022705
vn -0.843262 -0.146484 -0.516846
vn -0.238037 -0.960938 0.140381
vn -0.984375 0.173584 -0.022705
vn -0.580566 0.619141 0.528564
vn 0.746338 0.427734 0.509277
vn 0.363525 0.209961 0.907471
vn 0.746338 0.427734 0.509277
vn -0.580566 0.619141 0.528564
vn -0.819580 -0.571777 -0.026123
vn -0.423340 -0.876709 -0.227783
vn -0.702637 -0.318359 -0.636230
vn 0.695801 -0.405029 0.592773
vn 0.706299 -0.391846 0.589111
vn 0.815186 -0.522705 0.249023
vn 0.697021 -0.406738 0.590088
vn 0.706299 -0.391846 0.589111
vn 0.695801 -0.405029 0.592773
vn 0.703125 -0.317871 -0.635742
vn 0.750977 -0.493896 -0.437744
vn 0.157715 -0.978027 -0.134277
vn -0.423340 -0.876709 -0.227783
vn -0.039551 -0.882080 0.468994
vn -0.819580 -0.571777 -0.026123
vn -0.312744 -0.480713 0.818848
vn -0.819580 -0.571777 -0.026123
vn -0.039551 -0.882080 0.468994
vn -0.248291 0.968262 -0.020508
vn -0.856934 0.354736 0.373535
vn -0.237061 0.706543 0.666504
vn -0.248291 0.968262 -0.020508
vn -0.237061 0.706543 0.666504
vn 0.249756 0.965820 0.067627
vn 0.242188 0.478027 0.843994
vn 0.249756 0.965820 0.067627
vn -0.237061 0.706543 0.666504
vn -0.479736 -0.691650 -0.539551
vn -0.423340 -0.876709 -0.227783
vn -0.744629 -0.434570 -0.506348
vn -0.819580 -0.571777 -0.026123
vn -0.744629 -0.434570 -0.506348
vn -0.423340 -0.876709 -0.227783
vn 0.249756 0.965820 0.067627
vn 0.193115 0.588867 -0.784668
vn -0.248291 0.968262 -0.020508
vn 0.378906 -0.906738 -0.184082
vn 0.819824 -0.571777 -0.025879
vn 0.039551 -0.806396 0.589600
vn 0.439209 -0.497803 0.747559
vn 0.039551 -0.806396 0.589600
vn 0.819824 -0.571777 -0.025879
vn 0.478027 -0.692383 -0.540039
vn 0.378906 -0.906738 -0.184082
vn -0.001221 -0.795410 -0.605713
vn -0.423340 -0.876709 -0.227783
vn -0.001221 -0.795410 -0.605713
vn 0.378906 -0.906738 -0.184082
vn -0.479736 -0.691650 -0.539551
vn -0.001221 -0.795410 -0.605713
vn -0.423340 -0.876709 -0.227783
vn 0.478027 -0.692383 -0.540039
vn 0.743896 -0.434814 -0.507080
vn 0.378906 -0.906738 -0.184082
vn 0.819824 -0.571777 -0.025879
vn 0.378906 -0.906738 -0.184082
vn 0.743896 -0.434814 -0.507080
vn -0.363525 0.209961 0.907471
vn 0.238037 -0.960938 0.140381
vn 0.580566 0.619141 0.528564
vn 0.580566 0.619141 0.528564
vn 0.238037 -0.960938 0.140381
vn 0.984375 0.173584 -0.022705
vn -0.648682 -0.316895 -0.691650
vn -0.110596 -0.211426 -0.970947
vn -0.239502 -0.555176 -0.796387
vn -0.580566 0.619141 0.528564
vn -0.238037 -0.960938 0.140381
vn 0.363525 0.209961 0.907471
vn -0.984375 0.173584 -0.022705
vn -0.238037 -0.960938 0.140381
vn -0.580566 0.619141 0.528564
vn 0.239502 -0.555176 -0.796387
vn 0.110596 -0.211426 -0.970947
vn 0.648682 -0.316895 -0.691650
vn -0.808838 -0.307129 -0.501221
vn -0.319336 -0.095459 -0.942627
vn -0.744629 -0.434570 -0.506348
vn 0.807861 -0.307129 -0.502441
vn 0.743896 -0.434814 -0.507080
vn 0.317627 -0.081543 -0.944580
usemtl Texture
f 1/1/1 2/2/2 3/3/3
f 4/4/4 5/5/5 6/6/6
f 7/7/7 8/8/8 9/9/9
f 10/10/10 11/11/11 12/12/12
f 13/13/13 14/14/14 15/15/15
f 16/16/16 17/17/17 18/18/18
f 19/19/19 20/20/20 21/21/21
f 22/22/22 23/23/23 24/24/24
f 25/25/25 26/26/26 27/27/27
f 28/28/28 29/29/29 30/30/30
f 31/31/31 32/32/32 33/33/33
f 34/34/34 35/35/35 36/36/36
f 37/37/37 38/38/38 39/39/39
f 40/40/40 41/41/41 42/42/42
f 43/43/43 44/44/44 45/45/45
f 46/46/46 47/47/47 48/48/48
f 49/49/49 50/50/50 51/51/51
f 52/52/52 53/53/53 54/54/54
f 55/55/55 56/56/56 57/57/57
f 58/58/58 59/59/59 60/60/60
f 61/61/61 62/62/62 63/63/63
f 64/64/64 65/65/65 66/66/66
f 67/67/67 68/68/68 69/69/69
f 70/70/70 71/71/71 72/72/72
f 73/73/73 74/74/74 75/75/75
f 76/76/76 77/77/77 78/78/78
f 79/79/79 80/80/80 81/81/81
f 82/82/82 83/83/83 84/84/84
f 85/85/85 86/86/86 87/87/87
f 88/88/88 89/89/89 90/90/90
f 91/91/91 92/92/92 93/93/93
f 94/94/94 95/95/95 96/96/96
f 97/97/97 98/98/98 99/99/99
f 100/100/100 101/101/101 102/102/102
f 103/103/103 104/104/104 105/105/105
f 106/106/106 107/107/107 108/108/108
f 109/109/109 110/110/110 111/111/111
f 112/112/112 113/113/113 114/114/114
f 115/115/115 116/116/116 117/117/117
f 118/118/118 119/119/119 120/120/120
f 121/121/121 122/122/122 123/123/123
f 124/124/124 125/125/125 126/126/126
f 127/127/127 128/128/128 129/129/129
f 130/130/130 131/131/131 132/132/132
f 133/133/133 134/134/134 135/135/135
f 136/136/136 137/137/137 138/138/138
f 139/139/139 140/140/140 141/141/141
f 142/142/142 143/143/143 144/144/144
f 145/145/145 146/146/146 147/147/147
f 148/148/148 149/149/149 150/150/150
f 151/151/151 152/152/152 153/153/153
f 154/154/154 155/155/155 156/156/156
f 157/157/157 158/158/158 159/159/159
f 160/160/160 161/161/161 162/162/162
f 163/163/163 164/164/164 165/165/165
f 166/166/166 167/167/167 168/168/168
f 169/169/169 170/170/170 171/171/171
f 172/172/172 173/173/173 174/174/174
f 175/175/175 176/176/176 177/177/177
f 178/178/178 179/179/179 180/180/180
f 181/181/181 182/182/182 183/183/183
f 184/184/184 185/185/185 186/186/186
f 187/187/187 188/188/188 189/189/189
f 190/190/190 191/191/191 192/192/192
f 193/193/193 194/194/194 195/195/195
f 196/196/196 197/197/197 198/198/198
f 199/199/199 200/200/200 201/201/201
f 202/202/202 203/203/203 204/204/204
f 205/205/205 206/206/206 207/207/207
f 208/208/208 209/209/209 210/210/210
f 211/211/211 212/212/212 213/213/213
f 214/214/214 215/215/215 216/216/216
f 217/217/217 218/218/218 219/219/219
f 220/220/220 221/221/221 222/222/222
f 223/223/223 224/224/224 225/225/225
f 226/226/226 227/227/227 228/228/228
f 229/229/229 230/230/230 231/231/231
f 232/232/232 233/233/233 234/234/234
f 235/235/235 236/236/236 237/237/237
f 238/238/238 239/239/239 240/240/240
f 241/241/241 242/242/242 243/243/243
f 244/244/244 245/245/245 246/246/246
f 247/247/247 248/248/248 249/249/249
f 250/250/250 251/251/251 252/252/252
f 253/253/253 254/254/254 255/255/255
f 256/256/256 257/257/257 258/258/258
f 259/259/259 260/260/260 261/261/261
f 262/262/262 263/263/263 264/264/264
f 265/265/265 266/266/266 267/267/267
f 268/268/268 269/269/269 270/270/270
f 271/271/271 272/272/272 273/273/273
f 274/274/274 275/275/275 276/276/276
f 277/277/277 278/278/278 279/279/279
f 280/280/280 281/281/281 282/282/282
f 283/283/283 284/284/284 285/285/285
f 286/286/286 287/287/287 288/288/288
f 289/289/289 290/290/290 291/291/291
f 292/292/292 293/293/293 294/294/294
f 295/295/295 296/296/296 297/297/297
f 298/298/298 299/299/299 300/300/300
f 301/301/301 302/302/302 303/303/303
f 304/304/304 305/305/305 306/306/306
f 307/307/307 308/308/308 309/309/309
f 310/310/310 311/311/311 312/312/312
f 313/313/313 314/314/314 315/315/315
f 316/316/316 317/317/317 318/318/318
f 319/319/319 320/320/320 321/321/321
f 322/322/322 323/323/323 324/324/324
f 325/325/325 326/326/326 327/327/327
f 328/328/328 329/329/329 330/330/330
f 331/331/331 332/332/332 333/333/333
f 334/334/334 335/335/335 336/336/336
f 337/337/337 338/338/338 339/339/339
f 340/340/340 341/341/341 342/342/342
f 343/343/343 344/344/344 345/345/345
f 346/346/346 347/347/347 348/348/348
f 349/349/349 350/350/350 351/351/351
f 352/352/352 353/353/353 354/354/354
f 355/355/355 356/356/356 357/357/357
f 358/358/358 359/359/359 360/360/360
f 361/361/361 362/362/362 363/363/363
f 364/364/364 365/365/365 366/366/366
f 367/367/367 368/368/368 369/369/369
f 370/370/370 371/371/371 372/372/372
f 373/373/373 374/374/374 375/375/375
f 376/376/376 377/377/377 378/378/378
f 379/379/379 380/380/380 381/381/381
f 382/382/382 383/383/383 384/384/384
f 385/385/385 386/386/386 387/387/387
f 388/388/388 389/389/389 390/390/390
f 391/391/391 392/392/392 393/393/393
f 394/394/394 395/395/395 396/396/396
f 397/397/397 398/398/398 399/399/399
f 400/400/400 401/401/401 402/402/402
f 403/403/403 404/404/404 405/405/405
f 406/406/406 407/407/407 408/408/408
f 409/409/409 410/410/410 411/411/411
f 412/412/412 413/413/413 414/414/414
f 415/415/415 416/416/416 417/417/417
f 418/418/418 419/419/419 420/420/420
f 421/421/421 422/422/422 423/423/423
f 424/424/424 425/425/425 426/426/426
f 427/427/427 428/428/428 429/429/429
f 430/430/430 431/431/431 432/432/432
f 433/433/433 434/434/434 435/435/435
f 436/436/436 437/437/437 438/438/438
f 439/439/439 440/440/440 441/441/441
f 442/442/442 443/443/443 444/444/444
f 445/445/445 446/446/446 447/447/447
f 448/448/448 449/449/449 450/450/450
f 451/451/451 452/452/452 453/453/453
f 454/454/454 455/455/455 456/456/456
f 457/457/457 458/458/458 459/459/459
f 460/460/460 461/461/461 462/462/462
f 463/463/463 464/464/464 465/465/465
f 466/466/466 467/467/467 468/468/468
f 469/469/469 470/470/470 471/471/471
f 472/472/472 473/473/473 474/474/474
f 475/475/475 476/476/476 477/477/477
f 478/478/478 479/479/479 480/480/480
f 481/481/481 482/482/482 483/483/483
f 484/484/484 485/485/485 486/486/486
f 487/487/487 488/488/488 489/489/489
f 490/490/490 491/491/491 492/492/492
f 493/493/493 494/494/494 495/495/495
f 496/496/496 497/497/497 498/498/498
f 499/499/499 500/500/500 501/501/501
f 502/502/502 503/503/503 504/504/504
f 505/505/505 506/506/506 507/507/507
f 508/508/508 509/509/509 510/510/510
f 511/511/511 512/512/512 513/513/513
f 514/514/514 515/515/515 516/516/516
f 517/517/517 518/518/518 519/519/519
f 520/520/520 521/521/521 522/522/522
f 523/523/523 524/524/524 525/525/525
f 526/526/526 527/527/527 528/528/528
f 529/529/529 530/530/530 531/531/531
f 532/532/532 533/533/533 534/534/534
f 535/535/535 536/536/536 537/537/537
f 538/538/538 539/539/539 540/540/540
f 541/541/541 542/542/542 543/543/543
f 544/544/544 545/545/545 546/546/546
f 547/547/547 548/548/548 549/549/549
f 550/550/550 551/551/551 552/552/552
f 553/553/553 554/554/554 555/555/555
f 556/556/556 557/557/557 558/558/558
f 559/559/559 560/560/560 561/561/561
f 562/562/562 563/563/563 564/564/564
f 565/565/565 566/566/566 567/567/567
f 568/568/568 569/569/569 570/570/570
f 571/571/571 572/572/572 573/573/573
f 574/574/574 575/575/575 576/576/576
f 577/577/577 578/578/578 579/579/579
f 580/580/580 581/581/581 582/582/582
f 583/583/583 584/584/584 585/585/585
f 586/586/586 587/587/587 588/588/588
f 589/589/589 590/590/590 591/591/591