# OBJ file
mtllib static.ico.mtl
v 1.139404 1.805176 0.251465 0.498039 0.498039 0.498039 #0.501961
v 0.917969 2.292480 0.519775 0.498039 0.498039 0.498039 #0.501961
v 0.950439 1.792236 0.768066 0.498039 0.498039 0.498039 #0.501961
v 0.617188 1.779297 1.093994 0.498039 0.498039 0.498039 #0.501961
v 0.950439 1.792236 0.768066 0.498039 0.498039 0.498039 #0.501961
v 0.695801 2.272949 0.901611 0.498039 0.498039 0.498039 #0.501961
v 0.623779 2.784912 0.603271 0.498039 0.498039 0.498039 #0.501961
v 0.917969 2.292480 0.519775 0.498039 0.498039 0.498039 #0.501961
v 0.768555 2.817627 0.103516 0.498039 0.498039 0.498039 #0.501961
v 0.695801 2.272949 0.901611 0.498039 0.498039 0.498039 #0.501961
v 0.623779 2.784912 0.603271 0.498039 0.498039 0.498039 #0.501961
v 0.327148 2.758545 0.884033 0.498039 0.498039 0.498039 #0.501961
v 1.139404 1.805176 0.251465 0.498039 0.498039 0.498039 #0.501961
v 1.015625 1.328125 0.498047 0.498039 0.498039 0.498039 #0.501961
v 1.106934 1.393066 -0.020020 0.498039 0.498039 0.498039 #0.501961
v 0.747314 1.328125 0.912354 0.498039 0.498039 0.498039 #0.501961
v 0.950439 1.792236 0.768066 0.498039 0.498039 0.498039 #0.501961
v 0.617188 1.779297 1.093994 0.498039 0.498039 0.498039 #0.501961
v 0.879395 0.905029 -0.037598 0.498039 0.498039 0.498039 #0.501961
v 1.015625 1.328125 0.498047 0.498039 0.498039 0.498039 #0.501961
v 0.722900 0.955566 0.327148 0.498039 0.498039 0.498039 #0.501961
v 0.464844 0.973389 0.598877 0.498039 0.498039 0.498039 #0.501961
v 0.722900 0.955566 0.327148 0.498039 0.498039 0.498039 #0.501961
v 0.747314 1.328125 0.912354 0.498039 0.498039 0.498039 #0.501961
v 1.139404 1.805176 0.251465 0.498039 0.498039 0.498039 #0.501961
v 1.113037 1.805176 -0.299561 0.498039 0.498039 0.498039 #0.501961
v 0.977051 2.259766 0.064941 0.498039 0.498039 0.498039 #0.501961
v 0.818848 2.727783 -0.382813 0.498039 0.498039 0.498039 #0.501961
v 0.950439 2.125732 -0.400391 0.498039 0.498039 0.498039 #0.501961
v 0.729004 2.510498 -0.770508 0.498039 0.498039 0.498039 #0.501961
v 0.818848 2.727783 -0.382813 0.498039 0.498039 0.498039 #0.501961
v 0.977051 2.259766 0.064941 0.498039 0.498039 0.498039 #0.501961
v 0.950439 2.125732 -0.400391 0.498039 0.498039 0.498039 #0.501961
v 1.139404 1.805176 0.251465 0.498039 0.498039 0.498039 #0.501961
v 1.106934 1.393066 -0.020020 0.498039 0.498039 0.498039 #0.501961
v 1.113037 1.805176 -0.299561 0.498039 0.498039 0.498039 #0.501961
v 0.877441 1.726318 -0.807129 0.498039 0.498039 0.498039 #0.501961
v 1.048096 1.458008 -0.570557 0.498039 0.498039 0.498039 #0.501961
v 0.909912 1.524170 -0.774658 0.498039 0.498039 0.498039 #0.501961
v 0.879395 0.905029 -0.037598 0.498039 0.498039 0.498039 #0.501961
v 0.820557 0.851318 -0.427002 0.498039 0.498039 0.498039 #0.501961
v 1.106934 1.393066 -0.020020 0.498039 0.498039 0.498039 #0.501961
v 0.909912 1.524170 -0.774658 0.498039 0.498039 0.498039 #0.501961
v 1.048096 1.458008 -0.570557 0.498039 0.498039 0.498039 #0.501961
v 0.554443 0.797363 -0.877441 0.498039 0.498039 0.498039 #0.501961
v 0.000000 2.903320 -0.825439 0.498039 0.498039 0.498039 #0.501961
v 0.324951 2.519775 -1.052979 0.498039 0.498039 0.498039 #0.501961
v 0.000000 2.584961 -1.072266 0.498039 0.498039 0.498039 #0.501961
v 0.662842 2.279297 -0.968262 0.498039 0.498039 0.498039 #0.501961
v 0.324951 2.519775 -1.052979 0.498039 0.498039 0.498039 #0.501961
v 0.729004 2.510498 -0.770508 0.498039 0.498039 0.498039 #0.501961
v 0.000000 2.687500 1.080078 0.498039 0.498039 0.498039 #0.501961
v 0.269287 2.253174 1.196533 0.498039 0.498039 0.498039 #0.501961
v 0.327148 2.758545 0.884033 0.498039 0.498039 0.498039 #0.501961
v 0.327148 2.758545 0.884033 0.498039 0.498039 0.498039 #0.501961
v 0.269287 2.253174 1.196533 0.498039 0.498039 0.498039 #0.501961
v 0.695801 2.272949 0.901611 0.498039 0.498039 0.498039 #0.501961
v 0.617188 1.779297 1.093994 0.498039 0.498039 0.498039 #0.501961
v 0.288330 1.328125 1.086182 0.498039 0.498039 0.498039 #0.501961
v 0.747314 1.328125 0.912354 0.498039 0.498039 0.498039 #0.501961
v 0.747314 1.328125 0.912354 0.498039 0.498039 0.498039 #0.501961
v 0.288330 1.328125 1.086182 0.498039 0.498039 0.498039 #0.501961
v 0.464844 0.973389 0.598877 0.498039 0.498039 0.498039 #0.501961
v 0.000000 3.135986 0.200928 0.498039 0.498039 0.498039 #0.501961
v 0.372314 3.031738 0.447266 0.498039 0.498039 0.498039 #0.501961
v 0.371826 3.051514 -0.091309 0.498039 0.498039 0.498039 #0.501961
v 0.768555 2.817627 0.103516 0.498039 0.498039 0.498039 #0.501961
v 0.372314 3.031738 0.447266 0.498039 0.498039 0.498039 #0.501961
v 0.623779 2.784912 0.603271 0.498039 0.498039 0.498039 #0.501961
v 0.000000 2.687500 1.080078 0.498039 0.498039 0.498039 #0.501961
v 0.327148 2.758545 0.884033 0.498039 0.498039 0.498039 #0.501961
v 0.000000 2.979736 0.700684 0.498039 0.498039 0.498039 #0.501961
v 0.623779 2.784912 0.603271 0.498039 0.498039 0.498039 #0.501961
v 0.372314 3.031738 0.447266 0.498039 0.498039 0.498039 #0.501961
v 0.327148 2.758545 0.884033 0.498039 0.498039 0.498039 #0.501961
v 0.000000 3.135986 0.200928 0.498039 0.498039 0.498039 #0.501961
v 0.371826 3.051514 -0.091309 0.498039 0.498039 0.498039 #0.501961
v 0.000000 3.083008 -0.389893 0.498039 0.498039 0.498039 #0.501961
v 0.818848 2.727783 -0.382813 0.498039 0.498039 0.498039 #0.501961
v 0.371826 3.051514 -0.091309 0.498039 0.498039 0.498039 #0.501961
v 0.768555 2.817627 0.103516 0.498039 0.498039 0.498039 #0.501961
v 0.000000 2.903320 -0.825439 0.498039 0.498039 0.498039 #0.501961
v 0.372314 2.893555 -0.693848 0.498039 0.498039 0.498039 #0.501961
v 0.324951 2.519775 -1.052979 0.498039 0.498039 0.498039 #0.501961
v 0.372314 2.893555 -0.693848 0.498039 0.498039 0.498039 #0.501961
v 0.729004 2.510498 -0.770508 0.498039 0.498039 0.498039 #0.501961
v 0.324951 2.519775 -1.052979 0.498039 0.498039 0.498039 #0.501961
v 0.695801 2.272949 0.901611 0.498039 0.498039 0.498039 #0.501961
v 0.917969 2.292480 0.519775 0.498039 0.498039 0.498039 #0.501961
v 0.623779 2.784912 0.603271 0.498039 0.498039 0.498039 #0.501961
v 0.950439 2.125732 -0.400391 0.498039 0.498039 0.498039 #0.501961
v 1.113037 1.805176 -0.299561 0.498039 0.498039 0.498039 #0.501961
v 0.877441 1.726318 -0.807129 0.498039 0.498039 0.498039 #0.501961
v 1.113037 1.805176 -0.299561 0.498039 0.498039 0.498039 #0.501961
v 0.950439 2.125732 -0.400391 0.498039 0.498039 0.498039 #0.501961
v 0.977051 2.259766 0.064941 0.498039 0.498039 0.498039 #0.501961
v 1.139404 1.805176 0.251465 0.498039 0.498039 0.498039 #0.501961
v 0.977051 2.259766 0.064941 0.498039 0.498039 0.498039 #0.501961
v 0.917969 2.292480 0.519775 0.498039 0.498039 0.498039 #0.501961
v 0.950439 1.792236 0.768066 0.498039 0.498039 0.498039 #0.501961
v 0.917969 2.292480 0.519775 0.498039 0.498039 0.498039 #0.501961
v 0.695801 2.272949 0.901611 0.498039 0.498039 0.498039 #0.501961
v 0.000000 2.903320 -0.825439 0.498039 0.498039 0.498039 #0.501961
v 0.000000 3.083008 -0.389893 0.498039 0.498039 0.498039 #0.501961
v 0.372314 2.893555 -0.693848 0.498039 0.498039 0.498039 #0.501961
v 0.371826 3.051514 -0.091309 0.498039 0.498039 0.498039 #0.501961
v 0.372314 2.893555 -0.693848 0.498039 0.498039 0.498039 #0.501961
v 0.000000 3.083008 -0.389893 0.498039 0.498039 0.498039 #0.501961
v 0.000000 3.135986 0.200928 0.498039 0.498039 0.498039 #0.501961
v 0.000000 2.979736 0.700684 0.498039 0.498039 0.498039 #0.501961
v 0.372314 3.031738 0.447266 0.498039 0.498039 0.498039 #0.501961
v 0.327148 2.758545 0.884033 0.498039 0.498039 0.498039 #0.501961
v 0.372314 3.031738 0.447266 0.498039 0.498039 0.498039 #0.501961
v 0.000000 2.979736 0.700684 0.498039 0.498039 0.498039 #0.501961
v 0.768555 2.817627 0.103516 0.498039 0.498039 0.498039 #0.501961
v 0.371826 3.051514 -0.091309 0.498039 0.498039 0.498039 #0.501961
v 0.372314 3.031738 0.447266 0.498039 0.498039 0.498039 #0.501961
v 0.818848 2.727783 -0.382813 0.498039 0.498039 0.498039 #0.501961
v 0.372314 2.893555 -0.693848 0.498039 0.498039 0.498039 #0.501961
v 0.371826 3.051514 -0.091309 0.498039 0.498039 0.498039 #0.501961
v 0.269287 2.253174 1.196533 0.498039 0.498039 0.498039 #0.501961
v 0.617188 1.779297 1.093994 0.498039 0.498039 0.498039 #0.501961
v 0.695801 2.272949 0.901611 0.498039 0.498039 0.498039 #0.501961
v 0.372314 2.893555 -0.693848 0.498039 0.498039 0.498039 #0.501961
v 0.818848 2.727783 -0.382813 0.498039 0.498039 0.498039 #0.501961
v 0.729004 2.510498 -0.770508 0.498039 0.498039 0.498039 #0.501961
v 0.877441 1.726318 -0.807129 0.498039 0.498039 0.498039 #0.501961
v 0.662842 2.279297 -0.968262 0.498039 0.498039 0.498039 #0.501961
v 0.729004 2.510498 -0.770508 0.498039 0.498039 0.498039 #0.501961
v 0.950439 2.125732 -0.400391 0.498039 0.498039 0.498039 #0.501961
v 0.877441 1.726318 -0.807129 0.498039 0.498039 0.498039 #0.501961
v 0.729004 2.510498 -0.770508 0.498039 0.498039 0.498039 #0.501961
v 0.818848 2.727783 -0.382813 0.498039 0.498039 0.498039 #0.501961
v 0.768555 2.817627 0.103516 0.498039 0.498039 0.498039 #0.501961
v 0.977051 2.259766 0.064941 0.498039 0.498039 0.498039 #0.501961
v 0.917969 2.292480 0.519775 0.498039 0.498039 0.498039 #0.501961
v 0.977051 2.259766 0.064941 0.498039 0.498039 0.498039 #0.501961
v 0.768555 2.817627 0.103516 0.498039 0.498039 0.498039 #0.501961
v 0.269287 2.253174 1.196533 0.498039 0.498039 0.498039 #0.501961
v 0.000000 1.754395 1.251953 0.498039 0.498039 0.498039 #0.501961
v 0.617188 1.779297 1.093994 0.498039 0.498039 0.498039 #0.501961
v 0.617188 1.779297 1.093994 0.498039 0.498039 0.498039 #0.501961
v 0.000000 1.754395 1.251953 0.498039 0.498039 0.498039 #0.501961
v 0.288330 1.328125 1.086182 0.498039 0.498039 0.498039 #0.501961
v 0.747314 1.328125 0.912354 0.498039 0.498039 0.498039 #0.501961
v 1.015625 1.328125 0.498047 0.498039 0.498039 0.498039 #0.501961
v 0.950439 1.792236 0.768066 0.498039 0.498039 0.498039 #0.501961
v 1.139404 1.805176 0.251465 0.498039 0.498039 0.498039 #0.501961
v 0.950439 1.792236 0.768066 0.498039 0.498039 0.498039 #0.501961
v 1.015625 1.328125 0.498047 0.498039 0.498039 0.498039 #0.501961
v 1.106934 1.393066 -0.020020 0.498039 0.498039 0.498039 #0.501961
v 1.048096 1.458008 -0.570557 0.498039 0.498039 0.498039 #0.501961
v 1.113037 1.805176 -0.299561 0.498039 0.498039 0.498039 #0.501961
v 0.877441 1.726318 -0.807129 0.498039 0.498039 0.498039 #0.501961
v 1.113037 1.805176 -0.299561 0.498039 0.498039 0.498039 #0.501961
v 1.048096 1.458008 -0.570557 0.498039 0.498039 0.498039 #0.501961
v 1.048096 1.458008 -0.570557 0.498039 0.498039 0.498039 #0.501961
v 0.820557 0.851318 -0.427002 0.498039 0.498039 0.498039 #0.501961
v 0.554443 0.797363 -0.877441 0.498039 0.498039 0.498039 #0.501961
v 0.820557 0.851318 -0.427002 0.498039 0.498039 0.498039 #0.501961
v 1.048096 1.458008 -0.570557 0.498039 0.498039 0.498039 #0.501961
v 1.106934 1.393066 -0.020020 0.498039 0.498039 0.498039 #0.501961
v 0.879395 0.905029 -0.037598 0.498039 0.498039 0.498039 #0.501961
v 1.106934 1.393066 -0.020020 0.498039 0.498039 0.498039 #0.501961
v 1.015625 1.328125 0.498047 0.498039 0.498039 0.498039 #0.501961
v 0.722900 0.955566 0.327148 0.498039 0.498039 0.498039 #0.501961
v 1.015625 1.328125 0.498047 0.498039 0.498039 0.498039 #0.501961
v 0.747314 1.328125 0.912354 0.498039 0.498039 0.498039 #0.501961
v 0.000000 1.005859 0.692139 0.498039 0.498039 0.498039 #0.501961
v 0.464844 0.973389 0.598877 0.498039 0.498039 0.498039 #0.501961
v 0.288330 1.328125 1.086182 0.498039 0.498039 0.498039 #0.501961
v -1.139404 1.805176 0.251465 0.498039 0.498039 0.498039 #0.501961
v -0.950439 1.792236 0.768066 0.498039 0.498039 0.498039 #0.501961
v -0.917969 2.292480 0.519775 0.498039 0.498039 0.498039 #0.501961
v -0.617188 1.779297 1.093994 0.498039 0.498039 0.498039 #0.501961
v -0.695801 2.272949 0.901611 0.498039 0.498039 0.498039 #0.501961
v -0.950439 1.792236 0.768066 0.498039 0.498039 0.498039 #0.501961
v -0.623779 2.784912 0.603271 0.498039 0.498039 0.498039 #0.501961
v -0.768555 2.817627 0.103516 0.498039 0.498039 0.498039 #0.501961
v -0.917969 2.292480 0.519775 0.498039 0.498039 0.498039 #0.501961
v -0.695801 2.272949 0.901611 0.498039 0.498039 0.498039 #0.501961
v -0.327148 2.758545 0.884033 0.498039 0.498039 0.498039 #0.501961
v -0.623779 2.784912 0.603271 0.498039 0.498039 0.498039 #0.501961
v -1.139404 1.805176 0.251465 0.498039 0.498039 0.498039 #0.501961
v -1.106934 1.393066 -0.020020 0.498039 0.498039 0.498039 #0.501961
v -1.015625 1.328125 0.498047 0.498039 0.498039 0.498039 #0.501961
v -0.747314 1.328125 0.912354 0.498039 0.498039 0.498039 #0.501961
v -0.617188 1.779297 1.093994 0.498039 0.498039 0.498039 #0.501961
v -0.950439 1.792236 0.768066 0.498039 0.498039 0.498039 #0.501961
v -0.879395 0.905029 -0.037598 0.498039 0.498039 0.498039 #0.501961
v -0.722900 0.955566 0.327148 0.498039 0.498039 0.498039 #0.501961
v -1.015625 1.328125 0.498047 0.498039 0.498039 0.498039 #0.501961
v -0.464844 0.973389 0.598877 0.498039 0.498039 0.498039 #0.501961
v -0.747314 1.328125 0.912354 0.498039 0.498039 0.498039 #0.501961
v -0.722900 0.955566 0.327148 0.498039 0.498039 0.498039 #0.501961
v -1.139404 1.805176 0.251465 0.498039 0.498039 0.498039 #0.501961
v -0.977051 2.259766 0.064941 0.498039 0.498039 0.498039 #0.501961
v -1.113037 1.805176 -0.299561 0.498039 0.498039 0.498039 #0.501961
v -0.818848 2.727783 -0.382813 0.498039 0.498039 0.498039 #0.501961
v -0.729004 2.510498 -0.770508 0.498039 0.498039 0.498039 #0.501961
v -0.950439 2.125732 -0.400391 0.498039 0.498039 0.498039 #0.501961
v -0.818848 2.727783 -0.382813 0.498039 0.498039 0.498039 #0.501961
v -0.950439 2.125732 -0.400391 0.498039 0.498039 0.498039 #0.501961
v -0.977051 2.259766 0.064941 0.498039 0.498039 0.498039 #0.501961
v -1.139404 1.805176 0.251465 0.498039 0.498039 0.498039 #0.501961
v -1.113037 1.805176 -0.299561 0.498039 0.498039 0.498039 #0.501961
v -1.106934 1.393066 -0.020020 0.498039 0.498039 0.498039 #0.501961
v -0.877441 1.726318 -0.807129 0.498039 0.498039 0.498039 #0.501961
v -0.909912 1.524170 -0.774658 0.498039 0.498039 0.498039 #0.501961
v -1.048096 1.458008 -0.570557 0.498039 0.498039 0.498039 #0.501961
v -0.879395 0.905029 -0.037598 0.498039 0.498039 0.498039 #0.501961
v -1.106934 1.393066 -0.020020 0.498039 0.498039 0.498039 #0.501961
v -0.820557 0.851318 -0.427002 0.498039 0.498039 0.498039 #0.501961
v -0.909912 1.524170 -0.774658 0.498039 0.498039 0.498039 #0.501961
v -0.554443 0.797363 -0.877441 0.498039 0.498039 0.498039 #0.501961
v -1.048096 1.458008 -0.570557 0.498039 0.498039 0.498039 #0.501961
v 0.000000 2.903320 -0.825439 0.498039 0.498039 0.498039 #0.501961
v 0.000000 2.584961 -1.072266 0.498039 0.498039 0.498039 #0.501961
v -0.324951 2.519775 -1.052979 0.498039 0.498039 0.498039 #0.501961
v -0.662842 2.279297 -0.968262 0.498039 0.498039 0.498039 #0.501961
v -0.729004 2.510498 -0.770508 0.498039 0.498039 0.498039 #0.501961
v -0.324951 2.519775 -1.052979 0.498039 0.498039 0.498039 #0.501961
v 0.000000 2.687500 1.080078 0.498039 0.498039 0.498039 #0.501961
v -0.327148 2.758545 0.884033 0.498039 0.498039 0.498039 #0.501961
v -0.269287 2.253174 1.196533 0.498039 0.498039 0.498039 #0.501961
v -0.327148 2.758545 0.884033 0.498039 0.498039 0.498039 #0.501961
v -0.695801 2.272949 0.901611 0.498039 0.498039 0.498039 #0.501961
v -0.269287 2.253174 1.196533 0.498039 0.498039 0.498039 #0.501961
v 0.000000 1.754395 1.251953 0.498039 0.498039 0.498039 #0.501961
v -0.288330 1.328125 1.086182 0.498039 0.498039 0.498039 #0.501961
v 0.288330 1.328125 1.086182 0.498039 0.498039 0.498039 #0.501961
v -0.617188 1.779297 1.093994 0.498039 0.498039 0.498039 #0.501961
v -0.747314 1.328125 0.912354 0.498039 0.498039 0.498039 #0.501961
v -0.288330 1.328125 1.086182 0.498039 0.498039 0.498039 #0.501961
v 0.000000 1.005859 0.692139 0.498039 0.498039 0.498039 #0.501961
v 0.288330 1.328125 1.086182 0.498039 0.498039 0.498039 #0.501961
v -0.288330 1.328125 1.086182 0.498039 0.498039 0.498039 #0.501961
v -0.747314 1.328125 0.912354 0.498039 0.498039 0.498039 #0.501961
v -0.464844 0.973389 0.598877 0.498039 0.498039 0.498039 #0.501961
v -0.288330 1.328125 1.086182 0.498039 0.498039 0.498039 #0.501961
v 0.000000 3.135986 0.200928 0.498039 0.498039 0.498039 #0.501961
v -0.371826 3.051514 -0.091309 0.498039 0.498039 0.498039 #0.501961
v -0.372314 3.031738 0.447266 0.498039 0.498039 0.498039 #0.501961
v -0.768555 2.817627 0.103516 0.498039 0.498039 0.498039 #0.501961
v -0.623779 2.784912 0.603271 0.498039 0.498039 0.498039 #0.501961
v -0.372314 3.031738 0.447266 0.498039 0.498039 0.498039 #0.501961
v 0.000000 2.687500 1.080078 0.498039 0.498039 0.498039 #0.501961
v 0.000000 2.979736 0.700684 0.498039 0.498039 0.498039 #0.501961
v -0.327148 2.758545 0.884033 0.498039 0.498039 0.498039 #0.501961
v -0.623779 2.784912 0.603271 0.498039 0.498039 0.498039 #0.501961
v -0.327148 2.758545 0.884033 0.498039 0.498039 0.498039 #0.501961
v -0.372314 3.031738 0.447266 0.498039 0.498039 0.498039 #0.501961
v 0.000000 3.135986 0.200928 0.498039 0.498039 0.498039 #0.501961
v 0.000000 3.083008 -0.389893 0.498039 0.498039 0.498039 #0.501961
v -0.371826 3.051514 -0.091309 0.498039 0.498039 0.498039 #0.501961
v -0.818848 2.727783 -0.382813 0.498039 0.498039 0.498039 #0.501961
v -0.768555 2.817627 0.103516 0.498039 0.498039 0.498039 #0.501961
v -0.371826 3.051514 -0.091309 0.498039 0.498039 0.498039 #0.501961
v 0.000000 2.903320 -0.825439 0.498039 0.498039 0.498039 #0.501961
v -0.324951 2.519775 -1.052979 0.498039 0.498039 0.498039 #0.501961
v -0.372314 2.893555 -0.693848 0.498039 0.498039 0.498039 #0.501961
v -0.372314 2.893555 -0.693848 0.498039 0.498039 0.498039 #0.501961
v -0.324951 2.519775 -1.052979 0.498039 0.498039 0.498039 #0.501961
v -0.729004 2.510498 -0.770508 0.498039 0.498039 0.498039 #0.501961
v -0.695801 2.272949 0.901611 0.498039 0.498039 0.498039 #0.501961
v -0.623779 2.784912 0.603271 0.498039 0.498039 0.498039 #0.501961
v -0.917969 2.292480 0.519775 0.498039 0.498039 0.498039 #0.501961
v -0.950439 2.125732 -0.400391 0.498039 0.498039 0.498039 #0.501961
v -0.877441 1.726318 -0.807129 0.498039 0.498039 0.498039 #0.501961
v -1.113037 1.805176 -0.299561 0.498039 0.498039 0.498039 #0.501961
v -1.113037 1.805176 -0.299561 0.498039 0.498039 0.498039 #0.501961
v -0.977051 2.259766 0.064941 0.498039 0.498039 0.498039 #0.501961
v -0.950439 2.125732 -0.400391 0.498039 0.498039 0.498039 #0.501961
v -1.139404 1.805176 0.251465 0.498039 0.498039 0.498039 #0.501961
v -0.917969 2.292480 0.519775 0.498039 0.498039 0.498039 #0.501961
v -0.977051 2.259766 0.064941 0.498039 0.498039 0.498039 #0.501961
v -0.950439 1.792236 0.768066 0.498039 0.498039 0.498039 #0.501961
v -0.695801 2.272949 0.901611 0.498039 0.498039 0.498039 #0.501961
v -0.917969 2.292480 0.519775 0.498039 0.498039 0.498039 #0.501961
v 0.000000 2.903320 -0.825439 0.498039 0.498039 0.498039 #0.501961
v -0.372314 2.893555 -0.693848 0.498039 0.498039 0.498039 #0.501961
v 0.000000 3.083008 -0.389893 0.498039 0.498039 0.498039 #0.501961
v -0.371826 3.051514 -0.091309 0.498039 0.498039 0.498039 #0.501961
v 0.000000 3.083008 -0.389893 0.498039 0.498039 0.498039 #0.501961
v -0.372314 2.893555 -0.693848 0.498039 0.498039 0.498039 #0.501961
v 0.000000 3.135986 0.200928 0.498039 0.498039 0.498039 #0.501961
v -0.372314 3.031738 0.447266 0.498039 0.498039 0.498039 #0.501961
v 0.000000 2.979736 0.700684 0.498039 0.498039 0.498039 #0.501961
v -0.327148 2.758545 0.884033 0.498039 0.498039 0.498039 #0.501961
v 0.000000 2.979736 0.700684 0.498039 0.498039 0.498039 #0.501961
v -0.372314 3.031738 0.447266 0.498039 0.498039 0.498039 #0.501961
v -0.768555 2.817627 0.103516 0.498039 0.498039 0.498039 #0.501961
v -0.372314 3.031738 0.447266 0.498039 0.498039 0.498039 #0.501961
v -0.371826 3.051514 -0.091309 0.498039 0.498039 0.498039 #0.501961
v -0.818848 2.727783 -0.382813 0.498039 0.498039 0.498039 #0.501961
v -0.371826 3.051514 -0.091309 0.498039 0.498039 0.498039 #0.501961
v -0.372314 2.893555 -0.693848 0.498039 0.498039 0.498039 #0.501961
v -0.269287 2.253174 1.196533 0.498039 0.498039 0.498039 #0.501961
v -0.695801 2.272949 0.901611 0.498039 0.498039 0.498039 #0.501961
v -0.617188 1.779297 1.093994 0.498039 0.498039 0.498039 #0.501961
v -0.372314 2.893555 -0.693848 0.498039 0.498039 0.498039 #0.501961
v -0.729004 2.510498 -0.770508 0.498039 0.498039 0.498039 #0.501961
v -0.818848 2.727783 -0.382813 0.498039 0.498039 0.498039 #0.501961
v -0.877441 1.726318 -0.807129 0.498039 0.498039 0.498039 #0.501961
v -0.729004 2.510498 -0.770508 0.498039 0.498039 0.498039 #0.501961
v -0.662842 2.279297 -0.968262 0.498039 0.498039 0.498039 #0.501961
v -0.950439 2.125732 -0.400391 0.498039 0.498039 0.498039 #0.501961
v -0.729004 2.510498 -0.770508 0.498039 0.498039 0.498039 #0.501961
v -0.877441 1.726318 -0.807129 0.498039 0.498039 0.498039 #0.501961
v -0.818848 2.727783 -0.382813 0.498039 0.498039 0.498039 #0.501961
v -0.977051 2.259766 0.064941 0.498039 0.498039 0.498039 #0.501961
v -0.768555 2.817627 0.103516 0.498039 0.498039 0.498039 #0.501961
v -0.917969 2.292480 0.519775 0.498039 0.498039 0.498039 #0.501961
v -0.768555 2.817627 0.103516 0.498039 0.498039 0.498039 #0.501961
v -0.977051 2.259766 0.064941 0.498039 0.498039 0.498039 #0.501961
v 0.000000 2.687500 1.080078 0.498039 0.498039 0.498039 #0.501961
v -0.269287 2.253174 1.196533 0.498039 0.498039 0.498039 #0.501961
v 0.269287 2.253174 1.196533 0.498039 0.498039 0.498039 #0.501961
v -0.269287 2.253174 1.196533 0.498039 0.498039 0.498039 #0.501961
v -0.617188 1.779297 1.093994 0.498039 0.498039 0.498039 #0.501961
v 0.000000 1.754395 1.251953 0.498039 0.498039 0.498039 #0.501961
v 0.000000 1.754395 1.251953 0.498039 0.498039 0.498039 #0.501961
v 0.269287 2.253174 1.196533 0.498039 0.498039 0.498039 #0.501961
v -0.269287 2.253174 1.196533 0.498039 0.498039 0.498039 #0.501961
v -0.617188 1.779297 1.093994 0.498039 0.498039 0.498039 #0.501961
v -0.288330 1.328125 1.086182 0.498039 0.498039 0.498039 #0.501961
v 0.000000 1.754395 1.251953 0.498039 0.498039 0.498039 #0.501961
v -0.747314 1.328125 0.912354 0.498039 0.498039 0.498039 #0.501961
v -0.950439 1.792236 0.768066 0.498039 0.498039 0.498039 #0.501961
v -1.015625 1.328125 0.498047 0.498039 0.498039 0.498039 #0.501961
v -1.139404 1.805176 0.251465 0.498039 0.498039 0.498039 #0.501961
v -1.015625 1.328125 0.498047 0.498039 0.498039 0.498039 #0.501961
v -0.950439 1.792236 0.768066 0.498039 0.498039 0.498039 #0.501961
v -1.106934 1.393066 -0.020020 0.498039 0.498039 0.498039 #0.501961
v -1.113037 1.805176 -0.299561 0.498039 0.498039 0.498039 #0.501961
v -1.048096 1.458008 -0.570557 0.498039 0.498039 0.498039 #0.501961
v -0.877441 1.726318 -0.807129 0.498039 0.498039 0.498039 #0.501961
v -1.048096 1.458008 -0.570557 0.498039 0.498039 0.498039 #0.501961
v -1.113037 1.805176 -0.299561 0.498039 0.498039 0.498039 #0.501961
v -1.048096 1.458008 -0.570557 0.498039 0.498039 0.498039 #0.501961
v -0.554443 0.797363 -0.877441 0.498039 0.498039 0.498039 #0.501961
v -0.820557 0.851318 -0.427002 0.498039 0.498039 0.498039 #0.501961
v -0.820557 0.851318 -0.427002 0.498039 0.498039 0.498039 #0.501961
v -1.106934 1.393066 -0.020020 0.498039 0.498039 0.498039 #0.501961
v -1.048096 1.458008 -0.570557 0.498039 0.498039 0.498039 #0.501961
v -0.879395 0.905029 -0.037598 0.498039 0.498039 0.498039 #0.501961
v -1.015625 1.328125 0.498047 0.498039 0.498039 0.498039 #0.501961
v -1.106934 1.393066 -0.020020 0.498039 0.498039 0.498039 #0.501961
v -0.722900 0.955566 0.327148 0.498039 0.498039 0.498039 #0.501961
v -0.747314 1.328125 0.912354 0.498039 0.498039 0.498039 #0.501961
v -1.015625 1.328125 0.498047 0.498039 0.498039 0.498039 #0.501961
v 0.000000 1.005859 0.692139 0.498039 0.498039 0.498039 #0.501961
v -0.288330 1.328125 1.086182 0.498039 0.498039 0.498039 #0.501961
v -0.464844 0.973389 0.598877 0.498039 0.498039 0.498039 #0.501961
v 0.324951 2.519775 -1.052979 0.498039 0.498039 0.498039 #0.501961
v 0.000000 2.009521 -1.678223 0.498039 0.498039 0.498039 #0.501961
v 0.000000 2.584961 -1.072266 0.498039 0.498039 0.498039 #0.501961
v 0.662842 2.279297 -0.968262 0.498039 0.498039 0.498039 #0.501961
v 0.323242 1.954346 -1.639404 0.498039 0.498039 0.498039 #0.501961
v 0.324951 2.519775 -1.052979 0.498039 0.498039 0.498039 #0.501961
v 0.000000 2.009521 -1.678223 0.498039 0.498039 0.498039 #0.501961
v 0.133545 1.623291 -2.378906 0.498039 0.498039 0.498039 #0.501961
v -0.133545 1.623291 -2.378906 0.498039 0.498039 0.498039 #0.501961
v 0.133545 1.623291 -2.378906 0.498039 0.498039 0.498039 #0.501961
v 0.323242 1.954346 -1.639404 0.498039 0.498039 0.498039 #0.501961
v 0.523682 1.564209 -1.606445 0.498039 0.498039 0.498039 #0.501961
v 0.877441 1.726318 -0.807129 0.498039 0.498039 0.498039 #0.501961
v 0.323242 1.954346 -1.639404 0.498039 0.498039 0.498039 #0.501961
v 0.662842 2.279297 -0.968262 0.498039 0.498039 0.498039 #0.501961
v 0.877441 1.726318 -0.807129 0.498039 0.498039 0.498039 #0.501961
v 0.909912 1.524170 -0.774658 0.498039 0.498039 0.498039 #0.501961
v 0.523682 1.564209 -1.606445 0.498039 0.498039 0.498039 #0.501961
v 0.323242 1.954346 -1.639404 0.498039 0.498039 0.498039 #0.501961
v 0.000000 2.009521 -1.678223 0.498039 0.498039 0.498039 #0.501961
v 0.324951 2.519775 -1.052979 0.498039 0.498039 0.498039 #0.501961
v 0.909912 1.524170 -0.774658 0.498039 0.498039 0.498039 #0.501961
v 0.546387 1.483154 -1.566895 0.498039 0.498039 0.498039 #0.501961
v 0.523682 1.564209 -1.606445 0.498039 0.498039 0.498039 #0.501961
v 0.133545 1.623291 -2.378906 0.498039 0.498039 0.498039 #0.501961
v 0.000000 1.441406 -2.505371 0.498039 0.498039 0.498039 #0.501961
v -0.133545 1.623291 -2.378906 0.498039 0.498039 0.498039 #0.501961
v 0.877441 1.726318 -0.807129 0.498039 0.498039 0.498039 #0.501961
v 0.523682 1.564209 -1.606445 0.498039 0.498039 0.498039 #0.501961
v 0.323242 1.954346 -1.639404 0.498039 0.498039 0.498039 #0.501961
v 0.000000 2.009521 -1.678223 0.498039 0.498039 0.498039 #0.501961
v 0.323242 1.954346 -1.639404 0.498039 0.498039 0.498039 #0.501961
v 0.133545 1.623291 -2.378906 0.498039 0.498039 0.498039 #0.501961
v -0.211670 1.431396 -2.364014 0.498039 0.498039 0.498039 #0.501961
v 0.000000 1.441406 -2.505371 0.498039 0.498039 0.498039 #0.501961
v -0.130371 1.627930 -2.131836 0.498039 0.498039 0.498039 #0.501961
v 0.133545 1.623291 -2.378906 0.498039 0.498039 0.498039 #0.501961
v 0.523682 1.564209 -1.606445 0.498039 0.498039 0.498039 #0.501961
v 0.211670 1.431396 -2.364014 0.498039 0.498039 0.498039 #0.501961
v 0.546387 1.483154 -1.566895 0.498039 0.498039 0.498039 #0.501961
v 0.211670 1.431396 -2.364014 0.498039 0.498039 0.498039 #0.501961
v 0.523682 1.564209 -1.606445 0.498039 0.498039 0.498039 #0.501961
v 0.909912 1.524170 -0.774658 0.498039 0.498039 0.498039 #0.501961
v 0.437988 1.788574 -1.349609 0.498039 0.498039 0.498039 #0.501961
v 0.546387 1.483154 -1.566895 0.498039 0.498039 0.498039 #0.501961
v 0.437988 1.788574 -1.349609 0.498039 0.498039 0.498039 #0.501961
v 0.211670 1.431396 -2.364014 0.498039 0.498039 0.498039 #0.501961
v 0.546387 1.483154 -1.566895 0.498039 0.498039 0.498039 #0.501961
v 0.437988 1.788574 -1.349609 0.498039 0.498039 0.498039 #0.501961
v 0.130371 1.627930 -2.131836 0.498039 0.498039 0.498039 #0.501961
v 0.211670 1.431396 -2.364014 0.498039 0.498039 0.498039 #0.501961
v 0.909912 1.524170 -0.774658 0.498039 0.498039 0.498039 #0.501961
v 0.863770 1.902344 -0.422363 0.498039 0.498039 0.498039 #0.501961
v 0.437988 1.788574 -1.349609 0.498039 0.498039 0.498039 #0.501961
v -0.324951 2.519775 -1.052979 0.498039 0.498039 0.498039 #0.501961
v 0.000000 2.584961 -1.072266 0.498039 0.498039 0.498039 #0.501961
v 0.000000 2.009521 -1.678223 0.498039 0.498039 0.498039 #0.501961
v -0.662842 2.279297 -0.968262 0.498039 0.498039 0.498039 #0.501961
v -0.324951 2.519775 -1.052979 0.498039 0.498039 0.498039 #0.501961
v -0.323242 1.954346 -1.639404 0.498039 0.498039 0.498039 #0.501961
v -0.133545 1.623291 -2.378906 0.498039 0.498039 0.498039 #0.501961
v -0.523682 1.564209 -1.606445 0.498039 0.498039 0.498039 #0.501961
v -0.323242 1.954346 -1.639404 0.498039 0.498039 0.498039 #0.501961
v -0.877441 1.726318 -0.807129 0.498039 0.498039 0.498039 #0.501961
v -0.662842 2.279297 -0.968262 0.498039 0.498039 0.498039 #0.501961
v -0.323242 1.954346 -1.639404 0.498039 0.498039 0.498039 #0.501961
v -0.877441 1.726318 -0.807129 0.498039 0.498039 0.498039 #0.501961
v -0.523682 1.564209 -1.606445 0.498039 0.498039 0.498039 #0.501961
v -0.909912 1.524170 -0.774658 0.498039 0.498039 0.498039 #0.501961
v -0.323242 1.954346 -1.639404 0.498039 0.498039 0.498039 #0.501961
v -0.324951 2.519775 -1.052979 0.498039 0.498039 0.498039 #0.501961
v 0.000000 2.009521 -1.678223 0.498039 0.498039 0.498039 #0.501961
v -0.909912 1.524170 -0.774658 0.498039 0.498039 0.498039 #0.501961
v -0.523682 1.564209 -1.606445 0.498039 0.498039 0.498039 #0.501961
v -0.546387 1.483154 -1.566895 0.498039 0.498039 0.498039 #0.501961
v -0.133545 1.623291 -2.378906 0.498039 0.498039 0.498039 #0.501961
v 0.000000 1.441406 -2.505371 0.498039 0.498039 0.498039 #0.501961
v -0.211670 1.431396 -2.364014 0.498039 0.498039 0.498039 #0.501961
v -0.877441 1.726318 -0.807129 0.498039 0.498039 0.498039 #0.501961
v -0.323242 1.954346 -1.639404 0.498039 0.498039 0.498039 #0.501961
v -0.523682 1.564209 -1.606445 0.498039 0.498039 0.498039 #0.501961
v 0.000000 2.009521 -1.678223 0.498039 0.498039 0.498039 #0.501961
v -0.133545 1.623291 -2.378906 0.498039 0.498039 0.498039 #0.501961
v -0.323242 1.954346 -1.639404 0.498039 0.498039 0.498039 #0.501961
v -0.133545 1.623291 -2.378906 0.498039 0.498039 0.498039 #0.501961
v -0.211670 1.431396 -2.364014 0.498039 0.498039 0.498039 #0.501961
v -0.523682 1.564209 -1.606445 0.498039 0.498039 0.498039 #0.501961
v -0.546387 1.483154 -1.566895 0.498039 0.498039 0.498039 #0.501961
v -0.523682 1.564209 -1.606445 0.498039 0.498039 0.498039 #0.501961
v -0.211670 1.431396 -2.364014 0.498039 0.498039 0.498039 #0.501961
v -0.909912 1.524170 -0.774658 0.498039 0.498039 0.498039 #0.501961
v -0.546387 1.483154 -1.566895 0.498039 0.498039 0.498039 #0.501961
v -0.437988 1.788574 -1.349609 0.498039 0.498039 0.498039 #0.501961
v -0.437988 1.788574 -1.349609 0.498039 0.498039 0.498039 #0.501961
v -0.546387 1.483154 -1.566895 0.498039 0.498039 0.498039 #0.501961
v -0.211670 1.431396 -2.364014 0.498039 0.498039 0.498039 #0.501961
v -0.437988 1.788574 -1.349609 0.498039 0.498039 0.498039 #0.501961
v -0.211670 1.431396 -2.364014 0.498039 0.498039 0.498039 #0.501961
v -0.130371 1.627930 -2.131836 0.498039 0.498039 0.498039 #0.501961
v -0.909912 1.524170 -0.774658 0.498039 0.498039 0.498039 #0.501961
v -0.437988 1.788574 -1.349609 0.498039 0.498039 0.498039 #0.501961
v -0.863770 1.902344 -0.422363 0.498039 0.498039 0.498039 #0.501961
v 0.133545 1.623291 -2.378906 0.498039 0.498039 0.498039 #0.501961
v 0.211670 1.431396 -2.364014 0.498039 0.498039 0.498039 #0.501961
v 0.000000 1.441406 -2.505371 0.498039 0.498039 0.498039 #0.501961
v 0.000000 1.441406 -2.505371 0.498039 0.498039 0.498039 #0.501961
v 0.211670 1.431396 -2.364014 0.498039 0.498039 0.498039 #0.501961
v 0.130371 1.627930 -2.131836 0.498039 0.498039 0.498039 #0.501961
v 0.000000 1.441406 -2.505371 0.498039 0.498039 0.498039 #0.501961
v 0.130371 1.627930 -2.131836 0.498039 0.498039 0.498039 #0.501961
v -0.130371 1.627930 -2.131836 0.498039 0.498039 0.498039 #0.501961
v 0.464844 0.973389 0.598877 0.498039 0.498039 0.498039 #0.501961
v 0.453857 1.722656 0.821045 0.498039 0.498039 0.498039 #0.501961
v 0.722900 0.955566 0.327148 0.498039 0.498039 0.498039 #0.501961
v 0.820557 0.851318 -0.427002 0.498039 0.498039 0.498039 #0.501961
v 0.909912 1.524170 -0.774658 0.498039 0.498039 0.498039 #0.501961
v 0.554443 0.797363 -0.877441 0.498039 0.498039 0.498039 #0.501961
v 0.722900 0.955566 0.327148 0.498039 0.498039 0.498039 #0.501961
v 0.844971 1.899658 0.416992 0.498039 0.498039 0.498039 #0.501961
v 0.879395 0.905029 -0.037598 0.498039 0.498039 0.498039 #0.501961
v 0.879395 0.905029 -0.037598 0.498039 0.498039 0.498039 #0.501961
v 0.941406 1.956299 -0.004639 0.498039 0.498039 0.498039 #0.501961
v 0.820557 0.851318 -0.427002 0.498039 0.498039 0.498039 #0.501961
v 0.820557 0.851318 -0.427002 0.498039 0.498039 0.498039 #0.501961
v 0.941406 1.956299 -0.004639 0.498039 0.498039 0.498039 #0.501961
v 0.863770 1.902344 -0.422363 0.498039 0.498039 0.498039 #0.501961
v 0.879395 0.905029 -0.037598 0.498039 0.498039 0.498039 #0.501961
v 0.844971 1.899658 0.416992 0.498039 0.498039 0.498039 #0.501961
v 0.941406 1.956299 -0.004639 0.498039 0.498039 0.498039 #0.501961
v 0.722900 0.955566 0.327148 0.498039 0.498039 0.498039 #0.501961
v 0.453857 1.722656 0.821045 0.498039 0.498039 0.498039 #0.501961
v 0.844971 1.899658 0.416992 0.498039 0.498039 0.498039 #0.501961
v 0.464844 0.973389 0.598877 0.498039 0.498039 0.498039 #0.501961
v 0.000000 1.005859 0.692139 0.498039 0.498039 0.498039 #0.501961
v 0.453857 1.722656 0.821045 0.498039 0.498039 0.498039 #0.501961
v -0.464844 0.973389 0.598877 0.498039 0.498039 0.498039 #0.501961
v -0.722900 0.955566 0.327148 0.498039 0.498039 0.498039 #0.501961
v -0.453857 1.722656 0.821045 0.498039 0.498039 0.498039 #0.501961
v -0.820557 0.851318 -0.427002 0.498039 0.498039 0.498039 #0.501961
v -0.909912 1.524170 -0.774658 0.498039 0.498039 0.498039 #0.501961
v -0.863770 1.902344 -0.422363 0.498039 0.498039 0.498039 #0.501961
v -0.722900 0.955566 0.327148 0.498039 0.498039 0.498039 #0.501961
v -0.879395 0.905029 -0.037598 0.498039 0.498039 0.498039 #0.501961
v -0.844971 1.899658 0.416992 0.498039 0.498039 0.498039 #0.501961
v -0.879395 0.905029 -0.037598 0.498039 0.498039 0.498039 #0.501961
v -0.820557 0.851318 -0.427002 0.498039 0.498039 0.498039 #0.501961
v -0.941406 1.956299 -0.004639 0.498039 0.498039 0.498039 #0.501961
v -0.820557 0.851318 -0.427002 0.498039 0.498039 0.498039 #0.501961
v -0.863770 1.902344 -0.422363 0.498039 0.498039 0.498039 #0.501961
v -0.941406 1.956299 -0.004639 0.498039 0.498039 0.498039 #0.501961
v -0.879395 0.905029 -0.037598 0.498039 0.498039 0.498039 #0.501961
v -0.941406 1.956299 -0.004639 0.498039 0.498039 0.498039 #0.501961
v -0.844971 1.899658 0.416992 0.498039 0.498039 0.498039 #0.501961
v -0.722900 0.955566 0.327148 0.498039 0.498039 0.498039 #0.501961
v -0.844971 1.899658 0.416992 0.498039 0.498039 0.498039 #0.501961
v -0.453857 1.722656 0.821045 0.498039 0.498039 0.498039 #0.501961
v -0.464844 0.973389 0.598877 0.498039 0.498039 0.498039 #0.501961
v -0.453857 1.722656 0.821045 0.498039 0.498039 0.498039 #0.501961
v 0.000000 1.005859 0.692139 0.498039 0.498039 0.498039 #0.501961
v 0.000000 1.005859 0.692139 0.498039 0.498039 0.498039 #0.501961
v -0.453857 1.722656 0.821045 0.498039 0.498039 0.498039 #0.501961
v 0.453857 1.722656 0.821045 0.498039 0.498039 0.498039 #0.501961
v -0.820557 0.851318 -0.427002 0.498039 0.498039 0.498039 #0.501961
v -0.554443 0.797363 -0.877441 0.498039 0.498039 0.498039 #0.501961
v -0.909912 1.524170 -0.774658 0.498039 0.498039 0.498039 #0.501961
v 0.820557 0.851318 -0.427002 0.498039 0.498039 0.498039 #0.501961
v 0.863770 1.902344 -0.422363 0.498039 0.498039 0.498039 #0.501961
v 0.909912 1.524170 -0.774658 0.498039 0.498039 0.498039 #0.501961
v 0.000000 3.299805 1.758301 0.498039 0.498039 0.498039 #0.501961
v 0.051270 3.131836 1.499756 0.498039 0.498039 0.498039 #0.501961
v -0.051270 3.131836 1.499756 0.498039 0.498039 0.498039 #0.501961
v 0.051270 3.131836 1.499756 0.498039 0.498039 0.498039 #0.501961
v 0.000000 3.299805 1.758301 0.498039 0.498039 0.498039 #0.501961
v 0.000000 3.064453 1.568359 0.498039 0.498039 0.498039 #0.501961
v 0.038330 2.659424 0.970947 0.498039 0.498039 0.498039 #0.501961
v 0.000000 3.167480 1.612305 0.498039 0.498039 0.498039 #0.501961
v 0.000000 2.590088 1.029053 0.498039 0.498039 0.498039 #0.501961
v 0.000000 3.064453 1.568359 0.498039 0.498039 0.498039 #0.501961
v -0.051270 3.131836 1.499756 0.498039 0.498039 0.498039 #0.501961
v 0.051270 3.131836 1.499756 0.498039 0.498039 0.498039 #0.501961
v -0.051270 3.131836 1.499756 0.498039 0.498039 0.498039 #0.501961
v 0.000000 3.064453 1.568359 0.498039 0.498039 0.498039 #0.501961
v 0.000000 3.299805 1.758301 0.498039 0.498039 0.498039 #0.501961
v 0.000000 3.167480 1.612305 0.498039 0.498039 0.498039 #0.501961
v 0.038330 2.659424 0.970947 0.498039 0.498039 0.498039 #0.501961
v -0.038330 2.659424 0.970947 0.498039 0.498039 0.498039 #0.501961
v -0.038330 2.659424 0.970947 0.498039 0.498039 0.498039 #0.501961
v 0.000000 2.590088 1.029053 0.498039 0.498039 0.498039 #0.501961
v 0.000000 3.167480 1.612305 0.498039 0.498039 0.498039 #0.501961
vt 0.458984 0.659912 0.000000
vt 0.547852 0.499756 0.000000
vt 0.630127 0.664307 0.000000
vt 0.738037 0.668701 0.000000
vt 0.630127 0.664307 0.000000
vt 0.674316 0.506104 0.000000
vt 0.575439 0.337646 0.000000
vt 0.547852 0.499756 0.000000
vt 0.410156 0.326904 0.000000
vt 0.674316 0.506104 0.000000
vt 0.575439 0.337646 0.000000
vt 0.668457 0.346436 0.000000
vt 0.458984 0.659912 0.000000
vt 0.540771 0.807129 0.000000
vt 0.369141 0.797119 0.000000
vt 0.677734 0.817139 0.000000
vt 0.630127 0.664307 0.000000
vt 0.738037 0.668701 0.000000
vt 0.363281 0.956299 0.000000
vt 0.540771 0.807129 0.000000
vt 0.484131 0.939697 0.000000
vt 0.573975 0.933838 0.000000
vt 0.484131 0.939697 0.000000
vt 0.677734 0.817139 0.000000
vt 0.458984 0.659912 0.000000
vt 0.276611 0.659912 0.000000
vt 0.397217 0.510498 0.000000
vt 0.249023 0.356445 0.000000
vt 0.243164 0.554443 0.000000
vt 0.120605 0.427979 0.000000
vt 0.249023 0.356445 0.000000
vt 0.397217 0.510498 0.000000
vt 0.243164 0.554443 0.000000
vt 0.458984 0.659912 0.000000
vt 0.369141 0.797119 0.000000
vt 0.276611 0.659912 0.000000
vt 0.108643 0.686035 0.000000
vt 0.186768 0.775635 0.000000
vt 0.119385 0.752441 0.000000
vt 0.363281 0.956299 0.000000
vt 0.234375 0.973877 0.000000
vt 0.369141 0.797119 0.000000
vt 0.119385 0.752441 0.000000
vt 0.186768 0.775635 0.000000
vt 0.085205 0.991699 0.000000
vt 0.102539 0.298584 0.000000
vt 0.027100 0.424805 0.000000
vt 0.020752 0.403564 0.000000
vt 0.055176 0.503906 0.000000
vt 0.027100 0.424805 0.000000
vt 0.120605 0.427979 0.000000
vt 0.733398 0.369629 0.000000
vt 0.771973 0.512695 0.000000
vt 0.668457 0.346436 0.000000
vt 0.668457 0.346436 0.000000
vt 0.771973 0.512695 0.000000
vt 0.674316 0.506104 0.000000
vt 0.738037 0.668701 0.000000
vt 0.735352 0.817139 0.000000
vt 0.677734 0.817139 0.000000
vt 0.677734 0.817139 0.000000
vt 0.735352 0.817139 0.000000
vt 0.573975 0.933838 0.000000
vt 0.442383 0.222168 0.000000
vt 0.523926 0.256348 0.000000
vt 0.345459 0.250000 0.000000
vt 0.410156 0.326904 0.000000
vt 0.523926 0.256348 0.000000
vt 0.575439 0.337646 0.000000
vt 0.733398 0.369629 0.000000
vt 0.668457 0.346436 0.000000
vt 0.607666 0.273438 0.000000
vt 0.575439 0.337646 0.000000
vt 0.523926 0.256348 0.000000
vt 0.668457 0.346436 0.000000
vt 0.442383 0.222168 0.000000
vt 0.345459 0.250000 0.000000
vt 0.246582 0.239502 0.000000
vt 0.249023 0.356445 0.000000
vt 0.345459 0.250000 0.000000
vt 0.410156 0.326904 0.000000
vt 0.102539 0.298584 0.000000
vt 0.145996 0.302002 0.000000
vt 0.027100 0.424805 0.000000
vt 0.145996 0.302002 0.000000
vt 0.120605 0.427979 0.000000
vt 0.027100 0.424805 0.000000
vt 0.674316 0.506104 0.000000
vt 0.547852 0.499756 0.000000
vt 0.575439 0.337646 0.000000
vt 0.243164 0.554443 0.000000
vt 0.276611 0.659912 0.000000
vt 0.108643 0.686035 0.000000
vt 0.276611 0.659912 0.000000
vt 0.243164 0.554443 0.000000
vt 0.397217 0.510498 0.000000
vt 0.458984 0.659912 0.000000
vt 0.397217 0.510498 0.000000
vt 0.547852 0.499756 0.000000
vt 0.630127 0.664307 0.000000
vt 0.547852 0.499756 0.000000
vt 0.674316 0.506104 0.000000
vt 0.102539 0.298584 0.000000
vt 0.246582 0.239502 0.000000
vt 0.145996 0.302002 0.000000
vt 0.345459 0.250000 0.000000
vt 0.145996 0.302002 0.000000
vt 0.246582 0.239502 0.000000
vt 0.442383 0.222168 0.000000
vt 0.607666 0.273438 0.000000
vt 0.523926 0.256348 0.000000
vt 0.668457 0.346436 0.000000
vt 0.523926 0.256348 0.000000
vt 0.607666 0.273438 0.000000
vt 0.410156 0.326904 0.000000
vt 0.345459 0.250000 0.000000
vt 0.523926 0.256348 0.000000
vt 0.249023 0.356445 0.000000
vt 0.145996 0.302002 0.000000
vt 0.345459 0.250000 0.000000
vt 0.771973 0.512695 0.000000
vt 0.738037 0.668701 0.000000
vt 0.674316 0.506104 0.000000
vt 0.145996 0.302002 0.000000
vt 0.249023 0.356445 0.000000
vt 0.120605 0.427979 0.000000
vt 0.108643 0.686035 0.000000
vt 0.055176 0.503906 0.000000
vt 0.120605 0.427979 0.000000
vt 0.243164 0.554443 0.000000
vt 0.108643 0.686035 0.000000
vt 0.120605 0.427979 0.000000
vt 0.249023 0.356445 0.000000
vt 0.410156 0.326904 0.000000
vt 0.397217 0.510498 0.000000
vt 0.547852 0.499756 0.000000
vt 0.397217 0.510498 0.000000
vt 0.410156 0.326904 0.000000
vt 0.771973 0.512695 0.000000
vt 0.790283 0.676758 0.000000
vt 0.738037 0.668701 0.000000
vt 0.738037 0.668701 0.000000
vt 0.790283 0.676758 0.000000
vt 0.735352 0.817139 0.000000
vt 0.677734 0.817139 0.000000
vt 0.540771 0.807129 0.000000
vt 0.630127 0.664307 0.000000
vt 0.458984 0.659912 0.000000
vt 0.630127 0.664307 0.000000
vt 0.540771 0.807129 0.000000
vt 0.369141 0.797119 0.000000
vt 0.186768 0.775635 0.000000
vt 0.276611 0.659912 0.000000
vt 0.108643 0.686035 0.000000
vt 0.276611 0.659912 0.000000
vt 0.186768 0.775635 0.000000
vt 0.186768 0.775635 0.000000
vt 0.234375 0.973877 0.000000
vt 0.085205 0.991699 0.000000
vt 0.234375 0.973877 0.000000
vt 0.186768 0.775635 0.000000
vt 0.369141 0.797119 0.000000
vt 0.363281 0.956299 0.000000
vt 0.369141 0.797119 0.000000
vt 0.540771 0.807129 0.000000
vt 0.484131 0.939697 0.000000
vt 0.540771 0.807129 0.000000
vt 0.677734 0.817139 0.000000
vt 0.604980 0.923096 0.000000
vt 0.573975 0.933838 0.000000
vt 0.735352 0.817139 0.000000
vt 0.458984 0.659912 0.000000
vt 0.630127 0.664307 0.000000
vt 0.547852 0.499756 0.000000
vt 0.738037 0.668701 0.000000
vt 0.674316 0.506104 0.000000
vt 0.630127 0.664307 0.000000
vt 0.575439 0.337646 0.000000
vt 0.410156 0.326904 0.000000
vt 0.547852 0.499756 0.000000
vt 0.674316 0.506104 0.000000
vt 0.668457 0.346436 0.000000
vt 0.575439 0.337646 0.000000
vt 0.458984 0.659912 0.000000
vt 0.369141 0.797119 0.000000
vt 0.540771 0.807129 0.000000
vt 0.677734 0.817139 0.000000
vt 0.738037 0.668701 0.000000
vt 0.630127 0.664307 0.000000
vt 0.363281 0.956299 0.000000
vt 0.484131 0.939697 0.000000
vt 0.540771 0.807129 0.000000
vt 0.573975 0.933838 0.000000
vt 0.677734 0.817139 0.000000
vt 0.484131 0.939697 0.000000
vt 0.458984 0.659912 0.000000
vt 0.397217 0.510498 0.000000
vt 0.276611 0.659912 0.000000
vt 0.249023 0.356445 0.000000
vt 0.120605 0.427979 0.000000
vt 0.243164 0.554443 0.000000
vt 0.249023 0.356445 0.000000
vt 0.243164 0.554443 0.000000
vt 0.397217 0.510498 0.000000
vt 0.458984 0.659912 0.000000
vt 0.276611 0.659912 0.000000
vt 0.369141 0.797119 0.000000
vt 0.108643 0.686035 0.000000
vt 0.119385 0.752441 0.000000
vt 0.186768 0.775635 0.000000
vt 0.363281 0.956299 0.000000
vt 0.369141 0.797119 0.000000
vt 0.234375 0.973877 0.000000
vt 0.119385 0.752441 0.000000
vt 0.085205 0.991699 0.000000
vt 0.186768 0.775635 0.000000
vt 0.102539 0.298584 0.000000
vt 0.020752 0.403564 0.000000
vt 0.027100 0.424805 0.000000
vt 0.055176 0.503906 0.000000
vt 0.120605 0.427979 0.000000
vt 0.027100 0.424805 0.000000
vt 0.733398 0.369629 0.000000
vt 0.668457 0.346436 0.000000
vt 0.771973 0.512695 0.000000
vt 0.668457 0.346436 0.000000
vt 0.674316 0.506104 0.000000
vt 0.771973 0.512695 0.000000
vt 0.790283 0.676758 0.000000
vt 0.735352 0.817139 0.000000
vt 0.735352 0.817139 0.000000
vt 0.738037 0.668701 0.000000
vt 0.677734 0.817139 0.000000
vt 0.735352 0.817139 0.000000
vt 0.604980 0.923096 0.000000
vt 0.735352 0.817139 0.000000
vt 0.735352 0.817139 0.000000
vt 0.677734 0.817139 0.000000
vt 0.573975 0.933838 0.000000
vt 0.735352 0.817139 0.000000
vt 0.442383 0.222168 0.000000
vt 0.345459 0.250000 0.000000
vt 0.523926 0.256348 0.000000
vt 0.410156 0.326904 0.000000
vt 0.575439 0.337646 0.000000
vt 0.523926 0.256348 0.000000
vt 0.733398 0.369629 0.000000
vt 0.607666 0.273438 0.000000
vt 0.668457 0.346436 0.000000
vt 0.575439 0.337646 0.000000
vt 0.668457 0.346436 0.000000
vt 0.523926 0.256348 0.000000
vt 0.442383 0.222168 0.000000
vt 0.246582 0.239502 0.000000
vt 0.345459 0.250000 0.000000
vt 0.249023 0.356445 0.000000
vt 0.410156 0.326904 0.000000
vt 0.345459 0.250000 0.000000
vt 0.102539 0.298584 0.000000
vt 0.027100 0.424805 0.000000
vt 0.145996 0.302002 0.000000
vt 0.145996 0.302002 0.000000
vt 0.027100 0.424805 0.000000
vt 0.120605 0.427979 0.000000
vt 0.674316 0.506104 0.000000
vt 0.575439 0.337646 0.000000
vt 0.547852 0.499756 0.000000
vt 0.243164 0.554443 0.000000
vt 0.108643 0.686035 0.000000
vt 0.276611 0.659912 0.000000
vt 0.276611 0.659912 0.000000
vt 0.397217 0.510498 0.000000
vt 0.243164 0.554443 0.000000
vt 0.458984 0.659912 0.000000
vt 0.547852 0.499756 0.000000
vt 0.397217 0.510498 0.000000
vt 0.630127 0.664307 0.000000
vt 0.674316 0.506104 0.000000
vt 0.547852 0.499756 0.000000
vt 0.102539 0.298584 0.000000
vt 0.145996 0.302002 0.000000
vt 0.246582 0.239502 0.000000
vt 0.345459 0.250000 0.000000
vt 0.246582 0.239502 0.000000
vt 0.145996 0.302002 0.000000
vt 0.442383 0.222168 0.000000
vt 0.523926 0.256348 0.000000
vt 0.607666 0.273438 0.000000
vt 0.668457 0.346436 0.000000
vt 0.607666 0.273438 0.000000
vt 0.523926 0.256348 0.000000
vt 0.410156 0.326904 0.000000
vt 0.523926 0.256348 0.000000
vt 0.345459 0.250000 0.000000
vt 0.249023 0.356445 0.000000
vt 0.345459 0.250000 0.000000
vt 0.145996 0.302002 0.000000
vt 0.771973 0.512695 0.000000
vt 0.674316 0.506104 0.000000
vt 0.738037 0.668701 0.000000
vt 0.145996 0.302002 0.000000
vt 0.120605 0.427979 0.000000
vt 0.249023 0.356445 0.000000
vt 0.108643 0.686035 0.000000
vt 0.120605 0.427979 0.000000
vt 0.055176 0.503906 0.000000
vt 0.243164 0.554443 0.000000
vt 0.120605 0.427979 0.000000
vt 0.108643 0.686035 0.000000
vt 0.249023 0.356445 0.000000
vt 0.397217 0.510498 0.000000
vt 0.410156 0.326904 0.000000
vt 0.547852 0.499756 0.000000
vt 0.410156 0.326904 0.000000
vt 0.397217 0.510498 0.000000
vt 0.733398 0.369629 0.000000
vt 0.771973 0.512695 0.000000
vt 0.771973 0.512695 0.000000
vt 0.771973 0.512695 0.000000
vt 0.738037 0.668701 0.000000
vt 0.790283 0.676758 0.000000
vt 0.790283 0.676758 0.000000
vt 0.771973 0.512695 0.000000
vt 0.771973 0.512695 0.000000
vt 0.738037 0.668701 0.000000
vt 0.735352 0.817139 0.000000
vt 0.790283 0.676758 0.000000
vt 0.677734 0.817139 0.000000
vt 0.630127 0.664307 0.000000
vt 0.540771 0.807129 0.000000
vt 0.458984 0.659912 0.000000
vt 0.540771 0.807129 0.000000
vt 0.630127 0.664307 0.000000
vt 0.369141 0.797119 0.000000
vt 0.276611 0.659912 0.000000
vt 0.186768 0.775635 0.000000
vt 0.108643 0.686035 0.000000
vt 0.186768 0.775635 0.000000
vt 0.276611 0.659912 0.000000
vt 0.186768 0.775635 0.000000
vt 0.085205 0.991699 0.000000
vt 0.234375 0.973877 0.000000
vt 0.234375 0.973877 0.000000
vt 0.369141 0.797119 0.000000
vt 0.186768 0.775635 0.000000
vt 0.363281 0.956299 0.000000
vt 0.540771 0.807129 0.000000
vt 0.369141 0.797119 0.000000
vt 0.484131 0.939697 0.000000
vt 0.677734 0.817139 0.000000
vt 0.540771 0.807129 0.000000
vt 0.604980 0.923096 0.000000
vt 0.735352 0.817139 0.000000
vt 0.573975 0.933838 0.000000
vt 0.852051 0.091553 0.000000
vt 0.779297 0.214111 0.000000
vt 0.779297 0.095459 0.000000
vt 0.927979 0.074951 0.000000
vt 0.851807 0.206299 0.000000
vt 0.852051 0.091553 0.000000
vt 0.779297 0.214111 0.000000
vt 0.809326 0.351318 0.000000
vt 0.749268 0.351318 0.000000
vt 0.809326 0.351318 0.000000
vt 0.851807 0.206299 0.000000
vt 0.896729 0.199951 0.000000
vt 0.976074 0.043457 0.000000
vt 0.851807 0.206299 0.000000
vt 0.927979 0.074951 0.000000
vt 0.976074 0.043457 0.000000
vt 0.983398 0.037109 0.000000
vt 0.896729 0.199951 0.000000
vt 0.851807 0.206299 0.000000
vt 0.779297 0.214111 0.000000
vt 0.852051 0.091553 0.000000
vt 0.983398 0.037109 0.000000
vt 0.901855 0.192139 0.000000
vt 0.896729 0.199951 0.000000
vt 0.809326 0.351318 0.000000
vt 0.779297 0.375977 0.000000
vt 0.749268 0.351318 0.000000
vt 0.976074 0.043457 0.000000
vt 0.896729 0.199951 0.000000
vt 0.851807 0.206299 0.000000
vt 0.779297 0.214111 0.000000
vt 0.851807 0.206299 0.000000
vt 0.809326 0.351318 0.000000
vt 0.731689 0.348389 0.000000
vt 0.779297 0.375977 0.000000
vt 0.750000 0.302979 0.000000
vt 0.809326 0.351318 0.000000
vt 0.896729 0.199951 0.000000
vt 0.826904 0.348389 0.000000
vt 0.901855 0.192139 0.000000
vt 0.826904 0.348389 0.000000
vt 0.896729 0.199951 0.000000
vt 0.983398 0.037109 0.000000
vt 0.877441 0.149658 0.000000
vt 0.901855 0.192139 0.000000
vt 0.877441 0.149658 0.000000
vt 0.826904 0.348389 0.000000
vt 0.901855 0.192139 0.000000
vt 0.877441 0.149658 0.000000
vt 0.808594 0.302979 0.000000
vt 0.826904 0.348389 0.000000
vt 0.983398 0.037109 0.000000
vt 0.972900 0.019043 0.000000
vt 0.877441 0.149658 0.000000
vt 0.706543 0.091553 0.000000
vt 0.779297 0.095459 0.000000
vt 0.779297 0.214111 0.000000
vt 0.630615 0.074951 0.000000
vt 0.706543 0.091553 0.000000
vt 0.706787 0.206299 0.000000
vt 0.749268 0.351318 0.000000
vt 0.661865 0.199951 0.000000
vt 0.706787 0.206299 0.000000
vt 0.582520 0.043457 0.000000
vt 0.630615 0.074951 0.000000
vt 0.706787 0.206299 0.000000
vt 0.582520 0.043457 0.000000
vt 0.661865 0.199951 0.000000
vt 0.575195 0.037109 0.000000
vt 0.706787 0.206299 0.000000
vt 0.706543 0.091553 0.000000
vt 0.779297 0.214111 0.000000
vt 0.575195 0.037109 0.000000
vt 0.661865 0.199951 0.000000
vt 0.656738 0.192139 0.000000
vt 0.749268 0.351318 0.000000
vt 0.779297 0.375977 0.000000
vt 0.731689 0.348389 0.000000
vt 0.582520 0.043457 0.000000
vt 0.706787 0.206299 0.000000
vt 0.661865 0.199951 0.000000
vt 0.779297 0.214111 0.000000
vt 0.749268 0.351318 0.000000
vt 0.706787 0.206299 0.000000
vt 0.749268 0.351318 0.000000
vt 0.731689 0.348389 0.000000
vt 0.661865 0.199951 0.000000
vt 0.656738 0.192139 0.000000
vt 0.661865 0.199951 0.000000
vt 0.731689 0.348389 0.000000
vt 0.575195 0.037109 0.000000
vt 0.656738 0.192139 0.000000
vt 0.681152 0.149658 0.000000
vt 0.681152 0.149658 0.000000
vt 0.656738 0.192139 0.000000
vt 0.731689 0.348389 0.000000
vt 0.681152 0.149658 0.000000
vt 0.731689 0.348389 0.000000
vt 0.750000 0.302979 0.000000
vt 0.575195 0.037109 0.000000
vt 0.681152 0.149658 0.000000
vt 0.585693 0.019043 0.000000
vt 0.809326 0.351318 0.000000
vt 0.826904 0.348389 0.000000
vt 0.779297 0.375977 0.000000
vt 0.779297 0.375977 0.000000
vt 0.826904 0.348389 0.000000
vt 0.808594 0.302979 0.000000
vt 0.779297 0.375977 0.000000
vt 0.808594 0.302979 0.000000
vt 0.750000 0.302979 0.000000
vt 0.339844 0.154053 0.000000
vt 0.382080 0.070557 0.000000
vt 0.288330 0.156006 0.000000
vt 0.145020 0.167725 0.000000
vt 0.079102 0.092773 0.000000
vt 0.059570 0.173584 0.000000
vt 0.288330 0.156006 0.000000
vt 0.305420 0.051025 0.000000
vt 0.218994 0.161621 0.000000
vt 0.218994 0.161621 0.000000
vt 0.225342 0.044678 0.000000
vt 0.145020 0.167725 0.000000
vt 0.145020 0.167725 0.000000
vt 0.225342 0.044678 0.000000
vt 0.145996 0.050537 0.000000
vt 0.218994 0.161621 0.000000
vt 0.305420 0.051025 0.000000
vt 0.225342 0.044678 0.000000
vt 0.288330 0.156006 0.000000
vt 0.382080 0.070557 0.000000
vt 0.305420 0.051025 0.000000
vt 0.339844 0.154053 0.000000
vt 0.357422 0.150391 0.000000
vt 0.382080 0.070557 0.000000
vt 0.339844 0.154053 0.000000
vt 0.288330 0.156006 0.000000
vt 0.382080 0.070557 0.000000
vt 0.145020 0.167725 0.000000
vt 0.079102 0.092773 0.000000
vt 0.145996 0.050537 0.000000
vt 0.288330 0.156006 0.000000
vt 0.218994 0.161621 0.000000
vt 0.305420 0.051025 0.000000
vt 0.218994 0.161621 0.000000
vt 0.145020 0.167725 0.000000
vt 0.225342 0.044678 0.000000
vt 0.145020 0.167725 0.000000
vt 0.145996 0.050537 0.000000
vt 0.225342 0.044678 0.000000
vt 0.218994 0.161621 0.000000
vt 0.225342 0.044678 0.000000
vt 0.305420 0.051025 0.000000
vt 0.288330 0.156006 0.000000
vt 0.305420 0.051025 0.000000
vt 0.382080 0.070557 0.000000
vt 0.339844 0.154053 0.000000
vt 0.382080 0.070557 0.000000
vt 0.357422 0.150391 0.000000
vt 0.357422 0.150391 0.000000
vt 0.382080 0.070557 0.000000
vt 0.382080 0.070557 0.000000
vt 0.145020 0.167725 0.000000
vt 0.059570 0.173584 0.000000
vt 0.079102 0.092773 0.000000
vt 0.145020 0.167725 0.000000
vt 0.145996 0.050537 0.000000
vt 0.079102 0.092773 0.000000
vt 0.896484 0.669189 0.000000
vt 0.921387 0.754395 0.000000
vt 0.871338 0.754395 0.000000
vt 0.921387 0.754395 0.000000
vt 0.896484 0.669189 0.000000
vt 0.896484 0.731689 0.000000
vt 0.915039 0.929199 0.000000
vt 0.896484 0.717285 0.000000
vt 0.896484 0.909912 0.000000
vt 0.896484 0.731689 0.000000
vt 0.871338 0.754395 0.000000
vt 0.921387 0.754395 0.000000
vt 0.871338 0.754395 0.000000
vt 0.896484 0.731689 0.000000
vt 0.896484 0.669189 0.000000
vt 0.896484 0.717285 0.000000
vt 0.915039 0.929199 0.000000
vt 0.877686 0.929199 0.000000
vt 0.877686 0.929199 0.000000
vt 0.896484 0.909912 0.000000
vt 0.896484 0.717285 0.000000
vn -0.912598 -0.227783 0.339355
vn -0.912598 -0.227783 0.339355
vn -0.912598 -0.227783 0.339355
vn -0.685547 -0.166748 0.708496
vn -0.685547 -0.166748 0.708496
vn -0.685547 -0.166748 0.708496
vn -0.845215 -0.458252 0.274658
vn -0.845215 -0.458252 0.274658
vn -0.845215 -0.458252 0.274658
vn -0.584961 -0.468018 0.662109
vn -0.584961 -0.468018 0.662109
vn -0.584961 -0.468018 0.662109
vn -0.972900 0.175293 0.149658
vn -0.972900 0.175293 0.149658
vn -0.972900 0.175293 0.149658
vn -0.697754 0.084717 0.710938
vn -0.697754 0.084717 0.710938
vn -0.697754 0.084717 0.710938
vn -0.641602 0.672607 0.367920
vn -0.641602 0.672607 0.367920
vn -0.641602 0.672607 0.367920
vn -0.440674 0.765137 0.468750
vn -0.440674 0.765137 0.468750
vn -0.440674 0.765137 0.468750
vn -0.946289 -0.319580 -0.045410
vn -0.946289 -0.319580 -0.045410
vn -0.946289 -0.319580 -0.045410
vn -0.919434 -0.210693 -0.331299
vn -0.919434 -0.210693 -0.331299
vn -0.919434 -0.210693 -0.331299
vn -0.969238 -0.215332 -0.117188
vn -0.969238 -0.215332 -0.117188
vn -0.969238 -0.215332 -0.117188
vn -0.997559 0.046875 -0.047852
vn -0.997559 0.046875 -0.047852
vn -0.997559 0.046875 -0.047852
vn -0.833984 -0.045654 -0.549805
vn -0.833984 -0.045654 -0.549805
vn -0.833984 -0.045654 -0.549805
vn -0.904541 0.418701 -0.079102
vn -0.904541 0.418701 -0.079102
vn -0.904541 0.418701 -0.079102
vn -0.749512 0.281982 -0.598633
vn -0.749512 0.281982 -0.598633
vn -0.749512 0.281982 -0.598633
vn -0.167480 -0.604004 -0.778809
vn -0.167480 -0.604004 -0.778809
vn -0.167480 -0.604004 -0.778809
vn -0.513184 -0.468750 -0.718750
vn -0.513184 -0.468750 -0.718750
vn -0.513184 -0.468750 -0.718750
vn -0.383545 -0.453369 0.804443
vn -0.383545 -0.453369 0.804443
vn -0.383545 -0.453369 0.804443
vn -0.505371 -0.411133 0.758545
vn -0.505371 -0.411133 0.758545
vn -0.505371 -0.411133 0.758545
vn -0.341309 0.264404 0.901855
vn -0.341309 0.264404 0.901855
vn -0.341309 0.264404 0.901855
vn -0.237061 0.742432 0.626465
vn -0.237061 0.742432 0.626465
vn -0.237061 0.742432 0.626465
vn -0.247559 -0.968018 0.035156
vn -0.247559 -0.968018 0.035156
vn -0.247559 -0.968018 0.035156
vn -0.607422 -0.761475 0.225586
vn -0.607422 -0.761475 0.225586
vn -0.607422 -0.761475 0.225586
vn -0.190186 -0.777588 0.599121
vn -0.190186 -0.777588 0.599121
vn -0.190186 -0.777588 0.599121
vn -0.418213 -0.749756 0.512451
vn -0.418213 -0.749756 0.512451
vn -0.418213 -0.749756 0.512451
vn -0.154053 -0.983887 -0.088379
vn -0.154053 -0.983887 -0.088379
vn -0.154053 -0.983887 -0.088379
vn -0.540771 -0.835205 -0.098145
vn -0.540771 -0.835205 -0.098145
vn -0.540771 -0.835205 -0.098145
vn -0.268066 -0.649414 -0.711426
vn -0.268066 -0.649414 -0.711426
vn -0.268066 -0.649414 -0.711426
vn -0.476807 -0.576660 -0.663086
vn -0.476807 -0.576660 -0.663086
vn -0.476807 -0.576660 -0.663086
vn -0.787109 -0.389160 0.478271
vn -0.787109 -0.389160 0.478271
vn -0.787109 -0.389160 0.478271
vn -0.849121 -0.292236 -0.439453
vn -0.849121 -0.292236 -0.439453
vn -0.849121 -0.292236 -0.439453
vn -0.899414 -0.403320 -0.167236
vn -0.899414 -0.403320 -0.167236
vn -0.899414 -0.403320 -0.167236
vn -0.924561 -0.368652 0.093506
vn -0.924561 -0.368652 0.093506
vn -0.924561 -0.368652 0.093506
vn -0.818359 -0.297119 0.491699
vn -0.818359 -0.297119 0.491699
vn -0.818359 -0.297119 0.491699
vn -0.156738 -0.912842 -0.376221
vn -0.156738 -0.912842 -0.376221
vn -0.156738 -0.912842 -0.376221
vn -0.273926 -0.930176 -0.243408
vn -0.273926 -0.930176 -0.243408
vn -0.273926 -0.930176 -0.243408
vn -0.069580 -0.951904 0.297607
vn -0.069580 -0.951904 0.297607
vn -0.069580 -0.951904 0.297607
vn -0.249268 -0.809082 0.531982
vn -0.249268 -0.809082 0.531982
vn -0.249268 -0.809082 0.531982
vn -0.496094 -0.867432 0.031250
vn -0.496094 -0.867432 0.031250
vn -0.496094 -0.867432 0.031250
vn -0.471924 -0.852783 -0.223145
vn -0.471924 -0.852783 -0.223145
vn -0.471924 -0.852783 -0.223145
vn -0.546631 -0.226807 0.805908
vn -0.546631 -0.226807 0.805908
vn -0.546631 -0.226807 0.805908
vn -0.583740 -0.642822 -0.495605
vn -0.583740 -0.642822 -0.495605
vn -0.583740 -0.642822 -0.495605
vn -0.847656 -0.183594 -0.497314
vn -0.847656 -0.183594 -0.497314
vn -0.847656 -0.183594 -0.497314
vn -0.916748 -0.189941 -0.351318
vn -0.916748 -0.189941 -0.351318
vn -0.916748 -0.189941 -0.351318
vn -0.936768 -0.347900 0.032471
vn -0.936768 -0.347900 0.032471
vn -0.936768 -0.347900 0.032471
vn -0.934326 -0.342529 0.096680
vn -0.934326 -0.342529 0.096680
vn -0.934326 -0.342529 0.096680
vn -0.249023 0.026611 0.968018
vn -0.249023 0.026611 0.968018
vn -0.249023 0.026611 0.968018
vn -0.250732 0.198975 0.947266
vn -0.250732 0.198975 0.947266
vn -0.250732 0.198975 0.947266
vn -0.823242 0.194824 0.532959
vn -0.823242 0.194824 0.532959
vn -0.823242 0.194824 0.532959
vn -0.937500 0.067139 0.341064
vn -0.937500 0.067139 0.341064
vn -0.937500 0.067139 0.341064
vn -0.988525 0.093750 -0.116943
vn -0.988525 0.093750 -0.116943
vn -0.988525 0.093750 -0.116943
vn -0.882080 -0.175781 -0.436768
vn -0.882080 -0.175781 -0.436768
vn -0.882080 -0.175781 -0.436768
vn -0.807617 0.404297 -0.428955
vn -0.807617 0.404297 -0.428955
vn -0.807617 0.404297 -0.428955
vn -0.915039 0.376709 -0.142334
vn -0.915039 0.376709 -0.142334
vn -0.915039 0.376709 -0.142334
vn -0.899658 0.423096 0.105713
vn -0.899658 0.423096 0.105713
vn -0.899658 0.423096 0.105713
vn -0.621338 0.672363 0.402100
vn -0.621338 0.672363 0.402100
vn -0.621338 0.672363 0.402100
vn -0.064941 0.795166 0.602539
vn -0.064941 0.795166 0.602539
vn -0.064941 0.795166 0.602539
vn 0.912598 -0.227783 0.339355
vn 0.912598 -0.227783 0.339355
vn 0.912598 -0.227783 0.339355
vn 0.685547 -0.166748 0.708496
vn 0.685547 -0.166748 0.708496
vn 0.685547 -0.166748 0.708496
vn 0.845215 -0.458252 0.274658
vn 0.845215 -0.458252 0.274658
vn 0.845215 -0.458252 0.274658
vn 0.584961 -0.468018 0.662109
vn 0.584961 -0.468018 0.662109
vn 0.584961 -0.468018 0.662109
vn 0.972900 0.175293 0.149658
vn 0.972900 0.175293 0.149658
vn 0.972900 0.175293 0.149658
vn 0.697754 0.084717 0.710938
vn 0.697754 0.084717 0.710938
vn 0.697754 0.084717 0.710938
vn 0.641602 0.672607 0.367920
vn 0.641602 0.672607 0.367920
vn 0.641602 0.672607 0.367920
vn 0.440674 0.765137 0.468750
vn 0.440674 0.765137 0.468750
vn 0.440674 0.765137 0.468750
vn 0.946289 -0.319580 -0.045410
vn 0.946289 -0.319580 -0.045410
vn 0.946289 -0.319580 -0.045410
vn 0.919434 -0.210693 -0.331299
vn 0.919434 -0.210693 -0.331299
vn 0.919434 -0.210693 -0.331299
vn 0.969238 -0.215332 -0.117188
vn 0.969238 -0.215332 -0.117188
vn 0.969238 -0.215332 -0.117188
vn 0.997559 0.046875 -0.047852
vn 0.997559 0.046875 -0.047852
vn 0.997559 0.046875 -0.047852
vn 0.833984 -0.045654 -0.549805
vn 0.833984 -0.045654 -0.549805
vn 0.833984 -0.045654 -0.549805
vn 0.904541 0.418701 -0.079102
vn 0.904541 0.418701 -0.079102
vn 0.904541 0.418701 -0.079102
vn 0.749512 0.281982 -0.598633
vn 0.749512 0.281982 -0.598633
vn 0.749512 0.281982 -0.598633
vn 0.167480 -0.604004 -0.778809
vn 0.167480 -0.604004 -0.778809
vn 0.167480 -0.604004 -0.778809
vn 0.513184 -0.468750 -0.718750
vn 0.513184 -0.468750 -0.718750
vn 0.513184 -0.468750 -0.718750
vn 0.383545 -0.453369 0.804443
vn 0.383545 -0.453369 0.804443
vn 0.383545 -0.453369 0.804443
vn 0.505371 -0.411133 0.758545
vn 0.505371 -0.411133 0.758545
vn 0.505371 -0.411133 0.758545
vn 0.000000 0.362549 0.931885
vn 0.000000 0.362549 0.931885
vn 0.000000 0.362549 0.931885
vn 0.341309 0.264404 0.901855
vn 0.341309 0.264404 0.901855
vn 0.341309 0.264404 0.901855
vn 0.000000 0.774170 0.632813
vn 0.000000 0.774170 0.632813
vn 0.000000 0.774170 0.632813
vn 0.237061 0.742432 0.626465
vn 0.237061 0.742432 0.626465
vn 0.237061 0.742432 0.626465
vn 0.247559 -0.968018 0.035156
vn 0.247559 -0.968018 0.035156
vn 0.247559 -0.968018 0.035156
vn 0.607422 -0.761475 0.225586
vn 0.607422 -0.761475 0.225586
vn 0.607422 -0.761475 0.225586
vn 0.190186 -0.777588 0.599121
vn 0.190186 -0.777588 0.599121
vn 0.190186 -0.777588 0.599121
vn 0.418213 -0.749756 0.512451
vn 0.418213 -0.749756 0.512451
vn 0.418213 -0.749756 0.512451
vn 0.154053 -0.983887 -0.088379
vn 0.154053 -0.983887 -0.088379
vn 0.154053 -0.983887 -0.088379
vn 0.540771 -0.835205 -0.098145
vn 0.540771 -0.835205 -0.098145
vn 0.540771 -0.835205 -0.098145
vn 0.268066 -0.649414 -0.711426
vn 0.268066 -0.649414 -0.711426
vn 0.268066 -0.649414 -0.711426
vn 0.476807 -0.576660 -0.663086
vn 0.476807 -0.576660 -0.663086
vn 0.476807 -0.576660 -0.663086
vn 0.787109 -0.389160 0.478271
vn 0.787109 -0.389160 0.478271
vn 0.787109 -0.389160 0.478271
vn 0.849121 -0.292236 -0.439453
vn 0.849121 -0.292236 -0.439453
vn 0.849121 -0.292236 -0.439453
vn 0.899414 -0.403320 -0.167236
vn 0.899414 -0.403320 -0.167236
vn 0.899414 -0.403320 -0.167236
vn 0.924561 -0.368652 0.093506
vn 0.924561 -0.368652 0.093506
vn 0.924561 -0.368652 0.093506
vn 0.818359 -0.297119 0.491699
vn 0.818359 -0.297119 0.491699
vn 0.818359 -0.297119 0.491699
vn 0.156738 -0.912842 -0.376221
vn 0.156738 -0.912842 -0.376221
vn 0.156738 -0.912842 -0.376221
vn 0.273926 -0.930176 -0.243408
vn 0.273926 -0.930176 -0.243408
vn 0.273926 -0.930176 -0.243408
vn 0.069580 -0.951904 0.297607
vn 0.069580 -0.951904 0.297607
vn 0.069580 -0.951904 0.297607
vn 0.249268 -0.809082 0.531982
vn 0.249268 -0.809082 0.531982
vn 0.249268 -0.809082 0.531982
vn 0.496094 -0.867432 0.031250
vn 0.496094 -0.867432 0.031250
vn 0.496094 -0.867432 0.031250
vn 0.471924 -0.852783 -0.223145
vn 0.471924 -0.852783 -0.223145
vn 0.471924 -0.852783 -0.223145
vn 0.546631 -0.226807 0.805908
vn 0.546631 -0.226807 0.805908
vn 0.546631 -0.226807 0.805908
vn 0.583740 -0.642822 -0.495605
vn 0.583740 -0.642822 -0.495605
vn 0.583740 -0.642822 -0.495605
vn 0.847656 -0.183594 -0.497314
vn 0.847656 -0.183594 -0.497314
vn 0.847656 -0.183594 -0.497314
vn 0.916748 -0.189941 -0.351318
vn 0.916748 -0.189941 -0.351318
vn 0.916748 -0.189941 -0.351318
vn 0.936768 -0.347900 0.032471
vn 0.936768 -0.347900 0.032471
vn 0.936768 -0.347900 0.032471
vn 0.934326 -0.342529 0.096680
vn 0.934326 -0.342529 0.096680
vn 0.934326 -0.342529 0.096680
vn 0.000000 -0.258789 0.965820
vn 0.000000 -0.258789 0.965820
vn 0.000000 -0.258789 0.965820
vn 0.249023 0.026611 0.968018
vn 0.249023 0.026611 0.968018
vn 0.249023 0.026611 0.968018
vn 0.000000 -0.110596 0.993652
vn 0.000000 -0.110596 0.993652
vn 0.000000 -0.110596 0.993652
vn 0.250732 0.198975 0.947266
vn 0.250732 0.198975 0.947266
vn 0.250732 0.198975 0.947266
vn 0.823242 0.194824 0.532959
vn 0.823242 0.194824 0.532959
vn 0.823242 0.194824 0.532959
vn 0.937500 0.067139 0.341064
vn 0.937500 0.067139 0.341064
vn 0.937500 0.067139 0.341064
vn 0.988525 0.093750 -0.116943
vn 0.988525 0.093750 -0.116943
vn 0.988525 0.093750 -0.116943
vn 0.882080 -0.175781 -0.436768
vn 0.882080 -0.175781 -0.436768
vn 0.882080 -0.175781 -0.436768
vn 0.807617 0.404297 -0.428955
vn 0.807617 0.404297 -0.428955
vn 0.807617 0.404297 -0.428955
vn 0.915039 0.376709 -0.142334
vn 0.915039 0.376709 -0.142334
vn 0.915039 0.376709 -0.142334
vn 0.899658 0.423096 0.105713
vn 0.899658 0.423096 0.105713
vn 0.899658 0.423096 0.105713
vn 0.621338 0.672363 0.402100
vn 0.621338 0.672363 0.402100
vn 0.621338 0.672363 0.402100
vn 0.064941 0.795166 0.602539
vn 0.064941 0.795166 0.602539
vn 0.064941 0.795166 0.602539
vn -0.183105 -0.712646 -0.676758
vn -0.183105 -0.712646 -0.676758
vn -0.183105 -0.712646 -0.676758
vn -0.565186 -0.593018 -0.573242
vn -0.565186 -0.593018 -0.573242
vn -0.565186 -0.593018 -0.573242
vn 0.000000 -0.875488 -0.482666
vn 0.000000 -0.875488 -0.482666
vn 0.000000 -0.875488 -0.482666
vn -0.831787 -0.394287 -0.390137
vn -0.831787 -0.394287 -0.390137
vn -0.831787 -0.394287 -0.390137
vn -0.840820 -0.177002 -0.511230
vn -0.840820 -0.177002 -0.511230
vn -0.840820 -0.177002 -0.511230
vn -0.905518 -0.078613 -0.416504
vn -0.905518 -0.078613 -0.416504
vn -0.905518 -0.078613 -0.416504
vn -0.201904 -0.704590 -0.679932
vn -0.201904 -0.704590 -0.679932
vn -0.201904 -0.704590 -0.679932
vn -0.906738 -0.048096 -0.418457
vn -0.906738 -0.048096 -0.418457
vn -0.906738 -0.048096 -0.418457
vn 0.000000 -0.570801 -0.820801
vn 0.000000 -0.570801 -0.820801
vn 0.000000 -0.570801 -0.820801
vn -0.814209 -0.381348 -0.437500
vn -0.814209 -0.381348 -0.437500
vn -0.814209 -0.381348 -0.437500
vn -0.202148 -0.873291 -0.442871
vn -0.202148 -0.873291 -0.442871
vn -0.202148 -0.873291 -0.442871
vn -0.379883 0.767334 0.516113
vn -0.379883 0.767334 0.516113
vn -0.379883 0.767334 0.516113
vn -0.855713 -0.317383 -0.407959
vn -0.855713 -0.317383 -0.407959
vn -0.855713 -0.317383 -0.407959
vn -0.918457 -0.065430 -0.389648
vn -0.918457 -0.065430 -0.389648
vn -0.918457 -0.065430 -0.389648
vn 0.756836 0.535156 0.374756
vn 0.756836 0.535156 0.374756
vn 0.756836 0.535156 0.374756
vn 0.770508 0.527588 0.357422
vn 0.770508 0.527588 0.357422
vn 0.770508 0.527588 0.357422
vn 0.603271 0.700439 0.381104
vn 0.603271 0.700439 0.381104
vn 0.603271 0.700439 0.381104
vn 0.773438 0.479736 0.413818
vn 0.773438 0.479736 0.413818
vn 0.773438 0.479736 0.413818
vn 0.183105 -0.712646 -0.676758
vn 0.183105 -0.712646 -0.676758
vn 0.183105 -0.712646 -0.676758
vn 0.565186 -0.593018 -0.573242
vn 0.565186 -0.593018 -0.573242
vn 0.565186 -0.593018 -0.573242
vn 0.831787 -0.394287 -0.390137
vn 0.831787 -0.394287 -0.390137
vn 0.831787 -0.394287 -0.390137
vn 0.840820 -0.177002 -0.511230
vn 0.840820 -0.177002 -0.511230
vn 0.840820 -0.177002 -0.511230
vn 0.905518 -0.078613 -0.416504
vn 0.905518 -0.078613 -0.416504
vn 0.905518 -0.078613 -0.416504
vn 0.201904 -0.704590 -0.679932
vn 0.201904 -0.704590 -0.679932
vn 0.201904 -0.704590 -0.679932
vn 0.906738 -0.048096 -0.418457
vn 0.906738 -0.048096 -0.418457
vn 0.906738 -0.048096 -0.418457
vn 0.552734 -0.162354 -0.817139
vn 0.552734 -0.162354 -0.817139
vn 0.552734 -0.162354 -0.817139
vn 0.814209 -0.381348 -0.437500
vn 0.814209 -0.381348 -0.437500
vn 0.814209 -0.381348 -0.437500
vn 0.202148 -0.873291 -0.442871
vn 0.202148 -0.873291 -0.442871
vn 0.202148 -0.873291 -0.442871
vn 0.855713 -0.317383 -0.407959
vn 0.855713 -0.317383 -0.407959
vn 0.855713 -0.317383 -0.407959
vn 0.918457 -0.065430 -0.389648
vn 0.918457 -0.065430 -0.389648
vn 0.918457 -0.065430 -0.389648
vn -0.756836 0.535156 0.374756
vn -0.756836 0.535156 0.374756
vn -0.756836 0.535156 0.374756
vn -0.770508 0.527588 0.357422
vn -0.770508 0.527588 0.357422
vn -0.770508 0.527588 0.357422
vn -0.603271 0.700439 0.381104
vn -0.603271 0.700439 0.381104
vn -0.603271 0.700439 0.381104
vn -0.773438 0.479736 0.413818
vn -0.773438 0.479736 0.413818
vn -0.773438 0.479736 0.413818
vn -0.552734 -0.162354 -0.817139
vn -0.552734 -0.162354 -0.817139
vn -0.552734 -0.162354 -0.817139
vn 0.379883 0.767334 0.516113
vn 0.379883 0.767334 0.516113
vn 0.379883 0.767334 0.516113
vn 0.000000 0.894287 0.447021
vn 0.000000 0.894287 0.447021
vn 0.000000 0.894287 0.447021
vn 0.705322 -0.191895 -0.682129
vn 0.705322 -0.191895 -0.682129
vn 0.705322 -0.191895 -0.682129
vn 0.826416 -0.341064 0.447510
vn 0.826416 -0.341064 0.447510
vn 0.826416 -0.341064 0.447510
vn 0.899902 -0.155029 -0.407227
vn 0.899902 -0.155029 -0.407227
vn 0.899902 -0.155029 -0.407227
vn 0.988281 -0.053711 0.142090
vn 0.988281 -0.053711 0.142090
vn 0.988281 -0.053711 0.142090
vn 0.983154 -0.039551 0.177490
vn 0.983154 -0.039551 0.177490
vn 0.983154 -0.039551 0.177490
vn 0.974609 -0.063965 -0.213867
vn 0.974609 -0.063965 -0.213867
vn 0.974609 -0.063965 -0.213867
vn 0.743164 -0.157959 -0.650146
vn 0.743164 -0.157959 -0.650146
vn 0.743164 -0.157959 -0.650146
vn 0.169922 -0.277832 -0.945313
vn 0.169922 -0.277832 -0.945313
vn 0.169922 -0.277832 -0.945313
vn -0.705322 -0.191895 -0.682129
vn -0.705322 -0.191895 -0.682129
vn -0.705322 -0.191895 -0.682129
vn -0.983887 -0.041016 -0.173096
vn -0.983887 -0.041016 -0.173096
vn -0.983887 -0.041016 -0.173096
vn -0.899902 -0.155029 -0.407227
vn -0.899902 -0.155029 -0.407227
vn -0.899902 -0.155029 -0.407227
vn -0.988281 -0.053711 0.142090
vn -0.988281 -0.053711 0.142090
vn -0.988281 -0.053711 0.142090
vn -0.983154 -0.039551 0.177490
vn -0.983154 -0.039551 0.177490
vn -0.983154 -0.039551 0.177490
vn -0.974609 -0.063965 -0.213867
vn -0.974609 -0.063965 -0.213867
vn -0.974609 -0.063965 -0.213867
vn -0.743164 -0.157959 -0.650146
vn -0.743164 -0.157959 -0.650146
vn -0.743164 -0.157959 -0.650146
vn -0.169922 -0.277832 -0.945313
vn -0.169922 -0.277832 -0.945313
vn -0.169922 -0.277832 -0.945313
vn 0.000000 -0.177002 -0.984131
vn 0.000000 -0.177002 -0.984131
vn 0.000000 -0.177002 -0.984131
vn -0.826416 -0.341064 0.447510
vn -0.826416 -0.341064 0.447510
vn -0.826416 -0.341064 0.447510
vn 0.983887 -0.041016 -0.173096
vn 0.983887 -0.041016 -0.173096
vn 0.983887 -0.041016 -0.173096
vn 0.000000 -0.838379 -0.544922
vn 0.000000 -0.838379 -0.544922
vn 0.000000 -0.838379 -0.544922
vn -0.881104 0.296875 0.367920
vn -0.881104 0.296875 0.367920
vn -0.881104 0.296875 0.367920
vn -0.920410 0.277588 0.274902
vn -0.920410 0.277588 0.274902
vn -0.920410 0.277588 0.274902
vn 0.000000 0.712646 -0.701172
vn 0.000000 0.712646 -0.701172
vn 0.000000 0.712646 -0.701172
vn 0.881104 0.296875 0.367920
vn 0.881104 0.296875 0.367920
vn 0.881104 0.296875 0.367920
vn 0.000000 -0.783936 -0.620605
vn 0.000000 -0.783936 -0.620605
vn 0.000000 -0.783936 -0.620605
vn 0.920410 0.277588 0.274902
vn 0.920410 0.277588 0.274902
vn 0.920410 0.277588 0.274902
usemtl Texture
f 1/1/1 2/2/2 3/3/3
f 4/4/4 5/5/5 6/6/6
f 7/7/7 8/8/8 9/9/9
f 10/10/10 11/11/11 12/12/12
f 13/13/13 14/14/14 15/15/15
f 16/16/16 17/17/17 18/18/18
f 19/19/19 20/20/20 21/21/21
f 22/22/22 23/23/23 24/24/24
f 25/25/25 26/26/26 27/27/27
f 28/28/28 29/29/29 30/30/30
f 31/31/31 32/32/32 33/33/33
f 34/34/34 35/35/35 36/36/36
f 37/37/37 38/38/38 39/39/39
f 40/40/40 41/41/41 42/42/42
f 43/43/43 44/44/44 45/45/45
f 46/46/46 47/47/47 48/48/48
f 49/49/49 50/50/50 51/51/51
f 52/52/52 53/53/53 54/54/54
f 55/55/55 56/56/56 57/57/57
f 58/58/58 59/59/59 60/60/60
f 61/61/61 62/62/62 63/63/63
f 64/64/64 65/65/65 66/66/66
f 67/67/67 68/68/68 69/69/69
f 70/70/70 71/71/71 72/72/72
f 73/73/73 74/74/74 75/75/75
f 76/76/76 77/77/77 78/78/78
f 79/79/79 80/80/80 81/81/81
f 82/82/82 83/83/83 84/84/84
f 85/85/85 86/86/86 87/87/87
f 88/88/88 89/89/89 90/90/90
f 91/91/91 92/92/92 93/93/93
f 94/94/94 95/95/95 96/96/96
f 97/97/97 98/98/98 99/99/99
f 100/100/100 101/101/101 102/102/102
f 103/103/103 104/104/104 105/105/105
f 106/106/106 107/107/107 108/108/108
f 109/109/109 110/110/110 111/111/111
f 112/112/112 113/113/113 114/114/114
f 115/115/115 116/116/116 117/117/117
f 118/118/118 119/119/119 120/120/120
f 121/121/121 122/122/122 123/123/123
f 124/124/124 125/125/125 126/126/126
f 127/127/127 128/128/128 129/129/129
f 130/130/130 131/131/131 132/132/132
f 133/133/133 134/134/134 135/135/135
f 136/136/136 137/137/137 138/138/138
f 139/139/139 140/140/140 141/141/141
f 142/142/142 143/143/143 144/144/144
f 145/145/145 146/146/146 147/147/147
f 148/148/148 149/149/149 150/150/150
f 151/151/151 152/152/152 153/153/153
f 154/154/154 155/155/155 156/156/156
f 157/157/157 158/158/158 159/159/159
f 160/160/160 161/161/161 162/162/162
f 163/163/163 164/164/164 165/165/165
f 166/166/166 167/167/167 168/168/168
f 169/169/169 170/170/170 171/171/171
f 172/172/172 173/173/173 174/174/174
f 175/175/175 176/176/176 177/177/177
f 178/178/178 179/179/179 180/180/180
f 181/181/181 182/182/182 183/183/183
f 184/184/184 185/185/185 186/186/186
f 187/187/187 188/188/188 189/189/189
f 190/190/190 191/191/191 192/192/192
f 193/193/193 194/194/194 195/195/195
f 196/196/196 197/197/197 198/198/198
f 199/199/199 200/200/200 201/201/201
f 202/202/202 203/203/203 204/204/204
f 205/205/205 206/206/206 207/207/207
f 208/208/208 209/209/209 210/210/210
f 211/211/211 212/212/212 213/213/213
f 214/214/214 215/215/215 216/216/216
f 217/217/217 218/218/218 219/219/219
f 220/220/220 221/221/221 222/222/222
f 223/223/223 224/224/224 225/225/225
f 226/226/226 227/227/227 228/228/228
f 229/229/229 230/230/230 231/231/231
f 232/232/232 233/233/233 234/234/234
f 235/235/235 236/236/236 237/237/237
f 238/238/238 239/239/239 240/240/240
f 241/241/241 242/242/242 243/243/243
f 244/244/244 245/245/245 246/246/246
f 247/247/247 248/248/248 249/249/249
f 250/250/250 251/251/251 252/252/252
f 253/253/253 254/254/254 255/255/255
f 256/256/256 257/257/257 258/258/258
f 259/259/259 260/260/260 261/261/261
f 262/262/262 263/263/263 264/264/264
f 265/265/265 266/266/266 267/267/267
f 268/268/268 269/269/269 270/270/270
f 271/271/271 272/272/272 273/273/273
f 274/274/274 275/275/275 276/276/276
f 277/277/277 278/278/278 279/279/279
f 280/280/280 281/281/281 282/282/282
f 283/283/283 284/284/284 285/285/285
f 286/286/286 287/287/287 288/288/288
f 289/289/289 290/290/290 291/291/291
f 292/292/292 293/293/293 294/294/294
f 295/295/295 296/296/296 297/297/297
f 298/298/298 299/299/299 300/300/300
f 301/301/301 302/302/302 303/303/303
f 304/304/304 305/305/305 306/306/306
f 307/307/307 308/308/308 309/309/309
f 310/310/310 311/311/311 312/312/312
f 313/313/313 314/314/314 315/315/315
f 316/316/316 317/317/317 318/318/318
f 319/319/319 320/320/320 321/321/321
f 322/322/322 323/323/323 324/324/324
f 325/325/325 326/326/326 327/327/327
f 328/328/328 329/329/329 330/330/330
f 331/331/331 332/332/332 333/333/333
f 334/334/334 335/335/335 336/336/336
f 337/337/337 338/338/338 339/339/339
f 340/340/340 341/341/341 342/342/342
f 343/343/343 344/344/344 345/345/345
f 346/346/346 347/347/347 348/348/348
f 349/349/349 350/350/350 351/351/351
f 352/352/352 353/353/353 354/354/354
f 355/355/355 356/356/356 357/357/357
f 358/358/358 359/359/359 360/360/360
f 361/361/361 362/362/362 363/363/363
f 364/364/364 365/365/365 366/366/366
f 367/367/367 368/368/368 369/369/369
f 370/370/370 371/371/371 372/372/372
f 373/373/373 374/374/374 375/375/375
f 376/376/376 377/377/377 378/378/378
f 379/379/379 380/380/380 381/381/381
f 382/382/382 383/383/383 384/384/384
f 385/385/385 386/386/386 387/387/387
f 388/388/388 389/389/389 390/390/390
f 391/391/391 392/392/392 393/393/393
f 394/394/394 395/395/395 396/396/396
f 397/397/397 398/398/398 399/399/399
f 400/400/400 401/401/401 402/402/402
f 403/403/403 404/404/404 405/405/405
f 406/406/406 407/407/407 408/408/408
f 409/409/409 410/410/410 411/411/411
f 412/412/412 413/413/413 414/414/414
f 415/415/415 416/416/416 417/417/417
f 418/418/418 419/419/419 420/420/420
f 421/421/421 422/422/422 423/423/423
f 424/424/424 425/425/425 426/426/426
f 427/427/427 428/428/428 429/429/429
f 430/430/430 431/431/431 432/432/432
f 433/433/433 434/434/434 435/435/435
f 436/436/436 437/437/437 438/438/438
f 439/439/439 440/440/440 441/441/441
f 442/442/442 443/443/443 444/444/444
f 445/445/445 446/446/446 447/447/447
f 448/448/448 449/449/449 450/450/450
f 451/451/451 452/452/452 453/453/453
f 454/454/454 455/455/455 456/456/456
f 457/457/457 458/458/458 459/459/459
f 460/460/460 461/461/461 462/462/462
f 463/463/463 464/464/464 465/465/465
f 466/466/466 467/467/467 468/468/468
f 469/469/469 470/470/470 471/471/471
f 472/472/472 473/473/473 474/474/474
f 475/475/475 476/476/476 477/477/477
f 478/478/478 479/479/479 480/480/480
f 481/481/481 482/482/482 483/483/483
f 484/484/484 485/485/485 486/486/486
f 487/487/487 488/488/488 489/489/489
f 490/490/490 491/491/491 492/492/492
f 493/493/493 494/494/494 495/495/495
f 496/496/496 497/497/497 498/498/498
f 499/499/499 500/500/500 501/501/501
f 502/502/502 503/503/503 504/504/504
f 505/505/505 506/506/506 507/507/507
f 508/508/508 509/509/509 510/510/510
f 511/511/511 512/512/512 513/513/513
f 514/514/514 515/515/515 516/516/516
f 517/517/517 518/518/518 519/519/519
f 520/520/520 521/521/521 522/522/522
f 523/523/523 524/524/524 525/525/525
f 526/526/526 527/527/527 528/528/528
f 529/529/529 530/530/530 531/531/531
f 532/532/532 533/533/533 534/534/534
f 535/535/535 536/536/536 537/537/537
f 538/538/538 539/539/539 540/540/540
f 541/541/541 542/542/542 543/543/543