# OBJ file
mtllib kurohime.ico.mtl
v -1.095947 0.390869 -0.741211 0.498039 0.498039 0.498039 #0.498039
v -1.038086 0.247559 -0.888428 0.498039 0.498039 0.498039 #0.498039
v -0.984619 0.385254 -0.843018 0.498039 0.498039 0.498039 #0.498039
v -1.038086 0.247559 -0.888428 0.498039 0.498039 0.498039 #0.498039
v -0.910156 0.393555 -0.967773 0.498039 0.498039 0.498039 #0.498039
v -0.984619 0.385254 -0.843018 0.498039 0.498039 0.498039 #0.498039
v -0.964355 0.537109 -0.824707 0.498039 0.498039 0.498039 #0.498039
v -1.095947 0.390869 -0.741211 0.498039 0.498039 0.498039 #0.498039
v -0.984619 0.385254 -0.843018 0.498039 0.498039 0.498039 #0.498039
v -0.910156 0.393555 -0.967773 0.498039 0.498039 0.498039 #0.498039
v -0.964355 0.537109 -0.824707 0.498039 0.498039 0.498039 #0.498039
v -0.984619 0.385254 -0.843018 0.498039 0.498039 0.498039 #0.498039
v -1.022217 0.401367 -0.873779 0.498039 0.498039 0.498039 #0.498039
v -1.038086 0.247559 -0.888428 0.498039 0.498039 0.498039 #0.498039
v -1.095947 0.390869 -0.741211 0.498039 0.498039 0.498039 #0.498039
v -1.022217 0.401367 -0.873779 0.498039 0.498039 0.498039 #0.498039
v -0.910156 0.393555 -0.967773 0.498039 0.498039 0.498039 #0.498039
v -1.038086 0.247559 -0.888428 0.498039 0.498039 0.498039 #0.498039
v -0.964355 0.537109 -0.824707 0.498039 0.498039 0.498039 #0.498039
v -1.022217 0.401367 -0.873779 0.498039 0.498039 0.498039 #0.498039
v -1.095947 0.390869 -0.741211 0.498039 0.498039 0.498039 #0.498039
v -0.910156 0.393555 -0.967773 0.498039 0.498039 0.498039 #0.498039
v -1.022217 0.401367 -0.873779 0.498039 0.498039 0.498039 #0.498039
v -0.964355 0.537109 -0.824707 0.498039 0.498039 0.498039 #0.498039
v -0.949707 0.537109 -0.692871 0.498039 0.498039 0.498039 #0.498039
v -1.170410 0.634766 -0.827637 0.498039 0.498039 0.498039 #0.498039
v -0.987549 0.425781 -0.810059 0.498039 0.498039 0.498039 #0.498039
v -1.170410 0.634766 -0.827637 0.498039 0.498039 0.498039 #0.498039
v -1.132324 0.490234 -0.898438 0.498039 0.498039 0.498039 #0.498039
v -0.987549 0.425781 -0.810059 0.498039 0.498039 0.498039 #0.498039
v -1.109619 0.674316 -0.898682 0.498039 0.498039 0.498039 #0.498039
v -0.888916 0.576660 -0.764160 0.498039 0.498039 0.498039 #0.498039
v -0.945557 0.453369 -0.858398 0.498039 0.498039 0.498039 #0.498039
v -1.090332 0.517578 -0.947266 0.498039 0.498039 0.498039 #0.498039
v -1.109619 0.674316 -0.898682 0.498039 0.498039 0.498039 #0.498039
v -0.945557 0.453369 -0.858398 0.498039 0.498039 0.498039 #0.498039
v 0.325928 3.736816 1.938965 0.498039 0.498039 0.498039 #0.498039
v 0.183838 3.638184 2.108643 0.498039 0.498039 0.498039 #0.498039
v 0.361084 3.639160 2.001709 0.498039 0.498039 0.498039 #0.498039
v 0.183838 3.638184 2.108643 0.498039 0.498039 0.498039 #0.498039
v 0.288818 3.591797 2.086670 0.498039 0.498039 0.498039 #0.498039
v 0.361084 3.639160 2.001709 0.498039 0.498039 0.498039 #0.498039
v 0.325928 3.736816 1.938965 0.498039 0.498039 0.498039 #0.498039
v 0.147217 3.737305 2.045654 0.498039 0.498039 0.498039 #0.498039
v 0.183838 3.638184 2.108643 0.498039 0.498039 0.498039 #0.498039
v 0.217773 3.786377 1.960449 0.498039 0.498039 0.498039 #0.498039
v 0.147217 3.737305 2.045654 0.498039 0.498039 0.498039 #0.498039
v 0.325928 3.736816 1.938965 0.498039 0.498039 0.498039 #0.498039
v -1.141113 1.743652 0.302734 0.498039 0.498039 0.498039 #0.498039
v -1.167969 2.002441 0.095215 0.498039 0.498039 0.498039 #0.498039
v -0.918701 1.514893 0.366211 0.498039 0.498039 0.498039 #0.498039
v -0.918701 1.514893 0.366211 0.498039 0.498039 0.498039 #0.498039
v -1.167969 2.002441 0.095215 0.498039 0.498039 0.498039 #0.498039
v -0.628662 1.447266 0.249023 0.498039 0.498039 0.498039 #0.498039
v -0.810059 2.514404 0.687500 0.498039 0.498039 0.498039 #0.498039
v -0.783447 2.255371 0.895508 0.498039 0.498039 0.498039 #0.498039
v -0.561035 2.026611 0.958740 0.498039 0.498039 0.498039 #0.498039
v -0.810059 2.514404 0.687500 0.498039 0.498039 0.498039 #0.498039
v -0.561035 2.026611 0.958740 0.498039 0.498039 0.498039 #0.498039
v -0.270752 1.959473 0.841309 0.498039 0.498039 0.498039 #0.498039
v -0.080566 2.091064 0.612305 0.498039 0.498039 0.498039 #0.498039
v -0.810059 2.514404 0.687500 0.498039 0.498039 0.498039 #0.498039
v -0.270752 1.959473 0.841309 0.498039 0.498039 0.498039 #0.498039
v -1.167969 2.002441 0.095215 0.498039 0.498039 0.498039 #0.498039
v -0.977539 2.134277 -0.133789 0.498039 0.498039 0.498039 #0.498039
v -0.628662 1.447266 0.249023 0.498039 0.498039 0.498039 #0.498039
v -0.977539 2.134277 -0.133789 0.498039 0.498039 0.498039 #0.498039
v -0.682129 2.061279 -0.249512 0.498039 0.498039 0.498039 #0.498039
v -0.459717 1.832520 -0.186279 0.498039 0.498039 0.498039 #0.498039
v -0.977539 2.134277 -0.133789 0.498039 0.498039 0.498039 #0.498039
v -0.459717 1.832520 -0.186279 0.498039 0.498039 0.498039 #0.498039
v -0.438232 1.579102 0.019775 0.498039 0.498039 0.498039 #0.498039
v -0.977539 2.134277 -0.133789 0.498039 0.498039 0.498039 #0.498039
v -0.438232 1.579102 0.019775 0.498039 0.498039 0.498039 #0.498039
v -0.628662 1.447266 0.249023 0.498039 0.498039 0.498039 #0.498039
v -0.324219 2.573242 0.342529 0.498039 0.498039 0.498039 #0.498039
v -0.619873 2.645996 0.458496 0.498039 0.498039 0.498039 #0.498039
v -0.101807 2.344482 0.405762 0.498039 0.498039 0.498039 #0.498039
v -0.619873 2.645996 0.458496 0.498039 0.498039 0.498039 #0.498039
v -0.810059 2.514404 0.687500 0.498039 0.498039 0.498039 #0.498039
v -0.080566 2.091064 0.612305 0.498039 0.498039 0.498039 #0.498039
v -0.101807 2.344482 0.405762 0.498039 0.498039 0.498039 #0.498039
v -0.619873 2.645996 0.458496 0.498039 0.498039 0.498039 #0.498039
v -0.080566 2.091064 0.612305 0.498039 0.498039 0.498039 #0.498039
v -0.654541 1.414795 -0.023438 0.498039 0.498039 0.498039 #0.498039
v -0.883057 1.376953 -0.182373 0.498039 0.498039 0.498039 #0.498039
v -0.642822 1.348633 -0.007324 0.498039 0.498039 0.498039 #0.498039
v -0.828613 1.461670 -0.160400 0.498039 0.498039 0.498039 #0.498039
v -0.883057 1.376953 -0.182373 0.498039 0.498039 0.498039 #0.498039
v -0.654541 1.414795 -0.023438 0.498039 0.498039 0.498039 #0.498039
v -0.557129 1.496826 0.162842 0.498039 0.498039 0.498039 #0.498039
v -0.654541 1.414795 -0.023438 0.498039 0.498039 0.498039 #0.498039
v -0.642822 1.348633 -0.007324 0.498039 0.498039 0.498039 #0.498039
v -0.570313 1.550781 0.124756 0.498039 0.498039 0.498039 #0.498039
v -0.654541 1.414795 -0.023438 0.498039 0.498039 0.498039 #0.498039
v -0.557129 1.496826 0.162842 0.498039 0.498039 0.498039 #0.498039
v -0.827881 1.413086 -0.252197 0.498039 0.498039 0.498039 #0.498039
v -0.654541 1.414795 -0.023438 0.498039 0.498039 0.498039 #0.498039
v -0.606201 1.372314 -0.049561 0.498039 0.498039 0.498039 #0.498039
v -0.827881 1.413086 -0.252197 0.498039 0.498039 0.498039 #0.498039
v -0.828613 1.461670 -0.160400 0.498039 0.498039 0.498039 #0.498039
v -0.654541 1.414795 -0.023438 0.498039 0.498039 0.498039 #0.498039
v 0.158691 3.602295 2.067383 0.498039 0.498039 0.498039 #0.498039
v 0.262939 3.555664 2.044678 0.498039 0.498039 0.498039 #0.498039
v 0.288818 3.591797 2.086670 0.498039 0.498039 0.498039 #0.498039
v 0.183838 3.638184 2.108643 0.498039 0.498039 0.498039 #0.498039
v 0.158691 3.602295 2.067383 0.498039 0.498039 0.498039 #0.498039
v 0.288818 3.591797 2.086670 0.498039 0.498039 0.498039 #0.498039
v 0.147217 3.737305 2.045654 0.498039 0.498039 0.498039 #0.498039
v 0.158691 3.602295 2.067383 0.498039 0.498039 0.498039 #0.498039
v 0.183838 3.638184 2.108643 0.498039 0.498039 0.498039 #0.498039
v 0.147217 3.737305 2.045654 0.498039 0.498039 0.498039 #0.498039
v 0.121826 3.701416 2.004150 0.498039 0.498039 0.498039 #0.498039
v 0.158691 3.602295 2.067383 0.498039 0.498039 0.498039 #0.498039
v 0.336182 3.602783 1.959717 0.498039 0.498039 0.498039 #0.498039
v 0.325928 3.736816 1.938965 0.498039 0.498039 0.498039 #0.498039
v 0.361084 3.639160 2.001709 0.498039 0.498039 0.498039 #0.498039
v 0.300537 3.700439 1.896729 0.498039 0.498039 0.498039 #0.498039
v 0.325928 3.736816 1.938965 0.498039 0.498039 0.498039 #0.498039
v 0.336182 3.602783 1.959717 0.498039 0.498039 0.498039 #0.498039
v 0.300537 3.700439 1.896729 0.498039 0.498039 0.498039 #0.498039
v 0.217773 3.786377 1.960449 0.498039 0.498039 0.498039 #0.498039
v 0.325928 3.736816 1.938965 0.498039 0.498039 0.498039 #0.498039
v 0.192627 3.750244 1.918945 0.498039 0.498039 0.498039 #0.498039
v 0.217773 3.786377 1.960449 0.498039 0.498039 0.498039 #0.498039
v 0.300537 3.700439 1.896729 0.498039 0.498039 0.498039 #0.498039
v 0.192627 3.750244 1.918945 0.498039 0.498039 0.498039 #0.498039
v 0.121826 3.701416 2.004150 0.498039 0.498039 0.498039 #0.498039
v 0.147217 3.737305 2.045654 0.498039 0.498039 0.498039 #0.498039
v 0.217773 3.786377 1.960449 0.498039 0.498039 0.498039 #0.498039
v 0.192627 3.750244 1.918945 0.498039 0.498039 0.498039 #0.498039
v 0.147217 3.737305 2.045654 0.498039 0.498039 0.498039 #0.498039
v 0.288818 3.591797 2.086670 0.498039 0.498039 0.498039 #0.498039
v 0.336182 3.602783 1.959717 0.498039 0.498039 0.498039 #0.498039
v 0.361084 3.639160 2.001709 0.498039 0.498039 0.498039 #0.498039
v 0.288818 3.591797 2.086670 0.498039 0.498039 0.498039 #0.498039
v 0.262939 3.555664 2.044678 0.498039 0.498039 0.498039 #0.498039
v 0.336182 3.602783 1.959717 0.498039 0.498039 0.498039 #0.498039
v -0.398926 2.013428 0.959717 0.498039 0.498039 0.498039 #0.498039
v -0.423340 1.977295 0.918213 0.498039 0.498039 0.498039 #0.498039
v -0.133545 2.042236 0.774170 0.498039 0.498039 0.498039 #0.498039
v -0.423340 1.977295 0.918213 0.498039 0.498039 0.498039 #0.498039
v -0.158203 2.006592 0.732422 0.498039 0.498039 0.498039 #0.498039
v -0.133545 2.042236 0.774170 0.498039 0.498039 0.498039 #0.498039
v -0.714844 2.641113 0.607910 0.498039 0.498039 0.498039 #0.498039
v -0.739990 2.605225 0.566406 0.498039 0.498039 0.498039 #0.498039
v -0.809570 2.436523 0.842041 0.498039 0.498039 0.498039 #0.498039
v -0.739990 2.605225 0.566406 0.498039 0.498039 0.498039 #0.498039
v -0.835205 2.400635 0.801025 0.498039 0.498039 0.498039 #0.498039
v -0.809570 2.436523 0.842041 0.498039 0.498039 0.498039 #0.498039
v -0.809570 2.436523 0.842041 0.498039 0.498039 0.498039 #0.498039
v -0.423340 1.977295 0.918213 0.498039 0.498039 0.498039 #0.498039
v -0.398926 2.013428 0.959717 0.498039 0.498039 0.498039 #0.498039
v -0.809570 2.436523 0.842041 0.498039 0.498039 0.498039 #0.498039
v -0.835205 2.400635 0.801025 0.498039 0.498039 0.498039 #0.498039
v -0.423340 1.977295 0.918213 0.498039 0.498039 0.498039 #0.498039
v -0.063477 2.211182 0.498047 0.498039 0.498039 0.498039 #0.498039
v -0.038330 2.246582 0.539795 0.498039 0.498039 0.498039 #0.498039
v -0.158203 2.006592 0.732422 0.498039 0.498039 0.498039 #0.498039
v -0.158203 2.006592 0.732422 0.498039 0.498039 0.498039 #0.498039
v -0.038330 2.246582 0.539795 0.498039 0.498039 0.498039 #0.498039
v -0.133545 2.042236 0.774170 0.498039 0.498039 0.498039 #0.498039
v -0.739990 2.605225 0.566406 0.498039 0.498039 0.498039 #0.498039
v -0.714844 2.641113 0.607910 0.498039 0.498039 0.498039 #0.498039
v -0.473877 2.634766 0.380859 0.498039 0.498039 0.498039 #0.498039
v -0.473877 2.634766 0.380859 0.498039 0.498039 0.498039 #0.498039
v -0.714844 2.641113 0.607910 0.498039 0.498039 0.498039 #0.498039
v -0.448975 2.669922 0.422119 0.498039 0.498039 0.498039 #0.498039
v -0.473877 2.634766 0.380859 0.498039 0.498039 0.498039 #0.498039
v -0.448975 2.669922 0.422119 0.498039 0.498039 0.498039 #0.498039
v -0.038330 2.246582 0.539795 0.498039 0.498039 0.498039 #0.498039
v -0.063477 2.211182 0.498047 0.498039 0.498039 0.498039 #0.498039
v -0.473877 2.634766 0.380859 0.498039 0.498039 0.498039 #0.498039
v -0.038330 2.246582 0.539795 0.498039 0.498039 0.498039 #0.498039
v -0.783447 2.255371 0.895508 0.498039 0.498039 0.498039 #0.498039
v -1.141113 1.743652 0.302734 0.498039 0.498039 0.498039 #0.498039
v -0.918701 1.514893 0.366211 0.498039 0.498039 0.498039 #0.498039
v -0.783447 2.255371 0.895508 0.498039 0.498039 0.498039 #0.498039
v -0.918701 1.514893 0.366211 0.498039 0.498039 0.498039 #0.498039
v -0.561035 2.026611 0.958740 0.498039 0.498039 0.498039 #0.498039
v -0.561035 2.026611 0.958740 0.498039 0.498039 0.498039 #0.498039
v -0.918701 1.514893 0.366211 0.498039 0.498039 0.498039 #0.498039
v -0.628662 1.447266 0.249023 0.498039 0.498039 0.498039 #0.498039
v -0.561035 2.026611 0.958740 0.498039 0.498039 0.498039 #0.498039
v -0.628662 1.447266 0.249023 0.498039 0.498039 0.498039 #0.498039
v -0.270752 1.959473 0.841309 0.498039 0.498039 0.498039 #0.498039
v -0.628662 1.447266 0.249023 0.498039 0.498039 0.498039 #0.498039
v -0.438232 1.579102 0.019775 0.498039 0.498039 0.498039 #0.498039
v -0.270752 1.959473 0.841309 0.498039 0.498039 0.498039 #0.498039
v -0.438232 1.579102 0.019775 0.498039 0.498039 0.498039 #0.498039
v -0.080566 2.091064 0.612305 0.498039 0.498039 0.498039 #0.498039
v -0.270752 1.959473 0.841309 0.498039 0.498039 0.498039 #0.498039
v -0.438232 1.579102 0.019775 0.498039 0.498039 0.498039 #0.498039
v -0.459717 1.832520 -0.186279 0.498039 0.498039 0.498039 #0.498039
v -0.080566 2.091064 0.612305 0.498039 0.498039 0.498039 #0.498039
v -0.459717 1.832520 -0.186279 0.498039 0.498039 0.498039 #0.498039
v -0.101807 2.344482 0.405762 0.498039 0.498039 0.498039 #0.498039
v -0.080566 2.091064 0.612305 0.498039 0.498039 0.498039 #0.498039
v -0.459717 1.832520 -0.186279 0.498039 0.498039 0.498039 #0.498039
v -0.682129 2.061279 -0.249512 0.498039 0.498039 0.498039 #0.498039
v -0.101807 2.344482 0.405762 0.498039 0.498039 0.498039 #0.498039
v -0.682129 2.061279 -0.249512 0.498039 0.498039 0.498039 #0.498039
v -0.324219 2.573242 0.342529 0.498039 0.498039 0.498039 #0.498039
v -0.101807 2.344482 0.405762 0.498039 0.498039 0.498039 #0.498039
v -0.682129 2.061279 -0.249512 0.498039 0.498039 0.498039 #0.498039
v -0.977539 2.134277 -0.133789 0.498039 0.498039 0.498039 #0.498039
v -0.324219 2.573242 0.342529 0.498039 0.498039 0.498039 #0.498039
v -0.977539 2.134277 -0.133789 0.498039 0.498039 0.498039 #0.498039
v -0.619873 2.645996 0.458496 0.498039 0.498039 0.498039 #0.498039
v -0.324219 2.573242 0.342529 0.498039 0.498039 0.498039 #0.498039
v -0.977539 2.134277 -0.133789 0.498039 0.498039 0.498039 #0.498039
v -1.167969 2.002441 0.095215 0.498039 0.498039 0.498039 #0.498039
v -0.619873 2.645996 0.458496 0.498039 0.498039 0.498039 #0.498039
v -0.619873 2.645996 0.458496 0.498039 0.498039 0.498039 #0.498039
v -1.167969 2.002441 0.095215 0.498039 0.498039 0.498039 #0.498039
v -0.810059 2.514404 0.687500 0.498039 0.498039 0.498039 #0.498039
v -1.167969 2.002441 0.095215 0.498039 0.498039 0.498039 #0.498039
v -1.141113 1.743652 0.302734 0.498039 0.498039 0.498039 #0.498039
v -0.783447 2.255371 0.895508 0.498039 0.498039 0.498039 #0.498039
v -0.810059 2.514404 0.687500 0.498039 0.498039 0.498039 #0.498039
v -1.167969 2.002441 0.095215 0.498039 0.498039 0.498039 #0.498039
v -0.783447 2.255371 0.895508 0.498039 0.498039 0.498039 #0.498039
v -0.888916 0.576660 -0.764160 0.498039 0.498039 0.498039 #0.498039
v -0.987549 0.425781 -0.810059 0.498039 0.498039 0.498039 #0.498039
v -0.945557 0.453369 -0.858398 0.498039 0.498039 0.498039 #0.498039
v -0.888916 0.576660 -0.764160 0.498039 0.498039 0.498039 #0.498039
v -0.949707 0.537109 -0.692871 0.498039 0.498039 0.498039 #0.498039
v -0.987549 0.425781 -0.810059 0.498039 0.498039 0.498039 #0.498039
v -1.132324 0.490234 -0.898438 0.498039 0.498039 0.498039 #0.498039
v -1.090332 0.517578 -0.947266 0.498039 0.498039 0.498039 #0.498039
v -0.945557 0.453369 -0.858398 0.498039 0.498039 0.498039 #0.498039
v -0.987549 0.425781 -0.810059 0.498039 0.498039 0.498039 #0.498039
v -1.132324 0.490234 -0.898438 0.498039 0.498039 0.498039 #0.498039
v -0.945557 0.453369 -0.858398 0.498039 0.498039 0.498039 #0.498039
v -1.170410 0.634766 -0.827637 0.498039 0.498039 0.498039 #0.498039
v -1.109619 0.674316 -0.898682 0.498039 0.498039 0.498039 #0.498039
v -1.090332 0.517578 -0.947266 0.498039 0.498039 0.498039 #0.498039
v -1.132324 0.490234 -0.898438 0.498039 0.498039 0.498039 #0.498039
v -1.170410 0.634766 -0.827637 0.498039 0.498039 0.498039 #0.498039
v -1.090332 0.517578 -0.947266 0.498039 0.498039 0.498039 #0.498039
v -0.835205 2.400635 0.801025 0.498039 0.498039 0.498039 #0.498039
v -0.739990 2.605225 0.566406 0.498039 0.498039 0.498039 #0.498039
v -0.158203 2.006592 0.732422 0.498039 0.498039 0.498039 #0.498039
v -0.423340 1.977295 0.918213 0.498039 0.498039 0.498039 #0.498039
v -0.835205 2.400635 0.801025 0.498039 0.498039 0.498039 #0.498039
v -0.158203 2.006592 0.732422 0.498039 0.498039 0.498039 #0.498039
v -0.714844 2.641113 0.607910 0.498039 0.498039 0.498039 #0.498039
v -0.398926 2.013428 0.959717 0.498039 0.498039 0.498039 #0.498039
v -0.133545 2.042236 0.774170 0.498039 0.498039 0.498039 #0.498039
v -0.714844 2.641113 0.607910 0.498039 0.498039 0.498039 #0.498039
v -0.809570 2.436523 0.842041 0.498039 0.498039 0.498039 #0.498039
v -0.398926 2.013428 0.959717 0.498039 0.498039 0.498039 #0.498039
v -0.739990 2.605225 0.566406 0.498039 0.498039 0.498039 #0.498039
v -0.063477 2.211182 0.498047 0.498039 0.498039 0.498039 #0.498039
v -0.158203 2.006592 0.732422 0.498039 0.498039 0.498039 #0.498039
v -0.739990 2.605225 0.566406 0.498039 0.498039 0.498039 #0.498039
v -0.473877 2.634766 0.380859 0.498039 0.498039 0.498039 #0.498039
v -0.063477 2.211182 0.498047 0.498039 0.498039 0.498039 #0.498039
v -0.448975 2.669922 0.422119 0.498039 0.498039 0.498039 #0.498039
v -0.714844 2.641113 0.607910 0.498039 0.498039 0.498039 #0.498039
v -0.133545 2.042236 0.774170 0.498039 0.498039 0.498039 #0.498039
v -0.038330 2.246582 0.539795 0.498039 0.498039 0.498039 #0.498039
v -0.448975 2.669922 0.422119 0.498039 0.498039 0.498039 #0.498039
v -0.133545 2.042236 0.774170 0.498039 0.498039 0.498039 #0.498039
v -0.654541 1.414795 -0.023438 0.498039 0.498039 0.498039 #0.498039
v -0.570313 1.550781 0.124756 0.498039 0.498039 0.498039 #0.498039
v -0.510254 1.529297 0.106445 0.498039 0.498039 0.498039 #0.498039
v -0.654541 1.414795 -0.023438 0.498039 0.498039 0.498039 #0.498039
v -0.510254 1.529297 0.106445 0.498039 0.498039 0.498039 #0.498039
v -0.606201 1.372314 -0.049561 0.498039 0.498039 0.498039 #0.498039
v -0.510254 1.529297 0.106445 0.498039 0.498039 0.498039 #0.498039
v -0.557129 1.496826 0.162842 0.498039 0.498039 0.498039 #0.498039
v -0.606201 1.372314 -0.049561 0.498039 0.498039 0.498039 #0.498039
v -0.557129 1.496826 0.162842 0.498039 0.498039 0.498039 #0.498039
v -0.642822 1.348633 -0.007324 0.498039 0.498039 0.498039 #0.498039
v -0.606201 1.372314 -0.049561 0.498039 0.498039 0.498039 #0.498039
v -0.883057 1.376953 -0.182373 0.498039 0.498039 0.498039 #0.498039
v -0.827881 1.413086 -0.252197 0.498039 0.498039 0.498039 #0.498039
v -0.606201 1.372314 -0.049561 0.498039 0.498039 0.498039 #0.498039
v -0.642822 1.348633 -0.007324 0.498039 0.498039 0.498039 #0.498039
v -0.883057 1.376953 -0.182373 0.498039 0.498039 0.498039 #0.498039
v -0.606201 1.372314 -0.049561 0.498039 0.498039 0.498039 #0.498039
v -0.859131 1.642334 -0.018066 0.498039 0.498039 0.498039 #0.498039
v -0.825684 1.510742 -0.129883 0.498039 0.498039 0.498039 #0.498039
v -0.631348 1.493896 0.040771 0.498039 0.498039 0.498039 #0.498039
v -0.825684 1.510742 -0.129883 0.498039 0.498039 0.498039 #0.498039
v -0.803467 1.676270 -0.074707 0.498039 0.498039 0.498039 #0.498039
v -0.631348 1.493896 0.040771 0.498039 0.498039 0.498039 #0.498039
v -0.803467 1.676270 -0.074707 0.498039 0.498039 0.498039 #0.498039
v -0.859131 1.642334 -0.018066 0.498039 0.498039 0.498039 #0.498039
v -0.631348 1.493896 0.040771 0.498039 0.498039 0.498039 #0.498039
v -0.636230 2.651855 0.551270 0.498039 0.498039 0.498039 #0.498039
v 0.144287 3.768311 1.843750 0.498039 0.498039 0.498039 #0.498039
v -0.528564 2.601807 0.529297 0.498039 0.498039 0.498039 #0.498039
v -0.528564 2.601807 0.529297 0.498039 0.498039 0.498039 #0.498039
v 0.144287 3.768311 1.843750 0.498039 0.498039 0.498039 #0.498039
v 0.251709 3.718506 1.821777 0.498039 0.498039 0.498039 #0.498039
v 0.637207 3.311035 2.030029 0.498039 0.498039 0.498039 #0.498039
v 0.545166 3.247314 2.140869 0.498039 0.498039 0.498039 #0.498039
v 0.621094 3.248535 2.093750 0.498039 0.498039 0.498039 #0.498039
v -0.705322 2.479492 0.742188 0.498039 0.498039 0.498039 #0.498039
v -0.312744 2.074951 0.854492 0.498039 0.498039 0.498039 #0.498039
v 0.462891 3.198975 2.144043 0.498039 0.498039 0.498039 #0.498039
v 0.074707 3.595947 2.034912 0.498039 0.498039 0.498039 #0.498039
v -0.705322 2.479492 0.742188 0.498039 0.498039 0.498039 #0.498039
v 0.462891 3.198975 2.144043 0.498039 0.498039 0.498039 #0.498039
v 0.100098 3.632324 2.077148 0.498039 0.498039 0.498039 #0.498039
v 0.458008 3.274658 2.081055 0.498039 0.498039 0.498039 #0.498039
v 0.483398 3.311035 2.123047 0.498039 0.498039 0.498039 #0.498039
v 0.100098 3.632324 2.077148 0.498039 0.498039 0.498039 #0.498039
v 0.074707 3.595947 2.034912 0.498039 0.498039 0.498039 #0.498039
v 0.458008 3.274658 2.081055 0.498039 0.498039 0.498039 #0.498039
v 0.458008 3.274658 2.081055 0.498039 0.498039 0.498039 #0.498039
v 0.519775 3.210938 2.098633 0.498039 0.498039 0.498039 #0.498039
v 0.545166 3.247314 2.140869 0.498039 0.498039 0.498039 #0.498039
v 0.483398 3.311035 2.123047 0.498039 0.498039 0.498039 #0.498039
v 0.458008 3.274658 2.081055 0.498039 0.498039 0.498039 #0.498039
v 0.545166 3.247314 2.140869 0.498039 0.498039 0.498039 #0.498039
v 0.519775 3.210938 2.098633 0.498039 0.498039 0.498039 #0.498039
v 0.595215 3.212158 2.052002 0.498039 0.498039 0.498039 #0.498039
v 0.621094 3.248535 2.093750 0.498039 0.498039 0.498039 #0.498039
v 0.545166 3.247314 2.140869 0.498039 0.498039 0.498039 #0.498039
v 0.519775 3.210938 2.098633 0.498039 0.498039 0.498039 #0.498039
v 0.621094 3.248535 2.093750 0.498039 0.498039 0.498039 #0.498039
v -0.528564 2.601807 0.529297 0.498039 0.498039 0.498039 #0.498039
v 0.251709 3.718506 1.821777 0.498039 0.498039 0.498039 #0.498039
v 0.638672 3.318604 1.933838 0.498039 0.498039 0.498039 #0.498039
v -0.135986 2.197266 0.641602 0.498039 0.498039 0.498039 #0.498039
v -0.528564 2.601807 0.529297 0.498039 0.498039 0.498039 #0.498039
v 0.638672 3.318604 1.933838 0.498039 0.498039 0.498039 #0.498039
v 0.251709 3.718506 1.821777 0.498039 0.498039 0.498039 #0.498039
v 0.277344 3.754883 1.863770 0.498039 0.498039 0.498039 #0.498039
v 0.575195 3.374512 2.012695 0.498039 0.498039 0.498039 #0.498039
v 0.549561 3.338135 1.970703 0.498039 0.498039 0.498039 #0.498039
v 0.251709 3.718506 1.821777 0.498039 0.498039 0.498039 #0.498039
v 0.575195 3.374512 2.012695 0.498039 0.498039 0.498039 #0.498039
v 0.611572 3.274414 1.988281 0.498039 0.498039 0.498039 #0.498039
v 0.575195 3.374512 2.012695 0.498039 0.498039 0.498039 #0.498039
v 0.637207 3.311035 2.030029 0.498039 0.498039 0.498039 #0.498039
v 0.549561 3.338135 1.970703 0.498039 0.498039 0.498039 #0.498039
v 0.575195 3.374512 2.012695 0.498039 0.498039 0.498039 #0.498039
v 0.611572 3.274414 1.988281 0.498039 0.498039 0.498039 #0.498039
v 0.595215 3.212158 2.052002 0.498039 0.498039 0.498039 #0.498039
v 0.637207 3.311035 2.030029 0.498039 0.498039 0.498039 #0.498039
v 0.621094 3.248535 2.093750 0.498039 0.498039 0.498039 #0.498039
v 0.611572 3.274414 1.988281 0.498039 0.498039 0.498039 #0.498039
v 0.637207 3.311035 2.030029 0.498039 0.498039 0.498039 #0.498039
v 0.595215 3.212158 2.052002 0.498039 0.498039 0.498039 #0.498039
v 0.549561 3.338135 1.970703 0.498039 0.498039 0.498039 #0.498039
v 0.575195 3.374512 2.012695 0.498039 0.498039 0.498039 #0.498039
v 0.458008 3.274658 2.081055 0.498039 0.498039 0.498039 #0.498039
v 0.458008 3.274658 2.081055 0.498039 0.498039 0.498039 #0.498039
v 0.575195 3.374512 2.012695 0.498039 0.498039 0.498039 #0.498039
v 0.483398 3.311035 2.123047 0.498039 0.498039 0.498039 #0.498039
v 0.575195 3.374512 2.012695 0.498039 0.498039 0.498039 #0.498039
v 0.549561 3.338135 1.970703 0.498039 0.498039 0.498039 #0.498039
v 0.483398 3.311035 2.123047 0.498039 0.498039 0.498039 #0.498039
v 0.549561 3.338135 1.970703 0.498039 0.498039 0.498039 #0.498039
v 0.458008 3.274658 2.081055 0.498039 0.498039 0.498039 #0.498039
v 0.483398 3.311035 2.123047 0.498039 0.498039 0.498039 #0.498039
v 0.277344 3.754883 1.863770 0.498039 0.498039 0.498039 #0.498039
v 0.169434 3.804443 1.885986 0.498039 0.498039 0.498039 #0.498039
v 0.100098 3.632324 2.077148 0.498039 0.498039 0.498039 #0.498039
v 0.169434 3.804443 1.885986 0.498039 0.498039 0.498039 #0.498039
v 0.063232 3.730957 2.013916 0.498039 0.498039 0.498039 #0.498039
v 0.100098 3.632324 2.077148 0.498039 0.498039 0.498039 #0.498039
v 0.575195 3.374512 2.012695 0.498039 0.498039 0.498039 #0.498039
v 0.277344 3.754883 1.863770 0.498039 0.498039 0.498039 #0.498039
v 0.483398 3.311035 2.123047 0.498039 0.498039 0.498039 #0.498039
v 0.277344 3.754883 1.863770 0.498039 0.498039 0.498039 #0.498039
v 0.100098 3.632324 2.077148 0.498039 0.498039 0.498039 #0.498039
v 0.483398 3.311035 2.123047 0.498039 0.498039 0.498039 #0.498039
v 0.637207 3.311035 2.030029 0.498039 0.498039 0.498039 #0.498039
v 0.575195 3.374512 2.012695 0.498039 0.498039 0.498039 #0.498039
v 0.545166 3.247314 2.140869 0.498039 0.498039 0.498039 #0.498039
v 0.575195 3.374512 2.012695 0.498039 0.498039 0.498039 #0.498039
v 0.483398 3.311035 2.123047 0.498039 0.498039 0.498039 #0.498039
v 0.545166 3.247314 2.140869 0.498039 0.498039 0.498039 #0.498039
v 0.462891 3.198975 2.144043 0.498039 0.498039 0.498039 #0.498039
v -0.312744 2.074951 0.854492 0.498039 0.498039 0.498039 #0.498039
v 0.576172 3.140625 2.125244 0.498039 0.498039 0.498039 #0.498039
v -0.312744 2.074951 0.854492 0.498039 0.498039 0.498039 #0.498039
v -0.203857 2.023438 0.833008 0.498039 0.498039 0.498039 #0.498039
v 0.576172 3.140625 2.125244 0.498039 0.498039 0.498039 #0.498039
v 0.038086 3.694824 1.971436 0.498039 0.498039 0.498039 #0.498039
v -0.742188 2.577637 0.679199 0.498039 0.498039 0.498039 #0.498039
v 0.074707 3.595947 2.034912 0.498039 0.498039 0.498039 #0.498039
v -0.742188 2.577637 0.679199 0.498039 0.498039 0.498039 #0.498039
v -0.705322 2.479492 0.742188 0.498039 0.498039 0.498039 #0.498039
v 0.074707 3.595947 2.034912 0.498039 0.498039 0.498039 #0.498039
v 0.063232 3.730957 2.013916 0.498039 0.498039 0.498039 #0.498039
v 0.074707 3.595947 2.034912 0.498039 0.498039 0.498039 #0.498039
v 0.100098 3.632324 2.077148 0.498039 0.498039 0.498039 #0.498039
v 0.063232 3.730957 2.013916 0.498039 0.498039 0.498039 #0.498039
v 0.038086 3.694824 1.971436 0.498039 0.498039 0.498039 #0.498039
v 0.074707 3.595947 2.034912 0.498039 0.498039 0.498039 #0.498039
v -0.135986 2.197266 0.641602 0.498039 0.498039 0.498039 #0.498039
v 0.638672 3.318604 1.933838 0.498039 0.498039 0.498039 #0.498039
v 0.682373 3.214111 1.997559 0.498039 0.498039 0.498039 #0.498039
v -0.098145 2.097900 0.705078 0.498039 0.498039 0.498039 #0.498039
v -0.135986 2.197266 0.641602 0.498039 0.498039 0.498039 #0.498039
v 0.682373 3.214111 1.997559 0.498039 0.498039 0.498039 #0.498039
v 0.144287 3.768311 1.843750 0.498039 0.498039 0.498039 #0.498039
v 0.169434 3.804443 1.885986 0.498039 0.498039 0.498039 #0.498039
v 0.277344 3.754883 1.863770 0.498039 0.498039 0.498039 #0.498039
v 0.251709 3.718506 1.821777 0.498039 0.498039 0.498039 #0.498039
v 0.144287 3.768311 1.843750 0.498039 0.498039 0.498039 #0.498039
v 0.277344 3.754883 1.863770 0.498039 0.498039 0.498039 #0.498039
v 0.251709 3.718506 1.821777 0.498039 0.498039 0.498039 #0.498039
v 0.074707 3.595947 2.034912 0.498039 0.498039 0.498039 #0.498039
v 0.638672 3.318604 1.933838 0.498039 0.498039 0.498039 #0.498039
v 0.638672 3.318604 1.933838 0.498039 0.498039 0.498039 #0.498039
v 0.074707 3.595947 2.034912 0.498039 0.498039 0.498039 #0.498039
v 0.462891 3.198975 2.144043 0.498039 0.498039 0.498039 #0.498039
v 0.638672 3.318604 1.933838 0.498039 0.498039 0.498039 #0.498039
v 0.462891 3.198975 2.144043 0.498039 0.498039 0.498039 #0.498039
v 0.682373 3.214111 1.997559 0.498039 0.498039 0.498039 #0.498039
v 0.682373 3.214111 1.997559 0.498039 0.498039 0.498039 #0.498039
v 0.462891 3.198975 2.144043 0.498039 0.498039 0.498039 #0.498039
v 0.576172 3.140625 2.125244 0.498039 0.498039 0.498039 #0.498039
v -0.636230 2.651855 0.551270 0.498039 0.498039 0.498039 #0.498039
v -0.742188 2.577637 0.679199 0.498039 0.498039 0.498039 #0.498039
v 0.038086 3.694824 1.971436 0.498039 0.498039 0.498039 #0.498039
v 0.144287 3.768311 1.843750 0.498039 0.498039 0.498039 #0.498039
v -0.636230 2.651855 0.551270 0.498039 0.498039 0.498039 #0.498039
v 0.038086 3.694824 1.971436 0.498039 0.498039 0.498039 #0.498039
v -0.098145 2.097900 0.705078 0.498039 0.498039 0.498039 #0.498039
v 0.682373 3.214111 1.997559 0.498039 0.498039 0.498039 #0.498039
v 0.576172 3.140625 2.125244 0.498039 0.498039 0.498039 #0.498039
v -0.203857 2.023438 0.833008 0.498039 0.498039 0.498039 #0.498039
v -0.098145 2.097900 0.705078 0.498039 0.498039 0.498039 #0.498039
v 0.576172 3.140625 2.125244 0.498039 0.498039 0.498039 #0.498039
v 0.169434 3.804443 1.885986 0.498039 0.498039 0.498039 #0.498039
v 0.144287 3.768311 1.843750 0.498039 0.498039 0.498039 #0.498039
v 0.063232 3.730957 2.013916 0.498039 0.498039 0.498039 #0.498039
v 0.144287 3.768311 1.843750 0.498039 0.498039 0.498039 #0.498039
v 0.038086 3.694824 1.971436 0.498039 0.498039 0.498039 #0.498039
v 0.063232 3.730957 2.013916 0.498039 0.498039 0.498039 #0.498039
v -0.872314 1.785156 0.108398 0.498039 0.498039 0.498039 #0.498039
v -1.212158 0.635010 -0.825684 0.498039 0.498039 0.498039 #0.498039
v -0.939941 0.513672 -0.659180 0.498039 0.498039 0.498039 #0.498039
v -0.872314 1.785156 0.108398 0.498039 0.498039 0.498039 #0.498039
v -1.104736 2.002686 0.056396 0.498039 0.498039 0.498039 #0.498039
v -1.212158 0.635010 -0.825684 0.498039 0.498039 0.498039 #0.498039
v -0.991211 2.082031 -0.080322 0.498039 0.498039 0.498039 #0.498039
v -0.781738 1.850098 -0.001709 0.498039 0.498039 0.498039 #0.498039
v -1.121826 0.697510 -0.934570 0.498039 0.498039 0.498039 #0.498039
v -1.121826 0.697510 -0.934570 0.498039 0.498039 0.498039 #0.498039
v -0.781738 1.850098 -0.001709 0.498039 0.498039 0.498039 #0.498039
v -0.849121 0.576416 -0.768311 0.498039 0.498039 0.498039 #0.498039
v -1.104736 2.002686 0.056396 0.498039 0.498039 0.498039 #0.498039
v -1.073242 2.068115 -0.018555 0.498039 0.498039 0.498039 #0.498039
v -1.212158 0.635010 -0.825684 0.498039 0.498039 0.498039 #0.498039
v -1.073242 2.068115 -0.018555 0.498039 0.498039 0.498039 #0.498039
v -1.196289 0.679932 -0.897949 0.498039 0.498039 0.498039 #0.498039
v -1.212158 0.635010 -0.825684 0.498039 0.498039 0.498039 #0.498039
v -1.196289 0.679932 -0.897949 0.498039 0.498039 0.498039 #0.498039
v -1.073242 2.068115 -0.018555 0.498039 0.498039 0.498039 #0.498039
v -1.121826 0.697510 -0.934570 0.498039 0.498039 0.498039 #0.498039
v -1.073242 2.068115 -0.018555 0.498039 0.498039 0.498039 #0.498039
v -0.991211 2.082031 -0.080322 0.498039 0.498039 0.498039 #0.498039
v -1.121826 0.697510 -0.934570 0.498039 0.498039 0.498039 #0.498039
v -0.849121 0.576416 -0.768311 0.498039 0.498039 0.498039 #0.498039
v -0.781738 1.850098 -0.001709 0.498039 0.498039 0.498039 #0.498039
v -0.870361 0.534912 -0.699219 0.498039 0.498039 0.498039 #0.498039
v -0.781738 1.850098 -0.001709 0.498039 0.498039 0.498039 #0.498039
v -0.801758 1.787842 0.058350 0.498039 0.498039 0.498039 #0.498039
v -0.870361 0.534912 -0.699219 0.498039 0.498039 0.498039 #0.498039
v -0.801758 1.787842 0.058350 0.498039 0.498039 0.498039 #0.498039
v -0.872314 1.785156 0.108398 0.498039 0.498039 0.498039 #0.498039
v -0.870361 0.534912 -0.699219 0.498039 0.498039 0.498039 #0.498039
v -0.872314 1.785156 0.108398 0.498039 0.498039 0.498039 #0.498039
v -0.939941 0.513672 -0.659180 0.498039 0.498039 0.498039 #0.498039
v -0.870361 0.534912 -0.699219 0.498039 0.498039 0.498039 #0.498039
v -0.939941 0.513672 -0.659180 0.498039 0.498039 0.498039 #0.498039
v -1.212158 0.635010 -0.825684 0.498039 0.498039 0.498039 #0.498039
v -0.870361 0.534912 -0.699219 0.498039 0.498039 0.498039 #0.498039
v -1.212158 0.635010 -0.825684 0.498039 0.498039 0.498039 #0.498039
v -1.196289 0.679932 -0.897949 0.498039 0.498039 0.498039 #0.498039
v -0.870361 0.534912 -0.699219 0.498039 0.498039 0.498039 #0.498039
v -1.121826 0.697510 -0.934570 0.498039 0.498039 0.498039 #0.498039
v -0.849121 0.576416 -0.768311 0.498039 0.498039 0.498039 #0.498039
v -0.870361 0.534912 -0.699219 0.498039 0.498039 0.498039 #0.498039
v -1.196289 0.679932 -0.897949 0.498039 0.498039 0.498039 #0.498039
v -1.121826 0.697510 -0.934570 0.498039 0.498039 0.498039 #0.498039
v -0.870361 0.534912 -0.699219 0.498039 0.498039 0.498039 #0.498039
v -0.702637 0.317627 -1.545166 0.498039 0.498039 0.498039 #0.498039
v -0.515381 0.326904 -1.515869 0.498039 0.498039 0.498039 #0.498039
v -0.557129 0.158936 -1.447266 0.498039 0.498039 0.498039 #0.498039
v -0.566406 0.500732 -1.449951 0.498039 0.498039 0.498039 #0.498039
v -0.515381 0.326904 -1.515869 0.498039 0.498039 0.498039 #0.498039
v -0.702637 0.317627 -1.545166 0.498039 0.498039 0.498039 #0.498039
v -0.950928 0.321533 -0.881592 0.498039 0.498039 0.498039 #0.498039
v -1.045654 0.313232 -1.045410 0.498039 0.498039 0.498039 #0.498039
v -0.899902 0.154297 -0.947021 0.498039 0.498039 0.498039 #0.498039
v -0.950928 0.321533 -0.881592 0.498039 0.498039 0.498039 #0.498039
v -0.909180 0.496338 -0.950439 0.498039 0.498039 0.498039 #0.498039
v -1.045654 0.313232 -1.045410 0.498039 0.498039 0.498039 #0.498039
v -0.515381 0.326904 -1.515869 0.498039 0.498039 0.498039 #0.498039
v -0.420654 0.334961 -1.351807 0.498039 0.498039 0.498039 #0.498039
v -0.557129 0.158936 -1.447266 0.498039 0.498039 0.498039 #0.498039
v -0.566406 0.500732 -1.449951 0.498039 0.498039 0.498039 #0.498039
v -0.420654 0.334961 -1.351807 0.498039 0.498039 0.498039 #0.498039
v -0.515381 0.326904 -1.515869 0.498039 0.498039 0.498039 #0.498039
v -0.763428 0.330811 -0.852051 0.498039 0.498039 0.498039 #0.498039
v -0.950928 0.321533 -0.881592 0.498039 0.498039 0.498039 #0.498039
v -0.899902 0.154297 -0.947021 0.498039 0.498039 0.498039 #0.498039
v -0.763428 0.330811 -0.852051 0.498039 0.498039 0.498039 #0.498039
v -0.909180 0.496338 -0.950439 0.498039 0.498039 0.498039 #0.498039
v -0.950928 0.321533 -0.881592 0.498039 0.498039 0.498039 #0.498039
v -0.526611 0.335693 -1.486572 0.498039 0.498039 0.498039 #0.498039
v -0.361084 0.336182 -1.618164 0.498039 0.498039 0.498039 #0.498039
v -0.368896 0.202148 -1.511963 0.498039 0.498039 0.498039 #0.498039
v -0.393066 0.259033 -1.345215 0.498039 0.498039 0.498039 #0.498039
v -0.526611 0.335693 -1.486572 0.498039 0.498039 0.498039 #0.498039
v -0.368896 0.202148 -1.511963 0.498039 0.498039 0.498039 #0.498039
v -0.399902 0.436768 -1.348145 0.498039 0.498039 0.498039 #0.498039
v -0.526611 0.335693 -1.486572 0.498039 0.498039 0.498039 #0.498039
v -0.393066 0.259033 -1.345215 0.498039 0.498039 0.498039 #0.498039
v -0.399902 0.436768 -1.348145 0.498039 0.498039 0.498039 #0.498039
v -0.380371 0.489502 -1.517090 0.498039 0.498039 0.498039 #0.498039
v -0.526611 0.335693 -1.486572 0.498039 0.498039 0.498039 #0.498039
v -0.526611 0.335693 -1.486572 0.498039 0.498039 0.498039 #0.498039
v -0.380371 0.489502 -1.517090 0.498039 0.498039 0.498039 #0.498039
v -0.361084 0.336182 -1.618164 0.498039 0.498039 0.498039 #0.498039
v 1.059326 0.384033 -1.667236 0.498039 0.498039 0.498039 #0.498039
v 0.659912 0.383789 -1.362793 0.498039 0.498039 0.498039 #0.498039
v 1.037109 0.014404 -1.380615 0.498039 0.498039 0.498039 #0.498039
v 0.659912 0.383789 -1.362793 0.498039 0.498039 0.498039 #0.498039
v 0.972412 0.167969 -0.929688 0.498039 0.498039 0.498039 #0.498039
v 1.037109 0.014404 -1.380615 0.498039 0.498039 0.498039 #0.498039
v 0.659912 0.383789 -1.362793 0.498039 0.498039 0.498039 #0.498039
v 0.954346 0.648682 -0.938232 0.498039 0.498039 0.498039 #0.498039
v 0.972412 0.167969 -0.929688 0.498039 0.498039 0.498039 #0.498039
v 1.007568 0.791748 -1.394775 0.498039 0.498039 0.498039 #0.498039
v 0.954346 0.648682 -0.938232 0.498039 0.498039 0.498039 #0.498039
v 0.659912 0.383789 -1.362793 0.498039 0.498039 0.498039 #0.498039
v 1.007568 0.791748 -1.394775 0.498039 0.498039 0.498039 #0.498039
v 0.659912 0.383789 -1.362793 0.498039 0.498039 0.498039 #0.498039
v 1.059326 0.384033 -1.667236 0.498039 0.498039 0.498039 #0.498039
v -0.909180 0.496338 -0.950439 0.498039 0.498039 0.498039 #0.498039
v -0.702637 0.317627 -1.545166 0.498039 0.498039 0.498039 #0.498039
v -1.045654 0.313232 -1.045410 0.498039 0.498039 0.498039 #0.498039
v -0.909180 0.496338 -0.950439 0.498039 0.498039 0.498039 #0.498039
v -0.566406 0.500732 -1.449951 0.498039 0.498039 0.498039 #0.498039
v -0.702637 0.317627 -1.545166 0.498039 0.498039 0.498039 #0.498039
v -1.045654 0.313232 -1.045410 0.498039 0.498039 0.498039 #0.498039
v -0.557129 0.158936 -1.447266 0.498039 0.498039 0.498039 #0.498039
v -0.899902 0.154297 -0.947021 0.498039 0.498039 0.498039 #0.498039
v -1.045654 0.313232 -1.045410 0.498039 0.498039 0.498039 #0.498039
v -0.702637 0.317627 -1.545166 0.498039 0.498039 0.498039 #0.498039
v -0.557129 0.158936 -1.447266 0.498039 0.498039 0.498039 #0.498039
v -0.566406 0.500732 -1.449951 0.498039 0.498039 0.498039 #0.498039
v -0.909180 0.496338 -0.950439 0.498039 0.498039 0.498039 #0.498039
v -0.763428 0.330811 -0.852051 0.498039 0.498039 0.498039 #0.498039
v -0.420654 0.334961 -1.351807 0.498039 0.498039 0.498039 #0.498039
v -0.566406 0.500732 -1.449951 0.498039 0.498039 0.498039 #0.498039
v -0.763428 0.330811 -0.852051 0.498039 0.498039 0.498039 #0.498039
v -0.420654 0.334961 -1.351807 0.498039 0.498039 0.498039 #0.498039
v -0.763428 0.330811 -0.852051 0.498039 0.498039 0.498039 #0.498039
v -0.899902 0.154297 -0.947021 0.498039 0.498039 0.498039 #0.498039
v -0.557129 0.158936 -1.447266 0.498039 0.498039 0.498039 #0.498039
v -0.420654 0.334961 -1.351807 0.498039 0.498039 0.498039 #0.498039
v -0.899902 0.154297 -0.947021 0.498039 0.498039 0.498039 #0.498039
v 0.954346 0.648682 -0.938232 0.498039 0.498039 0.498039 #0.498039
v 1.007568 0.791748 -1.394775 0.498039 0.498039 0.498039 #0.498039
v -0.399902 0.436768 -1.348145 0.498039 0.498039 0.498039 #0.498039
v 1.007568 0.791748 -1.394775 0.498039 0.498039 0.498039 #0.498039
v -0.380371 0.489502 -1.517090 0.498039 0.498039 0.498039 #0.498039
v -0.399902 0.436768 -1.348145 0.498039 0.498039 0.498039 #0.498039
v 0.954346 0.648682 -0.938232 0.498039 0.498039 0.498039 #0.498039
v -0.393066 0.259033 -1.345215 0.498039 0.498039 0.498039 #0.498039
v 0.972412 0.167969 -0.929688 0.498039 0.498039 0.498039 #0.498039
v 0.954346 0.648682 -0.938232 0.498039 0.498039 0.498039 #0.498039
v -0.399902 0.436768 -1.348145 0.498039 0.498039 0.498039 #0.498039
v -0.393066 0.259033 -1.345215 0.498039 0.498039 0.498039 #0.498039
v -0.380371 0.489502 -1.517090 0.498039 0.498039 0.498039 #0.498039
v 1.007568 0.791748 -1.394775 0.498039 0.498039 0.498039 #0.498039
v 1.059326 0.384033 -1.667236 0.498039 0.498039 0.498039 #0.498039
v -0.380371 0.489502 -1.517090 0.498039 0.498039 0.498039 #0.498039
v 1.059326 0.384033 -1.667236 0.498039 0.498039 0.498039 #0.498039
v -0.361084 0.336182 -1.618164 0.498039 0.498039 0.498039 #0.498039
v -0.368896 0.202148 -1.511963 0.498039 0.498039 0.498039 #0.498039
v 1.059326 0.384033 -1.667236 0.498039 0.498039 0.498039 #0.498039
v 1.037109 0.014404 -1.380615 0.498039 0.498039 0.498039 #0.498039
v -0.361084 0.336182 -1.618164 0.498039 0.498039 0.498039 #0.498039
v 1.059326 0.384033 -1.667236 0.498039 0.498039 0.498039 #0.498039
v -0.368896 0.202148 -1.511963 0.498039 0.498039 0.498039 #0.498039
v -0.393066 0.259033 -1.345215 0.498039 0.498039 0.498039 #0.498039
v -0.368896 0.202148 -1.511963 0.498039 0.498039 0.498039 #0.498039
v 1.037109 0.014404 -1.380615 0.498039 0.498039 0.498039 #0.498039
v 0.972412 0.167969 -0.929688 0.498039 0.498039 0.498039 #0.498039
v -0.393066 0.259033 -1.345215 0.498039 0.498039 0.498039 #0.498039
v 1.037109 0.014404 -1.380615 0.498039 0.498039 0.498039 #0.498039
vt 0.350830 0.389648 0.000000
vt 0.307861 0.432617 0.000000
vt 0.350830 0.432617 0.000000
vt 0.307861 0.432617 0.000000
vt 0.350830 0.475342 0.000000
vt 0.350830 0.432617 0.000000
vt 0.393555 0.432617 0.000000
vt 0.350830 0.389648 0.000000
vt 0.350830 0.432617 0.000000
vt 0.350830 0.475342 0.000000
vt 0.393555 0.432617 0.000000
vt 0.350830 0.432617 0.000000
vt 0.350830 0.432617 0.000000
vt 0.307861 0.432617 0.000000
vt 0.350830 0.389648 0.000000
vt 0.350830 0.432617 0.000000
vt 0.350830 0.475342 0.000000
vt 0.307861 0.432617 0.000000
vt 0.393555 0.432617 0.000000
vt 0.350830 0.432617 0.000000
vt 0.350830 0.389648 0.000000
vt 0.350830 0.475342 0.000000
vt 0.350830 0.432617 0.000000
vt 0.393555 0.432617 0.000000
vt 0.849365 0.676758 0.000000
vt 0.965332 0.675781 0.000000
vt 0.868652 0.610352 0.000000
vt 0.965332 0.675781 0.000000
vt 0.945068 0.609863 0.000000
vt 0.868652 0.610352 0.000000
vt 0.965332 0.675781 0.000000
vt 0.849365 0.676758 0.000000
vt 0.868652 0.610352 0.000000
vt 0.945068 0.609863 0.000000
vt 0.965332 0.675781 0.000000
vt 0.868652 0.610352 0.000000
vt 0.403076 0.619141 0.000000
vt 0.300537 0.619141 0.000000
vt 0.377441 0.663330 0.000000
vt 0.300537 0.619141 0.000000
vt 0.326172 0.663330 0.000000
vt 0.377441 0.663330 0.000000
vt 0.403076 0.619141 0.000000
vt 0.326172 0.574707 0.000000
vt 0.300537 0.619141 0.000000
vt 0.377441 0.574707 0.000000
vt 0.326172 0.574707 0.000000
vt 0.403076 0.619141 0.000000
vt 0.054199 0.816895 0.000000
vt 0.126709 0.744385 0.000000
vt 0.054443 0.917480 0.000000
vt 0.054443 0.917480 0.000000
vt 0.126709 0.744385 0.000000
vt 0.126709 0.988525 0.000000
vt 0.126709 0.744385 0.000000
vt 0.054199 0.816895 0.000000
vt 0.054443 0.917480 0.000000
vt 0.126709 0.744385 0.000000
vt 0.054443 0.917480 0.000000
vt 0.126709 0.988525 0.000000
vt 0.227783 0.988525 0.000000
vt 0.126709 0.744385 0.000000
vt 0.126709 0.988525 0.000000
vt 0.126709 0.744385 0.000000
vt 0.227783 0.744385 0.000000
vt 0.126709 0.988525 0.000000
vt 0.126709 0.744385 0.000000
vt 0.054199 0.816895 0.000000
vt 0.054443 0.917480 0.000000
vt 0.126709 0.744385 0.000000
vt 0.054443 0.917480 0.000000
vt 0.126709 0.988525 0.000000
vt 0.227783 0.744385 0.000000
vt 0.227783 0.988525 0.000000
vt 0.126709 0.988525 0.000000
vt 0.054199 0.816895 0.000000
vt 0.126709 0.744385 0.000000
vt 0.054443 0.917480 0.000000
vt 0.227783 0.744385 0.000000
vt 0.126709 0.744385 0.000000
vt 0.227783 0.988525 0.000000
vt 0.054443 0.917480 0.000000
vt 0.126709 0.744385 0.000000
vt 0.126709 0.988525 0.000000
vt 0.087891 0.700195 0.000000
vt 0.001465 0.715820 0.000000
vt 0.087891 0.715820 0.000000
vt 0.001465 0.700195 0.000000
vt 0.001465 0.715820 0.000000
vt 0.087891 0.700195 0.000000
vt 0.237061 0.715820 0.000000
vt 0.087891 0.700195 0.000000
vt 0.087891 0.715820 0.000000
vt 0.237061 0.700195 0.000000
vt 0.087891 0.700195 0.000000
vt 0.237061 0.715820 0.000000
vt 0.001465 0.715820 0.000000
vt 0.087891 0.700195 0.000000
vt 0.087891 0.715820 0.000000
vt 0.001465 0.715820 0.000000
vt 0.001465 0.700195 0.000000
vt 0.087891 0.700195 0.000000
vt 0.982910 0.229248 0.000000
vt 0.982910 0.276367 0.000000
vt 0.998535 0.276367 0.000000
vt 0.998535 0.229248 0.000000
vt 0.982910 0.229248 0.000000
vt 0.998535 0.276367 0.000000
vt 0.998535 0.174072 0.000000
vt 0.982910 0.229248 0.000000
vt 0.998535 0.229248 0.000000
vt 0.998535 0.174072 0.000000
vt 0.982910 0.174072 0.000000
vt 0.982910 0.229248 0.000000
vt 0.982910 0.009277 0.000000
vt 0.998535 0.064209 0.000000
vt 0.998535 0.009277 0.000000
vt 0.982910 0.064209 0.000000
vt 0.998535 0.064209 0.000000
vt 0.982910 0.009277 0.000000
vt 0.982910 0.064209 0.000000
vt 0.998535 0.119141 0.000000
vt 0.998535 0.064209 0.000000
vt 0.982910 0.119141 0.000000
vt 0.998535 0.119141 0.000000
vt 0.982910 0.064209 0.000000
vt 0.982910 0.119141 0.000000
vt 0.982910 0.174072 0.000000
vt 0.998535 0.174072 0.000000
vt 0.998535 0.119141 0.000000
vt 0.982910 0.119141 0.000000
vt 0.998535 0.174072 0.000000
vt 0.998535 0.276367 0.000000
vt 0.982910 0.323486 0.000000
vt 0.998535 0.323486 0.000000
vt 0.998535 0.276367 0.000000
vt 0.982910 0.276367 0.000000
vt 0.982910 0.323486 0.000000
vt 0.315674 0.291992 0.000000
vt 0.298340 0.291992 0.000000
vt 0.315674 0.401855 0.000000
vt 0.298340 0.291992 0.000000
vt 0.298340 0.401855 0.000000
vt 0.315674 0.401855 0.000000
vt 0.315674 0.001465 0.000000
vt 0.298340 0.001465 0.000000
vt 0.315674 0.095703 0.000000
vt 0.298340 0.001465 0.000000
vt 0.298340 0.095703 0.000000
vt 0.315674 0.095703 0.000000
vt 0.315674 0.095703 0.000000
vt 0.298340 0.291992 0.000000
vt 0.315674 0.291992 0.000000
vt 0.315674 0.095703 0.000000
vt 0.298340 0.095703 0.000000
vt 0.298340 0.291992 0.000000
vt 0.298340 0.291992 0.000000
vt 0.315674 0.291992 0.000000
vt 0.298340 0.401855 0.000000
vt 0.298340 0.401855 0.000000
vt 0.315674 0.291992 0.000000
vt 0.315674 0.401855 0.000000
vt 0.298340 0.001465 0.000000
vt 0.315674 0.001465 0.000000
vt 0.298340 0.095703 0.000000
vt 0.298340 0.095703 0.000000
vt 0.315674 0.001465 0.000000
vt 0.315674 0.095703 0.000000
vt 0.298340 0.095703 0.000000
vt 0.315674 0.095703 0.000000
vt 0.315674 0.291992 0.000000
vt 0.298340 0.291992 0.000000
vt 0.298340 0.095703 0.000000
vt 0.315674 0.291992 0.000000
vt 0.291992 0.433350 0.000000
vt 0.001465 0.433350 0.000000
vt 0.001465 0.519775 0.000000
vt 0.291992 0.433350 0.000000
vt 0.001465 0.519775 0.000000
vt 0.291992 0.519775 0.000000
vt 0.291992 0.519775 0.000000
vt 0.001465 0.519775 0.000000
vt 0.001465 0.605957 0.000000
vt 0.291992 0.519775 0.000000
vt 0.001465 0.605957 0.000000
vt 0.291992 0.605957 0.000000
vt 0.001465 0.605957 0.000000
vt 0.001465 0.692383 0.000000
vt 0.291992 0.605957 0.000000
vt 0.001465 0.692383 0.000000
vt 0.291992 0.692383 0.000000
vt 0.291992 0.605957 0.000000
vt 0.001465 0.001465 0.000000
vt 0.001465 0.087891 0.000000
vt 0.291992 0.001465 0.000000
vt 0.001465 0.087891 0.000000
vt 0.291992 0.087891 0.000000
vt 0.291992 0.001465 0.000000
vt 0.001465 0.087891 0.000000
vt 0.001465 0.174072 0.000000
vt 0.291992 0.087891 0.000000
vt 0.001465 0.174072 0.000000
vt 0.291992 0.174072 0.000000
vt 0.291992 0.087891 0.000000
vt 0.001465 0.174072 0.000000
vt 0.001465 0.260498 0.000000
vt 0.291992 0.174072 0.000000
vt 0.001465 0.260498 0.000000
vt 0.291992 0.260498 0.000000
vt 0.291992 0.174072 0.000000
vt 0.001465 0.260498 0.000000
vt 0.001465 0.346924 0.000000
vt 0.291992 0.260498 0.000000
vt 0.291992 0.260498 0.000000
vt 0.001465 0.346924 0.000000
vt 0.291992 0.346924 0.000000
vt 0.001465 0.346924 0.000000
vt 0.001465 0.433350 0.000000
vt 0.291992 0.433350 0.000000
vt 0.291992 0.346924 0.000000
vt 0.001465 0.346924 0.000000
vt 0.291992 0.433350 0.000000
vt 0.822266 0.668701 0.000000
vt 0.868652 0.610352 0.000000
vt 0.844971 0.603760 0.000000
vt 0.822266 0.668701 0.000000
vt 0.849365 0.676758 0.000000
vt 0.868652 0.610352 0.000000
vt 0.945068 0.609863 0.000000
vt 0.944824 0.583496 0.000000
vt 0.868896 0.583496 0.000000
vt 0.868652 0.610352 0.000000
vt 0.945068 0.609863 0.000000
vt 0.868896 0.583496 0.000000
vt 0.965332 0.675781 0.000000
vt 0.992432 0.670166 0.000000
vt 0.971436 0.602295 0.000000
vt 0.945068 0.609863 0.000000
vt 0.965332 0.675781 0.000000
vt 0.971436 0.602295 0.000000
vt 0.241455 0.736084 0.000000
vt 0.346924 0.692383 0.000000
vt 0.346924 0.990967 0.000000
vt 0.241455 0.947266 0.000000
vt 0.241455 0.736084 0.000000
vt 0.346924 0.990967 0.000000
vt 0.346924 0.692383 0.000000
vt 0.241455 0.947266 0.000000
vt 0.346924 0.990967 0.000000
vt 0.346924 0.692383 0.000000
vt 0.241455 0.736084 0.000000
vt 0.241455 0.947266 0.000000
vt 0.346924 0.692383 0.000000
vt 0.241455 0.947266 0.000000
vt 0.346924 0.990967 0.000000
vt 0.346924 0.692383 0.000000
vt 0.241455 0.736084 0.000000
vt 0.241455 0.947266 0.000000
vt 0.241455 0.736084 0.000000
vt 0.346924 0.692383 0.000000
vt 0.346924 0.990967 0.000000
vt 0.241455 0.947266 0.000000
vt 0.241455 0.736084 0.000000
vt 0.346924 0.990967 0.000000
vt 0.087891 0.700195 0.000000
vt 0.237061 0.700195 0.000000
vt 0.237061 0.715820 0.000000
vt 0.087891 0.700195 0.000000
vt 0.237061 0.715820 0.000000
vt 0.087891 0.715820 0.000000
vt 0.237061 0.739502 0.000000
vt 0.237061 0.715820 0.000000
vt 0.087891 0.739502 0.000000
vt 0.237061 0.715820 0.000000
vt 0.087891 0.715820 0.000000
vt 0.087891 0.739502 0.000000
vt 0.001465 0.715820 0.000000
vt 0.001465 0.739502 0.000000
vt 0.087891 0.739502 0.000000
vt 0.087891 0.715820 0.000000
vt 0.001465 0.715820 0.000000
vt 0.087891 0.739502 0.000000
vt 0.786621 0.558838 0.000000
vt 0.723877 0.558838 0.000000
vt 0.759277 0.662842 0.000000
vt 0.723877 0.558838 0.000000
vt 0.786621 0.558838 0.000000
vt 0.759277 0.662842 0.000000
vt 0.818115 0.558838 0.000000
vt 0.793213 0.558838 0.000000
vt 0.759277 0.662842 0.000000
vt 0.323486 0.056396 0.000000
vt 0.960693 0.057129 0.000000
vt 0.323486 0.095703 0.000000
vt 0.323486 0.095703 0.000000
vt 0.960693 0.057129 0.000000
vt 0.960693 0.096191 0.000000
vt 0.435791 0.982666 0.000000
vt 0.382568 0.982666 0.000000
vt 0.409180 0.998047 0.000000
vt 0.323486 0.095703 0.000000
vt 0.323486 0.284180 0.000000
vt 0.960693 0.276855 0.000000
vt 0.960693 0.096191 0.000000
vt 0.323486 0.095703 0.000000
vt 0.960693 0.276855 0.000000
vt 0.979492 0.095703 0.000000
vt 0.963623 0.253418 0.000000
vt 0.979492 0.252686 0.000000
vt 0.979492 0.095703 0.000000
vt 0.963623 0.096191 0.000000
vt 0.963623 0.253418 0.000000
vt 0.963623 0.253418 0.000000
vt 0.963623 0.284180 0.000000
vt 0.979492 0.284180 0.000000
vt 0.979492 0.252686 0.000000
vt 0.963623 0.253418 0.000000
vt 0.979492 0.284180 0.000000
vt 0.963623 0.284180 0.000000
vt 0.963623 0.331787 0.000000
vt 0.979492 0.331787 0.000000
vt 0.979492 0.284180 0.000000
vt 0.963623 0.284180 0.000000
vt 0.979492 0.331787 0.000000
vt 0.323486 0.095703 0.000000
vt 0.960693 0.096191 0.000000
vt 0.960693 0.276855 0.000000
vt 0.323486 0.284180 0.000000
vt 0.323486 0.095703 0.000000
vt 0.960693 0.276855 0.000000
vt 0.963623 0.096191 0.000000
vt 0.979492 0.095703 0.000000
vt 0.979492 0.252686 0.000000
vt 0.963623 0.253418 0.000000
vt 0.963623 0.096191 0.000000
vt 0.979492 0.252686 0.000000
vt 0.963623 0.284180 0.000000
vt 0.979492 0.252686 0.000000
vt 0.979492 0.284180 0.000000
vt 0.963623 0.253418 0.000000
vt 0.979492 0.252686 0.000000
vt 0.963623 0.284180 0.000000
vt 0.963623 0.331787 0.000000
vt 0.979492 0.284180 0.000000
vt 0.979492 0.331787 0.000000
vt 0.963623 0.284180 0.000000
vt 0.979492 0.284180 0.000000
vt 0.963623 0.331787 0.000000
vt 0.960693 0.253418 0.000000
vt 0.976318 0.252686 0.000000
vt 0.960693 0.253418 0.000000
vt 0.960693 0.253418 0.000000
vt 0.976318 0.252686 0.000000
vt 0.976318 0.252686 0.000000
vt 0.976318 0.252686 0.000000
vt 0.960693 0.253418 0.000000
vt 0.976318 0.252686 0.000000
vt 0.960693 0.253418 0.000000
vt 0.960693 0.253418 0.000000
vt 0.976318 0.252686 0.000000
vt 0.460449 0.782715 0.000000
vt 0.439941 0.747314 0.000000
vt 0.357910 0.782715 0.000000
vt 0.439941 0.747314 0.000000
vt 0.379395 0.746338 0.000000
vt 0.357910 0.782715 0.000000
vt 0.435791 0.951904 0.000000
vt 0.460449 0.782715 0.000000
vt 0.382568 0.951904 0.000000
vt 0.460449 0.782715 0.000000
vt 0.357910 0.782715 0.000000
vt 0.382568 0.951904 0.000000
vt 0.435791 0.982666 0.000000
vt 0.435791 0.951904 0.000000
vt 0.382568 0.982666 0.000000
vt 0.435791 0.951904 0.000000
vt 0.382568 0.951904 0.000000
vt 0.382568 0.982666 0.000000
vt 0.960693 0.276855 0.000000
vt 0.323486 0.284180 0.000000
vt 0.960693 0.323975 0.000000
vt 0.323486 0.284180 0.000000
vt 0.323486 0.323486 0.000000
vt 0.960693 0.323975 0.000000
vt 0.960693 0.057129 0.000000
vt 0.323486 0.056396 0.000000
vt 0.960693 0.096191 0.000000
vt 0.323486 0.056396 0.000000
vt 0.323486 0.095703 0.000000
vt 0.960693 0.096191 0.000000
vt 0.979492 0.056396 0.000000
vt 0.963623 0.096191 0.000000
vt 0.979492 0.095703 0.000000
vt 0.979492 0.056396 0.000000
vt 0.963623 0.057129 0.000000
vt 0.963623 0.096191 0.000000
vt 0.323486 0.284180 0.000000
vt 0.960693 0.276855 0.000000
vt 0.960693 0.323975 0.000000
vt 0.323486 0.323486 0.000000
vt 0.323486 0.284180 0.000000
vt 0.960693 0.323975 0.000000
vt 0.963623 0.057129 0.000000
vt 0.979492 0.056396 0.000000
vt 0.979492 0.095703 0.000000
vt 0.963623 0.096191 0.000000
vt 0.963623 0.057129 0.000000
vt 0.979492 0.095703 0.000000
vt 0.454102 0.631592 0.000000
vt 0.407715 0.631592 0.000000
vt 0.445801 0.714111 0.000000
vt 0.445801 0.714111 0.000000
vt 0.407715 0.631592 0.000000
vt 0.416016 0.714111 0.000000
vt 0.445801 0.714111 0.000000
vt 0.416016 0.714111 0.000000
vt 0.444824 0.736328 0.000000
vt 0.444824 0.736328 0.000000
vt 0.416016 0.714111 0.000000
vt 0.416992 0.736328 0.000000
vt 0.323486 0.001465 0.000000
vt 0.323486 0.056396 0.000000
vt 0.960693 0.057129 0.000000
vt 0.960693 0.001953 0.000000
vt 0.323486 0.001465 0.000000
vt 0.960693 0.057129 0.000000
vt 0.323486 0.378418 0.000000
vt 0.960693 0.378906 0.000000
vt 0.960693 0.323975 0.000000
vt 0.323486 0.323486 0.000000
vt 0.323486 0.378418 0.000000
vt 0.960693 0.323975 0.000000
vt 0.979492 0.001953 0.000000
vt 0.963623 0.001953 0.000000
vt 0.979492 0.056396 0.000000
vt 0.963623 0.001953 0.000000
vt 0.963623 0.057129 0.000000
vt 0.979492 0.056396 0.000000
vt 0.944580 0.526367 0.000000
vt 0.433350 0.417480 0.000000
vt 0.433350 0.527588 0.000000
vt 0.944580 0.526367 0.000000
vt 0.996094 0.432373 0.000000
vt 0.433350 0.417480 0.000000
vt 0.996094 0.432373 0.000000
vt 0.944580 0.526367 0.000000
vt 0.433350 0.417480 0.000000
vt 0.433350 0.417480 0.000000
vt 0.944580 0.526367 0.000000
vt 0.433350 0.527588 0.000000
vt 0.996094 0.432373 0.000000
vt 0.998535 0.394043 0.000000
vt 0.433350 0.417480 0.000000
vt 0.998535 0.394043 0.000000
vt 0.433350 0.394043 0.000000
vt 0.433350 0.417480 0.000000
vt 0.433350 0.394043 0.000000
vt 0.998535 0.394043 0.000000
vt 0.433350 0.417480 0.000000
vt 0.998535 0.394043 0.000000
vt 0.996094 0.432373 0.000000
vt 0.433350 0.417480 0.000000
vt 0.433350 0.527588 0.000000
vt 0.944580 0.526367 0.000000
vt 0.433350 0.551025 0.000000
vt 0.944580 0.526367 0.000000
vt 0.935059 0.549561 0.000000
vt 0.433350 0.551025 0.000000
vt 0.935059 0.549561 0.000000
vt 0.944580 0.526367 0.000000
vt 0.433350 0.551025 0.000000
vt 0.944580 0.526367 0.000000
vt 0.433350 0.527588 0.000000
vt 0.433350 0.551025 0.000000
vt 0.433350 0.527588 0.000000
vt 0.433350 0.417480 0.000000
vt 0.401855 0.543213 0.000000
vt 0.433350 0.417480 0.000000
vt 0.401855 0.401855 0.000000
vt 0.401855 0.543213 0.000000
vt 0.433350 0.417480 0.000000
vt 0.433350 0.527588 0.000000
vt 0.401855 0.543213 0.000000
vt 0.401855 0.401855 0.000000
vt 0.433350 0.417480 0.000000
vt 0.401855 0.543213 0.000000
vt 0.488281 0.621094 0.000000
vt 0.460938 0.621094 0.000000
vt 0.488281 0.683105 0.000000
vt 0.488281 0.558838 0.000000
vt 0.460938 0.621094 0.000000
vt 0.488281 0.621094 0.000000
vt 0.717773 0.621094 0.000000
vt 0.690430 0.621094 0.000000
vt 0.690430 0.683105 0.000000
vt 0.717773 0.621094 0.000000
vt 0.690430 0.558838 0.000000
vt 0.690430 0.621094 0.000000
vt 0.460938 0.621094 0.000000
vt 0.488281 0.621094 0.000000
vt 0.488281 0.683105 0.000000
vt 0.488281 0.558838 0.000000
vt 0.488281 0.621094 0.000000
vt 0.460938 0.621094 0.000000
vt 0.690430 0.621094 0.000000
vt 0.717773 0.621094 0.000000
vt 0.690430 0.683105 0.000000
vt 0.690430 0.621094 0.000000
vt 0.690430 0.558838 0.000000
vt 0.717773 0.621094 0.000000
vt 0.998535 0.912354 0.000000
vt 0.912354 0.880859 0.000000
vt 0.912354 0.943604 0.000000
vt 0.912354 0.998535 0.000000
vt 0.998535 0.967285 0.000000
vt 0.912354 0.943604 0.000000
vt 0.912354 0.755127 0.000000
vt 0.998535 0.723877 0.000000
vt 0.912354 0.692383 0.000000
vt 0.912354 0.755127 0.000000
vt 0.912354 0.818115 0.000000
vt 0.998535 0.786621 0.000000
vt 0.998535 0.849365 0.000000
vt 0.912354 0.818115 0.000000
vt 0.912354 0.880859 0.000000
vt 0.527588 0.880859 0.000000
vt 0.464844 0.912354 0.000000
vt 0.527588 0.943604 0.000000
vt 0.464844 0.967285 0.000000
vt 0.527588 0.998535 0.000000
vt 0.527588 0.943604 0.000000
vt 0.464844 0.731689 0.000000
vt 0.527588 0.755127 0.000000
vt 0.527588 0.692383 0.000000
vt 0.527588 0.818115 0.000000
vt 0.527588 0.755127 0.000000
vt 0.464844 0.786621 0.000000
vt 0.527588 0.818115 0.000000
vt 0.464844 0.857178 0.000000
vt 0.527588 0.880859 0.000000
vt 0.690430 0.558838 0.000000
vt 0.488281 0.621094 0.000000
vt 0.690430 0.621094 0.000000
vt 0.690430 0.558838 0.000000
vt 0.488281 0.558838 0.000000
vt 0.488281 0.621094 0.000000
vt 0.690430 0.621094 0.000000
vt 0.488281 0.683105 0.000000
vt 0.690430 0.683105 0.000000
vt 0.690430 0.621094 0.000000
vt 0.488281 0.621094 0.000000
vt 0.488281 0.683105 0.000000
vt 0.488281 0.558838 0.000000
vt 0.690430 0.558838 0.000000
vt 0.690430 0.621094 0.000000
vt 0.488281 0.621094 0.000000
vt 0.488281 0.558838 0.000000
vt 0.690430 0.621094 0.000000
vt 0.488281 0.621094 0.000000
vt 0.690430 0.621094 0.000000
vt 0.690430 0.683105 0.000000
vt 0.488281 0.683105 0.000000
vt 0.488281 0.621094 0.000000
vt 0.690430 0.683105 0.000000
vt 0.527588 0.755127 0.000000
vt 0.527588 0.818115 0.000000
vt 0.912354 0.755127 0.000000
vt 0.527588 0.818115 0.000000
vt 0.912354 0.818115 0.000000
vt 0.912354 0.755127 0.000000
vt 0.527588 0.755127 0.000000
vt 0.912354 0.692383 0.000000
vt 0.527588 0.692383 0.000000
vt 0.527588 0.755127 0.000000
vt 0.912354 0.755127 0.000000
vt 0.912354 0.692383 0.000000
vt 0.912354 0.818115 0.000000
vt 0.527588 0.818115 0.000000
vt 0.527588 0.880859 0.000000
vt 0.912354 0.818115 0.000000
vt 0.527588 0.880859 0.000000
vt 0.912354 0.880859 0.000000
vt 0.912354 0.943604 0.000000
vt 0.527588 0.880859 0.000000
vt 0.527588 0.943604 0.000000
vt 0.912354 0.880859 0.000000
vt 0.527588 0.880859 0.000000
vt 0.912354 0.943604 0.000000
vt 0.912354 0.998535 0.000000
vt 0.912354 0.943604 0.000000
vt 0.527588 0.943604 0.000000
vt 0.527588 0.998535 0.000000
vt 0.912354 0.998535 0.000000
vt 0.527588 0.943604 0.000000
vn -0.630859 0.316406 0.708252
vn -0.692871 0.454102 0.559814
vn -0.736084 0.318604 0.596680
vn -0.692871 0.454102 0.559814
vn -0.824219 0.313477 0.471191
vn -0.736084 0.318604 0.596680
vn -0.763428 0.176270 0.620850
vn -0.630859 0.316406 0.708252
vn -0.736084 0.318604 0.596680
vn -0.824219 0.313477 0.471191
vn -0.763428 0.176270 0.620850
vn -0.736084 0.318604 0.596680
vn 0.732178 -0.318848 -0.601563
vn 0.763916 -0.138672 -0.629883
vn 0.840820 -0.311279 -0.442383
vn 0.732178 -0.318848 -0.601563
vn 0.596191 -0.314209 -0.738525
vn 0.763916 -0.138672 -0.629883
vn 0.675293 -0.487793 -0.552979
vn 0.732178 -0.318848 -0.601563
vn 0.840820 -0.311279 -0.442383
vn 0.596191 -0.314209 -0.738525
vn 0.732178 -0.318848 -0.601563
vn 0.675293 -0.487793 -0.552979
vn 0.601807 0.472656 0.643555
vn 0.602051 0.472900 0.643066
vn 0.602051 0.472900 0.643066
vn 0.602051 0.472900 0.643066
vn 0.602295 0.473145 0.642578
vn 0.602051 0.472900 0.643066
vn -0.591797 -0.302734 -0.746826
vn -0.590332 -0.301270 -0.748535
vn -0.591797 -0.302734 -0.746826
vn -0.593262 -0.304199 -0.745117
vn -0.591797 -0.302734 -0.746826
vn -0.591797 -0.302734 -0.746826
vn -0.412842 -0.595459 0.688965
vn -0.412842 -0.595703 0.688721
vn -0.412354 -0.596924 0.687988
vn -0.412842 -0.595703 0.688721
vn -0.410889 -0.600586 0.685547
vn -0.412354 -0.596924 0.687988
vn -0.412842 -0.595459 0.688965
vn -0.412354 -0.596680 0.688232
vn -0.412842 -0.595703 0.688721
vn -0.411133 -0.599854 0.686035
vn -0.412354 -0.596680 0.688232
vn -0.412842 -0.595459 0.688965
vn 0.416016 0.594971 -0.687500
vn 0.416016 0.594971 -0.687500
vn 0.416016 0.594971 -0.687500
vn 0.416016 0.594971 -0.687500
vn 0.416016 0.594971 -0.687500
vn 0.416016 0.594971 -0.687500
vn -0.416016 -0.594971 0.687500
vn -0.416016 -0.594971 0.687500
vn -0.416016 -0.594971 0.687500
vn -0.416016 -0.594971 0.687500
vn -0.416016 -0.594971 0.687500
vn -0.416016 -0.594971 0.687500
vn -0.416016 -0.594971 0.687500
vn -0.416016 -0.594971 0.687500
vn -0.416016 -0.594971 0.687500
vn 0.416016 0.594971 -0.687500
vn 0.416016 0.594971 -0.687500
vn 0.416016 0.594971 -0.687500
vn 0.416016 0.594971 -0.687500
vn 0.416016 0.594971 -0.687500
vn 0.416016 0.594971 -0.687500
vn 0.416016 0.594971 -0.687500
vn 0.416016 0.594971 -0.687500
vn 0.416016 0.594971 -0.687500
vn 0.416016 0.594971 -0.687500
vn 0.416016 0.594971 -0.687500
vn 0.416016 0.594971 -0.687500
vn -0.416016 -0.594727 0.687500
vn -0.416016 -0.594971 0.687500
vn -0.416016 -0.594971 0.687500
vn -0.416016 -0.594971 0.687500
vn -0.416016 -0.594971 0.687500
vn -0.416016 -0.594971 0.687500
vn -0.416016 -0.594971 0.687500
vn -0.416016 -0.594971 0.687500
vn -0.416016 -0.594971 0.687500
vn 0.697266 -0.075439 0.712402
vn 0.580566 -0.130615 0.803467
vn 0.749023 -0.027100 0.661621
vn 0.581543 -0.167725 0.795898
vn 0.580566 -0.130615 0.803467
vn 0.697266 -0.075439 0.712402
vn 0.877930 0.040283 0.476807
vn 0.697266 -0.075439 0.712402
vn 0.749023 -0.027100 0.661621
vn 0.897949 -0.086914 0.431152
vn 0.897949 -0.086914 0.431152
vn 0.897949 -0.086914 0.431152
vn -0.488525 -0.787109 -0.375977
vn -0.241211 -0.742432 -0.624756
vn -0.336670 -0.740723 -0.581055
vn -0.517334 -0.757813 -0.397461
vn -0.517334 -0.757813 -0.397461
vn -0.517334 -0.757813 -0.397461
vn 0.159668 0.695313 0.700439
vn -0.298340 0.804443 0.513428
vn -0.135498 0.788574 0.599609
vn 0.159668 0.695557 0.700195
vn 0.159668 0.695313 0.700439
vn -0.135498 0.788574 0.599609
vn 0.894043 -0.404297 0.191895
vn 0.857910 -0.008545 0.513184
vn 0.857910 -0.008545 0.513428
vn 0.894043 -0.404297 0.191895
vn 0.894043 -0.404297 0.191895
vn 0.857910 -0.008545 0.513184
vn -0.895996 0.407715 -0.174805
vn -0.864746 0.010498 -0.501709
vn -0.895996 0.407715 -0.174805
vn -0.862061 0.011475 -0.506348
vn -0.862061 0.011475 -0.506348
vn -0.862061 0.011475 -0.506348
vn -0.175293 -0.690430 -0.701660
vn -0.175293 -0.690430 -0.701660
vn -0.177490 -0.691162 -0.700195
vn -0.173096 -0.689453 -0.703125
vn -0.175293 -0.690430 -0.701660
vn -0.175293 -0.690430 -0.701660
vn 0.696533 -0.694580 -0.179199
vn 0.894043 -0.404297 0.191895
vn 0.894043 -0.404297 0.191895
vn 0.696533 -0.694580 -0.179199
vn 0.696533 -0.694580 -0.179199
vn 0.894043 -0.404297 0.191895
vn -0.689209 0.696533 0.198242
vn -0.895996 0.407715 -0.174805
vn -0.895996 0.407715 -0.174805
vn -0.135498 0.788574 0.599609
vn -0.298340 0.804443 0.513428
vn -0.679932 0.707031 0.193848
vn -0.403320 0.794922 0.452637
vn -0.402100 0.797363 0.449219
vn -0.595459 0.748779 0.290527
vn -0.402100 0.797363 0.449219
vn -0.759033 0.643555 0.096680
vn -0.595459 0.748779 0.290527
vn 0.593750 -0.751221 -0.287842
vn 0.757568 -0.645508 -0.095215
vn 0.858643 -0.504150 0.091309
vn 0.757568 -0.645508 -0.095215
vn 0.856689 -0.506836 0.093506
vn 0.858643 -0.504150 0.091309
vn 0.598145 0.386475 0.701660
vn 0.598145 0.386475 0.701660
vn 0.602295 0.390869 0.695801
vn 0.598145 0.386475 0.701660
vn 0.593994 0.382080 0.707520
vn 0.598145 0.386475 0.701660
vn -0.860352 0.501221 -0.089111
vn -0.861084 0.500488 -0.087402
vn -0.759033 0.643555 0.096680
vn -0.759033 0.643555 0.096680
vn -0.861084 0.500488 -0.087402
vn -0.595459 0.748779 0.290527
vn 0.757568 -0.645508 -0.095215
vn 0.593750 -0.751221 -0.287842
vn 0.399902 -0.799805 -0.447021
vn 0.399902 -0.799805 -0.447021
vn 0.593750 -0.751221 -0.287842
vn 0.397705 -0.802246 -0.444824
vn -0.602539 -0.391357 -0.695313
vn -0.602539 -0.391357 -0.695313
vn -0.602539 -0.391357 -0.695313
vn -0.602539 -0.391357 -0.695068
vn -0.602539 -0.391357 -0.695313
vn -0.602539 -0.391357 -0.695313
vn 0.811035 0.099854 0.575928
vn 0.811035 0.100098 0.575928
vn 0.403809 0.557373 0.725098
vn 0.811035 0.099854 0.575928
vn 0.403809 0.557373 0.725098
vn 0.162598 0.695801 0.699219
vn 0.162598 0.695801 0.699219
vn 0.403809 0.557373 0.725098
vn -0.301270 0.803955 0.512451
vn 0.162598 0.695801 0.699219
vn -0.301270 0.803955 0.512451
vn -0.524658 0.774658 0.352539
vn -0.301270 0.803955 0.512451
vn -0.819824 0.572266 -0.000488
vn -0.524658 0.774658 0.352539
vn -0.819824 0.572266 -0.000488
vn -0.894775 0.402344 -0.192627
vn -0.524658 0.774658 0.352539
vn -0.819824 0.572266 -0.000488
vn -0.861816 0.015869 -0.506592
vn -0.894775 0.402344 -0.192627
vn -0.861816 0.015869 -0.506592
vn -0.751953 -0.200195 -0.627686
vn -0.894775 0.402344 -0.192627
vn -0.861816 0.015869 -0.506592
vn -0.407959 -0.553955 -0.725342
vn -0.751953 -0.200195 -0.627686
vn -0.407959 -0.553955 -0.725342
vn -0.173096 -0.690918 -0.701660
vn -0.751953 -0.200195 -0.627686
vn -0.407959 -0.553955 -0.725342
vn 0.291260 -0.803711 -0.518555
vn -0.173096 -0.690918 -0.701660
vn 0.291260 -0.803711 -0.518555
vn 0.520752 -0.775879 -0.355713
vn -0.173096 -0.690918 -0.701660
vn 0.291260 -0.803711 -0.518555
vn 0.867432 -0.486328 0.103516
vn 0.520752 -0.775879 -0.355713
vn 0.520752 -0.775879 -0.355713
vn 0.867432 -0.486328 0.103516
vn 0.867188 -0.486572 0.103271
vn 0.867432 -0.486328 0.103516
vn 0.811035 0.100098 0.575928
vn 0.811035 0.099854 0.575928
vn 0.867188 -0.486572 0.103271
vn 0.867432 -0.486328 0.103516
vn 0.811035 0.099854 0.575928
vn -0.747314 0.584717 0.315186
vn -0.747314 0.584717 0.315186
vn -0.746582 0.584717 0.316895
vn -0.747314 0.584717 0.315186
vn -0.748047 0.584717 0.313232
vn -0.747314 0.584717 0.315186
vn 0.054688 0.849121 -0.524902
vn 0.055908 0.851318 -0.521240
vn 0.054688 0.849121 -0.524902
vn 0.053223 0.846924 -0.528809
vn 0.054688 0.849121 -0.524902
vn 0.054688 0.849121 -0.524902
vn 0.781738 -0.094727 -0.616211
vn 0.782227 -0.093506 -0.615479
vn 0.781738 -0.094727 -0.616211
vn 0.781006 -0.095703 -0.616943
vn 0.781738 -0.094727 -0.616211
vn 0.781738 -0.094727 -0.616211
vn 0.416016 0.594971 -0.687500
vn 0.415771 0.594238 -0.688232
vn 0.416016 0.594971 -0.687500
vn 0.416016 0.594971 -0.687500
vn 0.416016 0.594971 -0.687500
vn 0.416016 0.594971 -0.687500
vn -0.416016 -0.594971 0.687500
vn -0.416016 -0.594971 0.687500
vn -0.416016 -0.594971 0.687500
vn -0.416016 -0.594971 0.687500
vn -0.416016 -0.594971 0.687500
vn -0.416016 -0.594971 0.687500
vn 0.415771 0.594238 -0.688232
vn 0.415527 0.593994 -0.688477
vn 0.416016 0.594971 -0.687500
vn 0.415771 0.594238 -0.688232
vn 0.415283 0.593262 -0.689453
vn 0.415527 0.593994 -0.688477
vn -0.416016 -0.594971 0.687500
vn -0.416016 -0.594971 0.687500
vn -0.416016 -0.594971 0.687500
vn -0.416016 -0.594971 0.687500
vn -0.416016 -0.594971 0.687500
vn -0.416016 -0.594971 0.687500
vn -0.241211 -0.742432 -0.624756
vn -0.049316 -0.721924 -0.689941
vn -0.105957 -0.685059 -0.720459
vn -0.241211 -0.742432 -0.624756
vn -0.105957 -0.685059 -0.720459
vn -0.336670 -0.740723 -0.581055
vn -0.719971 0.658203 0.219482
vn -0.719971 0.658203 0.219482
vn -0.719971 0.658203 0.219482
vn -0.702148 0.672607 0.232178
vn -0.476807 0.875488 -0.075928
vn -0.370117 0.911377 -0.179199
vn -0.158447 0.917969 -0.363037
vn -0.154785 0.921387 -0.355713
vn -0.370117 0.911377 -0.179199
vn -0.476807 0.875488 -0.075928
vn -0.158447 0.917969 -0.363037
vn -0.370117 0.911377 -0.179199
vn 0.548340 0.617920 0.563232
vn 0.548340 0.617920 0.563232
vn 0.548340 0.617920 0.563232
vn -0.659668 -0.156250 -0.734863
vn -0.659668 -0.156250 -0.734863
vn -0.659668 -0.156250 -0.734863
vn -0.270020 -0.684814 0.676514
vn -0.270020 -0.684814 0.676514
vn -0.270020 -0.684814 0.676514
vn -0.177246 -0.689209 -0.702393
vn -0.177246 -0.689209 -0.702393
vn -0.177246 -0.689209 -0.702393
vn -0.403564 -0.557373 -0.725342
vn -0.177002 -0.689209 -0.702393
vn -0.403564 -0.557373 -0.725342
vn -0.416016 -0.594971 0.687500
vn -0.416016 -0.594971 0.687500
vn -0.416016 -0.594727 0.687500
vn 0.598877 0.389893 0.699219
vn 0.345459 0.595215 0.725098
vn 0.485596 0.493164 0.721436
vn 0.597656 0.391846 0.699219
vn 0.598877 0.389893 0.699219
vn 0.485596 0.493164 0.721436
vn 0.648193 0.339600 0.681396
vn 0.550049 0.439209 0.709961
vn 0.549316 0.436523 0.712158
vn 0.648193 0.339600 0.681396
vn 0.815186 0.095703 0.571045
vn 0.550049 0.439209 0.709961
vn 0.550049 0.439209 0.709961
vn 0.601807 0.391357 0.696045
vn 0.602051 0.387939 0.697754
vn 0.549316 0.436523 0.712158
vn 0.550049 0.439209 0.709961
vn 0.602051 0.387939 0.697754
vn -0.321045 0.804688 0.499023
vn -0.787354 0.614258 0.049316
vn -0.574219 0.759766 0.304443
vn -0.321045 0.804932 0.498779
vn -0.321045 0.804688 0.499023
vn -0.574219 0.759766 0.304443
vn -0.403564 -0.557373 -0.725342
vn -0.403564 -0.557373 -0.725342
vn -0.602051 -0.386963 -0.697998
vn -0.788818 -0.142090 -0.597656
vn -0.600830 -0.389404 -0.697998
vn -0.743652 -0.215332 -0.632568
vn -0.690674 -0.279785 -0.666504
vn -0.690674 -0.279785 -0.666504
vn -0.690674 -0.279785 -0.666504
vn -0.647217 -0.335938 -0.684082
vn -0.691895 -0.281982 -0.664307
vn -0.647217 -0.335938 -0.684082
vn -0.595947 -0.387451 -0.703125
vn -0.595947 -0.387451 -0.703125
vn -0.595947 -0.387451 -0.703125
vn -0.647217 -0.335938 -0.684082
vn -0.647217 -0.335938 -0.684082
vn -0.599121 -0.387939 -0.699951
vn -0.787354 0.614258 0.049316
vn -0.889893 0.416992 -0.183838
vn -0.574219 0.759766 0.304443
vn -0.890625 0.416748 -0.181641
vn -0.889893 0.416992 -0.183838
vn -0.787354 0.614258 0.049316
vn -0.696533 0.694580 0.179199
vn -0.696533 0.694580 0.179199
vn -0.696533 0.694580 0.179199
vn -0.696533 0.694580 0.179199
vn -0.696533 0.694580 0.179199
vn -0.696533 0.694580 0.179199
vn 0.696533 -0.694580 -0.179199
vn 0.696533 -0.694580 -0.179199
vn 0.696533 -0.694580 -0.179199
vn 0.696533 -0.694580 -0.179199
vn 0.696533 -0.694580 -0.179199
vn 0.696533 -0.694580 -0.179199
vn -0.416016 -0.594971 0.687500
vn -0.416016 -0.594727 0.687500
vn -0.416016 -0.594727 0.687500
vn -0.416016 -0.594727 0.687500
vn -0.416016 -0.594727 0.687500
vn -0.416016 -0.594727 0.687500
vn -0.416016 -0.594727 0.687500
vn -0.416016 -0.594727 0.687500
vn -0.416016 -0.594727 0.687500
vn -0.416016 -0.594727 0.687500
vn -0.416016 -0.594727 0.687500
vn -0.416016 -0.594727 0.687500
vn -0.416016 -0.594971 0.687500
vn -0.416016 -0.594971 0.687500
vn -0.416016 -0.594971 0.687500
vn -0.416016 -0.594971 0.687500
vn -0.416016 -0.594971 0.687500
vn -0.416016 -0.594971 0.687500
vn 0.485596 0.493164 0.721436
vn 0.345459 0.595215 0.725098
vn 0.204102 0.675049 0.708740
vn 0.345459 0.595215 0.725098
vn 0.184326 0.685547 0.704102
vn 0.204102 0.675049 0.708740
vn 0.870850 -0.478516 0.110840
vn 0.909424 -0.266113 0.318848
vn 0.815186 0.095703 0.571045
vn 0.909424 -0.266113 0.318848
vn 0.858643 -0.007080 0.512207
vn 0.815186 0.095703 0.571045
vn 0.895508 -0.402588 0.189209
vn 0.815186 0.095703 0.571045
vn 0.648193 0.339600 0.681396
vn 0.895508 -0.402588 0.189209
vn 0.870850 -0.478516 0.110840
vn 0.815186 0.095703 0.571045
vn -0.788818 -0.142090 -0.597656
vn -0.743652 -0.215332 -0.632568
vn -0.909424 0.253418 -0.329102
vn -0.849365 0.523926 -0.060059
vn -0.788818 -0.142090 -0.597656
vn -0.909424 0.253418 -0.329102
vn -0.174805 -0.690186 -0.701904
vn -0.174561 -0.693604 -0.698486
vn -0.174805 -0.690186 -0.701904
vn -0.175049 -0.686523 -0.705566
vn -0.174805 -0.690186 -0.701904
vn -0.174805 -0.690186 -0.701904
vn -0.415771 -0.594971 0.687500
vn -0.415771 -0.594971 0.687500
vn -0.415771 -0.594971 0.687500
vn -0.416992 -0.595215 0.686523
vn -0.416260 -0.595947 0.686279
vn -0.417725 -0.593994 0.687256
vn -0.416992 -0.595215 0.686523
vn -0.417725 -0.593994 0.687256
vn -0.418457 -0.593018 0.687500
vn -0.418457 -0.593018 0.687500
vn -0.417725 -0.593994 0.687256
vn -0.419189 -0.591553 0.688232
vn 0.697998 -0.693359 -0.177490
vn 0.909424 -0.266113 0.318848
vn 0.870850 -0.478516 0.110840
vn 0.696533 -0.694580 -0.179199
vn 0.697998 -0.693359 -0.177490
vn 0.870850 -0.478516 0.110840
vn -0.849365 0.523926 -0.060059
vn -0.909424 0.253418 -0.329102
vn -0.697998 0.693359 0.177490
vn -0.699707 0.692139 0.175781
vn -0.849365 0.523926 -0.060059
vn -0.697998 0.693359 0.177490
vn 0.696533 -0.694580 -0.179199
vn 0.696533 -0.694580 -0.179199
vn 0.895508 -0.402588 0.189209
vn 0.696533 -0.694580 -0.179199
vn 0.870850 -0.478516 0.110840
vn 0.895508 -0.402588 0.189209
vn 0.600830 0.389404 0.697998
vn 0.600830 0.389404 0.697998
vn 0.600830 0.389404 0.697998
vn 0.553955 0.419922 0.718506
vn 0.553955 0.419922 0.718506
vn 0.553955 0.419922 0.718506
vn -0.646973 -0.354980 -0.674561
vn -0.623535 -0.372070 -0.687012
vn -0.623535 -0.372070 -0.687012
vn -0.623535 -0.372070 -0.687012
vn -0.623535 -0.372070 -0.687012
vn -0.599609 -0.388916 -0.699219
vn 0.953369 -0.212402 -0.213379
vn 0.807617 -0.362061 -0.465088
vn 0.968262 -0.186523 -0.164795
vn 0.807617 -0.362061 -0.465088
vn 0.805664 -0.365967 -0.465332
vn 0.968262 -0.186523 -0.164795
vn 0.805664 -0.365967 -0.465332
vn 0.807617 -0.362061 -0.465088
vn 0.528320 -0.484375 -0.697021
vn 0.807617 -0.362061 -0.465088
vn 0.580322 -0.466309 -0.667236
vn 0.528320 -0.484375 -0.697021
vn -0.966309 0.168213 0.194580
vn -0.970215 0.160645 0.179932
vn -0.880127 0.279297 0.383545
vn -0.970215 0.160645 0.179932
vn -0.812988 0.333008 0.477295
vn -0.880127 0.279297 0.383545
vn -0.812988 0.333008 0.477295
vn -0.525146 0.461182 0.715088
vn -0.880127 0.279297 0.383545
vn -0.544678 0.454346 0.704590
vn -0.544678 0.454346 0.704590
vn -0.544678 0.454346 0.704590
vn 0.048828 0.843750 -0.534180
vn 0.048828 0.843506 -0.534424
vn 0.052490 0.846191 -0.530029
vn 0.048828 0.843506 -0.534424
vn 0.052734 0.846191 -0.530029
vn 0.052490 0.846191 -0.530029
vn 0.056396 0.848633 -0.525635
vn 0.056152 0.848389 -0.525879
vn 0.052490 0.846191 -0.530029
vn 0.052734 0.846191 -0.530029
vn 0.056396 0.848633 -0.525635
vn 0.052490 0.846191 -0.530029
vn 0.435059 -0.168945 -0.884277
vn -0.565186 0.000000 -0.824707
vn -0.136230 0.857910 -0.494873
vn -0.416748 -0.858154 -0.299072
vn -0.565186 0.000000 -0.824707
vn 0.435059 -0.168945 -0.884277
vn 0.564453 0.014648 0.825195
vn 0.964600 0.251465 -0.076172
vn 0.070557 0.848389 0.524170
vn 0.564453 0.014648 0.825195
vn 0.480713 -0.833984 0.269775
vn 0.964600 0.251465 -0.076172
vn -0.565186 0.000000 -0.824707
vn -0.979736 0.181396 0.083252
vn -0.136230 0.857910 -0.494873
vn -0.416748 -0.858154 -0.299072
vn -0.979736 0.181396 0.083252
vn -0.565186 0.000000 -0.824707
vn -0.421387 -0.224854 0.878418
vn 0.564453 0.014648 0.825195
vn 0.070557 0.848389 0.524170
vn -0.421387 -0.224854 0.878418
vn 0.480713 -0.833984 0.269775
vn 0.564453 0.014648 0.825195
vn 0.989990 0.059326 -0.126953
vn 0.358643 0.055176 -0.931641
vn 0.322998 0.840576 -0.434326
vn 0.463379 0.548828 0.695313
vn 0.989990 0.059326 -0.126953
vn 0.322998 0.840576 -0.434326
vn 0.535156 -0.627197 0.565430
vn 0.989990 0.059326 -0.126953
vn 0.463379 0.548828 0.695313
vn 0.535156 -0.627197 0.565430
vn 0.395508 -0.775635 -0.491699
vn 0.989990 0.059326 -0.126953
vn 0.989990 0.059326 -0.126953
vn 0.395508 -0.775635 -0.491699
vn 0.358643 0.055176 -0.931641
vn -0.792725 0.000000 -0.609131
vn -0.984131 -0.050049 0.169434
vn -0.714600 0.698242 -0.039795
vn -0.984131 -0.050049 0.169434
vn -0.546387 0.376221 0.748047
vn -0.714600 0.698242 -0.039795
vn -0.984131 -0.050049 0.169434
vn -0.510742 -0.456787 0.728027
vn -0.546387 0.376221 0.748047
vn -0.648926 -0.757813 -0.065674
vn -0.510742 -0.456787 0.728027
vn -0.984131 -0.050049 0.169434
vn -0.648926 -0.757813 -0.065674
vn -0.984131 -0.050049 0.169434
vn -0.792725 0.000000 -0.609131
vn 0.480713 -0.833984 0.269775
vn 0.435059 -0.168945 -0.884277
vn 0.964600 0.251465 -0.076172
vn 0.480713 -0.833984 0.269775
vn -0.416748 -0.858154 -0.299072
vn 0.435059 -0.168945 -0.884277
vn 0.964600 0.251465 -0.076172
vn -0.136230 0.857910 -0.494873
vn 0.070557 0.848389 0.524170
vn 0.964600 0.251465 -0.076172
vn 0.435059 -0.168945 -0.884277
vn -0.136230 0.857910 -0.494873
vn -0.416748 -0.858154 -0.299072
vn 0.480713 -0.833984 0.269775
vn -0.421387 -0.224854 0.878418
vn -0.979736 0.181396 0.083252
vn -0.416748 -0.858154 -0.299072
vn -0.421387 -0.224854 0.878418
vn -0.979736 0.181396 0.083252
vn -0.421387 -0.224854 0.878418
vn 0.070557 0.848389 0.524170
vn -0.136230 0.857910 -0.494873
vn -0.979736 0.181396 0.083252
vn 0.070557 0.848389 0.524170
vn -0.510742 -0.456787 0.728027
vn -0.648926 -0.757813 -0.065674
vn 0.535156 -0.627197 0.565430
vn -0.648926 -0.757813 -0.065674
vn 0.395508 -0.775635 -0.491699
vn 0.535156 -0.627197 0.565430
vn -0.510742 -0.456787 0.728027
vn 0.463379 0.548828 0.695313
vn -0.546387 0.376221 0.748047
vn -0.510742 -0.456787 0.728027
vn 0.535156 -0.627197 0.565430
vn 0.463379 0.548828 0.695313
vn 0.395508 -0.775635 -0.491699
vn -0.648926 -0.757813 -0.065674
vn -0.792725 0.000000 -0.609131
vn 0.395508 -0.775635 -0.491699
vn -0.792725 0.000000 -0.609131
vn 0.358643 0.055176 -0.931641
vn 0.322998 0.840576 -0.434326
vn -0.792725 0.000000 -0.609131
vn -0.714600 0.698242 -0.039795
vn 0.358643 0.055176 -0.931641
vn -0.792725 0.000000 -0.609131
vn 0.322998 0.840576 -0.434326
vn 0.463379 0.548828 0.695313
vn 0.322998 0.840576 -0.434326
vn -0.714600 0.698242 -0.039795
vn -0.546387 0.376221 0.748047
vn 0.463379 0.548828 0.695313
vn -0.714600 0.698242 -0.039795
usemtl Texture
f 1/1/1 2/2/2 3/3/3
f 4/4/4 5/5/5 6/6/6
f 7/7/7 8/8/8 9/9/9
f 10/10/10 11/11/11 12/12/12
f 13/13/13 14/14/14 15/15/15
f 16/16/16 17/17/17 18/18/18
f 19/19/19 20/20/20 21/21/21
f 22/22/22 23/23/23 24/24/24
f 25/25/25 26/26/26 27/27/27
f 28/28/28 29/29/29 30/30/30
f 31/31/31 32/32/32 33/33/33
f 34/34/34 35/35/35 36/36/36
f 37/37/37 38/38/38 39/39/39
f 40/40/40 41/41/41 42/42/42
f 43/43/43 44/44/44 45/45/45
f 46/46/46 47/47/47 48/48/48
f 49/49/49 50/50/50 51/51/51
f 52/52/52 53/53/53 54/54/54
f 55/55/55 56/56/56 57/57/57
f 58/58/58 59/59/59 60/60/60
f 61/61/61 62/62/62 63/63/63
f 64/64/64 65/65/65 66/66/66
f 67/67/67 68/68/68 69/69/69
f 70/70/70 71/71/71 72/72/72
f 73/73/73 74/74/74 75/75/75
f 76/76/76 77/77/77 78/78/78
f 79/79/79 80/80/80 81/81/81
f 82/82/82 83/83/83 84/84/84
f 85/85/85 86/86/86 87/87/87
f 88/88/88 89/89/89 90/90/90
f 91/91/91 92/92/92 93/93/93
f 94/94/94 95/95/95 96/96/96
f 97/97/97 98/98/98 99/99/99
f 100/100/100 101/101/101 102/102/102
f 103/103/103 104/104/104 105/105/105
f 106/106/106 107/107/107 108/108/108
f 109/109/109 110/110/110 111/111/111
f 112/112/112 113/113/113 114/114/114
f 115/115/115 116/116/116 117/117/117
f 118/118/118 119/119/119 120/120/120
f 121/121/121 122/122/122 123/123/123
f 124/124/124 125/125/125 126/126/126
f 127/127/127 128/128/128 129/129/129
f 130/130/130 131/131/131 132/132/132
f 133/133/133 134/134/134 135/135/135
f 136/136/136 137/137/137 138/138/138
f 139/139/139 140/140/140 141/141/141
f 142/142/142 143/143/143 144/144/144
f 145/145/145 146/146/146 147/147/147
f 148/148/148 149/149/149 150/150/150
f 151/151/151 152/152/152 153/153/153
f 154/154/154 155/155/155 156/156/156
f 157/157/157 158/158/158 159/159/159
f 160/160/160 161/161/161 162/162/162
f 163/163/163 164/164/164 165/165/165
f 166/166/166 167/167/167 168/168/168
f 169/169/169 170/170/170 171/171/171
f 172/172/172 173/173/173 174/174/174
f 175/175/175 176/176/176 177/177/177
f 178/178/178 179/179/179 180/180/180
f 181/181/181 182/182/182 183/183/183
f 184/184/184 185/185/185 186/186/186
f 187/187/187 188/188/188 189/189/189
f 190/190/190 191/191/191 192/192/192
f 193/193/193 194/194/194 195/195/195
f 196/196/196 197/197/197 198/198/198
f 199/199/199 200/200/200 201/201/201
f 202/202/202 203/203/203 204/204/204
f 205/205/205 206/206/206 207/207/207
f 208/208/208 209/209/209 210/210/210
f 211/211/211 212/212/212 213/213/213
f 214/214/214 215/215/215 216/216/216
f 217/217/217 218/218/218 219/219/219
f 220/220/220 221/221/221 222/222/222
f 223/223/223 224/224/224 225/225/225
f 226/226/226 227/227/227 228/228/228
f 229/229/229 230/230/230 231/231/231
f 232/232/232 233/233/233 234/234/234
f 235/235/235 236/236/236 237/237/237
f 238/238/238 239/239/239 240/240/240
f 241/241/241 242/242/242 243/243/243
f 244/244/244 245/245/245 246/246/246
f 247/247/247 248/248/248 249/249/249
f 250/250/250 251/251/251 252/252/252
f 253/253/253 254/254/254 255/255/255
f 256/256/256 257/257/257 258/258/258
f 259/259/259 260/260/260 261/261/261
f 262/262/262 263/263/263 264/264/264
f 265/265/265 266/266/266 267/267/267
f 268/268/268 269/269/269 270/270/270
f 271/271/271 272/272/272 273/273/273
f 274/274/274 275/275/275 276/276/276
f 277/277/277 278/278/278 279/279/279
f 280/280/280 281/281/281 282/282/282
f 283/283/283 284/284/284 285/285/285
f 286/286/286 287/287/287 288/288/288
f 289/289/289 290/290/290 291/291/291
f 292/292/292 293/293/293 294/294/294
f 295/295/295 296/296/296 297/297/297
f 298/298/298 299/299/299 300/300/300
f 301/301/301 302/302/302 303/303/303
f 304/304/304 305/305/305 306/306/306
f 307/307/307 308/308/308 309/309/309
f 310/310/310 311/311/311 312/312/312
f 313/313/313 314/314/314 315/315/315
f 316/316/316 317/317/317 318/318/318
f 319/319/319 320/320/320 321/321/321
f 322/322/322 323/323/323 324/324/324
f 325/325/325 326/326/326 327/327/327
f 328/328/328 329/329/329 330/330/330
f 331/331/331 332/332/332 333/333/333
f 334/334/334 335/335/335 336/336/336
f 337/337/337 338/338/338 339/339/339
f 340/340/340 341/341/341 342/342/342
f 343/343/343 344/344/344 345/345/345
f 346/346/346 347/347/347 348/348/348
f 349/349/349 350/350/350 351/351/351
f 352/352/352 353/353/353 354/354/354
f 355/355/355 356/356/356 357/357/357
f 358/358/358 359/359/359 360/360/360
f 361/361/361 362/362/362 363/363/363
f 364/364/364 365/365/365 366/366/366
f 367/367/367 368/368/368 369/369/369
f 370/370/370 371/371/371 372/372/372
f 373/373/373 374/374/374 375/375/375
f 376/376/376 377/377/377 378/378/378
f 379/379/379 380/380/380 381/381/381
f 382/382/382 383/383/383 384/384/384
f 385/385/385 386/386/386 387/387/387
f 388/388/388 389/389/389 390/390/390
f 391/391/391 392/392/392 393/393/393
f 394/394/394 395/395/395 396/396/396
f 397/397/397 398/398/398 399/399/399
f 400/400/400 401/401/401 402/402/402
f 403/403/403 404/404/404 405/405/405
f 406/406/406 407/407/407 408/408/408
f 409/409/409 410/410/410 411/411/411
f 412/412/412 413/413/413 414/414/414
f 415/415/415 416/416/416 417/417/417
f 418/418/418 419/419/419 420/420/420
f 421/421/421 422/422/422 423/423/423
f 424/424/424 425/425/425 426/426/426
f 427/427/427 428/428/428 429/429/429
f 430/430/430 431/431/431 432/432/432
f 433/433/433 434/434/434 435/435/435
f 436/436/436 437/437/437 438/438/438
f 439/439/439 440/440/440 441/441/441
f 442/442/442 443/443/443 444/444/444
f 445/445/445 446/446/446 447/447/447
f 448/448/448 449/449/449 450/450/450
f 451/451/451 452/452/452 453/453/453
f 454/454/454 455/455/455 456/456/456
f 457/457/457 458/458/458 459/459/459
f 460/460/460 461/461/461 462/462/462
f 463/463/463 464/464/464 465/465/465
f 466/466/466 467/467/467 468/468/468
f 469/469/469 470/470/470 471/471/471
f 472/472/472 473/473/473 474/474/474
f 475/475/475 476/476/476 477/477/477
f 478/478/478 479/479/479 480/480/480
f 481/481/481 482/482/482 483/483/483
f 484/484/484 485/485/485 486/486/486
f 487/487/487 488/488/488 489/489/489
f 490/490/490 491/491/491 492/492/492
f 493/493/493 494/494/494 495/495/495
f 496/496/496 497/497/497 498/498/498
f 499/499/499 500/500/500 501/501/501
f 502/502/502 503/503/503 504/504/504
f 505/505/505 506/506/506 507/507/507
f 508/508/508 509/509/509 510/510/510
f 511/511/511 512/512/512 513/513/513
f 514/514/514 515/515/515 516/516/516
f 517/517/517 518/518/518 519/519/519
f 520/520/520 521/521/521 522/522/522
f 523/523/523 524/524/524 525/525/525
f 526/526/526 527/527/527 528/528/528
f 529/529/529 530/530/530 531/531/531
f 532/532/532 533/533/533 534/534/534
f 535/535/535 536/536/536 537/537/537
f 538/538/538 539/539/539 540/540/540
f 541/541/541 542/542/542 543/543/543
f 544/544/544 545/545/545 546/546/546
f 547/547/547 548/548/548 549/549/549
f 550/550/550 551/551/551 552/552/552
f 553/553/553 554/554/554 555/555/555
f 556/556/556 557/557/557 558/558/558
f 559/559/559 560/560/560 561/561/561
f 562/562/562 563/563/563 564/564/564
f 565/565/565 566/566/566 567/567/567
f 568/568/568 569/569/569 570/570/570
f 571/571/571 572/572/572 573/573/573
f 574/574/574 575/575/575 576/576/576
f 577/577/577 578/578/578 579/579/579
f 580/580/580 581/581/581 582/582/582
f 583/583/583 584/584/584 585/585/585
f 586/586/586 587/587/587 588/588/588
f 589/589/589 590/590/590 591/591/591
f 592/592/592 593/593/593 594/594/594