# OBJ file
mtllib ICON.ICO.mtl
v -0.214844 0.073242 0.214844 0.698039 0.698039 0.698039 #0.501961
v -0.303955 0.073242 0.000000 0.698039 0.698039 0.698039 #0.501961
v 0.000000 0.000000 0.000000 0.698039 0.698039 0.698039 #0.501961
v -0.303955 1.020996 0.000000 0.698039 0.698039 0.698039 #0.501961
v -0.214844 1.020996 0.214844 0.698039 0.698039 0.698039 #0.501961
v 0.000000 1.094238 0.000000 0.698039 0.698039 0.698039 #0.501961
v 0.000000 0.073242 0.303955 0.698039 0.698039 0.698039 #0.501961
v -0.214844 0.073242 0.214844 0.698039 0.698039 0.698039 #0.501961
v 0.000000 0.000000 0.000000 0.698039 0.698039 0.698039 #0.501961
v -0.214844 1.020996 0.214844 0.698039 0.698039 0.698039 #0.501961
v 0.000000 1.020996 0.303955 0.698039 0.698039 0.698039 #0.501961
v 0.000000 1.094238 0.000000 0.698039 0.698039 0.698039 #0.501961
v 0.214844 0.073242 0.214844 0.698039 0.698039 0.698039 #0.501961
v 0.000000 0.073242 0.303955 0.698039 0.698039 0.698039 #0.501961
v 0.000000 0.000000 0.000000 0.698039 0.698039 0.698039 #0.501961
v 0.000000 1.020996 0.303955 0.698039 0.698039 0.698039 #0.501961
v 0.214844 1.020996 0.214844 0.698039 0.698039 0.698039 #0.501961
v 0.000000 1.094238 0.000000 0.698039 0.698039 0.698039 #0.501961
v 0.303955 0.073242 0.000000 0.698039 0.698039 0.698039 #0.501961
v 0.214844 0.073242 0.214844 0.698039 0.698039 0.698039 #0.501961
v 0.000000 0.000000 0.000000 0.698039 0.698039 0.698039 #0.501961
v 0.214844 1.020996 0.214844 0.698039 0.698039 0.698039 #0.501961
v 0.303955 1.020996 0.000000 0.698039 0.698039 0.698039 #0.501961
v 0.000000 1.094238 0.000000 0.698039 0.698039 0.698039 #0.501961
v 0.214844 0.073242 -0.214844 0.698039 0.698039 0.698039 #0.501961
v 0.303955 0.073242 0.000000 0.698039 0.698039 0.698039 #0.501961
v 0.000000 0.000000 0.000000 0.698039 0.698039 0.698039 #0.501961
v 0.303955 1.020996 0.000000 0.698039 0.698039 0.698039 #0.501961
v 0.214844 1.020996 -0.214844 0.698039 0.698039 0.698039 #0.501961
v 0.000000 1.094238 0.000000 0.698039 0.698039 0.698039 #0.501961
v 0.000000 0.073242 -0.303955 0.698039 0.698039 0.698039 #0.501961
v 0.214844 0.073242 -0.214844 0.698039 0.698039 0.698039 #0.501961
v 0.000000 0.000000 0.000000 0.698039 0.698039 0.698039 #0.501961
v 0.214844 1.020996 -0.214844 0.698039 0.698039 0.698039 #0.501961
v 0.000000 1.020996 -0.303955 0.698039 0.698039 0.698039 #0.501961
v 0.000000 1.094238 0.000000 0.698039 0.698039 0.698039 #0.501961
v -0.214844 0.073242 -0.214844 0.698039 0.698039 0.698039 #0.501961
v 0.000000 0.073242 -0.303955 0.698039 0.698039 0.698039 #0.501961
v 0.000000 0.000000 0.000000 0.698039 0.698039 0.698039 #0.501961
v 0.000000 1.020996 -0.303955 0.698039 0.698039 0.698039 #0.501961
v -0.214844 1.020996 -0.214844 0.698039 0.698039 0.698039 #0.501961
v 0.000000 1.094238 0.000000 0.698039 0.698039 0.698039 #0.501961
v -0.303955 0.073242 0.000000 0.698039 0.698039 0.698039 #0.501961
v -0.214844 0.073242 -0.214844 0.698039 0.698039 0.698039 #0.501961
v 0.000000 0.000000 0.000000 0.698039 0.698039 0.698039 #0.501961
v -0.214844 1.020996 -0.214844 0.698039 0.698039 0.698039 #0.501961
v -0.303955 1.020996 0.000000 0.698039 0.698039 0.698039 #0.501961
v 0.000000 1.094238 0.000000 0.698039 0.698039 0.698039 #0.501961
v -0.171875 0.942627 0.171875 0.698039 0.698039 0.698039 #0.501961
v -0.243164 0.942627 0.000000 0.698039 0.698039 0.698039 #0.501961
v 0.000000 0.881592 0.000000 0.698039 0.698039 0.698039 #0.501961
v -0.243164 1.732422 0.000000 0.698039 0.698039 0.698039 #0.501961
v -0.171875 1.732422 0.171875 0.698039 0.698039 0.698039 #0.501961
v 0.000000 1.793457 0.000000 0.698039 0.698039 0.698039 #0.501961
v 0.000000 0.942627 0.243164 0.698039 0.698039 0.698039 #0.501961
v -0.171875 0.942627 0.171875 0.698039 0.698039 0.698039 #0.501961
v 0.000000 0.881592 0.000000 0.698039 0.698039 0.698039 #0.501961
v -0.171875 1.732422 0.171875 0.698039 0.698039 0.698039 #0.501961
v 0.000000 1.732422 0.243164 0.698039 0.698039 0.698039 #0.501961
v 0.000000 1.793457 0.000000 0.698039 0.698039 0.698039 #0.501961
v 0.171875 0.942627 0.171875 0.698039 0.698039 0.698039 #0.501961
v 0.000000 0.942627 0.243164 0.698039 0.698039 0.698039 #0.501961
v 0.000000 0.881592 0.000000 0.698039 0.698039 0.698039 #0.501961
v 0.000000 1.732422 0.243164 0.698039 0.698039 0.698039 #0.501961
v 0.171875 1.732422 0.171875 0.698039 0.698039 0.698039 #0.501961
v 0.000000 1.793457 0.000000 0.698039 0.698039 0.698039 #0.501961
v 0.243164 0.942627 0.000000 0.698039 0.698039 0.698039 #0.501961
v 0.171875 0.942627 0.171875 0.698039 0.698039 0.698039 #0.501961
v 0.000000 0.881592 0.000000 0.698039 0.698039 0.698039 #0.501961
v 0.171875 1.732422 0.171875 0.698039 0.698039 0.698039 #0.501961
v 0.243164 1.732422 0.000000 0.698039 0.698039 0.698039 #0.501961
v 0.000000 1.793457 0.000000 0.698039 0.698039 0.698039 #0.501961
v 0.171875 0.942627 -0.171875 0.698039 0.698039 0.698039 #0.501961
v 0.243164 0.942627 0.000000 0.698039 0.698039 0.698039 #0.501961
v 0.000000 0.881592 0.000000 0.698039 0.698039 0.698039 #0.501961
v 0.243164 1.732422 0.000000 0.698039 0.698039 0.698039 #0.501961
v 0.171875 1.732422 -0.171875 0.698039 0.698039 0.698039 #0.501961
v 0.000000 1.793457 0.000000 0.698039 0.698039 0.698039 #0.501961
v 0.000000 0.942627 -0.243164 0.698039 0.698039 0.698039 #0.501961
v 0.171875 0.942627 -0.171875 0.698039 0.698039 0.698039 #0.501961
v 0.000000 0.881592 0.000000 0.698039 0.698039 0.698039 #0.501961
v 0.171875 1.732422 -0.171875 0.698039 0.698039 0.698039 #0.501961
v 0.000000 1.732422 -0.243164 0.698039 0.698039 0.698039 #0.501961
v 0.000000 1.793457 0.000000 0.698039 0.698039 0.698039 #0.501961
v -0.171875 0.942627 -0.171875 0.698039 0.698039 0.698039 #0.501961
v 0.000000 0.942627 -0.243164 0.698039 0.698039 0.698039 #0.501961
v 0.000000 0.881592 0.000000 0.698039 0.698039 0.698039 #0.501961
v 0.000000 1.732422 -0.243164 0.698039 0.698039 0.698039 #0.501961
v -0.171875 1.732422 -0.171875 0.698039 0.698039 0.698039 #0.501961
v 0.000000 1.793457 0.000000 0.698039 0.698039 0.698039 #0.501961
v -0.243164 0.942627 0.000000 0.698039 0.698039 0.698039 #0.501961
v -0.171875 0.942627 -0.171875 0.698039 0.698039 0.698039 #0.501961
v 0.000000 0.881592 0.000000 0.698039 0.698039 0.698039 #0.501961
v -0.171875 1.732422 -0.171875 0.698039 0.698039 0.698039 #0.501961
v -0.243164 1.732422 0.000000 0.698039 0.698039 0.698039 #0.501961
v 0.000000 1.793457 0.000000 0.698039 0.698039 0.698039 #0.501961
v -0.108398 2.140137 0.034668 0.698039 0.698039 0.698039 #0.501961
v -0.217041 2.086182 0.214844 0.698039 0.698039 0.698039 #0.501961
v 0.000000 2.086182 0.214844 0.698039 0.698039 0.698039 #0.501961
v -0.217041 2.086182 0.214844 0.698039 0.698039 0.698039 #0.501961
v -0.108398 2.032227 0.395264 0.698039 0.698039 0.698039 #0.501961
v 0.000000 2.086182 0.214844 0.698039 0.698039 0.698039 #0.501961
v -0.108398 2.032227 0.395264 0.698039 0.698039 0.698039 #0.501961
v 0.108398 2.032227 0.395264 0.698039 0.698039 0.698039 #0.501961
v 0.000000 2.086182 0.214844 0.698039 0.698039 0.698039 #0.501961
v 0.108398 2.140137 0.034668 0.698039 0.698039 0.698039 #0.501961
v -0.108398 2.140137 0.034668 0.698039 0.698039 0.698039 #0.501961
v 0.000000 2.086182 0.214844 0.698039 0.698039 0.698039 #0.501961
v 0.108398 2.032227 0.395264 0.698039 0.698039 0.698039 #0.501961
v 0.217041 2.086182 0.214844 0.698039 0.698039 0.698039 #0.501961
v 0.000000 2.086182 0.214844 0.698039 0.698039 0.698039 #0.501961
v 0.217041 2.086182 0.214844 0.698039 0.698039 0.698039 #0.501961
v 0.108398 2.140137 0.034668 0.698039 0.698039 0.698039 #0.501961
v 0.000000 2.086182 0.214844 0.698039 0.698039 0.698039 #0.501961
v -0.037842 1.303223 -0.438232 0.698039 0.698039 0.698039 #0.501961
v -0.075928 1.368408 -0.430420 0.698039 0.698039 0.698039 #0.501961
v 0.000000 1.401123 -0.697021 0.698039 0.698039 0.698039 #0.501961
v 0.037842 1.303223 -0.438232 0.698039 0.698039 0.698039 #0.501961
v -0.037842 1.303223 -0.438232 0.698039 0.698039 0.698039 #0.501961
v 0.000000 1.401123 -0.697021 0.698039 0.698039 0.698039 #0.501961
v 0.075928 1.368408 -0.430420 0.698039 0.698039 0.698039 #0.501961
v 0.037842 1.303223 -0.438232 0.698039 0.698039 0.698039 #0.501961
v 0.000000 1.401123 -0.697021 0.698039 0.698039 0.698039 #0.501961
v 0.037842 1.433838 -0.422363 0.698039 0.698039 0.698039 #0.501961
v 0.075928 1.368408 -0.430420 0.698039 0.698039 0.698039 #0.501961
v 0.000000 1.401123 -0.697021 0.698039 0.698039 0.698039 #0.501961
v -0.037842 1.433838 -0.422363 0.698039 0.698039 0.698039 #0.501961
v 0.037842 1.433838 -0.422363 0.698039 0.698039 0.698039 #0.501961
v 0.000000 1.401123 -0.697021 0.698039 0.698039 0.698039 #0.501961
v -0.075928 1.368408 -0.430420 0.698039 0.698039 0.698039 #0.501961
v -0.037842 1.433838 -0.422363 0.698039 0.698039 0.698039 #0.501961
v 0.000000 1.401123 -0.697021 0.698039 0.698039 0.698039 #0.501961
v 0.193848 1.391846 -0.375000 0.698039 0.698039 0.698039 #0.501961
v 0.164551 1.475098 -0.372070 0.698039 0.698039 0.698039 #0.501961
v 0.228027 1.481201 -0.391846 0.698039 0.698039 0.698039 #0.501961
v 0.243652 1.391846 -0.356934 0.698039 0.698039 0.698039 #0.501961
v 0.193848 1.391846 -0.375000 0.698039 0.698039 0.698039 #0.501961
v 0.228027 1.481201 -0.391846 0.698039 0.698039 0.698039 #0.501961
v 0.264160 1.475098 -0.335938 0.698039 0.698039 0.698039 #0.501961
v 0.243652 1.391846 -0.356934 0.698039 0.698039 0.698039 #0.501961
v 0.228027 1.481201 -0.391846 0.698039 0.698039 0.698039 #0.501961
v 0.234863 1.558105 -0.333008 0.698039 0.698039 0.698039 #0.501961
v 0.264160 1.475098 -0.335938 0.698039 0.698039 0.698039 #0.501961
v 0.228027 1.481201 -0.391846 0.698039 0.698039 0.698039 #0.501961
v 0.185059 1.558105 -0.351074 0.698039 0.698039 0.698039 #0.501961
v 0.234863 1.558105 -0.333008 0.698039 0.698039 0.698039 #0.501961
v 0.228027 1.481201 -0.391846 0.698039 0.698039 0.698039 #0.501961
v 0.164551 1.475098 -0.372070 0.698039 0.698039 0.698039 #0.501961
v 0.185059 1.558105 -0.351074 0.698039 0.698039 0.698039 #0.501961
v 0.228027 1.481201 -0.391846 0.698039 0.698039 0.698039 #0.501961
v -0.243652 1.391846 -0.356934 0.698039 0.698039 0.698039 #0.501961
v -0.264160 1.475098 -0.335938 0.698039 0.698039 0.698039 #0.501961
v -0.228027 1.481201 -0.391846 0.698039 0.698039 0.698039 #0.501961
v -0.193848 1.391846 -0.375000 0.698039 0.698039 0.698039 #0.501961
v -0.243652 1.391846 -0.356934 0.698039 0.698039 0.698039 #0.501961
v -0.228027 1.481201 -0.391846 0.698039 0.698039 0.698039 #0.501961
v -0.164551 1.475098 -0.372070 0.698039 0.698039 0.698039 #0.501961
v -0.193848 1.391846 -0.375000 0.698039 0.698039 0.698039 #0.501961
v -0.228027 1.481201 -0.391846 0.698039 0.698039 0.698039 #0.501961
v -0.185059 1.558105 -0.351074 0.698039 0.698039 0.698039 #0.501961
v -0.164551 1.475098 -0.372070 0.698039 0.698039 0.698039 #0.501961
v -0.228027 1.481201 -0.391846 0.698039 0.698039 0.698039 #0.501961
v -0.234863 1.558105 -0.333008 0.698039 0.698039 0.698039 #0.501961
v -0.185059 1.558105 -0.351074 0.698039 0.698039 0.698039 #0.501961
v -0.228027 1.481201 -0.391846 0.698039 0.698039 0.698039 #0.501961
v -0.264160 1.475098 -0.335938 0.698039 0.698039 0.698039 #0.501961
v -0.234863 1.558105 -0.333008 0.698039 0.698039 0.698039 #0.501961
v -0.228027 1.481201 -0.391846 0.698039 0.698039 0.698039 #0.501961
v -0.036621 0.829590 -0.549805 0.698039 0.698039 0.698039 #0.501961
v -0.073242 0.884521 -0.518066 0.698039 0.698039 0.698039 #0.501961
v 0.000000 0.884521 -0.518066 0.698039 0.698039 0.698039 #0.501961
v -0.073242 0.884521 -0.518066 0.698039 0.698039 0.698039 #0.501961
v -0.036621 0.939697 -0.486328 0.698039 0.698039 0.698039 #0.501961
v 0.000000 0.884521 -0.518066 0.698039 0.698039 0.698039 #0.501961
v -0.036621 0.939697 -0.486328 0.698039 0.698039 0.698039 #0.501961
v 0.036621 0.939697 -0.486328 0.698039 0.698039 0.698039 #0.501961
v 0.000000 0.884521 -0.518066 0.698039 0.698039 0.698039 #0.501961
v 0.036621 0.829590 -0.549805 0.698039 0.698039 0.698039 #0.501961
v -0.036621 0.829590 -0.549805 0.698039 0.698039 0.698039 #0.501961
v 0.000000 0.884521 -0.518066 0.698039 0.698039 0.698039 #0.501961
v 0.036621 0.939697 -0.486328 0.698039 0.698039 0.698039 #0.501961
v 0.073242 0.884521 -0.518066 0.698039 0.698039 0.698039 #0.501961
v 0.000000 0.884521 -0.518066 0.698039 0.698039 0.698039 #0.501961
v 0.073242 0.884521 -0.518066 0.698039 0.698039 0.698039 #0.501961
v 0.036621 0.829590 -0.549805 0.698039 0.698039 0.698039 #0.501961
v 0.000000 0.884521 -0.518066 0.698039 0.698039 0.698039 #0.501961
v -0.036621 0.653809 -0.614990 0.698039 0.698039 0.698039 #0.501961
v -0.073242 0.714600 -0.596436 0.698039 0.698039 0.698039 #0.501961
v 0.000000 0.714600 -0.596436 0.698039 0.698039 0.698039 #0.501961
v -0.073242 0.714600 -0.596436 0.698039 0.698039 0.698039 #0.501961
v -0.036621 0.775146 -0.577881 0.698039 0.698039 0.698039 #0.501961
v 0.000000 0.714600 -0.596436 0.698039 0.698039 0.698039 #0.501961
v -0.036621 0.775146 -0.577881 0.698039 0.698039 0.698039 #0.501961
v 0.036621 0.775146 -0.577881 0.698039 0.698039 0.698039 #0.501961
v 0.000000 0.714600 -0.596436 0.698039 0.698039 0.698039 #0.501961
v 0.036621 0.653809 -0.614990 0.698039 0.698039 0.698039 #0.501961
v -0.036621 0.653809 -0.614990 0.698039 0.698039 0.698039 #0.501961
v 0.000000 0.714600 -0.596436 0.698039 0.698039 0.698039 #0.501961
v 0.036621 0.775146 -0.577881 0.698039 0.698039 0.698039 #0.501961
v 0.073242 0.714600 -0.596436 0.698039 0.698039 0.698039 #0.501961
v 0.000000 0.714600 -0.596436 0.698039 0.698039 0.698039 #0.501961
v 0.073242 0.714600 -0.596436 0.698039 0.698039 0.698039 #0.501961
v 0.036621 0.653809 -0.614990 0.698039 0.698039 0.698039 #0.501961
v 0.000000 0.714600 -0.596436 0.698039 0.698039 0.698039 #0.501961
v -0.303955 0.073242 0.000000 0.698039 0.698039 0.698039 #0.501961
v -0.214844 0.073242 0.214844 0.698039 0.698039 0.698039 #0.501961
v -0.372314 0.273438 0.372314 0.698039 0.698039 0.698039 #0.501961
v -0.303955 0.073242 0.000000 0.698039 0.698039 0.698039 #0.501961
v -0.372314 0.273438 0.372314 0.698039 0.698039 0.698039 #0.501961
v -0.526367 0.273438 0.000000 0.698039 0.698039 0.698039 #0.501961
v -0.526367 0.273438 0.000000 0.698039 0.698039 0.698039 #0.501961
v -0.372314 0.273438 0.372314 0.698039 0.698039 0.698039 #0.501961
v -0.429688 0.547119 0.429688 0.698039 0.698039 0.698039 #0.501961
v -0.526367 0.273438 0.000000 0.698039 0.698039 0.698039 #0.501961
v -0.429688 0.547119 0.429688 0.698039 0.698039 0.698039 #0.501961
v -0.607910 0.547119 0.000000 0.698039 0.698039 0.698039 #0.501961
v -0.607910 0.547119 0.000000 0.698039 0.698039 0.698039 #0.501961
v -0.429688 0.547119 0.429688 0.698039 0.698039 0.698039 #0.501961
v -0.372314 0.820557 0.372314 0.698039 0.698039 0.698039 #0.501961
v -0.607910 0.547119 0.000000 0.698039 0.698039 0.698039 #0.501961
v -0.372314 0.820557 0.372314 0.698039 0.698039 0.698039 #0.501961
v -0.526367 0.820557 0.000000 0.698039 0.698039 0.698039 #0.501961
v -0.526367 0.820557 0.000000 0.698039 0.698039 0.698039 #0.501961
v -0.372314 0.820557 0.372314 0.698039 0.698039 0.698039 #0.501961
v -0.214844 1.020996 0.214844 0.698039 0.698039 0.698039 #0.501961
v -0.526367 0.820557 0.000000 0.698039 0.698039 0.698039 #0.501961
v -0.214844 1.020996 0.214844 0.698039 0.698039 0.698039 #0.501961
v -0.303955 1.020996 0.000000 0.698039 0.698039 0.698039 #0.501961
v -0.214844 0.073242 0.214844 0.698039 0.698039 0.698039 #0.501961
v 0.000000 0.073242 0.303955 0.698039 0.698039 0.698039 #0.501961
v 0.000000 0.273438 0.526367 0.698039 0.698039 0.698039 #0.501961
v -0.214844 0.073242 0.214844 0.698039 0.698039 0.698039 #0.501961
v 0.000000 0.273438 0.526367 0.698039 0.698039 0.698039 #0.501961
v -0.372314 0.273438 0.372314 0.698039 0.698039 0.698039 #0.501961
v -0.372314 0.273438 0.372314 0.698039 0.698039 0.698039 #0.501961
v 0.000000 0.273438 0.526367 0.698039 0.698039 0.698039 #0.501961
v 0.000000 0.547119 0.607910 0.698039 0.698039 0.698039 #0.501961
v -0.372314 0.273438 0.372314 0.698039 0.698039 0.698039 #0.501961
v 0.000000 0.547119 0.607910 0.698039 0.698039 0.698039 #0.501961
v -0.429688 0.547119 0.429688 0.698039 0.698039 0.698039 #0.501961
v -0.429688 0.547119 0.429688 0.698039 0.698039 0.698039 #0.501961
v 0.000000 0.547119 0.607910 0.698039 0.698039 0.698039 #0.501961
v 0.000000 0.820557 0.526367 0.698039 0.698039 0.698039 #0.501961
v -0.429688 0.547119 0.429688 0.698039 0.698039 0.698039 #0.501961
v 0.000000 0.820557 0.526367 0.698039 0.698039 0.698039 #0.501961
v -0.372314 0.820557 0.372314 0.698039 0.698039 0.698039 #0.501961
v -0.372314 0.820557 0.372314 0.698039 0.698039 0.698039 #0.501961
v 0.000000 0.820557 0.526367 0.698039 0.698039 0.698039 #0.501961
v 0.000000 1.020996 0.303955 0.698039 0.698039 0.698039 #0.501961
v -0.372314 0.820557 0.372314 0.698039 0.698039 0.698039 #0.501961
v 0.000000 1.020996 0.303955 0.698039 0.698039 0.698039 #0.501961
v -0.214844 1.020996 0.214844 0.698039 0.698039 0.698039 #0.501961
v 0.000000 0.073242 0.303955 0.698039 0.698039 0.698039 #0.501961
v 0.214844 0.073242 0.214844 0.698039 0.698039 0.698039 #0.501961
v 0.372314 0.273438 0.372314 0.698039 0.698039 0.698039 #0.501961
v 0.000000 0.073242 0.303955 0.698039 0.698039 0.698039 #0.501961
v 0.372314 0.273438 0.372314 0.698039 0.698039 0.698039 #0.501961
v 0.000000 0.273438 0.526367 0.698039 0.698039 0.698039 #0.501961
v 0.000000 0.273438 0.526367 0.698039 0.698039 0.698039 #0.501961
v 0.372314 0.273438 0.372314 0.698039 0.698039 0.698039 #0.501961
v 0.429688 0.547119 0.429688 0.698039 0.698039 0.698039 #0.501961
v 0.000000 0.273438 0.526367 0.698039 0.698039 0.698039 #0.501961
v 0.429688 0.547119 0.429688 0.698039 0.698039 0.698039 #0.501961
v 0.000000 0.547119 0.607910 0.698039 0.698039 0.698039 #0.501961
v 0.000000 0.547119 0.607910 0.698039 0.698039 0.698039 #0.501961
v 0.429688 0.547119 0.429688 0.698039 0.698039 0.698039 #0.501961
v 0.372314 0.820557 0.372314 0.698039 0.698039 0.698039 #0.501961
v 0.000000 0.547119 0.607910 0.698039 0.698039 0.698039 #0.501961
v 0.372314 0.820557 0.372314 0.698039 0.698039 0.698039 #0.501961
v 0.000000 0.820557 0.526367 0.698039 0.698039 0.698039 #0.501961
v 0.000000 0.820557 0.526367 0.698039 0.698039 0.698039 #0.501961
v 0.372314 0.820557 0.372314 0.698039 0.698039 0.698039 #0.501961
v 0.214844 1.020996 0.214844 0.698039 0.698039 0.698039 #0.501961
v 0.000000 0.820557 0.526367 0.698039 0.698039 0.698039 #0.501961
v 0.214844 1.020996 0.214844 0.698039 0.698039 0.698039 #0.501961
v 0.000000 1.020996 0.303955 0.698039 0.698039 0.698039 #0.501961
v 0.214844 0.073242 0.214844 0.698039 0.698039 0.698039 #0.501961
v 0.303955 0.073242 0.000000 0.698039 0.698039 0.698039 #0.501961
v 0.526367 0.273438 0.000000 0.698039 0.698039 0.698039 #0.501961
v 0.214844 0.073242 0.214844 0.698039 0.698039 0.698039 #0.501961
v 0.526367 0.273438 0.000000 0.698039 0.698039 0.698039 #0.501961
v 0.372314 0.273438 0.372314 0.698039 0.698039 0.698039 #0.501961
v 0.372314 0.273438 0.372314 0.698039 0.698039 0.698039 #0.501961
v 0.526367 0.273438 0.000000 0.698039 0.698039 0.698039 #0.501961
v 0.607910 0.547119 0.000000 0.698039 0.698039 0.698039 #0.501961
v 0.372314 0.273438 0.372314 0.698039 0.698039 0.698039 #0.501961
v 0.607910 0.547119 0.000000 0.698039 0.698039 0.698039 #0.501961
v 0.429688 0.547119 0.429688 0.698039 0.698039 0.698039 #0.501961
v 0.429688 0.547119 0.429688 0.698039 0.698039 0.698039 #0.501961
v 0.607910 0.547119 0.000000 0.698039 0.698039 0.698039 #0.501961
v 0.526367 0.820557 0.000000 0.698039 0.698039 0.698039 #0.501961
v 0.429688 0.547119 0.429688 0.698039 0.698039 0.698039 #0.501961
v 0.526367 0.820557 0.000000 0.698039 0.698039 0.698039 #0.501961
v 0.372314 0.820557 0.372314 0.698039 0.698039 0.698039 #0.501961
v 0.372314 0.820557 0.372314 0.698039 0.698039 0.698039 #0.501961
v 0.526367 0.820557 0.000000 0.698039 0.698039 0.698039 #0.501961
v 0.303955 1.020996 0.000000 0.698039 0.698039 0.698039 #0.501961
v 0.372314 0.820557 0.372314 0.698039 0.698039 0.698039 #0.501961
v 0.303955 1.020996 0.000000 0.698039 0.698039 0.698039 #0.501961
v 0.214844 1.020996 0.214844 0.698039 0.698039 0.698039 #0.501961
v 0.303955 0.073242 0.000000 0.698039 0.698039 0.698039 #0.501961
v 0.214844 0.073242 -0.214844 0.698039 0.698039 0.698039 #0.501961
v 0.372314 0.273438 -0.372314 0.698039 0.698039 0.698039 #0.501961
v 0.303955 0.073242 0.000000 0.698039 0.698039 0.698039 #0.501961
v 0.372314 0.273438 -0.372314 0.698039 0.698039 0.698039 #0.501961
v 0.526367 0.273438 0.000000 0.698039 0.698039 0.698039 #0.501961
v 0.526367 0.273438 0.000000 0.698039 0.698039 0.698039 #0.501961
v 0.372314 0.273438 -0.372314 0.698039 0.698039 0.698039 #0.501961
v 0.429688 0.547119 -0.429688 0.698039 0.698039 0.698039 #0.501961
v 0.526367 0.273438 0.000000 0.698039 0.698039 0.698039 #0.501961
v 0.429688 0.547119 -0.429688 0.698039 0.698039 0.698039 #0.501961
v 0.607910 0.547119 0.000000 0.698039 0.698039 0.698039 #0.501961
v 0.607910 0.547119 0.000000 0.698039 0.698039 0.698039 #0.501961
v 0.429688 0.547119 -0.429688 0.698039 0.698039 0.698039 #0.501961
v 0.372314 0.820557 -0.372314 0.698039 0.698039 0.698039 #0.501961
v 0.607910 0.547119 0.000000 0.698039 0.698039 0.698039 #0.501961
v 0.372314 0.820557 -0.372314 0.698039 0.698039 0.698039 #0.501961
v 0.526367 0.820557 0.000000 0.698039 0.698039 0.698039 #0.501961
v 0.526367 0.820557 0.000000 0.698039 0.698039 0.698039 #0.501961
v 0.372314 0.820557 -0.372314 0.698039 0.698039 0.698039 #0.501961
v 0.214844 1.020996 -0.214844 0.698039 0.698039 0.698039 #0.501961
v 0.526367 0.820557 0.000000 0.698039 0.698039 0.698039 #0.501961
v 0.214844 1.020996 -0.214844 0.698039 0.698039 0.698039 #0.501961
v 0.303955 1.020996 0.000000 0.698039 0.698039 0.698039 #0.501961
v 0.214844 0.073242 -0.214844 0.698039 0.698039 0.698039 #0.501961
v 0.000000 0.073242 -0.303955 0.698039 0.698039 0.698039 #0.501961
v 0.000000 0.273438 -0.526367 0.698039 0.698039 0.698039 #0.501961
v 0.214844 0.073242 -0.214844 0.698039 0.698039 0.698039 #0.501961
v 0.000000 0.273438 -0.526367 0.698039 0.698039 0.698039 #0.501961
v 0.372314 0.273438 -0.372314 0.698039 0.698039 0.698039 #0.501961
v 0.372314 0.273438 -0.372314 0.698039 0.698039 0.698039 #0.501961
v 0.000000 0.273438 -0.526367 0.698039 0.698039 0.698039 #0.501961
v 0.000000 0.547119 -0.607910 0.698039 0.698039 0.698039 #0.501961
v 0.372314 0.273438 -0.372314 0.698039 0.698039 0.698039 #0.501961
v 0.000000 0.547119 -0.607910 0.698039 0.698039 0.698039 #0.501961
v 0.429688 0.547119 -0.429688 0.698039 0.698039 0.698039 #0.501961
v 0.429688 0.547119 -0.429688 0.698039 0.698039 0.698039 #0.501961
v 0.000000 0.547119 -0.607910 0.698039 0.698039 0.698039 #0.501961
v 0.000000 0.820557 -0.526367 0.698039 0.698039 0.698039 #0.501961
v 0.429688 0.547119 -0.429688 0.698039 0.698039 0.698039 #0.501961
v 0.000000 0.820557 -0.526367 0.698039 0.698039 0.698039 #0.501961
v 0.372314 0.820557 -0.372314 0.698039 0.698039 0.698039 #0.501961
v 0.372314 0.820557 -0.372314 0.698039 0.698039 0.698039 #0.501961
v 0.000000 0.820557 -0.526367 0.698039 0.698039 0.698039 #0.501961
v 0.000000 1.020996 -0.303955 0.698039 0.698039 0.698039 #0.501961
v 0.372314 0.820557 -0.372314 0.698039 0.698039 0.698039 #0.501961
v 0.000000 1.020996 -0.303955 0.698039 0.698039 0.698039 #0.501961
v 0.214844 1.020996 -0.214844 0.698039 0.698039 0.698039 #0.501961
v 0.000000 0.073242 -0.303955 0.698039 0.698039 0.698039 #0.501961
v -0.214844 0.073242 -0.214844 0.698039 0.698039 0.698039 #0.501961
v -0.372314 0.273438 -0.372314 0.698039 0.698039 0.698039 #0.501961
v 0.000000 0.073242 -0.303955 0.698039 0.698039 0.698039 #0.501961
v -0.372314 0.273438 -0.372314 0.698039 0.698039 0.698039 #0.501961
v 0.000000 0.273438 -0.526367 0.698039 0.698039 0.698039 #0.501961
v 0.000000 0.273438 -0.526367 0.698039 0.698039 0.698039 #0.501961
v -0.372314 0.273438 -0.372314 0.698039 0.698039 0.698039 #0.501961
v -0.429688 0.547119 -0.429688 0.698039 0.698039 0.698039 #0.501961
v 0.000000 0.273438 -0.526367 0.698039 0.698039 0.698039 #0.501961
v -0.429688 0.547119 -0.429688 0.698039 0.698039 0.698039 #0.501961
v 0.000000 0.547119 -0.607910 0.698039 0.698039 0.698039 #0.501961
v 0.000000 0.547119 -0.607910 0.698039 0.698039 0.698039 #0.501961
v -0.429688 0.547119 -0.429688 0.698039 0.698039 0.698039 #0.501961
v -0.372314 0.820557 -0.372314 0.698039 0.698039 0.698039 #0.501961
v 0.000000 0.547119 -0.607910 0.698039 0.698039 0.698039 #0.501961
v -0.372314 0.820557 -0.372314 0.698039 0.698039 0.698039 #0.501961
v 0.000000 0.820557 -0.526367 0.698039 0.698039 0.698039 #0.501961
v 0.000000 0.820557 -0.526367 0.698039 0.698039 0.698039 #0.501961
v -0.372314 0.820557 -0.372314 0.698039 0.698039 0.698039 #0.501961
v -0.214844 1.020996 -0.214844 0.698039 0.698039 0.698039 #0.501961
v 0.000000 0.820557 -0.526367 0.698039 0.698039 0.698039 #0.501961
v -0.214844 1.020996 -0.214844 0.698039 0.698039 0.698039 #0.501961
v 0.000000 1.020996 -0.303955 0.698039 0.698039 0.698039 #0.501961
v -0.214844 0.073242 -0.214844 0.698039 0.698039 0.698039 #0.501961
v -0.303955 0.073242 0.000000 0.698039 0.698039 0.698039 #0.501961
v -0.526367 0.273438 0.000000 0.698039 0.698039 0.698039 #0.501961
v -0.214844 0.073242 -0.214844 0.698039 0.698039 0.698039 #0.501961
v -0.526367 0.273438 0.000000 0.698039 0.698039 0.698039 #0.501961
v -0.372314 0.273438 -0.372314 0.698039 0.698039 0.698039 #0.501961
v -0.372314 0.273438 -0.372314 0.698039 0.698039 0.698039 #0.501961
v -0.526367 0.273438 0.000000 0.698039 0.698039 0.698039 #0.501961
v -0.607910 0.547119 0.000000 0.698039 0.698039 0.698039 #0.501961
v -0.372314 0.273438 -0.372314 0.698039 0.698039 0.698039 #0.501961
v -0.607910 0.547119 0.000000 0.698039 0.698039 0.698039 #0.501961
v -0.429688 0.547119 -0.429688 0.698039 0.698039 0.698039 #0.501961
v -0.429688 0.547119 -0.429688 0.698039 0.698039 0.698039 #0.501961
v -0.607910 0.547119 0.000000 0.698039 0.698039 0.698039 #0.501961
v -0.526367 0.820557 0.000000 0.698039 0.698039 0.698039 #0.501961
v -0.429688 0.547119 -0.429688 0.698039 0.698039 0.698039 #0.501961
v -0.526367 0.820557 0.000000 0.698039 0.698039 0.698039 #0.501961
v -0.372314 0.820557 -0.372314 0.698039 0.698039 0.698039 #0.501961
v -0.372314 0.820557 -0.372314 0.698039 0.698039 0.698039 #0.501961
v -0.526367 0.820557 0.000000 0.698039 0.698039 0.698039 #0.501961
v -0.303955 1.020996 0.000000 0.698039 0.698039 0.698039 #0.501961
v -0.372314 0.820557 -0.372314 0.698039 0.698039 0.698039 #0.501961
v -0.303955 1.020996 0.000000 0.698039 0.698039 0.698039 #0.501961
v -0.214844 1.020996 -0.214844 0.698039 0.698039 0.698039 #0.501961
v -0.243164 0.942627 0.000000 0.698039 0.698039 0.698039 #0.501961
v -0.171875 0.942627 0.171875 0.698039 0.698039 0.698039 #0.501961
v -0.297852 1.109375 0.297852 0.698039 0.698039 0.698039 #0.501961
v -0.243164 0.942627 0.000000 0.698039 0.698039 0.698039 #0.501961
v -0.297852 1.109375 0.297852 0.698039 0.698039 0.698039 #0.501961
v -0.421143 1.109375 0.000000 0.698039 0.698039 0.698039 #0.501961
v -0.421143 1.109375 0.000000 0.698039 0.698039 0.698039 #0.501961
v -0.297852 1.109375 0.297852 0.698039 0.698039 0.698039 #0.501961
v -0.343750 1.337402 0.343750 0.698039 0.698039 0.698039 #0.501961
v -0.421143 1.109375 0.000000 0.698039 0.698039 0.698039 #0.501961
v -0.343750 1.337402 0.343750 0.698039 0.698039 0.698039 #0.501961
v -0.486328 1.337402 0.000000 0.698039 0.698039 0.698039 #0.501961
v -0.486328 1.337402 0.000000 0.698039 0.698039 0.698039 #0.501961
v -0.343750 1.337402 0.343750 0.698039 0.698039 0.698039 #0.501961
v -0.297852 1.565430 0.297852 0.698039 0.698039 0.698039 #0.501961
v -0.486328 1.337402 0.000000 0.698039 0.698039 0.698039 #0.501961
v -0.297852 1.565430 0.297852 0.698039 0.698039 0.698039 #0.501961
v -0.421143 1.565430 0.000000 0.698039 0.698039 0.698039 #0.501961
v -0.421143 1.565430 0.000000 0.698039 0.698039 0.698039 #0.501961
v -0.297852 1.565430 0.297852 0.698039 0.698039 0.698039 #0.501961
v -0.171875 1.732422 0.171875 0.698039 0.698039 0.698039 #0.501961
v -0.421143 1.565430 0.000000 0.698039 0.698039 0.698039 #0.501961
v -0.171875 1.732422 0.171875 0.698039 0.698039 0.698039 #0.501961
v -0.243164 1.732422 0.000000 0.698039 0.698039 0.698039 #0.501961
v -0.171875 0.942627 0.171875 0.698039 0.698039 0.698039 #0.501961
v 0.000000 0.942627 0.243164 0.698039 0.698039 0.698039 #0.501961
v 0.000000 1.109375 0.421143 0.698039 0.698039 0.698039 #0.501961
v -0.171875 0.942627 0.171875 0.698039 0.698039 0.698039 #0.501961
v 0.000000 1.109375 0.421143 0.698039 0.698039 0.698039 #0.501961
v -0.297852 1.109375 0.297852 0.698039 0.698039 0.698039 #0.501961
v -0.297852 1.109375 0.297852 0.698039 0.698039 0.698039 #0.501961
v 0.000000 1.109375 0.421143 0.698039 0.698039 0.698039 #0.501961
v 0.000000 1.337402 0.486328 0.698039 0.698039 0.698039 #0.501961
v -0.297852 1.109375 0.297852 0.698039 0.698039 0.698039 #0.501961
v 0.000000 1.337402 0.486328 0.698039 0.698039 0.698039 #0.501961
v -0.343750 1.337402 0.343750 0.698039 0.698039 0.698039 #0.501961
v -0.343750 1.337402 0.343750 0.698039 0.698039 0.698039 #0.501961
v 0.000000 1.337402 0.486328 0.698039 0.698039 0.698039 #0.501961
v 0.000000 1.565430 0.421143 0.698039 0.698039 0.698039 #0.501961
v -0.343750 1.337402 0.343750 0.698039 0.698039 0.698039 #0.501961
v 0.000000 1.565430 0.421143 0.698039 0.698039 0.698039 #0.501961
v -0.297852 1.565430 0.297852 0.698039 0.698039 0.698039 #0.501961
v -0.297852 1.565430 0.297852 0.698039 0.698039 0.698039 #0.501961
v 0.000000 1.565430 0.421143 0.698039 0.698039 0.698039 #0.501961
v 0.000000 1.732422 0.243164 0.698039 0.698039 0.698039 #0.501961
v -0.297852 1.565430 0.297852 0.698039 0.698039 0.698039 #0.501961
v 0.000000 1.732422 0.243164 0.698039 0.698039 0.698039 #0.501961
v -0.171875 1.732422 0.171875 0.698039 0.698039 0.698039 #0.501961
v 0.000000 0.942627 0.243164 0.698039 0.698039 0.698039 #0.501961
v 0.171875 0.942627 0.171875 0.698039 0.698039 0.698039 #0.501961
v 0.297852 1.109375 0.297852 0.698039 0.698039 0.698039 #0.501961
v 0.000000 0.942627 0.243164 0.698039 0.698039 0.698039 #0.501961
v 0.297852 1.109375 0.297852 0.698039 0.698039 0.698039 #0.501961
v 0.000000 1.109375 0.421143 0.698039 0.698039 0.698039 #0.501961
v 0.000000 1.109375 0.421143 0.698039 0.698039 0.698039 #0.501961
v 0.297852 1.109375 0.297852 0.698039 0.698039 0.698039 #0.501961
v 0.343750 1.337402 0.343750 0.698039 0.698039 0.698039 #0.501961
v 0.000000 1.109375 0.421143 0.698039 0.698039 0.698039 #0.501961
v 0.343750 1.337402 0.343750 0.698039 0.698039 0.698039 #0.501961
v 0.000000 1.337402 0.486328 0.698039 0.698039 0.698039 #0.501961
v 0.000000 1.337402 0.486328 0.698039 0.698039 0.698039 #0.501961
v 0.343750 1.337402 0.343750 0.698039 0.698039 0.698039 #0.501961
v 0.297852 1.565430 0.297852 0.698039 0.698039 0.698039 #0.501961
v 0.000000 1.337402 0.486328 0.698039 0.698039 0.698039 #0.501961
v 0.297852 1.565430 0.297852 0.698039 0.698039 0.698039 #0.501961
v 0.000000 1.565430 0.421143 0.698039 0.698039 0.698039 #0.501961
v 0.000000 1.565430 0.421143 0.698039 0.698039 0.698039 #0.501961
v 0.297852 1.565430 0.297852 0.698039 0.698039 0.698039 #0.501961
v 0.171875 1.732422 0.171875 0.698039 0.698039 0.698039 #0.501961
v 0.000000 1.565430 0.421143 0.698039 0.698039 0.698039 #0.501961
v 0.171875 1.732422 0.171875 0.698039 0.698039 0.698039 #0.501961
v 0.000000 1.732422 0.243164 0.698039 0.698039 0.698039 #0.501961
v 0.171875 0.942627 0.171875 0.698039 0.698039 0.698039 #0.501961
v 0.243164 0.942627 0.000000 0.698039 0.698039 0.698039 #0.501961
v 0.421143 1.109375 0.000000 0.698039 0.698039 0.698039 #0.501961
v 0.171875 0.942627 0.171875 0.698039 0.698039 0.698039 #0.501961
v 0.421143 1.109375 0.000000 0.698039 0.698039 0.698039 #0.501961
v 0.297852 1.109375 0.297852 0.698039 0.698039 0.698039 #0.501961
v 0.297852 1.109375 0.297852 0.698039 0.698039 0.698039 #0.501961
v 0.421143 1.109375 0.000000 0.698039 0.698039 0.698039 #0.501961
v 0.486328 1.337402 0.000000 0.698039 0.698039 0.698039 #0.501961
v 0.297852 1.109375 0.297852 0.698039 0.698039 0.698039 #0.501961
v 0.486328 1.337402 0.000000 0.698039 0.698039 0.698039 #0.501961
v 0.343750 1.337402 0.343750 0.698039 0.698039 0.698039 #0.501961
v 0.343750 1.337402 0.343750 0.698039 0.698039 0.698039 #0.501961
v 0.486328 1.337402 0.000000 0.698039 0.698039 0.698039 #0.501961
v 0.421143 1.565430 0.000000 0.698039 0.698039 0.698039 #0.501961
v 0.343750 1.337402 0.343750 0.698039 0.698039 0.698039 #0.501961
v 0.421143 1.565430 0.000000 0.698039 0.698039 0.698039 #0.501961
v 0.297852 1.565430 0.297852 0.698039 0.698039 0.698039 #0.501961
v 0.297852 1.565430 0.297852 0.698039 0.698039 0.698039 #0.501961
v 0.421143 1.565430 0.000000 0.698039 0.698039 0.698039 #0.501961
v 0.243164 1.732422 0.000000 0.698039 0.698039 0.698039 #0.501961
v 0.297852 1.565430 0.297852 0.698039 0.698039 0.698039 #0.501961
v 0.243164 1.732422 0.000000 0.698039 0.698039 0.698039 #0.501961
v 0.171875 1.732422 0.171875 0.698039 0.698039 0.698039 #0.501961
v 0.243164 0.942627 0.000000 0.698039 0.698039 0.698039 #0.501961
v 0.171875 0.942627 -0.171875 0.698039 0.698039 0.698039 #0.501961
v 0.297852 1.109375 -0.297852 0.698039 0.698039 0.698039 #0.501961
v 0.243164 0.942627 0.000000 0.698039 0.698039 0.698039 #0.501961
v 0.297852 1.109375 -0.297852 0.698039 0.698039 0.698039 #0.501961
v 0.421143 1.109375 0.000000 0.698039 0.698039 0.698039 #0.501961
v 0.421143 1.109375 0.000000 0.698039 0.698039 0.698039 #0.501961
v 0.297852 1.109375 -0.297852 0.698039 0.698039 0.698039 #0.501961
v 0.343750 1.337402 -0.343750 0.698039 0.698039 0.698039 #0.501961
v 0.421143 1.109375 0.000000 0.698039 0.698039 0.698039 #0.501961
v 0.343750 1.337402 -0.343750 0.698039 0.698039 0.698039 #0.501961
v 0.486328 1.337402 0.000000 0.698039 0.698039 0.698039 #0.501961
v 0.486328 1.337402 0.000000 0.698039 0.698039 0.698039 #0.501961
v 0.343750 1.337402 -0.343750 0.698039 0.698039 0.698039 #0.501961
v 0.297852 1.565430 -0.297852 0.698039 0.698039 0.698039 #0.501961
v 0.486328 1.337402 0.000000 0.698039 0.698039 0.698039 #0.501961
v 0.297852 1.565430 -0.297852 0.698039 0.698039 0.698039 #0.501961
v 0.421143 1.565430 0.000000 0.698039 0.698039 0.698039 #0.501961
v 0.421143 1.565430 0.000000 0.698039 0.698039 0.698039 #0.501961
v 0.297852 1.565430 -0.297852 0.698039 0.698039 0.698039 #0.501961
v 0.171875 1.732422 -0.171875 0.698039 0.698039 0.698039 #0.501961
v 0.421143 1.565430 0.000000 0.698039 0.698039 0.698039 #0.501961
v 0.171875 1.732422 -0.171875 0.698039 0.698039 0.698039 #0.501961
v 0.243164 1.732422 0.000000 0.698039 0.698039 0.698039 #0.501961
v 0.171875 0.942627 -0.171875 0.698039 0.698039 0.698039 #0.501961
v 0.000000 0.942627 -0.243164 0.698039 0.698039 0.698039 #0.501961
v 0.000000 1.109375 -0.421143 0.698039 0.698039 0.698039 #0.501961
v 0.171875 0.942627 -0.171875 0.698039 0.698039 0.698039 #0.501961
v 0.000000 1.109375 -0.421143 0.698039 0.698039 0.698039 #0.501961
v 0.297852 1.109375 -0.297852 0.698039 0.698039 0.698039 #0.501961
v 0.297852 1.109375 -0.297852 0.698039 0.698039 0.698039 #0.501961
v 0.000000 1.109375 -0.421143 0.698039 0.698039 0.698039 #0.501961
v 0.000000 1.337402 -0.486328 0.698039 0.698039 0.698039 #0.501961
v 0.297852 1.109375 -0.297852 0.698039 0.698039 0.698039 #0.501961
v 0.000000 1.337402 -0.486328 0.698039 0.698039 0.698039 #0.501961
v 0.343750 1.337402 -0.343750 0.698039 0.698039 0.698039 #0.501961
v 0.343750 1.337402 -0.343750 0.698039 0.698039 0.698039 #0.501961
v 0.000000 1.337402 -0.486328 0.698039 0.698039 0.698039 #0.501961
v 0.000000 1.565430 -0.421143 0.698039 0.698039 0.698039 #0.501961
v 0.343750 1.337402 -0.343750 0.698039 0.698039 0.698039 #0.501961
v 0.000000 1.565430 -0.421143 0.698039 0.698039 0.698039 #0.501961
v 0.297852 1.565430 -0.297852 0.698039 0.698039 0.698039 #0.501961
v 0.297852 1.565430 -0.297852 0.698039 0.698039 0.698039 #0.501961
v 0.000000 1.565430 -0.421143 0.698039 0.698039 0.698039 #0.501961
v 0.000000 1.732422 -0.243164 0.698039 0.698039 0.698039 #0.501961
v 0.297852 1.565430 -0.297852 0.698039 0.698039 0.698039 #0.501961
v 0.000000 1.732422 -0.243164 0.698039 0.698039 0.698039 #0.501961
v 0.171875 1.732422 -0.171875 0.698039 0.698039 0.698039 #0.501961
v 0.000000 0.942627 -0.243164 0.698039 0.698039 0.698039 #0.501961
v -0.171875 0.942627 -0.171875 0.698039 0.698039 0.698039 #0.501961
v -0.297852 1.109375 -0.297852 0.698039 0.698039 0.698039 #0.501961
v 0.000000 0.942627 -0.243164 0.698039 0.698039 0.698039 #0.501961
v -0.297852 1.109375 -0.297852 0.698039 0.698039 0.698039 #0.501961
v 0.000000 1.109375 -0.421143 0.698039 0.698039 0.698039 #0.501961
v 0.000000 1.109375 -0.421143 0.698039 0.698039 0.698039 #0.501961
v -0.297852 1.109375 -0.297852 0.698039 0.698039 0.698039 #0.501961
v -0.343750 1.337402 -0.343750 0.698039 0.698039 0.698039 #0.501961
v 0.000000 1.109375 -0.421143 0.698039 0.698039 0.698039 #0.501961
v -0.343750 1.337402 -0.343750 0.698039 0.698039 0.698039 #0.501961
v 0.000000 1.337402 -0.486328 0.698039 0.698039 0.698039 #0.501961
v 0.000000 1.337402 -0.486328 0.698039 0.698039 0.698039 #0.501961
v -0.343750 1.337402 -0.343750 0.698039 0.698039 0.698039 #0.501961
v -0.297852 1.565430 -0.297852 0.698039 0.698039 0.698039 #0.501961
v 0.000000 1.337402 -0.486328 0.698039 0.698039 0.698039 #0.501961
v -0.297852 1.565430 -0.297852 0.698039 0.698039 0.698039 #0.501961
v 0.000000 1.565430 -0.421143 0.698039 0.698039 0.698039 #0.501961
v 0.000000 1.565430 -0.421143 0.698039 0.698039 0.698039 #0.501961
v -0.297852 1.565430 -0.297852 0.698039 0.698039 0.698039 #0.501961
v -0.171875 1.732422 -0.171875 0.698039 0.698039 0.698039 #0.501961
v 0.000000 1.565430 -0.421143 0.698039 0.698039 0.698039 #0.501961
v -0.171875 1.732422 -0.171875 0.698039 0.698039 0.698039 #0.501961
v 0.000000 1.732422 -0.243164 0.698039 0.698039 0.698039 #0.501961
v -0.171875 0.942627 -0.171875 0.698039 0.698039 0.698039 #0.501961
v -0.243164 0.942627 0.000000 0.698039 0.698039 0.698039 #0.501961
v -0.421143 1.109375 0.000000 0.698039 0.698039 0.698039 #0.501961
v -0.171875 0.942627 -0.171875 0.698039 0.698039 0.698039 #0.501961
v -0.421143 1.109375 0.000000 0.698039 0.698039 0.698039 #0.501961
v -0.297852 1.109375 -0.297852 0.698039 0.698039 0.698039 #0.501961
v -0.297852 1.109375 -0.297852 0.698039 0.698039 0.698039 #0.501961
v -0.421143 1.109375 0.000000 0.698039 0.698039 0.698039 #0.501961
v -0.486328 1.337402 0.000000 0.698039 0.698039 0.698039 #0.501961
v -0.297852 1.109375 -0.297852 0.698039 0.698039 0.698039 #0.501961
v -0.486328 1.337402 0.000000 0.698039 0.698039 0.698039 #0.501961
v -0.343750 1.337402 -0.343750 0.698039 0.698039 0.698039 #0.501961
v -0.343750 1.337402 -0.343750 0.698039 0.698039 0.698039 #0.501961
v -0.486328 1.337402 0.000000 0.698039 0.698039 0.698039 #0.501961
v -0.421143 1.565430 0.000000 0.698039 0.698039 0.698039 #0.501961
v -0.343750 1.337402 -0.343750 0.698039 0.698039 0.698039 #0.501961
v -0.421143 1.565430 0.000000 0.698039 0.698039 0.698039 #0.501961
v -0.297852 1.565430 -0.297852 0.698039 0.698039 0.698039 #0.501961
v -0.297852 1.565430 -0.297852 0.698039 0.698039 0.698039 #0.501961
v -0.421143 1.565430 0.000000 0.698039 0.698039 0.698039 #0.501961
v -0.243164 1.732422 0.000000 0.698039 0.698039 0.698039 #0.501961
v -0.297852 1.565430 -0.297852 0.698039 0.698039 0.698039 #0.501961
v -0.243164 1.732422 0.000000 0.698039 0.698039 0.698039 #0.501961
v -0.171875 1.732422 -0.171875 0.698039 0.698039 0.698039 #0.501961
v -0.290283 1.671875 0.091064 0.698039 0.698039 0.698039 #0.501961
v -0.145020 1.599854 0.332031 0.698039 0.698039 0.698039 #0.501961
v -0.108398 2.032227 0.395264 0.698039 0.698039 0.698039 #0.501961
v -0.290283 1.671875 0.091064 0.698039 0.698039 0.698039 #0.501961
v -0.108398 2.032227 0.395264 0.698039 0.698039 0.698039 #0.501961
v -0.217041 2.086182 0.214844 0.698039 0.698039 0.698039 #0.501961
v -0.145020 1.743896 -0.149658 0.698039 0.698039 0.698039 #0.501961
v -0.290283 1.671875 0.091064 0.698039 0.698039 0.698039 #0.501961
v -0.217041 2.086182 0.214844 0.698039 0.698039 0.698039 #0.501961
v -0.145020 1.743896 -0.149658 0.698039 0.698039 0.698039 #0.501961
v -0.217041 2.086182 0.214844 0.698039 0.698039 0.698039 #0.501961
v -0.108398 2.140137 0.034668 0.698039 0.698039 0.698039 #0.501961
v -0.145020 1.599854 0.332031 0.698039 0.698039 0.698039 #0.501961
v 0.145020 1.599854 0.332031 0.698039 0.698039 0.698039 #0.501961
v 0.108398 2.032227 0.395264 0.698039 0.698039 0.698039 #0.501961
v -0.145020 1.599854 0.332031 0.698039 0.698039 0.698039 #0.501961
v 0.108398 2.032227 0.395264 0.698039 0.698039 0.698039 #0.501961
v -0.108398 2.032227 0.395264 0.698039 0.698039 0.698039 #0.501961
v 0.145020 1.599854 0.332031 0.698039 0.698039 0.698039 #0.501961
v 0.290283 1.671875 0.091064 0.698039 0.698039 0.698039 #0.501961
v 0.217041 2.086182 0.214844 0.698039 0.698039 0.698039 #0.501961
v 0.145020 1.599854 0.332031 0.698039 0.698039 0.698039 #0.501961
v 0.217041 2.086182 0.214844 0.698039 0.698039 0.698039 #0.501961
v 0.108398 2.032227 0.395264 0.698039 0.698039 0.698039 #0.501961
v 0.145020 1.743896 -0.149658 0.698039 0.698039 0.698039 #0.501961
v -0.145020 1.743896 -0.149658 0.698039 0.698039 0.698039 #0.501961
v -0.108398 2.140137 0.034668 0.698039 0.698039 0.698039 #0.501961
v 0.145020 1.743896 -0.149658 0.698039 0.698039 0.698039 #0.501961
v -0.108398 2.140137 0.034668 0.698039 0.698039 0.698039 #0.501961
v 0.108398 2.140137 0.034668 0.698039 0.698039 0.698039 #0.501961
v 0.290283 1.671875 0.091064 0.698039 0.698039 0.698039 #0.501961
v 0.145020 1.743896 -0.149658 0.698039 0.698039 0.698039 #0.501961
v 0.108398 2.140137 0.034668 0.698039 0.698039 0.698039 #0.501961
v 0.290283 1.671875 0.091064 0.698039 0.698039 0.698039 #0.501961
v 0.108398 2.140137 0.034668 0.698039 0.698039 0.698039 #0.501961
v 0.217041 2.086182 0.214844 0.698039 0.698039 0.698039 #0.501961
v -0.073242 0.847900 -0.454590 0.698039 0.698039 0.698039 #0.501961
v -0.036621 0.902832 -0.422852 0.698039 0.698039 0.698039 #0.501961
v -0.036621 0.939697 -0.486328 0.698039 0.698039 0.698039 #0.501961
v -0.073242 0.847900 -0.454590 0.698039 0.698039 0.698039 #0.501961
v -0.036621 0.939697 -0.486328 0.698039 0.698039 0.698039 #0.501961
v -0.073242 0.884521 -0.518066 0.698039 0.698039 0.698039 #0.501961
v -0.036621 0.792969 -0.486328 0.698039 0.698039 0.698039 #0.501961
v -0.073242 0.847900 -0.454590 0.698039 0.698039 0.698039 #0.501961
v -0.073242 0.884521 -0.518066 0.698039 0.698039 0.698039 #0.501961
v -0.036621 0.792969 -0.486328 0.698039 0.698039 0.698039 #0.501961
v -0.073242 0.884521 -0.518066 0.698039 0.698039 0.698039 #0.501961
v -0.036621 0.829590 -0.549805 0.698039 0.698039 0.698039 #0.501961
v -0.036621 0.902832 -0.422852 0.698039 0.698039 0.698039 #0.501961
v 0.036621 0.902832 -0.422852 0.698039 0.698039 0.698039 #0.501961
v 0.036621 0.939697 -0.486328 0.698039 0.698039 0.698039 #0.501961
v -0.036621 0.902832 -0.422852 0.698039 0.698039 0.698039 #0.501961
v 0.036621 0.939697 -0.486328 0.698039 0.698039 0.698039 #0.501961
v -0.036621 0.939697 -0.486328 0.698039 0.698039 0.698039 #0.501961
v 0.036621 0.902832 -0.422852 0.698039 0.698039 0.698039 #0.501961
v 0.073242 0.847900 -0.454590 0.698039 0.698039 0.698039 #0.501961
v 0.073242 0.884521 -0.518066 0.698039 0.698039 0.698039 #0.501961
v 0.036621 0.902832 -0.422852 0.698039 0.698039 0.698039 #0.501961
v 0.073242 0.884521 -0.518066 0.698039 0.698039 0.698039 #0.501961
v 0.036621 0.939697 -0.486328 0.698039 0.698039 0.698039 #0.501961
v 0.036621 0.792969 -0.486328 0.698039 0.698039 0.698039 #0.501961
v -0.036621 0.792969 -0.486328 0.698039 0.698039 0.698039 #0.501961
v -0.036621 0.829590 -0.549805 0.698039 0.698039 0.698039 #0.501961
v 0.036621 0.792969 -0.486328 0.698039 0.698039 0.698039 #0.501961
v -0.036621 0.829590 -0.549805 0.698039 0.698039 0.698039 #0.501961
v 0.036621 0.829590 -0.549805 0.698039 0.698039 0.698039 #0.501961
v 0.073242 0.847900 -0.454590 0.698039 0.698039 0.698039 #0.501961
v 0.036621 0.792969 -0.486328 0.698039 0.698039 0.698039 #0.501961
v 0.036621 0.829590 -0.549805 0.698039 0.698039 0.698039 #0.501961
v 0.073242 0.847900 -0.454590 0.698039 0.698039 0.698039 #0.501961
v 0.036621 0.829590 -0.549805 0.698039 0.698039 0.698039 #0.501961
v 0.073242 0.884521 -0.518066 0.698039 0.698039 0.698039 #0.501961
v -0.073242 0.693115 -0.526123 0.698039 0.698039 0.698039 #0.501961
v -0.036621 0.753662 -0.507568 0.698039 0.698039 0.698039 #0.501961
v -0.036621 0.775146 -0.577881 0.698039 0.698039 0.698039 #0.501961
v -0.073242 0.693115 -0.526123 0.698039 0.698039 0.698039 #0.501961
v -0.036621 0.775146 -0.577881 0.698039 0.698039 0.698039 #0.501961
v -0.073242 0.714600 -0.596436 0.698039 0.698039 0.698039 #0.501961
v -0.036621 0.632324 -0.544678 0.698039 0.698039 0.698039 #0.501961
v -0.073242 0.693115 -0.526123 0.698039 0.698039 0.698039 #0.501961
v -0.073242 0.714600 -0.596436 0.698039 0.698039 0.698039 #0.501961
v -0.036621 0.632324 -0.544678 0.698039 0.698039 0.698039 #0.501961
v -0.073242 0.714600 -0.596436 0.698039 0.698039 0.698039 #0.501961
v -0.036621 0.653809 -0.614990 0.698039 0.698039 0.698039 #0.501961
v -0.036621 0.753662 -0.507568 0.698039 0.698039 0.698039 #0.501961
v 0.036621 0.753662 -0.507568 0.698039 0.698039 0.698039 #0.501961
v 0.036621 0.775146 -0.577881 0.698039 0.698039 0.698039 #0.501961
v -0.036621 0.753662 -0.507568 0.698039 0.698039 0.698039 #0.501961
v 0.036621 0.775146 -0.577881 0.698039 0.698039 0.698039 #0.501961
v -0.036621 0.775146 -0.577881 0.698039 0.698039 0.698039 #0.501961
v 0.036621 0.753662 -0.507568 0.698039 0.698039 0.698039 #0.501961
v 0.073242 0.693115 -0.526123 0.698039 0.698039 0.698039 #0.501961
v 0.073242 0.714600 -0.596436 0.698039 0.698039 0.698039 #0.501961
v 0.036621 0.753662 -0.507568 0.698039 0.698039 0.698039 #0.501961
v 0.073242 0.714600 -0.596436 0.698039 0.698039 0.698039 #0.501961
v 0.036621 0.775146 -0.577881 0.698039 0.698039 0.698039 #0.501961
v 0.036621 0.632324 -0.544678 0.698039 0.698039 0.698039 #0.501961
v -0.036621 0.632324 -0.544678 0.698039 0.698039 0.698039 #0.501961
v -0.036621 0.653809 -0.614990 0.698039 0.698039 0.698039 #0.501961
v 0.036621 0.632324 -0.544678 0.698039 0.698039 0.698039 #0.501961
v -0.036621 0.653809 -0.614990 0.698039 0.698039 0.698039 #0.501961
v 0.036621 0.653809 -0.614990 0.698039 0.698039 0.698039 #0.501961
v 0.073242 0.693115 -0.526123 0.698039 0.698039 0.698039 #0.501961
v 0.036621 0.632324 -0.544678 0.698039 0.698039 0.698039 #0.501961
v 0.036621 0.653809 -0.614990 0.698039 0.698039 0.698039 #0.501961
v 0.073242 0.693115 -0.526123 0.698039 0.698039 0.698039 #0.501961
v 0.036621 0.653809 -0.614990 0.698039 0.698039 0.698039 #0.501961
v 0.073242 0.714600 -0.596436 0.698039 0.698039 0.698039 #0.501961
vt 0.810547 0.087402 0.000000
vt 0.835938 0.087402 0.000000
vt 0.750000 0.062500 0.000000
vt 0.835938 0.412354 0.000000
vt 0.810547 0.412354 0.000000
vt 0.750000 0.437500 0.000000
vt 0.750000 0.087402 0.000000
vt 0.810547 0.087402 0.000000
vt 0.750000 0.062500 0.000000
vt 0.810547 0.412354 0.000000
vt 0.750000 0.412354 0.000000
vt 0.750000 0.437500 0.000000
vt 0.689209 0.087402 0.000000
vt 0.750000 0.087402 0.000000
vt 0.750000 0.062500 0.000000
vt 0.750000 0.412354 0.000000
vt 0.689209 0.412354 0.000000
vt 0.750000 0.437500 0.000000
vt 0.664063 0.087402 0.000000
vt 0.689209 0.087402 0.000000
vt 0.750000 0.062500 0.000000
vt 0.689209 0.412354 0.000000
vt 0.664063 0.412354 0.000000
vt 0.750000 0.437500 0.000000
vt 0.689209 0.087402 0.000000
vt 0.664063 0.087402 0.000000
vt 0.750000 0.062500 0.000000
vt 0.664063 0.412354 0.000000
vt 0.689209 0.412354 0.000000
vt 0.750000 0.437500 0.000000
vt 0.750000 0.087402 0.000000
vt 0.689209 0.087402 0.000000
vt 0.750000 0.062500 0.000000
vt 0.689209 0.412354 0.000000
vt 0.750000 0.412354 0.000000
vt 0.750000 0.437500 0.000000
vt 0.810547 0.087402 0.000000
vt 0.750000 0.087402 0.000000
vt 0.750000 0.062500 0.000000
vt 0.750000 0.412354 0.000000
vt 0.810547 0.412354 0.000000
vt 0.750000 0.437500 0.000000
vt 0.835938 0.087402 0.000000
vt 0.810547 0.087402 0.000000
vt 0.750000 0.062500 0.000000
vt 0.810547 0.412354 0.000000
vt 0.835938 0.412354 0.000000
vt 0.750000 0.437500 0.000000
vt 0.816162 0.155273 0.000000
vt 0.843750 0.155273 0.000000
vt 0.750000 0.140625 0.000000
vt 0.843750 0.344482 0.000000
vt 0.816162 0.344482 0.000000
vt 0.750000 0.359131 0.000000
vt 0.750000 0.155273 0.000000
vt 0.816162 0.155273 0.000000
vt 0.750000 0.140625 0.000000
vt 0.816162 0.344482 0.000000
vt 0.750000 0.344482 0.000000
vt 0.750000 0.359131 0.000000
vt 0.683594 0.155273 0.000000
vt 0.750000 0.155273 0.000000
vt 0.750000 0.140625 0.000000
vt 0.750000 0.344482 0.000000
vt 0.683594 0.344482 0.000000
vt 0.750000 0.359131 0.000000
vt 0.656250 0.155273 0.000000
vt 0.683594 0.155273 0.000000
vt 0.750000 0.140625 0.000000
vt 0.683594 0.344482 0.000000
vt 0.656250 0.344482 0.000000
vt 0.750000 0.359131 0.000000
vt 0.683594 0.155273 0.000000
vt 0.656250 0.155273 0.000000
vt 0.750000 0.140625 0.000000
vt 0.656250 0.344482 0.000000
vt 0.683594 0.344482 0.000000
vt 0.750000 0.359131 0.000000
vt 0.750000 0.155273 0.000000
vt 0.683594 0.155273 0.000000
vt 0.750000 0.140625 0.000000
vt 0.683594 0.344482 0.000000
vt 0.750000 0.344482 0.000000
vt 0.750000 0.359131 0.000000
vt 0.816162 0.155273 0.000000
vt 0.750000 0.155273 0.000000
vt 0.750000 0.140625 0.000000
vt 0.750000 0.344482 0.000000
vt 0.816162 0.344482 0.000000
vt 0.750000 0.359131 0.000000
vt 0.843750 0.155273 0.000000
vt 0.816162 0.155273 0.000000
vt 0.750000 0.140625 0.000000
vt 0.816162 0.344482 0.000000
vt 0.843750 0.344482 0.000000
vt 0.750000 0.359131 0.000000
vt 0.875000 0.968750 0.000000
vt 0.968750 0.968750 0.000000
vt 0.875000 0.968750 0.000000
vt 0.968750 0.968750 0.000000
vt 0.875000 0.968750 0.000000
vt 0.875000 0.968750 0.000000
vt 0.875000 0.968750 0.000000
vt 0.750000 0.968750 0.000000
vt 0.875000 0.968750 0.000000
vt 0.750000 0.968750 0.000000
vt 0.875000 0.968750 0.000000
vt 0.875000 0.968750 0.000000
vt 0.750000 0.968750 0.000000
vt 0.656250 0.968750 0.000000
vt 0.875000 0.968750 0.000000
vt 0.656250 0.968750 0.000000
vt 0.750000 0.968750 0.000000
vt 0.875000 0.968750 0.000000
vt 0.430908 0.916260 0.000000
vt 0.354736 0.956787 0.000000
vt 0.358643 0.869141 0.000000
vt 0.434570 0.828369 0.000000
vt 0.430908 0.916260 0.000000
vt 0.358643 0.869141 0.000000
vt 0.362549 0.781250 0.000000
vt 0.434570 0.828369 0.000000
vt 0.358643 0.869141 0.000000
vt 0.286377 0.822021 0.000000
vt 0.362549 0.781250 0.000000
vt 0.358643 0.869141 0.000000
vt 0.282471 0.909668 0.000000
vt 0.286377 0.822021 0.000000
vt 0.358643 0.869141 0.000000
vt 0.354736 0.956787 0.000000
vt 0.282471 0.909668 0.000000
vt 0.358643 0.869141 0.000000
vt 0.180908 0.771484 0.000000
vt 0.212402 0.865967 0.000000
vt 0.117920 0.865967 0.000000
vt 0.054932 0.771484 0.000000
vt 0.180908 0.771484 0.000000
vt 0.117920 0.865967 0.000000
vt 0.023438 0.865967 0.000000
vt 0.054932 0.771484 0.000000
vt 0.117920 0.865967 0.000000
vt 0.054932 0.960449 0.000000
vt 0.023438 0.865967 0.000000
vt 0.117920 0.865967 0.000000
vt 0.180908 0.960449 0.000000
vt 0.054932 0.960449 0.000000
vt 0.117920 0.865967 0.000000
vt 0.212402 0.865967 0.000000
vt 0.180908 0.960449 0.000000
vt 0.117920 0.865967 0.000000
vt 0.187500 0.781250 0.000000
vt 0.223633 0.884277 0.000000
vt 0.125000 0.875000 0.000000
vt 0.062500 0.781250 0.000000
vt 0.187500 0.781250 0.000000
vt 0.125000 0.875000 0.000000
vt 0.007813 0.875000 0.000000
vt 0.062500 0.781250 0.000000
vt 0.125000 0.875000 0.000000
vt 0.062500 0.968750 0.000000
vt 0.007813 0.875000 0.000000
vt 0.125000 0.875000 0.000000
vt 0.156250 0.968750 0.000000
vt 0.062500 0.968750 0.000000
vt 0.125000 0.875000 0.000000
vt 0.223633 0.884277 0.000000
vt 0.156250 0.968750 0.000000
vt 0.125000 0.875000 0.000000
vt 0.913086 0.730225 0.000000
vt 0.951172 0.730225 0.000000
vt 0.875000 0.730225 0.000000
vt 0.951172 0.730225 0.000000
vt 0.913086 0.730469 0.000000
vt 0.875000 0.730225 0.000000
vt 0.913086 0.730469 0.000000
vt 0.836914 0.730469 0.000000
vt 0.875000 0.730225 0.000000
vt 0.836914 0.730225 0.000000
vt 0.913086 0.730225 0.000000
vt 0.875000 0.730225 0.000000
vt 0.836914 0.730469 0.000000
vt 0.798828 0.730225 0.000000
vt 0.875000 0.730225 0.000000
vt 0.798828 0.730225 0.000000
vt 0.836914 0.730225 0.000000
vt 0.875000 0.730225 0.000000
vt 0.913086 0.730225 0.000000
vt 0.951172 0.730225 0.000000
vt 0.875000 0.730225 0.000000
vt 0.951172 0.730225 0.000000
vt 0.913086 0.730469 0.000000
vt 0.875000 0.730225 0.000000
vt 0.913086 0.730469 0.000000
vt 0.836914 0.730469 0.000000
vt 0.875000 0.730225 0.000000
vt 0.836914 0.730225 0.000000
vt 0.913086 0.730225 0.000000
vt 0.875000 0.730225 0.000000
vt 0.836914 0.730469 0.000000
vt 0.798828 0.730225 0.000000
vt 0.875000 0.730225 0.000000
vt 0.798828 0.730225 0.000000
vt 0.836914 0.730225 0.000000
vt 0.875000 0.730225 0.000000
vt 0.835938 0.087402 0.000000
vt 0.810547 0.087402 0.000000
vt 0.855225 0.156250 0.000000
vt 0.835938 0.087402 0.000000
vt 0.855225 0.156250 0.000000
vt 0.898682 0.156250 0.000000
vt 0.898682 0.156250 0.000000
vt 0.855225 0.156250 0.000000
vt 0.871338 0.250000 0.000000
vt 0.898682 0.156250 0.000000
vt 0.871338 0.250000 0.000000
vt 0.921875 0.250000 0.000000
vt 0.921875 0.250000 0.000000
vt 0.871338 0.250000 0.000000
vt 0.855225 0.343750 0.000000
vt 0.921875 0.250000 0.000000
vt 0.855225 0.343750 0.000000
vt 0.898682 0.343750 0.000000
vt 0.898682 0.343750 0.000000
vt 0.855225 0.343750 0.000000
vt 0.810547 0.412354 0.000000
vt 0.898682 0.343750 0.000000
vt 0.810547 0.412354 0.000000
vt 0.835938 0.412354 0.000000
vt 0.810547 0.087402 0.000000
vt 0.750000 0.087402 0.000000
vt 0.750000 0.156250 0.000000
vt 0.810547 0.087402 0.000000
vt 0.750000 0.156250 0.000000
vt 0.855225 0.156250 0.000000
vt 0.855225 0.156250 0.000000
vt 0.750000 0.156250 0.000000
vt 0.750000 0.250000 0.000000
vt 0.855225 0.156250 0.000000
vt 0.750000 0.250000 0.000000
vt 0.871338 0.250000 0.000000
vt 0.871338 0.250000 0.000000
vt 0.750000 0.250000 0.000000
vt 0.750000 0.343750 0.000000
vt 0.871338 0.250000 0.000000
vt 0.750000 0.343750 0.000000
vt 0.855225 0.343750 0.000000
vt 0.855225 0.343750 0.000000
vt 0.750000 0.343750 0.000000
vt 0.750000 0.412354 0.000000
vt 0.855225 0.343750 0.000000
vt 0.750000 0.412354 0.000000
vt 0.810547 0.412354 0.000000
vt 0.750000 0.087402 0.000000
vt 0.689209 0.087402 0.000000
vt 0.644531 0.156250 0.000000
vt 0.750000 0.087402 0.000000
vt 0.644531 0.156250 0.000000
vt 0.750000 0.156250 0.000000
vt 0.750000 0.156250 0.000000
vt 0.644531 0.156250 0.000000
vt 0.628418 0.250000 0.000000
vt 0.750000 0.156250 0.000000
vt 0.628418 0.250000 0.000000
vt 0.750000 0.250000 0.000000
vt 0.750000 0.250000 0.000000
vt 0.628418 0.250000 0.000000
vt 0.644531 0.343750 0.000000
vt 0.750000 0.250000 0.000000
vt 0.644531 0.343750 0.000000
vt 0.750000 0.343750 0.000000
vt 0.750000 0.343750 0.000000
vt 0.644531 0.343750 0.000000
vt 0.689209 0.412354 0.000000
vt 0.750000 0.343750 0.000000
vt 0.689209 0.412354 0.000000
vt 0.750000 0.412354 0.000000
vt 0.689209 0.087402 0.000000
vt 0.664063 0.087402 0.000000
vt 0.601074 0.156250 0.000000
vt 0.689209 0.087402 0.000000
vt 0.601074 0.156250 0.000000
vt 0.644531 0.156250 0.000000
vt 0.644531 0.156250 0.000000
vt 0.601074 0.156250 0.000000
vt 0.578125 0.250000 0.000000
vt 0.644531 0.156250 0.000000
vt 0.578125 0.250000 0.000000
vt 0.628418 0.250000 0.000000
vt 0.628418 0.250000 0.000000
vt 0.578125 0.250000 0.000000
vt 0.601074 0.343750 0.000000
vt 0.628418 0.250000 0.000000
vt 0.601074 0.343750 0.000000
vt 0.644531 0.343750 0.000000
vt 0.644531 0.343750 0.000000
vt 0.601074 0.343750 0.000000
vt 0.664063 0.412354 0.000000
vt 0.644531 0.343750 0.000000
vt 0.664063 0.412354 0.000000
vt 0.689209 0.412354 0.000000
vt 0.664063 0.087402 0.000000
vt 0.689209 0.087402 0.000000
vt 0.644531 0.156250 0.000000
vt 0.664063 0.087402 0.000000
vt 0.644531 0.156250 0.000000
vt 0.601074 0.156250 0.000000
vt 0.601074 0.156250 0.000000
vt 0.644531 0.156250 0.000000
vt 0.628418 0.250000 0.000000
vt 0.601074 0.156250 0.000000
vt 0.628418 0.250000 0.000000
vt 0.578125 0.250000 0.000000
vt 0.578125 0.250000 0.000000
vt 0.628418 0.250000 0.000000
vt 0.644531 0.343750 0.000000
vt 0.578125 0.250000 0.000000
vt 0.644531 0.343750 0.000000
vt 0.601074 0.343750 0.000000
vt 0.601074 0.343750 0.000000
vt 0.644531 0.343750 0.000000
vt 0.689209 0.412354 0.000000
vt 0.601074 0.343750 0.000000
vt 0.689209 0.412354 0.000000
vt 0.664063 0.412354 0.000000
vt 0.689209 0.087402 0.000000
vt 0.750000 0.087402 0.000000
vt 0.750000 0.156250 0.000000
vt 0.689209 0.087402 0.000000
vt 0.750000 0.156250 0.000000
vt 0.644531 0.156250 0.000000
vt 0.644531 0.156250 0.000000
vt 0.750000 0.156250 0.000000
vt 0.750000 0.250000 0.000000
vt 0.644531 0.156250 0.000000
vt 0.750000 0.250000 0.000000
vt 0.628418 0.250000 0.000000
vt 0.628418 0.250000 0.000000
vt 0.750000 0.250000 0.000000
vt 0.750000 0.343750 0.000000
vt 0.628418 0.250000 0.000000
vt 0.750000 0.343750 0.000000
vt 0.644531 0.343750 0.000000
vt 0.644531 0.343750 0.000000
vt 0.750000 0.343750 0.000000
vt 0.750000 0.412354 0.000000
vt 0.644531 0.343750 0.000000
vt 0.750000 0.412354 0.000000
vt 0.689209 0.412354 0.000000
vt 0.750000 0.087402 0.000000
vt 0.810547 0.087402 0.000000
vt 0.855225 0.156250 0.000000
vt 0.750000 0.087402 0.000000
vt 0.855225 0.156250 0.000000
vt 0.750000 0.156250 0.000000
vt 0.750000 0.156250 0.000000
vt 0.855225 0.156250 0.000000
vt 0.871338 0.250000 0.000000
vt 0.750000 0.156250 0.000000
vt 0.871338 0.250000 0.000000
vt 0.750000 0.250000 0.000000
vt 0.750000 0.250000 0.000000
vt 0.871338 0.250000 0.000000
vt 0.855225 0.343750 0.000000
vt 0.750000 0.250000 0.000000
vt 0.855225 0.343750 0.000000
vt 0.750000 0.343750 0.000000
vt 0.750000 0.343750 0.000000
vt 0.855225 0.343750 0.000000
vt 0.810547 0.412354 0.000000
vt 0.750000 0.343750 0.000000
vt 0.810547 0.412354 0.000000
vt 0.750000 0.412354 0.000000
vt 0.810547 0.087402 0.000000
vt 0.835938 0.087402 0.000000
vt 0.898682 0.156250 0.000000
vt 0.810547 0.087402 0.000000
vt 0.898682 0.156250 0.000000
vt 0.855225 0.156250 0.000000
vt 0.855225 0.156250 0.000000
vt 0.898682 0.156250 0.000000
vt 0.921875 0.250000 0.000000
vt 0.855225 0.156250 0.000000
vt 0.921875 0.250000 0.000000
vt 0.871338 0.250000 0.000000
vt 0.871338 0.250000 0.000000
vt 0.921875 0.250000 0.000000
vt 0.898682 0.343750 0.000000
vt 0.871338 0.250000 0.000000
vt 0.898682 0.343750 0.000000
vt 0.855225 0.343750 0.000000
vt 0.855225 0.343750 0.000000
vt 0.898682 0.343750 0.000000
vt 0.835938 0.412354 0.000000
vt 0.855225 0.343750 0.000000
vt 0.835938 0.412354 0.000000
vt 0.810547 0.412354 0.000000
vt 0.843750 0.155273 0.000000
vt 0.816162 0.155273 0.000000
vt 0.864746 0.195313 0.000000
vt 0.843750 0.155273 0.000000
vt 0.864746 0.195313 0.000000
vt 0.912354 0.195313 0.000000
vt 0.912354 0.195313 0.000000
vt 0.864746 0.195313 0.000000
vt 0.882568 0.250000 0.000000
vt 0.912354 0.195313 0.000000
vt 0.882568 0.250000 0.000000
vt 0.937500 0.250000 0.000000
vt 0.937500 0.250000 0.000000
vt 0.882568 0.250000 0.000000
vt 0.864746 0.304443 0.000000
vt 0.937500 0.250000 0.000000
vt 0.864746 0.304443 0.000000
vt 0.912354 0.304443 0.000000
vt 0.912354 0.304443 0.000000
vt 0.864746 0.304443 0.000000
vt 0.816162 0.344482 0.000000
vt 0.912354 0.304443 0.000000
vt 0.816162 0.344482 0.000000
vt 0.843750 0.344482 0.000000
vt 0.816162 0.155273 0.000000
vt 0.750000 0.155273 0.000000
vt 0.750000 0.195313 0.000000
vt 0.816162 0.155273 0.000000
vt 0.750000 0.195313 0.000000
vt 0.864746 0.195313 0.000000
vt 0.864746 0.195313 0.000000
vt 0.750000 0.195313 0.000000
vt 0.750000 0.250000 0.000000
vt 0.864746 0.195313 0.000000
vt 0.750000 0.250000 0.000000
vt 0.882568 0.250000 0.000000
vt 0.882568 0.250000 0.000000
vt 0.750000 0.250000 0.000000
vt 0.750000 0.304443 0.000000
vt 0.882568 0.250000 0.000000
vt 0.750000 0.304443 0.000000
vt 0.864746 0.304443 0.000000
vt 0.864746 0.304443 0.000000
vt 0.750000 0.304443 0.000000
vt 0.750000 0.344482 0.000000
vt 0.864746 0.304443 0.000000
vt 0.750000 0.344482 0.000000
vt 0.816162 0.344482 0.000000
vt 0.750000 0.155273 0.000000
vt 0.683594 0.155273 0.000000
vt 0.635010 0.195313 0.000000
vt 0.750000 0.155273 0.000000
vt 0.635010 0.195313 0.000000
vt 0.750000 0.195313 0.000000
vt 0.750000 0.195313 0.000000
vt 0.635010 0.195313 0.000000
vt 0.617188 0.250000 0.000000
vt 0.750000 0.195313 0.000000
vt 0.617188 0.250000 0.000000
vt 0.750000 0.250000 0.000000
vt 0.750000 0.250000 0.000000
vt 0.617188 0.250000 0.000000
vt 0.635010 0.304443 0.000000
vt 0.750000 0.250000 0.000000
vt 0.635010 0.304443 0.000000
vt 0.750000 0.304443 0.000000
vt 0.750000 0.304443 0.000000
vt 0.635010 0.304443 0.000000
vt 0.683594 0.344482 0.000000
vt 0.750000 0.304443 0.000000
vt 0.683594 0.344482 0.000000
vt 0.750000 0.344482 0.000000
vt 0.683594 0.155273 0.000000
vt 0.656250 0.155273 0.000000
vt 0.587402 0.195313 0.000000
vt 0.683594 0.155273 0.000000
vt 0.587402 0.195313 0.000000
vt 0.635010 0.195313 0.000000
vt 0.635010 0.195313 0.000000
vt 0.587402 0.195313 0.000000
vt 0.562500 0.250000 0.000000
vt 0.635010 0.195313 0.000000
vt 0.562500 0.250000 0.000000
vt 0.617188 0.250000 0.000000
vt 0.617188 0.250000 0.000000
vt 0.562500 0.250000 0.000000
vt 0.587402 0.304443 0.000000
vt 0.617188 0.250000 0.000000
vt 0.587402 0.304443 0.000000
vt 0.635010 0.304443 0.000000
vt 0.635010 0.304443 0.000000
vt 0.587402 0.304443 0.000000
vt 0.656250 0.344482 0.000000
vt 0.635010 0.304443 0.000000
vt 0.656250 0.344482 0.000000
vt 0.683594 0.344482 0.000000
vt 0.656250 0.155273 0.000000
vt 0.683594 0.155273 0.000000
vt 0.635010 0.195313 0.000000
vt 0.656250 0.155273 0.000000
vt 0.635010 0.195313 0.000000
vt 0.587402 0.195313 0.000000
vt 0.587402 0.195313 0.000000
vt 0.635010 0.195313 0.000000
vt 0.617188 0.250000 0.000000
vt 0.587402 0.195313 0.000000
vt 0.617188 0.250000 0.000000
vt 0.562500 0.250000 0.000000
vt 0.562500 0.250000 0.000000
vt 0.617188 0.250000 0.000000
vt 0.635010 0.304443 0.000000
vt 0.562500 0.250000 0.000000
vt 0.635010 0.304443 0.000000
vt 0.587402 0.304443 0.000000
vt 0.587402 0.304443 0.000000
vt 0.635010 0.304443 0.000000
vt 0.683594 0.344482 0.000000
vt 0.587402 0.304443 0.000000
vt 0.683594 0.344482 0.000000
vt 0.656250 0.344482 0.000000
vt 0.683594 0.155273 0.000000
vt 0.750000 0.155273 0.000000
vt 0.750000 0.195313 0.000000
vt 0.683594 0.155273 0.000000
vt 0.750000 0.195313 0.000000
vt 0.635010 0.195313 0.000000
vt 0.635010 0.195313 0.000000
vt 0.750000 0.195313 0.000000
vt 0.750000 0.250000 0.000000
vt 0.635010 0.195313 0.000000
vt 0.750000 0.250000 0.000000
vt 0.617188 0.250000 0.000000
vt 0.617188 0.250000 0.000000
vt 0.750000 0.250000 0.000000
vt 0.750000 0.304443 0.000000
vt 0.617188 0.250000 0.000000
vt 0.750000 0.304443 0.000000
vt 0.635010 0.304443 0.000000
vt 0.635010 0.304443 0.000000
vt 0.750000 0.304443 0.000000
vt 0.750000 0.344482 0.000000
vt 0.635010 0.304443 0.000000
vt 0.750000 0.344482 0.000000
vt 0.683594 0.344482 0.000000
vt 0.750000 0.155273 0.000000
vt 0.816162 0.155273 0.000000
vt 0.864746 0.195313 0.000000
vt 0.750000 0.155273 0.000000
vt 0.864746 0.195313 0.000000
vt 0.750000 0.195313 0.000000
vt 0.750000 0.195313 0.000000
vt 0.864746 0.195313 0.000000
vt 0.882568 0.250000 0.000000
vt 0.750000 0.195313 0.000000
vt 0.882568 0.250000 0.000000
vt 0.750000 0.250000 0.000000
vt 0.750000 0.250000 0.000000
vt 0.882568 0.250000 0.000000
vt 0.864746 0.304443 0.000000
vt 0.750000 0.250000 0.000000
vt 0.864746 0.304443 0.000000
vt 0.750000 0.304443 0.000000
vt 0.750000 0.304443 0.000000
vt 0.864746 0.304443 0.000000
vt 0.816162 0.344482 0.000000
vt 0.750000 0.304443 0.000000
vt 0.816162 0.344482 0.000000
vt 0.750000 0.344482 0.000000
vt 0.816162 0.155273 0.000000
vt 0.843750 0.155273 0.000000
vt 0.912354 0.195313 0.000000
vt 0.816162 0.155273 0.000000
vt 0.912354 0.195313 0.000000
vt 0.864746 0.195313 0.000000
vt 0.864746 0.195313 0.000000
vt 0.912354 0.195313 0.000000
vt 0.937500 0.250000 0.000000
vt 0.864746 0.195313 0.000000
vt 0.937500 0.250000 0.000000
vt 0.882568 0.250000 0.000000
vt 0.882568 0.250000 0.000000
vt 0.937500 0.250000 0.000000
vt 0.912354 0.304443 0.000000
vt 0.882568 0.250000 0.000000
vt 0.912354 0.304443 0.000000
vt 0.864746 0.304443 0.000000
vt 0.864746 0.304443 0.000000
vt 0.912354 0.304443 0.000000
vt 0.843750 0.344482 0.000000
vt 0.864746 0.304443 0.000000
vt 0.843750 0.344482 0.000000
vt 0.816162 0.344482 0.000000
vt 0.968750 0.781250 0.000000
vt 0.875000 0.781250 0.000000
vt 0.875000 0.968750 0.000000
vt 0.968750 0.781250 0.000000
vt 0.875000 0.968750 0.000000
vt 0.968750 0.968750 0.000000
vt 0.875000 0.781250 0.000000
vt 0.968750 0.781250 0.000000
vt 0.968750 0.968750 0.000000
vt 0.875000 0.781250 0.000000
vt 0.968750 0.968750 0.000000
vt 0.875000 0.968750 0.000000
vt 0.875000 0.781250 0.000000
vt 0.750000 0.781250 0.000000
vt 0.750000 0.968750 0.000000
vt 0.875000 0.781250 0.000000
vt 0.750000 0.968750 0.000000
vt 0.875000 0.968750 0.000000
vt 0.750000 0.781250 0.000000
vt 0.656250 0.781250 0.000000
vt 0.656250 0.968750 0.000000
vt 0.750000 0.781250 0.000000
vt 0.656250 0.968750 0.000000
vt 0.750000 0.968750 0.000000
vt 0.750000 0.781250 0.000000
vt 0.875000 0.781250 0.000000
vt 0.875000 0.968750 0.000000
vt 0.750000 0.781250 0.000000
vt 0.875000 0.968750 0.000000
vt 0.750000 0.968750 0.000000
vt 0.656250 0.781250 0.000000
vt 0.750000 0.781250 0.000000
vt 0.750000 0.968750 0.000000
vt 0.656250 0.781250 0.000000
vt 0.750000 0.968750 0.000000
vt 0.656250 0.968750 0.000000
vt 0.951172 0.525391 0.000000
vt 0.913086 0.525391 0.000000
vt 0.913086 0.730469 0.000000
vt 0.951172 0.525391 0.000000
vt 0.913086 0.730469 0.000000
vt 0.951172 0.730225 0.000000
vt 0.913086 0.525391 0.000000
vt 0.951172 0.525391 0.000000
vt 0.951172 0.730225 0.000000
vt 0.913086 0.525391 0.000000
vt 0.951172 0.730225 0.000000
vt 0.913086 0.730225 0.000000
vt 0.913086 0.525391 0.000000
vt 0.836914 0.525391 0.000000
vt 0.836914 0.730469 0.000000
vt 0.913086 0.525391 0.000000
vt 0.836914 0.730469 0.000000
vt 0.913086 0.730469 0.000000
vt 0.836914 0.525391 0.000000
vt 0.798828 0.525391 0.000000
vt 0.798828 0.730225 0.000000
vt 0.836914 0.525391 0.000000
vt 0.798828 0.730225 0.000000
vt 0.836914 0.730469 0.000000
vt 0.836914 0.525391 0.000000
vt 0.913086 0.525391 0.000000
vt 0.913086 0.730225 0.000000
vt 0.836914 0.525391 0.000000
vt 0.913086 0.730225 0.000000
vt 0.836914 0.730225 0.000000
vt 0.798828 0.525391 0.000000
vt 0.836914 0.525391 0.000000
vt 0.836914 0.730225 0.000000
vt 0.798828 0.525391 0.000000
vt 0.836914 0.730225 0.000000
vt 0.798828 0.730225 0.000000
vt 0.951172 0.525391 0.000000
vt 0.913086 0.525391 0.000000
vt 0.913086 0.730469 0.000000
vt 0.951172 0.525391 0.000000
vt 0.913086 0.730469 0.000000
vt 0.951172 0.730225 0.000000
vt 0.913086 0.525391 0.000000
vt 0.951172 0.525391 0.000000
vt 0.951172 0.730225 0.000000
vt 0.913086 0.525391 0.000000
vt 0.951172 0.730225 0.000000
vt 0.913086 0.730225 0.000000
vt 0.913086 0.525391 0.000000
vt 0.836914 0.525391 0.000000
vt 0.836914 0.730469 0.000000
vt 0.913086 0.525391 0.000000
vt 0.836914 0.730469 0.000000
vt 0.913086 0.730469 0.000000
vt 0.836914 0.525391 0.000000
vt 0.798828 0.525391 0.000000
vt 0.798828 0.730225 0.000000
vt 0.836914 0.525391 0.000000
vt 0.798828 0.730225 0.000000
vt 0.836914 0.730469 0.000000
vt 0.836914 0.525391 0.000000
vt 0.913086 0.525391 0.000000
vt 0.913086 0.730225 0.000000
vt 0.836914 0.525391 0.000000
vt 0.913086 0.730225 0.000000
vt 0.836914 0.730225 0.000000
vt 0.798828 0.525391 0.000000
vt 0.836914 0.525391 0.000000
vt 0.836914 0.730225 0.000000
vt 0.798828 0.525391 0.000000
vt 0.836914 0.730225 0.000000
vt 0.798828 0.730225 0.000000
vn 0.322998 0.889404 0.322998
vn 0.457031 0.889404 0.000000
vn 0.000000 1.000000 0.000000
vn 0.457031 -0.889404 0.000000
vn 0.322998 -0.889404 0.322998
vn 0.000000 -1.000000 0.000000
vn 0.000000 0.889404 0.457031
vn 0.322998 0.889404 0.322998
vn 0.000000 1.000000 0.000000
vn 0.322998 -0.889404 0.322998
vn 0.000000 -0.889404 0.457031
vn 0.000000 -1.000000 0.000000
vn -0.322998 0.889404 0.322998
vn 0.000000 0.889404 0.457031
vn 0.000000 1.000000 0.000000
vn 0.000000 -0.889404 0.457031
vn -0.322998 -0.889404 0.322998
vn 0.000000 -1.000000 0.000000
vn -0.457031 0.889404 0.000000
vn -0.322998 0.889404 0.322998
vn 0.000000 1.000000 0.000000
vn -0.322998 -0.889404 0.322998
vn -0.457031 -0.889404 0.000000
vn 0.000000 -1.000000 0.000000
vn -0.322998 0.889404 -0.322998
vn -0.457031 0.889404 0.000000
vn 0.000000 1.000000 0.000000
vn -0.457031 -0.889404 0.000000
vn -0.322998 -0.889404 -0.322998
vn 0.000000 -1.000000 0.000000
vn 0.000000 0.889404 -0.457031
vn -0.322998 0.889404 -0.322998
vn 0.000000 1.000000 0.000000
vn -0.322998 -0.889404 -0.322998
vn 0.000000 -0.889404 -0.457031
vn 0.000000 -1.000000 0.000000
vn 0.322998 0.889404 -0.322998
vn 0.000000 0.889404 -0.457031
vn 0.000000 1.000000 0.000000
vn 0.000000 -0.889404 -0.457031
vn 0.322998 -0.889404 -0.322998
vn 0.000000 -1.000000 0.000000
vn 0.457031 0.889404 0.000000
vn 0.322998 0.889404 -0.322998
vn 0.000000 1.000000 0.000000
vn 0.322998 -0.889404 -0.322998
vn 0.457031 -0.889404 0.000000
vn 0.000000 -1.000000 0.000000
vn 0.333496 0.881592 0.333496
vn 0.471924 0.881592 0.000000
vn 0.000000 1.000000 0.000000
vn 0.471924 -0.881592 0.000000
vn 0.333496 -0.881592 0.333496
vn 0.000000 -1.000000 0.000000
vn 0.000000 0.881592 0.471924
vn 0.333496 0.881592 0.333496
vn 0.000000 1.000000 0.000000
vn 0.333496 -0.881592 0.333496
vn 0.000000 -0.881592 0.471924
vn 0.000000 -1.000000 0.000000
vn -0.333496 0.881592 0.333496
vn 0.000000 0.881592 0.471924
vn 0.000000 1.000000 0.000000
vn 0.000000 -0.881592 0.471924
vn -0.333496 -0.881592 0.333496
vn 0.000000 -1.000000 0.000000
vn -0.471924 0.881592 0.000000
vn -0.333496 0.881592 0.333496
vn 0.000000 1.000000 0.000000
vn -0.333496 -0.881592 0.333496
vn -0.471924 -0.881592 0.000000
vn 0.000000 -1.000000 0.000000
vn -0.333496 0.881592 -0.333496
vn -0.471924 0.881592 0.000000
vn 0.000000 1.000000 0.000000
vn -0.471924 -0.881592 0.000000
vn -0.333496 -0.881592 -0.333496
vn 0.000000 -1.000000 0.000000
vn 0.000000 0.881592 -0.471924
vn -0.333496 0.881592 -0.333496
vn 0.000000 1.000000 0.000000
vn -0.333496 -0.881592 -0.333496
vn 0.000000 -0.881592 -0.471924
vn 0.000000 -1.000000 0.000000
vn 0.333496 0.881592 -0.333496
vn 0.000000 0.881592 -0.471924
vn 0.000000 1.000000 0.000000
vn 0.000000 -0.881592 -0.471924
vn 0.333496 -0.881592 -0.333496
vn 0.000000 -1.000000 0.000000
vn 0.471924 0.881592 0.000000
vn 0.333496 0.881592 -0.333496
vn 0.000000 1.000000 0.000000
vn 0.333496 -0.881592 -0.333496
vn 0.471924 -0.881592 0.000000
vn 0.000000 -1.000000 0.000000
vn 0.295654 -0.625732 -0.347412
vn 0.591553 -0.479004 0.143066
vn 0.000000 -0.958008 0.286377
vn 0.591553 -0.479004 0.143066
vn 0.295654 -0.332275 0.634033
vn 0.000000 -0.958008 0.286377
vn 0.295654 -0.332275 0.634033
vn -0.295654 -0.332275 0.634033
vn 0.000000 -0.958008 0.286377
vn -0.295654 -0.625732 -0.347412
vn 0.295654 -0.625732 -0.347412
vn 0.000000 -0.958008 0.286377
vn -0.295654 -0.332275 0.634033
vn -0.591553 -0.479004 0.143066
vn 0.000000 -0.958008 0.286377
vn -0.591553 -0.479004 0.143066
vn -0.295654 -0.625732 -0.347412
vn 0.000000 -0.958008 0.286377
vn 0.480957 0.793945 -0.371582
vn 0.962158 -0.032959 -0.270020
vn 0.000000 -0.121826 -0.992432
vn -0.480957 0.793945 -0.371582
vn 0.480957 0.793945 -0.371582
vn 0.000000 -0.121826 -0.992432
vn -0.962158 -0.032959 -0.270020
vn -0.480957 0.793945 -0.371582
vn 0.000000 -0.121826 -0.992432
vn -0.480957 -0.860107 -0.168457
vn -0.962158 -0.032959 -0.270020
vn 0.000000 -0.121826 -0.992432
vn 0.480957 -0.860107 -0.168457
vn -0.480957 -0.860107 -0.168457
vn 0.000000 -0.121826 -0.992432
vn 0.962158 -0.032959 -0.270020
vn 0.480957 -0.860107 -0.168457
vn 0.000000 -0.121826 -0.992432
vn 0.003662 0.183105 -0.982910
vn 0.304443 -0.119873 -0.944824
vn -0.337891 -0.151367 -0.928711
vn -0.634766 0.183105 -0.750488
vn 0.003662 0.183105 -0.982910
vn -0.337891 -0.151367 -0.928711
vn -0.840576 -0.119873 -0.527832
vn -0.634766 0.183105 -0.750488
vn -0.337891 -0.151367 -0.928711
vn -0.601318 -0.450928 -0.659180
vn -0.840576 -0.119873 -0.527832
vn -0.337891 -0.151367 -0.928711
vn 0.036865 -0.450928 -0.891602
vn -0.601318 -0.450928 -0.659180
vn -0.337891 -0.151367 -0.928711
vn 0.304443 -0.119873 -0.944824
vn 0.036865 -0.450928 -0.891602
vn -0.337891 -0.151367 -0.928711
vn 0.634766 0.183105 -0.750488
vn 0.840576 -0.119873 -0.527832
vn 0.337891 -0.151367 -0.928711
vn -0.003662 0.183105 -0.982910
vn 0.634766 0.183105 -0.750488
vn 0.337891 -0.151367 -0.928711
vn -0.304443 -0.119873 -0.944824
vn -0.003662 0.183105 -0.982910
vn 0.337891 -0.151367 -0.928711
vn -0.036865 -0.450928 -0.891602
vn -0.304443 -0.119873 -0.944824
vn 0.337891 -0.151367 -0.928711
vn 0.601318 -0.450928 -0.659180
vn -0.036865 -0.450928 -0.891602
vn 0.337891 -0.151367 -0.928711
vn 0.840576 -0.119873 -0.527832
vn 0.601318 -0.450928 -0.659180
vn 0.337891 -0.151367 -0.928711
vn 0.299805 0.249756 -0.606201
vn 0.599854 -0.199951 -0.346191
vn 0.000000 -0.500000 -0.865967
vn 0.599854 -0.199951 -0.346191
vn 0.346191 -0.546387 -0.146240
vn 0.000000 -0.500000 -0.865967
vn 0.346191 -0.546387 -0.146240
vn -0.173096 -0.632813 -0.096191
vn 0.000000 -0.500000 -0.865967
vn -0.346191 0.146240 -0.546387
vn 0.299805 0.249756 -0.606201
vn 0.000000 -0.500000 -0.865967
vn -0.173096 -0.632813 -0.096191
vn -0.519531 -0.286377 -0.296387
vn 0.000000 -0.500000 -0.865967
vn -0.519531 -0.286377 -0.296387
vn -0.346191 0.146240 -0.546387
vn 0.000000 -0.500000 -0.865967
vn 0.299805 0.379883 -0.534424
vn 0.599854 -0.116943 -0.382324
vn 0.000000 -0.292236 -0.956299
vn 0.599854 -0.116943 -0.382324
vn 0.346191 -0.499268 -0.265381
vn 0.000000 -0.292236 -0.956299
vn 0.346191 -0.499268 -0.265381
vn -0.173096 -0.594971 -0.236328
vn 0.000000 -0.292236 -0.956299
vn -0.346191 0.265381 -0.499268
vn 0.299805 0.379883 -0.534424
vn 0.000000 -0.292236 -0.956299
vn -0.173096 -0.594971 -0.236328
vn -0.519531 -0.212402 -0.353271
vn 0.000000 -0.292236 -0.956299
vn -0.519531 -0.212402 -0.353271
vn -0.346191 0.265381 -0.499268
vn 0.000000 -0.292236 -0.956299
vn 0.457031 0.889404 0.000000
vn 0.322998 0.889404 0.322998
vn 0.593262 0.543701 0.593262
vn 0.457031 0.889404 0.000000
vn 0.593262 0.543701 0.593262
vn 0.839111 0.543701 0.000000
vn 0.839111 0.543701 0.000000
vn 0.593262 0.543701 0.593262
vn 0.707031 0.000000 0.707031
vn 0.839111 0.543701 0.000000
vn 0.707031 0.000000 0.707031
vn 1.000000 0.000000 0.000000
vn 1.000000 0.000000 0.000000
vn 0.707031 0.000000 0.707031
vn 0.593262 -0.543701 0.593262
vn 1.000000 0.000000 0.000000
vn 0.593262 -0.543701 0.593262
vn 0.839111 -0.543701 0.000000
vn 0.839111 -0.543701 0.000000
vn 0.593262 -0.543701 0.593262
vn 0.322998 -0.889404 0.322998
vn 0.839111 -0.543701 0.000000
vn 0.322998 -0.889404 0.322998
vn 0.457031 -0.889404 0.000000
vn 0.322998 0.889404 0.322998
vn 0.000000 0.889404 0.457031
vn 0.000000 0.543701 0.839111
vn 0.322998 0.889404 0.322998
vn 0.000000 0.543701 0.839111
vn 0.593262 0.543701 0.593262
vn 0.593262 0.543701 0.593262
vn 0.000000 0.543701 0.839111
vn 0.000000 0.000000 1.000000
vn 0.593262 0.543701 0.593262
vn 0.000000 0.000000 1.000000
vn 0.707031 0.000000 0.707031
vn 0.707031 0.000000 0.707031
vn 0.000000 0.000000 1.000000
vn 0.000000 -0.543701 0.839111
vn 0.707031 0.000000 0.707031
vn 0.000000 -0.543701 0.839111
vn 0.593262 -0.543701 0.593262
vn 0.593262 -0.543701 0.593262
vn 0.000000 -0.543701 0.839111
vn 0.000000 -0.889404 0.457031
vn 0.593262 -0.543701 0.593262
vn 0.000000 -0.889404 0.457031
vn 0.322998 -0.889404 0.322998
vn 0.000000 0.889404 0.457031
vn -0.322998 0.889404 0.322998
vn -0.593262 0.543701 0.593262
vn 0.000000 0.889404 0.457031
vn -0.593262 0.543701 0.593262
vn 0.000000 0.543701 0.839111
vn 0.000000 0.543701 0.839111
vn -0.593262 0.543701 0.593262
vn -0.707031 0.000000 0.707031
vn 0.000000 0.543701 0.839111
vn -0.707031 0.000000 0.707031
vn 0.000000 0.000000 1.000000
vn 0.000000 0.000000 1.000000
vn -0.707031 0.000000 0.707031
vn -0.593262 -0.543701 0.593262
vn 0.000000 0.000000 1.000000
vn -0.593262 -0.543701 0.593262
vn 0.000000 -0.543701 0.839111
vn 0.000000 -0.543701 0.839111
vn -0.593262 -0.543701 0.593262
vn -0.322998 -0.889404 0.322998
vn 0.000000 -0.543701 0.839111
vn -0.322998 -0.889404 0.322998
vn 0.000000 -0.889404 0.457031
vn -0.322998 0.889404 0.322998
vn -0.457031 0.889404 0.000000
vn -0.839111 0.543701 0.000000
vn -0.322998 0.889404 0.322998
vn -0.839111 0.543701 0.000000
vn -0.593262 0.543701 0.593262
vn -0.593262 0.543701 0.593262
vn -0.839111 0.543701 0.000000
vn -1.000000 0.000000 0.000000
vn -0.593262 0.543701 0.593262
vn -1.000000 0.000000 0.000000
vn -0.707031 0.000000 0.707031
vn -0.707031 0.000000 0.707031
vn -1.000000 0.000000 0.000000
vn -0.839111 -0.543701 0.000000
vn -0.707031 0.000000 0.707031
vn -0.839111 -0.543701 0.000000
vn -0.593262 -0.543701 0.593262
vn -0.593262 -0.543701 0.593262
vn -0.839111 -0.543701 0.000000
vn -0.457031 -0.889404 0.000000
vn -0.593262 -0.543701 0.593262
vn -0.457031 -0.889404 0.000000
vn -0.322998 -0.889404 0.322998
vn -0.457031 0.889404 0.000000
vn -0.322998 0.889404 -0.322998
vn -0.593262 0.543701 -0.593262
vn -0.457031 0.889404 0.000000
vn -0.593262 0.543701 -0.593262
vn -0.839111 0.543701 0.000000
vn -0.839111 0.543701 0.000000
vn -0.593262 0.543701 -0.593262
vn -0.707031 0.000000 -0.707031
vn -0.839111 0.543701 0.000000
vn -0.707031 0.000000 -0.707031
vn -1.000000 0.000000 0.000000
vn -1.000000 0.000000 0.000000
vn -0.707031 0.000000 -0.707031
vn -0.593262 -0.543701 -0.593262
vn -1.000000 0.000000 0.000000
vn -0.593262 -0.543701 -0.593262
vn -0.839111 -0.543701 0.000000
vn -0.839111 -0.543701 0.000000
vn -0.593262 -0.543701 -0.593262
vn -0.322998 -0.889404 -0.322998
vn -0.839111 -0.543701 0.000000
vn -0.322998 -0.889404 -0.322998
vn -0.457031 -0.889404 0.000000
vn -0.322998 0.889404 -0.322998
vn 0.000000 0.889404 -0.457031
vn 0.000000 0.543701 -0.839111
vn -0.322998 0.889404 -0.322998
vn 0.000000 0.543701 -0.839111
vn -0.593262 0.543701 -0.593262
vn -0.593262 0.543701 -0.593262
vn 0.000000 0.543701 -0.839111
vn 0.000000 0.000000 -1.000000
vn -0.593262 0.543701 -0.593262
vn 0.000000 0.000000 -1.000000
vn -0.707031 0.000000 -0.707031
vn -0.707031 0.000000 -0.707031
vn 0.000000 0.000000 -1.000000
vn 0.000000 -0.543701 -0.839111
vn -0.707031 0.000000 -0.707031
vn 0.000000 -0.543701 -0.839111
vn -0.593262 -0.543701 -0.593262
vn -0.593262 -0.543701 -0.593262
vn 0.000000 -0.543701 -0.839111
vn 0.000000 -0.889404 -0.457031
vn -0.593262 -0.543701 -0.593262
vn 0.000000 -0.889404 -0.457031
vn -0.322998 -0.889404 -0.322998
vn 0.000000 0.889404 -0.457031
vn 0.322998 0.889404 -0.322998
vn 0.593262 0.543701 -0.593262
vn 0.000000 0.889404 -0.457031
vn 0.593262 0.543701 -0.593262
vn 0.000000 0.543701 -0.839111
vn 0.000000 0.543701 -0.839111
vn 0.593262 0.543701 -0.593262
vn 0.707031 0.000000 -0.707031
vn 0.000000 0.543701 -0.839111
vn 0.707031 0.000000 -0.707031
vn 0.000000 0.000000 -1.000000
vn 0.000000 0.000000 -1.000000
vn 0.707031 0.000000 -0.707031
vn 0.593262 -0.543701 -0.593262
vn 0.000000 0.000000 -1.000000
vn 0.593262 -0.543701 -0.593262
vn 0.000000 -0.543701 -0.839111
vn 0.000000 -0.543701 -0.839111
vn 0.593262 -0.543701 -0.593262
vn 0.322998 -0.889404 -0.322998
vn 0.000000 -0.543701 -0.839111
vn 0.322998 -0.889404 -0.322998
vn 0.000000 -0.889404 -0.457031
vn 0.322998 0.889404 -0.322998
vn 0.457031 0.889404 0.000000
vn 0.839111 0.543701 0.000000
vn 0.322998 0.889404 -0.322998
vn 0.839111 0.543701 0.000000
vn 0.593262 0.543701 -0.593262
vn 0.593262 0.543701 -0.593262
vn 0.839111 0.543701 0.000000
vn 1.000000 0.000000 0.000000
vn 0.593262 0.543701 -0.593262
vn 1.000000 0.000000 0.000000
vn 0.707031 0.000000 -0.707031
vn 0.707031 0.000000 -0.707031
vn 1.000000 0.000000 0.000000
vn 0.839111 -0.543701 0.000000
vn 0.707031 0.000000 -0.707031
vn 0.839111 -0.543701 0.000000
vn 0.593262 -0.543701 -0.593262
vn 0.593262 -0.543701 -0.593262
vn 0.839111 -0.543701 0.000000
vn 0.457031 -0.889404 0.000000
vn 0.593262 -0.543701 -0.593262
vn 0.457031 -0.889404 0.000000
vn 0.322998 -0.889404 -0.322998
vn 0.471924 0.881592 0.000000
vn 0.333496 0.881592 0.333496
vn 0.600342 0.528076 0.600342
vn 0.471924 0.881592 0.000000
vn 0.600342 0.528076 0.600342
vn 0.848877 0.528076 0.000000
vn 0.848877 0.528076 0.000000
vn 0.600342 0.528076 0.600342
vn 0.707031 0.000000 0.707031
vn 0.848877 0.528076 0.000000
vn 0.707031 0.000000 0.707031
vn 1.000000 0.000000 0.000000
vn 1.000000 0.000000 0.000000
vn 0.707031 0.000000 0.707031
vn 0.600342 -0.528076 0.600342
vn 1.000000 0.000000 0.000000
vn 0.600342 -0.528076 0.600342
vn 0.848877 -0.528076 0.000000
vn 0.848877 -0.528076 0.000000
vn 0.600342 -0.528076 0.600342
vn 0.333496 -0.881592 0.333496
vn 0.848877 -0.528076 0.000000
vn 0.333496 -0.881592 0.333496
vn 0.471924 -0.881592 0.000000
vn 0.333496 0.881592 0.333496
vn 0.000000 0.881592 0.471924
vn 0.000000 0.528076 0.848877
vn 0.333496 0.881592 0.333496
vn 0.000000 0.528076 0.848877
vn 0.600342 0.528076 0.600342
vn 0.600342 0.528076 0.600342
vn 0.000000 0.528076 0.848877
vn 0.000000 0.000000 1.000000
vn 0.600342 0.528076 0.600342
vn 0.000000 0.000000 1.000000
vn 0.707031 0.000000 0.707031
vn 0.707031 0.000000 0.707031
vn 0.000000 0.000000 1.000000
vn 0.000000 -0.528076 0.848877
vn 0.707031 0.000000 0.707031
vn 0.000000 -0.528076 0.848877
vn 0.600342 -0.528076 0.600342
vn 0.600342 -0.528076 0.600342
vn 0.000000 -0.528076 0.848877
vn 0.000000 -0.881592 0.471924
vn 0.600342 -0.528076 0.600342
vn 0.000000 -0.881592 0.471924
vn 0.333496 -0.881592 0.333496
vn 0.000000 0.881592 0.471924
vn -0.333496 0.881592 0.333496
vn -0.600342 0.528076 0.600342
vn 0.000000 0.881592 0.471924
vn -0.600342 0.528076 0.600342
vn 0.000000 0.528076 0.848877
vn 0.000000 0.528076 0.848877
vn -0.600342 0.528076 0.600342
vn -0.707031 0.000000 0.707031
vn 0.000000 0.528076 0.848877
vn -0.707031 0.000000 0.707031
vn 0.000000 0.000000 1.000000
vn 0.000000 0.000000 1.000000
vn -0.707031 0.000000 0.707031
vn -0.600342 -0.528076 0.600342
vn 0.000000 0.000000 1.000000
vn -0.600342 -0.528076 0.600342
vn 0.000000 -0.528076 0.848877
vn 0.000000 -0.528076 0.848877
vn -0.600342 -0.528076 0.600342
vn -0.333496 -0.881592 0.333496
vn 0.000000 -0.528076 0.848877
vn -0.333496 -0.881592 0.333496
vn 0.000000 -0.881592 0.471924
vn -0.333496 0.881592 0.333496
vn -0.471924 0.881592 0.000000
vn -0.848877 0.528076 0.000000
vn -0.333496 0.881592 0.333496
vn -0.848877 0.528076 0.000000
vn -0.600342 0.528076 0.600342
vn -0.600342 0.528076 0.600342
vn -0.848877 0.528076 0.000000
vn -1.000000 0.000000 0.000000
vn -0.600342 0.528076 0.600342
vn -1.000000 0.000000 0.000000
vn -0.707031 0.000000 0.707031
vn -0.707031 0.000000 0.707031
vn -1.000000 0.000000 0.000000
vn -0.848877 -0.528076 0.000000
vn -0.707031 0.000000 0.707031
vn -0.848877 -0.528076 0.000000
vn -0.600342 -0.528076 0.600342
vn -0.600342 -0.528076 0.600342
vn -0.848877 -0.528076 0.000000
vn -0.471924 -0.881592 0.000000
vn -0.600342 -0.528076 0.600342
vn -0.471924 -0.881592 0.000000
vn -0.333496 -0.881592 0.333496
vn -0.471924 0.881592 0.000000
vn -0.333496 0.881592 -0.333496
vn -0.600342 0.528076 -0.600342
vn -0.471924 0.881592 0.000000
vn -0.600342 0.528076 -0.600342
vn -0.848877 0.528076 0.000000
vn -0.848877 0.528076 0.000000
vn -0.600342 0.528076 -0.600342
vn -0.707031 0.000000 -0.707031
vn -0.848877 0.528076 0.000000
vn -0.707031 0.000000 -0.707031
vn -1.000000 0.000000 0.000000
vn -1.000000 0.000000 0.000000
vn -0.707031 0.000000 -0.707031
vn -0.600342 -0.528076 -0.600342
vn -1.000000 0.000000 0.000000
vn -0.600342 -0.528076 -0.600342
vn -0.848877 -0.528076 0.000000
vn -0.848877 -0.528076 0.000000
vn -0.600342 -0.528076 -0.600342
vn -0.333496 -0.881592 -0.333496
vn -0.848877 -0.528076 0.000000
vn -0.333496 -0.881592 -0.333496
vn -0.471924 -0.881592 0.000000
vn -0.333496 0.881592 -0.333496
vn 0.000000 0.881592 -0.471924
vn 0.000000 0.528076 -0.848877
vn -0.333496 0.881592 -0.333496
vn 0.000000 0.528076 -0.848877
vn -0.600342 0.528076 -0.600342
vn -0.600342 0.528076 -0.600342
vn 0.000000 0.528076 -0.848877
vn 0.000000 0.000000 -1.000000
vn -0.600342 0.528076 -0.600342
vn 0.000000 0.000000 -1.000000
vn -0.707031 0.000000 -0.707031
vn -0.707031 0.000000 -0.707031
vn 0.000000 0.000000 -1.000000
vn 0.000000 -0.528076 -0.848877
vn -0.707031 0.000000 -0.707031
vn 0.000000 -0.528076 -0.848877
vn -0.600342 -0.528076 -0.600342
vn -0.600342 -0.528076 -0.600342
vn 0.000000 -0.528076 -0.848877
vn 0.000000 -0.881592 -0.471924
vn -0.600342 -0.528076 -0.600342
vn 0.000000 -0.881592 -0.471924
vn -0.333496 -0.881592 -0.333496
vn 0.000000 0.881592 -0.471924
vn 0.333496 0.881592 -0.333496
vn 0.600342 0.528076 -0.600342
vn 0.000000 0.881592 -0.471924
vn 0.600342 0.528076 -0.600342
vn 0.000000 0.528076 -0.848877
vn 0.000000 0.528076 -0.848877
vn 0.600342 0.528076 -0.600342
vn 0.707031 0.000000 -0.707031
vn 0.000000 0.528076 -0.848877
vn 0.707031 0.000000 -0.707031
vn 0.000000 0.000000 -1.000000
vn 0.000000 0.000000 -1.000000
vn 0.707031 0.000000 -0.707031
vn 0.600342 -0.528076 -0.600342
vn 0.000000 0.000000 -1.000000
vn 0.600342 -0.528076 -0.600342
vn 0.000000 -0.528076 -0.848877
vn 0.000000 -0.528076 -0.848877
vn 0.600342 -0.528076 -0.600342
vn 0.333496 -0.881592 -0.333496
vn 0.000000 -0.528076 -0.848877
vn 0.333496 -0.881592 -0.333496
vn 0.000000 -0.881592 -0.471924
vn 0.333496 0.881592 -0.333496
vn 0.471924 0.881592 0.000000
vn 0.848877 0.528076 0.000000
vn 0.333496 0.881592 -0.333496
vn 0.848877 0.528076 0.000000
vn 0.600342 0.528076 -0.600342
vn 0.600342 0.528076 -0.600342
vn 0.848877 0.528076 0.000000
vn 1.000000 0.000000 0.000000
vn 0.600342 0.528076 -0.600342
vn 1.000000 0.000000 0.000000
vn 0.707031 0.000000 -0.707031
vn 0.707031 0.000000 -0.707031
vn 1.000000 0.000000 0.000000
vn 0.848877 -0.528076 0.000000
vn 0.707031 0.000000 -0.707031
vn 0.848877 -0.528076 0.000000
vn 0.600342 -0.528076 -0.600342
vn 0.600342 -0.528076 -0.600342
vn 0.848877 -0.528076 0.000000
vn 0.471924 -0.881592 0.000000
vn 0.600342 -0.528076 -0.600342
vn 0.471924 -0.881592 0.000000
vn 0.333496 -0.881592 -0.333496
vn 0.985840 -0.159668 0.047607
vn 0.492920 0.084717 0.865723
vn 0.295654 -0.332275 0.634033
vn 0.985840 -0.159668 0.047607
vn 0.295654 -0.332275 0.634033
vn 0.591553 -0.479004 0.143066
vn 0.492920 -0.404297 -0.770264
vn 0.985840 -0.159668 0.047607
vn 0.591553 -0.479004 0.143066
vn 0.492920 -0.404297 -0.770264
vn 0.591553 -0.479004 0.143066
vn 0.295654 -0.625732 -0.347412
vn 0.492920 0.084717 0.865723
vn -0.492920 0.084717 0.865723
vn -0.295654 -0.332275 0.634033
vn 0.492920 0.084717 0.865723
vn -0.295654 -0.332275 0.634033
vn 0.295654 -0.332275 0.634033
vn -0.492920 0.084717 0.865723
vn -0.985840 -0.159668 0.047607
vn -0.591553 -0.479004 0.143066
vn -0.492920 0.084717 0.865723
vn -0.591553 -0.479004 0.143066
vn -0.295654 -0.332275 0.634033
vn -0.492920 -0.404297 -0.770264
vn 0.492920 -0.404297 -0.770264
vn 0.295654 -0.625732 -0.347412
vn -0.492920 -0.404297 -0.770264
vn 0.295654 -0.625732 -0.347412
vn -0.295654 -0.625732 -0.347412
vn -0.985840 -0.159668 0.047607
vn -0.492920 -0.404297 -0.770264
vn -0.295654 -0.625732 -0.347412
vn -0.985840 -0.159668 0.047607
vn -0.295654 -0.625732 -0.347412
vn -0.591553 -0.479004 0.143066
vn 1.000000 0.000000 0.000000
vn 0.288574 -0.721680 0.416504
vn 0.346191 -0.546387 -0.146240
vn 1.000000 0.000000 0.000000
vn 0.346191 -0.546387 -0.146240
vn 0.599854 -0.199951 -0.346191
vn 0.500000 0.749756 -0.432861
vn 1.000000 0.000000 0.000000
vn 0.599854 -0.199951 -0.346191
vn 0.500000 0.749756 -0.432861
vn 0.599854 -0.199951 -0.346191
vn 0.299805 0.249756 -0.606201
vn 0.288574 -0.721680 0.416504
vn -0.577148 -0.577148 0.333252
vn -0.173096 -0.632813 -0.096191
vn 0.288574 -0.721680 0.416504
vn -0.173096 -0.632813 -0.096191
vn 0.346191 -0.546387 -0.146240
vn -0.577148 -0.577148 0.333252
vn -0.865967 0.144287 -0.083252
vn -0.519531 -0.286377 -0.296387
vn -0.577148 -0.577148 0.333252
vn -0.519531 -0.286377 -0.296387
vn -0.173096 -0.632813 -0.096191
vn -0.288574 0.721680 -0.416504
vn 0.500000 0.749756 -0.432861
vn 0.299805 0.249756 -0.606201
vn -0.288574 0.721680 -0.416504
vn 0.299805 0.249756 -0.606201
vn -0.346191 0.146240 -0.546387
vn -0.865967 0.144287 -0.083252
vn -0.288574 0.721680 -0.416504
vn -0.346191 0.146240 -0.546387
vn -0.865967 0.144287 -0.083252
vn -0.346191 0.146240 -0.546387
vn -0.519531 -0.286377 -0.296387
vn 1.000000 0.000000 0.000000
vn 0.288574 -0.796875 0.243408
vn 0.346191 -0.499268 -0.265381
vn 1.000000 0.000000 0.000000
vn 0.346191 -0.499268 -0.265381
vn 0.599854 -0.116943 -0.382324
vn 0.500000 0.828125 -0.253174
vn 1.000000 0.000000 0.000000
vn 0.599854 -0.116943 -0.382324
vn 0.500000 0.828125 -0.253174
vn 0.599854 -0.116943 -0.382324
vn 0.299805 0.379883 -0.534424
vn 0.288574 -0.796875 0.243408
vn -0.577148 -0.637451 0.194824
vn -0.173096 -0.594971 -0.236328
vn 0.288574 -0.796875 0.243408
vn -0.173096 -0.594971 -0.236328
vn 0.346191 -0.499268 -0.265381
vn -0.577148 -0.637451 0.194824
vn -0.865967 0.159180 -0.048584
vn -0.519531 -0.212402 -0.353271
vn -0.577148 -0.637451 0.194824
vn -0.519531 -0.212402 -0.353271
vn -0.173096 -0.594971 -0.236328
vn -0.288574 0.796875 -0.243408
vn 0.500000 0.828125 -0.253174
vn 0.299805 0.379883 -0.534424
vn -0.288574 0.796875 -0.243408
vn 0.299805 0.379883 -0.534424
vn -0.346191 0.265381 -0.499268
vn -0.865967 0.159180 -0.048584
vn -0.288574 0.796875 -0.243408
vn -0.346191 0.265381 -0.499268
vn -0.865967 0.159180 -0.048584
vn -0.346191 0.265381 -0.499268
vn -0.519531 -0.212402 -0.353271
usemtl Texture
f 1/1/1 2/2/2 3/3/3
f 4/4/4 5/5/5 6/6/6
f 7/7/7 8/8/8 9/9/9
f 10/10/10 11/11/11 12/12/12
f 13/13/13 14/14/14 15/15/15
f 16/16/16 17/17/17 18/18/18
f 19/19/19 20/20/20 21/21/21
f 22/22/22 23/23/23 24/24/24
f 25/25/25 26/26/26 27/27/27
f 28/28/28 29/29/29 30/30/30
f 31/31/31 32/32/32 33/33/33
f 34/34/34 35/35/35 36/36/36
f 37/37/37 38/38/38 39/39/39
f 40/40/40 41/41/41 42/42/42
f 43/43/43 44/44/44 45/45/45
f 46/46/46 47/47/47 48/48/48
f 49/49/49 50/50/50 51/51/51
f 52/52/52 53/53/53 54/54/54
f 55/55/55 56/56/56 57/57/57
f 58/58/58 59/59/59 60/60/60
f 61/61/61 62/62/62 63/63/63
f 64/64/64 65/65/65 66/66/66
f 67/67/67 68/68/68 69/69/69
f 70/70/70 71/71/71 72/72/72
f 73/73/73 74/74/74 75/75/75
f 76/76/76 77/77/77 78/78/78
f 79/79/79 80/80/80 81/81/81
f 82/82/82 83/83/83 84/84/84
f 85/85/85 86/86/86 87/87/87
f 88/88/88 89/89/89 90/90/90
f 91/91/91 92/92/92 93/93/93
f 94/94/94 95/95/95 96/96/96
f 97/97/97 98/98/98 99/99/99
f 100/100/100 101/101/101 102/102/102
f 103/103/103 104/104/104 105/105/105
f 106/106/106 107/107/107 108/108/108
f 109/109/109 110/110/110 111/111/111
f 112/112/112 113/113/113 114/114/114
f 115/115/115 116/116/116 117/117/117
f 118/118/118 119/119/119 120/120/120
f 121/121/121 122/122/122 123/123/123
f 124/124/124 125/125/125 126/126/126
f 127/127/127 128/128/128 129/129/129
f 130/130/130 131/131/131 132/132/132
f 133/133/133 134/134/134 135/135/135
f 136/136/136 137/137/137 138/138/138
f 139/139/139 140/140/140 141/141/141
f 142/142/142 143/143/143 144/144/144
f 145/145/145 146/146/146 147/147/147
f 148/148/148 149/149/149 150/150/150
f 151/151/151 152/152/152 153/153/153
f 154/154/154 155/155/155 156/156/156
f 157/157/157 158/158/158 159/159/159
f 160/160/160 161/161/161 162/162/162
f 163/163/163 164/164/164 165/165/165
f 166/166/166 167/167/167 168/168/168
f 169/169/169 170/170/170 171/171/171
f 172/172/172 173/173/173 174/174/174
f 175/175/175 176/176/176 177/177/177
f 178/178/178 179/179/179 180/180/180
f 181/181/181 182/182/182 183/183/183
f 184/184/184 185/185/185 186/186/186
f 187/187/187 188/188/188 189/189/189
f 190/190/190 191/191/191 192/192/192
f 193/193/193 194/194/194 195/195/195
f 196/196/196 197/197/197 198/198/198
f 199/199/199 200/200/200 201/201/201
f 202/202/202 203/203/203 204/204/204
f 205/205/205 206/206/206 207/207/207
f 208/208/208 209/209/209 210/210/210
f 211/211/211 212/212/212 213/213/213
f 214/214/214 215/215/215 216/216/216
f 217/217/217 218/218/218 219/219/219
f 220/220/220 221/221/221 222/222/222
f 223/223/223 224/224/224 225/225/225
f 226/226/226 227/227/227 228/228/228
f 229/229/229 230/230/230 231/231/231
f 232/232/232 233/233/233 234/234/234
f 235/235/235 236/236/236 237/237/237
f 238/238/238 239/239/239 240/240/240
f 241/241/241 242/242/242 243/243/243
f 244/244/244 245/245/245 246/246/246
f 247/247/247 248/248/248 249/249/249
f 250/250/250 251/251/251 252/252/252
f 253/253/253 254/254/254 255/255/255
f 256/256/256 257/257/257 258/258/258
f 259/259/259 260/260/260 261/261/261
f 262/262/262 263/263/263 264/264/264
f 265/265/265 266/266/266 267/267/267
f 268/268/268 269/269/269 270/270/270
f 271/271/271 272/272/272 273/273/273
f 274/274/274 275/275/275 276/276/276
f 277/277/277 278/278/278 279/279/279
f 280/280/280 281/281/281 282/282/282
f 283/283/283 284/284/284 285/285/285
f 286/286/286 287/287/287 288/288/288
f 289/289/289 290/290/290 291/291/291
f 292/292/292 293/293/293 294/294/294
f 295/295/295 296/296/296 297/297/297
f 298/298/298 299/299/299 300/300/300
f 301/301/301 302/302/302 303/303/303
f 304/304/304 305/305/305 306/306/306
f 307/307/307 308/308/308 309/309/309
f 310/310/310 311/311/311 312/312/312
f 313/313/313 314/314/314 315/315/315
f 316/316/316 317/317/317 318/318/318
f 319/319/319 320/320/320 321/321/321
f 322/322/322 323/323/323 324/324/324
f 325/325/325 326/326/326 327/327/327
f 328/328/328 329/329/329 330/330/330
f 331/331/331 332/332/332 333/333/333
f 334/334/334 335/335/335 336/336/336
f 337/337/337 338/338/338 339/339/339
f 340/340/340 341/341/341 342/342/342
f 343/343/343 344/344/344 345/345/345
f 346/346/346 347/347/347 348/348/348
f 349/349/349 350/350/350 351/351/351
f 352/352/352 353/353/353 354/354/354
f 355/355/355 356/356/356 357/357/357
f 358/358/358 359/359/359 360/360/360
f 361/361/361 362/362/362 363/363/363
f 364/364/364 365/365/365 366/366/366
f 367/367/367 368/368/368 369/369/369
f 370/370/370 371/371/371 372/372/372
f 373/373/373 374/374/374 375/375/375
f 376/376/376 377/377/377 378/378/378
f 379/379/379 380/380/380 381/381/381
f 382/382/382 383/383/383 384/384/384
f 385/385/385 386/386/386 387/387/387
f 388/388/388 389/389/389 390/390/390
f 391/391/391 392/392/392 393/393/393
f 394/394/394 395/395/395 396/396/396
f 397/397/397 398/398/398 399/399/399
f 400/400/400 401/401/401 402/402/402
f 403/403/403 404/404/404 405/405/405
f 406/406/406 407/407/407 408/408/408
f 409/409/409 410/410/410 411/411/411
f 412/412/412 413/413/413 414/414/414
f 415/415/415 416/416/416 417/417/417
f 418/418/418 419/419/419 420/420/420
f 421/421/421 422/422/422 423/423/423
f 424/424/424 425/425/425 426/426/426
f 427/427/427 428/428/428 429/429/429
f 430/430/430 431/431/431 432/432/432
f 433/433/433 434/434/434 435/435/435
f 436/436/436 437/437/437 438/438/438
f 439/439/439 440/440/440 441/441/441
f 442/442/442 443/443/443 444/444/444
f 445/445/445 446/446/446 447/447/447
f 448/448/448 449/449/449 450/450/450
f 451/451/451 452/452/452 453/453/453
f 454/454/454 455/455/455 456/456/456
f 457/457/457 458/458/458 459/459/459
f 460/460/460 461/461/461 462/462/462
f 463/463/463 464/464/464 465/465/465
f 466/466/466 467/467/467 468/468/468
f 469/469/469 470/470/470 471/471/471
f 472/472/472 473/473/473 474/474/474
f 475/475/475 476/476/476 477/477/477
f 478/478/478 479/479/479 480/480/480
f 481/481/481 482/482/482 483/483/483
f 484/484/484 485/485/485 486/486/486
f 487/487/487 488/488/488 489/489/489
f 490/490/490 491/491/491 492/492/492
f 493/493/493 494/494/494 495/495/495
f 496/496/496 497/497/497 498/498/498
f 499/499/499 500/500/500 501/501/501
f 502/502/502 503/503/503 504/504/504
f 505/505/505 506/506/506 507/507/507
f 508/508/508 509/509/509 510/510/510
f 511/511/511 512/512/512 513/513/513
f 514/514/514 515/515/515 516/516/516
f 517/517/517 518/518/518 519/519/519
f 520/520/520 521/521/521 522/522/522
f 523/523/523 524/524/524 525/525/525
f 526/526/526 527/527/527 528/528/528
f 529/529/529 530/530/530 531/531/531
f 532/532/532 533/533/533 534/534/534
f 535/535/535 536/536/536 537/537/537
f 538/538/538 539/539/539 540/540/540
f 541/541/541 542/542/542 543/543/543
f 544/544/544 545/545/545 546/546/546
f 547/547/547 548/548/548 549/549/549
f 550/550/550 551/551/551 552/552/552
f 553/553/553 554/554/554 555/555/555
f 556/556/556 557/557/557 558/558/558
f 559/559/559 560/560/560 561/561/561
f 562/562/562 563/563/563 564/564/564
f 565/565/565 566/566/566 567/567/567
f 568/568/568 569/569/569 570/570/570
f 571/571/571 572/572/572 573/573/573
f 574/574/574 575/575/575 576/576/576
f 577/577/577 578/578/578 579/579/579
f 580/580/580 581/581/581 582/582/582
f 583/583/583 584/584/584 585/585/585
f 586/586/586 587/587/587 588/588/588
f 589/589/589 590/590/590 591/591/591
f 592/592/592 593/593/593 594/594/594
f 595/595/595 596/596/596 597/597/597
f 598/598/598 599/599/599 600/600/600
f 601/601/601 602/602/602 603/603/603
f 604/604/604 605/605/605 606/606/606
f 607/607/607 608/608/608 609/609/609
f 610/610/610 611/611/611 612/612/612
f 613/613/613 614/614/614 615/615/615
f 616/616/616 617/617/617 618/618/618
f 619/619/619 620/620/620 621/621/621
f 622/622/622 623/623/623 624/624/624
f 625/625/625 626/626/626 627/627/627
f 628/628/628 629/629/629 630/630/630
f 631/631/631 632/632/632 633/633/633
f 634/634/634 635/635/635 636/636/636
f 637/637/637 638/638/638 639/639/639
f 640/640/640 641/641/641 642/642/642
f 643/643/643 644/644/644 645/645/645
f 646/646/646 647/647/647 648/648/648
f 649/649/649 650/650/650 651/651/651
f 652/652/652 653/653/653 654/654/654
f 655/655/655 656/656/656 657/657/657
f 658/658/658 659/659/659 660/660/660
f 661/661/661 662/662/662 663/663/663
f 664/664/664 665/665/665 666/666/666
f 667/667/667 668/668/668 669/669/669
f 670/670/670 671/671/671 672/672/672
f 673/673/673 674/674/674 675/675/675
f 676/676/676 677/677/677 678/678/678
f 679/679/679 680/680/680 681/681/681
f 682/682/682 683/683/683 684/684/684
f 685/685/685 686/686/686 687/687/687
f 688/688/688 689/689/689 690/690/690
f 691/691/691 692/692/692 693/693/693
f 694/694/694 695/695/695 696/696/696