# OBJ file
mtllib icon1.ico.mtl
v 1.423584 4.851074 0.000000 0.501961 0.501961 0.501961 #0.000000
v 1.423584 -0.023682 0.000000 0.501961 0.501961 0.501961 #0.000000
v -1.423584 4.851074 0.000000 0.501961 0.501961 0.501961 #0.000000
v 1.423584 -0.023682 0.000000 0.501961 0.501961 0.501961 #0.000000
v -1.423584 -0.023682 0.000000 0.501961 0.501961 0.501961 #0.000000
v -1.423584 4.851074 0.000000 0.501961 0.501961 0.501961 #0.000000
v -1.423584 4.851074 0.000000 0.501961 0.501961 0.501961 #0.000000
v -1.423584 -0.023682 0.000000 0.501961 0.501961 0.501961 #0.000000
v 1.423584 4.851074 0.000000 0.501961 0.501961 0.501961 #0.000000
v -1.423584 -0.023682 0.000000 0.501961 0.501961 0.501961 #0.000000
v 1.423584 -0.023682 0.000000 0.501961 0.501961 0.501961 #0.000000
v 1.423584 4.851074 0.000000 0.501961 0.501961 0.501961 #0.000000
vt 0.009766 0.009766 0.000000
vt 0.009766 0.989746 0.000000
vt 0.989746 0.009766 0.000000
vt 0.009766 0.989746 0.000000
vt 0.989746 0.989746 0.000000
vt 0.989746 0.009766 0.000000
vt 0.009766 0.009766 0.000000
vt 0.009766 0.989746 0.000000
vt 0.989746 0.009766 0.000000
vt 0.009766 0.989746 0.000000
vt 0.989746 0.989746 0.000000
vt 0.989746 0.009766 0.000000
vn 0.000000 0.000000 -1.000000
vn 0.000000 0.000000 -1.000000
vn 0.000000 0.000000 -1.000000
vn 0.000000 0.000000 -1.000000
vn 0.000000 0.000000 -1.000000
vn 0.000000 0.000000 -1.000000
vn 0.000000 0.000000 1.000000
vn 0.000000 0.000000 1.000000
vn 0.000000 0.000000 1.000000
vn 0.000000 0.000000 1.000000
vn 0.000000 0.000000 1.000000
vn 0.000000 0.000000 1.000000
usemtl Texture
f 1/1/1 2/2/2 3/3/3
f 4/4/4 5/5/5 6/6/6
f 7/7/7 8/8/8 9/9/9
f 10/10/10 11/11/11 12/12/12