# OBJ file
mtllib gtb.ico.mtl
v -0.836670 1.447754 -0.074951 0.239216 0.239216 0.211765 #0.501961
v -0.836670 1.135498 -0.091309 0.239216 0.239216 0.211765 #0.501961
v -0.931885 1.651855 0.339844 0.239216 0.239216 0.211765 #0.501961
v -0.931885 1.651855 0.339844 0.239216 0.239216 0.211765 #0.501961
v -0.836670 1.135498 -0.091309 0.239216 0.239216 0.211765 #0.501961
v -0.949951 1.397461 0.752441 0.239216 0.239216 0.211765 #0.501961
v 0.836670 1.447754 -0.074951 0.239216 0.239216 0.211765 #0.501961
v 0.919434 1.651855 0.339844 0.239216 0.239216 0.211765 #0.501961
v 0.836670 1.135498 -0.091309 0.239216 0.239216 0.211765 #0.501961
v 0.836670 1.135498 -0.091309 0.239216 0.239216 0.211765 #0.501961
v 0.919434 1.651855 0.339844 0.239216 0.239216 0.211765 #0.501961
v 0.949951 1.397461 0.752441 0.239216 0.239216 0.211765 #0.501961
v -0.659912 0.979248 -0.535156 0.239216 0.239216 0.211765 #0.501961
v -0.659912 0.553467 -0.535156 0.239216 0.239216 0.211765 #0.501961
v -0.758057 0.553467 -0.338623 0.239216 0.239216 0.211765 #0.501961
v -0.758057 0.553467 -0.338623 0.239216 0.239216 0.211765 #0.501961
v -0.758057 0.995605 -0.338623 0.239216 0.239216 0.211765 #0.501961
v -0.659912 0.979248 -0.535156 0.239216 0.239216 0.211765 #0.501961
v -0.758057 0.995605 -0.338623 0.239216 0.239216 0.211765 #0.501961
v -0.508789 1.077637 -0.338623 0.239216 0.239216 0.211765 #0.501961
v -0.659912 0.979248 -0.535156 0.239216 0.239216 0.211765 #0.501961
v -0.659912 0.979248 -0.535156 0.239216 0.239216 0.211765 #0.501961
v -0.508789 1.077637 -0.338623 0.239216 0.239216 0.211765 #0.501961
v -0.443115 1.061279 -0.616943 0.239216 0.239216 0.211765 #0.501961
v 0.508789 1.077637 -0.338623 0.239216 0.239216 0.211765 #0.501961
v 0.758057 0.995605 -0.338623 0.239216 0.239216 0.211765 #0.501961
v 0.659912 0.979248 -0.535156 0.239216 0.239216 0.211765 #0.501961
v 0.758057 0.995605 -0.338623 0.239216 0.239216 0.211765 #0.501961
v 0.758057 0.553467 -0.338623 0.239216 0.239216 0.211765 #0.501961
v 0.659912 0.979248 -0.535156 0.239216 0.239216 0.211765 #0.501961
v 0.659912 0.979248 -0.535156 0.239216 0.239216 0.211765 #0.501961
v 0.758057 0.553467 -0.338623 0.239216 0.239216 0.211765 #0.501961
v 0.659912 0.553467 -0.535156 0.239216 0.239216 0.211765 #0.501961
v 0.508789 1.077637 -0.338623 0.239216 0.239216 0.211765 #0.501961
v 0.659912 0.979248 -0.535156 0.239216 0.239216 0.211765 #0.501961
v 0.443115 1.061279 -0.616943 0.239216 0.239216 0.211765 #0.501961
v 0.000000 1.097656 -0.994873 0.239216 0.239216 0.211765 #0.501961
v 0.000000 0.770264 -1.120850 0.239216 0.239216 0.211765 #0.501961
v -0.553955 0.820557 -0.125732 0.239216 0.239216 0.211765 #0.501961
v 0.553955 0.820557 -0.125732 0.239216 0.239216 0.211765 #0.501961
v 0.000000 0.770264 -1.120850 0.239216 0.239216 0.211765 #0.501961
v 0.000000 1.097656 -0.994873 0.239216 0.239216 0.211765 #0.501961
v 0.949951 1.397461 0.752441 0.239216 0.239216 0.211765 #0.501961
v -0.937256 0.835693 0.739990 0.239216 0.239216 0.211765 #0.501961
v 0.937256 0.835693 0.739990 0.239216 0.239216 0.211765 #0.501961
v 0.836670 1.447754 -0.074951 0.239216 0.239216 0.211765 #0.501961
v -0.836670 1.447754 -0.074951 0.239216 0.239216 0.211765 #0.501961
v 0.919434 1.651855 0.339844 0.239216 0.239216 0.211765 #0.501961
v -0.836670 1.447754 -0.074951 0.239216 0.239216 0.211765 #0.501961
v -0.931885 1.651855 0.339844 0.239216 0.239216 0.211765 #0.501961
v 0.919434 1.651855 0.339844 0.239216 0.239216 0.211765 #0.501961
v 0.919434 1.651855 0.339844 0.239216 0.239216 0.211765 #0.501961
v -0.931885 1.651855 0.339844 0.239216 0.239216 0.211765 #0.501961
v 0.949951 1.397461 0.752441 0.239216 0.239216 0.211765 #0.501961
v -0.931885 1.651855 0.339844 0.239216 0.239216 0.211765 #0.501961
v -0.949951 1.397461 0.752441 0.239216 0.239216 0.211765 #0.501961
v 0.949951 1.397461 0.752441 0.239216 0.239216 0.211765 #0.501961
v 0.949951 1.397461 0.752441 0.239216 0.239216 0.211765 #0.501961
v -0.949951 1.397461 0.752441 0.239216 0.239216 0.211765 #0.501961
v -0.937256 0.835693 0.739990 0.239216 0.239216 0.211765 #0.501961
v -0.239258 2.004639 -1.095703 0.239216 0.239216 0.211765 #0.501961
v -0.311035 2.403809 -0.518799 0.239216 0.239216 0.211765 #0.501961
v 0.311035 2.403809 -0.518799 0.239216 0.239216 0.211765 #0.501961
v -0.311035 2.403809 -0.518799 0.239216 0.239216 0.211765 #0.501961
v -0.311035 2.534668 -0.093018 0.239216 0.239216 0.211765 #0.501961
v 0.311035 2.403809 -0.518799 0.239216 0.239216 0.211765 #0.501961
v 0.311035 2.403809 -0.518799 0.239216 0.239216 0.211765 #0.501961
v -0.311035 2.534668 -0.093018 0.239216 0.239216 0.211765 #0.501961
v 0.311035 2.534668 -0.093018 0.239216 0.239216 0.211765 #0.501961
v 0.311035 2.403809 -0.518799 0.239216 0.239216 0.211765 #0.501961
v 0.239258 2.004639 -1.095703 0.239216 0.239216 0.211765 #0.501961
v -0.239258 2.004639 -1.095703 0.239216 0.239216 0.211765 #0.501961
v 0.588135 1.442871 -0.075439 0.196078 0.431373 0.705882 #0.501961
v 0.553955 0.820557 -0.125732 0.196078 0.431373 0.705882 #0.501961
v 0.397949 1.355957 -0.748047 0.196078 0.431373 0.705882 #0.501961
v 0.553955 0.820557 -0.125732 0.196078 0.431373 0.705882 #0.501961
v 0.000000 1.097656 -0.994873 0.196078 0.431373 0.705882 #0.501961
v 0.397949 1.355957 -0.748047 0.196078 0.431373 0.705882 #0.501961
v 0.397949 1.355957 -0.748047 0.196078 0.431373 0.705882 #0.501961
v 0.000000 1.097656 -0.994873 0.196078 0.431373 0.705882 #0.501961
v -0.397949 1.355957 -0.748047 0.196078 0.431373 0.705882 #0.501961
v 0.000000 1.097656 -0.994873 0.196078 0.431373 0.705882 #0.501961
v -0.553955 0.820557 -0.125732 0.196078 0.431373 0.705882 #0.501961
v -0.397949 1.355957 -0.748047 0.196078 0.431373 0.705882 #0.501961
v -0.397949 1.355957 -0.748047 0.196078 0.431373 0.705882 #0.501961
v -0.553955 0.820557 -0.125732 0.196078 0.431373 0.705882 #0.501961
v -0.588135 1.442871 -0.075439 0.196078 0.431373 0.705882 #0.501961
v 0.201416 1.727539 1.271973 0.196078 0.431373 0.705882 #0.501961
v 0.226562 1.399902 1.045166 0.196078 0.431373 0.705882 #0.501961
v 0.289551 1.727539 0.692627 0.196078 0.431373 0.705882 #0.501961
v 0.289551 1.727539 0.692627 0.196078 0.431373 0.705882 #0.501961
v 0.188721 2.546143 1.171143 0.196078 0.431373 0.705882 #0.501961
v 0.201416 1.727539 1.271973 0.196078 0.431373 0.705882 #0.501961
v 0.188721 2.546143 1.171143 0.196078 0.431373 0.705882 #0.501961
v -0.188721 2.546143 1.171143 0.196078 0.431373 0.705882 #0.501961
v 0.201416 1.727539 1.271973 0.196078 0.431373 0.705882 #0.501961
v 0.201416 1.727539 1.271973 0.196078 0.431373 0.705882 #0.501961
v -0.188721 2.546143 1.171143 0.196078 0.431373 0.705882 #0.501961
v -0.201416 1.727539 1.271973 0.196078 0.431373 0.705882 #0.501961
v -0.226562 1.399902 1.045166 0.196078 0.431373 0.705882 #0.501961
v -0.201416 1.727539 1.271973 0.196078 0.431373 0.705882 #0.501961
v -0.289551 1.727539 0.692627 0.196078 0.431373 0.705882 #0.501961
v -0.201416 1.727539 1.271973 0.196078 0.431373 0.705882 #0.501961
v -0.188721 2.546143 1.171143 0.196078 0.431373 0.705882 #0.501961
v -0.289551 1.727539 0.692627 0.196078 0.431373 0.705882 #0.501961
v -0.289551 1.727539 0.692627 0.196078 0.431373 0.705882 #0.501961
v -0.188721 2.546143 1.171143 0.196078 0.431373 0.705882 #0.501961
v -0.188721 2.987061 0.528809 0.196078 0.431373 0.705882 #0.501961
v -0.188721 2.546143 1.171143 0.196078 0.431373 0.705882 #0.501961
v 0.188721 2.546143 1.171143 0.196078 0.431373 0.705882 #0.501961
v -0.188721 2.987061 0.528809 0.196078 0.431373 0.705882 #0.501961
v -0.188721 2.987061 0.528809 0.196078 0.431373 0.705882 #0.501961
v 0.188721 2.546143 1.171143 0.196078 0.431373 0.705882 #0.501961
v 0.188721 2.987061 0.528809 0.196078 0.431373 0.705882 #0.501961
v 0.188721 2.546143 1.171143 0.196078 0.431373 0.705882 #0.501961
v 0.289551 1.727539 0.692627 0.196078 0.431373 0.705882 #0.501961
v 0.188721 2.987061 0.528809 0.196078 0.431373 0.705882 #0.501961
v -0.392822 2.256348 -0.076660 0.196078 0.431373 0.705882 #0.501961
v -0.392822 2.256348 0.643555 0.196078 0.431373 0.705882 #0.501961
v -0.267578 3.058838 0.528809 0.196078 0.431373 0.705882 #0.501961
v -0.294678 2.322021 0.004883 0.196078 0.431373 0.705882 #0.501961
v -0.179932 3.025879 0.004883 0.196078 0.431373 0.705882 #0.501961
v -0.260498 2.352783 -0.469727 0.196078 0.431373 0.705882 #0.501961
v -0.260498 2.352783 -0.469727 0.196078 0.431373 0.705882 #0.501961
v -0.179932 3.025879 0.004883 0.196078 0.431373 0.705882 #0.501961
v -0.131592 2.961670 -0.666260 0.196078 0.431373 0.705882 #0.501961
v -0.179932 3.025879 0.004883 0.196078 0.431373 0.705882 #0.501961
v 0.179932 3.025879 0.004883 0.196078 0.431373 0.705882 #0.501961
v -0.131592 2.961670 -0.666260 0.196078 0.431373 0.705882 #0.501961
v -0.131592 2.961670 -0.666260 0.196078 0.431373 0.705882 #0.501961
v 0.179932 3.025879 0.004883 0.196078 0.431373 0.705882 #0.501961
v 0.131592 2.961670 -0.666260 0.196078 0.431373 0.705882 #0.501961
v 0.179932 3.025879 0.004883 0.196078 0.431373 0.705882 #0.501961
v 0.260498 2.352783 -0.469727 0.196078 0.431373 0.705882 #0.501961
v 0.131592 2.961670 -0.666260 0.196078 0.431373 0.705882 #0.501961
v 0.392822 2.256348 0.643555 0.196078 0.431373 0.705882 #0.501961
v 0.392822 2.256348 -0.076660 0.196078 0.431373 0.705882 #0.501961
v 0.267578 3.058838 0.528809 0.196078 0.431373 0.705882 #0.501961
v 0.392822 2.256348 -0.076660 0.196078 0.431373 0.705882 #0.501961
v 0.261963 3.091553 -0.043945 0.196078 0.431373 0.705882 #0.501961
v 0.267578 3.058838 0.528809 0.196078 0.431373 0.705882 #0.501961
v 0.267578 3.058838 0.528809 0.196078 0.431373 0.705882 #0.501961
v 0.261963 3.091553 -0.043945 0.196078 0.431373 0.705882 #0.501961
v -0.267578 3.058838 0.528809 0.196078 0.431373 0.705882 #0.501961
v 0.261963 3.091553 -0.043945 0.196078 0.431373 0.705882 #0.501961
v -0.261963 3.091553 -0.043945 0.196078 0.431373 0.705882 #0.501961
v -0.267578 3.058838 0.528809 0.196078 0.431373 0.705882 #0.501961
v -0.267578 3.058838 0.528809 0.196078 0.431373 0.705882 #0.501961
v -0.261963 3.091553 -0.043945 0.196078 0.431373 0.705882 #0.501961
v -0.392822 2.256348 -0.076660 0.196078 0.431373 0.705882 #0.501961
v 0.179932 3.025879 0.004883 0.196078 0.431373 0.705882 #0.501961
v 0.294678 2.322021 0.004883 0.196078 0.431373 0.705882 #0.501961
v 0.260498 2.352783 -0.469727 0.196078 0.431373 0.705882 #0.501961
v -0.264404 0.719727 0.957031 0.196078 0.431373 0.705882 #0.501961
v -0.553955 1.576416 0.868896 0.196078 0.431373 0.705882 #0.501961
v -0.503662 0.682129 0.793457 0.196078 0.431373 0.705882 #0.501961
v -0.553955 1.576416 0.868896 0.196078 0.431373 0.705882 #0.501961
v -0.717773 1.551025 0.503662 0.196078 0.431373 0.705882 #0.501961
v -0.503662 0.682129 0.793457 0.196078 0.431373 0.705882 #0.501961
v -0.503662 0.682129 0.793457 0.196078 0.431373 0.705882 #0.501961
v -0.717773 1.551025 0.503662 0.196078 0.431373 0.705882 #0.501961
v -0.604492 0.556152 0.528809 0.196078 0.431373 0.705882 #0.501961
v -0.642334 2.155762 0.037598 0.196078 0.431373 0.705882 #0.501961
v -0.717773 1.450439 -0.075439 0.196078 0.431373 0.705882 #0.501961
v -0.717773 1.551025 0.503662 0.196078 0.431373 0.705882 #0.501961
v 0.642334 2.155762 0.037598 0.196078 0.431373 0.705882 #0.501961
v 0.616943 2.130371 0.528809 0.196078 0.431373 0.705882 #0.501961
v 0.717773 1.551025 0.503662 0.196078 0.431373 0.705882 #0.501961
v 0.616943 2.130371 0.528809 0.196078 0.431373 0.705882 #0.501961
v 0.591797 2.004639 0.755615 0.196078 0.431373 0.705882 #0.501961
v 0.717773 1.551025 0.503662 0.196078 0.431373 0.705882 #0.501961
v 0.717773 1.551025 0.503662 0.196078 0.431373 0.705882 #0.501961
v 0.591797 2.004639 0.755615 0.196078 0.431373 0.705882 #0.501961
v 0.553955 1.576416 0.868896 0.196078 0.431373 0.705882 #0.501961
v 0.717773 1.551025 0.503662 0.196078 0.431373 0.705882 #0.501961
v 0.717773 1.450439 -0.075439 0.196078 0.431373 0.705882 #0.501961
v 0.642334 2.155762 0.037598 0.196078 0.431373 0.705882 #0.501961
v -0.214111 2.369873 -0.050293 0.196078 0.431373 0.705882 #0.501961
v -0.642334 2.155762 0.037598 0.196078 0.431373 0.705882 #0.501961
v -0.214111 2.357178 0.528809 0.196078 0.431373 0.705882 #0.501961
v -0.214111 2.357178 0.528809 0.196078 0.431373 0.705882 #0.501961
v -0.642334 2.155762 0.037598 0.196078 0.431373 0.705882 #0.501961
v -0.616943 2.130371 0.528809 0.196078 0.431373 0.705882 #0.501961
v -0.642334 2.155762 0.037598 0.196078 0.431373 0.705882 #0.501961
v -0.717773 1.551025 0.503662 0.196078 0.431373 0.705882 #0.501961
v -0.616943 2.130371 0.528809 0.196078 0.431373 0.705882 #0.501961
v -0.616943 2.130371 0.528809 0.196078 0.431373 0.705882 #0.501961
v -0.717773 1.551025 0.503662 0.196078 0.431373 0.705882 #0.501961
v -0.591797 2.004639 0.755615 0.196078 0.431373 0.705882 #0.501961
v -0.717773 1.551025 0.503662 0.196078 0.431373 0.705882 #0.501961
v -0.553955 1.576416 0.868896 0.196078 0.431373 0.705882 #0.501961
v -0.591797 2.004639 0.755615 0.196078 0.431373 0.705882 #0.501961
v -0.591797 2.004639 0.755615 0.196078 0.431373 0.705882 #0.501961
v -0.553955 1.576416 0.868896 0.196078 0.431373 0.705882 #0.501961
v -0.226562 1.576416 1.070557 0.196078 0.431373 0.705882 #0.501961
v -0.553955 1.576416 0.868896 0.196078 0.431373 0.705882 #0.501961
v -0.264404 0.719727 0.957031 0.196078 0.431373 0.705882 #0.501961
v -0.226562 1.576416 1.070557 0.196078 0.431373 0.705882 #0.501961
v -0.226562 1.576416 1.070557 0.196078 0.431373 0.705882 #0.501961
v -0.264404 0.719727 0.957031 0.196078 0.431373 0.705882 #0.501961
v 0.226562 1.576416 1.070557 0.196078 0.431373 0.705882 #0.501961
v -0.264404 0.719727 0.957031 0.196078 0.431373 0.705882 #0.501961
v 0.264404 0.719727 0.957031 0.196078 0.431373 0.705882 #0.501961
v 0.226562 1.576416 1.070557 0.196078 0.431373 0.705882 #0.501961
v 0.226562 1.576416 1.070557 0.196078 0.431373 0.705882 #0.501961
v 0.264404 0.719727 0.957031 0.196078 0.431373 0.705882 #0.501961
v 0.553955 1.576416 0.868896 0.196078 0.431373 0.705882 #0.501961
v 0.264404 0.719727 0.957031 0.196078 0.431373 0.705882 #0.501961
v 0.503662 0.682129 0.793457 0.196078 0.431373 0.705882 #0.501961
v 0.553955 1.576416 0.868896 0.196078 0.431373 0.705882 #0.501961
v 0.553955 1.576416 0.868896 0.196078 0.431373 0.705882 #0.501961
v 0.503662 0.682129 0.793457 0.196078 0.431373 0.705882 #0.501961
v 0.717773 1.551025 0.503662 0.196078 0.431373 0.705882 #0.501961
v 0.503662 0.682129 0.793457 0.196078 0.431373 0.705882 #0.501961
v 0.604492 0.556152 0.528809 0.196078 0.431373 0.705882 #0.501961
v 0.717773 1.551025 0.503662 0.196078 0.431373 0.705882 #0.501961
v 0.553955 1.576416 0.868896 0.196078 0.431373 0.705882 #0.501961
v 0.591797 2.004639 0.755615 0.196078 0.431373 0.705882 #0.501961
v 0.226562 1.576416 1.070557 0.196078 0.431373 0.705882 #0.501961
v 0.226562 1.576416 1.070557 0.196078 0.431373 0.705882 #0.501961
v 0.591797 2.004639 0.755615 0.196078 0.431373 0.705882 #0.501961
v 0.226562 2.180908 0.931885 0.196078 0.431373 0.705882 #0.501961
v 0.591797 2.004639 0.755615 0.196078 0.431373 0.705882 #0.501961
v 0.616943 2.130371 0.528809 0.196078 0.431373 0.705882 #0.501961
v 0.226562 2.180908 0.931885 0.196078 0.431373 0.705882 #0.501961
v 0.226562 2.180908 0.931885 0.196078 0.431373 0.705882 #0.501961
v 0.616943 2.130371 0.528809 0.196078 0.431373 0.705882 #0.501961
v 0.214111 2.357178 0.528809 0.196078 0.431373 0.705882 #0.501961
v 0.616943 2.130371 0.528809 0.196078 0.431373 0.705882 #0.501961
v 0.642334 2.155762 0.037598 0.196078 0.431373 0.705882 #0.501961
v 0.214111 2.357178 0.528809 0.196078 0.431373 0.705882 #0.501961
v 0.214111 2.357178 0.528809 0.196078 0.431373 0.705882 #0.501961
v 0.642334 2.155762 0.037598 0.196078 0.431373 0.705882 #0.501961
v 0.214111 2.369873 -0.050293 0.196078 0.431373 0.705882 #0.501961
v -0.226562 1.576416 1.070557 0.196078 0.431373 0.705882 #0.501961
v -0.226562 2.180908 0.931885 0.196078 0.431373 0.705882 #0.501961
v -0.591797 2.004639 0.755615 0.196078 0.431373 0.705882 #0.501961
v -0.591797 2.004639 0.755615 0.196078 0.431373 0.705882 #0.501961
v -0.226562 2.180908 0.931885 0.196078 0.431373 0.705882 #0.501961
v -0.616943 2.130371 0.528809 0.196078 0.431373 0.705882 #0.501961
v -0.226562 2.180908 0.931885 0.196078 0.431373 0.705882 #0.501961
v -0.214111 2.357178 0.528809 0.196078 0.431373 0.705882 #0.501961
v -0.616943 2.130371 0.528809 0.196078 0.431373 0.705882 #0.501961
v -0.311035 2.403809 -0.518799 0.196078 0.431373 0.705882 #0.501961
v -0.239258 2.004639 -1.095703 0.196078 0.431373 0.705882 #0.501961
v -0.605713 2.158203 -0.437012 0.196078 0.431373 0.705882 #0.501961
v -0.605713 2.158203 -0.437012 0.196078 0.431373 0.705882 #0.501961
v -0.239258 2.004639 -1.095703 0.196078 0.431373 0.705882 #0.501961
v -0.785889 1.601562 -0.289551 0.196078 0.431373 0.705882 #0.501961
v 0.311035 2.403809 -0.518799 0.196078 0.431373 0.705882 #0.501961
v 0.605713 2.158203 -0.437012 0.196078 0.431373 0.705882 #0.501961
v 0.239258 2.004639 -1.095703 0.196078 0.431373 0.705882 #0.501961
v 0.239258 2.004639 -1.095703 0.196078 0.431373 0.705882 #0.501961
v 0.605713 2.158203 -0.437012 0.196078 0.431373 0.705882 #0.501961
v 0.785889 1.601562 -0.289551 0.196078 0.431373 0.705882 #0.501961
v -0.834961 1.405029 -0.060303 0.196078 0.431373 0.705882 #0.501961
v -0.851318 1.699707 0.234131 0.196078 0.431373 0.705882 #0.501961
v -0.785889 1.601562 -0.289551 0.196078 0.431373 0.705882 #0.501961
v -0.785889 1.601562 -0.289551 0.196078 0.431373 0.705882 #0.501961
v -0.851318 1.699707 0.234131 0.196078 0.431373 0.705882 #0.501961
v -0.605713 2.158203 -0.437012 0.196078 0.431373 0.705882 #0.501961
v -0.851318 1.699707 0.234131 0.196078 0.431373 0.705882 #0.501961
v -0.638428 2.289062 0.004883 0.196078 0.431373 0.705882 #0.501961
v -0.605713 2.158203 -0.437012 0.196078 0.431373 0.705882 #0.501961
v -0.605713 2.158203 -0.437012 0.196078 0.431373 0.705882 #0.501961
v -0.638428 2.289062 0.004883 0.196078 0.431373 0.705882 #0.501961
v -0.311035 2.403809 -0.518799 0.196078 0.431373 0.705882 #0.501961
v -0.638428 2.289062 0.004883 0.196078 0.431373 0.705882 #0.501961
v -0.311035 2.534668 -0.093018 0.196078 0.431373 0.705882 #0.501961
v -0.311035 2.403809 -0.518799 0.196078 0.431373 0.705882 #0.501961
v 0.834961 1.405029 -0.060303 0.196078 0.431373 0.705882 #0.501961
v 0.785889 1.601562 -0.289551 0.196078 0.431373 0.705882 #0.501961
v 0.851318 1.699707 0.234131 0.196078 0.431373 0.705882 #0.501961
v 0.785889 1.601562 -0.289551 0.196078 0.431373 0.705882 #0.501961
v 0.605713 2.158203 -0.437012 0.196078 0.431373 0.705882 #0.501961
v 0.851318 1.699707 0.234131 0.196078 0.431373 0.705882 #0.501961
v 0.851318 1.699707 0.234131 0.196078 0.431373 0.705882 #0.501961
v 0.605713 2.158203 -0.437012 0.196078 0.431373 0.705882 #0.501961
v 0.638428 2.289062 0.004883 0.196078 0.431373 0.705882 #0.501961
v 0.605713 2.158203 -0.437012 0.196078 0.431373 0.705882 #0.501961
v 0.311035 2.403809 -0.518799 0.196078 0.431373 0.705882 #0.501961
v 0.638428 2.289062 0.004883 0.196078 0.431373 0.705882 #0.501961
v 0.638428 2.289062 0.004883 0.196078 0.431373 0.705882 #0.501961
v 0.311035 2.403809 -0.518799 0.196078 0.431373 0.705882 #0.501961
v 0.311035 2.534668 -0.093018 0.196078 0.431373 0.705882 #0.501961
v -0.755615 1.034668 -0.377686 0.196078 0.431373 0.705882 #0.501961
v -0.944580 1.399902 0.264404 0.196078 0.431373 0.705882 #0.501961
v -0.390381 1.110352 -0.440674 0.196078 0.431373 0.705882 #0.501961
v -0.390381 1.110352 -0.440674 0.196078 0.431373 0.705882 #0.501961
v -0.944580 1.399902 0.264404 0.196078 0.431373 0.705882 #0.501961
v -0.667480 1.450439 0.251709 0.196078 0.431373 0.705882 #0.501961
v -0.944580 1.399902 0.264404 0.196078 0.431373 0.705882 #0.501961
v -0.692627 1.450439 1.196289 0.196078 0.431373 0.705882 #0.501961
v -0.667480 1.450439 0.251709 0.196078 0.431373 0.705882 #0.501961
v -0.667480 1.450439 0.251709 0.196078 0.431373 0.705882 #0.501961
v -0.692627 1.450439 1.196289 0.196078 0.431373 0.705882 #0.501961
v -0.692627 0.770264 1.196289 0.196078 0.431373 0.705882 #0.501961
v -0.692627 1.450439 1.196289 0.196078 0.431373 0.705882 #0.501961
v -0.969727 1.399902 1.196289 0.196078 0.431373 0.705882 #0.501961
v -0.692627 0.770264 1.196289 0.196078 0.431373 0.705882 #0.501961
v -0.692627 0.770264 1.196289 0.196078 0.431373 0.705882 #0.501961
v -0.969727 1.399902 1.196289 0.196078 0.431373 0.705882 #0.501961
v -0.969727 0.770264 1.196289 0.196078 0.431373 0.705882 #0.501961
v -0.969727 1.399902 1.196289 0.196078 0.431373 0.705882 #0.501961
v -0.944580 1.399902 0.264404 0.196078 0.431373 0.705882 #0.501961
v -0.969727 0.770264 1.196289 0.196078 0.431373 0.705882 #0.501961
v -0.969727 0.770264 1.196289 0.196078 0.431373 0.705882 #0.501961
v -0.944580 1.399902 0.264404 0.196078 0.431373 0.705882 #0.501961
v -0.894043 0.505615 0.025146 0.196078 0.431373 0.705882 #0.501961
v -0.944580 1.399902 0.264404 0.196078 0.431373 0.705882 #0.501961
v -0.755615 1.034668 -0.377686 0.196078 0.431373 0.705882 #0.501961
v -0.894043 0.505615 0.025146 0.196078 0.431373 0.705882 #0.501961
v -0.894043 0.505615 0.025146 0.196078 0.431373 0.705882 #0.501961
v -0.755615 1.034668 -0.377686 0.196078 0.431373 0.705882 #0.501961
v -0.755615 0.505615 -0.377686 0.196078 0.431373 0.705882 #0.501961
v -0.692627 1.450439 1.196289 0.196078 0.431373 0.705882 #0.501961
v -0.944580 1.399902 0.264404 0.196078 0.431373 0.705882 #0.501961
v -0.969727 1.399902 1.196289 0.196078 0.431373 0.705882 #0.501961
v 0.755615 1.034668 -0.377686 0.196078 0.431373 0.705882 #0.501961
v 0.390381 1.110352 -0.440674 0.196078 0.431373 0.705882 #0.501961
v 0.944580 1.399902 0.264404 0.196078 0.431373 0.705882 #0.501961
v 0.390381 1.110352 -0.440674 0.196078 0.431373 0.705882 #0.501961
v 0.667480 1.450439 0.251709 0.196078 0.431373 0.705882 #0.501961
v 0.944580 1.399902 0.264404 0.196078 0.431373 0.705882 #0.501961
v 0.944580 1.399902 0.264404 0.196078 0.431373 0.705882 #0.501961
v 0.667480 1.450439 0.251709 0.196078 0.431373 0.705882 #0.501961
v 0.692627 1.450439 1.196289 0.196078 0.431373 0.705882 #0.501961
v 0.667480 1.450439 0.251709 0.196078 0.431373 0.705882 #0.501961
v 0.692627 0.770264 1.196289 0.196078 0.431373 0.705882 #0.501961
v 0.692627 1.450439 1.196289 0.196078 0.431373 0.705882 #0.501961
v 0.692627 1.450439 1.196289 0.196078 0.431373 0.705882 #0.501961
v 0.692627 0.770264 1.196289 0.196078 0.431373 0.705882 #0.501961
v 0.969727 1.399902 1.196289 0.196078 0.431373 0.705882 #0.501961
v 0.692627 0.770264 1.196289 0.196078 0.431373 0.705882 #0.501961
v 0.969727 0.770264 1.196289 0.196078 0.431373 0.705882 #0.501961
v 0.969727 1.399902 1.196289 0.196078 0.431373 0.705882 #0.501961
v 0.969727 1.399902 1.196289 0.196078 0.431373 0.705882 #0.501961
v 0.969727 0.770264 1.196289 0.196078 0.431373 0.705882 #0.501961
v 0.944580 1.399902 0.264404 0.196078 0.431373 0.705882 #0.501961
v 0.969727 0.770264 1.196289 0.196078 0.431373 0.705882 #0.501961
v 0.894043 0.505615 0.025146 0.196078 0.431373 0.705882 #0.501961
v 0.944580 1.399902 0.264404 0.196078 0.431373 0.705882 #0.501961
v 0.944580 1.399902 0.264404 0.196078 0.431373 0.705882 #0.501961
v 0.894043 0.505615 0.025146 0.196078 0.431373 0.705882 #0.501961
v 0.755615 1.034668 -0.377686 0.196078 0.431373 0.705882 #0.501961
v 0.894043 0.505615 0.025146 0.196078 0.431373 0.705882 #0.501961
v 0.755615 0.505615 -0.377686 0.196078 0.431373 0.705882 #0.501961
v 0.755615 1.034668 -0.377686 0.196078 0.431373 0.705882 #0.501961
v 0.969727 1.399902 1.196289 0.196078 0.431373 0.705882 #0.501961
v 0.944580 1.399902 0.264404 0.196078 0.431373 0.705882 #0.501961
v 0.692627 1.450439 1.196289 0.196078 0.431373 0.705882 #0.501961
v -0.692627 0.770264 1.196289 0.196078 0.431373 0.705882 #0.501961
v -0.579346 0.442871 0.025146 0.196078 0.431373 0.705882 #0.501961
v -0.667480 1.450439 0.251709 0.196078 0.431373 0.705882 #0.501961
v 0.667480 1.450439 0.251709 0.196078 0.431373 0.705882 #0.501961
v 0.579346 0.442871 0.025146 0.196078 0.431373 0.705882 #0.501961
v 0.692627 0.770264 1.196289 0.196078 0.431373 0.705882 #0.501961
v 0.245361 0.815674 -0.977295 0.196078 0.431373 0.705882 #0.501961
v 0.409180 0.881104 -0.715332 0.196078 0.431373 0.705882 #0.501961
v 0.523926 0.553467 -0.125732 0.196078 0.431373 0.705882 #0.501961
v 0.409180 0.881104 -0.715332 0.196078 0.431373 0.705882 #0.501961
v 0.507568 1.241211 -0.420654 0.196078 0.431373 0.705882 #0.501961
v 0.523926 0.553467 -0.125732 0.196078 0.431373 0.705882 #0.501961
v 0.523926 0.553467 -0.125732 0.196078 0.431373 0.705882 #0.501961
v 0.507568 1.241211 -0.420654 0.196078 0.431373 0.705882 #0.501961
v 0.589355 1.273926 -0.125732 0.196078 0.431373 0.705882 #0.501961
v 0.523926 0.553467 -0.125732 0.196078 0.431373 0.705882 #0.501961
v 0.163574 0.389893 -1.337402 0.196078 0.431373 0.705882 #0.501961
v 0.245361 0.815674 -0.977295 0.196078 0.431373 0.705882 #0.501961
v 0.163574 0.389893 -1.337402 0.196078 0.431373 0.705882 #0.501961
v 0.098145 0.668213 -1.432373 0.196078 0.431373 0.705882 #0.501961
v 0.245361 0.815674 -0.977295 0.196078 0.431373 0.705882 #0.501961
v 0.245361 0.815674 -0.977295 0.196078 0.431373 0.705882 #0.501961
v 0.098145 0.668213 -1.432373 0.196078 0.431373 0.705882 #0.501961
v 0.179932 0.930176 -1.170410 0.196078 0.431373 0.705882 #0.501961
v 0.098145 0.668213 -1.432373 0.196078 0.431373 0.705882 #0.501961
v -0.098145 0.668213 -1.432373 0.196078 0.431373 0.705882 #0.501961
v 0.179932 0.930176 -1.170410 0.196078 0.431373 0.705882 #0.501961
v 0.179932 0.930176 -1.170410 0.196078 0.431373 0.705882 #0.501961
v -0.098145 0.668213 -1.432373 0.196078 0.431373 0.705882 #0.501961
v -0.179932 0.930176 -1.170410 0.196078 0.431373 0.705882 #0.501961
v -0.098145 0.668213 -1.432373 0.196078 0.431373 0.705882 #0.501961
v -0.245361 0.815674 -0.977295 0.196078 0.431373 0.705882 #0.501961
v -0.179932 0.930176 -1.170410 0.196078 0.431373 0.705882 #0.501961
v -0.507568 1.241211 -0.420654 0.196078 0.431373 0.705882 #0.501961
v -0.523926 0.553467 -0.125732 0.196078 0.431373 0.705882 #0.501961
v -0.589355 1.273926 -0.125732 0.196078 0.431373 0.705882 #0.501961
v -0.507568 1.241211 -0.420654 0.196078 0.431373 0.705882 #0.501961
v -0.409180 0.881104 -0.715332 0.196078 0.431373 0.705882 #0.501961
v -0.523926 0.553467 -0.125732 0.196078 0.431373 0.705882 #0.501961
v -0.409180 0.881104 -0.715332 0.196078 0.431373 0.705882 #0.501961
v -0.245361 0.815674 -0.977295 0.196078 0.431373 0.705882 #0.501961
v -0.523926 0.553467 -0.125732 0.196078 0.431373 0.705882 #0.501961
v -0.523926 0.553467 -0.125732 0.196078 0.431373 0.705882 #0.501961
v -0.245361 0.815674 -0.977295 0.196078 0.431373 0.705882 #0.501961
v -0.163574 0.389893 -1.337402 0.196078 0.431373 0.705882 #0.501961
v -0.245361 0.815674 -0.977295 0.196078 0.431373 0.705882 #0.501961
v -0.098145 0.668213 -1.432373 0.196078 0.431373 0.705882 #0.501961
v -0.163574 0.389893 -1.337402 0.196078 0.431373 0.705882 #0.501961
v 0.131592 2.961670 -0.666260 0.976471 0.309804 0.023529 #0.501961
v 0.260498 2.352783 -0.469727 0.976471 0.309804 0.023529 #0.501961
v -0.131592 2.961670 -0.666260 0.976471 0.309804 0.023529 #0.501961
v -0.131592 2.961670 -0.666260 0.976471 0.309804 0.023529 #0.501961
v 0.260498 2.352783 -0.469727 0.976471 0.309804 0.023529 #0.501961
v -0.260498 2.352783 -0.469727 0.976471 0.309804 0.023529 #0.501961
v -0.226562 1.399902 1.045166 0.976471 0.309804 0.023529 #0.501961
v 0.226562 1.399902 1.045166 0.976471 0.309804 0.023529 #0.501961
v -0.201416 1.727539 1.271973 0.976471 0.309804 0.023529 #0.501961
v -0.201416 1.727539 1.271973 0.976471 0.309804 0.023529 #0.501961
v 0.226562 1.399902 1.045166 0.976471 0.309804 0.023529 #0.501961
v 0.201416 1.727539 1.271973 0.976471 0.309804 0.023529 #0.501961
v -0.443115 0.504395 -0.616943 0.239216 0.239216 0.211765 #0.501961
v -0.659912 0.553467 -0.535156 0.239216 0.239216 0.211765 #0.501961
v -0.443115 1.061279 -0.616943 0.239216 0.239216 0.211765 #0.501961
v -0.443115 1.061279 -0.616943 0.239216 0.239216 0.211765 #0.501961
v -0.659912 0.553467 -0.535156 0.239216 0.239216 0.211765 #0.501961
v -0.659912 0.979248 -0.535156 0.239216 0.239216 0.211765 #0.501961
v 0.659912 0.979248 -0.535156 0.239216 0.239216 0.211765 #0.501961
v 0.659912 0.553467 -0.535156 0.239216 0.239216 0.211765 #0.501961
v 0.443115 1.061279 -0.616943 0.239216 0.239216 0.211765 #0.501961
v 0.443115 1.061279 -0.616943 0.239216 0.239216 0.211765 #0.501961
v 0.659912 0.553467 -0.535156 0.239216 0.239216 0.211765 #0.501961
v 0.443115 0.504395 -0.616943 0.239216 0.239216 0.211765 #0.501961
v 0.098145 0.668213 -1.432373 0.239216 0.239216 0.211765 #0.501961
v 0.163574 0.389893 -1.337402 0.239216 0.239216 0.211765 #0.501961
v -0.098145 0.668213 -1.432373 0.239216 0.239216 0.211765 #0.501961
v -0.098145 0.668213 -1.432373 0.239216 0.239216 0.211765 #0.501961
v 0.163574 0.389893 -1.337402 0.239216 0.239216 0.211765 #0.501961
v -0.163574 0.389893 -1.337402 0.239216 0.239216 0.211765 #0.501961
v 0.673340 1.395264 -0.783447 0.305882 0.384314 0.694118 #0.501961
v 0.403564 1.208252 -1.502441 0.305882 0.384314 0.694118 #0.501961
v 0.406982 1.587646 -1.640625 0.305882 0.384314 0.694118 #0.501961
v 0.403564 1.208252 -1.502441 0.305882 0.384314 0.694118 #0.501961
v -0.403564 1.208252 -1.502441 0.305882 0.384314 0.694118 #0.501961
v 0.406982 1.587646 -1.640625 0.305882 0.384314 0.694118 #0.501961
v 0.406982 1.587646 -1.640625 0.305882 0.384314 0.694118 #0.501961
v -0.403564 1.208252 -1.502441 0.305882 0.384314 0.694118 #0.501961
v -0.406982 1.587646 -1.640625 0.305882 0.384314 0.694118 #0.501961
v -0.403564 1.208252 -1.502441 0.305882 0.384314 0.694118 #0.501961
v -0.673340 1.395264 -0.783447 0.305882 0.384314 0.694118 #0.501961
v -0.406982 1.587646 -1.640625 0.305882 0.384314 0.694118 #0.501961
v -0.406982 1.587646 -1.640625 0.305882 0.384314 0.694118 #0.501961
v -0.673340 1.395264 -0.783447 0.305882 0.384314 0.694118 #0.501961
v -0.976074 1.725098 -0.321533 0.305882 0.384314 0.694118 #0.501961
v -0.673340 1.395264 -0.783447 0.305882 0.384314 0.694118 #0.501961
v -0.925049 1.444336 -0.323242 0.305882 0.384314 0.694118 #0.501961
v -0.976074 1.725098 -0.321533 0.305882 0.384314 0.694118 #0.501961
v 0.406982 1.587646 -1.640625 0.305882 0.384314 0.694118 #0.501961
v 0.976074 1.725098 -0.321533 0.305882 0.384314 0.694118 #0.501961
v 0.673340 1.395264 -0.783447 0.305882 0.384314 0.694118 #0.501961
v 0.673340 1.395264 -0.783447 0.305882 0.384314 0.694118 #0.501961
v 0.976074 1.725098 -0.321533 0.305882 0.384314 0.694118 #0.501961
v 0.925049 1.444336 -0.323242 0.305882 0.384314 0.694118 #0.501961
v 0.407959 1.576660 -1.748535 0.788235 0.792157 0.796078 #0.501961
v -0.407959 1.576660 -1.748535 0.788235 0.792157 0.796078 #0.501961
v -0.412354 2.039307 -1.169434 0.788235 0.792157 0.796078 #0.501961
v -0.407959 1.576660 -1.748535 0.788235 0.792157 0.796078 #0.501961
v -0.853271 1.865723 -0.249756 0.788235 0.792157 0.796078 #0.501961
v -0.412354 2.039307 -1.169434 0.788235 0.792157 0.796078 #0.501961
v -0.412354 2.039307 -1.169434 0.788235 0.792157 0.796078 #0.501961
v -0.853271 1.865723 -0.249756 0.788235 0.792157 0.796078 #0.501961
v 0.412354 2.039307 -1.169434 0.788235 0.792157 0.796078 #0.501961
v -0.853271 1.865723 -0.249756 0.788235 0.792157 0.796078 #0.501961
v 0.853271 1.865723 -0.249756 0.788235 0.792157 0.796078 #0.501961
v 0.412354 2.039307 -1.169434 0.788235 0.792157 0.796078 #0.501961
v 0.412354 2.039307 -1.169434 0.788235 0.792157 0.796078 #0.501961
v 0.853271 1.865723 -0.249756 0.788235 0.792157 0.796078 #0.501961
v 0.407959 1.576660 -1.748535 0.788235 0.792157 0.796078 #0.501961
v 0.853271 1.865723 -0.249756 0.788235 0.792157 0.796078 #0.501961
v 0.976074 1.725098 -0.321533 0.788235 0.792157 0.796078 #0.501961
v 0.407959 1.576660 -1.748535 0.788235 0.792157 0.796078 #0.501961
v 0.412354 2.039307 -1.169434 0.788235 0.792157 0.796078 #0.501961
v 0.407959 1.576660 -1.748535 0.788235 0.792157 0.796078 #0.501961
v -0.412354 2.039307 -1.169434 0.788235 0.792157 0.796078 #0.501961
v 0.673340 1.395264 -0.783447 0.788235 0.792157 0.796078 #0.501961
v 0.402832 1.127930 -1.553223 0.788235 0.792157 0.796078 #0.501961
v 0.403564 1.208252 -1.502441 0.788235 0.792157 0.796078 #0.501961
v 0.403564 1.208252 -1.502441 0.788235 0.792157 0.796078 #0.501961
v 0.402832 1.127930 -1.553223 0.788235 0.792157 0.796078 #0.501961
v -0.403564 1.208252 -1.502441 0.788235 0.792157 0.796078 #0.501961
v 0.402832 1.127930 -1.553223 0.788235 0.792157 0.796078 #0.501961
v -0.402832 1.127930 -1.553223 0.788235 0.792157 0.796078 #0.501961
v -0.403564 1.208252 -1.502441 0.788235 0.792157 0.796078 #0.501961
v -0.403564 1.208252 -1.502441 0.788235 0.792157 0.796078 #0.501961
v -0.402832 1.127930 -1.553223 0.788235 0.792157 0.796078 #0.501961
v -0.673340 1.395264 -0.783447 0.788235 0.792157 0.796078 #0.501961
v -0.882812 1.329590 -0.363037 0.788235 0.792157 0.796078 #0.501961
v -0.925537 1.148193 0.025146 0.788235 0.792157 0.796078 #0.501961
v -0.978271 1.490967 0.142334 0.788235 0.792157 0.796078 #0.501961
v -0.407959 1.576660 -1.748535 0.788235 0.792157 0.796078 #0.501961
v -0.976074 1.725098 -0.321533 0.788235 0.792157 0.796078 #0.501961
v -0.853271 1.865723 -0.249756 0.788235 0.792157 0.796078 #0.501961
v -0.976074 1.725098 -0.321533 0.788235 0.792157 0.796078 #0.501961
v -0.978271 1.490967 0.142334 0.788235 0.792157 0.796078 #0.501961
v -0.853271 1.865723 -0.249756 0.788235 0.792157 0.796078 #0.501961
v -0.853271 1.865723 -0.249756 0.788235 0.792157 0.796078 #0.501961
v -0.978271 1.490967 0.142334 0.788235 0.792157 0.796078 #0.501961
v 0.853271 1.865723 -0.249756 0.788235 0.792157 0.796078 #0.501961
v -0.978271 1.490967 0.142334 0.788235 0.792157 0.796078 #0.501961
v 0.978271 1.490967 0.142334 0.788235 0.792157 0.796078 #0.501961
v 0.853271 1.865723 -0.249756 0.788235 0.792157 0.796078 #0.501961
v 0.853271 1.865723 -0.249756 0.788235 0.792157 0.796078 #0.501961
v 0.978271 1.490967 0.142334 0.788235 0.792157 0.796078 #0.501961
v 0.976074 1.725098 -0.321533 0.788235 0.792157 0.796078 #0.501961
v 0.978271 1.490967 0.142334 0.788235 0.792157 0.796078 #0.501961
v 0.925049 1.444336 -0.323242 0.788235 0.792157 0.796078 #0.501961
v 0.976074 1.725098 -0.321533 0.788235 0.792157 0.796078 #0.501961
v 0.673340 1.395264 -0.783447 0.788235 0.792157 0.796078 #0.501961
v 0.925049 1.444336 -0.323242 0.788235 0.792157 0.796078 #0.501961
v 0.882812 1.329590 -0.363037 0.788235 0.792157 0.796078 #0.501961
v 0.925049 1.444336 -0.323242 0.788235 0.792157 0.796078 #0.501961
v 0.978271 1.490967 0.142334 0.788235 0.792157 0.796078 #0.501961
v 0.882812 1.329590 -0.363037 0.788235 0.792157 0.796078 #0.501961
v 0.882812 1.329590 -0.363037 0.788235 0.792157 0.796078 #0.501961
v 0.978271 1.490967 0.142334 0.788235 0.792157 0.796078 #0.501961
v 0.925537 1.148193 0.025146 0.788235 0.792157 0.796078 #0.501961
v -0.673340 1.395264 -0.783447 0.788235 0.792157 0.796078 #0.501961
v -0.882812 1.329590 -0.363037 0.788235 0.792157 0.796078 #0.501961
v -0.925049 1.444336 -0.323242 0.788235 0.792157 0.796078 #0.501961
v -0.882812 1.329590 -0.363037 0.788235 0.792157 0.796078 #0.501961
v -0.978271 1.490967 0.142334 0.788235 0.792157 0.796078 #0.501961
v -0.925049 1.444336 -0.323242 0.788235 0.792157 0.796078 #0.501961
v -0.925049 1.444336 -0.323242 0.788235 0.792157 0.796078 #0.501961
v -0.978271 1.490967 0.142334 0.788235 0.792157 0.796078 #0.501961
v -0.976074 1.725098 -0.321533 0.788235 0.792157 0.796078 #0.501961
v -0.801758 1.263672 0.737305 0.788235 0.792157 0.796078 #0.501961
v -1.229980 3.255615 2.437500 0.788235 0.792157 0.796078 #0.501961
v -0.801758 1.351562 0.670166 0.788235 0.792157 0.796078 #0.501961
v -0.801758 1.351562 0.670166 0.788235 0.792157 0.796078 #0.501961
v -1.229980 3.255615 2.437500 0.788235 0.792157 0.796078 #0.501961
v -0.650391 1.348145 0.695312 0.788235 0.792157 0.796078 #0.501961
v -1.229980 3.255615 2.437500 0.788235 0.792157 0.796078 #0.501961
v -0.801758 1.263672 0.737305 0.788235 0.792157 0.796078 #0.501961
v -0.650391 1.348145 0.695312 0.788235 0.792157 0.796078 #0.501961
v 0.801758 1.263672 0.737305 0.788235 0.792157 0.796078 #0.501961
v 0.801758 1.351562 0.670166 0.788235 0.792157 0.796078 #0.501961
v 1.229980 3.255615 2.437500 0.788235 0.792157 0.796078 #0.501961
v 0.801758 1.351562 0.670166 0.788235 0.792157 0.796078 #0.501961
v 0.650391 1.348145 0.695312 0.788235 0.792157 0.796078 #0.501961
v 1.229980 3.255615 2.437500 0.788235 0.792157 0.796078 #0.501961
v 1.229980 3.255615 2.437500 0.788235 0.792157 0.796078 #0.501961
v 0.650391 1.348145 0.695312 0.788235 0.792157 0.796078 #0.501961
v 0.801758 1.263672 0.737305 0.788235 0.792157 0.796078 #0.501961
v -0.801758 1.438232 0.571289 0.788235 0.792157 0.796078 #0.501961
v -1.229980 3.647217 1.978027 0.788235 0.792157 0.796078 #0.501961
v -0.801758 1.515869 0.492676 0.788235 0.792157 0.796078 #0.501961
v -0.801758 1.515869 0.492676 0.788235 0.792157 0.796078 #0.501961
v -1.229980 3.647217 1.978027 0.788235 0.792157 0.796078 #0.501961
v -0.650391 1.515869 0.517822 0.788235 0.792157 0.796078 #0.501961
v -1.229980 3.647217 1.978027 0.788235 0.792157 0.796078 #0.501961
v -0.801758 1.438232 0.571289 0.788235 0.792157 0.796078 #0.501961
v -0.650391 1.515869 0.517822 0.788235 0.792157 0.796078 #0.501961
v 0.801758 1.438232 0.571289 0.788235 0.792157 0.796078 #0.501961
v 0.801758 1.515869 0.492676 0.788235 0.792157 0.796078 #0.501961
v 1.229980 3.647217 1.978027 0.788235 0.792157 0.796078 #0.501961
v 0.801758 1.515869 0.492676 0.788235 0.792157 0.796078 #0.501961
v 0.650391 1.515869 0.517822 0.788235 0.792157 0.796078 #0.501961
v 1.229980 3.647217 1.978027 0.788235 0.792157 0.796078 #0.501961
v 1.229980 3.647217 1.978027 0.788235 0.792157 0.796078 #0.501961
v 0.650391 1.515869 0.517822 0.788235 0.792157 0.796078 #0.501961
v 0.801758 1.438232 0.571289 0.788235 0.792157 0.796078 #0.501961
v 0.267578 3.058838 0.528809 0.203922 0.266667 0.372549 #0.501961
v -0.267578 3.058838 0.528809 0.203922 0.266667 0.372549 #0.501961
v 0.392822 2.256348 0.643555 0.203922 0.266667 0.372549 #0.501961
v 0.392822 2.256348 0.643555 0.203922 0.266667 0.372549 #0.501961
v -0.267578 3.058838 0.528809 0.203922 0.266667 0.372549 #0.501961
v -0.392822 2.256348 0.643555 0.203922 0.266667 0.372549 #0.501961
v -0.261963 3.091553 -0.043945 0.203922 0.266667 0.372549 #0.501961
v 0.261963 3.091553 -0.043945 0.203922 0.266667 0.372549 #0.501961
v -0.392822 2.256348 -0.076660 0.203922 0.266667 0.372549 #0.501961
v -0.392822 2.256348 -0.076660 0.203922 0.266667 0.372549 #0.501961
v 0.261963 3.091553 -0.043945 0.203922 0.266667 0.372549 #0.501961
v 0.392822 2.256348 -0.076660 0.203922 0.266667 0.372549 #0.501961
v 0.311035 2.534668 -0.093018 0.203922 0.266667 0.372549 #0.501961
v -0.311035 2.534668 -0.093018 0.203922 0.266667 0.372549 #0.501961
v 0.638428 2.289062 0.004883 0.203922 0.266667 0.372549 #0.501961
v -0.311035 2.534668 -0.093018 0.203922 0.266667 0.372549 #0.501961
v -0.638428 2.289062 0.004883 0.203922 0.266667 0.372549 #0.501961
v 0.638428 2.289062 0.004883 0.203922 0.266667 0.372549 #0.501961
v 0.638428 2.289062 0.004883 0.203922 0.266667 0.372549 #0.501961
v -0.638428 2.289062 0.004883 0.203922 0.266667 0.372549 #0.501961
v 0.851318 1.699707 0.234131 0.203922 0.266667 0.372549 #0.501961
v -0.638428 2.289062 0.004883 0.203922 0.266667 0.372549 #0.501961
v -0.851318 1.699707 0.234131 0.203922 0.266667 0.372549 #0.501961
v 0.851318 1.699707 0.234131 0.203922 0.266667 0.372549 #0.501961
v -0.755615 0.505615 -0.377686 0.203922 0.266667 0.372549 #0.501961
v -0.755615 1.034668 -0.377686 0.203922 0.266667 0.372549 #0.501961
v -0.390381 0.442871 -0.440674 0.203922 0.266667 0.372549 #0.501961
v -0.390381 0.442871 -0.440674 0.203922 0.266667 0.372549 #0.501961
v -0.755615 1.034668 -0.377686 0.203922 0.266667 0.372549 #0.501961
v -0.390381 1.110352 -0.440674 0.203922 0.266667 0.372549 #0.501961
v 0.755615 0.505615 -0.377686 0.203922 0.266667 0.372549 #0.501961
v 0.390381 0.442871 -0.440674 0.203922 0.266667 0.372549 #0.501961
v 0.755615 1.034668 -0.377686 0.203922 0.266667 0.372549 #0.501961
v 0.755615 1.034668 -0.377686 0.203922 0.266667 0.372549 #0.501961
v 0.390381 0.442871 -0.440674 0.203922 0.266667 0.372549 #0.501961
v 0.390381 1.110352 -0.440674 0.203922 0.266667 0.372549 #0.501961
v -0.179932 0.930176 -1.170410 0.203922 0.266667 0.372549 #0.501961
v -0.245361 0.815674 -0.977295 0.203922 0.266667 0.372549 #0.501961
v 0.179932 0.930176 -1.170410 0.203922 0.266667 0.372549 #0.501961
v 0.179932 0.930176 -1.170410 0.203922 0.266667 0.372549 #0.501961
v -0.245361 0.815674 -0.977295 0.203922 0.266667 0.372549 #0.501961
v 0.245361 0.815674 -0.977295 0.203922 0.266667 0.372549 #0.501961
v 0.245361 0.815674 -0.977295 0.203922 0.266667 0.372549 #0.501961
v -0.245361 0.815674 -0.977295 0.203922 0.266667 0.372549 #0.501961
v 0.409180 0.881104 -0.715332 0.203922 0.266667 0.372549 #0.501961
v -0.245361 0.815674 -0.977295 0.203922 0.266667 0.372549 #0.501961
v -0.409180 0.881104 -0.715332 0.203922 0.266667 0.372549 #0.501961
v 0.409180 0.881104 -0.715332 0.203922 0.266667 0.372549 #0.501961
v 0.409180 0.881104 -0.715332 0.203922 0.266667 0.372549 #0.501961
v -0.409180 0.881104 -0.715332 0.203922 0.266667 0.372549 #0.501961
v 0.507568 1.241211 -0.420654 0.203922 0.266667 0.372549 #0.501961
v -0.409180 0.881104 -0.715332 0.203922 0.266667 0.372549 #0.501961
v -0.507568 1.241211 -0.420654 0.203922 0.266667 0.372549 #0.501961
v 0.507568 1.241211 -0.420654 0.203922 0.266667 0.372549 #0.501961
vt 3.346680 0.278809 0.000000
vt 3.346680 0.088379 0.000000
vt 3.728027 2.020996 0.000000
vt 3.728027 2.020996 0.000000
vt 3.346680 0.088379 0.000000
vt 3.800049 3.569580 0.000000
vt -3.346680 0.278809 0.000000
vt -3.677734 2.020996 0.000000
vt -3.346680 0.088379 0.000000
vt -3.346680 0.088379 0.000000
vt -3.677734 2.020996 0.000000
vt -3.800049 3.569580 0.000000
vt 2.639893 -1.749268 0.000000
vt 2.639893 -1.919434 0.000000
vt 3.032715 -1.133545 0.000000
vt 3.032715 -1.133545 0.000000
vt 3.032715 -0.956787 0.000000
vt 2.639893 -1.749268 0.000000
vt 3.032715 -0.956787 0.000000
vt 2.035156 -0.924072 0.000000
vt 2.639893 -1.749268 0.000000
vt 2.639893 -1.749268 0.000000
vt 2.035156 -0.924072 0.000000
vt 1.773193 -2.043945 0.000000
vt -2.035156 -0.924072 0.000000
vt -3.032715 -0.956787 0.000000
vt -2.639893 -1.749268 0.000000
vt -3.032715 -0.956787 0.000000
vt -3.032715 -1.133545 0.000000
vt -2.639893 -1.749268 0.000000
vt -2.639893 -1.749268 0.000000
vt -3.032715 -1.133545 0.000000
vt -2.639893 -1.919434 0.000000
vt -2.035156 -0.924072 0.000000
vt -2.639893 -1.749268 0.000000
vt -1.773193 -2.043945 0.000000
vt 0.000000 -3.540771 0.000000
vt 0.000000 -4.175537 0.000000
vt 2.216553 -0.175293 0.000000
vt -2.216553 -0.175293 0.000000
vt 0.000000 -4.175537 0.000000
vt 0.000000 -3.540771 0.000000
vt -3.800049 3.569580 0.000000
vt 3.749512 3.294678 0.000000
vt -3.749512 3.294678 0.000000
vt -3.346680 0.278809 0.000000
vt 3.346680 0.278809 0.000000
vt -3.677734 2.020996 0.000000
vt 3.346680 0.278809 0.000000
vt 3.728027 2.020996 0.000000
vt -3.677734 2.020996 0.000000
vt -3.677734 2.020996 0.000000
vt 3.728027 2.020996 0.000000
vt -3.800049 3.569580 0.000000
vt 3.728027 2.020996 0.000000
vt 3.800049 3.569580 0.000000
vt -3.800049 3.569580 0.000000
vt -3.800049 3.569580 0.000000
vt 3.800049 3.569580 0.000000
vt 3.749512 3.294678 0.000000
vt 0.957031 -3.581055 0.000000
vt 1.244385 -1.114014 0.000000
vt -1.244385 -1.114014 0.000000
vt 1.244385 -1.114014 0.000000
vt 1.244385 0.641113 0.000000
vt -1.244385 -1.114014 0.000000
vt -1.244385 -1.114014 0.000000
vt 1.244385 0.641113 0.000000
vt -1.244385 0.641113 0.000000
vt -1.244385 -1.114014 0.000000
vt -0.957031 -3.581055 0.000000
vt 0.957031 -3.581055 0.000000
vt -2.352539 0.274658 0.000000
vt -2.216553 -0.175293 0.000000
vt -1.591797 -2.449951 0.000000
vt -2.216553 -0.175293 0.000000
vt 0.000000 -3.540771 0.000000
vt -1.591797 -2.449951 0.000000
vt -1.591797 -2.449951 0.000000
vt 0.000000 -3.540771 0.000000
vt 1.591797 -2.449951 0.000000
vt 0.000000 -3.540771 0.000000
vt 2.216553 -0.175293 0.000000
vt 1.591797 -2.449951 0.000000
vt 1.591797 -2.449951 0.000000
vt 2.216553 -0.175293 0.000000
vt 2.352539 0.274658 0.000000
vt -0.805908 5.779297 0.000000
vt -0.906738 4.741455 0.000000
vt -1.158691 3.461914 0.000000
vt -1.158691 3.461914 0.000000
vt -0.755615 5.703613 0.000000
vt -0.805908 5.779297 0.000000
vt -0.755615 5.703613 0.000000
vt 0.755615 5.703613 0.000000
vt -0.805908 5.779297 0.000000
vt -0.805908 5.779297 0.000000
vt 0.755615 5.703613 0.000000
vt 0.805908 5.779297 0.000000
vt 0.906738 4.741455 0.000000
vt 0.805908 5.779297 0.000000
vt 1.158691 3.461914 0.000000
vt 0.805908 5.779297 0.000000
vt 0.755615 5.703613 0.000000
vt 1.158691 3.461914 0.000000
vt 1.158691 3.461914 0.000000
vt 0.755615 5.703613 0.000000
vt 0.755615 3.310547 0.000000
vt 0.755615 5.703613 0.000000
vt -0.755615 5.703613 0.000000
vt 0.755615 3.310547 0.000000
vt 0.755615 3.310547 0.000000
vt -0.755615 5.703613 0.000000
vt -0.755615 3.310547 0.000000
vt -0.755615 5.703613 0.000000
vt -1.158691 3.461914 0.000000
vt -0.755615 3.310547 0.000000
vt 1.571777 0.595215 0.000000
vt 1.571777 3.476807 0.000000
vt 1.070557 3.339355 0.000000
vt 1.178711 0.948730 0.000000
vt 0.720215 1.230469 0.000000
vt 1.042236 -0.937988 0.000000
vt 1.042236 -0.937988 0.000000
vt 0.720215 1.230469 0.000000
vt 0.527100 -1.480225 0.000000
vt 0.720215 1.230469 0.000000
vt -0.720215 1.230469 0.000000
vt 0.527100 -1.480225 0.000000
vt 0.527100 -1.480225 0.000000
vt -0.720215 1.230469 0.000000
vt -0.527100 -1.480225 0.000000
vt -0.720215 1.230469 0.000000
vt -1.042236 -0.937988 0.000000
vt -0.527100 -1.480225 0.000000
vt -1.571777 3.476807 0.000000
vt -1.571777 0.595215 0.000000
vt -1.070557 3.339355 0.000000
vt -1.571777 0.595215 0.000000
vt -1.047852 1.060303 0.000000
vt -1.070557 3.339355 0.000000
vt -1.070557 3.339355 0.000000
vt -1.047852 1.060303 0.000000
vt 1.070557 3.339355 0.000000
vt -1.047852 1.060303 0.000000
vt 1.047852 1.060303 0.000000
vt 1.070557 3.339355 0.000000
vt 1.070557 3.339355 0.000000
vt 1.047852 1.060303 0.000000
vt 1.571777 0.595215 0.000000
vt -0.720215 1.230469 0.000000
vt -1.178711 0.948730 0.000000
vt -1.042236 -0.937988 0.000000
vt 1.057861 4.116699 0.000000
vt 2.216553 4.106689 0.000000
vt 2.015137 3.446777 0.000000
vt 2.216553 4.106689 0.000000
vt 2.871582 2.635498 0.000000
vt 2.015137 3.446777 0.000000
vt 2.015137 3.446777 0.000000
vt 2.871582 2.635498 0.000000
vt 2.418213 2.338379 0.000000
vt 2.569336 1.013428 0.000000
vt 2.871582 0.277832 0.000000
vt 2.871582 2.635498 0.000000
vt -2.569336 1.013428 0.000000
vt -2.468506 2.968018 0.000000
vt -2.871582 2.635498 0.000000
vt -2.468506 2.968018 0.000000
vt -2.367676 3.824463 0.000000
vt -2.871582 2.635498 0.000000
vt -2.871582 2.635498 0.000000
vt -2.367676 3.824463 0.000000
vt -2.216553 4.106689 0.000000
vt -2.871582 2.635498 0.000000
vt -2.871582 0.277832 0.000000
vt -2.569336 1.013428 0.000000
vt 0.856445 0.746338 0.000000
vt 2.569336 1.013428 0.000000
vt 0.856445 3.058838 0.000000
vt 0.856445 3.058838 0.000000
vt 2.569336 1.013428 0.000000
vt 2.468506 2.968018 0.000000
vt 2.569336 1.013428 0.000000
vt 2.871582 2.635498 0.000000
vt 2.468506 2.968018 0.000000
vt 2.468506 2.968018 0.000000
vt 2.871582 2.635498 0.000000
vt 2.367676 3.824463 0.000000
vt 2.871582 2.635498 0.000000
vt 2.216553 4.106689 0.000000
vt 2.367676 3.824463 0.000000
vt 2.367676 3.824463 0.000000
vt 2.216553 4.106689 0.000000
vt 0.906738 4.912842 0.000000
vt 2.216553 4.106689 0.000000
vt 1.057861 4.116699 0.000000
vt 0.906738 4.912842 0.000000
vt 0.906738 4.912842 0.000000
vt 1.057861 4.116699 0.000000
vt -0.906738 4.912842 0.000000
vt 1.057861 4.116699 0.000000
vt -1.057861 4.116699 0.000000
vt -0.906738 4.912842 0.000000
vt -0.906738 4.912842 0.000000
vt -1.057861 4.116699 0.000000
vt -2.216553 4.106689 0.000000
vt -1.057861 4.116699 0.000000
vt -2.015137 3.446777 0.000000
vt -2.216553 4.106689 0.000000
vt -2.216553 4.106689 0.000000
vt -2.015137 3.446777 0.000000
vt -2.871582 2.635498 0.000000
vt -2.015137 3.446777 0.000000
vt -2.418213 2.338379 0.000000
vt -2.871582 2.635498 0.000000
vt -2.216553 4.106689 0.000000
vt -2.367676 3.824463 0.000000
vt -0.906738 4.912842 0.000000
vt -0.906738 4.912842 0.000000
vt -2.367676 3.824463 0.000000
vt -0.906738 4.600342 0.000000
vt -2.367676 3.824463 0.000000
vt -2.468506 2.968018 0.000000
vt -0.906738 4.600342 0.000000
vt -0.906738 4.600342 0.000000
vt -2.468506 2.968018 0.000000
vt -0.856445 3.058838 0.000000
vt -2.468506 2.968018 0.000000
vt -2.569336 1.013428 0.000000
vt -0.856445 3.058838 0.000000
vt -0.856445 3.058838 0.000000
vt -2.569336 1.013428 0.000000
vt -0.856445 0.746338 0.000000
vt 0.906738 4.912842 0.000000
vt 0.906738 4.600342 0.000000
vt 2.367676 3.824463 0.000000
vt 2.367676 3.824463 0.000000
vt 0.906738 4.600342 0.000000
vt 2.468506 2.968018 0.000000
vt 0.906738 4.600342 0.000000
vt 0.856445 3.058838 0.000000
vt 2.468506 2.968018 0.000000
vt 1.244385 -1.114014 0.000000
vt 0.957031 -3.581055 0.000000
vt 2.423096 -0.884766 0.000000
vt 2.423096 -0.884766 0.000000
vt 0.957031 -3.581055 0.000000
vt 3.143555 -0.518066 0.000000
vt -1.244385 -1.114014 0.000000
vt -2.423096 -0.884766 0.000000
vt -0.957031 -3.581055 0.000000
vt -0.957031 -3.581055 0.000000
vt -2.423096 -0.884766 0.000000
vt -3.143555 -0.518066 0.000000
vt 3.340088 0.320068 0.000000
vt 3.405518 1.616943 0.000000
vt 3.143555 -0.518066 0.000000
vt 3.143555 -0.518066 0.000000
vt 3.405518 1.616943 0.000000
vt 2.423096 -0.884766 0.000000
vt 3.405518 1.616943 0.000000
vt 2.554199 0.935791 0.000000
vt 2.423096 -0.884766 0.000000
vt 2.423096 -0.884766 0.000000
vt 2.554199 0.935791 0.000000
vt 1.244385 -1.114014 0.000000
vt 2.554199 0.935791 0.000000
vt 1.244385 0.641113 0.000000
vt 1.244385 -1.114014 0.000000
vt -3.340088 0.320068 0.000000
vt -3.143555 -0.518066 0.000000
vt -3.405518 1.616943 0.000000
vt -3.143555 -0.518066 0.000000
vt -2.423096 -0.884766 0.000000
vt -3.405518 1.616943 0.000000
vt -3.405518 1.616943 0.000000
vt -2.423096 -0.884766 0.000000
vt -2.554199 0.935791 0.000000
vt -2.423096 -0.884766 0.000000
vt -1.244385 -1.114014 0.000000
vt -2.554199 0.935791 0.000000
vt -2.554199 0.935791 0.000000
vt -1.244385 -1.114014 0.000000
vt -1.244385 0.641113 0.000000
vt 3.022705 -1.097412 0.000000
vt 3.778320 1.617920 0.000000
vt 1.561768 -1.319092 0.000000
vt 1.561768 -1.319092 0.000000
vt 3.778320 1.617920 0.000000
vt 2.669922 1.587646 0.000000
vt 3.778320 1.617920 0.000000
vt 2.770752 5.366211 0.000000
vt 2.669922 1.587646 0.000000
vt 2.669922 1.587646 0.000000
vt 2.770752 5.366211 0.000000
vt 2.770752 5.093994 0.000000
vt 2.770752 5.366211 0.000000
vt 3.879150 5.345947 0.000000
vt 2.770752 5.093994 0.000000
vt 2.770752 5.093994 0.000000
vt 3.879150 5.345947 0.000000
vt 3.879150 5.093994 0.000000
vt 3.879150 5.345947 0.000000
vt 3.778320 1.617920 0.000000
vt 3.879150 5.093994 0.000000
vt 3.879150 5.093994 0.000000
vt 3.778320 1.617920 0.000000
vt 3.576904 0.302979 0.000000
vt 3.778320 1.617920 0.000000
vt 3.022705 -1.097412 0.000000
vt 3.576904 0.302979 0.000000
vt 3.576904 0.302979 0.000000
vt 3.022705 -1.097412 0.000000
vt 3.022705 -1.308838 0.000000
vt 2.770752 5.366211 0.000000
vt 3.778320 1.617920 0.000000
vt 3.879150 5.345947 0.000000
vt -3.022705 -1.097412 0.000000
vt -1.561768 -1.319092 0.000000
vt -3.778320 1.617920 0.000000
vt -1.561768 -1.319092 0.000000
vt -2.669922 1.587646 0.000000
vt -3.778320 1.617920 0.000000
vt -3.778320 1.617920 0.000000
vt -2.669922 1.587646 0.000000
vt -2.770752 5.366211 0.000000
vt -2.669922 1.587646 0.000000
vt -2.770752 5.093994 0.000000
vt -2.770752 5.366211 0.000000
vt -2.770752 5.366211 0.000000
vt -2.770752 5.093994 0.000000
vt -3.879150 5.345947 0.000000
vt -2.770752 5.093994 0.000000
vt -3.879150 5.093994 0.000000
vt -3.879150 5.345947 0.000000
vt -3.879150 5.345947 0.000000
vt -3.879150 5.093994 0.000000
vt -3.778320 1.617920 0.000000
vt -3.879150 5.093994 0.000000
vt -3.576904 0.302979 0.000000
vt -3.778320 1.617920 0.000000
vt -3.778320 1.617920 0.000000
vt -3.576904 0.302979 0.000000
vt -3.022705 -1.097412 0.000000
vt -3.576904 0.302979 0.000000
vt -3.022705 -1.308838 0.000000
vt -3.022705 -1.097412 0.000000
vt -3.879150 5.345947 0.000000
vt -3.778320 1.617920 0.000000
vt -2.770752 5.366211 0.000000
vt 2.770752 5.093994 0.000000
vt 2.317383 0.277832 0.000000
vt 2.669922 1.587646 0.000000
vt -2.669922 1.587646 0.000000
vt -2.317383 0.277832 0.000000
vt -2.770752 5.093994 0.000000
vt -0.982178 -3.583008 0.000000
vt -1.637207 -2.509033 0.000000
vt -2.095703 -0.282227 0.000000
vt -1.637207 -2.509033 0.000000
vt -2.030273 -1.186035 0.000000
vt -2.095703 -0.282227 0.000000
vt -2.095703 -0.282227 0.000000
vt -2.030273 -1.186035 0.000000
vt -2.357666 0.005615 0.000000
vt -2.095703 -0.282227 0.000000
vt -0.654785 -5.194336 0.000000
vt -0.982178 -3.583008 0.000000
vt -0.654785 -5.194336 0.000000
vt -0.392822 -5.462891 0.000000
vt -0.982178 -3.583008 0.000000
vt -0.982178 -3.583008 0.000000
vt -0.392822 -5.462891 0.000000
vt -0.720215 -4.310059 0.000000
vt -0.392822 -5.462891 0.000000
vt 0.392822 -5.462891 0.000000
vt -0.720215 -4.310059 0.000000
vt -0.720215 -4.310059 0.000000
vt 0.392822 -5.462891 0.000000
vt 0.720215 -4.310059 0.000000
vt 0.392822 -5.462891 0.000000
vt 0.982178 -3.583008 0.000000
vt 0.720215 -4.310059 0.000000
vt 2.030273 -1.186035 0.000000
vt 2.095703 -0.282227 0.000000
vt 2.357666 0.005615 0.000000
vt 2.030273 -1.186035 0.000000
vt 1.637207 -2.509033 0.000000
vt 2.095703 -0.282227 0.000000
vt 1.637207 -2.509033 0.000000
vt 0.982178 -3.583008 0.000000
vt 2.095703 -0.282227 0.000000
vt 2.095703 -0.282227 0.000000
vt 0.982178 -3.583008 0.000000
vt 0.654785 -5.194336 0.000000
vt 0.982178 -3.583008 0.000000
vt 0.392822 -5.462891 0.000000
vt 0.654785 -5.194336 0.000000
vt -0.527100 -1.480225 0.000000
vt -1.042236 -0.937988 0.000000
vt 0.527100 -1.480225 0.000000
vt 0.527100 -1.480225 0.000000
vt -1.042236 -0.937988 0.000000
vt 1.042236 -0.937988 0.000000
vt 0.906738 4.741455 0.000000
vt -0.906738 4.741455 0.000000
vt 0.805908 5.779297 0.000000
vt 0.805908 5.779297 0.000000
vt -0.906738 4.741455 0.000000
vt -0.805908 5.779297 0.000000
vt 1.773193 -2.266602 0.000000
vt 2.639893 -1.919434 0.000000
vt 1.773193 -2.043945 0.000000
vt 1.773193 -2.043945 0.000000
vt 2.639893 -1.919434 0.000000
vt 2.639893 -1.749268 0.000000
vt -2.639893 -1.749268 0.000000
vt -2.639893 -1.919434 0.000000
vt -1.773193 -2.043945 0.000000
vt -1.773193 -2.043945 0.000000
vt -2.639893 -1.919434 0.000000
vt -1.773193 -2.266602 0.000000
vt -0.392822 -5.462891 0.000000
vt -0.654785 -5.194336 0.000000
vt 0.392822 -5.462891 0.000000
vt 0.392822 -5.462891 0.000000
vt -0.654785 -5.194336 0.000000
vt 0.654785 -5.194336 0.000000
vt -2.693604 -2.575928 0.000000
vt -1.614990 -5.527100 0.000000
vt -1.628662 -5.927979 0.000000
vt -1.614990 -5.527100 0.000000
vt 1.614990 -5.527100 0.000000
vt -1.628662 -5.927979 0.000000
vt -1.628662 -5.927979 0.000000
vt 1.614990 -5.527100 0.000000
vt 1.628662 -5.927979 0.000000
vt 1.614990 -5.527100 0.000000
vt 2.693604 -2.575928 0.000000
vt 1.628662 -5.927979 0.000000
vt 1.628662 -5.927979 0.000000
vt 2.693604 -2.575928 0.000000
vt 3.904297 -0.596680 0.000000
vt 2.693604 -2.575928 0.000000
vt 3.700195 -0.715820 0.000000
vt 3.904297 -0.596680 0.000000
vt -1.628662 -5.927979 0.000000
vt -3.904297 -0.596680 0.000000
vt -2.693604 -2.575928 0.000000
vt -2.693604 -2.575928 0.000000
vt -3.904297 -0.596680 0.000000
vt -3.700195 -0.715820 0.000000
vt -1.632080 -6.364014 0.000000
vt 1.632080 -6.364014 0.000000
vt 1.649902 -3.862793 0.000000
vt 1.632080 -6.364014 0.000000
vt 3.413574 -0.253174 0.000000
vt 1.649902 -3.862793 0.000000
vt 1.649902 -3.862793 0.000000
vt 3.413574 -0.253174 0.000000
vt -1.649902 -3.862793 0.000000
vt 3.413574 -0.253174 0.000000
vt -3.413574 -0.253174 0.000000
vt -1.649902 -3.862793 0.000000
vt -1.649902 -3.862793 0.000000
vt -3.413574 -0.253174 0.000000
vt -1.632080 -6.364014 0.000000
vt -3.413574 -0.253174 0.000000
vt -3.904297 -0.596680 0.000000
vt -1.632080 -6.364014 0.000000
vt -1.649902 -3.862793 0.000000
vt -1.632080 -6.364014 0.000000
vt 1.649902 -3.862793 0.000000
vt -2.693604 -2.575928 0.000000
vt -1.612061 -5.761963 0.000000
vt -1.614990 -5.527100 0.000000
vt -1.614990 -5.527100 0.000000
vt -1.612061 -5.761963 0.000000
vt 1.614990 -5.527100 0.000000
vt -1.612061 -5.761963 0.000000
vt 1.612061 -5.761963 0.000000
vt 1.614990 -5.527100 0.000000
vt 1.614990 -5.527100 0.000000
vt 1.612061 -5.761963 0.000000
vt 2.693604 -2.575928 0.000000
vt 3.531494 -0.920898 0.000000
vt 3.702881 0.559814 0.000000
vt 3.913086 1.165771 0.000000
vt 1.632080 -6.364014 0.000000
vt 3.904297 -0.596680 0.000000
vt 3.413574 -0.253174 0.000000
vt 3.904297 -0.596680 0.000000
vt 3.913086 1.165771 0.000000
vt 3.413574 -0.253174 0.000000
vt 3.413574 -0.253174 0.000000
vt 3.913086 1.165771 0.000000
vt -3.413574 -0.253174 0.000000
vt 3.913086 1.165771 0.000000
vt -3.913086 1.165771 0.000000
vt -3.413574 -0.253174 0.000000
vt -3.413574 -0.253174 0.000000
vt -3.913086 1.165771 0.000000
vt -3.904297 -0.596680 0.000000
vt -3.913086 1.165771 0.000000
vt -3.700195 -0.715820 0.000000
vt -3.904297 -0.596680 0.000000
vt -2.693604 -2.575928 0.000000
vt -3.700195 -0.715820 0.000000
vt -3.531494 -0.920898 0.000000
vt -3.700195 -0.715820 0.000000
vt -3.913086 1.165771 0.000000
vt -3.531494 -0.920898 0.000000
vt -3.531494 -0.920898 0.000000
vt -3.913086 1.165771 0.000000
vt -3.702881 0.559814 0.000000
vt 2.693604 -2.575928 0.000000
vt 3.531494 -0.920898 0.000000
vt 3.700195 -0.715820 0.000000
vt 3.531494 -0.920898 0.000000
vt 3.913086 1.165771 0.000000
vt 3.700195 -0.715820 0.000000
vt 3.700195 -0.715820 0.000000
vt 3.913086 1.165771 0.000000
vt 3.904297 -0.596680 0.000000
vt 3.207031 3.455078 0.000000
vt 4.919922 -4.947021 0.000000
vt 3.207031 3.222168 0.000000
vt 3.207031 3.222168 0.000000
vt 4.919922 -4.947021 0.000000
vt 2.602295 3.320557 0.000000
vt 4.919922 -4.947021 0.000000
vt 3.207031 3.455078 0.000000
vt 2.602295 3.320557 0.000000
vt -3.207031 3.455078 0.000000
vt -3.207031 3.222168 0.000000
vt -4.919922 -4.947021 0.000000
vt -3.207031 3.222168 0.000000
vt -2.602295 3.320557 0.000000
vt -4.919922 -4.947021 0.000000
vt -4.919922 -4.947021 0.000000
vt -2.602295 3.320557 0.000000
vt -3.207031 3.455078 0.000000
vt 3.207031 2.861084 0.000000
vt 4.919922 -6.629150 0.000000
vt 3.207031 2.577881 0.000000
vt 3.207031 2.577881 0.000000
vt 4.919922 -6.629150 0.000000
vt 2.602295 2.678467 0.000000
vt 4.919922 -6.629150 0.000000
vt 3.207031 2.861084 0.000000
vt 2.602295 2.678467 0.000000
vt -3.207031 2.861084 0.000000
vt -3.207031 2.577881 0.000000
vt -4.919922 -6.629150 0.000000
vt -3.207031 2.577881 0.000000
vt -2.602295 2.678467 0.000000
vt -4.919922 -6.629150 0.000000
vt -4.919922 -6.629150 0.000000
vt -2.602295 2.678467 0.000000
vt -3.207031 2.861084 0.000000
vt -1.070557 3.339355 0.000000
vt 1.070557 3.339355 0.000000
vt -1.571777 3.476807 0.000000
vt -1.571777 3.476807 0.000000
vt 1.070557 3.339355 0.000000
vt 1.571777 3.476807 0.000000
vt 1.047852 1.060303 0.000000
vt -1.047852 1.060303 0.000000
vt 1.571777 0.595215 0.000000
vt 1.571777 0.595215 0.000000
vt -1.047852 1.060303 0.000000
vt -1.571777 0.595215 0.000000
vt -1.244385 0.641113 0.000000
vt 1.244385 0.641113 0.000000
vt -2.554199 0.935791 0.000000
vt 1.244385 0.641113 0.000000
vt 2.554199 0.935791 0.000000
vt -2.554199 0.935791 0.000000
vt -2.554199 0.935791 0.000000
vt 2.554199 0.935791 0.000000
vt -3.405518 1.616943 0.000000
vt 2.554199 0.935791 0.000000
vt 3.405518 1.616943 0.000000
vt -3.405518 1.616943 0.000000
vt 3.022705 -1.308838 0.000000
vt 3.022705 -1.097412 0.000000
vt 1.561768 -1.585938 0.000000
vt 1.561768 -1.585938 0.000000
vt 3.022705 -1.097412 0.000000
vt 1.561768 -1.319092 0.000000
vt -3.022705 -1.308838 0.000000
vt -1.561768 -1.585938 0.000000
vt -3.022705 -1.097412 0.000000
vt -3.022705 -1.097412 0.000000
vt -1.561768 -1.585938 0.000000
vt -1.561768 -1.319092 0.000000
vt 0.720215 -4.310059 0.000000
vt 0.982178 -3.583008 0.000000
vt -0.720215 -4.310059 0.000000
vt -0.720215 -4.310059 0.000000
vt 0.982178 -3.583008 0.000000
vt -0.982178 -3.583008 0.000000
vt -0.982178 -3.583008 0.000000
vt 0.982178 -3.583008 0.000000
vt -1.637207 -2.509033 0.000000
vt 0.982178 -3.583008 0.000000
vt 1.637207 -2.509033 0.000000
vt -1.637207 -2.509033 0.000000
vt -1.637207 -2.509033 0.000000
vt 1.637207 -2.509033 0.000000
vt -2.030273 -1.186035 0.000000
vt 1.637207 -2.509033 0.000000
vt 2.030273 -1.186035 0.000000
vt -2.030273 -1.186035 0.000000
vn -0.416748 0.774170 0.476074
vn -0.984863 -0.042480 0.166504
vn -0.612793 0.785156 -0.086182
vn -0.612793 0.785156 -0.086182
vn -0.984863 -0.042480 0.166504
vn -0.526367 0.389160 -0.755859
vn 0.661133 0.612549 0.432861
vn 0.592773 0.779541 0.201660
vn 0.987061 -0.026855 0.156982
vn 0.987061 -0.026855 0.156982
vn 0.592773 0.779541 0.201660
vn 0.284424 0.457031 -0.842529
vn -0.704102 0.453369 0.546143
vn -0.568359 0.000000 0.822754
vn -0.894287 0.000000 0.447021
vn -0.894287 0.000000 0.447021
vn -0.722656 0.557861 0.407715
vn -0.704102 0.453369 0.546143
vn -0.722656 0.557861 0.407715
vn -0.351318 0.916992 0.188232
vn -0.704102 0.453369 0.546143
vn -0.704102 0.453369 0.546143
vn -0.351318 0.916992 0.188232
vn -0.446777 0.366211 0.815918
vn 0.351318 0.916992 0.188232
vn 0.722656 0.557861 0.407715
vn 0.704102 0.453369 0.546143
vn 0.722656 0.557861 0.407715
vn 0.894287 0.000000 0.447021
vn 0.704102 0.453369 0.546143
vn 0.704102 0.453369 0.546143
vn 0.894287 0.000000 0.447021
vn 0.568359 0.000000 0.822754
vn 0.351318 0.916992 0.188232
vn 0.704102 0.453369 0.546143
vn 0.446777 0.366211 0.815918
vn -0.854004 0.186523 0.485107
vn -0.854004 0.186523 0.485107
vn -0.854004 0.186523 0.485107
vn 0.854004 0.186523 0.485107
vn 0.854004 0.186523 0.485107
vn 0.854004 0.186523 0.485107
vn 0.284424 0.457031 -0.842529
vn 0.000000 -0.022217 -0.999512
vn 0.000000 -0.022217 -0.999512
vn 0.661133 0.612549 0.432861
vn -0.416748 0.774170 0.476074
vn 0.592773 0.779541 0.201660
vn -0.416748 0.774170 0.476074
vn -0.612793 0.785156 -0.086182
vn 0.592773 0.779541 0.201660
vn 0.592773 0.779541 0.201660
vn -0.612793 0.785156 -0.086182
vn 0.284424 0.457031 -0.842529
vn -0.612793 0.785156 -0.086182
vn -0.526367 0.389160 -0.755859
vn 0.284424 0.457031 -0.842529
vn 0.284424 0.457031 -0.842529
vn -0.526367 0.389160 -0.755859
vn 0.000000 -0.022217 -0.999512
vn -0.420654 0.675293 0.605469
vn -0.412109 0.820801 0.395264
vn 0.294922 0.860352 0.415283
vn -0.412109 0.820801 0.395264
vn -0.173584 0.941650 -0.287842
vn 0.294922 0.860352 0.415283
vn 0.294922 0.860352 0.415283
vn -0.173584 0.941650 -0.287842
vn 0.284668 0.940674 -0.183838
vn 0.294922 0.860352 0.415283
vn 0.557373 0.585693 0.588379
vn -0.420654 0.675293 0.605469
vn 0.962646 -0.030762 0.268066
vn 0.855713 -0.265869 0.443604
vn 0.718018 0.081543 0.690918
vn 0.855713 -0.265869 0.443604
vn 0.000000 -0.136963 0.990479
vn 0.718018 0.081543 0.690918
vn 0.718018 0.081543 0.690918
vn 0.000000 -0.136963 0.990479
vn -0.718018 0.081543 0.690918
vn 0.000000 -0.136963 0.990479
vn -0.855713 -0.265869 0.443604
vn -0.718018 0.081543 0.690918
vn -0.718018 0.081543 0.690918
vn -0.855713 -0.265869 0.443604
vn -0.962646 -0.030762 0.268066
vn 0.534424 -0.086182 -0.840576
vn 0.418945 -0.494629 -0.761230
vn 0.992188 0.031006 -0.120361
vn 0.992188 0.031006 -0.120361
vn 0.550537 0.525391 -0.648438
vn 0.534424 -0.086182 -0.840576
vn 0.550537 0.525391 -0.648438
vn -0.550293 0.330322 -0.766602
vn 0.534424 -0.086182 -0.840576
vn 0.534424 -0.086182 -0.840576
vn -0.550293 0.330322 -0.766602
vn -0.536621 -0.274414 -0.797607
vn -0.654541 -0.395508 -0.644043
vn -0.536621 -0.274414 -0.797607
vn -0.992188 0.031006 -0.120361
vn -0.536621 -0.274414 -0.797607
vn -0.550293 0.330322 -0.766602
vn -0.992188 0.031006 -0.120361
vn -0.992188 0.031006 -0.120361
vn -0.550293 0.330322 -0.766602
vn -0.426758 0.745361 -0.511475
vn -0.550293 0.330322 -0.766602
vn 0.550537 0.525391 -0.648438
vn -0.426758 0.745361 -0.511475
vn -0.426758 0.745361 -0.511475
vn 0.550537 0.525391 -0.648438
vn 0.668457 0.613037 -0.420654
vn 0.550537 0.525391 -0.648438
vn 0.992188 0.031006 -0.120361
vn 0.668457 0.613037 -0.420654
vn -0.696289 0.136475 0.704590
vn -0.690918 0.206787 -0.692383
vn -0.510254 0.668701 -0.540527
vn -0.985107 0.160156 0.060303
vn -0.822754 0.558838 0.101807
vn -0.872314 0.014160 0.488281
vn -0.872314 0.014160 0.488281
vn -0.822754 0.558838 0.101807
vn -0.343262 0.545166 0.764648
vn -0.822754 0.558838 0.101807
vn 0.640625 0.759521 0.110352
vn -0.343262 0.545166 0.764648
vn -0.343262 0.545166 0.764648
vn 0.640625 0.759521 0.110352
vn 0.565674 0.500488 0.655029
vn 0.640625 0.759521 0.110352
vn 0.688477 -0.096191 0.718750
vn 0.565674 0.500488 0.655029
vn 0.437988 0.193604 -0.877686
vn 0.881348 0.155273 0.446045
vn 0.741455 0.543701 -0.392578
vn 0.881348 0.155273 0.446045
vn 0.320312 0.723389 0.611328
vn 0.741455 0.543701 -0.392578
vn 0.741455 0.543701 -0.392578
vn 0.320312 0.723389 0.611328
vn -0.510254 0.668701 -0.540527
vn 0.320312 0.723389 0.611328
vn -0.544678 0.657471 0.520020
vn -0.510254 0.668701 -0.540527
vn -0.510254 0.668701 -0.540527
vn -0.544678 0.657471 0.520020
vn -0.696289 0.136475 0.704590
vn 0.640625 0.759521 0.110352
vn 0.985107 0.160156 0.060303
vn 0.688477 -0.096191 0.718750
vn -0.279297 -0.117676 -0.952881
vn -0.714600 -0.015137 -0.699219
vn -0.819580 -0.096924 -0.564453
vn -0.714600 -0.015137 -0.699219
vn -0.967773 0.048340 -0.246826
vn -0.819580 -0.096924 -0.564453
vn -0.819580 -0.096924 -0.564453
vn -0.967773 0.048340 -0.246826
vn -0.914551 -0.093994 -0.393066
vn -0.817871 0.573975 -0.036133
vn -0.993652 0.109375 0.019043
vn -0.967773 0.048340 -0.246826
vn 0.817871 0.573975 -0.036133
vn 0.761963 0.598633 -0.246582
vn 0.967773 0.048340 -0.246826
vn 0.761963 0.598633 -0.246582
vn 0.753418 0.274170 -0.597168
vn 0.967773 0.048340 -0.246826
vn 0.967773 0.048340 -0.246826
vn 0.753418 0.274170 -0.597168
vn 0.714600 -0.015137 -0.699219
vn 0.967773 0.048340 -0.246826
vn 0.993652 0.109375 0.019043
vn 0.817871 0.573975 -0.036133
vn -0.443848 0.895752 -0.019287
vn -0.817871 0.573975 -0.036133
vn -0.469482 0.870605 -0.145752
vn -0.469482 0.870605 -0.145752
vn -0.817871 0.573975 -0.036133
vn -0.761963 0.598633 -0.246582
vn -0.817871 0.573975 -0.036133
vn -0.967773 0.048340 -0.246826
vn -0.761963 0.598633 -0.246582
vn -0.761963 0.598633 -0.246582
vn -0.967773 0.048340 -0.246826
vn -0.753418 0.274170 -0.597168
vn -0.967773 0.048340 -0.246826
vn -0.714600 -0.015137 -0.699219
vn -0.753418 0.274170 -0.597168
vn -0.753418 0.274170 -0.597168
vn -0.714600 -0.015137 -0.699219
vn -0.399902 0.038818 -0.915527
vn -0.714600 -0.015137 -0.699219
vn -0.279297 -0.117676 -0.952881
vn -0.399902 0.038818 -0.915527
vn -0.399902 0.038818 -0.915527
vn -0.279297 -0.117676 -0.952881
vn 0.322510 0.003662 -0.946289
vn -0.279297 -0.117676 -0.952881
vn 0.370605 -0.111084 -0.921875
vn 0.322510 0.003662 -0.946289
vn 0.322510 0.003662 -0.946289
vn 0.370605 -0.111084 -0.921875
vn 0.714600 -0.015137 -0.699219
vn 0.370605 -0.111084 -0.921875
vn 0.819580 -0.096924 -0.564453
vn 0.714600 -0.015137 -0.699219
vn 0.714600 -0.015137 -0.699219
vn 0.819580 -0.096924 -0.564453
vn 0.967773 0.048340 -0.246826
vn 0.819580 -0.096924 -0.564453
vn 0.914551 -0.093994 -0.393066
vn 0.967773 0.048340 -0.246826
vn 0.714600 -0.015137 -0.699219
vn 0.753418 0.274170 -0.597168
vn 0.322510 0.003662 -0.946289
vn 0.322510 0.003662 -0.946289
vn 0.753418 0.274170 -0.597168
vn 0.539062 0.608398 -0.582275
vn 0.753418 0.274170 -0.597168
vn 0.761963 0.598633 -0.246582
vn 0.539062 0.608398 -0.582275
vn 0.539062 0.608398 -0.582275
vn 0.761963 0.598633 -0.246582
vn 0.469482 0.870605 -0.145752
vn 0.761963 0.598633 -0.246582
vn 0.817871 0.573975 -0.036133
vn 0.469482 0.870605 -0.145752
vn 0.469482 0.870605 -0.145752
vn 0.817871 0.573975 -0.036133
vn 0.443848 0.895752 -0.019287
vn -0.399902 0.038818 -0.915527
vn -0.539062 0.608398 -0.582275
vn -0.753418 0.274170 -0.597168
vn -0.753418 0.274170 -0.597168
vn -0.539062 0.608398 -0.582275
vn -0.761963 0.598633 -0.246582
vn -0.539062 0.608398 -0.582275
vn -0.469482 0.870605 -0.145752
vn -0.761963 0.598633 -0.246582
vn -0.412109 0.820801 0.395264
vn -0.420654 0.675293 0.605469
vn -0.846680 0.416504 0.330566
vn -0.846680 0.416504 0.330566
vn -0.420654 0.675293 0.605469
vn -0.946533 0.165771 0.276123
vn 0.294922 0.860352 0.415283
vn 0.846680 0.416504 0.330566
vn 0.557373 0.585693 0.588379
vn 0.557373 0.585693 0.588379
vn 0.846680 0.416504 0.330566
vn 0.946533 0.165771 0.276123
vn -0.986572 0.084229 0.138916
vn -0.934326 0.321289 -0.152588
vn -0.946533 0.165771 0.276123
vn -0.946533 0.165771 0.276123
vn -0.934326 0.321289 -0.152588
vn -0.846680 0.416504 0.330566
vn -0.934326 0.321289 -0.152588
vn -0.531982 0.673828 -0.512451
vn -0.846680 0.416504 0.330566
vn -0.846680 0.416504 0.330566
vn -0.531982 0.673828 -0.512451
vn -0.412109 0.820801 0.395264
vn -0.531982 0.673828 -0.512451
vn -0.173584 0.941650 -0.287842
vn -0.412109 0.820801 0.395264
vn 0.986572 0.084229 0.138916
vn 0.946533 0.165771 0.276123
vn 0.828369 0.388916 -0.402832
vn 0.946533 0.165771 0.276123
vn 0.846680 0.416504 0.330566
vn 0.828369 0.388916 -0.402832
vn 0.828369 0.388916 -0.402832
vn 0.846680 0.416504 0.330566
vn 0.531494 0.675293 -0.510986
vn 0.846680 0.416504 0.330566
vn 0.294922 0.860352 0.415283
vn 0.531494 0.675293 -0.510986
vn 0.531494 0.675293 -0.510986
vn 0.294922 0.860352 0.415283
vn 0.284668 0.940674 -0.183838
vn -0.611328 0.203125 0.764648
vn -0.694824 0.669678 0.261475
vn -0.226318 0.619873 0.750977
vn -0.226318 0.619873 0.750977
vn -0.694824 0.669678 0.261475
vn 0.643555 0.749512 0.153809
vn -0.694824 0.669678 0.261475
vn 0.278076 0.853027 -0.440918
vn 0.643555 0.749512 0.153809
vn 0.643555 0.749512 0.153809
vn 0.278076 0.853027 -0.440918
vn 0.687744 0.023926 -0.725342
vn 0.278076 0.853027 -0.440918
vn -0.471924 0.394043 -0.788330
vn 0.687744 0.023926 -0.725342
vn 0.687744 0.023926 -0.725342
vn -0.471924 0.394043 -0.788330
vn -0.908447 -0.018799 -0.417480
vn -0.471924 0.394043 -0.788330
vn -0.694824 0.669678 0.261475
vn -0.908447 -0.018799 -0.417480
vn -0.908447 -0.018799 -0.417480
vn -0.694824 0.669678 0.261475
vn -0.973877 -0.005371 0.226807
vn -0.694824 0.669678 0.261475
vn -0.611328 0.203125 0.764648
vn -0.973877 -0.005371 0.226807
vn -0.973877 -0.005371 0.226807
vn -0.611328 0.203125 0.764648
vn -0.648193 0.000000 0.761230
vn 0.278076 0.853027 -0.440918
vn -0.694824 0.669678 0.261475
vn -0.471924 0.394043 -0.788330
vn 0.611328 0.203125 0.764648
vn 0.226318 0.619873 0.750977
vn 0.694824 0.669678 0.261475
vn 0.226318 0.619873 0.750977
vn -0.643555 0.749512 0.153809
vn 0.694824 0.669678 0.261475
vn 0.694824 0.669678 0.261475
vn -0.643555 0.749512 0.153809
vn -0.278076 0.853027 -0.440918
vn -0.643555 0.749512 0.153809
vn -0.687744 0.023926 -0.725342
vn -0.278076 0.853027 -0.440918
vn -0.278076 0.853027 -0.440918
vn -0.687744 0.023926 -0.725342
vn 0.471924 0.394043 -0.788330
vn -0.687744 0.023926 -0.725342
vn 0.908447 -0.018799 -0.417480
vn 0.471924 0.394043 -0.788330
vn 0.471924 0.394043 -0.788330
vn 0.908447 -0.018799 -0.417480
vn 0.694824 0.669678 0.261475
vn 0.908447 -0.018799 -0.417480
vn 0.973877 -0.005371 0.226807
vn 0.694824 0.669678 0.261475
vn 0.694824 0.669678 0.261475
vn 0.973877 -0.005371 0.226807
vn 0.611328 0.203125 0.764648
vn 0.973877 -0.005371 0.226807
vn 0.648193 0.000000 0.761230
vn 0.611328 0.203125 0.764648
vn 0.471924 0.394043 -0.788330
vn 0.694824 0.669678 0.261475
vn -0.278076 0.853027 -0.440918
vn 0.687744 0.023926 -0.725342
vn 0.994385 0.069580 -0.076660
vn 0.643555 0.749512 0.153809
vn -0.643555 0.749512 0.153809
vn -0.994385 0.069580 -0.076660
vn -0.687744 0.023926 -0.725342
vn 0.885742 0.384033 0.260010
vn 0.536621 0.622803 0.569092
vn 0.943848 -0.135742 0.300781
vn 0.536621 0.622803 0.569092
vn 0.640625 0.365723 0.675049
vn 0.943848 -0.135742 0.300781
vn 0.943848 -0.135742 0.300781
vn 0.640625 0.365723 0.675049
vn 0.962158 -0.087402 0.257568
vn 0.943848 -0.135742 0.300781
vn 0.592773 -0.149414 0.791260
vn 0.885742 0.384033 0.260010
vn 0.592773 -0.149414 0.791260
vn 0.624512 0.167236 0.762695
vn 0.885742 0.384033 0.260010
vn 0.885742 0.384033 0.260010
vn 0.624512 0.167236 0.762695
vn 0.282227 0.936035 0.209717
vn 0.624512 0.167236 0.762695
vn -0.421387 0.198730 0.884521
vn 0.282227 0.936035 0.209717
vn 0.282227 0.936035 0.209717
vn -0.421387 0.198730 0.884521
vn -0.495850 0.826416 0.265869
vn -0.421387 0.198730 0.884521
vn -0.720947 0.674316 0.158691
vn -0.495850 0.826416 0.265869
vn -0.820312 0.199463 0.535889
vn -0.943848 -0.135742 0.300781
vn -0.962158 -0.087402 0.257568
vn -0.820312 0.199463 0.535889
vn -0.513428 0.498779 0.697998
vn -0.943848 -0.135742 0.300781
vn -0.513428 0.498779 0.697998
vn -0.720947 0.674316 0.158691
vn -0.943848 -0.135742 0.300781
vn -0.943848 -0.135742 0.300781
vn -0.720947 0.674316 0.158691
vn -0.766357 -0.062256 0.638916
vn -0.720947 0.674316 0.158691
vn -0.421387 0.198730 0.884521
vn -0.766357 -0.062256 0.638916
vn 0.565674 0.500488 0.655029
vn 0.688477 -0.096191 0.718750
vn -0.343262 0.545166 0.764648
vn -0.343262 0.545166 0.764648
vn 0.688477 -0.096191 0.718750
vn -0.872314 0.014160 0.488281
vn -0.654541 -0.395508 -0.644043
vn 0.418945 -0.494629 -0.761230
vn -0.536621 -0.274414 -0.797607
vn -0.536621 -0.274414 -0.797607
vn 0.418945 -0.494629 -0.761230
vn 0.534424 -0.086182 -0.840576
vn -0.353271 0.000000 0.935303
vn -0.568359 0.000000 0.822754
vn -0.446777 0.366211 0.815918
vn -0.446777 0.366211 0.815918
vn -0.568359 0.000000 0.822754
vn -0.704102 0.453369 0.546143
vn 0.704102 0.453369 0.546143
vn 0.568359 0.000000 0.822754
vn 0.446777 0.366211 0.815918
vn 0.446777 0.366211 0.815918
vn 0.568359 0.000000 0.822754
vn 0.353271 0.000000 0.935303
vn 0.624512 0.167236 0.762695
vn 0.592773 -0.149414 0.791260
vn -0.421387 0.198730 0.884521
vn -0.421387 0.198730 0.884521
vn 0.592773 -0.149414 0.791260
vn -0.766357 -0.062256 0.638916
vn 0.908203 -0.106689 0.404297
vn 0.586670 0.099365 0.803467
vn 0.546875 -0.340332 0.764648
vn 0.586670 0.099365 0.803467
vn -0.389648 0.106934 0.914551
vn 0.546875 -0.340332 0.764648
vn 0.546875 -0.340332 0.764648
vn -0.389648 0.106934 0.914551
vn -0.712891 -0.309570 0.628906
vn -0.389648 0.106934 0.914551
vn -0.908203 -0.106689 0.404297
vn -0.712891 -0.309570 0.628906
vn -0.712891 -0.309570 0.628906
vn -0.908203 -0.106689 0.404297
vn -0.964844 0.140137 0.220947
vn -0.908203 -0.106689 0.404297
vn -0.937256 -0.208252 0.278564
vn -0.964844 0.140137 0.220947
vn 0.546875 -0.340332 0.764648
vn 0.964844 0.140137 0.220947
vn 0.908203 -0.106689 0.404297
vn 0.908203 -0.106689 0.404297
vn 0.964844 0.140137 0.220947
vn 0.937256 -0.208252 0.278564
vn 0.409668 0.743652 0.527832
vn -0.541992 0.697021 0.469238
vn -0.252197 0.874756 0.413086
vn -0.541992 0.697021 0.469238
vn -0.457031 0.878662 -0.137207
vn -0.252197 0.874756 0.413086
vn -0.252197 0.874756 0.413086
vn -0.457031 0.878662 -0.137207
vn 0.256348 0.950195 0.176025
vn -0.457031 0.878662 -0.137207
vn 0.469238 0.848145 -0.245361
vn 0.256348 0.950195 0.176025
vn 0.256348 0.950195 0.176025
vn 0.469238 0.848145 -0.245361
vn 0.409668 0.743652 0.527832
vn 0.469238 0.848145 -0.245361
vn 0.964844 0.140137 0.220947
vn 0.409668 0.743652 0.527832
vn 0.256348 0.950195 0.176025
vn 0.409668 0.743652 0.527832
vn -0.252197 0.874756 0.413086
vn 0.908203 -0.106689 0.404297
vn 0.338379 0.500732 0.796387
vn 0.586670 0.099365 0.803467
vn 0.586670 0.099365 0.803467
vn 0.338379 0.500732 0.796387
vn -0.389648 0.106934 0.914551
vn 0.338379 0.500732 0.796387
vn -0.517822 0.453857 0.724854
vn -0.389648 0.106934 0.914551
vn -0.389648 0.106934 0.914551
vn -0.517822 0.453857 0.724854
vn -0.908203 -0.106689 0.404297
vn -0.951660 -0.197266 0.234375
vn -0.983154 -0.097900 0.154053
vn -0.886230 0.335449 -0.318848
vn -0.541992 0.697021 0.469238
vn -0.964844 0.140137 0.220947
vn -0.457031 0.878662 -0.137207
vn -0.964844 0.140137 0.220947
vn -0.886230 0.335449 -0.318848
vn -0.457031 0.878662 -0.137207
vn -0.457031 0.878662 -0.137207
vn -0.886230 0.335449 -0.318848
vn 0.469238 0.848145 -0.245361
vn -0.886230 0.335449 -0.318848
vn 0.969482 0.177246 -0.167725
vn 0.469238 0.848145 -0.245361
vn 0.469238 0.848145 -0.245361
vn 0.969482 0.177246 -0.167725
vn 0.964844 0.140137 0.220947
vn 0.969482 0.177246 -0.167725
vn 0.937256 -0.208252 0.278564
vn 0.964844 0.140137 0.220947
vn 0.908203 -0.106689 0.404297
vn 0.937256 -0.208252 0.278564
vn 0.951660 -0.197266 0.234375
vn 0.937256 -0.208252 0.278564
vn 0.969482 0.177246 -0.167725
vn 0.951660 -0.197266 0.234375
vn 0.951660 -0.197266 0.234375
vn 0.969482 0.177246 -0.167725
vn 0.983154 -0.097900 0.154053
vn -0.908203 -0.106689 0.404297
vn -0.951660 -0.197266 0.234375
vn -0.937256 -0.208252 0.278564
vn -0.951660 -0.197266 0.234375
vn -0.886230 0.335449 -0.318848
vn -0.937256 -0.208252 0.278564
vn -0.937256 -0.208252 0.278564
vn -0.886230 0.335449 -0.318848
vn -0.964844 0.140137 0.220947
vn -0.513916 -0.618164 -0.594482
vn -0.924805 0.208008 0.317871
vn -0.638184 0.441650 0.630371
vn -0.638184 0.441650 0.630371
vn -0.924805 0.208008 0.317871
vn 0.958252 0.285645 -0.005615
vn -0.924805 0.208008 0.317871
vn -0.513916 -0.618164 -0.594482
vn 0.958252 0.285645 -0.005615
vn 0.513916 -0.618164 -0.594482
vn 0.638184 0.441650 0.630371
vn 0.924805 0.208008 0.317871
vn 0.638184 0.441650 0.630371
vn -0.958252 0.285645 -0.005615
vn 0.924805 0.208008 0.317871
vn 0.924805 0.208008 0.317871
vn -0.958252 0.285645 -0.005615
vn 0.513916 -0.618164 -0.594482
vn -0.513916 -0.529297 -0.674805
vn -0.924805 0.161621 0.343750
vn -0.638184 0.349609 0.685791
vn -0.638184 0.349609 0.685791
vn -0.924805 0.161621 0.343750
vn 0.958252 0.283691 0.033936
vn -0.924805 0.161621 0.343750
vn -0.513916 -0.529297 -0.674805
vn 0.958252 0.283691 0.033936
vn 0.513916 -0.529297 -0.674805
vn 0.638184 0.349609 0.685791
vn 0.924805 0.161621 0.343750
vn 0.638184 0.349609 0.685791
vn -0.958252 0.283691 0.033936
vn 0.924805 0.161621 0.343750
vn 0.924805 0.161621 0.343750
vn -0.958252 0.283691 0.033936
vn 0.513916 -0.529297 -0.674805
vn 0.741455 0.543701 -0.392578
vn -0.510254 0.668701 -0.540527
vn 0.437988 0.193604 -0.877686
vn 0.437988 0.193604 -0.877686
vn -0.510254 0.668701 -0.540527
vn -0.690918 0.206787 -0.692383
vn -0.544678 0.657471 0.520020
vn 0.320312 0.723389 0.611328
vn -0.696289 0.136475 0.704590
vn -0.696289 0.136475 0.704590
vn 0.320312 0.723389 0.611328
vn 0.881348 0.155273 0.446045
vn 0.284668 0.940674 -0.183838
vn -0.173584 0.941650 -0.287842
vn 0.531494 0.675293 -0.510986
vn -0.173584 0.941650 -0.287842
vn -0.531982 0.673828 -0.512451
vn 0.531494 0.675293 -0.510986
vn 0.531494 0.675293 -0.510986
vn -0.531982 0.673828 -0.512451
vn 0.828369 0.388916 -0.402832
vn -0.531982 0.673828 -0.512451
vn -0.934326 0.321289 -0.152588
vn 0.828369 0.388916 -0.402832
vn -0.648193 0.000000 0.761230
vn -0.611328 0.203125 0.764648
vn -0.169678 0.000000 0.985352
vn -0.169678 0.000000 0.985352
vn -0.611328 0.203125 0.764648
vn -0.226318 0.619873 0.750977
vn 0.648193 0.000000 0.761230
vn 0.169678 0.000000 0.985352
vn 0.611328 0.203125 0.764648
vn 0.611328 0.203125 0.764648
vn 0.169678 0.000000 0.985352
vn 0.226318 0.619873 0.750977
vn -0.495850 0.826416 0.265869
vn -0.720947 0.674316 0.158691
vn 0.282227 0.936035 0.209717
vn 0.282227 0.936035 0.209717
vn -0.720947 0.674316 0.158691
vn 0.885742 0.384033 0.260010
vn 0.885742 0.384033 0.260010
vn -0.720947 0.674316 0.158691
vn 0.536621 0.622803 0.569092
vn -0.720947 0.674316 0.158691
vn -0.513428 0.498779 0.697998
vn 0.536621 0.622803 0.569092
vn 0.536621 0.622803 0.569092
vn -0.513428 0.498779 0.697998
vn 0.640625 0.365723 0.675049
vn -0.513428 0.498779 0.697998
vn -0.820312 0.199463 0.535889
vn 0.640625 0.365723 0.675049
usemtl Texture
f 1/1/1 2/2/2 3/3/3
f 4/4/4 5/5/5 6/6/6
f 7/7/7 8/8/8 9/9/9
f 10/10/10 11/11/11 12/12/12
f 13/13/13 14/14/14 15/15/15
f 16/16/16 17/17/17 18/18/18
f 19/19/19 20/20/20 21/21/21
f 22/22/22 23/23/23 24/24/24
f 25/25/25 26/26/26 27/27/27
f 28/28/28 29/29/29 30/30/30
f 31/31/31 32/32/32 33/33/33
f 34/34/34 35/35/35 36/36/36
f 37/37/37 38/38/38 39/39/39
f 40/40/40 41/41/41 42/42/42
f 43/43/43 44/44/44 45/45/45
f 46/46/46 47/47/47 48/48/48
f 49/49/49 50/50/50 51/51/51
f 52/52/52 53/53/53 54/54/54
f 55/55/55 56/56/56 57/57/57
f 58/58/58 59/59/59 60/60/60
f 61/61/61 62/62/62 63/63/63
f 64/64/64 65/65/65 66/66/66
f 67/67/67 68/68/68 69/69/69
f 70/70/70 71/71/71 72/72/72
f 73/73/73 74/74/74 75/75/75
f 76/76/76 77/77/77 78/78/78
f 79/79/79 80/80/80 81/81/81
f 82/82/82 83/83/83 84/84/84
f 85/85/85 86/86/86 87/87/87
f 88/88/88 89/89/89 90/90/90
f 91/91/91 92/92/92 93/93/93
f 94/94/94 95/95/95 96/96/96
f 97/97/97 98/98/98 99/99/99
f 100/100/100 101/101/101 102/102/102
f 103/103/103 104/104/104 105/105/105
f 106/106/106 107/107/107 108/108/108
f 109/109/109 110/110/110 111/111/111
f 112/112/112 113/113/113 114/114/114
f 115/115/115 116/116/116 117/117/117
f 118/118/118 119/119/119 120/120/120
f 121/121/121 122/122/122 123/123/123
f 124/124/124 125/125/125 126/126/126
f 127/127/127 128/128/128 129/129/129
f 130/130/130 131/131/131 132/132/132
f 133/133/133 134/134/134 135/135/135
f 136/136/136 137/137/137 138/138/138
f 139/139/139 140/140/140 141/141/141
f 142/142/142 143/143/143 144/144/144
f 145/145/145 146/146/146 147/147/147
f 148/148/148 149/149/149 150/150/150
f 151/151/151 152/152/152 153/153/153
f 154/154/154 155/155/155 156/156/156
f 157/157/157 158/158/158 159/159/159
f 160/160/160 161/161/161 162/162/162
f 163/163/163 164/164/164 165/165/165
f 166/166/166 167/167/167 168/168/168
f 169/169/169 170/170/170 171/171/171
f 172/172/172 173/173/173 174/174/174
f 175/175/175 176/176/176 177/177/177
f 178/178/178 179/179/179 180/180/180
f 181/181/181 182/182/182 183/183/183
f 184/184/184 185/185/185 186/186/186
f 187/187/187 188/188/188 189/189/189
f 190/190/190 191/191/191 192/192/192
f 193/193/193 194/194/194 195/195/195
f 196/196/196 197/197/197 198/198/198
f 199/199/199 200/200/200 201/201/201
f 202/202/202 203/203/203 204/204/204
f 205/205/205 206/206/206 207/207/207
f 208/208/208 209/209/209 210/210/210
f 211/211/211 212/212/212 213/213/213
f 214/214/214 215/215/215 216/216/216
f 217/217/217 218/218/218 219/219/219
f 220/220/220 221/221/221 222/222/222
f 223/223/223 224/224/224 225/225/225
f 226/226/226 227/227/227 228/228/228
f 229/229/229 230/230/230 231/231/231
f 232/232/232 233/233/233 234/234/234
f 235/235/235 236/236/236 237/237/237
f 238/238/238 239/239/239 240/240/240
f 241/241/241 242/242/242 243/243/243
f 244/244/244 245/245/245 246/246/246
f 247/247/247 248/248/248 249/249/249
f 250/250/250 251/251/251 252/252/252
f 253/253/253 254/254/254 255/255/255
f 256/256/256 257/257/257 258/258/258
f 259/259/259 260/260/260 261/261/261
f 262/262/262 263/263/263 264/264/264
f 265/265/265 266/266/266 267/267/267
f 268/268/268 269/269/269 270/270/270
f 271/271/271 272/272/272 273/273/273
f 274/274/274 275/275/275 276/276/276
f 277/277/277 278/278/278 279/279/279
f 280/280/280 281/281/281 282/282/282
f 283/283/283 284/284/284 285/285/285
f 286/286/286 287/287/287 288/288/288
f 289/289/289 290/290/290 291/291/291
f 292/292/292 293/293/293 294/294/294
f 295/295/295 296/296/296 297/297/297
f 298/298/298 299/299/299 300/300/300
f 301/301/301 302/302/302 303/303/303
f 304/304/304 305/305/305 306/306/306
f 307/307/307 308/308/308 309/309/309
f 310/310/310 311/311/311 312/312/312
f 313/313/313 314/314/314 315/315/315
f 316/316/316 317/317/317 318/318/318
f 319/319/319 320/320/320 321/321/321
f 322/322/322 323/323/323 324/324/324
f 325/325/325 326/326/326 327/327/327
f 328/328/328 329/329/329 330/330/330
f 331/331/331 332/332/332 333/333/333
f 334/334/334 335/335/335 336/336/336
f 337/337/337 338/338/338 339/339/339
f 340/340/340 341/341/341 342/342/342
f 343/343/343 344/344/344 345/345/345
f 346/346/346 347/347/347 348/348/348
f 349/349/349 350/350/350 351/351/351
f 352/352/352 353/353/353 354/354/354
f 355/355/355 356/356/356 357/357/357
f 358/358/358 359/359/359 360/360/360
f 361/361/361 362/362/362 363/363/363
f 364/364/364 365/365/365 366/366/366
f 367/367/367 368/368/368 369/369/369
f 370/370/370 371/371/371 372/372/372
f 373/373/373 374/374/374 375/375/375
f 376/376/376 377/377/377 378/378/378
f 379/379/379 380/380/380 381/381/381
f 382/382/382 383/383/383 384/384/384
f 385/385/385 386/386/386 387/387/387
f 388/388/388 389/389/389 390/390/390
f 391/391/391 392/392/392 393/393/393
f 394/394/394 395/395/395 396/396/396
f 397/397/397 398/398/398 399/399/399
f 400/400/400 401/401/401 402/402/402
f 403/403/403 404/404/404 405/405/405
f 406/406/406 407/407/407 408/408/408
f 409/409/409 410/410/410 411/411/411
f 412/412/412 413/413/413 414/414/414
f 415/415/415 416/416/416 417/417/417
f 418/418/418 419/419/419 420/420/420
f 421/421/421 422/422/422 423/423/423
f 424/424/424 425/425/425 426/426/426
f 427/427/427 428/428/428 429/429/429
f 430/430/430 431/431/431 432/432/432
f 433/433/433 434/434/434 435/435/435
f 436/436/436 437/437/437 438/438/438
f 439/439/439 440/440/440 441/441/441
f 442/442/442 443/443/443 444/444/444
f 445/445/445 446/446/446 447/447/447
f 448/448/448 449/449/449 450/450/450
f 451/451/451 452/452/452 453/453/453
f 454/454/454 455/455/455 456/456/456
f 457/457/457 458/458/458 459/459/459
f 460/460/460 461/461/461 462/462/462
f 463/463/463 464/464/464 465/465/465
f 466/466/466 467/467/467 468/468/468
f 469/469/469 470/470/470 471/471/471
f 472/472/472 473/473/473 474/474/474
f 475/475/475 476/476/476 477/477/477
f 478/478/478 479/479/479 480/480/480
f 481/481/481 482/482/482 483/483/483
f 484/484/484 485/485/485 486/486/486
f 487/487/487 488/488/488 489/489/489
f 490/490/490 491/491/491 492/492/492
f 493/493/493 494/494/494 495/495/495
f 496/496/496 497/497/497 498/498/498
f 499/499/499 500/500/500 501/501/501
f 502/502/502 503/503/503 504/504/504
f 505/505/505 506/506/506 507/507/507
f 508/508/508 509/509/509 510/510/510
f 511/511/511 512/512/512 513/513/513
f 514/514/514 515/515/515 516/516/516
f 517/517/517 518/518/518 519/519/519
f 520/520/520 521/521/521 522/522/522
f 523/523/523 524/524/524 525/525/525
f 526/526/526 527/527/527 528/528/528
f 529/529/529 530/530/530 531/531/531
f 532/532/532 533/533/533 534/534/534
f 535/535/535 536/536/536 537/537/537
f 538/538/538 539/539/539 540/540/540
f 541/541/541 542/542/542 543/543/543
f 544/544/544 545/545/545 546/546/546
f 547/547/547 548/548/548 549/549/549
f 550/550/550 551/551/551 552/552/552
f 553/553/553 554/554/554 555/555/555
f 556/556/556 557/557/557 558/558/558
f 559/559/559 560/560/560 561/561/561
f 562/562/562 563/563/563 564/564/564
f 565/565/565 566/566/566 567/567/567
f 568/568/568 569/569/569 570/570/570
f 571/571/571 572/572/572 573/573/573
f 574/574/574 575/575/575 576/576/576
f 577/577/577 578/578/578 579/579/579
f 580/580/580 581/581/581 582/582/582
f 583/583/583 584/584/584 585/585/585
f 586/586/586 587/587/587 588/588/588
f 589/589/589 590/590/590 591/591/591
f 592/592/592 593/593/593 594/594/594
f 595/595/595 596/596/596 597/597/597
f 598/598/598 599/599/599 600/600/600
f 601/601/601 602/602/602 603/603/603
f 604/604/604 605/605/605 606/606/606
f 607/607/607 608/608/608 609/609/609
f 610/610/610 611/611/611 612/612/612
f 613/613/613 614/614/614 615/615/615
