# OBJ file
mtllib izayoi.ico.mtl
v -0.069824 0.747559 0.172363 0.498039 0.498039 0.498039 #0.501961
v -0.304932 0.656738 0.000000 0.498039 0.498039 0.498039 #0.501961
v 0.134766 0.422119 0.000000 0.498039 0.498039 0.498039 #0.501961
v 0.135254 0.589600 -0.090332 0.498039 0.498039 0.498039 #0.501961
v 0.134766 0.422119 0.000000 0.498039 0.498039 0.498039 #0.501961
v -0.304932 0.656738 0.000000 0.498039 0.498039 0.498039 #0.501961
v 0.134766 0.422119 0.000000 0.498039 0.498039 0.498039 #0.501961
v 0.135254 0.589600 -0.090332 0.498039 0.498039 0.498039 #0.501961
v 0.363525 0.566650 -0.077393 0.498039 0.498039 0.498039 #0.501961
v 0.234131 0.871826 -0.164551 0.498039 0.498039 0.498039 #0.501961
v 0.363525 0.566650 -0.077393 0.498039 0.498039 0.498039 #0.501961
v 0.135254 0.589600 -0.090332 0.498039 0.498039 0.498039 #0.501961
v 0.363525 0.566650 -0.077393 0.498039 0.498039 0.498039 #0.501961
v 0.234131 0.871826 -0.164551 0.498039 0.498039 0.498039 #0.501961
v 0.458008 0.483154 0.000000 0.498039 0.498039 0.498039 #0.501961
v 0.420898 0.844971 0.000000 0.498039 0.498039 0.498039 #0.501961
v 0.458008 0.483154 0.000000 0.498039 0.498039 0.498039 #0.501961
v 0.234131 0.871826 -0.164551 0.498039 0.498039 0.498039 #0.501961
v 0.458008 0.483154 0.000000 0.498039 0.498039 0.498039 #0.501961
v 0.420898 0.844971 0.000000 0.498039 0.498039 0.498039 #0.501961
v 0.363525 0.566650 0.077393 0.498039 0.498039 0.498039 #0.501961
v 0.234131 0.871826 0.164551 0.498039 0.498039 0.498039 #0.501961
v 0.363525 0.566650 0.077393 0.498039 0.498039 0.498039 #0.501961
v 0.420898 0.844971 0.000000 0.498039 0.498039 0.498039 #0.501961
v 0.363525 0.566650 0.077393 0.498039 0.498039 0.498039 #0.501961
v 0.234131 0.871826 0.164551 0.498039 0.498039 0.498039 #0.501961
v -0.069824 0.747559 0.172363 0.498039 0.498039 0.498039 #0.501961
v -0.244873 0.936768 0.245361 0.498039 0.498039 0.498039 #0.501961
v -0.069824 0.747559 0.172363 0.498039 0.498039 0.498039 #0.501961
v 0.234131 0.871826 0.164551 0.498039 0.498039 0.498039 #0.501961
v -0.069824 0.747559 0.172363 0.498039 0.498039 0.498039 #0.501961
v -0.244873 0.936768 0.245361 0.498039 0.498039 0.498039 #0.501961
v -0.304932 0.656738 0.000000 0.498039 0.498039 0.498039 #0.501961
v -0.534424 0.857910 0.000000 0.498039 0.498039 0.498039 #0.501961
v -0.304932 0.656738 0.000000 0.498039 0.498039 0.498039 #0.501961
v -0.244873 0.936768 0.245361 0.498039 0.498039 0.498039 #0.501961
v -0.304932 0.656738 0.000000 0.498039 0.498039 0.498039 #0.501961
v -0.534424 0.857910 0.000000 0.498039 0.498039 0.498039 #0.501961
v -0.069824 0.747559 -0.172363 0.498039 0.498039 0.498039 #0.501961
v -0.244873 0.936768 -0.245361 0.498039 0.498039 0.498039 #0.501961
v -0.069824 0.747559 -0.172363 0.498039 0.498039 0.498039 #0.501961
v -0.534424 0.857910 0.000000 0.498039 0.498039 0.498039 #0.501961
v -0.069824 0.747559 -0.172363 0.498039 0.498039 0.498039 #0.501961
v -0.244873 0.936768 -0.245361 0.498039 0.498039 0.498039 #0.501961
v 0.146240 1.128174 -0.314453 0.498039 0.498039 0.498039 #0.501961
v -0.512451 1.188721 -0.309814 0.498039 0.498039 0.498039 #0.501961
v 0.146240 1.128174 -0.314453 0.498039 0.498039 0.498039 #0.501961
v -0.244873 0.936768 -0.245361 0.498039 0.498039 0.498039 #0.501961
v 0.146240 1.128174 -0.314453 0.498039 0.498039 0.498039 #0.501961
v -0.512451 1.188721 -0.309814 0.498039 0.498039 0.498039 #0.501961
v 0.209961 1.391357 -0.391357 0.498039 0.498039 0.498039 #0.501961
v -0.679443 1.591064 -0.367676 0.498039 0.498039 0.498039 #0.501961
v 0.209961 1.391357 -0.391357 0.498039 0.498039 0.498039 #0.501961
v -0.512451 1.188721 -0.309814 0.498039 0.498039 0.498039 #0.501961
v 0.209961 1.391357 -0.391357 0.498039 0.498039 0.498039 #0.501961
v -0.679443 1.591064 -0.367676 0.498039 0.498039 0.498039 #0.501961
v 0.113525 1.785156 -0.520020 0.498039 0.498039 0.498039 #0.501961
v -0.858398 2.039795 -0.409668 0.498039 0.498039 0.498039 #0.501961
v 0.113525 1.785156 -0.520020 0.498039 0.498039 0.498039 #0.501961
v -0.679443 1.591064 -0.367676 0.498039 0.498039 0.498039 #0.501961
v 0.113525 1.785156 -0.520020 0.498039 0.498039 0.498039 #0.501961
v -0.858398 2.039795 -0.409668 0.498039 0.498039 0.498039 #0.501961
v 0.000000 2.250000 -0.579346 0.498039 0.498039 0.498039 #0.501961
v -0.906738 2.520508 -0.378418 0.498039 0.498039 0.498039 #0.501961
v 0.000000 2.250000 -0.579346 0.498039 0.498039 0.498039 #0.501961
v -0.858398 2.039795 -0.409668 0.498039 0.498039 0.498039 #0.501961
v 0.000000 2.250000 -0.579346 0.498039 0.498039 0.498039 #0.501961
v -0.906738 2.520508 -0.378418 0.498039 0.498039 0.498039 #0.501961
v -0.113525 2.714600 -0.535156 0.498039 0.498039 0.498039 #0.501961
v -0.817139 2.959961 -0.289551 0.498039 0.498039 0.498039 #0.501961
v -0.113525 2.714600 -0.535156 0.498039 0.498039 0.498039 #0.501961
v -0.906738 2.520508 -0.378418 0.498039 0.498039 0.498039 #0.501961
v -0.113525 2.714600 -0.535156 0.498039 0.498039 0.498039 #0.501961
v -0.817139 2.959961 -0.289551 0.498039 0.498039 0.498039 #0.501961
v -0.209961 3.108398 -0.409668 0.498039 0.498039 0.498039 #0.501961
v -0.603027 3.291260 -0.156738 0.498039 0.498039 0.498039 #0.501961
v -0.209961 3.108398 -0.409668 0.498039 0.498039 0.498039 #0.501961
v -0.817139 2.959961 -0.289551 0.498039 0.498039 0.498039 #0.501961
v -0.209961 3.108398 -0.409668 0.498039 0.498039 0.498039 #0.501961
v -0.603027 3.291260 -0.156738 0.498039 0.498039 0.498039 #0.501961
v -0.274414 3.371582 -0.221680 0.498039 0.498039 0.498039 #0.501961
v -0.297119 3.464111 0.000000 0.498039 0.498039 0.498039 #0.501961
v -0.274414 3.371582 -0.221680 0.498039 0.498039 0.498039 #0.501961
v -0.603027 3.291260 -0.156738 0.498039 0.498039 0.498039 #0.501961
v -0.274414 3.371582 -0.221680 0.498039 0.498039 0.498039 #0.501961
v -0.297119 3.464111 0.000000 0.498039 0.498039 0.498039 #0.501961
v 0.053955 3.452148 -0.156738 0.498039 0.498039 0.498039 #0.501961
v 0.189941 3.485352 0.000000 0.498039 0.498039 0.498039 #0.501961
v 0.053955 3.452148 -0.156738 0.498039 0.498039 0.498039 #0.501961
v -0.297119 3.464111 0.000000 0.498039 0.498039 0.498039 #0.501961
v 0.053955 3.452148 -0.156738 0.498039 0.498039 0.498039 #0.501961
v 0.189941 3.485352 0.000000 0.498039 0.498039 0.498039 #0.501961
v 0.648438 3.318604 0.000000 0.498039 0.498039 0.498039 #0.501961
v 0.396973 3.257080 0.289551 0.498039 0.498039 0.498039 #0.501961
v 0.648438 3.318604 0.000000 0.498039 0.498039 0.498039 #0.501961
v 0.189941 3.485352 0.000000 0.498039 0.498039 0.498039 #0.501961
v 0.648438 3.318604 0.000000 0.498039 0.498039 0.498039 #0.501961
v 0.396973 3.257080 0.289551 0.498039 0.498039 0.498039 #0.501961
v 0.679443 2.908691 0.378418 0.498039 0.498039 0.498039 #0.501961
v -0.113525 2.714600 0.535156 0.498039 0.498039 0.498039 #0.501961
v 0.679443 2.908691 0.378418 0.498039 0.498039 0.498039 #0.501961
v 0.396973 3.257080 0.289551 0.498039 0.498039 0.498039 #0.501961
v 0.679443 2.908691 0.378418 0.498039 0.498039 0.498039 #0.501961
v -0.113525 2.714600 0.535156 0.498039 0.498039 0.498039 #0.501961
v 0.000000 2.250000 0.579346 0.498039 0.498039 0.498039 #0.501961
v -0.858398 2.039795 0.409668 0.498039 0.498039 0.498039 #0.501961
v 0.000000 2.250000 0.579346 0.498039 0.498039 0.498039 #0.501961
v -0.113525 2.714600 0.535156 0.498039 0.498039 0.498039 #0.501961
v 0.000000 2.250000 0.579346 0.498039 0.498039 0.498039 #0.501961
v -0.858398 2.039795 0.409668 0.498039 0.498039 0.498039 #0.501961
v -0.679443 1.591064 0.367676 0.498039 0.498039 0.498039 #0.501961
v -1.007813 1.510742 0.000000 0.498039 0.498039 0.498039 #0.501961
v -0.679443 1.591064 0.367676 0.498039 0.498039 0.498039 #0.501961
v -0.858398 2.039795 0.409668 0.498039 0.498039 0.498039 #0.501961
v -0.679443 1.591064 0.367676 0.498039 0.498039 0.498039 #0.501961
v -1.007813 1.510742 0.000000 0.498039 0.498039 0.498039 #0.501961
v -0.763916 1.127197 0.000000 0.498039 0.498039 0.498039 #0.501961
v -0.512451 1.188721 -0.309814 0.498039 0.498039 0.498039 #0.501961
v -0.763916 1.127197 0.000000 0.498039 0.498039 0.498039 #0.501961
v -1.007813 1.510742 0.000000 0.498039 0.498039 0.498039 #0.501961
v -0.763916 1.127197 0.000000 0.498039 0.498039 0.498039 #0.501961
v -0.512451 1.188721 -0.309814 0.498039 0.498039 0.498039 #0.501961
v -0.244873 0.936768 -0.245361 0.498039 0.498039 0.498039 #0.501961
v -0.679443 1.591064 0.367676 0.498039 0.498039 0.498039 #0.501961
v -0.763916 1.127197 0.000000 0.498039 0.498039 0.498039 #0.501961
v -0.512451 1.188721 0.309814 0.498039 0.498039 0.498039 #0.501961
v -0.534424 0.857910 0.000000 0.498039 0.498039 0.498039 #0.501961
v -0.512451 1.188721 0.309814 0.498039 0.498039 0.498039 #0.501961
v -0.763916 1.127197 0.000000 0.498039 0.498039 0.498039 #0.501961
v -0.512451 1.188721 0.309814 0.498039 0.498039 0.498039 #0.501961
v -0.534424 0.857910 0.000000 0.498039 0.498039 0.498039 #0.501961
v -0.244873 0.936768 0.245361 0.498039 0.498039 0.498039 #0.501961
v -1.214111 1.952637 0.000000 0.498039 0.498039 0.498039 #0.501961
v -0.906738 2.520508 0.378418 0.498039 0.498039 0.498039 #0.501961
v -1.235352 2.439941 0.000000 0.498039 0.498039 0.498039 #0.501961
v -0.817139 2.959961 0.289551 0.498039 0.498039 0.498039 #0.501961
v -1.235352 2.439941 0.000000 0.498039 0.498039 0.498039 #0.501961
v -0.906738 2.520508 0.378418 0.498039 0.498039 0.498039 #0.501961
v -1.235352 2.439941 0.000000 0.498039 0.498039 0.498039 #0.501961
v -0.817139 2.959961 0.289551 0.498039 0.498039 0.498039 #0.501961
v -1.068604 2.898438 0.000000 0.498039 0.498039 0.498039 #0.501961
v 0.000000 2.250000 0.579346 0.498039 0.498039 0.498039 #0.501961
v -0.679443 1.591064 0.367676 0.498039 0.498039 0.498039 #0.501961
v 0.113525 1.785156 0.520020 0.498039 0.498039 0.498039 #0.501961
v -0.512451 1.188721 0.309814 0.498039 0.498039 0.498039 #0.501961
v 0.113525 1.785156 0.520020 0.498039 0.498039 0.498039 #0.501961
v -0.679443 1.591064 0.367676 0.498039 0.498039 0.498039 #0.501961
v 0.113525 1.785156 0.520020 0.498039 0.498039 0.498039 #0.501961
v -0.512451 1.188721 0.309814 0.498039 0.498039 0.498039 #0.501961
v 0.209961 1.391357 0.391357 0.498039 0.498039 0.498039 #0.501961
v -0.244873 0.936768 0.245361 0.498039 0.498039 0.498039 #0.501961
v 0.209961 1.391357 0.391357 0.498039 0.498039 0.498039 #0.501961
v -0.512451 1.188721 0.309814 0.498039 0.498039 0.498039 #0.501961
v 0.209961 1.391357 0.391357 0.498039 0.498039 0.498039 #0.501961
v -0.244873 0.936768 0.245361 0.498039 0.498039 0.498039 #0.501961
v 0.146240 1.128174 0.314453 0.498039 0.498039 0.498039 #0.501961
v 0.234131 0.871826 0.164551 0.498039 0.498039 0.498039 #0.501961
v 0.146240 1.128174 0.314453 0.498039 0.498039 0.498039 #0.501961
v -0.244873 0.936768 0.245361 0.498039 0.498039 0.498039 #0.501961
v 0.146240 1.128174 0.314453 0.498039 0.498039 0.498039 #0.501961
v 0.234131 0.871826 0.164551 0.498039 0.498039 0.498039 #0.501961
v 0.420898 0.844971 0.000000 0.498039 0.498039 0.498039 #0.501961
v -0.906738 2.520508 0.378418 0.498039 0.498039 0.498039 #0.501961
v -0.209961 3.108398 0.409668 0.498039 0.498039 0.498039 #0.501961
v -0.817139 2.959961 0.289551 0.498039 0.498039 0.498039 #0.501961
v 0.679443 2.908691 0.378418 0.498039 0.498039 0.498039 #0.501961
v 0.000000 2.250000 0.579346 0.498039 0.498039 0.498039 #0.501961
v 0.858398 2.459961 0.409668 0.498039 0.498039 0.498039 #0.501961
v 0.113525 1.785156 0.520020 0.498039 0.498039 0.498039 #0.501961
v 0.858398 2.459961 0.409668 0.498039 0.498039 0.498039 #0.501961
v 0.000000 2.250000 0.579346 0.498039 0.498039 0.498039 #0.501961
v 0.858398 2.459961 0.409668 0.498039 0.498039 0.498039 #0.501961
v 0.113525 1.785156 0.520020 0.498039 0.498039 0.498039 #0.501961
v 0.906738 1.979248 0.367676 0.498039 0.498039 0.498039 #0.501961
v 0.209961 1.391357 0.391357 0.498039 0.498039 0.498039 #0.501961
v 0.906738 1.979248 0.367676 0.498039 0.498039 0.498039 #0.501961
v 0.113525 1.785156 0.520020 0.498039 0.498039 0.498039 #0.501961
v 0.906738 1.979248 0.367676 0.498039 0.498039 0.498039 #0.501961
v 0.209961 1.391357 0.391357 0.498039 0.498039 0.498039 #0.501961
v 0.817139 1.539795 0.309814 0.498039 0.498039 0.498039 #0.501961
v 0.400391 1.243896 0.191895 0.498039 0.498039 0.498039 #0.501961
v 0.817139 1.539795 0.309814 0.498039 0.498039 0.498039 #0.501961
v 0.209961 1.391357 0.391357 0.498039 0.498039 0.498039 #0.501961
v 0.817139 1.539795 0.309814 0.498039 0.498039 0.498039 #0.501961
v 0.400391 1.243896 0.191895 0.498039 0.498039 0.498039 #0.501961
v 0.583740 1.287109 0.135742 0.498039 0.498039 0.498039 #0.501961
v 0.360107 1.093262 0.000000 0.498039 0.498039 0.498039 #0.501961
v 0.583740 1.287109 0.135742 0.498039 0.498039 0.498039 #0.501961
v 0.400391 1.243896 0.191895 0.498039 0.498039 0.498039 #0.501961
v -0.274414 3.371582 0.221680 0.498039 0.498039 0.498039 #0.501961
v -0.209961 3.108398 0.409668 0.498039 0.498039 0.498039 #0.501961
v 0.053955 3.452148 0.156738 0.498039 0.498039 0.498039 #0.501961
v -0.209961 3.108398 0.409668 0.498039 0.498039 0.498039 #0.501961
v -0.274414 3.371582 0.221680 0.498039 0.498039 0.498039 #0.501961
v -0.817139 2.959961 0.289551 0.498039 0.498039 0.498039 #0.501961
v -0.603027 3.291260 0.156738 0.498039 0.498039 0.498039 #0.501961
v -0.817139 2.959961 0.289551 0.498039 0.498039 0.498039 #0.501961
v -0.274414 3.371582 0.221680 0.498039 0.498039 0.498039 #0.501961
v -0.817139 2.959961 0.289551 0.498039 0.498039 0.498039 #0.501961
v -0.603027 3.291260 0.156738 0.498039 0.498039 0.498039 #0.501961
v -1.068604 2.898438 0.000000 0.498039 0.498039 0.498039 #0.501961
v -0.739014 3.257813 0.000000 0.498039 0.498039 0.498039 #0.501961
v -1.068604 2.898438 0.000000 0.498039 0.498039 0.498039 #0.501961
v -0.603027 3.291260 0.156738 0.498039 0.498039 0.498039 #0.501961
v -0.297119 3.464111 0.000000 0.498039 0.498039 0.498039 #0.501961
v -0.274414 3.371582 0.221680 0.498039 0.498039 0.498039 #0.501961
v 0.053955 3.452148 0.156738 0.498039 0.498039 0.498039 #0.501961
v -0.274414 3.371582 0.221680 0.498039 0.498039 0.498039 #0.501961
v -0.297119 3.464111 0.000000 0.498039 0.498039 0.498039 #0.501961
v -0.603027 3.291260 0.156738 0.498039 0.498039 0.498039 #0.501961
v -0.739014 3.257813 0.000000 0.498039 0.498039 0.498039 #0.501961
v -0.603027 3.291260 0.156738 0.498039 0.498039 0.498039 #0.501961
v -0.297119 3.464111 0.000000 0.498039 0.498039 0.498039 #0.501961
v 0.360107 1.093262 0.000000 0.498039 0.498039 0.498039 #0.501961
v 0.795654 1.312256 0.000000 0.498039 0.498039 0.498039 #0.501961
v 0.583740 1.287109 0.135742 0.498039 0.498039 0.498039 #0.501961
v 1.068604 1.601318 0.000000 0.498039 0.498039 0.498039 #0.501961
v 0.583740 1.287109 0.135742 0.498039 0.498039 0.498039 #0.501961
v 0.795654 1.312256 0.000000 0.498039 0.498039 0.498039 #0.501961
v 0.583740 1.287109 0.135742 0.498039 0.498039 0.498039 #0.501961
v 1.068604 1.601318 0.000000 0.498039 0.498039 0.498039 #0.501961
v 0.817139 1.539795 0.309814 0.498039 0.498039 0.498039 #0.501961
v 1.235352 2.059814 0.000000 0.498039 0.498039 0.498039 #0.501961
v 0.817139 1.539795 0.309814 0.498039 0.498039 0.498039 #0.501961
v 1.068604 1.601318 0.000000 0.498039 0.498039 0.498039 #0.501961
v 0.817139 1.539795 0.309814 0.498039 0.498039 0.498039 #0.501961
v 1.235352 2.059814 0.000000 0.498039 0.498039 0.498039 #0.501961
v 0.906738 1.979248 0.367676 0.498039 0.498039 0.498039 #0.501961
v 1.214111 2.547119 0.000000 0.498039 0.498039 0.498039 #0.501961
v 0.906738 1.979248 0.367676 0.498039 0.498039 0.498039 #0.501961
v 1.235352 2.059814 0.000000 0.498039 0.498039 0.498039 #0.501961
v 0.906738 1.979248 0.367676 0.498039 0.498039 0.498039 #0.501961
v 1.214111 2.547119 0.000000 0.498039 0.498039 0.498039 #0.501961
v 0.858398 2.459961 0.409668 0.498039 0.498039 0.498039 #0.501961
v 1.007813 2.989014 0.000000 0.498039 0.498039 0.498039 #0.501961
v 0.858398 2.459961 0.409668 0.498039 0.498039 0.498039 #0.501961
v 1.214111 2.547119 0.000000 0.498039 0.498039 0.498039 #0.501961
v 0.858398 2.459961 0.409668 0.498039 0.498039 0.498039 #0.501961
v 1.007813 2.989014 0.000000 0.498039 0.498039 0.498039 #0.501961
v 0.679443 2.908691 0.378418 0.498039 0.498039 0.498039 #0.501961
v 0.648438 3.318604 0.000000 0.498039 0.498039 0.498039 #0.501961
v 0.679443 2.908691 0.378418 0.498039 0.498039 0.498039 #0.501961
v 1.007813 2.989014 0.000000 0.498039 0.498039 0.498039 #0.501961
v 0.053955 3.452148 0.156738 0.498039 0.498039 0.498039 #0.501961
v 0.189941 3.485352 0.000000 0.498039 0.498039 0.498039 #0.501961
v -0.297119 3.464111 0.000000 0.498039 0.498039 0.498039 #0.501961
v 0.189941 3.485352 0.000000 0.498039 0.498039 0.498039 #0.501961
v 0.053955 3.452148 0.156738 0.498039 0.498039 0.498039 #0.501961
v 0.396973 3.257080 0.289551 0.498039 0.498039 0.498039 #0.501961
v -0.209961 3.108398 0.409668 0.498039 0.498039 0.498039 #0.501961
v 0.396973 3.257080 0.289551 0.498039 0.498039 0.498039 #0.501961
v 0.053955 3.452148 0.156738 0.498039 0.498039 0.498039 #0.501961
v 0.396973 3.257080 0.289551 0.498039 0.498039 0.498039 #0.501961
v -0.209961 3.108398 0.409668 0.498039 0.498039 0.498039 #0.501961
v -0.113525 2.714600 0.535156 0.498039 0.498039 0.498039 #0.501961
v -0.906738 2.520508 0.378418 0.498039 0.498039 0.498039 #0.501961
v -0.113525 2.714600 0.535156 0.498039 0.498039 0.498039 #0.501961
v -0.209961 3.108398 0.409668 0.498039 0.498039 0.498039 #0.501961
v -0.113525 2.714600 0.535156 0.498039 0.498039 0.498039 #0.501961
v -0.906738 2.520508 0.378418 0.498039 0.498039 0.498039 #0.501961
v -0.858398 2.039795 0.409668 0.498039 0.498039 0.498039 #0.501961
v -1.214111 1.952637 0.000000 0.498039 0.498039 0.498039 #0.501961
v -0.858398 2.039795 0.409668 0.498039 0.498039 0.498039 #0.501961
v -0.906738 2.520508 0.378418 0.498039 0.498039 0.498039 #0.501961
v -0.858398 2.039795 0.409668 0.498039 0.498039 0.498039 #0.501961
v -1.214111 1.952637 0.000000 0.498039 0.498039 0.498039 #0.501961
v -1.007813 1.510742 0.000000 0.498039 0.498039 0.498039 #0.501961
v -0.679443 1.591064 -0.367676 0.498039 0.498039 0.498039 #0.501961
v -1.007813 1.510742 0.000000 0.498039 0.498039 0.498039 #0.501961
v -1.214111 1.952637 0.000000 0.498039 0.498039 0.498039 #0.501961
v -1.007813 1.510742 0.000000 0.498039 0.498039 0.498039 #0.501961
v -0.679443 1.591064 -0.367676 0.498039 0.498039 0.498039 #0.501961
v -0.512451 1.188721 -0.309814 0.498039 0.498039 0.498039 #0.501961
v 0.396973 3.257080 -0.289551 0.498039 0.498039 0.498039 #0.501961
v -0.274414 3.371582 -0.221680 0.498039 0.498039 0.498039 #0.501961
v 0.053955 3.452148 -0.156738 0.498039 0.498039 0.498039 #0.501961
v -0.274414 3.371582 -0.221680 0.498039 0.498039 0.498039 #0.501961
v 0.396973 3.257080 -0.289551 0.498039 0.498039 0.498039 #0.501961
v -0.209961 3.108398 -0.409668 0.498039 0.498039 0.498039 #0.501961
v 0.679443 2.908691 -0.378418 0.498039 0.498039 0.498039 #0.501961
v -0.209961 3.108398 -0.409668 0.498039 0.498039 0.498039 #0.501961
v 0.396973 3.257080 -0.289551 0.498039 0.498039 0.498039 #0.501961
v -0.209961 3.108398 -0.409668 0.498039 0.498039 0.498039 #0.501961
v 0.679443 2.908691 -0.378418 0.498039 0.498039 0.498039 #0.501961
v -0.113525 2.714600 -0.535156 0.498039 0.498039 0.498039 #0.501961
v 0.858398 2.459961 -0.409668 0.498039 0.498039 0.498039 #0.501961
v -0.113525 2.714600 -0.535156 0.498039 0.498039 0.498039 #0.501961
v 0.679443 2.908691 -0.378418 0.498039 0.498039 0.498039 #0.501961
v -0.113525 2.714600 -0.535156 0.498039 0.498039 0.498039 #0.501961
v 0.858398 2.459961 -0.409668 0.498039 0.498039 0.498039 #0.501961
v 0.000000 2.250000 -0.579346 0.498039 0.498039 0.498039 #0.501961
v 0.906738 1.979248 -0.367676 0.498039 0.498039 0.498039 #0.501961
v 0.000000 2.250000 -0.579346 0.498039 0.498039 0.498039 #0.501961
v 0.858398 2.459961 -0.409668 0.498039 0.498039 0.498039 #0.501961
v 0.000000 2.250000 -0.579346 0.498039 0.498039 0.498039 #0.501961
v 0.906738 1.979248 -0.367676 0.498039 0.498039 0.498039 #0.501961
v 0.113525 1.785156 -0.520020 0.498039 0.498039 0.498039 #0.501961
v 0.817139 1.539795 -0.309814 0.498039 0.498039 0.498039 #0.501961
v 0.113525 1.785156 -0.520020 0.498039 0.498039 0.498039 #0.501961
v 0.906738 1.979248 -0.367676 0.498039 0.498039 0.498039 #0.501961
v 0.113525 1.785156 -0.520020 0.498039 0.498039 0.498039 #0.501961
v 0.817139 1.539795 -0.309814 0.498039 0.498039 0.498039 #0.501961
v 0.209961 1.391357 -0.391357 0.498039 0.498039 0.498039 #0.501961
v 0.583740 1.287109 -0.135742 0.498039 0.498039 0.498039 #0.501961
v 0.209961 1.391357 -0.391357 0.498039 0.498039 0.498039 #0.501961
v 0.817139 1.539795 -0.309814 0.498039 0.498039 0.498039 #0.501961
v 0.209961 1.391357 -0.391357 0.498039 0.498039 0.498039 #0.501961
v 0.583740 1.287109 -0.135742 0.498039 0.498039 0.498039 #0.501961
v 0.400391 1.243896 -0.191895 0.498039 0.498039 0.498039 #0.501961
v 0.363525 0.566650 -0.077393 0.498039 0.498039 0.498039 #0.501961
v 0.458008 0.483154 0.000000 0.498039 0.498039 0.498039 #0.501961
v 0.134766 0.422119 0.000000 0.498039 0.498039 0.498039 #0.501961
v 0.363525 0.566650 0.077393 0.498039 0.498039 0.498039 #0.501961
v 0.134766 0.422119 0.000000 0.498039 0.498039 0.498039 #0.501961
v 0.458008 0.483154 0.000000 0.498039 0.498039 0.498039 #0.501961
v 0.134766 0.422119 0.000000 0.498039 0.498039 0.498039 #0.501961
v 0.363525 0.566650 0.077393 0.498039 0.498039 0.498039 #0.501961
v 0.135254 0.589600 0.090332 0.498039 0.498039 0.498039 #0.501961
v -0.069824 0.747559 0.172363 0.498039 0.498039 0.498039 #0.501961
v 0.135254 0.589600 0.090332 0.498039 0.498039 0.498039 #0.501961
v 0.363525 0.566650 0.077393 0.498039 0.498039 0.498039 #0.501961
v 0.135254 0.589600 0.090332 0.498039 0.498039 0.498039 #0.501961
v -0.069824 0.747559 0.172363 0.498039 0.498039 0.498039 #0.501961
v 0.134766 0.422119 0.000000 0.498039 0.498039 0.498039 #0.501961
v -0.679443 1.591064 -0.367676 0.498039 0.498039 0.498039 #0.501961
v -1.214111 1.952637 0.000000 0.498039 0.498039 0.498039 #0.501961
v -0.858398 2.039795 -0.409668 0.498039 0.498039 0.498039 #0.501961
v -1.235352 2.439941 0.000000 0.498039 0.498039 0.498039 #0.501961
v -0.858398 2.039795 -0.409668 0.498039 0.498039 0.498039 #0.501961
v -1.214111 1.952637 0.000000 0.498039 0.498039 0.498039 #0.501961
v -0.858398 2.039795 -0.409668 0.498039 0.498039 0.498039 #0.501961
v -1.235352 2.439941 0.000000 0.498039 0.498039 0.498039 #0.501961
v -0.906738 2.520508 -0.378418 0.498039 0.498039 0.498039 #0.501961
v -1.068604 2.898438 0.000000 0.498039 0.498039 0.498039 #0.501961
v -0.906738 2.520508 -0.378418 0.498039 0.498039 0.498039 #0.501961
v -1.235352 2.439941 0.000000 0.498039 0.498039 0.498039 #0.501961
v -0.906738 2.520508 -0.378418 0.498039 0.498039 0.498039 #0.501961
v -1.068604 2.898438 0.000000 0.498039 0.498039 0.498039 #0.501961
v -0.817139 2.959961 -0.289551 0.498039 0.498039 0.498039 #0.501961
v -0.739014 3.257813 0.000000 0.498039 0.498039 0.498039 #0.501961
v -0.817139 2.959961 -0.289551 0.498039 0.498039 0.498039 #0.501961
v -1.068604 2.898438 0.000000 0.498039 0.498039 0.498039 #0.501961
v -0.817139 2.959961 -0.289551 0.498039 0.498039 0.498039 #0.501961
v -0.739014 3.257813 0.000000 0.498039 0.498039 0.498039 #0.501961
v -0.603027 3.291260 -0.156738 0.498039 0.498039 0.498039 #0.501961
v -0.297119 3.464111 0.000000 0.498039 0.498039 0.498039 #0.501961
v -0.603027 3.291260 -0.156738 0.498039 0.498039 0.498039 #0.501961
v -0.739014 3.257813 0.000000 0.498039 0.498039 0.498039 #0.501961
v -0.763916 1.127197 0.000000 0.498039 0.498039 0.498039 #0.501961
v -0.244873 0.936768 -0.245361 0.498039 0.498039 0.498039 #0.501961
v -0.534424 0.857910 0.000000 0.498039 0.498039 0.498039 #0.501961
v 0.400391 1.243896 0.191895 0.498039 0.498039 0.498039 #0.501961
v 0.209961 1.391357 0.391357 0.498039 0.498039 0.498039 #0.501961
v 0.360107 1.093262 0.000000 0.498039 0.498039 0.498039 #0.501961
v 0.146240 1.128174 0.314453 0.498039 0.498039 0.498039 #0.501961
v 0.360107 1.093262 0.000000 0.498039 0.498039 0.498039 #0.501961
v 0.209961 1.391357 0.391357 0.498039 0.498039 0.498039 #0.501961
v 0.234131 0.871826 -0.164551 0.498039 0.498039 0.498039 #0.501961
v 0.135254 0.589600 -0.090332 0.498039 0.498039 0.498039 #0.501961
v -0.069824 0.747559 -0.172363 0.498039 0.498039 0.498039 #0.501961
v -0.304932 0.656738 0.000000 0.498039 0.498039 0.498039 #0.501961
v -0.069824 0.747559 -0.172363 0.498039 0.498039 0.498039 #0.501961
v 0.135254 0.589600 -0.090332 0.498039 0.498039 0.498039 #0.501961
v 0.400391 1.243896 -0.191895 0.498039 0.498039 0.498039 #0.501961
v 0.146240 1.128174 -0.314453 0.498039 0.498039 0.498039 #0.501961
v 0.209961 1.391357 -0.391357 0.498039 0.498039 0.498039 #0.501961
v 0.146240 1.128174 -0.314453 0.498039 0.498039 0.498039 #0.501961
v 0.400391 1.243896 -0.191895 0.498039 0.498039 0.498039 #0.501961
v 0.360107 1.093262 0.000000 0.498039 0.498039 0.498039 #0.501961
v 0.583740 1.287109 -0.135742 0.498039 0.498039 0.498039 #0.501961
v 0.360107 1.093262 0.000000 0.498039 0.498039 0.498039 #0.501961
v 0.400391 1.243896 -0.191895 0.498039 0.498039 0.498039 #0.501961
v 0.360107 1.093262 0.000000 0.498039 0.498039 0.498039 #0.501961
v 0.583740 1.287109 -0.135742 0.498039 0.498039 0.498039 #0.501961
v 0.795654 1.312256 0.000000 0.498039 0.498039 0.498039 #0.501961
v 0.817139 1.539795 -0.309814 0.498039 0.498039 0.498039 #0.501961
v 0.795654 1.312256 0.000000 0.498039 0.498039 0.498039 #0.501961
v 0.583740 1.287109 -0.135742 0.498039 0.498039 0.498039 #0.501961
v 0.795654 1.312256 0.000000 0.498039 0.498039 0.498039 #0.501961
v 0.817139 1.539795 -0.309814 0.498039 0.498039 0.498039 #0.501961
v 1.068604 1.601318 0.000000 0.498039 0.498039 0.498039 #0.501961
v 0.906738 1.979248 -0.367676 0.498039 0.498039 0.498039 #0.501961
v 1.068604 1.601318 0.000000 0.498039 0.498039 0.498039 #0.501961
v 0.817139 1.539795 -0.309814 0.498039 0.498039 0.498039 #0.501961
v 1.068604 1.601318 0.000000 0.498039 0.498039 0.498039 #0.501961
v 0.906738 1.979248 -0.367676 0.498039 0.498039 0.498039 #0.501961
v 1.235352 2.059814 0.000000 0.498039 0.498039 0.498039 #0.501961
v 0.858398 2.459961 -0.409668 0.498039 0.498039 0.498039 #0.501961
v 1.235352 2.059814 0.000000 0.498039 0.498039 0.498039 #0.501961
v 0.906738 1.979248 -0.367676 0.498039 0.498039 0.498039 #0.501961
v 1.235352 2.059814 0.000000 0.498039 0.498039 0.498039 #0.501961
v 0.858398 2.459961 -0.409668 0.498039 0.498039 0.498039 #0.501961
v 1.214111 2.547119 0.000000 0.498039 0.498039 0.498039 #0.501961
v 0.679443 2.908691 -0.378418 0.498039 0.498039 0.498039 #0.501961
v 1.214111 2.547119 0.000000 0.498039 0.498039 0.498039 #0.501961
v 0.858398 2.459961 -0.409668 0.498039 0.498039 0.498039 #0.501961
v 1.214111 2.547119 0.000000 0.498039 0.498039 0.498039 #0.501961
v 0.679443 2.908691 -0.378418 0.498039 0.498039 0.498039 #0.501961
v 1.007813 2.989014 0.000000 0.498039 0.498039 0.498039 #0.501961
v 0.396973 3.257080 -0.289551 0.498039 0.498039 0.498039 #0.501961
v 1.007813 2.989014 0.000000 0.498039 0.498039 0.498039 #0.501961
v 0.679443 2.908691 -0.378418 0.498039 0.498039 0.498039 #0.501961
v 1.007813 2.989014 0.000000 0.498039 0.498039 0.498039 #0.501961
v 0.396973 3.257080 -0.289551 0.498039 0.498039 0.498039 #0.501961
v 0.648438 3.318604 0.000000 0.498039 0.498039 0.498039 #0.501961
v 0.053955 3.452148 -0.156738 0.498039 0.498039 0.498039 #0.501961
v 0.648438 3.318604 0.000000 0.498039 0.498039 0.498039 #0.501961
v 0.396973 3.257080 -0.289551 0.498039 0.498039 0.498039 #0.501961
v 0.146240 1.128174 0.314453 0.498039 0.498039 0.498039 #0.501961
v 0.420898 0.844971 0.000000 0.498039 0.498039 0.498039 #0.501961
v 0.360107 1.093262 0.000000 0.498039 0.498039 0.498039 #0.501961
v 0.234131 0.871826 -0.164551 0.498039 0.498039 0.498039 #0.501961
v 0.360107 1.093262 0.000000 0.498039 0.498039 0.498039 #0.501961
v 0.420898 0.844971 0.000000 0.498039 0.498039 0.498039 #0.501961
v 0.360107 1.093262 0.000000 0.498039 0.498039 0.498039 #0.501961
v 0.234131 0.871826 -0.164551 0.498039 0.498039 0.498039 #0.501961
v 0.146240 1.128174 -0.314453 0.498039 0.498039 0.498039 #0.501961
v -0.069824 0.747559 -0.172363 0.498039 0.498039 0.498039 #0.501961
v 0.146240 1.128174 -0.314453 0.498039 0.498039 0.498039 #0.501961
v 0.234131 0.871826 -0.164551 0.498039 0.498039 0.498039 #0.501961
vt 0.674316 0.878418 0.000000
vt 0.772461 0.890137 0.000000
vt 0.623291 1.000000 0.000000
vt 0.607666 0.945068 0.000000
vt 0.623291 1.000000 0.000000
vt 0.772461 0.890137 0.000000
vt 0.623291 1.000000 0.000000
vt 0.607666 0.945068 0.000000
vt 0.521484 0.968506 0.000000
vt 0.541016 0.862549 0.000000
vt 0.521484 0.968506 0.000000
vt 0.607666 0.945068 0.000000
vt 0.521484 0.968506 0.000000
vt 0.541016 0.862549 0.000000
vt 0.489990 1.003906 0.000000
vt 0.470459 0.886230 0.000000
vt 0.489990 1.003906 0.000000
vt 0.541016 0.862549 0.000000
vt 0.489990 1.003906 0.000000
vt 0.470459 0.886230 0.000000
vt 0.521484 0.968506 0.000000
vt 0.541016 0.862549 0.000000
vt 0.521484 0.968506 0.000000
vt 0.470459 0.886230 0.000000
vt 0.521484 0.968506 0.000000
vt 0.541016 0.862549 0.000000
vt 0.674316 0.878418 0.000000
vt 0.721436 0.803711 0.000000
vt 0.674316 0.878418 0.000000
vt 0.541016 0.862549 0.000000
vt 0.674316 0.878418 0.000000
vt 0.721436 0.803711 0.000000
vt 0.772461 0.890137 0.000000
vt 0.843018 0.807617 0.000000
vt 0.772461 0.890137 0.000000
vt 0.721436 0.803711 0.000000
vt 0.772461 0.890137 0.000000
vt 0.843018 0.807617 0.000000
vt 0.674316 0.878418 0.000000
vt 0.721436 0.803711 0.000000
vt 0.674316 0.878418 0.000000
vt 0.843018 0.807617 0.000000
vt 0.674316 0.878418 0.000000
vt 0.721436 0.803711 0.000000
vt 0.552734 0.776367 0.000000
vt 0.803711 0.705811 0.000000
vt 0.552734 0.776367 0.000000
vt 0.721436 0.803711 0.000000
vt 0.552734 0.776367 0.000000
vt 0.803711 0.705811 0.000000
vt 0.501953 0.697998 0.000000
vt 0.831299 0.564697 0.000000
vt 0.501953 0.697998 0.000000
vt 0.803711 0.705811 0.000000
vt 0.501953 0.697998 0.000000
vt 0.831299 0.564697 0.000000
vt 0.560547 0.756836 0.000000
vt 0.858643 0.407715 0.000000
vt 0.560547 0.756836 0.000000
vt 0.831299 0.564697 0.000000
vt 0.560547 0.756836 0.000000
vt 0.858643 0.407715 0.000000
vt 0.560547 0.493896 0.000000
vt 0.831299 0.250977 0.000000
vt 0.560547 0.493896 0.000000
vt 0.858643 0.407715 0.000000
vt 0.560547 0.493896 0.000000
vt 0.831299 0.250977 0.000000
vt 0.560547 0.235107 0.000000
vt 0.752930 0.117432 0.000000
vt 0.560547 0.235107 0.000000
vt 0.831299 0.250977 0.000000
vt 0.560547 0.235107 0.000000
vt 0.752930 0.117432 0.000000
vt 0.501953 0.117432 0.000000
vt 0.639160 0.031250 0.000000
vt 0.501953 0.117432 0.000000
vt 0.752930 0.117432 0.000000
vt 0.501953 0.117432 0.000000
vt 0.639160 0.031250 0.000000
vt 0.501953 0.031250 0.000000
vt 0.501953 0.000000 0.000000
vt 0.501953 0.031250 0.000000
vt 0.639160 0.031250 0.000000
vt 0.501953 0.031250 0.000000
vt 0.501953 0.000000 0.000000
vt 0.364502 0.031250 0.000000
vt 0.309570 0.031250 0.000000
vt 0.364502 0.031250 0.000000
vt 0.501953 0.000000 0.000000
vt 0.364502 0.031250 0.000000
vt 0.309570 0.031250 0.000000
vt 0.145020 0.117432 0.000000
vt 0.250977 0.117432 0.000000
vt 0.145020 0.117432 0.000000
vt 0.309570 0.031250 0.000000
vt 0.145020 0.117432 0.000000
vt 0.250977 0.117432 0.000000
vt 0.133301 0.235107 0.000000
vt 0.560547 0.235107 0.000000
vt 0.133301 0.235107 0.000000
vt 0.250977 0.117432 0.000000
vt 0.133301 0.235107 0.000000
vt 0.560547 0.235107 0.000000
vt 0.560547 0.493896 0.000000
vt 0.858643 0.407715 0.000000
vt 0.560547 0.493896 0.000000
vt 0.560547 0.235107 0.000000
vt 0.560547 0.493896 0.000000
vt 0.858643 0.407715 0.000000
vt 0.831299 0.564697 0.000000
vt 0.964600 0.564697 0.000000
vt 0.831299 0.564697 0.000000
vt 0.858643 0.407715 0.000000
vt 0.831299 0.564697 0.000000
vt 0.964600 0.564697 0.000000
vt 0.905762 0.705811 0.000000
vt 0.803711 0.705811 0.000000
vt 0.905762 0.705811 0.000000
vt 0.964600 0.564697 0.000000
vt 0.905762 0.705811 0.000000
vt 0.803711 0.705811 0.000000
vt 0.721436 0.803711 0.000000
vt 0.831299 0.564697 0.000000
vt 0.905762 0.705811 0.000000
vt 0.803711 0.705811 0.000000
vt 0.843018 0.807617 0.000000
vt 0.803711 0.705811 0.000000
vt 0.905762 0.705811 0.000000
vt 0.803711 0.705811 0.000000
vt 0.843018 0.807617 0.000000
vt 0.721436 0.803711 0.000000
vt 1.003906 0.407715 0.000000
vt 0.831299 0.250977 0.000000
vt 0.964600 0.250977 0.000000
vt 0.752930 0.117432 0.000000
vt 0.964600 0.250977 0.000000
vt 0.831299 0.250977 0.000000
vt 0.964600 0.250977 0.000000
vt 0.752930 0.117432 0.000000
vt 0.858643 0.117432 0.000000
vt 0.560547 0.493896 0.000000
vt 0.831299 0.564697 0.000000
vt 0.560547 0.756836 0.000000
vt 0.803711 0.705811 0.000000
vt 0.560547 0.756836 0.000000
vt 0.831299 0.564697 0.000000
vt 0.560547 0.756836 0.000000
vt 0.803711 0.705811 0.000000
vt 0.501953 0.697998 0.000000
vt 0.721436 0.803711 0.000000
vt 0.501953 0.697998 0.000000
vt 0.803711 0.705811 0.000000
vt 0.501953 0.697998 0.000000
vt 0.721436 0.803711 0.000000
vt 0.552734 0.776367 0.000000
vt 0.541016 0.862549 0.000000
vt 0.552734 0.776367 0.000000
vt 0.721436 0.803711 0.000000
vt 0.552734 0.776367 0.000000
vt 0.541016 0.862549 0.000000
vt 0.470459 0.886230 0.000000
vt 0.831299 0.250977 0.000000
vt 0.501953 0.117432 0.000000
vt 0.752930 0.117432 0.000000
vt 0.133301 0.235107 0.000000
vt 0.560547 0.493896 0.000000
vt 0.097900 0.493896 0.000000
vt 0.560547 0.756836 0.000000
vt 0.097900 0.493896 0.000000
vt 0.560547 0.493896 0.000000
vt 0.097900 0.493896 0.000000
vt 0.560547 0.756836 0.000000
vt 0.133301 0.756836 0.000000
vt 0.501953 0.697998 0.000000
vt 0.133301 0.756836 0.000000
vt 0.560547 0.756836 0.000000
vt 0.133301 0.756836 0.000000
vt 0.501953 0.697998 0.000000
vt 0.250977 0.697998 0.000000
vt 0.443115 0.756836 0.000000
vt 0.250977 0.697998 0.000000
vt 0.501953 0.697998 0.000000
vt 0.250977 0.697998 0.000000
vt 0.443115 0.756836 0.000000
vt 0.364502 0.756836 0.000000
vt 0.470459 0.803711 0.000000
vt 0.364502 0.756836 0.000000
vt 0.443115 0.756836 0.000000
vt 0.501953 0.031250 0.000000
vt 0.501953 0.117432 0.000000
vt 0.364502 0.031250 0.000000
vt 0.501953 0.117432 0.000000
vt 0.501953 0.031250 0.000000
vt 0.752930 0.117432 0.000000
vt 0.639160 0.031250 0.000000
vt 0.752930 0.117432 0.000000
vt 0.501953 0.031250 0.000000
vt 0.752930 0.117432 0.000000
vt 0.639160 0.031250 0.000000
vt 0.858643 0.117432 0.000000
vt 0.694092 0.031250 0.000000
vt 0.858643 0.117432 0.000000
vt 0.639160 0.031250 0.000000
vt 0.501953 0.000000 0.000000
vt 0.501953 0.031250 0.000000
vt 0.364502 0.031250 0.000000
vt 0.501953 0.031250 0.000000
vt 0.501953 0.000000 0.000000
vt 0.639160 0.031250 0.000000
vt 0.694092 0.031250 0.000000
vt 0.639160 0.031250 0.000000
vt 0.501953 0.000000 0.000000
vt 0.470459 0.803711 0.000000
vt 0.282227 0.768555 0.000000
vt 0.364502 0.756836 0.000000
vt 0.145020 0.697998 0.000000
vt 0.364502 0.756836 0.000000
vt 0.282227 0.768555 0.000000
vt 0.364502 0.756836 0.000000
vt 0.145020 0.697998 0.000000
vt 0.250977 0.697998 0.000000
vt 0.039063 0.564697 0.000000
vt 0.250977 0.697998 0.000000
vt 0.145020 0.697998 0.000000
vt 0.250977 0.697998 0.000000
vt 0.039063 0.564697 0.000000
vt 0.133301 0.756836 0.000000
vt 0.000000 0.407715 0.000000
vt 0.133301 0.756836 0.000000
vt 0.039063 0.564697 0.000000
vt 0.133301 0.756836 0.000000
vt 0.000000 0.407715 0.000000
vt 0.097900 0.493896 0.000000
vt 0.039063 0.250977 0.000000
vt 0.097900 0.493896 0.000000
vt 0.000000 0.407715 0.000000
vt 0.097900 0.493896 0.000000
vt 0.039063 0.250977 0.000000
vt 0.133301 0.235107 0.000000
vt 0.145020 0.117432 0.000000
vt 0.133301 0.235107 0.000000
vt 0.039063 0.250977 0.000000
vt 0.364502 0.031250 0.000000
vt 0.309570 0.031250 0.000000
vt 0.501953 0.000000 0.000000
vt 0.309570 0.031250 0.000000
vt 0.364502 0.031250 0.000000
vt 0.250977 0.117432 0.000000
vt 0.501953 0.117432 0.000000
vt 0.250977 0.117432 0.000000
vt 0.364502 0.031250 0.000000
vt 0.250977 0.117432 0.000000
vt 0.501953 0.117432 0.000000
vt 0.560547 0.235107 0.000000
vt 0.831299 0.250977 0.000000
vt 0.560547 0.235107 0.000000
vt 0.501953 0.117432 0.000000
vt 0.560547 0.235107 0.000000
vt 0.831299 0.250977 0.000000
vt 0.858643 0.407715 0.000000
vt 1.003906 0.407715 0.000000
vt 0.858643 0.407715 0.000000
vt 0.831299 0.250977 0.000000
vt 0.858643 0.407715 0.000000
vt 1.003906 0.407715 0.000000
vt 0.964600 0.564697 0.000000
vt 0.831299 0.564697 0.000000
vt 0.964600 0.564697 0.000000
vt 1.003906 0.407715 0.000000
vt 0.964600 0.564697 0.000000
vt 0.831299 0.564697 0.000000
vt 0.803711 0.705811 0.000000
vt 0.250977 0.117432 0.000000
vt 0.501953 0.031250 0.000000
vt 0.364502 0.031250 0.000000
vt 0.501953 0.031250 0.000000
vt 0.250977 0.117432 0.000000
vt 0.501953 0.117432 0.000000
vt 0.133301 0.235107 0.000000
vt 0.501953 0.117432 0.000000
vt 0.250977 0.117432 0.000000
vt 0.501953 0.117432 0.000000
vt 0.133301 0.235107 0.000000
vt 0.560547 0.235107 0.000000
vt 0.097900 0.493896 0.000000
vt 0.560547 0.235107 0.000000
vt 0.133301 0.235107 0.000000
vt 0.560547 0.235107 0.000000
vt 0.097900 0.493896 0.000000
vt 0.560547 0.493896 0.000000
vt 0.133301 0.756836 0.000000
vt 0.560547 0.493896 0.000000
vt 0.097900 0.493896 0.000000
vt 0.560547 0.493896 0.000000
vt 0.133301 0.756836 0.000000
vt 0.560547 0.756836 0.000000
vt 0.250977 0.697998 0.000000
vt 0.560547 0.756836 0.000000
vt 0.133301 0.756836 0.000000
vt 0.560547 0.756836 0.000000
vt 0.250977 0.697998 0.000000
vt 0.501953 0.697998 0.000000
vt 0.364502 0.756836 0.000000
vt 0.501953 0.697998 0.000000
vt 0.250977 0.697998 0.000000
vt 0.501953 0.697998 0.000000
vt 0.364502 0.756836 0.000000
vt 0.443115 0.756836 0.000000
vt 0.521484 0.968506 0.000000
vt 0.489990 1.003906 0.000000
vt 0.623291 1.000000 0.000000
vt 0.521484 0.968506 0.000000
vt 0.623291 1.000000 0.000000
vt 0.489990 1.003906 0.000000
vt 0.623291 1.000000 0.000000
vt 0.521484 0.968506 0.000000
vt 0.607666 0.945068 0.000000
vt 0.674316 0.878418 0.000000
vt 0.607666 0.945068 0.000000
vt 0.521484 0.968506 0.000000
vt 0.607666 0.945068 0.000000
vt 0.674316 0.878418 0.000000
vt 0.623291 1.000000 0.000000
vt 0.831299 0.564697 0.000000
vt 1.003906 0.407715 0.000000
vt 0.858643 0.407715 0.000000
vt 0.964600 0.250977 0.000000
vt 0.858643 0.407715 0.000000
vt 1.003906 0.407715 0.000000
vt 0.858643 0.407715 0.000000
vt 0.964600 0.250977 0.000000
vt 0.831299 0.250977 0.000000
vt 0.858643 0.117432 0.000000
vt 0.831299 0.250977 0.000000
vt 0.964600 0.250977 0.000000
vt 0.831299 0.250977 0.000000
vt 0.858643 0.117432 0.000000
vt 0.752930 0.117432 0.000000
vt 0.694092 0.031250 0.000000
vt 0.752930 0.117432 0.000000
vt 0.858643 0.117432 0.000000
vt 0.752930 0.117432 0.000000
vt 0.694092 0.031250 0.000000
vt 0.639160 0.031250 0.000000
vt 0.501953 0.000000 0.000000
vt 0.639160 0.031250 0.000000
vt 0.694092 0.031250 0.000000
vt 0.905762 0.705811 0.000000
vt 0.721436 0.803711 0.000000
vt 0.843018 0.807617 0.000000
vt 0.443115 0.756836 0.000000
vt 0.501953 0.697998 0.000000
vt 0.470459 0.803711 0.000000
vt 0.552734 0.776367 0.000000
vt 0.470459 0.803711 0.000000
vt 0.501953 0.697998 0.000000
vt 0.541016 0.862549 0.000000
vt 0.607666 0.945068 0.000000
vt 0.674316 0.878418 0.000000
vt 0.772461 0.890137 0.000000
vt 0.674316 0.878418 0.000000
vt 0.607666 0.945068 0.000000
vt 0.443115 0.756836 0.000000
vt 0.552734 0.776367 0.000000
vt 0.501953 0.697998 0.000000
vt 0.552734 0.776367 0.000000
vt 0.443115 0.756836 0.000000
vt 0.470459 0.803711 0.000000
vt 0.364502 0.756836 0.000000
vt 0.470459 0.803711 0.000000
vt 0.443115 0.756836 0.000000
vt 0.470459 0.803711 0.000000
vt 0.364502 0.756836 0.000000
vt 0.282227 0.768555 0.000000
vt 0.250977 0.697998 0.000000
vt 0.282227 0.768555 0.000000
vt 0.364502 0.756836 0.000000
vt 0.282227 0.768555 0.000000
vt 0.250977 0.697998 0.000000
vt 0.145020 0.697998 0.000000
vt 0.133301 0.756836 0.000000
vt 0.145020 0.697998 0.000000
vt 0.250977 0.697998 0.000000
vt 0.145020 0.697998 0.000000
vt 0.133301 0.756836 0.000000
vt 0.039063 0.564697 0.000000
vt 0.097900 0.493896 0.000000
vt 0.039063 0.564697 0.000000
vt 0.133301 0.756836 0.000000
vt 0.039063 0.564697 0.000000
vt 0.097900 0.493896 0.000000
vt 0.000000 0.407715 0.000000
vt 0.133301 0.235107 0.000000
vt 0.000000 0.407715 0.000000
vt 0.097900 0.493896 0.000000
vt 0.000000 0.407715 0.000000
vt 0.133301 0.235107 0.000000
vt 0.039063 0.250977 0.000000
vt 0.250977 0.117432 0.000000
vt 0.039063 0.250977 0.000000
vt 0.133301 0.235107 0.000000
vt 0.039063 0.250977 0.000000
vt 0.250977 0.117432 0.000000
vt 0.145020 0.117432 0.000000
vt 0.364502 0.031250 0.000000
vt 0.145020 0.117432 0.000000
vt 0.250977 0.117432 0.000000
vt 0.552734 0.776367 0.000000
vt 0.470459 0.886230 0.000000
vt 0.470459 0.803711 0.000000
vt 0.541016 0.862549 0.000000
vt 0.470459 0.803711 0.000000
vt 0.470459 0.886230 0.000000
vt 0.470459 0.803711 0.000000
vt 0.541016 0.862549 0.000000
vt 0.552734 0.776367 0.000000
vt 0.674316 0.878418 0.000000
vt 0.552734 0.776367 0.000000
vt 0.541016 0.862549 0.000000
vn 0.098877 0.445313 0.889648
vn 0.561035 0.826904 -0.036865
vn 0.145508 0.989014 -0.015869
vn 0.056641 0.425293 -0.903076
vn 0.145508 0.989014 -0.015869
vn 0.561035 0.826904 -0.036865
vn 0.145508 0.989014 -0.015869
vn 0.056641 0.425293 -0.903076
vn -0.361084 0.260498 -0.895264
vn -0.482910 0.168945 -0.858887
vn -0.361084 0.260498 -0.895264
vn 0.056641 0.425293 -0.903076
vn -0.361084 0.260498 -0.895264
vn -0.482910 0.168945 -0.858887
vn -0.789551 0.613281 -0.000244
vn -0.992188 -0.119873 -0.027588
vn -0.789551 0.613281 -0.000244
vn -0.482910 0.168945 -0.858887
vn -0.789551 0.613281 -0.000244
vn -0.992188 -0.119873 -0.027588
vn -0.368652 0.268311 0.889893
vn -0.394775 0.237061 0.887451
vn -0.368652 0.268311 0.889893
vn -0.992188 -0.119873 -0.027588
vn -0.368652 0.268311 0.889893
vn -0.394775 0.237061 0.887451
vn 0.098877 0.445313 0.889648
vn 0.186279 0.462158 0.866943
vn 0.098877 0.445313 0.889648
vn -0.394775 0.237061 0.887451
vn 0.098877 0.445313 0.889648
vn 0.186279 0.462158 0.866943
vn 0.561035 0.826904 -0.036865
vn 0.685303 0.726318 -0.050293
vn 0.561035 0.826904 -0.036865
vn 0.186279 0.462158 0.866943
vn 0.561035 0.826904 -0.036865
vn 0.685303 0.726318 -0.050293
vn 0.118164 0.518799 -0.846436
vn 0.235107 0.474609 -0.848145
vn 0.118164 0.518799 -0.846436
vn 0.685303 0.726318 -0.050293
vn 0.118164 0.518799 -0.846436
vn 0.235107 0.474609 -0.848145
vn -0.308105 0.365234 -0.878174
vn 0.368652 0.425537 -0.826172
vn -0.308105 0.365234 -0.878174
vn 0.235107 0.474609 -0.848145
vn -0.308105 0.365234 -0.878174
vn 0.368652 0.425537 -0.826172
vn -0.162109 0.358887 -0.918945
vn 0.411621 0.279785 -0.867188
vn -0.162109 0.358887 -0.918945
vn 0.368652 0.425537 -0.826172
vn -0.162109 0.358887 -0.918945
vn 0.411621 0.279785 -0.867188
vn -0.039795 0.199707 -0.979004
vn 0.489502 0.129883 -0.862061
vn -0.039795 0.199707 -0.979004
vn 0.411621 0.279785 -0.867188
vn -0.039795 0.199707 -0.979004
vn 0.489502 0.129883 -0.862061
vn -0.002441 0.014404 -0.999756
vn 0.533936 -0.134766 -0.834473
vn -0.002441 0.014404 -0.999756
vn 0.489502 0.129883 -0.862061
vn -0.002441 0.014404 -0.999756
vn 0.533936 -0.134766 -0.834473
vn 0.045654 -0.187012 -0.981201
vn 0.525146 -0.421387 -0.739014
vn 0.045654 -0.187012 -0.981201
vn 0.533936 -0.134766 -0.834473
vn 0.045654 -0.187012 -0.981201
vn 0.525146 -0.421387 -0.739014
vn 0.102295 -0.418457 -0.902344
vn 0.435547 -0.732422 -0.522949
vn 0.102295 -0.418457 -0.902344
vn 0.525146 -0.421387 -0.739014
vn 0.102295 -0.418457 -0.902344
vn 0.435547 -0.732422 -0.522949
vn 0.180176 -0.736572 -0.651611
vn 0.237549 -0.971191 0.000000
vn 0.180176 -0.736572 -0.651611
vn 0.435547 -0.732422 -0.522949
vn 0.180176 -0.736572 -0.651611
vn 0.237549 -0.971191 0.000000
vn -0.048096 -0.850830 -0.522949
vn -0.228271 -0.973389 0.000000
vn -0.048096 -0.850830 -0.522949
vn 0.237549 -0.971191 0.000000
vn -0.048096 -0.850830 -0.522949
vn -0.228271 -0.973389 0.000000
vn -0.565430 -0.824707 0.000000
vn -0.271240 -0.616455 0.739014
vn -0.565430 -0.824707 0.000000
vn -0.228271 -0.973389 0.000000
vn -0.565430 -0.824707 0.000000
vn -0.271240 -0.616455 0.739014
vn -0.411133 -0.366211 0.834473
vn 0.045654 -0.187012 0.981201
vn -0.411133 -0.366211 0.834473
vn -0.271240 -0.616455 0.739014
vn -0.411133 -0.366211 0.834473
vn 0.045654 -0.187012 0.981201
vn -0.004150 0.013916 0.999756
vn 0.489502 0.126953 0.862549
vn -0.004150 0.013916 0.999756
vn 0.045654 -0.187012 0.981201
vn -0.004150 0.013916 0.999756
vn 0.489502 0.126953 0.862549
vn 0.425781 0.281494 0.859619
vn 0.881836 0.471191 0.001465
vn 0.425781 0.281494 0.859619
vn 0.489502 0.126953 0.862549
vn 0.425781 0.281494 0.859619
vn 0.881836 0.471191 0.001465
vn 0.801025 0.598389 -0.005371
vn 0.368652 0.425537 -0.826172
vn 0.801025 0.598389 -0.005371
vn 0.881836 0.471191 0.001465
vn 0.801025 0.598389 -0.005371
vn 0.368652 0.425537 -0.826172
vn 0.235107 0.474609 -0.848145
vn 0.425781 0.281494 0.859619
vn 0.801025 0.598389 -0.005371
vn 0.380859 0.399658 0.833496
vn 0.685303 0.726318 -0.050293
vn 0.380859 0.399658 0.833496
vn 0.801025 0.598389 -0.005371
vn 0.380859 0.399658 0.833496
vn 0.685303 0.726318 -0.050293
vn 0.186279 0.462158 0.866943
vn 0.970703 0.239502 -0.001465
vn 0.533936 -0.134766 0.834473
vn 0.992188 -0.123535 0.000000
vn 0.525146 -0.421387 0.739014
vn 0.992188 -0.123535 0.000000
vn 0.533936 -0.134766 0.834473
vn 0.992188 -0.123535 0.000000
vn 0.525146 -0.421387 0.739014
vn 0.882324 -0.470459 0.000000
vn -0.004150 0.013916 0.999756
vn 0.425781 0.281494 0.859619
vn -0.060547 0.189941 0.979736
vn 0.380859 0.399658 0.833496
vn -0.060547 0.189941 0.979736
vn 0.425781 0.281494 0.859619
vn -0.060547 0.189941 0.979736
vn 0.380859 0.399658 0.833496
vn -0.192627 0.388672 0.900879
vn 0.186279 0.462158 0.866943
vn -0.192627 0.388672 0.900879
vn 0.380859 0.399658 0.833496
vn -0.192627 0.388672 0.900879
vn 0.186279 0.462158 0.866943
vn -0.358398 0.331299 0.872559
vn -0.394775 0.237061 0.887451
vn -0.358398 0.331299 0.872559
vn 0.186279 0.462158 0.866943
vn -0.358398 0.331299 0.872559
vn -0.394775 0.237061 0.887451
vn -0.992188 -0.119873 -0.027588
vn 0.533936 -0.134766 0.834473
vn 0.102295 -0.418457 0.902344
vn 0.525146 -0.421387 0.739014
vn -0.411133 -0.366211 0.834473
vn -0.004150 0.013916 0.999756
vn -0.494141 -0.110840 0.862061
vn -0.060547 0.189941 0.979736
vn -0.494141 -0.110840 0.862061
vn -0.004150 0.013916 0.999756
vn -0.494141 -0.110840 0.862061
vn -0.060547 0.189941 0.979736
vn -0.525635 0.123291 0.841553
vn -0.192627 0.388672 0.900879
vn -0.525635 0.123291 0.841553
vn -0.060547 0.189941 0.979736
vn -0.525635 0.123291 0.841553
vn -0.192627 0.388672 0.900879
vn -0.494385 0.475098 0.727539
vn -0.207764 0.751221 0.626221
vn -0.494385 0.475098 0.727539
vn -0.192627 0.388672 0.900879
vn -0.494385 0.475098 0.727539
vn -0.207764 0.751221 0.626221
vn -0.409180 0.743652 0.528320
vn -0.876709 0.480713 -0.006592
vn -0.409180 0.743652 0.528320
vn -0.207764 0.751221 0.626221
vn 0.180176 -0.736572 0.651611
vn 0.102295 -0.418457 0.902344
vn -0.048096 -0.850830 0.522949
vn 0.102295 -0.418457 0.902344
vn 0.180176 -0.736572 0.651611
vn 0.525146 -0.421387 0.739014
vn 0.435547 -0.732422 0.522949
vn 0.525146 -0.421387 0.739014
vn 0.180176 -0.736572 0.651611
vn 0.525146 -0.421387 0.739014
vn 0.435547 -0.732422 0.522949
vn 0.882324 -0.470459 0.000000
vn 0.652100 -0.758057 0.000000
vn 0.882324 -0.470459 0.000000
vn 0.435547 -0.732422 0.522949
vn 0.237549 -0.971191 0.000000
vn 0.180176 -0.736572 0.651611
vn -0.048096 -0.850830 0.522949
vn 0.180176 -0.736572 0.651611
vn 0.237549 -0.971191 0.000000
vn 0.435547 -0.732422 0.522949
vn 0.652100 -0.758057 0.000000
vn 0.435547 -0.732422 0.522949
vn 0.237549 -0.971191 0.000000
vn -0.876709 0.480713 -0.006592
vn -0.612793 0.782471 0.110107
vn -0.409180 0.743652 0.528320
vn -0.873047 0.487549 -0.001221
vn -0.409180 0.743652 0.528320
vn -0.612793 0.782471 0.110107
vn -0.409180 0.743652 0.528320
vn -0.873047 0.487549 -0.001221
vn -0.494385 0.475098 0.727539
vn -0.992432 0.120850 -0.000244
vn -0.494385 0.475098 0.727539
vn -0.873047 0.487549 -0.001221
vn -0.494385 0.475098 0.727539
vn -0.992432 0.120850 -0.000244
vn -0.525635 0.123291 0.841553
vn -0.971680 -0.235596 0.001465
vn -0.525635 0.123291 0.841553
vn -0.992432 0.120850 -0.000244
vn -0.525635 0.123291 0.841553
vn -0.971680 -0.235596 0.001465
vn -0.494141 -0.110840 0.862061
vn -0.822998 -0.567871 0.000000
vn -0.494141 -0.110840 0.862061
vn -0.971680 -0.235596 0.001465
vn -0.494141 -0.110840 0.862061
vn -0.822998 -0.567871 0.000000
vn -0.411133 -0.366211 0.834473
vn -0.565430 -0.824707 0.000000
vn -0.411133 -0.366211 0.834473
vn -0.822998 -0.567871 0.000000
vn -0.048096 -0.850830 0.522949
vn -0.228271 -0.973389 0.000000
vn 0.237549 -0.971191 0.000000
vn -0.228271 -0.973389 0.000000
vn -0.048096 -0.850830 0.522949
vn -0.271240 -0.616455 0.739014
vn 0.102295 -0.418457 0.902344
vn -0.271240 -0.616455 0.739014
vn -0.048096 -0.850830 0.522949
vn -0.271240 -0.616455 0.739014
vn 0.102295 -0.418457 0.902344
vn 0.045654 -0.187012 0.981201
vn 0.533936 -0.134766 0.834473
vn 0.045654 -0.187012 0.981201
vn 0.102295 -0.418457 0.902344
vn 0.045654 -0.187012 0.981201
vn 0.533936 -0.134766 0.834473
vn 0.489502 0.126953 0.862549
vn 0.970703 0.239502 -0.001465
vn 0.489502 0.126953 0.862549
vn 0.533936 -0.134766 0.834473
vn 0.489502 0.126953 0.862549
vn 0.970703 0.239502 -0.001465
vn 0.881836 0.471191 0.001465
vn 0.411621 0.279785 -0.867188
vn 0.881836 0.471191 0.001465
vn 0.970703 0.239502 -0.001465
vn 0.881836 0.471191 0.001465
vn 0.411621 0.279785 -0.867188
vn 0.368652 0.425537 -0.826172
vn -0.271240 -0.616455 -0.739014
vn 0.180176 -0.736572 -0.651611
vn -0.048096 -0.850830 -0.522949
vn 0.180176 -0.736572 -0.651611
vn -0.271240 -0.616455 -0.739014
vn 0.102295 -0.418457 -0.902344
vn -0.411133 -0.366211 -0.834473
vn 0.102295 -0.418457 -0.902344
vn -0.271240 -0.616455 -0.739014
vn 0.102295 -0.418457 -0.902344
vn -0.411133 -0.366211 -0.834473
vn 0.045654 -0.187012 -0.981201
vn -0.492676 -0.113281 -0.862549
vn 0.045654 -0.187012 -0.981201
vn -0.411133 -0.366211 -0.834473
vn 0.045654 -0.187012 -0.981201
vn -0.492676 -0.113281 -0.862549
vn -0.002441 0.014404 -0.999756
vn -0.534424 0.127197 -0.835449
vn -0.002441 0.014404 -0.999756
vn -0.492676 -0.113281 -0.862549
vn -0.002441 0.014404 -0.999756
vn -0.534424 0.127197 -0.835449
vn -0.039795 0.199707 -0.979004
vn -0.496582 0.450439 -0.741699
vn -0.039795 0.199707 -0.979004
vn -0.534424 0.127197 -0.835449
vn -0.039795 0.199707 -0.979004
vn -0.496582 0.450439 -0.741699
vn -0.162109 0.358887 -0.918945
vn -0.357910 0.739990 -0.569336
vn -0.162109 0.358887 -0.918945
vn -0.496582 0.450439 -0.741699
vn -0.162109 0.358887 -0.918945
vn -0.357910 0.739990 -0.569336
vn -0.434814 0.632324 -0.640869
vn -0.361084 0.260498 -0.895264
vn -0.789551 0.613281 -0.000244
vn 0.145508 0.989014 -0.015869
vn -0.368652 0.268311 0.889893
vn 0.145508 0.989014 -0.015869
vn -0.789551 0.613281 -0.000244
vn 0.145508 0.989014 -0.015869
vn -0.368652 0.268311 0.889893
vn 0.002686 0.467285 0.883789
vn 0.098877 0.445313 0.889648
vn 0.002686 0.467285 0.883789
vn -0.368652 0.268311 0.889893
vn 0.002686 0.467285 0.883789
vn 0.098877 0.445313 0.889648
vn 0.145508 0.989014 -0.015869
vn 0.411621 0.279785 -0.867188
vn 0.970703 0.239502 -0.001465
vn 0.489502 0.129883 -0.862061
vn 0.992188 -0.123535 0.000000
vn 0.489502 0.129883 -0.862061
vn 0.970703 0.239502 -0.001465
vn 0.489502 0.129883 -0.862061
vn 0.992188 -0.123535 0.000000
vn 0.533936 -0.134766 -0.834473
vn 0.882324 -0.470459 0.000000
vn 0.533936 -0.134766 -0.834473
vn 0.992188 -0.123535 0.000000
vn 0.533936 -0.134766 -0.834473
vn 0.882324 -0.470459 0.000000
vn 0.525146 -0.421387 -0.739014
vn 0.652100 -0.758057 0.000000
vn 0.525146 -0.421387 -0.739014
vn 0.882324 -0.470459 0.000000
vn 0.525146 -0.421387 -0.739014
vn 0.652100 -0.758057 0.000000
vn 0.435547 -0.732422 -0.522949
vn 0.237549 -0.971191 0.000000
vn 0.435547 -0.732422 -0.522949
vn 0.652100 -0.758057 0.000000
vn 0.801025 0.598389 -0.005371
vn 0.235107 0.474609 -0.848145
vn 0.685303 0.726318 -0.050293
vn -0.207764 0.751221 0.626221
vn -0.192627 0.388672 0.900879
vn -0.876709 0.480713 -0.006592
vn -0.358398 0.331299 0.872559
vn -0.876709 0.480713 -0.006592
vn -0.192627 0.388672 0.900879
vn -0.482910 0.168945 -0.858887
vn 0.056641 0.425293 -0.903076
vn 0.118164 0.518799 -0.846436
vn 0.561035 0.826904 -0.036865
vn 0.118164 0.518799 -0.846436
vn 0.056641 0.425293 -0.903076
vn -0.434814 0.632324 -0.640869
vn -0.308105 0.365234 -0.878174
vn -0.162109 0.358887 -0.918945
vn -0.308105 0.365234 -0.878174
vn -0.434814 0.632324 -0.640869
vn -0.876709 0.480713 -0.006592
vn -0.357910 0.739990 -0.569336
vn -0.876709 0.480713 -0.006592
vn -0.434814 0.632324 -0.640869
vn -0.876709 0.480713 -0.006592
vn -0.357910 0.739990 -0.569336
vn -0.612793 0.782471 0.110107
vn -0.496582 0.450439 -0.741699
vn -0.612793 0.782471 0.110107
vn -0.357910 0.739990 -0.569336
vn -0.612793 0.782471 0.110107
vn -0.496582 0.450439 -0.741699
vn -0.873047 0.487549 -0.001221
vn -0.534424 0.127197 -0.835449
vn -0.873047 0.487549 -0.001221
vn -0.496582 0.450439 -0.741699
vn -0.873047 0.487549 -0.001221
vn -0.534424 0.127197 -0.835449
vn -0.992432 0.120850 -0.000244
vn -0.492676 -0.113281 -0.862549
vn -0.992432 0.120850 -0.000244
vn -0.534424 0.127197 -0.835449
vn -0.992432 0.120850 -0.000244
vn -0.492676 -0.113281 -0.862549
vn -0.971680 -0.235596 0.001465
vn -0.411133 -0.366211 -0.834473
vn -0.971680 -0.235596 0.001465
vn -0.492676 -0.113281 -0.862549
vn -0.971680 -0.235596 0.001465
vn -0.411133 -0.366211 -0.834473
vn -0.822998 -0.567871 0.000000
vn -0.271240 -0.616455 -0.739014
vn -0.822998 -0.567871 0.000000
vn -0.411133 -0.366211 -0.834473
vn -0.822998 -0.567871 0.000000
vn -0.271240 -0.616455 -0.739014
vn -0.565430 -0.824707 0.000000
vn -0.048096 -0.850830 -0.522949
vn -0.565430 -0.824707 0.000000
vn -0.271240 -0.616455 -0.739014
vn -0.358398 0.331299 0.872559
vn -0.992188 -0.119873 -0.027588
vn -0.876709 0.480713 -0.006592
vn -0.482910 0.168945 -0.858887
vn -0.876709 0.480713 -0.006592
vn -0.992188 -0.119873 -0.027588
vn -0.876709 0.480713 -0.006592
vn -0.482910 0.168945 -0.858887
vn -0.308105 0.365234 -0.878174
vn 0.118164 0.518799 -0.846436
vn -0.308105 0.365234 -0.878174
vn -0.482910 0.168945 -0.858887
usemtl Texture
f 1/1/1 2/2/2 3/3/3
f 4/4/4 5/5/5 6/6/6
f 7/7/7 8/8/8 9/9/9
f 10/10/10 11/11/11 12/12/12
f 13/13/13 14/14/14 15/15/15
f 16/16/16 17/17/17 18/18/18
f 19/19/19 20/20/20 21/21/21
f 22/22/22 23/23/23 24/24/24
f 25/25/25 26/26/26 27/27/27
f 28/28/28 29/29/29 30/30/30
f 31/31/31 32/32/32 33/33/33
f 34/34/34 35/35/35 36/36/36
f 37/37/37 38/38/38 39/39/39
f 40/40/40 41/41/41 42/42/42
f 43/43/43 44/44/44 45/45/45
f 46/46/46 47/47/47 48/48/48
f 49/49/49 50/50/50 51/51/51
f 52/52/52 53/53/53 54/54/54
f 55/55/55 56/56/56 57/57/57
f 58/58/58 59/59/59 60/60/60
f 61/61/61 62/62/62 63/63/63
f 64/64/64 65/65/65 66/66/66
f 67/67/67 68/68/68 69/69/69
f 70/70/70 71/71/71 72/72/72
f 73/73/73 74/74/74 75/75/75
f 76/76/76 77/77/77 78/78/78
f 79/79/79 80/80/80 81/81/81
f 82/82/82 83/83/83 84/84/84
f 85/85/85 86/86/86 87/87/87
f 88/88/88 89/89/89 90/90/90
f 91/91/91 92/92/92 93/93/93
f 94/94/94 95/95/95 96/96/96
f 97/97/97 98/98/98 99/99/99
f 100/100/100 101/101/101 102/102/102
f 103/103/103 104/104/104 105/105/105
f 106/106/106 107/107/107 108/108/108
f 109/109/109 110/110/110 111/111/111
f 112/112/112 113/113/113 114/114/114
f 115/115/115 116/116/116 117/117/117
f 118/118/118 119/119/119 120/120/120
f 121/121/121 122/122/122 123/123/123
f 124/124/124 125/125/125 126/126/126
f 127/127/127 128/128/128 129/129/129
f 130/130/130 131/131/131 132/132/132
f 133/133/133 134/134/134 135/135/135
f 136/136/136 137/137/137 138/138/138
f 139/139/139 140/140/140 141/141/141
f 142/142/142 143/143/143 144/144/144
f 145/145/145 146/146/146 147/147/147
f 148/148/148 149/149/149 150/150/150
f 151/151/151 152/152/152 153/153/153
f 154/154/154 155/155/155 156/156/156
f 157/157/157 158/158/158 159/159/159
f 160/160/160 161/161/161 162/162/162
f 163/163/163 164/164/164 165/165/165
f 166/166/166 167/167/167 168/168/168
f 169/169/169 170/170/170 171/171/171
f 172/172/172 173/173/173 174/174/174
f 175/175/175 176/176/176 177/177/177
f 178/178/178 179/179/179 180/180/180
f 181/181/181 182/182/182 183/183/183
f 184/184/184 185/185/185 186/186/186
f 187/187/187 188/188/188 189/189/189
f 190/190/190 191/191/191 192/192/192
f 193/193/193 194/194/194 195/195/195
f 196/196/196 197/197/197 198/198/198
f 199/199/199 200/200/200 201/201/201
f 202/202/202 203/203/203 204/204/204
f 205/205/205 206/206/206 207/207/207
f 208/208/208 209/209/209 210/210/210
f 211/211/211 212/212/212 213/213/213
f 214/214/214 215/215/215 216/216/216
f 217/217/217 218/218/218 219/219/219
f 220/220/220 221/221/221 222/222/222
f 223/223/223 224/224/224 225/225/225
f 226/226/226 227/227/227 228/228/228
f 229/229/229 230/230/230 231/231/231
f 232/232/232 233/233/233 234/234/234
f 235/235/235 236/236/236 237/237/237
f 238/238/238 239/239/239 240/240/240
f 241/241/241 242/242/242 243/243/243
f 244/244/244 245/245/245 246/246/246
f 247/247/247 248/248/248 249/249/249
f 250/250/250 251/251/251 252/252/252
f 253/253/253 254/254/254 255/255/255
f 256/256/256 257/257/257 258/258/258
f 259/259/259 260/260/260 261/261/261
f 262/262/262 263/263/263 264/264/264
f 265/265/265 266/266/266 267/267/267
f 268/268/268 269/269/269 270/270/270
f 271/271/271 272/272/272 273/273/273
f 274/274/274 275/275/275 276/276/276
f 277/277/277 278/278/278 279/279/279
f 280/280/280 281/281/281 282/282/282
f 283/283/283 284/284/284 285/285/285
f 286/286/286 287/287/287 288/288/288
f 289/289/289 290/290/290 291/291/291
f 292/292/292 293/293/293 294/294/294
f 295/295/295 296/296/296 297/297/297
f 298/298/298 299/299/299 300/300/300
f 301/301/301 302/302/302 303/303/303
f 304/304/304 305/305/305 306/306/306
f 307/307/307 308/308/308 309/309/309
f 310/310/310 311/311/311 312/312/312
f 313/313/313 314/314/314 315/315/315
f 316/316/316 317/317/317 318/318/318
f 319/319/319 320/320/320 321/321/321
f 322/322/322 323/323/323 324/324/324
f 325/325/325 326/326/326 327/327/327
f 328/328/328 329/329/329 330/330/330
f 331/331/331 332/332/332 333/333/333
f 334/334/334 335/335/335 336/336/336
f 337/337/337 338/338/338 339/339/339
f 340/340/340 341/341/341 342/342/342
f 343/343/343 344/344/344 345/345/345
f 346/346/346 347/347/347 348/348/348
f 349/349/349 350/350/350 351/351/351
f 352/352/352 353/353/353 354/354/354
f 355/355/355 356/356/356 357/357/357
f 358/358/358 359/359/359 360/360/360
f 361/361/361 362/362/362 363/363/363
f 364/364/364 365/365/365 366/366/366
f 367/367/367 368/368/368 369/369/369
f 370/370/370 371/371/371 372/372/372
f 373/373/373 374/374/374 375/375/375
f 376/376/376 377/377/377 378/378/378
f 379/379/379 380/380/380 381/381/381
f 382/382/382 383/383/383 384/384/384
f 385/385/385 386/386/386 387/387/387
f 388/388/388 389/389/389 390/390/390
f 391/391/391 392/392/392 393/393/393
f 394/394/394 395/395/395 396/396/396
f 397/397/397 398/398/398 399/399/399
f 400/400/400 401/401/401 402/402/402
f 403/403/403 404/404/404 405/405/405
f 406/406/406 407/407/407 408/408/408
f 409/409/409 410/410/410 411/411/411
f 412/412/412 413/413/413 414/414/414
f 415/415/415 416/416/416 417/417/417
f 418/418/418 419/419/419 420/420/420