# OBJ file
mtllib COPY.ICO.mtl
v 1.957275 0.462402 0.000000 0.498039 0.498039 0.498039 #1.000000
v -1.957275 0.462402 0.000000 0.498039 0.498039 0.498039 #1.000000
v 1.957275 4.377197 0.000000 0.498039 0.498039 0.498039 #1.000000
v -1.957275 0.462402 0.000000 0.498039 0.498039 0.498039 #1.000000
v -1.957275 4.377197 0.000000 0.498039 0.498039 0.498039 #1.000000
v 1.957275 4.377197 0.000000 0.498039 0.498039 0.498039 #1.000000
v -1.957275 0.462402 0.073242 0.498039 0.498039 0.498039 #1.000000
v 1.957275 0.462402 0.073242 0.498039 0.498039 0.498039 #1.000000
v -1.957275 4.377197 0.073242 0.498039 0.498039 0.498039 #1.000000
v 1.957275 0.462402 0.073242 0.498039 0.498039 0.498039 #1.000000
v 1.957275 4.377197 0.073242 0.498039 0.498039 0.498039 #1.000000
v -1.957275 4.377197 0.073242 0.498039 0.498039 0.498039 #1.000000
vt 0.004395 0.014160 0.000000
vt 0.995361 0.014160 0.000000
vt 0.004395 0.985596 0.000000
vt 0.995361 0.014160 0.000000
vt 0.995361 0.985596 0.000000
vt 0.004395 0.985596 0.000000
vt 0.004395 0.014160 0.000000
vt 0.995361 0.014160 0.000000
vt 0.004395 0.985596 0.000000
vt 0.995361 0.014160 0.000000
vt 0.995361 0.985596 0.000000
vt 0.004395 0.985596 0.000000
vn 0.000000 0.000000 -1.000000
vn 0.000000 0.000000 -1.000000
vn 0.000000 0.000000 -1.000000
vn 0.000000 0.000000 -1.000000
vn 0.000000 0.000000 -1.000000
vn 0.000000 0.000000 -1.000000
vn 0.000000 0.000000 1.000000
vn 0.000000 0.000000 1.000000
vn 0.000000 0.000000 1.000000
vn 0.000000 0.000000 1.000000
vn 0.000000 0.000000 1.000000
vn 0.000000 0.000000 1.000000
usemtl Texture
f 1/1/1 2/2/2 3/3/3
f 4/4/4 5/5/5 6/6/6
f 7/7/7 8/8/8 9/9/9
f 10/10/10 11/11/11 12/12/12
