# OBJ file
mtllib mc_oet01.ico.mtl
v 0.126465 0.829834 0.002441 0.501961 0.501961 0.501961 #0.501961
v -0.001709 0.831299 -0.128174 0.501961 0.501961 0.501961 #0.501961
v 0.126465 1.340820 0.002441 0.501961 0.501961 0.501961 #0.501961
v 0.126465 1.340820 0.002441 0.501961 0.501961 0.501961 #0.501961
v -0.001709 0.831299 -0.128174 0.501961 0.501961 0.501961 #0.501961
v -0.001709 1.342041 -0.122070 0.501961 0.501961 0.501961 #0.501961
v -0.001709 0.764404 -0.130371 0.501961 0.501961 0.501961 #0.501961
v -0.000977 0.390137 -0.042236 0.501961 0.501961 0.501961 #0.501961
v -0.109863 0.403809 -0.042236 0.501961 0.501961 0.501961 #0.501961
v -0.109863 0.408691 0.035645 0.501961 0.501961 0.501961 #0.501961
v -0.109863 0.403809 -0.042236 0.501961 0.501961 0.501961 #0.501961
v -0.001221 0.398682 0.035645 0.501961 0.501961 0.501961 #0.501961
v -0.109863 0.403809 -0.042236 0.501961 0.501961 0.501961 #0.501961
v -0.000977 0.390137 -0.042236 0.501961 0.501961 0.501961 #0.501961
v -0.001221 0.398682 0.035645 0.501961 0.501961 0.501961 #0.501961
v 0.106201 0.403809 -0.042236 0.501961 0.501961 0.501961 #0.501961
v 0.246338 0.717529 0.002441 0.501961 0.501961 0.501961 #0.501961
v 0.106201 0.408691 0.035645 0.501961 0.501961 0.501961 #0.501961
v -0.001709 1.342041 -0.122070 0.501961 0.501961 0.501961 #0.501961
v -0.001709 0.831299 -0.128174 0.501961 0.501961 0.501961 #0.501961
v -0.134277 1.340820 0.002441 0.501961 0.501961 0.501961 #0.501961
v -0.134277 1.340820 0.002441 0.501961 0.501961 0.501961 #0.501961
v -0.001709 0.831299 -0.128174 0.501961 0.501961 0.501961 #0.501961
v -0.134277 0.829834 0.002441 0.501961 0.501961 0.501961 #0.501961
v -0.134277 0.829834 0.002441 0.501961 0.501961 0.501961 #0.501961
v -0.001709 0.831299 0.133301 0.501961 0.501961 0.501961 #0.501961
v -0.134277 1.340820 0.002441 0.501961 0.501961 0.501961 #0.501961
v -0.134277 1.340820 0.002441 0.501961 0.501961 0.501961 #0.501961
v -0.001709 0.831299 0.133301 0.501961 0.501961 0.501961 #0.501961
v -0.001709 1.342041 0.126953 0.501961 0.501961 0.501961 #0.501961
v -0.001709 1.342041 0.126953 0.501961 0.501961 0.501961 #0.501961
v -0.001709 0.831299 0.133301 0.501961 0.501961 0.501961 #0.501961
v 0.126465 1.340820 0.002441 0.501961 0.501961 0.501961 #0.501961
v 0.126465 1.340820 0.002441 0.501961 0.501961 0.501961 #0.501961
v -0.001709 0.831299 0.133301 0.501961 0.501961 0.501961 #0.501961
v 0.126465 0.829834 0.002441 0.501961 0.501961 0.501961 #0.501961
v -0.001465 3.884277 -0.122803 0.501961 0.501961 0.501961 #0.501961
v -0.001465 2.409912 -0.107178 0.501961 0.501961 0.501961 #0.501961
v -0.242920 3.567383 -0.002197 0.501961 0.501961 0.501961 #0.501961
v -0.242920 2.373779 -0.002441 0.501961 0.501961 0.501961 #0.501961
v -0.242920 3.567383 -0.002197 0.501961 0.501961 0.501961 #0.501961
v -0.001465 2.409912 -0.107178 0.501961 0.501961 0.501961 #0.501961
v -0.001465 4.092773 0.172363 0.501961 0.501961 0.501961 #0.501961
v -0.001465 4.610596 0.015137 0.501961 0.501961 0.501961 #0.501961
v -0.419922 3.814697 0.010254 0.501961 0.501961 0.501961 #0.501961
v -0.001465 4.092773 -0.151611 0.501961 0.501961 0.501961 #0.501961
v -0.001465 4.610596 0.015137 0.501961 0.501961 0.501961 #0.501961
v 0.423584 3.814697 0.010254 0.501961 0.501961 0.501961 #0.501961
v -0.001465 3.884277 0.120850 0.501961 0.501961 0.501961 #0.501961
v -0.001465 2.409912 0.099121 0.501961 0.501961 0.501961 #0.501961
v 0.244385 3.567383 -0.002197 0.501961 0.501961 0.501961 #0.501961
v -0.001465 2.409912 0.099121 0.501961 0.501961 0.501961 #0.501961
v 0.244385 2.373779 -0.002441 0.501961 0.501961 0.501961 #0.501961
v 0.244385 3.567383 -0.002197 0.501961 0.501961 0.501961 #0.501961
v -0.001465 3.884277 0.120850 0.501961 0.501961 0.501961 #0.501961
v -0.242920 3.567383 -0.002197 0.501961 0.501961 0.501961 #0.501961
v -0.001465 2.409912 0.099121 0.501961 0.501961 0.501961 #0.501961
v -0.001465 2.409912 0.099121 0.501961 0.501961 0.501961 #0.501961
v -0.242920 3.567383 -0.002197 0.501961 0.501961 0.501961 #0.501961
v -0.242920 2.373779 -0.002441 0.501961 0.501961 0.501961 #0.501961
v -0.419922 3.814697 0.010254 0.501961 0.501961 0.501961 #0.501961
v -0.001465 4.610596 0.015137 0.501961 0.501961 0.501961 #0.501961
v -0.001465 4.092773 -0.151611 0.501961 0.501961 0.501961 #0.501961
v 0.423584 3.814697 0.010254 0.501961 0.501961 0.501961 #0.501961
v -0.001465 4.610596 0.015137 0.501961 0.501961 0.501961 #0.501961
v -0.001465 4.092773 0.172363 0.501961 0.501961 0.501961 #0.501961
v -0.419922 3.814697 0.010254 0.501961 0.501961 0.501961 #0.501961
v -0.001465 4.092773 -0.151611 0.501961 0.501961 0.501961 #0.501961
v -0.242920 3.567383 -0.002197 0.501961 0.501961 0.501961 #0.501961
v -0.001465 4.092773 -0.151611 0.501961 0.501961 0.501961 #0.501961
v -0.001465 3.884277 -0.122803 0.501961 0.501961 0.501961 #0.501961
v -0.242920 3.567383 -0.002197 0.501961 0.501961 0.501961 #0.501961
v -0.419922 3.814697 0.010254 0.501961 0.501961 0.501961 #0.501961
v -0.242920 3.567383 -0.002197 0.501961 0.501961 0.501961 #0.501961
v -0.001465 4.092773 0.172363 0.501961 0.501961 0.501961 #0.501961
v -0.242920 3.567383 -0.002197 0.501961 0.501961 0.501961 #0.501961
v -0.001465 3.884277 0.120850 0.501961 0.501961 0.501961 #0.501961
v -0.001465 4.092773 0.172363 0.501961 0.501961 0.501961 #0.501961
v 0.423584 3.814697 0.010254 0.501961 0.501961 0.501961 #0.501961
v -0.001465 4.092773 0.172363 0.501961 0.501961 0.501961 #0.501961
v 0.244385 3.567383 -0.002197 0.501961 0.501961 0.501961 #0.501961
v -0.001465 4.092773 0.172363 0.501961 0.501961 0.501961 #0.501961
v -0.001465 3.884277 0.120850 0.501961 0.501961 0.501961 #0.501961
v 0.244385 3.567383 -0.002197 0.501961 0.501961 0.501961 #0.501961
v 0.423584 3.814697 0.010254 0.501961 0.501961 0.501961 #0.501961
v 0.244385 3.567383 -0.002197 0.501961 0.501961 0.501961 #0.501961
v -0.001465 4.092773 -0.151611 0.501961 0.501961 0.501961 #0.501961
v 0.244385 3.567383 -0.002197 0.501961 0.501961 0.501961 #0.501961
v -0.001465 3.884277 -0.122803 0.501961 0.501961 0.501961 #0.501961
v -0.001465 4.092773 -0.151611 0.501961 0.501961 0.501961 #0.501961
v -0.001465 3.884277 -0.122803 0.501961 0.501961 0.501961 #0.501961
v 0.244385 3.567383 -0.002197 0.501961 0.501961 0.501961 #0.501961
v -0.001465 2.409912 -0.107178 0.501961 0.501961 0.501961 #0.501961
v -0.001465 2.409912 -0.107178 0.501961 0.501961 0.501961 #0.501961
v 0.244385 3.567383 -0.002197 0.501961 0.501961 0.501961 #0.501961
v 0.244385 2.373779 -0.002441 0.501961 0.501961 0.501961 #0.501961
v 0.512695 1.444580 0.148438 0.501961 0.501961 0.501961 #0.501961
v 0.375977 1.678467 0.148438 0.501961 0.501961 0.501961 #0.501961
v 0.000244 1.444580 0.213623 0.501961 0.501961 0.501961 #0.501961
v 0.000244 1.678467 0.213623 0.501961 0.501961 0.501961 #0.501961
v 0.000244 1.444580 0.213623 0.501961 0.501961 0.501961 #0.501961
v 0.375977 1.678467 0.148438 0.501961 0.501961 0.501961 #0.501961
v 0.512695 1.444580 -0.143311 0.501961 0.501961 0.501961 #0.501961
v -0.001465 1.444580 -0.208740 0.501961 0.501961 0.501961 #0.501961
v 0.375977 1.678467 -0.143311 0.501961 0.501961 0.501961 #0.501961
v -0.001465 1.444580 -0.208740 0.501961 0.501961 0.501961 #0.501961
v 0.000244 1.678467 -0.208740 0.501961 0.501961 0.501961 #0.501961
v 0.375977 1.678467 -0.143311 0.501961 0.501961 0.501961 #0.501961
v 0.512695 1.678467 0.002441 0.501961 0.501961 0.501961 #0.501961
v 0.375977 1.678467 -0.143311 0.501961 0.501961 0.501961 #0.501961
v 0.375977 1.678467 0.148438 0.501961 0.501961 0.501961 #0.501961
v 0.000244 1.678467 -0.208740 0.501961 0.501961 0.501961 #0.501961
v 0.000244 1.678467 0.213623 0.501961 0.501961 0.501961 #0.501961
v 0.375977 1.678467 -0.143311 0.501961 0.501961 0.501961 #0.501961
v 0.375977 1.678467 -0.143311 0.501961 0.501961 0.501961 #0.501961
v 0.000244 1.678467 0.213623 0.501961 0.501961 0.501961 #0.501961
v 0.375977 1.678467 0.148438 0.501961 0.501961 0.501961 #0.501961
v 0.000244 1.444580 0.213623 0.501961 0.501961 0.501961 #0.501961
v -0.001465 1.444580 -0.208740 0.501961 0.501961 0.501961 #0.501961
v 0.512695 1.444580 0.148438 0.501961 0.501961 0.501961 #0.501961
v 0.512695 1.444580 0.148438 0.501961 0.501961 0.501961 #0.501961
v -0.001465 1.444580 -0.208740 0.501961 0.501961 0.501961 #0.501961
v 0.512695 1.444580 -0.143311 0.501961 0.501961 0.501961 #0.501961
v -0.948975 1.660400 0.377197 0.501961 0.501961 0.501961 #0.501961
v -0.819092 1.660400 0.530762 0.501961 0.501961 0.501961 #0.501961
v -0.799316 1.881348 0.292236 0.501961 0.501961 0.501961 #0.501961
v -0.819092 1.660400 0.530762 0.501961 0.501961 0.501961 #0.501961
v -0.689941 1.881348 0.410889 0.501961 0.501961 0.501961 #0.501961
v -0.799316 1.881348 0.292236 0.501961 0.501961 0.501961 #0.501961
v -0.948975 1.660400 0.377197 0.501961 0.501961 0.501961 #0.501961
v -0.730469 1.821533 0.194092 0.501961 0.501961 0.501961 #0.501961
v -0.730469 1.418213 0.194092 0.501961 0.501961 0.501961 #0.501961
v -0.819092 1.660400 0.530762 0.501961 0.501961 0.501961 #0.501961
v -0.600586 1.821533 0.347656 0.501961 0.501961 0.501961 #0.501961
v -0.689941 1.881348 0.410889 0.501961 0.501961 0.501961 #0.501961
v -0.600586 1.821533 0.347656 0.501961 0.501961 0.501961 #0.501961
v -0.600586 1.418213 0.347656 0.501961 0.501961 0.501961 #0.501961
v -0.730469 1.821533 0.194092 0.501961 0.501961 0.501961 #0.501961
v -0.600586 1.418213 0.347656 0.501961 0.501961 0.501961 #0.501961
v -0.730469 1.418213 0.194092 0.501961 0.501961 0.501961 #0.501961
v -0.730469 1.821533 0.194092 0.501961 0.501961 0.501961 #0.501961
v -0.799316 1.881348 0.292236 0.501961 0.501961 0.501961 #0.501961
v -0.689941 1.881348 0.410889 0.501961 0.501961 0.501961 #0.501961
v -0.730469 1.821533 0.194092 0.501961 0.501961 0.501961 #0.501961
v -0.730469 1.821533 0.194092 0.501961 0.501961 0.501961 #0.501961
v -0.689941 1.881348 0.410889 0.501961 0.501961 0.501961 #0.501961
v -0.600586 1.821533 0.347656 0.501961 0.501961 0.501961 #0.501961
v 0.949707 1.418213 0.377197 0.501961 0.501961 0.501961 #0.501961
v 0.949707 1.660400 0.377197 0.501961 0.501961 0.501961 #0.501961
v 0.803711 1.418213 0.530762 0.501961 0.501961 0.501961 #0.501961
v 0.949707 1.660400 0.377197 0.501961 0.501961 0.501961 #0.501961
v 0.803711 1.659180 0.530762 0.501961 0.501961 0.501961 #0.501961
v 0.803711 1.418213 0.530762 0.501961 0.501961 0.501961 #0.501961
v 0.800049 1.881348 0.292236 0.501961 0.501961 0.501961 #0.501961
v 0.949707 1.660400 0.377197 0.501961 0.501961 0.501961 #0.501961
v 0.731201 1.821533 0.194092 0.501961 0.501961 0.501961 #0.501961
v 0.731201 1.418213 0.194092 0.501961 0.501961 0.501961 #0.501961
v 0.731201 1.821533 0.194092 0.501961 0.501961 0.501961 #0.501961
v 0.949707 1.660400 0.377197 0.501961 0.501961 0.501961 #0.501961
v 0.800049 1.881348 -0.291504 0.501961 0.501961 0.501961 #0.501961
v 0.690674 1.881348 -0.410156 0.501961 0.501961 0.501961 #0.501961
v 0.731201 1.821533 -0.193359 0.501961 0.501961 0.501961 #0.501961
v 0.731201 1.821533 -0.193359 0.501961 0.501961 0.501961 #0.501961
v 0.690674 1.881348 -0.410156 0.501961 0.501961 0.501961 #0.501961
v 0.601318 1.821533 -0.346924 0.501961 0.501961 0.501961 #0.501961
v 0.803711 1.659180 0.530762 0.501961 0.501961 0.501961 #0.501961
v 0.601318 1.418213 0.347656 0.501961 0.501961 0.501961 #0.501961
v 0.803711 1.418213 0.530762 0.501961 0.501961 0.501961 #0.501961
v 0.601318 1.821533 0.347656 0.501961 0.501961 0.501961 #0.501961
v 0.731201 1.821533 0.194092 0.501961 0.501961 0.501961 #0.501961
v 0.601318 1.418213 0.347656 0.501961 0.501961 0.501961 #0.501961
v 0.731201 1.821533 0.194092 0.501961 0.501961 0.501961 #0.501961
v 0.731201 1.418213 0.194092 0.501961 0.501961 0.501961 #0.501961
v 0.601318 1.418213 0.347656 0.501961 0.501961 0.501961 #0.501961
v 0.601318 1.821533 0.347656 0.501961 0.501961 0.501961 #0.501961
v 0.690674 1.878906 0.410889 0.501961 0.501961 0.501961 #0.501961
v 0.731201 1.821533 0.194092 0.501961 0.501961 0.501961 #0.501961
v 0.690674 1.878906 0.410889 0.501961 0.501961 0.501961 #0.501961
v 0.800049 1.881348 0.292236 0.501961 0.501961 0.501961 #0.501961
v 0.731201 1.821533 0.194092 0.501961 0.501961 0.501961 #0.501961
v 0.601318 1.821533 -0.346924 0.501961 0.501961 0.501961 #0.501961
v 0.601318 1.418213 -0.346924 0.501961 0.501961 0.501961 #0.501961
v 0.731201 1.821533 -0.193359 0.501961 0.501961 0.501961 #0.501961
v 0.601318 1.418213 -0.346924 0.501961 0.501961 0.501961 #0.501961
v 0.731201 1.418213 -0.193359 0.501961 0.501961 0.501961 #0.501961
v 0.731201 1.821533 -0.193359 0.501961 0.501961 0.501961 #0.501961
v 0.819824 1.660400 -0.530029 0.501961 0.501961 0.501961 #0.501961
v 0.601318 1.821533 -0.346924 0.501961 0.501961 0.501961 #0.501961
v 0.690674 1.881348 -0.410156 0.501961 0.501961 0.501961 #0.501961
v 0.949707 1.660400 -0.376465 0.501961 0.501961 0.501961 #0.501961
v 0.731201 1.821533 -0.193359 0.501961 0.501961 0.501961 #0.501961
v 0.731201 1.418213 -0.193359 0.501961 0.501961 0.501961 #0.501961
v 0.949707 1.660400 -0.376465 0.501961 0.501961 0.501961 #0.501961
v 0.819824 1.660400 -0.530029 0.501961 0.501961 0.501961 #0.501961
v 0.800049 1.881348 -0.291504 0.501961 0.501961 0.501961 #0.501961
v 0.819824 1.660400 -0.530029 0.501961 0.501961 0.501961 #0.501961
v 0.690674 1.881348 -0.410156 0.501961 0.501961 0.501961 #0.501961
v 0.800049 1.881348 -0.291504 0.501961 0.501961 0.501961 #0.501961
v -0.948975 1.660400 -0.376465 0.501961 0.501961 0.501961 #0.501961
v -0.799316 1.881348 -0.291504 0.501961 0.501961 0.501961 #0.501961
v -0.819092 1.660400 -0.530029 0.501961 0.501961 0.501961 #0.501961
v -0.819092 1.660400 -0.530029 0.501961 0.501961 0.501961 #0.501961
v -0.799316 1.881348 -0.291504 0.501961 0.501961 0.501961 #0.501961
v -0.689941 1.881348 -0.410156 0.501961 0.501961 0.501961 #0.501961
v -0.948975 1.660400 -0.376465 0.501961 0.501961 0.501961 #0.501961
v -0.730469 1.821533 -0.193359 0.501961 0.501961 0.501961 #0.501961
v -0.799316 1.881348 -0.291504 0.501961 0.501961 0.501961 #0.501961
v -0.819092 1.660400 -0.530029 0.501961 0.501961 0.501961 #0.501961
v -0.600586 1.418213 -0.346924 0.501961 0.501961 0.501961 #0.501961
v -0.819092 1.418213 -0.530029 0.501961 0.501961 0.501961 #0.501961
v -0.600586 1.821533 -0.346924 0.501961 0.501961 0.501961 #0.501961
v -0.730469 1.821533 -0.193359 0.501961 0.501961 0.501961 #0.501961
v -0.600586 1.418213 -0.346924 0.501961 0.501961 0.501961 #0.501961
v -0.730469 1.821533 -0.193359 0.501961 0.501961 0.501961 #0.501961
v -0.730469 1.418213 -0.193359 0.501961 0.501961 0.501961 #0.501961
v -0.600586 1.418213 -0.346924 0.501961 0.501961 0.501961 #0.501961
v -0.600586 1.821533 -0.346924 0.501961 0.501961 0.501961 #0.501961
v -0.689941 1.881348 -0.410156 0.501961 0.501961 0.501961 #0.501961
v -0.730469 1.821533 -0.193359 0.501961 0.501961 0.501961 #0.501961
v -0.689941 1.881348 -0.410156 0.501961 0.501961 0.501961 #0.501961
v -0.799316 1.881348 -0.291504 0.501961 0.501961 0.501961 #0.501961
v -0.730469 1.821533 -0.193359 0.501961 0.501961 0.501961 #0.501961
v 0.375977 1.678467 0.148438 0.501961 0.501961 0.501961 #0.501961
v 0.512695 1.444580 0.148438 0.501961 0.501961 0.501961 #0.501961
v 0.755859 1.673828 0.473877 0.501961 0.501961 0.501961 #0.501961
v 0.512695 1.444580 0.148438 0.501961 0.501961 0.501961 #0.501961
v 0.804688 1.454346 0.406006 0.501961 0.501961 0.501961 #0.501961
v 0.755859 1.673828 0.473877 0.501961 0.501961 0.501961 #0.501961
v 0.375977 1.678467 0.148438 0.501961 0.501961 0.501961 #0.501961
v 0.755859 1.673828 0.473877 0.501961 0.501961 0.501961 #0.501961
v 0.512695 1.678467 0.002441 0.501961 0.501961 0.501961 #0.501961
v 0.512695 1.678467 0.002441 0.501961 0.501961 0.501961 #0.501961
v 0.755859 1.673828 0.473877 0.501961 0.501961 0.501961 #0.501961
v 0.868408 1.674072 0.365723 0.501961 0.501961 0.501961 #0.501961
v 0.512695 1.678467 0.002441 0.501961 0.501961 0.501961 #0.501961
v 0.868408 1.674072 0.365723 0.501961 0.501961 0.501961 #0.501961
v 0.512695 1.444580 0.148438 0.501961 0.501961 0.501961 #0.501961
v 0.868408 1.674072 0.365723 0.501961 0.501961 0.501961 #0.501961
v 0.804688 1.454346 0.406006 0.501961 0.501961 0.501961 #0.501961
v 0.512695 1.444580 0.148438 0.501961 0.501961 0.501961 #0.501961
v 0.512695 1.678467 0.002441 0.501961 0.501961 0.501961 #0.501961
v 0.512695 1.444580 -0.143311 0.501961 0.501961 0.501961 #0.501961
v 0.868408 1.674072 -0.360596 0.501961 0.501961 0.501961 #0.501961
v 0.512695 1.444580 -0.143311 0.501961 0.501961 0.501961 #0.501961
v 0.804688 1.454346 -0.401123 0.501961 0.501961 0.501961 #0.501961
v 0.868408 1.674072 -0.360596 0.501961 0.501961 0.501961 #0.501961
v 0.375977 1.678467 -0.143311 0.501961 0.501961 0.501961 #0.501961
v 0.512695 1.678467 0.002441 0.501961 0.501961 0.501961 #0.501961
v 0.788086 1.673828 -0.450439 0.501961 0.501961 0.501961 #0.501961
v 0.868408 1.674072 -0.360596 0.501961 0.501961 0.501961 #0.501961
v 0.788086 1.673828 -0.450439 0.501961 0.501961 0.501961 #0.501961
v 0.512695 1.678467 0.002441 0.501961 0.501961 0.501961 #0.501961
v 0.375977 1.678467 -0.143311 0.501961 0.501961 0.501961 #0.501961
v 0.788086 1.673828 -0.450439 0.501961 0.501961 0.501961 #0.501961
v 0.512695 1.444580 -0.143311 0.501961 0.501961 0.501961 #0.501961
v 0.788086 1.673828 -0.450439 0.501961 0.501961 0.501961 #0.501961
v 0.804688 1.454346 -0.401123 0.501961 0.501961 0.501961 #0.501961
v 0.512695 1.444580 -0.143311 0.501961 0.501961 0.501961 #0.501961
v -0.375244 1.678467 0.148438 0.501961 0.501961 0.501961 #0.501961
v -0.512207 1.678467 0.002441 0.501961 0.501961 0.501961 #0.501961
v -0.771240 1.673828 0.473877 0.501961 0.501961 0.501961 #0.501961
v -0.771240 1.673828 0.473877 0.501961 0.501961 0.501961 #0.501961
v -0.512207 1.678467 0.002441 0.501961 0.501961 0.501961 #0.501961
v -0.867676 1.674072 0.365723 0.501961 0.501961 0.501961 #0.501961
v -0.512207 1.678467 0.002441 0.501961 0.501961 0.501961 #0.501961
v -0.512207 1.444580 0.148438 0.501961 0.501961 0.501961 #0.501961
v -0.867676 1.674072 0.365723 0.501961 0.501961 0.501961 #0.501961
v -0.512207 1.444580 0.148438 0.501961 0.501961 0.501961 #0.501961
v -0.803955 1.454346 0.406006 0.501961 0.501961 0.501961 #0.501961
v -0.867676 1.674072 0.365723 0.501961 0.501961 0.501961 #0.501961
v -0.512207 1.678467 0.002441 0.501961 0.501961 0.501961 #0.501961
v -0.867676 1.674072 -0.360596 0.501961 0.501961 0.501961 #0.501961
v -0.512207 1.444580 -0.143311 0.501961 0.501961 0.501961 #0.501961
v -0.867676 1.674072 -0.360596 0.501961 0.501961 0.501961 #0.501961
v -0.803955 1.454346 -0.401123 0.501961 0.501961 0.501961 #0.501961
v -0.512207 1.444580 -0.143311 0.501961 0.501961 0.501961 #0.501961
v -0.375244 1.678467 0.148438 0.501961 0.501961 0.501961 #0.501961
v -0.771240 1.673828 0.473877 0.501961 0.501961 0.501961 #0.501961
v -0.512207 1.444580 0.148438 0.501961 0.501961 0.501961 #0.501961
v -0.803955 1.454346 0.406006 0.501961 0.501961 0.501961 #0.501961
v -0.512207 1.444580 0.148438 0.501961 0.501961 0.501961 #0.501961
v -0.771240 1.673828 0.473877 0.501961 0.501961 0.501961 #0.501961
v -0.375244 1.678467 -0.143311 0.501961 0.501961 0.501961 #0.501961
v -0.787354 1.673828 -0.450439 0.501961 0.501961 0.501961 #0.501961
v -0.512207 1.678467 0.002441 0.501961 0.501961 0.501961 #0.501961
v -0.512207 1.678467 0.002441 0.501961 0.501961 0.501961 #0.501961
v -0.787354 1.673828 -0.450439 0.501961 0.501961 0.501961 #0.501961
v -0.867676 1.674072 -0.360596 0.501961 0.501961 0.501961 #0.501961
v -0.375244 1.678467 -0.143311 0.501961 0.501961 0.501961 #0.501961
v -0.512207 1.444580 -0.143311 0.501961 0.501961 0.501961 #0.501961
v -0.787354 1.673828 -0.450439 0.501961 0.501961 0.501961 #0.501961
v -0.512207 1.444580 -0.143311 0.501961 0.501961 0.501961 #0.501961
v -0.803955 1.454346 -0.401123 0.501961 0.501961 0.501961 #0.501961
v -0.787354 1.673828 -0.450439 0.501961 0.501961 0.501961 #0.501961
v 0.335693 2.163574 -0.002197 0.501961 0.501961 0.501961 #0.501961
v -0.001465 2.409912 -0.107178 0.501961 0.501961 0.501961 #0.501961
v 0.244385 2.373779 -0.002441 0.501961 0.501961 0.501961 #0.501961
v -0.334229 2.163574 -0.002197 0.501961 0.501961 0.501961 #0.501961
v -0.242920 2.373779 -0.002441 0.501961 0.501961 0.501961 #0.501961
v -0.001465 2.409912 -0.107178 0.501961 0.501961 0.501961 #0.501961
v -0.334229 2.163574 -0.002197 0.501961 0.501961 0.501961 #0.501961
v -0.001465 2.409912 0.099121 0.501961 0.501961 0.501961 #0.501961
v -0.242920 2.373779 -0.002441 0.501961 0.501961 0.501961 #0.501961
v -0.001465 2.409912 0.099121 0.501961 0.501961 0.501961 #0.501961
v 0.335693 2.163574 -0.002197 0.501961 0.501961 0.501961 #0.501961
v 0.244385 2.373779 -0.002441 0.501961 0.501961 0.501961 #0.501961
v -0.001953 1.584229 -0.138672 0.501961 0.501961 0.501961 #0.501961
v -0.001465 2.409912 -0.107178 0.501961 0.501961 0.501961 #0.501961
v 0.335693 1.583252 -0.002197 0.501961 0.501961 0.501961 #0.501961
v -0.001465 2.409912 -0.107178 0.501961 0.501961 0.501961 #0.501961
v 0.335693 2.163574 -0.002197 0.501961 0.501961 0.501961 #0.501961
v 0.335693 1.583252 -0.002197 0.501961 0.501961 0.501961 #0.501961
v -0.001953 1.584229 -0.138672 0.501961 0.501961 0.501961 #0.501961
v -0.334229 1.583252 -0.002197 0.501961 0.501961 0.501961 #0.501961
v -0.001465 2.409912 -0.107178 0.501961 0.501961 0.501961 #0.501961
v -0.334229 1.583252 -0.002197 0.501961 0.501961 0.501961 #0.501961
v -0.334229 2.163574 -0.002197 0.501961 0.501961 0.501961 #0.501961
v -0.001465 2.409912 -0.107178 0.501961 0.501961 0.501961 #0.501961
v -0.001953 1.584229 0.129395 0.501961 0.501961 0.501961 #0.501961
v -0.001465 2.409912 0.099121 0.501961 0.501961 0.501961 #0.501961
v -0.334229 1.583252 -0.002197 0.501961 0.501961 0.501961 #0.501961
v -0.001465 2.409912 0.099121 0.501961 0.501961 0.501961 #0.501961
v -0.334229 2.163574 -0.002197 0.501961 0.501961 0.501961 #0.501961
v -0.334229 1.583252 -0.002197 0.501961 0.501961 0.501961 #0.501961
v -0.001953 1.584229 0.129395 0.501961 0.501961 0.501961 #0.501961
v 0.335693 1.583252 -0.002197 0.501961 0.501961 0.501961 #0.501961
v -0.001465 2.409912 0.099121 0.501961 0.501961 0.501961 #0.501961
v 0.335693 1.583252 -0.002197 0.501961 0.501961 0.501961 #0.501961
v 0.335693 2.163574 -0.002197 0.501961 0.501961 0.501961 #0.501961
v -0.001465 2.409912 0.099121 0.501961 0.501961 0.501961 #0.501961
v 0.512695 1.444580 -0.143311 0.501961 0.501961 0.501961 #0.501961
v 0.512695 1.678467 0.002441 0.501961 0.501961 0.501961 #0.501961
v 0.512695 1.444580 0.148438 0.501961 0.501961 0.501961 #0.501961
v -0.512207 1.444580 -0.143311 0.501961 0.501961 0.501961 #0.501961
v -0.512207 1.444580 0.148438 0.501961 0.501961 0.501961 #0.501961
v -0.512207 1.678467 0.002441 0.501961 0.501961 0.501961 #0.501961
v 0.601318 1.418213 -0.346924 0.501961 0.501961 0.501961 #0.501961
v 0.819824 1.418213 -0.530029 0.501961 0.501961 0.501961 #0.501961
v 0.731201 1.418213 -0.193359 0.501961 0.501961 0.501961 #0.501961
v 0.819824 1.418213 -0.530029 0.501961 0.501961 0.501961 #0.501961
v 0.949707 1.418213 -0.376465 0.501961 0.501961 0.501961 #0.501961
v 0.731201 1.418213 -0.193359 0.501961 0.501961 0.501961 #0.501961
v 0.949707 1.418213 0.377197 0.501961 0.501961 0.501961 #0.501961
v 0.803711 1.418213 0.530762 0.501961 0.501961 0.501961 #0.501961
v 0.731201 1.418213 0.194092 0.501961 0.501961 0.501961 #0.501961
v 0.731201 1.418213 0.194092 0.501961 0.501961 0.501961 #0.501961
v 0.803711 1.418213 0.530762 0.501961 0.501961 0.501961 #0.501961
v 0.601318 1.418213 0.347656 0.501961 0.501961 0.501961 #0.501961
v -0.948975 1.418213 -0.376465 0.501961 0.501961 0.501961 #0.501961
v -0.819092 1.418213 -0.530029 0.501961 0.501961 0.501961 #0.501961
v -0.730469 1.418213 -0.193359 0.501961 0.501961 0.501961 #0.501961
v -0.819092 1.418213 -0.530029 0.501961 0.501961 0.501961 #0.501961
v -0.600586 1.418213 -0.346924 0.501961 0.501961 0.501961 #0.501961
v -0.730469 1.418213 -0.193359 0.501961 0.501961 0.501961 #0.501961
v -0.948975 1.418213 0.377197 0.501961 0.501961 0.501961 #0.501961
v -0.730469 1.418213 0.194092 0.501961 0.501961 0.501961 #0.501961
v -0.819092 1.418213 0.530762 0.501961 0.501961 0.501961 #0.501961
v -0.730469 1.418213 0.194092 0.501961 0.501961 0.501961 #0.501961
v -0.600586 1.418213 0.347656 0.501961 0.501961 0.501961 #0.501961
v -0.819092 1.418213 0.530762 0.501961 0.501961 0.501961 #0.501961
v 0.000732 1.484863 0.139893 0.501961 0.501961 0.501961 #0.501961
v -0.314941 1.484131 0.006592 0.501961 0.501961 0.501961 #0.501961
v -0.001709 1.342041 0.126953 0.501961 0.501961 0.501961 #0.501961
v -0.314941 1.484131 0.006592 0.501961 0.501961 0.501961 #0.501961
v -0.134277 1.340820 0.002441 0.501961 0.501961 0.501961 #0.501961
v -0.001709 1.342041 0.126953 0.501961 0.501961 0.501961 #0.501961
v -0.314941 1.484131 0.006592 0.501961 0.501961 0.501961 #0.501961
v 0.000732 1.484863 -0.185791 0.501961 0.501961 0.501961 #0.501961
v -0.134277 1.340820 0.002441 0.501961 0.501961 0.501961 #0.501961
v 0.000732 1.484863 -0.185791 0.501961 0.501961 0.501961 #0.501961
v -0.001709 1.342041 -0.122070 0.501961 0.501961 0.501961 #0.501961
v -0.134277 1.340820 0.002441 0.501961 0.501961 0.501961 #0.501961
v 0.000732 1.484863 -0.185791 0.501961 0.501961 0.501961 #0.501961
v 0.307373 1.484131 0.006592 0.501961 0.501961 0.501961 #0.501961
v -0.001709 1.342041 -0.122070 0.501961 0.501961 0.501961 #0.501961
v 0.307373 1.484131 0.006592 0.501961 0.501961 0.501961 #0.501961
v 0.126465 1.340820 0.002441 0.501961 0.501961 0.501961 #0.501961
v -0.001709 1.342041 -0.122070 0.501961 0.501961 0.501961 #0.501961
v 0.307373 1.484131 0.006592 0.501961 0.501961 0.501961 #0.501961
v 0.000732 1.484863 0.139893 0.501961 0.501961 0.501961 #0.501961
v 0.126465 1.340820 0.002441 0.501961 0.501961 0.501961 #0.501961
v 0.000732 1.484863 0.139893 0.501961 0.501961 0.501961 #0.501961
v -0.001709 1.342041 0.126953 0.501961 0.501961 0.501961 #0.501961
v 0.126465 1.340820 0.002441 0.501961 0.501961 0.501961 #0.501961
v 0.158447 0.762939 0.002441 0.501961 0.501961 0.501961 #0.501961
v -0.001709 0.764404 0.135254 0.501961 0.501961 0.501961 #0.501961
v 0.246338 0.717529 0.002441 0.501961 0.501961 0.501961 #0.501961
v -0.001709 0.764404 -0.130371 0.501961 0.501961 0.501961 #0.501961
v 0.158447 0.762939 0.002441 0.501961 0.501961 0.501961 #0.501961
v 0.246338 0.717529 0.002441 0.501961 0.501961 0.501961 #0.501961
v -0.001709 0.764404 0.135254 0.501961 0.501961 0.501961 #0.501961
v 0.158447 0.762939 0.002441 0.501961 0.501961 0.501961 #0.501961
v -0.001709 0.831299 0.133301 0.501961 0.501961 0.501961 #0.501961
v 0.126465 0.829834 0.002441 0.501961 0.501961 0.501961 #0.501961
v -0.001709 0.831299 0.133301 0.501961 0.501961 0.501961 #0.501961
v 0.158447 0.762939 0.002441 0.501961 0.501961 0.501961 #0.501961
v 0.158447 0.762939 0.002441 0.501961 0.501961 0.501961 #0.501961
v -0.001709 0.764404 -0.130371 0.501961 0.501961 0.501961 #0.501961
v 0.126465 0.829834 0.002441 0.501961 0.501961 0.501961 #0.501961
v -0.001709 0.831299 -0.128174 0.501961 0.501961 0.501961 #0.501961
v 0.126465 0.829834 0.002441 0.501961 0.501961 0.501961 #0.501961
v -0.001709 0.764404 -0.130371 0.501961 0.501961 0.501961 #0.501961
v -0.134277 0.762939 0.002441 0.501961 0.501961 0.501961 #0.501961
v -0.134277 0.829834 0.002441 0.501961 0.501961 0.501961 #0.501961
v -0.001709 0.764404 -0.130371 0.501961 0.501961 0.501961 #0.501961
v -0.134277 0.829834 0.002441 0.501961 0.501961 0.501961 #0.501961
v -0.001709 0.831299 -0.128174 0.501961 0.501961 0.501961 #0.501961
v -0.001709 0.764404 -0.130371 0.501961 0.501961 0.501961 #0.501961
v -0.001709 0.764404 0.135254 0.501961 0.501961 0.501961 #0.501961
v -0.001709 0.831299 0.133301 0.501961 0.501961 0.501961 #0.501961
v -0.134277 0.762939 0.002441 0.501961 0.501961 0.501961 #0.501961
v -0.001709 0.831299 0.133301 0.501961 0.501961 0.501961 #0.501961
v -0.134277 0.829834 0.002441 0.501961 0.501961 0.501961 #0.501961
v -0.134277 0.762939 0.002441 0.501961 0.501961 0.501961 #0.501961
v -0.001709 0.764404 -0.130371 0.501961 0.501961 0.501961 #0.501961
v 0.246338 0.717529 0.002441 0.501961 0.501961 0.501961 #0.501961
v 0.106201 0.403809 -0.042236 0.501961 0.501961 0.501961 #0.501961
v -0.134277 0.762939 0.002441 0.501961 0.501961 0.501961 #0.501961
v -0.001709 0.764404 -0.130371 0.501961 0.501961 0.501961 #0.501961
v -0.254150 0.717529 0.002441 0.501961 0.501961 0.501961 #0.501961
v -0.254150 0.717529 0.002441 0.501961 0.501961 0.501961 #0.501961
v -0.190918 0.729248 0.035645 0.501961 0.501961 0.501961 #0.501961
v -0.134277 0.762939 0.002441 0.501961 0.501961 0.501961 #0.501961
v -0.134277 0.762939 0.002441 0.501961 0.501961 0.501961 #0.501961
v -0.190918 0.729248 0.035645 0.501961 0.501961 0.501961 #0.501961
v -0.001709 0.764404 0.135254 0.501961 0.501961 0.501961 #0.501961
v -0.254150 0.717529 0.002441 0.501961 0.501961 0.501961 #0.501961
v -0.109863 0.403809 -0.042236 0.501961 0.501961 0.501961 #0.501961
v -0.190918 0.729248 0.035645 0.501961 0.501961 0.501961 #0.501961
v -0.109863 0.403809 -0.042236 0.501961 0.501961 0.501961 #0.501961
v -0.109863 0.408691 0.035645 0.501961 0.501961 0.501961 #0.501961
v -0.190918 0.729248 0.035645 0.501961 0.501961 0.501961 #0.501961
v 0.106201 0.408691 0.035645 0.501961 0.501961 0.501961 #0.501961
v -0.001221 0.398682 0.035645 0.501961 0.501961 0.501961 #0.501961
v 0.106201 0.403809 -0.042236 0.501961 0.501961 0.501961 #0.501961
v 0.106201 0.403809 -0.042236 0.501961 0.501961 0.501961 #0.501961
v -0.001221 0.398682 0.035645 0.501961 0.501961 0.501961 #0.501961
v -0.000977 0.390137 -0.042236 0.501961 0.501961 0.501961 #0.501961
v -0.001709 0.764404 -0.130371 0.501961 0.501961 0.501961 #0.501961
v 0.106201 0.403809 -0.042236 0.501961 0.501961 0.501961 #0.501961
v -0.000977 0.390137 -0.042236 0.501961 0.501961 0.501961 #0.501961
v -0.001709 0.764404 -0.130371 0.501961 0.501961 0.501961 #0.501961
v -0.109863 0.403809 -0.042236 0.501961 0.501961 0.501961 #0.501961
v -0.254150 0.717529 0.002441 0.501961 0.501961 0.501961 #0.501961
v 0.106201 0.408691 0.035645 0.501961 0.501961 0.501961 #0.501961
v 0.246338 0.717529 0.002441 0.501961 0.501961 0.501961 #0.501961
v -0.001709 0.764404 0.135254 0.501961 0.501961 0.501961 #0.501961
v -0.001221 0.398682 0.035645 0.501961 0.501961 0.501961 #0.501961
v 0.106201 0.408691 0.035645 0.501961 0.501961 0.501961 #0.501961
v -0.001709 0.764404 0.135254 0.501961 0.501961 0.501961 #0.501961
v -0.001709 0.764404 0.135254 0.501961 0.501961 0.501961 #0.501961
v -0.109863 0.408691 0.035645 0.501961 0.501961 0.501961 #0.501961
v -0.001221 0.398682 0.035645 0.501961 0.501961 0.501961 #0.501961
v -0.190918 0.729248 0.035645 0.501961 0.501961 0.501961 #0.501961
v -0.109863 0.408691 0.035645 0.501961 0.501961 0.501961 #0.501961
v -0.001709 0.764404 0.135254 0.501961 0.501961 0.501961 #0.501961
v 0.819824 1.418213 -0.530029 0.501961 0.501961 0.501961 #0.501961
v 0.819824 1.660400 -0.530029 0.501961 0.501961 0.501961 #0.501961
v 0.949707 1.418213 -0.376465 0.501961 0.501961 0.501961 #0.501961
v 0.949707 1.418213 -0.376465 0.501961 0.501961 0.501961 #0.501961
v 0.819824 1.660400 -0.530029 0.501961 0.501961 0.501961 #0.501961
v 0.949707 1.660400 -0.376465 0.501961 0.501961 0.501961 #0.501961
v 0.601318 1.418213 -0.346924 0.501961 0.501961 0.501961 #0.501961
v 0.819824 1.660400 -0.530029 0.501961 0.501961 0.501961 #0.501961
v 0.819824 1.418213 -0.530029 0.501961 0.501961 0.501961 #0.501961
v 0.949707 1.660400 -0.376465 0.501961 0.501961 0.501961 #0.501961
v 0.731201 1.418213 -0.193359 0.501961 0.501961 0.501961 #0.501961
v 0.949707 1.418213 -0.376465 0.501961 0.501961 0.501961 #0.501961
v 0.731201 1.418213 0.194092 0.501961 0.501961 0.501961 #0.501961
v 0.949707 1.660400 0.377197 0.501961 0.501961 0.501961 #0.501961
v 0.949707 1.418213 0.377197 0.501961 0.501961 0.501961 #0.501961
v 0.803711 1.659180 0.530762 0.501961 0.501961 0.501961 #0.501961
v 0.949707 1.660400 0.377197 0.501961 0.501961 0.501961 #0.501961
v 0.690674 1.878906 0.410889 0.501961 0.501961 0.501961 #0.501961
v 0.949707 1.660400 0.377197 0.501961 0.501961 0.501961 #0.501961
v 0.800049 1.881348 0.292236 0.501961 0.501961 0.501961 #0.501961
v 0.690674 1.878906 0.410889 0.501961 0.501961 0.501961 #0.501961
v 0.803711 1.659180 0.530762 0.501961 0.501961 0.501961 #0.501961
v 0.601318 1.821533 0.347656 0.501961 0.501961 0.501961 #0.501961
v 0.601318 1.418213 0.347656 0.501961 0.501961 0.501961 #0.501961
v -0.819092 1.660400 -0.530029 0.501961 0.501961 0.501961 #0.501961
v -0.600586 1.821533 -0.346924 0.501961 0.501961 0.501961 #0.501961
v -0.600586 1.418213 -0.346924 0.501961 0.501961 0.501961 #0.501961
v -0.730469 1.418213 -0.193359 0.501961 0.501961 0.501961 #0.501961
v -0.948975 1.660400 -0.376465 0.501961 0.501961 0.501961 #0.501961
v -0.948975 1.418213 -0.376465 0.501961 0.501961 0.501961 #0.501961
v -0.948975 1.660400 -0.376465 0.501961 0.501961 0.501961 #0.501961
v -0.819092 1.660400 -0.530029 0.501961 0.501961 0.501961 #0.501961
v -0.948975 1.418213 -0.376465 0.501961 0.501961 0.501961 #0.501961
v -0.948975 1.418213 -0.376465 0.501961 0.501961 0.501961 #0.501961
v -0.819092 1.660400 -0.530029 0.501961 0.501961 0.501961 #0.501961
v -0.819092 1.418213 -0.530029 0.501961 0.501961 0.501961 #0.501961
v -0.948975 1.660400 0.377197 0.501961 0.501961 0.501961 #0.501961
v -0.730469 1.418213 0.194092 0.501961 0.501961 0.501961 #0.501961
v -0.948975 1.418213 0.377197 0.501961 0.501961 0.501961 #0.501961
v -0.819092 1.418213 0.530762 0.501961 0.501961 0.501961 #0.501961
v -0.819092 1.660400 0.530762 0.501961 0.501961 0.501961 #0.501961
v -0.948975 1.418213 0.377197 0.501961 0.501961 0.501961 #0.501961
v -0.948975 1.418213 0.377197 0.501961 0.501961 0.501961 #0.501961
v -0.819092 1.660400 0.530762 0.501961 0.501961 0.501961 #0.501961
v -0.948975 1.660400 0.377197 0.501961 0.501961 0.501961 #0.501961
v -0.600586 1.418213 0.347656 0.501961 0.501961 0.501961 #0.501961
v -0.819092 1.660400 0.530762 0.501961 0.501961 0.501961 #0.501961
v -0.819092 1.418213 0.530762 0.501961 0.501961 0.501961 #0.501961
v 0.601318 1.418213 -0.346924 0.501961 0.501961 0.501961 #0.501961
v 0.601318 1.821533 -0.346924 0.501961 0.501961 0.501961 #0.501961
v 0.819824 1.660400 -0.530029 0.501961 0.501961 0.501961 #0.501961
v 0.800049 1.881348 -0.291504 0.501961 0.501961 0.501961 #0.501961
v 0.731201 1.821533 -0.193359 0.501961 0.501961 0.501961 #0.501961
v 0.949707 1.660400 -0.376465 0.501961 0.501961 0.501961 #0.501961
v 0.690674 1.878906 0.410889 0.501961 0.501961 0.501961 #0.501961
v 0.601318 1.821533 0.347656 0.501961 0.501961 0.501961 #0.501961
v 0.803711 1.659180 0.530762 0.501961 0.501961 0.501961 #0.501961
v -0.600586 1.418213 0.347656 0.501961 0.501961 0.501961 #0.501961
v -0.600586 1.821533 0.347656 0.501961 0.501961 0.501961 #0.501961
v -0.819092 1.660400 0.530762 0.501961 0.501961 0.501961 #0.501961
v -0.799316 1.881348 0.292236 0.501961 0.501961 0.501961 #0.501961
v -0.730469 1.821533 0.194092 0.501961 0.501961 0.501961 #0.501961
v -0.948975 1.660400 0.377197 0.501961 0.501961 0.501961 #0.501961
v -0.730469 1.418213 -0.193359 0.501961 0.501961 0.501961 #0.501961
v -0.730469 1.821533 -0.193359 0.501961 0.501961 0.501961 #0.501961
v -0.948975 1.660400 -0.376465 0.501961 0.501961 0.501961 #0.501961
v -0.689941 1.881348 -0.410156 0.501961 0.501961 0.501961 #0.501961
v -0.600586 1.821533 -0.346924 0.501961 0.501961 0.501961 #0.501961
v -0.819092 1.660400 -0.530029 0.501961 0.501961 0.501961 #0.501961
v -0.512207 1.678467 0.002441 0.501961 0.501961 0.501961 #0.501961
v -0.375244 1.678467 0.148438 0.501961 0.501961 0.501961 #0.501961
v -0.375244 1.678467 -0.143311 0.501961 0.501961 0.501961 #0.501961
v 0.000244 1.678467 0.213623 0.501961 0.501961 0.501961 #0.501961
v 0.000244 1.678467 -0.208740 0.501961 0.501961 0.501961 #0.501961
v -0.375244 1.678467 0.148438 0.501961 0.501961 0.501961 #0.501961
v 0.000244 1.678467 -0.208740 0.501961 0.501961 0.501961 #0.501961
v -0.375244 1.678467 -0.143311 0.501961 0.501961 0.501961 #0.501961
v -0.375244 1.678467 0.148438 0.501961 0.501961 0.501961 #0.501961
v -0.512207 1.444580 0.148438 0.501961 0.501961 0.501961 #0.501961
v 0.000244 1.444580 0.213623 0.501961 0.501961 0.501961 #0.501961
v -0.375244 1.678467 0.148438 0.501961 0.501961 0.501961 #0.501961
v -0.375244 1.678467 0.148438 0.501961 0.501961 0.501961 #0.501961
v 0.000244 1.444580 0.213623 0.501961 0.501961 0.501961 #0.501961
v 0.000244 1.678467 0.213623 0.501961 0.501961 0.501961 #0.501961
v 0.000244 1.444580 0.213623 0.501961 0.501961 0.501961 #0.501961
v -0.512207 1.444580 0.148438 0.501961 0.501961 0.501961 #0.501961
v -0.001465 1.444580 -0.208740 0.501961 0.501961 0.501961 #0.501961
v -0.001465 1.444580 -0.208740 0.501961 0.501961 0.501961 #0.501961
v -0.512207 1.444580 0.148438 0.501961 0.501961 0.501961 #0.501961
v -0.512207 1.444580 -0.143311 0.501961 0.501961 0.501961 #0.501961
v -0.512207 1.444580 -0.143311 0.501961 0.501961 0.501961 #0.501961
v -0.375244 1.678467 -0.143311 0.501961 0.501961 0.501961 #0.501961
v -0.001465 1.444580 -0.208740 0.501961 0.501961 0.501961 #0.501961
v 0.000244 1.678467 -0.208740 0.501961 0.501961 0.501961 #0.501961
v -0.001465 1.444580 -0.208740 0.501961 0.501961 0.501961 #0.501961
v -0.375244 1.678467 -0.143311 0.501961 0.501961 0.501961 #0.501961
v -0.150635 1.378418 -0.188232 0.501961 0.501961 0.501961 #0.501961
v -0.122803 1.406250 -0.228516 0.501961 0.501961 0.501961 #0.501961
v 0.000000 1.316162 -0.207031 0.501961 0.501961 0.501961 #0.501961
v -0.122803 1.406250 -0.228516 0.501961 0.501961 0.501961 #0.501961
v 0.000000 1.355469 -0.247314 0.501961 0.501961 0.501961 #0.501961
v 0.000000 1.316162 -0.207031 0.501961 0.501961 0.501961 #0.501961
v 0.150635 1.378418 -0.188232 0.501961 0.501961 0.501961 #0.501961
v 0.000000 1.316162 -0.207031 0.501961 0.501961 0.501961 #0.501961
v 0.122803 1.406250 -0.228516 0.501961 0.501961 0.501961 #0.501961
v 0.000000 1.355469 -0.247314 0.501961 0.501961 0.501961 #0.501961
v 0.122803 1.406250 -0.228516 0.501961 0.501961 0.501961 #0.501961
v 0.000000 1.316162 -0.207031 0.501961 0.501961 0.501961 #0.501961
v 0.213135 1.529297 -0.178711 0.501961 0.501961 0.501961 #0.501961
v 0.150635 1.378418 -0.188232 0.501961 0.501961 0.501961 #0.501961
v 0.173828 1.529297 -0.218994 0.501961 0.501961 0.501961 #0.501961
v 0.122803 1.406250 -0.228516 0.501961 0.501961 0.501961 #0.501961
v 0.173828 1.529297 -0.218994 0.501961 0.501961 0.501961 #0.501961
v 0.150635 1.378418 -0.188232 0.501961 0.501961 0.501961 #0.501961
v 0.213135 1.529297 -0.178711 0.501961 0.501961 0.501961 #0.501961
v 0.173828 1.529297 -0.218994 0.501961 0.501961 0.501961 #0.501961
v 0.150635 1.680176 -0.188232 0.501961 0.501961 0.501961 #0.501961
v 0.173828 1.529297 -0.218994 0.501961 0.501961 0.501961 #0.501961
v 0.122803 1.652344 -0.228516 0.501961 0.501961 0.501961 #0.501961
v 0.150635 1.680176 -0.188232 0.501961 0.501961 0.501961 #0.501961
v 0.150635 1.680176 -0.188232 0.501961 0.501961 0.501961 #0.501961
v 0.122803 1.652344 -0.228516 0.501961 0.501961 0.501961 #0.501961
v 0.000000 1.742676 -0.207031 0.501961 0.501961 0.501961 #0.501961
v 0.122803 1.652344 -0.228516 0.501961 0.501961 0.501961 #0.501961
v 0.000000 1.703125 -0.247314 0.501961 0.501961 0.501961 #0.501961
v 0.000000 1.742676 -0.207031 0.501961 0.501961 0.501961 #0.501961
v -0.150635 1.680176 -0.188232 0.501961 0.501961 0.501961 #0.501961
v 0.000000 1.742676 -0.207031 0.501961 0.501961 0.501961 #0.501961
v -0.122803 1.652344 -0.228516 0.501961 0.501961 0.501961 #0.501961
v 0.000000 1.703125 -0.247314 0.501961 0.501961 0.501961 #0.501961
v -0.122803 1.652344 -0.228516 0.501961 0.501961 0.501961 #0.501961
v 0.000000 1.742676 -0.207031 0.501961 0.501961 0.501961 #0.501961
v -0.213135 1.529297 -0.178711 0.501961 0.501961 0.501961 #0.501961
v -0.150635 1.680176 -0.188232 0.501961 0.501961 0.501961 #0.501961
v -0.173828 1.529297 -0.218994 0.501961 0.501961 0.501961 #0.501961
v -0.122803 1.652344 -0.228516 0.501961 0.501961 0.501961 #0.501961
v -0.173828 1.529297 -0.218994 0.501961 0.501961 0.501961 #0.501961
v -0.150635 1.680176 -0.188232 0.501961 0.501961 0.501961 #0.501961
v -0.213135 1.529297 -0.178711 0.501961 0.501961 0.501961 #0.501961
v -0.173828 1.529297 -0.218994 0.501961 0.501961 0.501961 #0.501961
v -0.150635 1.378418 -0.188232 0.501961 0.501961 0.501961 #0.501961
v -0.173828 1.529297 -0.218994 0.501961 0.501961 0.501961 #0.501961
v -0.122803 1.406250 -0.228516 0.501961 0.501961 0.501961 #0.501961
v -0.150635 1.378418 -0.188232 0.501961 0.501961 0.501961 #0.501961
v 0.000000 1.355469 -0.247314 0.501961 0.501961 0.501961 #0.501961
v -0.122803 1.406250 -0.228516 0.501961 0.501961 0.501961 #0.501961
v 0.000000 1.529297 -0.274658 0.501961 0.501961 0.501961 #0.501961
v 0.122803 1.406250 -0.228516 0.501961 0.501961 0.501961 #0.501961
v 0.000000 1.355469 -0.247314 0.501961 0.501961 0.501961 #0.501961
v 0.000000 1.529297 -0.274658 0.501961 0.501961 0.501961 #0.501961
v 0.173828 1.529297 -0.218994 0.501961 0.501961 0.501961 #0.501961
v 0.122803 1.406250 -0.228516 0.501961 0.501961 0.501961 #0.501961
v 0.000000 1.529297 -0.274658 0.501961 0.501961 0.501961 #0.501961
v 0.122803 1.652344 -0.228516 0.501961 0.501961 0.501961 #0.501961
v 0.173828 1.529297 -0.218994 0.501961 0.501961 0.501961 #0.501961
v 0.000000 1.529297 -0.274658 0.501961 0.501961 0.501961 #0.501961
v 0.000000 1.703125 -0.247314 0.501961 0.501961 0.501961 #0.501961
v 0.122803 1.652344 -0.228516 0.501961 0.501961 0.501961 #0.501961
v 0.000000 1.529297 -0.274658 0.501961 0.501961 0.501961 #0.501961
v -0.122803 1.652344 -0.228516 0.501961 0.501961 0.501961 #0.501961
v 0.000000 1.703125 -0.247314 0.501961 0.501961 0.501961 #0.501961
v 0.000000 1.529297 -0.274658 0.501961 0.501961 0.501961 #0.501961
v -0.173828 1.529297 -0.218994 0.501961 0.501961 0.501961 #0.501961
v -0.122803 1.652344 -0.228516 0.501961 0.501961 0.501961 #0.501961
v 0.000000 1.529297 -0.274658 0.501961 0.501961 0.501961 #0.501961
v -0.122803 1.406250 -0.228516 0.501961 0.501961 0.501961 #0.501961
v -0.173828 1.529297 -0.218994 0.501961 0.501961 0.501961 #0.501961
v 0.000000 1.529297 -0.274658 0.501961 0.501961 0.501961 #0.501961
vt 0.655518 0.755615 0.000000
vt 0.498047 0.755615 0.000000
vt 0.655518 0.418457 0.000000
vt 0.655518 0.418457 0.000000
vt 0.498047 0.755615 0.000000
vt 0.498047 0.418457 0.000000
vt 0.498047 0.797363 0.000000
vt 0.499023 0.995850 0.000000
vt 0.582764 0.968506 0.000000
vt 0.585693 0.964844 0.000000
vt 0.582764 0.968506 0.000000
vt 0.500488 0.997803 0.000000
vt 0.582764 0.968506 0.000000
vt 0.499023 0.995850 0.000000
vt 0.500488 0.997803 0.000000
vt 0.582764 0.968506 0.000000
vt 0.655518 0.819580 0.000000
vt 0.585693 0.964844 0.000000
vt 0.498047 0.418457 0.000000
vt 0.498047 0.755615 0.000000
vt 0.655518 0.418457 0.000000
vt 0.655518 0.418457 0.000000
vt 0.498047 0.755615 0.000000
vt 0.655518 0.755615 0.000000
vt 0.655518 0.755615 0.000000
vt 0.498047 0.755615 0.000000
vt 0.655518 0.418457 0.000000
vt 0.655518 0.418457 0.000000
vt 0.498047 0.755615 0.000000
vt 0.498047 0.418457 0.000000
vt 0.498047 0.418457 0.000000
vt 0.498047 0.755615 0.000000
vt 0.655518 0.418457 0.000000
vt 0.655518 0.418457 0.000000
vt 0.498047 0.755615 0.000000
vt 0.655518 0.755615 0.000000
vt 0.253662 0.290283 0.000000
vt 0.253662 0.638672 0.000000
vt 0.439941 0.372314 0.000000
vt 0.067383 0.645264 0.000000
vt 0.067383 0.372314 0.000000
vt 0.248535 0.638672 0.000000
vt 0.253906 0.135010 0.000000
vt 0.253906 0.047119 0.000000
vt 0.029297 0.135010 0.000000
vt 0.253906 0.135010 0.000000
vt 0.253906 0.047119 0.000000
vt 0.470947 0.135010 0.000000
vt 0.253906 0.290283 0.000000
vt 0.253906 0.638672 0.000000
vt 0.439697 0.377686 0.000000
vt 0.253906 0.638672 0.000000
vt 0.439697 0.645264 0.000000
vt 0.439697 0.377686 0.000000
vt 0.248535 0.290283 0.000000
vt 0.067383 0.372314 0.000000
vt 0.248535 0.638672 0.000000
vt 0.253662 0.638672 0.000000
vt 0.439941 0.372314 0.000000
vt 0.439941 0.645264 0.000000
vt 0.029297 0.135010 0.000000
vt 0.253906 0.047119 0.000000
vt 0.253906 0.135010 0.000000
vt 0.470947 0.135010 0.000000
vt 0.253906 0.047119 0.000000
vt 0.253906 0.135010 0.000000
vt 0.029297 0.135010 0.000000
vt 0.253906 0.135010 0.000000
vt 0.067383 0.219482 0.000000
vt 0.253906 0.135010 0.000000
vt 0.253906 0.219238 0.000000
vt 0.067383 0.219482 0.000000
vt 0.029297 0.135010 0.000000
vt 0.067383 0.219482 0.000000
vt 0.253906 0.135010 0.000000
vt 0.067383 0.219482 0.000000
vt 0.253906 0.219238 0.000000
vt 0.253906 0.135010 0.000000
vt 0.470947 0.135010 0.000000
vt 0.253906 0.135010 0.000000
vt 0.439697 0.219971 0.000000
vt 0.253906 0.135010 0.000000
vt 0.253906 0.219238 0.000000
vt 0.439697 0.219971 0.000000
vt 0.470947 0.135010 0.000000
vt 0.439697 0.219971 0.000000
vt 0.253906 0.135010 0.000000
vt 0.439697 0.219971 0.000000
vt 0.253906 0.219238 0.000000
vt 0.253906 0.135010 0.000000
vt 0.249512 0.290283 0.000000
vt 0.068848 0.377686 0.000000
vt 0.249512 0.638672 0.000000
vt 0.249512 0.638672 0.000000
vt 0.068848 0.377686 0.000000
vt 0.068848 0.645264 0.000000
vt 0.664062 0.988037 0.000000
vt 0.742188 0.941162 0.000000
vt 0.664062 0.826172 0.000000
vt 0.742188 0.826172 0.000000
vt 0.664062 0.826172 0.000000
vt 0.742188 0.941162 0.000000
vt 0.917969 0.988037 0.000000
vt 0.917969 0.826172 0.000000
vt 0.839844 0.950684 0.000000
vt 0.917969 0.826172 0.000000
vt 0.839844 0.826172 0.000000
vt 0.839844 0.950684 0.000000
vt 0.791016 0.988037 0.000000
vt 0.839844 0.988037 0.000000
vt 0.742188 0.988037 0.000000
vt 0.839844 0.826172 0.000000
vt 0.742188 0.826172 0.000000
vt 0.839844 0.988037 0.000000
vt 0.839844 0.988037 0.000000
vt 0.742188 0.826172 0.000000
vt 0.742188 0.988037 0.000000
vt 0.988037 0.826172 0.000000
vt 0.917969 0.826172 0.000000
vt 0.988037 0.988037 0.000000
vt 0.988037 0.988037 0.000000
vt 0.917969 0.826172 0.000000
vt 0.917969 0.988037 0.000000
vt 0.495605 0.249756 0.000000
vt 0.625000 0.250000 0.000000
vt 0.496094 0.163818 0.000000
vt 0.625000 0.250000 0.000000
vt 0.625000 0.164062 0.000000
vt 0.496094 0.163818 0.000000
vt 0.991455 0.249756 0.000000
vt 0.871582 0.163330 0.000000
vt 0.871582 0.335693 0.000000
vt 0.625000 0.250000 0.000000
vt 0.732422 0.163330 0.000000
vt 0.625000 0.164062 0.000000
vt 0.732422 0.163330 0.000000
vt 0.732422 0.335693 0.000000
vt 0.871582 0.163330 0.000000
vt 0.732422 0.335693 0.000000
vt 0.871582 0.335693 0.000000
vt 0.871582 0.163330 0.000000
vt 0.988037 0.145264 0.000000
vt 0.988037 0.001465 0.000000
vt 0.875244 0.143555 0.000000
vt 0.875244 0.143555 0.000000
vt 0.988037 0.001465 0.000000
vt 0.875244 0.001465 0.000000
vt 0.625000 0.335693 0.000000
vt 0.625000 0.250000 0.000000
vt 0.495361 0.335693 0.000000
vt 0.625000 0.250000 0.000000
vt 0.495605 0.249756 0.000000
vt 0.495361 0.335693 0.000000
vt 0.871582 0.163330 0.000000
vt 0.871582 0.249512 0.000000
vt 0.991699 0.163818 0.000000
vt 0.991211 0.335693 0.000000
vt 0.991699 0.163818 0.000000
vt 0.871582 0.249512 0.000000
vt 0.875244 0.001465 0.000000
vt 0.988037 0.001465 0.000000
vt 0.875244 0.143555 0.000000
vt 0.875244 0.143555 0.000000
vt 0.988037 0.001465 0.000000
vt 0.988037 0.145264 0.000000
vt 0.625000 0.250000 0.000000
vt 0.732422 0.335693 0.000000
vt 0.625000 0.335693 0.000000
vt 0.732422 0.163330 0.000000
vt 0.871582 0.163330 0.000000
vt 0.732422 0.335693 0.000000
vt 0.871582 0.163330 0.000000
vt 0.871582 0.335693 0.000000
vt 0.732422 0.335693 0.000000
vt 0.988037 0.001465 0.000000
vt 0.875244 0.001465 0.000000
vt 0.988037 0.145264 0.000000
vt 0.875244 0.001465 0.000000
vt 0.875244 0.143555 0.000000
vt 0.988037 0.145264 0.000000
vt 0.871582 0.163330 0.000000
vt 0.871582 0.335693 0.000000
vt 0.732422 0.163330 0.000000
vt 0.871582 0.335693 0.000000
vt 0.732422 0.335693 0.000000
vt 0.732422 0.163330 0.000000
vt 0.732422 0.249512 0.000000
vt 0.625000 0.164062 0.000000
vt 0.732422 0.163330 0.000000
vt 0.991455 0.249756 0.000000
vt 0.871582 0.163330 0.000000
vt 0.871582 0.335693 0.000000
vt 0.495605 0.249756 0.000000
vt 0.625000 0.250000 0.000000
vt 0.496094 0.163818 0.000000
vt 0.625000 0.250000 0.000000
vt 0.625000 0.164062 0.000000
vt 0.496094 0.163818 0.000000
vt 0.495605 0.249756 0.000000
vt 0.496094 0.163818 0.000000
vt 0.625000 0.250000 0.000000
vt 0.625000 0.250000 0.000000
vt 0.496094 0.163818 0.000000
vt 0.625000 0.164062 0.000000
vt 0.991455 0.249756 0.000000
vt 0.871582 0.163330 0.000000
vt 0.991699 0.163818 0.000000
vt 0.732422 0.249512 0.000000
vt 0.625000 0.335693 0.000000
vt 0.732422 0.335693 0.000000
vt 0.871582 0.163330 0.000000
vt 0.732422 0.163330 0.000000
vt 0.871582 0.335693 0.000000
vt 0.732422 0.163330 0.000000
vt 0.732422 0.335693 0.000000
vt 0.871582 0.335693 0.000000
vt 0.875244 0.001465 0.000000
vt 0.988037 0.001465 0.000000
vt 0.875244 0.143555 0.000000
vt 0.988037 0.001465 0.000000
vt 0.988037 0.145264 0.000000
vt 0.875244 0.143555 0.000000
vt 0.993896 0.558838 0.000000
vt 0.993896 0.649658 0.000000
vt 0.729004 0.558838 0.000000
vt 0.993896 0.649658 0.000000
vt 0.729004 0.650391 0.000000
vt 0.729004 0.558838 0.000000
vt 0.837158 0.657959 0.000000
vt 0.839355 0.991211 0.000000
vt 0.738525 0.657471 0.000000
vt 0.738525 0.657471 0.000000
vt 0.839355 0.991211 0.000000
vt 0.737305 0.991943 0.000000
vt 0.993896 0.452881 0.000000
vt 0.729248 0.452881 0.000000
vt 0.993164 0.356201 0.000000
vt 0.729248 0.452881 0.000000
vt 0.729492 0.355713 0.000000
vt 0.993164 0.356201 0.000000
vt 0.869141 0.592529 0.000000
vt 0.904053 0.620850 0.000000
vt 0.956787 0.592529 0.000000
vt 0.904053 0.620850 0.000000
vt 0.971680 0.620117 0.000000
vt 0.956787 0.592529 0.000000
vt 0.839600 0.912598 0.000000
vt 0.740234 0.871826 0.000000
vt 0.838623 0.993164 0.000000
vt 0.739746 0.993164 0.000000
vt 0.838623 0.993164 0.000000
vt 0.740234 0.871826 0.000000
vt 0.904053 0.592529 0.000000
vt 0.906494 0.630127 0.000000
vt 0.904053 0.620850 0.000000
vt 0.906494 0.630127 0.000000
vt 0.971680 0.620117 0.000000
vt 0.904053 0.620850 0.000000
vt 0.739502 0.659424 0.000000
vt 0.837158 0.659180 0.000000
vt 0.741211 0.832520 0.000000
vt 0.741211 0.832520 0.000000
vt 0.837158 0.659180 0.000000
vt 0.839355 0.832520 0.000000
vt 0.869141 0.592529 0.000000
vt 0.834473 0.621094 0.000000
vt 0.781738 0.592773 0.000000
vt 0.834473 0.621094 0.000000
vt 0.766846 0.620361 0.000000
vt 0.781738 0.592773 0.000000
vt 0.869141 0.592529 0.000000
vt 0.956787 0.592529 0.000000
vt 0.892822 0.636963 0.000000
vt 0.956787 0.592529 0.000000
vt 0.971680 0.620117 0.000000
vt 0.892822 0.636963 0.000000
vt 0.834473 0.592773 0.000000
vt 0.745117 0.592773 0.000000
vt 0.834473 0.621094 0.000000
vt 0.766846 0.620361 0.000000
vt 0.834473 0.621094 0.000000
vt 0.745117 0.592773 0.000000
vt 0.738525 0.980225 0.000000
vt 0.743408 0.726318 0.000000
vt 0.840576 0.985596 0.000000
vt 0.840576 0.985596 0.000000
vt 0.743408 0.726318 0.000000
vt 0.837646 0.675781 0.000000
vt 0.904053 0.592529 0.000000
vt 0.892822 0.636963 0.000000
vt 0.993408 0.592529 0.000000
vt 0.892822 0.636963 0.000000
vt 0.971680 0.620117 0.000000
vt 0.993408 0.592529 0.000000
vt 0.068848 0.723633 0.000000
vt 0.249512 0.638672 0.000000
vt 0.068848 0.645264 0.000000
vt 0.067383 0.723633 0.000000
vt 0.067383 0.645264 0.000000
vt 0.248535 0.638672 0.000000
vt 0.439941 0.723633 0.000000
vt 0.253662 0.638672 0.000000
vt 0.439941 0.645264 0.000000
vt 0.253906 0.638672 0.000000
vt 0.439697 0.723633 0.000000
vt 0.439697 0.645264 0.000000
vt 0.249512 0.992432 0.000000
vt 0.249512 0.638672 0.000000
vt 0.068848 0.992676 0.000000
vt 0.249512 0.638672 0.000000
vt 0.068848 0.723633 0.000000
vt 0.068848 0.992676 0.000000
vt 0.248535 0.992432 0.000000
vt 0.067383 0.992676 0.000000
vt 0.248535 0.638672 0.000000
vt 0.067383 0.992676 0.000000
vt 0.067383 0.723633 0.000000
vt 0.248535 0.638672 0.000000
vt 0.253662 0.920410 0.000000
vt 0.253662 0.638672 0.000000
vt 0.439941 0.920410 0.000000
vt 0.253662 0.638672 0.000000
vt 0.439941 0.723633 0.000000
vt 0.439941 0.920410 0.000000
vt 0.253906 0.920410 0.000000
vt 0.439697 0.920410 0.000000
vt 0.253906 0.638672 0.000000
vt 0.439697 0.920410 0.000000
vt 0.439697 0.723633 0.000000
vt 0.253906 0.638672 0.000000
vt 0.773193 0.626221 0.000000
vt 0.833740 0.626221 0.000000
vt 0.808838 0.571045 0.000000
vt 0.773193 0.626221 0.000000
vt 0.833740 0.626221 0.000000
vt 0.803467 0.579590 0.000000
vt 0.875244 0.001465 0.000000
vt 0.875244 0.143555 0.000000
vt 0.741211 0.002930 0.000000
vt 0.875244 0.143555 0.000000
vt 0.741455 0.141846 0.000000
vt 0.741211 0.002930 0.000000
vt 0.875244 0.001465 0.000000
vt 0.875244 0.143555 0.000000
vt 0.741211 0.002930 0.000000
vt 0.741211 0.002930 0.000000
vt 0.875244 0.143555 0.000000
vt 0.741455 0.141846 0.000000
vt 0.741455 0.141846 0.000000
vt 0.875244 0.143555 0.000000
vt 0.741211 0.002930 0.000000
vt 0.875244 0.143555 0.000000
vt 0.875244 0.001465 0.000000
vt 0.741211 0.002930 0.000000
vt 0.741455 0.141846 0.000000
vt 0.741211 0.002930 0.000000
vt 0.875244 0.143555 0.000000
vt 0.741211 0.002930 0.000000
vt 0.875244 0.001465 0.000000
vt 0.875244 0.143555 0.000000
vt 0.498047 0.353760 0.000000
vt 0.655518 0.353760 0.000000
vt 0.498047 0.418457 0.000000
vt 0.655518 0.353760 0.000000
vt 0.655518 0.418457 0.000000
vt 0.498047 0.418457 0.000000
vt 0.655518 0.353760 0.000000
vt 0.498047 0.353760 0.000000
vt 0.655518 0.418457 0.000000
vt 0.498047 0.353760 0.000000
vt 0.498047 0.418457 0.000000
vt 0.655518 0.418457 0.000000
vt 0.498047 0.353760 0.000000
vt 0.655518 0.353760 0.000000
vt 0.498047 0.418457 0.000000
vt 0.655518 0.353760 0.000000
vt 0.655518 0.418457 0.000000
vt 0.498047 0.418457 0.000000
vt 0.655518 0.353760 0.000000
vt 0.498047 0.353760 0.000000
vt 0.655518 0.418457 0.000000
vt 0.498047 0.353760 0.000000
vt 0.498047 0.418457 0.000000
vt 0.655518 0.418457 0.000000
vt 0.655518 0.797363 0.000000
vt 0.498047 0.797363 0.000000
vt 0.655518 0.819580 0.000000
vt 0.498047 0.797363 0.000000
vt 0.655518 0.797363 0.000000
vt 0.655518 0.819580 0.000000
vt 0.498047 0.797363 0.000000
vt 0.655518 0.797363 0.000000
vt 0.498047 0.755615 0.000000
vt 0.655518 0.755615 0.000000
vt 0.498047 0.755615 0.000000
vt 0.655518 0.797363 0.000000
vt 0.655518 0.797363 0.000000
vt 0.498047 0.797363 0.000000
vt 0.655518 0.755615 0.000000
vt 0.498047 0.755615 0.000000
vt 0.655518 0.755615 0.000000
vt 0.498047 0.797363 0.000000
vt 0.655518 0.797363 0.000000
vt 0.655518 0.755615 0.000000
vt 0.498047 0.797363 0.000000
vt 0.655518 0.755615 0.000000
vt 0.498047 0.755615 0.000000
vt 0.498047 0.797363 0.000000
vt 0.498047 0.797363 0.000000
vt 0.498047 0.755615 0.000000
vt 0.655518 0.797363 0.000000
vt 0.498047 0.755615 0.000000
vt 0.655518 0.755615 0.000000
vt 0.655518 0.797363 0.000000
vt 0.498047 0.797363 0.000000
vt 0.655518 0.819580 0.000000
vt 0.582764 0.968506 0.000000
vt 0.655518 0.797363 0.000000
vt 0.498047 0.797363 0.000000
vt 0.655518 0.819580 0.000000
vt 0.655518 0.819580 0.000000
vt 0.657227 0.819336 0.000000
vt 0.655518 0.797363 0.000000
vt 0.655518 0.797363 0.000000
vt 0.657227 0.819336 0.000000
vt 0.498047 0.797363 0.000000
vt 0.655518 0.819580 0.000000
vt 0.582764 0.968506 0.000000
vt 0.657227 0.819336 0.000000
vt 0.582764 0.968506 0.000000
vt 0.585693 0.964844 0.000000
vt 0.657227 0.819336 0.000000
vt 0.585693 0.964844 0.000000
vt 0.500488 0.997803 0.000000
vt 0.582764 0.968506 0.000000
vt 0.582764 0.968506 0.000000
vt 0.500488 0.997803 0.000000
vt 0.499023 0.995850 0.000000
vt 0.498047 0.797363 0.000000
vt 0.582764 0.968506 0.000000
vt 0.499023 0.995850 0.000000
vt 0.498047 0.797363 0.000000
vt 0.582764 0.968506 0.000000
vt 0.655518 0.819580 0.000000
vt 0.585693 0.964844 0.000000
vt 0.655518 0.819580 0.000000
vt 0.498047 0.797363 0.000000
vt 0.500488 0.997803 0.000000
vt 0.585693 0.964844 0.000000
vt 0.498047 0.797363 0.000000
vt 0.498047 0.797363 0.000000
vt 0.585693 0.964844 0.000000
vt 0.500488 0.997803 0.000000
vt 0.657227 0.819336 0.000000
vt 0.585693 0.964844 0.000000
vt 0.498047 0.797363 0.000000
vt 0.625000 0.335693 0.000000
vt 0.625000 0.250000 0.000000
vt 0.495361 0.335693 0.000000
vt 0.495361 0.335693 0.000000
vt 0.625000 0.250000 0.000000
vt 0.495605 0.249756 0.000000
vt 0.625000 0.335693 0.000000
vt 0.732422 0.249512 0.000000
vt 0.732422 0.335693 0.000000
vt 0.991455 0.249756 0.000000
vt 0.871582 0.335693 0.000000
vt 0.991211 0.335693 0.000000
vt 0.991211 0.335693 0.000000
vt 0.871582 0.249512 0.000000
vt 0.871582 0.335693 0.000000
vt 0.495605 0.249756 0.000000
vt 0.625000 0.250000 0.000000
vt 0.496094 0.163818 0.000000
vt 0.625000 0.250000 0.000000
vt 0.625000 0.164062 0.000000
vt 0.496094 0.163818 0.000000
vt 0.625000 0.250000 0.000000
vt 0.732422 0.163330 0.000000
vt 0.732422 0.335693 0.000000
vt 0.732422 0.249512 0.000000
vt 0.625000 0.164062 0.000000
vt 0.625000 0.335693 0.000000
vt 0.871582 0.335693 0.000000
vt 0.991455 0.249756 0.000000
vt 0.991211 0.335693 0.000000
vt 0.495605 0.249756 0.000000
vt 0.625000 0.250000 0.000000
vt 0.495361 0.335693 0.000000
vt 0.495361 0.335693 0.000000
vt 0.625000 0.250000 0.000000
vt 0.625000 0.335693 0.000000
vt 0.991455 0.249756 0.000000
vt 0.871582 0.335693 0.000000
vt 0.991211 0.335693 0.000000
vt 0.625000 0.335693 0.000000
vt 0.625000 0.250000 0.000000
vt 0.495361 0.335693 0.000000
vt 0.495361 0.335693 0.000000
vt 0.625000 0.250000 0.000000
vt 0.495605 0.249756 0.000000
vt 0.732422 0.335693 0.000000
vt 0.625000 0.250000 0.000000
vt 0.625000 0.335693 0.000000
vt 0.625000 0.335693 0.000000
vt 0.625000 0.164062 0.000000
vt 0.732422 0.249512 0.000000
vt 0.991699 0.163818 0.000000
vt 0.871582 0.163330 0.000000
vt 0.991455 0.249756 0.000000
vt 0.625000 0.164062 0.000000
vt 0.732422 0.163330 0.000000
vt 0.625000 0.250000 0.000000
vt 0.732422 0.335693 0.000000
vt 0.732422 0.163330 0.000000
vt 0.625000 0.250000 0.000000
vt 0.991699 0.163818 0.000000
vt 0.871582 0.163330 0.000000
vt 0.991455 0.249756 0.000000
vt 0.871582 0.335693 0.000000
vt 0.871582 0.163330 0.000000
vt 0.991455 0.249756 0.000000
vt 0.732422 0.163330 0.000000
vt 0.625000 0.164062 0.000000
vt 0.732422 0.249512 0.000000
vt 0.791016 0.664307 0.000000
vt 0.742188 0.664307 0.000000
vt 0.839844 0.664307 0.000000
vt 0.742188 0.826172 0.000000
vt 0.839844 0.826172 0.000000
vt 0.742188 0.664307 0.000000
vt 0.839844 0.826172 0.000000
vt 0.839844 0.664307 0.000000
vt 0.742188 0.664307 0.000000
vt 0.664062 0.664307 0.000000
vt 0.664062 0.826172 0.000000
vt 0.742188 0.710938 0.000000
vt 0.742188 0.710938 0.000000
vt 0.664062 0.826172 0.000000
vt 0.742188 0.826172 0.000000
vt 0.988037 0.826172 0.000000
vt 0.988037 0.664307 0.000000
vt 0.917969 0.826172 0.000000
vt 0.917969 0.826172 0.000000
vt 0.988037 0.664307 0.000000
vt 0.917969 0.664307 0.000000
vt 0.917969 0.664307 0.000000
vt 0.839844 0.701660 0.000000
vt 0.917969 0.826172 0.000000
vt 0.839844 0.826172 0.000000
vt 0.917969 0.826172 0.000000
vt 0.839844 0.701660 0.000000
vt 0.535889 0.368652 0.000000
vt 0.535889 0.410645 0.000000
vt 0.574219 0.368652 0.000000
vt 0.535889 0.410645 0.000000
vt 0.574219 0.410645 0.000000
vt 0.574219 0.368652 0.000000
vt 0.612305 0.368652 0.000000
vt 0.574219 0.368652 0.000000
vt 0.612305 0.410645 0.000000
vt 0.574219 0.410645 0.000000
vt 0.612305 0.410645 0.000000
vt 0.574219 0.368652 0.000000
vt 0.650635 0.368652 0.000000
vt 0.612305 0.368652 0.000000
vt 0.650635 0.410645 0.000000
vt 0.612305 0.410645 0.000000
vt 0.650635 0.410645 0.000000
vt 0.612305 0.368652 0.000000
vt 0.650635 0.368652 0.000000
vt 0.650635 0.410645 0.000000
vt 0.612305 0.368652 0.000000
vt 0.650635 0.410645 0.000000
vt 0.612305 0.410645 0.000000
vt 0.612305 0.368652 0.000000
vt 0.612305 0.368652 0.000000
vt 0.612305 0.410645 0.000000
vt 0.574219 0.368652 0.000000
vt 0.612305 0.410645 0.000000
vt 0.574219 0.410645 0.000000
vt 0.574219 0.368652 0.000000
vt 0.535889 0.368652 0.000000
vt 0.574219 0.368652 0.000000
vt 0.535889 0.410645 0.000000
vt 0.574219 0.410645 0.000000
vt 0.535889 0.410645 0.000000
vt 0.574219 0.368652 0.000000
vt 0.497559 0.368652 0.000000
vt 0.535889 0.368652 0.000000
vt 0.497559 0.410645 0.000000
vt 0.535889 0.410645 0.000000
vt 0.497559 0.410645 0.000000
vt 0.535889 0.368652 0.000000
vt 0.497559 0.368652 0.000000
vt 0.497559 0.410645 0.000000
vt 0.535889 0.368652 0.000000
vt 0.497559 0.410645 0.000000
vt 0.535889 0.410645 0.000000
vt 0.535889 0.368652 0.000000
vt 0.574463 0.114502 0.000000
vt 0.619385 0.133057 0.000000
vt 0.619385 0.069824 0.000000
vt 0.556152 0.069824 0.000000
vt 0.574463 0.114502 0.000000
vt 0.619385 0.069824 0.000000
vt 0.574463 0.025146 0.000000
vt 0.556152 0.069824 0.000000
vt 0.619385 0.069824 0.000000
vt 0.619385 0.006592 0.000000
vt 0.574463 0.025146 0.000000
vt 0.619385 0.069824 0.000000
vt 0.664062 0.025146 0.000000
vt 0.619385 0.006592 0.000000
vt 0.619385 0.069824 0.000000
vt 0.682617 0.069824 0.000000
vt 0.664062 0.025146 0.000000
vt 0.619385 0.069824 0.000000
vt 0.664062 0.114502 0.000000
vt 0.682617 0.069824 0.000000
vt 0.619385 0.069824 0.000000
vt 0.619385 0.133057 0.000000
vt 0.664062 0.114502 0.000000
vt 0.619385 0.069824 0.000000
vn -0.713623 0.000000 -0.700439
vn -0.713623 0.000000 -0.700439
vn -0.713623 0.000000 -0.700439
vn -0.696289 -0.008545 -0.717529
vn -0.696289 -0.008545 -0.717529
vn -0.696289 -0.008545 -0.717529
vn 0.028564 0.228760 -0.972900
vn 0.028564 0.228760 -0.972900
vn 0.028564 0.228760 -0.972900
vn 0.093262 0.993408 0.064697
vn 0.093262 0.993408 0.064697
vn 0.093262 0.993408 0.064697
vn 0.123047 0.986572 0.106934
vn 0.123047 0.986572 0.106934
vn 0.123047 0.986572 0.106934
vn -0.911133 0.410645 0.026611
vn -0.911133 0.410645 0.026611
vn -0.911133 0.410645 0.026611
vn 0.685547 -0.008789 -0.727783
vn 0.685547 -0.008789 -0.727783
vn 0.685547 -0.008789 -0.727783
vn 0.702881 0.000000 -0.710938
vn 0.702881 0.000000 -0.710938
vn 0.702881 0.000000 -0.710938
vn 0.702881 0.000000 0.710938
vn 0.702881 0.000000 0.710938
vn 0.702881 0.000000 0.710938
vn 0.685547 -0.008789 0.727783
vn 0.685547 -0.008789 0.727783
vn 0.685547 -0.008789 0.727783
vn -0.696289 -0.008545 0.717529
vn -0.696289 -0.008545 0.717529
vn -0.696289 -0.008545 0.717529
vn -0.713623 0.000000 0.700439
vn -0.713623 0.000000 0.700439
vn -0.713623 0.000000 0.700439
vn 0.436523 0.009521 -0.899414
vn 0.436523 0.009521 -0.899414
vn 0.436523 0.009521 -0.899414
vn 0.397949 0.000000 -0.917236
vn 0.397949 0.000000 -0.917236
vn 0.397949 0.000000 -0.917236
vn 0.490967 -0.252686 0.833496
vn 0.490967 -0.252686 0.833496
vn 0.490967 -0.252686 0.833496
vn -0.490967 -0.267578 -0.828857
vn -0.490967 -0.267578 -0.828857
vn -0.490967 -0.267578 -0.828857
vn -0.434326 0.012939 0.900391
vn -0.434326 0.012939 0.900391
vn -0.434326 0.012939 0.900391
vn -0.382568 0.000000 0.923828
vn -0.382568 0.000000 0.923828
vn -0.382568 0.000000 0.923828
vn 0.441162 0.012939 0.897217
vn 0.441162 0.012939 0.897217
vn 0.441162 0.012939 0.897217
vn 0.388916 0.000000 0.921143
vn 0.388916 0.000000 0.921143
vn 0.388916 0.000000 0.921143
vn 0.496826 -0.266357 -0.825684
vn 0.496826 -0.266357 -0.825684
vn 0.496826 -0.266357 -0.825684
vn -0.484863 -0.253662 0.836670
vn -0.484863 -0.253662 0.836670
vn -0.484863 -0.253662 0.836670
vn 0.271729 0.145508 -0.951172
vn 0.271729 0.145508 -0.951172
vn 0.271729 0.145508 -0.951172
vn 0.300049 0.130615 -0.944824
vn 0.300049 0.130615 -0.944824
vn 0.300049 0.130615 -0.944824
vn 0.227295 0.211914 0.950439
vn 0.227295 0.211914 0.950439
vn 0.227295 0.211914 0.950439
vn 0.178223 0.236084 0.955078
vn 0.178223 0.236084 0.955078
vn 0.178223 0.236084 0.955078
vn -0.224121 0.211426 0.951172
vn -0.224121 0.211426 0.951172
vn -0.224121 0.211426 0.951172
vn -0.174805 0.236084 0.955811
vn -0.174805 0.236084 0.955811
vn -0.174805 0.236084 0.955811
vn -0.268066 0.145020 -0.952148
vn -0.268066 0.145020 -0.952148
vn -0.268066 0.145020 -0.952148
vn -0.294922 0.130859 -0.946289
vn -0.294922 0.130859 -0.946289
vn -0.294922 0.130859 -0.946289
vn -0.429688 0.009521 -0.902832
vn -0.429688 0.009521 -0.902832
vn -0.429688 0.009521 -0.902832
vn -0.391357 0.000000 -0.919922
vn -0.391357 0.000000 -0.919922
vn -0.391357 0.000000 -0.919922
vn -0.125977 -0.073730 0.989258
vn -0.125977 -0.073730 0.989258
vn -0.125977 -0.073730 0.989258
vn -0.171143 0.000000 0.985107
vn -0.171143 0.000000 0.985107
vn -0.171143 0.000000 0.985107
vn -0.125488 -0.073242 -0.989258
vn -0.125488 -0.073242 -0.989258
vn -0.125488 -0.073242 -0.989258
vn -0.171143 0.001221 -0.985107
vn -0.171143 0.001221 -0.985107
vn -0.171143 0.001221 -0.985107
vn 0.000244 -0.999756 0.000000
vn 0.000000 -1.000000 0.000000
vn 0.000000 -1.000000 0.000000
vn 0.000000 -1.000000 0.000000
vn 0.000000 -1.000000 0.000000
vn 0.000000 -1.000000 0.000000
vn 0.000000 -1.000000 0.000000
vn 0.000000 -1.000000 0.000000
vn 0.000000 -1.000000 0.000000
vn 0.000000 1.000000 0.000000
vn 0.000000 1.000000 0.000000
vn 0.000000 1.000000 0.000000
vn 0.000000 1.000000 0.000000
vn 0.000000 1.000000 0.000000
vn 0.000000 1.000000 0.000000
vn 0.605957 -0.607666 0.512939
vn 0.605957 -0.607666 0.512939
vn 0.605957 -0.607666 0.512939
vn 0.574951 -0.623047 0.529785
vn 0.574951 -0.623047 0.529785
vn 0.574951 -0.623047 0.529785
vn 0.642334 0.000000 -0.766113
vn 0.642334 0.000000 -0.766113
vn 0.642334 0.000000 -0.766113
vn -0.608643 -0.072510 0.789795
vn -0.608643 -0.072510 0.789795
vn -0.608643 -0.072510 0.789795
vn -0.763184 0.000000 -0.645996
vn -0.763184 0.000000 -0.645996
vn -0.763184 0.000000 -0.645996
vn -0.763184 0.000000 -0.645996
vn -0.763184 0.000000 -0.645996
vn -0.763184 0.000000 -0.645996
vn -0.334717 -0.890381 -0.307617
vn -0.334717 -0.890381 -0.307617
vn -0.334717 -0.890381 -0.307617
vn -0.366699 -0.876953 -0.309814
vn -0.366699 -0.876953 -0.309814
vn -0.366699 -0.876953 -0.309814
vn -0.724609 0.000000 0.688965
vn -0.724609 0.000000 0.688965
vn -0.724609 0.000000 0.688965
vn -0.724609 0.000000 0.688965
vn -0.724609 0.000000 0.688965
vn -0.724609 0.000000 0.688965
vn -0.720703 -0.236572 -0.651123
vn -0.720703 -0.236572 -0.651123
vn -0.720703 -0.236572 -0.651123
vn -0.642334 0.000000 -0.766113
vn -0.642334 0.000000 -0.766113
vn -0.642334 0.000000 -0.766113
vn 0.334717 -0.890625 0.307617
vn 0.334717 -0.890625 0.307617
vn 0.334717 -0.890625 0.307617
vn 0.366699 -0.876953 0.309814
vn 0.366699 -0.876953 0.309814
vn 0.366699 -0.876953 0.309814
vn 0.670898 0.000000 0.741211
vn 0.670898 0.000000 0.741211
vn 0.670898 0.000000 0.741211
vn 0.763184 0.000000 -0.645996
vn 0.763184 0.000000 -0.645996
vn 0.763184 0.000000 -0.645996
vn 0.763184 0.000000 -0.645996
vn 0.763184 0.000000 -0.645996
vn 0.763184 0.000000 -0.645996
vn 0.354980 -0.885254 -0.300049
vn 0.354980 -0.885254 -0.300049
vn 0.354980 -0.885254 -0.300049
vn 0.345459 -0.889160 -0.299316
vn 0.345459 -0.889160 -0.299316
vn 0.345459 -0.889160 -0.299316
vn 0.763184 0.000000 0.645752
vn 0.763184 0.000000 0.645752
vn 0.763184 0.000000 0.645752
vn 0.763184 0.000000 0.645752
vn 0.763184 0.000000 0.645752
vn 0.763184 0.000000 0.645752
vn 0.608643 -0.072510 -0.789795
vn 0.608643 -0.072510 -0.789795
vn 0.608643 -0.072510 -0.789795
vn -0.642334 0.000000 0.766113
vn -0.642334 0.000000 0.766113
vn -0.642334 0.000000 0.766113
vn -0.605957 -0.607666 -0.512939
vn -0.605957 -0.607666 -0.512939
vn -0.605957 -0.607666 -0.512939
vn -0.574951 -0.623047 -0.529785
vn -0.574951 -0.623047 -0.529785
vn -0.574951 -0.623047 -0.529785
vn 0.605957 -0.607666 -0.512939
vn 0.605957 -0.607666 -0.512939
vn 0.605957 -0.607666 -0.512939
vn 0.574951 -0.623047 -0.529785
vn 0.574951 -0.623047 -0.529785
vn 0.574951 -0.623047 -0.529785
vn 0.720703 -0.236572 0.651123
vn 0.720703 -0.236572 0.651123
vn 0.720703 -0.236572 0.651123
vn -0.642334 0.000000 -0.766113
vn -0.642334 0.000000 -0.766113
vn -0.642334 0.000000 -0.766113
vn -0.763184 0.000000 0.645996
vn -0.763184 0.000000 0.645996
vn -0.763184 0.000000 0.645996
vn -0.763184 0.000000 0.645996
vn -0.763184 0.000000 0.645996
vn -0.763184 0.000000 0.645996
vn -0.366699 -0.876953 0.309814
vn -0.366699 -0.876953 0.309814
vn -0.366699 -0.876953 0.309814
vn -0.334717 -0.890381 0.307617
vn -0.334717 -0.890381 0.307617
vn -0.334717 -0.890381 0.307617
vn 0.610107 0.357178 0.707031
vn 0.611084 0.355469 0.706787
vn 0.611084 0.355469 0.706787
vn 0.611084 0.355469 0.706787
vn 0.612305 0.354004 0.706787
vn 0.611084 0.355469 0.706787
vn -0.006348 -0.999756 0.006348
vn -0.006104 -0.999756 0.006348
vn -0.006104 -0.999756 0.006348
vn -0.006104 -0.999756 0.006348
vn -0.006104 -0.999756 0.006348
vn -0.005859 -0.999756 0.006592
vn -0.651855 0.401367 -0.643066
vn -0.651855 0.401367 -0.643066
vn -0.651855 0.401367 -0.643066
vn -0.634033 0.313477 -0.706543
vn -0.634033 0.313477 -0.706543
vn -0.634033 0.313477 -0.706543
vn -0.651855 0.401367 0.643066
vn -0.651855 0.401367 0.643066
vn -0.651855 0.401367 0.643066
vn -0.634033 0.313477 0.706543
vn -0.634033 0.313477 0.706543
vn -0.634033 0.313477 0.706543
vn -0.006348 -0.999756 -0.006104
vn -0.006104 -0.999756 -0.006104
vn -0.006104 -0.999756 -0.006104
vn -0.006104 -0.999756 -0.006348
vn -0.006104 -0.999756 -0.006104
vn -0.006104 -0.999756 -0.006104
vn 0.565918 0.331299 -0.754639
vn 0.565918 0.331299 -0.754639
vn 0.565918 0.331299 -0.754639
vn 0.642334 0.214111 -0.735596
vn 0.642334 0.214111 -0.735596
vn 0.642334 0.214111 -0.735596
vn 0.006348 -0.999756 0.006104
vn 0.006348 -0.999756 0.006104
vn 0.006348 -0.999756 0.006104
vn 0.006348 -0.999756 0.006104
vn 0.006348 -0.999756 0.006104
vn 0.006348 -0.999756 0.006104
vn 0.651855 0.401367 -0.643066
vn 0.651855 0.401367 -0.643066
vn 0.651855 0.401367 -0.643066
vn 0.634033 0.313477 -0.706543
vn 0.634033 0.313477 -0.706543
vn 0.634033 0.313477 -0.706543
vn 0.651855 0.401367 0.643066
vn 0.651855 0.401367 0.643066
vn 0.651855 0.401367 0.643066
vn 0.634033 0.313477 0.706543
vn 0.634033 0.313477 0.706543
vn 0.634033 0.313477 0.706543
vn -0.597168 0.349609 0.721680
vn -0.597168 0.349609 0.721680
vn -0.597168 0.349609 0.721680
vn -0.622314 0.313965 0.716797
vn -0.622314 0.313965 0.716797
vn -0.622314 0.313965 0.716797
vn 0.006348 -0.999756 -0.006104
vn 0.006348 -0.999756 -0.006104
vn 0.006348 -0.999756 -0.006104
vn 0.006348 -0.999756 -0.006104
vn 0.006348 -0.999756 -0.006104
vn 0.006104 -0.999756 -0.006104
vn -0.566162 0.331299 -0.754639
vn -0.566162 0.331299 -0.754639
vn -0.566162 0.331299 -0.754639
vn -0.642334 0.214111 -0.735596
vn -0.642334 0.214111 -0.735596
vn -0.642334 0.214111 -0.735596
vn -0.407227 -0.176270 -0.895996
vn -0.407227 -0.176270 -0.895996
vn -0.407227 -0.176270 -0.895996
vn 0.414062 -0.179199 -0.892334
vn 0.414062 -0.179199 -0.892334
vn 0.414062 -0.179199 -0.892334
vn 0.405273 -0.177002 0.896729
vn 0.405273 -0.177002 0.896729
vn 0.405273 -0.177002 0.896729
vn -0.398682 -0.174072 0.900146
vn -0.398682 -0.174072 0.900146
vn -0.398682 -0.174072 0.900146
vn -0.373779 -0.034912 -0.926758
vn -0.373779 -0.034912 -0.926758
vn -0.373779 -0.034912 -0.926758
vn -0.296631 0.000000 -0.954834
vn -0.296631 0.000000 -0.954834
vn -0.296631 0.000000 -0.954834
vn 0.379395 -0.035400 -0.924316
vn 0.379395 -0.035400 -0.924316
vn 0.379395 -0.035400 -0.924316
vn 0.300537 0.000000 -0.953613
vn 0.300537 0.000000 -0.953613
vn 0.300537 0.000000 -0.953613
vn 0.369141 -0.034180 0.928711
vn 0.369141 -0.034180 0.928711
vn 0.369141 -0.034180 0.928711
vn 0.292236 0.000000 0.956055
vn 0.292236 0.000000 0.956055
vn 0.292236 0.000000 0.956055
vn -0.363525 -0.033691 0.930908
vn -0.363525 -0.033691 0.930908
vn -0.363525 -0.033691 0.930908
vn -0.288574 0.000000 0.957275
vn -0.288574 0.000000 0.957275
vn -0.288574 0.000000 0.957275
vn -1.000000 0.000000 0.000000
vn -1.000000 0.000000 0.000000
vn -1.000000 0.000000 0.000000
vn 1.000000 0.000000 0.000000
vn 1.000000 0.000000 0.000000
vn 1.000000 0.000000 0.000000
vn 0.000000 0.999756 0.000244
vn 0.000000 0.999756 0.000244
vn 0.000000 0.999756 0.000244
vn 0.000000 0.999756 0.000244
vn 0.000000 0.999756 0.000244
vn 0.000000 0.999756 0.000244
vn 0.000000 0.999756 -0.000244
vn 0.000000 0.999756 -0.000244
vn 0.000000 0.999756 -0.000244
vn 0.000000 0.999756 -0.000244
vn 0.000000 0.999756 -0.000244
vn 0.000000 0.999756 -0.000244
vn 0.000000 0.999756 0.000244
vn 0.000000 0.999756 0.000244
vn 0.000000 0.999756 0.000244
vn 0.000000 0.999756 0.000244
vn 0.000000 0.999756 0.000244
vn 0.000000 0.999756 0.000244
vn 0.000000 0.999756 -0.000244
vn 0.000000 0.999756 -0.000244
vn 0.000000 0.999756 -0.000244
vn 0.000000 0.999756 -0.000244
vn 0.000000 0.999756 -0.000244
vn 0.000000 0.999756 -0.000244
vn 0.386963 0.074463 0.918945
vn 0.386963 0.074463 0.918945
vn 0.386963 0.074463 0.918945
vn 0.510986 0.661621 0.548340
vn 0.510986 0.661621 0.548340
vn 0.510986 0.661621 0.548340
vn 0.439209 0.533203 -0.722900
vn 0.439209 0.533203 -0.722900
vn 0.439209 0.533203 -0.722900
vn 0.653076 0.297607 -0.696045
vn 0.653076 0.297607 -0.696045
vn 0.653076 0.297607 -0.696045
vn -0.495361 0.361328 -0.789795
vn -0.495361 0.361328 -0.789795
vn -0.495361 0.361328 -0.789795
vn -0.526855 0.648926 -0.548584
vn -0.526855 0.648926 -0.548584
vn -0.526855 0.648926 -0.548584
vn -0.350830 0.467529 0.811279
vn -0.350830 0.467529 0.811279
vn -0.350830 0.467529 0.811279
vn -0.693848 0.076904 0.715576
vn -0.693848 0.076904 0.715576
vn -0.693848 0.076904 0.715576
vn -0.402344 -0.781494 0.476318
vn -0.402344 -0.781494 0.476318
vn -0.402344 -0.781494 0.476318
vn -0.402344 -0.781494 -0.476318
vn -0.402344 -0.781494 -0.476318
vn -0.402344 -0.781494 -0.476318
vn -0.637695 -0.023682 0.769531
vn -0.637695 -0.023682 0.769531
vn -0.637695 -0.023682 0.769531
vn -0.676758 -0.323730 0.660889
vn -0.676758 -0.323730 0.660889
vn -0.676758 -0.323730 0.660889
vn -0.611572 -0.292480 -0.734863
vn -0.611572 -0.292480 -0.734863
vn -0.611572 -0.292480 -0.734863
vn -0.713379 -0.021484 -0.700195
vn -0.713379 -0.021484 -0.700195
vn -0.713379 -0.021484 -0.700195
vn 0.708496 0.000000 -0.705566
vn 0.708496 0.000000 -0.705566
vn 0.708496 0.000000 -0.705566
vn 0.702881 -0.021973 -0.710693
vn 0.702881 -0.021973 -0.710693
vn 0.702881 -0.021973 -0.710693
vn 0.708496 -0.021729 0.705322
vn 0.708496 -0.021729 0.705322
vn 0.708496 -0.021729 0.705322
vn 0.702881 0.000000 0.710938
vn 0.702881 0.000000 0.710938
vn 0.702881 0.000000 0.710938
vn -0.458740 0.078125 -0.885010
vn -0.458740 0.078125 -0.885010
vn -0.458740 0.078125 -0.885010
vn 0.334229 -0.885498 -0.322266
vn 0.334229 -0.885498 -0.322266
vn 0.334229 -0.885498 -0.322266
vn 0.334229 -0.885498 0.322021
vn 0.334229 -0.885498 0.322021
vn 0.334229 -0.885498 0.322021
vn 0.334229 -0.885498 0.322021
vn 0.334229 -0.885498 0.322021
vn 0.334229 -0.885498 0.322021
vn 0.398438 0.306641 0.864258
vn 0.398438 0.306641 0.864258
vn 0.398438 0.306641 0.864258
vn 0.969238 0.245117 0.015869
vn 0.969238 0.245117 0.015869
vn 0.969238 0.245117 0.015869
vn -0.093994 0.993408 0.064697
vn -0.093994 0.993408 0.064697
vn -0.093994 0.993408 0.064697
vn -0.124756 0.986328 0.107422
vn -0.124756 0.986328 0.107422
vn -0.124756 0.986328 0.107422
vn -0.028809 0.228516 -0.972900
vn -0.028809 0.228516 -0.972900
vn -0.028809 0.228516 -0.972900
vn 0.452637 0.080811 -0.887939
vn 0.452637 0.080811 -0.887939
vn 0.452637 0.080811 -0.887939
vn -0.452637 0.110107 0.884766
vn -0.452637 0.110107 0.884766
vn -0.452637 0.110107 0.884766
vn -0.024658 0.262695 0.964355
vn -0.024658 0.262695 0.964355
vn -0.024658 0.262695 0.964355
vn 0.024658 0.262695 0.964355
vn 0.024658 0.262695 0.964355
vn 0.024658 0.262695 0.964355
vn 0.446533 0.112793 0.887451
vn 0.446533 0.112793 0.887451
vn 0.446533 0.112793 0.887451
vn -0.763184 0.000000 -0.645996
vn -0.763184 0.000000 -0.645996
vn -0.763184 0.000000 -0.645996
vn -0.763184 0.000000 -0.645996
vn -0.763184 0.000000 -0.645996
vn -0.763184 0.000000 -0.645996
vn 0.642334 0.000000 -0.766113
vn 0.642334 0.000000 -0.766113
vn 0.642334 0.000000 -0.766113
vn -0.642334 0.000000 0.766113
vn -0.642334 0.000000 0.766113
vn -0.642334 0.000000 0.766113
vn -0.642334 0.000000 -0.766113
vn -0.642334 0.000000 -0.766113
vn -0.642334 0.000000 -0.766113
vn -0.577637 -0.599121 0.554199
vn -0.577637 -0.599121 0.554199
vn -0.577637 -0.599121 0.554199
vn -0.580078 -0.603271 0.546875
vn -0.580078 -0.603271 0.546875
vn -0.580078 -0.603271 0.546875
vn 0.670898 0.000000 0.741211
vn 0.670898 0.000000 0.741211
vn 0.670898 0.000000 0.741211
vn -0.642334 0.000000 -0.766113
vn -0.642334 0.000000 -0.766113
vn -0.642334 0.000000 -0.766113
vn 0.642334 0.000000 0.766113
vn 0.642334 0.000000 0.766113
vn 0.642334 0.000000 0.766113
vn 0.763184 0.000000 -0.645996
vn 0.763184 0.000000 -0.645996
vn 0.763184 0.000000 -0.645996
vn 0.763184 0.000000 -0.645996
vn 0.763184 0.000000 -0.645996
vn 0.763184 0.000000 -0.645996
vn 0.642334 0.000000 -0.766113
vn 0.642334 0.000000 -0.766113
vn 0.642334 0.000000 -0.766113
vn 0.763184 0.000000 0.645752
vn 0.763184 0.000000 0.645752
vn 0.763184 0.000000 0.645752
vn 0.763184 0.000000 0.645752
vn 0.763184 0.000000 0.645752
vn 0.763184 0.000000 0.645752
vn -0.642334 0.000000 0.766113
vn -0.642334 0.000000 0.766113
vn -0.642334 0.000000 0.766113
vn 0.642334 0.000000 -0.766113
vn 0.642334 0.000000 -0.766113
vn 0.642334 0.000000 -0.766113
vn -0.720703 -0.236572 0.651123
vn -0.720703 -0.236572 0.651123
vn -0.720703 -0.236572 0.651123
vn 0.619385 -0.105469 0.777832
vn 0.619385 -0.105469 0.777832
vn 0.619385 -0.105469 0.777832
vn -0.642334 0.000000 0.766113
vn -0.642334 0.000000 0.766113
vn -0.642334 0.000000 0.766113
vn 0.720703 -0.236572 -0.651123
vn 0.720703 -0.236572 -0.651123
vn 0.720703 -0.236572 -0.651123
vn 0.642334 0.000000 0.766113
vn 0.642334 0.000000 0.766113
vn 0.642334 0.000000 0.766113
vn -0.608643 -0.072510 -0.789795
vn -0.608643 -0.072510 -0.789795
vn -0.608643 -0.072510 -0.789795
vn 0.000000 -1.000000 0.000000
vn 0.000000 -1.000000 0.000000
vn 0.000000 -1.000000 0.000000
vn 0.000000 -1.000000 0.000000
vn 0.000000 -1.000000 0.000000
vn 0.000000 -1.000000 0.000000
vn 0.000000 -1.000000 0.000000
vn 0.000000 -1.000000 0.000000
vn 0.000000 -1.000000 0.000000
vn 0.125977 -0.073730 0.989258
vn 0.125977 -0.073730 0.989258
vn 0.125977 -0.073730 0.989258
vn 0.171143 0.000000 0.985107
vn 0.171143 0.000000 0.985107
vn 0.171143 0.000000 0.985107
vn 0.000000 1.000000 0.000000
vn 0.000000 1.000000 0.000000
vn 0.000000 1.000000 0.000000
vn 0.000000 1.000000 0.000000
vn 0.000000 1.000000 0.000000
vn 0.000000 1.000000 0.000000
vn 0.126465 -0.073975 -0.989014
vn 0.126465 -0.073975 -0.989014
vn 0.126465 -0.073975 -0.989014
vn 0.171143 -0.001221 -0.985107
vn 0.171143 -0.001221 -0.985107
vn 0.171143 -0.001221 -0.985107
vn 0.350342 0.639648 -0.683838
vn 0.350342 0.639648 -0.683838
vn 0.350342 0.639648 -0.683838
vn 0.373779 0.663330 -0.647949
vn 0.373779 0.663330 -0.647949
vn 0.373779 0.663330 -0.647949
vn -0.350342 0.639648 -0.683838
vn -0.350342 0.639648 -0.683838
vn -0.350342 0.639648 -0.683838
vn -0.373779 0.663330 -0.647949
vn -0.373779 0.663330 -0.647949
vn -0.373779 0.663330 -0.647949
vn -0.693604 0.244385 -0.677490
vn -0.693604 0.244385 -0.677490
vn -0.693604 0.244385 -0.677490
vn -0.711182 0.243408 -0.659424
vn -0.711182 0.243408 -0.659424
vn -0.711182 0.243408 -0.659424
vn -0.693604 -0.244385 -0.677490
vn -0.693604 -0.244385 -0.677490
vn -0.693604 -0.244385 -0.677490
vn -0.711182 -0.243408 -0.659424
vn -0.711182 -0.243408 -0.659424
vn -0.711182 -0.243408 -0.659424
vn -0.350342 -0.639648 -0.683838
vn -0.350342 -0.639648 -0.683838
vn -0.350342 -0.639648 -0.683838
vn -0.373779 -0.663330 -0.647949
vn -0.373779 -0.663330 -0.647949
vn -0.373779 -0.663330 -0.647949
vn 0.350342 -0.639648 -0.683838
vn 0.350342 -0.639648 -0.683838
vn 0.350342 -0.639648 -0.683838
vn 0.373779 -0.663330 -0.647949
vn 0.373779 -0.663330 -0.647949
vn 0.373779 -0.663330 -0.647949
vn 0.693604 -0.244385 -0.677490
vn 0.693604 -0.244385 -0.677490
vn 0.693604 -0.244385 -0.677490
vn 0.711182 -0.243408 -0.659424
vn 0.711182 -0.243408 -0.659424
vn 0.711182 -0.243408 -0.659424
vn 0.693604 0.244385 -0.677490
vn 0.693604 0.244385 -0.677490
vn 0.693604 0.244385 -0.677490
vn 0.711182 0.243408 -0.659424
vn 0.711182 0.243408 -0.659424
vn 0.711182 0.243408 -0.659424
vn 0.210205 0.150879 -0.965820
vn 0.210205 0.150879 -0.965820
vn 0.210205 0.150879 -0.965820
vn -0.210205 0.150879 -0.965820
vn -0.210205 0.150879 -0.965820
vn -0.210205 0.150879 -0.965820
vn -0.303711 0.052002 -0.951172
vn -0.303711 0.052002 -0.951172
vn -0.303711 0.052002 -0.951172
vn -0.303711 -0.052002 -0.951172
vn -0.303711 -0.052002 -0.951172
vn -0.303711 -0.052002 -0.951172
vn -0.210205 -0.150879 -0.965820
vn -0.210205 -0.150879 -0.965820
vn -0.210205 -0.150879 -0.965820
vn 0.210205 -0.150879 -0.965820
vn 0.210205 -0.150879 -0.965820
vn 0.210205 -0.150879 -0.965820
vn 0.303711 -0.052002 -0.951172
vn 0.303711 -0.052002 -0.951172
vn 0.303711 -0.052002 -0.951172
vn 0.303711 0.052002 -0.951172
vn 0.303711 0.052002 -0.951172
vn 0.303711 0.052002 -0.951172
usemtl Texture
f 1/1/1 2/2/2 3/3/3
f 4/4/4 5/5/5 6/6/6
f 7/7/7 8/8/8 9/9/9
f 10/10/10 11/11/11 12/12/12
f 13/13/13 14/14/14 15/15/15
f 16/16/16 17/17/17 18/18/18
f 19/19/19 20/20/20 21/21/21
f 22/22/22 23/23/23 24/24/24
f 25/25/25 26/26/26 27/27/27
f 28/28/28 29/29/29 30/30/30
f 31/31/31 32/32/32 33/33/33
f 34/34/34 35/35/35 36/36/36
f 37/37/37 38/38/38 39/39/39
f 40/40/40 41/41/41 42/42/42
f 43/43/43 44/44/44 45/45/45
f 46/46/46 47/47/47 48/48/48
f 49/49/49 50/50/50 51/51/51
f 52/52/52 53/53/53 54/54/54
f 55/55/55 56/56/56 57/57/57
f 58/58/58 59/59/59 60/60/60
f 61/61/61 62/62/62 63/63/63
f 64/64/64 65/65/65 66/66/66
f 67/67/67 68/68/68 69/69/69
f 70/70/70 71/71/71 72/72/72
f 73/73/73 74/74/74 75/75/75
f 76/76/76 77/77/77 78/78/78
f 79/79/79 80/80/80 81/81/81
f 82/82/82 83/83/83 84/84/84
f 85/85/85 86/86/86 87/87/87
f 88/88/88 89/89/89 90/90/90
f 91/91/91 92/92/92 93/93/93
f 94/94/94 95/95/95 96/96/96
f 97/97/97 98/98/98 99/99/99
f 100/100/100 101/101/101 102/102/102
f 103/103/103 104/104/104 105/105/105
f 106/106/106 107/107/107 108/108/108
f 109/109/109 110/110/110 111/111/111
f 112/112/112 113/113/113 114/114/114
f 115/115/115 116/116/116 117/117/117
f 118/118/118 119/119/119 120/120/120
f 121/121/121 122/122/122 123/123/123
f 124/124/124 125/125/125 126/126/126
f 127/127/127 128/128/128 129/129/129
f 130/130/130 131/131/131 132/132/132
f 133/133/133 134/134/134 135/135/135
f 136/136/136 137/137/137 138/138/138
f 139/139/139 140/140/140 141/141/141
f 142/142/142 143/143/143 144/144/144
f 145/145/145 146/146/146 147/147/147
f 148/148/148 149/149/149 150/150/150
f 151/151/151 152/152/152 153/153/153
f 154/154/154 155/155/155 156/156/156
f 157/157/157 158/158/158 159/159/159
f 160/160/160 161/161/161 162/162/162
f 163/163/163 164/164/164 165/165/165
f 166/166/166 167/167/167 168/168/168
f 169/169/169 170/170/170 171/171/171
f 172/172/172 173/173/173 174/174/174
f 175/175/175 176/176/176 177/177/177
f 178/178/178 179/179/179 180/180/180
f 181/181/181 182/182/182 183/183/183
f 184/184/184 185/185/185 186/186/186
f 187/187/187 188/188/188 189/189/189
f 190/190/190 191/191/191 192/192/192
f 193/193/193 194/194/194 195/195/195
f 196/196/196 197/197/197 198/198/198
f 199/199/199 200/200/200 201/201/201
f 202/202/202 203/203/203 204/204/204
f 205/205/205 206/206/206 207/207/207
f 208/208/208 209/209/209 210/210/210
f 211/211/211 212/212/212 213/213/213
f 214/214/214 215/215/215 216/216/216
f 217/217/217 218/218/218 219/219/219
f 220/220/220 221/221/221 222/222/222
f 223/223/223 224/224/224 225/225/225
f 226/226/226 227/227/227 228/228/228
f 229/229/229 230/230/230 231/231/231
f 232/232/232 233/233/233 234/234/234
f 235/235/235 236/236/236 237/237/237
f 238/238/238 239/239/239 240/240/240
f 241/241/241 242/242/242 243/243/243
f 244/244/244 245/245/245 246/246/246
f 247/247/247 248/248/248 249/249/249
f 250/250/250 251/251/251 252/252/252
f 253/253/253 254/254/254 255/255/255
f 256/256/256 257/257/257 258/258/258
f 259/259/259 260/260/260 261/261/261
f 262/262/262 263/263/263 264/264/264
f 265/265/265 266/266/266 267/267/267
f 268/268/268 269/269/269 270/270/270
f 271/271/271 272/272/272 273/273/273
f 274/274/274 275/275/275 276/276/276
f 277/277/277 278/278/278 279/279/279
f 280/280/280 281/281/281 282/282/282
f 283/283/283 284/284/284 285/285/285
f 286/286/286 287/287/287 288/288/288
f 289/289/289 290/290/290 291/291/291
f 292/292/292 293/293/293 294/294/294
f 295/295/295 296/296/296 297/297/297
f 298/298/298 299/299/299 300/300/300
f 301/301/301 302/302/302 303/303/303
f 304/304/304 305/305/305 306/306/306
f 307/307/307 308/308/308 309/309/309
f 310/310/310 311/311/311 312/312/312
f 313/313/313 314/314/314 315/315/315
f 316/316/316 317/317/317 318/318/318
f 319/319/319 320/320/320 321/321/321
f 322/322/322 323/323/323 324/324/324
f 325/325/325 326/326/326 327/327/327
f 328/328/328 329/329/329 330/330/330
f 331/331/331 332/332/332 333/333/333
f 334/334/334 335/335/335 336/336/336
f 337/337/337 338/338/338 339/339/339
f 340/340/340 341/341/341 342/342/342
f 343/343/343 344/344/344 345/345/345
f 346/346/346 347/347/347 348/348/348
f 349/349/349 350/350/350 351/351/351
f 352/352/352 353/353/353 354/354/354
f 355/355/355 356/356/356 357/357/357
f 358/358/358 359/359/359 360/360/360
f 361/361/361 362/362/362 363/363/363
f 364/364/364 365/365/365 366/366/366
f 367/367/367 368/368/368 369/369/369
f 370/370/370 371/371/371 372/372/372
f 373/373/373 374/374/374 375/375/375
f 376/376/376 377/377/377 378/378/378
f 379/379/379 380/380/380 381/381/381
f 382/382/382 383/383/383 384/384/384
f 385/385/385 386/386/386 387/387/387
f 388/388/388 389/389/389 390/390/390
f 391/391/391 392/392/392 393/393/393
f 394/394/394 395/395/395 396/396/396
f 397/397/397 398/398/398 399/399/399
f 400/400/400 401/401/401 402/402/402
f 403/403/403 404/404/404 405/405/405
f 406/406/406 407/407/407 408/408/408
f 409/409/409 410/410/410 411/411/411
f 412/412/412 413/413/413 414/414/414
f 415/415/415 416/416/416 417/417/417
f 418/418/418 419/419/419 420/420/420
f 421/421/421 422/422/422 423/423/423
f 424/424/424 425/425/425 426/426/426
f 427/427/427 428/428/428 429/429/429
f 430/430/430 431/431/431 432/432/432
f 433/433/433 434/434/434 435/435/435
f 436/436/436 437/437/437 438/438/438
f 439/439/439 440/440/440 441/441/441
f 442/442/442 443/443/443 444/444/444
f 445/445/445 446/446/446 447/447/447
f 448/448/448 449/449/449 450/450/450
f 451/451/451 452/452/452 453/453/453
f 454/454/454 455/455/455 456/456/456
f 457/457/457 458/458/458 459/459/459
f 460/460/460 461/461/461 462/462/462
f 463/463/463 464/464/464 465/465/465
f 466/466/466 467/467/467 468/468/468
f 469/469/469 470/470/470 471/471/471
f 472/472/472 473/473/473 474/474/474
f 475/475/475 476/476/476 477/477/477
f 478/478/478 479/479/479 480/480/480
f 481/481/481 482/482/482 483/483/483
f 484/484/484 485/485/485 486/486/486
f 487/487/487 488/488/488 489/489/489
f 490/490/490 491/491/491 492/492/492
f 493/493/493 494/494/494 495/495/495
f 496/496/496 497/497/497 498/498/498
f 499/499/499 500/500/500 501/501/501
f 502/502/502 503/503/503 504/504/504
f 505/505/505 506/506/506 507/507/507
f 508/508/508 509/509/509 510/510/510
f 511/511/511 512/512/512 513/513/513
f 514/514/514 515/515/515 516/516/516
f 517/517/517 518/518/518 519/519/519
f 520/520/520 521/521/521 522/522/522
f 523/523/523 524/524/524 525/525/525
f 526/526/526 527/527/527 528/528/528
f 529/529/529 530/530/530 531/531/531
f 532/532/532 533/533/533 534/534/534
f 535/535/535 536/536/536 537/537/537
f 538/538/538 539/539/539 540/540/540
f 541/541/541 542/542/542 543/543/543
f 544/544/544 545/545/545 546/546/546
f 547/547/547 548/548/548 549/549/549
f 550/550/550 551/551/551 552/552/552
f 553/553/553 554/554/554 555/555/555
f 556/556/556 557/557/557 558/558/558
f 559/559/559 560/560/560 561/561/561
f 562/562/562 563/563/563 564/564/564
f 565/565/565 566/566/566 567/567/567
f 568/568/568 569/569/569 570/570/570
f 571/571/571 572/572/572 573/573/573
f 574/574/574 575/575/575 576/576/576
f 577/577/577 578/578/578 579/579/579
f 580/580/580 581/581/581 582/582/582
f 583/583/583 584/584/584 585/585/585
f 586/586/586 587/587/587 588/588/588
f 589/589/589 590/590/590 591/591/591
f 592/592/592 593/593/593 594/594/594
f 595/595/595 596/596/596 597/597/597
f 598/598/598 599/599/599 600/600/600
f 601/601/601 602/602/602 603/603/603
f 604/604/604 605/605/605 606/606/606
f 607/607/607 608/608/608 609/609/609
f 610/610/610 611/611/611 612/612/612
f 613/613/613 614/614/614 615/615/615
f 616/616/616 617/617/617 618/618/618
f 619/619/619 620/620/620 621/621/621
f 622/622/622 623/623/623 624/624/624
