# OBJ file
mtllib ICON1.ICO.mtl
v 0.850586 0.791260 0.626221 0.501961 0.501961 0.501961 #0.501961
v 0.008545 0.792236 0.674561 0.501961 0.501961 0.501961 #0.501961
v 0.008057 0.205322 0.712646 0.501961 0.501961 0.501961 #0.501961
v 0.008057 0.205322 0.712646 0.501961 0.501961 0.501961 #0.501961
v 0.860596 0.236572 0.697510 0.501961 0.501961 0.501961 #0.501961
v 0.878418 0.256348 0.695312 0.501961 0.501961 0.501961 #0.501961
v 0.850586 0.791260 0.626221 0.501961 0.501961 0.501961 #0.501961
v 0.008057 0.205322 0.712646 0.501961 0.501961 0.501961 #0.501961
v 0.878418 0.256348 0.695312 0.501961 0.501961 0.501961 #0.501961
v 0.008301 0.195312 -0.712646 0.501961 0.501961 0.501961 #0.501961
v 0.008545 0.793213 -0.700928 0.501961 0.501961 0.501961 #0.501961
v 0.866211 0.791992 -0.659180 0.501961 0.501961 0.501961 #0.501961
v 0.008301 0.195312 -0.712646 0.501961 0.501961 0.501961 #0.501961
v 0.866211 0.791992 -0.659180 0.501961 0.501961 0.501961 #0.501961
v 0.894531 0.247314 -0.695312 0.501961 0.501961 0.501961 #0.501961
v 0.008301 0.195312 -0.712646 0.501961 0.501961 0.501961 #0.501961
v 0.894531 0.247314 -0.695312 0.501961 0.501961 0.501961 #0.501961
v 0.876221 0.227051 -0.697510 0.501961 0.501961 0.501961 #0.501961
v 0.009033 0.062256 -0.010010 0.501961 0.501961 0.501961 #0.501961
v 0.990479 0.118896 -0.008789 0.501961 0.501961 0.501961 #0.501961
v 0.979492 0.126221 0.637939 0.501961 0.501961 0.501961 #0.501961
v 0.979492 0.126221 0.637939 0.501961 0.501961 0.501961 #0.501961
v 0.008545 0.089355 0.652588 0.501961 0.501961 0.501961 #0.501961
v 0.009033 0.062256 -0.010010 0.501961 0.501961 0.501961 #0.501961
v -0.999512 0.795898 0.560547 0.501961 0.501961 0.501961 #0.501961
v -1.014404 0.796143 -0.009033 0.501961 0.501961 0.501961 #0.501961
v -1.041992 0.176270 -0.008789 0.501961 0.501961 0.501961 #0.501961
v -1.041992 0.176270 -0.008789 0.501961 0.501961 0.501961 #0.501961
v -1.030762 0.212402 0.603271 0.501961 0.501961 0.501961 #0.501961
v -0.999512 0.795898 0.560547 0.501961 0.501961 0.501961 #0.501961
v 0.008789 1.464844 0.623535 0.501961 0.501961 0.501961 #0.501961
v 0.009033 1.487061 0.092041 0.501961 0.501961 0.501961 #0.501961
v -0.845703 1.436035 0.093262 0.501961 0.501961 0.501961 #0.501961
v -0.845703 1.436035 0.093262 0.501961 0.501961 0.501961 #0.501961
v -0.836182 1.428711 0.611084 0.501961 0.501961 0.501961 #0.501961
v 0.008789 1.464844 0.623535 0.501961 0.501961 0.501961 #0.501961
v 1.014160 0.796143 -0.009033 0.501961 0.501961 0.501961 #0.501961
v 0.910156 1.378418 0.093262 0.501961 0.501961 0.501961 #0.501961
v 0.900146 1.371826 0.615723 0.501961 0.501961 0.501961 #0.501961
v 0.900146 1.371826 0.615723 0.501961 0.501961 0.501961 #0.501961
v 0.999268 0.795898 0.560547 0.501961 0.501961 0.501961 #0.501961
v 1.014160 0.796143 -0.009033 0.501961 0.501961 0.501961 #0.501961
v -0.733643 1.312012 0.681641 0.501961 0.501961 0.501961 #0.501961
v -0.764893 1.284424 0.684326 0.501961 0.501961 0.501961 #0.501961
v -0.850098 0.791260 0.626221 0.501961 0.501961 0.501961 #0.501961
v -0.733643 1.312012 0.681641 0.501961 0.501961 0.501961 #0.501961
v -0.850098 0.791260 0.626221 0.501961 0.501961 0.501961 #0.501961
v 0.008545 0.792236 0.674561 0.501961 0.501961 0.501961 #0.501961
v -0.733643 1.312012 0.681641 0.501961 0.501961 0.501961 #0.501961
v 0.008545 0.792236 0.674561 0.501961 0.501961 0.501961 #0.501961
v 0.008301 1.342773 0.694336 0.501961 0.501961 0.501961 #0.501961
v 0.008301 0.195312 -0.712646 0.501961 0.501961 0.501961 #0.501961
v -0.875732 0.227051 -0.697510 0.501961 0.501961 0.501961 #0.501961
v -0.894043 0.247314 -0.695312 0.501961 0.501961 0.501961 #0.501961
v 0.008301 0.195312 -0.712646 0.501961 0.501961 0.501961 #0.501961
v -0.894043 0.247314 -0.695312 0.501961 0.501961 0.501961 #0.501961
v -0.865723 0.791992 -0.659180 0.501961 0.501961 0.501961 #0.501961
v 0.008301 0.195312 -0.712646 0.501961 0.501961 0.501961 #0.501961
v -0.865723 0.791992 -0.659180 0.501961 0.501961 0.501961 #0.501961
v 0.008545 0.793213 -0.700928 0.501961 0.501961 0.501961 #0.501961
v -0.979248 0.126221 0.637939 0.501961 0.501961 0.501961 #0.501961
v -0.990479 0.118896 -0.008789 0.501961 0.501961 0.501961 #0.501961
v 0.009033 0.062256 -0.010010 0.501961 0.501961 0.501961 #0.501961
v 0.009033 0.062256 -0.010010 0.501961 0.501961 0.501961 #0.501961
v 0.008545 0.089355 0.652588 0.501961 0.501961 0.501961 #0.501961
v -0.979248 0.126221 0.637939 0.501961 0.501961 0.501961 #0.501961
v 0.845703 1.436035 0.093262 0.501961 0.501961 0.501961 #0.501961
v 0.009033 1.487061 0.092041 0.501961 0.501961 0.501961 #0.501961
v 0.008789 1.464844 0.623535 0.501961 0.501961 0.501961 #0.501961
v 0.008789 1.464844 0.623535 0.501961 0.501961 0.501961 #0.501961
v 0.836182 1.428711 0.611084 0.501961 0.501961 0.501961 #0.501961
v 0.845703 1.436035 0.093262 0.501961 0.501961 0.501961 #0.501961
v 0.734375 1.312256 0.681641 0.501961 0.501961 0.501961 #0.501961
v 0.008301 1.342773 0.694336 0.501961 0.501961 0.501961 #0.501961
v 0.008545 0.792236 0.674561 0.501961 0.501961 0.501961 #0.501961
v 0.734375 1.312256 0.681641 0.501961 0.501961 0.501961 #0.501961
v 0.008545 0.792236 0.674561 0.501961 0.501961 0.501961 #0.501961
v 0.850586 0.791260 0.626221 0.501961 0.501961 0.501961 #0.501961
v 0.734375 1.312256 0.681641 0.501961 0.501961 0.501961 #0.501961
v 0.850586 0.791260 0.626221 0.501961 0.501961 0.501961 #0.501961
v 0.765381 1.284424 0.684326 0.501961 0.501961 0.501961 #0.501961
v 0.008545 0.793213 -0.700928 0.501961 0.501961 0.501961 #0.501961
v 0.008301 1.353760 -0.559326 0.501961 0.501961 0.501961 #0.501961
v 0.747803 1.322510 -0.546631 0.501961 0.501961 0.501961 #0.501961
v 0.747803 1.322510 -0.546631 0.501961 0.501961 0.501961 #0.501961
v 0.779297 1.294434 -0.549316 0.501961 0.501961 0.501961 #0.501961
v 0.866211 0.791992 -0.659180 0.501961 0.501961 0.501961 #0.501961
v 0.008545 0.793213 -0.700928 0.501961 0.501961 0.501961 #0.501961
v 0.747803 1.322510 -0.546631 0.501961 0.501961 0.501961 #0.501961
v 0.866211 0.791992 -0.659180 0.501961 0.501961 0.501961 #0.501961
v -0.900146 1.371826 0.615723 0.501961 0.501961 0.501961 #0.501961
v -0.910156 1.378418 0.093262 0.501961 0.501961 0.501961 #0.501961
v -1.014404 0.796143 -0.009033 0.501961 0.501961 0.501961 #0.501961
v -1.014404 0.796143 -0.009033 0.501961 0.501961 0.501961 #0.501961
v -0.999512 0.795898 0.560547 0.501961 0.501961 0.501961 #0.501961
v -0.900146 1.371826 0.615723 0.501961 0.501961 0.501961 #0.501961
v 1.041992 0.176270 -0.008789 0.501961 0.501961 0.501961 #0.501961
v 1.014160 0.796143 -0.009033 0.501961 0.501961 0.501961 #0.501961
v 0.999268 0.795898 0.560547 0.501961 0.501961 0.501961 #0.501961
v 0.999268 0.795898 0.560547 0.501961 0.501961 0.501961 #0.501961
v 1.030762 0.212402 0.603271 0.501961 0.501961 0.501961 #0.501961
v 1.041992 0.176270 -0.008789 0.501961 0.501961 0.501961 #0.501961
v -0.877930 0.256348 0.695312 0.501961 0.501961 0.501961 #0.501961
v -0.859863 0.236572 0.697510 0.501961 0.501961 0.501961 #0.501961
v 0.008057 0.205322 0.712646 0.501961 0.501961 0.501961 #0.501961
v -0.850098 0.791260 0.626221 0.501961 0.501961 0.501961 #0.501961
v -0.877930 0.256348 0.695312 0.501961 0.501961 0.501961 #0.501961
v 0.008057 0.205322 0.712646 0.501961 0.501961 0.501961 #0.501961
v -0.850098 0.791260 0.626221 0.501961 0.501961 0.501961 #0.501961
v 0.008057 0.205322 0.712646 0.501961 0.501961 0.501961 #0.501961
v 0.008545 0.792236 0.674561 0.501961 0.501961 0.501961 #0.501961
v -0.747314 1.322510 -0.546631 0.501961 0.501961 0.501961 #0.501961
v 0.008301 1.353760 -0.559326 0.501961 0.501961 0.501961 #0.501961
v 0.008545 0.793213 -0.700928 0.501961 0.501961 0.501961 #0.501961
v -0.747314 1.322510 -0.546631 0.501961 0.501961 0.501961 #0.501961
v 0.008545 0.793213 -0.700928 0.501961 0.501961 0.501961 #0.501961
v -0.865723 0.791992 -0.659180 0.501961 0.501961 0.501961 #0.501961
v -0.747314 1.322510 -0.546631 0.501961 0.501961 0.501961 #0.501961
v -0.865723 0.791992 -0.659180 0.501961 0.501961 0.501961 #0.501961
v -0.778809 1.294434 -0.549316 0.501961 0.501961 0.501961 #0.501961
v 1.030762 0.212402 0.603271 0.501961 0.501961 0.501961 #0.501961
v 0.979492 0.126221 0.637939 0.501961 0.501961 0.501961 #0.501961
v 0.990479 0.118896 -0.008789 0.501961 0.501961 0.501961 #0.501961
v 0.990479 0.118896 -0.008789 0.501961 0.501961 0.501961 #0.501961
v 1.041992 0.176270 -0.008789 0.501961 0.501961 0.501961 #0.501961
v 1.030762 0.212402 0.603271 0.501961 0.501961 0.501961 #0.501961
v -1.030762 0.212402 0.603271 0.501961 0.501961 0.501961 #0.501961
v -1.041992 0.176270 -0.008789 0.501961 0.501961 0.501961 #0.501961
v -0.990479 0.118896 -0.008789 0.501961 0.501961 0.501961 #0.501961
v -0.990479 0.118896 -0.008789 0.501961 0.501961 0.501961 #0.501961
v -0.979248 0.126221 0.637939 0.501961 0.501961 0.501961 #0.501961
v -1.030762 0.212402 0.603271 0.501961 0.501961 0.501961 #0.501961
v -0.836182 1.428711 0.611084 0.501961 0.501961 0.501961 #0.501961
v -0.845703 1.436035 0.093262 0.501961 0.501961 0.501961 #0.501961
v -0.910156 1.378418 0.093262 0.501961 0.501961 0.501961 #0.501961
v -0.910156 1.378418 0.093262 0.501961 0.501961 0.501961 #0.501961
v -0.900146 1.371826 0.615723 0.501961 0.501961 0.501961 #0.501961
v -0.836182 1.428711 0.611084 0.501961 0.501961 0.501961 #0.501961
v 0.836182 1.428711 0.611084 0.501961 0.501961 0.501961 #0.501961
v 0.900146 1.371826 0.615723 0.501961 0.501961 0.501961 #0.501961
v 0.910156 1.378418 0.093262 0.501961 0.501961 0.501961 #0.501961
v 0.910156 1.378418 0.093262 0.501961 0.501961 0.501961 #0.501961
v 0.845703 1.436035 0.093262 0.501961 0.501961 0.501961 #0.501961
v 0.836182 1.428711 0.611084 0.501961 0.501961 0.501961 #0.501961
v 0.850586 0.791260 0.626221 0.501961 0.501961 0.501961 #0.501961
v 0.878418 0.256348 0.695312 0.501961 0.501961 0.501961 #0.501961
v 1.030762 0.212402 0.603271 0.501961 0.501961 0.501961 #0.501961
v 1.030762 0.212402 0.603271 0.501961 0.501961 0.501961 #0.501961
v 0.999268 0.795898 0.560547 0.501961 0.501961 0.501961 #0.501961
v 0.850586 0.791260 0.626221 0.501961 0.501961 0.501961 #0.501961
v 0.008301 0.195312 -0.712646 0.501961 0.501961 0.501961 #0.501961
v 0.876221 0.227051 -0.697510 0.501961 0.501961 0.501961 #0.501961
v 0.979492 0.126221 -0.636719 0.501961 0.501961 0.501961 #0.501961
v 0.979492 0.126221 -0.636719 0.501961 0.501961 0.501961 #0.501961
v 0.008545 0.089355 -0.651611 0.501961 0.501961 0.501961 #0.501961
v 0.008301 0.195312 -0.712646 0.501961 0.501961 0.501961 #0.501961
v 0.860596 0.236572 0.697510 0.501961 0.501961 0.501961 #0.501961
v 0.008057 0.205322 0.712646 0.501961 0.501961 0.501961 #0.501961
v 0.008545 0.089355 0.652588 0.501961 0.501961 0.501961 #0.501961
v 0.008545 0.089355 0.652588 0.501961 0.501961 0.501961 #0.501961
v 0.979492 0.126221 0.637939 0.501961 0.501961 0.501961 #0.501961
v 0.860596 0.236572 0.697510 0.501961 0.501961 0.501961 #0.501961
v -0.865723 0.791992 -0.659180 0.501961 0.501961 0.501961 #0.501961
v -0.894043 0.247314 -0.695312 0.501961 0.501961 0.501961 #0.501961
v -1.030762 0.182861 -0.630859 0.501961 0.501961 0.501961 #0.501961
v -1.030762 0.182861 -0.630859 0.501961 0.501961 0.501961 #0.501961
v -0.999512 0.795898 -0.592529 0.501961 0.501961 0.501961 #0.501961
v -0.865723 0.791992 -0.659180 0.501961 0.501961 0.501961 #0.501961
v -0.999512 0.795898 0.560547 0.501961 0.501961 0.501961 #0.501961
v -1.030762 0.212402 0.603271 0.501961 0.501961 0.501961 #0.501961
v -0.877930 0.256348 0.695312 0.501961 0.501961 0.501961 #0.501961
v -0.877930 0.256348 0.695312 0.501961 0.501961 0.501961 #0.501961
v -0.850098 0.791260 0.626221 0.501961 0.501961 0.501961 #0.501961
v -0.999512 0.795898 0.560547 0.501961 0.501961 0.501961 #0.501961
v 0.008301 1.353760 -0.559326 0.501961 0.501961 0.501961 #0.501961
v -0.747314 1.322510 -0.546631 0.501961 0.501961 0.501961 #0.501961
v -0.836182 1.428711 -0.474854 0.501961 0.501961 0.501961 #0.501961
v -0.836182 1.428711 -0.474854 0.501961 0.501961 0.501961 #0.501961
v 0.008789 1.464844 -0.487305 0.501961 0.501961 0.501961 #0.501961
v 0.008301 1.353760 -0.559326 0.501961 0.501961 0.501961 #0.501961
v 0.008789 1.464844 0.623535 0.501961 0.501961 0.501961 #0.501961
v -0.836182 1.428711 0.611084 0.501961 0.501961 0.501961 #0.501961
v -0.733643 1.312012 0.681641 0.501961 0.501961 0.501961 #0.501961
v -0.733643 1.312012 0.681641 0.501961 0.501961 0.501961 #0.501961
v 0.008301 1.342773 0.694336 0.501961 0.501961 0.501961 #0.501961
v 0.008789 1.464844 0.623535 0.501961 0.501961 0.501961 #0.501961
v 0.866211 0.791992 -0.659180 0.501961 0.501961 0.501961 #0.501961
v 0.779297 1.294434 -0.549316 0.501961 0.501961 0.501961 #0.501961
v 0.900146 1.371826 -0.479736 0.501961 0.501961 0.501961 #0.501961
v 0.900146 1.371826 -0.479736 0.501961 0.501961 0.501961 #0.501961
v 0.999268 0.795898 -0.592529 0.501961 0.501961 0.501961 #0.501961
v 0.866211 0.791992 -0.659180 0.501961 0.501961 0.501961 #0.501961
v 0.999268 0.795898 0.560547 0.501961 0.501961 0.501961 #0.501961
v 0.900146 1.371826 0.615723 0.501961 0.501961 0.501961 #0.501961
v 0.765381 1.284424 0.684326 0.501961 0.501961 0.501961 #0.501961
v 0.765381 1.284424 0.684326 0.501961 0.501961 0.501961 #0.501961
v 0.850586 0.791260 0.626221 0.501961 0.501961 0.501961 #0.501961
v 0.999268 0.795898 0.560547 0.501961 0.501961 0.501961 #0.501961
v -0.900146 1.371826 0.615723 0.501961 0.501961 0.501961 #0.501961
v -0.999512 0.795898 0.560547 0.501961 0.501961 0.501961 #0.501961
v -0.850098 0.791260 0.626221 0.501961 0.501961 0.501961 #0.501961
v -0.850098 0.791260 0.626221 0.501961 0.501961 0.501961 #0.501961
v -0.764893 1.284424 0.684326 0.501961 0.501961 0.501961 #0.501961
v -0.900146 1.371826 0.615723 0.501961 0.501961 0.501961 #0.501961
v -0.875732 0.227051 -0.697510 0.501961 0.501961 0.501961 #0.501961
v 0.008301 0.195312 -0.712646 0.501961 0.501961 0.501961 #0.501961
v 0.008545 0.089355 -0.651611 0.501961 0.501961 0.501961 #0.501961
v 0.008545 0.089355 -0.651611 0.501961 0.501961 0.501961 #0.501961
v -0.979248 0.126221 -0.636719 0.501961 0.501961 0.501961 #0.501961
v -0.875732 0.227051 -0.697510 0.501961 0.501961 0.501961 #0.501961
v -0.979248 0.126221 0.637939 0.501961 0.501961 0.501961 #0.501961
v 0.008545 0.089355 0.652588 0.501961 0.501961 0.501961 #0.501961
v 0.008057 0.205322 0.712646 0.501961 0.501961 0.501961 #0.501961
v 0.008057 0.205322 0.712646 0.501961 0.501961 0.501961 #0.501961
v -0.859863 0.236572 0.697510 0.501961 0.501961 0.501961 #0.501961
v -0.979248 0.126221 0.637939 0.501961 0.501961 0.501961 #0.501961
v 0.747803 1.322510 -0.546631 0.501961 0.501961 0.501961 #0.501961
v 0.008301 1.353760 -0.559326 0.501961 0.501961 0.501961 #0.501961
v 0.008789 1.464844 -0.487305 0.501961 0.501961 0.501961 #0.501961
v 0.008789 1.464844 -0.487305 0.501961 0.501961 0.501961 #0.501961
v 0.836182 1.428711 -0.474854 0.501961 0.501961 0.501961 #0.501961
v 0.747803 1.322510 -0.546631 0.501961 0.501961 0.501961 #0.501961
v 0.836182 1.428711 0.611084 0.501961 0.501961 0.501961 #0.501961
v 0.008789 1.464844 0.623535 0.501961 0.501961 0.501961 #0.501961
v 0.008301 1.342773 0.694336 0.501961 0.501961 0.501961 #0.501961
v 0.008301 1.342773 0.694336 0.501961 0.501961 0.501961 #0.501961
v 0.734375 1.312256 0.681641 0.501961 0.501961 0.501961 #0.501961
v 0.836182 1.428711 0.611084 0.501961 0.501961 0.501961 #0.501961
v -0.778809 1.294434 -0.549316 0.501961 0.501961 0.501961 #0.501961
v -0.865723 0.791992 -0.659180 0.501961 0.501961 0.501961 #0.501961
v -0.999512 0.795898 -0.592529 0.501961 0.501961 0.501961 #0.501961
v -0.999512 0.795898 -0.592529 0.501961 0.501961 0.501961 #0.501961
v -0.900146 1.371826 -0.479736 0.501961 0.501961 0.501961 #0.501961
v -0.778809 1.294434 -0.549316 0.501961 0.501961 0.501961 #0.501961
v 0.894531 0.247314 -0.695312 0.501961 0.501961 0.501961 #0.501961
v 0.866211 0.791992 -0.659180 0.501961 0.501961 0.501961 #0.501961
v 0.999268 0.795898 -0.592529 0.501961 0.501961 0.501961 #0.501961
v 0.999268 0.795898 -0.592529 0.501961 0.501961 0.501961 #0.501961
v 1.030762 0.182861 -0.630859 0.501961 0.501961 0.501961 #0.501961
v 0.894531 0.247314 -0.695312 0.501961 0.501961 0.501961 #0.501961
v 0.979492 0.126221 0.637939 0.501961 0.501961 0.501961 #0.501961
v 1.030762 0.212402 0.603271 0.501961 0.501961 0.501961 #0.501961
v 0.878418 0.256348 0.695312 0.501961 0.501961 0.501961 #0.501961
v 0.878418 0.256348 0.695312 0.501961 0.501961 0.501961 #0.501961
v 0.860596 0.236572 0.697510 0.501961 0.501961 0.501961 #0.501961
v 0.979492 0.126221 0.637939 0.501961 0.501961 0.501961 #0.501961
v 1.030762 0.182861 -0.630859 0.501961 0.501961 0.501961 #0.501961
v 0.979492 0.126221 -0.636719 0.501961 0.501961 0.501961 #0.501961
v 0.876221 0.227051 -0.697510 0.501961 0.501961 0.501961 #0.501961
v 0.876221 0.227051 -0.697510 0.501961 0.501961 0.501961 #0.501961
v 0.894531 0.247314 -0.695312 0.501961 0.501961 0.501961 #0.501961
v 1.030762 0.182861 -0.630859 0.501961 0.501961 0.501961 #0.501961
v -0.979248 0.126221 -0.636719 0.501961 0.501961 0.501961 #0.501961
v -1.030762 0.182861 -0.630859 0.501961 0.501961 0.501961 #0.501961
v -0.894043 0.247314 -0.695312 0.501961 0.501961 0.501961 #0.501961
v -0.894043 0.247314 -0.695312 0.501961 0.501961 0.501961 #0.501961
v -0.875732 0.227051 -0.697510 0.501961 0.501961 0.501961 #0.501961
v -0.979248 0.126221 -0.636719 0.501961 0.501961 0.501961 #0.501961
v -0.859863 0.236572 0.697510 0.501961 0.501961 0.501961 #0.501961
v -0.877930 0.256348 0.695312 0.501961 0.501961 0.501961 #0.501961
v -1.030762 0.212402 0.603271 0.501961 0.501961 0.501961 #0.501961
v -1.030762 0.212402 0.603271 0.501961 0.501961 0.501961 #0.501961
v -0.979248 0.126221 0.637939 0.501961 0.501961 0.501961 #0.501961
v -0.859863 0.236572 0.697510 0.501961 0.501961 0.501961 #0.501961
v -0.764893 1.284424 0.684326 0.501961 0.501961 0.501961 #0.501961
v -0.733643 1.312012 0.681641 0.501961 0.501961 0.501961 #0.501961
v -0.836182 1.428711 0.611084 0.501961 0.501961 0.501961 #0.501961
v -0.836182 1.428711 0.611084 0.501961 0.501961 0.501961 #0.501961
v -0.900146 1.371826 0.615723 0.501961 0.501961 0.501961 #0.501961
v -0.764893 1.284424 0.684326 0.501961 0.501961 0.501961 #0.501961
v -0.900146 1.371826 -0.479736 0.501961 0.501961 0.501961 #0.501961
v -0.836182 1.428711 -0.474854 0.501961 0.501961 0.501961 #0.501961
v -0.747314 1.322510 -0.546631 0.501961 0.501961 0.501961 #0.501961
v -0.747314 1.322510 -0.546631 0.501961 0.501961 0.501961 #0.501961
v -0.778809 1.294434 -0.549316 0.501961 0.501961 0.501961 #0.501961
v -0.900146 1.371826 -0.479736 0.501961 0.501961 0.501961 #0.501961
v 0.734375 1.312256 0.681641 0.501961 0.501961 0.501961 #0.501961
v 0.765381 1.284424 0.684326 0.501961 0.501961 0.501961 #0.501961
v 0.900146 1.371826 0.615723 0.501961 0.501961 0.501961 #0.501961
v 0.900146 1.371826 0.615723 0.501961 0.501961 0.501961 #0.501961
v 0.836182 1.428711 0.611084 0.501961 0.501961 0.501961 #0.501961
v 0.734375 1.312256 0.681641 0.501961 0.501961 0.501961 #0.501961
v 0.836182 1.428711 -0.474854 0.501961 0.501961 0.501961 #0.501961
v 0.900146 1.371826 -0.479736 0.501961 0.501961 0.501961 #0.501961
v 0.779297 1.294434 -0.549316 0.501961 0.501961 0.501961 #0.501961
v 0.779297 1.294434 -0.549316 0.501961 0.501961 0.501961 #0.501961
v 0.747803 1.322510 -0.546631 0.501961 0.501961 0.501961 #0.501961
v 0.836182 1.428711 -0.474854 0.501961 0.501961 0.501961 #0.501961
v 0.008545 0.089355 -0.651611 0.501961 0.501961 0.501961 #0.501961
v 0.979492 0.126221 -0.636719 0.501961 0.501961 0.501961 #0.501961
v 0.990479 0.118896 -0.008789 0.501961 0.501961 0.501961 #0.501961
v 0.990479 0.118896 -0.008789 0.501961 0.501961 0.501961 #0.501961
v 0.009033 0.062256 -0.010010 0.501961 0.501961 0.501961 #0.501961
v 0.008545 0.089355 -0.651611 0.501961 0.501961 0.501961 #0.501961
v -0.999512 0.795898 -0.592529 0.501961 0.501961 0.501961 #0.501961
v -1.030762 0.182861 -0.630859 0.501961 0.501961 0.501961 #0.501961
v -1.041992 0.176270 -0.008789 0.501961 0.501961 0.501961 #0.501961
v -1.041992 0.176270 -0.008789 0.501961 0.501961 0.501961 #0.501961
v -1.014404 0.796143 -0.009033 0.501961 0.501961 0.501961 #0.501961
v -0.999512 0.795898 -0.592529 0.501961 0.501961 0.501961 #0.501961
v 0.008789 1.464844 -0.487305 0.501961 0.501961 0.501961 #0.501961
v -0.836182 1.428711 -0.474854 0.501961 0.501961 0.501961 #0.501961
v -0.845703 1.436035 0.093262 0.501961 0.501961 0.501961 #0.501961
v -0.845703 1.436035 0.093262 0.501961 0.501961 0.501961 #0.501961
v 0.009033 1.487061 0.092041 0.501961 0.501961 0.501961 #0.501961
v 0.008789 1.464844 -0.487305 0.501961 0.501961 0.501961 #0.501961
v 1.014160 0.796143 -0.009033 0.501961 0.501961 0.501961 #0.501961
v 0.999268 0.795898 -0.592529 0.501961 0.501961 0.501961 #0.501961
v 0.900146 1.371826 -0.479736 0.501961 0.501961 0.501961 #0.501961
v 0.900146 1.371826 -0.479736 0.501961 0.501961 0.501961 #0.501961
v 0.910156 1.378418 0.093262 0.501961 0.501961 0.501961 #0.501961
v 1.014160 0.796143 -0.009033 0.501961 0.501961 0.501961 #0.501961
v -0.979248 0.126221 -0.636719 0.501961 0.501961 0.501961 #0.501961
v 0.008545 0.089355 -0.651611 0.501961 0.501961 0.501961 #0.501961
v 0.009033 0.062256 -0.010010 0.501961 0.501961 0.501961 #0.501961
v 0.009033 0.062256 -0.010010 0.501961 0.501961 0.501961 #0.501961
v -0.990479 0.118896 -0.008789 0.501961 0.501961 0.501961 #0.501961
v -0.979248 0.126221 -0.636719 0.501961 0.501961 0.501961 #0.501961
v 0.836182 1.428711 -0.474854 0.501961 0.501961 0.501961 #0.501961
v 0.008789 1.464844 -0.487305 0.501961 0.501961 0.501961 #0.501961
v 0.009033 1.487061 0.092041 0.501961 0.501961 0.501961 #0.501961
v 0.009033 1.487061 0.092041 0.501961 0.501961 0.501961 #0.501961
v 0.845703 1.436035 0.093262 0.501961 0.501961 0.501961 #0.501961
v 0.836182 1.428711 -0.474854 0.501961 0.501961 0.501961 #0.501961
v -0.900146 1.371826 -0.479736 0.501961 0.501961 0.501961 #0.501961
v -0.999512 0.795898 -0.592529 0.501961 0.501961 0.501961 #0.501961
v -1.014404 0.796143 -0.009033 0.501961 0.501961 0.501961 #0.501961
v -1.014404 0.796143 -0.009033 0.501961 0.501961 0.501961 #0.501961
v -0.910156 1.378418 0.093262 0.501961 0.501961 0.501961 #0.501961
v -0.900146 1.371826 -0.479736 0.501961 0.501961 0.501961 #0.501961
v 1.041992 0.176270 -0.008789 0.501961 0.501961 0.501961 #0.501961
v 1.030762 0.182861 -0.630859 0.501961 0.501961 0.501961 #0.501961
v 0.999268 0.795898 -0.592529 0.501961 0.501961 0.501961 #0.501961
v 0.999268 0.795898 -0.592529 0.501961 0.501961 0.501961 #0.501961
v 1.014160 0.796143 -0.009033 0.501961 0.501961 0.501961 #0.501961
v 1.041992 0.176270 -0.008789 0.501961 0.501961 0.501961 #0.501961
v 0.990479 0.118896 -0.008789 0.501961 0.501961 0.501961 #0.501961
v 0.979492 0.126221 -0.636719 0.501961 0.501961 0.501961 #0.501961
v 1.030762 0.182861 -0.630859 0.501961 0.501961 0.501961 #0.501961
v 1.030762 0.182861 -0.630859 0.501961 0.501961 0.501961 #0.501961
v 1.041992 0.176270 -0.008789 0.501961 0.501961 0.501961 #0.501961
v 0.990479 0.118896 -0.008789 0.501961 0.501961 0.501961 #0.501961
v -1.030762 0.182861 -0.630859 0.501961 0.501961 0.501961 #0.501961
v -0.979248 0.126221 -0.636719 0.501961 0.501961 0.501961 #0.501961
v -0.990479 0.118896 -0.008789 0.501961 0.501961 0.501961 #0.501961
v -0.990479 0.118896 -0.008789 0.501961 0.501961 0.501961 #0.501961
v -1.041992 0.176270 -0.008789 0.501961 0.501961 0.501961 #0.501961
v -1.030762 0.182861 -0.630859 0.501961 0.501961 0.501961 #0.501961
v -0.836182 1.428711 -0.474854 0.501961 0.501961 0.501961 #0.501961
v -0.900146 1.371826 -0.479736 0.501961 0.501961 0.501961 #0.501961
v -0.910156 1.378418 0.093262 0.501961 0.501961 0.501961 #0.501961
v -0.910156 1.378418 0.093262 0.501961 0.501961 0.501961 #0.501961
v -0.845703 1.436035 0.093262 0.501961 0.501961 0.501961 #0.501961
v -0.836182 1.428711 -0.474854 0.501961 0.501961 0.501961 #0.501961
v 0.910156 1.378418 0.093262 0.501961 0.501961 0.501961 #0.501961
v 0.900146 1.371826 -0.479736 0.501961 0.501961 0.501961 #0.501961
v 0.836182 1.428711 -0.474854 0.501961 0.501961 0.501961 #0.501961
v 0.836182 1.428711 -0.474854 0.501961 0.501961 0.501961 #0.501961
v 0.845703 1.436035 0.093262 0.501961 0.501961 0.501961 #0.501961
v 0.910156 1.378418 0.093262 0.501961 0.501961 0.501961 #0.501961
v 0.460693 0.120605 0.348877 0.501961 0.501961 0.501961 #0.501961
v 0.471924 0.054199 0.325684 0.501961 0.501961 0.501961 #0.501961
v 0.702148 0.054199 0.325684 0.501961 0.501961 0.501961 #0.501961
v 0.702148 0.054199 0.325684 0.501961 0.501961 0.501961 #0.501961
v 0.713135 0.120605 0.348877 0.501961 0.501961 0.501961 #0.501961
v 0.460693 0.120605 0.348877 0.501961 0.501961 0.501961 #0.501961
v 0.460693 0.120605 -0.409668 0.501961 0.501961 0.501961 #0.501961
v 0.713135 0.120605 -0.409668 0.501961 0.501961 0.501961 #0.501961
v 0.702148 0.054199 -0.386475 0.501961 0.501961 0.501961 #0.501961
v 0.702148 0.054199 -0.386475 0.501961 0.501961 0.501961 #0.501961
v 0.471924 0.054199 -0.386475 0.501961 0.501961 0.501961 #0.501961
v 0.460693 0.120605 -0.409668 0.501961 0.501961 0.501961 #0.501961
v 0.480957 0.001221 0.250977 0.501961 0.501961 0.501961 #0.501961
v 0.480957 0.001221 -0.003174 0.501961 0.501961 0.501961 #0.501961
v 0.693115 0.001221 -0.003174 0.501961 0.501961 0.501961 #0.501961
v 0.693115 0.001221 -0.003174 0.501961 0.501961 0.501961 #0.501961
v 0.693115 0.001221 0.250977 0.501961 0.501961 0.501961 #0.501961
v 0.480957 0.001221 0.250977 0.501961 0.501961 0.501961 #0.501961
v 0.471924 0.054199 0.325684 0.501961 0.501961 0.501961 #0.501961
v 0.460693 0.120605 0.348877 0.501961 0.501961 0.501961 #0.501961
v 0.460693 0.120605 -0.003174 0.501961 0.501961 0.501961 #0.501961
v 0.471924 0.054199 0.325684 0.501961 0.501961 0.501961 #0.501961
v 0.460693 0.120605 -0.003174 0.501961 0.501961 0.501961 #0.501961
v 0.480957 0.001221 -0.003174 0.501961 0.501961 0.501961 #0.501961
v 0.480957 0.001221 0.250977 0.501961 0.501961 0.501961 #0.501961
v 0.471924 0.054199 0.325684 0.501961 0.501961 0.501961 #0.501961
v 0.480957 0.001221 -0.003174 0.501961 0.501961 0.501961 #0.501961
v 0.713135 0.120605 0.348877 0.501961 0.501961 0.501961 #0.501961
v 0.702148 0.054199 0.325684 0.501961 0.501961 0.501961 #0.501961
v 0.693115 0.001221 0.250977 0.501961 0.501961 0.501961 #0.501961
v 0.693115 0.001221 0.250977 0.501961 0.501961 0.501961 #0.501961
v 0.693115 0.001221 -0.003174 0.501961 0.501961 0.501961 #0.501961
v 0.713135 0.120605 -0.003174 0.501961 0.501961 0.501961 #0.501961
v 0.713135 0.120605 0.348877 0.501961 0.501961 0.501961 #0.501961
v 0.693115 0.001221 0.250977 0.501961 0.501961 0.501961 #0.501961
v 0.713135 0.120605 -0.003174 0.501961 0.501961 0.501961 #0.501961
v 0.480957 0.001221 -0.311768 0.501961 0.501961 0.501961 #0.501961
v 0.693115 0.001221 -0.311768 0.501961 0.501961 0.501961 #0.501961
v 0.693115 0.001221 -0.003174 0.501961 0.501961 0.501961 #0.501961
v 0.693115 0.001221 -0.003174 0.501961 0.501961 0.501961 #0.501961
v 0.480957 0.001221 -0.003174 0.501961 0.501961 0.501961 #0.501961
v 0.480957 0.001221 -0.311768 0.501961 0.501961 0.501961 #0.501961
v 0.460693 0.120605 -0.409668 0.501961 0.501961 0.501961 #0.501961
v 0.471924 0.054199 -0.386475 0.501961 0.501961 0.501961 #0.501961
v 0.480957 0.001221 -0.311768 0.501961 0.501961 0.501961 #0.501961
v 0.460693 0.120605 -0.003174 0.501961 0.501961 0.501961 #0.501961
v 0.460693 0.120605 -0.409668 0.501961 0.501961 0.501961 #0.501961
v 0.480957 0.001221 -0.311768 0.501961 0.501961 0.501961 #0.501961
v 0.460693 0.120605 -0.003174 0.501961 0.501961 0.501961 #0.501961
v 0.480957 0.001221 -0.311768 0.501961 0.501961 0.501961 #0.501961
v 0.480957 0.001221 -0.003174 0.501961 0.501961 0.501961 #0.501961
v 0.693115 0.001221 -0.003174 0.501961 0.501961 0.501961 #0.501961
v 0.693115 0.001221 -0.311768 0.501961 0.501961 0.501961 #0.501961
v 0.702148 0.054199 -0.386475 0.501961 0.501961 0.501961 #0.501961
v 0.702148 0.054199 -0.386475 0.501961 0.501961 0.501961 #0.501961
v 0.713135 0.120605 -0.409668 0.501961 0.501961 0.501961 #0.501961
v 0.713135 0.120605 -0.003174 0.501961 0.501961 0.501961 #0.501961
v 0.693115 0.001221 -0.003174 0.501961 0.501961 0.501961 #0.501961
v 0.702148 0.054199 -0.386475 0.501961 0.501961 0.501961 #0.501961
v 0.713135 0.120605 -0.003174 0.501961 0.501961 0.501961 #0.501961
v 0.471924 0.054199 0.325684 0.501961 0.501961 0.501961 #0.501961
v 0.480957 0.001221 0.250977 0.501961 0.501961 0.501961 #0.501961
v 0.693115 0.001221 0.250977 0.501961 0.501961 0.501961 #0.501961
v 0.693115 0.001221 0.250977 0.501961 0.501961 0.501961 #0.501961
v 0.702148 0.054199 0.325684 0.501961 0.501961 0.501961 #0.501961
v 0.471924 0.054199 0.325684 0.501961 0.501961 0.501961 #0.501961
v 0.702148 0.054199 -0.386475 0.501961 0.501961 0.501961 #0.501961
v 0.693115 0.001221 -0.311768 0.501961 0.501961 0.501961 #0.501961
v 0.480957 0.001221 -0.311768 0.501961 0.501961 0.501961 #0.501961
v 0.480957 0.001221 -0.311768 0.501961 0.501961 0.501961 #0.501961
v 0.471924 0.054199 -0.386475 0.501961 0.501961 0.501961 #0.501961
v 0.702148 0.054199 -0.386475 0.501961 0.501961 0.501961 #0.501961
v -0.676025 0.120605 0.348877 0.501961 0.501961 0.501961 #0.501961
v -0.664795 0.054199 0.325684 0.501961 0.501961 0.501961 #0.501961
v -0.434814 0.054199 0.325684 0.501961 0.501961 0.501961 #0.501961
v -0.434814 0.054199 0.325684 0.501961 0.501961 0.501961 #0.501961
v -0.423584 0.120605 0.348877 0.501961 0.501961 0.501961 #0.501961
v -0.676025 0.120605 0.348877 0.501961 0.501961 0.501961 #0.501961
v -0.676025 0.120605 -0.409668 0.501961 0.501961 0.501961 #0.501961
v -0.423584 0.120605 -0.409668 0.501961 0.501961 0.501961 #0.501961
v -0.434814 0.054199 -0.386475 0.501961 0.501961 0.501961 #0.501961
v -0.434814 0.054199 -0.386475 0.501961 0.501961 0.501961 #0.501961
v -0.664795 0.054199 -0.386475 0.501961 0.501961 0.501961 #0.501961
v -0.676025 0.120605 -0.409668 0.501961 0.501961 0.501961 #0.501961
v -0.656006 0.001221 0.250977 0.501961 0.501961 0.501961 #0.501961
v -0.656006 0.001221 -0.003174 0.501961 0.501961 0.501961 #0.501961
v -0.443848 0.001221 -0.003174 0.501961 0.501961 0.501961 #0.501961
v -0.443848 0.001221 -0.003174 0.501961 0.501961 0.501961 #0.501961
v -0.443848 0.001221 0.250977 0.501961 0.501961 0.501961 #0.501961
v -0.656006 0.001221 0.250977 0.501961 0.501961 0.501961 #0.501961
v -0.664795 0.054199 0.325684 0.501961 0.501961 0.501961 #0.501961
v -0.676025 0.120605 0.348877 0.501961 0.501961 0.501961 #0.501961
v -0.676025 0.120605 -0.003174 0.501961 0.501961 0.501961 #0.501961
v -0.664795 0.054199 0.325684 0.501961 0.501961 0.501961 #0.501961
v -0.676025 0.120605 -0.003174 0.501961 0.501961 0.501961 #0.501961
v -0.656006 0.001221 -0.003174 0.501961 0.501961 0.501961 #0.501961
v -0.656006 0.001221 0.250977 0.501961 0.501961 0.501961 #0.501961
v -0.664795 0.054199 0.325684 0.501961 0.501961 0.501961 #0.501961
v -0.656006 0.001221 -0.003174 0.501961 0.501961 0.501961 #0.501961
v -0.423584 0.120605 0.348877 0.501961 0.501961 0.501961 #0.501961
v -0.434814 0.054199 0.325684 0.501961 0.501961 0.501961 #0.501961
v -0.443848 0.001221 0.250977 0.501961 0.501961 0.501961 #0.501961
v -0.443848 0.001221 0.250977 0.501961 0.501961 0.501961 #0.501961
v -0.443848 0.001221 -0.003174 0.501961 0.501961 0.501961 #0.501961
v -0.423584 0.120605 -0.003174 0.501961 0.501961 0.501961 #0.501961
v -0.423584 0.120605 0.348877 0.501961 0.501961 0.501961 #0.501961
v -0.443848 0.001221 0.250977 0.501961 0.501961 0.501961 #0.501961
v -0.423584 0.120605 -0.003174 0.501961 0.501961 0.501961 #0.501961
v -0.656006 0.001221 -0.311768 0.501961 0.501961 0.501961 #0.501961
v -0.443848 0.001221 -0.311768 0.501961 0.501961 0.501961 #0.501961
v -0.443848 0.001221 -0.003174 0.501961 0.501961 0.501961 #0.501961
v -0.443848 0.001221 -0.003174 0.501961 0.501961 0.501961 #0.501961
v -0.656006 0.001221 -0.003174 0.501961 0.501961 0.501961 #0.501961
v -0.656006 0.001221 -0.311768 0.501961 0.501961 0.501961 #0.501961
v -0.676025 0.120605 -0.409668 0.501961 0.501961 0.501961 #0.501961
v -0.664795 0.054199 -0.386475 0.501961 0.501961 0.501961 #0.501961
v -0.656006 0.001221 -0.311768 0.501961 0.501961 0.501961 #0.501961
v -0.676025 0.120605 -0.003174 0.501961 0.501961 0.501961 #0.501961
v -0.676025 0.120605 -0.409668 0.501961 0.501961 0.501961 #0.501961
v -0.656006 0.001221 -0.311768 0.501961 0.501961 0.501961 #0.501961
v -0.676025 0.120605 -0.003174 0.501961 0.501961 0.501961 #0.501961
v -0.656006 0.001221 -0.311768 0.501961 0.501961 0.501961 #0.501961
v -0.656006 0.001221 -0.003174 0.501961 0.501961 0.501961 #0.501961
v -0.443848 0.001221 -0.003174 0.501961 0.501961 0.501961 #0.501961
v -0.443848 0.001221 -0.311768 0.501961 0.501961 0.501961 #0.501961
v -0.434814 0.054199 -0.386475 0.501961 0.501961 0.501961 #0.501961
v -0.434814 0.054199 -0.386475 0.501961 0.501961 0.501961 #0.501961
v -0.423584 0.120605 -0.409668 0.501961 0.501961 0.501961 #0.501961
v -0.423584 0.120605 -0.003174 0.501961 0.501961 0.501961 #0.501961
v -0.443848 0.001221 -0.003174 0.501961 0.501961 0.501961 #0.501961
v -0.434814 0.054199 -0.386475 0.501961 0.501961 0.501961 #0.501961
v -0.423584 0.120605 -0.003174 0.501961 0.501961 0.501961 #0.501961
v -0.664795 0.054199 0.325684 0.501961 0.501961 0.501961 #0.501961
v -0.656006 0.001221 0.250977 0.501961 0.501961 0.501961 #0.501961
v -0.443848 0.001221 0.250977 0.501961 0.501961 0.501961 #0.501961
v -0.443848 0.001221 0.250977 0.501961 0.501961 0.501961 #0.501961
v -0.434814 0.054199 0.325684 0.501961 0.501961 0.501961 #0.501961
v -0.664795 0.054199 0.325684 0.501961 0.501961 0.501961 #0.501961
v -0.434814 0.054199 -0.386475 0.501961 0.501961 0.501961 #0.501961
v -0.443848 0.001221 -0.311768 0.501961 0.501961 0.501961 #0.501961
v -0.656006 0.001221 -0.311768 0.501961 0.501961 0.501961 #0.501961
v -0.656006 0.001221 -0.311768 0.501961 0.501961 0.501961 #0.501961
v -0.664795 0.054199 -0.386475 0.501961 0.501961 0.501961 #0.501961
v -0.434814 0.054199 -0.386475 0.501961 0.501961 0.501961 #0.501961
vt 0.962402 0.687988 0.000000
vt 0.777832 0.684082 0.000000
vt 0.776855 0.790039 0.000000
vt 0.776855 0.790039 0.000000
vt 0.963867 0.788574 0.000000
vt 0.967773 0.785156 0.000000
vt 0.962402 0.687988 0.000000
vt 0.776855 0.790039 0.000000
vt 0.967773 0.785156 0.000000
vt 0.278076 0.491943 0.000000
vt 0.277832 0.337646 0.000000
vt 0.499756 0.336426 0.000000
vt 0.278076 0.491943 0.000000
vt 0.499756 0.336426 0.000000
vt 0.506592 0.477539 0.000000
vt 0.278076 0.491943 0.000000
vt 0.506592 0.477539 0.000000
vt 0.501953 0.482910 0.000000
vt 0.072754 0.112061 0.000000
vt 0.007080 0.113281 0.000000
vt 0.007080 0.011719 0.000000
vt 0.007080 0.011719 0.000000
vt 0.072998 0.011719 0.000000
vt 0.072754 0.112061 0.000000
vt 0.989990 0.336182 0.000000
vt 0.760010 0.336670 0.000000
vt 0.759766 0.529785 0.000000
vt 0.759766 0.529785 0.000000
vt 0.989990 0.529785 0.000000
vt 0.989990 0.336182 0.000000
vt 0.504639 0.115723 0.000000
vt 0.504883 0.057861 0.000000
vt 0.296143 0.058838 0.000000
vt 0.296143 0.058838 0.000000
vt 0.301514 0.115723 0.000000
vt 0.504639 0.115723 0.000000
vt 0.769531 0.331543 0.000000
vt 0.736084 0.133301 0.000000
vt 0.543457 0.135010 0.000000
vt 0.543457 0.135010 0.000000
vt 0.543457 0.331055 0.000000
vt 0.769531 0.331543 0.000000
vt 0.615723 0.586914 0.000000
vt 0.608887 0.591797 0.000000
vt 0.589355 0.679688 0.000000
vt 0.615723 0.586914 0.000000
vt 0.589355 0.679688 0.000000
vt 0.777832 0.684082 0.000000
vt 0.615723 0.586914 0.000000
vt 0.777832 0.684082 0.000000
vt 0.778320 0.585205 0.000000
vt 0.278076 0.491943 0.000000
vt 0.050293 0.483887 0.000000
vt 0.045654 0.478516 0.000000
vt 0.278076 0.491943 0.000000
vt 0.045654 0.478516 0.000000
vt 0.042480 0.337158 0.000000
vt 0.278076 0.491943 0.000000
vt 0.042480 0.337158 0.000000
vt 0.277832 0.337646 0.000000
vt 0.007080 0.011719 0.000000
vt 0.007080 0.113281 0.000000
vt 0.072754 0.112061 0.000000
vt 0.072754 0.112061 0.000000
vt 0.072998 0.011719 0.000000
vt 0.007080 0.011719 0.000000
vt 0.689209 0.058838 0.000000
vt 0.504883 0.057861 0.000000
vt 0.504639 0.115723 0.000000
vt 0.504639 0.115723 0.000000
vt 0.683838 0.115723 0.000000
vt 0.689209 0.058838 0.000000
vt 0.937500 0.594238 0.000000
vt 0.778320 0.585205 0.000000
vt 0.777832 0.684082 0.000000
vt 0.937500 0.594238 0.000000
vt 0.777832 0.684082 0.000000
vt 0.962402 0.687988 0.000000
vt 0.937500 0.594238 0.000000
vt 0.962402 0.687988 0.000000
vt 0.944336 0.599365 0.000000
vt 0.277832 0.337646 0.000000
vt 0.277588 0.191406 0.000000
vt 0.479980 0.198486 0.000000
vt 0.479980 0.198486 0.000000
vt 0.488281 0.205811 0.000000
vt 0.499756 0.336426 0.000000
vt 0.277832 0.337646 0.000000
vt 0.479980 0.198486 0.000000
vt 0.499756 0.336426 0.000000
vt 0.989990 0.159424 0.000000
vt 0.790039 0.136230 0.000000
vt 0.760010 0.336670 0.000000
vt 0.760010 0.336670 0.000000
vt 0.989990 0.336182 0.000000
vt 0.989990 0.159424 0.000000
vt 0.769531 0.539795 0.000000
vt 0.769531 0.331543 0.000000
vt 0.543457 0.331055 0.000000
vt 0.543457 0.331055 0.000000
vt 0.543457 0.527344 0.000000
vt 0.769531 0.539795 0.000000
vt 0.582764 0.776367 0.000000
vt 0.586670 0.780029 0.000000
vt 0.776855 0.790039 0.000000
vt 0.589355 0.679688 0.000000
vt 0.582764 0.776367 0.000000
vt 0.776855 0.790039 0.000000
vt 0.589355 0.679688 0.000000
vt 0.776855 0.790039 0.000000
vt 0.777832 0.684082 0.000000
vt 0.061523 0.199463 0.000000
vt 0.277588 0.191406 0.000000
vt 0.277832 0.337646 0.000000
vt 0.061523 0.199463 0.000000
vt 0.277832 0.337646 0.000000
vt 0.042480 0.337158 0.000000
vt 0.061523 0.199463 0.000000
vt 0.042480 0.337158 0.000000
vt 0.053223 0.206787 0.000000
vt 0.000000 0.117920 0.000000
vt 0.029785 0.117920 0.000000
vt 0.024658 0.050537 0.000000
vt 0.024658 0.050537 0.000000
vt 0.000000 0.050781 0.000000
vt 0.000000 0.117920 0.000000
vt 1.000000 0.117920 0.000000
vt 1.000000 0.050781 0.000000
vt 0.975098 0.050537 0.000000
vt 0.975098 0.050537 0.000000
vt 0.969971 0.117920 0.000000
vt 1.000000 0.117920 0.000000
vt 0.301514 0.115723 0.000000
vt 0.296143 0.058838 0.000000
vt 0.260742 0.058838 0.000000
vt 0.260742 0.058838 0.000000
vt 0.260742 0.115723 0.000000
vt 0.301514 0.115723 0.000000
vt 0.683838 0.115723 0.000000
vt 0.724609 0.115723 0.000000
vt 0.724609 0.058838 0.000000
vt 0.724609 0.058838 0.000000
vt 0.689209 0.058838 0.000000
vt 0.683838 0.115723 0.000000
vt 0.962402 0.687988 0.000000
vt 0.967773 0.785156 0.000000
vt 0.994873 0.792969 0.000000
vt 0.994873 0.792969 0.000000
vt 0.994873 0.687256 0.000000
vt 0.962402 0.687988 0.000000
vt 0.278076 0.491943 0.000000
vt 0.501953 0.482910 0.000000
vt 0.524414 0.536865 0.000000
vt 0.524414 0.536865 0.000000
vt 0.278320 0.536865 0.000000
vt 0.278076 0.491943 0.000000
vt 0.963867 0.788574 0.000000
vt 0.776855 0.790039 0.000000
vt 0.776855 0.813721 0.000000
vt 0.776855 0.813721 0.000000
vt 0.994873 0.813721 0.000000
vt 0.963867 0.788574 0.000000
vt 0.042480 0.337158 0.000000
vt 0.045654 0.478516 0.000000
vt 0.016846 0.493652 0.000000
vt 0.016846 0.493652 0.000000
vt 0.016846 0.334717 0.000000
vt 0.042480 0.337158 0.000000
vt 0.556885 0.677979 0.000000
vt 0.556885 0.782715 0.000000
vt 0.582764 0.776367 0.000000
vt 0.582764 0.776367 0.000000
vt 0.589355 0.679688 0.000000
vt 0.556885 0.677979 0.000000
vt 0.277588 0.191406 0.000000
vt 0.061523 0.199463 0.000000
vt 0.054932 0.146973 0.000000
vt 0.054932 0.146973 0.000000
vt 0.277588 0.146973 0.000000
vt 0.277588 0.191406 0.000000
vt 0.778564 0.562500 0.000000
vt 0.593262 0.564697 0.000000
vt 0.615723 0.586914 0.000000
vt 0.615723 0.586914 0.000000
vt 0.778320 0.585205 0.000000
vt 0.778564 0.562500 0.000000
vt 0.499756 0.336426 0.000000
vt 0.488281 0.205811 0.000000
vt 0.529785 0.184082 0.000000
vt 0.529785 0.184082 0.000000
vt 0.529785 0.333496 0.000000
vt 0.499756 0.336426 0.000000
vt 0.994873 0.687256 0.000000
vt 0.994873 0.583740 0.000000
vt 0.944336 0.599365 0.000000
vt 0.944336 0.599365 0.000000
vt 0.962402 0.687988 0.000000
vt 0.994873 0.687256 0.000000
vt 0.556885 0.574707 0.000000
vt 0.556885 0.677979 0.000000
vt 0.589355 0.679688 0.000000
vt 0.589355 0.679688 0.000000
vt 0.608887 0.591797 0.000000
vt 0.556885 0.574707 0.000000
vt 0.050293 0.483887 0.000000
vt 0.278076 0.491943 0.000000
vt 0.278320 0.536865 0.000000
vt 0.278320 0.536865 0.000000
vt 0.027588 0.536865 0.000000
vt 0.050293 0.483887 0.000000
vt 0.556885 0.813721 0.000000
vt 0.776855 0.813721 0.000000
vt 0.776855 0.790039 0.000000
vt 0.776855 0.790039 0.000000
vt 0.586670 0.780029 0.000000
vt 0.556885 0.813721 0.000000
vt 0.479980 0.198486 0.000000
vt 0.277588 0.191406 0.000000
vt 0.277588 0.146973 0.000000
vt 0.277588 0.146973 0.000000
vt 0.495605 0.146973 0.000000
vt 0.479980 0.198486 0.000000
vt 0.959961 0.572998 0.000000
vt 0.778564 0.562500 0.000000
vt 0.778320 0.585205 0.000000
vt 0.778320 0.585205 0.000000
vt 0.937500 0.594238 0.000000
vt 0.959961 0.572998 0.000000
vt 0.053223 0.206787 0.000000
vt 0.042480 0.337158 0.000000
vt 0.016846 0.334717 0.000000
vt 0.016846 0.334717 0.000000
vt 0.016846 0.185059 0.000000
vt 0.053223 0.206787 0.000000
vt 0.506592 0.477539 0.000000
vt 0.499756 0.336426 0.000000
vt 0.529785 0.333496 0.000000
vt 0.529785 0.333496 0.000000
vt 0.529785 0.492432 0.000000
vt 0.506592 0.477539 0.000000
vt 0.994873 0.813721 0.000000
vt 0.994873 0.792969 0.000000
vt 0.967773 0.785156 0.000000
vt 0.967773 0.785156 0.000000
vt 0.963867 0.788574 0.000000
vt 0.994873 0.813721 0.000000
vt 0.529785 0.492432 0.000000
vt 0.524414 0.536865 0.000000
vt 0.501953 0.482910 0.000000
vt 0.501953 0.482910 0.000000
vt 0.506592 0.477539 0.000000
vt 0.529785 0.492432 0.000000
vt 0.027588 0.536865 0.000000
vt 0.016846 0.493652 0.000000
vt 0.045654 0.478516 0.000000
vt 0.045654 0.478516 0.000000
vt 0.050293 0.483887 0.000000
vt 0.027588 0.536865 0.000000
vt 0.586670 0.780029 0.000000
vt 0.582764 0.776367 0.000000
vt 0.556885 0.782715 0.000000
vt 0.556885 0.782715 0.000000
vt 0.556885 0.813721 0.000000
vt 0.586670 0.780029 0.000000
vt 0.608887 0.591797 0.000000
vt 0.615723 0.586914 0.000000
vt 0.593262 0.564697 0.000000
vt 0.593262 0.564697 0.000000
vt 0.556885 0.574707 0.000000
vt 0.608887 0.591797 0.000000
vt 0.016846 0.185059 0.000000
vt 0.054932 0.146973 0.000000
vt 0.061523 0.199463 0.000000
vt 0.061523 0.199463 0.000000
vt 0.053223 0.206787 0.000000
vt 0.016846 0.185059 0.000000
vt 0.937500 0.594238 0.000000
vt 0.944336 0.599365 0.000000
vt 0.994873 0.583740 0.000000
vt 0.994873 0.583740 0.000000
vt 0.959961 0.572998 0.000000
vt 0.937500 0.594238 0.000000
vt 0.495605 0.146973 0.000000
vt 0.529785 0.184082 0.000000
vt 0.488281 0.205811 0.000000
vt 0.488281 0.205811 0.000000
vt 0.479980 0.198486 0.000000
vt 0.495605 0.146973 0.000000
vt 0.072998 0.009521 0.000000
vt 0.007080 0.009521 0.000000
vt 0.007080 0.113281 0.000000
vt 0.007080 0.113281 0.000000
vt 0.072754 0.112061 0.000000
vt 0.072998 0.009521 0.000000
vt 0.544922 0.336182 0.000000
vt 0.544922 0.529785 0.000000
vt 0.759766 0.529785 0.000000
vt 0.759766 0.529785 0.000000
vt 0.760010 0.336670 0.000000
vt 0.544922 0.336182 0.000000
vt 0.504639 0.009766 0.000000
vt 0.301514 0.009766 0.000000
vt 0.296143 0.058838 0.000000
vt 0.296143 0.058838 0.000000
vt 0.504883 0.057861 0.000000
vt 0.504639 0.009766 0.000000
vt 0.769531 0.331543 0.000000
vt 0.989990 0.331055 0.000000
vt 0.989990 0.135010 0.000000
vt 0.989990 0.135010 0.000000
vt 0.736084 0.133301 0.000000
vt 0.769531 0.331543 0.000000
vt 0.007080 0.009521 0.000000
vt 0.072998 0.009521 0.000000
vt 0.072754 0.112061 0.000000
vt 0.072754 0.112061 0.000000
vt 0.007080 0.113281 0.000000
vt 0.007080 0.009521 0.000000
vt 0.683838 0.009766 0.000000
vt 0.504639 0.009766 0.000000
vt 0.504883 0.057861 0.000000
vt 0.504883 0.057861 0.000000
vt 0.689209 0.058838 0.000000
vt 0.683838 0.009766 0.000000
vt 0.544434 0.137939 0.000000
vt 0.544922 0.336182 0.000000
vt 0.760010 0.336670 0.000000
vt 0.760010 0.336670 0.000000
vt 0.790039 0.136230 0.000000
vt 0.544434 0.137939 0.000000
vt 0.769531 0.539795 0.000000
vt 0.989990 0.537109 0.000000
vt 0.989990 0.331055 0.000000
vt 0.989990 0.331055 0.000000
vt 0.769531 0.331543 0.000000
vt 0.769531 0.539795 0.000000
vt 0.024658 0.050537 0.000000
vt 0.029785 0.000000 0.000000
vt 0.000000 0.000000 0.000000
vt 0.000000 0.000000 0.000000
vt 0.000000 0.050781 0.000000
vt 0.024658 0.050537 0.000000
vt 1.000000 0.000000 0.000000
vt 0.969971 0.000000 0.000000
vt 0.975098 0.050537 0.000000
vt 0.975098 0.050537 0.000000
vt 1.000000 0.050781 0.000000
vt 1.000000 0.000000 0.000000
vt 0.301514 0.009766 0.000000
vt 0.260742 0.009766 0.000000
vt 0.260742 0.058838 0.000000
vt 0.260742 0.058838 0.000000
vt 0.296143 0.058838 0.000000
vt 0.301514 0.009766 0.000000
vt 0.724609 0.058838 0.000000
vt 0.724609 0.009766 0.000000
vt 0.683838 0.009766 0.000000
vt 0.683838 0.009766 0.000000
vt 0.689209 0.058838 0.000000
vt 0.724609 0.058838 0.000000
vt 0.183838 0.981445 0.000000
vt 0.177490 0.976807 0.000000
vt 0.044678 0.976807 0.000000
vt 0.044678 0.976807 0.000000
vt 0.038086 0.981445 0.000000
vt 0.183838 0.981445 0.000000
vt 0.183838 0.835693 0.000000
vt 0.038086 0.835693 0.000000
vt 0.044678 0.840088 0.000000
vt 0.044678 0.840088 0.000000
vt 0.177490 0.840088 0.000000
vt 0.183838 0.835693 0.000000
vt 0.172119 0.962646 0.000000
vt 0.172119 0.913818 0.000000
vt 0.049805 0.913818 0.000000
vt 0.049805 0.913818 0.000000
vt 0.049805 0.962646 0.000000
vt 0.172119 0.962646 0.000000
vt 0.177490 0.976807 0.000000
vt 0.183838 0.981445 0.000000
vt 0.183838 0.913818 0.000000
vt 0.177490 0.976807 0.000000
vt 0.183838 0.913818 0.000000
vt 0.172119 0.913818 0.000000
vt 0.172119 0.962646 0.000000
vt 0.177490 0.976807 0.000000
vt 0.172119 0.913818 0.000000
vt 0.038086 0.981445 0.000000
vt 0.044678 0.976807 0.000000
vt 0.049805 0.962646 0.000000
vt 0.049805 0.962646 0.000000
vt 0.049805 0.913818 0.000000
vt 0.038086 0.913818 0.000000
vt 0.038086 0.981445 0.000000
vt 0.049805 0.962646 0.000000
vt 0.038086 0.913818 0.000000
vt 0.172119 0.854492 0.000000
vt 0.049805 0.854492 0.000000
vt 0.049805 0.913818 0.000000
vt 0.049805 0.913818 0.000000
vt 0.172119 0.913818 0.000000
vt 0.172119 0.854492 0.000000
vt 0.183838 0.835693 0.000000
vt 0.177490 0.840088 0.000000
vt 0.172119 0.854492 0.000000
vt 0.183838 0.913818 0.000000
vt 0.183838 0.835693 0.000000
vt 0.172119 0.854492 0.000000
vt 0.183838 0.913818 0.000000
vt 0.172119 0.854492 0.000000
vt 0.172119 0.913818 0.000000
vt 0.049805 0.913818 0.000000
vt 0.049805 0.854492 0.000000
vt 0.044678 0.840088 0.000000
vt 0.044678 0.840088 0.000000
vt 0.038086 0.835693 0.000000
vt 0.038086 0.913818 0.000000
vt 0.049805 0.913818 0.000000
vt 0.044678 0.840088 0.000000
vt 0.038086 0.913818 0.000000
vt 0.177490 0.976807 0.000000
vt 0.172119 0.962646 0.000000
vt 0.049805 0.962646 0.000000
vt 0.049805 0.962646 0.000000
vt 0.044678 0.976807 0.000000
vt 0.177490 0.976807 0.000000
vt 0.044678 0.840088 0.000000
vt 0.049805 0.854492 0.000000
vt 0.172119 0.854492 0.000000
vt 0.172119 0.854492 0.000000
vt 0.177490 0.840088 0.000000
vt 0.044678 0.840088 0.000000
vt 0.210693 0.983887 0.000000
vt 0.203857 0.979248 0.000000
vt 0.061768 0.979248 0.000000
vt 0.061768 0.979248 0.000000
vt 0.054688 0.983887 0.000000
vt 0.210693 0.983887 0.000000
vt 0.210693 0.828125 0.000000
vt 0.054688 0.828125 0.000000
vt 0.061768 0.832764 0.000000
vt 0.061768 0.832764 0.000000
vt 0.203857 0.832764 0.000000
vt 0.210693 0.828125 0.000000
vt 0.198242 0.963867 0.000000
vt 0.198242 0.911621 0.000000
vt 0.067139 0.911621 0.000000
vt 0.067139 0.911621 0.000000
vt 0.067139 0.963867 0.000000
vt 0.198242 0.963867 0.000000
vt 0.203857 0.979248 0.000000
vt 0.210693 0.983887 0.000000
vt 0.210693 0.911621 0.000000
vt 0.203857 0.979248 0.000000
vt 0.210693 0.911621 0.000000
vt 0.198242 0.911621 0.000000
vt 0.198242 0.963867 0.000000
vt 0.203857 0.979248 0.000000
vt 0.198242 0.911621 0.000000
vt 0.054688 0.983887 0.000000
vt 0.061768 0.979248 0.000000
vt 0.067139 0.963867 0.000000
vt 0.067139 0.963867 0.000000
vt 0.067139 0.911621 0.000000
vt 0.054688 0.911621 0.000000
vt 0.054688 0.983887 0.000000
vt 0.067139 0.963867 0.000000
vt 0.054688 0.911621 0.000000
vt 0.198242 0.848145 0.000000
vt 0.067139 0.848145 0.000000
vt 0.067139 0.911621 0.000000
vt 0.067139 0.911621 0.000000
vt 0.198242 0.911621 0.000000
vt 0.198242 0.848145 0.000000
vt 0.210693 0.828125 0.000000
vt 0.203857 0.832764 0.000000
vt 0.198242 0.848145 0.000000
vt 0.210693 0.911621 0.000000
vt 0.210693 0.828125 0.000000
vt 0.198242 0.848145 0.000000
vt 0.210693 0.911621 0.000000
vt 0.198242 0.848145 0.000000
vt 0.198242 0.911621 0.000000
vt 0.067139 0.911621 0.000000
vt 0.067139 0.848145 0.000000
vt 0.061768 0.832764 0.000000
vt 0.061768 0.832764 0.000000
vt 0.054688 0.828125 0.000000
vt 0.054688 0.911621 0.000000
vt 0.067139 0.911621 0.000000
vt 0.061768 0.832764 0.000000
vt 0.054688 0.911621 0.000000
vt 0.203857 0.979248 0.000000
vt 0.198242 0.963867 0.000000
vt 0.067139 0.963867 0.000000
vt 0.067139 0.963867 0.000000
vt 0.061768 0.979248 0.000000
vt 0.203857 0.979248 0.000000
vt 0.061768 0.832764 0.000000
vt 0.067139 0.848145 0.000000
vt 0.198242 0.848145 0.000000
vt 0.198242 0.848145 0.000000
vt 0.203857 0.832764 0.000000
vt 0.061768 0.832764 0.000000
vn -0.187012 -0.020020 0.981934
vn -0.000244 0.021484 0.999756
vn 0.003174 0.090088 0.995850
vn 0.003174 0.090088 0.995850
vn -0.099609 0.254883 0.961670
vn -0.289795 -0.045166 0.955811
vn -0.187012 -0.020020 0.981934
vn 0.003174 0.090088 0.995850
vn -0.289795 -0.045166 0.955811
vn -0.003906 0.129395 -0.991455
vn -0.000244 -0.161377 -0.986816
vn -0.214355 -0.163574 -0.962891
vn -0.003906 0.129395 -0.991455
vn -0.214355 -0.163574 -0.962891
vn -0.260498 -0.024414 -0.965088
vn -0.003906 0.129395 -0.991455
vn -0.260498 -0.024414 -0.965088
vn -0.186035 0.209229 -0.959717
vn 0.004883 0.999756 0.001221
vn -0.508301 0.861084 -0.001465
vn -0.402100 0.683838 0.608398
vn -0.402100 0.683838 0.608398
vn -0.007568 0.774170 0.632812
vn 0.004883 0.999756 0.001221
vn 0.840820 -0.092773 0.532959
vn 0.991211 -0.130615 0.000488
vn 0.979004 0.202881 0.005371
vn 0.979004 0.202881 0.005371
vn 0.809570 0.251953 0.530029
vn 0.840820 -0.092773 0.532959
vn 0.005127 -0.896484 0.442627
vn -0.009277 -0.999756 -0.001221
vn 0.270264 -0.962646 0.000977
vn 0.270264 -0.962646 0.000977
vn 0.378906 -0.741455 0.553467
vn 0.005127 -0.896484 0.442627
vn -0.991211 -0.130615 0.000488
vn -0.811279 -0.584473 0.000977
vn -0.734619 -0.365234 0.571533
vn -0.734619 -0.365234 0.571533
vn -0.834473 -0.061035 0.547119
vn -0.991211 -0.130615 0.000488
vn 0.028076 -0.186279 0.981934
vn 0.191650 -0.136230 0.971924
vn 0.173340 -0.006348 0.984619
vn 0.028076 -0.186279 0.981934
vn 0.173340 -0.006348 0.984619
vn -0.000244 0.021484 0.999756
vn 0.028076 -0.186279 0.981934
vn -0.000244 0.021484 0.999756
vn -0.007324 -0.296143 0.954834
vn -0.003906 0.129395 -0.991455
vn 0.108154 0.286377 -0.951904
vn 0.237549 0.034424 -0.970703
vn -0.003906 0.129395 -0.991455
vn 0.237549 0.034424 -0.970703
vn 0.228760 -0.140381 -0.963135
vn -0.003906 0.129395 -0.991455
vn 0.228760 -0.140381 -0.963135
vn -0.000244 -0.161377 -0.986816
vn 0.329346 0.732178 0.595703
vn 0.579834 0.814453 0.005615
vn 0.004883 0.999756 0.001221
vn 0.004883 0.999756 0.001221
vn -0.007568 0.774170 0.632812
vn 0.329346 0.732178 0.595703
vn -0.317383 -0.947998 0.009277
vn -0.009277 -0.999756 -0.001221
vn 0.005127 -0.896484 0.442627
vn 0.005127 -0.896484 0.442627
vn -0.337891 -0.768799 0.542236
vn -0.317383 -0.947998 0.009277
vn -0.064453 -0.158203 0.985107
vn -0.007324 -0.296143 0.954834
vn -0.000244 0.021484 0.999756
vn -0.064453 -0.158203 0.985107
vn -0.000244 0.021484 0.999756
vn -0.187012 -0.020020 0.981934
vn -0.064453 -0.158203 0.985107
vn -0.187012 -0.020020 0.981934
vn -0.233643 -0.040527 0.971191
vn -0.000244 -0.161377 -0.986816
vn 0.006836 -0.428223 -0.903564
vn -0.091797 -0.364502 -0.926514
vn -0.091797 -0.364502 -0.926514
vn -0.256104 -0.313232 -0.914307
vn -0.214355 -0.163574 -0.962891
vn -0.000244 -0.161377 -0.986816
vn -0.091797 -0.364502 -0.926514
vn -0.214355 -0.163574 -0.962891
vn 0.769043 -0.285645 0.571533
vn 0.811035 -0.584717 0.000977
vn 0.991211 -0.130615 0.000488
vn 0.991211 -0.130615 0.000488
vn 0.840820 -0.092773 0.532959
vn 0.769043 -0.285645 0.571533
vn -0.979004 0.202637 0.005371
vn -0.991211 -0.130615 0.000488
vn -0.834473 -0.061035 0.547119
vn -0.834473 -0.061035 0.547119
vn -0.822021 0.173828 0.541992
vn -0.979004 0.202637 0.005371
vn 0.287842 -0.033203 0.957031
vn 0.254150 0.154541 0.954590
vn 0.003174 0.090088 0.995850
vn 0.173340 -0.006348 0.984619
vn 0.287842 -0.033203 0.957031
vn 0.003174 0.090088 0.995850
vn 0.173340 -0.006348 0.984619
vn 0.003174 0.090088 0.995850
vn -0.000244 0.021484 0.999756
vn 0.130615 -0.335693 -0.932617
vn 0.006836 -0.428223 -0.903564
vn -0.000244 -0.161377 -0.986816
vn 0.130615 -0.335693 -0.932617
vn -0.000244 -0.161377 -0.986816
vn 0.228760 -0.140381 -0.963135
vn 0.130615 -0.335693 -0.932617
vn 0.228760 -0.140381 -0.963135
vn 0.298828 -0.281006 -0.911865
vn -0.822021 0.173828 0.541992
vn -0.402100 0.683838 0.608398
vn -0.508301 0.861084 -0.001465
vn -0.508301 0.861084 -0.001465
vn -0.979004 0.202637 0.005371
vn -0.822021 0.173828 0.541992
vn 0.809570 0.251953 0.530029
vn 0.979004 0.202881 0.005371
vn 0.579834 0.814453 0.005615
vn 0.579834 0.814453 0.005615
vn 0.329346 0.732178 0.595703
vn 0.809570 0.251953 0.530029
vn 0.378906 -0.741455 0.553467
vn 0.270264 -0.962646 0.000977
vn 0.811035 -0.584717 0.000977
vn 0.811035 -0.584717 0.000977
vn 0.769043 -0.285645 0.571533
vn 0.378906 -0.741455 0.553467
vn -0.337891 -0.768799 0.542236
vn -0.734619 -0.365234 0.571533
vn -0.811279 -0.584473 0.000977
vn -0.811279 -0.584473 0.000977
vn -0.317383 -0.947998 0.009277
vn -0.337891 -0.768799 0.542236
vn -0.187012 -0.020020 0.981934
vn -0.289795 -0.045166 0.955811
vn -0.822021 0.173828 0.541992
vn -0.822021 0.173828 0.541992
vn -0.834473 -0.061035 0.547119
vn -0.187012 -0.020020 0.981934
vn -0.003906 0.129395 -0.991455
vn -0.186035 0.209229 -0.959717
vn -0.287598 0.698242 -0.655273
vn -0.287598 0.698242 -0.655273
vn -0.004883 0.856689 -0.515625
vn -0.003906 0.129395 -0.991455
vn -0.099609 0.254883 0.961670
vn 0.003174 0.090088 0.995850
vn -0.007568 0.774170 0.632812
vn -0.007568 0.774170 0.632812
vn -0.402100 0.683838 0.608398
vn -0.099609 0.254883 0.961670
vn 0.228760 -0.140381 -0.963135
vn 0.237549 0.034424 -0.970703
vn 0.771729 0.276367 -0.572266
vn 0.771729 0.276367 -0.572266
vn 0.827393 -0.167236 -0.535645
vn 0.228760 -0.140381 -0.963135
vn 0.840820 -0.092773 0.532959
vn 0.809570 0.251953 0.530029
vn 0.287842 -0.033203 0.957031
vn 0.287842 -0.033203 0.957031
vn 0.173340 -0.006348 0.984619
vn 0.840820 -0.092773 0.532959
vn 0.006836 -0.428223 -0.903564
vn 0.130615 -0.335693 -0.932617
vn 0.339844 -0.783203 -0.520508
vn 0.339844 -0.783203 -0.520508
vn 0.003906 -0.870361 -0.491943
vn 0.006836 -0.428223 -0.903564
vn 0.005127 -0.896484 0.442627
vn 0.378906 -0.741455 0.553467
vn 0.028076 -0.186279 0.981934
vn 0.028076 -0.186279 0.981934
vn -0.007324 -0.296143 0.954834
vn 0.005127 -0.896484 0.442627
vn -0.214355 -0.163574 -0.962891
vn -0.256104 -0.313232 -0.914307
vn -0.738281 -0.396729 -0.545166
vn -0.738281 -0.396729 -0.545166
vn -0.838623 -0.131592 -0.528320
vn -0.214355 -0.163574 -0.962891
vn -0.834473 -0.061035 0.547119
vn -0.734619 -0.365234 0.571533
vn -0.233643 -0.040527 0.971191
vn -0.233643 -0.040527 0.971191
vn -0.187012 -0.020020 0.981934
vn -0.834473 -0.061035 0.547119
vn 0.769043 -0.285645 0.571533
vn 0.840820 -0.092773 0.532959
vn 0.173340 -0.006348 0.984619
vn 0.173340 -0.006348 0.984619
vn 0.191650 -0.136230 0.971924
vn 0.769043 -0.285645 0.571533
vn 0.108154 0.286377 -0.951904
vn -0.003906 0.129395 -0.991455
vn -0.004883 0.856689 -0.515625
vn -0.004883 0.856689 -0.515625
vn 0.321533 0.746582 -0.582031
vn 0.108154 0.286377 -0.951904
vn 0.329346 0.732178 0.595703
vn -0.007568 0.774170 0.632812
vn 0.003174 0.090088 0.995850
vn 0.003174 0.090088 0.995850
vn 0.254150 0.154541 0.954590
vn 0.329346 0.732178 0.595703
vn -0.091797 -0.364502 -0.926514
vn 0.006836 -0.428223 -0.903564
vn 0.003906 -0.870361 -0.491943
vn 0.003906 -0.870361 -0.491943
vn -0.343018 -0.817139 -0.462891
vn -0.091797 -0.364502 -0.926514
vn -0.337891 -0.768799 0.542236
vn 0.005127 -0.896484 0.442627
vn -0.007324 -0.296143 0.954834
vn -0.007324 -0.296143 0.954834
vn -0.064453 -0.158203 0.985107
vn -0.337891 -0.768799 0.542236
vn 0.298828 -0.281006 -0.911865
vn 0.228760 -0.140381 -0.963135
vn 0.827393 -0.167236 -0.535645
vn 0.827393 -0.167236 -0.535645
vn 0.715088 -0.424561 -0.554688
vn 0.298828 -0.281006 -0.911865
vn -0.260498 -0.024414 -0.965088
vn -0.214355 -0.163574 -0.962891
vn -0.838623 -0.131592 -0.528320
vn -0.838623 -0.131592 -0.528320
vn -0.746582 0.334473 -0.574951
vn -0.260498 -0.024414 -0.965088
vn -0.402100 0.683838 0.608398
vn -0.822021 0.173828 0.541992
vn -0.289795 -0.045166 0.955811
vn -0.289795 -0.045166 0.955811
vn -0.099609 0.254883 0.961670
vn -0.402100 0.683838 0.608398
vn -0.746582 0.334473 -0.574951
vn -0.287598 0.698242 -0.655273
vn -0.186035 0.209229 -0.959717
vn -0.186035 0.209229 -0.959717
vn -0.260498 -0.024414 -0.965088
vn -0.746582 0.334473 -0.574951
vn 0.321533 0.746582 -0.582031
vn 0.771729 0.276367 -0.572266
vn 0.237549 0.034424 -0.970703
vn 0.237549 0.034424 -0.970703
vn 0.108154 0.286377 -0.951904
vn 0.321533 0.746582 -0.582031
vn 0.254150 0.154541 0.954590
vn 0.287842 -0.033203 0.957031
vn 0.809570 0.251953 0.530029
vn 0.809570 0.251953 0.530029
vn 0.329346 0.732178 0.595703
vn 0.254150 0.154541 0.954590
vn 0.191650 -0.136230 0.971924
vn 0.028076 -0.186279 0.981934
vn 0.378906 -0.741455 0.553467
vn 0.378906 -0.741455 0.553467
vn 0.769043 -0.285645 0.571533
vn 0.191650 -0.136230 0.971924
vn 0.715088 -0.424561 -0.554688
vn 0.339844 -0.783203 -0.520508
vn 0.130615 -0.335693 -0.932617
vn 0.130615 -0.335693 -0.932617
vn 0.298828 -0.281006 -0.911865
vn 0.715088 -0.424561 -0.554688
vn -0.064453 -0.158203 0.985107
vn -0.233643 -0.040527 0.971191
vn -0.734619 -0.365234 0.571533
vn -0.734619 -0.365234 0.571533
vn -0.337891 -0.768799 0.542236
vn -0.064453 -0.158203 0.985107
vn -0.343018 -0.817139 -0.462891
vn -0.738281 -0.396729 -0.545166
vn -0.256104 -0.313232 -0.914307
vn -0.256104 -0.313232 -0.914307
vn -0.091797 -0.364502 -0.926514
vn -0.343018 -0.817139 -0.462891
vn -0.004883 0.856689 -0.515625
vn -0.287598 0.698242 -0.655273
vn -0.508301 0.861084 -0.001465
vn -0.508301 0.861084 -0.001465
vn 0.004883 0.999756 0.001221
vn -0.004883 0.856689 -0.515625
vn 0.827393 -0.167236 -0.535645
vn 0.771729 0.276367 -0.572266
vn 0.979004 0.202881 0.005371
vn 0.979004 0.202881 0.005371
vn 0.991211 -0.130615 0.000488
vn 0.827393 -0.167236 -0.535645
vn 0.003906 -0.870361 -0.491943
vn 0.339844 -0.783203 -0.520508
vn 0.270264 -0.962646 0.000977
vn 0.270264 -0.962646 0.000977
vn -0.009277 -0.999756 -0.001221
vn 0.003906 -0.870361 -0.491943
vn -0.991211 -0.130615 0.000488
vn -0.838623 -0.131592 -0.528320
vn -0.738281 -0.396729 -0.545166
vn -0.738281 -0.396729 -0.545166
vn -0.811279 -0.584473 0.000977
vn -0.991211 -0.130615 0.000488
vn 0.321533 0.746582 -0.582031
vn -0.004883 0.856689 -0.515625
vn 0.004883 0.999756 0.001221
vn 0.004883 0.999756 0.001221
vn 0.579834 0.814453 0.005615
vn 0.321533 0.746582 -0.582031
vn -0.343018 -0.817139 -0.462891
vn 0.003906 -0.870361 -0.491943
vn -0.009277 -0.999756 -0.001221
vn -0.009277 -0.999756 -0.001221
vn -0.317383 -0.947998 0.009277
vn -0.343018 -0.817139 -0.462891
vn 0.715088 -0.424561 -0.554688
vn 0.827393 -0.167236 -0.535645
vn 0.991211 -0.130615 0.000488
vn 0.991211 -0.130615 0.000488
vn 0.811035 -0.584717 0.000977
vn 0.715088 -0.424561 -0.554688
vn -0.979004 0.202637 0.005371
vn -0.746582 0.334473 -0.574951
vn -0.838623 -0.131592 -0.528320
vn -0.838623 -0.131592 -0.528320
vn -0.991211 -0.130615 0.000488
vn -0.979004 0.202637 0.005371
vn -0.508301 0.861084 -0.001465
vn -0.287598 0.698242 -0.655273
vn -0.746582 0.334473 -0.574951
vn -0.746582 0.334473 -0.574951
vn -0.979004 0.202637 0.005371
vn -0.508301 0.861084 -0.001465
vn 0.771729 0.276367 -0.572266
vn 0.321533 0.746582 -0.582031
vn 0.579834 0.814453 0.005615
vn 0.579834 0.814453 0.005615
vn 0.979004 0.202881 0.005371
vn 0.771729 0.276367 -0.572266
vn 0.339844 -0.783203 -0.520508
vn 0.715088 -0.424561 -0.554688
vn 0.811035 -0.584717 0.000977
vn 0.811035 -0.584717 0.000977
vn 0.270264 -0.962646 0.000977
vn 0.339844 -0.783203 -0.520508
vn -0.811279 -0.584473 0.000977
vn -0.738281 -0.396729 -0.545166
vn -0.343018 -0.817139 -0.462891
vn -0.343018 -0.817139 -0.462891
vn -0.317383 -0.947998 0.009277
vn -0.811279 -0.584473 0.000977
vn 0.000000 0.329346 0.944092
vn 0.000000 0.329346 0.944092
vn 0.000000 0.329346 0.944092
vn 0.000000 0.329346 0.944092
vn 0.000000 0.329346 0.944092
vn 0.000000 0.329346 0.944092
vn 0.000000 0.329346 -0.944092
vn 0.000000 0.329346 -0.944092
vn 0.000000 0.329346 -0.944092
vn 0.000000 0.329346 -0.944092
vn 0.000000 0.329346 -0.944092
vn 0.000000 0.329346 -0.944092
vn 0.000000 1.000000 0.000000
vn 0.000000 1.000000 0.000000
vn 0.000000 1.000000 0.000000
vn 0.000000 1.000000 0.000000
vn 0.000000 1.000000 0.000000
vn 0.000000 1.000000 0.000000
vn 0.000000 0.329346 0.944092
vn 0.000000 0.329346 0.944092
vn 0.986084 0.166016 0.000000
vn 0.000000 0.329346 0.944092
vn 0.986084 0.166016 0.000000
vn 0.000000 1.000000 0.000000
vn 0.000000 1.000000 0.000000
vn 0.000000 0.329346 0.944092
vn 0.000000 1.000000 0.000000
vn 0.000000 0.329346 0.944092
vn 0.000000 0.329346 0.944092
vn 0.000000 1.000000 0.000000
vn 0.000000 1.000000 0.000000
vn 0.000000 1.000000 0.000000
vn -0.986084 0.166016 0.000000
vn 0.000000 0.329346 0.944092
vn 0.000000 1.000000 0.000000
vn -0.986084 0.166016 0.000000
vn 0.000000 1.000000 0.000000
vn 0.000000 1.000000 0.000000
vn 0.000000 1.000000 0.000000
vn 0.000000 1.000000 0.000000
vn 0.000000 1.000000 0.000000
vn 0.000000 1.000000 0.000000
vn 0.000000 0.329346 -0.944092
vn 0.000000 0.329346 -0.944092
vn 0.000000 1.000000 0.000000
vn 0.986084 0.166016 0.000000
vn 0.000000 0.329346 -0.944092
vn 0.000000 1.000000 0.000000
vn 0.986084 0.166016 0.000000
vn 0.000000 1.000000 0.000000
vn 0.000000 1.000000 0.000000
vn 0.000000 1.000000 0.000000
vn 0.000000 1.000000 0.000000
vn 0.000000 0.329346 -0.944092
vn 0.000000 0.329346 -0.944092
vn 0.000000 0.329346 -0.944092
vn -0.986084 0.166016 0.000000
vn 0.000000 1.000000 0.000000
vn 0.000000 0.329346 -0.944092
vn -0.986084 0.166016 0.000000
vn 0.000000 0.329346 0.944092
vn 0.000000 1.000000 0.000000
vn 0.000000 1.000000 0.000000
vn 0.000000 1.000000 0.000000
vn 0.000000 0.329346 0.944092
vn 0.000000 0.329346 0.944092
vn 0.000000 0.329346 -0.944092
vn 0.000000 1.000000 0.000000
vn 0.000000 1.000000 0.000000
vn 0.000000 1.000000 0.000000
vn 0.000000 0.329346 -0.944092
vn 0.000000 0.329346 -0.944092
vn 0.000000 0.329346 0.944092
vn 0.000000 0.329346 0.944092
vn 0.000000 0.329346 0.944092
vn 0.000000 0.329346 0.944092
vn 0.000000 0.329346 0.944092
vn 0.000000 0.329346 0.944092
vn 0.000000 0.329346 -0.944092
vn 0.000000 0.329346 -0.944092
vn 0.000000 0.329346 -0.944092
vn 0.000000 0.329346 -0.944092
vn 0.000000 0.329346 -0.944092
vn 0.000000 0.329346 -0.944092
vn 0.000000 1.000000 0.000000
vn 0.000000 1.000000 0.000000
vn 0.000000 1.000000 0.000000
vn 0.000000 1.000000 0.000000
vn 0.000000 1.000000 0.000000
vn 0.000000 1.000000 0.000000
vn 0.000000 0.329346 0.944092
vn 0.000000 0.329346 0.944092
vn 0.986084 0.166016 0.000000
vn 0.000000 0.329346 0.944092
vn 0.986084 0.166016 0.000000
vn 0.000000 1.000000 0.000000
vn 0.000000 1.000000 0.000000
vn 0.000000 0.329346 0.944092
vn 0.000000 1.000000 0.000000
vn 0.000000 0.329346 0.944092
vn 0.000000 0.329346 0.944092
vn 0.000000 1.000000 0.000000
vn 0.000000 1.000000 0.000000
vn 0.000000 1.000000 0.000000
vn -0.986084 0.166016 0.000000
vn 0.000000 0.329346 0.944092
vn 0.000000 1.000000 0.000000
vn -0.986084 0.166016 0.000000
vn 0.000000 1.000000 0.000000
vn 0.000000 1.000000 0.000000
vn 0.000000 1.000000 0.000000
vn 0.000000 1.000000 0.000000
vn 0.000000 1.000000 0.000000
vn 0.000000 1.000000 0.000000
vn 0.000000 0.329346 -0.944092
vn 0.000000 0.329346 -0.944092
vn 0.000000 1.000000 0.000000
vn 0.986084 0.166016 0.000000
vn 0.000000 0.329346 -0.944092
vn 0.000000 1.000000 0.000000
vn 0.986084 0.166016 0.000000
vn 0.000000 1.000000 0.000000
vn 0.000000 1.000000 0.000000
vn 0.000000 1.000000 0.000000
vn 0.000000 1.000000 0.000000
vn 0.000000 0.329346 -0.944092
vn 0.000000 0.329346 -0.944092
vn 0.000000 0.329346 -0.944092
vn -0.986084 0.166016 0.000000
vn 0.000000 1.000000 0.000000
vn 0.000000 0.329346 -0.944092
vn -0.986084 0.166016 0.000000
vn 0.000000 0.329346 0.944092
vn 0.000000 1.000000 0.000000
vn 0.000000 1.000000 0.000000
vn 0.000000 1.000000 0.000000
vn 0.000000 0.329346 0.944092
vn 0.000000 0.329346 0.944092
vn 0.000000 0.329346 -0.944092
vn 0.000000 1.000000 0.000000
vn 0.000000 1.000000 0.000000
vn 0.000000 1.000000 0.000000
vn 0.000000 0.329346 -0.944092
vn 0.000000 0.329346 -0.944092
usemtl Texture
f 1/1/1 2/2/2 3/3/3
f 4/4/4 5/5/5 6/6/6
f 7/7/7 8/8/8 9/9/9
f 10/10/10 11/11/11 12/12/12
f 13/13/13 14/14/14 15/15/15
f 16/16/16 17/17/17 18/18/18
f 19/19/19 20/20/20 21/21/21
f 22/22/22 23/23/23 24/24/24
f 25/25/25 26/26/26 27/27/27
f 28/28/28 29/29/29 30/30/30
f 31/31/31 32/32/32 33/33/33
f 34/34/34 35/35/35 36/36/36
f 37/37/37 38/38/38 39/39/39
f 40/40/40 41/41/41 42/42/42
f 43/43/43 44/44/44 45/45/45
f 46/46/46 47/47/47 48/48/48
f 49/49/49 50/50/50 51/51/51
f 52/52/52 53/53/53 54/54/54
f 55/55/55 56/56/56 57/57/57
f 58/58/58 59/59/59 60/60/60
f 61/61/61 62/62/62 63/63/63
f 64/64/64 65/65/65 66/66/66
f 67/67/67 68/68/68 69/69/69
f 70/70/70 71/71/71 72/72/72
f 73/73/73 74/74/74 75/75/75
f 76/76/76 77/77/77 78/78/78
f 79/79/79 80/80/80 81/81/81
f 82/82/82 83/83/83 84/84/84
f 85/85/85 86/86/86 87/87/87
f 88/88/88 89/89/89 90/90/90
f 91/91/91 92/92/92 93/93/93
f 94/94/94 95/95/95 96/96/96
f 97/97/97 98/98/98 99/99/99
f 100/100/100 101/101/101 102/102/102
f 103/103/103 104/104/104 105/105/105
f 106/106/106 107/107/107 108/108/108
f 109/109/109 110/110/110 111/111/111
f 112/112/112 113/113/113 114/114/114
f 115/115/115 116/116/116 117/117/117
f 118/118/118 119/119/119 120/120/120
f 121/121/121 122/122/122 123/123/123
f 124/124/124 125/125/125 126/126/126
f 127/127/127 128/128/128 129/129/129
f 130/130/130 131/131/131 132/132/132
f 133/133/133 134/134/134 135/135/135
f 136/136/136 137/137/137 138/138/138
f 139/139/139 140/140/140 141/141/141
f 142/142/142 143/143/143 144/144/144
f 145/145/145 146/146/146 147/147/147
f 148/148/148 149/149/149 150/150/150
f 151/151/151 152/152/152 153/153/153
f 154/154/154 155/155/155 156/156/156
f 157/157/157 158/158/158 159/159/159
f 160/160/160 161/161/161 162/162/162
f 163/163/163 164/164/164 165/165/165
f 166/166/166 167/167/167 168/168/168
f 169/169/169 170/170/170 171/171/171
f 172/172/172 173/173/173 174/174/174
f 175/175/175 176/176/176 177/177/177
f 178/178/178 179/179/179 180/180/180
f 181/181/181 182/182/182 183/183/183
f 184/184/184 185/185/185 186/186/186
f 187/187/187 188/188/188 189/189/189
f 190/190/190 191/191/191 192/192/192
f 193/193/193 194/194/194 195/195/195
f 196/196/196 197/197/197 198/198/198
f 199/199/199 200/200/200 201/201/201
f 202/202/202 203/203/203 204/204/204
f 205/205/205 206/206/206 207/207/207
f 208/208/208 209/209/209 210/210/210
f 211/211/211 212/212/212 213/213/213
f 214/214/214 215/215/215 216/216/216
f 217/217/217 218/218/218 219/219/219
f 220/220/220 221/221/221 222/222/222
f 223/223/223 224/224/224 225/225/225
f 226/226/226 227/227/227 228/228/228
f 229/229/229 230/230/230 231/231/231
f 232/232/232 233/233/233 234/234/234
f 235/235/235 236/236/236 237/237/237
f 238/238/238 239/239/239 240/240/240
f 241/241/241 242/242/242 243/243/243
f 244/244/244 245/245/245 246/246/246
f 247/247/247 248/248/248 249/249/249
f 250/250/250 251/251/251 252/252/252
f 253/253/253 254/254/254 255/255/255
f 256/256/256 257/257/257 258/258/258
f 259/259/259 260/260/260 261/261/261
f 262/262/262 263/263/263 264/264/264
f 265/265/265 266/266/266 267/267/267
f 268/268/268 269/269/269 270/270/270
f 271/271/271 272/272/272 273/273/273
f 274/274/274 275/275/275 276/276/276
f 277/277/277 278/278/278 279/279/279
f 280/280/280 281/281/281 282/282/282
f 283/283/283 284/284/284 285/285/285
f 286/286/286 287/287/287 288/288/288
f 289/289/289 290/290/290 291/291/291
f 292/292/292 293/293/293 294/294/294
f 295/295/295 296/296/296 297/297/297
f 298/298/298 299/299/299 300/300/300
f 301/301/301 302/302/302 303/303/303
f 304/304/304 305/305/305 306/306/306
f 307/307/307 308/308/308 309/309/309
f 310/310/310 311/311/311 312/312/312
f 313/313/313 314/314/314 315/315/315
f 316/316/316 317/317/317 318/318/318
f 319/319/319 320/320/320 321/321/321
f 322/322/322 323/323/323 324/324/324
f 325/325/325 326/326/326 327/327/327
f 328/328/328 329/329/329 330/330/330
f 331/331/331 332/332/332 333/333/333
f 334/334/334 335/335/335 336/336/336
f 337/337/337 338/338/338 339/339/339
f 340/340/340 341/341/341 342/342/342
f 343/343/343 344/344/344 345/345/345
f 346/346/346 347/347/347 348/348/348
f 349/349/349 350/350/350 351/351/351
f 352/352/352 353/353/353 354/354/354
f 355/355/355 356/356/356 357/357/357
f 358/358/358 359/359/359 360/360/360
f 361/361/361 362/362/362 363/363/363
f 364/364/364 365/365/365 366/366/366
f 367/367/367 368/368/368 369/369/369
f 370/370/370 371/371/371 372/372/372
f 373/373/373 374/374/374 375/375/375
f 376/376/376 377/377/377 378/378/378
f 379/379/379 380/380/380 381/381/381
f 382/382/382 383/383/383 384/384/384
f 385/385/385 386/386/386 387/387/387
f 388/388/388 389/389/389 390/390/390
f 391/391/391 392/392/392 393/393/393
f 394/394/394 395/395/395 396/396/396
f 397/397/397 398/398/398 399/399/399
f 400/400/400 401/401/401 402/402/402
f 403/403/403 404/404/404 405/405/405
f 406/406/406 407/407/407 408/408/408
f 409/409/409 410/410/410 411/411/411
f 412/412/412 413/413/413 414/414/414
f 415/415/415 416/416/416 417/417/417
f 418/418/418 419/419/419 420/420/420
f 421/421/421 422/422/422 423/423/423
f 424/424/424 425/425/425 426/426/426
f 427/427/427 428/428/428 429/429/429
f 430/430/430 431/431/431 432/432/432
f 433/433/433 434/434/434 435/435/435
f 436/436/436 437/437/437 438/438/438
f 439/439/439 440/440/440 441/441/441
f 442/442/442 443/443/443 444/444/444
f 445/445/445 446/446/446 447/447/447
f 448/448/448 449/449/449 450/450/450
f 451/451/451 452/452/452 453/453/453
f 454/454/454 455/455/455 456/456/456
f 457/457/457 458/458/458 459/459/459
f 460/460/460 461/461/461 462/462/462
f 463/463/463 464/464/464 465/465/465
f 466/466/466 467/467/467 468/468/468
f 469/469/469 470/470/470 471/471/471
f 472/472/472 473/473/473 474/474/474
f 475/475/475 476/476/476 477/477/477
f 478/478/478 479/479/479 480/480/480
f 481/481/481 482/482/482 483/483/483
f 484/484/484 485/485/485 486/486/486
f 487/487/487 488/488/488 489/489/489
f 490/490/490 491/491/491 492/492/492
f 493/493/493 494/494/494 495/495/495
f 496/496/496 497/497/497 498/498/498
f 499/499/499 500/500/500 501/501/501
f 502/502/502 503/503/503 504/504/504
