# OBJ file
mtllib kh1.ico.mtl
v 0.715088 2.374268 -0.369629 0.498039 0.498039 0.498039 #0.501961
v 0.000000 2.374268 -0.618652 0.498039 0.498039 0.498039 #0.501961
v 0.000000 0.214355 -0.274170 0.498039 0.498039 0.498039 #0.501961
v 0.000000 2.574219 0.823486 0.498039 0.498039 0.498039 #0.501961
v 0.714355 2.474365 0.569336 0.498039 0.498039 0.498039 #0.501961
v 0.000000 0.107666 0.490723 0.498039 0.498039 0.498039 #0.501961
v 0.714355 2.474365 0.569336 0.498039 0.498039 0.498039 #0.501961
v 0.715088 2.374268 -0.369629 0.498039 0.498039 0.498039 #0.501961
v 0.654297 0.511475 -0.172363 0.498039 0.498039 0.498039 #0.501961
v 0.000000 2.574219 0.823486 0.498039 0.498039 0.498039 #0.501961
v 0.714355 2.474365 0.569336 0.498039 0.498039 0.498039 #0.501961
v 0.338867 0.457031 0.630859 0.498039 0.498039 0.498039 #0.501961
v 0.714355 2.474365 0.569336 0.498039 0.498039 0.498039 #0.501961
v 0.715088 2.374268 -0.369629 0.498039 0.498039 0.498039 #0.501961
v 0.176270 0.488770 0.482666 0.498039 0.498039 0.498039 #0.501961
v 0.715088 2.374268 -0.369629 0.498039 0.498039 0.498039 #0.501961
v 0.000000 2.374268 -0.618652 0.498039 0.498039 0.498039 #0.501961
v 0.533203 0.692871 -0.297852 0.498039 0.498039 0.498039 #0.501961
v 0.092285 3.867920 -0.274170 0.498039 0.498039 0.498039 #0.501961
v 0.218750 4.031250 -0.260986 0.498039 0.498039 0.498039 #0.501961
v 0.268555 3.864258 -0.123779 0.498039 0.498039 0.498039 #0.501961
v 0.000000 2.374268 -0.618652 0.498039 0.498039 0.498039 #0.501961
v 0.715088 2.374268 -0.369629 0.498039 0.498039 0.498039 #0.501961
v 0.000000 0.214355 -0.274170 0.498039 0.498039 0.498039 #0.501961
v 0.714355 2.474365 0.569336 0.498039 0.498039 0.498039 #0.501961
v 0.000000 2.574219 0.823486 0.498039 0.498039 0.498039 #0.501961
v 0.000000 0.107666 0.490723 0.498039 0.498039 0.498039 #0.501961
v 0.715088 2.374268 -0.369629 0.498039 0.498039 0.498039 #0.501961
v 0.714355 2.474365 0.569336 0.498039 0.498039 0.498039 #0.501961
v 0.654297 0.511475 -0.172363 0.498039 0.498039 0.498039 #0.501961
v 0.714355 2.474365 0.569336 0.498039 0.498039 0.498039 #0.501961
v 0.000000 2.574219 0.823486 0.498039 0.498039 0.498039 #0.501961
v 0.338867 0.457031 0.630859 0.498039 0.498039 0.498039 #0.501961
v 0.715088 2.374268 -0.369629 0.498039 0.498039 0.498039 #0.501961
v 0.714355 2.474365 0.569336 0.498039 0.498039 0.498039 #0.501961
v 0.176270 0.488770 0.482666 0.498039 0.498039 0.498039 #0.501961
v 0.000000 2.374268 -0.618652 0.498039 0.498039 0.498039 #0.501961
v 0.715088 2.374268 -0.369629 0.498039 0.498039 0.498039 #0.501961
v 0.533203 0.692871 -0.297852 0.498039 0.498039 0.498039 #0.501961
v 0.499512 3.336914 0.387695 0.498039 0.498039 0.498039 #0.501961
v 0.000000 2.574219 0.823486 0.498039 0.498039 0.498039 #0.501961
v 0.714355 2.474365 0.569336 0.498039 0.498039 0.498039 #0.501961
v 0.499512 3.336914 0.387695 0.498039 0.498039 0.498039 #0.501961
v 0.000000 3.401611 0.544434 0.498039 0.498039 0.498039 #0.501961
v 0.000000 2.574219 0.823486 0.498039 0.498039 0.498039 #0.501961
v 0.543457 3.204346 -0.328125 0.498039 0.498039 0.498039 #0.501961
v 0.714355 2.474365 0.569336 0.498039 0.498039 0.498039 #0.501961
v 0.715088 2.374268 -0.369629 0.498039 0.498039 0.498039 #0.501961
v 0.543457 3.204346 -0.328125 0.498039 0.498039 0.498039 #0.501961
v 0.499512 3.336914 0.387695 0.498039 0.498039 0.498039 #0.501961
v 0.714355 2.474365 0.569336 0.498039 0.498039 0.498039 #0.501961
v 0.543457 3.204346 -0.328125 0.498039 0.498039 0.498039 #0.501961
v 0.715088 2.374268 -0.369629 0.498039 0.498039 0.498039 #0.501961
v 0.000000 2.374268 -0.618652 0.498039 0.498039 0.498039 #0.501961
v 0.000000 3.204346 -0.554932 0.498039 0.498039 0.498039 #0.501961
v 0.543457 3.204346 -0.328125 0.498039 0.498039 0.498039 #0.501961
v 0.000000 2.374268 -0.618652 0.498039 0.498039 0.498039 #0.501961
v 0.000000 3.561523 -0.302734 0.498039 0.498039 0.498039 #0.501961
v 0.263916 3.701904 0.259766 0.498039 0.498039 0.498039 #0.501961
v 0.316650 3.546875 -0.290527 0.498039 0.498039 0.498039 #0.501961
v 0.470459 3.556885 0.376465 0.498039 0.498039 0.498039 #0.501961
v 0.000000 3.666016 0.605469 0.498039 0.498039 0.498039 #0.501961
v 0.000000 3.401611 0.544434 0.498039 0.498039 0.498039 #0.501961
v 0.470459 3.556885 0.376465 0.498039 0.498039 0.498039 #0.501961
v 0.000000 3.401611 0.544434 0.498039 0.498039 0.498039 #0.501961
v 0.499512 3.336914 0.387695 0.498039 0.498039 0.498039 #0.501961
v 0.492676 3.343750 -0.350342 0.498039 0.498039 0.498039 #0.501961
v 0.470459 3.556885 0.376465 0.498039 0.498039 0.498039 #0.501961
v 0.499512 3.336914 0.387695 0.498039 0.498039 0.498039 #0.501961
v 0.492676 3.343750 -0.350342 0.498039 0.498039 0.498039 #0.501961
v 0.499512 3.336914 0.387695 0.498039 0.498039 0.498039 #0.501961
v 0.543457 3.204346 -0.328125 0.498039 0.498039 0.498039 #0.501961
v 0.492676 3.343750 -0.350342 0.498039 0.498039 0.498039 #0.501961
v 0.543457 3.204346 -0.328125 0.498039 0.498039 0.498039 #0.501961
v 0.000000 3.204346 -0.554932 0.498039 0.498039 0.498039 #0.501961
v 0.000000 3.327393 -0.459229 0.498039 0.498039 0.498039 #0.501961
v 0.492676 3.343750 -0.350342 0.498039 0.498039 0.498039 #0.501961
v 0.000000 3.204346 -0.554932 0.498039 0.498039 0.498039 #0.501961
v 0.000000 3.652588 0.468262 0.498039 0.498039 0.498039 #0.501961
v 0.000000 3.666016 0.605469 0.498039 0.498039 0.498039 #0.501961
v 0.470459 3.556885 0.376465 0.498039 0.498039 0.498039 #0.501961
v 0.394287 3.587646 0.250488 0.498039 0.498039 0.498039 #0.501961
v 0.000000 3.652588 0.468262 0.498039 0.498039 0.498039 #0.501961
v 0.470459 3.556885 0.376465 0.498039 0.498039 0.498039 #0.501961
v 0.394287 3.587646 0.250488 0.498039 0.498039 0.498039 #0.501961
v 0.470459 3.556885 0.376465 0.498039 0.498039 0.498039 #0.501961
v 0.492676 3.343750 -0.350342 0.498039 0.498039 0.498039 #0.501961
v 0.376953 3.442139 -0.301270 0.498039 0.498039 0.498039 #0.501961
v 0.394287 3.587646 0.250488 0.498039 0.498039 0.498039 #0.501961
v 0.492676 3.343750 -0.350342 0.498039 0.498039 0.498039 #0.501961
v 0.376953 3.442139 -0.301270 0.498039 0.498039 0.498039 #0.501961
v 0.492676 3.343750 -0.350342 0.498039 0.498039 0.498039 #0.501961
v 0.000000 3.327393 -0.459229 0.498039 0.498039 0.498039 #0.501961
v 0.000000 3.425781 -0.467773 0.498039 0.498039 0.498039 #0.501961
v 0.376953 3.442139 -0.301270 0.498039 0.498039 0.498039 #0.501961
v 0.000000 3.327393 -0.459229 0.498039 0.498039 0.498039 #0.501961
v 0.263916 3.701904 0.259766 0.498039 0.498039 0.498039 #0.501961
v 0.000000 3.786865 0.440674 0.498039 0.498039 0.498039 #0.501961
v 0.000000 3.652588 0.468262 0.498039 0.498039 0.498039 #0.501961
v 0.263916 3.701904 0.259766 0.498039 0.498039 0.498039 #0.501961
v 0.000000 3.652588 0.468262 0.498039 0.498039 0.498039 #0.501961
v 0.394287 3.587646 0.250488 0.498039 0.498039 0.498039 #0.501961
v 0.714355 2.474365 0.569336 0.498039 0.498039 0.498039 #0.501961
v 0.000000 2.574219 0.823486 0.498039 0.498039 0.498039 #0.501961
v 0.000000 2.374268 -0.618652 0.498039 0.498039 0.498039 #0.501961
v 0.715088 2.374268 -0.369629 0.498039 0.498039 0.498039 #0.501961
v 0.714355 2.474365 0.569336 0.498039 0.498039 0.498039 #0.501961
v 0.000000 2.374268 -0.618652 0.498039 0.498039 0.498039 #0.501961
v 0.263916 3.701904 0.259766 0.498039 0.498039 0.498039 #0.501961
v 0.394287 3.587646 0.250488 0.498039 0.498039 0.498039 #0.501961
v 0.316650 3.546875 -0.290527 0.498039 0.498039 0.498039 #0.501961
v 0.316650 3.546875 -0.290527 0.498039 0.498039 0.498039 #0.501961
v 0.394287 3.587646 0.250488 0.498039 0.498039 0.498039 #0.501961
v 0.376953 3.442139 -0.301270 0.498039 0.498039 0.498039 #0.501961
v 0.316650 3.546875 -0.290527 0.498039 0.498039 0.498039 #0.501961
v 0.376953 3.442139 -0.301270 0.498039 0.498039 0.498039 #0.501961
v 0.000000 3.425781 -0.467773 0.498039 0.498039 0.498039 #0.501961
v 0.000000 3.561523 -0.302734 0.498039 0.498039 0.498039 #0.501961
v 0.316650 3.546875 -0.290527 0.498039 0.498039 0.498039 #0.501961
v 0.000000 3.425781 -0.467773 0.498039 0.498039 0.498039 #0.501961
v 0.000000 4.946045 0.058838 0.498039 0.498039 0.498039 #0.501961
v 0.000000 4.041992 0.282959 0.498039 0.498039 0.498039 #0.501961
v 0.148682 3.995850 0.159912 0.498039 0.498039 0.498039 #0.501961
v 0.148682 3.995850 0.159912 0.498039 0.498039 0.498039 #0.501961
v 0.000000 4.041992 0.282959 0.498039 0.498039 0.498039 #0.501961
v 0.263916 3.701904 0.259766 0.498039 0.498039 0.498039 #0.501961
v 0.000000 4.041992 0.282959 0.498039 0.498039 0.498039 #0.501961
v 0.000000 3.786865 0.440674 0.498039 0.498039 0.498039 #0.501961
v 0.263916 3.701904 0.259766 0.498039 0.498039 0.498039 #0.501961
v 0.265869 3.615234 -0.007324 0.498039 0.498039 0.498039 #0.501961
v 0.263916 3.701904 0.259766 0.498039 0.498039 0.498039 #0.501961
v 0.000000 3.465576 -0.083496 0.498039 0.498039 0.498039 #0.501961
v 0.242676 4.166504 -0.195313 0.498039 0.498039 0.498039 #0.501961
v 0.307129 3.899658 -0.033936 0.498039 0.498039 0.498039 #0.501961
v 0.268555 3.864258 -0.123779 0.498039 0.498039 0.498039 #0.501961
v 0.218750 4.031250 -0.260986 0.498039 0.498039 0.498039 #0.501961
v 0.242676 4.166504 -0.195313 0.498039 0.498039 0.498039 #0.501961
v 0.268555 3.864258 -0.123779 0.498039 0.498039 0.498039 #0.501961
v 0.000000 4.946045 0.058838 0.498039 0.498039 0.498039 #0.501961
v 0.148682 3.995850 0.159912 0.498039 0.498039 0.498039 #0.501961
v 0.307129 3.899658 -0.033936 0.498039 0.498039 0.498039 #0.501961
v 0.307129 3.899658 -0.033936 0.498039 0.498039 0.498039 #0.501961
v 0.263916 3.701904 0.259766 0.498039 0.498039 0.498039 #0.501961
v 0.265869 3.615234 -0.007324 0.498039 0.498039 0.498039 #0.501961
v 0.307129 3.899658 -0.033936 0.498039 0.498039 0.498039 #0.501961
v 0.148682 3.995850 0.159912 0.498039 0.498039 0.498039 #0.501961
v 0.263916 3.701904 0.259766 0.498039 0.498039 0.498039 #0.501961
v 0.242676 4.166504 -0.195313 0.498039 0.498039 0.498039 #0.501961
v 0.000000 4.946045 0.058838 0.498039 0.498039 0.498039 #0.501961
v 0.307129 3.899658 -0.033936 0.498039 0.498039 0.498039 #0.501961
v 0.000000 4.241699 -0.274414 0.498039 0.498039 0.498039 #0.501961
v 0.000000 4.946045 0.058838 0.498039 0.498039 0.498039 #0.501961
v 0.242676 4.166504 -0.195313 0.498039 0.498039 0.498039 #0.501961
v 0.000000 3.685791 -0.387207 0.498039 0.498039 0.498039 #0.501961
v 0.000000 3.867676 -0.338623 0.498039 0.498039 0.498039 #0.501961
v 0.092529 3.671387 -0.348145 0.498039 0.498039 0.498039 #0.501961
v 0.000000 4.241699 -0.274414 0.498039 0.498039 0.498039 #0.501961
v 0.242676 4.166504 -0.195313 0.498039 0.498039 0.498039 #0.501961
v 0.218750 4.031250 -0.260986 0.498039 0.498039 0.498039 #0.501961
v 0.000000 3.867676 -0.338623 0.498039 0.498039 0.498039 #0.501961
v 0.092285 3.867920 -0.274170 0.498039 0.498039 0.498039 #0.501961
v 0.092529 3.671387 -0.348145 0.498039 0.498039 0.498039 #0.501961
v 0.268555 3.864258 -0.123779 0.498039 0.498039 0.498039 #0.501961
v 0.265869 3.615234 -0.007324 0.498039 0.498039 0.498039 #0.501961
v 0.193115 3.581055 -0.203857 0.498039 0.498039 0.498039 #0.501961
v 0.193115 3.581055 -0.203857 0.498039 0.498039 0.498039 #0.501961
v 0.265869 3.615234 -0.007324 0.498039 0.498039 0.498039 #0.501961
v 0.000000 3.465576 -0.083496 0.498039 0.498039 0.498039 #0.501961
v 0.092529 3.671387 -0.348145 0.498039 0.498039 0.498039 #0.501961
v 0.268555 3.864258 -0.123779 0.498039 0.498039 0.498039 #0.501961
v 0.193115 3.581055 -0.203857 0.498039 0.498039 0.498039 #0.501961
v 0.000000 3.685791 -0.387207 0.498039 0.498039 0.498039 #0.501961
v 0.092529 3.671387 -0.348145 0.498039 0.498039 0.498039 #0.501961
v 0.000000 3.449951 -0.318604 0.498039 0.498039 0.498039 #0.501961
v 0.092529 3.671387 -0.348145 0.498039 0.498039 0.498039 #0.501961
v 0.193115 3.581055 -0.203857 0.498039 0.498039 0.498039 #0.501961
v 0.000000 3.449951 -0.318604 0.498039 0.498039 0.498039 #0.501961
v 0.193115 3.581055 -0.203857 0.498039 0.498039 0.498039 #0.501961
v 0.000000 3.465576 -0.083496 0.498039 0.498039 0.498039 #0.501961
v 0.000000 3.449951 -0.318604 0.498039 0.498039 0.498039 #0.501961
v 0.000000 4.072754 -0.332520 0.498039 0.498039 0.498039 #0.501961
v 0.092285 3.867920 -0.274170 0.498039 0.498039 0.498039 #0.501961
v 0.000000 3.867676 -0.338623 0.498039 0.498039 0.498039 #0.501961
v 0.268555 3.864258 -0.123779 0.498039 0.498039 0.498039 #0.501961
v 0.307129 3.899658 -0.033936 0.498039 0.498039 0.498039 #0.501961
v 0.265869 3.615234 -0.007324 0.498039 0.498039 0.498039 #0.501961
v 0.092285 3.867920 -0.274170 0.498039 0.498039 0.498039 #0.501961
v 0.268555 3.864258 -0.123779 0.498039 0.498039 0.498039 #0.501961
v 0.092529 3.671387 -0.348145 0.498039 0.498039 0.498039 #0.501961
v 0.000000 4.072754 -0.332520 0.498039 0.498039 0.498039 #0.501961
v 0.218750 4.031250 -0.260986 0.498039 0.498039 0.498039 #0.501961
v 0.092285 3.867920 -0.274170 0.498039 0.498039 0.498039 #0.501961
v 0.000000 4.072754 -0.332520 0.498039 0.498039 0.498039 #0.501961
v 0.000000 4.241699 -0.274414 0.498039 0.498039 0.498039 #0.501961
v 0.218750 4.031250 -0.260986 0.498039 0.498039 0.498039 #0.501961
v 0.000000 2.374268 -0.618652 0.498039 0.498039 0.498039 #0.501961
v -0.715088 2.374268 -0.369629 0.498039 0.498039 0.498039 #0.501961
v 0.000000 0.214355 -0.274170 0.498039 0.498039 0.498039 #0.501961
v -0.714355 2.474365 0.569336 0.498039 0.498039 0.498039 #0.501961
v 0.000000 2.574219 0.823486 0.498039 0.498039 0.498039 #0.501961
v 0.000000 0.107666 0.490723 0.498039 0.498039 0.498039 #0.501961
v -0.715088 2.374268 -0.369629 0.498039 0.498039 0.498039 #0.501961
v -0.714355 2.474365 0.569336 0.498039 0.498039 0.498039 #0.501961
v -0.654297 0.511475 -0.172363 0.498039 0.498039 0.498039 #0.501961
v -0.714355 2.474365 0.569336 0.498039 0.498039 0.498039 #0.501961
v 0.000000 2.574219 0.823486 0.498039 0.498039 0.498039 #0.501961
v -0.338867 0.457031 0.630859 0.498039 0.498039 0.498039 #0.501961
v -0.715088 2.374268 -0.369629 0.498039 0.498039 0.498039 #0.501961
v -0.714355 2.474365 0.569336 0.498039 0.498039 0.498039 #0.501961
v -0.176270 0.488770 0.482666 0.498039 0.498039 0.498039 #0.501961
v 0.000000 2.374268 -0.618652 0.498039 0.498039 0.498039 #0.501961
v -0.715088 2.374268 -0.369629 0.498039 0.498039 0.498039 #0.501961
v -0.533203 0.692871 -0.297852 0.498039 0.498039 0.498039 #0.501961
v -0.218750 4.031250 -0.260986 0.498039 0.498039 0.498039 #0.501961
v -0.092285 3.867920 -0.274170 0.498039 0.498039 0.498039 #0.501961
v -0.268555 3.864258 -0.123779 0.498039 0.498039 0.498039 #0.501961
v -0.715088 2.374268 -0.369629 0.498039 0.498039 0.498039 #0.501961
v 0.000000 2.374268 -0.618652 0.498039 0.498039 0.498039 #0.501961
v 0.000000 0.214355 -0.274170 0.498039 0.498039 0.498039 #0.501961
v 0.000000 2.574219 0.823486 0.498039 0.498039 0.498039 #0.501961
v -0.714355 2.474365 0.569336 0.498039 0.498039 0.498039 #0.501961
v 0.000000 0.107666 0.490723 0.498039 0.498039 0.498039 #0.501961
v -0.714355 2.474365 0.569336 0.498039 0.498039 0.498039 #0.501961
v -0.715088 2.374268 -0.369629 0.498039 0.498039 0.498039 #0.501961
v -0.654297 0.511475 -0.172363 0.498039 0.498039 0.498039 #0.501961
v 0.000000 2.574219 0.823486 0.498039 0.498039 0.498039 #0.501961
v -0.714355 2.474365 0.569336 0.498039 0.498039 0.498039 #0.501961
v -0.338867 0.457031 0.630859 0.498039 0.498039 0.498039 #0.501961
v -0.714355 2.474365 0.569336 0.498039 0.498039 0.498039 #0.501961
v -0.715088 2.374268 -0.369629 0.498039 0.498039 0.498039 #0.501961
v -0.176270 0.488770 0.482666 0.498039 0.498039 0.498039 #0.501961
v -0.715088 2.374268 -0.369629 0.498039 0.498039 0.498039 #0.501961
v 0.000000 2.374268 -0.618652 0.498039 0.498039 0.498039 #0.501961
v -0.533203 0.692871 -0.297852 0.498039 0.498039 0.498039 #0.501961
v 0.000000 2.574219 0.823486 0.498039 0.498039 0.498039 #0.501961
v -0.499512 3.336914 0.387695 0.498039 0.498039 0.498039 #0.501961
v -0.714355 2.474365 0.569336 0.498039 0.498039 0.498039 #0.501961
v 0.000000 3.401611 0.544434 0.498039 0.498039 0.498039 #0.501961
v -0.499512 3.336914 0.387695 0.498039 0.498039 0.498039 #0.501961
v 0.000000 2.574219 0.823486 0.498039 0.498039 0.498039 #0.501961
v -0.714355 2.474365 0.569336 0.498039 0.498039 0.498039 #0.501961
v -0.543457 3.204346 -0.328125 0.498039 0.498039 0.498039 #0.501961
v -0.715088 2.374268 -0.369629 0.498039 0.498039 0.498039 #0.501961
v -0.499512 3.336914 0.387695 0.498039 0.498039 0.498039 #0.501961
v -0.543457 3.204346 -0.328125 0.498039 0.498039 0.498039 #0.501961
v -0.714355 2.474365 0.569336 0.498039 0.498039 0.498039 #0.501961
v -0.715088 2.374268 -0.369629 0.498039 0.498039 0.498039 #0.501961
v -0.543457 3.204346 -0.328125 0.498039 0.498039 0.498039 #0.501961
v 0.000000 2.374268 -0.618652 0.498039 0.498039 0.498039 #0.501961
v -0.543457 3.204346 -0.328125 0.498039 0.498039 0.498039 #0.501961
v 0.000000 3.204346 -0.554932 0.498039 0.498039 0.498039 #0.501961
v 0.000000 2.374268 -0.618652 0.498039 0.498039 0.498039 #0.501961
v -0.263916 3.701904 0.259766 0.498039 0.498039 0.498039 #0.501961
v 0.000000 3.561523 -0.302734 0.498039 0.498039 0.498039 #0.501961
v -0.316650 3.546875 -0.290527 0.498039 0.498039 0.498039 #0.501961
v 0.000000 3.666016 0.605469 0.498039 0.498039 0.498039 #0.501961
v -0.470459 3.556885 0.376465 0.498039 0.498039 0.498039 #0.501961
v 0.000000 3.401611 0.544434 0.498039 0.498039 0.498039 #0.501961
v 0.000000 3.401611 0.544434 0.498039 0.498039 0.498039 #0.501961
v -0.470459 3.556885 0.376465 0.498039 0.498039 0.498039 #0.501961
v -0.499512 3.336914 0.387695 0.498039 0.498039 0.498039 #0.501961
v -0.470459 3.556885 0.376465 0.498039 0.498039 0.498039 #0.501961
v -0.492676 3.343750 -0.350342 0.498039 0.498039 0.498039 #0.501961
v -0.499512 3.336914 0.387695 0.498039 0.498039 0.498039 #0.501961
v -0.499512 3.336914 0.387695 0.498039 0.498039 0.498039 #0.501961
v -0.492676 3.343750 -0.350342 0.498039 0.498039 0.498039 #0.501961
v -0.543457 3.204346 -0.328125 0.498039 0.498039 0.498039 #0.501961
v -0.543457 3.204346 -0.328125 0.498039 0.498039 0.498039 #0.501961
v -0.492676 3.343750 -0.350342 0.498039 0.498039 0.498039 #0.501961
v 0.000000 3.204346 -0.554932 0.498039 0.498039 0.498039 #0.501961
v -0.492676 3.343750 -0.350342 0.498039 0.498039 0.498039 #0.501961
v 0.000000 3.327393 -0.459229 0.498039 0.498039 0.498039 #0.501961
v 0.000000 3.204346 -0.554932 0.498039 0.498039 0.498039 #0.501961
v 0.000000 3.666016 0.605469 0.498039 0.498039 0.498039 #0.501961
v 0.000000 3.652588 0.468262 0.498039 0.498039 0.498039 #0.501961
v -0.470459 3.556885 0.376465 0.498039 0.498039 0.498039 #0.501961
v 0.000000 3.652588 0.468262 0.498039 0.498039 0.498039 #0.501961
v -0.394287 3.587646 0.250488 0.498039 0.498039 0.498039 #0.501961
v -0.470459 3.556885 0.376465 0.498039 0.498039 0.498039 #0.501961
v -0.470459 3.556885 0.376465 0.498039 0.498039 0.498039 #0.501961
v -0.394287 3.587646 0.250488 0.498039 0.498039 0.498039 #0.501961
v -0.492676 3.343750 -0.350342 0.498039 0.498039 0.498039 #0.501961
v -0.394287 3.587646 0.250488 0.498039 0.498039 0.498039 #0.501961
v -0.376953 3.442139 -0.301270 0.498039 0.498039 0.498039 #0.501961
v -0.492676 3.343750 -0.350342 0.498039 0.498039 0.498039 #0.501961
v -0.492676 3.343750 -0.350342 0.498039 0.498039 0.498039 #0.501961
v -0.376953 3.442139 -0.301270 0.498039 0.498039 0.498039 #0.501961
v 0.000000 3.327393 -0.459229 0.498039 0.498039 0.498039 #0.501961
v -0.376953 3.442139 -0.301270 0.498039 0.498039 0.498039 #0.501961
v 0.000000 3.425781 -0.467773 0.498039 0.498039 0.498039 #0.501961
v 0.000000 3.327393 -0.459229 0.498039 0.498039 0.498039 #0.501961
v 0.000000 3.786865 0.440674 0.498039 0.498039 0.498039 #0.501961
v -0.263916 3.701904 0.259766 0.498039 0.498039 0.498039 #0.501961
v 0.000000 3.652588 0.468262 0.498039 0.498039 0.498039 #0.501961
v 0.000000 3.652588 0.468262 0.498039 0.498039 0.498039 #0.501961
v -0.263916 3.701904 0.259766 0.498039 0.498039 0.498039 #0.501961
v -0.394287 3.587646 0.250488 0.498039 0.498039 0.498039 #0.501961
v 0.000000 2.574219 0.823486 0.498039 0.498039 0.498039 #0.501961
v -0.714355 2.474365 0.569336 0.498039 0.498039 0.498039 #0.501961
v 0.000000 2.374268 -0.618652 0.498039 0.498039 0.498039 #0.501961
v -0.714355 2.474365 0.569336 0.498039 0.498039 0.498039 #0.501961
v -0.715088 2.374268 -0.369629 0.498039 0.498039 0.498039 #0.501961
v 0.000000 2.374268 -0.618652 0.498039 0.498039 0.498039 #0.501961
v -0.394287 3.587646 0.250488 0.498039 0.498039 0.498039 #0.501961
v -0.263916 3.701904 0.259766 0.498039 0.498039 0.498039 #0.501961
v -0.316650 3.546875 -0.290527 0.498039 0.498039 0.498039 #0.501961
v -0.394287 3.587646 0.250488 0.498039 0.498039 0.498039 #0.501961
v -0.316650 3.546875 -0.290527 0.498039 0.498039 0.498039 #0.501961
v -0.376953 3.442139 -0.301270 0.498039 0.498039 0.498039 #0.501961
v -0.376953 3.442139 -0.301270 0.498039 0.498039 0.498039 #0.501961
v -0.316650 3.546875 -0.290527 0.498039 0.498039 0.498039 #0.501961
v 0.000000 3.425781 -0.467773 0.498039 0.498039 0.498039 #0.501961
v -0.316650 3.546875 -0.290527 0.498039 0.498039 0.498039 #0.501961
v 0.000000 3.561523 -0.302734 0.498039 0.498039 0.498039 #0.501961
v 0.000000 3.425781 -0.467773 0.498039 0.498039 0.498039 #0.501961
v 0.000000 4.041992 0.282959 0.498039 0.498039 0.498039 #0.501961
v 0.000000 4.946045 0.058838 0.498039 0.498039 0.498039 #0.501961
v -0.148682 3.995850 0.159912 0.498039 0.498039 0.498039 #0.501961
v 0.000000 4.041992 0.282959 0.498039 0.498039 0.498039 #0.501961
v -0.148682 3.995850 0.159912 0.498039 0.498039 0.498039 #0.501961
v -0.263916 3.701904 0.259766 0.498039 0.498039 0.498039 #0.501961
v 0.000000 3.786865 0.440674 0.498039 0.498039 0.498039 #0.501961
v 0.000000 4.041992 0.282959 0.498039 0.498039 0.498039 #0.501961
v -0.263916 3.701904 0.259766 0.498039 0.498039 0.498039 #0.501961
v -0.263916 3.701904 0.259766 0.498039 0.498039 0.498039 #0.501961
v -0.265869 3.615234 -0.007324 0.498039 0.498039 0.498039 #0.501961
v 0.000000 3.465576 -0.083496 0.498039 0.498039 0.498039 #0.501961
v -0.307129 3.899658 -0.033936 0.498039 0.498039 0.498039 #0.501961
v -0.242676 4.166504 -0.195313 0.498039 0.498039 0.498039 #0.501961
v -0.268555 3.864258 -0.123779 0.498039 0.498039 0.498039 #0.501961
v -0.242676 4.166504 -0.195313 0.498039 0.498039 0.498039 #0.501961
v -0.218750 4.031250 -0.260986 0.498039 0.498039 0.498039 #0.501961
v -0.268555 3.864258 -0.123779 0.498039 0.498039 0.498039 #0.501961
v -0.148682 3.995850 0.159912 0.498039 0.498039 0.498039 #0.501961
v 0.000000 4.946045 0.058838 0.498039 0.498039 0.498039 #0.501961
v -0.307129 3.899658 -0.033936 0.498039 0.498039 0.498039 #0.501961
v -0.263916 3.701904 0.259766 0.498039 0.498039 0.498039 #0.501961
v -0.307129 3.899658 -0.033936 0.498039 0.498039 0.498039 #0.501961
v -0.265869 3.615234 -0.007324 0.498039 0.498039 0.498039 #0.501961
v -0.148682 3.995850 0.159912 0.498039 0.498039 0.498039 #0.501961
v -0.307129 3.899658 -0.033936 0.498039 0.498039 0.498039 #0.501961
v -0.263916 3.701904 0.259766 0.498039 0.498039 0.498039 #0.501961
v 0.000000 4.946045 0.058838 0.498039 0.498039 0.498039 #0.501961
v -0.242676 4.166504 -0.195313 0.498039 0.498039 0.498039 #0.501961
v -0.307129 3.899658 -0.033936 0.498039 0.498039 0.498039 #0.501961
v 0.000000 4.946045 0.058838 0.498039 0.498039 0.498039 #0.501961
v 0.000000 4.241699 -0.274414 0.498039 0.498039 0.498039 #0.501961
v -0.242676 4.166504 -0.195313 0.498039 0.498039 0.498039 #0.501961
v 0.000000 3.867676 -0.338623 0.498039 0.498039 0.498039 #0.501961
v 0.000000 3.685791 -0.387207 0.498039 0.498039 0.498039 #0.501961
v -0.092529 3.671387 -0.348145 0.498039 0.498039 0.498039 #0.501961
v -0.242676 4.166504 -0.195313 0.498039 0.498039 0.498039 #0.501961
v 0.000000 4.241699 -0.274414 0.498039 0.498039 0.498039 #0.501961
v -0.218750 4.031250 -0.260986 0.498039 0.498039 0.498039 #0.501961
v -0.092285 3.867920 -0.274170 0.498039 0.498039 0.498039 #0.501961
v 0.000000 3.867676 -0.338623 0.498039 0.498039 0.498039 #0.501961
v -0.092529 3.671387 -0.348145 0.498039 0.498039 0.498039 #0.501961
v -0.265869 3.615234 -0.007324 0.498039 0.498039 0.498039 #0.501961
v -0.268555 3.864258 -0.123779 0.498039 0.498039 0.498039 #0.501961
v -0.193115 3.581055 -0.203857 0.498039 0.498039 0.498039 #0.501961
v -0.265869 3.615234 -0.007324 0.498039 0.498039 0.498039 #0.501961
v -0.193115 3.581055 -0.203857 0.498039 0.498039 0.498039 #0.501961
v 0.000000 3.465576 -0.083496 0.498039 0.498039 0.498039 #0.501961
v -0.268555 3.864258 -0.123779 0.498039 0.498039 0.498039 #0.501961
v -0.092529 3.671387 -0.348145 0.498039 0.498039 0.498039 #0.501961
v -0.193115 3.581055 -0.203857 0.498039 0.498039 0.498039 #0.501961
v -0.092529 3.671387 -0.348145 0.498039 0.498039 0.498039 #0.501961
v 0.000000 3.685791 -0.387207 0.498039 0.498039 0.498039 #0.501961
v 0.000000 3.449951 -0.318604 0.498039 0.498039 0.498039 #0.501961
v -0.193115 3.581055 -0.203857 0.498039 0.498039 0.498039 #0.501961
v -0.092529 3.671387 -0.348145 0.498039 0.498039 0.498039 #0.501961
v 0.000000 3.449951 -0.318604 0.498039 0.498039 0.498039 #0.501961
v 0.000000 3.465576 -0.083496 0.498039 0.498039 0.498039 #0.501961
v -0.193115 3.581055 -0.203857 0.498039 0.498039 0.498039 #0.501961
v 0.000000 3.449951 -0.318604 0.498039 0.498039 0.498039 #0.501961
v -0.092285 3.867920 -0.274170 0.498039 0.498039 0.498039 #0.501961
v 0.000000 4.072754 -0.332520 0.498039 0.498039 0.498039 #0.501961
v 0.000000 3.867676 -0.338623 0.498039 0.498039 0.498039 #0.501961
v -0.307129 3.899658 -0.033936 0.498039 0.498039 0.498039 #0.501961
v -0.268555 3.864258 -0.123779 0.498039 0.498039 0.498039 #0.501961
v -0.265869 3.615234 -0.007324 0.498039 0.498039 0.498039 #0.501961
v -0.268555 3.864258 -0.123779 0.498039 0.498039 0.498039 #0.501961
v -0.092285 3.867920 -0.274170 0.498039 0.498039 0.498039 #0.501961
v -0.092529 3.671387 -0.348145 0.498039 0.498039 0.498039 #0.501961
v -0.218750 4.031250 -0.260986 0.498039 0.498039 0.498039 #0.501961
v 0.000000 4.072754 -0.332520 0.498039 0.498039 0.498039 #0.501961
v -0.092285 3.867920 -0.274170 0.498039 0.498039 0.498039 #0.501961
v 0.000000 4.241699 -0.274414 0.498039 0.498039 0.498039 #0.501961
v 0.000000 4.072754 -0.332520 0.498039 0.498039 0.498039 #0.501961
v -0.218750 4.031250 -0.260986 0.498039 0.498039 0.498039 #0.501961
vt 0.000000 0.000000 0.000000
vt 0.000000 0.000000 0.000000
vt 0.000000 0.000000 0.000000
vt 0.000000 0.000000 0.000000
vt 0.000000 0.000000 0.000000
vt 0.000000 0.000000 0.000000
vt 0.000000 0.000000 0.000000
vt 0.000000 0.000000 0.000000
vt 0.000000 0.000000 0.000000
vt 0.000000 0.000000 0.000000
vt 0.000000 0.000000 0.000000
vt 0.000000 0.000000 0.000000
vt 0.000000 0.000000 0.000000
vt 0.000000 0.000000 0.000000
vt 0.000000 0.000000 0.000000
vt 0.000000 0.000000 0.000000
vt 0.000000 0.000000 0.000000
vt 0.000000 0.000000 0.000000
vt 0.169922 0.701172 0.000000
vt 0.500000 0.934326 0.000000
vt 0.579834 0.665283 0.000000
vt 0.000000 0.000000 0.000000
vt 0.000000 0.000000 0.000000
vt 0.000000 0.000000 0.000000
vt 0.000000 0.000000 0.000000
vt 0.000000 0.000000 0.000000
vt 0.000000 0.000000 0.000000
vt 0.000000 0.000000 0.000000
vt 0.000000 0.000000 0.000000
vt 0.000000 0.000000 0.000000
vt 0.000000 0.000000 0.000000
vt 0.000000 0.000000 0.000000
vt 0.000000 0.000000 0.000000
vt 0.000000 0.000000 0.000000
vt 0.000000 0.000000 0.000000
vt 0.000000 0.000000 0.000000
vt 0.000000 0.000000 0.000000
vt 0.000000 0.000000 0.000000
vt 0.000000 0.000000 0.000000
vt 0.000000 0.000000 0.000000
vt 0.000000 0.000000 0.000000
vt 0.000000 0.000000 0.000000
vt 0.000000 0.000000 0.000000
vt 0.000000 0.000000 0.000000
vt 0.000000 0.000000 0.000000
vt 0.000000 0.000000 0.000000
vt 0.000000 0.000000 0.000000
vt 0.000000 0.000000 0.000000
vt 0.000000 0.000000 0.000000
vt 0.000000 0.000000 0.000000
vt 0.000000 0.000000 0.000000
vt 0.000000 0.000000 0.000000
vt 0.000000 0.000000 0.000000
vt 0.000000 0.000000 0.000000
vt 0.000000 0.000000 0.000000
vt 0.000000 0.000000 0.000000
vt 0.000000 0.000000 0.000000
vt 0.000000 0.000000 0.000000
vt 0.000000 0.000000 0.000000
vt 0.000000 0.000000 0.000000
vt 0.000000 0.000000 0.000000
vt 0.000000 0.000000 0.000000
vt 0.000000 0.000000 0.000000
vt 0.000000 0.000000 0.000000
vt 0.000000 0.000000 0.000000
vt 0.000000 0.000000 0.000000
vt 0.000000 0.000000 0.000000
vt 0.000000 0.000000 0.000000
vt 0.000000 0.000000 0.000000
vt 0.000000 0.000000 0.000000
vt 0.000000 0.000000 0.000000
vt 0.000000 0.000000 0.000000
vt 0.000000 0.000000 0.000000
vt 0.000000 0.000000 0.000000
vt 0.000000 0.000000 0.000000
vt 0.000000 0.000000 0.000000
vt 0.000000 0.000000 0.000000
vt 0.000000 0.000000 0.000000
vt 0.000000 0.000000 0.000000
vt 0.000000 0.000000 0.000000
vt 0.000000 0.000000 0.000000
vt 0.000000 0.000000 0.000000
vt 0.000000 0.000000 0.000000
vt 0.000000 0.000000 0.000000
vt 0.000000 0.000000 0.000000
vt 0.000000 0.000000 0.000000
vt 0.000000 0.000000 0.000000
vt 0.000000 0.000000 0.000000
vt 0.000000 0.000000 0.000000
vt 0.000000 0.000000 0.000000
vt 0.000000 0.000000 0.000000
vt 0.000000 0.000000 0.000000
vt 0.000000 0.000000 0.000000
vt 0.000000 0.000000 0.000000
vt 0.000000 0.000000 0.000000
vt 0.000000 0.000000 0.000000
vt 0.000000 0.000000 0.000000
vt 0.000000 0.000000 0.000000
vt 0.000000 0.000000 0.000000
vt 0.000000 0.000000 0.000000
vt 0.000000 0.000000 0.000000
vt 0.000000 0.000000 0.000000
vt 0.000000 0.000000 0.000000
vt 0.000000 0.000000 0.000000
vt 0.000000 0.000000 0.000000
vt 0.000000 0.000000 0.000000
vt 0.000000 0.000000 0.000000
vt 0.000000 0.000000 0.000000
vt 0.000000 0.000000 0.000000
vt 0.000000 0.000000 0.000000
vt 0.000000 0.000000 0.000000
vt 0.000000 0.000000 0.000000
vt 0.000000 0.000000 0.000000
vt 0.000000 0.000000 0.000000
vt 0.000000 0.000000 0.000000
vt 0.000000 0.000000 0.000000
vt 0.000000 0.000000 0.000000
vt 0.000000 0.000000 0.000000
vt 0.000000 0.000000 0.000000
vt 0.000000 0.000000 0.000000
vt 0.000000 0.000000 0.000000
vt 0.000000 0.000000 0.000000
vt 0.000000 0.000000 0.000000
vt 0.000000 0.000000 0.000000
vt 0.000000 0.000000 0.000000
vt 0.000000 0.000000 0.000000
vt 0.000000 0.000000 0.000000
vt 0.000000 0.000000 0.000000
vt 0.000000 0.000000 0.000000
vt 0.000000 0.000000 0.000000
vt 0.000000 0.000000 0.000000
vt 0.000000 0.000000 0.000000
vt 0.000000 0.000000 0.000000
vt 0.000000 0.000000 0.000000
vt 0.000000 0.000000 0.000000
vt 0.000000 0.000000 0.000000
vt 0.000000 0.000000 0.000000
vt 0.000000 0.000000 0.000000
vt 0.000000 0.000000 0.000000
vt 0.000000 0.000000 0.000000
vt 0.000000 0.000000 0.000000
vt 0.000000 0.000000 0.000000
vt 0.000000 0.000000 0.000000
vt 0.000000 0.000000 0.000000
vt 0.000000 0.000000 0.000000
vt 0.000000 0.000000 0.000000
vt 0.000000 0.000000 0.000000
vt 0.000000 0.000000 0.000000
vt 0.000000 0.000000 0.000000
vt 0.000000 0.000000 0.000000
vt 0.000000 0.000000 0.000000
vt 0.000000 0.000000 0.000000
vt 0.000000 0.000000 0.000000
vt 0.009766 0.377930 0.000000
vt 0.009766 0.670654 0.000000
vt 0.189941 0.364990 0.000000
vt 0.000000 0.000000 0.000000
vt 0.000000 0.000000 0.000000
vt 0.000000 0.000000 0.000000
vt 0.009766 0.670654 0.000000
vt 0.169922 0.701172 0.000000
vt 0.189941 0.364990 0.000000
vt 0.000000 0.000000 0.000000
vt 0.000000 0.000000 0.000000
vt 0.000000 0.000000 0.000000
vt 0.000000 0.000000 0.000000
vt 0.000000 0.000000 0.000000
vt 0.000000 0.000000 0.000000
vt 0.189941 0.364990 0.000000
vt 0.579834 0.665283 0.000000
vt 0.379883 0.269531 0.000000
vt 0.009766 1.377930 0.000000
vt 0.189941 1.364990 0.000000
vt 0.009766 0.998291 0.000000
vt 0.189941 1.364990 0.000000
vt 0.379883 1.269531 0.000000
vt 0.009766 0.998291 0.000000
vt 0.000000 0.000000 0.000000
vt 0.000000 0.000000 0.000000
vt 0.000000 0.000000 0.000000
vt 0.009766 1.000977 0.000000
vt 0.169922 0.701172 0.000000
vt 0.009766 0.670654 0.000000
vt 0.000000 0.000000 0.000000
vt 0.000000 0.000000 0.000000
vt 0.000000 0.000000 0.000000
vt 0.169922 0.701172 0.000000
vt 0.579834 0.665283 0.000000
vt 0.189941 0.364990 0.000000
vt 0.009766 1.000977 0.000000
vt 0.500000 0.934326 0.000000
vt 0.169922 0.701172 0.000000
vt 0.000000 0.000000 0.000000
vt 0.000000 0.000000 0.000000
vt 0.000000 0.000000 0.000000
vt 0.000000 0.000000 0.000000
vt 0.000000 0.000000 0.000000
vt 0.000000 0.000000 0.000000
vt 0.000000 0.000000 0.000000
vt 0.000000 0.000000 0.000000
vt 0.000000 0.000000 0.000000
vt 0.000000 0.000000 0.000000
vt 0.000000 0.000000 0.000000
vt 0.000000 0.000000 0.000000
vt 0.000000 0.000000 0.000000
vt 0.000000 0.000000 0.000000
vt 0.000000 0.000000 0.000000
vt 0.000000 0.000000 0.000000
vt 0.000000 0.000000 0.000000
vt 0.000000 0.000000 0.000000
vt 0.000000 0.000000 0.000000
vt 0.000000 0.000000 0.000000
vt 0.000000 0.000000 0.000000
vt 0.500000 0.934326 0.000000
vt 0.169922 0.701172 0.000000
vt 0.579834 0.665283 0.000000
vt 0.000000 0.000000 0.000000
vt 0.000000 0.000000 0.000000
vt 0.000000 0.000000 0.000000
vt 0.000000 0.000000 0.000000
vt 0.000000 0.000000 0.000000
vt 0.000000 0.000000 0.000000
vt 0.000000 0.000000 0.000000
vt 0.000000 0.000000 0.000000
vt 0.000000 0.000000 0.000000
vt 0.000000 0.000000 0.000000
vt 0.000000 0.000000 0.000000
vt 0.000000 0.000000 0.000000
vt 0.000000 0.000000 0.000000
vt 0.000000 0.000000 0.000000
vt 0.000000 0.000000 0.000000
vt 0.000000 0.000000 0.000000
vt 0.000000 0.000000 0.000000
vt 0.000000 0.000000 0.000000
vt 0.000000 0.000000 0.000000
vt 0.000000 0.000000 0.000000
vt 0.000000 0.000000 0.000000
vt 0.000000 0.000000 0.000000
vt 0.000000 0.000000 0.000000
vt 0.000000 0.000000 0.000000
vt 0.000000 0.000000 0.000000
vt 0.000000 0.000000 0.000000
vt 0.000000 0.000000 0.000000
vt 0.000000 0.000000 0.000000
vt 0.000000 0.000000 0.000000
vt 0.000000 0.000000 0.000000
vt 0.000000 0.000000 0.000000
vt 0.000000 0.000000 0.000000
vt 0.000000 0.000000 0.000000
vt 0.000000 0.000000 0.000000
vt 0.000000 0.000000 0.000000
vt 0.000000 0.000000 0.000000
vt 0.000000 0.000000 0.000000
vt 0.000000 0.000000 0.000000
vt 0.000000 0.000000 0.000000
vt 0.000000 0.000000 0.000000
vt 0.000000 0.000000 0.000000
vt 0.000000 0.000000 0.000000
vt 0.000000 0.000000 0.000000
vt 0.000000 0.000000 0.000000
vt 0.000000 0.000000 0.000000
vt 0.000000 0.000000 0.000000
vt 0.000000 0.000000 0.000000
vt 0.000000 0.000000 0.000000
vt 0.000000 0.000000 0.000000
vt 0.000000 0.000000 0.000000
vt 0.000000 0.000000 0.000000
vt 0.000000 0.000000 0.000000
vt 0.000000 0.000000 0.000000
vt 0.000000 0.000000 0.000000
vt 0.000000 0.000000 0.000000
vt 0.000000 0.000000 0.000000
vt 0.000000 0.000000 0.000000
vt 0.000000 0.000000 0.000000
vt 0.000000 0.000000 0.000000
vt 0.000000 0.000000 0.000000
vt 0.000000 0.000000 0.000000
vt 0.000000 0.000000 0.000000
vt 0.000000 0.000000 0.000000
vt 0.000000 0.000000 0.000000
vt 0.000000 0.000000 0.000000
vt 0.000000 0.000000 0.000000
vt 0.000000 0.000000 0.000000
vt 0.000000 0.000000 0.000000
vt 0.000000 0.000000 0.000000
vt 0.000000 0.000000 0.000000
vt 0.000000 0.000000 0.000000
vt 0.000000 0.000000 0.000000
vt 0.000000 0.000000 0.000000
vt 0.000000 0.000000 0.000000
vt 0.000000 0.000000 0.000000
vt 0.000000 0.000000 0.000000
vt 0.000000 0.000000 0.000000
vt 0.000000 0.000000 0.000000
vt 0.000000 0.000000 0.000000
vt 0.000000 0.000000 0.000000
vt 0.000000 0.000000 0.000000
vt 0.000000 0.000000 0.000000
vt 0.000000 0.000000 0.000000
vt 0.000000 0.000000 0.000000
vt 0.000000 0.000000 0.000000
vt 0.000000 0.000000 0.000000
vt 0.000000 0.000000 0.000000
vt 0.000000 0.000000 0.000000
vt 0.000000 0.000000 0.000000
vt 0.000000 0.000000 0.000000
vt 0.000000 0.000000 0.000000
vt 0.000000 0.000000 0.000000
vt 0.000000 0.000000 0.000000
vt 0.000000 0.000000 0.000000
vt 0.000000 0.000000 0.000000
vt 0.000000 0.000000 0.000000
vt 0.000000 0.000000 0.000000
vt 0.000000 0.000000 0.000000
vt 0.000000 0.000000 0.000000
vt 0.000000 0.000000 0.000000
vt 0.000000 0.000000 0.000000
vt 0.000000 0.000000 0.000000
vt 0.000000 0.000000 0.000000
vt 0.000000 0.000000 0.000000
vt 0.000000 0.000000 0.000000
vt 0.000000 0.000000 0.000000
vt 0.000000 0.000000 0.000000
vt 0.000000 0.000000 0.000000
vt 0.000000 0.000000 0.000000
vt 0.000000 0.000000 0.000000
vt 0.000000 0.000000 0.000000
vt 0.000000 0.000000 0.000000
vt 0.000000 0.000000 0.000000
vt 0.000000 0.000000 0.000000
vt 0.000000 0.000000 0.000000
vt 0.000000 0.000000 0.000000
vt 0.000000 0.000000 0.000000
vt 0.000000 0.000000 0.000000
vt 0.000000 0.000000 0.000000
vt 0.000000 0.000000 0.000000
vt 0.000000 0.000000 0.000000
vt 0.000000 0.000000 0.000000
vt 0.000000 0.000000 0.000000
vt 0.000000 0.000000 0.000000
vt 0.000000 0.000000 0.000000
vt 0.000000 0.000000 0.000000
vt 0.000000 0.000000 0.000000
vt 0.000000 0.000000 0.000000
vt 0.000000 0.000000 0.000000
vt 0.000000 0.000000 0.000000
vt 0.000000 0.000000 0.000000
vt 0.000000 0.000000 0.000000
vt 0.009766 0.670654 0.000000
vt 0.009766 0.377930 0.000000
vt 0.189941 0.364990 0.000000
vt 0.000000 0.000000 0.000000
vt 0.000000 0.000000 0.000000
vt 0.000000 0.000000 0.000000
vt 0.169922 0.701172 0.000000
vt 0.009766 0.670654 0.000000
vt 0.189941 0.364990 0.000000
vt 0.000000 0.000000 0.000000
vt 0.000000 0.000000 0.000000
vt 0.000000 0.000000 0.000000
vt 0.000000 0.000000 0.000000
vt 0.000000 0.000000 0.000000
vt 0.000000 0.000000 0.000000
vt 0.579834 0.665283 0.000000
vt 0.189941 0.364990 0.000000
vt 0.379883 0.269531 0.000000
vt 0.189941 1.364990 0.000000
vt 0.009766 1.377930 0.000000
vt 0.009766 0.998291 0.000000
vt 0.379883 1.269531 0.000000
vt 0.189941 1.364990 0.000000
vt 0.009766 0.998291 0.000000
vt 0.000000 0.000000 0.000000
vt 0.000000 0.000000 0.000000
vt 0.000000 0.000000 0.000000
vt 0.169922 0.701172 0.000000
vt 0.009766 1.000977 0.000000
vt 0.009766 0.670654 0.000000
vt 0.000000 0.000000 0.000000
vt 0.000000 0.000000 0.000000
vt 0.000000 0.000000 0.000000
vt 0.579834 0.665283 0.000000
vt 0.169922 0.701172 0.000000
vt 0.189941 0.364990 0.000000
vt 0.500000 0.934326 0.000000
vt 0.009766 1.000977 0.000000
vt 0.169922 0.701172 0.000000
vt 0.000000 0.000000 0.000000
vt 0.000000 0.000000 0.000000
vt 0.000000 0.000000 0.000000
vn 0.324951 -0.148682 0.933838
vn 0.324951 -0.148682 0.933838
vn 0.324951 -0.148682 0.933838
vn 0.316406 -0.126709 -0.939941
vn 0.316406 -0.126709 -0.939941
vn 0.316406 -0.126709 -0.939941
vn 0.999268 -0.031982 -0.003906
vn 0.999268 -0.031982 -0.003906
vn 0.999268 -0.031982 -0.003906
vn 0.330566 -0.032715 -0.943115
vn 0.330566 -0.032715 -0.943115
vn 0.330566 -0.032715 -0.943115
vn 0.964355 -0.262451 -0.028320
vn 0.964355 -0.262451 -0.028320
vn 0.964355 -0.262451 -0.028320
vn 0.327881 -0.075439 0.941650
vn 0.327881 -0.075439 0.941650
vn 0.327881 -0.075439 0.941650
vn -0.589600 0.400635 -0.700928
vn -0.589600 0.400635 -0.700928
vn -0.589600 0.400635 -0.700928
vn -0.324951 0.148682 -0.933838
vn -0.324951 0.148682 -0.933838
vn -0.324951 0.148682 -0.933838
vn -0.316406 0.126709 0.939941
vn -0.316406 0.126709 0.939941
vn -0.316406 0.126709 0.939941
vn -0.999268 0.031982 0.003906
vn -0.999268 0.031982 0.003906
vn -0.999268 0.031982 0.003906
vn -0.330566 0.032715 0.943115
vn -0.330566 0.032715 0.943115
vn -0.330566 0.032715 0.943115
vn -0.964355 0.262451 0.028320
vn -0.964355 0.262451 0.028320
vn -0.964355 0.262451 0.028320
vn -0.327881 0.075439 -0.941650
vn -0.327881 0.075439 -0.941650
vn -0.327881 0.075439 -0.941650
vn -0.355957 -0.276611 0.892334
vn -0.355957 -0.276611 0.892334
vn -0.355957 -0.276611 0.892334
vn -0.320801 -0.302490 0.897217
vn -0.320801 -0.302490 0.897217
vn -0.320801 -0.302490 0.897217
vn -0.978760 -0.203125 -0.020996
vn -0.978760 -0.203125 -0.020996
vn -0.978760 -0.203125 -0.020996
vn -0.969482 -0.244629 0.014404
vn -0.969482 -0.244629 0.014404
vn -0.969482 -0.244629 0.014404
vn -0.326660 -0.114258 -0.937988
vn -0.326660 -0.114258 -0.937988
vn -0.326660 -0.114258 -0.937988
vn -0.383789 -0.070557 -0.920410
vn -0.383789 -0.070557 -0.920410
vn -0.383789 -0.070557 -0.920410
vn -0.055176 -0.962402 -0.265625
vn -0.055176 -0.962402 -0.265625
vn -0.055176 -0.962402 -0.265625
vn -0.388916 0.206787 0.897461
vn -0.388916 0.206787 0.897461
vn -0.388916 0.206787 0.897461
vn -0.308594 -0.089355 0.946777
vn -0.308594 -0.089355 0.946777
vn -0.308594 -0.089355 0.946777
vn -0.991211 -0.130127 -0.007568
vn -0.991211 -0.130127 -0.007568
vn -0.991211 -0.130127 -0.007568
vn -0.939697 -0.341797 -0.005371
vn -0.939697 -0.341797 -0.005371
vn -0.939697 -0.341797 -0.005371
vn -0.384766 0.007080 -0.922852
vn -0.384766 0.007080 -0.922852
vn -0.384766 0.007080 -0.922852
vn -0.152100 -0.606689 -0.780029
vn -0.152100 -0.606689 -0.780029
vn -0.152100 -0.606689 -0.780029
vn -0.179932 -0.978760 -0.095947
vn -0.179932 -0.978760 -0.095947
vn -0.179932 -0.978760 -0.095947
vn -0.217285 -0.970215 0.105225
vn -0.217285 -0.970215 0.105225
vn -0.217285 -0.970215 0.105225
vn -0.632568 -0.748047 -0.199951
vn -0.632568 -0.748047 -0.199951
vn -0.632568 -0.748047 -0.199951
vn -0.573486 -0.787109 -0.225586
vn -0.573486 -0.787109 -0.225586
vn -0.573486 -0.787109 -0.225586
vn -0.156738 -0.582031 -0.797852
vn -0.156738 -0.582031 -0.797852
vn -0.156738 -0.582031 -0.797852
vn -0.405273 0.080322 -0.910400
vn -0.405273 0.080322 -0.910400
vn -0.405273 0.080322 -0.910400
vn -0.592529 -0.160889 0.789063
vn -0.592529 -0.160889 0.789063
vn -0.592529 -0.160889 0.789063
vn -0.481445 -0.490234 0.726318
vn -0.481445 -0.490234 0.726318
vn -0.481445 -0.490234 0.726318
vn 0.089355 0.986328 0.136719
vn 0.089355 0.986328 0.136719
vn 0.089355 0.986328 0.136719
vn 0.036621 0.993652 0.105713
vn 0.036621 0.993652 0.105713
vn 0.036621 0.993652 0.105713
vn -0.645508 -0.748779 -0.149170
vn -0.645508 -0.748779 -0.149170
vn -0.645508 -0.748779 -0.149170
vn -0.847900 -0.505127 -0.159668
vn -0.847900 -0.505127 -0.159668
vn -0.847900 -0.505127 -0.159668
vn -0.373291 -0.306396 -0.875488
vn -0.373291 -0.306396 -0.875488
vn -0.373291 -0.306396 -0.875488
vn -0.060303 -0.770996 -0.633545
vn -0.060303 -0.770996 -0.633545
vn -0.060303 -0.770996 -0.633545
vn -0.659424 -0.180664 0.729492
vn -0.659424 -0.180664 0.729492
vn -0.659424 -0.180664 0.729492
vn -0.645996 -0.460449 0.608398
vn -0.645996 -0.460449 0.608398
vn -0.645996 -0.460449 0.608398
vn -0.601074 -0.420410 0.679443
vn -0.601074 -0.420410 0.679443
vn -0.601074 -0.420410 0.679443
vn -0.406738 0.867920 0.284424
vn -0.406738 0.867920 0.284424
vn -0.406738 0.867920 0.284424
vn -0.920654 0.013428 -0.389404
vn -0.920654 0.013428 -0.389404
vn -0.920654 0.013428 -0.389404
vn -0.940186 0.000244 -0.340576
vn -0.940186 0.000244 -0.340576
vn -0.940186 0.000244 -0.340576
vn -0.803955 -0.185791 0.564697
vn -0.803955 -0.185791 0.564697
vn -0.803955 -0.185791 0.564697
vn -0.988770 0.138672 0.051270
vn -0.988770 0.138672 0.051270
vn -0.988770 0.138672 0.051270
vn -0.787109 -0.451660 0.419434
vn -0.787109 -0.451660 0.419434
vn -0.787109 -0.451660 0.419434
vn -0.958496 -0.274902 0.072266
vn -0.958496 -0.274902 0.072266
vn -0.958496 -0.274902 0.072266
vn -0.392578 -0.393555 -0.831055
vn -0.392578 -0.393555 -0.831055
vn -0.392578 -0.393555 -0.831055
vn -0.408203 -0.235352 -0.881836
vn -0.408203 -0.235352 -0.881836
vn -0.408203 -0.235352 -0.881836
vn -0.385986 -0.347656 -0.854248
vn -0.385986 -0.347656 -0.854248
vn -0.385986 -0.347656 -0.854248
vn -0.546631 -0.295898 -0.783203
vn -0.546631 -0.295898 -0.783203
vn -0.546631 -0.295898 -0.783203
vn -0.934570 0.158691 -0.317871
vn -0.934570 0.158691 -0.317871
vn -0.934570 0.158691 -0.317871
vn -0.497559 0.866699 -0.033936
vn -0.497559 0.866699 -0.033936
vn -0.497559 0.866699 -0.033936
vn -0.805176 0.047119 -0.590820
vn -0.805176 0.047119 -0.590820
vn -0.805176 0.047119 -0.590820
vn -0.340088 0.262939 -0.902588
vn -0.340088 0.262939 -0.902588
vn -0.340088 0.262939 -0.902588
vn -0.644531 0.359863 -0.674316
vn -0.644531 0.359863 -0.674316
vn -0.644531 0.359863 -0.674316
vn -0.537842 0.841064 0.055420
vn -0.537842 0.841064 0.055420
vn -0.537842 0.841064 0.055420
vn -0.572510 -0.024902 -0.819336
vn -0.572510 -0.024902 -0.819336
vn -0.572510 -0.024902 -0.819336
vn -0.928223 0.165527 -0.332764
vn -0.928223 0.165527 -0.332764
vn -0.928223 0.165527 -0.332764
vn -0.626953 -0.275391 -0.728516
vn -0.626953 -0.275391 -0.728516
vn -0.626953 -0.275391 -0.728516
vn -0.282227 0.142578 -0.948486
vn -0.282227 0.142578 -0.948486
vn -0.282227 0.142578 -0.948486
vn -0.346924 -0.304932 -0.886719
vn -0.346924 -0.304932 -0.886719
vn -0.346924 -0.304932 -0.886719
vn -0.324951 -0.148682 0.933838
vn -0.324951 -0.148682 0.933838
vn -0.324951 -0.148682 0.933838
vn -0.316406 -0.126709 -0.939941
vn -0.316406 -0.126709 -0.939941
vn -0.316406 -0.126709 -0.939941
vn -0.999268 -0.031982 -0.003906
vn -0.999268 -0.031982 -0.003906
vn -0.999268 -0.031982 -0.003906
vn -0.330566 -0.032715 -0.943115
vn -0.330566 -0.032715 -0.943115
vn -0.330566 -0.032715 -0.943115
vn -0.964355 -0.262451 -0.028320
vn -0.964355 -0.262451 -0.028320
vn -0.964355 -0.262451 -0.028320
vn -0.327881 -0.075439 0.941650
vn -0.327881 -0.075439 0.941650
vn -0.327881 -0.075439 0.941650
vn 0.589600 0.400635 -0.700928
vn 0.589600 0.400635 -0.700928
vn 0.589600 0.400635 -0.700928
vn 0.324951 0.148682 -0.933838
vn 0.324951 0.148682 -0.933838
vn 0.324951 0.148682 -0.933838
vn 0.316406 0.126709 0.939941
vn 0.316406 0.126709 0.939941
vn 0.316406 0.126709 0.939941
vn 0.999268 0.031982 0.003906
vn 0.999268 0.031982 0.003906
vn 0.999268 0.031982 0.003906
vn 0.330566 0.032715 0.943115
vn 0.330566 0.032715 0.943115
vn 0.330566 0.032715 0.943115
vn 0.964355 0.262451 0.028320
vn 0.964355 0.262451 0.028320
vn 0.964355 0.262451 0.028320
vn 0.327881 0.075439 -0.941650
vn 0.327881 0.075439 -0.941650
vn 0.327881 0.075439 -0.941650
vn 0.355957 -0.276611 0.892334
vn 0.355957 -0.276611 0.892334
vn 0.355957 -0.276611 0.892334
vn 0.320801 -0.302490 0.897217
vn 0.320801 -0.302490 0.897217
vn 0.320801 -0.302490 0.897217
vn 0.978760 -0.203125 -0.020996
vn 0.978760 -0.203125 -0.020996
vn 0.978760 -0.203125 -0.020996
vn 0.969482 -0.244629 0.014404
vn 0.969482 -0.244629 0.014404
vn 0.969482 -0.244629 0.014404
vn 0.326660 -0.114258 -0.937988
vn 0.326660 -0.114258 -0.937988
vn 0.326660 -0.114258 -0.937988
vn 0.383789 -0.070557 -0.920410
vn 0.383789 -0.070557 -0.920410
vn 0.383789 -0.070557 -0.920410
vn 0.055176 -0.962402 -0.265625
vn 0.055176 -0.962402 -0.265625
vn 0.055176 -0.962402 -0.265625
vn 0.388916 0.206787 0.897461
vn 0.388916 0.206787 0.897461
vn 0.388916 0.206787 0.897461
vn 0.308594 -0.089355 0.946777
vn 0.308594 -0.089355 0.946777
vn 0.308594 -0.089355 0.946777
vn 0.991211 -0.130127 -0.007568
vn 0.991211 -0.130127 -0.007568
vn 0.991211 -0.130127 -0.007568
vn 0.939697 -0.341797 -0.005371
vn 0.939697 -0.341797 -0.005371
vn 0.939697 -0.341797 -0.005371
vn 0.384766 0.007080 -0.922852
vn 0.384766 0.007080 -0.922852
vn 0.384766 0.007080 -0.922852
vn 0.152100 -0.606689 -0.780029
vn 0.152100 -0.606689 -0.780029
vn 0.152100 -0.606689 -0.780029
vn 0.179932 -0.978760 -0.095947
vn 0.179932 -0.978760 -0.095947
vn 0.179932 -0.978760 -0.095947
vn 0.217285 -0.970215 0.105225
vn 0.217285 -0.970215 0.105225
vn 0.217285 -0.970215 0.105225
vn 0.632568 -0.748047 -0.199951
vn 0.632568 -0.748047 -0.199951
vn 0.632568 -0.748047 -0.199951
vn 0.573486 -0.787109 -0.225586
vn 0.573486 -0.787109 -0.225586
vn 0.573486 -0.787109 -0.225586
vn 0.156738 -0.582031 -0.797852
vn 0.156738 -0.582031 -0.797852
vn 0.156738 -0.582031 -0.797852
vn 0.405273 0.080322 -0.910400
vn 0.405273 0.080322 -0.910400
vn 0.405273 0.080322 -0.910400
vn 0.592529 -0.160889 0.789063
vn 0.592529 -0.160889 0.789063
vn 0.592529 -0.160889 0.789063
vn 0.481445 -0.490234 0.726318
vn 0.481445 -0.490234 0.726318
vn 0.481445 -0.490234 0.726318
vn -0.089355 0.986328 0.136719
vn -0.089355 0.986328 0.136719
vn -0.089355 0.986328 0.136719
vn -0.036621 0.993652 0.105713
vn -0.036621 0.993652 0.105713
vn -0.036621 0.993652 0.105713
vn 0.645508 -0.748779 -0.149170
vn 0.645508 -0.748779 -0.149170
vn 0.645508 -0.748779 -0.149170
vn 0.847900 -0.505127 -0.159668
vn 0.847900 -0.505127 -0.159668
vn 0.847900 -0.505127 -0.159668
vn 0.373291 -0.306396 -0.875488
vn 0.373291 -0.306396 -0.875488
vn 0.373291 -0.306396 -0.875488
vn 0.060303 -0.770996 -0.633545
vn 0.060303 -0.770996 -0.633545
vn 0.060303 -0.770996 -0.633545
vn 0.659424 -0.180664 0.729492
vn 0.659424 -0.180664 0.729492
vn 0.659424 -0.180664 0.729492
vn 0.645996 -0.460449 0.608398
vn 0.645996 -0.460449 0.608398
vn 0.645996 -0.460449 0.608398
vn 0.601074 -0.420410 0.679443
vn 0.601074 -0.420410 0.679443
vn 0.601074 -0.420410 0.679443
vn 0.406738 0.867920 0.284424
vn 0.406738 0.867920 0.284424
vn 0.406738 0.867920 0.284424
vn 0.920654 0.013428 -0.389404
vn 0.920654 0.013428 -0.389404
vn 0.920654 0.013428 -0.389404
vn 0.940186 0.000244 -0.340576
vn 0.940186 0.000244 -0.340576
vn 0.940186 0.000244 -0.340576
vn 0.803955 -0.185791 0.564697
vn 0.803955 -0.185791 0.564697
vn 0.803955 -0.185791 0.564697
vn 0.988770 0.138672 0.051270
vn 0.988770 0.138672 0.051270
vn 0.988770 0.138672 0.051270
vn 0.787109 -0.451660 0.419434
vn 0.787109 -0.451660 0.419434
vn 0.787109 -0.451660 0.419434
vn 0.958496 -0.274902 0.072266
vn 0.958496 -0.274902 0.072266
vn 0.958496 -0.274902 0.072266
vn 0.392578 -0.393555 -0.831055
vn 0.392578 -0.393555 -0.831055
vn 0.392578 -0.393555 -0.831055
vn 0.408203 -0.235352 -0.881836
vn 0.408203 -0.235352 -0.881836
vn 0.408203 -0.235352 -0.881836
vn 0.385986 -0.347656 -0.854248
vn 0.385986 -0.347656 -0.854248
vn 0.385986 -0.347656 -0.854248
vn 0.546631 -0.295898 -0.783203
vn 0.546631 -0.295898 -0.783203
vn 0.546631 -0.295898 -0.783203
vn 0.934570 0.158691 -0.317871
vn 0.934570 0.158691 -0.317871
vn 0.934570 0.158691 -0.317871
vn 0.497559 0.866699 -0.033936
vn 0.497559 0.866699 -0.033936
vn 0.497559 0.866699 -0.033936
vn 0.805176 0.047119 -0.590820
vn 0.805176 0.047119 -0.590820
vn 0.805176 0.047119 -0.590820
vn 0.340088 0.262939 -0.902588
vn 0.340088 0.262939 -0.902588
vn 0.340088 0.262939 -0.902588
vn 0.644531 0.359863 -0.674316
vn 0.644531 0.359863 -0.674316
vn 0.644531 0.359863 -0.674316
vn 0.537842 0.841064 0.055420
vn 0.537842 0.841064 0.055420
vn 0.537842 0.841064 0.055420
vn 0.572510 -0.024902 -0.819336
vn 0.572510 -0.024902 -0.819336
vn 0.572510 -0.024902 -0.819336
vn 0.928223 0.165527 -0.332764
vn 0.928223 0.165527 -0.332764
vn 0.928223 0.165527 -0.332764
vn 0.626953 -0.275391 -0.728516
vn 0.626953 -0.275391 -0.728516
vn 0.626953 -0.275391 -0.728516
vn 0.282227 0.142578 -0.948486
vn 0.282227 0.142578 -0.948486
vn 0.282227 0.142578 -0.948486
vn 0.346924 -0.304932 -0.886719
vn 0.346924 -0.304932 -0.886719
vn 0.346924 -0.304932 -0.886719
usemtl Texture
f 1/1/1 2/2/2 3/3/3
f 4/4/4 5/5/5 6/6/6
f 7/7/7 8/8/8 9/9/9
f 10/10/10 11/11/11 12/12/12
f 13/13/13 14/14/14 15/15/15
f 16/16/16 17/17/17 18/18/18
f 19/19/19 20/20/20 21/21/21
f 22/22/22 23/23/23 24/24/24
f 25/25/25 26/26/26 27/27/27
f 28/28/28 29/29/29 30/30/30
f 31/31/31 32/32/32 33/33/33
f 34/34/34 35/35/35 36/36/36
f 37/37/37 38/38/38 39/39/39
f 40/40/40 41/41/41 42/42/42
f 43/43/43 44/44/44 45/45/45
f 46/46/46 47/47/47 48/48/48
f 49/49/49 50/50/50 51/51/51
f 52/52/52 53/53/53 54/54/54
f 55/55/55 56/56/56 57/57/57
f 58/58/58 59/59/59 60/60/60
f 61/61/61 62/62/62 63/63/63
f 64/64/64 65/65/65 66/66/66
f 67/67/67 68/68/68 69/69/69
f 70/70/70 71/71/71 72/72/72
f 73/73/73 74/74/74 75/75/75
f 76/76/76 77/77/77 78/78/78
f 79/79/79 80/80/80 81/81/81
f 82/82/82 83/83/83 84/84/84
f 85/85/85 86/86/86 87/87/87
f 88/88/88 89/89/89 90/90/90
f 91/91/91 92/92/92 93/93/93
f 94/94/94 95/95/95 96/96/96
f 97/97/97 98/98/98 99/99/99
f 100/100/100 101/101/101 102/102/102
f 103/103/103 104/104/104 105/105/105
f 106/106/106 107/107/107 108/108/108
f 109/109/109 110/110/110 111/111/111
f 112/112/112 113/113/113 114/114/114
f 115/115/115 116/116/116 117/117/117
f 118/118/118 119/119/119 120/120/120
f 121/121/121 122/122/122 123/123/123
f 124/124/124 125/125/125 126/126/126
f 127/127/127 128/128/128 129/129/129
f 130/130/130 131/131/131 132/132/132
f 133/133/133 134/134/134 135/135/135
f 136/136/136 137/137/137 138/138/138
f 139/139/139 140/140/140 141/141/141
f 142/142/142 143/143/143 144/144/144
f 145/145/145 146/146/146 147/147/147
f 148/148/148 149/149/149 150/150/150
f 151/151/151 152/152/152 153/153/153
f 154/154/154 155/155/155 156/156/156
f 157/157/157 158/158/158 159/159/159
f 160/160/160 161/161/161 162/162/162
f 163/163/163 164/164/164 165/165/165
f 166/166/166 167/167/167 168/168/168
f 169/169/169 170/170/170 171/171/171
f 172/172/172 173/173/173 174/174/174
f 175/175/175 176/176/176 177/177/177
f 178/178/178 179/179/179 180/180/180
f 181/181/181 182/182/182 183/183/183
f 184/184/184 185/185/185 186/186/186
f 187/187/187 188/188/188 189/189/189
f 190/190/190 191/191/191 192/192/192
f 193/193/193 194/194/194 195/195/195
f 196/196/196 197/197/197 198/198/198
f 199/199/199 200/200/200 201/201/201
f 202/202/202 203/203/203 204/204/204
f 205/205/205 206/206/206 207/207/207
f 208/208/208 209/209/209 210/210/210
f 211/211/211 212/212/212 213/213/213
f 214/214/214 215/215/215 216/216/216
f 217/217/217 218/218/218 219/219/219
f 220/220/220 221/221/221 222/222/222
f 223/223/223 224/224/224 225/225/225
f 226/226/226 227/227/227 228/228/228
f 229/229/229 230/230/230 231/231/231
f 232/232/232 233/233/233 234/234/234
f 235/235/235 236/236/236 237/237/237
f 238/238/238 239/239/239 240/240/240
f 241/241/241 242/242/242 243/243/243
f 244/244/244 245/245/245 246/246/246
f 247/247/247 248/248/248 249/249/249
f 250/250/250 251/251/251 252/252/252
f 253/253/253 254/254/254 255/255/255
f 256/256/256 257/257/257 258/258/258
f 259/259/259 260/260/260 261/261/261
f 262/262/262 263/263/263 264/264/264
f 265/265/265 266/266/266 267/267/267
f 268/268/268 269/269/269 270/270/270
f 271/271/271 272/272/272 273/273/273
f 274/274/274 275/275/275 276/276/276
f 277/277/277 278/278/278 279/279/279
f 280/280/280 281/281/281 282/282/282
f 283/283/283 284/284/284 285/285/285
f 286/286/286 287/287/287 288/288/288
f 289/289/289 290/290/290 291/291/291
f 292/292/292 293/293/293 294/294/294
f 295/295/295 296/296/296 297/297/297
f 298/298/298 299/299/299 300/300/300
f 301/301/301 302/302/302 303/303/303
f 304/304/304 305/305/305 306/306/306
f 307/307/307 308/308/308 309/309/309
f 310/310/310 311/311/311 312/312/312
f 313/313/313 314/314/314 315/315/315
f 316/316/316 317/317/317 318/318/318
f 319/319/319 320/320/320 321/321/321
f 322/322/322 323/323/323 324/324/324
f 325/325/325 326/326/326 327/327/327
f 328/328/328 329/329/329 330/330/330
f 331/331/331 332/332/332 333/333/333
f 334/334/334 335/335/335 336/336/336
f 337/337/337 338/338/338 339/339/339
f 340/340/340 341/341/341 342/342/342
f 343/343/343 344/344/344 345/345/345
f 346/346/346 347/347/347 348/348/348
f 349/349/349 350/350/350 351/351/351
f 352/352/352 353/353/353 354/354/354
f 355/355/355 356/356/356 357/357/357
f 358/358/358 359/359/359 360/360/360
f 361/361/361 362/362/362 363/363/363
f 364/364/364 365/365/365 366/366/366
f 367/367/367 368/368/368 369/369/369
f 370/370/370 371/371/371 372/372/372
f 373/373/373 374/374/374 375/375/375
f 376/376/376 377/377/377 378/378/378
f 379/379/379 380/380/380 381/381/381
f 382/382/382 383/383/383 384/384/384
f 385/385/385 386/386/386 387/387/387
f 388/388/388 389/389/389 390/390/390