# OBJ file
mtllib shine.ico.mtl
v -1.953613 4.252930 -0.069092 0.498039 0.498039 0.498039 #0.501961
v -1.953613 0.368164 0.064697 0.498039 0.498039 0.498039 #0.501961
v -1.953613 0.365234 -0.069092 0.498039 0.498039 0.498039 #0.501961
v 1.878906 4.287842 0.045166 0.498039 0.498039 0.498039 #0.501961
v 1.878906 0.368164 0.064697 0.498039 0.498039 0.498039 #0.501961
v 2.090820 0.143311 0.069092 0.498039 0.498039 0.498039 #0.501961
v 2.090820 4.515381 0.044922 0.498039 0.498039 0.498039 #0.501961
v -2.148926 4.515381 0.044922 0.498039 0.498039 0.498039 #0.501961
v -1.953613 4.287842 0.045166 0.498039 0.498039 0.498039 #0.501961
v 2.090820 0.143311 0.069092 0.498039 0.498039 0.498039 #0.501961
v -1.953613 0.368164 0.064697 0.498039 0.498039 0.498039 #0.501961
v -2.148926 0.143311 0.069092 0.498039 0.498039 0.498039 #0.501961
v 1.878906 4.287842 0.045166 0.498039 0.498039 0.498039 #0.501961
v 2.090820 4.515381 0.044922 0.498039 0.498039 0.498039 #0.501961
v -1.953613 4.287842 0.045166 0.498039 0.498039 0.498039 #0.501961
v -1.953613 0.368164 0.064697 0.498039 0.498039 0.498039 #0.501961
v -1.953613 4.287842 0.045166 0.498039 0.498039 0.498039 #0.501961
v -2.148926 0.143311 0.069092 0.498039 0.498039 0.498039 #0.501961
v 2.090820 4.515381 0.044922 0.498039 0.498039 0.498039 #0.501961
v 1.878906 4.287842 0.045166 0.498039 0.498039 0.498039 #0.501961
v 2.090820 0.143311 0.069092 0.498039 0.498039 0.498039 #0.501961
v -1.953613 4.252930 -0.069092 0.498039 0.498039 0.498039 #0.501961
v -1.953613 4.287842 0.045166 0.498039 0.498039 0.498039 #0.501961
v -1.953613 0.368164 0.064697 0.498039 0.498039 0.498039 #0.501961
v 1.878906 4.252930 -0.069092 0.498039 0.498039 0.498039 #0.501961
v -1.953613 4.252930 -0.069092 0.498039 0.498039 0.498039 #0.501961
v 1.878906 0.365234 -0.069092 0.498039 0.498039 0.498039 #0.501961
v 1.878906 0.365234 -0.069092 0.498039 0.498039 0.498039 #0.501961
v -1.953613 4.252930 -0.069092 0.498039 0.498039 0.498039 #0.501961
v -1.953613 0.365234 -0.069092 0.498039 0.498039 0.498039 #0.501961
v 1.878906 4.287842 0.045166 0.498039 0.498039 0.498039 #0.501961
v 1.878906 4.252930 -0.069092 0.498039 0.498039 0.498039 #0.501961
v 1.878906 0.368164 0.064697 0.498039 0.498039 0.498039 #0.501961
v 1.878906 4.287842 0.045166 0.498039 0.498039 0.498039 #0.501961
v -1.953613 4.287842 0.045166 0.498039 0.498039 0.498039 #0.501961
v 1.878906 4.252930 -0.069092 0.498039 0.498039 0.498039 #0.501961
v 1.878906 0.368164 0.064697 0.498039 0.498039 0.498039 #0.501961
v -1.953613 0.368164 0.064697 0.498039 0.498039 0.498039 #0.501961
v 2.090820 0.143311 0.069092 0.498039 0.498039 0.498039 #0.501961
v 1.878906 4.252930 -0.069092 0.498039 0.498039 0.498039 #0.501961
v -1.953613 4.287842 0.045166 0.498039 0.498039 0.498039 #0.501961
v -1.953613 4.252930 -0.069092 0.498039 0.498039 0.498039 #0.501961
v -1.953613 4.287842 0.045166 0.498039 0.498039 0.498039 #0.501961
v -2.148926 4.515381 0.044922 0.498039 0.498039 0.498039 #0.501961
v -2.148926 0.143311 0.069092 0.498039 0.498039 0.498039 #0.501961
v -1.953613 0.368164 0.064697 0.498039 0.498039 0.498039 #0.501961
v 1.878906 0.368164 0.064697 0.498039 0.498039 0.498039 #0.501961
v 1.878906 0.365234 -0.069092 0.498039 0.498039 0.498039 #0.501961
v -1.953613 0.368164 0.064697 0.498039 0.498039 0.498039 #0.501961
v 1.878906 0.365234 -0.069092 0.498039 0.498039 0.498039 #0.501961
v -1.953613 0.365234 -0.069092 0.498039 0.498039 0.498039 #0.501961
v 1.878906 0.368164 0.064697 0.498039 0.498039 0.498039 #0.501961
v 1.878906 4.252930 -0.069092 0.498039 0.498039 0.498039 #0.501961
v 1.878906 0.365234 -0.069092 0.498039 0.498039 0.498039 #0.501961
v -2.148926 4.516357 -0.273682 0.498039 0.498039 0.498039 #0.501961
v 2.090820 0.151367 -0.241699 0.498039 0.498039 0.498039 #0.501961
v -2.148926 0.151367 -0.241699 0.498039 0.498039 0.498039 #0.501961
v -2.148926 4.515381 0.044922 0.498039 0.498039 0.498039 #0.501961
v -2.148926 4.516357 -0.273682 0.498039 0.498039 0.498039 #0.501961
v -2.148926 0.151367 -0.241699 0.498039 0.498039 0.498039 #0.501961
v -2.148926 4.516357 -0.273682 0.498039 0.498039 0.498039 #0.501961
v 2.090820 4.516357 -0.273682 0.498039 0.498039 0.498039 #0.501961
v 2.090820 0.151367 -0.241699 0.498039 0.498039 0.498039 #0.501961
v 2.090820 4.516357 -0.273682 0.498039 0.498039 0.498039 #0.501961
v 2.090820 4.515381 0.044922 0.498039 0.498039 0.498039 #0.501961
v 2.090820 0.151367 -0.241699 0.498039 0.498039 0.498039 #0.501961
v 2.090820 4.515381 0.044922 0.498039 0.498039 0.498039 #0.501961
v 2.090820 0.143311 0.069092 0.498039 0.498039 0.498039 #0.501961
v 2.090820 0.151367 -0.241699 0.498039 0.498039 0.498039 #0.501961
v -2.148926 0.143311 0.069092 0.498039 0.498039 0.498039 #0.501961
v -2.148926 4.515381 0.044922 0.498039 0.498039 0.498039 #0.501961
v -2.148926 0.151367 -0.241699 0.498039 0.498039 0.498039 #0.501961
v 2.090820 4.515381 0.044922 0.498039 0.498039 0.498039 #0.501961
v 2.090820 4.516357 -0.273682 0.498039 0.498039 0.498039 #0.501961
v -2.148926 4.516357 -0.273682 0.498039 0.498039 0.498039 #0.501961
v 2.090820 0.151367 -0.241699 0.498039 0.498039 0.498039 #0.501961
v 2.090820 0.143311 0.069092 0.498039 0.498039 0.498039 #0.501961
v -2.148926 0.151367 -0.241699 0.498039 0.498039 0.498039 #0.501961
v 2.090820 0.143311 0.069092 0.498039 0.498039 0.498039 #0.501961
v -2.148926 0.143311 0.069092 0.498039 0.498039 0.498039 #0.501961
v -2.148926 0.151367 -0.241699 0.498039 0.498039 0.498039 #0.501961
v -2.148926 4.515381 0.044922 0.498039 0.498039 0.498039 #0.501961
v 2.090820 4.515381 0.044922 0.498039 0.498039 0.498039 #0.501961
v -2.148926 4.516357 -0.273682 0.498039 0.498039 0.498039 #0.501961
v 0.277100 2.781006 0.094238 0.498039 0.498039 0.498039 #0.501961
v 0.277100 2.532715 0.178711 0.498039 0.498039 0.498039 #0.501961
v 0.525635 2.532715 0.158936 0.498039 0.498039 0.498039 #0.501961
v -0.219482 3.029541 0.160400 0.498039 0.498039 0.498039 #0.501961
v -0.467773 3.029541 0.147217 0.498039 0.498039 0.498039 #0.501961
v -0.467773 2.781006 0.160400 0.498039 0.498039 0.498039 #0.501961
v 0.028809 3.550537 0.197754 0.498039 0.498039 0.498039 #0.501961
v -0.219482 3.302246 0.197754 0.498039 0.498039 0.498039 #0.501961
v 0.028809 3.302246 0.197754 0.498039 0.498039 0.498039 #0.501961
v 0.277100 3.791748 0.177979 0.498039 0.498039 0.498039 #0.501961
v 0.277100 3.538574 0.245361 0.498039 0.498039 0.498039 #0.501961
v 0.525635 3.526367 -0.024902 0.498039 0.498039 0.498039 #0.501961
v 0.277100 1.538818 0.027832 0.498039 0.498039 0.498039 #0.501961
v 0.028809 1.314697 0.230957 0.498039 0.498039 0.498039 #0.501961
v 0.277100 1.290527 0.021240 0.498039 0.498039 0.498039 #0.501961
v 0.774170 1.811523 0.309082 0.498039 0.498039 0.498039 #0.501961
v 0.525635 1.811523 0.262695 0.498039 0.498039 0.498039 #0.501961
v 0.774170 1.538818 0.100830 0.498039 0.498039 0.498039 #0.501961
v -0.219482 1.041992 0.166992 0.498039 0.498039 0.498039 #0.501961
v -0.219482 1.314697 0.230957 0.498039 0.498039 0.498039 #0.501961
v -0.467773 1.017090 -0.005127 0.498039 0.498039 0.498039 #0.501961
v 0.028809 2.284180 0.027832 0.498039 0.498039 0.498039 #0.501961
v 0.028809 2.532715 0.054443 0.498039 0.498039 0.498039 #0.501961
v -0.219482 2.284180 -0.011719 0.498039 0.498039 0.498039 #0.501961
v 1.270996 2.618652 -0.024902 0.498039 0.498039 0.498039 #0.501961
v 1.045898 2.259277 -0.024902 0.498039 0.498039 0.498039 #0.501961
v 1.867920 2.284180 -0.024902 0.498039 0.498039 0.498039 #0.501961
v -0.964844 0.346680 -0.024902 0.498039 0.498039 0.498039 #0.501961
v -0.555420 0.656006 0.007324 0.498039 0.498039 0.498039 #0.501961
v -0.802246 0.793457 -0.024902 0.498039 0.498039 0.498039 #0.501961
v -0.964844 1.787354 -0.024902 0.498039 0.498039 0.498039 #0.501961
v -0.467773 1.787354 -0.018311 0.498039 0.498039 0.498039 #0.501961
v -0.716309 2.284180 -0.024902 0.498039 0.498039 0.498039 #0.501961
v 0.774170 0.346680 -0.024902 0.498039 0.498039 0.498039 #0.501961
v 0.277100 0.545166 -0.018311 0.498039 0.498039 0.498039 #0.501961
v 0.277100 0.346680 -0.024902 0.498039 0.498039 0.498039 #0.501961
v -1.958496 2.284180 -0.024902 0.498039 0.498039 0.498039 #0.501961
v -1.299072 2.843506 -0.024902 0.498039 0.498039 0.498039 #0.501961
v -1.958496 3.277832 -0.024902 0.498039 0.498039 0.498039 #0.501961
v 1.867920 4.271729 -0.024902 0.498039 0.498039 0.498039 #0.501961
v 1.270996 4.271729 -0.024902 0.498039 0.498039 0.498039 #0.501961
v 0.774170 3.526367 -0.024902 0.498039 0.498039 0.498039 #0.501961
v 1.045898 1.762207 -0.024902 0.498039 0.498039 0.498039 #0.501961
v 0.961670 1.302979 -0.024902 0.498039 0.498039 0.498039 #0.501961
v 1.867920 0.346680 -0.024902 0.498039 0.498039 0.498039 #0.501961
v -0.716309 3.774902 -0.024902 0.498039 0.498039 0.498039 #0.501961
v -0.480469 3.887207 -0.018311 0.498039 0.498039 0.498039 #0.501961
v -0.964844 4.271729 -0.024902 0.498039 0.498039 0.498039 #0.501961
v -0.219482 3.029541 0.160400 0.498039 0.498039 0.498039 #0.501961
v -0.219482 3.302246 0.197754 0.498039 0.498039 0.498039 #0.501961
v -0.467773 3.029541 0.147217 0.498039 0.498039 0.498039 #0.501961
v 0.028809 1.787354 -0.024902 0.498039 0.498039 0.498039 #0.501961
v 0.028809 1.538818 0.047852 0.498039 0.498039 0.498039 #0.501961
v 0.277100 1.538818 0.027832 0.498039 0.498039 0.498039 #0.501961
v -0.219482 2.532715 -0.011719 0.498039 0.498039 0.498039 #0.501961
v -0.467773 2.532715 0.002930 0.498039 0.498039 0.498039 #0.501961
v -0.467773 2.284180 -0.018311 0.498039 0.498039 0.498039 #0.501961
v 0.277100 2.284180 0.107422 0.498039 0.498039 0.498039 #0.501961
v 0.028809 2.284180 0.027832 0.498039 0.498039 0.498039 #0.501961
v 0.277100 2.035889 0.027832 0.498039 0.498039 0.498039 #0.501961
v 0.277100 3.029541 -0.024902 0.498039 0.498039 0.498039 #0.501961
v 0.028809 3.029541 0.120605 0.498039 0.498039 0.498039 #0.501961
v 0.028809 2.781006 0.021240 0.498039 0.498039 0.498039 #0.501961
v -0.467773 1.017090 -0.005127 0.498039 0.498039 0.498039 #0.501961
v -0.467773 1.290527 -0.017578 0.498039 0.498039 0.498039 #0.501961
v -0.964844 1.290527 -0.024902 0.498039 0.498039 0.498039 #0.501961
v 0.016357 4.035645 -0.024902 0.498039 0.498039 0.498039 #0.501961
v 0.425537 3.824707 -0.024902 0.498039 0.498039 0.498039 #0.501961
v 0.277100 4.271729 -0.024902 0.498039 0.498039 0.498039 #0.501961
v 0.500732 1.067139 -0.018311 0.498039 0.498039 0.498039 #0.501961
v 0.500732 0.668457 -0.018311 0.498039 0.498039 0.498039 #0.501961
v 0.774170 0.346680 -0.024902 0.498039 0.498039 0.498039 #0.501961
v 1.867920 2.284180 -0.024902 0.498039 0.498039 0.498039 #0.501961
v 1.867920 4.271729 -0.024902 0.498039 0.498039 0.498039 #0.501961
v 1.270996 2.618652 -0.024902 0.498039 0.498039 0.498039 #0.501961
v 1.867920 0.346680 -0.024902 0.498039 0.498039 0.498039 #0.501961
v 1.867920 2.284180 -0.024902 0.498039 0.498039 0.498039 #0.501961
v 1.045898 1.762207 -0.024902 0.498039 0.498039 0.498039 #0.501961
v -1.958496 0.346680 -0.024902 0.498039 0.498039 0.498039 #0.501961
v -0.964844 1.787354 -0.024902 0.498039 0.498039 0.498039 #0.501961
v -1.958496 2.284180 -0.024902 0.498039 0.498039 0.498039 #0.501961
v -1.958496 3.277832 -0.024902 0.498039 0.498039 0.498039 #0.501961
v -0.964844 4.271729 -0.024902 0.498039 0.498039 0.498039 #0.501961
v -1.962402 4.274902 -0.028809 0.498039 0.498039 0.498039 #0.501961
v 0.899170 2.643555 -0.024902 0.498039 0.498039 0.498039 #0.501961
v 0.550537 2.818604 0.037354 0.498039 0.498039 0.498039 #0.501961
v 0.924072 2.532715 0.096436 0.498039 0.498039 0.498039 #0.501961
v 0.028809 2.035645 -0.011719 0.498039 0.498039 0.498039 #0.501961
v -0.219482 2.035645 0.001465 0.498039 0.498039 0.498039 #0.501961
v -0.219482 1.787354 -0.011719 0.498039 0.498039 0.498039 #0.501961
v -0.219482 2.781006 0.047852 0.498039 0.498039 0.498039 #0.501961
v -0.467773 2.781006 0.160400 0.498039 0.498039 0.498039 #0.501961
v -0.467773 2.532715 0.002930 0.498039 0.498039 0.498039 #0.501961
v 0.525635 2.060059 0.315674 0.498039 0.498039 0.498039 #0.501961
v 0.525635 2.308350 0.328857 0.498039 0.498039 0.498039 #0.501961
v 0.277100 2.035889 0.027832 0.498039 0.498039 0.498039 #0.501961
v 0.425537 3.824707 -0.024902 0.498039 0.498039 0.498039 #0.501961
v 1.270996 4.271729 -0.024902 0.498039 0.498039 0.498039 #0.501961
v 0.277100 4.271729 -0.024902 0.498039 0.498039 0.498039 #0.501961
v 0.774170 0.346680 -0.024902 0.498039 0.498039 0.498039 #0.501961
v 1.867920 0.346680 -0.024902 0.498039 0.498039 0.498039 #0.501961
v 0.961670 1.302979 -0.024902 0.498039 0.498039 0.498039 #0.501961
v 1.270996 2.618652 -0.024902 0.498039 0.498039 0.498039 #0.501961
v 1.867920 4.271729 -0.024902 0.498039 0.498039 0.498039 #0.501961
v 0.774170 3.277832 -0.024902 0.498039 0.498039 0.498039 #0.501961
v -0.964844 2.284180 -0.005127 0.498039 0.498039 0.498039 #0.501961
v -1.214844 2.545166 -0.018311 0.498039 0.498039 0.498039 #0.501961
v -1.958496 2.284180 -0.024902 0.498039 0.498039 0.498039 #0.501961
v -1.958496 0.346680 -0.024902 0.498039 0.498039 0.498039 #0.501961
v -0.964844 1.290527 -0.024902 0.498039 0.498039 0.498039 #0.501961
v -0.964844 1.787354 -0.024902 0.498039 0.498039 0.498039 #0.501961
v -1.958496 3.277832 -0.024902 0.498039 0.498039 0.498039 #0.501961
v -0.716309 3.774902 -0.024902 0.498039 0.498039 0.498039 #0.501961
v -0.964844 4.271729 -0.024902 0.498039 0.498039 0.498039 #0.501961
v -0.555420 0.656006 0.007324 0.498039 0.498039 0.498039 #0.501961
v 0.028809 0.793457 -0.030762 0.498039 0.498039 0.498039 #0.501961
v -0.219482 1.041992 0.166992 0.498039 0.498039 0.498039 #0.501961
v -0.219482 1.538818 0.014648 0.498039 0.498039 0.498039 #0.501961
v -0.219482 1.787354 -0.011719 0.498039 0.498039 0.498039 #0.501961
v -0.467773 1.290527 -0.017578 0.498039 0.498039 0.498039 #0.501961
v 0.028809 3.799072 0.197754 0.498039 0.498039 0.498039 #0.501961
v -0.219482 3.550537 0.211182 0.498039 0.498039 0.498039 #0.501961
v 0.028809 3.550537 0.197754 0.498039 0.498039 0.498039 #0.501961
v 0.028809 3.302246 0.197754 0.498039 0.498039 0.498039 #0.501961
v -0.219482 3.029541 0.160400 0.498039 0.498039 0.498039 #0.501961
v 0.028809 3.029541 0.120605 0.498039 0.498039 0.498039 #0.501961
v 0.774170 2.060059 0.355469 0.498039 0.498039 0.498039 #0.501961
v 0.774170 2.308350 0.335449 0.498039 0.498039 0.498039 #0.501961
v 0.525635 2.060059 0.315674 0.498039 0.498039 0.498039 #0.501961
v 0.028809 2.532715 0.054443 0.498039 0.498039 0.498039 #0.501961
v 0.028809 2.781006 0.021240 0.498039 0.498039 0.498039 #0.501961
v -0.219482 2.532715 -0.011719 0.498039 0.498039 0.498039 #0.501961
v 0.525635 1.811523 0.262695 0.498039 0.498039 0.498039 #0.501961
v 0.277100 1.787354 -0.024902 0.498039 0.498039 0.498039 #0.501961
v 0.525635 1.538818 -0.011719 0.498039 0.498039 0.498039 #0.501961
v 0.774170 3.277832 -0.024902 0.498039 0.498039 0.498039 #0.501961
v 0.698975 2.979492 -0.009033 0.498039 0.498039 0.498039 #0.501961
v 1.270996 2.618652 -0.024902 0.498039 0.498039 0.498039 #0.501961
v -0.330322 4.023193 -0.024902 0.498039 0.498039 0.498039 #0.501961
v -0.219482 4.271729 -0.024902 0.498039 0.498039 0.498039 #0.501961
v -0.964844 4.271729 -0.024902 0.498039 0.498039 0.498039 #0.501961
v -0.964844 1.787354 -0.024902 0.498039 0.498039 0.498039 #0.501961
v -0.716309 2.284180 -0.024902 0.498039 0.498039 0.498039 #0.501961
v -0.964844 2.284180 -0.005127 0.498039 0.498039 0.498039 #0.501961
v 0.774170 0.346680 -0.024902 0.498039 0.498039 0.498039 #0.501961
v 0.961670 1.302979 -0.024902 0.498039 0.498039 0.498039 #0.501961
v 0.500732 1.067139 -0.018311 0.498039 0.498039 0.498039 #0.501961
v 0.774170 3.526367 -0.024902 0.498039 0.498039 0.498039 #0.501961
v 1.270996 4.271729 -0.024902 0.498039 0.498039 0.498039 #0.501961
v 0.425537 3.824707 -0.024902 0.498039 0.498039 0.498039 #0.501961
v -0.964844 0.346680 -0.024902 0.498039 0.498039 0.498039 #0.501961
v -0.802246 0.793457 -0.024902 0.498039 0.498039 0.498039 #0.501961
v -1.958496 0.346680 -0.024902 0.498039 0.498039 0.498039 #0.501961
v -1.014648 3.052979 -0.024902 0.498039 0.498039 0.498039 #0.501961
v -0.716309 3.277832 -0.011719 0.498039 0.498039 0.498039 #0.501961
v -0.716309 3.774902 -0.024902 0.498039 0.498039 0.498039 #0.501961
v 0.028809 3.029541 0.120605 0.498039 0.498039 0.498039 #0.501961
v -0.219482 3.029541 0.160400 0.498039 0.498039 0.498039 #0.501961
v -0.219482 2.781006 0.047852 0.498039 0.498039 0.498039 #0.501961
v 0.550537 2.818604 0.037354 0.498039 0.498039 0.498039 #0.501961
v 0.277100 2.781006 0.094238 0.498039 0.498039 0.498039 #0.501961
v 0.525635 2.532715 0.158936 0.498039 0.498039 0.498039 #0.501961
v 0.277100 2.035889 0.027832 0.498039 0.498039 0.498039 #0.501961
v 0.028809 2.035645 -0.011719 0.498039 0.498039 0.498039 #0.501961
v 0.277100 1.787354 -0.024902 0.498039 0.498039 0.498039 #0.501961
v 0.277100 1.538818 0.027832 0.498039 0.498039 0.498039 #0.501961
v 0.277100 1.290527 0.021240 0.498039 0.498039 0.498039 #0.501961
v 0.525635 1.290527 -0.013184 0.498039 0.498039 0.498039 #0.501961
v 0.277100 2.532715 0.178711 0.498039 0.498039 0.498039 #0.501961
v 0.028809 2.532715 0.054443 0.498039 0.498039 0.498039 #0.501961
v 0.277100 2.284180 0.107422 0.498039 0.498039 0.498039 #0.501961
v 0.028809 3.799072 0.197754 0.498039 0.498039 0.498039 #0.501961
v 0.028809 3.550537 0.197754 0.498039 0.498039 0.498039 #0.501961
v 0.277100 3.538574 0.245361 0.498039 0.498039 0.498039 #0.501961
v -0.964844 1.290527 -0.024902 0.498039 0.498039 0.498039 #0.501961
v -0.467773 1.538818 -0.019043 0.498039 0.498039 0.498039 #0.501961
v -0.467773 1.787354 -0.018311 0.498039 0.498039 0.498039 #0.501961
v -1.014648 3.052979 -0.024902 0.498039 0.498039 0.498039 #0.501961
v -0.964844 2.781006 0.094238 0.498039 0.498039 0.498039 #0.501961
v -0.467773 2.781006 0.160400 0.498039 0.498039 0.498039 #0.501961
v 0.016357 4.035645 -0.024902 0.498039 0.498039 0.498039 #0.501961
v 0.277100 4.271729 -0.024902 0.498039 0.498039 0.498039 #0.501961
v -0.219482 4.271729 -0.024902 0.498039 0.498039 0.498039 #0.501961
v -0.330322 4.023193 -0.024902 0.498039 0.498039 0.498039 #0.501961
v -0.480469 3.887207 -0.018311 0.498039 0.498039 0.498039 #0.501961
v -0.219482 3.799072 0.197754 0.498039 0.498039 0.498039 #0.501961
v -0.467773 0.346680 -0.024902 0.498039 0.498039 0.498039 #0.501961
v 0.028809 0.545166 -0.024902 0.498039 0.498039 0.498039 #0.501961
v 0.028809 0.793457 -0.030762 0.498039 0.498039 0.498039 #0.501961
v 0.774170 3.526367 -0.024902 0.498039 0.498039 0.498039 #0.501961
v 0.774170 3.277832 -0.024902 0.498039 0.498039 0.498039 #0.501961
v 1.867920 4.271729 -0.024902 0.498039 0.498039 0.498039 #0.501961
v 1.045898 2.259277 -0.024902 0.498039 0.498039 0.498039 #0.501961
v 1.045898 1.762207 -0.024902 0.498039 0.498039 0.498039 #0.501961
v 1.867920 2.284180 -0.024902 0.498039 0.498039 0.498039 #0.501961
v -1.214844 2.545166 -0.018311 0.498039 0.498039 0.498039 #0.501961
v -1.299072 2.843506 -0.024902 0.498039 0.498039 0.498039 #0.501961
v -1.958496 2.284180 -0.024902 0.498039 0.498039 0.498039 #0.501961
v 0.774170 3.526367 -0.024902 0.498039 0.498039 0.498039 #0.501961
v 0.425537 3.824707 -0.024902 0.498039 0.498039 0.498039 #0.501961
v 0.525635 3.526367 -0.024902 0.498039 0.498039 0.498039 #0.501961
v 0.698975 2.979492 -0.009033 0.498039 0.498039 0.498039 #0.501961
v 0.525635 3.277832 -0.024902 0.498039 0.498039 0.498039 #0.501961
v 0.600586 2.904541 0.000000 0.498039 0.498039 0.498039 #0.501961
v 0.774170 2.308350 0.335449 0.498039 0.498039 0.498039 #0.501961
v 0.525635 2.532715 0.158936 0.498039 0.498039 0.498039 #0.501961
v 0.525635 2.308350 0.328857 0.498039 0.498039 0.498039 #0.501961
v 0.277100 3.302246 0.197754 0.498039 0.498039 0.498039 #0.501961
v 0.028809 3.302246 0.197754 0.498039 0.498039 0.498039 #0.501961
v 0.028809 3.029541 0.120605 0.498039 0.498039 0.498039 #0.501961
v 0.016357 4.035645 -0.024902 0.498039 0.498039 0.498039 #0.501961
v 0.028809 3.799072 0.197754 0.498039 0.498039 0.498039 #0.501961
v 0.277100 3.791748 0.177979 0.498039 0.498039 0.498039 #0.501961
v 0.028809 1.314697 0.230957 0.498039 0.498039 0.498039 #0.501961
v -0.219482 1.041992 0.166992 0.498039 0.498039 0.498039 #0.501961
v 0.028809 1.041992 0.140381 0.498039 0.498039 0.498039 #0.501961
v 0.028809 2.781006 0.021240 0.498039 0.498039 0.498039 #0.501961
v -0.219482 2.781006 0.047852 0.498039 0.498039 0.498039 #0.501961
v -0.219482 2.532715 -0.011719 0.498039 0.498039 0.498039 #0.501961
v 0.924072 2.532715 0.096436 0.498039 0.498039 0.498039 #0.501961
v 1.270996 2.618652 -0.024902 0.498039 0.498039 0.498039 #0.501961
v 0.899170 2.643555 -0.024902 0.498039 0.498039 0.498039 #0.501961
v 0.500732 0.668457 -0.018311 0.498039 0.498039 0.498039 #0.501961
v 0.277100 0.545166 -0.018311 0.498039 0.498039 0.498039 #0.501961
v 0.774170 0.346680 -0.024902 0.498039 0.498039 0.498039 #0.501961
v -1.958496 2.284180 -0.024902 0.498039 0.498039 0.498039 #0.501961
v -0.964844 1.787354 -0.024902 0.498039 0.498039 0.498039 #0.501961
v -0.964844 2.284180 -0.005127 0.498039 0.498039 0.498039 #0.501961
v -1.958496 0.346680 -0.024902 0.498039 0.498039 0.498039 #0.501961
v -0.802246 0.793457 -0.024902 0.498039 0.498039 0.498039 #0.501961
v -0.964844 1.290527 -0.024902 0.498039 0.498039 0.498039 #0.501961
v -1.014648 3.052979 -0.024902 0.498039 0.498039 0.498039 #0.501961
v -0.716309 3.774902 -0.024902 0.498039 0.498039 0.498039 #0.501961
v -1.958496 3.277832 -0.024902 0.498039 0.498039 0.498039 #0.501961
v -0.330322 4.023193 -0.024902 0.498039 0.498039 0.498039 #0.501961
v -0.964844 4.271729 -0.024902 0.498039 0.498039 0.498039 #0.501961
v -0.480469 3.887207 -0.018311 0.498039 0.498039 0.498039 #0.501961
v 0.774170 1.811523 0.309082 0.498039 0.498039 0.498039 #0.501961
v 0.525635 2.060059 0.315674 0.498039 0.498039 0.498039 #0.501961
v 0.525635 1.811523 0.262695 0.498039 0.498039 0.498039 #0.501961
v -0.219482 3.550537 0.211182 0.498039 0.498039 0.498039 #0.501961
v -0.219482 3.799072 0.197754 0.498039 0.498039 0.498039 #0.501961
v -0.467773 3.550537 0.247803 0.498039 0.498039 0.498039 #0.501961
v 0.028809 2.284180 0.027832 0.498039 0.498039 0.498039 #0.501961
v -0.219482 2.284180 -0.011719 0.498039 0.498039 0.498039 #0.501961
v 0.028809 2.035645 -0.011719 0.498039 0.498039 0.498039 #0.501961
v 0.525635 2.308350 0.328857 0.498039 0.498039 0.498039 #0.501961
v 0.277100 2.284180 0.107422 0.498039 0.498039 0.498039 #0.501961
v 0.277100 2.035889 0.027832 0.498039 0.498039 0.498039 #0.501961
v 0.028809 1.538818 0.047852 0.498039 0.498039 0.498039 #0.501961
v 0.028809 1.787354 -0.024902 0.498039 0.498039 0.498039 #0.501961
v -0.219482 1.538818 0.014648 0.498039 0.498039 0.498039 #0.501961
v 0.924072 2.532715 0.096436 0.498039 0.498039 0.498039 #0.501961
v 0.550537 2.818604 0.037354 0.498039 0.498039 0.498039 #0.501961
v 0.525635 2.532715 0.158936 0.498039 0.498039 0.498039 #0.501961
v 0.774170 3.526367 -0.024902 0.498039 0.498039 0.498039 #0.501961
v 0.525635 3.526367 -0.024902 0.498039 0.498039 0.498039 #0.501961
v 0.774170 3.277832 -0.024902 0.498039 0.498039 0.498039 #0.501961
v -0.467773 2.532715 0.002930 0.498039 0.498039 0.498039 #0.501961
v -0.467773 2.781006 0.160400 0.498039 0.498039 0.498039 #0.501961
v -0.778809 2.582764 -0.024902 0.498039 0.498039 0.498039 #0.501961
v 0.600586 2.904541 0.000000 0.498039 0.498039 0.498039 #0.501961
v 0.525635 3.277832 -0.024902 0.498039 0.498039 0.498039 #0.501961
v 0.277100 3.029541 -0.024902 0.498039 0.498039 0.498039 #0.501961
v 0.028809 3.302246 0.197754 0.498039 0.498039 0.498039 #0.501961
v -0.219482 3.302246 0.197754 0.498039 0.498039 0.498039 #0.501961
v -0.219482 3.029541 0.160400 0.498039 0.498039 0.498039 #0.501961
v -0.964844 1.290527 -0.024902 0.498039 0.498039 0.498039 #0.501961
v -0.467773 1.290527 -0.017578 0.498039 0.498039 0.498039 #0.501961
v -0.467773 1.538818 -0.019043 0.498039 0.498039 0.498039 #0.501961
v -0.467773 3.029541 0.147217 0.498039 0.498039 0.498039 #0.501961
v -0.467773 3.302246 0.261230 0.498039 0.498039 0.498039 #0.501961
v -0.716309 3.277832 -0.011719 0.498039 0.498039 0.498039 #0.501961
v -0.330322 4.023193 -0.024902 0.498039 0.498039 0.498039 #0.501961
v 0.016357 4.035645 -0.024902 0.498039 0.498039 0.498039 #0.501961
v -0.219482 4.271729 -0.024902 0.498039 0.498039 0.498039 #0.501961
v 0.525635 1.290527 -0.013184 0.498039 0.498039 0.498039 #0.501961
v 0.500732 1.067139 -0.018311 0.498039 0.498039 0.498039 #0.501961
v 0.961670 1.302979 -0.024902 0.498039 0.498039 0.498039 #0.501961
v -1.958496 3.277832 -0.024902 0.498039 0.498039 0.498039 #0.501961
v -1.299072 2.843506 -0.024902 0.498039 0.498039 0.498039 #0.501961
v -1.014648 3.052979 -0.024902 0.498039 0.498039 0.498039 #0.501961
v -0.467773 0.346680 -0.024902 0.498039 0.498039 0.498039 #0.501961
v 0.028809 0.793457 -0.030762 0.498039 0.498039 0.498039 #0.501961
v -0.555420 0.656006 0.007324 0.498039 0.498039 0.498039 #0.501961
v -0.219482 2.781006 0.047852 0.498039 0.498039 0.498039 #0.501961
v -0.467773 2.532715 0.002930 0.498039 0.498039 0.498039 #0.501961
v -0.219482 2.532715 -0.011719 0.498039 0.498039 0.498039 #0.501961
v 0.277100 2.284180 0.107422 0.498039 0.498039 0.498039 #0.501961
v 0.028809 2.532715 0.054443 0.498039 0.498039 0.498039 #0.501961
v 0.028809 2.284180 0.027832 0.498039 0.498039 0.498039 #0.501961
v -0.467773 2.284180 -0.018311 0.498039 0.498039 0.498039 #0.501961
v -0.778809 2.582764 -0.024902 0.498039 0.498039 0.498039 #0.501961
v -0.716309 2.284180 -0.024902 0.498039 0.498039 0.498039 #0.501961
v 0.277100 3.538574 0.245361 0.498039 0.498039 0.498039 #0.501961
v 0.277100 3.302246 0.197754 0.498039 0.498039 0.498039 #0.501961
v 0.525635 3.277832 -0.024902 0.498039 0.498039 0.498039 #0.501961
v 0.028809 2.035645 -0.011719 0.498039 0.498039 0.498039 #0.501961
v -0.219482 1.787354 -0.011719 0.498039 0.498039 0.498039 #0.501961
v 0.028809 1.787354 -0.024902 0.498039 0.498039 0.498039 #0.501961
v 0.425537 3.824707 -0.024902 0.498039 0.498039 0.498039 #0.501961
v 0.277100 3.791748 0.177979 0.498039 0.498039 0.498039 #0.501961
v 0.525635 3.526367 -0.024902 0.498039 0.498039 0.498039 #0.501961
v 0.774170 1.538818 0.100830 0.498039 0.498039 0.498039 #0.501961
v 0.525635 1.811523 0.262695 0.498039 0.498039 0.498039 #0.501961
v 0.525635 1.538818 -0.011719 0.498039 0.498039 0.498039 #0.501961
v -0.219482 3.799072 0.197754 0.498039 0.498039 0.498039 #0.501961
v -0.480469 3.887207 -0.018311 0.498039 0.498039 0.498039 #0.501961
v -0.467773 3.550537 0.247803 0.498039 0.498039 0.498039 #0.501961
v 0.277100 0.545166 -0.018311 0.498039 0.498039 0.498039 #0.501961
v 0.028809 0.545166 -0.024902 0.498039 0.498039 0.498039 #0.501961
v 0.277100 0.346680 -0.024902 0.498039 0.498039 0.498039 #0.501961
v -0.219482 3.550537 0.211182 0.498039 0.498039 0.498039 #0.501961
v -0.467773 3.302246 0.261230 0.498039 0.498039 0.498039 #0.501961
v -0.219482 3.302246 0.197754 0.498039 0.498039 0.498039 #0.501961
v 0.028809 1.314697 0.230957 0.498039 0.498039 0.498039 #0.501961
v 0.028809 1.041992 0.140381 0.498039 0.498039 0.498039 #0.501961
v 0.277100 1.041992 -0.001953 0.498039 0.498039 0.498039 #0.501961
v 0.277100 3.029541 -0.024902 0.498039 0.498039 0.498039 #0.501961
v 0.277100 2.781006 0.094238 0.498039 0.498039 0.498039 #0.501961
v 0.550537 2.818604 0.037354 0.498039 0.498039 0.498039 #0.501961
v -0.964844 1.290527 -0.024902 0.498039 0.498039 0.498039 #0.501961
v -0.467773 1.787354 -0.018311 0.498039 0.498039 0.498039 #0.501961
v -0.964844 1.787354 -0.024902 0.498039 0.498039 0.498039 #0.501961
v -0.467773 2.781006 0.160400 0.498039 0.498039 0.498039 #0.501961
v -0.716309 3.277832 -0.011719 0.498039 0.498039 0.498039 #0.501961
v -1.014648 3.052979 -0.024902 0.498039 0.498039 0.498039 #0.501961
v -1.214844 2.545166 -0.018311 0.498039 0.498039 0.498039 #0.501961
v -0.964844 2.781006 0.094238 0.498039 0.498039 0.498039 #0.501961
v -1.299072 2.843506 -0.024902 0.498039 0.498039 0.498039 #0.501961
v 0.774170 2.308350 0.335449 0.498039 0.498039 0.498039 #0.501961
v 1.045898 2.259277 -0.024902 0.498039 0.498039 0.498039 #0.501961
v 0.924072 2.532715 0.096436 0.498039 0.498039 0.498039 #0.501961
v -0.964844 0.346680 -0.024902 0.498039 0.498039 0.498039 #0.501961
v -0.467773 0.346680 -0.024902 0.498039 0.498039 0.498039 #0.501961
v -0.555420 0.656006 0.007324 0.498039 0.498039 0.498039 #0.501961
v 0.028809 3.550537 0.197754 0.498039 0.498039 0.498039 #0.501961
v -0.219482 3.550537 0.211182 0.498039 0.498039 0.498039 #0.501961
v -0.219482 3.302246 0.197754 0.498039 0.498039 0.498039 #0.501961
v -0.778809 2.582764 -0.024902 0.498039 0.498039 0.498039 #0.501961
v -1.214844 2.545166 -0.018311 0.498039 0.498039 0.498039 #0.501961
v -0.964844 2.284180 -0.005127 0.498039 0.498039 0.498039 #0.501961
v 0.961670 1.302979 -0.024902 0.498039 0.498039 0.498039 #0.501961
v 0.525635 1.538818 -0.011719 0.498039 0.498039 0.498039 #0.501961
v 0.525635 1.290527 -0.013184 0.498039 0.498039 0.498039 #0.501961
v 0.028809 3.029541 0.120605 0.498039 0.498039 0.498039 #0.501961
v -0.219482 2.781006 0.047852 0.498039 0.498039 0.498039 #0.501961
v 0.028809 2.781006 0.021240 0.498039 0.498039 0.498039 #0.501961
v 0.525635 2.532715 0.158936 0.498039 0.498039 0.498039 #0.501961
v 0.277100 2.532715 0.178711 0.498039 0.498039 0.498039 #0.501961
v 0.525635 2.308350 0.328857 0.498039 0.498039 0.498039 #0.501961
v 0.277100 0.545166 -0.018311 0.498039 0.498039 0.498039 #0.501961
v 0.028809 0.793457 -0.030762 0.498039 0.498039 0.498039 #0.501961
v 0.028809 0.545166 -0.024902 0.498039 0.498039 0.498039 #0.501961
v 0.525635 3.526367 -0.024902 0.498039 0.498039 0.498039 #0.501961
v 0.277100 3.538574 0.245361 0.498039 0.498039 0.498039 #0.501961
v 0.525635 3.277832 -0.024902 0.498039 0.498039 0.498039 #0.501961
v -0.219482 2.284180 -0.011719 0.498039 0.498039 0.498039 #0.501961
v -0.219482 2.035645 0.001465 0.498039 0.498039 0.498039 #0.501961
v 0.028809 2.035645 -0.011719 0.498039 0.498039 0.498039 #0.501961
v -0.964844 1.290527 -0.024902 0.498039 0.498039 0.498039 #0.501961
v -0.467773 1.787354 -0.018311 0.498039 0.498039 0.498039 #0.501961
v -0.964844 1.787354 -0.024902 0.498039 0.498039 0.498039 #0.501961
v -1.299072 2.843506 -0.024902 0.498039 0.498039 0.498039 #0.501961
v -0.964844 2.781006 0.094238 0.498039 0.498039 0.498039 #0.501961
v -1.014648 3.052979 -0.024902 0.498039 0.498039 0.498039 #0.501961
v -0.467773 2.781006 0.160400 0.498039 0.498039 0.498039 #0.501961
v -0.467773 3.029541 0.147217 0.498039 0.498039 0.498039 #0.501961
v -0.716309 3.277832 -0.011719 0.498039 0.498039 0.498039 #0.501961
v 0.698975 2.979492 -0.009033 0.498039 0.498039 0.498039 #0.501961
v 0.899170 2.643555 -0.024902 0.498039 0.498039 0.498039 #0.501961
v 1.270996 2.618652 -0.024902 0.498039 0.498039 0.498039 #0.501961
v 0.774170 2.308350 0.335449 0.498039 0.498039 0.498039 #0.501961
v 0.774170 2.060059 0.355469 0.498039 0.498039 0.498039 #0.501961
v 1.045898 2.259277 -0.024902 0.498039 0.498039 0.498039 #0.501961
v -0.330322 4.023193 -0.024902 0.498039 0.498039 0.498039 #0.501961
v -0.219482 3.799072 0.197754 0.498039 0.498039 0.498039 #0.501961
v 0.016357 4.035645 -0.024902 0.498039 0.498039 0.498039 #0.501961
v -0.467773 1.017090 -0.005127 0.498039 0.498039 0.498039 #0.501961
v -0.802246 0.793457 -0.024902 0.498039 0.498039 0.498039 #0.501961
v -0.555420 0.656006 0.007324 0.498039 0.498039 0.498039 #0.501961
v -0.219482 2.035645 0.001465 0.498039 0.498039 0.498039 #0.501961
v -0.467773 2.035645 -0.024902 0.498039 0.498039 0.498039 #0.501961
v -0.467773 1.787354 -0.018311 0.498039 0.498039 0.498039 #0.501961
v 0.277100 3.538574 0.245361 0.498039 0.498039 0.498039 #0.501961
v 0.028809 3.550537 0.197754 0.498039 0.498039 0.498039 #0.501961
v 0.277100 3.302246 0.197754 0.498039 0.498039 0.498039 #0.501961
v 0.277100 2.781006 0.094238 0.498039 0.498039 0.498039 #0.501961
v 0.277100 3.029541 -0.024902 0.498039 0.498039 0.498039 #0.501961
v 0.028809 2.781006 0.021240 0.498039 0.498039 0.498039 #0.501961
v -0.467773 3.550537 0.247803 0.498039 0.498039 0.498039 #0.501961
v -0.480469 3.887207 -0.018311 0.498039 0.498039 0.498039 #0.501961
v -0.716309 3.277832 -0.011719 0.498039 0.498039 0.498039 #0.501961
v -0.219482 2.284180 -0.011719 0.498039 0.498039 0.498039 #0.501961
v -0.219482 2.532715 -0.011719 0.498039 0.498039 0.498039 #0.501961
v -0.467773 2.284180 -0.018311 0.498039 0.498039 0.498039 #0.501961
v 0.500732 0.668457 -0.018311 0.498039 0.498039 0.498039 #0.501961
v 0.500732 1.067139 -0.018311 0.498039 0.498039 0.498039 #0.501961
v 0.227295 0.843506 -0.018311 0.498039 0.498039 0.498039 #0.501961
v 0.774170 3.277832 -0.024902 0.498039 0.498039 0.498039 #0.501961
v 0.525635 3.526367 -0.024902 0.498039 0.498039 0.498039 #0.501961
v 0.525635 3.277832 -0.024902 0.498039 0.498039 0.498039 #0.501961
v 0.525635 1.538818 -0.011719 0.498039 0.498039 0.498039 #0.501961
v 0.277100 1.538818 0.027832 0.498039 0.498039 0.498039 #0.501961
v 0.525635 1.290527 -0.013184 0.498039 0.498039 0.498039 #0.501961
v 0.028809 3.799072 0.197754 0.498039 0.498039 0.498039 #0.501961
v -0.219482 3.799072 0.197754 0.498039 0.498039 0.498039 #0.501961
v -0.219482 3.550537 0.211182 0.498039 0.498039 0.498039 #0.501961
v 0.774170 2.308350 0.335449 0.498039 0.498039 0.498039 #0.501961
v 0.525635 2.308350 0.328857 0.498039 0.498039 0.498039 #0.501961
v 0.525635 2.060059 0.315674 0.498039 0.498039 0.498039 #0.501961
v 0.028809 1.538818 0.047852 0.498039 0.498039 0.498039 #0.501961
v -0.219482 1.538818 0.014648 0.498039 0.498039 0.498039 #0.501961
v -0.219482 1.314697 0.230957 0.498039 0.498039 0.498039 #0.501961
v -0.467773 2.781006 0.160400 0.498039 0.498039 0.498039 #0.501961
v -0.964844 2.781006 0.094238 0.498039 0.498039 0.498039 #0.501961
v -0.778809 2.582764 -0.024902 0.498039 0.498039 0.498039 #0.501961
v -0.802246 0.793457 -0.024902 0.498039 0.498039 0.498039 #0.501961
v -0.467773 1.017090 -0.005127 0.498039 0.498039 0.498039 #0.501961
v -0.964844 1.290527 -0.024902 0.498039 0.498039 0.498039 #0.501961
v 1.270996 2.618652 -0.024902 0.498039 0.498039 0.498039 #0.501961
v 0.924072 2.532715 0.096436 0.498039 0.498039 0.498039 #0.501961
v 1.045898 2.259277 -0.024902 0.498039 0.498039 0.498039 #0.501961
v 0.277100 0.346680 -0.024902 0.498039 0.498039 0.498039 #0.501961
v 0.028809 0.545166 -0.024902 0.498039 0.498039 0.498039 #0.501961
v -0.467773 0.346680 -0.024902 0.498039 0.498039 0.498039 #0.501961
v 0.525635 1.290527 -0.013184 0.498039 0.498039 0.498039 #0.501961
v 0.277100 1.290527 0.021240 0.498039 0.498039 0.498039 #0.501961
v 0.500732 1.067139 -0.018311 0.498039 0.498039 0.498039 #0.501961
v 0.227295 0.843506 -0.018311 0.498039 0.498039 0.498039 #0.501961
v 0.028809 0.793457 -0.030762 0.498039 0.498039 0.498039 #0.501961
v 0.277100 0.545166 -0.018311 0.498039 0.498039 0.498039 #0.501961
v -0.219482 2.284180 -0.011719 0.498039 0.498039 0.498039 #0.501961
v -0.467773 2.284180 -0.018311 0.498039 0.498039 0.498039 #0.501961
v -0.467773 2.035645 -0.024902 0.498039 0.498039 0.498039 #0.501961
v 0.698975 2.979492 -0.009033 0.498039 0.498039 0.498039 #0.501961
v 0.600586 2.904541 0.000000 0.498039 0.498039 0.498039 #0.501961
v 0.899170 2.643555 -0.024902 0.498039 0.498039 0.498039 #0.501961
v 0.277100 1.787354 -0.024902 0.498039 0.498039 0.498039 #0.501961
v 0.028809 1.787354 -0.024902 0.498039 0.498039 0.498039 #0.501961
v 0.277100 1.538818 0.027832 0.498039 0.498039 0.498039 #0.501961
v 0.028809 3.799072 0.197754 0.498039 0.498039 0.498039 #0.501961
v 0.016357 4.035645 -0.024902 0.498039 0.498039 0.498039 #0.501961
v -0.219482 3.799072 0.197754 0.498039 0.498039 0.498039 #0.501961
v 0.277100 3.302246 0.197754 0.498039 0.498039 0.498039 #0.501961
v 0.028809 3.550537 0.197754 0.498039 0.498039 0.498039 #0.501961
v 0.028809 3.302246 0.197754 0.498039 0.498039 0.498039 #0.501961
v -0.219482 3.029541 0.160400 0.498039 0.498039 0.498039 #0.501961
v -0.467773 2.781006 0.160400 0.498039 0.498039 0.498039 #0.501961
v -0.219482 2.781006 0.047852 0.498039 0.498039 0.498039 #0.501961
v -0.219482 3.302246 0.197754 0.498039 0.498039 0.498039 #0.501961
v -0.467773 3.302246 0.261230 0.498039 0.498039 0.498039 #0.501961
v -0.467773 3.029541 0.147217 0.498039 0.498039 0.498039 #0.501961
v -0.219482 1.787354 -0.011719 0.498039 0.498039 0.498039 #0.501961
v -0.467773 1.538818 -0.019043 0.498039 0.498039 0.498039 #0.501961
v -0.467773 1.290527 -0.017578 0.498039 0.498039 0.498039 #0.501961
v 0.277100 2.781006 0.094238 0.498039 0.498039 0.498039 #0.501961
v 0.028809 2.781006 0.021240 0.498039 0.498039 0.498039 #0.501961
v 0.277100 2.532715 0.178711 0.498039 0.498039 0.498039 #0.501961
v -0.964844 2.781006 0.094238 0.498039 0.498039 0.498039 #0.501961
v -1.214844 2.545166 -0.018311 0.498039 0.498039 0.498039 #0.501961
v -0.778809 2.582764 -0.024902 0.498039 0.498039 0.498039 #0.501961
v 0.774170 1.811523 0.309082 0.498039 0.498039 0.498039 #0.501961
v 1.045898 1.762207 -0.024902 0.498039 0.498039 0.498039 #0.501961
v 1.045898 2.259277 -0.024902 0.498039 0.498039 0.498039 #0.501961
v -0.716309 3.277832 -0.011719 0.498039 0.498039 0.498039 #0.501961
v -0.480469 3.887207 -0.018311 0.498039 0.498039 0.498039 #0.501961
v -0.716309 3.774902 -0.024902 0.498039 0.498039 0.498039 #0.501961
v -0.555420 0.656006 0.007324 0.498039 0.498039 0.498039 #0.501961
v -0.219482 1.041992 0.166992 0.498039 0.498039 0.498039 #0.501961
v -0.467773 1.017090 -0.005127 0.498039 0.498039 0.498039 #0.501961
v 0.028809 1.314697 0.230957 0.498039 0.498039 0.498039 #0.501961
v 0.028809 1.538818 0.047852 0.498039 0.498039 0.498039 #0.501961
v -0.219482 1.314697 0.230957 0.498039 0.498039 0.498039 #0.501961
v 0.924072 2.532715 0.096436 0.498039 0.498039 0.498039 #0.501961
v 0.525635 2.532715 0.158936 0.498039 0.498039 0.498039 #0.501961
v 0.774170 2.308350 0.335449 0.498039 0.498039 0.498039 #0.501961
v 0.028809 2.532715 0.054443 0.498039 0.498039 0.498039 #0.501961
v -0.219482 2.532715 -0.011719 0.498039 0.498039 0.498039 #0.501961
v -0.219482 2.284180 -0.011719 0.498039 0.498039 0.498039 #0.501961
v 0.277100 1.787354 -0.024902 0.498039 0.498039 0.498039 #0.501961
v 0.277100 1.538818 0.027832 0.498039 0.498039 0.498039 #0.501961
v 0.525635 1.538818 -0.011719 0.498039 0.498039 0.498039 #0.501961
v -0.219482 3.550537 0.211182 0.498039 0.498039 0.498039 #0.501961
v -0.467773 3.550537 0.247803 0.498039 0.498039 0.498039 #0.501961
v -0.467773 3.302246 0.261230 0.498039 0.498039 0.498039 #0.501961
v 0.277100 3.791748 0.177979 0.498039 0.498039 0.498039 #0.501961
v 0.028809 3.799072 0.197754 0.498039 0.498039 0.498039 #0.501961
v 0.277100 3.538574 0.245361 0.498039 0.498039 0.498039 #0.501961
v -0.219482 1.787354 -0.011719 0.498039 0.498039 0.498039 #0.501961
v -0.467773 1.787354 -0.018311 0.498039 0.498039 0.498039 #0.501961
v -0.467773 1.538818 -0.019043 0.498039 0.498039 0.498039 #0.501961
v -0.778809 2.582764 -0.024902 0.498039 0.498039 0.498039 #0.501961
v -0.964844 2.284180 -0.005127 0.498039 0.498039 0.498039 #0.501961
v -0.716309 2.284180 -0.024902 0.498039 0.498039 0.498039 #0.501961
v 0.525635 3.277832 -0.024902 0.498039 0.498039 0.498039 #0.501961
v 0.277100 3.302246 0.197754 0.498039 0.498039 0.498039 #0.501961
v 0.277100 3.029541 -0.024902 0.498039 0.498039 0.498039 #0.501961
v 0.500732 1.067139 -0.018311 0.498039 0.498039 0.498039 #0.501961
v 0.277100 1.041992 -0.001953 0.498039 0.498039 0.498039 #0.501961
v 0.227295 0.843506 -0.018311 0.498039 0.498039 0.498039 #0.501961
v 0.277100 2.035889 0.027832 0.498039 0.498039 0.498039 #0.501961
v 0.028809 2.284180 0.027832 0.498039 0.498039 0.498039 #0.501961
v 0.028809 2.035645 -0.011719 0.498039 0.498039 0.498039 #0.501961
v 1.045898 2.259277 -0.024902 0.498039 0.498039 0.498039 #0.501961
v 0.774170 2.060059 0.355469 0.498039 0.498039 0.498039 #0.501961
v 0.774170 1.811523 0.309082 0.498039 0.498039 0.498039 #0.501961
v 0.774170 3.277832 -0.024902 0.498039 0.498039 0.498039 #0.501961
v 0.525635 3.277832 -0.024902 0.498039 0.498039 0.498039 #0.501961
v 0.698975 2.979492 -0.009033 0.498039 0.498039 0.498039 #0.501961
v 0.277100 3.302246 0.197754 0.498039 0.498039 0.498039 #0.501961
v 0.028809 3.029541 0.120605 0.498039 0.498039 0.498039 #0.501961
v 0.277100 3.029541 -0.024902 0.498039 0.498039 0.498039 #0.501961
v 0.277100 1.290527 0.021240 0.498039 0.498039 0.498039 #0.501961
v 0.277100 1.041992 -0.001953 0.498039 0.498039 0.498039 #0.501961
v 0.500732 1.067139 -0.018311 0.498039 0.498039 0.498039 #0.501961
v -0.467773 3.302246 0.261230 0.498039 0.498039 0.498039 #0.501961
v -0.467773 3.550537 0.247803 0.498039 0.498039 0.498039 #0.501961
v -0.716309 3.277832 -0.011719 0.498039 0.498039 0.498039 #0.501961
v 0.525635 2.308350 0.328857 0.498039 0.498039 0.498039 #0.501961
v 0.277100 2.532715 0.178711 0.498039 0.498039 0.498039 #0.501961
v 0.277100 2.284180 0.107422 0.498039 0.498039 0.498039 #0.501961
v 0.525635 1.811523 0.262695 0.498039 0.498039 0.498039 #0.501961
v 0.277100 2.035889 0.027832 0.498039 0.498039 0.498039 #0.501961
v 0.277100 1.787354 -0.024902 0.498039 0.498039 0.498039 #0.501961
v -0.219482 1.314697 0.230957 0.498039 0.498039 0.498039 #0.501961
v -0.467773 1.290527 -0.017578 0.498039 0.498039 0.498039 #0.501961
v -0.467773 1.017090 -0.005127 0.498039 0.498039 0.498039 #0.501961
v -0.467773 1.787354 -0.018311 0.498039 0.498039 0.498039 #0.501961
v -0.467773 2.035645 -0.024902 0.498039 0.498039 0.498039 #0.501961
v -0.716309 2.284180 -0.024902 0.498039 0.498039 0.498039 #0.501961
v 0.774170 1.811523 0.309082 0.498039 0.498039 0.498039 #0.501961
v 0.774170 1.538818 0.100830 0.498039 0.498039 0.498039 #0.501961
v 1.045898 1.762207 -0.024902 0.498039 0.498039 0.498039 #0.501961
v 0.277100 3.791748 0.177979 0.498039 0.498039 0.498039 #0.501961
v 0.425537 3.824707 -0.024902 0.498039 0.498039 0.498039 #0.501961
v 0.016357 4.035645 -0.024902 0.498039 0.498039 0.498039 #0.501961
v 0.227295 0.843506 -0.018311 0.498039 0.498039 0.498039 #0.501961
v 0.277100 0.545166 -0.018311 0.498039 0.498039 0.498039 #0.501961
v 0.500732 0.668457 -0.018311 0.498039 0.498039 0.498039 #0.501961
v 0.277100 2.532715 0.178711 0.498039 0.498039 0.498039 #0.501961
v 0.028809 2.781006 0.021240 0.498039 0.498039 0.498039 #0.501961
v 0.028809 2.532715 0.054443 0.498039 0.498039 0.498039 #0.501961
v -0.219482 1.314697 0.230957 0.498039 0.498039 0.498039 #0.501961
v -0.219482 1.538818 0.014648 0.498039 0.498039 0.498039 #0.501961
v -0.467773 1.290527 -0.017578 0.498039 0.498039 0.498039 #0.501961
v -0.219482 1.787354 -0.011719 0.498039 0.498039 0.498039 #0.501961
v -0.219482 2.035645 0.001465 0.498039 0.498039 0.498039 #0.501961
v -0.467773 1.787354 -0.018311 0.498039 0.498039 0.498039 #0.501961
v 0.774170 2.060059 0.355469 0.498039 0.498039 0.498039 #0.501961
v 0.525635 2.060059 0.315674 0.498039 0.498039 0.498039 #0.501961
v 0.774170 1.811523 0.309082 0.498039 0.498039 0.498039 #0.501961
v 0.899170 2.643555 -0.024902 0.498039 0.498039 0.498039 #0.501961
v 0.600586 2.904541 0.000000 0.498039 0.498039 0.498039 #0.501961
v 0.550537 2.818604 0.037354 0.498039 0.498039 0.498039 #0.501961
v 0.277100 1.787354 -0.024902 0.498039 0.498039 0.498039 #0.501961
v 0.028809 2.035645 -0.011719 0.498039 0.498039 0.498039 #0.501961
v 0.028809 1.787354 -0.024902 0.498039 0.498039 0.498039 #0.501961
v 0.277100 1.538818 0.027832 0.498039 0.498039 0.498039 #0.501961
v 0.028809 1.538818 0.047852 0.498039 0.498039 0.498039 #0.501961
v 0.028809 1.314697 0.230957 0.498039 0.498039 0.498039 #0.501961
v 0.227295 0.843506 -0.018311 0.498039 0.498039 0.498039 #0.501961
v 0.028809 1.041992 0.140381 0.498039 0.498039 0.498039 #0.501961
v 0.028809 0.793457 -0.030762 0.498039 0.498039 0.498039 #0.501961
v -0.716309 2.284180 -0.024902 0.498039 0.498039 0.498039 #0.501961
v -0.467773 2.035645 -0.024902 0.498039 0.498039 0.498039 #0.501961
v -0.467773 2.284180 -0.018311 0.498039 0.498039 0.498039 #0.501961
v 1.045898 1.762207 -0.024902 0.498039 0.498039 0.498039 #0.501961
v 0.774170 1.538818 0.100830 0.498039 0.498039 0.498039 #0.501961
v 0.961670 1.302979 -0.024902 0.498039 0.498039 0.498039 #0.501961
v 0.600586 2.904541 0.000000 0.498039 0.498039 0.498039 #0.501961
v 0.277100 3.029541 -0.024902 0.498039 0.498039 0.498039 #0.501961
v 0.550537 2.818604 0.037354 0.498039 0.498039 0.498039 #0.501961
v 0.277100 1.041992 -0.001953 0.498039 0.498039 0.498039 #0.501961
v 0.028809 1.041992 0.140381 0.498039 0.498039 0.498039 #0.501961
v 0.227295 0.843506 -0.018311 0.498039 0.498039 0.498039 #0.501961
v 0.525635 2.060059 0.315674 0.498039 0.498039 0.498039 #0.501961
v 0.277100 2.035889 0.027832 0.498039 0.498039 0.498039 #0.501961
v 0.525635 1.811523 0.262695 0.498039 0.498039 0.498039 #0.501961
v 0.028809 1.314697 0.230957 0.498039 0.498039 0.498039 #0.501961
v -0.219482 1.314697 0.230957 0.498039 0.498039 0.498039 #0.501961
v -0.219482 1.041992 0.166992 0.498039 0.498039 0.498039 #0.501961
v 0.028809 1.787354 -0.024902 0.498039 0.498039 0.498039 #0.501961
v -0.219482 1.787354 -0.011719 0.498039 0.498039 0.498039 #0.501961
v -0.219482 1.538818 0.014648 0.498039 0.498039 0.498039 #0.501961
v 0.774170 1.538818 0.100830 0.498039 0.498039 0.498039 #0.501961
v 0.525635 1.538818 -0.011719 0.498039 0.498039 0.498039 #0.501961
v 0.961670 1.302979 -0.024902 0.498039 0.498039 0.498039 #0.501961
v -0.467773 2.035645 -0.024902 0.498039 0.498039 0.498039 #0.501961
v -0.467773 2.284180 -0.018311 0.498039 0.498039 0.498039 #0.501961
v -0.716309 2.284180 -0.024902 0.498039 0.498039 0.498039 #0.501961
v -0.219482 2.035645 0.001465 0.498039 0.498039 0.498039 #0.501961
v -0.219482 2.284180 -0.011719 0.498039 0.498039 0.498039 #0.501961
v -0.467773 2.035645 -0.024902 0.498039 0.498039 0.498039 #0.501961
v 0.277100 1.290527 0.021240 0.498039 0.498039 0.498039 #0.501961
v 0.028809 1.314697 0.230957 0.498039 0.498039 0.498039 #0.501961
v 0.277100 1.041992 -0.001953 0.498039 0.498039 0.498039 #0.501961
v -0.467773 2.532715 0.002930 0.498039 0.498039 0.498039 #0.501961
v -0.778809 2.582764 -0.024902 0.498039 0.498039 0.498039 #0.501961
v -0.467773 2.284180 -0.018311 0.498039 0.498039 0.498039 #0.501961
v 0.028809 0.793457 -0.030762 0.498039 0.498039 0.498039 #0.501961
v 0.028809 1.041992 0.140381 0.498039 0.498039 0.498039 #0.501961
v -0.219482 1.041992 0.166992 0.498039 0.498039 0.498039 #0.501961
vt 0.401367 0.015625 0.000000
vt 0.401367 0.196777 0.000000
vt 0.401367 0.196777 0.000000
vt 0.023438 0.015625 0.000000
vt 0.023438 0.196777 0.000000
vt 0.000000 0.204590 0.000000
vt 0.000000 0.007813 0.000000
vt 0.425049 0.007813 0.000000
vt 0.401367 0.015625 0.000000
vt 0.000000 0.204590 0.000000
vt 0.401367 0.196777 0.000000
vt 0.425049 0.204590 0.000000
vt 0.023438 0.015625 0.000000
vt 0.000000 0.007813 0.000000
vt 0.401367 0.015625 0.000000
vt 0.401367 0.196777 0.000000
vt 0.401367 0.015625 0.000000
vt 0.425049 0.204590 0.000000
vt 0.000000 0.007813 0.000000
vt 0.023438 0.015625 0.000000
vt 0.000000 0.204590 0.000000
vt 0.401367 0.015625 0.000000
vt 0.401367 0.015625 0.000000
vt 0.401367 0.196777 0.000000
vt 0.023438 0.015625 0.000000
vt 0.401367 0.015625 0.000000
vt 0.023438 0.196777 0.000000
vt 0.023438 0.196777 0.000000
vt 0.401367 0.015625 0.000000
vt 0.401367 0.196777 0.000000
vt 0.023438 0.015625 0.000000
vt 0.023438 0.015625 0.000000
vt 0.023438 0.196777 0.000000
vt 0.023438 0.015625 0.000000
vt 0.401367 0.015625 0.000000
vt 0.023438 0.015625 0.000000
vt 0.023438 0.196777 0.000000
vt 0.401367 0.196777 0.000000
vt 0.000000 0.204590 0.000000
vt 0.023438 0.015625 0.000000
vt 0.401367 0.015625 0.000000
vt 0.401367 0.015625 0.000000
vt 0.401367 0.015625 0.000000
vt 0.425049 0.007813 0.000000
vt 0.425049 0.204590 0.000000
vt 0.401367 0.196777 0.000000
vt 0.023438 0.196777 0.000000
vt 0.023438 0.196777 0.000000
vt 0.401367 0.196777 0.000000
vt 0.023438 0.196777 0.000000
vt 0.401367 0.196777 0.000000
vt 0.023438 0.196777 0.000000
vt 0.023438 0.015625 0.000000
vt 0.023438 0.196777 0.000000
vt 0.488037 0.495850 0.000000
vt 0.000000 0.984131 0.000000
vt 0.488037 0.984131 0.000000
vt 0.488037 0.495850 0.000000
vt 0.488037 0.495850 0.000000
vt 0.488037 0.984131 0.000000
vt 0.488037 0.495850 0.000000
vt 0.000000 0.495850 0.000000
vt 0.000000 0.984131 0.000000
vt 0.000000 0.495850 0.000000
vt 0.000000 0.495850 0.000000
vt 0.000000 0.984131 0.000000
vt 0.000000 0.495850 0.000000
vt 0.000000 0.991943 0.000000
vt 0.000000 0.984131 0.000000
vt 0.488037 0.991943 0.000000
vt 0.488037 0.495850 0.000000
vt 0.488037 0.984131 0.000000
vt 0.000000 0.495850 0.000000
vt 0.000000 0.495850 0.000000
vt 0.488037 0.495850 0.000000
vt 0.000000 0.984131 0.000000
vt 0.000000 0.991943 0.000000
vt 0.488037 0.984131 0.000000
vt 0.000000 0.991943 0.000000
vt 0.488037 0.991943 0.000000
vt 0.488037 0.984131 0.000000
vt 0.488037 0.495850 0.000000
vt 0.000000 0.495850 0.000000
vt 0.488037 0.495850 0.000000
vt 0.700684 0.180908 0.000000
vt 0.700684 0.212402 0.000000
vt 0.669189 0.212402 0.000000
vt 0.755859 0.149414 0.000000
vt 0.787354 0.149414 0.000000
vt 0.787354 0.180908 0.000000
vt 0.724365 0.086426 0.000000
vt 0.755859 0.117920 0.000000
vt 0.724365 0.117920 0.000000
vt 0.700684 0.054932 0.000000
vt 0.700684 0.086426 0.000000
vt 0.669189 0.086426 0.000000
vt 0.700684 0.330566 0.000000
vt 0.724365 0.362061 0.000000
vt 0.700684 0.362061 0.000000
vt 0.637695 0.299072 0.000000
vt 0.669189 0.299072 0.000000
vt 0.637695 0.330566 0.000000
vt 0.755859 0.393555 0.000000
vt 0.755859 0.362061 0.000000
vt 0.787354 0.393555 0.000000
vt 0.724365 0.243896 0.000000
vt 0.724365 0.212402 0.000000
vt 0.755859 0.243896 0.000000
vt 0.574707 0.196777 0.000000
vt 0.598389 0.243896 0.000000
vt 0.495850 0.243896 0.000000
vt 0.850342 0.480225 0.000000
vt 0.802979 0.440918 0.000000
vt 0.834473 0.425049 0.000000
vt 0.850342 0.299072 0.000000
vt 0.787354 0.299072 0.000000
vt 0.818848 0.243896 0.000000
vt 0.637695 0.480225 0.000000
vt 0.700684 0.456543 0.000000
vt 0.700684 0.480225 0.000000
vt 0.976318 0.243896 0.000000
vt 0.897461 0.173096 0.000000
vt 0.976318 0.117920 0.000000
vt 0.495850 0.000000 0.000000
vt 0.574707 0.000000 0.000000
vt 0.637695 0.086426 0.000000
vt 0.598389 0.306885 0.000000
vt 0.614014 0.362061 0.000000
vt 0.495850 0.480225 0.000000
vt 0.818848 0.054932 0.000000
vt 0.795166 0.047119 0.000000
vt 0.850342 0.000000 0.000000
vt 0.755859 0.149414 0.000000
vt 0.755859 0.117920 0.000000
vt 0.787354 0.149414 0.000000
vt 0.724365 0.299072 0.000000
vt 0.724365 0.330566 0.000000
vt 0.700684 0.330566 0.000000
vt 0.755859 0.212402 0.000000
vt 0.787354 0.212402 0.000000
vt 0.787354 0.243896 0.000000
vt 0.700684 0.243896 0.000000
vt 0.724365 0.243896 0.000000
vt 0.700684 0.275391 0.000000
vt 0.700684 0.149414 0.000000
vt 0.724365 0.149414 0.000000
vt 0.724365 0.180908 0.000000
vt 0.787354 0.393555 0.000000
vt 0.787354 0.362061 0.000000
vt 0.850342 0.362061 0.000000
vt 0.732178 0.023438 0.000000
vt 0.677002 0.054932 0.000000
vt 0.700684 0.000000 0.000000
vt 0.669189 0.393555 0.000000
vt 0.669189 0.440918 0.000000
vt 0.637695 0.480225 0.000000
vt 0.495850 0.243896 0.000000
vt 0.495850 0.000000 0.000000
vt 0.574707 0.196777 0.000000
vt 0.495850 0.480225 0.000000
vt 0.495850 0.243896 0.000000
vt 0.598389 0.306885 0.000000
vt 0.976318 0.480225 0.000000
vt 0.850342 0.299072 0.000000
vt 0.976318 0.243896 0.000000
vt 0.976318 0.117920 0.000000
vt 0.850342 0.000000 0.000000
vt 0.976318 0.000000 0.000000
vt 0.621826 0.196777 0.000000
vt 0.661377 0.173096 0.000000
vt 0.614014 0.212402 0.000000
vt 0.724365 0.275391 0.000000
vt 0.755859 0.275391 0.000000
vt 0.755859 0.299072 0.000000
vt 0.755859 0.180908 0.000000
vt 0.787354 0.180908 0.000000
vt 0.787354 0.212402 0.000000
vt 0.669189 0.267578 0.000000
vt 0.669189 0.236084 0.000000
vt 0.700684 0.275391 0.000000
vt 0.677002 0.054932 0.000000
vt 0.574707 0.000000 0.000000
vt 0.700684 0.000000 0.000000
vt 0.637695 0.480225 0.000000
vt 0.495850 0.480225 0.000000
vt 0.614014 0.362061 0.000000
vt 0.574707 0.196777 0.000000
vt 0.495850 0.000000 0.000000
vt 0.637695 0.117920 0.000000
vt 0.850342 0.243896 0.000000
vt 0.881836 0.212402 0.000000
vt 0.976318 0.243896 0.000000
vt 0.976318 0.480225 0.000000
vt 0.850342 0.362061 0.000000
vt 0.850342 0.299072 0.000000
vt 0.976318 0.117920 0.000000
vt 0.818848 0.054932 0.000000
vt 0.850342 0.000000 0.000000
vt 0.802979 0.440918 0.000000
vt 0.724365 0.425049 0.000000
vt 0.755859 0.393555 0.000000
vt 0.755859 0.330566 0.000000
vt 0.755859 0.299072 0.000000
vt 0.787354 0.362061 0.000000
vt 0.724365 0.054932 0.000000
vt 0.755859 0.086426 0.000000
vt 0.724365 0.086426 0.000000
vt 0.724365 0.117920 0.000000
vt 0.755859 0.149414 0.000000
vt 0.724365 0.149414 0.000000
vt 0.637695 0.267578 0.000000
vt 0.637695 0.236084 0.000000
vt 0.669189 0.267578 0.000000
vt 0.724365 0.212402 0.000000
vt 0.724365 0.180908 0.000000
vt 0.755859 0.212402 0.000000
vt 0.669189 0.299072 0.000000
vt 0.700684 0.299072 0.000000
vt 0.669189 0.330566 0.000000
vt 0.637695 0.117920 0.000000
vt 0.645508 0.157471 0.000000
vt 0.574707 0.196777 0.000000
vt 0.771484 0.031494 0.000000
vt 0.755859 0.000000 0.000000
vt 0.850342 0.000000 0.000000
vt 0.850342 0.299072 0.000000
vt 0.818848 0.243896 0.000000
vt 0.850342 0.243896 0.000000
vt 0.637695 0.480225 0.000000
vt 0.614014 0.362061 0.000000
vt 0.669189 0.393555 0.000000
vt 0.637695 0.086426 0.000000
vt 0.574707 0.000000 0.000000
vt 0.677002 0.054932 0.000000
vt 0.850342 0.480225 0.000000
vt 0.834473 0.425049 0.000000
vt 0.976318 0.480225 0.000000
vt 0.858154 0.149414 0.000000
vt 0.818848 0.117920 0.000000
vt 0.818848 0.054932 0.000000
vt 0.724365 0.149414 0.000000
vt 0.755859 0.149414 0.000000
vt 0.755859 0.180908 0.000000
vt 0.661377 0.173096 0.000000
vt 0.700684 0.180908 0.000000
vt 0.669189 0.212402 0.000000
vt 0.700684 0.275391 0.000000
vt 0.724365 0.275391 0.000000
vt 0.700684 0.299072 0.000000
vt 0.700684 0.330566 0.000000
vt 0.700684 0.362061 0.000000
vt 0.669189 0.362061 0.000000
vt 0.700684 0.212402 0.000000
vt 0.724365 0.212402 0.000000
vt 0.700684 0.243896 0.000000
vt 0.724365 0.054932 0.000000
vt 0.724365 0.086426 0.000000
vt 0.700684 0.086426 0.000000
vt 0.850342 0.362061 0.000000
vt 0.787354 0.330566 0.000000
vt 0.787354 0.299072 0.000000
vt 0.858154 0.149414 0.000000
vt 0.850342 0.180908 0.000000
vt 0.787354 0.180908 0.000000
vt 0.732178 0.023438 0.000000
vt 0.700684 0.000000 0.000000
vt 0.755859 0.000000 0.000000
vt 0.771484 0.031494 0.000000
vt 0.795166 0.047119 0.000000
vt 0.755859 0.054932 0.000000
vt 0.787354 0.480225 0.000000
vt 0.724365 0.456543 0.000000
vt 0.724365 0.425049 0.000000
vt 0.637695 0.086426 0.000000
vt 0.637695 0.117920 0.000000
vt 0.495850 0.000000 0.000000
vt 0.598389 0.243896 0.000000
vt 0.598389 0.306885 0.000000
vt 0.495850 0.243896 0.000000
vt 0.881836 0.212402 0.000000
vt 0.897461 0.173096 0.000000
vt 0.976318 0.243896 0.000000
vt 0.637695 0.086426 0.000000
vt 0.677002 0.054932 0.000000
vt 0.669189 0.086426 0.000000
vt 0.645508 0.157471 0.000000
vt 0.669189 0.117920 0.000000
vt 0.653320 0.165283 0.000000
vt 0.637695 0.236084 0.000000
vt 0.669189 0.212402 0.000000
vt 0.669189 0.236084 0.000000
vt 0.700684 0.117920 0.000000
vt 0.724365 0.117920 0.000000
vt 0.724365 0.149414 0.000000
vt 0.732178 0.023438 0.000000
vt 0.724365 0.054932 0.000000
vt 0.700684 0.054932 0.000000
vt 0.724365 0.362061 0.000000
vt 0.755859 0.393555 0.000000
vt 0.724365 0.393555 0.000000
vt 0.724365 0.180908 0.000000
vt 0.755859 0.180908 0.000000
vt 0.755859 0.212402 0.000000
vt 0.614014 0.212402 0.000000
vt 0.574707 0.196777 0.000000
vt 0.621826 0.196777 0.000000
vt 0.669189 0.440918 0.000000
vt 0.700684 0.456543 0.000000
vt 0.637695 0.480225 0.000000
vt 0.976318 0.243896 0.000000
vt 0.850342 0.299072 0.000000
vt 0.850342 0.243896 0.000000
vt 0.976318 0.480225 0.000000
vt 0.834473 0.425049 0.000000
vt 0.850342 0.362061 0.000000
vt 0.858154 0.149414 0.000000
vt 0.818848 0.054932 0.000000
vt 0.976318 0.117920 0.000000
vt 0.771484 0.031494 0.000000
vt 0.850342 0.000000 0.000000
vt 0.795166 0.047119 0.000000
vt 0.637695 0.299072 0.000000
vt 0.669189 0.267578 0.000000
vt 0.669189 0.299072 0.000000
vt 0.755859 0.086426 0.000000
vt 0.755859 0.054932 0.000000
vt 0.787354 0.086426 0.000000
vt 0.724365 0.243896 0.000000
vt 0.755859 0.243896 0.000000
vt 0.724365 0.275391 0.000000
vt 0.669189 0.236084 0.000000
vt 0.700684 0.243896 0.000000
vt 0.700684 0.275391 0.000000
vt 0.724365 0.330566 0.000000
vt 0.724365 0.299072 0.000000
vt 0.755859 0.330566 0.000000
vt 0.614014 0.212402 0.000000
vt 0.661377 0.173096 0.000000
vt 0.669189 0.212402 0.000000
vt 0.637695 0.086426 0.000000
vt 0.669189 0.086426 0.000000
vt 0.637695 0.117920 0.000000
vt 0.787354 0.212402 0.000000
vt 0.787354 0.180908 0.000000
vt 0.826660 0.204590 0.000000
vt 0.653320 0.165283 0.000000
vt 0.669189 0.117920 0.000000
vt 0.700684 0.149414 0.000000
vt 0.724365 0.117920 0.000000
vt 0.755859 0.117920 0.000000
vt 0.755859 0.149414 0.000000
vt 0.850342 0.362061 0.000000
vt 0.787354 0.362061 0.000000
vt 0.787354 0.330566 0.000000
vt 0.787354 0.149414 0.000000
vt 0.787354 0.117920 0.000000
vt 0.818848 0.117920 0.000000
vt 0.771484 0.031494 0.000000
vt 0.732178 0.023438 0.000000
vt 0.755859 0.000000 0.000000
vt 0.669189 0.362061 0.000000
vt 0.669189 0.393555 0.000000
vt 0.614014 0.362061 0.000000
vt 0.976318 0.117920 0.000000
vt 0.897461 0.173096 0.000000
vt 0.858154 0.149414 0.000000
vt 0.787354 0.480225 0.000000
vt 0.724365 0.425049 0.000000
vt 0.802979 0.440918 0.000000
vt 0.755859 0.180908 0.000000
vt 0.787354 0.212402 0.000000
vt 0.755859 0.212402 0.000000
vt 0.700684 0.243896 0.000000
vt 0.724365 0.212402 0.000000
vt 0.724365 0.243896 0.000000
vt 0.787354 0.243896 0.000000
vt 0.826660 0.204590 0.000000
vt 0.818848 0.243896 0.000000
vt 0.700684 0.086426 0.000000
vt 0.700684 0.117920 0.000000
vt 0.669189 0.117920 0.000000
vt 0.724365 0.275391 0.000000
vt 0.755859 0.299072 0.000000
vt 0.724365 0.299072 0.000000
vt 0.677002 0.054932 0.000000
vt 0.700684 0.054932 0.000000
vt 0.669189 0.086426 0.000000
vt 0.637695 0.330566 0.000000
vt 0.669189 0.299072 0.000000
vt 0.669189 0.330566 0.000000
vt 0.755859 0.054932 0.000000
vt 0.795166 0.047119 0.000000
vt 0.787354 0.086426 0.000000
vt 0.700684 0.456543 0.000000
vt 0.724365 0.456543 0.000000
vt 0.700684 0.480225 0.000000
vt 0.755859 0.086426 0.000000
vt 0.787354 0.117920 0.000000
vt 0.755859 0.117920 0.000000
vt 0.724365 0.362061 0.000000
vt 0.724365 0.393555 0.000000
vt 0.700684 0.393555 0.000000
vt 0.700684 0.149414 0.000000
vt 0.700684 0.180908 0.000000
vt 0.661377 0.173096 0.000000
vt 0.850342 0.362061 0.000000
vt 0.787354 0.299072 0.000000
vt 0.850342 0.299072 0.000000
vt 0.787354 0.180908 0.000000
vt 0.818848 0.117920 0.000000
vt 0.858154 0.149414 0.000000
vt 0.881836 0.212402 0.000000
vt 0.850342 0.180908 0.000000
vt 0.897461 0.173096 0.000000
vt 0.637695 0.236084 0.000000
vt 0.598389 0.243896 0.000000
vt 0.614014 0.212402 0.000000
vt 0.850342 0.480225 0.000000
vt 0.787354 0.480225 0.000000
vt 0.802979 0.440918 0.000000
vt 0.724365 0.086426 0.000000
vt 0.755859 0.086426 0.000000
vt 0.755859 0.117920 0.000000
vt 0.826660 0.204590 0.000000
vt 0.881836 0.212402 0.000000
vt 0.850342 0.243896 0.000000
vt 0.614014 0.362061 0.000000
vt 0.669189 0.330566 0.000000
vt 0.669189 0.362061 0.000000
vt 0.724365 0.149414 0.000000
vt 0.755859 0.180908 0.000000
vt 0.724365 0.180908 0.000000
vt 0.669189 0.212402 0.000000
vt 0.700684 0.212402 0.000000
vt 0.669189 0.236084 0.000000
vt 0.700684 0.456543 0.000000
vt 0.724365 0.425049 0.000000
vt 0.724365 0.456543 0.000000
vt 0.669189 0.086426 0.000000
vt 0.700684 0.086426 0.000000
vt 0.669189 0.117920 0.000000
vt 0.755859 0.243896 0.000000
vt 0.755859 0.275391 0.000000
vt 0.724365 0.275391 0.000000
vt 0.850342 0.362061 0.000000
vt 0.787354 0.299072 0.000000
vt 0.850342 0.299072 0.000000
vt 0.897461 0.173096 0.000000
vt 0.850342 0.180908 0.000000
vt 0.858154 0.149414 0.000000
vt 0.787354 0.180908 0.000000
vt 0.787354 0.149414 0.000000
vt 0.818848 0.117920 0.000000
vt 0.645508 0.157471 0.000000
vt 0.621826 0.196777 0.000000
vt 0.574707 0.196777 0.000000
vt 0.637695 0.236084 0.000000
vt 0.637695 0.267578 0.000000
vt 0.598389 0.243896 0.000000
vt 0.771484 0.031494 0.000000
vt 0.755859 0.054932 0.000000
vt 0.732178 0.023438 0.000000
vt 0.787354 0.393555 0.000000
vt 0.834473 0.425049 0.000000
vt 0.802979 0.440918 0.000000
vt 0.755859 0.275391 0.000000
vt 0.787354 0.275391 0.000000
vt 0.787354 0.299072 0.000000
vt 0.700684 0.086426 0.000000
vt 0.724365 0.086426 0.000000
vt 0.700684 0.117920 0.000000
vt 0.700684 0.180908 0.000000
vt 0.700684 0.149414 0.000000
vt 0.724365 0.180908 0.000000
vt 0.787354 0.086426 0.000000
vt 0.795166 0.047119 0.000000
vt 0.818848 0.117920 0.000000
vt 0.755859 0.243896 0.000000
vt 0.755859 0.212402 0.000000
vt 0.787354 0.243896 0.000000
vt 0.669189 0.440918 0.000000
vt 0.669189 0.393555 0.000000
vt 0.700684 0.417236 0.000000
vt 0.637695 0.117920 0.000000
vt 0.669189 0.086426 0.000000
vt 0.669189 0.117920 0.000000
vt 0.669189 0.330566 0.000000
vt 0.700684 0.330566 0.000000
vt 0.669189 0.362061 0.000000
vt 0.724365 0.054932 0.000000
vt 0.755859 0.054932 0.000000
vt 0.755859 0.086426 0.000000
vt 0.637695 0.236084 0.000000
vt 0.669189 0.236084 0.000000
vt 0.669189 0.267578 0.000000
vt 0.724365 0.330566 0.000000
vt 0.755859 0.330566 0.000000
vt 0.755859 0.362061 0.000000
vt 0.787354 0.180908 0.000000
vt 0.850342 0.180908 0.000000
vt 0.826660 0.204590 0.000000
vt 0.834473 0.425049 0.000000
vt 0.787354 0.393555 0.000000
vt 0.850342 0.362061 0.000000
vt 0.574707 0.196777 0.000000
vt 0.614014 0.212402 0.000000
vt 0.598389 0.243896 0.000000
vt 0.700684 0.480225 0.000000
vt 0.724365 0.456543 0.000000
vt 0.787354 0.480225 0.000000
vt 0.669189 0.362061 0.000000
vt 0.700684 0.362061 0.000000
vt 0.669189 0.393555 0.000000
vt 0.700684 0.417236 0.000000
vt 0.724365 0.425049 0.000000
vt 0.700684 0.456543 0.000000
vt 0.755859 0.243896 0.000000
vt 0.787354 0.243896 0.000000
vt 0.787354 0.275391 0.000000
vt 0.645508 0.157471 0.000000
vt 0.653320 0.165283 0.000000
vt 0.621826 0.196777 0.000000
vt 0.700684 0.299072 0.000000
vt 0.724365 0.299072 0.000000
vt 0.700684 0.330566 0.000000
vt 0.724365 0.054932 0.000000
vt 0.732178 0.023438 0.000000
vt 0.755859 0.054932 0.000000
vt 0.700684 0.117920 0.000000
vt 0.724365 0.086426 0.000000
vt 0.724365 0.117920 0.000000
vt 0.755859 0.149414 0.000000
vt 0.787354 0.180908 0.000000
vt 0.755859 0.180908 0.000000
vt 0.755859 0.117920 0.000000
vt 0.787354 0.117920 0.000000
vt 0.787354 0.149414 0.000000
vt 0.755859 0.299072 0.000000
vt 0.787354 0.330566 0.000000
vt 0.787354 0.362061 0.000000
vt 0.700684 0.180908 0.000000
vt 0.724365 0.180908 0.000000
vt 0.700684 0.212402 0.000000
vt 0.850342 0.180908 0.000000
vt 0.881836 0.212402 0.000000
vt 0.826660 0.204590 0.000000
vt 0.637695 0.299072 0.000000
vt 0.598389 0.306885 0.000000
vt 0.598389 0.243896 0.000000
vt 0.818848 0.117920 0.000000
vt 0.795166 0.047119 0.000000
vt 0.818848 0.054932 0.000000
vt 0.802979 0.440918 0.000000
vt 0.755859 0.393555 0.000000
vt 0.787354 0.393555 0.000000
vt 0.724365 0.362061 0.000000
vt 0.724365 0.330566 0.000000
vt 0.755859 0.362061 0.000000
vt 0.614014 0.212402 0.000000
vt 0.669189 0.212402 0.000000
vt 0.637695 0.236084 0.000000
vt 0.724365 0.212402 0.000000
vt 0.755859 0.212402 0.000000
vt 0.755859 0.243896 0.000000
vt 0.700684 0.299072 0.000000
vt 0.700684 0.330566 0.000000
vt 0.669189 0.330566 0.000000
vt 0.755859 0.086426 0.000000
vt 0.787354 0.086426 0.000000
vt 0.787354 0.117920 0.000000
vt 0.700684 0.054932 0.000000
vt 0.724365 0.054932 0.000000
vt 0.700684 0.086426 0.000000
vt 0.755859 0.299072 0.000000
vt 0.787354 0.299072 0.000000
vt 0.787354 0.330566 0.000000
vt 0.826660 0.204590 0.000000
vt 0.850342 0.243896 0.000000
vt 0.818848 0.243896 0.000000
vt 0.669189 0.117920 0.000000
vt 0.700684 0.117920 0.000000
vt 0.700684 0.149414 0.000000
vt 0.669189 0.393555 0.000000
vt 0.700684 0.393555 0.000000
vt 0.700684 0.417236 0.000000
vt 0.700684 0.275391 0.000000
vt 0.724365 0.243896 0.000000
vt 0.724365 0.275391 0.000000
vt 0.598389 0.243896 0.000000
vt 0.637695 0.267578 0.000000
vt 0.637695 0.299072 0.000000
vt 0.637695 0.117920 0.000000
vt 0.669189 0.117920 0.000000
vt 0.645508 0.157471 0.000000
vt 0.700684 0.117920 0.000000
vt 0.724365 0.149414 0.000000
vt 0.700684 0.149414 0.000000
vt 0.700684 0.362061 0.000000
vt 0.700684 0.393555 0.000000
vt 0.669189 0.393555 0.000000
vt 0.787354 0.117920 0.000000
vt 0.787354 0.086426 0.000000
vt 0.818848 0.117920 0.000000
vt 0.669189 0.236084 0.000000
vt 0.700684 0.212402 0.000000
vt 0.700684 0.243896 0.000000
vt 0.669189 0.299072 0.000000
vt 0.700684 0.275391 0.000000
vt 0.700684 0.299072 0.000000
vt 0.755859 0.362061 0.000000
vt 0.787354 0.362061 0.000000
vt 0.787354 0.393555 0.000000
vt 0.787354 0.299072 0.000000
vt 0.787354 0.275391 0.000000
vt 0.818848 0.243896 0.000000
vt 0.637695 0.299072 0.000000
vt 0.637695 0.330566 0.000000
vt 0.598389 0.306885 0.000000
vt 0.700684 0.054932 0.000000
vt 0.677002 0.054932 0.000000
vt 0.732178 0.023438 0.000000
vt 0.700684 0.417236 0.000000
vt 0.700684 0.456543 0.000000
vt 0.669189 0.440918 0.000000
vt 0.700684 0.212402 0.000000
vt 0.724365 0.180908 0.000000
vt 0.724365 0.212402 0.000000
vt 0.755859 0.362061 0.000000
vt 0.755859 0.330566 0.000000
vt 0.787354 0.362061 0.000000
vt 0.755859 0.299072 0.000000
vt 0.755859 0.275391 0.000000
vt 0.787354 0.299072 0.000000
vt 0.637695 0.267578 0.000000
vt 0.669189 0.267578 0.000000
vt 0.637695 0.299072 0.000000
vt 0.621826 0.196777 0.000000
vt 0.653320 0.165283 0.000000
vt 0.661377 0.173096 0.000000
vt 0.700684 0.299072 0.000000
vt 0.724365 0.275391 0.000000
vt 0.724365 0.299072 0.000000
vt 0.700684 0.330566 0.000000
vt 0.724365 0.330566 0.000000
vt 0.724365 0.362061 0.000000
vt 0.700684 0.417236 0.000000
vt 0.724365 0.393555 0.000000
vt 0.724365 0.425049 0.000000
vt 0.818848 0.243896 0.000000
vt 0.787354 0.275391 0.000000
vt 0.787354 0.243896 0.000000
vt 0.598389 0.306885 0.000000
vt 0.637695 0.330566 0.000000
vt 0.614014 0.362061 0.000000
vt 0.653320 0.165283 0.000000
vt 0.700684 0.149414 0.000000
vt 0.661377 0.173096 0.000000
vt 0.700684 0.393555 0.000000
vt 0.724365 0.393555 0.000000
vt 0.700684 0.417236 0.000000
vt 0.669189 0.267578 0.000000
vt 0.700684 0.275391 0.000000
vt 0.669189 0.299072 0.000000
vt 0.724365 0.362061 0.000000
vt 0.755859 0.362061 0.000000
vt 0.755859 0.393555 0.000000
vt 0.724365 0.299072 0.000000
vt 0.755859 0.299072 0.000000
vt 0.755859 0.330566 0.000000
vt 0.637695 0.330566 0.000000
vt 0.669189 0.330566 0.000000
vt 0.614014 0.362061 0.000000
vt 0.787354 0.275391 0.000000
vt 0.787354 0.243896 0.000000
vt 0.818848 0.243896 0.000000
vt 0.755859 0.275391 0.000000
vt 0.755859 0.243896 0.000000
vt 0.787354 0.275391 0.000000
vt 0.700684 0.362061 0.000000
vt 0.724365 0.362061 0.000000
vt 0.700684 0.393555 0.000000
vt 0.787354 0.212402 0.000000
vt 0.826660 0.204590 0.000000
vt 0.787354 0.243896 0.000000
vt 0.724365 0.425049 0.000000
vt 0.724365 0.393555 0.000000
vt 0.755859 0.393555 0.000000
vn -1.000000 0.000000 0.000000
vn -1.000000 0.000000 0.000000
vn -1.000000 0.000000 0.000000
vn 0.015381 -0.004883 0.999756
vn 0.015381 -0.004883 0.999756
vn 0.015381 -0.004883 0.999756
vn 0.000000 -0.001221 0.999756
vn 0.000000 -0.001221 0.999756
vn 0.000000 -0.001221 0.999756
vn 0.000000 -0.019531 0.999756
vn 0.000000 -0.019531 0.999756
vn 0.000000 -0.019531 0.999756
vn 0.000000 -0.001221 0.999756
vn 0.000000 -0.001221 0.999756
vn 0.000000 -0.001221 0.999756
vn -0.016846 -0.004883 0.999756
vn -0.016846 -0.004883 0.999756
vn -0.016846 -0.004883 0.999756
vn 0.004150 -0.005371 0.999756
vn 0.004150 -0.005371 0.999756
vn 0.004150 -0.005371 0.999756
vn -1.000000 0.000000 0.000000
vn -1.000000 0.000000 0.000000
vn -1.000000 0.000000 0.000000
vn 0.000000 0.000000 1.000000
vn 0.000000 0.000000 1.000000
vn 0.000000 0.000000 1.000000
vn 0.000000 0.000000 1.000000
vn 0.000000 0.000000 1.000000
vn 0.000000 0.000000 1.000000
vn 1.000000 0.000000 0.000000
vn 1.000000 0.000000 0.000000
vn 1.000000 0.000000 0.000000
vn 0.000000 0.956543 0.291260
vn 0.000000 0.956543 0.291260
vn 0.000000 0.956543 0.291260
vn 0.000000 -0.019531 0.999756
vn 0.000000 -0.019531 0.999756
vn 0.000000 -0.019531 0.999756
vn 0.000000 0.956543 0.291260
vn 0.000000 0.956543 0.291260
vn 0.000000 0.956543 0.291260
vn -0.004639 -0.005371 0.999756
vn -0.004639 -0.005371 0.999756
vn -0.004639 -0.005371 0.999756
vn 0.000000 -0.999756 -0.020752
vn 0.000000 -0.999756 -0.020752
vn 0.000000 -0.999756 -0.020752
vn 0.000000 -0.999756 -0.020752
vn 0.000000 -0.999756 -0.020752
vn 0.000000 -0.999756 -0.020752
vn 1.000000 0.000000 0.000000
vn 1.000000 0.000000 0.000000
vn 1.000000 0.000000 0.000000
vn 0.000000 0.007324 -0.999756
vn 0.000000 0.007324 -0.999756
vn 0.000000 0.007324 -0.999756
vn 1.000000 0.000000 0.000000
vn 1.000000 0.000000 0.000000
vn 1.000000 0.000000 0.000000
vn 0.000000 0.007324 -0.999756
vn 0.000000 0.007324 -0.999756
vn 0.000000 0.007324 -0.999756
vn -1.000000 0.000000 0.000000
vn -1.000000 0.000000 0.000000
vn -1.000000 0.000000 0.000000
vn -1.000000 0.000000 0.000000
vn -1.000000 0.000000 0.000000
vn -1.000000 0.000000 0.000000
vn 1.000000 0.000000 0.000000
vn 1.000000 0.000000 0.000000
vn 1.000000 0.000000 0.000000
vn 0.000000 -0.999756 0.002930
vn 0.000000 -0.999756 0.002930
vn 0.000000 -0.999756 0.002930
vn 0.000000 0.999512 -0.025879
vn 0.000000 0.999512 -0.025879
vn 0.000000 0.999512 -0.025879
vn 0.000000 0.999512 -0.025879
vn 0.000000 0.999512 -0.025879
vn 0.000000 0.999512 -0.025879
vn 0.000000 -0.999756 0.002930
vn 0.000000 -0.999756 0.002930
vn 0.000000 -0.999756 0.002930
vn -0.075439 -0.321289 0.943848
vn -0.075439 -0.321289 0.943848
vn -0.075439 -0.321289 0.943848
vn 0.052979 -0.052979 0.997070
vn 0.052979 -0.052979 0.997070
vn 0.052979 -0.052979 0.997070
vn 0.000000 0.000000 1.000000
vn 0.000000 0.000000 1.000000
vn 0.000000 0.000000 1.000000
vn -0.728760 -0.176025 0.661377
vn -0.728760 -0.176025 0.661377
vn -0.728760 -0.176025 0.661377
vn -0.643799 0.020264 0.764893
vn -0.643799 0.020264 0.764893
vn -0.643799 0.020264 0.764893
vn 0.146729 0.600342 0.786133
vn 0.146729 0.600342 0.786133
vn 0.146729 0.600342 0.786133
vn 0.546143 0.191162 0.815430
vn 0.546143 0.191162 0.815430
vn 0.546143 0.191162 0.815430
vn 0.156982 0.104736 0.981934
vn 0.156982 0.104736 0.981934
vn 0.156982 0.104736 0.981934
vn 0.000000 0.000000 1.000000
vn 0.000000 0.000000 1.000000
vn 0.000000 0.000000 1.000000
vn 0.108643 -0.039307 0.993164
vn 0.108643 -0.039307 0.993164
vn 0.108643 -0.039307 0.993164
vn 0.013184 -0.006592 0.999756
vn 0.013184 -0.006592 0.999756
vn 0.013184 -0.006592 0.999756
vn 0.000000 0.033203 0.999268
vn 0.000000 0.033203 0.999268
vn 0.000000 0.033203 0.999268
vn 0.000000 0.000000 1.000000
vn 0.000000 0.000000 1.000000
vn 0.000000 0.000000 1.000000
vn 0.000000 0.000000 1.000000
vn 0.000000 0.000000 1.000000
vn 0.000000 0.000000 1.000000
vn 0.000000 0.000000 1.000000
vn 0.000000 0.000000 1.000000
vn 0.000000 0.000000 1.000000
vn 0.022461 0.011230 0.999512
vn 0.022461 0.011230 0.999512
vn 0.022461 0.011230 0.999512
vn 0.052734 0.135986 0.989258
vn 0.052734 0.135986 0.989258
vn 0.052734 0.135986 0.989258
vn -0.076416 -0.280518 0.956543
vn -0.076416 -0.280518 0.956543
vn -0.076416 -0.280518 0.956543
vn -0.058838 0.085449 0.994385
vn -0.058838 0.085449 0.994385
vn -0.058838 0.085449 0.994385
vn 0.291504 0.291504 0.910889
vn 0.291504 0.291504 0.910889
vn 0.291504 0.291504 0.910889
vn -0.478271 0.325928 0.815186
vn -0.478271 0.325928 0.815186
vn -0.478271 0.325928 0.815186
vn 0.014648 -0.045654 0.998779
vn 0.014648 -0.045654 0.998779
vn 0.014648 -0.045654 0.998779
vn 0.000000 0.000000 1.000000
vn 0.000000 0.000000 1.000000
vn 0.000000 0.000000 1.000000
vn -0.024170 0.000000 0.999512
vn -0.024170 0.000000 0.999512
vn -0.024170 0.000000 0.999512
vn 0.000000 0.000000 1.000000
vn 0.000000 0.000000 1.000000
vn 0.000000 0.000000 1.000000
vn 0.000000 0.000000 1.000000
vn 0.000000 0.000000 1.000000
vn 0.000000 0.000000 1.000000
vn 0.000000 0.000000 1.000000
vn 0.000000 0.000000 1.000000
vn 0.000000 0.000000 1.000000
vn 0.003662 -0.003662 0.999756
vn 0.003662 -0.003662 0.999756
vn 0.003662 -0.003662 0.999756
vn -0.451660 -0.703125 0.549072
vn -0.451660 -0.703125 0.549072
vn -0.451660 -0.703125 0.549072
vn -0.052979 0.052979 0.997070
vn -0.052979 0.052979 0.997070
vn -0.052979 0.052979 0.997070
vn -0.357422 0.500000 0.788574
vn -0.357422 0.500000 0.788574
vn -0.357422 0.500000 0.788574
vn 0.754883 0.034912 0.654785
vn 0.754883 0.034912 0.654785
vn 0.754883 0.034912 0.654785
vn 0.000000 0.000000 1.000000
vn 0.000000 0.000000 1.000000
vn 0.000000 0.000000 1.000000
vn 0.000000 0.000000 1.000000
vn 0.000000 0.000000 1.000000
vn 0.000000 0.000000 1.000000
vn 0.000000 0.000000 1.000000
vn 0.000000 0.000000 1.000000
vn 0.000000 0.000000 1.000000
vn 0.019775 -0.031494 0.999268
vn 0.019775 -0.031494 0.999268
vn 0.019775 -0.031494 0.999268
vn 0.000000 0.000000 1.000000
vn 0.000000 0.000000 1.000000
vn 0.000000 0.000000 1.000000
vn 0.000000 0.000000 1.000000
vn 0.000000 0.000000 1.000000
vn 0.000000 0.000000 1.000000
vn -0.173584 0.501465 0.847412
vn -0.173584 0.501465 0.847412
vn -0.173584 0.501465 0.847412
vn 0.229248 -0.103027 0.967773
vn 0.229248 -0.103027 0.967773
vn 0.229248 -0.103027 0.967773
vn -0.053223 0.000000 0.998535
vn -0.053223 0.000000 0.998535
vn -0.053223 0.000000 0.998535
vn -0.152100 0.269287 0.950928
vn -0.152100 0.269287 0.950928
vn -0.152100 0.269287 0.950928
vn 0.157471 -0.078613 0.984131
vn 0.157471 -0.078613 0.984131
vn 0.157471 -0.078613 0.984131
vn 0.255371 -0.127686 0.958252
vn 0.255371 -0.127686 0.958252
vn 0.255371 -0.127686 0.958252
vn 0.598389 0.568359 0.564453
vn 0.598389 0.568359 0.564453
vn 0.598389 0.568359 0.564453
vn -0.052246 -0.039307 0.997803
vn -0.052246 -0.039307 0.997803
vn -0.052246 -0.039307 0.997803
vn 0.000000 0.000000 1.000000
vn 0.000000 0.000000 1.000000
vn 0.000000 0.000000 1.000000
vn -0.079590 0.039795 0.995850
vn -0.079590 0.039795 0.995850
vn -0.079590 0.039795 0.995850
vn -0.015869 0.002930 0.999756
vn -0.015869 0.002930 0.999756
vn -0.015869 0.002930 0.999756
vn 0.000000 0.000000 1.000000
vn 0.000000 0.000000 1.000000
vn 0.000000 0.000000 1.000000
vn 0.000000 0.000000 1.000000
vn 0.000000 0.000000 1.000000
vn 0.000000 0.000000 1.000000
vn 0.064209 -0.026367 0.997559
vn 0.064209 -0.026367 0.997559
vn 0.064209 -0.026367 0.997559
vn -0.144043 0.408447 0.901123
vn -0.144043 0.408447 0.901123
vn -0.144043 0.408447 0.901123
vn -0.138184 -0.376953 0.915771
vn -0.138184 -0.376953 0.915771
vn -0.138184 -0.376953 0.915771
vn 0.154541 0.206055 0.966064
vn 0.154541 0.206055 0.966064
vn 0.154541 0.206055 0.966064
vn -0.137939 0.026367 0.989990
vn -0.137939 0.026367 0.989990
vn -0.137939 0.026367 0.989990
vn 0.433350 0.248779 0.865967
vn 0.433350 0.248779 0.865967
vn 0.433350 0.248779 0.865967
vn 0.187744 0.000000 0.982178
vn 0.187744 0.000000 0.982178
vn 0.187744 0.000000 0.982178
vn 0.010254 0.002930 0.999756
vn 0.010254 0.002930 0.999756
vn 0.010254 0.002930 0.999756
vn 0.122070 -0.379639 0.916748
vn 0.122070 -0.379639 0.916748
vn 0.122070 -0.379639 0.916748
vn 0.000000 0.000000 1.000000
vn 0.000000 0.000000 1.000000
vn 0.000000 0.000000 1.000000
vn 0.435791 -0.516846 0.736572
vn 0.435791 -0.516846 0.736572
vn 0.435791 -0.516846 0.736572
vn 0.009277 -0.023438 0.999512
vn 0.009277 -0.023438 0.999512
vn 0.009277 -0.023438 0.999512
vn 0.000000 0.000000 1.000000
vn 0.000000 0.000000 1.000000
vn 0.000000 0.000000 1.000000
vn 0.000000 0.000000 1.000000
vn 0.000000 0.000000 1.000000
vn 0.000000 0.000000 1.000000
vn 0.015137 -0.017822 0.999512
vn 0.015137 -0.017822 0.999512
vn 0.015137 -0.017822 0.999512
vn 0.000000 0.000000 1.000000
vn 0.000000 0.000000 1.000000
vn 0.000000 0.000000 1.000000
vn -0.037109 -0.073975 0.996338
vn -0.037109 -0.073975 0.996338
vn -0.037109 -0.073975 0.996338
vn 0.021240 -0.604004 0.796631
vn 0.021240 -0.604004 0.796631
vn 0.021240 -0.604004 0.796631
vn 0.000000 0.272461 0.961914
vn 0.000000 0.272461 0.961914
vn 0.000000 0.272461 0.961914
vn -0.078125 -0.685791 0.723389
vn -0.078125 -0.685791 0.723389
vn -0.078125 -0.685791 0.723389
vn -0.100586 0.313232 0.944092
vn -0.100586 0.313232 0.944092
vn -0.100586 0.313232 0.944092
vn -0.103027 0.231934 0.967041
vn -0.103027 0.231934 0.967041
vn -0.103027 0.231934 0.967041
vn -0.049805 -0.742432 0.667725
vn -0.049805 -0.742432 0.667725
vn -0.049805 -0.742432 0.667725
vn -0.007568 0.013916 0.999756
vn -0.007568 0.013916 0.999756
vn -0.007568 0.013916 0.999756
vn 0.019775 0.039795 0.998779
vn 0.019775 0.039795 0.998779
vn 0.019775 0.039795 0.998779
vn 0.000000 0.000000 1.000000
vn 0.000000 0.000000 1.000000
vn 0.000000 0.000000 1.000000
vn 0.000000 0.000000 1.000000
vn 0.000000 0.000000 1.000000
vn 0.000000 0.000000 1.000000
vn -0.013184 -0.033936 0.999268
vn -0.013184 -0.033936 0.999268
vn -0.013184 -0.033936 0.999268
vn 0.179443 0.205078 0.961914
vn 0.179443 0.205078 0.961914
vn 0.179443 0.205078 0.961914
vn -0.145996 -0.052490 0.987793
vn -0.145996 -0.052490 0.987793
vn -0.145996 -0.052490 0.987793
vn 0.156006 0.156006 0.975342
vn 0.156006 0.156006 0.975342
vn 0.156006 0.156006 0.975342
vn 0.633789 0.235596 0.736572
vn 0.633789 0.235596 0.736572
vn 0.633789 0.235596 0.736572
vn 0.126709 -0.279053 0.951660
vn 0.126709 -0.279053 0.951660
vn 0.126709 -0.279053 0.951660
vn -0.143555 -0.376221 0.915039
vn -0.143555 -0.376221 0.915039
vn -0.143555 -0.376221 0.915039
vn 0.000000 0.000000 1.000000
vn 0.000000 0.000000 1.000000
vn 0.000000 0.000000 1.000000
vn 0.159912 0.528320 0.833496
vn 0.159912 0.528320 0.833496
vn 0.159912 0.528320 0.833496
vn 0.055420 -0.055420 0.996826
vn 0.055420 -0.055420 0.996826
vn 0.055420 -0.055420 0.996826
vn 0.000000 0.136230 0.990479
vn 0.000000 0.136230 0.990479
vn 0.000000 0.136230 0.990479
vn 0.014648 -0.005859 0.999756
vn 0.014648 -0.005859 0.999756
vn 0.014648 -0.005859 0.999756
vn 0.698486 0.275879 0.660156
vn 0.698486 0.275879 0.660156
vn 0.698486 0.275879 0.660156
vn 0.000000 0.000000 1.000000
vn 0.000000 0.000000 1.000000
vn 0.000000 0.000000 1.000000
vn -0.027588 0.025879 0.999268
vn -0.027588 0.025879 0.999268
vn -0.027588 0.025879 0.999268
vn 0.000000 0.000000 1.000000
vn 0.000000 0.000000 1.000000
vn 0.000000 0.000000 1.000000
vn -0.083984 0.080322 0.993164
vn -0.083984 0.080322 0.993164
vn -0.083984 0.080322 0.993164
vn -0.057617 0.232910 0.970703
vn -0.057617 0.232910 0.970703
vn -0.057617 0.232910 0.970703
vn 0.302979 0.100830 0.947510
vn 0.302979 0.100830 0.947510
vn 0.302979 0.100830 0.947510
vn 0.026611 0.005371 0.999512
vn 0.026611 0.005371 0.999512
vn 0.026611 0.005371 0.999512
vn -0.652344 0.149170 0.742920
vn -0.652344 0.149170 0.742920
vn -0.652344 0.149170 0.742920
vn -0.052979 0.052979 0.997070
vn -0.052979 0.052979 0.997070
vn -0.052979 0.052979 0.997070
vn -0.760254 -0.254639 0.597168
vn -0.760254 -0.254639 0.597168
vn -0.760254 -0.254639 0.597168
vn 0.304199 0.675781 0.671143
vn 0.304199 0.675781 0.671143
vn 0.304199 0.675781 0.671143
vn 0.410645 -0.556152 0.722168
vn 0.410645 -0.556152 0.722168
vn 0.410645 -0.556152 0.722168
vn 0.026611 0.033203 0.999023
vn 0.026611 0.033203 0.999023
vn 0.026611 0.033203 0.999023
vn -0.246338 0.051514 0.967773
vn -0.246338 0.051514 0.967773
vn -0.246338 0.051514 0.967773
vn -0.478760 0.276367 0.833008
vn -0.478760 0.276367 0.833008
vn -0.478760 0.276367 0.833008
vn -0.126709 -0.429199 0.894043
vn -0.126709 -0.429199 0.894043
vn -0.126709 -0.429199 0.894043
vn 0.013184 0.000000 0.999756
vn 0.013184 0.000000 0.999756
vn 0.013184 0.000000 0.999756
vn 0.211182 -0.224121 0.951172
vn 0.211182 -0.224121 0.951172
vn 0.211182 -0.224121 0.951172
vn 0.347656 0.077393 0.934326
vn 0.347656 0.077393 0.934326
vn 0.347656 0.077393 0.934326
vn -0.801025 -0.094238 0.590820
vn -0.801025 -0.094238 0.590820
vn -0.801025 -0.094238 0.590820
vn 0.000000 0.104248 0.994385
vn 0.000000 0.104248 0.994385
vn 0.000000 0.104248 0.994385
vn -0.052979 0.052979 0.997070
vn -0.052979 0.052979 0.997070
vn -0.052979 0.052979 0.997070
vn -0.009766 -0.060059 0.998047
vn -0.009766 -0.060059 0.998047
vn -0.009766 -0.060059 0.998047
vn -0.027100 0.005859 0.999512
vn -0.027100 0.005859 0.999512
vn -0.027100 0.005859 0.999512
vn -0.098389 0.369385 0.923828
vn -0.098389 0.369385 0.923828
vn -0.098389 0.369385 0.923828
vn -0.063477 -0.602783 0.795166
vn -0.063477 -0.602783 0.795166
vn -0.063477 -0.602783 0.795166
vn 0.026611 -0.023438 0.999268
vn 0.026611 -0.023438 0.999268
vn 0.026611 -0.023438 0.999268
vn -0.736328 0.000000 0.676270
vn -0.736328 0.000000 0.676270
vn -0.736328 0.000000 0.676270
vn -0.052979 -0.052979 0.997070
vn -0.052979 -0.052979 0.997070
vn -0.052979 -0.052979 0.997070
vn 0.013184 0.000000 0.999756
vn 0.013184 0.000000 0.999756
vn 0.013184 0.000000 0.999756
vn 0.256348 -0.348145 0.901611
vn 0.256348 -0.348145 0.901611
vn 0.256348 -0.348145 0.901611
vn 0.505371 -0.045898 0.861572
vn 0.505371 -0.045898 0.861572
vn 0.505371 -0.045898 0.861572
vn 0.003174 0.048584 0.998779
vn 0.003174 0.048584 0.998779
vn 0.003174 0.048584 0.998779
vn -0.800537 -0.047607 0.596924
vn -0.800537 -0.047607 0.596924
vn -0.800537 -0.047607 0.596924
vn 0.025146 -0.698486 0.714844
vn 0.025146 -0.698486 0.714844
vn 0.025146 -0.698486 0.714844
vn 0.098145 -0.058350 0.993408
vn 0.098145 -0.058350 0.993408
vn 0.098145 -0.058350 0.993408
vn 0.105957 -0.026367 0.993896
vn 0.105957 -0.026367 0.993896
vn 0.105957 -0.026367 0.993896
vn 0.193115 0.193115 0.961670
vn 0.193115 0.193115 0.961670
vn 0.193115 0.193115 0.961670
vn 0.255615 -0.418213 0.871338
vn 0.255615 -0.418213 0.871338
vn 0.255615 -0.418213 0.871338
vn 0.830322 -0.326416 0.451416
vn 0.830322 -0.326416 0.451416
vn 0.830322 -0.326416 0.451416
vn 0.026611 0.000000 0.999512
vn 0.026611 0.000000 0.999512
vn 0.026611 0.000000 0.999512
vn 0.000000 0.000000 1.000000
vn 0.000000 0.000000 1.000000
vn 0.000000 0.000000 1.000000
vn 0.000000 0.000000 1.000000
vn 0.000000 0.000000 1.000000
vn 0.000000 0.000000 1.000000
vn -0.157959 0.005859 0.987305
vn -0.157959 0.005859 0.987305
vn -0.157959 0.005859 0.987305
vn 0.000000 -0.053223 0.998535
vn 0.000000 -0.053223 0.998535
vn 0.000000 -0.053223 0.998535
vn 0.026611 0.053223 0.998047
vn 0.026611 0.053223 0.998047
vn 0.026611 0.053223 0.998047
vn 0.095459 -0.691162 0.716064
vn 0.095459 -0.691162 0.716064
vn 0.095459 -0.691162 0.716064
vn 0.107178 0.583984 0.804443
vn 0.107178 0.583984 0.804443
vn 0.107178 0.583984 0.804443
vn 0.048584 0.015869 0.998535
vn 0.048584 0.015869 0.998535
vn 0.048584 0.015869 0.998535
vn -0.372314 0.233154 0.898193
vn -0.372314 0.233154 0.898193
vn -0.372314 0.233154 0.898193
vn 0.000000 0.000000 1.000000
vn 0.000000 0.000000 1.000000
vn 0.000000 0.000000 1.000000
vn -0.137695 0.038086 0.989502
vn -0.137695 0.038086 0.989502
vn -0.137695 0.038086 0.989502
vn 0.060303 0.010010 0.998047
vn 0.060303 0.010010 0.998047
vn 0.060303 0.010010 0.998047
vn 0.026611 0.026611 0.999268
vn 0.026611 0.026611 0.999268
vn 0.026611 0.026611 0.999268
vn -0.088623 -0.006104 0.995850
vn -0.088623 -0.006104 0.995850
vn -0.088623 -0.006104 0.995850
vn 0.000000 -0.208496 0.977783
vn 0.000000 -0.208496 0.977783
vn 0.000000 -0.208496 0.977783
vn 0.000000 -0.685547 0.727783
vn 0.000000 -0.685547 0.727783
vn 0.000000 -0.685547 0.727783
vn 0.000000 0.000000 1.000000
vn 0.000000 0.000000 1.000000
vn 0.000000 0.000000 1.000000
vn -0.381592 0.381592 0.841797
vn -0.381592 0.381592 0.841797
vn -0.381592 0.381592 0.841797
vn -0.228516 0.375488 0.897949
vn -0.228516 0.375488 0.897949
vn -0.228516 0.375488 0.897949
vn 0.035645 -0.005859 0.999268
vn 0.035645 -0.005859 0.999268
vn 0.035645 -0.005859 0.999268
vn 0.267334 -0.310547 0.911865
vn 0.267334 -0.310547 0.911865
vn 0.267334 -0.310547 0.911865
vn -0.054199 0.476318 0.877441
vn -0.054199 0.476318 0.877441
vn -0.054199 0.476318 0.877441
vn -0.775635 0.000000 0.631104
vn -0.775635 0.000000 0.631104
vn -0.775635 0.000000 0.631104
vn 0.040527 -0.026611 0.998779
vn 0.040527 -0.026611 0.998779
vn 0.040527 -0.026611 0.998779
vn 0.572998 -0.166748 0.802246
vn 0.572998 -0.166748 0.802246
vn 0.572998 -0.166748 0.802246
vn 0.000000 -0.632813 0.774170
vn 0.000000 -0.632813 0.774170
vn 0.000000 -0.632813 0.774170
vn -0.112305 -0.688721 0.716064
vn -0.112305 -0.688721 0.716064
vn -0.112305 -0.688721 0.716064
vn 0.257568 0.000000 0.966064
vn 0.257568 0.000000 0.966064
vn 0.257568 0.000000 0.966064
vn -0.154541 -0.206055 0.966064
vn -0.154541 -0.206055 0.966064
vn -0.154541 -0.206055 0.966064
vn -0.145996 -0.052490 0.987793
vn -0.145996 -0.052490 0.987793
vn -0.145996 -0.052490 0.987793
vn -0.084473 -0.256104 0.962891
vn -0.084473 -0.256104 0.962891
vn -0.084473 -0.256104 0.962891
vn 0.026611 0.002930 0.999512
vn 0.026611 0.002930 0.999512
vn 0.026611 0.002930 0.999512
vn -0.079590 -0.016602 0.996582
vn -0.079590 -0.016602 0.996582
vn -0.079590 -0.016602 0.996582
vn -0.534668 0.534668 0.654053
vn -0.534668 0.534668 0.654053
vn -0.534668 0.534668 0.654053
vn -0.083496 0.102051 0.991211
vn -0.083496 0.102051 0.991211
vn -0.083496 0.102051 0.991211
vn 0.156006 0.156006 0.975342
vn 0.156006 0.156006 0.975342
vn 0.156006 0.156006 0.975342
vn -0.833740 0.101074 0.542480
vn -0.833740 0.101074 0.542480
vn -0.833740 0.101074 0.542480
vn 0.000000 -0.052490 0.998535
vn 0.000000 -0.052490 0.998535
vn 0.000000 -0.052490 0.998535
vn -0.413330 0.576172 0.704590
vn -0.413330 0.576172 0.704590
vn -0.413330 0.576172 0.704590
vn -0.082520 0.093750 0.991943
vn -0.082520 0.093750 0.991943
vn -0.082520 0.093750 0.991943
vn 0.740479 -0.035645 0.670654
vn 0.740479 -0.035645 0.670654
vn 0.740479 -0.035645 0.670654
vn 0.638428 0.212402 0.739502
vn 0.638428 0.212402 0.739502
vn 0.638428 0.212402 0.739502
vn 0.743652 0.139404 0.653809
vn 0.743652 0.139404 0.653809
vn 0.743652 0.139404 0.653809
vn 0.708740 -0.031982 0.704590
vn 0.708740 -0.031982 0.704590
vn 0.708740 -0.031982 0.704590
vn -0.026611 -0.026611 0.999268
vn -0.026611 -0.026611 0.999268
vn -0.026611 -0.026611 0.999268
vn -0.654785 0.458496 0.600342
vn -0.654785 0.458496 0.600342
vn -0.654785 0.458496 0.600342
vn -0.412842 -0.801270 0.432373
vn -0.412842 -0.801270 0.432373
vn -0.412842 -0.801270 0.432373
vn 0.000000 0.000000 1.000000
vn 0.000000 0.000000 1.000000
vn 0.000000 0.000000 1.000000
vn 0.444336 -0.118164 0.887695
vn 0.444336 -0.118164 0.887695
vn 0.444336 -0.118164 0.887695
vn 0.618896 -0.545166 0.564941
vn 0.618896 -0.545166 0.564941
vn 0.618896 -0.545166 0.564941
vn 0.026611 0.053223 0.998047
vn 0.026611 0.053223 0.998047
vn 0.026611 0.053223 0.998047
vn 0.155273 0.181152 0.970947
vn 0.155273 0.181152 0.970947
vn 0.155273 0.181152 0.970947
vn -0.286133 -0.238281 0.927979
vn -0.286133 -0.238281 0.927979
vn -0.286133 -0.238281 0.927979
vn 0.000000 0.053223 0.998535
vn 0.000000 0.053223 0.998535
vn 0.000000 0.053223 0.998535
vn -0.061768 -0.631592 0.772705
vn -0.061768 -0.631592 0.772705
vn -0.061768 -0.631592 0.772705
vn -0.090820 0.565674 0.819336
vn -0.090820 0.565674 0.819336
vn -0.090820 0.565674 0.819336
vn 0.026611 0.026611 0.999268
vn 0.026611 0.026611 0.999268
vn 0.026611 0.026611 0.999268
vn -0.476807 0.087402 0.874512
vn -0.476807 0.087402 0.874512
vn -0.476807 0.087402 0.874512
vn -0.069092 -0.364746 0.928467
vn -0.069092 -0.364746 0.928467
vn -0.069092 -0.364746 0.928467
vn -0.488770 0.192627 0.850586
vn -0.488770 0.192627 0.850586
vn -0.488770 0.192627 0.850586
vn 0.743652 0.139404 0.653809
vn 0.743652 0.139404 0.653809
vn 0.743652 0.139404 0.653809
vn 0.000000 0.228271 0.973389
vn 0.000000 0.228271 0.973389
vn 0.000000 0.228271 0.973389
vn -0.052734 -0.105713 0.992920
vn -0.052734 -0.105713 0.992920
vn -0.052734 -0.105713 0.992920
vn 0.320068 0.631104 0.706299
vn 0.320068 0.631104 0.706299
vn 0.320068 0.631104 0.706299
vn 0.026611 0.026611 0.999268
vn 0.026611 0.026611 0.999268
vn 0.026611 0.026611 0.999268
vn 0.105713 -0.052734 0.992920
vn 0.105713 -0.052734 0.992920
vn 0.105713 -0.052734 0.992920
vn -0.639160 0.072266 0.765381
vn -0.639160 0.072266 0.765381
vn -0.639160 0.072266 0.765381
vn 0.102783 0.085205 0.990967
vn 0.102783 0.085205 0.990967
vn 0.102783 0.085205 0.990967
vn -0.087402 0.565918 0.819580
vn -0.087402 0.565918 0.819580
vn -0.087402 0.565918 0.819580
usemtl Texture
f 1/1/1 2/2/2 3/3/3
f 4/4/4 5/5/5 6/6/6
f 7/7/7 8/8/8 9/9/9
f 10/10/10 11/11/11 12/12/12
f 13/13/13 14/14/14 15/15/15
f 16/16/16 17/17/17 18/18/18
f 19/19/19 20/20/20 21/21/21
f 22/22/22 23/23/23 24/24/24
f 25/25/25 26/26/26 27/27/27
f 28/28/28 29/29/29 30/30/30
f 31/31/31 32/32/32 33/33/33
f 34/34/34 35/35/35 36/36/36
f 37/37/37 38/38/38 39/39/39
f 40/40/40 41/41/41 42/42/42
f 43/43/43 44/44/44 45/45/45
f 46/46/46 47/47/47 48/48/48
f 49/49/49 50/50/50 51/51/51
f 52/52/52 53/53/53 54/54/54
f 55/55/55 56/56/56 57/57/57
f 58/58/58 59/59/59 60/60/60
f 61/61/61 62/62/62 63/63/63
f 64/64/64 65/65/65 66/66/66
f 67/67/67 68/68/68 69/69/69
f 70/70/70 71/71/71 72/72/72
f 73/73/73 74/74/74 75/75/75
f 76/76/76 77/77/77 78/78/78
f 79/79/79 80/80/80 81/81/81
f 82/82/82 83/83/83 84/84/84
f 85/85/85 86/86/86 87/87/87
f 88/88/88 89/89/89 90/90/90
f 91/91/91 92/92/92 93/93/93
f 94/94/94 95/95/95 96/96/96
f 97/97/97 98/98/98 99/99/99
f 100/100/100 101/101/101 102/102/102
f 103/103/103 104/104/104 105/105/105
f 106/106/106 107/107/107 108/108/108
f 109/109/109 110/110/110 111/111/111
f 112/112/112 113/113/113 114/114/114
f 115/115/115 116/116/116 117/117/117
f 118/118/118 119/119/119 120/120/120
f 121/121/121 122/122/122 123/123/123
f 124/124/124 125/125/125 126/126/126
f 127/127/127 128/128/128 129/129/129
f 130/130/130 131/131/131 132/132/132
f 133/133/133 134/134/134 135/135/135
f 136/136/136 137/137/137 138/138/138
f 139/139/139 140/140/140 141/141/141
f 142/142/142 143/143/143 144/144/144
f 145/145/145 146/146/146 147/147/147
f 148/148/148 149/149/149 150/150/150
f 151/151/151 152/152/152 153/153/153
f 154/154/154 155/155/155 156/156/156
f 157/157/157 158/158/158 159/159/159
f 160/160/160 161/161/161 162/162/162
f 163/163/163 164/164/164 165/165/165
f 166/166/166 167/167/167 168/168/168
f 169/169/169 170/170/170 171/171/171
f 172/172/172 173/173/173 174/174/174
f 175/175/175 176/176/176 177/177/177
f 178/178/178 179/179/179 180/180/180
f 181/181/181 182/182/182 183/183/183
f 184/184/184 185/185/185 186/186/186
f 187/187/187 188/188/188 189/189/189
f 190/190/190 191/191/191 192/192/192
f 193/193/193 194/194/194 195/195/195
f 196/196/196 197/197/197 198/198/198
f 199/199/199 200/200/200 201/201/201
f 202/202/202 203/203/203 204/204/204
f 205/205/205 206/206/206 207/207/207
f 208/208/208 209/209/209 210/210/210
f 211/211/211 212/212/212 213/213/213
f 214/214/214 215/215/215 216/216/216
f 217/217/217 218/218/218 219/219/219
f 220/220/220 221/221/221 222/222/222
f 223/223/223 224/224/224 225/225/225
f 226/226/226 227/227/227 228/228/228
f 229/229/229 230/230/230 231/231/231
f 232/232/232 233/233/233 234/234/234
f 235/235/235 236/236/236 237/237/237
f 238/238/238 239/239/239 240/240/240
f 241/241/241 242/242/242 243/243/243
f 244/244/244 245/245/245 246/246/246
f 247/247/247 248/248/248 249/249/249
f 250/250/250 251/251/251 252/252/252
f 253/253/253 254/254/254 255/255/255
f 256/256/256 257/257/257 258/258/258
f 259/259/259 260/260/260 261/261/261
f 262/262/262 263/263/263 264/264/264
f 265/265/265 266/266/266 267/267/267
f 268/268/268 269/269/269 270/270/270
f 271/271/271 272/272/272 273/273/273
f 274/274/274 275/275/275 276/276/276
f 277/277/277 278/278/278 279/279/279
f 280/280/280 281/281/281 282/282/282
f 283/283/283 284/284/284 285/285/285
f 286/286/286 287/287/287 288/288/288
f 289/289/289 290/290/290 291/291/291
f 292/292/292 293/293/293 294/294/294
f 295/295/295 296/296/296 297/297/297
f 298/298/298 299/299/299 300/300/300
f 301/301/301 302/302/302 303/303/303
f 304/304/304 305/305/305 306/306/306
f 307/307/307 308/308/308 309/309/309
f 310/310/310 311/311/311 312/312/312
f 313/313/313 314/314/314 315/315/315
f 316/316/316 317/317/317 318/318/318
f 319/319/319 320/320/320 321/321/321
f 322/322/322 323/323/323 324/324/324
f 325/325/325 326/326/326 327/327/327
f 328/328/328 329/329/329 330/330/330
f 331/331/331 332/332/332 333/333/333
f 334/334/334 335/335/335 336/336/336
f 337/337/337 338/338/338 339/339/339
f 340/340/340 341/341/341 342/342/342
f 343/343/343 344/344/344 345/345/345
f 346/346/346 347/347/347 348/348/348
f 349/349/349 350/350/350 351/351/351
f 352/352/352 353/353/353 354/354/354
f 355/355/355 356/356/356 357/357/357
f 358/358/358 359/359/359 360/360/360
f 361/361/361 362/362/362 363/363/363
f 364/364/364 365/365/365 366/366/366
f 367/367/367 368/368/368 369/369/369
f 370/370/370 371/371/371 372/372/372
f 373/373/373 374/374/374 375/375/375
f 376/376/376 377/377/377 378/378/378
f 379/379/379 380/380/380 381/381/381
f 382/382/382 383/383/383 384/384/384
f 385/385/385 386/386/386 387/387/387
f 388/388/388 389/389/389 390/390/390
f 391/391/391 392/392/392 393/393/393
f 394/394/394 395/395/395 396/396/396
f 397/397/397 398/398/398 399/399/399
f 400/400/400 401/401/401 402/402/402
f 403/403/403 404/404/404 405/405/405
f 406/406/406 407/407/407 408/408/408
f 409/409/409 410/410/410 411/411/411
f 412/412/412 413/413/413 414/414/414
f 415/415/415 416/416/416 417/417/417
f 418/418/418 419/419/419 420/420/420
f 421/421/421 422/422/422 423/423/423
f 424/424/424 425/425/425 426/426/426
f 427/427/427 428/428/428 429/429/429
f 430/430/430 431/431/431 432/432/432
f 433/433/433 434/434/434 435/435/435
f 436/436/436 437/437/437 438/438/438
f 439/439/439 440/440/440 441/441/441
f 442/442/442 443/443/443 444/444/444
f 445/445/445 446/446/446 447/447/447
f 448/448/448 449/449/449 450/450/450
f 451/451/451 452/452/452 453/453/453
f 454/454/454 455/455/455 456/456/456
f 457/457/457 458/458/458 459/459/459
f 460/460/460 461/461/461 462/462/462
f 463/463/463 464/464/464 465/465/465
f 466/466/466 467/467/467 468/468/468
f 469/469/469 470/470/470 471/471/471
f 472/472/472 473/473/473 474/474/474
f 475/475/475 476/476/476 477/477/477
f 478/478/478 479/479/479 480/480/480
f 481/481/481 482/482/482 483/483/483
f 484/484/484 485/485/485 486/486/486
f 487/487/487 488/488/488 489/489/489
f 490/490/490 491/491/491 492/492/492
f 493/493/493 494/494/494 495/495/495
f 496/496/496 497/497/497 498/498/498
f 499/499/499 500/500/500 501/501/501
f 502/502/502 503/503/503 504/504/504
f 505/505/505 506/506/506 507/507/507
f 508/508/508 509/509/509 510/510/510
f 511/511/511 512/512/512 513/513/513
f 514/514/514 515/515/515 516/516/516
f 517/517/517 518/518/518 519/519/519
f 520/520/520 521/521/521 522/522/522
f 523/523/523 524/524/524 525/525/525
f 526/526/526 527/527/527 528/528/528
f 529/529/529 530/530/530 531/531/531
f 532/532/532 533/533/533 534/534/534
f 535/535/535 536/536/536 537/537/537
f 538/538/538 539/539/539 540/540/540
f 541/541/541 542/542/542 543/543/543
f 544/544/544 545/545/545 546/546/546
f 547/547/547 548/548/548 549/549/549
f 550/550/550 551/551/551 552/552/552
f 553/553/553 554/554/554 555/555/555
f 556/556/556 557/557/557 558/558/558
f 559/559/559 560/560/560 561/561/561
f 562/562/562 563/563/563 564/564/564
f 565/565/565 566/566/566 567/567/567
f 568/568/568 569/569/569 570/570/570
f 571/571/571 572/572/572 573/573/573
f 574/574/574 575/575/575 576/576/576
f 577/577/577 578/578/578 579/579/579
f 580/580/580 581/581/581 582/582/582
f 583/583/583 584/584/584 585/585/585
f 586/586/586 587/587/587 588/588/588
f 589/589/589 590/590/590 591/591/591
f 592/592/592 593/593/593 594/594/594
f 595/595/595 596/596/596 597/597/597
f 598/598/598 599/599/599 600/600/600
f 601/601/601 602/602/602 603/603/603
f 604/604/604 605/605/605 606/606/606
f 607/607/607 608/608/608 609/609/609
f 610/610/610 611/611/611 612/612/612
f 613/613/613 614/614/614 615/615/615
f 616/616/616 617/617/617 618/618/618
f 619/619/619 620/620/620 621/621/621
f 622/622/622 623/623/623 624/624/624
f 625/625/625 626/626/626 627/627/627
f 628/628/628 629/629/629 630/630/630
f 631/631/631 632/632/632 633/633/633
f 634/634/634 635/635/635 636/636/636
f 637/637/637 638/638/638 639/639/639
f 640/640/640 641/641/641 642/642/642
f 643/643/643 644/644/644 645/645/645
f 646/646/646 647/647/647 648/648/648
f 649/649/649 650/650/650 651/651/651
f 652/652/652 653/653/653 654/654/654
f 655/655/655 656/656/656 657/657/657
f 658/658/658 659/659/659 660/660/660
f 661/661/661 662/662/662 663/663/663
f 664/664/664 665/665/665 666/666/666
f 667/667/667 668/668/668 669/669/669
f 670/670/670 671/671/671 672/672/672
f 673/673/673 674/674/674 675/675/675
f 676/676/676 677/677/677 678/678/678
f 679/679/679 680/680/680 681/681/681
f 682/682/682 683/683/683 684/684/684
f 685/685/685 686/686/686 687/687/687