# OBJ file
mtllib List.ico.mtl
v -0.411865 0.000000 -1.772705 1.000000 1.000000 1.000000 #1.000000
v -0.101074 0.213867 -1.452148 1.000000 1.000000 1.000000 #1.000000
v 0.066895 0.000000 -1.483398 1.000000 1.000000 1.000000 #1.000000
v -0.338623 0.000000 -1.358398 1.000000 1.000000 1.000000 #1.000000
v -0.101074 0.213867 -1.452148 1.000000 1.000000 1.000000 #1.000000
v -0.411865 0.000000 -1.772705 1.000000 1.000000 1.000000 #1.000000
v -0.379639 0.000000 1.658936 1.000000 1.000000 1.000000 #1.000000
v 0.249512 0.000000 1.622314 1.000000 1.000000 1.000000 #1.000000
v 0.166748 0.213867 1.513184 1.000000 1.000000 1.000000 #1.000000
v 0.031006 0.000000 1.403809 1.000000 1.000000 1.000000 #1.000000
v -0.379639 0.000000 1.658936 1.000000 1.000000 1.000000 #1.000000
v 0.166748 0.213867 1.513184 1.000000 1.000000 1.000000 #1.000000
v 2.034424 0.000000 -0.226807 1.000000 1.000000 1.000000 #1.000000
v 1.467041 0.213867 -0.289063 1.000000 1.000000 1.000000 #1.000000
v 1.481201 0.000000 -0.215820 1.000000 1.000000 1.000000 #1.000000
v 1.451416 0.000000 -0.493896 1.000000 1.000000 1.000000 #1.000000
v 1.467041 0.213867 -0.289063 1.000000 1.000000 1.000000 #1.000000
v 2.034424 0.000000 -0.226807 1.000000 1.000000 1.000000 #1.000000
v -1.023926 0.000000 -1.035889 1.000000 1.000000 1.000000 #1.000000
v -1.514404 0.000000 -0.213867 1.000000 1.000000 1.000000 #1.000000
v -1.296143 0.213867 -0.257080 1.000000 1.000000 1.000000 #1.000000
v -1.108887 0.000000 -0.276367 1.000000 1.000000 1.000000 #1.000000
v -1.023926 0.000000 -1.035889 1.000000 1.000000 1.000000 #1.000000
v -1.296143 0.213867 -0.257080 1.000000 1.000000 1.000000 #1.000000
v 0.374756 2.129395 -1.199951 1.000000 1.000000 1.000000 #1.000000
v 0.000000 1.974609 -1.245605 1.000000 1.000000 1.000000 #1.000000
v 0.000000 2.500000 -1.259277 1.000000 1.000000 1.000000 #1.000000
v 0.000000 1.974609 -1.245605 1.000000 1.000000 1.000000 #1.000000
v -0.373047 2.113525 -1.204590 1.000000 1.000000 1.000000 #1.000000
v 0.000000 2.500000 -1.259277 1.000000 1.000000 1.000000 #1.000000
v 0.000000 2.222412 -0.680420 1.000000 1.000000 1.000000 #1.000000
v 0.000000 2.500000 -1.259277 1.000000 1.000000 1.000000 #1.000000
v -0.373047 2.113525 -1.204590 1.000000 1.000000 1.000000 #1.000000
v 0.000000 2.222412 -0.680420 1.000000 1.000000 1.000000 #1.000000
v 0.374756 2.129395 -1.199951 1.000000 1.000000 1.000000 #1.000000
v 0.000000 2.500000 -1.259277 1.000000 1.000000 1.000000 #1.000000
v 0.000000 2.222412 -0.680420 1.000000 1.000000 1.000000 #1.000000
v 0.656494 1.819580 -0.621338 1.000000 1.000000 1.000000 #1.000000
v 0.374756 2.129395 -1.199951 1.000000 1.000000 1.000000 #1.000000
v 0.656494 1.819580 -0.621338 1.000000 1.000000 1.000000 #1.000000
v 0.000000 2.222412 -0.680420 1.000000 1.000000 1.000000 #1.000000
v 0.000000 1.903076 -0.382324 1.000000 1.000000 1.000000 #1.000000
v -0.616211 1.789795 -0.629883 1.000000 1.000000 1.000000 #1.000000
v 0.000000 1.903076 -0.382324 1.000000 1.000000 1.000000 #1.000000
v 0.000000 2.222412 -0.680420 1.000000 1.000000 1.000000 #1.000000
v 0.000000 2.222412 -0.680420 1.000000 1.000000 1.000000 #1.000000
v -0.373047 2.113525 -1.204590 1.000000 1.000000 1.000000 #1.000000
v -0.616211 1.789795 -0.629883 1.000000 1.000000 1.000000 #1.000000
v -1.174561 2.103760 0.378174 1.000000 1.000000 1.000000 #1.000000
v -1.233398 2.474365 0.000000 1.000000 1.000000 1.000000 #1.000000
v -1.219727 1.949219 0.000000 1.000000 1.000000 1.000000 #1.000000
v -1.219727 1.949219 0.000000 1.000000 1.000000 1.000000 #1.000000
v -1.233398 2.474365 0.000000 1.000000 1.000000 1.000000 #1.000000
v -1.174072 2.105225 -0.396240 1.000000 1.000000 1.000000 #1.000000
v -0.616211 1.789795 -0.629883 1.000000 1.000000 1.000000 #1.000000
v -1.174072 2.105225 -0.396240 1.000000 1.000000 1.000000 #1.000000
v -0.625732 2.134521 0.000000 1.000000 1.000000 1.000000 #1.000000
v -0.625732 2.134521 0.000000 1.000000 1.000000 1.000000 #1.000000
v -0.382324 1.903076 0.000000 1.000000 1.000000 1.000000 #1.000000
v -0.616211 1.789795 -0.629883 1.000000 1.000000 1.000000 #1.000000
v -0.625732 2.134521 0.000000 1.000000 1.000000 1.000000 #1.000000
v -1.233398 2.474365 0.000000 1.000000 1.000000 1.000000 #1.000000
v -1.174561 2.103760 0.378174 1.000000 1.000000 1.000000 #1.000000
v -0.625732 2.134521 0.000000 1.000000 1.000000 1.000000 #1.000000
v -1.174072 2.105225 -0.396240 1.000000 1.000000 1.000000 #1.000000
v -1.233398 2.474365 0.000000 1.000000 1.000000 1.000000 #1.000000
v -0.625732 2.134521 0.000000 1.000000 1.000000 1.000000 #1.000000
v -1.174561 2.103760 0.378174 1.000000 1.000000 1.000000 #1.000000
v -0.617676 1.799316 0.636719 1.000000 1.000000 1.000000 #1.000000
v -0.617676 1.799316 0.636719 1.000000 1.000000 1.000000 #1.000000
v -0.382324 1.903076 0.000000 1.000000 1.000000 1.000000 #1.000000
v -0.625732 2.134521 0.000000 1.000000 1.000000 1.000000 #1.000000
v 1.214355 2.120850 -0.378174 1.000000 1.000000 1.000000 #1.000000
v 1.273193 2.491455 0.000000 1.000000 1.000000 1.000000 #1.000000
v 1.259521 1.966309 0.000000 1.000000 1.000000 1.000000 #1.000000
v 1.259521 1.966309 0.000000 1.000000 1.000000 1.000000 #1.000000
v 1.273193 2.491455 0.000000 1.000000 1.000000 1.000000 #1.000000
v 1.213867 2.122314 0.396240 1.000000 1.000000 1.000000 #1.000000
v 0.702148 2.209229 0.000000 1.000000 1.000000 1.000000 #1.000000
v 1.213867 2.122314 0.396240 1.000000 1.000000 1.000000 #1.000000
v 1.273193 2.491455 0.000000 1.000000 1.000000 1.000000 #1.000000
v 0.702148 2.209229 0.000000 1.000000 1.000000 1.000000 #1.000000
v 1.273193 2.491455 0.000000 1.000000 1.000000 1.000000 #1.000000
v 1.214355 2.120850 -0.378174 1.000000 1.000000 1.000000 #1.000000
v 0.382324 1.903076 0.000000 1.000000 1.000000 1.000000 #1.000000
v 0.702148 2.209229 0.000000 1.000000 1.000000 1.000000 #1.000000
v 0.656494 1.819580 -0.621338 1.000000 1.000000 1.000000 #1.000000
v 0.702148 2.209229 0.000000 1.000000 1.000000 1.000000 #1.000000
v 1.214355 2.120850 -0.378174 1.000000 1.000000 1.000000 #1.000000
v 0.656494 1.819580 -0.621338 1.000000 1.000000 1.000000 #1.000000
v 0.702148 2.209229 0.000000 1.000000 1.000000 1.000000 #1.000000
v 0.655029 1.783447 0.665527 1.000000 1.000000 1.000000 #1.000000
v 1.213867 2.122314 0.396240 1.000000 1.000000 1.000000 #1.000000
v 0.382324 1.903076 0.000000 1.000000 1.000000 1.000000 #1.000000
v 0.655029 1.783447 0.665527 1.000000 1.000000 1.000000 #1.000000
v 0.702148 2.209229 0.000000 1.000000 1.000000 1.000000 #1.000000
v -0.374756 2.120850 1.225586 1.000000 1.000000 1.000000 #1.000000
v 0.000000 1.966309 1.271240 1.000000 1.000000 1.000000 #1.000000
v 0.000000 2.491455 1.284912 1.000000 1.000000 1.000000 #1.000000
v 0.000000 1.966309 1.271240 1.000000 1.000000 1.000000 #1.000000
v 0.373047 2.104980 1.230225 1.000000 1.000000 1.000000 #1.000000
v 0.000000 2.491455 1.284912 1.000000 1.000000 1.000000 #1.000000
v 0.000000 2.240479 0.639893 1.000000 1.000000 1.000000 #1.000000
v -0.374756 2.120850 1.225586 1.000000 1.000000 1.000000 #1.000000
v 0.000000 2.491455 1.284912 1.000000 1.000000 1.000000 #1.000000
v 0.000000 2.240479 0.639893 1.000000 1.000000 1.000000 #1.000000
v 0.000000 2.491455 1.284912 1.000000 1.000000 1.000000 #1.000000
v 0.373047 2.104980 1.230225 1.000000 1.000000 1.000000 #1.000000
v 0.000000 2.240479 0.639893 1.000000 1.000000 1.000000 #1.000000
v 0.373047 2.104980 1.230225 1.000000 1.000000 1.000000 #1.000000
v 0.655029 1.783447 0.665527 1.000000 1.000000 1.000000 #1.000000
v 0.000000 1.903076 0.382324 1.000000 1.000000 1.000000 #1.000000
v 0.000000 2.240479 0.639893 1.000000 1.000000 1.000000 #1.000000
v 0.655029 1.783447 0.665527 1.000000 1.000000 1.000000 #1.000000
v 0.000000 2.240479 0.639893 1.000000 1.000000 1.000000 #1.000000
v 0.000000 1.903076 0.382324 1.000000 1.000000 1.000000 #1.000000
v -0.617676 1.799316 0.636719 1.000000 1.000000 1.000000 #1.000000
v -0.617676 1.799316 0.636719 1.000000 1.000000 1.000000 #1.000000
v -0.374756 2.120850 1.225586 1.000000 1.000000 1.000000 #1.000000
v 0.000000 2.240479 0.639893 1.000000 1.000000 1.000000 #1.000000
v 0.656494 1.819580 -0.621338 1.000000 1.000000 1.000000 #1.000000
v 0.000000 1.903076 -0.382324 1.000000 1.000000 1.000000 #1.000000
v 0.382324 1.903076 0.000000 1.000000 1.000000 1.000000 #1.000000
v 0.655029 1.783447 0.665527 1.000000 1.000000 1.000000 #1.000000
v 0.382324 1.903076 0.000000 1.000000 1.000000 1.000000 #1.000000
v 0.000000 1.903076 0.382324 1.000000 1.000000 1.000000 #1.000000
v -0.616211 1.789795 -0.629883 1.000000 1.000000 1.000000 #1.000000
v -0.382324 1.903076 0.000000 1.000000 1.000000 1.000000 #1.000000
v 0.000000 1.903076 -0.382324 1.000000 1.000000 1.000000 #1.000000
v -0.617676 1.799316 0.636719 1.000000 1.000000 1.000000 #1.000000
v 0.000000 1.903076 0.382324 1.000000 1.000000 1.000000 #1.000000
v -0.382324 1.903076 0.000000 1.000000 1.000000 1.000000 #1.000000
v 0.465820 0.015381 -0.465820 1.000000 1.000000 1.000000 #1.000000
v 0.000000 0.015381 -0.682617 1.000000 1.000000 1.000000 #1.000000
v 0.000000 0.647217 -0.903564 1.000000 1.000000 1.000000 #1.000000
v 0.465820 0.015381 -0.465820 1.000000 1.000000 1.000000 #1.000000
v 0.000000 0.647217 -0.903564 1.000000 1.000000 1.000000 #1.000000
v 0.719238 0.647217 -0.616699 1.000000 1.000000 1.000000 #1.000000
v 0.682617 0.015381 0.000000 1.000000 1.000000 1.000000 #1.000000
v 0.465820 0.015381 -0.465820 1.000000 1.000000 1.000000 #1.000000
v 0.719238 0.647217 -0.616699 1.000000 1.000000 1.000000 #1.000000
v 0.682617 0.015381 0.000000 1.000000 1.000000 1.000000 #1.000000
v 0.719238 0.647217 -0.616699 1.000000 1.000000 1.000000 #1.000000
v 1.054199 0.647217 0.000000 1.000000 1.000000 1.000000 #1.000000
v 0.719238 0.647217 -0.616699 1.000000 1.000000 1.000000 #1.000000
v 0.000000 0.647217 -0.903564 1.000000 1.000000 1.000000 #1.000000
v 0.000000 1.405029 -0.954102 1.000000 1.000000 1.000000 #1.000000
v 0.719238 0.647217 -0.616699 1.000000 1.000000 1.000000 #1.000000
v 0.000000 1.405029 -0.954102 1.000000 1.000000 1.000000 #1.000000
v 0.656494 1.819580 -0.621338 1.000000 1.000000 1.000000 #1.000000
v 1.054199 0.647217 0.000000 1.000000 1.000000 1.000000 #1.000000
v 0.719238 0.647217 -0.616699 1.000000 1.000000 1.000000 #1.000000
v 0.656494 1.819580 -0.621338 1.000000 1.000000 1.000000 #1.000000
v 1.054199 0.647217 0.000000 1.000000 1.000000 1.000000 #1.000000
v 0.656494 1.819580 -0.621338 1.000000 1.000000 1.000000 #1.000000
v 0.927246 1.391846 0.000000 1.000000 1.000000 1.000000 #1.000000
v -0.682617 0.015381 0.000000 1.000000 1.000000 1.000000 #1.000000
v -0.465820 0.015381 0.465820 1.000000 1.000000 1.000000 #1.000000
v -0.719238 0.647217 0.616699 1.000000 1.000000 1.000000 #1.000000
v -0.682617 0.015381 0.000000 1.000000 1.000000 1.000000 #1.000000
v -0.719238 0.647217 0.616699 1.000000 1.000000 1.000000 #1.000000
v -1.054199 0.647217 0.000000 1.000000 1.000000 1.000000 #1.000000
v 0.000000 0.015381 0.682617 1.000000 1.000000 1.000000 #1.000000
v 0.000000 0.647217 0.903564 1.000000 1.000000 1.000000 #1.000000
v -0.719238 0.647217 0.616699 1.000000 1.000000 1.000000 #1.000000
v 0.000000 0.015381 0.682617 1.000000 1.000000 1.000000 #1.000000
v -0.719238 0.647217 0.616699 1.000000 1.000000 1.000000 #1.000000
v -0.465820 0.015381 0.465820 1.000000 1.000000 1.000000 #1.000000
v -1.054199 0.647217 0.000000 1.000000 1.000000 1.000000 #1.000000
v -0.719238 0.647217 0.616699 1.000000 1.000000 1.000000 #1.000000
v -0.617676 1.799316 0.636719 1.000000 1.000000 1.000000 #1.000000
v -1.054199 0.647217 0.000000 1.000000 1.000000 1.000000 #1.000000
v -0.617676 1.799316 0.636719 1.000000 1.000000 1.000000 #1.000000
v -0.883301 1.379395 0.000000 1.000000 1.000000 1.000000 #1.000000
v 0.000000 0.647217 0.903564 1.000000 1.000000 1.000000 #1.000000
v 0.000000 1.391846 0.984619 1.000000 1.000000 1.000000 #1.000000
v -0.617676 1.799316 0.636719 1.000000 1.000000 1.000000 #1.000000
v 0.000000 0.647217 0.903564 1.000000 1.000000 1.000000 #1.000000
v -0.617676 1.799316 0.636719 1.000000 1.000000 1.000000 #1.000000
v -0.719238 0.647217 0.616699 1.000000 1.000000 1.000000 #1.000000
v 0.000000 0.647217 -0.903564 1.000000 1.000000 1.000000 #1.000000
v 0.000000 0.015381 -0.682617 1.000000 1.000000 1.000000 #1.000000
v -0.463623 0.015381 -0.488037 1.000000 1.000000 1.000000 #1.000000
v 0.000000 0.647217 -0.903564 1.000000 1.000000 1.000000 #1.000000
v -0.463623 0.015381 -0.488037 1.000000 1.000000 1.000000 #1.000000
v -0.716064 0.647217 -0.646240 1.000000 1.000000 1.000000 #1.000000
v -1.054199 0.647217 0.000000 1.000000 1.000000 1.000000 #1.000000
v -0.716064 0.647217 -0.646240 1.000000 1.000000 1.000000 #1.000000
v -0.463623 0.015381 -0.488037 1.000000 1.000000 1.000000 #1.000000
v -1.054199 0.647217 0.000000 1.000000 1.000000 1.000000 #1.000000
v -0.463623 0.015381 -0.488037 1.000000 1.000000 1.000000 #1.000000
v -0.682617 0.015381 0.000000 1.000000 1.000000 1.000000 #1.000000
v 0.000000 0.647217 -0.903564 1.000000 1.000000 1.000000 #1.000000
v -0.716064 0.647217 -0.646240 1.000000 1.000000 1.000000 #1.000000
v -0.616211 1.789795 -0.629883 1.000000 1.000000 1.000000 #1.000000
v 0.000000 0.647217 -0.903564 1.000000 1.000000 1.000000 #1.000000
v -0.616211 1.789795 -0.629883 1.000000 1.000000 1.000000 #1.000000
v 0.000000 1.405029 -0.954102 1.000000 1.000000 1.000000 #1.000000
v -0.716064 0.647217 -0.646240 1.000000 1.000000 1.000000 #1.000000
v -1.054199 0.647217 0.000000 1.000000 1.000000 1.000000 #1.000000
v -0.883301 1.379395 0.000000 1.000000 1.000000 1.000000 #1.000000
v -0.716064 0.647217 -0.646240 1.000000 1.000000 1.000000 #1.000000
v -0.883301 1.379395 0.000000 1.000000 1.000000 1.000000 #1.000000
v -0.616211 1.789795 -0.629883 1.000000 1.000000 1.000000 #1.000000
v 0.000000 0.647217 0.903564 1.000000 1.000000 1.000000 #1.000000
v 0.000000 0.015381 0.682617 1.000000 1.000000 1.000000 #1.000000
v 0.463623 0.015381 0.488037 1.000000 1.000000 1.000000 #1.000000
v 0.000000 0.647217 0.903564 1.000000 1.000000 1.000000 #1.000000
v 0.463623 0.015381 0.488037 1.000000 1.000000 1.000000 #1.000000
v 0.716064 0.647217 0.646240 1.000000 1.000000 1.000000 #1.000000
v 1.054199 0.647217 0.000000 1.000000 1.000000 1.000000 #1.000000
v 0.716064 0.647217 0.646240 1.000000 1.000000 1.000000 #1.000000
v 0.463623 0.015381 0.488037 1.000000 1.000000 1.000000 #1.000000
v 1.054199 0.647217 0.000000 1.000000 1.000000 1.000000 #1.000000
v 0.463623 0.015381 0.488037 1.000000 1.000000 1.000000 #1.000000
v 0.682617 0.015381 0.000000 1.000000 1.000000 1.000000 #1.000000
v 0.000000 0.647217 0.903564 1.000000 1.000000 1.000000 #1.000000
v 0.716064 0.647217 0.646240 1.000000 1.000000 1.000000 #1.000000
v 0.655029 1.783447 0.665527 1.000000 1.000000 1.000000 #1.000000
v 0.000000 0.647217 0.903564 1.000000 1.000000 1.000000 #1.000000
v 0.655029 1.783447 0.665527 1.000000 1.000000 1.000000 #1.000000
v 0.000000 1.391846 0.984619 1.000000 1.000000 1.000000 #1.000000
v 0.716064 0.647217 0.646240 1.000000 1.000000 1.000000 #1.000000
v 1.054199 0.647217 0.000000 1.000000 1.000000 1.000000 #1.000000
v 0.927246 1.391846 0.000000 1.000000 1.000000 1.000000 #1.000000
v 0.716064 0.647217 0.646240 1.000000 1.000000 1.000000 #1.000000
v 0.927246 1.391846 0.000000 1.000000 1.000000 1.000000 #1.000000
v 0.655029 1.783447 0.665527 1.000000 1.000000 1.000000 #1.000000
v 0.066895 0.000000 -1.483398 1.000000 1.000000 1.000000 #1.000000
v -0.101074 0.213867 -1.452148 1.000000 1.000000 1.000000 #1.000000
v -0.261230 0.326660 -1.069092 1.000000 1.000000 1.000000 #1.000000
v 0.066895 0.000000 -1.483398 1.000000 1.000000 1.000000 #1.000000
v -0.261230 0.326660 -1.069092 1.000000 1.000000 1.000000 #1.000000
v -0.020508 0.000000 -1.162842 1.000000 1.000000 1.000000 #1.000000
v -0.020508 0.000000 -1.162842 1.000000 1.000000 1.000000 #1.000000
v -0.261230 0.326660 -1.069092 1.000000 1.000000 1.000000 #1.000000
v 0.013916 0.467773 -0.592773 1.000000 1.000000 1.000000 #1.000000
v -0.020508 0.000000 -1.162842 1.000000 1.000000 1.000000 #1.000000
v 0.013916 0.467773 -0.592773 1.000000 1.000000 1.000000 #1.000000
v 0.182373 0.000000 -0.592773 1.000000 1.000000 1.000000 #1.000000
v -0.513184 0.000000 -1.006836 1.000000 1.000000 1.000000 #1.000000
v -0.170410 0.000000 -0.592773 1.000000 1.000000 1.000000 #1.000000
v 0.013916 0.467773 -0.592773 1.000000 1.000000 1.000000 #1.000000
v -0.513184 0.000000 -1.006836 1.000000 1.000000 1.000000 #1.000000
v 0.013916 0.467773 -0.592773 1.000000 1.000000 1.000000 #1.000000
v -0.261230 0.326660 -1.069092 1.000000 1.000000 1.000000 #1.000000
v -0.338623 0.000000 -1.358398 1.000000 1.000000 1.000000 #1.000000
v -0.513184 0.000000 -1.006836 1.000000 1.000000 1.000000 #1.000000
v -0.261230 0.326660 -1.069092 1.000000 1.000000 1.000000 #1.000000
v -0.338623 0.000000 -1.358398 1.000000 1.000000 1.000000 #1.000000
v -0.261230 0.326660 -1.069092 1.000000 1.000000 1.000000 #1.000000
v -0.101074 0.213867 -1.452148 1.000000 1.000000 1.000000 #1.000000
v 0.249512 0.000000 1.622314 1.000000 1.000000 1.000000 #1.000000
v 0.467773 0.000000 0.935791 1.000000 1.000000 1.000000 #1.000000
v 0.280762 0.326660 0.998291 1.000000 1.000000 1.000000 #1.000000
v 0.249512 0.000000 1.622314 1.000000 1.000000 1.000000 #1.000000
v 0.280762 0.326660 0.998291 1.000000 1.000000 1.000000 #1.000000
v 0.166748 0.213867 1.513184 1.000000 1.000000 1.000000 #1.000000
v 0.467773 0.000000 0.935791 1.000000 1.000000 1.000000 #1.000000
v 0.182373 0.000000 0.592773 1.000000 1.000000 1.000000 #1.000000
v 0.013916 0.467773 0.592773 1.000000 1.000000 1.000000 #1.000000
v 0.467773 0.000000 0.935791 1.000000 1.000000 1.000000 #1.000000
v 0.013916 0.467773 0.592773 1.000000 1.000000 1.000000 #1.000000
v 0.280762 0.326660 0.998291 1.000000 1.000000 1.000000 #1.000000
v 0.116211 0.000000 1.031494 1.000000 1.000000 1.000000 #1.000000
v 0.280762 0.326660 0.998291 1.000000 1.000000 1.000000 #1.000000
v 0.013916 0.467773 0.592773 1.000000 1.000000 1.000000 #1.000000
v 0.116211 0.000000 1.031494 1.000000 1.000000 1.000000 #1.000000
v 0.013916 0.467773 0.592773 1.000000 1.000000 1.000000 #1.000000
v -0.170410 0.000000 0.592773 1.000000 1.000000 1.000000 #1.000000
v 0.031006 0.000000 1.403809 1.000000 1.000000 1.000000 #1.000000
v 0.166748 0.213867 1.513184 1.000000 1.000000 1.000000 #1.000000
v 0.280762 0.326660 0.998291 1.000000 1.000000 1.000000 #1.000000
v 0.031006 0.000000 1.403809 1.000000 1.000000 1.000000 #1.000000
v 0.280762 0.326660 0.998291 1.000000 1.000000 1.000000 #1.000000
v 0.116211 0.000000 1.031494 1.000000 1.000000 1.000000 #1.000000
v 1.481201 0.000000 -0.215820 1.000000 1.000000 1.000000 #1.000000
v 1.467041 0.213867 -0.289063 1.000000 1.000000 1.000000 #1.000000
v 1.180908 0.326660 -0.065918 1.000000 1.000000 1.000000 #1.000000
v 1.481201 0.000000 -0.215820 1.000000 1.000000 1.000000 #1.000000
v 1.180908 0.326660 -0.065918 1.000000 1.000000 1.000000 #1.000000
v 1.242188 0.000000 0.031982 1.000000 1.000000 1.000000 #1.000000
v 1.242188 0.000000 0.031982 1.000000 1.000000 1.000000 #1.000000
v 1.180908 0.326660 -0.065918 1.000000 1.000000 1.000000 #1.000000
v 0.592773 0.467773 0.013916 1.000000 1.000000 1.000000 #1.000000
v 1.242188 0.000000 0.031982 1.000000 1.000000 1.000000 #1.000000
v 0.592773 0.467773 0.013916 1.000000 1.000000 1.000000 #1.000000
v 0.592773 0.000000 0.182373 1.000000 1.000000 1.000000 #1.000000
v 1.082275 0.000000 -0.298584 1.000000 1.000000 1.000000 #1.000000
v 0.592773 0.000000 -0.170410 1.000000 1.000000 1.000000 #1.000000
v 0.592773 0.467773 0.013916 1.000000 1.000000 1.000000 #1.000000
v 1.082275 0.000000 -0.298584 1.000000 1.000000 1.000000 #1.000000
v 0.592773 0.467773 0.013916 1.000000 1.000000 1.000000 #1.000000
v 1.180908 0.326660 -0.065918 1.000000 1.000000 1.000000 #1.000000
v 1.451416 0.000000 -0.493896 1.000000 1.000000 1.000000 #1.000000
v 1.082275 0.000000 -0.298584 1.000000 1.000000 1.000000 #1.000000
v 1.180908 0.326660 -0.065918 1.000000 1.000000 1.000000 #1.000000
v 1.451416 0.000000 -0.493896 1.000000 1.000000 1.000000 #1.000000
v 1.180908 0.326660 -0.065918 1.000000 1.000000 1.000000 #1.000000
v 1.467041 0.213867 -0.289063 1.000000 1.000000 1.000000 #1.000000
v -1.514404 0.000000 -0.213867 1.000000 1.000000 1.000000 #1.000000
v -1.194092 0.000000 0.291260 1.000000 1.000000 1.000000 #1.000000
v -1.162842 0.326660 0.019287 1.000000 1.000000 1.000000 #1.000000
v -1.514404 0.000000 -0.213867 1.000000 1.000000 1.000000 #1.000000
v -1.162842 0.326660 0.019287 1.000000 1.000000 1.000000 #1.000000
v -1.296143 0.213867 -0.257080 1.000000 1.000000 1.000000 #1.000000
v -1.194092 0.000000 0.291260 1.000000 1.000000 1.000000 #1.000000
v -0.592773 0.000000 0.338379 1.000000 1.000000 1.000000 #1.000000
v -0.592773 0.467773 0.013916 1.000000 1.000000 1.000000 #1.000000
v -1.194092 0.000000 0.291260 1.000000 1.000000 1.000000 #1.000000
v -0.592773 0.467773 0.013916 1.000000 1.000000 1.000000 #1.000000
v -1.162842 0.326660 0.019287 1.000000 1.000000 1.000000 #1.000000
v -1.006836 0.000000 -0.138672 1.000000 1.000000 1.000000 #1.000000
v -1.162842 0.326660 0.019287 1.000000 1.000000 1.000000 #1.000000
v -0.592773 0.467773 0.013916 1.000000 1.000000 1.000000 #1.000000
v -1.006836 0.000000 -0.138672 1.000000 1.000000 1.000000 #1.000000
v -0.592773 0.467773 0.013916 1.000000 1.000000 1.000000 #1.000000
v -0.592773 0.000000 -0.170410 1.000000 1.000000 1.000000 #1.000000
v -1.108887 0.000000 -0.276367 1.000000 1.000000 1.000000 #1.000000
v -1.296143 0.213867 -0.257080 1.000000 1.000000 1.000000 #1.000000
v -1.162842 0.326660 0.019287 1.000000 1.000000 1.000000 #1.000000
v -1.108887 0.000000 -0.276367 1.000000 1.000000 1.000000 #1.000000
v -1.162842 0.326660 0.019287 1.000000 1.000000 1.000000 #1.000000
v -1.006836 0.000000 -0.138672 1.000000 1.000000 1.000000 #1.000000
v 0.656494 1.819580 -0.621338 1.000000 1.000000 1.000000 #1.000000
v 0.000000 1.405029 -0.954102 1.000000 1.000000 1.000000 #1.000000
v 0.000000 1.974609 -1.245605 1.000000 1.000000 1.000000 #1.000000
v 0.656494 1.819580 -0.621338 1.000000 1.000000 1.000000 #1.000000
v 0.000000 1.974609 -1.245605 1.000000 1.000000 1.000000 #1.000000
v 0.374756 2.129395 -1.199951 1.000000 1.000000 1.000000 #1.000000
v 0.000000 1.405029 -0.954102 1.000000 1.000000 1.000000 #1.000000
v -0.616211 1.789795 -0.629883 1.000000 1.000000 1.000000 #1.000000
v -0.373047 2.113525 -1.204590 1.000000 1.000000 1.000000 #1.000000
v 0.000000 1.405029 -0.954102 1.000000 1.000000 1.000000 #1.000000
v -0.373047 2.113525 -1.204590 1.000000 1.000000 1.000000 #1.000000
v 0.000000 1.974609 -1.245605 1.000000 1.000000 1.000000 #1.000000
v -0.617676 1.799316 0.636719 1.000000 1.000000 1.000000 #1.000000
v -1.174561 2.103760 0.378174 1.000000 1.000000 1.000000 #1.000000
v -1.219727 1.949219 0.000000 1.000000 1.000000 1.000000 #1.000000
v -0.617676 1.799316 0.636719 1.000000 1.000000 1.000000 #1.000000
v -1.219727 1.949219 0.000000 1.000000 1.000000 1.000000 #1.000000
v -0.883301 1.379395 0.000000 1.000000 1.000000 1.000000 #1.000000
v -0.883301 1.379395 0.000000 1.000000 1.000000 1.000000 #1.000000
v -1.219727 1.949219 0.000000 1.000000 1.000000 1.000000 #1.000000
v -1.174072 2.105225 -0.396240 1.000000 1.000000 1.000000 #1.000000
v -0.883301 1.379395 0.000000 1.000000 1.000000 1.000000 #1.000000
v -1.174072 2.105225 -0.396240 1.000000 1.000000 1.000000 #1.000000
v -0.616211 1.789795 -0.629883 1.000000 1.000000 1.000000 #1.000000
v 0.656494 1.819580 -0.621338 1.000000 1.000000 1.000000 #1.000000
v 1.214355 2.120850 -0.378174 1.000000 1.000000 1.000000 #1.000000
v 1.259521 1.966309 0.000000 1.000000 1.000000 1.000000 #1.000000
v 0.656494 1.819580 -0.621338 1.000000 1.000000 1.000000 #1.000000
v 1.259521 1.966309 0.000000 1.000000 1.000000 1.000000 #1.000000
v 0.927246 1.391846 0.000000 1.000000 1.000000 1.000000 #1.000000
v 0.927246 1.391846 0.000000 1.000000 1.000000 1.000000 #1.000000
v 1.259521 1.966309 0.000000 1.000000 1.000000 1.000000 #1.000000
v 1.213867 2.122314 0.396240 1.000000 1.000000 1.000000 #1.000000
v 0.927246 1.391846 0.000000 1.000000 1.000000 1.000000 #1.000000
v 1.213867 2.122314 0.396240 1.000000 1.000000 1.000000 #1.000000
v 0.655029 1.783447 0.665527 1.000000 1.000000 1.000000 #1.000000
v -0.617676 1.799316 0.636719 1.000000 1.000000 1.000000 #1.000000
v 0.000000 1.391846 0.984619 1.000000 1.000000 1.000000 #1.000000
v 0.000000 1.966309 1.271240 1.000000 1.000000 1.000000 #1.000000
v -0.617676 1.799316 0.636719 1.000000 1.000000 1.000000 #1.000000
v 0.000000 1.966309 1.271240 1.000000 1.000000 1.000000 #1.000000
v -0.374756 2.120850 1.225586 1.000000 1.000000 1.000000 #1.000000
v 0.000000 1.391846 0.984619 1.000000 1.000000 1.000000 #1.000000
v 0.655029 1.783447 0.665527 1.000000 1.000000 1.000000 #1.000000
v 0.373047 2.104980 1.230225 1.000000 1.000000 1.000000 #1.000000
v 0.000000 1.391846 0.984619 1.000000 1.000000 1.000000 #1.000000
v 0.373047 2.104980 1.230225 1.000000 1.000000 1.000000 #1.000000
v 0.000000 1.966309 1.271240 1.000000 1.000000 1.000000 #1.000000
v 0.382324 1.903076 0.000000 1.000000 1.000000 1.000000 #1.000000
v 0.000000 1.903076 -0.382324 1.000000 1.000000 1.000000 #1.000000
v -0.382324 1.903076 0.000000 1.000000 1.000000 1.000000 #1.000000
v 0.382324 1.903076 0.000000 1.000000 1.000000 1.000000 #1.000000
v -0.382324 1.903076 0.000000 1.000000 1.000000 1.000000 #1.000000
v 0.000000 1.903076 0.382324 1.000000 1.000000 1.000000 #1.000000
vt 0.382568 0.010742 0.000000
vt 0.382568 0.412842 0.000000
vt 0.229004 0.412842 0.000000
vt 0.535889 0.412842 0.000000
vt 0.382568 0.412842 0.000000
vt 0.382568 0.010742 0.000000
vt 0.382568 0.010742 0.000000
vt 0.229004 0.412842 0.000000
vt 0.382568 0.412842 0.000000
vt 0.535889 0.412842 0.000000
vt 0.382568 0.010742 0.000000
vt 0.382568 0.412842 0.000000
vt 0.382568 0.010742 0.000000
vt 0.382568 0.412842 0.000000
vt 0.229004 0.412842 0.000000
vt 0.535889 0.412842 0.000000
vt 0.382568 0.412842 0.000000
vt 0.382568 0.010742 0.000000
vt 0.382568 0.010742 0.000000
vt 0.229004 0.412842 0.000000
vt 0.382568 0.412842 0.000000
vt 0.535889 0.412842 0.000000
vt 0.382568 0.010742 0.000000
vt 0.382568 0.412842 0.000000
vt 0.226563 0.204590 0.000000
vt 0.382568 0.199951 0.000000
vt 0.382568 0.010742 0.000000
vt 0.382568 0.199951 0.000000
vt 0.548340 0.199951 0.000000
vt 0.382568 0.010742 0.000000
vt 0.139404 0.010742 0.000000
vt 0.382568 0.010742 0.000000
vt 0.226563 0.204590 0.000000
vt 0.634033 0.010742 0.000000
vt 0.548340 0.199951 0.000000
vt 0.382568 0.010742 0.000000
vt 0.634033 0.010742 0.000000
vt 0.757080 0.402832 0.000000
vt 0.548340 0.199951 0.000000
vt 0.757080 0.402832 0.000000
vt 0.634033 0.010742 0.000000
vt 0.756836 0.010742 0.000000
vt 0.014160 0.412842 0.000000
vt 0.014160 0.010742 0.000000
vt 0.139404 0.010742 0.000000
vt 0.139404 0.010742 0.000000
vt 0.226563 0.204590 0.000000
vt 0.014160 0.412842 0.000000
vt 0.226563 0.204590 0.000000
vt 0.382568 0.010742 0.000000
vt 0.382568 0.199951 0.000000
vt 0.382568 0.199951 0.000000
vt 0.382568 0.010742 0.000000
vt 0.548340 0.199951 0.000000
vt 0.756836 0.412842 0.000000
vt 0.548340 0.199951 0.000000
vt 0.634033 0.010742 0.000000
vt 0.634033 0.010742 0.000000
vt 0.756836 0.010742 0.000000
vt 0.756836 0.412842 0.000000
vt 0.139404 0.010742 0.000000
vt 0.382568 0.010742 0.000000
vt 0.226563 0.204590 0.000000
vt 0.634033 0.010742 0.000000
vt 0.548340 0.199951 0.000000
vt 0.382568 0.010742 0.000000
vt 0.139404 0.010742 0.000000
vt 0.226563 0.204590 0.000000
vt 0.014160 0.412842 0.000000
vt 0.014160 0.412842 0.000000
vt 0.014160 0.010742 0.000000
vt 0.139404 0.010742 0.000000
vt 0.226563 0.204590 0.000000
vt 0.382568 0.010742 0.000000
vt 0.382568 0.199951 0.000000
vt 0.382568 0.199951 0.000000
vt 0.382568 0.010742 0.000000
vt 0.548340 0.199951 0.000000
vt 0.139404 0.010742 0.000000
vt 0.226563 0.204590 0.000000
vt 0.382568 0.010742 0.000000
vt 0.634033 0.010742 0.000000
vt 0.382568 0.010742 0.000000
vt 0.548340 0.199951 0.000000
vt 0.756836 0.010742 0.000000
vt 0.634033 0.010742 0.000000
vt 0.757080 0.402832 0.000000
vt 0.634033 0.010742 0.000000
vt 0.548340 0.199951 0.000000
vt 0.757080 0.402832 0.000000
vt 0.139160 0.010742 0.000000
vt 0.014160 0.412842 0.000000
vt 0.226563 0.204590 0.000000
vt 0.014160 0.010742 0.000000
vt 0.014160 0.412842 0.000000
vt 0.139160 0.010742 0.000000
vt 0.226563 0.204590 0.000000
vt 0.382568 0.199951 0.000000
vt 0.382568 0.010498 0.000000
vt 0.382568 0.199951 0.000000
vt 0.548340 0.199951 0.000000
vt 0.382568 0.010742 0.000000
vt 0.139404 0.010742 0.000000
vt 0.226563 0.204590 0.000000
vt 0.382568 0.010742 0.000000
vt 0.634033 0.010742 0.000000
vt 0.382568 0.010742 0.000000
vt 0.548340 0.199951 0.000000
vt 0.634033 0.010742 0.000000
vt 0.548340 0.199951 0.000000
vt 0.756836 0.412842 0.000000
vt 0.756836 0.010742 0.000000
vt 0.634033 0.010742 0.000000
vt 0.756836 0.412842 0.000000
vt 0.139404 0.010742 0.000000
vt 0.014160 0.010742 0.000000
vt 0.014160 0.412842 0.000000
vt 0.014160 0.412842 0.000000
vt 0.226563 0.204590 0.000000
vt 0.139404 0.010742 0.000000
vt 0.867432 0.692627 0.000000
vt 0.987061 0.330078 0.000000
vt 0.775391 0.330078 0.000000
vt 0.867432 0.692627 0.000000
vt 0.775391 0.330078 0.000000
vt 0.987061 0.330078 0.000000
vt 0.867432 0.692627 0.000000
vt 0.775391 0.330078 0.000000
vt 0.987061 0.330078 0.000000
vt 0.867432 0.692627 0.000000
vt 0.775391 0.330078 0.000000
vt 0.987061 0.330078 0.000000
vt 0.014160 0.980225 0.000000
vt 0.382568 0.980225 0.000000
vt 0.382568 0.767334 0.000000
vt 0.014160 0.980225 0.000000
vt 0.382568 0.767334 0.000000
vt 0.014160 0.767334 0.000000
vt 0.382568 0.980225 0.000000
vt 0.014404 0.980225 0.000000
vt 0.014404 0.767334 0.000000
vt 0.382568 0.980225 0.000000
vt 0.014404 0.767334 0.000000
vt 0.382568 0.767334 0.000000
vt 0.014160 0.767334 0.000000
vt 0.382568 0.767334 0.000000
vt 0.382568 0.412842 0.000000
vt 0.014160 0.767334 0.000000
vt 0.382568 0.412842 0.000000
vt 0.014160 0.412842 0.000000
vt 0.382568 0.767334 0.000000
vt 0.014404 0.767334 0.000000
vt 0.014160 0.412842 0.000000
vt 0.382568 0.767334 0.000000
vt 0.014160 0.412842 0.000000
vt 0.382568 0.412842 0.000000
vt 0.382568 0.980225 0.000000
vt 0.014160 0.980225 0.000000
vt 0.014160 0.767334 0.000000
vt 0.382568 0.980225 0.000000
vt 0.014160 0.767334 0.000000
vt 0.382568 0.767334 0.000000
vt 0.382568 0.980225 0.000000
vt 0.382568 0.767334 0.000000
vt 0.014404 0.767334 0.000000
vt 0.382568 0.980225 0.000000
vt 0.014404 0.767334 0.000000
vt 0.014404 0.980225 0.000000
vt 0.382568 0.767334 0.000000
vt 0.014160 0.767334 0.000000
vt 0.014160 0.412842 0.000000
vt 0.382568 0.767334 0.000000
vt 0.014160 0.412842 0.000000
vt 0.382568 0.412842 0.000000
vt 0.382568 0.767334 0.000000
vt 0.382568 0.412842 0.000000
vt 0.014160 0.412842 0.000000
vt 0.382568 0.767334 0.000000
vt 0.014160 0.412842 0.000000
vt 0.014404 0.767334 0.000000
vt 0.382568 0.767334 0.000000
vt 0.382568 0.980225 0.000000
vt 0.756836 0.980225 0.000000
vt 0.382568 0.767334 0.000000
vt 0.756836 0.980225 0.000000
vt 0.756836 0.767334 0.000000
vt 0.382568 0.767334 0.000000
vt 0.756836 0.767334 0.000000
vt 0.756836 0.980225 0.000000
vt 0.382568 0.767334 0.000000
vt 0.756836 0.980225 0.000000
vt 0.382568 0.980225 0.000000
vt 0.382568 0.767334 0.000000
vt 0.756836 0.767334 0.000000
vt 0.756836 0.412842 0.000000
vt 0.382568 0.767334 0.000000
vt 0.756836 0.412842 0.000000
vt 0.382568 0.412842 0.000000
vt 0.756836 0.767334 0.000000
vt 0.382568 0.767334 0.000000
vt 0.382568 0.412842 0.000000
vt 0.756836 0.767334 0.000000
vt 0.382568 0.412842 0.000000
vt 0.756836 0.412842 0.000000
vt 0.382568 0.767334 0.000000
vt 0.382568 0.980225 0.000000
vt 0.757080 0.980225 0.000000
vt 0.382568 0.767334 0.000000
vt 0.757080 0.980225 0.000000
vt 0.757080 0.767334 0.000000
vt 0.382568 0.767334 0.000000
vt 0.757080 0.767334 0.000000
vt 0.757080 0.980225 0.000000
vt 0.382568 0.767334 0.000000
vt 0.757080 0.980225 0.000000
vt 0.382568 0.980225 0.000000
vt 0.382568 0.767334 0.000000
vt 0.757080 0.767334 0.000000
vt 0.756836 0.412842 0.000000
vt 0.382568 0.767334 0.000000
vt 0.756836 0.412842 0.000000
vt 0.382568 0.412842 0.000000
vt 0.757080 0.767334 0.000000
vt 0.382568 0.767334 0.000000
vt 0.382568 0.412842 0.000000
vt 0.757080 0.767334 0.000000
vt 0.382568 0.412842 0.000000
vt 0.756836 0.412842 0.000000
vt 0.229004 0.412842 0.000000
vt 0.382568 0.412842 0.000000
vt 0.382568 0.767334 0.000000
vt 0.229004 0.412842 0.000000
vt 0.382568 0.767334 0.000000
vt 0.130859 0.767334 0.000000
vt 0.130859 0.767334 0.000000
vt 0.382568 0.767334 0.000000
vt 0.382568 0.980225 0.000000
vt 0.130859 0.767334 0.000000
vt 0.382568 0.980225 0.000000
vt 0.052734 0.986572 0.000000
vt 0.652588 0.767334 0.000000
vt 0.758545 0.986572 0.000000
vt 0.382568 0.980225 0.000000
vt 0.652588 0.767334 0.000000
vt 0.382568 0.980225 0.000000
vt 0.382568 0.767334 0.000000
vt 0.535889 0.412842 0.000000
vt 0.652588 0.767334 0.000000
vt 0.382568 0.767334 0.000000
vt 0.535889 0.412842 0.000000
vt 0.382568 0.767334 0.000000
vt 0.382568 0.412842 0.000000
vt 0.229004 0.412842 0.000000
vt 0.130859 0.767334 0.000000
vt 0.382568 0.767334 0.000000
vt 0.229004 0.412842 0.000000
vt 0.382568 0.767334 0.000000
vt 0.382568 0.412842 0.000000
vt 0.130859 0.767334 0.000000
vt 0.052734 0.986572 0.000000
vt 0.382568 0.980225 0.000000
vt 0.130859 0.767334 0.000000
vt 0.382568 0.980225 0.000000
vt 0.382568 0.767334 0.000000
vt 0.652588 0.767334 0.000000
vt 0.382568 0.767334 0.000000
vt 0.382568 0.980225 0.000000
vt 0.652588 0.767334 0.000000
vt 0.382568 0.980225 0.000000
vt 0.758545 0.986572 0.000000
vt 0.535889 0.412842 0.000000
vt 0.382568 0.412842 0.000000
vt 0.382568 0.767334 0.000000
vt 0.535889 0.412842 0.000000
vt 0.382568 0.767334 0.000000
vt 0.652588 0.767334 0.000000
vt 0.229004 0.412842 0.000000
vt 0.382568 0.412842 0.000000
vt 0.382568 0.767334 0.000000
vt 0.229004 0.412842 0.000000
vt 0.382568 0.767334 0.000000
vt 0.130859 0.767334 0.000000
vt 0.130859 0.767334 0.000000
vt 0.382568 0.767334 0.000000
vt 0.382568 0.980225 0.000000
vt 0.130859 0.767334 0.000000
vt 0.382568 0.980225 0.000000
vt 0.052734 0.986572 0.000000
vt 0.652588 0.767334 0.000000
vt 0.758545 0.986572 0.000000
vt 0.382568 0.980225 0.000000
vt 0.652588 0.767334 0.000000
vt 0.382568 0.980225 0.000000
vt 0.382568 0.767334 0.000000
vt 0.535889 0.412842 0.000000
vt 0.652588 0.767334 0.000000
vt 0.382568 0.767334 0.000000
vt 0.535889 0.412842 0.000000
vt 0.382568 0.767334 0.000000
vt 0.382568 0.412842 0.000000
vt 0.229004 0.412842 0.000000
vt 0.130859 0.767334 0.000000
vt 0.382568 0.767334 0.000000
vt 0.229004 0.412842 0.000000
vt 0.382568 0.767334 0.000000
vt 0.382568 0.412842 0.000000
vt 0.130859 0.767334 0.000000
vt 0.052734 0.986572 0.000000
vt 0.382568 0.980225 0.000000
vt 0.130859 0.767334 0.000000
vt 0.382568 0.980225 0.000000
vt 0.382568 0.767334 0.000000
vt 0.652588 0.767334 0.000000
vt 0.382568 0.767334 0.000000
vt 0.382568 0.980225 0.000000
vt 0.652588 0.767334 0.000000
vt 0.382568 0.980225 0.000000
vt 0.758545 0.986572 0.000000
vt 0.535889 0.412842 0.000000
vt 0.382568 0.412842 0.000000
vt 0.382568 0.767334 0.000000
vt 0.535889 0.412842 0.000000
vt 0.382568 0.767334 0.000000
vt 0.652588 0.767334 0.000000
vt 0.014160 0.412842 0.000000
vt 0.382568 0.412842 0.000000
vt 0.382568 0.199951 0.000000
vt 0.014160 0.412842 0.000000
vt 0.382568 0.199951 0.000000
vt 0.226563 0.204590 0.000000
vt 0.382568 0.412842 0.000000
vt 0.756836 0.412842 0.000000
vt 0.548340 0.199951 0.000000
vt 0.382568 0.412842 0.000000
vt 0.548340 0.199951 0.000000
vt 0.382568 0.199951 0.000000
vt 0.014160 0.412842 0.000000
vt 0.226563 0.204590 0.000000
vt 0.382568 0.199951 0.000000
vt 0.014160 0.412842 0.000000
vt 0.382568 0.199951 0.000000
vt 0.382568 0.412842 0.000000
vt 0.382568 0.412842 0.000000
vt 0.382568 0.199951 0.000000
vt 0.548340 0.199951 0.000000
vt 0.382568 0.412842 0.000000
vt 0.548340 0.199951 0.000000
vt 0.756836 0.412842 0.000000
vt 0.014160 0.412842 0.000000
vt 0.226563 0.204590 0.000000
vt 0.382568 0.199951 0.000000
vt 0.014160 0.412842 0.000000
vt 0.382568 0.199951 0.000000
vt 0.382568 0.412842 0.000000
vt 0.382568 0.412842 0.000000
vt 0.382568 0.199951 0.000000
vt 0.548340 0.199951 0.000000
vt 0.382568 0.412842 0.000000
vt 0.548340 0.199951 0.000000
vt 0.756836 0.412842 0.000000
vt 0.014160 0.412842 0.000000
vt 0.382568 0.412842 0.000000
vt 0.382568 0.199951 0.000000
vt 0.014160 0.412842 0.000000
vt 0.382568 0.199951 0.000000
vt 0.226563 0.204590 0.000000
vt 0.382568 0.412842 0.000000
vt 0.756836 0.412842 0.000000
vt 0.548340 0.199951 0.000000
vt 0.382568 0.412842 0.000000
vt 0.548340 0.199951 0.000000
vt 0.382568 0.199951 0.000000
vt 0.775391 0.010742 0.000000
vt 0.983887 0.010742 0.000000
vt 0.987061 0.330078 0.000000
vt 0.775391 0.010742 0.000000
vt 0.987061 0.330078 0.000000
vt 0.775391 0.330078 0.000000
vn 0.130859 -0.459473 0.878418
vn 0.043457 -0.343994 0.937744
vn -0.729492 -0.326660 0.600830
vn 0.712891 -0.155029 0.683594
vn 0.043457 -0.343994 0.937744
vn 0.130859 -0.459473 0.878418
vn 0.316650 0.179199 0.931152
vn -0.518799 0.669434 0.531494
vn 0.176758 0.166260 0.969971
vn 0.677734 -0.432373 0.594482
vn 0.316650 0.179199 0.931152
vn 0.176758 0.166260 0.969971
vn -0.320068 0.236572 0.917236
vn -0.333740 0.113037 0.935791
vn -0.369385 0.866455 0.334961
vn 0.004883 -0.734619 0.678223
vn -0.333740 0.113037 0.935791
vn -0.320068 0.236572 0.917236
vn -0.056641 -0.245850 0.967529
vn 0.771729 -0.051514 0.633789
vn 0.019043 -0.211426 0.977051
vn -0.730957 -0.223145 0.644775
vn -0.056641 -0.245850 0.967529
vn 0.019043 -0.211426 0.977051
vn -0.755615 -0.497314 0.426025
vn -0.005859 -0.949219 -0.313965
vn 0.004395 -0.706787 0.707031
vn -0.005859 -0.949219 -0.313965
vn 0.774170 -0.492432 0.397461
vn 0.004395 -0.706787 0.707031
vn 0.025146 0.495605 0.867920
vn 0.004395 -0.706787 0.707031
vn 0.774170 -0.492432 0.397461
vn 0.025146 0.495605 0.867920
vn -0.755615 -0.497314 0.426025
vn 0.004395 -0.706787 0.707031
vn 0.025146 0.495605 0.867920
vn -0.542236 -0.548584 0.635986
vn -0.755615 -0.497314 0.426025
vn -0.542236 -0.548584 0.635986
vn 0.025146 0.495605 0.867920
vn 0.020508 0.259521 0.965332
vn 0.556152 -0.535156 0.635498
vn 0.020508 0.259521 0.965332
vn 0.025146 0.495605 0.867920
vn 0.025146 0.495605 0.867920
vn 0.774170 -0.492432 0.397461
vn 0.556152 -0.535156 0.635498
vn 0.473145 0.762207 0.441162
vn 0.669189 0.013428 0.742920
vn 0.943604 0.002197 -0.330322
vn 0.943604 0.002197 -0.330322
vn 0.669189 0.013428 0.742920
vn 0.464600 -0.765137 0.445313
vn 0.556152 -0.535156 0.635498
vn 0.464600 -0.765137 0.445313
vn -0.506592 0.000000 0.862061
vn -0.506592 0.000000 0.862061
vn -0.234131 -0.004883 0.971924
vn 0.556152 -0.535156 0.635498
vn -0.506592 0.000000 0.862061
vn 0.669189 0.013428 0.742920
vn 0.473145 0.762207 0.441162
vn -0.506592 0.000000 0.862061
vn 0.464600 -0.765137 0.445313
vn 0.669189 0.013428 0.742920
vn -0.506592 0.000000 0.862061
vn 0.473145 0.762207 0.441162
vn 0.582520 0.521240 0.623291
vn 0.582520 0.521240 0.623291
vn -0.234131 -0.004883 0.971924
vn -0.506592 0.000000 0.862061
vn -0.484131 -0.768555 0.417969
vn -0.688232 -0.012939 0.725098
vn -0.945313 -0.010254 -0.325195
vn -0.945313 -0.010254 -0.325195
vn -0.688232 -0.012939 0.725098
vn -0.490234 0.758301 0.429443
vn 0.487793 -0.001465 0.872803
vn -0.490234 0.758301 0.429443
vn -0.688232 -0.012939 0.725098
vn 0.487793 -0.001465 0.872803
vn -0.688232 -0.012939 0.725098
vn -0.484131 -0.768555 0.417969
vn 0.239014 0.009277 0.970703
vn 0.487793 -0.001465 0.872803
vn -0.542236 -0.548584 0.635986
vn 0.487793 -0.001465 0.872803
vn -0.484131 -0.768555 0.417969
vn -0.542236 -0.548584 0.635986
vn 0.487793 -0.001465 0.872803
vn -0.575684 0.554688 0.600586
vn -0.490234 0.758301 0.429443
vn 0.239014 0.009277 0.970703
vn -0.575684 0.554688 0.600586
vn 0.487793 -0.001465 0.872803
vn 0.769775 0.500732 0.395264
vn 0.015381 0.950439 -0.310303
vn -0.003662 0.731689 0.681396
vn 0.015381 0.950439 -0.310303
vn -0.755127 0.526367 0.390137
vn -0.003662 0.731689 0.681396
vn -0.008057 -0.500000 0.865723
vn 0.769775 0.500732 0.395264
vn -0.003662 0.731689 0.681396
vn -0.008057 -0.500000 0.865723
vn -0.003662 0.731689 0.681396
vn -0.755127 0.526367 0.390137
vn -0.008057 -0.500000 0.865723
vn -0.755127 0.526367 0.390137
vn -0.575684 0.554688 0.600586
vn -0.006348 -0.284424 0.958496
vn -0.008057 -0.500000 0.865723
vn -0.575684 0.554688 0.600586
vn -0.008057 -0.500000 0.865723
vn -0.006348 -0.284424 0.958496
vn 0.582520 0.521240 0.623291
vn 0.582520 0.521240 0.623291
vn 0.769775 0.500732 0.395264
vn -0.008057 -0.500000 0.865723
vn -0.542236 -0.548584 0.635986
vn 0.020508 0.259521 0.965332
vn 0.239014 0.009277 0.970703
vn -0.575684 0.554688 0.600586
vn 0.239014 0.009277 0.970703
vn -0.006348 -0.284424 0.958496
vn 0.556152 -0.535156 0.635498
vn -0.234131 -0.004883 0.971924
vn 0.020508 0.259521 0.965332
vn 0.582520 0.521240 0.623291
vn -0.006348 -0.284424 0.958496
vn -0.234131 -0.004883 0.971924
vn -0.619873 -0.669922 -0.408203
vn -0.017090 -0.934814 -0.354248
vn -0.012207 -0.981689 -0.189453
vn -0.619873 -0.669922 -0.408203
vn -0.012207 -0.981689 -0.189453
vn -0.682373 -0.705811 -0.189209
vn -0.874512 -0.006592 -0.484619
vn -0.619873 -0.669922 -0.408203
vn -0.682373 -0.705811 -0.189209
vn -0.874512 -0.006592 -0.484619
vn -0.682373 -0.705811 -0.189209
vn -0.980225 -0.007080 -0.197266
vn -0.682373 -0.705811 -0.189209
vn -0.012207 -0.981689 -0.189453
vn -0.006348 -0.946777 -0.321533
vn -0.682373 -0.705811 -0.189209
vn -0.006348 -0.946777 -0.321533
vn -0.542236 -0.548584 0.635986
vn -0.980225 -0.007080 -0.197266
vn -0.682373 -0.705811 -0.189209
vn -0.542236 -0.548584 0.635986
vn -0.980225 -0.007080 -0.197266
vn -0.542236 -0.548584 0.635986
vn -0.961914 -0.013428 -0.271973
vn 0.874512 0.006592 -0.484619
vn 0.619873 0.669922 -0.408203
vn 0.691406 0.698730 -0.182861
vn 0.874512 0.006592 -0.484619
vn 0.691406 0.698730 -0.182861
vn 0.985107 0.004883 -0.171631
vn 0.017090 0.934814 -0.354248
vn 0.019775 0.978516 -0.205078
vn 0.691406 0.698730 -0.182861
vn 0.017090 0.934814 -0.354248
vn 0.691406 0.698730 -0.182861
vn 0.619873 0.669922 -0.408203
vn 0.985107 0.004883 -0.171631
vn 0.691406 0.698730 -0.182861
vn 0.582520 0.521240 0.623291
vn 0.985107 0.004883 -0.171631
vn 0.582520 0.521240 0.623291
vn 0.967773 0.002686 -0.251465
vn 0.019775 0.978516 -0.205078
vn 0.024170 0.942383 -0.333252
vn 0.582520 0.521240 0.623291
vn 0.019775 0.978516 -0.205078
vn 0.582520 0.521240 0.623291
vn 0.691406 0.698730 -0.182861
vn -0.012207 -0.981689 -0.189453
vn -0.017090 -0.934814 -0.354248
vn 0.610107 -0.675293 -0.413574
vn -0.012207 -0.981689 -0.189453
vn 0.610107 -0.675293 -0.413574
vn 0.681885 -0.709961 -0.175781
vn 0.985107 0.004883 -0.171631
vn 0.681885 -0.709961 -0.175781
vn 0.610107 -0.675293 -0.413574
vn 0.985107 0.004883 -0.171631
vn 0.610107 -0.675293 -0.413574
vn 0.874512 0.006592 -0.484619
vn -0.012207 -0.981689 -0.189453
vn 0.681885 -0.709961 -0.175781
vn 0.556152 -0.535156 0.635498
vn -0.012207 -0.981689 -0.189453
vn 0.556152 -0.535156 0.635498
vn -0.006348 -0.946777 -0.321533
vn 0.681885 -0.709961 -0.175781
vn 0.985107 0.004883 -0.171631
vn 0.967773 0.002686 -0.251465
vn 0.681885 -0.709961 -0.175781
vn 0.967773 0.002686 -0.251465
vn 0.556152 -0.535156 0.635498
vn 0.019775 0.978516 -0.205078
vn 0.017090 0.934814 -0.354248
vn -0.610107 0.675293 -0.413574
vn 0.019775 0.978516 -0.205078
vn -0.610107 0.675293 -0.413574
vn -0.676270 0.708984 -0.199463
vn -0.980225 -0.007080 -0.197266
vn -0.676270 0.708984 -0.199463
vn -0.610107 0.675293 -0.413574
vn -0.980225 -0.007080 -0.197266
vn -0.610107 0.675293 -0.413574
vn -0.874512 -0.006592 -0.484619
vn 0.019775 0.978516 -0.205078
vn -0.676270 0.708984 -0.199463
vn -0.575684 0.554688 0.600586
vn 0.019775 0.978516 -0.205078
vn -0.575684 0.554688 0.600586
vn 0.024170 0.942383 -0.333252
vn -0.676270 0.708984 -0.199463
vn -0.980225 -0.007080 -0.197266
vn -0.961914 -0.013428 -0.271973
vn -0.676270 0.708984 -0.199463
vn -0.961914 -0.013428 -0.271973
vn -0.575684 0.554688 0.600586
vn -0.729492 -0.326660 0.600830
vn 0.043457 -0.343994 0.937744
vn -0.044434 -0.091064 0.994629
vn -0.729492 -0.326660 0.600830
vn -0.044434 -0.091064 0.994629
vn -0.829834 -0.121094 0.544189
vn -0.829834 -0.121094 0.544189
vn -0.044434 -0.091064 0.994629
vn -0.018799 0.031738 0.999268
vn -0.829834 -0.121094 0.544189
vn -0.018799 0.031738 0.999268
vn -0.776123 -0.422852 0.467285
vn 0.824219 0.023438 0.565430
vn 0.758301 0.452637 0.468506
vn -0.018799 0.031738 0.999268
vn 0.824219 0.023438 0.565430
vn -0.018799 0.031738 0.999268
vn -0.044434 -0.091064 0.994629
vn 0.712891 -0.155029 0.683594
vn 0.824219 0.023438 0.565430
vn -0.044434 -0.091064 0.994629
vn 0.712891 -0.155029 0.683594
vn -0.044434 -0.091064 0.994629
vn 0.043457 -0.343994 0.937744
vn -0.518799 0.669434 0.531494
vn -0.878662 -0.118652 0.461914
vn -0.009277 0.114258 0.993164
vn -0.518799 0.669434 0.531494
vn -0.009277 0.114258 0.993164
vn 0.176758 0.166260 0.969971
vn -0.878662 -0.118652 0.461914
vn -0.770508 -0.496582 0.399170
vn -0.026855 0.073486 0.996826
vn -0.878662 -0.118652 0.461914
vn -0.026855 0.073486 0.996826
vn -0.009277 0.114258 0.993164
vn 0.856934 0.222656 0.464355
vn -0.009277 0.114258 0.993164
vn -0.026855 0.073486 0.996826
vn 0.856934 0.222656 0.464355
vn -0.026855 0.073486 0.996826
vn 0.749756 0.552979 0.363037
vn 0.677734 -0.432373 0.594482
vn 0.176758 0.166260 0.969971
vn -0.009277 0.114258 0.993164
vn 0.677734 -0.432373 0.594482
vn -0.009277 0.114258 0.993164
vn 0.856934 0.222656 0.464355
vn -0.369385 0.866455 0.334961
vn -0.333740 0.113037 0.935791
vn -0.242676 0.019775 0.969727
vn -0.369385 0.866455 0.334961
vn -0.242676 0.019775 0.969727
vn -0.456299 0.828125 0.324707
vn -0.456299 0.828125 0.324707
vn -0.242676 0.019775 0.969727
vn -0.115723 0.067139 0.990967
vn -0.456299 0.828125 0.324707
vn -0.115723 0.067139 0.990967
vn -0.208496 0.922607 0.324219
vn 0.224121 -0.791016 0.569092
vn 0.114014 -0.867676 0.483398
vn -0.115723 0.067139 0.990967
vn 0.224121 -0.791016 0.569092
vn -0.115723 0.067139 0.990967
vn -0.242676 0.019775 0.969727
vn 0.004883 -0.734619 0.678223
vn 0.224121 -0.791016 0.569092
vn -0.242676 0.019775 0.969727
vn 0.004883 -0.734619 0.678223
vn -0.242676 0.019775 0.969727
vn -0.333740 0.113037 0.935791
vn 0.771729 -0.051514 0.633789
vn 0.472168 0.601563 0.644043
vn 0.142090 -0.151367 0.978027
vn 0.771729 -0.051514 0.633789
vn 0.142090 -0.151367 0.978027
vn 0.019043 -0.211426 0.977051
vn 0.472168 0.601563 0.644043
vn 0.102051 0.789307 0.604980
vn 0.185791 -0.128418 0.973877
vn 0.472168 0.601563 0.644043
vn 0.185791 -0.128418 0.973877
vn 0.142090 -0.151367 0.978027
vn -0.305176 -0.790527 0.530518
vn 0.142090 -0.151367 0.978027
vn 0.185791 -0.128418 0.973877
vn -0.305176 -0.790527 0.530518
vn 0.185791 -0.128418 0.973877
vn 0.086426 -0.919678 0.382813
vn -0.730957 -0.223145 0.644775
vn 0.019043 -0.211426 0.977051
vn 0.142090 -0.151367 0.978027
vn -0.730957 -0.223145 0.644775
vn 0.142090 -0.151367 0.978027
vn -0.305176 -0.790527 0.530518
vn -0.542236 -0.548584 0.635986
vn -0.006348 -0.946777 -0.321533
vn -0.005859 -0.949219 -0.313965
vn -0.542236 -0.548584 0.635986
vn -0.005859 -0.949219 -0.313965
vn -0.755615 -0.497314 0.426025
vn -0.006348 -0.946777 -0.321533
vn 0.556152 -0.535156 0.635498
vn 0.774170 -0.492432 0.397461
vn -0.006348 -0.946777 -0.321533
vn 0.774170 -0.492432 0.397461
vn -0.005859 -0.949219 -0.313965
vn 0.582520 0.521240 0.623291
vn 0.473145 0.762207 0.441162
vn 0.943604 0.002197 -0.330322
vn 0.582520 0.521240 0.623291
vn 0.943604 0.002197 -0.330322
vn 0.967773 0.002686 -0.251465
vn 0.967773 0.002686 -0.251465
vn 0.943604 0.002197 -0.330322
vn 0.464600 -0.765137 0.445313
vn 0.967773 0.002686 -0.251465
vn 0.464600 -0.765137 0.445313
vn 0.556152 -0.535156 0.635498
vn -0.542236 -0.548584 0.635986
vn -0.484131 -0.768555 0.417969
vn -0.945313 -0.010254 -0.325195
vn -0.542236 -0.548584 0.635986
vn -0.945313 -0.010254 -0.325195
vn -0.961914 -0.013428 -0.271973
vn -0.961914 -0.013428 -0.271973
vn -0.945313 -0.010254 -0.325195
vn -0.490234 0.758301 0.429443
vn -0.961914 -0.013428 -0.271973
vn -0.490234 0.758301 0.429443
vn -0.575684 0.554688 0.600586
vn 0.582520 0.521240 0.623291
vn 0.024170 0.942383 -0.333252
vn 0.015381 0.950439 -0.310303
vn 0.582520 0.521240 0.623291
vn 0.015381 0.950439 -0.310303
vn 0.769775 0.500732 0.395264
vn 0.024170 0.942383 -0.333252
vn -0.575684 0.554688 0.600586
vn -0.755127 0.526367 0.390137
vn 0.024170 0.942383 -0.333252
vn -0.755127 0.526367 0.390137
vn 0.015381 0.950439 -0.310303
vn 0.239014 0.009277 0.970703
vn 0.020508 0.259521 0.965332
vn -0.234131 -0.004883 0.971924
vn 0.239014 0.009277 0.970703
vn -0.234131 -0.004883 0.971924
vn -0.006348 -0.284424 0.958496
usemtl Texture
f 1/1/1 2/2/2 3/3/3
f 4/4/4 5/5/5 6/6/6
f 7/7/7 8/8/8 9/9/9
f 10/10/10 11/11/11 12/12/12
f 13/13/13 14/14/14 15/15/15
f 16/16/16 17/17/17 18/18/18
f 19/19/19 20/20/20 21/21/21
f 22/22/22 23/23/23 24/24/24
f 25/25/25 26/26/26 27/27/27
f 28/28/28 29/29/29 30/30/30
f 31/31/31 32/32/32 33/33/33
f 34/34/34 35/35/35 36/36/36
f 37/37/37 38/38/38 39/39/39
f 40/40/40 41/41/41 42/42/42
f 43/43/43 44/44/44 45/45/45
f 46/46/46 47/47/47 48/48/48
f 49/49/49 50/50/50 51/51/51
f 52/52/52 53/53/53 54/54/54
f 55/55/55 56/56/56 57/57/57
f 58/58/58 59/59/59 60/60/60
f 61/61/61 62/62/62 63/63/63
f 64/64/64 65/65/65 66/66/66
f 67/67/67 68/68/68 69/69/69
f 70/70/70 71/71/71 72/72/72
f 73/73/73 74/74/74 75/75/75
f 76/76/76 77/77/77 78/78/78
f 79/79/79 80/80/80 81/81/81
f 82/82/82 83/83/83 84/84/84
f 85/85/85 86/86/86 87/87/87
f 88/88/88 89/89/89 90/90/90
f 91/91/91 92/92/92 93/93/93
f 94/94/94 95/95/95 96/96/96
f 97/97/97 98/98/98 99/99/99
f 100/100/100 101/101/101 102/102/102
f 103/103/103 104/104/104 105/105/105
f 106/106/106 107/107/107 108/108/108
f 109/109/109 110/110/110 111/111/111
f 112/112/112 113/113/113 114/114/114
f 115/115/115 116/116/116 117/117/117
f 118/118/118 119/119/119 120/120/120
f 121/121/121 122/122/122 123/123/123
f 124/124/124 125/125/125 126/126/126
f 127/127/127 128/128/128 129/129/129
f 130/130/130 131/131/131 132/132/132
f 133/133/133 134/134/134 135/135/135
f 136/136/136 137/137/137 138/138/138
f 139/139/139 140/140/140 141/141/141
f 142/142/142 143/143/143 144/144/144
f 145/145/145 146/146/146 147/147/147
f 148/148/148 149/149/149 150/150/150
f 151/151/151 152/152/152 153/153/153
f 154/154/154 155/155/155 156/156/156
f 157/157/157 158/158/158 159/159/159
f 160/160/160 161/161/161 162/162/162
f 163/163/163 164/164/164 165/165/165
f 166/166/166 167/167/167 168/168/168
f 169/169/169 170/170/170 171/171/171
f 172/172/172 173/173/173 174/174/174
f 175/175/175 176/176/176 177/177/177
f 178/178/178 179/179/179 180/180/180
f 181/181/181 182/182/182 183/183/183
f 184/184/184 185/185/185 186/186/186
f 187/187/187 188/188/188 189/189/189
f 190/190/190 191/191/191 192/192/192
f 193/193/193 194/194/194 195/195/195
f 196/196/196 197/197/197 198/198/198
f 199/199/199 200/200/200 201/201/201
f 202/202/202 203/203/203 204/204/204
f 205/205/205 206/206/206 207/207/207
f 208/208/208 209/209/209 210/210/210
f 211/211/211 212/212/212 213/213/213
f 214/214/214 215/215/215 216/216/216
f 217/217/217 218/218/218 219/219/219
f 220/220/220 221/221/221 222/222/222
f 223/223/223 224/224/224 225/225/225
f 226/226/226 227/227/227 228/228/228
f 229/229/229 230/230/230 231/231/231
f 232/232/232 233/233/233 234/234/234
f 235/235/235 236/236/236 237/237/237
f 238/238/238 239/239/239 240/240/240
f 241/241/241 242/242/242 243/243/243
f 244/244/244 245/245/245 246/246/246
f 247/247/247 248/248/248 249/249/249
f 250/250/250 251/251/251 252/252/252
f 253/253/253 254/254/254 255/255/255
f 256/256/256 257/257/257 258/258/258
f 259/259/259 260/260/260 261/261/261
f 262/262/262 263/263/263 264/264/264
f 265/265/265 266/266/266 267/267/267
f 268/268/268 269/269/269 270/270/270
f 271/271/271 272/272/272 273/273/273
f 274/274/274 275/275/275 276/276/276
f 277/277/277 278/278/278 279/279/279
f 280/280/280 281/281/281 282/282/282
f 283/283/283 284/284/284 285/285/285
f 286/286/286 287/287/287 288/288/288
f 289/289/289 290/290/290 291/291/291
f 292/292/292 293/293/293 294/294/294
f 295/295/295 296/296/296 297/297/297
f 298/298/298 299/299/299 300/300/300
f 301/301/301 302/302/302 303/303/303
f 304/304/304 305/305/305 306/306/306
f 307/307/307 308/308/308 309/309/309
f 310/310/310 311/311/311 312/312/312
f 313/313/313 314/314/314 315/315/315
f 316/316/316 317/317/317 318/318/318
f 319/319/319 320/320/320 321/321/321
f 322/322/322 323/323/323 324/324/324
f 325/325/325 326/326/326 327/327/327
f 328/328/328 329/329/329 330/330/330
f 331/331/331 332/332/332 333/333/333
f 334/334/334 335/335/335 336/336/336
f 337/337/337 338/338/338 339/339/339
f 340/340/340 341/341/341 342/342/342
f 343/343/343 344/344/344 345/345/345
f 346/346/346 347/347/347 348/348/348
f 349/349/349 350/350/350 351/351/351
f 352/352/352 353/353/353 354/354/354
f 355/355/355 356/356/356 357/357/357
f 358/358/358 359/359/359 360/360/360
f 361/361/361 362/362/362 363/363/363
f 364/364/364 365/365/365 366/366/366
f 367/367/367 368/368/368 369/369/369
f 370/370/370 371/371/371 372/372/372
f 373/373/373 374/374/374 375/375/375
f 376/376/376 377/377/377 378/378/378