<?xml version="1.0" encoding="utf-8"?>
<!-- Generator: Adobe Illustrator 28.1.0, SVG Export Plug-In . SVG Version: 6.00 Build 0)  -->
<svg version="1.1" id="Layer_1" xmlns="http://www.w3.org/2000/svg" xmlns:xlink="http://www.w3.org/1999/xlink" x="0px" y="0px"
	 viewBox="0 0 619.82 517.02" style="enable-background:new 0 0 619.82 517.02;" xml:space="preserve">
<style type="text/css">
	.st0{fill:#FFFFFF;}
	.st1{fill:#0B5CD4;}
</style>
<g>
	<path d="M9.05,32.21c0.24-0.25,0.48-0.5,0.74-0.74c0.24-0.24,0.48-0.5,0.73-0.73c0.24-0.24,0.48-0.5,0.73-0.73
		c0.24-0.24,0.48-0.5,0.73-0.73c0.24-0.24,0.48-0.5,0.73-0.73c0.24-0.25,0.48-0.5,0.74-0.74c0.24-0.24,0.48-0.5,0.73-0.73
		c0.24-0.24,0.48-0.5,0.73-0.73c0.24-0.25,0.48-0.5,0.74-0.74c0.24-0.24,0.48-0.5,0.73-0.73c0.24-0.24,0.48-0.5,0.73-0.73
		c0.24-0.24,0.48-0.5,0.73-0.73c0.24-0.24,0.48-0.5,0.73-0.73c0.24-0.25,0.48-0.5,0.74-0.74c0.24-0.24,0.48-0.5,0.73-0.73
		c0.24-0.24,0.48-0.5,0.73-0.73c0.24-0.25,0.48-0.5,0.74-0.74c0.24-0.24,0.48-0.5,0.73-0.73c0.24-0.25,0.48-0.5,0.73-0.73
		c0.24-0.24,0.48-0.5,0.73-0.73c0.24-0.24,0.48-0.5,0.73-0.73c0.24-0.25,0.48-0.5,0.74-0.74c0.24-0.24,0.48-0.5,0.73-0.73
		c0.24-0.24,0.48-0.5,0.73-0.73c0.24-0.25,0.48-0.5,0.74-0.74c0.24-0.24,0.48-0.5,0.73-0.73c0.24-0.25,0.48-0.5,0.73-0.73
		c0.24-0.24,0.48-0.5,0.73-0.73c0.24-0.24,0.48-0.5,0.73-0.73c0.24-0.25,0.48-0.5,0.74-0.74C37.42,3.82,47.16,0,59.44,0h322.37
		c29.07,0,61.52,21.33,72.33,47.54l81.28,197.11l0.71,1.73l0.71,1.73l0.31,1.69l0.32,1.69l2.46,13.24l6.58,10.29
		c4.15,6.5,6.87,13.09,8.08,19.59l1.91,10.3l6.58,10.29c4.15,6.5,6.87,13.09,8.08,19.59l1.91,10.3l8.47,13.25l1.08,1.7l1.08,1.69
		l0.71,1.73l0.71,1.73l30.64,74.3c7.4,17.95,4.37,33.91-6.33,43.9c-0.24,0.24-0.48,0.5-0.73,0.73c-0.25,0.24-0.48,0.5-0.73,0.73
		c-0.25,0.24-0.48,0.5-0.73,0.73c-0.25,0.24-0.48,0.5-0.73,0.73c-0.25,0.24-0.48,0.5-0.73,0.73c-0.24,0.24-0.48,0.5-0.73,0.73
		c-0.25,0.24-0.48,0.5-0.73,0.73c-0.25,0.24-0.48,0.5-0.73,0.73c-0.24,0.24-0.48,0.5-0.73,0.73c-0.25,0.24-0.48,0.5-0.73,0.73
		c-0.25,0.24-0.48,0.5-0.73,0.73c-0.25,0.24-0.48,0.5-0.73,0.73c-0.25,0.24-0.48,0.5-0.73,0.73c-0.24,0.24-0.48,0.5-0.73,0.73
		c-0.25,0.24-0.48,0.5-0.73,0.73c-0.25,0.24-0.48,0.5-0.73,0.73c-0.24,0.24-0.48,0.5-0.73,0.73c-0.25,0.24-0.48,0.5-0.73,0.73
		c-0.25,0.24-0.48,0.5-0.73,0.73c-0.24,0.24-0.48,0.5-0.73,0.73c-0.25,0.24-0.48,0.5-0.73,0.73c-0.24,0.24-0.48,0.5-0.73,0.73
		c-0.25,0.24-0.48,0.5-0.73,0.73c-0.25,0.24-0.48,0.5-0.73,0.73c-0.24,0.24-0.48,0.5-0.73,0.73c-0.25,0.24-0.48,0.5-0.73,0.73
		c-0.25,0.24-0.48,0.5-0.73,0.73c-0.25,0.24-0.48,0.5-0.73,0.73c-0.25,0.24-0.48,0.5-0.73,0.73c-0.24,0.24-0.48,0.5-0.73,0.73
		c-7.3,7.27-18.45,11.62-32.51,11.62H247.88c-33.46,0-70.79-24.58-83.21-54.79l-30.55-74.3l-0.71-1.73l-0.71-1.73l-0.31-1.69
		l-0.31-1.69l-2.44-13.25l-6.57-10.29c-4.15-6.5-6.86-13.1-8.06-19.6l-1.9-10.29l-6.56-10.29c-4.15-6.5-6.86-13.09-8.06-19.59
		l-1.9-10.29l-8.45-13.24l-1.08-1.69l-1.08-1.69l-0.71-1.73l-0.71-1.73L3.51,70.3C-2.89,54.73-0.24,40.88,9.05,32.21z"/>
	<path class="st0" d="M547.28,365.18l-10.95-17.14c-1.25-1.95-2.07-3.96-2.44-5.91l-2.63-14.18c-0.36-1.95-1.19-3.96-2.44-5.91
		l-9.06-14.18c-1.25-1.95-2.07-3.96-2.43-5.91l-2.63-14.18c-0.36-1.95-1.19-3.96-2.43-5.91l-9.06-14.18
		c-1.25-1.95-2.07-3.96-2.43-5.91l-3.18-17.13L416.34,47.55c-3.07-7.43-12.23-13.46-20.48-13.46H73.46
		c-8.24,0-12.45,6.03-9.39,13.46l81.07,197.11l10.93,17.13c1.24,1.95,2.07,3.96,2.43,5.91l2.62,14.18c0.36,1.95,1.19,3.96,2.43,5.91
		l9.05,14.18c1.24,1.95,2.07,3.96,2.43,5.91l2.62,14.18c0.36,1.95,1.19,3.96,2.43,5.91l9.05,14.18c1.24,1.95,2.07,3.96,2.43,5.91
		l3.16,17.14l30.56,74.3c4.68,11.39,18.7,20.62,31.32,20.62h307c12.61,0,19.03-9.23,14.34-20.62L547.28,365.18z"/>
	<path d="M596.83,439.49l-30.64-74.3l-0.71-1.73l-1.08-1.69l-10.65-16.67l-2.55-13.72c-0.79-4.23-2.55-8.52-5.26-12.75l-8.76-13.71
		l-2.54-13.72c-0.79-4.23-2.55-8.52-5.26-12.75l-8.76-13.71l-3.09-16.66l-0.31-1.69l-0.71-1.73L435.24,47.55
		c-6.94-16.82-27.75-30.5-46.4-30.5H66.45c-18.65,0-28.2,13.68-21.28,30.5l81.06,197.11l0.71,1.73l1.08,1.69l10.63,16.66l2.53,13.71
		c0.78,4.23,2.54,8.52,5.24,12.75l8.75,13.71l2.53,13.71c0.78,4.23,2.54,8.52,5.24,12.75l8.75,13.71l3.07,16.67l0.31,1.69l0.71,1.73
		l30.56,74.3c8.55,20.79,34.24,37.7,57.26,37.7h307.01C593.64,477.19,605.4,460.28,596.83,439.49z M563.57,460.1h-307
		c-12.61,0-26.63-9.23-31.32-20.62l-30.56-74.3l-3.16-17.14c-0.36-1.95-1.19-3.96-2.43-5.91l-9.05-14.18
		c-1.24-1.95-2.07-3.96-2.43-5.91l-2.62-14.18c-0.36-1.95-1.19-3.96-2.43-5.91l-9.05-14.18c-1.24-1.95-2.07-3.96-2.43-5.91
		l-2.62-14.18c-0.36-1.95-1.19-3.96-2.43-5.91l-10.93-17.13L64.06,47.55c-3.06-7.43,1.15-13.46,9.39-13.46h322.4
		c8.24,0,17.41,6.03,20.48,13.46l81.26,197.11l3.18,17.13c0.36,1.95,1.19,3.96,2.43,5.91l9.06,14.18c1.24,1.95,2.07,3.96,2.43,5.91
		l2.63,14.18c0.36,1.95,1.19,3.96,2.43,5.91l9.06,14.18c1.24,1.95,2.07,3.96,2.44,5.91l2.63,14.18c0.36,1.95,1.19,3.96,2.44,5.91
		l10.95,17.14l30.63,74.3C582.6,450.87,576.18,460.1,563.57,460.1z"/>
	<polygon points="202.23,66.84 294.66,66.84 241.13,48.55 	"/>
	<path d="M97.76,64.83c1.74,4.23,6.95,7.65,11.64,7.65c4.69,0,7.08-3.43,5.34-7.65c-1.74-4.23-6.95-7.65-11.64-7.65
		S96.02,60.61,97.76,64.83z"/>
	<path d="M382.02,64.83c1.74,4.23,6.95,7.65,11.64,7.65c4.69,0,7.08-3.43,5.33-7.65c-1.74-4.23-6.95-7.65-11.64-7.65
		C382.67,57.18,380.28,60.61,382.02,64.83z"/>
	<path d="M236.56,384.12h285.49c4.12,0,6.22-3.01,4.69-6.73l-51.77-125.61c-1.53-3.72-6.11-6.73-10.23-6.73H179.34
		c-4.12,0-6.22,3.01-4.69,6.73l51.67,125.61C227.86,381.1,232.44,384.12,236.56,384.12z"/>
	<g>
		<path class="st1" d="M66.45,17.04c-18.65,0-28.2,13.68-21.28,30.5l81.06,197.11l0.71,1.73l1.08,1.69l10.63,16.66l2.53,13.71
			c0.78,4.23,2.54,8.52,5.24,12.75l8.75,13.71l2.53,13.71c0.78,4.23,2.54,8.52,5.24,12.75l8.75,13.71l3.07,16.67l0.31,1.69
			l0.71,1.73l30.56,74.3c8.55,20.79,34.24,37.7,57.26,37.7h307.01c23.03,0,34.79-16.91,26.22-37.7l-30.64-74.3l-0.71-1.73
			l-1.08-1.69l-10.65-16.67l-2.55-13.72c-0.79-4.23-2.55-8.52-5.26-12.75l-8.76-13.71l-2.54-13.72c-0.79-4.23-2.55-8.52-5.26-12.75
			l-8.76-13.71l-3.09-16.66l-0.31-1.69l-0.71-1.73L435.24,47.55c-6.93-16.82-27.75-30.5-46.4-30.5H66.45 M59.44,0h322.37
			c29.07,0,61.52,21.33,72.33,47.54l81.28,197.11l0.71,1.73l0.71,1.73l0.31,1.69l0.31,1.69l2.46,13.24l6.58,10.29
			c4.15,6.5,6.87,13.09,8.08,19.59l1.91,10.3l6.58,10.29c4.15,6.5,6.87,13.09,8.08,19.59l1.91,10.3l8.47,13.25l1.08,1.7l1.08,1.69
			l0.71,1.73l0.71,1.73l30.64,74.3c12.46,30.21-4.63,54.79-38.1,54.79H270.63c-33.46,0-70.79-24.58-83.21-54.79l-30.55-74.3
			l-0.71-1.73l-0.71-1.73l-0.31-1.69l-0.31-1.69l-2.44-13.25l-6.57-10.29c-4.15-6.5-6.86-13.1-8.06-19.6l-1.9-10.29l-6.56-10.29
			c-4.15-6.5-6.86-13.09-8.06-19.59l-1.9-10.29l-8.45-13.24l-1.08-1.69l-1.08-1.69l-0.71-1.73l-0.71-1.73L26.26,47.55
			C15.48,21.33,30.37,0,59.44,0L59.44,0z"/>
	</g>
</g>
</svg>
