# OBJ file
mtllib k_icon.ico.mtl
v 1.634033 1.510986 -2.064453 0.501961 0.501961 0.501961 #0.000000
v 1.371094 1.511475 -2.063965 0.501961 0.501961 0.501961 #0.000000
v 1.509277 1.804443 -1.832764 0.501961 0.501961 0.501961 #0.000000
v 1.371094 1.511475 -2.063965 0.501961 0.501961 0.501961 #0.000000
v 1.265137 1.748291 -1.876953 0.501961 0.501961 0.501961 #0.000000
v 1.509277 1.804443 -1.832764 0.501961 0.501961 0.501961 #0.000000
v 2.371826 1.763428 -1.865234 0.501961 0.501961 0.501961 #0.000000
v 1.945801 1.763428 -1.865234 0.501961 0.501961 0.501961 #0.000000
v 2.165527 3.020996 -0.873291 0.501961 0.501961 0.501961 #0.000000
v 2.165527 3.020996 -0.873291 0.501961 0.501961 0.501961 #0.000000
v 1.945801 1.763428 -1.865234 0.501961 0.501961 0.501961 #0.000000
v 1.458740 2.975586 -0.909180 0.501961 0.501961 0.501961 #0.000000
v 1.945801 1.763428 -1.865234 0.501961 0.501961 0.501961 #0.000000
v 1.509277 1.804443 -1.832764 0.501961 0.501961 0.501961 #0.000000
v 1.458740 2.975586 -0.909180 0.501961 0.501961 0.501961 #0.000000
v 1.458740 2.975586 -0.909180 0.501961 0.501961 0.501961 #0.000000
v 1.509277 1.804443 -1.832764 0.501961 0.501961 0.501961 #0.000000
v 1.312500 2.890381 -0.976318 0.501961 0.501961 0.501961 #0.000000
v 1.312500 2.890381 -0.976318 0.501961 0.501961 0.501961 #0.000000
v 1.509277 1.804443 -1.832764 0.501961 0.501961 0.501961 #0.000000
v 1.238770 2.770996 -1.070557 0.501961 0.501961 0.501961 #0.000000
v 1.238770 2.770996 -1.070557 0.501961 0.501961 0.501961 #0.000000
v 1.509277 1.804443 -1.832764 0.501961 0.501961 0.501961 #0.000000
v 1.215576 2.651367 -1.164795 0.501961 0.501961 0.501961 #0.000000
v 1.509277 1.804443 -1.832764 0.501961 0.501961 0.501961 #0.000000
v 1.265137 1.748291 -1.876953 0.501961 0.501961 0.501961 #0.000000
v 1.215576 2.651367 -1.164795 0.501961 0.501961 0.501961 #0.000000
v -0.034912 2.651367 -1.164795 0.501961 0.501961 0.501961 #0.000000
v -0.904297 2.651367 -1.164795 0.501961 0.501961 0.501961 #0.000000
v -0.034912 2.529541 -1.010742 0.501961 0.501961 0.501961 #0.000000
v -0.904297 2.651367 -1.164795 0.501961 0.501961 0.501961 #0.000000
v -0.904297 2.529053 -1.010010 0.501961 0.501961 0.501961 #0.000000
v -0.034912 2.529541 -1.010742 0.501961 0.501961 0.501961 #0.000000
v -2.215088 1.751709 -1.874268 0.501961 0.501961 0.501961 #0.000000
v -0.034912 1.751709 -1.874268 0.501961 0.501961 0.501961 #0.000000
v -2.215088 1.629395 -1.719727 0.501961 0.501961 0.501961 #0.000000
v -0.034912 1.751709 -1.874268 0.501961 0.501961 0.501961 #0.000000
v -0.034912 1.630127 -1.720459 0.501961 0.501961 0.501961 #0.000000
v -2.215088 1.629395 -1.719727 0.501961 0.501961 0.501961 #0.000000
v -2.215088 1.629395 -1.719727 0.501961 0.501961 0.501961 #0.000000
v -2.442139 2.901611 -0.716309 0.501961 0.501961 0.501961 #0.000000
v -2.215088 1.751709 -1.874268 0.501961 0.501961 0.501961 #0.000000
v -2.215088 1.751709 -1.874268 0.501961 0.501961 0.501961 #0.000000
v -2.442139 2.901611 -0.716309 0.501961 0.501961 0.501961 #0.000000
v -2.442139 3.023682 -0.871338 0.501961 0.501961 0.501961 #0.000000
v -2.442139 2.901611 -0.716309 0.501961 0.501961 0.501961 #0.000000
v -1.885010 2.901611 -0.716309 0.501961 0.501961 0.501961 #0.000000
v -2.442139 3.023682 -0.871338 0.501961 0.501961 0.501961 #0.000000
v -1.885010 2.901611 -0.716309 0.501961 0.501961 0.501961 #0.000000
v -1.885010 3.023682 -0.871338 0.501961 0.501961 0.501961 #0.000000
v -2.442139 3.023682 -0.871338 0.501961 0.501961 0.501961 #0.000000
v -1.885010 2.901611 -0.716309 0.501961 0.501961 0.501961 #0.000000
v -1.830811 2.529053 -1.010010 0.501961 0.501961 0.501961 #0.000000
v -1.885010 3.023682 -0.871338 0.501961 0.501961 0.501961 #0.000000
v -1.830811 2.529053 -1.010010 0.501961 0.501961 0.501961 #0.000000
v -1.830811 2.651367 -1.164795 0.501961 0.501961 0.501961 #0.000000
v -1.885010 3.023682 -0.871338 0.501961 0.501961 0.501961 #0.000000
v -1.830811 2.529053 -1.010010 0.501961 0.501961 0.501961 #0.000000
v -0.904297 2.529053 -1.010010 0.501961 0.501961 0.501961 #0.000000
v -1.830811 2.651367 -1.164795 0.501961 0.501961 0.501961 #0.000000
v -0.904297 2.651367 -1.164795 0.501961 0.501961 0.501961 #0.000000
v -1.830811 2.651367 -1.164795 0.501961 0.501961 0.501961 #0.000000
v -0.904297 2.529053 -1.010010 0.501961 0.501961 0.501961 #0.000000
v 1.508057 1.682373 -1.677979 0.501961 0.501961 0.501961 #0.000000
v 1.634033 1.388916 -1.909424 0.501961 0.501961 0.501961 #0.000000
v 1.509277 1.804443 -1.832764 0.501961 0.501961 0.501961 #0.000000
v 1.634033 1.510986 -2.064453 0.501961 0.501961 0.501961 #0.000000
v 1.509277 1.804443 -1.832764 0.501961 0.501961 0.501961 #0.000000
v 1.634033 1.388916 -1.909424 0.501961 0.501961 0.501961 #0.000000
v 1.634033 1.388916 -1.909424 0.501961 0.501961 0.501961 #0.000000
v 1.371094 1.389404 -1.909180 0.501961 0.501961 0.501961 #0.000000
v 1.634033 1.510986 -2.064453 0.501961 0.501961 0.501961 #0.000000
v 1.371094 1.389404 -1.909180 0.501961 0.501961 0.501961 #0.000000
v 1.371094 1.511475 -2.063965 0.501961 0.501961 0.501961 #0.000000
v 1.634033 1.510986 -2.064453 0.501961 0.501961 0.501961 #0.000000
v 1.371094 1.389404 -1.909180 0.501961 0.501961 0.501961 #0.000000
v 1.265137 1.626465 -1.722168 0.501961 0.501961 0.501961 #0.000000
v 1.371094 1.511475 -2.063965 0.501961 0.501961 0.501961 #0.000000
v 1.265137 1.626465 -1.722168 0.501961 0.501961 0.501961 #0.000000
v 1.265137 1.748291 -1.876953 0.501961 0.501961 0.501961 #0.000000
v 1.371094 1.511475 -2.063965 0.501961 0.501961 0.501961 #0.000000
v 1.265137 1.748291 -1.876953 0.501961 0.501961 0.501961 #0.000000
v 1.265137 1.626465 -1.722168 0.501961 0.501961 0.501961 #0.000000
v 0.915771 1.750244 -1.875732 0.501961 0.501961 0.501961 #0.000000
v 1.265137 1.626465 -1.722168 0.501961 0.501961 0.501961 #0.000000
v -0.034912 1.630127 -1.720459 0.501961 0.501961 0.501961 #0.000000
v 0.915771 1.750244 -1.875732 0.501961 0.501961 0.501961 #0.000000
v -0.034912 1.630127 -1.720459 0.501961 0.501961 0.501961 #0.000000
v -0.034912 1.751709 -1.874268 0.501961 0.501961 0.501961 #0.000000
v 0.915771 1.750244 -1.875732 0.501961 0.501961 0.501961 #0.000000
v 1.215576 2.651367 -1.164795 0.501961 0.501961 0.501961 #0.000000
v -0.034912 2.651367 -1.164795 0.501961 0.501961 0.501961 #0.000000
v 1.215576 2.529053 -1.010010 0.501961 0.501961 0.501961 #0.000000
v -0.034912 2.651367 -1.164795 0.501961 0.501961 0.501961 #0.000000
v -0.034912 2.529541 -1.010742 0.501961 0.501961 0.501961 #0.000000
v 1.215576 2.529053 -1.010010 0.501961 0.501961 0.501961 #0.000000
v 1.215576 2.529053 -1.010010 0.501961 0.501961 0.501961 #0.000000
v 1.238770 2.648682 -0.915771 0.501961 0.501961 0.501961 #0.000000
v 1.215576 2.651367 -1.164795 0.501961 0.501961 0.501961 #0.000000
v 1.238770 2.648682 -0.915771 0.501961 0.501961 0.501961 #0.000000
v 1.238770 2.770996 -1.070557 0.501961 0.501961 0.501961 #0.000000
v 1.215576 2.651367 -1.164795 0.501961 0.501961 0.501961 #0.000000
v 1.238770 2.648682 -0.915771 0.501961 0.501961 0.501961 #0.000000
v 1.312500 2.768066 -0.821533 0.501961 0.501961 0.501961 #0.000000
v 1.238770 2.770996 -1.070557 0.501961 0.501961 0.501961 #0.000000
v 1.312500 2.768066 -0.821533 0.501961 0.501961 0.501961 #0.000000
v 1.312500 2.890381 -0.976318 0.501961 0.501961 0.501961 #0.000000
v 1.238770 2.770996 -1.070557 0.501961 0.501961 0.501961 #0.000000
v 1.312500 2.768066 -0.821533 0.501961 0.501961 0.501961 #0.000000
v 1.458740 2.853516 -0.754395 0.501961 0.501961 0.501961 #0.000000
v 1.312500 2.890381 -0.976318 0.501961 0.501961 0.501961 #0.000000
v 1.458740 2.853516 -0.754395 0.501961 0.501961 0.501961 #0.000000
v 1.458740 2.975586 -0.909180 0.501961 0.501961 0.501961 #0.000000
v 1.312500 2.890381 -0.976318 0.501961 0.501961 0.501961 #0.000000
v 1.458740 2.975586 -0.909180 0.501961 0.501961 0.501961 #0.000000
v 1.458740 2.853516 -0.754395 0.501961 0.501961 0.501961 #0.000000
v 2.165527 3.020996 -0.873291 0.501961 0.501961 0.501961 #0.000000
v 1.458740 2.853516 -0.754395 0.501961 0.501961 0.501961 #0.000000
v 2.165527 2.898926 -0.718750 0.501961 0.501961 0.501961 #0.000000
v 2.165527 3.020996 -0.873291 0.501961 0.501961 0.501961 #0.000000
v 2.165527 2.898926 -0.718750 0.501961 0.501961 0.501961 #0.000000
v 2.371826 1.641113 -1.710449 0.501961 0.501961 0.501961 #0.000000
v 2.165527 3.020996 -0.873291 0.501961 0.501961 0.501961 #0.000000
v 2.371826 1.763428 -1.865234 0.501961 0.501961 0.501961 #0.000000
v 2.165527 3.020996 -0.873291 0.501961 0.501961 0.501961 #0.000000
v 2.371826 1.641113 -1.710449 0.501961 0.501961 0.501961 #0.000000
v -2.442139 3.023682 -0.871338 0.501961 0.501961 0.501961 #0.000000
v -1.885010 3.023682 -0.871338 0.501961 0.501961 0.501961 #0.000000
v -2.215088 1.751709 -1.874268 0.501961 0.501961 0.501961 #0.000000
v -1.885010 3.023682 -0.871338 0.501961 0.501961 0.501961 #0.000000
v -1.830811 2.651367 -1.164795 0.501961 0.501961 0.501961 #0.000000
v -2.215088 1.751709 -1.874268 0.501961 0.501961 0.501961 #0.000000
v -2.215088 1.751709 -1.874268 0.501961 0.501961 0.501961 #0.000000
v -1.830811 2.651367 -1.164795 0.501961 0.501961 0.501961 #0.000000
v -0.034912 1.751709 -1.874268 0.501961 0.501961 0.501961 #0.000000
v -1.830811 2.651367 -1.164795 0.501961 0.501961 0.501961 #0.000000
v -0.904297 2.651367 -1.164795 0.501961 0.501961 0.501961 #0.000000
v -0.034912 1.751709 -1.874268 0.501961 0.501961 0.501961 #0.000000
v -0.904297 2.651367 -1.164795 0.501961 0.501961 0.501961 #0.000000
v -0.034912 2.651367 -1.164795 0.501961 0.501961 0.501961 #0.000000
v -0.034912 1.751709 -1.874268 0.501961 0.501961 0.501961 #0.000000
v 1.265137 1.748291 -1.876953 0.501961 0.501961 0.501961 #0.000000
v 0.915771 1.750244 -1.875732 0.501961 0.501961 0.501961 #0.000000
v 1.215576 2.651367 -1.164795 0.501961 0.501961 0.501961 #0.000000
v 1.215576 2.651367 -1.164795 0.501961 0.501961 0.501961 #0.000000
v 0.915771 1.750244 -1.875732 0.501961 0.501961 0.501961 #0.000000
v -0.034912 2.651367 -1.164795 0.501961 0.501961 0.501961 #0.000000
v -0.034912 1.751709 -1.874268 0.501961 0.501961 0.501961 #0.000000
v -0.034912 2.651367 -1.164795 0.501961 0.501961 0.501961 #0.000000
v 0.915771 1.750244 -1.875732 0.501961 0.501961 0.501961 #0.000000
v 2.371826 1.763428 -1.865234 0.501961 0.501961 0.501961 #0.000000
v 2.371826 1.641113 -1.710449 0.501961 0.501961 0.501961 #0.000000
v 1.945801 1.763428 -1.865234 0.501961 0.501961 0.501961 #0.000000
v 2.371826 1.641113 -1.710449 0.501961 0.501961 0.501961 #0.000000
v 1.945801 1.642090 -1.711426 0.501961 0.501961 0.501961 #0.000000
v 1.945801 1.763428 -1.865234 0.501961 0.501961 0.501961 #0.000000
v 1.508057 1.682373 -1.677979 0.501961 0.501961 0.501961 #0.000000
v 1.509277 1.804443 -1.832764 0.501961 0.501961 0.501961 #0.000000
v 1.945801 1.642090 -1.711426 0.501961 0.501961 0.501961 #0.000000
v 1.945801 1.642090 -1.711426 0.501961 0.501961 0.501961 #0.000000
v 1.509277 1.804443 -1.832764 0.501961 0.501961 0.501961 #0.000000
v 1.945801 1.763428 -1.865234 0.501961 0.501961 0.501961 #0.000000
v 1.634033 1.388916 -1.909424 0.501961 0.501961 0.501961 #0.000000
v 1.508057 1.682373 -1.677979 0.501961 0.501961 0.501961 #0.000000
v 1.371094 1.389404 -1.909180 0.501961 0.501961 0.501961 #0.000000
v 1.371094 1.389404 -1.909180 0.501961 0.501961 0.501961 #0.000000
v 1.508057 1.682373 -1.677979 0.501961 0.501961 0.501961 #0.000000
v 1.265137 1.626465 -1.722168 0.501961 0.501961 0.501961 #0.000000
v 2.371826 1.641113 -1.710449 0.501961 0.501961 0.501961 #0.000000
v 2.165527 2.898926 -0.718750 0.501961 0.501961 0.501961 #0.000000
v 1.945801 1.642090 -1.711426 0.501961 0.501961 0.501961 #0.000000
v 2.165527 2.898926 -0.718750 0.501961 0.501961 0.501961 #0.000000
v 1.458740 2.853516 -0.754395 0.501961 0.501961 0.501961 #0.000000
v 1.945801 1.642090 -1.711426 0.501961 0.501961 0.501961 #0.000000
v 1.945801 1.642090 -1.711426 0.501961 0.501961 0.501961 #0.000000
v 1.458740 2.853516 -0.754395 0.501961 0.501961 0.501961 #0.000000
v 1.508057 1.682373 -1.677979 0.501961 0.501961 0.501961 #0.000000
v 1.458740 2.853516 -0.754395 0.501961 0.501961 0.501961 #0.000000
v 1.312500 2.768066 -0.821533 0.501961 0.501961 0.501961 #0.000000
v 1.508057 1.682373 -1.677979 0.501961 0.501961 0.501961 #0.000000
v 1.312500 2.768066 -0.821533 0.501961 0.501961 0.501961 #0.000000
v 1.238770 2.648682 -0.915771 0.501961 0.501961 0.501961 #0.000000
v 1.508057 1.682373 -1.677979 0.501961 0.501961 0.501961 #0.000000
v 1.238770 2.648682 -0.915771 0.501961 0.501961 0.501961 #0.000000
v 1.215576 2.529053 -1.010010 0.501961 0.501961 0.501961 #0.000000
v 1.508057 1.682373 -1.677979 0.501961 0.501961 0.501961 #0.000000
v 1.508057 1.682373 -1.677979 0.501961 0.501961 0.501961 #0.000000
v 1.215576 2.529053 -1.010010 0.501961 0.501961 0.501961 #0.000000
v 1.265137 1.626465 -1.722168 0.501961 0.501961 0.501961 #0.000000
v -2.442139 2.901611 -0.716309 0.501961 0.501961 0.501961 #0.000000
v -2.215088 1.629395 -1.719727 0.501961 0.501961 0.501961 #0.000000
v -1.885010 2.901611 -0.716309 0.501961 0.501961 0.501961 #0.000000
v -1.885010 2.901611 -0.716309 0.501961 0.501961 0.501961 #0.000000
v -2.215088 1.629395 -1.719727 0.501961 0.501961 0.501961 #0.000000
v -1.830811 2.529053 -1.010010 0.501961 0.501961 0.501961 #0.000000
v -2.215088 1.629395 -1.719727 0.501961 0.501961 0.501961 #0.000000
v -0.034912 1.630127 -1.720459 0.501961 0.501961 0.501961 #0.000000
v -1.830811 2.529053 -1.010010 0.501961 0.501961 0.501961 #0.000000
v -1.830811 2.529053 -1.010010 0.501961 0.501961 0.501961 #0.000000
v -0.034912 1.630127 -1.720459 0.501961 0.501961 0.501961 #0.000000
v -0.904297 2.529053 -1.010010 0.501961 0.501961 0.501961 #0.000000
v -0.904297 2.529053 -1.010010 0.501961 0.501961 0.501961 #0.000000
v -0.034912 1.630127 -1.720459 0.501961 0.501961 0.501961 #0.000000
v -0.034912 2.529541 -1.010742 0.501961 0.501961 0.501961 #0.000000
v 1.265137 1.626465 -1.722168 0.501961 0.501961 0.501961 #0.000000
v 1.215576 2.529053 -1.010010 0.501961 0.501961 0.501961 #0.000000
v 0.915771 1.629150 -1.722412 0.501961 0.501961 0.501961 #0.000000
v 1.215576 2.529053 -1.010010 0.501961 0.501961 0.501961 #0.000000
v -0.034912 2.529541 -1.010742 0.501961 0.501961 0.501961 #0.000000
v 0.915771 1.629150 -1.722412 0.501961 0.501961 0.501961 #0.000000
v -0.034912 1.630127 -1.720459 0.501961 0.501961 0.501961 #0.000000
v 0.915771 1.629150 -1.722412 0.501961 0.501961 0.501961 #0.000000
v -0.034912 2.529541 -1.010742 0.501961 0.501961 0.501961 #0.000000
v -0.323486 3.469971 -0.041016 0.501961 0.501961 0.501961 #0.000000
v 0.375000 2.512451 -0.796143 0.501961 0.501961 0.501961 #0.000000
v -0.313965 3.208984 -0.472656 0.501961 0.501961 0.501961 #0.000000
v 0.293457 2.409424 -1.103027 0.501961 0.501961 0.501961 #0.000000
v -0.313965 3.208984 -0.472656 0.501961 0.501961 0.501961 #0.000000
v 0.375000 2.512451 -0.796143 0.501961 0.501961 0.501961 #0.000000
v 0.361572 0.688232 -2.234863 0.501961 0.501961 0.501961 #0.000000
v -0.402100 1.392090 -1.679688 0.501961 0.501961 0.501961 #0.000000
v 0.324707 1.143311 -2.101563 0.501961 0.501961 0.501961 #0.000000
v -0.402100 1.392090 -1.679688 0.501961 0.501961 0.501961 #0.000000
v -0.323730 1.708740 -1.655762 0.501961 0.501961 0.501961 #0.000000
v 0.324707 1.143311 -2.101563 0.501961 0.501961 0.501961 #0.000000
v -2.507324 0.445557 -2.426025 0.501961 0.501961 0.501961 #0.000000
v -0.323486 3.469971 -0.041016 0.501961 0.501961 0.501961 #0.000000
v -1.937500 1.000488 -2.214355 0.501961 0.501961 0.501961 #0.000000
v -1.937500 1.000488 -2.214355 0.501961 0.501961 0.501961 #0.000000
v -0.323486 3.469971 -0.041016 0.501961 0.501961 0.501961 #0.000000
v -0.313965 3.208984 -0.472656 0.501961 0.501961 0.501961 #0.000000
v 2.466553 3.433594 -0.069824 0.501961 0.501961 0.501961 #0.000000
v 1.896729 3.098389 -0.559814 0.501961 0.501961 0.501961 #0.000000
v 0.375000 2.512451 -0.796143 0.501961 0.501961 0.501961 #0.000000
v 0.375000 2.512451 -0.796143 0.501961 0.501961 0.501961 #0.000000
v 1.896729 3.098389 -0.559814 0.501961 0.501961 0.501961 #0.000000
v 0.293457 2.409424 -1.103027 0.501961 0.501961 0.501961 #0.000000
v -2.507324 0.445557 -2.426025 0.501961 0.501961 0.501961 #0.000000
v -1.937500 1.000488 -2.214355 0.501961 0.501961 0.501961 #0.000000
v -0.402100 1.392090 -1.679688 0.501961 0.501961 0.501961 #0.000000
v -0.402100 1.392090 -1.679688 0.501961 0.501961 0.501961 #0.000000
v -1.937500 1.000488 -2.214355 0.501961 0.501961 0.501961 #0.000000
v -0.323730 1.708740 -1.655762 0.501961 0.501961 0.501961 #0.000000
v 2.466553 3.433594 -0.069824 0.501961 0.501961 0.501961 #0.000000
v 0.361572 0.688232 -2.234863 0.501961 0.501961 0.501961 #0.000000
v 1.896729 3.098389 -0.559814 0.501961 0.501961 0.501961 #0.000000
v 1.896729 3.098389 -0.559814 0.501961 0.501961 0.501961 #0.000000
v 0.361572 0.688232 -2.234863 0.501961 0.501961 0.501961 #0.000000
v 0.324707 1.143311 -2.101563 0.501961 0.501961 0.501961 #0.000000
v 1.896729 3.098389 -0.559814 0.501961 0.501961 0.501961 #0.000000
v 0.324707 1.143311 -2.101563 0.501961 0.501961 0.501961 #0.000000
v 0.293457 2.409424 -1.103027 0.501961 0.501961 0.501961 #0.000000
v -1.937500 1.000488 -2.214355 0.501961 0.501961 0.501961 #0.000000
v -0.313965 3.208984 -0.472656 0.501961 0.501961 0.501961 #0.000000
v -0.323730 1.708740 -1.655762 0.501961 0.501961 0.501961 #0.000000
v -0.313965 3.208984 -0.472656 0.501961 0.501961 0.501961 #0.000000
v 0.293457 2.409424 -1.103027 0.501961 0.501961 0.501961 #0.000000
v -0.323730 1.708740 -1.655762 0.501961 0.501961 0.501961 #0.000000
v 0.293457 2.409424 -1.103027 0.501961 0.501961 0.501961 #0.000000
v 0.324707 1.143311 -2.101563 0.501961 0.501961 0.501961 #0.000000
v -0.323730 1.708740 -1.655762 0.501961 0.501961 0.501961 #0.000000
v -0.323486 3.469971 -0.041016 0.501961 0.501961 0.501961 #0.000000
v -0.313965 2.989258 -0.194336 0.501961 0.501961 0.501961 #0.000000
v 0.375000 2.512451 -0.796143 0.501961 0.501961 0.501961 #0.000000
v 0.293457 2.189941 -0.824951 0.501961 0.501961 0.501961 #0.000000
v 0.375000 2.512451 -0.796143 0.501961 0.501961 0.501961 #0.000000
v -0.313965 2.989258 -0.194336 0.501961 0.501961 0.501961 #0.000000
v 0.361572 0.688232 -2.234863 0.501961 0.501961 0.501961 #0.000000
v 0.324707 0.923828 -1.823242 0.501961 0.501961 0.501961 #0.000000
v -0.402100 1.392090 -1.679688 0.501961 0.501961 0.501961 #0.000000
v -0.402100 1.392090 -1.679688 0.501961 0.501961 0.501961 #0.000000
v 0.324707 0.923828 -1.823242 0.501961 0.501961 0.501961 #0.000000
v -0.323730 1.489014 -1.377441 0.501961 0.501961 0.501961 #0.000000
v -2.507324 0.445557 -2.426025 0.501961 0.501961 0.501961 #0.000000
v -1.937500 0.780762 -1.935791 0.501961 0.501961 0.501961 #0.000000
v -0.323486 3.469971 -0.041016 0.501961 0.501961 0.501961 #0.000000
v -1.937500 0.780762 -1.935791 0.501961 0.501961 0.501961 #0.000000
v -0.313965 2.989258 -0.194336 0.501961 0.501961 0.501961 #0.000000
v -0.323486 3.469971 -0.041016 0.501961 0.501961 0.501961 #0.000000
v 2.466553 3.433594 -0.069824 0.501961 0.501961 0.501961 #0.000000
v 0.375000 2.512451 -0.796143 0.501961 0.501961 0.501961 #0.000000
v 1.896729 2.878906 -0.281738 0.501961 0.501961 0.501961 #0.000000
v 0.375000 2.512451 -0.796143 0.501961 0.501961 0.501961 #0.000000
v 0.293457 2.189941 -0.824951 0.501961 0.501961 0.501961 #0.000000
v 1.896729 2.878906 -0.281738 0.501961 0.501961 0.501961 #0.000000
v -2.507324 0.445557 -2.426025 0.501961 0.501961 0.501961 #0.000000
v -0.402100 1.392090 -1.679688 0.501961 0.501961 0.501961 #0.000000
v -1.937500 0.780762 -1.935791 0.501961 0.501961 0.501961 #0.000000
v -0.402100 1.392090 -1.679688 0.501961 0.501961 0.501961 #0.000000
v -0.323730 1.489014 -1.377441 0.501961 0.501961 0.501961 #0.000000
v -1.937500 0.780762 -1.935791 0.501961 0.501961 0.501961 #0.000000
v 2.466553 3.433594 -0.069824 0.501961 0.501961 0.501961 #0.000000
v 1.896729 2.878906 -0.281738 0.501961 0.501961 0.501961 #0.000000
v 0.361572 0.688232 -2.234863 0.501961 0.501961 0.501961 #0.000000
v 1.896729 2.878906 -0.281738 0.501961 0.501961 0.501961 #0.000000
v 0.324707 0.923828 -1.823242 0.501961 0.501961 0.501961 #0.000000
v 0.361572 0.688232 -2.234863 0.501961 0.501961 0.501961 #0.000000
v 1.896729 2.878906 -0.281738 0.501961 0.501961 0.501961 #0.000000
v 0.293457 2.189941 -0.824951 0.501961 0.501961 0.501961 #0.000000
v 0.324707 0.923828 -1.823242 0.501961 0.501961 0.501961 #0.000000
v -1.937500 0.780762 -1.935791 0.501961 0.501961 0.501961 #0.000000
v -0.323730 1.489014 -1.377441 0.501961 0.501961 0.501961 #0.000000
v -0.313965 2.989258 -0.194336 0.501961 0.501961 0.501961 #0.000000
v -0.313965 2.989258 -0.194336 0.501961 0.501961 0.501961 #0.000000
v -0.323730 1.489014 -1.377441 0.501961 0.501961 0.501961 #0.000000
v 0.293457 2.189941 -0.824951 0.501961 0.501961 0.501961 #0.000000
v -0.323730 1.489014 -1.377441 0.501961 0.501961 0.501961 #0.000000
v 0.324707 0.923828 -1.823242 0.501961 0.501961 0.501961 #0.000000
v 0.293457 2.189941 -0.824951 0.501961 0.501961 0.501961 #0.000000
v -1.634033 1.508057 2.087891 0.501961 0.501961 0.501961 #0.000000
v -1.371094 1.508545 2.087402 0.501961 0.501961 0.501961 #0.000000
v -1.509277 1.802246 1.856689 0.501961 0.501961 0.501961 #0.000000
v -1.371094 1.508545 2.087402 0.501961 0.501961 0.501961 #0.000000
v -1.265137 1.745850 1.900879 0.501961 0.501961 0.501961 #0.000000
v -1.509277 1.802246 1.856689 0.501961 0.501961 0.501961 #0.000000
v -2.371826 1.760986 1.889160 0.501961 0.501961 0.501961 #0.000000
v -1.945801 1.760986 1.889160 0.501961 0.501961 0.501961 #0.000000
v -2.165527 3.019775 0.899414 0.501961 0.501961 0.501961 #0.000000
v -2.165527 3.019775 0.899414 0.501961 0.501961 0.501961 #0.000000
v -1.945801 1.760986 1.889160 0.501961 0.501961 0.501961 #0.000000
v -1.458740 2.974609 0.935059 0.501961 0.501961 0.501961 #0.000000
v -1.945801 1.760986 1.889160 0.501961 0.501961 0.501961 #0.000000
v -1.509277 1.802246 1.856689 0.501961 0.501961 0.501961 #0.000000
v -1.458740 2.974609 0.935059 0.501961 0.501961 0.501961 #0.000000
v -1.458740 2.974609 0.935059 0.501961 0.501961 0.501961 #0.000000
v -1.509277 1.802246 1.856689 0.501961 0.501961 0.501961 #0.000000
v -1.312500 2.889160 1.002197 0.501961 0.501961 0.501961 #0.000000
v -1.312500 2.889160 1.002197 0.501961 0.501961 0.501961 #0.000000
v -1.509277 1.802246 1.856689 0.501961 0.501961 0.501961 #0.000000
v -1.238770 2.769531 1.096191 0.501961 0.501961 0.501961 #0.000000
v -1.238770 2.769531 1.096191 0.501961 0.501961 0.501961 #0.000000
v -1.509277 1.802246 1.856689 0.501961 0.501961 0.501961 #0.000000
v -1.215576 2.649902 1.190186 0.501961 0.501961 0.501961 #0.000000
v -1.509277 1.802246 1.856689 0.501961 0.501961 0.501961 #0.000000
v -1.265137 1.745850 1.900879 0.501961 0.501961 0.501961 #0.000000
v -1.215576 2.649902 1.190186 0.501961 0.501961 0.501961 #0.000000
v 0.034912 2.649902 1.190186 0.501961 0.501961 0.501961 #0.000000
v 0.904297 2.649902 1.190186 0.501961 0.501961 0.501961 #0.000000
v 0.034912 2.528320 1.035645 0.501961 0.501961 0.501961 #0.000000
v 0.904297 2.649902 1.190186 0.501961 0.501961 0.501961 #0.000000
v 0.904297 2.528076 1.035156 0.501961 0.501961 0.501961 #0.000000
v 0.034912 2.528320 1.035645 0.501961 0.501961 0.501961 #0.000000
v 2.215088 1.749023 1.898438 0.501961 0.501961 0.501961 #0.000000
v 0.034912 1.749023 1.898438 0.501961 0.501961 0.501961 #0.000000
v 2.215088 1.627197 1.743408 0.501961 0.501961 0.501961 #0.000000
v 0.034912 1.749023 1.898438 0.501961 0.501961 0.501961 #0.000000
v 0.034912 1.627930 1.744141 0.501961 0.501961 0.501961 #0.000000
v 2.215088 1.627197 1.743408 0.501961 0.501961 0.501961 #0.000000
v 2.215088 1.627197 1.743408 0.501961 0.501961 0.501961 #0.000000
v 2.442139 2.900879 0.742188 0.501961 0.501961 0.501961 #0.000000
v 2.215088 1.749023 1.898438 0.501961 0.501961 0.501961 #0.000000
v 2.215088 1.749023 1.898438 0.501961 0.501961 0.501961 #0.000000
v 2.442139 2.900879 0.742188 0.501961 0.501961 0.501961 #0.000000
v 2.442139 3.022949 0.897217 0.501961 0.501961 0.501961 #0.000000
v 2.442139 2.900879 0.742188 0.501961 0.501961 0.501961 #0.000000
v 1.885010 2.900879 0.742188 0.501961 0.501961 0.501961 #0.000000
v 2.442139 3.022949 0.897217 0.501961 0.501961 0.501961 #0.000000
v 1.885010 2.900879 0.742188 0.501961 0.501961 0.501961 #0.000000
v 1.885010 3.022949 0.897217 0.501961 0.501961 0.501961 #0.000000
v 2.442139 3.022949 0.897217 0.501961 0.501961 0.501961 #0.000000
v 1.885010 2.900879 0.742188 0.501961 0.501961 0.501961 #0.000000
v 1.830811 2.528076 1.035156 0.501961 0.501961 0.501961 #0.000000
v 1.885010 3.022949 0.897217 0.501961 0.501961 0.501961 #0.000000
v 1.830811 2.528076 1.035156 0.501961 0.501961 0.501961 #0.000000
v 1.830811 2.649902 1.190186 0.501961 0.501961 0.501961 #0.000000
v 1.885010 3.022949 0.897217 0.501961 0.501961 0.501961 #0.000000
v 1.830811 2.528076 1.035156 0.501961 0.501961 0.501961 #0.000000
v 0.904297 2.528076 1.035156 0.501961 0.501961 0.501961 #0.000000
v 1.830811 2.649902 1.190186 0.501961 0.501961 0.501961 #0.000000
v 0.904297 2.649902 1.190186 0.501961 0.501961 0.501961 #0.000000
v 1.830811 2.649902 1.190186 0.501961 0.501961 0.501961 #0.000000
v 0.904297 2.528076 1.035156 0.501961 0.501961 0.501961 #0.000000
v -1.508057 1.680176 1.701660 0.501961 0.501961 0.501961 #0.000000
v -1.634033 1.386230 1.932617 0.501961 0.501961 0.501961 #0.000000
v -1.509277 1.802246 1.856689 0.501961 0.501961 0.501961 #0.000000
v -1.634033 1.508057 2.087891 0.501961 0.501961 0.501961 #0.000000
v -1.509277 1.802246 1.856689 0.501961 0.501961 0.501961 #0.000000
v -1.634033 1.386230 1.932617 0.501961 0.501961 0.501961 #0.000000
v -1.634033 1.386230 1.932617 0.501961 0.501961 0.501961 #0.000000
v -1.371094 1.386719 1.932373 0.501961 0.501961 0.501961 #0.000000
v -1.634033 1.508057 2.087891 0.501961 0.501961 0.501961 #0.000000
v -1.371094 1.386719 1.932373 0.501961 0.501961 0.501961 #0.000000
v -1.371094 1.508545 2.087402 0.501961 0.501961 0.501961 #0.000000
v -1.634033 1.508057 2.087891 0.501961 0.501961 0.501961 #0.000000
v -1.371094 1.386719 1.932373 0.501961 0.501961 0.501961 #0.000000
v -1.265137 1.624023 1.745605 0.501961 0.501961 0.501961 #0.000000
v -1.371094 1.508545 2.087402 0.501961 0.501961 0.501961 #0.000000
v -1.265137 1.624023 1.745605 0.501961 0.501961 0.501961 #0.000000
v -1.265137 1.745850 1.900879 0.501961 0.501961 0.501961 #0.000000
v -1.371094 1.508545 2.087402 0.501961 0.501961 0.501961 #0.000000
v -1.265137 1.745850 1.900879 0.501961 0.501961 0.501961 #0.000000
v -1.265137 1.624023 1.745605 0.501961 0.501961 0.501961 #0.000000
v -0.915771 1.747559 1.899658 0.501961 0.501961 0.501961 #0.000000
v -1.265137 1.624023 1.745605 0.501961 0.501961 0.501961 #0.000000
v 0.034912 1.627930 1.744141 0.501961 0.501961 0.501961 #0.000000
v -0.915771 1.747559 1.899658 0.501961 0.501961 0.501961 #0.000000
v 0.034912 1.627930 1.744141 0.501961 0.501961 0.501961 #0.000000
v 0.034912 1.749023 1.898438 0.501961 0.501961 0.501961 #0.000000
v -0.915771 1.747559 1.899658 0.501961 0.501961 0.501961 #0.000000
v -1.215576 2.649902 1.190186 0.501961 0.501961 0.501961 #0.000000
v 0.034912 2.649902 1.190186 0.501961 0.501961 0.501961 #0.000000
v -1.215576 2.528076 1.035156 0.501961 0.501961 0.501961 #0.000000
v 0.034912 2.649902 1.190186 0.501961 0.501961 0.501961 #0.000000
v 0.034912 2.528320 1.035645 0.501961 0.501961 0.501961 #0.000000
v -1.215576 2.528076 1.035156 0.501961 0.501961 0.501961 #0.000000
v -1.215576 2.528076 1.035156 0.501961 0.501961 0.501961 #0.000000
v -1.238770 2.647705 0.941162 0.501961 0.501961 0.501961 #0.000000
v -1.215576 2.649902 1.190186 0.501961 0.501961 0.501961 #0.000000
v -1.238770 2.647705 0.941162 0.501961 0.501961 0.501961 #0.000000
v -1.238770 2.769531 1.096191 0.501961 0.501961 0.501961 #0.000000
v -1.215576 2.649902 1.190186 0.501961 0.501961 0.501961 #0.000000
v -1.238770 2.647705 0.941162 0.501961 0.501961 0.501961 #0.000000
v -1.312500 2.767334 0.847168 0.501961 0.501961 0.501961 #0.000000
v -1.238770 2.769531 1.096191 0.501961 0.501961 0.501961 #0.000000
v -1.312500 2.767334 0.847168 0.501961 0.501961 0.501961 #0.000000
v -1.312500 2.889160 1.002197 0.501961 0.501961 0.501961 #0.000000
v -1.238770 2.769531 1.096191 0.501961 0.501961 0.501961 #0.000000
v -1.312500 2.767334 0.847168 0.501961 0.501961 0.501961 #0.000000
v -1.458740 2.852783 0.779785 0.501961 0.501961 0.501961 #0.000000
v -1.312500 2.889160 1.002197 0.501961 0.501961 0.501961 #0.000000
v -1.458740 2.852783 0.779785 0.501961 0.501961 0.501961 #0.000000
v -1.458740 2.974609 0.935059 0.501961 0.501961 0.501961 #0.000000
v -1.312500 2.889160 1.002197 0.501961 0.501961 0.501961 #0.000000
v -1.458740 2.974609 0.935059 0.501961 0.501961 0.501961 #0.000000
v -1.458740 2.852783 0.779785 0.501961 0.501961 0.501961 #0.000000
v -2.165527 3.019775 0.899414 0.501961 0.501961 0.501961 #0.000000
v -1.458740 2.852783 0.779785 0.501961 0.501961 0.501961 #0.000000
v -2.165527 2.898193 0.744385 0.501961 0.501961 0.501961 #0.000000
v -2.165527 3.019775 0.899414 0.501961 0.501961 0.501961 #0.000000
v -2.165527 2.898193 0.744385 0.501961 0.501961 0.501961 #0.000000
v -2.371826 1.638916 1.734131 0.501961 0.501961 0.501961 #0.000000
v -2.165527 3.019775 0.899414 0.501961 0.501961 0.501961 #0.000000
v -2.371826 1.760986 1.889160 0.501961 0.501961 0.501961 #0.000000
v -2.165527 3.019775 0.899414 0.501961 0.501961 0.501961 #0.000000
v -2.371826 1.638916 1.734131 0.501961 0.501961 0.501961 #0.000000
v 2.442139 3.022949 0.897217 0.501961 0.501961 0.501961 #0.000000
v 1.885010 3.022949 0.897217 0.501961 0.501961 0.501961 #0.000000
v 2.215088 1.749023 1.898438 0.501961 0.501961 0.501961 #0.000000
v 1.885010 3.022949 0.897217 0.501961 0.501961 0.501961 #0.000000
v 1.830811 2.649902 1.190186 0.501961 0.501961 0.501961 #0.000000
v 2.215088 1.749023 1.898438 0.501961 0.501961 0.501961 #0.000000
v 2.215088 1.749023 1.898438 0.501961 0.501961 0.501961 #0.000000
v 1.830811 2.649902 1.190186 0.501961 0.501961 0.501961 #0.000000
v 0.034912 1.749023 1.898438 0.501961 0.501961 0.501961 #0.000000
v 1.830811 2.649902 1.190186 0.501961 0.501961 0.501961 #0.000000
v 0.904297 2.649902 1.190186 0.501961 0.501961 0.501961 #0.000000
v 0.034912 1.749023 1.898438 0.501961 0.501961 0.501961 #0.000000
v 0.904297 2.649902 1.190186 0.501961 0.501961 0.501961 #0.000000
v 0.034912 2.649902 1.190186 0.501961 0.501961 0.501961 #0.000000
v 0.034912 1.749023 1.898438 0.501961 0.501961 0.501961 #0.000000
v -1.265137 1.745850 1.900879 0.501961 0.501961 0.501961 #0.000000
v -0.915771 1.747559 1.899658 0.501961 0.501961 0.501961 #0.000000
v -1.215576 2.649902 1.190186 0.501961 0.501961 0.501961 #0.000000
v -1.215576 2.649902 1.190186 0.501961 0.501961 0.501961 #0.000000
v -0.915771 1.747559 1.899658 0.501961 0.501961 0.501961 #0.000000
v 0.034912 2.649902 1.190186 0.501961 0.501961 0.501961 #0.000000
v 0.034912 1.749023 1.898438 0.501961 0.501961 0.501961 #0.000000
v 0.034912 2.649902 1.190186 0.501961 0.501961 0.501961 #0.000000
v -0.915771 1.747559 1.899658 0.501961 0.501961 0.501961 #0.000000
v -2.371826 1.760986 1.889160 0.501961 0.501961 0.501961 #0.000000
v -2.371826 1.638916 1.734131 0.501961 0.501961 0.501961 #0.000000
v -1.945801 1.760986 1.889160 0.501961 0.501961 0.501961 #0.000000
v -2.371826 1.638916 1.734131 0.501961 0.501961 0.501961 #0.000000
v -1.945801 1.639893 1.735107 0.501961 0.501961 0.501961 #0.000000
v -1.945801 1.760986 1.889160 0.501961 0.501961 0.501961 #0.000000
v -1.508057 1.680176 1.701660 0.501961 0.501961 0.501961 #0.000000
v -1.509277 1.802246 1.856689 0.501961 0.501961 0.501961 #0.000000
v -1.945801 1.639893 1.735107 0.501961 0.501961 0.501961 #0.000000
v -1.945801 1.639893 1.735107 0.501961 0.501961 0.501961 #0.000000
v -1.509277 1.802246 1.856689 0.501961 0.501961 0.501961 #0.000000
v -1.945801 1.760986 1.889160 0.501961 0.501961 0.501961 #0.000000
v -1.634033 1.386230 1.932617 0.501961 0.501961 0.501961 #0.000000
v -1.508057 1.680176 1.701660 0.501961 0.501961 0.501961 #0.000000
v -1.371094 1.386719 1.932373 0.501961 0.501961 0.501961 #0.000000
v -1.371094 1.386719 1.932373 0.501961 0.501961 0.501961 #0.000000
v -1.508057 1.680176 1.701660 0.501961 0.501961 0.501961 #0.000000
v -1.265137 1.624023 1.745605 0.501961 0.501961 0.501961 #0.000000
v -2.371826 1.638916 1.734131 0.501961 0.501961 0.501961 #0.000000
v -2.165527 2.898193 0.744385 0.501961 0.501961 0.501961 #0.000000
v -1.945801 1.639893 1.735107 0.501961 0.501961 0.501961 #0.000000
v -2.165527 2.898193 0.744385 0.501961 0.501961 0.501961 #0.000000
v -1.458740 2.852783 0.779785 0.501961 0.501961 0.501961 #0.000000
v -1.945801 1.639893 1.735107 0.501961 0.501961 0.501961 #0.000000
v -1.945801 1.639893 1.735107 0.501961 0.501961 0.501961 #0.000000
v -1.458740 2.852783 0.779785 0.501961 0.501961 0.501961 #0.000000
v -1.508057 1.680176 1.701660 0.501961 0.501961 0.501961 #0.000000
v -1.458740 2.852783 0.779785 0.501961 0.501961 0.501961 #0.000000
v -1.312500 2.767334 0.847168 0.501961 0.501961 0.501961 #0.000000
v -1.508057 1.680176 1.701660 0.501961 0.501961 0.501961 #0.000000
v -1.312500 2.767334 0.847168 0.501961 0.501961 0.501961 #0.000000
v -1.238770 2.647705 0.941162 0.501961 0.501961 0.501961 #0.000000
v -1.508057 1.680176 1.701660 0.501961 0.501961 0.501961 #0.000000
v -1.238770 2.647705 0.941162 0.501961 0.501961 0.501961 #0.000000
v -1.215576 2.528076 1.035156 0.501961 0.501961 0.501961 #0.000000
v -1.508057 1.680176 1.701660 0.501961 0.501961 0.501961 #0.000000
v -1.508057 1.680176 1.701660 0.501961 0.501961 0.501961 #0.000000
v -1.215576 2.528076 1.035156 0.501961 0.501961 0.501961 #0.000000
v -1.265137 1.624023 1.745605 0.501961 0.501961 0.501961 #0.000000
v 2.442139 2.900879 0.742188 0.501961 0.501961 0.501961 #0.000000
v 2.215088 1.627197 1.743408 0.501961 0.501961 0.501961 #0.000000
v 1.885010 2.900879 0.742188 0.501961 0.501961 0.501961 #0.000000
v 1.885010 2.900879 0.742188 0.501961 0.501961 0.501961 #0.000000
v 2.215088 1.627197 1.743408 0.501961 0.501961 0.501961 #0.000000
v 1.830811 2.528076 1.035156 0.501961 0.501961 0.501961 #0.000000
v 2.215088 1.627197 1.743408 0.501961 0.501961 0.501961 #0.000000
v 0.034912 1.627930 1.744141 0.501961 0.501961 0.501961 #0.000000
v 1.830811 2.528076 1.035156 0.501961 0.501961 0.501961 #0.000000
v 1.830811 2.528076 1.035156 0.501961 0.501961 0.501961 #0.000000
v 0.034912 1.627930 1.744141 0.501961 0.501961 0.501961 #0.000000
v 0.904297 2.528076 1.035156 0.501961 0.501961 0.501961 #0.000000
v 0.904297 2.528076 1.035156 0.501961 0.501961 0.501961 #0.000000
v 0.034912 1.627930 1.744141 0.501961 0.501961 0.501961 #0.000000
v 0.034912 2.528320 1.035645 0.501961 0.501961 0.501961 #0.000000
v -1.265137 1.624023 1.745605 0.501961 0.501961 0.501961 #0.000000
v -1.215576 2.528076 1.035156 0.501961 0.501961 0.501961 #0.000000
v -0.915771 1.626953 1.746094 0.501961 0.501961 0.501961 #0.000000
v -1.215576 2.528076 1.035156 0.501961 0.501961 0.501961 #0.000000
v 0.034912 2.528320 1.035645 0.501961 0.501961 0.501961 #0.000000
v -0.915771 1.626953 1.746094 0.501961 0.501961 0.501961 #0.000000
v 0.034912 1.627930 1.744141 0.501961 0.501961 0.501961 #0.000000
v -0.915771 1.626953 1.746094 0.501961 0.501961 0.501961 #0.000000
v 0.034912 2.528320 1.035645 0.501961 0.501961 0.501961 #0.000000
v 0.323486 3.470459 0.067627 0.501961 0.501961 0.501961 #0.000000
v -0.375000 2.511719 0.821289 0.501961 0.501961 0.501961 #0.000000
v 0.313965 3.208740 0.498779 0.501961 0.501961 0.501961 #0.000000
v -0.293457 2.408203 1.128174 0.501961 0.501961 0.501961 #0.000000
v 0.313965 3.208740 0.498779 0.501961 0.501961 0.501961 #0.000000
v -0.375000 2.511719 0.821289 0.501961 0.501961 0.501961 #0.000000
v -0.361572 0.685059 2.256836 0.501961 0.501961 0.501961 #0.000000
v 0.402100 1.389893 1.703125 0.501961 0.501961 0.501961 #0.000000
v -0.324707 1.140381 2.124512 0.501961 0.501961 0.501961 #0.000000
v 0.402100 1.389893 1.703125 0.501961 0.501961 0.501961 #0.000000
v 0.323730 1.706543 1.679688 0.501961 0.501961 0.501961 #0.000000
v -0.324707 1.140381 2.124512 0.501961 0.501961 0.501961 #0.000000
v 2.507324 0.442383 2.447998 0.501961 0.501961 0.501961 #0.000000
v 0.323486 3.470459 0.067627 0.501961 0.501961 0.501961 #0.000000
v 1.937500 0.997314 2.236816 0.501961 0.501961 0.501961 #0.000000
v 1.937500 0.997314 2.236816 0.501961 0.501961 0.501961 #0.000000
v 0.323486 3.470459 0.067627 0.501961 0.501961 0.501961 #0.000000
v 0.313965 3.208740 0.498779 0.501961 0.501961 0.501961 #0.000000
v -2.466553 3.433838 0.096436 0.501961 0.501961 0.501961 #0.000000
v -1.896729 3.097900 0.585938 0.501961 0.501961 0.501961 #0.000000
v -0.375000 2.511719 0.821289 0.501961 0.501961 0.501961 #0.000000
v -0.375000 2.511719 0.821289 0.501961 0.501961 0.501961 #0.000000
v -1.896729 3.097900 0.585938 0.501961 0.501961 0.501961 #0.000000
v -0.293457 2.408203 1.128174 0.501961 0.501961 0.501961 #0.000000
v 2.507324 0.442383 2.447998 0.501961 0.501961 0.501961 #0.000000
v 1.937500 0.997314 2.236816 0.501961 0.501961 0.501961 #0.000000
v 0.402100 1.389893 1.703125 0.501961 0.501961 0.501961 #0.000000
v 0.402100 1.389893 1.703125 0.501961 0.501961 0.501961 #0.000000
v 1.937500 0.997314 2.236816 0.501961 0.501961 0.501961 #0.000000
v 0.323730 1.706543 1.679688 0.501961 0.501961 0.501961 #0.000000
v -2.466553 3.433838 0.096436 0.501961 0.501961 0.501961 #0.000000
v -0.361572 0.685059 2.256836 0.501961 0.501961 0.501961 #0.000000
v -1.896729 3.097900 0.585938 0.501961 0.501961 0.501961 #0.000000
v -1.896729 3.097900 0.585938 0.501961 0.501961 0.501961 #0.000000
v -0.361572 0.685059 2.256836 0.501961 0.501961 0.501961 #0.000000
v -0.324707 1.140381 2.124512 0.501961 0.501961 0.501961 #0.000000
v -1.896729 3.097900 0.585938 0.501961 0.501961 0.501961 #0.000000
v -0.324707 1.140381 2.124512 0.501961 0.501961 0.501961 #0.000000
v -0.293457 2.408203 1.128174 0.501961 0.501961 0.501961 #0.000000
v 1.937500 0.997314 2.236816 0.501961 0.501961 0.501961 #0.000000
v 0.313965 3.208740 0.498779 0.501961 0.501961 0.501961 #0.000000
v 0.323730 1.706543 1.679688 0.501961 0.501961 0.501961 #0.000000
v 0.313965 3.208740 0.498779 0.501961 0.501961 0.501961 #0.000000
v -0.293457 2.408203 1.128174 0.501961 0.501961 0.501961 #0.000000
v 0.323730 1.706543 1.679688 0.501961 0.501961 0.501961 #0.000000
v -0.293457 2.408203 1.128174 0.501961 0.501961 0.501961 #0.000000
v -0.324707 1.140381 2.124512 0.501961 0.501961 0.501961 #0.000000
v 0.323730 1.706543 1.679688 0.501961 0.501961 0.501961 #0.000000
v 0.323486 3.470459 0.067627 0.501961 0.501961 0.501961 #0.000000
v 0.313965 2.989746 0.220215 0.501961 0.501961 0.501961 #0.000000
v -0.375000 2.511719 0.821289 0.501961 0.501961 0.501961 #0.000000
v -0.293457 2.189209 0.849365 0.501961 0.501961 0.501961 #0.000000
v -0.375000 2.511719 0.821289 0.501961 0.501961 0.501961 #0.000000
v 0.313965 2.989746 0.220215 0.501961 0.501961 0.501961 #0.000000
v -0.361572 0.685059 2.256836 0.501961 0.501961 0.501961 #0.000000
v -0.324707 0.921387 1.845947 0.501961 0.501961 0.501961 #0.000000
v 0.402100 1.389893 1.703125 0.501961 0.501961 0.501961 #0.000000
v 0.402100 1.389893 1.703125 0.501961 0.501961 0.501961 #0.000000
v -0.324707 0.921387 1.845947 0.501961 0.501961 0.501961 #0.000000
v 0.323730 1.487305 1.400879 0.501961 0.501961 0.501961 #0.000000
v 2.507324 0.442383 2.447998 0.501961 0.501961 0.501961 #0.000000
v 1.937500 0.778320 1.958496 0.501961 0.501961 0.501961 #0.000000
v 0.323486 3.470459 0.067627 0.501961 0.501961 0.501961 #0.000000
v 1.937500 0.778320 1.958496 0.501961 0.501961 0.501961 #0.000000
v 0.313965 2.989746 0.220215 0.501961 0.501961 0.501961 #0.000000
v 0.323486 3.470459 0.067627 0.501961 0.501961 0.501961 #0.000000
v -2.466553 3.433838 0.096436 0.501961 0.501961 0.501961 #0.000000
v -0.375000 2.511719 0.821289 0.501961 0.501961 0.501961 #0.000000
v -1.896729 2.878906 0.307129 0.501961 0.501961 0.501961 #0.000000
v -0.375000 2.511719 0.821289 0.501961 0.501961 0.501961 #0.000000
v -0.293457 2.189209 0.849365 0.501961 0.501961 0.501961 #0.000000
v -1.896729 2.878906 0.307129 0.501961 0.501961 0.501961 #0.000000
v 2.507324 0.442383 2.447998 0.501961 0.501961 0.501961 #0.000000
v 0.402100 1.389893 1.703125 0.501961 0.501961 0.501961 #0.000000
v 1.937500 0.778320 1.958496 0.501961 0.501961 0.501961 #0.000000
v 0.402100 1.389893 1.703125 0.501961 0.501961 0.501961 #0.000000
v 0.323730 1.487305 1.400879 0.501961 0.501961 0.501961 #0.000000
v 1.937500 0.778320 1.958496 0.501961 0.501961 0.501961 #0.000000
v -2.466553 3.433838 0.096436 0.501961 0.501961 0.501961 #0.000000
v -1.896729 2.878906 0.307129 0.501961 0.501961 0.501961 #0.000000
v -0.361572 0.685059 2.256836 0.501961 0.501961 0.501961 #0.000000
v -1.896729 2.878906 0.307129 0.501961 0.501961 0.501961 #0.000000
v -0.324707 0.921387 1.845947 0.501961 0.501961 0.501961 #0.000000
v -0.361572 0.685059 2.256836 0.501961 0.501961 0.501961 #0.000000
v -1.896729 2.878906 0.307129 0.501961 0.501961 0.501961 #0.000000
v -0.293457 2.189209 0.849365 0.501961 0.501961 0.501961 #0.000000
v -0.324707 0.921387 1.845947 0.501961 0.501961 0.501961 #0.000000
v 1.937500 0.778320 1.958496 0.501961 0.501961 0.501961 #0.000000
v 0.323730 1.487305 1.400879 0.501961 0.501961 0.501961 #0.000000
v 0.313965 2.989746 0.220215 0.501961 0.501961 0.501961 #0.000000
v 0.313965 2.989746 0.220215 0.501961 0.501961 0.501961 #0.000000
v 0.323730 1.487305 1.400879 0.501961 0.501961 0.501961 #0.000000
v -0.293457 2.189209 0.849365 0.501961 0.501961 0.501961 #0.000000
v 0.323730 1.487305 1.400879 0.501961 0.501961 0.501961 #0.000000
v -0.324707 0.921387 1.845947 0.501961 0.501961 0.501961 #0.000000
v -0.293457 2.189209 0.849365 0.501961 0.501961 0.501961 #0.000000
vt 0.306396 0.371338 0.000000
vt 0.415527 0.371582 0.000000
vt 0.358154 0.432861 0.000000
vt 0.415527 0.371582 0.000000
vt 0.459717 0.421143 0.000000
vt 0.358154 0.432861 0.000000
vt 0.000000 0.424316 0.000000
vt 0.177002 0.424316 0.000000
vt 0.085693 0.683594 0.000000
vt 0.085693 0.683594 0.000000
vt 0.177002 0.424316 0.000000
vt 0.379395 0.678223 0.000000
vt 0.177002 0.424316 0.000000
vt 0.358154 0.432861 0.000000
vt 0.379395 0.678223 0.000000
vt 0.379395 0.678223 0.000000
vt 0.358154 0.432861 0.000000
vt 0.439941 0.660400 0.000000
vt 0.439941 0.660400 0.000000
vt 0.358154 0.432861 0.000000
vt 0.470459 0.635254 0.000000
vt 0.470459 0.635254 0.000000
vt 0.358154 0.432861 0.000000
vt 0.480225 0.610352 0.000000
vt 0.358154 0.432861 0.000000
vt 0.459717 0.421143 0.000000
vt 0.480225 0.610352 0.000000
vt 0.708496 -0.408203 0.000000
vt 0.708496 -0.408203 0.000000
vt 0.708496 -0.408203 0.000000
vt 0.708496 -0.408203 0.000000
vt 0.708496 -0.408203 0.000000
vt 0.708496 -0.408203 0.000000
vt 0.708496 -0.408203 0.000000
vt 0.708496 -0.408203 0.000000
vt 0.708496 -0.408203 0.000000
vt 0.708496 -0.408203 0.000000
vt 0.708496 -0.408203 0.000000
vt 0.708496 -0.408203 0.000000
vt 0.708496 -0.408203 0.000000
vt 0.708496 -0.408203 0.000000
vt 0.708496 -0.408203 0.000000
vt 0.708496 -0.408203 0.000000
vt 0.708496 -0.408203 0.000000
vt 0.708496 -0.408203 0.000000
vt 0.708496 -0.408203 0.000000
vt 0.708496 -0.408203 0.000000
vt 0.708496 -0.408203 0.000000
vt 0.708496 -0.408203 0.000000
vt 0.708496 -0.408203 0.000000
vt 0.708496 -0.408203 0.000000
vt 0.708496 -0.408203 0.000000
vt 0.708496 -0.408203 0.000000
vt 0.708496 -0.408203 0.000000
vt 0.708496 -0.408203 0.000000
vt 0.708496 -0.408203 0.000000
vt 0.708496 -0.408203 0.000000
vt 0.708496 -0.408203 0.000000
vt 0.708496 -0.408203 0.000000
vt 0.708496 -0.408203 0.000000
vt 0.708496 -0.408203 0.000000
vt 0.708496 -0.408203 0.000000
vt 0.708496 -0.408203 0.000000
vt 0.708496 -0.408203 0.000000
vt 0.708496 -0.408203 0.000000
vt 0.708496 -0.408203 0.000000
vt 0.708496 -0.408203 0.000000
vt 0.708496 -0.408203 0.000000
vt 0.708496 -0.408203 0.000000
vt 0.708496 -0.408203 0.000000
vt 0.708496 -0.408203 0.000000
vt 0.708496 -0.408203 0.000000
vt 0.708496 -0.408203 0.000000
vt 0.708496 -0.408203 0.000000
vt 0.708496 -0.408203 0.000000
vt 0.708496 -0.408203 0.000000
vt 0.708496 -0.408203 0.000000
vt 0.708496 -0.408203 0.000000
vt 0.708496 -0.408203 0.000000
vt 0.708496 -0.408203 0.000000
vt 0.708496 -0.408203 0.000000
vt 0.708496 -0.408203 0.000000
vt 0.708496 -0.408203 0.000000
vt 0.708496 -0.408203 0.000000
vt 0.708496 -0.408203 0.000000
vt 0.708496 -0.408203 0.000000
vt 0.708496 -0.408203 0.000000
vt 0.708496 -0.408203 0.000000
vt 0.708496 -0.408203 0.000000
vt 0.708496 -0.408203 0.000000
vt 0.708496 -0.408203 0.000000
vt 0.708496 -0.408203 0.000000
vt 0.708496 -0.408203 0.000000
vt 0.708496 -0.408203 0.000000
vt 0.708496 -0.408203 0.000000
vt 0.708496 -0.408203 0.000000
vt 0.708496 -0.408203 0.000000
vt 0.708496 -0.408203 0.000000
vt 0.708496 -0.408203 0.000000
vt 0.708496 -0.408203 0.000000
vt 0.708496 -0.408203 0.000000
vt 0.708496 -0.408203 0.000000
vt 0.708496 -0.408203 0.000000
vt 0.708496 -0.408203 0.000000
vt 0.708496 -0.408203 0.000000
vt 0.708496 -0.408203 0.000000
vt 0.708496 -0.408203 0.000000
vt 0.708496 -0.408203 0.000000
vt 0.708496 -0.408203 0.000000
vt 0.708496 -0.408203 0.000000
vt 0.708496 -0.408203 0.000000
vt 0.708496 -0.408203 0.000000
vt 0.708496 -0.408203 0.000000
vt 0.708496 -0.408203 0.000000
vt 0.708496 -0.408203 0.000000
vt 0.708496 -0.408203 0.000000
vt 0.708496 -0.408203 0.000000
vt 0.708496 -0.408203 0.000000
vt 0.708496 -0.408203 0.000000
vt 0.708496 -0.408203 0.000000
vt 0.708496 -0.408203 0.000000
vt 0.708496 -0.408203 0.000000
vt 0.708496 -0.408203 0.000000
vt 0.708496 -0.408203 0.000000
vt 0.708496 -0.408203 0.000000
vt 0.708496 -0.408203 0.000000
vt 1.000000 0.335938 0.000000
vt 0.768555 0.335938 0.000000
vt 0.905518 0.069092 0.000000
vt 0.768555 0.335938 0.000000
vt 0.745850 0.257080 0.000000
vt 0.905518 0.069092 0.000000
vt 0.905518 0.069092 0.000000
vt 0.745850 0.257080 0.000000
vt 0.004883 0.069092 0.000000
vt 0.745850 0.257080 0.000000
vt 0.361084 0.267090 0.000000
vt 0.004883 0.069092 0.000000
vt 0.361084 0.267090 0.000000
vt 0.004883 0.257080 0.000000
vt 0.004883 0.069092 0.000000
vt 0.459717 0.421143 0.000000
vt 0.604736 0.421631 0.000000
vt 0.480225 0.610352 0.000000
vt 0.480225 0.610352 0.000000
vt 0.604736 0.421631 0.000000
vt 0.996582 0.609131 0.000000
vt 0.996582 0.419678 0.000000
vt 0.996582 0.609131 0.000000
vt 0.604736 0.421631 0.000000
vt 0.708496 -0.408203 0.000000
vt 0.708496 -0.408203 0.000000
vt 0.708496 -0.408203 0.000000
vt 0.708496 -0.408203 0.000000
vt 0.708496 -0.408203 0.000000
vt 0.708496 -0.408203 0.000000
vt 0.708496 -0.408203 0.000000
vt 0.708496 -0.408203 0.000000
vt 0.708496 -0.408203 0.000000
vt 0.708496 -0.408203 0.000000
vt 0.708496 -0.408203 0.000000
vt 0.708496 -0.408203 0.000000
vt 0.306396 0.371338 0.000000
vt 0.358154 0.432861 0.000000
vt 0.415527 0.371582 0.000000
vt 0.415527 0.371582 0.000000
vt 0.358154 0.432861 0.000000
vt 0.459717 0.421143 0.000000
vt 0.000000 0.424316 0.000000
vt 0.085693 0.683594 0.000000
vt 0.177002 0.424316 0.000000
vt 0.085693 0.683594 0.000000
vt 0.379395 0.678223 0.000000
vt 0.177002 0.424316 0.000000
vt 0.177002 0.424316 0.000000
vt 0.379395 0.678223 0.000000
vt 0.358154 0.432861 0.000000
vt 0.379395 0.678223 0.000000
vt 0.439941 0.660400 0.000000
vt 0.358154 0.432861 0.000000
vt 0.439941 0.660400 0.000000
vt 0.470459 0.635254 0.000000
vt 0.358154 0.432861 0.000000
vt 0.470459 0.635254 0.000000
vt 0.480225 0.610352 0.000000
vt 0.358154 0.432861 0.000000
vt 0.358154 0.432861 0.000000
vt 0.480225 0.610352 0.000000
vt 0.459717 0.421143 0.000000
vt 1.000000 0.335938 0.000000
vt 0.905518 0.069092 0.000000
vt 0.768555 0.335938 0.000000
vt 0.768555 0.335938 0.000000
vt 0.905518 0.069092 0.000000
vt 0.745850 0.257080 0.000000
vt 0.905518 0.069092 0.000000
vt 0.004883 0.069092 0.000000
vt 0.745850 0.257080 0.000000
vt 0.745850 0.257080 0.000000
vt 0.004883 0.069092 0.000000
vt 0.361084 0.267090 0.000000
vt 0.361084 0.267090 0.000000
vt 0.004883 0.069092 0.000000
vt 0.004883 0.257080 0.000000
vt 0.459717 0.421143 0.000000
vt 0.480225 0.610352 0.000000
vt 0.604736 0.421631 0.000000
vt 0.480225 0.610352 0.000000
vt 0.996582 0.609131 0.000000
vt 0.604736 0.421631 0.000000
vt 0.996582 0.419678 0.000000
vt 0.604736 0.421631 0.000000
vt 0.996582 0.609131 0.000000
vt 0.591064 0.242676 0.000000
vt 0.582275 0.242676 0.000000
vt 0.591064 0.238525 0.000000
vt 0.582275 0.238525 0.000000
vt 0.591064 0.238525 0.000000
vt 0.582275 0.242676 0.000000
vt 0.581787 0.242676 0.000000
vt 0.591064 0.242676 0.000000
vt 0.581787 0.238525 0.000000
vt 0.591064 0.242676 0.000000
vt 0.591064 0.238525 0.000000
vt 0.581787 0.238525 0.000000
vt 0.621338 0.242676 0.000000
vt 0.591064 0.242676 0.000000
vt 0.621338 0.238525 0.000000
vt 0.621338 0.238525 0.000000
vt 0.591064 0.242676 0.000000
vt 0.591064 0.238525 0.000000
vt 0.552246 0.242676 0.000000
vt 0.552246 0.238525 0.000000
vt 0.582275 0.242676 0.000000
vt 0.582275 0.242676 0.000000
vt 0.552246 0.238525 0.000000
vt 0.582275 0.238525 0.000000
vt 0.621338 0.242676 0.000000
vt 0.621338 0.238525 0.000000
vt 0.591064 0.242676 0.000000
vt 0.591064 0.242676 0.000000
vt 0.621338 0.238525 0.000000
vt 0.591064 0.238525 0.000000
vt 0.552246 0.242676 0.000000
vt 0.581787 0.242676 0.000000
vt 0.552246 0.238525 0.000000
vt 0.552246 0.238525 0.000000
vt 0.581787 0.242676 0.000000
vt 0.581787 0.238525 0.000000
vt 0.933350 0.002441 0.000000
vt 0.948975 0.021484 0.000000
vt 0.950684 0.009033 0.000000
vt 0.981689 0.022705 0.000000
vt 0.954102 0.001465 0.000000
vt 0.955078 0.019775 0.000000
vt 0.954102 0.001465 0.000000
vt 0.950684 0.009033 0.000000
vt 0.955078 0.019775 0.000000
vt 0.950684 0.009033 0.000000
vt 0.948975 0.021484 0.000000
vt 0.955078 0.019775 0.000000
vt 0.591064 0.242676 0.000000
vt 0.591064 0.238525 0.000000
vt 0.582275 0.242676 0.000000
vt 0.582275 0.238525 0.000000
vt 0.582275 0.242676 0.000000
vt 0.591064 0.238525 0.000000
vt 0.581787 0.242676 0.000000
vt 0.581787 0.238525 0.000000
vt 0.591064 0.242676 0.000000
vt 0.591064 0.242676 0.000000
vt 0.581787 0.238525 0.000000
vt 0.591064 0.238525 0.000000
vt 0.621338 0.242676 0.000000
vt 0.621338 0.238525 0.000000
vt 0.591064 0.242676 0.000000
vt 0.621338 0.238525 0.000000
vt 0.591064 0.238525 0.000000
vt 0.591064 0.242676 0.000000
vt 0.552246 0.242676 0.000000
vt 0.582275 0.242676 0.000000
vt 0.552246 0.238525 0.000000
vt 0.582275 0.242676 0.000000
vt 0.582275 0.238525 0.000000
vt 0.552246 0.238525 0.000000
vt 0.621338 0.242676 0.000000
vt 0.591064 0.242676 0.000000
vt 0.621338 0.238525 0.000000
vt 0.591064 0.242676 0.000000
vt 0.591064 0.238525 0.000000
vt 0.621338 0.238525 0.000000
vt 0.552246 0.242676 0.000000
vt 0.552246 0.238525 0.000000
vt 0.581787 0.242676 0.000000
vt 0.552246 0.238525 0.000000
vt 0.581787 0.238525 0.000000
vt 0.581787 0.242676 0.000000
vt 0.933350 0.002441 0.000000
vt 0.950684 0.009033 0.000000
vt 0.948975 0.021484 0.000000
vt 0.981689 0.022705 0.000000
vt 0.955078 0.019775 0.000000
vt 0.954102 0.001465 0.000000
vt 0.954102 0.001465 0.000000
vt 0.955078 0.019775 0.000000
vt 0.950684 0.009033 0.000000
vt 0.955078 0.019775 0.000000
vt 0.948975 0.021484 0.000000
vt 0.950684 0.009033 0.000000
vt 0.306396 0.371338 0.000000
vt 0.415527 0.371582 0.000000
vt 0.358154 0.432861 0.000000
vt 0.415527 0.371582 0.000000
vt 0.459717 0.421143 0.000000
vt 0.358154 0.432861 0.000000
vt 0.000000 0.424316 0.000000
vt 0.177002 0.424316 0.000000
vt 0.085693 0.683594 0.000000
vt 0.085693 0.683594 0.000000
vt 0.177002 0.424316 0.000000
vt 0.379395 0.678223 0.000000
vt 0.177002 0.424316 0.000000
vt 0.358154 0.432861 0.000000
vt 0.379395 0.678223 0.000000
vt 0.379395 0.678223 0.000000
vt 0.358154 0.432861 0.000000
vt 0.439941 0.660400 0.000000
vt 0.439941 0.660400 0.000000
vt 0.358154 0.432861 0.000000
vt 0.470459 0.635254 0.000000
vt 0.470459 0.635254 0.000000
vt 0.358154 0.432861 0.000000
vt 0.480225 0.610352 0.000000
vt 0.358154 0.432861 0.000000
vt 0.459717 0.421143 0.000000
vt 0.480225 0.610352 0.000000
vt 0.708496 -0.408203 0.000000
vt 0.708496 -0.408203 0.000000
vt 0.708496 -0.408203 0.000000
vt 0.708496 -0.408203 0.000000
vt 0.708496 -0.408203 0.000000
vt 0.708496 -0.408203 0.000000
vt 0.708496 -0.408203 0.000000
vt 0.708496 -0.408203 0.000000
vt 0.708496 -0.408203 0.000000
vt 0.708496 -0.408203 0.000000
vt 0.708496 -0.408203 0.000000
vt 0.708496 -0.408203 0.000000
vt 0.708496 -0.408203 0.000000
vt 0.708496 -0.408203 0.000000
vt 0.708496 -0.408203 0.000000
vt 0.708496 -0.408203 0.000000
vt 0.708496 -0.408203 0.000000
vt 0.708496 -0.408203 0.000000
vt 0.708496 -0.408203 0.000000
vt 0.708496 -0.408203 0.000000
vt 0.708496 -0.408203 0.000000
vt 0.708496 -0.408203 0.000000
vt 0.708496 -0.408203 0.000000
vt 0.708496 -0.408203 0.000000
vt 0.708496 -0.408203 0.000000
vt 0.708496 -0.408203 0.000000
vt 0.708496 -0.408203 0.000000
vt 0.708496 -0.408203 0.000000
vt 0.708496 -0.408203 0.000000
vt 0.708496 -0.408203 0.000000
vt 0.708496 -0.408203 0.000000
vt 0.708496 -0.408203 0.000000
vt 0.708496 -0.408203 0.000000
vt 0.708496 -0.408203 0.000000
vt 0.708496 -0.408203 0.000000
vt 0.708496 -0.408203 0.000000
vt 0.708496 -0.408203 0.000000
vt 0.708496 -0.408203 0.000000
vt 0.708496 -0.408203 0.000000
vt 0.708496 -0.408203 0.000000
vt 0.708496 -0.408203 0.000000
vt 0.708496 -0.408203 0.000000
vt 0.708496 -0.408203 0.000000
vt 0.708496 -0.408203 0.000000
vt 0.708496 -0.408203 0.000000
vt 0.708496 -0.408203 0.000000
vt 0.708496 -0.408203 0.000000
vt 0.708496 -0.408203 0.000000
vt 0.708496 -0.408203 0.000000
vt 0.708496 -0.408203 0.000000
vt 0.708496 -0.408203 0.000000
vt 0.708496 -0.408203 0.000000
vt 0.708496 -0.408203 0.000000
vt 0.708496 -0.408203 0.000000
vt 0.708496 -0.408203 0.000000
vt 0.708496 -0.408203 0.000000
vt 0.708496 -0.408203 0.000000
vt 0.708496 -0.408203 0.000000
vt 0.708496 -0.408203 0.000000
vt 0.708496 -0.408203 0.000000
vt 0.708496 -0.408203 0.000000
vt 0.708496 -0.408203 0.000000
vt 0.708496 -0.408203 0.000000
vt 0.708496 -0.408203 0.000000
vt 0.708496 -0.408203 0.000000
vt 0.708496 -0.408203 0.000000
vt 0.708496 -0.408203 0.000000
vt 0.708496 -0.408203 0.000000
vt 0.708496 -0.408203 0.000000
vt 0.708496 -0.408203 0.000000
vt 0.708496 -0.408203 0.000000
vt 0.708496 -0.408203 0.000000
vt 0.708496 -0.408203 0.000000
vt 0.708496 -0.408203 0.000000
vt 0.708496 -0.408203 0.000000
vt 0.708496 -0.408203 0.000000
vt 0.708496 -0.408203 0.000000
vt 0.708496 -0.408203 0.000000
vt 0.708496 -0.408203 0.000000
vt 0.708496 -0.408203 0.000000
vt 0.708496 -0.408203 0.000000
vt 0.708496 -0.408203 0.000000
vt 0.708496 -0.408203 0.000000
vt 0.708496 -0.408203 0.000000
vt 0.708496 -0.408203 0.000000
vt 0.708496 -0.408203 0.000000
vt 0.708496 -0.408203 0.000000
vt 0.708496 -0.408203 0.000000
vt 0.708496 -0.408203 0.000000
vt 0.708496 -0.408203 0.000000
vt 0.708496 -0.408203 0.000000
vt 0.708496 -0.408203 0.000000
vt 0.708496 -0.408203 0.000000
vt 0.708496 -0.408203 0.000000
vt 0.708496 -0.408203 0.000000
vt 0.708496 -0.408203 0.000000
vt 0.708496 -0.408203 0.000000
vt 0.708496 -0.408203 0.000000
vt 0.708496 -0.408203 0.000000
vt 1.000000 0.335938 0.000000
vt 0.768555 0.335938 0.000000
vt 0.905518 0.069092 0.000000
vt 0.768555 0.335938 0.000000
vt 0.745850 0.257080 0.000000
vt 0.905518 0.069092 0.000000
vt 0.905518 0.069092 0.000000
vt 0.745850 0.257080 0.000000
vt 0.004883 0.069092 0.000000
vt 0.745850 0.257080 0.000000
vt 0.361084 0.267090 0.000000
vt 0.004883 0.069092 0.000000
vt 0.361084 0.267090 0.000000
vt 0.004883 0.257080 0.000000
vt 0.004883 0.069092 0.000000
vt 0.459717 0.421143 0.000000
vt 0.604736 0.421631 0.000000
vt 0.480225 0.610352 0.000000
vt 0.480225 0.610352 0.000000
vt 0.604736 0.421631 0.000000
vt 0.996582 0.609131 0.000000
vt 0.996582 0.419678 0.000000
vt 0.996582 0.609131 0.000000
vt 0.604736 0.421631 0.000000
vt 0.708496 -0.408203 0.000000
vt 0.708496 -0.408203 0.000000
vt 0.708496 -0.408203 0.000000
vt 0.708496 -0.408203 0.000000
vt 0.708496 -0.408203 0.000000
vt 0.708496 -0.408203 0.000000
vt 0.708496 -0.408203 0.000000
vt 0.708496 -0.408203 0.000000
vt 0.708496 -0.408203 0.000000
vt 0.708496 -0.408203 0.000000
vt 0.708496 -0.408203 0.000000
vt 0.708496 -0.408203 0.000000
vt 0.306396 0.371338 0.000000
vt 0.358154 0.432861 0.000000
vt 0.415527 0.371582 0.000000
vt 0.415527 0.371582 0.000000
vt 0.358154 0.432861 0.000000
vt 0.459717 0.421143 0.000000
vt 0.000000 0.424316 0.000000
vt 0.085693 0.683594 0.000000
vt 0.177002 0.424316 0.000000
vt 0.085693 0.683594 0.000000
vt 0.379395 0.678223 0.000000
vt 0.177002 0.424316 0.000000
vt 0.177002 0.424316 0.000000
vt 0.379395 0.678223 0.000000
vt 0.358154 0.432861 0.000000
vt 0.379395 0.678223 0.000000
vt 0.439941 0.660400 0.000000
vt 0.358154 0.432861 0.000000
vt 0.439941 0.660400 0.000000
vt 0.470459 0.635254 0.000000
vt 0.358154 0.432861 0.000000
vt 0.470459 0.635254 0.000000
vt 0.480225 0.610352 0.000000
vt 0.358154 0.432861 0.000000
vt 0.358154 0.432861 0.000000
vt 0.480225 0.610352 0.000000
vt 0.459717 0.421143 0.000000
vt 1.000000 0.335938 0.000000
vt 0.905518 0.069092 0.000000
vt 0.768555 0.335938 0.000000
vt 0.768555 0.335938 0.000000
vt 0.905518 0.069092 0.000000
vt 0.745850 0.257080 0.000000
vt 0.905518 0.069092 0.000000
vt 0.004883 0.069092 0.000000
vt 0.745850 0.257080 0.000000
vt 0.745850 0.257080 0.000000
vt 0.004883 0.069092 0.000000
vt 0.361084 0.267090 0.000000
vt 0.361084 0.267090 0.000000
vt 0.004883 0.069092 0.000000
vt 0.004883 0.257080 0.000000
vt 0.459717 0.421143 0.000000
vt 0.480225 0.610352 0.000000
vt 0.604736 0.421631 0.000000
vt 0.480225 0.610352 0.000000
vt 0.996582 0.609131 0.000000
vt 0.604736 0.421631 0.000000
vt 0.996582 0.419678 0.000000
vt 0.604736 0.421631 0.000000
vt 0.996582 0.609131 0.000000
vt 0.591064 0.242676 0.000000
vt 0.582275 0.242676 0.000000
vt 0.591064 0.238525 0.000000
vt 0.582275 0.238525 0.000000
vt 0.591064 0.238525 0.000000
vt 0.582275 0.242676 0.000000
vt 0.581787 0.242676 0.000000
vt 0.591064 0.242676 0.000000
vt 0.581787 0.238525 0.000000
vt 0.591064 0.242676 0.000000
vt 0.591064 0.238525 0.000000
vt 0.581787 0.238525 0.000000
vt 0.621338 0.242676 0.000000
vt 0.591064 0.242676 0.000000
vt 0.621338 0.238525 0.000000
vt 0.621338 0.238525 0.000000
vt 0.591064 0.242676 0.000000
vt 0.591064 0.238525 0.000000
vt 0.552246 0.242676 0.000000
vt 0.552246 0.238525 0.000000
vt 0.582275 0.242676 0.000000
vt 0.582275 0.242676 0.000000
vt 0.552246 0.238525 0.000000
vt 0.582275 0.238525 0.000000
vt 0.621338 0.242676 0.000000
vt 0.621338 0.238525 0.000000
vt 0.591064 0.242676 0.000000
vt 0.591064 0.242676 0.000000
vt 0.621338 0.238525 0.000000
vt 0.591064 0.238525 0.000000
vt 0.552246 0.242676 0.000000
vt 0.581787 0.242676 0.000000
vt 0.552246 0.238525 0.000000
vt 0.552246 0.238525 0.000000
vt 0.581787 0.242676 0.000000
vt 0.581787 0.238525 0.000000
vt 0.933350 0.002441 0.000000
vt 0.948975 0.021484 0.000000
vt 0.950684 0.009033 0.000000
vt 0.981689 0.022705 0.000000
vt 0.954102 0.001465 0.000000
vt 0.955078 0.019775 0.000000
vt 0.954102 0.001465 0.000000
vt 0.950684 0.009033 0.000000
vt 0.955078 0.019775 0.000000
vt 0.950684 0.009033 0.000000
vt 0.948975 0.021484 0.000000
vt 0.955078 0.019775 0.000000
vt 0.591064 0.242676 0.000000
vt 0.591064 0.238525 0.000000
vt 0.582275 0.242676 0.000000
vt 0.582275 0.238525 0.000000
vt 0.582275 0.242676 0.000000
vt 0.591064 0.238525 0.000000
vt 0.581787 0.242676 0.000000
vt 0.581787 0.238525 0.000000
vt 0.591064 0.242676 0.000000
vt 0.591064 0.242676 0.000000
vt 0.581787 0.238525 0.000000
vt 0.591064 0.238525 0.000000
vt 0.621338 0.242676 0.000000
vt 0.621338 0.238525 0.000000
vt 0.591064 0.242676 0.000000
vt 0.621338 0.238525 0.000000
vt 0.591064 0.238525 0.000000
vt 0.591064 0.242676 0.000000
vt 0.552246 0.242676 0.000000
vt 0.582275 0.242676 0.000000
vt 0.552246 0.238525 0.000000
vt 0.582275 0.242676 0.000000
vt 0.582275 0.238525 0.000000
vt 0.552246 0.238525 0.000000
vt 0.621338 0.242676 0.000000
vt 0.591064 0.242676 0.000000
vt 0.621338 0.238525 0.000000
vt 0.591064 0.242676 0.000000
vt 0.591064 0.238525 0.000000
vt 0.621338 0.238525 0.000000
vt 0.552246 0.242676 0.000000
vt 0.552246 0.238525 0.000000
vt 0.581787 0.242676 0.000000
vt 0.552246 0.238525 0.000000
vt 0.581787 0.238525 0.000000
vt 0.581787 0.242676 0.000000
vt 0.933350 0.002441 0.000000
vt 0.950684 0.009033 0.000000
vt 0.948975 0.021484 0.000000
vt 0.981689 0.022705 0.000000
vt 0.955078 0.019775 0.000000
vt 0.954102 0.001465 0.000000
vt 0.954102 0.001465 0.000000
vt 0.955078 0.019775 0.000000
vt 0.950684 0.009033 0.000000
vt 0.955078 0.019775 0.000000
vt 0.948975 0.021484 0.000000
vt 0.950684 0.009033 0.000000
vn -0.433838 0.322998 -0.840820
vn 0.587891 0.020996 -0.808838
vn -0.226807 -0.446777 -0.864990
vn 0.587891 0.020996 -0.808838
vn 0.277832 -0.237793 -0.930908
vn -0.226807 -0.446777 -0.864990
vn -0.598877 0.039795 -0.799805
vn 0.027832 0.115967 -0.992920
vn -0.517822 -0.853760 -0.050781
vn -0.517822 -0.853760 -0.050781
vn 0.027832 0.115967 -0.992920
vn 0.189941 -0.917969 -0.347900
vn 0.027832 0.115967 -0.992920
vn -0.226807 -0.446777 -0.864990
vn 0.189941 -0.917969 -0.347900
vn 0.189941 -0.917969 -0.347900
vn -0.226807 -0.446777 -0.864990
vn 0.590820 -0.801758 -0.086914
vn 0.590820 -0.801758 -0.086914
vn -0.226807 -0.446777 -0.864990
vn 0.778809 -0.569824 -0.261963
vn 0.778809 -0.569824 -0.261963
vn -0.226807 -0.446777 -0.864990
vn 0.424805 -0.752930 -0.501953
vn -0.226807 -0.446777 -0.864990
vn 0.277832 -0.237793 -0.930908
vn 0.424805 -0.752930 -0.501953
vn 0.000000 -0.992920 -0.116943
vn 0.000000 -0.996826 0.079834
vn 0.000000 -0.116943 0.992920
vn 0.000000 -0.996826 0.079834
vn 0.000000 -0.309814 0.950928
vn 0.000000 -0.116943 0.992920
vn 0.518799 -0.223877 -0.824951
vn 0.000000 -0.023926 -1.000000
vn 0.258789 0.926758 0.269775
vn 0.000000 -0.023926 -1.000000
vn 0.000977 0.966797 0.255859
vn 0.258789 0.926758 0.269775
vn 0.258789 0.926758 0.269775
vn 0.848877 0.021973 0.527832
vn 0.518799 -0.223877 -0.824951
vn 0.518799 -0.223877 -0.824951
vn 0.848877 0.021973 0.527832
vn 0.423828 -0.891846 0.156982
vn 0.848877 0.021973 0.527832
vn -0.322998 -0.136963 0.935791
vn 0.423828 -0.891846 0.156982
vn -0.322998 -0.136963 0.935791
vn -0.645996 -0.715820 -0.263916
vn 0.423828 -0.891846 0.156982
vn -0.322998 -0.136963 0.935791
vn -0.522949 0.234863 0.818848
vn -0.645996 -0.715820 -0.263916
vn -0.522949 0.234863 0.818848
vn -0.260986 -0.924805 -0.274902
vn -0.645996 -0.715820 -0.263916
vn -0.522949 0.234863 0.818848
vn 0.000000 -0.309814 0.950928
vn -0.260986 -0.924805 -0.274902
vn 0.000000 -0.996826 0.079834
vn -0.260986 -0.924805 -0.274902
vn 0.000000 -0.309814 0.950928
vn -0.116943 0.686768 0.716797
vn -0.870850 0.417969 0.258789
vn -0.226807 -0.446777 -0.864990
vn -0.433838 0.322998 -0.840820
vn -0.226807 -0.446777 -0.864990
vn -0.870850 0.417969 0.258789
vn -0.870850 0.417969 0.258789
vn 0.294922 0.954834 0.038818
vn -0.433838 0.322998 -0.840820
vn 0.294922 0.954834 0.038818
vn 0.587891 0.020996 -0.808838
vn -0.433838 0.322998 -0.840820
vn 0.294922 0.954834 0.038818
vn 0.428955 0.888916 0.158936
vn 0.587891 0.020996 -0.808838
vn 0.428955 0.888916 0.158936
vn 0.277832 -0.237793 -0.930908
vn 0.587891 0.020996 -0.808838
vn 0.277832 -0.237793 -0.930908
vn 0.428955 0.888916 0.158936
vn 0.002930 0.116943 -0.992920
vn 0.428955 0.888916 0.158936
vn 0.000977 0.966797 0.255859
vn 0.002930 0.116943 -0.992920
vn 0.000977 0.966797 0.255859
vn 0.000000 -0.023926 -1.000000
vn 0.002930 0.116943 -0.992920
vn 0.424805 -0.752930 -0.501953
vn 0.000000 -0.992920 -0.116943
vn 0.213867 0.169922 0.961914
vn 0.000000 -0.992920 -0.116943
vn 0.000000 -0.116943 0.992920
vn 0.213867 0.169922 0.961914
vn 0.213867 0.169922 0.961914
vn 0.803955 0.183838 0.565918
vn 0.424805 -0.752930 -0.501953
vn 0.803955 0.183838 0.565918
vn 0.778809 -0.569824 -0.261963
vn 0.424805 -0.752930 -0.501953
vn 0.803955 0.183838 0.565918
vn 0.676758 -0.020996 0.735840
vn 0.778809 -0.569824 -0.261963
vn 0.676758 -0.020996 0.735840
vn 0.590820 -0.801758 -0.086914
vn 0.778809 -0.569824 -0.261963
vn 0.676758 -0.020996 0.735840
vn 0.276855 -0.197998 0.939941
vn 0.590820 -0.801758 -0.086914
vn 0.276855 -0.197998 0.939941
vn 0.189941 -0.917969 -0.347900
vn 0.590820 -0.801758 -0.086914
vn 0.189941 -0.917969 -0.347900
vn 0.276855 -0.197998 0.939941
vn -0.517822 -0.853760 -0.050781
vn 0.276855 -0.197998 0.939941
vn -0.367920 0.143799 0.918945
vn -0.517822 -0.853760 -0.050781
vn -0.367920 0.143799 0.918945
vn -0.701904 0.704834 -0.104980
vn -0.517822 -0.853760 -0.050781
vn -0.598877 0.039795 -0.799805
vn -0.517822 -0.853760 -0.050781
vn -0.701904 0.704834 -0.104980
vn 0.423828 -0.891846 0.156982
vn -0.645996 -0.715820 -0.263916
vn 0.518799 -0.223877 -0.824951
vn -0.645996 -0.715820 -0.263916
vn -0.260986 -0.924805 -0.274902
vn 0.518799 -0.223877 -0.824951
vn 0.518799 -0.223877 -0.824951
vn -0.260986 -0.924805 -0.274902
vn 0.000000 -0.023926 -1.000000
vn -0.260986 -0.924805 -0.274902
vn 0.000000 -0.996826 0.079834
vn 0.000000 -0.023926 -1.000000
vn 0.000000 -0.996826 0.079834
vn 0.000000 -0.992920 -0.116943
vn 0.000000 -0.023926 -1.000000
vn 0.277832 -0.237793 -0.930908
vn 0.002930 0.116943 -0.992920
vn 0.424805 -0.752930 -0.501953
vn 0.424805 -0.752930 -0.501953
vn 0.002930 0.116943 -0.992920
vn 0.000000 -0.992920 -0.116943
vn 0.000000 -0.023926 -1.000000
vn 0.000000 -0.992920 -0.116943
vn 0.002930 0.116943 -0.992920
vn -0.598877 0.039795 -0.799805
vn -0.701904 0.704834 -0.104980
vn 0.027832 0.115967 -0.992920
vn -0.701904 0.704834 -0.104980
vn 0.055908 0.990967 0.118896
vn 0.027832 0.115967 -0.992920
vn -0.116943 0.686768 0.716797
vn -0.226807 -0.446777 -0.864990
vn 0.055908 0.990967 0.118896
vn 0.055908 0.990967 0.118896
vn -0.226807 -0.446777 -0.864990
vn 0.027832 0.115967 -0.992920
vn -0.870850 0.417969 0.258789
vn -0.116943 0.686768 0.716797
vn 0.294922 0.954834 0.038818
vn 0.294922 0.954834 0.038818
vn -0.116943 0.686768 0.716797
vn 0.428955 0.888916 0.158936
vn -0.701904 0.704834 -0.104980
vn -0.367920 0.143799 0.918945
vn 0.055908 0.990967 0.118896
vn -0.367920 0.143799 0.918945
vn 0.276855 -0.197998 0.939941
vn 0.055908 0.990967 0.118896
vn 0.055908 0.990967 0.118896
vn 0.276855 -0.197998 0.939941
vn -0.116943 0.686768 0.716797
vn 0.276855 -0.197998 0.939941
vn 0.676758 -0.020996 0.735840
vn -0.116943 0.686768 0.716797
vn 0.676758 -0.020996 0.735840
vn 0.803955 0.183838 0.565918
vn -0.116943 0.686768 0.716797
vn 0.803955 0.183838 0.565918
vn 0.213867 0.169922 0.961914
vn -0.116943 0.686768 0.716797
vn -0.116943 0.686768 0.716797
vn 0.213867 0.169922 0.961914
vn 0.428955 0.888916 0.158936
vn 0.848877 0.021973 0.527832
vn 0.258789 0.926758 0.269775
vn -0.322998 -0.136963 0.935791
vn -0.322998 -0.136963 0.935791
vn 0.258789 0.926758 0.269775
vn -0.522949 0.234863 0.818848
vn 0.258789 0.926758 0.269775
vn 0.000977 0.966797 0.255859
vn -0.522949 0.234863 0.818848
vn -0.522949 0.234863 0.818848
vn 0.000977 0.966797 0.255859
vn 0.000000 -0.309814 0.950928
vn 0.000000 -0.309814 0.950928
vn 0.000977 0.966797 0.255859
vn 0.000000 -0.116943 0.992920
vn 0.428955 0.888916 0.158936
vn 0.213867 0.169922 0.961914
vn 0.001953 0.619873 0.784912
vn 0.213867 0.169922 0.961914
vn 0.000000 -0.116943 0.992920
vn 0.001953 0.619873 0.784912
vn 0.000977 0.966797 0.255859
vn 0.001953 0.619873 0.784912
vn 0.000000 -0.116943 0.992920
vn 0.498779 -0.680908 0.536865
vn -0.250977 -0.759766 0.598877
vn -0.128906 -0.762939 -0.632813
vn -0.050781 -0.761963 -0.644775
vn -0.128906 -0.762939 -0.632813
vn -0.250977 -0.759766 0.598877
vn -0.517822 0.671875 -0.529785
vn 0.116943 0.779785 -0.614990
vn 0.088867 -0.416992 -0.903809
vn 0.116943 0.779785 -0.614990
vn 0.024902 -0.435791 -0.899902
vn 0.088867 -0.416992 -0.903809
vn 0.677979 0.576904 -0.454834
vn 0.498779 -0.680908 0.536865
vn 0.097900 -0.506836 -0.856934
vn 0.097900 -0.506836 -0.856934
vn 0.498779 -0.680908 0.536865
vn -0.128906 -0.762939 -0.632813
vn -0.785889 -0.485840 0.382813
vn -0.099854 -0.705811 -0.700928
vn -0.250977 -0.759766 0.598877
vn -0.250977 -0.759766 0.598877
vn -0.099854 -0.705811 -0.700928
vn -0.050781 -0.761963 -0.644775
vn 0.677979 0.576904 -0.454834
vn 0.097900 -0.506836 -0.856934
vn 0.116943 0.779785 -0.614990
vn 0.116943 0.779785 -0.614990
vn 0.097900 -0.506836 -0.856934
vn 0.024902 -0.435791 -0.899902
vn -0.785889 -0.485840 0.382813
vn -0.517822 0.671875 -0.529785
vn -0.099854 -0.705811 -0.700928
vn -0.099854 -0.705811 -0.700928
vn -0.517822 0.671875 -0.529785
vn 0.088867 -0.416992 -0.903809
vn -0.099854 -0.705811 -0.700928
vn 0.088867 -0.416992 -0.903809
vn -0.050781 -0.761963 -0.644775
vn 0.097900 -0.506836 -0.856934
vn -0.128906 -0.762939 -0.632813
vn 0.024902 -0.435791 -0.899902
vn -0.128906 -0.762939 -0.632813
vn -0.050781 -0.761963 -0.644775
vn 0.024902 -0.435791 -0.899902
vn -0.050781 -0.761963 -0.644775
vn 0.088867 -0.416992 -0.903809
vn 0.024902 -0.435791 -0.899902
vn 0.498779 -0.680908 0.536865
vn -0.128906 0.437988 0.889893
vn -0.250977 -0.759766 0.598877
vn -0.050781 0.449951 0.891846
vn -0.250977 -0.759766 0.598877
vn -0.128906 0.437988 0.889893
vn -0.517822 0.671875 -0.529785
vn 0.088867 0.781982 0.616943
vn 0.116943 0.779785 -0.614990
vn 0.116943 0.779785 -0.614990
vn 0.088867 0.781982 0.616943
vn 0.024902 0.772949 0.633789
vn 0.677979 0.576904 -0.454834
vn 0.097900 0.714844 0.691895
vn 0.498779 -0.680908 0.536865
vn 0.097900 0.714844 0.691895
vn -0.128906 0.437988 0.889893
vn 0.498779 -0.680908 0.536865
vn -0.785889 -0.485840 0.382813
vn -0.250977 -0.759766 0.598877
vn -0.099854 0.517822 0.849854
vn -0.250977 -0.759766 0.598877
vn -0.050781 0.449951 0.891846
vn -0.099854 0.517822 0.849854
vn 0.677979 0.576904 -0.454834
vn 0.116943 0.779785 -0.614990
vn 0.097900 0.714844 0.691895
vn 0.116943 0.779785 -0.614990
vn 0.024902 0.772949 0.633789
vn 0.097900 0.714844 0.691895
vn -0.785889 -0.485840 0.382813
vn -0.099854 0.517822 0.849854
vn -0.517822 0.671875 -0.529785
vn -0.099854 0.517822 0.849854
vn 0.088867 0.781982 0.616943
vn -0.517822 0.671875 -0.529785
vn -0.099854 0.517822 0.849854
vn -0.050781 0.449951 0.891846
vn 0.088867 0.781982 0.616943
vn 0.097900 0.714844 0.691895
vn 0.024902 0.772949 0.633789
vn -0.128906 0.437988 0.889893
vn -0.128906 0.437988 0.889893
vn 0.024902 0.772949 0.633789
vn -0.050781 0.449951 0.891846
vn 0.024902 0.772949 0.633789
vn 0.088867 0.781982 0.616943
vn -0.050781 0.449951 0.891846
vn 0.433838 0.324951 0.839844
vn -0.587891 0.021973 0.808838
vn 0.226807 -0.445801 0.865967
vn -0.587891 0.021973 0.808838
vn -0.277832 -0.235840 0.930908
vn 0.226807 -0.445801 0.865967
vn 0.598877 0.040771 0.799805
vn -0.027832 0.117920 0.992920
vn 0.517822 -0.853760 0.051758
vn 0.517822 -0.853760 0.051758
vn -0.027832 0.117920 0.992920
vn -0.189941 -0.916992 0.349854
vn -0.027832 0.117920 0.992920
vn 0.226807 -0.445801 0.865967
vn -0.189941 -0.916992 0.349854
vn -0.189941 -0.916992 0.349854
vn 0.226807 -0.445801 0.865967
vn -0.590820 -0.801758 0.087891
vn -0.590820 -0.801758 0.087891
vn 0.226807 -0.445801 0.865967
vn -0.778809 -0.568848 0.262939
vn -0.778809 -0.568848 0.262939
vn 0.226807 -0.445801 0.865967
vn -0.424805 -0.751953 0.502930
vn 0.226807 -0.445801 0.865967
vn -0.277832 -0.235840 0.930908
vn -0.424805 -0.751953 0.502930
vn 0.000000 -0.992920 0.118896
vn 0.000000 -0.996826 -0.077881
vn 0.000000 -0.118896 -0.992920
vn 0.000000 -0.996826 -0.077881
vn 0.000000 -0.310791 -0.949951
vn 0.000000 -0.118896 -0.992920
vn -0.518799 -0.222900 0.824951
vn 0.000000 -0.022949 1.000000
vn -0.258789 0.926758 -0.271973
vn 0.000000 -0.022949 1.000000
vn -0.000977 0.965820 -0.256836
vn -0.258789 0.926758 -0.271973
vn -0.258789 0.926758 -0.271973
vn -0.848877 0.020996 -0.527832
vn -0.518799 -0.222900 0.824951
vn -0.518799 -0.222900 0.824951
vn -0.848877 0.020996 -0.527832
vn -0.423828 -0.891846 -0.155762
vn -0.848877 0.020996 -0.527832
vn 0.322998 -0.137939 -0.935791
vn -0.423828 -0.891846 -0.155762
vn 0.322998 -0.137939 -0.935791
vn 0.645996 -0.715820 0.264893
vn -0.423828 -0.891846 -0.155762
vn 0.322998 -0.137939 -0.935791
vn 0.522949 0.233887 -0.819824
vn 0.645996 -0.715820 0.264893
vn 0.522949 0.233887 -0.819824
vn 0.260986 -0.924805 0.276855
vn 0.645996 -0.715820 0.264893
vn 0.522949 0.233887 -0.819824
vn 0.000000 -0.310791 -0.949951
vn 0.260986 -0.924805 0.276855
vn 0.000000 -0.996826 -0.077881
vn 0.260986 -0.924805 0.276855
vn 0.000000 -0.310791 -0.949951
vn 0.116943 0.685791 -0.717773
vn 0.870850 0.417969 -0.259766
vn 0.226807 -0.445801 0.865967
vn 0.433838 0.324951 0.839844
vn 0.226807 -0.445801 0.865967
vn 0.870850 0.417969 -0.259766
vn 0.870850 0.417969 -0.259766
vn -0.294922 0.954834 -0.040771
vn 0.433838 0.324951 0.839844
vn -0.294922 0.954834 -0.040771
vn -0.587891 0.021973 0.808838
vn 0.433838 0.324951 0.839844
vn -0.294922 0.954834 -0.040771
vn -0.428955 0.888916 -0.159912
vn -0.587891 0.021973 0.808838
vn -0.428955 0.888916 -0.159912
vn -0.277832 -0.235840 0.930908
vn -0.587891 0.021973 0.808838
vn -0.277832 -0.235840 0.930908
vn -0.428955 0.888916 -0.159912
vn -0.002930 0.117920 0.992920
vn -0.428955 0.888916 -0.159912
vn -0.000977 0.965820 -0.256836
vn -0.002930 0.117920 0.992920
vn -0.000977 0.965820 -0.256836
vn 0.000000 -0.022949 1.000000
vn -0.002930 0.117920 0.992920
vn -0.424805 -0.751953 0.502930
vn 0.000000 -0.992920 0.118896
vn -0.213867 0.167969 -0.961914
vn 0.000000 -0.992920 0.118896
vn 0.000000 -0.118896 -0.992920
vn -0.213867 0.167969 -0.961914
vn -0.213867 0.167969 -0.961914
vn -0.803955 0.182861 -0.565918
vn -0.424805 -0.751953 0.502930
vn -0.803955 0.182861 -0.565918
vn -0.778809 -0.568848 0.262939
vn -0.424805 -0.751953 0.502930
vn -0.803955 0.182861 -0.565918
vn -0.676758 -0.021973 -0.735840
vn -0.778809 -0.568848 0.262939
vn -0.676758 -0.021973 -0.735840
vn -0.590820 -0.801758 0.087891
vn -0.778809 -0.568848 0.262939
vn -0.676758 -0.021973 -0.735840
vn -0.276855 -0.199951 -0.939941
vn -0.590820 -0.801758 0.087891
vn -0.276855 -0.199951 -0.939941
vn -0.189941 -0.916992 0.349854
vn -0.590820 -0.801758 0.087891
vn -0.189941 -0.916992 0.349854
vn -0.276855 -0.199951 -0.939941
vn 0.517822 -0.853760 0.051758
vn -0.276855 -0.199951 -0.939941
vn 0.367920 0.142822 -0.918945
vn 0.517822 -0.853760 0.051758
vn 0.367920 0.142822 -0.918945
vn 0.701904 0.704834 0.102783
vn 0.517822 -0.853760 0.051758
vn 0.598877 0.040771 0.799805
vn 0.517822 -0.853760 0.051758
vn 0.701904 0.704834 0.102783
vn -0.423828 -0.891846 -0.155762
vn 0.645996 -0.715820 0.264893
vn -0.518799 -0.222900 0.824951
vn 0.645996 -0.715820 0.264893
vn 0.260986 -0.924805 0.276855
vn -0.518799 -0.222900 0.824951
vn -0.518799 -0.222900 0.824951
vn 0.260986 -0.924805 0.276855
vn 0.000000 -0.022949 1.000000
vn 0.260986 -0.924805 0.276855
vn 0.000000 -0.996826 -0.077881
vn 0.000000 -0.022949 1.000000
vn 0.000000 -0.996826 -0.077881
vn 0.000000 -0.992920 0.118896
vn 0.000000 -0.022949 1.000000
vn -0.277832 -0.235840 0.930908
vn -0.002930 0.117920 0.992920
vn -0.424805 -0.751953 0.502930
vn -0.424805 -0.751953 0.502930
vn -0.002930 0.117920 0.992920
vn 0.000000 -0.992920 0.118896
vn 0.000000 -0.022949 1.000000
vn 0.000000 -0.992920 0.118896
vn -0.002930 0.117920 0.992920
vn 0.598877 0.040771 0.799805
vn 0.701904 0.704834 0.102783
vn -0.027832 0.117920 0.992920
vn 0.701904 0.704834 0.102783
vn -0.055908 0.990967 -0.120850
vn -0.027832 0.117920 0.992920
vn 0.116943 0.685791 -0.717773
vn 0.226807 -0.445801 0.865967
vn -0.055908 0.990967 -0.120850
vn -0.055908 0.990967 -0.120850
vn 0.226807 -0.445801 0.865967
vn -0.027832 0.117920 0.992920
vn 0.870850 0.417969 -0.259766
vn 0.116943 0.685791 -0.717773
vn -0.294922 0.954834 -0.040771
vn -0.294922 0.954834 -0.040771
vn 0.116943 0.685791 -0.717773
vn -0.428955 0.888916 -0.159912
vn 0.701904 0.704834 0.102783
vn 0.367920 0.142822 -0.918945
vn -0.055908 0.990967 -0.120850
vn 0.367920 0.142822 -0.918945
vn -0.276855 -0.199951 -0.939941
vn -0.055908 0.990967 -0.120850
vn -0.055908 0.990967 -0.120850
vn -0.276855 -0.199951 -0.939941
vn 0.116943 0.685791 -0.717773
vn -0.276855 -0.199951 -0.939941
vn -0.676758 -0.021973 -0.735840
vn 0.116943 0.685791 -0.717773
vn -0.676758 -0.021973 -0.735840
vn -0.803955 0.182861 -0.565918
vn 0.116943 0.685791 -0.717773
vn -0.803955 0.182861 -0.565918
vn -0.213867 0.167969 -0.961914
vn 0.116943 0.685791 -0.717773
vn 0.116943 0.685791 -0.717773
vn -0.213867 0.167969 -0.961914
vn -0.428955 0.888916 -0.159912
vn -0.848877 0.020996 -0.527832
vn -0.258789 0.926758 -0.271973
vn 0.322998 -0.137939 -0.935791
vn 0.322998 -0.137939 -0.935791
vn -0.258789 0.926758 -0.271973
vn 0.522949 0.233887 -0.819824
vn -0.258789 0.926758 -0.271973
vn -0.000977 0.965820 -0.256836
vn 0.522949 0.233887 -0.819824
vn 0.522949 0.233887 -0.819824
vn -0.000977 0.965820 -0.256836
vn 0.000000 -0.310791 -0.949951
vn 0.000000 -0.310791 -0.949951
vn -0.000977 0.965820 -0.256836
vn 0.000000 -0.118896 -0.992920
vn -0.428955 0.888916 -0.159912
vn -0.213867 0.167969 -0.961914
vn -0.001953 0.618896 -0.785889
vn -0.213867 0.167969 -0.961914
vn 0.000000 -0.118896 -0.992920
vn -0.001953 0.618896 -0.785889
vn -0.000977 0.965820 -0.256836
vn -0.001953 0.618896 -0.785889
vn 0.000000 -0.118896 -0.992920
vn -0.498779 -0.680908 -0.535889
vn 0.250977 -0.760986 -0.597900
vn 0.128906 -0.761963 0.633789
vn 0.050781 -0.760986 0.646973
vn 0.128906 -0.761963 0.633789
vn 0.250977 -0.760986 -0.597900
vn 0.517822 0.671875 0.528809
vn -0.116943 0.780762 0.613770
vn -0.088867 -0.415771 0.904785
vn -0.116943 0.780762 0.613770
vn -0.024902 -0.434814 0.899902
vn -0.088867 -0.415771 0.904785
vn -0.677979 0.577881 0.453857
vn -0.498779 -0.680908 -0.535889
vn -0.097900 -0.504883 0.856934
vn -0.097900 -0.504883 0.856934
vn -0.498779 -0.680908 -0.535889
vn 0.128906 -0.761963 0.633789
vn 0.785889 -0.485840 -0.381836
vn 0.099854 -0.704834 0.702881
vn 0.250977 -0.760986 -0.597900
vn 0.250977 -0.760986 -0.597900
vn 0.099854 -0.704834 0.702881
vn 0.050781 -0.760986 0.646973
vn -0.677979 0.577881 0.453857
vn -0.097900 -0.504883 0.856934
vn -0.116943 0.780762 0.613770
vn -0.116943 0.780762 0.613770
vn -0.097900 -0.504883 0.856934
vn -0.024902 -0.434814 0.899902
vn 0.785889 -0.485840 -0.381836
vn 0.517822 0.671875 0.528809
vn 0.099854 -0.704834 0.702881
vn 0.099854 -0.704834 0.702881
vn 0.517822 0.671875 0.528809
vn -0.088867 -0.415771 0.904785
vn 0.099854 -0.704834 0.702881
vn -0.088867 -0.415771 0.904785
vn 0.050781 -0.760986 0.646973
vn -0.097900 -0.504883 0.856934
vn 0.128906 -0.761963 0.633789
vn -0.024902 -0.434814 0.899902
vn 0.128906 -0.761963 0.633789
vn 0.050781 -0.760986 0.646973
vn -0.024902 -0.434814 0.899902
vn 0.050781 -0.760986 0.646973
vn -0.088867 -0.415771 0.904785
vn -0.024902 -0.434814 0.899902
vn -0.498779 -0.680908 -0.535889
vn 0.128906 0.435791 -0.889893
vn 0.250977 -0.760986 -0.597900
vn 0.050781 0.448975 -0.891846
vn 0.250977 -0.760986 -0.597900
vn 0.128906 0.435791 -0.889893
vn 0.517822 0.671875 0.528809
vn -0.088867 0.780762 -0.617920
vn -0.116943 0.780762 0.613770
vn -0.116943 0.780762 0.613770
vn -0.088867 0.780762 -0.617920
vn -0.024902 0.771973 -0.634766
vn -0.677979 0.577881 0.453857
vn -0.097900 0.713867 -0.692871
vn -0.498779 -0.680908 -0.535889
vn -0.097900 0.713867 -0.692871
vn 0.128906 0.435791 -0.889893
vn -0.498779 -0.680908 -0.535889
vn 0.785889 -0.485840 -0.381836
vn 0.250977 -0.760986 -0.597900
vn 0.099854 0.515869 -0.850830
vn 0.250977 -0.760986 -0.597900
vn 0.050781 0.448975 -0.891846
vn 0.099854 0.515869 -0.850830
vn -0.677979 0.577881 0.453857
vn -0.116943 0.780762 0.613770
vn -0.097900 0.713867 -0.692871
vn -0.116943 0.780762 0.613770
vn -0.024902 0.771973 -0.634766
vn -0.097900 0.713867 -0.692871
vn 0.785889 -0.485840 -0.381836
vn 0.099854 0.515869 -0.850830
vn 0.517822 0.671875 0.528809
vn 0.099854 0.515869 -0.850830
vn -0.088867 0.780762 -0.617920
vn 0.517822 0.671875 0.528809
vn 0.099854 0.515869 -0.850830
vn 0.050781 0.448975 -0.891846
vn -0.088867 0.780762 -0.617920
vn -0.097900 0.713867 -0.692871
vn -0.024902 0.771973 -0.634766
vn 0.128906 0.435791 -0.889893
vn 0.128906 0.435791 -0.889893
vn -0.024902 0.771973 -0.634766
vn 0.050781 0.448975 -0.891846
vn -0.024902 0.771973 -0.634766
vn -0.088867 0.780762 -0.617920
vn 0.050781 0.448975 -0.891846
usemtl Texture
f 1/1/1 2/2/2 3/3/3
f 4/4/4 5/5/5 6/6/6
f 7/7/7 8/8/8 9/9/9
f 10/10/10 11/11/11 12/12/12
f 13/13/13 14/14/14 15/15/15
f 16/16/16 17/17/17 18/18/18
f 19/19/19 20/20/20 21/21/21
f 22/22/22 23/23/23 24/24/24
f 25/25/25 26/26/26 27/27/27
f 28/28/28 29/29/29 30/30/30
f 31/31/31 32/32/32 33/33/33
f 34/34/34 35/35/35 36/36/36
f 37/37/37 38/38/38 39/39/39
f 40/40/40 41/41/41 42/42/42
f 43/43/43 44/44/44 45/45/45
f 46/46/46 47/47/47 48/48/48
f 49/49/49 50/50/50 51/51/51
f 52/52/52 53/53/53 54/54/54
f 55/55/55 56/56/56 57/57/57
f 58/58/58 59/59/59 60/60/60
f 61/61/61 62/62/62 63/63/63
f 64/64/64 65/65/65 66/66/66
f 67/67/67 68/68/68 69/69/69
f 70/70/70 71/71/71 72/72/72
f 73/73/73 74/74/74 75/75/75
f 76/76/76 77/77/77 78/78/78
f 79/79/79 80/80/80 81/81/81
f 82/82/82 83/83/83 84/84/84
f 85/85/85 86/86/86 87/87/87
f 88/88/88 89/89/89 90/90/90
f 91/91/91 92/92/92 93/93/93
f 94/94/94 95/95/95 96/96/96
f 97/97/97 98/98/98 99/99/99
f 100/100/100 101/101/101 102/102/102
f 103/103/103 104/104/104 105/105/105
f 106/106/106 107/107/107 108/108/108
f 109/109/109 110/110/110 111/111/111
f 112/112/112 113/113/113 114/114/114
f 115/115/115 116/116/116 117/117/117
f 118/118/118 119/119/119 120/120/120
f 121/121/121 122/122/122 123/123/123
f 124/124/124 125/125/125 126/126/126
f 127/127/127 128/128/128 129/129/129
f 130/130/130 131/131/131 132/132/132
f 133/133/133 134/134/134 135/135/135
f 136/136/136 137/137/137 138/138/138
f 139/139/139 140/140/140 141/141/141
f 142/142/142 143/143/143 144/144/144
f 145/145/145 146/146/146 147/147/147
f 148/148/148 149/149/149 150/150/150
f 151/151/151 152/152/152 153/153/153
f 154/154/154 155/155/155 156/156/156
f 157/157/157 158/158/158 159/159/159
f 160/160/160 161/161/161 162/162/162
f 163/163/163 164/164/164 165/165/165
f 166/166/166 167/167/167 168/168/168
f 169/169/169 170/170/170 171/171/171
f 172/172/172 173/173/173 174/174/174
f 175/175/175 176/176/176 177/177/177
f 178/178/178 179/179/179 180/180/180
f 181/181/181 182/182/182 183/183/183
f 184/184/184 185/185/185 186/186/186
f 187/187/187 188/188/188 189/189/189
f 190/190/190 191/191/191 192/192/192
f 193/193/193 194/194/194 195/195/195
f 196/196/196 197/197/197 198/198/198
f 199/199/199 200/200/200 201/201/201
f 202/202/202 203/203/203 204/204/204
f 205/205/205 206/206/206 207/207/207
f 208/208/208 209/209/209 210/210/210
f 211/211/211 212/212/212 213/213/213
f 214/214/214 215/215/215 216/216/216
f 217/217/217 218/218/218 219/219/219
f 220/220/220 221/221/221 222/222/222
f 223/223/223 224/224/224 225/225/225
f 226/226/226 227/227/227 228/228/228
f 229/229/229 230/230/230 231/231/231
f 232/232/232 233/233/233 234/234/234
f 235/235/235 236/236/236 237/237/237
f 238/238/238 239/239/239 240/240/240
f 241/241/241 242/242/242 243/243/243
f 244/244/244 245/245/245 246/246/246
f 247/247/247 248/248/248 249/249/249
f 250/250/250 251/251/251 252/252/252
f 253/253/253 254/254/254 255/255/255
f 256/256/256 257/257/257 258/258/258
f 259/259/259 260/260/260 261/261/261
f 262/262/262 263/263/263 264/264/264
f 265/265/265 266/266/266 267/267/267
f 268/268/268 269/269/269 270/270/270
f 271/271/271 272/272/272 273/273/273
f 274/274/274 275/275/275 276/276/276
f 277/277/277 278/278/278 279/279/279
f 280/280/280 281/281/281 282/282/282
f 283/283/283 284/284/284 285/285/285
f 286/286/286 287/287/287 288/288/288
f 289/289/289 290/290/290 291/291/291
f 292/292/292 293/293/293 294/294/294
f 295/295/295 296/296/296 297/297/297
f 298/298/298 299/299/299 300/300/300
f 301/301/301 302/302/302 303/303/303
f 304/304/304 305/305/305 306/306/306
f 307/307/307 308/308/308 309/309/309
f 310/310/310 311/311/311 312/312/312
f 313/313/313 314/314/314 315/315/315
f 316/316/316 317/317/317 318/318/318
f 319/319/319 320/320/320 321/321/321
f 322/322/322 323/323/323 324/324/324
f 325/325/325 326/326/326 327/327/327
f 328/328/328 329/329/329 330/330/330
f 331/331/331 332/332/332 333/333/333
f 334/334/334 335/335/335 336/336/336
f 337/337/337 338/338/338 339/339/339
f 340/340/340 341/341/341 342/342/342
f 343/343/343 344/344/344 345/345/345
f 346/346/346 347/347/347 348/348/348
f 349/349/349 350/350/350 351/351/351
f 352/352/352 353/353/353 354/354/354
f 355/355/355 356/356/356 357/357/357
f 358/358/358 359/359/359 360/360/360
f 361/361/361 362/362/362 363/363/363
f 364/364/364 365/365/365 366/366/366
f 367/367/367 368/368/368 369/369/369
f 370/370/370 371/371/371 372/372/372
f 373/373/373 374/374/374 375/375/375
f 376/376/376 377/377/377 378/378/378
f 379/379/379 380/380/380 381/381/381
f 382/382/382 383/383/383 384/384/384
f 385/385/385 386/386/386 387/387/387
f 388/388/388 389/389/389 390/390/390
f 391/391/391 392/392/392 393/393/393
f 394/394/394 395/395/395 396/396/396
f 397/397/397 398/398/398 399/399/399
f 400/400/400 401/401/401 402/402/402
f 403/403/403 404/404/404 405/405/405
f 406/406/406 407/407/407 408/408/408
f 409/409/409 410/410/410 411/411/411
f 412/412/412 413/413/413 414/414/414
f 415/415/415 416/416/416 417/417/417
f 418/418/418 419/419/419 420/420/420
f 421/421/421 422/422/422 423/423/423
f 424/424/424 425/425/425 426/426/426
f 427/427/427 428/428/428 429/429/429
f 430/430/430 431/431/431 432/432/432
f 433/433/433 434/434/434 435/435/435
f 436/436/436 437/437/437 438/438/438
f 439/439/439 440/440/440 441/441/441
f 442/442/442 443/443/443 444/444/444
f 445/445/445 446/446/446 447/447/447
f 448/448/448 449/449/449 450/450/450
f 451/451/451 452/452/452 453/453/453
f 454/454/454 455/455/455 456/456/456
f 457/457/457 458/458/458 459/459/459
f 460/460/460 461/461/461 462/462/462
f 463/463/463 464/464/464 465/465/465
f 466/466/466 467/467/467 468/468/468
f 469/469/469 470/470/470 471/471/471
f 472/472/472 473/473/473 474/474/474
f 475/475/475 476/476/476 477/477/477
f 478/478/478 479/479/479 480/480/480
f 481/481/481 482/482/482 483/483/483
f 484/484/484 485/485/485 486/486/486
f 487/487/487 488/488/488 489/489/489
f 490/490/490 491/491/491 492/492/492
f 493/493/493 494/494/494 495/495/495
f 496/496/496 497/497/497 498/498/498
f 499/499/499 500/500/500 501/501/501
f 502/502/502 503/503/503 504/504/504
f 505/505/505 506/506/506 507/507/507
f 508/508/508 509/509/509 510/510/510
f 511/511/511 512/512/512 513/513/513
f 514/514/514 515/515/515 516/516/516
f 517/517/517 518/518/518 519/519/519
f 520/520/520 521/521/521 522/522/522
f 523/523/523 524/524/524 525/525/525
f 526/526/526 527/527/527 528/528/528
f 529/529/529 530/530/530 531/531/531
f 532/532/532 533/533/533 534/534/534
f 535/535/535 536/536/536 537/537/537
f 538/538/538 539/539/539 540/540/540
f 541/541/541 542/542/542 543/543/543
f 544/544/544 545/545/545 546/546/546
f 547/547/547 548/548/548 549/549/549
f 550/550/550 551/551/551 552/552/552
f 553/553/553 554/554/554 555/555/555
f 556/556/556 557/557/557 558/558/558
f 559/559/559 560/560/560 561/561/561
f 562/562/562 563/563/563 564/564/564
f 565/565/565 566/566/566 567/567/567
f 568/568/568 569/569/569 570/570/570
f 571/571/571 572/572/572 573/573/573
f 574/574/574 575/575/575 576/576/576
f 577/577/577 578/578/578 579/579/579
f 580/580/580 581/581/581 582/582/582
f 583/583/583 584/584/584 585/585/585
f 586/586/586 587/587/587 588/588/588
f 589/589/589 590/590/590 591/591/591
f 592/592/592 593/593/593 594/594/594
f 595/595/595 596/596/596 597/597/597
f 598/598/598 599/599/599 600/600/600
f 601/601/601 602/602/602 603/603/603
f 604/604/604 605/605/605 606/606/606
f 607/607/607 608/608/608 609/609/609
f 610/610/610 611/611/611 612/612/612
f 613/613/613 614/614/614 615/615/615
f 616/616/616 617/617/617 618/618/618