<?xml version="1.0" encoding="UTF-8"?>
<svg enable-background="new 0 0 500 259" version="1.1" viewBox="0 0 500 259" xml:space="preserve" xmlns="http://www.w3.org/2000/svg">
<style type="text/css">
.st0{fill:#FFFFFF;}
.st1{fill:#0B5CD4;}
.st2{fill:#030502;}
</style>
<path d="m3.3 19.4 3.6-3.6c-0.3 0.3-0.3 0.2-0.2 0.2l2.4-2.4c-0.1 0.1-0.1 0 0 0l2.4-2.4c2.3-2.3 5.8-3.7 10.3-3.7h116.8c10.5 0 22.3 7.7 26.2 17.2l29.2 71.7 0.6 1.2 0.2 1.2 0.9 4.8 2.4 3.7c1.5 2.4 2.5 4.7 2.9 7.1l0.7 3.7 2.4 3.7c1.5 2.4 2.5 4.7 2.9 7.1l0.7 3.7 3.1 4.8 0.8 1.2 0.6 1.2 11.1 26.9c2.7 6.5 1.6 12.3-2.3 15.9l-9 9c-2.6 2.6-6.7 4.2-11.8 4.2h-110.4c-12.1 0-25.7-8.9-30.2-19.9l-11.1-26.9-0.6-1.2-0.2-1.2-0.7-5.6-2.4-3.7c-1.5-2.4-2.5-4.7-2.9-7.1l-0.7-3.7-2.4-3.7c-1.5-2.4-2.5-4.7-2.9-7.1l-0.7-3.7-3.1-4.8-0.8-1.2-0.6-1.2-29.2-71.6c-2.3-5.6-1.4-10.6 2-13.8z"/>
<path class="st0" d="m205.5 177.6c6.5 0 9.8-4.7 7.3-10.6l-11.2-27.2-4.2-6.5c-0.2-0.3-0.3-0.6-0.4-0.9l-1-5.1c-0.2-1.1-0.7-2.3-1.4-3.4l-3.3-5.1c-0.2-0.3-0.3-0.6-0.4-0.9l-1-5.1c-0.2-1.1-0.7-2.3-1.4-3.4l-3.3-5.1c-0.2-0.3-0.3-0.6-0.4-0.9l-1.2-6.5-29.3-71.9c-1.8-4.4-7.2-8-12.1-8h-116.8c-4.9 0-7.4 3.6-5.6 8l29.5 71.7 4.2 6.5c0.2 0.3 0.3 0.6 0.4 0.9l0.9 5.1c0.2 1.1 0.7 2.3 1.4 3.4l3.3 5.1c0.2 0.3 0.3 0.6 0.4 0.9l0.9 5.1c0.2 1.1 0.7 2.3 1.4 3.4l3.3 5.1c0.2 0.3 0.3 0.6 0.4 0.9l1.2 6.5 11.1 27.4c2.4 5.8 9.6 10.6 16.1 10.6h111.2z"/>
<path d="m26.6 20.1c-3 0-4.5 2.2-3.4 4.9l29.4 71.4 4 6.2c0.5 0.7 0.7 1.4 0.9 2.1l0.9 5.1c0.1 0.7 0.4 1.4 0.9 2.1l3.3 5.1c0.5 0.7 0.7 1.4 0.9 2.1l0.9 5.1c0.1 0.7 0.4 1.4 0.9 2.1l3.3 5.1c0.5 0.7 0.8 1.4 0.9 2.1l1.1 6.2 11 27.3c1.7 4.1 6.8 7.5 11.3 7.5h111.3c4.6 0 6.9-3.3 5.2-7.5l-11.1-26.9-4-6.2c-0.5-0.7-0.8-1.4-0.9-2.1l-1-5.1c-0.1-0.7-0.4-1.4-0.9-2.1l-3.3-5.1c-0.5-0.7-0.8-1.4-0.9-2.1l-1-5.1c-0.1-0.7-0.4-1.4-0.9-2.1l-3.3-5.1c-0.5-0.7-0.8-1.4-0.9-2.1l-1.2-6.2-29.1-71.8c-1.1-2.7-4.4-4.9-7.4-4.9h-116.9m-2.5-6.2h116.8c6.8 0 14.3 5 16.8 11.1l29.5 71.4 0.3 0.6 0.1 0.6 1.1 6 3.2 5c1 1.5 1.6 3.1 1.9 4.6l0.9 5 3.2 5c1 1.5 1.6 3.1 1.9 4.6l0.9 5 3.9 6 0.4 0.6 0.3 0.6 11.1 26.9c3.1 7.5-1.2 13.7-9.5 13.7h-111.4c-8.3 0-17.7-6.1-20.8-13.7l-11.1-26.9-0.3-0.6-0.1-0.6-1.1-6-3.2-5c-1-1.5-1.6-3.1-1.9-4.6l-0.9-5-3.2-5c-1-1.5-1.6-3.1-1.9-4.6l-0.9-5-3.9-6-0.2-0.6-0.3-0.6-29.3-71.4c-2.5-6.1 0.9-11.1 7.7-11.1z"/>
<polygon points="73.3 32 106.8 32 87.4 25.3"/>
<path d="m35.4 31.2c0.6 1.5 2.5 2.8 4.2 2.8s2.6-1.2 1.9-2.8c-0.6-1.5-2.5-2.8-4.2-2.8s-2.5 1.3-1.9 2.8z"/>
<path d="m138.4 31.2c0.6 1.5 2.5 2.8 4.2 2.8s2.6-1.2 1.9-2.8c-0.6-1.5-2.5-2.8-4.2-2.8s-2.5 1.3-1.9 2.8z"/>
<path d="m85.7 146.9h103.5c1.5 0 2.3-1.1 1.7-2.4l-18.8-45.5c-0.6-1.3-2.2-2.4-3.7-2.4h-103.4c-1.5 0-2.3 1.1-1.7 2.4l18.7 45.5c0.6 1.3 2.2 2.4 3.7 2.4z"/>
<path class="st1" d="m24.1 13.9c-6.8 0-10.2 5-7.7 11.1l29.4 71.4 0.2 0.6 0.4 0.6 3.9 6 0.9 5c0.3 1.5 0.9 3.1 1.9 4.6l3.2 5 0.9 5c0.3 1.5 0.9 3.1 1.9 4.6l3.2 5 1.1 6 0.1 0.6 0.3 0.6 11 27c3.1 7.5 12.4 13.7 20.8 13.7h111.3c8.3 0 12.6-6.1 9.5-13.7l-11.1-26.9-0.3-0.6-0.4-0.6-3.9-6-0.9-5c-0.3-1.5-0.9-3.1-1.9-4.6l-3.2-5-0.9-5c-0.3-1.5-0.9-3.1-1.9-4.6l-3.2-5-1.1-6-0.1-0.6-0.3-0.6-29.5-71.5c-2.5-6.1-10.1-11.1-16.8-11.1h-116.8m-2.6-6.2h116.8c10.5 0 22.3 7.7 26.2 17.2l29.5 71.5 0.6 1.2 0.2 1.2 0.9 4.8 2.4 3.7c1.5 2.4 2.5 4.7 2.9 7.1l0.7 3.7 2.4 3.7c1.5 2.4 2.5 4.7 2.9 7.1l0.7 3.7 3.1 4.8 0.8 1.2 0.6 1.2 11.1 26.9c4.5 10.9-1.7 19.9-13.8 19.9h-111.4c-12.1 0-25.7-8.9-30.2-19.9l-11.1-26.9-0.6-1.2-0.2-1.2-0.9-4.8-2.4-3.7c-1.5-2.4-2.5-4.7-2.9-7.1l-0.7-3.7-2.4-3.7c-1.5-2.4-2.5-4.7-2.9-7.1l-0.7-3.7-3.1-4.8-0.8-1.2-0.1-0.6-0.3-0.6-29.3-71.4c-3.9-9.5 1.5-17.3 12-17.3z"/>
<path class="st0" d="m499 72c1.6-3.9 1.3-8.1-0.7-11.7l-0.3-4.9c-0.2-3.5-0.8-6.9-1.8-10.1-4.5-14.8-17-26.8-36.1-34.6-17.2-7-40.1-10.7-66.1-10.7-33.6 0-71.3 6-108.9 17.4-12.7 3.8-25.2 8.2-37.2 13.1l-10.3 4.1h-48.3c-2.5 0-5 0.7-7.1 2s-3.8 3.1-4.9 5.3c-0.1 0.2-0.3 0.5-0.5 1l-15.4 37.3-7.1 6.8c-25.6 24.3-36.2 49.3-29.8 70.5 4.5 14.8 17 26.8 36.1 34.6 17.3 7 40.2 10.8 66.2 10.8 33.6 0 71.3-6 108.9-17.4 12.7-3.8 25.3-8.3 37.4-13.2l10.1-4.1 66.8-0.1c5.5 0 10.4-3.3 12.5-8.5l5.3-13.2c1.2-2.9 1.3-6 0.4-8.9 3-1.8 5.4-4.5 6.8-7.9l22.8-54.9 1.4 1.5-0.2-4.2z"/>
<polygon class="st2" points="243.4 53.4 220.8 53.4 200.5 102.3 223.2 102.3"/>
<path class="st2" d="m351.4 196h134.1c5.8 0 9.7 5.8 7.6 11.2l-17.7 44.7c-1.7 4.3-5.8 7.1-10.4 7.1h-393.7c-5.8 0-9.8-5.9-7.5-11.3l7.3-17.5c1.9-4.6 6.4-7.6 11.3-7.6h247.2c3.3 0 6.3-2 7.5-5l6.8-16.4c1.2-3.2 4.2-5.2 7.5-5.2z"/>
<path class="st0" d="m348.2 222.8c-0.2 0.6-0.7 0.9-1.3 0.9h-2.1c-0.6 0-0.8-0.3-0.5-0.9l7.1-17.2c0.2-0.6 0.7-0.9 1.3-0.9h2.1c0.6 0 0.8 0.3 0.5 0.9l-7.1 17.2z"/>
<path class="st0" d="m353.2 222.3c-0.5-1-0.5-2.3 0.3-4.1l3.2-7.8c0.7-1.8 1.8-3.2 3.1-4.1 1.3-1 2.9-1.4 4.7-1.4h21.9c0.6 0 0.7 0.3 0.5 0.9l-0.7 1.7c-0.2 0.6-0.6 0.9-1.2 0.9h-20.9c-0.9 0-1.6 0.2-2.3 0.7-0.6 0.5-1.2 1.1-1.5 2l-2.8 6.7c-0.4 0.9-0.4 1.5-0.1 2s0.8 0.7 1.7 0.7h20.9c0.6 0 0.7 0.3 0.5 0.9l-0.7 1.7c-0.2 0.6-0.7 0.9-1.2 0.9h-21.9c-1.8-0.3-2.9-0.8-3.5-1.7z"/>
<path class="st0" d="m387.7 223.7c-1.8 0-3-0.5-3.5-1.4-0.5-1-0.5-2.3 0.3-4.1l3.2-7.8c0.7-1.8 1.8-3.2 3.1-4.1 1.3-1 2.9-1.4 4.7-1.4h19.1c1.8 0 3 0.5 3.5 1.4 0.5 1 0.5 2.3-0.3 4.1l-3.2 7.8c-0.7 1.8-1.8 3.2-3.1 4.1-1.3 1-2.9 1.4-4.7 1.4h-19.1zm19.4-3.4c0.9 0 1.6-0.2 2.3-0.7 0.6-0.5 1.2-1.1 1.5-2l2.8-6.7c0.4-0.9 0.4-1.5 0.1-2s-0.8-0.7-1.7-0.7h-17c-0.9 0-1.6 0.2-2.3 0.7-0.6 0.5-1.2 1.1-1.5 2l-2.8 6.7c-0.4 0.9-0.4 1.5-0.1 2s0.8 0.7 1.7 0.7h17z"/>
<path class="st0" d="m424.1 206.2c1.3-1 2.9-1.4 4.7-1.4h18.3c1.8 0 3 0.5 3.5 1.4 0.6 1 0.5 2.3-0.3 4.1l-5.1 12.5c-0.2 0.6-0.7 0.9-1.3 0.9h-2.1c-0.6 0-0.8-0.3-0.5-0.9l4.9-11.9c0.4-0.9 0.4-1.5 0.1-2s-0.8-0.7-1.7-0.7h-16.2c-0.9 0-1.6 0.2-2.3 0.7-0.6 0.5-1.2 1.1-1.5 2l-4.9 11.9c-0.2 0.6-0.7 0.9-1.2 0.9h-2.2c-0.6 0-0.7-0.3-0.5-0.9l5.1-12.5c0.9-1.7 1.9-3.1 3.2-4.1z"/>
<path class="st0" d="m457.1 210.2-0.1 0.4c-0.3 0.7-0.3 1.2 0 1.5s0.8 0.5 1.6 0.5h17.3c0.9 0 1.7 0.1 2.3 0.2 0.7 0.2 1.2 0.4 1.5 0.8s0.5 0.9 0.5 1.5-0.2 1.3-0.5 2.2l-0.7 1.6c-0.4 0.9-0.8 1.6-1.3 2.2s-1.1 1.1-1.8 1.5-1.4 0.6-2.2 0.8-1.6 0.2-2.5 0.2h-22.3c-0.6 0-0.7-0.3-0.5-0.9l0.7-1.7c0.2-0.6 0.6-0.9 1.2-0.9h21.8c0.8 0 1.5-0.2 2-0.5s0.9-0.8 1.2-1.5l0.1-0.4c0.3-0.7 0.3-1.2 0-1.5s-0.8-0.5-1.6-0.5h-17.3c-0.9 0-1.7-0.1-2.3-0.2-0.6-0.2-1.1-0.4-1.5-0.8-0.3-0.4-0.5-0.9-0.5-1.5s0.2-1.3 0.5-2.2l0.7-1.6c0.4-0.9 0.8-1.6 1.3-2.2s1.1-1.1 1.8-1.5 1.4-0.6 2.1-0.8c0.8-0.2 1.6-0.2 2.5-0.2h22c0.6 0 0.8 0.3 0.5 0.9l-0.7 1.7c-0.2 0.6-0.7 0.9-1.3 0.9h-21.5c-1.4 0-2.4 0.7-3 2z"/>
<path class="st0" d="m77.7 250.2c-1.8 0-3-0.5-3.5-1.4-0.5-1-0.5-2.3 0.3-4.1l3.2-7.8c0.7-1.8 1.8-3.2 3.1-4.1 1.3-1 2.9-1.4 4.7-1.4h19.1c1.8 0 3 0.5 3.5 1.4 0.5 1 0.5 2.3-0.3 4.1l-3.2 7.8c-0.7 1.8-1.8 3.2-3.1 4.1-1.3 1-2.9 1.4-4.7 1.4h-19.1zm19.4-3.4c0.9 0 1.6-0.2 2.3-0.7 0.6-0.5 1.2-1.1 1.5-2l2.8-6.7c0.4-0.9 0.4-1.5 0.1-2s-0.8-0.7-1.7-0.7h-17c-0.9 0-1.6 0.2-2.3 0.7-0.6 0.5-1.2 1.1-1.5 2l-2.8 6.7c-0.4 0.9-0.4 1.5-0.1 2s0.8 0.7 1.7 0.7h17z"/>
<path class="st0" d="m113.1 232.2c0.2-0.6 0.7-0.9 1.3-0.9h22c1.9 0 3.1 0.5 3.7 1.4s0.5 2.3-0.3 4.1l-0.6 1.6c-0.8 1.8-1.8 3.2-3.1 4.1s-2.9 1.4-4.8 1.4h-19l-2.3 5.5c-0.2 0.6-0.7 0.9-1.3 0.9h-2.1c-0.6 0-0.8-0.3-0.5-0.9l7-17.2zm22.6 5c0.3-0.8 0.4-1.4 0.1-1.8-0.2-0.4-0.8-0.6-1.7-0.6h-18.1l-2.3 5.7h18.1c0.9 0 1.7-0.2 2.2-0.6 0.6-0.4 1-1 1.4-1.8l0.3-0.9z"/>
<path class="st0" d="m142.9 244.1c-0.4 0.9-0.4 1.5-0.1 2s0.8 0.7 1.7 0.7h21.4c0.6 0 0.8 0.3 0.5 0.9l-0.7 1.7c-0.2 0.6-0.7 0.9-1.3 0.9h-22.4c-1.8 0-3-0.5-3.5-1.4-0.5-1-0.5-2.3 0.3-4.1l3.2-7.8c0.7-1.8 1.8-3.2 3.1-4.1 1.3-1 2.9-1.4 4.7-1.4h22.4c0.6 0 0.8 0.3 0.5 0.9l-0.7 1.7c-0.2 0.6-0.7 0.9-1.2 0.9h-21.4c-0.9 0-1.6 0.2-2.3 0.7-0.6 0.5-1.2 1.1-1.5 2l-0.7 1.7h21.4c0.6 0 0.8 0.3 0.5 0.9l-0.6 1.6c-0.2 0.6-0.7 0.9-1.3 0.9h-21.4l-0.6 1.3z"/>
<path class="st0" d="m176.7 232.7c1.3-1 2.9-1.4 4.7-1.4h18.3c1.8 0 3 0.5 3.5 1.4 0.6 1 0.5 2.3-0.3 4.1l-5.2 12.5c-0.2 0.6-0.7 0.9-1.3 0.9h-2.1c-0.6 0-0.8-0.3-0.5-0.9l4.9-11.9c0.4-0.9 0.4-1.5 0.1-2s-0.8-0.7-1.7-0.7h-16.1c-0.9 0-1.6 0.2-2.3 0.7-0.6 0.5-1.2 1.1-1.5 2l-4.9 11.9c-0.2 0.6-0.7 0.9-1.2 0.9h-2.2c-0.6 0-0.7-0.3-0.5-0.9l5.2-12.5c0.7-1.7 1.7-3.1 3.1-4.1z"/>
<path class="st0" d="m220.3 232.2c0.2-0.6 0.7-0.9 1.3-0.9h22.2c2.1 0 3.5 0.6 4.1 1.7s0.5 2.7-0.3 4.8l-2.5 6.1c-0.9 2.1-2.1 3.7-3.6 4.8s-3.4 1.7-5.5 1.7h-22.2c-0.6 0-0.8-0.3-0.5-0.9l7-17.3zm23.2 6c0.5-1.1 0.5-2 0.2-2.6s-1.1-0.9-2.3-0.9h-18.2l-5 12.1h18.2c1.2 0 2.2-0.3 3-0.9s1.5-1.5 2-2.6l2.1-5.1z"/>
<path class="st0" d="m251.1 236.9c0.7-1.8 1.8-3.2 3.1-4.1 1.3-1 2.9-1.4 4.7-1.4h18.4c1.8 0 3 0.5 3.5 1.4 0.6 1 0.5 2.3-0.3 4.1l-5.1 12.5c-0.2 0.6-0.7 0.9-1.3 0.9h-2.1c-0.6 0-0.8-0.3-0.5-0.9l2-4.9h-21.7l-2 4.9c-0.2 0.6-0.7 0.9-1.2 0.9h-2.2c-0.6 0-0.7-0.3-0.5-0.9l5.2-12.5zm25.4 0.5c0.4-0.9 0.4-1.5 0.1-2s-0.8-0.7-1.7-0.7h-16.4c-0.9 0-1.6 0.2-2.3 0.7-0.6 0.5-1.2 1.1-1.5 2l-1.5 3.6h21.8l1.5-3.6z"/>
<path class="st0" d="m294.1 249.3c-0.2 0.6-0.7 0.9-1.2 0.9h-2.1c-0.6 0-0.8-0.3-0.5-0.9l6-14.6h-11.9c-0.6 0-0.7-0.3-0.5-0.9l0.7-1.7c0.2-0.6 0.7-0.9 1.2-0.9h27.8c0.6 0 0.8 0.3 0.5 0.9l-0.7 1.7c-0.2 0.6-0.7 0.9-1.2 0.9h-12l-6.1 14.6z"/>
<path class="st0" d="m314 236.9c0.7-1.8 1.8-3.2 3.1-4.1 1.3-1 2.9-1.4 4.7-1.4h18.4c1.8 0 3 0.5 3.5 1.4 0.6 1 0.5 2.3-0.3 4.1l-5.1 12.5c-0.2 0.6-0.7 0.9-1.3 0.9h-2c-0.6 0-0.8-0.3-0.5-0.9l2-4.9h-21.7l-2 4.9c-0.2 0.6-0.7 0.9-1.2 0.9h-2.2c-0.6 0-0.7-0.3-0.5-0.9l5.1-12.5zm25.4 0.5c0.4-0.9 0.4-1.5 0.1-2s-0.8-0.7-1.7-0.7h-16.4c-0.9 0-1.6 0.2-2.3 0.7-0.6 0.5-1.2 1.1-1.5 2l-1.5 3.6h21.7l1.6-3.6z"/>
<path class="st0" d="m372.7 231.3c0.9 0 1.6 0.1 2.3 0.2 0.6 0.2 1.1 0.4 1.4 0.8s0.5 0.9 0.5 1.5-0.2 1.4-0.5 2.2l-0.1 0.3c-0.5 1.2-1.1 2.1-1.9 2.8-0.7 0.7-1.6 1.2-2.6 1.5 0.8 0.3 1.3 0.8 1.5 1.5s0.1 1.7-0.4 2.9l-0.1 0.3c-0.4 0.9-0.8 1.6-1.3 2.2s-1.1 1.1-1.7 1.5-1.3 0.6-2.1 0.8-1.6 0.2-2.5 0.2h-22.7c-0.6 0-0.8-0.3-0.5-0.9l7.1-17.1c0.2-0.6 0.7-0.9 1.3-0.9h22.3zm-22.6 7.8h18.8c0.8 0 1.5-0.2 2-0.5s0.9-0.8 1.2-1.5l0.1-0.4c0.3-0.7 0.3-1.2 0.1-1.5s-0.8-0.5-1.6-0.5h-18.8l-1.8 4.4zm-1.4 3.3-1.8 4.4h19.1c0.8 0 1.5-0.2 2-0.5s0.9-0.8 1.2-1.5l0.1-0.4c0.3-0.7 0.3-1.2 0-1.5s-0.8-0.5-1.6-0.5h-19z"/>
<path class="st0" d="m379 236.9c0.7-1.8 1.8-3.2 3.1-4.1 1.3-1 2.9-1.4 4.7-1.4h18.4c1.8 0 3 0.5 3.5 1.4 0.6 1 0.5 2.3-0.3 4.1l-5.1 12.5c-0.2 0.6-0.7 0.9-1.3 0.9h-2.1c-0.6 0-0.8-0.3-0.5-0.9l2-4.9h-21.7l-2 4.9c-0.2 0.6-0.7 0.9-1.2 0.9h-2.2c-0.6 0-0.7-0.3-0.5-0.9l5.2-12.5zm25.3 0.5c0.4-0.9 0.4-1.5 0.1-2s-0.8-0.7-1.7-0.7h-16.4c-0.9 0-1.6 0.2-2.3 0.7-0.6 0.5-1.2 1.1-1.5 2l-1.5 3.6h21.7l1.6-3.6z"/>
<path class="st0" d="m415.1 236.7-0.1 0.4c-0.3 0.7-0.3 1.2 0 1.5s0.8 0.5 1.6 0.5h17.3c0.9 0 1.7 0.1 2.3 0.2 0.7 0.2 1.2 0.4 1.5 0.8s0.5 0.9 0.5 1.5-0.2 1.3-0.5 2.2l-0.7 1.6c-0.4 0.9-0.8 1.6-1.3 2.2s-1.1 1.1-1.8 1.5-1.4 0.6-2.2 0.8-1.6 0.2-2.5 0.2h-22.3c-0.6 0-0.7-0.3-0.5-0.9l0.7-1.7c0.2-0.6 0.6-0.9 1.2-0.9h21.8c0.8 0 1.5-0.2 2-0.5s0.9-0.8 1.2-1.5l0.1-0.4c0.3-0.7 0.3-1.2 0-1.5s-0.8-0.5-1.6-0.5h-17.3c-0.9 0-1.7-0.1-2.3-0.2-0.6-0.2-1.1-0.4-1.5-0.8-0.3-0.4-0.5-0.9-0.5-1.5s0.2-1.3 0.5-2.2l0.7-1.6c0.4-0.9 0.8-1.6 1.3-2.2s1.1-1.1 1.8-1.5 1.4-0.6 2.1-0.8c0.8-0.2 1.6-0.2 2.5-0.2h22c0.6 0 0.8 0.3 0.5 0.9l-0.7 1.7c-0.2 0.6-0.7 0.9-1.3 0.9h-21.5c-1.3 0-2.4 0.7-3 2z"/>
<path class="st0" d="m444 244.1c-0.4 0.9-0.4 1.5-0.1 2s0.8 0.7 1.7 0.7h21.4c0.6 0 0.8 0.3 0.5 0.9l-0.7 1.7c-0.2 0.6-0.7 0.9-1.3 0.9h-22.4c-1.8 0-3-0.5-3.5-1.4-0.5-1-0.5-2.3 0.3-4.1l3.2-7.8c0.7-1.8 1.8-3.2 3.1-4.1 1.3-1 2.9-1.4 4.7-1.4h22.4c0.6 0 0.8 0.3 0.5 0.9l-0.7 1.7c-0.2 0.6-0.7 0.9-1.2 0.9h-21.4c-0.9 0-1.6 0.2-2.3 0.7-0.6 0.5-1.2 1.1-1.5 2l-0.7 1.7h21.4c0.6 0 0.8 0.3 0.5 0.9l-0.6 1.6c-0.2 0.6-0.7 0.9-1.3 0.9h-21.4l-0.6 1.3z"/>
<path class="st2" d="m491.3 63.6c-0.3-0.4-0.6-0.8-1-1.1-0.1-0.1-0.2-0.3-0.4-0.4-0.1-0.1-0.2-0.3-0.4-0.4-0.1-0.1-0.2-0.3-0.4-0.4-0.1-0.1-0.2-0.3-0.4-0.4-0.1-0.1-0.2-0.3-0.4-0.4-0.1-0.1-0.2-0.3-0.4-0.4-0.1-0.1-0.2-0.3-0.4-0.4-0.1-0.1-0.2-0.3-0.4-0.4-0.1-0.1-0.2-0.3-0.4-0.4-0.1-0.1-0.2-0.3-0.4-0.4-0.1-0.1-0.2-0.3-0.4-0.4-0.1-0.1-0.2-0.3-0.4-0.4-0.1-0.1-0.2-0.3-0.4-0.4-0.1-0.1-0.2-0.3-0.4-0.4-0.1-0.1-0.2-0.3-0.4-0.4-0.1-0.1-0.2-0.3-0.4-0.4-0.1-0.1-0.2-0.3-0.4-0.4-0.1-0.1-0.2-0.3-0.4-0.4-0.1-0.1-0.2-0.3-0.4-0.4-0.1-0.1-0.2-0.3-0.4-0.4-0.1-0.1-0.2-0.3-0.4-0.4-0.1-0.1-0.2-0.3-0.4-0.4-0.1-0.1-0.2-0.3-0.4-0.4-0.1-0.1-0.2-0.3-0.4-0.4-0.1-0.1-0.2-0.3-0.4-0.4-0.1-0.1-0.2-0.3-0.4-0.4-0.1-0.1-0.2-0.3-0.4-0.4-0.1-0.1-0.2-0.3-0.4-0.4-0.1-0.1-0.2-0.3-0.4-0.4-0.1-0.1-0.2-0.3-0.4-0.4-0.1-0.1-0.2-0.3-0.4-0.4-0.1-0.1-0.2-0.3-0.4-0.4-0.1-0.1-0.2-0.3-0.4-0.4-0.1-0.1-0.2-0.3-0.4-0.4-0.1-0.1-0.2-0.3-0.4-0.4-0.1-0.1-0.2-0.3-0.4-0.4-0.1-0.1-0.2-0.3-0.4-0.4-0.1-0.1-0.2-0.3-0.4-0.4-0.1-0.1-0.2-0.3-0.4-0.4-0.1-0.1-0.2-0.3-0.4-0.4-0.1-0.1-0.2-0.3-0.4-0.4-0.1-0.1-0.2-0.3-0.4-0.4-0.1-0.1-0.2-0.3-0.4-0.4-0.1-0.1-0.2-0.3-0.4-0.4-0.1-0.1-0.2-0.3-0.4-0.4-0.1-0.1-0.2-0.3-0.4-0.4-0.1-0.1-0.2-0.3-0.4-0.4-0.1-0.1-0.2-0.3-0.4-0.4-0.1-0.1-0.2-0.3-0.4-0.4l-0.4-0.4c-0.1-0.1-0.2-0.2-0.3-0.2-0.4-0.4-0.9-0.8-1.5-1-0.1 0-0.1-0.1-0.2-0.1s-0.2-0.1-0.3-0.1-0.2-0.1-0.3-0.1-0.2-0.1-0.3-0.1-0.3-0.1-0.4-0.1h-0.2-0.7-276.7c-1.1 0-2.1 0.3-3 0.9-0.9 0.5-1.6 1.3-2.1 2.3-0.1 0.1-0.1 0.2-0.2 0.4l-36.3 88c0 0.1-0.1 0.2-0.1 0.3-0.1 0.4-0.2 0.8-0.3 1.3-0.1 1.3 0.2 2.6 0.9 3.7 0.1 0.2 0.3 0.4 0.4 0.6 0.2 0.2 0.3 0.4 0.5 0.5 0.1 0.1 0.2 0.3 0.4 0.4 0.1 0.1 0.2 0.3 0.4 0.4 0.1 0.1 0.2 0.3 0.4 0.4 0.1 0.1 0.2 0.3 0.4 0.4 0.1 0.1 0.2 0.3 0.4 0.4 0.1 0.1 0.2 0.3 0.4 0.4 0.1 0.1 0.2 0.3 0.4 0.4 0.1 0.1 0.2 0.3 0.4 0.4 0.1 0.1 0.2 0.3 0.4 0.4 0.1 0.1 0.2 0.3 0.4 0.4 0.1 0.1 0.2 0.3 0.4 0.4 0.1 0.1 0.2 0.3 0.4 0.4 0.1 0.1 0.2 0.3 0.4 0.4 0.1 0.1 0.2 0.3 0.4 0.4 0.1 0.1 0.2 0.3 0.4 0.4 0.1 0.1 0.2 0.3 0.4 0.4 0.1 0.1 0.2 0.3 0.4 0.4 0.1 0.1 0.2 0.3 0.4 0.4 0.1 0.1 0.2 0.3 0.4 0.4 0.1 0.1 0.2 0.3 0.4 0.4 0.1 0.1 0.2 0.3 0.4 0.4 0.1 0.1 0.2 0.3 0.4 0.4 0.1 0.1 0.2 0.3 0.4 0.4 0.1 0.1 0.2 0.3 0.4 0.4 0.1 0.1 0.2 0.3 0.4 0.4 0.1 0.1 0.2 0.3 0.4 0.4 0.1 0.1 0.2 0.3 0.4 0.4 0.1 0.1 0.2 0.3 0.4 0.4 0.1 0.1 0.2 0.3 0.4 0.4 0.1 0.1 0.2 0.3 0.4 0.4 0.1 0.1 0.2 0.3 0.4 0.4 0.1 0.1 0.2 0.3 0.4 0.4 0.1 0.1 0.2 0.3 0.4 0.4 0.1 0.1 0.2 0.3 0.4 0.4 0.1 0.1 0.2 0.3 0.4 0.4 0.1 0.1 0.2 0.3 0.4 0.4 0.1 0.1 0.2 0.3 0.4 0.4 0.1 0.1 0.2 0.3 0.4 0.4 0.1 0.1 0.2 0.3 0.4 0.4 0.1 0.1 0.2 0.3 0.4 0.4 0.1 0.1 0.2 0.3 0.4 0.4 0.1 0.1 0.2 0.3 0.4 0.4 0.1 0.1 0.2 0.3 0.4 0.4 0.1 0.1 0.2 0.3 0.4 0.4 0.1 0.1 0.2 0.3 0.4 0.4 0.1 0.1 0.2 0.3 0.4 0.4 0.1 0.1 0.2 0.3 0.4 0.4 0.1 0.1 0.2 0.3 0.4 0.4 0.1 0.1 0.2 0.3 0.4 0.4 0.1 0.1 0.2 0.3 0.4 0.4 1.1 1.1 2.6 1.8 4.2 1.8h35.1l1.2-2.9 10.4-25.4h25.6l-0.3 0.7-0.4 0.9c-0.1 0.2-0.2 0.4-0.2 0.7-0.4 1.4-0.2 2.8 0.4 4.1 0.1 0.2 0.2 0.4 0.4 0.6 0.1 0.2 0.3 0.4 0.4 0.6 0.2 0.2 0.3 0.4 0.5 0.5 0.1 0.1 0.2 0.3 0.4 0.4 0.1 0.1 0.2 0.3 0.4 0.4 0.1 0.1 0.2 0.3 0.4 0.4 0.1 0.1 0.2 0.3 0.4 0.4 0.1 0.1 0.2 0.3 0.4 0.4 0.1 0.1 0.2 0.3 0.4 0.4 0.1 0.1 0.2 0.3 0.4 0.4 0.1 0.1 0.2 0.3 0.4 0.4 0.1 0.1 0.2 0.3 0.4 0.4 0.1 0.1 0.2 0.3 0.4 0.4 0.1 0.1 0.2 0.3 0.4 0.4 0.1 0.1 0.2 0.3 0.4 0.4 0.1 0.1 0.2 0.3 0.4 0.4 0.1 0.1 0.2 0.3 0.4 0.4 0.1 0.1 0.2 0.3 0.4 0.4 0.1 0.1 0.2 0.3 0.4 0.4 0.1 0.1 0.2 0.3 0.4 0.4 0.1 0.1 0.2 0.3 0.4 0.4 0.1 0.1 0.2 0.3 0.4 0.4 0.1 0.1 0.2 0.3 0.4 0.4 0.1 0.1 0.2 0.3 0.4 0.4 0.1 0.1 0.2 0.3 0.4 0.4 0.1 0.1 0.2 0.3 0.4 0.4 0.1 0.1 0.2 0.3 0.4 0.4 0.1 0.1 0.2 0.3 0.4 0.4 0.1 0.1 0.2 0.3 0.4 0.4 0.1 0.1 0.2 0.3 0.4 0.4 0.1 0.1 0.2 0.3 0.4 0.4 0.1 0.1 0.2 0.3 0.4 0.4 0.1 0.1 0.2 0.3 0.4 0.4 0.1 0.1 0.2 0.3 0.4 0.4 0.1 0.1 0.2 0.3 0.4 0.4 0.1 0.1 0.2 0.3 0.4 0.4 0.1 0.1 0.2 0.3 0.4 0.4 0.1 0.1 0.2 0.3 0.4 0.4 0.1 0.1 0.2 0.3 0.4 0.4 0.1 0.1 0.2 0.3 0.4 0.4 0.1 0.1 0.2 0.3 0.4 0.4 0.1 0.1 0.2 0.3 0.4 0.4 0.1 0.1 0.2 0.3 0.4 0.4 0.1 0.1 0.2 0.3 0.4 0.4 0.1 0.1 0.2 0.3 0.4 0.4 0.1 0.1 0.2 0.3 0.4 0.4 0.1 0.1 0.2 0.3 0.4 0.4 0.1 0.1 0.2 0.3 0.4 0.4 0.1 0.1 0.2 0.3 0.4 0.4 0.1 0.1 0.2 0.3 0.4 0.4 0.1 0.1 0.2 0.3 0.4 0.4 0.1 0.1 0.2 0.3 0.4 0.4 0.1 0.1 0.2 0.3 0.4 0.4 1.1 1.1 2.6 1.8 4.2 1.8h87.3 0.3l95-0.1c2.3 0 4.4-1.4 5.3-3.6l5.3-13.2c0.7-1.8 0.5-3.7-0.6-5.3-0.3-0.4-0.6-0.8-0.9-1.1-0.1-0.1-0.2-0.3-0.4-0.4-0.1-0.1-0.2-0.3-0.4-0.4-0.1-0.1-0.2-0.3-0.4-0.4-0.1-0.1-0.2-0.3-0.4-0.4-0.1-0.1-0.2-0.3-0.4-0.4-0.1-0.1-0.2-0.3-0.4-0.4-0.1-0.1-0.2-0.3-0.4-0.4-0.1-0.1-0.2-0.3-0.4-0.4-0.1-0.1-0.2-0.3-0.4-0.4-0.1-0.1-0.2-0.3-0.4-0.4-0.1-0.1-0.2-0.3-0.4-0.4-0.1-0.1-0.2-0.3-0.4-0.4-0.1-0.1-0.2-0.3-0.4-0.4l-0.3-0.3h5.6c3.6 0 6.8-2.1 8.2-5.5l24-57.7c-2.1-3-2.3-5-3.4-6.6zm-294.8 45.1-11.5 28.3h-31.9c-0.7 0-1.2-0.7-0.9-1.4l36.3-88c0.2-0.4 0.5-0.6 0.9-0.6h87.3c0.7 0 1.2 0.7 0.9 1.4l-24.7 59.7c-0.2 0.4-0.5 0.6-0.9 0.6h-55.5zm139.5 28.3h-87.3c-0.7 0-1.2-0.7-0.9-1.4l9.3-22.5c0.2-0.4 0.5-0.6 0.9-0.6h31.4c0.7 0 1.2 0.7 0.9 1.4l-6.9 16.8h22.5l14.5-35.5h-54.3c-0.7 0-1.2-0.7-0.9-1.4l19.1-46.2c0.2-0.4 0.5-0.6 0.9-0.6h87.2c0.7 0 1.2 0.7 0.9 1.4l-9.3 22.3c-0.2 0.4-0.5 0.6-0.9 0.6h-31.4c-0.7 0-1.2-0.7-0.9-1.4l6.9-16.5h-22.6l-14.5 35.5h54.4c0.7 0 1.2 0.7 0.9 1.4l-19 46.1c-0.1 0.4-0.5 0.6-0.9 0.6zm132.7-88.6-24 57.7c-0.6 1.5-2.2 2.6-3.8 2.6h-53.3l-9 22h22.5l3.3-8.4c0.2-0.4 0.5-0.6 0.9-0.6h31.3c0.7 0 1.2 0.7 0.9 1.4l-5.3 13.2c-0.2 0.4-0.5 0.6-0.9 0.6h-87.3c-0.7 0-1.2-0.7-0.9-1.4l13.4-32.6c0.2-0.4 0.5-0.6 0.9-0.6h55.4l20.2-49h-22.5l-12.9 31.6c-0.2 0.4-0.5 0.6-0.9 0.6h-31.3c-0.7 0-1.2-0.7-0.9-1.4l14.9-36.5c0.2-0.4 0.5-0.6 0.9-0.6h87.4c0.8 0 1.3 0.7 1 1.4z"/>
<path class="st1" d="m355 165.2h-0.2-87.4c-2.8 0-5.5-1.1-7.4-3.2l-1.2-1.2c-0.1-0.1-0.3-0.2-0.4-0.4l-0.8-0.8c-0.1-0.1-0.3-0.2-0.4-0.4l-2.4-2.4c-0.1-0.1-0.3-0.2-0.4-0.4l-1.6-1.6c-0.1-0.1-0.3-0.2-0.4-0.4l-1.6-1.6c-0.1-0.1-0.3-0.2-0.4-0.4l-0.8-0.8c-0.1-0.1-0.3-0.2-0.4-0.4l-2.4-2.4c-0.1-0.1-0.3-0.2-0.4-0.4l-2-2c-0.1-0.1-0.3-0.2-0.4-0.4l-3.2-3.2c-0.1-0.1-0.3-0.2-0.4-0.4-0.1-0.1-0.3-0.2-0.4-0.4-0.2-0.2-0.5-0.4-0.7-0.7l-0.1-0.1c-0.3-0.3-0.6-0.7-0.8-1.1l-0.1-0.1v-0.1c-0.1-0.1-0.1-0.2-0.2-0.3-0.8-1.4-1.3-2.9-1.4-4.4h-16.7l-9.2 22.4-2.4 5.8h-38.3c-2.8 0-5.5-1.1-7.4-3.2l-4.8-4.8c-0.1-0.1-0.3-0.2-0.4-0.4l-0.8-0.8c-0.1-0.1-0.3-0.2-0.4-0.4l-0.8-0.8c-0.1-0.1-0.3-0.2-0.4-0.4l-1.6-1.6c-0.1-0.1-0.3-0.2-0.4-0.4l-3.2-3.2c-0.1-0.1-0.3-0.2-0.4-0.4l-0.4-0.4c-0.1-0.1-0.3-0.2-0.4-0.4l-3.2-3.2c-0.1-0.1-0.3-0.2-0.4-0.4l-2.4-2.4c-0.6-0.6-1.1-1.2-1.6-1.8-1.8-2.6-2.2-5.9-1.3-8.9v-0.1c0.1-0.2 0.1-0.4 0.3-0.8l16.3-39.4c-22.6 21.4-33.5 43.7-27.7 62.7 12.8 42.3 103 52.5 201.6 22.8 12.8-3.9 25.1-8.2 36.7-12.9 3.2 3.3-7.9 3.4-12 3.4z"/>
<path class="st1" d="m488.9 47.6c-12.8-42.4-103.1-52.6-201.6-22.8-12.7 3.8-24.9 8.1-36.5 12.8h217c0.4 0 0.8 0 1.2 0.1 0.1 0 0.3 0 0.4 0.1 0.2 0 0.5 0.1 0.7 0.1s0.4 0.1 0.6 0.1c0.2 0.1 0.4 0.1 0.5 0.2 0.2 0.1 0.4 0.1 0.6 0.2 0.1 0 0.2 0.1 0.4 0.2 1.2 0.5 2.2 1.3 3.1 2.2l1.6 1.6c0.1 0.1 0.3 0.2 0.4 0.4l1.2 1.2c0.1 0.1 0.3 0.2 0.4 0.4l0.4 0.4c0.1 0.1 0.3 0.2 0.4 0.4l2.8 2.8c0.1 0.1 0.3 0.2 0.4 0.4l1.2 1.2c0.1 0.1 0.3 0.2 0.4 0.4l0.4 0.4c0.1 0.1 0.3 0.2 0.4 0.4l2 2c0.1 0.1 0.3 0.2 0.4 0.4l2.8 2.8c0.1 0.1 0.3 0.2 0.4 0.4l0.7 0.7c-1.5-4.1-1.9-6.8-2.7-9.5z"/>
</svg>
