<svg viewBox="0 0 500 259" xml:space="preserve" xmlns="http://www.w3.org/2000/svg"><style>.st0{fill:#fff}.st1{fill:#0b5cd4}.st2{fill:#030502}</style><path d="m3.3 19.4 3.6-3.6c-.3.3-.3.2-.2.2l2.4-2.4c-.1.1-.1 0 0 0l2.4-2.4c2.3-2.3 5.8-3.7 10.3-3.7h116.8c10.5 0 22.3 7.7 26.2 17.2L194 96.4l.6 1.2.2 1.2.9 4.8 2.4 3.7c1.5 2.4 2.5 4.7 2.9 7.1l.7 3.7 2.4 3.7c1.5 2.4 2.5 4.7 2.9 7.1l.7 3.7 3.1 4.8.8 1.2.6 1.2 11.1 26.9c2.7 6.5 1.6 12.3-2.3 15.9l-9 9c-2.6 2.6-6.7 4.2-11.8 4.2H89.8c-12.1 0-25.7-8.9-30.2-19.9L48.5 149l-.6-1.2-.2-1.2-.7-5.6-2.4-3.7c-1.5-2.4-2.5-4.7-2.9-7.1l-.7-3.7-2.4-3.7c-1.5-2.4-2.5-4.7-2.9-7.1L35 112l-3.1-4.8-.8-1.2-.6-1.2L1.3 33.2c-2.3-5.6-1.4-10.6 2-13.8z"/><path class="st0" d="M205.5 177.6c6.5 0 9.8-4.7 7.3-10.6l-11.2-27.2-4.2-6.5c-.2-.3-.3-.6-.4-.9l-1-5.1c-.2-1.1-.7-2.3-1.4-3.4l-3.3-5.1c-.2-.3-.3-.6-.4-.9l-1-5.1c-.2-1.1-.7-2.3-1.4-3.4l-3.3-5.1c-.2-.3-.3-.6-.4-.9l-1.2-6.5L154.3 25c-1.8-4.4-7.2-8-12.1-8H25.4c-4.9 0-7.4 3.6-5.6 8l29.5 71.7 4.2 6.5c.2.3.3.6.4.9l.9 5.1c.2 1.1.7 2.3 1.4 3.4l3.3 5.1c.2.3.3.6.4.9l.9 5.1c.2 1.1.7 2.3 1.4 3.4l3.3 5.1c.2.3.3.6.4.9l1.2 6.5L78.2 167c2.4 5.8 9.6 10.6 16.1 10.6h111.2z"/><path d="M26.6 20.1c-3 0-4.5 2.2-3.4 4.9l29.4 71.4 4 6.2c.5.7.7 1.4.9 2.1l.9 5.1c.1.7.4 1.4.9 2.1l3.3 5.1c.5.7.7 1.4.9 2.1l.9 5.1c.1.7.4 1.4.9 2.1l3.3 5.1c.5.7.8 1.4.9 2.1l1.1 6.2 11 27.3c1.7 4.1 6.8 7.5 11.3 7.5h111.3c4.6 0 6.9-3.3 5.2-7.5l-11.1-26.9-4-6.2c-.5-.7-.8-1.4-.9-2.1l-1-5.1c-.1-.7-.4-1.4-.9-2.1l-3.3-5.1c-.5-.7-.8-1.4-.9-2.1l-1-5.1c-.1-.7-.4-1.4-.9-2.1l-3.3-5.1c-.5-.7-.8-1.4-.9-2.1l-1.2-6.2L150.9 25c-1.1-2.7-4.4-4.9-7.4-4.9H26.6m-2.5-6.2h116.8c6.8 0 14.3 5 16.8 11.1l29.5 71.4.3.6.1.6 1.1 6 3.2 5c1 1.5 1.6 3.1 1.9 4.6l.9 5 3.2 5c1 1.5 1.6 3.1 1.9 4.6l.9 5 3.9 6 .4.6.3.6 11.1 26.9c3.1 7.5-1.2 13.7-9.5 13.7H95.5c-8.3 0-17.7-6.1-20.8-13.7L63.6 140l-.3-.6-.1-.6-1.1-6-3.2-5c-1-1.5-1.6-3.1-1.9-4.6l-.9-5-3.2-5c-1-1.5-1.6-3.1-1.9-4.6l-.9-5-3.9-6-.2-.6-.3-.6L16.4 25c-2.5-6.1.9-11.1 7.7-11.1z"/><path d="M73.3 32h33.5l-19.4-6.7zM35.4 31.2c.6 1.5 2.5 2.8 4.2 2.8s2.6-1.2 1.9-2.8c-.6-1.5-2.5-2.8-4.2-2.8s-2.5 1.3-1.9 2.8zM138.4 31.2c.6 1.5 2.5 2.8 4.2 2.8s2.6-1.2 1.9-2.8c-.6-1.5-2.5-2.8-4.2-2.8s-2.5 1.3-1.9 2.8zM85.7 146.9h103.5c1.5 0 2.3-1.1 1.7-2.4L172.1 99c-.6-1.3-2.2-2.4-3.7-2.4H65c-1.5 0-2.3 1.1-1.7 2.4L82 144.5c.6 1.3 2.2 2.4 3.7 2.4z"/><path class="st1" d="M24.1 13.9c-6.8 0-10.2 5-7.7 11.1l29.4 71.4.2.6.4.6 3.9 6 .9 5c.3 1.5.9 3.1 1.9 4.6l3.2 5 .9 5c.3 1.5.9 3.1 1.9 4.6l3.2 5 1.1 6 .1.6.3.6 11 27c3.1 7.5 12.4 13.7 20.8 13.7h111.3c8.3 0 12.6-6.1 9.5-13.7l-11.1-26.9-.3-.6-.4-.6-3.9-6-.9-5c-.3-1.5-.9-3.1-1.9-4.6l-3.2-5-.9-5c-.3-1.5-.9-3.1-1.9-4.6l-3.2-5-1.1-6-.1-.6-.3-.6L157.7 25c-2.5-6.1-10.1-11.1-16.8-11.1H24.1m-2.6-6.2h116.8c10.5 0 22.3 7.7 26.2 17.2L194 96.4l.6 1.2.2 1.2.9 4.8 2.4 3.7c1.5 2.4 2.5 4.7 2.9 7.1l.7 3.7 2.4 3.7c1.5 2.4 2.5 4.7 2.9 7.1l.7 3.7 3.1 4.8.8 1.2.6 1.2 11.1 26.9c4.5 10.9-1.7 19.9-13.8 19.9H98.1c-12.1 0-25.7-8.9-30.2-19.9l-11.1-26.9-.6-1.2-.2-1.2-.9-4.8-2.4-3.7c-1.5-2.4-2.5-4.7-2.9-7.1l-.7-3.7-2.4-3.7c-1.5-2.4-2.5-4.7-2.9-7.1l-.7-3.7-3.1-4.8-.8-1.2-.1-.6-.3-.6L9.5 25C5.6 15.5 11 7.7 21.5 7.7z"/><path class="st0" d="M499 72c1.6-3.9 1.3-8.1-.7-11.7l-.3-4.9c-.2-3.5-.8-6.9-1.8-10.1-4.5-14.8-17-26.8-36.1-34.6C442.9 3.7 420 0 394 0c-33.6 0-71.3 6-108.9 17.4-12.7 3.8-25.2 8.2-37.2 13.1l-10.3 4.1h-48.3c-2.5 0-5 .7-7.1 2s-3.8 3.1-4.9 5.3c-.1.2-.3.5-.5 1l-15.4 37.3-7.1 6.8c-25.6 24.3-36.2 49.3-29.8 70.5 4.5 14.8 17 26.8 36.1 34.6 17.3 7 40.2 10.8 66.2 10.8 33.6 0 71.3-6 108.9-17.4 12.7-3.8 25.3-8.3 37.4-13.2l10.1-4.1 66.8-.1c5.5 0 10.4-3.3 12.5-8.5l5.3-13.2c1.2-2.9 1.3-6 .4-8.9 3-1.8 5.4-4.5 6.8-7.9l22.8-54.9 1.4 1.5-.2-4.2z"/><path class="st2" d="M243.4 53.4h-22.6l-20.3 48.9h22.7zM351.4 196h134.1c5.8 0 9.7 5.8 7.6 11.2l-17.7 44.7c-1.7 4.3-5.8 7.1-10.4 7.1H71.3c-5.8 0-9.8-5.9-7.5-11.3l7.3-17.5c1.9-4.6 6.4-7.6 11.3-7.6h247.2c3.3 0 6.3-2 7.5-5l6.8-16.4c1.2-3.2 4.2-5.2 7.5-5.2z"/><path class="st0" d="M348.2 222.8c-.2.6-.7.9-1.3.9h-2.1c-.6 0-.8-.3-.5-.9l7.1-17.2c.2-.6.7-.9 1.3-.9h2.1c.6 0 .8.3.5.9l-7.1 17.2zM353.2 222.3c-.5-1-.5-2.3.3-4.1l3.2-7.8c.7-1.8 1.8-3.2 3.1-4.1 1.3-1 2.9-1.4 4.7-1.4h21.9c.6 0 .7.3.5.9l-.7 1.7c-.2.6-.6.9-1.2.9h-20.9c-.9 0-1.6.2-2.3.7-.6.5-1.2 1.1-1.5 2l-2.8 6.7c-.4.9-.4 1.5-.1 2s.8.7 1.7.7H380c.6 0 .7.3.5.9l-.7 1.7c-.2.6-.7.9-1.2.9h-21.9c-1.8-.3-2.9-.8-3.5-1.7zM387.7 223.7c-1.8 0-3-.5-3.5-1.4-.5-1-.5-2.3.3-4.1l3.2-7.8c.7-1.8 1.8-3.2 3.1-4.1 1.3-1 2.9-1.4 4.7-1.4h19.1c1.8 0 3 .5 3.5 1.4.5 1 .5 2.3-.3 4.1l-3.2 7.8c-.7 1.8-1.8 3.2-3.1 4.1-1.3 1-2.9 1.4-4.7 1.4h-19.1zm19.4-3.4c.9 0 1.6-.2 2.3-.7.6-.5 1.2-1.1 1.5-2l2.8-6.7c.4-.9.4-1.5.1-2s-.8-.7-1.7-.7h-17c-.9 0-1.6.2-2.3.7-.6.5-1.2 1.1-1.5 2l-2.8 6.7c-.4.9-.4 1.5-.1 2s.8.7 1.7.7h17zM424.1 206.2c1.3-1 2.9-1.4 4.7-1.4h18.3c1.8 0 3 .5 3.5 1.4.6 1 .5 2.3-.3 4.1l-5.1 12.5c-.2.6-.7.9-1.3.9h-2.1c-.6 0-.8-.3-.5-.9l4.9-11.9c.4-.9.4-1.5.1-2s-.8-.7-1.7-.7h-16.2c-.9 0-1.6.2-2.3.7-.6.5-1.2 1.1-1.5 2l-4.9 11.9c-.2.6-.7.9-1.2.9h-2.2c-.6 0-.7-.3-.5-.9l5.1-12.5c.9-1.7 1.9-3.1 3.2-4.1zM457.1 210.2l-.1.4c-.3.7-.3 1.2 0 1.5s.8.5 1.6.5h17.3c.9 0 1.7.1 2.3.2.7.2 1.2.4 1.5.8s.5.9.5 1.5-.2 1.3-.5 2.2l-.7 1.6c-.4.9-.8 1.6-1.3 2.2s-1.1 1.1-1.8 1.5-1.4.6-2.2.8-1.6.2-2.5.2h-22.3c-.6 0-.7-.3-.5-.9l.7-1.7c.2-.6.6-.9 1.2-.9h21.8c.8 0 1.5-.2 2-.5s.9-.8 1.2-1.5l.1-.4c.3-.7.3-1.2 0-1.5s-.8-.5-1.6-.5h-17.3c-.9 0-1.7-.1-2.3-.2-.6-.2-1.1-.4-1.5-.8-.3-.4-.5-.9-.5-1.5s.2-1.3.5-2.2l.7-1.6c.4-.9.8-1.6 1.3-2.2s1.1-1.1 1.8-1.5 1.4-.6 2.1-.8c.8-.2 1.6-.2 2.5-.2h22c.6 0 .8.3.5.9l-.7 1.7c-.2.6-.7.9-1.3.9h-21.5c-1.4 0-2.4.7-3 2zM77.7 250.2c-1.8 0-3-.5-3.5-1.4-.5-1-.5-2.3.3-4.1l3.2-7.8c.7-1.8 1.8-3.2 3.1-4.1 1.3-1 2.9-1.4 4.7-1.4h19.1c1.8 0 3 .5 3.5 1.4.5 1 .5 2.3-.3 4.1l-3.2 7.8c-.7 1.8-1.8 3.2-3.1 4.1-1.3 1-2.9 1.4-4.7 1.4H77.7zm19.4-3.4c.9 0 1.6-.2 2.3-.7.6-.5 1.2-1.1 1.5-2l2.8-6.7c.4-.9.4-1.5.1-2s-.8-.7-1.7-.7h-17c-.9 0-1.6.2-2.3.7-.6.5-1.2 1.1-1.5 2l-2.8 6.7c-.4.9-.4 1.5-.1 2s.8.7 1.7.7h17zM113.1 232.2c.2-.6.7-.9 1.3-.9h22c1.9 0 3.1.5 3.7 1.4s.5 2.3-.3 4.1l-.6 1.6c-.8 1.8-1.8 3.2-3.1 4.1s-2.9 1.4-4.8 1.4h-19l-2.3 5.5c-.2.6-.7.9-1.3.9h-2.1c-.6 0-.8-.3-.5-.9l7-17.2zm22.6 5c.3-.8.4-1.4.1-1.8-.2-.4-.8-.6-1.7-.6H116l-2.3 5.7h18.1c.9 0 1.7-.2 2.2-.6.6-.4 1-1 1.4-1.8l.3-.9zM142.9 244.1c-.4.9-.4 1.5-.1 2s.8.7 1.7.7h21.4c.6 0 .8.3.5.9l-.7 1.7c-.2.6-.7.9-1.3.9H142c-1.8 0-3-.5-3.5-1.4-.5-1-.5-2.3.3-4.1l3.2-7.8c.7-1.8 1.8-3.2 3.1-4.1 1.3-1 2.9-1.4 4.7-1.4h22.4c.6 0 .8.3.5.9l-.7 1.7c-.2.6-.7.9-1.2.9h-21.4c-.9 0-1.6.2-2.3.7-.6.5-1.2 1.1-1.5 2l-.7 1.7h21.4c.6 0 .8.3.5.9l-.6 1.6c-.2.6-.7.9-1.3.9h-21.4l-.6 1.3zM176.7 232.7c1.3-1 2.9-1.4 4.7-1.4h18.3c1.8 0 3 .5 3.5 1.4.6 1 .5 2.3-.3 4.1l-5.2 12.5c-.2.6-.7.9-1.3.9h-2.1c-.6 0-.8-.3-.5-.9l4.9-11.9c.4-.9.4-1.5.1-2s-.8-.7-1.7-.7H181c-.9 0-1.6.2-2.3.7-.6.5-1.2 1.1-1.5 2l-4.9 11.9c-.2.6-.7.9-1.2.9h-2.2c-.6 0-.7-.3-.5-.9l5.2-12.5c.7-1.7 1.7-3.1 3.1-4.1zM220.3 232.2c.2-.6.7-.9 1.3-.9h22.2c2.1 0 3.5.6 4.1 1.7s.5 2.7-.3 4.8l-2.5 6.1c-.9 2.1-2.1 3.7-3.6 4.8s-3.4 1.7-5.5 1.7h-22.2c-.6 0-.8-.3-.5-.9l7-17.3zm23.2 6c.5-1.1.5-2 .2-2.6s-1.1-.9-2.3-.9h-18.2l-5 12.1h18.2c1.2 0 2.2-.3 3-.9s1.5-1.5 2-2.6l2.1-5.1zM251.1 236.9c.7-1.8 1.8-3.2 3.1-4.1 1.3-1 2.9-1.4 4.7-1.4h18.4c1.8 0 3 .5 3.5 1.4.6 1 .5 2.3-.3 4.1l-5.1 12.5c-.2.6-.7.9-1.3.9H272c-.6 0-.8-.3-.5-.9l2-4.9h-21.7l-2 4.9c-.2.6-.7.9-1.2.9h-2.2c-.6 0-.7-.3-.5-.9l5.2-12.5zm25.4.5c.4-.9.4-1.5.1-2s-.8-.7-1.7-.7h-16.4c-.9 0-1.6.2-2.3.7-.6.5-1.2 1.1-1.5 2l-1.5 3.6H275l1.5-3.6zM294.1 249.3c-.2.6-.7.9-1.2.9h-2.1c-.6 0-.8-.3-.5-.9l6-14.6h-11.9c-.6 0-.7-.3-.5-.9l.7-1.7c.2-.6.7-.9 1.2-.9h27.8c.6 0 .8.3.5.9l-.7 1.7c-.2.6-.7.9-1.2.9h-12l-6.1 14.6zM314 236.9c.7-1.8 1.8-3.2 3.1-4.1 1.3-1 2.9-1.4 4.7-1.4h18.4c1.8 0 3 .5 3.5 1.4.6 1 .5 2.3-.3 4.1l-5.1 12.5c-.2.6-.7.9-1.3.9h-2c-.6 0-.8-.3-.5-.9l2-4.9h-21.7l-2 4.9c-.2.6-.7.9-1.2.9h-2.2c-.6 0-.7-.3-.5-.9l5.1-12.5zm25.4.5c.4-.9.4-1.5.1-2s-.8-.7-1.7-.7h-16.4c-.9 0-1.6.2-2.3.7-.6.5-1.2 1.1-1.5 2l-1.5 3.6h21.7l1.6-3.6zM372.7 231.3c.9 0 1.6.1 2.3.2.6.2 1.1.4 1.4.8s.5.9.5 1.5-.2 1.4-.5 2.2l-.1.3c-.5 1.2-1.1 2.1-1.9 2.8-.7.7-1.6 1.2-2.6 1.5.8.3 1.3.8 1.5 1.5s.1 1.7-.4 2.9l-.1.3c-.4.9-.8 1.6-1.3 2.2s-1.1 1.1-1.7 1.5-1.3.6-2.1.8-1.6.2-2.5.2h-22.7c-.6 0-.8-.3-.5-.9l7.1-17.1c.2-.6.7-.9 1.3-.9h22.3zm-22.6 7.8h18.8c.8 0 1.5-.2 2-.5s.9-.8 1.2-1.5l.1-.4c.3-.7.3-1.2.1-1.5s-.8-.5-1.6-.5h-18.8l-1.8 4.4zm-1.4 3.3-1.8 4.4H366c.8 0 1.5-.2 2-.5s.9-.8 1.2-1.5l.1-.4c.3-.7.3-1.2 0-1.5s-.8-.5-1.6-.5h-19zM379 236.9c.7-1.8 1.8-3.2 3.1-4.1 1.3-1 2.9-1.4 4.7-1.4h18.4c1.8 0 3 .5 3.5 1.4.6 1 .5 2.3-.3 4.1l-5.1 12.5c-.2.6-.7.9-1.3.9h-2.1c-.6 0-.8-.3-.5-.9l2-4.9h-21.7l-2 4.9c-.2.6-.7.9-1.2.9h-2.2c-.6 0-.7-.3-.5-.9l5.2-12.5zm25.3.5c.4-.9.4-1.5.1-2s-.8-.7-1.7-.7h-16.4c-.9 0-1.6.2-2.3.7-.6.5-1.2 1.1-1.5 2L381 241h21.7l1.6-3.6zM415.1 236.7l-.1.4c-.3.7-.3 1.2 0 1.5s.8.5 1.6.5h17.3c.9 0 1.7.1 2.3.2.7.2 1.2.4 1.5.8s.5.9.5 1.5-.2 1.3-.5 2.2l-.7 1.6c-.4.9-.8 1.6-1.3 2.2s-1.1 1.1-1.8 1.5-1.4.6-2.2.8-1.6.2-2.5.2h-22.3c-.6 0-.7-.3-.5-.9l.7-1.7c.2-.6.6-.9 1.2-.9h21.8c.8 0 1.5-.2 2-.5s.9-.8 1.2-1.5l.1-.4c.3-.7.3-1.2 0-1.5s-.8-.5-1.6-.5h-17.3c-.9 0-1.7-.1-2.3-.2-.6-.2-1.1-.4-1.5-.8-.3-.4-.5-.9-.5-1.5s.2-1.3.5-2.2l.7-1.6c.4-.9.8-1.6 1.3-2.2s1.1-1.1 1.8-1.5 1.4-.6 2.1-.8c.8-.2 1.6-.2 2.5-.2h22c.6 0 .8.3.5.9l-.7 1.7c-.2.6-.7.9-1.3.9h-21.5c-1.3 0-2.4.7-3 2zM444 244.1c-.4.9-.4 1.5-.1 2s.8.7 1.7.7H467c.6 0 .8.3.5.9l-.7 1.7c-.2.6-.7.9-1.3.9h-22.4c-1.8 0-3-.5-3.5-1.4-.5-1-.5-2.3.3-4.1l3.2-7.8c.7-1.8 1.8-3.2 3.1-4.1 1.3-1 2.9-1.4 4.7-1.4h22.4c.6 0 .8.3.5.9l-.7 1.7c-.2.6-.7.9-1.2.9h-21.4c-.9 0-1.6.2-2.3.7-.6.5-1.2 1.1-1.5 2l-.7 1.7h21.4c.6 0 .8.3.5.9l-.6 1.6c-.2.6-.7.9-1.3.9h-21.4l-.6 1.3z"/><path class="st2" d="M491.3 63.6c-.3-.4-.6-.8-1-1.1-.1-.1-.2-.3-.4-.4-.1-.1-.2-.3-.4-.4-.1-.1-.2-.3-.4-.4-.1-.1-.2-.3-.4-.4-.1-.1-.2-.3-.4-.4-.1-.1-.2-.3-.4-.4-.1-.1-.2-.3-.4-.4-.1-.1-.2-.3-.4-.4-.1-.1-.2-.3-.4-.4-.1-.1-.2-.3-.4-.4-.1-.1-.2-.3-.4-.4-.1-.1-.2-.3-.4-.4-.1-.1-.2-.3-.4-.4-.1-.1-.2-.3-.4-.4-.1-.1-.2-.3-.4-.4-.1-.1-.2-.3-.4-.4-.1-.1-.2-.3-.4-.4-.1-.1-.2-.3-.4-.4-.1-.1-.2-.3-.4-.4-.1-.1-.2-.3-.4-.4-.1-.1-.2-.3-.4-.4-.1-.1-.2-.3-.4-.4-.1-.1-.2-.3-.4-.4-.1-.1-.2-.3-.4-.4-.1-.1-.2-.3-.4-.4-.1-.1-.2-.3-.4-.4-.1-.1-.2-.3-.4-.4-.1-.1-.2-.3-.4-.4-.1-.1-.2-.3-.4-.4-.1-.1-.2-.3-.4-.4-.1-.1-.2-.3-.4-.4-.1-.1-.2-.3-.4-.4-.1-.1-.2-.3-.4-.4-.1-.1-.2-.3-.4-.4-.1-.1-.2-.3-.4-.4-.1-.1-.2-.3-.4-.4-.1-.1-.2-.3-.4-.4-.1-.1-.2-.3-.4-.4-.1-.1-.2-.3-.4-.4-.1-.1-.2-.3-.4-.4-.1-.1-.2-.3-.4-.4-.1-.1-.2-.3-.4-.4-.1-.1-.2-.3-.4-.4-.1-.1-.2-.3-.4-.4-.1-.1-.2-.3-.4-.4-.1-.1-.2-.3-.4-.4-.1-.1-.2-.3-.4-.4-.1-.1-.2-.3-.4-.4-.1-.1-.2-.3-.4-.4l-.4-.4c-.1-.1-.2-.2-.3-.2-.4-.4-.9-.8-1.5-1-.1 0-.1-.1-.2-.1s-.2-.1-.3-.1-.2-.1-.3-.1-.2-.1-.3-.1-.3-.1-.4-.1H189.4c-1.1 0-2.1.3-3 .9-.9.5-1.6 1.3-2.1 2.3-.1.1-.1.2-.2.4l-36.3 88c0 .1-.1.2-.1.3-.1.4-.2.8-.3 1.3-.1 1.3.2 2.6.9 3.7.1.2.3.4.4.6.2.2.3.4.5.5.1.1.2.3.4.4.1.1.2.3.4.4.1.1.2.3.4.4.1.1.2.3.4.4.1.1.2.3.4.4.1.1.2.3.4.4.1.1.2.3.4.4.1.1.2.3.4.4.1.1.2.3.4.4.1.1.2.3.4.4.1.1.2.3.4.4.1.1.2.3.4.4.1.1.2.3.4.4.1.1.2.3.4.4.1.1.2.3.4.4.1.1.2.3.4.4.1.1.2.3.4.4.1.1.2.3.4.4.1.1.2.3.4.4.1.1.2.3.4.4.1.1.2.3.4.4.1.1.2.3.4.4.1.1.2.3.4.4.1.1.2.3.4.4.1.1.2.3.4.4.1.1.2.3.4.4.1.1.2.3.4.4.1.1.2.3.4.4.1.1.2.3.4.4.1.1.2.3.4.4.1.1.2.3.4.4.1.1.2.3.4.4.1.1.2.3.4.4.1.1.2.3.4.4.1.1.2.3.4.4.1.1.2.3.4.4.1.1.2.3.4.4.1.1.2.3.4.4.1.1.2.3.4.4.1.1.2.3.4.4.1.1.2.3.4.4.1.1.2.3.4.4.1.1.2.3.4.4.1.1.2.3.4.4.1.1.2.3.4.4.1.1.2.3.4.4.1.1.2.3.4.4.1.1.2.3.4.4.1.1.2.3.4.4.1.1.2.3.4.4 1.1 1.1 2.6 1.8 4.2 1.8h35.1l1.2-2.9 10.4-25.4h25.6l-.3.7-.4.9c-.1.2-.2.4-.2.7-.4 1.4-.2 2.8.4 4.1.1.2.2.4.4.6.1.2.3.4.4.6.2.2.3.4.5.5.1.1.2.3.4.4.1.1.2.3.4.4.1.1.2.3.4.4.1.1.2.3.4.4.1.1.2.3.4.4.1.1.2.3.4.4.1.1.2.3.4.4.1.1.2.3.4.4.1.1.2.3.4.4.1.1.2.3.4.4.1.1.2.3.4.4.1.1.2.3.4.4.1.1.2.3.4.4.1.1.2.3.4.4.1.1.2.3.4.4.1.1.2.3.4.4.1.1.2.3.4.4.1.1.2.3.4.4.1.1.2.3.4.4.1.1.2.3.4.4.1.1.2.3.4.4.1.1.2.3.4.4.1.1.2.3.4.4.1.1.2.3.4.4.1.1.2.3.4.4.1.1.2.3.4.4.1.1.2.3.4.4.1.1.2.3.4.4.1.1.2.3.4.4.1.1.2.3.4.4.1.1.2.3.4.4.1.1.2.3.4.4.1.1.2.3.4.4.1.1.2.3.4.4.1.1.2.3.4.4.1.1.2.3.4.4.1.1.2.3.4.4.1.1.2.3.4.4.1.1.2.3.4.4.1.1.2.3.4.4.1.1.2.3.4.4.1.1.2.3.4.4.1.1.2.3.4.4.1.1.2.3.4.4.1.1.2.3.4.4.1.1.2.3.4.4.1.1.2.3.4.4.1.1.2.3.4.4.1.1.2.3.4.4.1.1.2.3.4.4 1.1 1.1 2.6 1.8 4.2 1.8h87.6l95-.1c2.3 0 4.4-1.4 5.3-3.6l5.3-13.2c.7-1.8.5-3.7-.6-5.3-.3-.4-.6-.8-.9-1.1-.1-.1-.2-.3-.4-.4-.1-.1-.2-.3-.4-.4-.1-.1-.2-.3-.4-.4-.1-.1-.2-.3-.4-.4-.1-.1-.2-.3-.4-.4-.1-.1-.2-.3-.4-.4-.1-.1-.2-.3-.4-.4-.1-.1-.2-.3-.4-.4-.1-.1-.2-.3-.4-.4-.1-.1-.2-.3-.4-.4-.1-.1-.2-.3-.4-.4-.1-.1-.2-.3-.4-.4-.1-.1-.2-.3-.4-.4l-.3-.3h5.6c3.6 0 6.8-2.1 8.2-5.5l24-57.7c-2.1-3-2.3-5-3.4-6.6zm-294.8 45.1L185 137h-31.9c-.7 0-1.2-.7-.9-1.4l36.3-88c.2-.4.5-.6.9-.6h87.3c.7 0 1.2.7.9 1.4l-24.7 59.7c-.2.4-.5.6-.9.6h-55.5zM336 137h-87.3c-.7 0-1.2-.7-.9-1.4l9.3-22.5c.2-.4.5-.6.9-.6h31.4c.7 0 1.2.7.9 1.4l-6.9 16.8h22.5l14.5-35.5h-54.3c-.7 0-1.2-.7-.9-1.4l19.1-46.2c.2-.4.5-.6.9-.6h87.2c.7 0 1.2.7.9 1.4L364 70.7c-.2.4-.5.6-.9.6h-31.4c-.7 0-1.2-.7-.9-1.4l6.9-16.5h-22.6l-14.5 35.5H355c.7 0 1.2.7.9 1.4l-19 46.1c-.1.4-.5.6-.9.6zm132.7-88.6-24 57.7c-.6 1.5-2.2 2.6-3.8 2.6h-53.3l-9 22h22.5l3.3-8.4c.2-.4.5-.6.9-.6h31.3c.7 0 1.2.7.9 1.4l-5.3 13.2c-.2.4-.5.6-.9.6H344c-.7 0-1.2-.7-.9-1.4l13.4-32.6c.2-.4.5-.6.9-.6h55.4l20.2-49h-22.5l-12.9 31.6c-.2.4-.5.6-.9.6h-31.3c-.7 0-1.2-.7-.9-1.4l14.9-36.5c.2-.4.5-.6.9-.6h87.4c.8 0 1.3.7 1 1.4z"/><path class="st1" d="M355 165.2H267.4c-2.8 0-5.5-1.1-7.4-3.2l-1.2-1.2c-.1-.1-.3-.2-.4-.4l-.8-.8c-.1-.1-.3-.2-.4-.4l-2.4-2.4c-.1-.1-.3-.2-.4-.4l-1.6-1.6c-.1-.1-.3-.2-.4-.4l-1.6-1.6c-.1-.1-.3-.2-.4-.4l-.8-.8c-.1-.1-.3-.2-.4-.4l-2.4-2.4c-.1-.1-.3-.2-.4-.4l-2-2c-.1-.1-.3-.2-.4-.4l-3.2-3.2c-.1-.1-.3-.2-.4-.4-.1-.1-.3-.2-.4-.4-.2-.2-.5-.4-.7-.7l-.1-.1c-.3-.3-.6-.7-.8-1.1l-.1-.1v-.1c-.1-.1-.1-.2-.2-.3-.8-1.4-1.3-2.9-1.4-4.4H220l-9.2 22.4-2.4 5.8h-38.3c-2.8 0-5.5-1.1-7.4-3.2l-4.8-4.8c-.1-.1-.3-.2-.4-.4l-.8-.8c-.1-.1-.3-.2-.4-.4l-.8-.8c-.1-.1-.3-.2-.4-.4l-1.6-1.6c-.1-.1-.3-.2-.4-.4l-3.2-3.2c-.1-.1-.3-.2-.4-.4l-.4-.4c-.1-.1-.3-.2-.4-.4l-3.2-3.2c-.1-.1-.3-.2-.4-.4l-2.4-2.4c-.6-.6-1.1-1.2-1.6-1.8-1.8-2.6-2.2-5.9-1.3-8.9v-.1c.1-.2.1-.4.3-.8l16.3-39.4c-22.6 21.4-33.5 43.7-27.7 62.7 12.8 42.3 103 52.5 201.6 22.8 12.8-3.9 25.1-8.2 36.7-12.9 3.2 3.3-7.9 3.4-12 3.4zM488.9 47.6C476.1 5.2 385.8-5 287.3 24.8c-12.7 3.8-24.9 8.1-36.5 12.8h217c.4 0 .8 0 1.2.1.1 0 .3 0 .4.1.2 0 .5.1.7.1s.4.1.6.1c.2.1.4.1.5.2.2.1.4.1.6.2.1 0 .2.1.4.2 1.2.5 2.2 1.3 3.1 2.2l1.6 1.6c.1.1.3.2.4.4l1.2 1.2c.1.1.3.2.4.4l.4.4c.1.1.3.2.4.4l2.8 2.8c.1.1.3.2.4.4l1.2 1.2c.1.1.3.2.4.4l.4.4c.1.1.3.2.4.4l2 2c.1.1.3.2.4.4l2.8 2.8c.1.1.3.2.4.4l.7.7c-1.5-4.1-1.9-6.8-2.7-9.5z"/></svg>