# OBJ file
mtllib iconlist.ico.mtl
v 0.841797 4.414063 0.382080 0.392157 0.392157 0.392157 #0.498039
v -0.550293 4.465088 0.404053 0.392157 0.392157 0.392157 #0.498039
v -0.559570 4.034668 0.404053 0.392157 0.392157 0.392157 #0.498039
v -0.550293 4.465088 -0.387695 0.392157 0.392157 0.392157 #0.498039
v 0.841797 4.414063 -0.373291 0.392157 0.392157 0.392157 #0.498039
v 0.952637 4.034668 -0.387695 0.392157 0.392157 0.392157 #0.498039
v 1.175293 2.199463 0.360107 0.392157 0.392157 0.392157 #0.498039
v 1.232666 1.327393 0.000244 0.392157 0.392157 0.392157 #0.498039
v 1.232666 3.266357 0.000244 0.392157 0.392157 0.392157 #0.498039
v 1.175293 2.199463 -0.359131 0.392157 0.392157 0.392157 #0.498039
v 1.232666 3.266357 0.000244 0.392157 0.392157 0.392157 #0.498039
v 1.232666 1.327393 0.000244 0.392157 0.392157 0.392157 #0.498039
v -0.550293 4.465088 0.404053 0.392157 0.392157 0.392157 #0.498039
v 0.841797 4.414063 0.382080 0.392157 0.392157 0.392157 #0.498039
v 0.554443 4.972656 0.404053 0.392157 0.392157 0.392157 #0.498039
v 0.554443 4.972656 -0.387695 0.392157 0.392157 0.392157 #0.498039
v 0.554443 4.972656 0.404053 0.392157 0.392157 0.392157 #0.498039
v 0.841797 4.414063 -0.373291 0.392157 0.392157 0.392157 #0.498039
v 1.008789 0.600586 -0.359131 0.392157 0.392157 0.392157 #0.498039
v 1.164795 1.327393 -0.359131 0.392157 0.392157 0.392157 #0.498039
v 1.232666 1.327393 0.000244 0.392157 0.392157 0.392157 #0.498039
v 1.153809 3.266357 0.360107 0.392157 0.392157 0.392157 #0.498039
v 0.866699 4.412109 0.000244 0.392157 0.392157 0.392157 #0.498039
v 0.841797 4.414063 0.382080 0.392157 0.392157 0.392157 #0.498039
v 1.153809 3.266357 -0.359131 0.392157 0.392157 0.392157 #0.498039
v 0.841797 4.414063 -0.373291 0.392157 0.392157 0.392157 #0.498039
v 0.866699 4.412109 0.000244 0.392157 0.392157 0.392157 #0.498039
v -0.691406 4.631348 -0.387695 0.392157 0.392157 0.392157 #0.498039
v 0.554443 4.972656 -0.387695 0.392157 0.392157 0.392157 #0.498039
v -0.550293 4.465088 -0.387695 0.392157 0.392157 0.392157 #0.498039
v 0.841797 4.414063 -0.373291 0.392157 0.392157 0.392157 #0.498039
v -0.550293 4.465088 -0.387695 0.392157 0.392157 0.392157 #0.498039
v 0.554443 4.972656 -0.387695 0.392157 0.392157 0.392157 #0.498039
v -0.559570 4.034668 0.404053 0.392157 0.392157 0.392157 #0.498039
v 0.952637 4.034668 0.404053 0.392157 0.392157 0.392157 #0.498039
v 0.841797 4.414063 0.382080 0.392157 0.392157 0.392157 #0.498039
v 0.952637 4.034668 -0.387695 0.392157 0.392157 0.392157 #0.498039
v -0.559570 4.034668 -0.387695 0.392157 0.392157 0.392157 #0.498039
v -0.550293 4.465088 -0.387695 0.392157 0.392157 0.392157 #0.498039
v -0.658203 5.000000 -0.387695 0.392157 0.392157 0.392157 #0.498039
v -0.691406 4.631348 -0.387695 0.392157 0.392157 0.392157 #0.498039
v -0.658203 5.000000 0.404053 0.392157 0.392157 0.392157 #0.498039
v 0.554443 4.972656 0.404053 0.392157 0.392157 0.392157 #0.498039
v -0.691406 4.631348 0.404053 0.392157 0.392157 0.392157 #0.498039
v -0.550293 4.465088 0.404053 0.392157 0.392157 0.392157 #0.498039
v 1.175293 2.199463 0.360107 0.392157 0.392157 0.392157 #0.498039
v 1.232666 3.266357 0.000244 0.392157 0.392157 0.392157 #0.498039
v 1.153809 3.266357 0.360107 0.392157 0.392157 0.392157 #0.498039
v 1.175293 2.199463 -0.359131 0.392157 0.392157 0.392157 #0.498039
v 1.153809 3.266357 -0.359131 0.392157 0.392157 0.392157 #0.498039
v 1.232666 3.266357 0.000244 0.392157 0.392157 0.392157 #0.498039
v 1.008789 0.600586 0.360107 0.392157 0.392157 0.392157 #0.498039
v 1.064697 0.600586 0.000244 0.392157 0.392157 0.392157 #0.498039
v 1.232666 1.327393 0.000244 0.392157 0.392157 0.392157 #0.498039
v 1.008789 0.600586 0.360107 0.392157 0.392157 0.392157 #0.498039
v 1.232666 1.327393 0.000244 0.392157 0.392157 0.392157 #0.498039
v 1.164795 1.327393 0.360107 0.392157 0.392157 0.392157 #0.498039
v 1.008789 0.600586 -0.359131 0.392157 0.392157 0.392157 #0.498039
v 1.064697 0.600586 0.000244 0.392157 0.392157 0.392157 #0.498039
v 1.008789 0.600586 0.360107 0.392157 0.392157 0.392157 #0.498039
v 1.008789 0.600586 -0.359131 0.392157 0.392157 0.392157 #0.498039
v 1.232666 1.327393 0.000244 0.392157 0.392157 0.392157 #0.498039
v 1.064697 0.600586 0.000244 0.392157 0.392157 0.392157 #0.498039
v 0.841797 4.414063 -0.373291 0.392157 0.392157 0.392157 #0.498039
v 0.841797 4.414063 0.382080 0.392157 0.392157 0.392157 #0.498039
v 0.952637 4.034668 0.404053 0.392157 0.392157 0.392157 #0.498039
v 0.841797 4.414063 0.382080 0.392157 0.392157 0.392157 #0.498039
v 0.841797 4.414063 -0.373291 0.392157 0.392157 0.392157 #0.498039
v 0.554443 4.972656 0.404053 0.392157 0.392157 0.392157 #0.498039
v 1.153809 3.266357 0.360107 0.392157 0.392157 0.392157 #0.498039
v 1.232666 3.266357 0.000244 0.392157 0.392157 0.392157 #0.498039
v 0.866699 4.412109 0.000244 0.392157 0.392157 0.392157 #0.498039
v 1.153809 3.266357 -0.359131 0.392157 0.392157 0.392157 #0.498039
v 0.866699 4.412109 0.000244 0.392157 0.392157 0.392157 #0.498039
v 1.232666 3.266357 0.000244 0.392157 0.392157 0.392157 #0.498039
v -0.550293 4.465088 -0.387695 0.392157 0.392157 0.392157 #0.498039
v -0.550293 4.465088 0.404053 0.392157 0.392157 0.392157 #0.498039
v -0.691406 4.631348 -0.387695 0.392157 0.392157 0.392157 #0.498039
v -0.550293 4.465088 0.404053 0.392157 0.392157 0.392157 #0.498039
v -0.550293 4.465088 -0.387695 0.392157 0.392157 0.392157 #0.498039
v -0.559570 4.034668 -0.387695 0.392157 0.392157 0.392157 #0.498039
v -0.691406 4.631348 -0.387695 0.392157 0.392157 0.392157 #0.498039
v -0.658203 5.000000 -0.387695 0.392157 0.392157 0.392157 #0.498039
v 0.554443 4.972656 -0.387695 0.392157 0.392157 0.392157 #0.498039
v 0.554443 4.972656 -0.387695 0.392157 0.392157 0.392157 #0.498039
v -0.658203 5.000000 -0.387695 0.392157 0.392157 0.392157 #0.498039
v -0.658203 5.000000 0.404053 0.392157 0.392157 0.392157 #0.498039
v -0.559570 4.034668 -0.387695 0.392157 0.392157 0.392157 #0.498039
v -0.559570 4.034668 0.404053 0.392157 0.392157 0.392157 #0.498039
v -0.550293 4.465088 0.404053 0.392157 0.392157 0.392157 #0.498039
v -0.559570 4.034668 0.404053 0.392157 0.392157 0.392157 #0.498039
v -0.559570 4.034668 -0.387695 0.392157 0.392157 0.392157 #0.498039
v 0.952637 4.034668 -0.387695 0.392157 0.392157 0.392157 #0.498039
v -0.658203 5.000000 0.404053 0.392157 0.392157 0.392157 #0.498039
v -0.691406 4.631348 0.404053 0.392157 0.392157 0.392157 #0.498039
v 0.554443 4.972656 0.404053 0.392157 0.392157 0.392157 #0.498039
v -0.658203 5.000000 0.404053 0.392157 0.392157 0.392157 #0.498039
v 0.554443 4.972656 0.404053 0.392157 0.392157 0.392157 #0.498039
v 0.554443 4.972656 -0.387695 0.392157 0.392157 0.392157 #0.498039
v -0.691406 4.631348 0.404053 0.392157 0.392157 0.392157 #0.498039
v -0.691406 4.631348 -0.387695 0.392157 0.392157 0.392157 #0.498039
v -0.550293 4.465088 0.404053 0.392157 0.392157 0.392157 #0.498039
v -0.691406 4.631348 0.404053 0.392157 0.392157 0.392157 #0.498039
v -0.658203 5.000000 0.404053 0.392157 0.392157 0.392157 #0.498039
v -0.691406 4.631348 -0.387695 0.392157 0.392157 0.392157 #0.498039
v 0.952637 4.034668 0.404053 0.392157 0.392157 0.392157 #0.498039
v 0.952637 4.034668 -0.387695 0.392157 0.392157 0.392157 #0.498039
v 0.841797 4.414063 -0.373291 0.392157 0.392157 0.392157 #0.498039
v 0.952637 4.034668 -0.387695 0.392157 0.392157 0.392157 #0.498039
v 0.952637 4.034668 0.404053 0.392157 0.392157 0.392157 #0.498039
v -0.559570 4.034668 0.404053 0.392157 0.392157 0.392157 #0.498039
v -1.193115 1.572998 0.327881 0.392157 0.392157 0.392157 #0.498039
v -0.980225 2.360107 0.693115 0.392157 0.392157 0.392157 #0.498039
v -1.204346 2.360107 -0.094482 0.392157 0.392157 0.392157 #0.498039
v 0.707275 1.572998 -0.848877 0.392157 0.392157 0.392157 #0.498039
v 0.939209 2.360107 -0.495361 0.392157 0.392157 0.392157 #0.498039
v 0.964600 1.572998 -0.508057 0.392157 0.392157 0.392157 #0.498039
v 0.851807 1.572998 0.710205 0.392157 0.392157 0.392157 #0.498039
v 0.521240 2.360107 0.973633 0.392157 0.392157 0.392157 #0.498039
v 0.536133 1.572998 0.997803 0.392157 0.392157 0.392157 #0.498039
v -0.949463 0.902100 -0.425293 0.392157 0.392157 0.392157 #0.498039
v -0.858398 1.572998 -0.848877 0.392157 0.392157 0.392157 #0.498039
v -0.733154 0.902100 -0.711670 0.392157 0.392157 0.392157 #0.498039
v -0.917480 3.113281 -0.409180 0.392157 0.392157 0.392157 #0.498039
v -0.550781 4.026611 -0.033936 0.392157 0.392157 0.392157 #0.498039
v -0.247803 4.026611 -0.435059 0.392157 0.392157 0.392157 #0.498039
v 0.851807 1.572998 0.710205 0.392157 0.392157 0.392157 #0.498039
v 0.829102 2.360107 0.693115 0.392157 0.392157 0.392157 #0.498039
v 0.521240 2.360107 0.973633 0.392157 0.392157 0.392157 #0.498039
v -1.090332 2.360107 -0.495361 0.392157 0.392157 0.392157 #0.498039
v -0.415283 3.113281 -0.867188 0.392157 0.392157 0.392157 #0.498039
v -0.485107 2.360107 -1.047119 0.392157 0.392157 0.392157 #0.498039
v -0.733154 0.902100 -0.711670 0.392157 0.392157 0.392157 #0.498039
v -0.858398 1.572998 -0.848877 0.392157 0.392157 0.392157 #0.498039
v -0.495361 1.572998 -1.073730 0.392157 0.392157 0.392157 #0.498039
v 0.333984 2.360107 -1.047119 0.392157 0.392157 0.392157 #0.498039
v -0.075439 3.113281 -0.930664 0.392157 0.392157 0.392157 #0.498039
v 0.766357 3.113281 -0.409180 0.392157 0.392157 0.392157 #0.498039
v -0.550781 4.026611 -0.033936 0.392157 0.392157 0.392157 #0.498039
v 0.096680 4.026611 -0.435059 0.392157 0.392157 0.392157 #0.498039
v -0.247803 4.026611 -0.435059 0.392157 0.392157 0.392157 #0.498039
v 0.964600 1.572998 -0.508057 0.392157 0.392157 0.392157 #0.498039
v 1.053223 2.360107 -0.094482 0.392157 0.392157 0.392157 #0.498039
v 1.081543 1.572998 -0.097168 0.392157 0.392157 0.392157 #0.498039
v 0.515625 0.110840 -0.044678 0.392157 0.392157 0.392157 #0.498039
v 0.863525 0.902100 0.277100 0.392157 0.392157 0.392157 #0.498039
v 0.398193 0.110840 0.367676 0.392157 0.392157 0.392157 #0.498039
v -0.687256 1.572998 0.997803 0.392157 0.392157 0.392157 #0.498039
v -0.980225 2.360107 0.693115 0.392157 0.392157 0.392157 #0.498039
v -1.002930 1.572998 0.710205 0.392157 0.392157 0.392157 #0.498039
v -0.075439 0.000000 0.009766 0.392157 0.392157 0.392157 #0.498039
v -0.606934 0.110840 -0.254639 0.392157 0.392157 0.392157 #0.498039
v -0.290039 0.110840 -0.543701 0.392157 0.392157 0.392157 #0.498039
v -0.687256 1.572998 0.997803 0.392157 0.392157 0.392157 #0.498039
v -0.672363 2.360107 0.973633 0.392157 0.392157 0.392157 #0.498039
v -0.980225 2.360107 0.693115 0.392157 0.392157 0.392157 #0.498039
v -0.248291 3.113281 0.934326 0.392157 0.392157 0.392157 #0.498039
v 0.011963 4.026611 0.479004 0.392157 0.392157 0.392157 #0.498039
v -0.456299 4.026611 0.297363 0.392157 0.392157 0.392157 #0.498039
v 0.675049 3.113281 0.576660 0.392157 0.392157 0.392157 #0.498039
v 0.305176 4.026611 0.297363 0.392157 0.392157 0.392157 #0.498039
v 0.419434 3.113281 0.809570 0.392157 0.392157 0.392157 #0.498039
v -0.075439 3.113281 -0.930664 0.392157 0.392157 0.392157 #0.498039
v 0.096680 4.026611 -0.435059 0.392157 0.392157 0.392157 #0.498039
v 0.766357 3.113281 -0.409180 0.392157 0.392157 0.392157 #0.498039
v -0.075439 0.902100 -0.966309 0.392157 0.392157 0.392157 #0.498039
v 0.343994 1.572998 -1.073730 0.392157 0.392157 0.392157 #0.498039
v 0.277100 0.902100 -0.900391 0.392157 0.392157 0.392157 #0.498039
v -0.075439 0.000000 0.009766 0.392157 0.392157 0.392157 #0.498039
v -0.290039 0.110840 -0.543701 0.392157 0.392157 0.392157 #0.498039
v 0.324219 0.110840 -0.428711 0.392157 0.392157 0.392157 #0.498039
v -0.254883 0.902100 0.969482 0.392157 0.392157 0.392157 #0.498039
v -0.687256 1.572998 0.997803 0.392157 0.392157 0.392157 #0.498039
v -0.589600 0.902100 0.839844 0.392157 0.392157 0.392157 #0.498039
v 0.438232 0.902100 0.839844 0.392157 0.392157 0.392157 #0.498039
v 0.137939 1.572998 1.152100 0.392157 0.392157 0.392157 #0.498039
v 0.103760 0.902100 0.969482 0.392157 0.392157 0.392157 #0.498039
v 1.081543 1.572998 -0.097168 0.392157 0.392157 0.392157 #0.498039
v 1.053223 2.360107 -0.094482 0.392157 0.392157 0.392157 #0.498039
v 1.014893 2.360107 0.320068 0.392157 0.392157 0.392157 #0.498039
v 1.053223 2.360107 -0.094482 0.392157 0.392157 0.392157 #0.498039
v 0.861084 3.113281 -0.076660 0.392157 0.392157 0.392157 #0.498039
v 1.014893 2.360107 0.320068 0.392157 0.392157 0.392157 #0.498039
v -1.014648 0.902100 0.277100 0.392157 0.392157 0.392157 #0.498039
v -1.193115 1.572998 0.327881 0.392157 0.392157 0.392157 #0.498039
v -1.232666 1.572998 -0.097168 0.392157 0.392157 0.392157 #0.498039
v -0.184570 0.110840 0.593506 0.392157 0.392157 0.392157 #0.498039
v -0.854736 0.902100 0.598145 0.392157 0.392157 0.392157 #0.498039
v -0.646484 0.110840 0.172363 0.392157 0.392157 0.392157 #0.498039
v -1.193115 1.572998 0.327881 0.392157 0.392157 0.392157 #0.498039
v -1.204346 2.360107 -0.094482 0.392157 0.392157 0.392157 #0.498039
v -1.232666 1.572998 -0.097168 0.392157 0.392157 0.392157 #0.498039
v -0.858398 1.572998 -0.848877 0.392157 0.392157 0.392157 #0.498039
v -1.090332 2.360107 -0.495361 0.392157 0.392157 0.392157 #0.498039
v -0.485107 2.360107 -1.047119 0.392157 0.392157 0.392157 #0.498039
v -0.826172 3.113281 0.576660 0.392157 0.392157 0.392157 #0.498039
v -0.550781 4.026611 -0.033936 0.392157 0.392157 0.392157 #0.498039
v -1.012207 3.113281 -0.076660 0.392157 0.392157 0.392157 #0.498039
v -0.248291 3.113281 0.934326 0.392157 0.392157 0.392157 #0.498039
v -0.456299 4.026611 0.297363 0.392157 0.392157 0.392157 #0.498039
v -0.826172 3.113281 0.576660 0.392157 0.392157 0.392157 #0.498039
v 0.861084 3.113281 -0.076660 0.392157 0.392157 0.392157 #0.498039
v 0.305176 4.026611 0.297363 0.392157 0.392157 0.392157 #0.498039
v 0.675049 3.113281 0.576660 0.392157 0.392157 0.392157 #0.498039
v -0.550781 4.026611 -0.033936 0.392157 0.392157 0.392157 #0.498039
v 0.305176 4.026611 0.297363 0.392157 0.392157 0.392157 #0.498039
v 0.351563 4.026611 -0.202637 0.392157 0.392157 0.392157 #0.498039
v -0.485107 2.360107 -1.047119 0.392157 0.392157 0.392157 #0.498039
v -0.075439 3.113281 -0.930664 0.392157 0.392157 0.392157 #0.498039
v 0.333984 2.360107 -1.047119 0.392157 0.392157 0.392157 #0.498039
v -0.075439 0.902100 -0.966309 0.392157 0.392157 0.392157 #0.498039
v -0.075439 1.572998 -1.152100 0.392157 0.392157 0.392157 #0.498039
v 0.343994 1.572998 -1.073730 0.392157 0.392157 0.392157 #0.498039
v 1.041992 1.572998 0.327881 0.392157 0.392157 0.392157 #0.498039
v 0.829102 2.360107 0.693115 0.392157 0.392157 0.392157 #0.498039
v 0.851807 1.572998 0.710205 0.392157 0.392157 0.392157 #0.498039
v 0.398193 0.110840 0.367676 0.392157 0.392157 0.392157 #0.498039
v 0.863525 0.902100 0.277100 0.392157 0.392157 0.392157 #0.498039
v 0.703369 0.902100 0.598145 0.392157 0.392157 0.392157 #0.498039
v 0.582031 0.902100 -0.711670 0.392157 0.392157 0.392157 #0.498039
v 0.707275 1.572998 -0.848877 0.392157 0.392157 0.392157 #0.498039
v 0.964600 1.572998 -0.508057 0.392157 0.392157 0.392157 #0.498039
v 0.515625 0.110840 -0.044678 0.392157 0.392157 0.392157 #0.498039
v 0.798340 0.902100 -0.425293 0.392157 0.392157 0.392157 #0.498039
v 0.896484 0.902100 -0.080078 0.392157 0.392157 0.392157 #0.498039
v 0.137939 1.572998 1.152100 0.392157 0.392157 0.392157 #0.498039
v 0.132568 2.360107 1.124268 0.392157 0.392157 0.392157 #0.498039
v -0.283691 2.360107 1.124268 0.392157 0.392157 0.392157 #0.498039
v 0.419434 3.113281 0.809570 0.392157 0.392157 0.392157 #0.498039
v 0.011963 4.026611 0.479004 0.392157 0.392157 0.392157 #0.498039
v -0.248291 3.113281 0.934326 0.392157 0.392157 0.392157 #0.498039
v -0.075439 0.000000 0.009766 0.392157 0.392157 0.392157 #0.498039
v -0.184570 0.110840 0.593506 0.392157 0.392157 0.392157 #0.498039
v -0.646484 0.110840 0.172363 0.392157 0.392157 0.392157 #0.498039
v 0.398193 0.110840 0.367676 0.392157 0.392157 0.392157 #0.498039
v 0.438232 0.902100 0.839844 0.392157 0.392157 0.392157 #0.498039
v 0.103760 0.902100 0.969482 0.392157 0.392157 0.392157 #0.498039
v -1.047607 0.902100 -0.080078 0.392157 0.392157 0.392157 #0.498039
v -1.115723 1.572998 -0.508057 0.392157 0.392157 0.392157 #0.498039
v -0.949463 0.902100 -0.425293 0.392157 0.392157 0.392157 #0.498039
v -0.075439 0.000000 0.009766 0.392157 0.392157 0.392157 #0.498039
v -0.646484 0.110840 0.172363 0.392157 0.392157 0.392157 #0.498039
v -0.606934 0.110840 -0.254639 0.392157 0.392157 0.392157 #0.498039
v 0.137939 1.572998 1.152100 0.392157 0.392157 0.392157 #0.498039
v -0.283691 2.360107 1.124268 0.392157 0.392157 0.392157 #0.498039
v -0.289063 1.572998 1.152100 0.392157 0.392157 0.392157 #0.498039
v 0.103760 0.902100 0.969482 0.392157 0.392157 0.392157 #0.498039
v 0.137939 1.572998 1.152100 0.392157 0.392157 0.392157 #0.498039
v -0.289063 1.572998 1.152100 0.392157 0.392157 0.392157 #0.498039
v -0.917480 3.113281 -0.409180 0.392157 0.392157 0.392157 #0.498039
v -0.247803 4.026611 -0.435059 0.392157 0.392157 0.392157 #0.498039
v -0.415283 3.113281 -0.867188 0.392157 0.392157 0.392157 #0.498039
v -0.075439 3.113281 -0.930664 0.392157 0.392157 0.392157 #0.498039
v -0.247803 4.026611 -0.435059 0.392157 0.392157 0.392157 #0.498039
v 0.096680 4.026611 -0.435059 0.392157 0.392157 0.392157 #0.498039
v 0.861084 3.113281 -0.076660 0.392157 0.392157 0.392157 #0.498039
v 0.351563 4.026611 -0.202637 0.392157 0.392157 0.392157 #0.498039
v 0.305176 4.026611 0.297363 0.392157 0.392157 0.392157 #0.498039
v 0.766357 3.113281 -0.409180 0.392157 0.392157 0.392157 #0.498039
v 0.351563 4.026611 -0.202637 0.392157 0.392157 0.392157 #0.498039
v 0.861084 3.113281 -0.076660 0.392157 0.392157 0.392157 #0.498039
v -1.232666 1.572998 -0.097168 0.392157 0.392157 0.392157 #0.498039
v -1.204346 2.360107 -0.094482 0.392157 0.392157 0.392157 #0.498039
v -1.090332 2.360107 -0.495361 0.392157 0.392157 0.392157 #0.498039
v -1.012207 3.113281 -0.076660 0.392157 0.392157 0.392157 #0.498039
v -0.550781 4.026611 -0.033936 0.392157 0.392157 0.392157 #0.498039
v -0.917480 3.113281 -0.409180 0.392157 0.392157 0.392157 #0.498039
v -0.589600 0.902100 0.839844 0.392157 0.392157 0.392157 #0.498039
v -0.687256 1.572998 0.997803 0.392157 0.392157 0.392157 #0.498039
v -1.002930 1.572998 0.710205 0.392157 0.392157 0.392157 #0.498039
v -0.854736 0.902100 0.598145 0.392157 0.392157 0.392157 #0.498039
v -1.193115 1.572998 0.327881 0.392157 0.392157 0.392157 #0.498039
v -1.014648 0.902100 0.277100 0.392157 0.392157 0.392157 #0.498039
v 0.798340 0.902100 -0.425293 0.392157 0.392157 0.392157 #0.498039
v 1.081543 1.572998 -0.097168 0.392157 0.392157 0.392157 #0.498039
v 0.896484 0.902100 -0.080078 0.392157 0.392157 0.392157 #0.498039
v 0.863525 0.902100 0.277100 0.392157 0.392157 0.392157 #0.498039
v 1.041992 1.572998 0.327881 0.392157 0.392157 0.392157 #0.498039
v 0.851807 1.572998 0.710205 0.392157 0.392157 0.392157 #0.498039
v -0.290039 0.110840 -0.543701 0.392157 0.392157 0.392157 #0.498039
v -0.075439 0.902100 -0.966309 0.392157 0.392157 0.392157 #0.498039
v 0.277100 0.902100 -0.900391 0.392157 0.392157 0.392157 #0.498039
v -0.606934 0.110840 -0.254639 0.392157 0.392157 0.392157 #0.498039
v -0.733154 0.902100 -0.711670 0.392157 0.392157 0.392157 #0.498039
v -0.290039 0.110840 -0.543701 0.392157 0.392157 0.392157 #0.498039
v -0.075439 1.572998 -1.152100 0.392157 0.392157 0.392157 #0.498039
v 0.333984 2.360107 -1.047119 0.392157 0.392157 0.392157 #0.498039
v 0.343994 1.572998 -1.073730 0.392157 0.392157 0.392157 #0.498039
v 0.707275 1.572998 -0.848877 0.392157 0.392157 0.392157 #0.498039
v 0.688232 2.360107 -0.827881 0.392157 0.392157 0.392157 #0.498039
v 0.939209 2.360107 -0.495361 0.392157 0.392157 0.392157 #0.498039
v -0.858398 1.572998 -0.848877 0.392157 0.392157 0.392157 #0.498039
v -0.485107 2.360107 -1.047119 0.392157 0.392157 0.392157 #0.498039
v -0.495361 1.572998 -1.073730 0.392157 0.392157 0.392157 #0.498039
v -0.075439 1.572998 -1.152100 0.392157 0.392157 0.392157 #0.498039
v -0.485107 2.360107 -1.047119 0.392157 0.392157 0.392157 #0.498039
v 0.333984 2.360107 -1.047119 0.392157 0.392157 0.392157 #0.498039
v -0.075439 0.000000 0.009766 0.392157 0.392157 0.392157 #0.498039
v 0.398193 0.110840 0.367676 0.392157 0.392157 0.392157 #0.498039
v -0.184570 0.110840 0.593506 0.392157 0.392157 0.392157 #0.498039
v -0.075439 0.000000 0.009766 0.392157 0.392157 0.392157 #0.498039
v 0.515625 0.110840 -0.044678 0.392157 0.392157 0.392157 #0.498039
v 0.398193 0.110840 0.367676 0.392157 0.392157 0.392157 #0.498039
v -0.290039 0.110840 -0.543701 0.392157 0.392157 0.392157 #0.498039
v 0.277100 0.902100 -0.900391 0.392157 0.392157 0.392157 #0.498039
v 0.324219 0.110840 -0.428711 0.392157 0.392157 0.392157 #0.498039
v 0.324219 0.110840 -0.428711 0.392157 0.392157 0.392157 #0.498039
v 0.582031 0.902100 -0.711670 0.392157 0.392157 0.392157 #0.498039
v 0.798340 0.902100 -0.425293 0.392157 0.392157 0.392157 #0.498039
v 0.688232 2.360107 -0.827881 0.392157 0.392157 0.392157 #0.498039
v 0.766357 3.113281 -0.409180 0.392157 0.392157 0.392157 #0.498039
v 0.939209 2.360107 -0.495361 0.392157 0.392157 0.392157 #0.498039
v 0.939209 2.360107 -0.495361 0.392157 0.392157 0.392157 #0.498039
v 0.766357 3.113281 -0.409180 0.392157 0.392157 0.392157 #0.498039
v 0.861084 3.113281 -0.076660 0.392157 0.392157 0.392157 #0.498039
v 0.132568 2.360107 1.124268 0.392157 0.392157 0.392157 #0.498039
v 0.419434 3.113281 0.809570 0.392157 0.392157 0.392157 #0.498039
v -0.248291 3.113281 0.934326 0.392157 0.392157 0.392157 #0.498039
v 0.829102 2.360107 0.693115 0.392157 0.392157 0.392157 #0.498039
v 0.419434 3.113281 0.809570 0.392157 0.392157 0.392157 #0.498039
v 0.521240 2.360107 0.973633 0.392157 0.392157 0.392157 #0.498039
v -0.672363 2.360107 0.973633 0.392157 0.392157 0.392157 #0.498039
v -0.248291 3.113281 0.934326 0.392157 0.392157 0.392157 #0.498039
v -0.826172 3.113281 0.576660 0.392157 0.392157 0.392157 #0.498039
v 0.132568 2.360107 1.124268 0.392157 0.392157 0.392157 #0.498039
v -0.248291 3.113281 0.934326 0.392157 0.392157 0.392157 #0.498039
v -0.283691 2.360107 1.124268 0.392157 0.392157 0.392157 #0.498039
v -0.980225 2.360107 0.693115 0.392157 0.392157 0.392157 #0.498039
v -0.826172 3.113281 0.576660 0.392157 0.392157 0.392157 #0.498039
v -1.012207 3.113281 -0.076660 0.392157 0.392157 0.392157 #0.498039
v -0.672363 2.360107 0.973633 0.392157 0.392157 0.392157 #0.498039
v -0.826172 3.113281 0.576660 0.392157 0.392157 0.392157 #0.498039
v -0.980225 2.360107 0.693115 0.392157 0.392157 0.392157 #0.498039
v -1.090332 2.360107 -0.495361 0.392157 0.392157 0.392157 #0.498039
v -0.917480 3.113281 -0.409180 0.392157 0.392157 0.392157 #0.498039
v -0.415283 3.113281 -0.867188 0.392157 0.392157 0.392157 #0.498039
v -1.204346 2.360107 -0.094482 0.392157 0.392157 0.392157 #0.498039
v -0.917480 3.113281 -0.409180 0.392157 0.392157 0.392157 #0.498039
v -1.090332 2.360107 -0.495361 0.392157 0.392157 0.392157 #0.498039
v -0.550781 4.026611 -0.033936 0.392157 0.392157 0.392157 #0.498039
v -0.456299 4.026611 0.297363 0.392157 0.392157 0.392157 #0.498039
v 0.011963 4.026611 0.479004 0.392157 0.392157 0.392157 #0.498039
v -0.826172 3.113281 0.576660 0.392157 0.392157 0.392157 #0.498039
v -0.456299 4.026611 0.297363 0.392157 0.392157 0.392157 #0.498039
v -0.550781 4.026611 -0.033936 0.392157 0.392157 0.392157 #0.498039
v -0.646484 0.110840 0.172363 0.392157 0.392157 0.392157 #0.498039
v -0.854736 0.902100 0.598145 0.392157 0.392157 0.392157 #0.498039
v -1.014648 0.902100 0.277100 0.392157 0.392157 0.392157 #0.498039
v -0.646484 0.110840 0.172363 0.392157 0.392157 0.392157 #0.498039
v -1.047607 0.902100 -0.080078 0.392157 0.392157 0.392157 #0.498039
v -0.606934 0.110840 -0.254639 0.392157 0.392157 0.392157 #0.498039
v 0.398193 0.110840 0.367676 0.392157 0.392157 0.392157 #0.498039
v 0.103760 0.902100 0.969482 0.392157 0.392157 0.392157 #0.498039
v -0.184570 0.110840 0.593506 0.392157 0.392157 0.392157 #0.498039
v -0.184570 0.110840 0.593506 0.392157 0.392157 0.392157 #0.498039
v -0.254883 0.902100 0.969482 0.392157 0.392157 0.392157 #0.498039
v -0.589600 0.902100 0.839844 0.392157 0.392157 0.392157 #0.498039
v 0.863525 0.902100 0.277100 0.392157 0.392157 0.392157 #0.498039
v 0.851807 1.572998 0.710205 0.392157 0.392157 0.392157 #0.498039
v 0.703369 0.902100 0.598145 0.392157 0.392157 0.392157 #0.498039
v 0.703369 0.902100 0.598145 0.392157 0.392157 0.392157 #0.498039
v 0.851807 1.572998 0.710205 0.392157 0.392157 0.392157 #0.498039
v 0.536133 1.572998 0.997803 0.392157 0.392157 0.392157 #0.498039
v 0.419434 3.113281 0.809570 0.392157 0.392157 0.392157 #0.498039
v 0.305176 4.026611 0.297363 0.392157 0.392157 0.392157 #0.498039
v 0.011963 4.026611 0.479004 0.392157 0.392157 0.392157 #0.498039
v -0.550781 4.026611 -0.033936 0.392157 0.392157 0.392157 #0.498039
v 0.011963 4.026611 0.479004 0.392157 0.392157 0.392157 #0.498039
v 0.305176 4.026611 0.297363 0.392157 0.392157 0.392157 #0.498039
v -0.290039 0.110840 -0.543701 0.392157 0.392157 0.392157 #0.498039
v -0.428223 0.902100 -0.900391 0.392157 0.392157 0.392157 #0.498039
v -0.075439 0.902100 -0.966309 0.392157 0.392157 0.392157 #0.498039
v -0.428223 0.902100 -0.900391 0.392157 0.392157 0.392157 #0.498039
v -0.075439 1.572998 -1.152100 0.392157 0.392157 0.392157 #0.498039
v -0.075439 0.902100 -0.966309 0.392157 0.392157 0.392157 #0.498039
v 1.014893 2.360107 0.320068 0.392157 0.392157 0.392157 #0.498039
v 0.861084 3.113281 -0.076660 0.392157 0.392157 0.392157 #0.498039
v 0.675049 3.113281 0.576660 0.392157 0.392157 0.392157 #0.498039
v 0.829102 2.360107 0.693115 0.392157 0.392157 0.392157 #0.498039
v 0.675049 3.113281 0.576660 0.392157 0.392157 0.392157 #0.498039
v 0.419434 3.113281 0.809570 0.392157 0.392157 0.392157 #0.498039
v -0.949463 0.902100 -0.425293 0.392157 0.392157 0.392157 #0.498039
v -1.115723 1.572998 -0.508057 0.392157 0.392157 0.392157 #0.498039
v -0.858398 1.572998 -0.848877 0.392157 0.392157 0.392157 #0.498039
v -1.115723 1.572998 -0.508057 0.392157 0.392157 0.392157 #0.498039
v -1.090332 2.360107 -0.495361 0.392157 0.392157 0.392157 #0.498039
v -0.858398 1.572998 -0.848877 0.392157 0.392157 0.392157 #0.498039
v 0.582031 0.902100 -0.711670 0.392157 0.392157 0.392157 #0.498039
v 0.964600 1.572998 -0.508057 0.392157 0.392157 0.392157 #0.498039
v 0.798340 0.902100 -0.425293 0.392157 0.392157 0.392157 #0.498039
v 0.798340 0.902100 -0.425293 0.392157 0.392157 0.392157 #0.498039
v 0.964600 1.572998 -0.508057 0.392157 0.392157 0.392157 #0.498039
v 1.081543 1.572998 -0.097168 0.392157 0.392157 0.392157 #0.498039
v 1.164795 1.327393 0.360107 0.392157 0.392157 0.392157 #0.498039
v 1.232666 1.327393 0.000244 0.392157 0.392157 0.392157 #0.498039
v 1.175293 2.199463 0.360107 0.392157 0.392157 0.392157 #0.498039
v -0.075439 0.000000 0.009766 0.392157 0.392157 0.392157 #0.498039
v 0.324219 0.110840 -0.428711 0.392157 0.392157 0.392157 #0.498039
v 0.515625 0.110840 -0.044678 0.392157 0.392157 0.392157 #0.498039
v 0.324219 0.110840 -0.428711 0.392157 0.392157 0.392157 #0.498039
v 0.798340 0.902100 -0.425293 0.392157 0.392157 0.392157 #0.498039
v 0.515625 0.110840 -0.044678 0.392157 0.392157 0.392157 #0.498039
v -0.606934 0.110840 -0.254639 0.392157 0.392157 0.392157 #0.498039
v -1.047607 0.902100 -0.080078 0.392157 0.392157 0.392157 #0.498039
v -0.949463 0.902100 -0.425293 0.392157 0.392157 0.392157 #0.498039
v -0.606934 0.110840 -0.254639 0.392157 0.392157 0.392157 #0.498039
v -0.949463 0.902100 -0.425293 0.392157 0.392157 0.392157 #0.498039
v -0.733154 0.902100 -0.711670 0.392157 0.392157 0.392157 #0.498039
v 1.164795 1.327393 -0.359131 0.392157 0.392157 0.392157 #0.498039
v 1.175293 2.199463 -0.359131 0.392157 0.392157 0.392157 #0.498039
v 1.232666 1.327393 0.000244 0.392157 0.392157 0.392157 #0.498039
v 1.175293 2.199463 -0.359131 0.392157 0.392157 0.392157 #0.498039
v 1.164795 1.327393 -0.359131 0.392157 0.392157 0.392157 #0.498039
v 1.008789 0.600586 -0.359131 0.392157 0.392157 0.392157 #0.498039
v 0.398193 0.110840 0.367676 0.392157 0.392157 0.392157 #0.498039
v 0.703369 0.902100 0.598145 0.392157 0.392157 0.392157 #0.498039
v 0.438232 0.902100 0.839844 0.392157 0.392157 0.392157 #0.498039
v 0.703369 0.902100 0.598145 0.392157 0.392157 0.392157 #0.498039
v 0.536133 1.572998 0.997803 0.392157 0.392157 0.392157 #0.498039
v 0.438232 0.902100 0.839844 0.392157 0.392157 0.392157 #0.498039
v -0.485107 2.360107 -1.047119 0.392157 0.392157 0.392157 #0.498039
v -0.415283 3.113281 -0.867188 0.392157 0.392157 0.392157 #0.498039
v -0.075439 3.113281 -0.930664 0.392157 0.392157 0.392157 #0.498039
v -0.415283 3.113281 -0.867188 0.392157 0.392157 0.392157 #0.498039
v -0.247803 4.026611 -0.435059 0.392157 0.392157 0.392157 #0.498039
v -0.075439 3.113281 -0.930664 0.392157 0.392157 0.392157 #0.498039
v -0.980225 2.360107 0.693115 0.392157 0.392157 0.392157 #0.498039
v -1.012207 3.113281 -0.076660 0.392157 0.392157 0.392157 #0.498039
v -1.204346 2.360107 -0.094482 0.392157 0.392157 0.392157 #0.498039
v -1.204346 2.360107 -0.094482 0.392157 0.392157 0.392157 #0.498039
v -1.012207 3.113281 -0.076660 0.392157 0.392157 0.392157 #0.498039
v -0.917480 3.113281 -0.409180 0.392157 0.392157 0.392157 #0.498039
v -0.184570 0.110840 0.593506 0.392157 0.392157 0.392157 #0.498039
v -0.589600 0.902100 0.839844 0.392157 0.392157 0.392157 #0.498039
v -0.854736 0.902100 0.598145 0.392157 0.392157 0.392157 #0.498039
v -0.589600 0.902100 0.839844 0.392157 0.392157 0.392157 #0.498039
v -1.002930 1.572998 0.710205 0.392157 0.392157 0.392157 #0.498039
v -0.854736 0.902100 0.598145 0.392157 0.392157 0.392157 #0.498039
v 0.515625 0.110840 -0.044678 0.392157 0.392157 0.392157 #0.498039
v 0.896484 0.902100 -0.080078 0.392157 0.392157 0.392157 #0.498039
v 0.863525 0.902100 0.277100 0.392157 0.392157 0.392157 #0.498039
v 0.896484 0.902100 -0.080078 0.392157 0.392157 0.392157 #0.498039
v 1.041992 1.572998 0.327881 0.392157 0.392157 0.392157 #0.498039
v 0.863525 0.902100 0.277100 0.392157 0.392157 0.392157 #0.498039
v -0.290039 0.110840 -0.543701 0.392157 0.392157 0.392157 #0.498039
v -0.733154 0.902100 -0.711670 0.392157 0.392157 0.392157 #0.498039
v -0.428223 0.902100 -0.900391 0.392157 0.392157 0.392157 #0.498039
v -0.733154 0.902100 -0.711670 0.392157 0.392157 0.392157 #0.498039
v -0.495361 1.572998 -1.073730 0.392157 0.392157 0.392157 #0.498039
v -0.428223 0.902100 -0.900391 0.392157 0.392157 0.392157 #0.498039
v 0.324219 0.110840 -0.428711 0.392157 0.392157 0.392157 #0.498039
v 0.277100 0.902100 -0.900391 0.392157 0.392157 0.392157 #0.498039
v 0.582031 0.902100 -0.711670 0.392157 0.392157 0.392157 #0.498039
v 0.277100 0.902100 -0.900391 0.392157 0.392157 0.392157 #0.498039
v 0.707275 1.572998 -0.848877 0.392157 0.392157 0.392157 #0.498039
v 0.582031 0.902100 -0.711670 0.392157 0.392157 0.392157 #0.498039
v -0.646484 0.110840 0.172363 0.392157 0.392157 0.392157 #0.498039
v -1.014648 0.902100 0.277100 0.392157 0.392157 0.392157 #0.498039
v -1.047607 0.902100 -0.080078 0.392157 0.392157 0.392157 #0.498039
v -1.014648 0.902100 0.277100 0.392157 0.392157 0.392157 #0.498039
v -1.232666 1.572998 -0.097168 0.392157 0.392157 0.392157 #0.498039
v -1.047607 0.902100 -0.080078 0.392157 0.392157 0.392157 #0.498039
v -0.184570 0.110840 0.593506 0.392157 0.392157 0.392157 #0.498039
v 0.103760 0.902100 0.969482 0.392157 0.392157 0.392157 #0.498039
v -0.254883 0.902100 0.969482 0.392157 0.392157 0.392157 #0.498039
v 0.103760 0.902100 0.969482 0.392157 0.392157 0.392157 #0.498039
v -0.289063 1.572998 1.152100 0.392157 0.392157 0.392157 #0.498039
v -0.254883 0.902100 0.969482 0.392157 0.392157 0.392157 #0.498039
v -0.854736 0.902100 0.598145 0.392157 0.392157 0.392157 #0.498039
v -1.002930 1.572998 0.710205 0.392157 0.392157 0.392157 #0.498039
v -1.193115 1.572998 0.327881 0.392157 0.392157 0.392157 #0.498039
v -1.002930 1.572998 0.710205 0.392157 0.392157 0.392157 #0.498039
v -0.980225 2.360107 0.693115 0.392157 0.392157 0.392157 #0.498039
v -1.193115 1.572998 0.327881 0.392157 0.392157 0.392157 #0.498039
v 0.438232 0.902100 0.839844 0.392157 0.392157 0.392157 #0.498039
v 0.536133 1.572998 0.997803 0.392157 0.392157 0.392157 #0.498039
v 0.137939 1.572998 1.152100 0.392157 0.392157 0.392157 #0.498039
v 0.536133 1.572998 0.997803 0.392157 0.392157 0.392157 #0.498039
v 0.132568 2.360107 1.124268 0.392157 0.392157 0.392157 #0.498039
v 0.137939 1.572998 1.152100 0.392157 0.392157 0.392157 #0.498039
v -1.047607 0.902100 -0.080078 0.392157 0.392157 0.392157 #0.498039
v -1.232666 1.572998 -0.097168 0.392157 0.392157 0.392157 #0.498039
v -1.115723 1.572998 -0.508057 0.392157 0.392157 0.392157 #0.498039
v -1.232666 1.572998 -0.097168 0.392157 0.392157 0.392157 #0.498039
v -1.090332 2.360107 -0.495361 0.392157 0.392157 0.392157 #0.498039
v -1.115723 1.572998 -0.508057 0.392157 0.392157 0.392157 #0.498039
v 0.277100 0.902100 -0.900391 0.392157 0.392157 0.392157 #0.498039
v 0.343994 1.572998 -1.073730 0.392157 0.392157 0.392157 #0.498039
v 0.707275 1.572998 -0.848877 0.392157 0.392157 0.392157 #0.498039
v 0.343994 1.572998 -1.073730 0.392157 0.392157 0.392157 #0.498039
v 0.688232 2.360107 -0.827881 0.392157 0.392157 0.392157 #0.498039
v 0.707275 1.572998 -0.848877 0.392157 0.392157 0.392157 #0.498039
v -0.254883 0.902100 0.969482 0.392157 0.392157 0.392157 #0.498039
v -0.289063 1.572998 1.152100 0.392157 0.392157 0.392157 #0.498039
v -0.687256 1.572998 0.997803 0.392157 0.392157 0.392157 #0.498039
v -0.289063 1.572998 1.152100 0.392157 0.392157 0.392157 #0.498039
v -0.672363 2.360107 0.973633 0.392157 0.392157 0.392157 #0.498039
v -0.687256 1.572998 0.997803 0.392157 0.392157 0.392157 #0.498039
v -0.428223 0.902100 -0.900391 0.392157 0.392157 0.392157 #0.498039
v -0.495361 1.572998 -1.073730 0.392157 0.392157 0.392157 #0.498039
v -0.075439 1.572998 -1.152100 0.392157 0.392157 0.392157 #0.498039
v -0.495361 1.572998 -1.073730 0.392157 0.392157 0.392157 #0.498039
v -0.485107 2.360107 -1.047119 0.392157 0.392157 0.392157 #0.498039
v -0.075439 1.572998 -1.152100 0.392157 0.392157 0.392157 #0.498039
v 0.896484 0.902100 -0.080078 0.392157 0.392157 0.392157 #0.498039
v 1.081543 1.572998 -0.097168 0.392157 0.392157 0.392157 #0.498039
v 1.041992 1.572998 0.327881 0.392157 0.392157 0.392157 #0.498039
v 1.081543 1.572998 -0.097168 0.392157 0.392157 0.392157 #0.498039
v 1.014893 2.360107 0.320068 0.392157 0.392157 0.392157 #0.498039
v 1.041992 1.572998 0.327881 0.392157 0.392157 0.392157 #0.498039
v 1.014893 2.360107 0.320068 0.392157 0.392157 0.392157 #0.498039
v 0.675049 3.113281 0.576660 0.392157 0.392157 0.392157 #0.498039
v 0.829102 2.360107 0.693115 0.392157 0.392157 0.392157 #0.498039
v 1.041992 1.572998 0.327881 0.392157 0.392157 0.392157 #0.498039
v 1.014893 2.360107 0.320068 0.392157 0.392157 0.392157 #0.498039
v 0.829102 2.360107 0.693115 0.392157 0.392157 0.392157 #0.498039
v 0.766357 3.113281 -0.409180 0.392157 0.392157 0.392157 #0.498039
v 0.096680 4.026611 -0.435059 0.392157 0.392157 0.392157 #0.498039
v 0.351563 4.026611 -0.202637 0.392157 0.392157 0.392157 #0.498039
v -0.550781 4.026611 -0.033936 0.392157 0.392157 0.392157 #0.498039
v 0.351563 4.026611 -0.202637 0.392157 0.392157 0.392157 #0.498039
v 0.096680 4.026611 -0.435059 0.392157 0.392157 0.392157 #0.498039
v 0.343994 1.572998 -1.073730 0.392157 0.392157 0.392157 #0.498039
v 0.333984 2.360107 -1.047119 0.392157 0.392157 0.392157 #0.498039
v 0.688232 2.360107 -0.827881 0.392157 0.392157 0.392157 #0.498039
v 0.333984 2.360107 -1.047119 0.392157 0.392157 0.392157 #0.498039
v 0.766357 3.113281 -0.409180 0.392157 0.392157 0.392157 #0.498039
v 0.688232 2.360107 -0.827881 0.392157 0.392157 0.392157 #0.498039
v -0.289063 1.572998 1.152100 0.392157 0.392157 0.392157 #0.498039
v -0.283691 2.360107 1.124268 0.392157 0.392157 0.392157 #0.498039
v -0.672363 2.360107 0.973633 0.392157 0.392157 0.392157 #0.498039
v -0.283691 2.360107 1.124268 0.392157 0.392157 0.392157 #0.498039
v -0.248291 3.113281 0.934326 0.392157 0.392157 0.392157 #0.498039
v -0.672363 2.360107 0.973633 0.392157 0.392157 0.392157 #0.498039
v 0.536133 1.572998 0.997803 0.392157 0.392157 0.392157 #0.498039
v 0.521240 2.360107 0.973633 0.392157 0.392157 0.392157 #0.498039
v 0.132568 2.360107 1.124268 0.392157 0.392157 0.392157 #0.498039
v 0.521240 2.360107 0.973633 0.392157 0.392157 0.392157 #0.498039
v 0.419434 3.113281 0.809570 0.392157 0.392157 0.392157 #0.498039
v 0.132568 2.360107 1.124268 0.392157 0.392157 0.392157 #0.498039
v 0.939209 2.360107 -0.495361 0.392157 0.392157 0.392157 #0.498039
v 0.861084 3.113281 -0.076660 0.392157 0.392157 0.392157 #0.498039
v 1.053223 2.360107 -0.094482 0.392157 0.392157 0.392157 #0.498039
v 0.964600 1.572998 -0.508057 0.392157 0.392157 0.392157 #0.498039
v 0.939209 2.360107 -0.495361 0.392157 0.392157 0.392157 #0.498039
v 1.053223 2.360107 -0.094482 0.392157 0.392157 0.392157 #0.498039
v 0.938477 4.360840 0.484375 0.392157 0.392157 0.392157 #0.498039
v 0.913818 4.222168 0.506348 0.392157 0.392157 0.392157 #0.498039
v 0.913818 4.680420 0.433594 0.392157 0.392157 0.392157 #0.498039
v 0.779785 3.929932 0.552490 0.392157 0.392157 0.392157 #0.498039
v 0.913818 4.041016 0.534912 0.392157 0.392157 0.392157 #0.498039
v 0.913818 4.222168 0.506348 0.392157 0.392157 0.392157 #0.498039
v 1.001221 4.190674 0.511230 0.392157 0.392157 0.392157 #0.498039
v 1.031494 4.360840 0.484375 0.392157 0.392157 0.392157 #0.498039
v 0.913818 4.041016 0.534912 0.392157 0.392157 0.392157 #0.498039
v 1.001221 4.530762 0.457275 0.392157 0.392157 0.392157 #0.498039
v 0.913818 4.680420 0.433594 0.392157 0.392157 0.392157 #0.498039
v 1.031494 4.360840 0.484375 0.392157 0.392157 0.392157 #0.498039
v 0.913818 4.222168 0.506348 0.392157 0.392157 0.392157 #0.498039
v 0.913818 4.041016 0.534912 0.392157 0.392157 0.392157 #0.498039
v 1.031494 4.360840 0.484375 0.392157 0.392157 0.392157 #0.498039
v 1.031494 4.360840 0.484375 0.392157 0.392157 0.392157 #0.498039
v 0.913818 4.680420 0.433594 0.392157 0.392157 0.392157 #0.498039
v 0.913818 4.222168 0.506348 0.392157 0.392157 0.392157 #0.498039
v 0.142578 4.222168 0.506348 0.392157 0.392157 0.392157 #0.498039
v 0.054932 4.530762 0.457275 0.392157 0.392157 0.392157 #0.498039
v 0.213867 4.100098 0.525635 0.392157 0.392157 0.392157 #0.498039
v 0.054932 4.530762 0.457275 0.392157 0.392157 0.392157 #0.498039
v 0.024658 4.360840 0.484375 0.392157 0.392157 0.392157 #0.498039
v 0.054932 4.190674 0.511230 0.392157 0.392157 0.392157 #0.498039
v 0.054932 4.190674 0.511230 0.392157 0.392157 0.392157 #0.498039
v 0.213867 4.100098 0.525635 0.392157 0.392157 0.392157 #0.498039
v 0.054932 4.530762 0.457275 0.392157 0.392157 0.392157 #0.498039
v 0.733398 4.711670 0.428711 0.392157 0.392157 0.392157 #0.498039
v 0.913818 4.680420 0.433594 0.392157 0.392157 0.392157 #0.498039
v 0.779785 4.791504 0.416016 0.392157 0.392157 0.392157 #0.498039
v 0.913818 4.499268 0.462402 0.392157 0.392157 0.392157 #0.498039
v 0.913818 4.680420 0.433594 0.392157 0.392157 0.392157 #0.498039
v 0.842529 4.621338 0.443115 0.392157 0.392157 0.392157 #0.498039
v 0.615479 3.871094 0.561768 0.392157 0.392157 0.392157 #0.498039
v 0.779785 3.929932 0.552490 0.392157 0.392157 0.392157 #0.498039
v 0.913818 4.222168 0.506348 0.392157 0.392157 0.392157 #0.498039
v 0.842529 4.100098 0.525635 0.392157 0.392157 0.392157 #0.498039
v 0.615479 3.871094 0.561768 0.392157 0.392157 0.392157 #0.498039
v 0.913818 4.222168 0.506348 0.392157 0.392157 0.392157 #0.498039
v 0.440674 3.871094 0.561768 0.392157 0.392157 0.392157 #0.498039
v 0.615479 3.871094 0.561768 0.392157 0.392157 0.392157 #0.498039
v 0.842529 4.100098 0.525635 0.392157 0.392157 0.392157 #0.498039
v 0.733398 4.009766 0.539795 0.392157 0.392157 0.392157 #0.498039
v 0.440674 3.871094 0.561768 0.392157 0.392157 0.392157 #0.498039
v 0.842529 4.100098 0.525635 0.392157 0.392157 0.392157 #0.498039
v 0.276367 3.929932 0.552490 0.392157 0.392157 0.392157 #0.498039
v 0.440674 3.871094 0.561768 0.392157 0.392157 0.392157 #0.498039
v 0.733398 4.009766 0.539795 0.392157 0.392157 0.392157 #0.498039
v 0.599365 3.961670 0.547607 0.392157 0.392157 0.392157 #0.498039
v 0.276367 3.929932 0.552490 0.392157 0.392157 0.392157 #0.498039
v 0.733398 4.009766 0.539795 0.392157 0.392157 0.392157 #0.498039
v 0.142334 4.041016 0.534912 0.392157 0.392157 0.392157 #0.498039
v 0.276367 3.929932 0.552490 0.392157 0.392157 0.392157 #0.498039
v 0.599365 3.961670 0.547607 0.392157 0.392157 0.392157 #0.498039
v 0.456787 3.961670 0.547607 0.392157 0.392157 0.392157 #0.498039
v 0.142334 4.041016 0.534912 0.392157 0.392157 0.392157 #0.498039
v 0.599365 3.961670 0.547607 0.392157 0.392157 0.392157 #0.498039
v 0.322998 4.009766 0.539795 0.392157 0.392157 0.392157 #0.498039
v 0.142334 4.041016 0.534912 0.392157 0.392157 0.392157 #0.498039
v 0.456787 3.961670 0.547607 0.392157 0.392157 0.392157 #0.498039
v 0.142334 4.041016 0.534912 0.392157 0.392157 0.392157 #0.498039
v 0.213867 4.100098 0.525635 0.392157 0.392157 0.392157 #0.498039
v 0.054932 4.190674 0.511230 0.392157 0.392157 0.392157 #0.498039
v 0.142334 4.041016 0.534912 0.392157 0.392157 0.392157 #0.498039
v 0.322998 4.009766 0.539795 0.392157 0.392157 0.392157 #0.498039
v 0.213867 4.100098 0.525635 0.392157 0.392157 0.392157 #0.498039
v 0.142334 4.680420 0.433594 0.392157 0.392157 0.392157 #0.498039
v 0.054932 4.530762 0.457275 0.392157 0.392157 0.392157 #0.498039
v 0.142578 4.222168 0.506348 0.392157 0.392157 0.392157 #0.498039
v 0.117676 4.360840 0.484375 0.392157 0.392157 0.392157 #0.498039
v 0.142334 4.680420 0.433594 0.392157 0.392157 0.392157 #0.498039
v 0.142578 4.222168 0.506348 0.392157 0.392157 0.392157 #0.498039
v 0.276367 4.791504 0.416016 0.392157 0.392157 0.392157 #0.498039
v 0.142334 4.680420 0.433594 0.392157 0.392157 0.392157 #0.498039
v 0.117676 4.360840 0.484375 0.392157 0.392157 0.392157 #0.498039
v 0.142578 4.499268 0.462402 0.392157 0.392157 0.392157 #0.498039
v 0.276367 4.791504 0.416016 0.392157 0.392157 0.392157 #0.498039
v 0.117676 4.360840 0.484375 0.392157 0.392157 0.392157 #0.498039
v 0.440674 4.850586 0.406738 0.392157 0.392157 0.392157 #0.498039
v 0.276367 4.791504 0.416016 0.392157 0.392157 0.392157 #0.498039
v 0.142578 4.499268 0.462402 0.392157 0.392157 0.392157 #0.498039
v 0.213867 4.621338 0.443115 0.392157 0.392157 0.392157 #0.498039
v 0.440674 4.850586 0.406738 0.392157 0.392157 0.392157 #0.498039
v 0.142578 4.499268 0.462402 0.392157 0.392157 0.392157 #0.498039
v 0.615479 4.850586 0.406738 0.392157 0.392157 0.392157 #0.498039
v 0.440674 4.850586 0.406738 0.392157 0.392157 0.392157 #0.498039
v 0.213867 4.621338 0.443115 0.392157 0.392157 0.392157 #0.498039
v 0.322998 4.711670 0.428711 0.392157 0.392157 0.392157 #0.498039
v 0.615479 4.850586 0.406738 0.392157 0.392157 0.392157 #0.498039
v 0.213867 4.621338 0.443115 0.392157 0.392157 0.392157 #0.498039
v 0.779785 4.791504 0.416016 0.392157 0.392157 0.392157 #0.498039
v 0.615479 4.850586 0.406738 0.392157 0.392157 0.392157 #0.498039
v 0.322998 4.711670 0.428711 0.392157 0.392157 0.392157 #0.498039
v 0.456787 4.759766 0.421143 0.392157 0.392157 0.392157 #0.498039
v 0.779785 4.791504 0.416016 0.392157 0.392157 0.392157 #0.498039
v 0.322998 4.711670 0.428711 0.392157 0.392157 0.392157 #0.498039
v 0.599365 4.759766 0.421143 0.392157 0.392157 0.392157 #0.498039
v 0.779785 4.791504 0.416016 0.392157 0.392157 0.392157 #0.498039
v 0.456787 4.759766 0.421143 0.392157 0.392157 0.392157 #0.498039
v 0.733398 4.711670 0.428711 0.392157 0.392157 0.392157 #0.498039
v 0.779785 4.791504 0.416016 0.392157 0.392157 0.392157 #0.498039
v 0.599365 4.759766 0.421143 0.392157 0.392157 0.392157 #0.498039
v 0.842529 4.621338 0.443115 0.392157 0.392157 0.392157 #0.498039
v 0.913818 4.680420 0.433594 0.392157 0.392157 0.392157 #0.498039
v 0.733398 4.711670 0.428711 0.392157 0.392157 0.392157 #0.498039
v 0.938477 4.360840 0.484375 0.392157 0.392157 0.392157 #0.498039
v 0.913818 4.680420 0.433594 0.392157 0.392157 0.392157 #0.498039
v 0.913818 4.499268 0.462402 0.392157 0.392157 0.392157 #0.498039
v 1.232666 1.327393 0.000244 0.392157 0.392157 0.392157 #0.498039
v 1.175293 2.199463 0.360107 0.392157 0.392157 0.392157 #0.498039
v 1.232666 3.266357 0.000244 0.392157 0.392157 0.392157 #0.498039
v 1.232666 3.266357 0.000244 0.392157 0.392157 0.392157 #0.498039
v 1.175293 2.199463 -0.359131 0.392157 0.392157 0.392157 #0.498039
v 1.232666 1.327393 0.000244 0.392157 0.392157 0.392157 #0.498039
v 1.164795 1.327393 -0.359131 0.392157 0.392157 0.392157 #0.498039
v 1.008789 0.600586 -0.359131 0.392157 0.392157 0.392157 #0.498039
v 1.232666 1.327393 0.000244 0.392157 0.392157 0.392157 #0.498039
v 0.866699 4.412109 0.000244 0.392157 0.392157 0.392157 #0.498039
v 1.153809 3.266357 0.360107 0.392157 0.392157 0.392157 #0.498039
v 0.841797 4.414063 0.382080 0.392157 0.392157 0.392157 #0.498039
v 0.841797 4.414063 -0.373291 0.392157 0.392157 0.392157 #0.498039
v 1.153809 3.266357 -0.359131 0.392157 0.392157 0.392157 #0.498039
v 0.866699 4.412109 0.000244 0.392157 0.392157 0.392157 #0.498039
v 1.232666 3.266357 0.000244 0.392157 0.392157 0.392157 #0.498039
v 1.175293 2.199463 0.360107 0.392157 0.392157 0.392157 #0.498039
v 1.153809 3.266357 0.360107 0.392157 0.392157 0.392157 #0.498039
v 1.153809 3.266357 -0.359131 0.392157 0.392157 0.392157 #0.498039
v 1.175293 2.199463 -0.359131 0.392157 0.392157 0.392157 #0.498039
v 1.232666 3.266357 0.000244 0.392157 0.392157 0.392157 #0.498039
v 1.064697 0.600586 0.000244 0.392157 0.392157 0.392157 #0.498039
v 1.008789 0.600586 0.360107 0.392157 0.392157 0.392157 #0.498039
v 1.232666 1.327393 0.000244 0.392157 0.392157 0.392157 #0.498039
v 1.232666 1.327393 0.000244 0.392157 0.392157 0.392157 #0.498039
v 1.008789 0.600586 0.360107 0.392157 0.392157 0.392157 #0.498039
v 1.164795 1.327393 0.360107 0.392157 0.392157 0.392157 #0.498039
v 1.064697 0.600586 0.000244 0.392157 0.392157 0.392157 #0.498039
v 1.008789 0.600586 -0.359131 0.392157 0.392157 0.392157 #0.498039
v 1.008789 0.600586 0.360107 0.392157 0.392157 0.392157 #0.498039
v 1.232666 1.327393 0.000244 0.392157 0.392157 0.392157 #0.498039
v 1.008789 0.600586 -0.359131 0.392157 0.392157 0.392157 #0.498039
v 1.064697 0.600586 0.000244 0.392157 0.392157 0.392157 #0.498039
v 1.232666 3.266357 0.000244 0.392157 0.392157 0.392157 #0.498039
v 1.153809 3.266357 0.360107 0.392157 0.392157 0.392157 #0.498039
v 0.866699 4.412109 0.000244 0.392157 0.392157 0.392157 #0.498039
v 0.866699 4.412109 0.000244 0.392157 0.392157 0.392157 #0.498039
v 1.153809 3.266357 -0.359131 0.392157 0.392157 0.392157 #0.498039
v 1.232666 3.266357 0.000244 0.392157 0.392157 0.392157 #0.498039
v 1.232666 1.327393 0.000244 0.392157 0.392157 0.392157 #0.498039
v 1.164795 1.327393 0.360107 0.392157 0.392157 0.392157 #0.498039
v 1.175293 2.199463 0.360107 0.392157 0.392157 0.392157 #0.498039
v 1.175293 2.199463 -0.359131 0.392157 0.392157 0.392157 #0.498039
v 1.164795 1.327393 -0.359131 0.392157 0.392157 0.392157 #0.498039
v 1.232666 1.327393 0.000244 0.392157 0.392157 0.392157 #0.498039
v 1.164795 1.327393 -0.359131 0.392157 0.392157 0.392157 #0.498039
v 1.175293 2.199463 -0.359131 0.392157 0.392157 0.392157 #0.498039
v 1.008789 0.600586 -0.359131 0.392157 0.392157 0.392157 #0.498039
vt 0.867188 0.948486 0.000000
vt 0.857910 0.441650 0.000000
vt 0.936523 0.438232 0.000000
vt 0.857910 0.441650 0.000000
vt 0.867188 0.948486 0.000000
vt 0.936523 0.991455 0.000000
vt 0.786865 0.626221 0.000000
vt 0.862549 0.734863 0.000000
vt 0.862549 0.493896 0.000000
vt 0.938477 0.626221 0.000000
vt 0.862549 0.493896 0.000000
vt 0.862549 0.734863 0.000000
vt 0.857910 0.441650 0.000000
vt 0.867188 0.948486 0.000000
vt 0.760010 0.845947 0.000000
vt 0.781982 0.404053 0.000000
vt 0.940674 0.404053 0.000000
vt 0.781982 0.285645 0.000000
vt 0.938477 0.825195 0.000000
vt 0.938477 0.734863 0.000000
vt 0.862549 0.734863 0.000000
vt 0.786865 0.493896 0.000000
vt 0.862549 0.397949 0.000000
vt 0.786865 0.397949 0.000000
vt 0.938477 0.493896 0.000000
vt 0.938477 0.397949 0.000000
vt 0.862549 0.397949 0.000000
vt 0.825928 0.390137 0.000000
vt 0.760010 0.845947 0.000000
vt 0.857910 0.441650 0.000000
vt 0.867188 0.948486 0.000000
vt 0.857910 0.441650 0.000000
vt 0.760010 0.845947 0.000000
vt 0.936523 0.438232 0.000000
vt 0.936523 0.991455 0.000000
vt 0.867188 0.948486 0.000000
vt 0.936523 0.991455 0.000000
vt 0.936523 0.438232 0.000000
vt 0.857910 0.441650 0.000000
vt 0.781982 0.916748 0.000000
vt 0.781982 0.930664 0.000000
vt 0.940674 0.916748 0.000000
vt 0.760010 0.845947 0.000000
vt 0.825928 0.390137 0.000000
vt 0.857910 0.441650 0.000000
vt 0.786865 0.626221 0.000000
vt 0.862549 0.493896 0.000000
vt 0.786865 0.493896 0.000000
vt 0.938477 0.626221 0.000000
vt 0.938477 0.493896 0.000000
vt 0.862549 0.493896 0.000000
vt 0.786865 0.825195 0.000000
vt 0.862549 0.825195 0.000000
vt 0.862549 0.734863 0.000000
vt 0.786865 0.825195 0.000000
vt 0.862549 0.734863 0.000000
vt 0.786865 0.734863 0.000000
vt 0.938477 0.825195 0.000000
vt 0.862549 0.825195 0.000000
vt 0.786865 0.825195 0.000000
vt 0.938477 0.825195 0.000000
vt 0.862549 0.734863 0.000000
vt 0.862549 0.825195 0.000000
vt 0.781982 0.285645 0.000000
vt 0.940674 0.285645 0.000000
vt 0.940674 0.235840 0.000000
vt 0.940674 0.285645 0.000000
vt 0.781982 0.285645 0.000000
vt 0.940674 0.404053 0.000000
vt 0.786865 0.493896 0.000000
vt 0.862549 0.493896 0.000000
vt 0.862549 0.397949 0.000000
vt 0.938477 0.493896 0.000000
vt 0.862549 0.397949 0.000000
vt 0.862549 0.493896 0.000000
vt 0.781982 0.871094 0.000000
vt 0.940674 0.871094 0.000000
vt 0.781982 0.930664 0.000000
vt 0.940674 0.871094 0.000000
vt 0.781982 0.871094 0.000000
vt 0.781982 0.875000 0.000000
vt 0.825928 0.390137 0.000000
vt 0.754883 0.402100 0.000000
vt 0.760010 0.845947 0.000000
vt 0.781982 0.404053 0.000000
vt 0.781982 0.916748 0.000000
vt 0.940674 0.916748 0.000000
vt 0.781982 0.875000 0.000000
vt 0.940674 0.875000 0.000000
vt 0.940674 0.871094 0.000000
vt 0.940674 0.875000 0.000000
vt 0.781982 0.875000 0.000000
vt 0.781982 0.235840 0.000000
vt 0.754883 0.402100 0.000000
vt 0.825928 0.390137 0.000000
vt 0.760010 0.845947 0.000000
vt 0.940674 0.916748 0.000000
vt 0.940674 0.404053 0.000000
vt 0.781982 0.404053 0.000000
vt 0.940674 0.930664 0.000000
vt 0.781982 0.930664 0.000000
vt 0.940674 0.871094 0.000000
vt 0.940674 0.930664 0.000000
vt 0.940674 0.916748 0.000000
vt 0.781982 0.930664 0.000000
vt 0.940674 0.235840 0.000000
vt 0.781982 0.235840 0.000000
vt 0.781982 0.285645 0.000000
vt 0.781982 0.235840 0.000000
vt 0.940674 0.235840 0.000000
vt 0.940674 0.875000 0.000000
vt 0.469971 0.722168 0.000000
vt 0.540039 0.590088 0.000000
vt 0.388916 0.590088 0.000000
vt 0.197998 0.723389 0.000000
vt 0.151611 0.591064 0.000000
vt 0.146484 0.723389 0.000000
vt 0.168945 0.723389 0.000000
vt 0.235107 0.591064 0.000000
vt 0.232178 0.723389 0.000000
vt 0.529541 0.836426 0.000000
vt 0.511230 0.723389 0.000000
vt 0.486328 0.836426 0.000000
vt 0.523193 0.464355 0.000000
vt 0.449707 0.310547 0.000000
vt 0.389160 0.310547 0.000000
vt 0.168945 0.723389 0.000000
vt 0.173584 0.591064 0.000000
vt 0.235107 0.591064 0.000000
vt 0.557617 0.591064 0.000000
vt 0.422607 0.464355 0.000000
vt 0.436523 0.591064 0.000000
vt 0.486328 0.836426 0.000000
vt 0.511230 0.723389 0.000000
vt 0.438477 0.723389 0.000000
vt 0.272705 0.591064 0.000000
vt 0.354492 0.464355 0.000000
vt 0.186035 0.464355 0.000000
vt 0.449707 0.310547 0.000000
vt 0.320068 0.310547 0.000000
vt 0.389160 0.310547 0.000000
vt 0.309570 0.722168 0.000000
vt 0.388916 0.590088 0.000000
vt 0.388428 0.722168 0.000000
vt 0.398438 0.967529 0.000000
vt 0.460205 0.834717 0.000000
vt 0.477539 0.967529 0.000000
vt 0.477051 0.723389 0.000000
vt 0.535645 0.591064 0.000000
vt 0.540283 0.723389 0.000000
vt 0.344971 0.151855 0.000000
vt 0.465088 0.091797 0.000000
vt 0.393555 0.026367 0.000000
vt 0.477051 0.723389 0.000000
vt 0.474121 0.591064 0.000000
vt 0.535645 0.591064 0.000000
vt 0.389160 0.464355 0.000000
vt 0.337158 0.310547 0.000000
vt 0.430908 0.310547 0.000000
vt 0.204346 0.464355 0.000000
vt 0.278320 0.310547 0.000000
vt 0.255615 0.464355 0.000000
vt 0.354492 0.464355 0.000000
vt 0.320068 0.310547 0.000000
vt 0.186035 0.464355 0.000000
vt 0.354492 0.836426 0.000000
vt 0.270508 0.723389 0.000000
vt 0.283936 0.836426 0.000000
vt 0.344971 0.151855 0.000000
vt 0.393555 0.026367 0.000000
vt 0.254639 0.052490 0.000000
vt 0.390381 0.836426 0.000000
vt 0.477051 0.723389 0.000000
vt 0.457520 0.836426 0.000000
vt 0.251709 0.836426 0.000000
vt 0.311768 0.723389 0.000000
vt 0.318604 0.836426 0.000000
vt 0.388428 0.722168 0.000000
vt 0.388916 0.590088 0.000000
vt 0.468506 0.590088 0.000000
vt 0.388916 0.590088 0.000000
vt 0.392334 0.463623 0.000000
vt 0.468506 0.590088 0.000000
vt 0.460205 0.834717 0.000000
vt 0.469971 0.722168 0.000000
vt 0.388428 0.722168 0.000000
vt 0.376465 0.969482 0.000000
vt 0.510498 0.836426 0.000000
vt 0.449463 0.969482 0.000000
vt 0.469971 0.722168 0.000000
vt 0.388916 0.590088 0.000000
vt 0.388428 0.722168 0.000000
vt 0.511230 0.723389 0.000000
vt 0.557617 0.591064 0.000000
vt 0.436523 0.591064 0.000000
vt 0.517578 0.463623 0.000000
vt 0.400635 0.310059 0.000000
vt 0.392334 0.463623 0.000000
vt 0.389160 0.464355 0.000000
vt 0.430908 0.310547 0.000000
vt 0.504883 0.464355 0.000000
vt 0.392334 0.463623 0.000000
vt 0.464111 0.310059 0.000000
vt 0.517578 0.463623 0.000000
vt 0.449707 0.310547 0.000000
vt 0.278320 0.310547 0.000000
vt 0.269043 0.310547 0.000000
vt 0.436523 0.591064 0.000000
vt 0.354492 0.464355 0.000000
vt 0.272705 0.591064 0.000000
vt 0.354492 0.836426 0.000000
vt 0.354492 0.723389 0.000000
vt 0.270508 0.723389 0.000000
vt 0.469971 0.722168 0.000000
vt 0.540039 0.590088 0.000000
vt 0.543213 0.722168 0.000000
vt 0.477539 0.967529 0.000000
vt 0.460205 0.834717 0.000000
vt 0.521729 0.834717 0.000000
vt 0.222900 0.836426 0.000000
vt 0.197998 0.723389 0.000000
vt 0.146484 0.723389 0.000000
vt 0.398438 0.967529 0.000000
vt 0.325439 0.834717 0.000000
vt 0.391602 0.834717 0.000000
vt 0.311768 0.723389 0.000000
vt 0.312988 0.591064 0.000000
vt 0.396240 0.591064 0.000000
vt 0.255615 0.464355 0.000000
vt 0.337158 0.310547 0.000000
vt 0.389160 0.464355 0.000000
vt 0.344971 0.151855 0.000000
vt 0.369629 0.284424 0.000000
vt 0.474121 0.188721 0.000000
vt 0.259766 0.969482 0.000000
vt 0.251709 0.836426 0.000000
vt 0.318604 0.836426 0.000000
vt 0.391602 0.834717 0.000000
vt 0.309570 0.722168 0.000000
vt 0.325439 0.834717 0.000000
vt 0.344971 0.151855 0.000000
vt 0.474121 0.188721 0.000000
vt 0.465088 0.091797 0.000000
vt 0.311768 0.723389 0.000000
vt 0.396240 0.591064 0.000000
vt 0.397217 0.723389 0.000000
vt 0.318604 0.836426 0.000000
vt 0.311768 0.723389 0.000000
vt 0.397217 0.723389 0.000000
vt 0.523193 0.464355 0.000000
vt 0.389160 0.310547 0.000000
vt 0.422607 0.464355 0.000000
vt 0.354492 0.464355 0.000000
vt 0.389160 0.310547 0.000000
vt 0.320068 0.310547 0.000000
vt 0.392334 0.463623 0.000000
vt 0.368164 0.310059 0.000000
vt 0.464111 0.310059 0.000000
vt 0.328613 0.463623 0.000000
vt 0.368164 0.310059 0.000000
vt 0.392334 0.463623 0.000000
vt 0.388428 0.722168 0.000000
vt 0.388916 0.590088 0.000000
vt 0.312012 0.590088 0.000000
vt 0.392334 0.463623 0.000000
vt 0.400635 0.310059 0.000000
vt 0.328613 0.463623 0.000000
vt 0.457520 0.836426 0.000000
vt 0.477051 0.723389 0.000000
vt 0.540283 0.723389 0.000000
vt 0.521729 0.834717 0.000000
vt 0.469971 0.722168 0.000000
vt 0.460205 0.834717 0.000000
vt 0.325439 0.834717 0.000000
vt 0.388428 0.722168 0.000000
vt 0.391602 0.834717 0.000000
vt 0.460205 0.834717 0.000000
vt 0.469971 0.722168 0.000000
vt 0.543213 0.722168 0.000000
vt 0.397461 0.969482 0.000000
vt 0.354492 0.836426 0.000000
vt 0.283936 0.836426 0.000000
vt 0.460938 0.969482 0.000000
vt 0.486328 0.836426 0.000000
vt 0.397461 0.969482 0.000000
vt 0.354492 0.723389 0.000000
vt 0.272705 0.591064 0.000000
vt 0.270508 0.723389 0.000000
vt 0.197998 0.723389 0.000000
vt 0.201660 0.591064 0.000000
vt 0.151611 0.591064 0.000000
vt 0.511230 0.723389 0.000000
vt 0.436523 0.591064 0.000000
vt 0.438477 0.723389 0.000000
vt 0.354492 0.723389 0.000000
vt 0.436523 0.591064 0.000000
vt 0.272705 0.591064 0.000000
vt 0.344971 0.151855 0.000000
vt 0.238037 0.233154 0.000000
vt 0.369629 0.284424 0.000000
vt 0.344971 0.151855 0.000000
vt 0.211426 0.139648 0.000000
vt 0.238037 0.233154 0.000000
vt 0.397461 0.969482 0.000000
vt 0.283936 0.836426 0.000000
vt 0.274658 0.969482 0.000000
vt 0.274658 0.969482 0.000000
vt 0.222900 0.836426 0.000000
vt 0.179688 0.836426 0.000000
vt 0.201660 0.591064 0.000000
vt 0.186035 0.464355 0.000000
vt 0.151611 0.591064 0.000000
vt 0.312012 0.590088 0.000000
vt 0.328613 0.463623 0.000000
vt 0.392334 0.463623 0.000000
vt 0.312988 0.591064 0.000000
vt 0.255615 0.464355 0.000000
vt 0.389160 0.464355 0.000000
vt 0.173584 0.591064 0.000000
vt 0.255615 0.464355 0.000000
vt 0.235107 0.591064 0.000000
vt 0.474121 0.591064 0.000000
vt 0.389160 0.464355 0.000000
vt 0.504883 0.464355 0.000000
vt 0.312988 0.591064 0.000000
vt 0.389160 0.464355 0.000000
vt 0.396240 0.591064 0.000000
vt 0.540039 0.590088 0.000000
vt 0.517578 0.463623 0.000000
vt 0.392334 0.463623 0.000000
vt 0.474121 0.591064 0.000000
vt 0.504883 0.464355 0.000000
vt 0.535645 0.591064 0.000000
vt 0.557617 0.591064 0.000000
vt 0.523193 0.464355 0.000000
vt 0.422607 0.464355 0.000000
vt 0.388916 0.590088 0.000000
vt 0.328613 0.463623 0.000000
vt 0.312012 0.590088 0.000000
vt 0.449707 0.310547 0.000000
vt 0.430908 0.310547 0.000000
vt 0.337158 0.310547 0.000000
vt 0.517578 0.463623 0.000000
vt 0.464111 0.310059 0.000000
vt 0.400635 0.310059 0.000000
vt 0.440186 0.967529 0.000000
vt 0.521729 0.834717 0.000000
vt 0.460205 0.834717 0.000000
vt 0.440186 0.967529 0.000000
vt 0.391602 0.834717 0.000000
vt 0.358154 0.967529 0.000000
vt 0.259766 0.969482 0.000000
vt 0.318604 0.836426 0.000000
vt 0.376465 0.969482 0.000000
vt 0.376465 0.969482 0.000000
vt 0.390381 0.836426 0.000000
vt 0.457520 0.836426 0.000000
vt 0.460205 0.834717 0.000000
vt 0.543213 0.722168 0.000000
vt 0.521729 0.834717 0.000000
vt 0.198730 0.836426 0.000000
vt 0.168945 0.723389 0.000000
vt 0.232178 0.723389 0.000000
vt 0.255615 0.464355 0.000000
vt 0.278320 0.310547 0.000000
vt 0.337158 0.310547 0.000000
vt 0.449707 0.310547 0.000000
vt 0.337158 0.310547 0.000000
vt 0.278320 0.310547 0.000000
vt 0.397461 0.969482 0.000000
vt 0.425293 0.836426 0.000000
vt 0.354492 0.836426 0.000000
vt 0.425293 0.836426 0.000000
vt 0.354492 0.723389 0.000000
vt 0.354492 0.836426 0.000000
vt 0.468506 0.590088 0.000000
vt 0.392334 0.463623 0.000000
vt 0.517578 0.463623 0.000000
vt 0.173584 0.591064 0.000000
vt 0.204346 0.464355 0.000000
vt 0.255615 0.464355 0.000000
vt 0.529541 0.836426 0.000000
vt 0.562744 0.723389 0.000000
vt 0.511230 0.723389 0.000000
vt 0.562744 0.723389 0.000000
vt 0.557617 0.591064 0.000000
vt 0.511230 0.723389 0.000000
vt 0.222900 0.836426 0.000000
vt 0.146484 0.723389 0.000000
vt 0.179688 0.836426 0.000000
vt 0.325439 0.834717 0.000000
vt 0.309570 0.722168 0.000000
vt 0.388428 0.722168 0.000000
vt 0.786865 0.734863 0.000000
vt 0.862549 0.734863 0.000000
vt 0.786865 0.626221 0.000000
vt 0.344971 0.151855 0.000000
vt 0.254639 0.052490 0.000000
vt 0.211426 0.139648 0.000000
vt 0.274658 0.969482 0.000000
vt 0.179688 0.836426 0.000000
vt 0.248291 0.969482 0.000000
vt 0.358154 0.967529 0.000000
vt 0.391602 0.834717 0.000000
vt 0.325439 0.834717 0.000000
vt 0.460938 0.969482 0.000000
vt 0.529541 0.836426 0.000000
vt 0.486328 0.836426 0.000000
vt 0.938477 0.734863 0.000000
vt 0.938477 0.626221 0.000000
vt 0.862549 0.734863 0.000000
vt 0.938477 0.626221 0.000000
vt 0.938477 0.734863 0.000000
vt 0.938477 0.825195 0.000000
vt 0.259766 0.969482 0.000000
vt 0.198730 0.836426 0.000000
vt 0.251709 0.836426 0.000000
vt 0.198730 0.836426 0.000000
vt 0.232178 0.723389 0.000000
vt 0.251709 0.836426 0.000000
vt 0.436523 0.591064 0.000000
vt 0.422607 0.464355 0.000000
vt 0.354492 0.464355 0.000000
vt 0.422607 0.464355 0.000000
vt 0.389160 0.310547 0.000000
vt 0.354492 0.464355 0.000000
vt 0.540039 0.590088 0.000000
vt 0.392334 0.463623 0.000000
vt 0.388916 0.590088 0.000000
vt 0.388916 0.590088 0.000000
vt 0.392334 0.463623 0.000000
vt 0.328613 0.463623 0.000000
vt 0.376465 0.969482 0.000000
vt 0.457520 0.836426 0.000000
vt 0.510498 0.836426 0.000000
vt 0.457520 0.836426 0.000000
vt 0.540283 0.723389 0.000000
vt 0.510498 0.836426 0.000000
vt 0.398438 0.967529 0.000000
vt 0.391602 0.834717 0.000000
vt 0.460205 0.834717 0.000000
vt 0.391602 0.834717 0.000000
vt 0.469971 0.722168 0.000000
vt 0.460205 0.834717 0.000000
vt 0.397461 0.969482 0.000000
vt 0.486328 0.836426 0.000000
vt 0.425293 0.836426 0.000000
vt 0.486328 0.836426 0.000000
vt 0.438477 0.723389 0.000000
vt 0.425293 0.836426 0.000000
vt 0.274658 0.969482 0.000000
vt 0.283936 0.836426 0.000000
vt 0.222900 0.836426 0.000000
vt 0.283936 0.836426 0.000000
vt 0.197998 0.723389 0.000000
vt 0.222900 0.836426 0.000000
vt 0.440186 0.967529 0.000000
vt 0.460205 0.834717 0.000000
vt 0.391602 0.834717 0.000000
vt 0.460205 0.834717 0.000000
vt 0.388428 0.722168 0.000000
vt 0.391602 0.834717 0.000000
vt 0.376465 0.969482 0.000000
vt 0.318604 0.836426 0.000000
vt 0.390381 0.836426 0.000000
vt 0.318604 0.836426 0.000000
vt 0.397217 0.723389 0.000000
vt 0.390381 0.836426 0.000000
vt 0.521729 0.834717 0.000000
vt 0.543213 0.722168 0.000000
vt 0.469971 0.722168 0.000000
vt 0.543213 0.722168 0.000000
vt 0.540039 0.590088 0.000000
vt 0.469971 0.722168 0.000000
vt 0.251709 0.836426 0.000000
vt 0.232178 0.723389 0.000000
vt 0.311768 0.723389 0.000000
vt 0.232178 0.723389 0.000000
vt 0.312988 0.591064 0.000000
vt 0.311768 0.723389 0.000000
vt 0.391602 0.834717 0.000000
vt 0.388428 0.722168 0.000000
vt 0.309570 0.722168 0.000000
vt 0.388428 0.722168 0.000000
vt 0.312012 0.590088 0.000000
vt 0.309570 0.722168 0.000000
vt 0.283936 0.836426 0.000000
vt 0.270508 0.723389 0.000000
vt 0.197998 0.723389 0.000000
vt 0.270508 0.723389 0.000000
vt 0.201660 0.591064 0.000000
vt 0.197998 0.723389 0.000000
vt 0.390381 0.836426 0.000000
vt 0.397217 0.723389 0.000000
vt 0.477051 0.723389 0.000000
vt 0.397217 0.723389 0.000000
vt 0.474121 0.591064 0.000000
vt 0.477051 0.723389 0.000000
vt 0.425293 0.836426 0.000000
vt 0.438477 0.723389 0.000000
vt 0.354492 0.723389 0.000000
vt 0.438477 0.723389 0.000000
vt 0.436523 0.591064 0.000000
vt 0.354492 0.723389 0.000000
vt 0.391602 0.834717 0.000000
vt 0.388428 0.722168 0.000000
vt 0.469971 0.722168 0.000000
vt 0.388428 0.722168 0.000000
vt 0.468506 0.590088 0.000000
vt 0.469971 0.722168 0.000000
vt 0.468506 0.590088 0.000000
vt 0.517578 0.463623 0.000000
vt 0.540039 0.590088 0.000000
vt 0.469971 0.722168 0.000000
vt 0.468506 0.590088 0.000000
vt 0.540039 0.590088 0.000000
vt 0.186035 0.464355 0.000000
vt 0.320068 0.310547 0.000000
vt 0.269043 0.310547 0.000000
vt 0.449707 0.310547 0.000000
vt 0.269043 0.310547 0.000000
vt 0.320068 0.310547 0.000000
vt 0.270508 0.723389 0.000000
vt 0.272705 0.591064 0.000000
vt 0.201660 0.591064 0.000000
vt 0.272705 0.591064 0.000000
vt 0.186035 0.464355 0.000000
vt 0.201660 0.591064 0.000000
vt 0.397217 0.723389 0.000000
vt 0.396240 0.591064 0.000000
vt 0.474121 0.591064 0.000000
vt 0.396240 0.591064 0.000000
vt 0.389160 0.464355 0.000000
vt 0.474121 0.591064 0.000000
vt 0.232178 0.723389 0.000000
vt 0.235107 0.591064 0.000000
vt 0.312988 0.591064 0.000000
vt 0.235107 0.591064 0.000000
vt 0.255615 0.464355 0.000000
vt 0.312988 0.591064 0.000000
vt 0.312012 0.590088 0.000000
vt 0.392334 0.463623 0.000000
vt 0.388916 0.590088 0.000000
vt 0.309570 0.722168 0.000000
vt 0.312012 0.590088 0.000000
vt 0.388916 0.590088 0.000000
vt 0.959717 0.147461 0.000000
vt 0.954834 0.186035 0.000000
vt 0.954834 0.058350 0.000000
vt 0.927246 0.267334 0.000000
vt 0.954834 0.236328 0.000000
vt 0.954834 0.186035 0.000000
vt 0.972656 0.194824 0.000000
vt 0.978760 0.147461 0.000000
vt 0.954834 0.236328 0.000000
vt 0.972656 0.100098 0.000000
vt 0.954834 0.058350 0.000000
vt 0.978760 0.147461 0.000000
vt 0.954834 0.186035 0.000000
vt 0.954834 0.236328 0.000000
vt 0.978760 0.147461 0.000000
vt 0.978760 0.147461 0.000000
vt 0.954834 0.058350 0.000000
vt 0.954834 0.186035 0.000000
vt 0.796631 0.186035 0.000000
vt 0.778809 0.100098 0.000000
vt 0.811279 0.219971 0.000000
vt 0.778809 0.100098 0.000000
vt 0.772461 0.147461 0.000000
vt 0.778809 0.194824 0.000000
vt 0.778809 0.194824 0.000000
vt 0.811279 0.219971 0.000000
vt 0.778809 0.100098 0.000000
vt 0.917725 0.049805 0.000000
vt 0.954834 0.058350 0.000000
vt 0.927246 0.027588 0.000000
vt 0.954834 0.108887 0.000000
vt 0.954834 0.058350 0.000000
vt 0.940186 0.074951 0.000000
vt 0.893555 0.283691 0.000000
vt 0.927246 0.267334 0.000000
vt 0.954834 0.186035 0.000000
vt 0.940186 0.219971 0.000000
vt 0.893555 0.283691 0.000000
vt 0.954834 0.186035 0.000000
vt 0.857910 0.283691 0.000000
vt 0.893555 0.283691 0.000000
vt 0.940186 0.219971 0.000000
vt 0.917725 0.245117 0.000000
vt 0.857910 0.283691 0.000000
vt 0.940186 0.219971 0.000000
vt 0.824219 0.267334 0.000000
vt 0.857910 0.283691 0.000000
vt 0.917725 0.245117 0.000000
vt 0.890381 0.258545 0.000000
vt 0.824219 0.267334 0.000000
vt 0.917725 0.245117 0.000000
vt 0.796631 0.236328 0.000000
vt 0.824219 0.267334 0.000000
vt 0.890381 0.258545 0.000000
vt 0.861084 0.258545 0.000000
vt 0.796631 0.236328 0.000000
vt 0.890381 0.258545 0.000000
vt 0.833740 0.245117 0.000000
vt 0.796631 0.236328 0.000000
vt 0.861084 0.258545 0.000000
vt 0.796631 0.236328 0.000000
vt 0.811279 0.219971 0.000000
vt 0.778809 0.194824 0.000000
vt 0.796631 0.236328 0.000000
vt 0.833740 0.245117 0.000000
vt 0.811279 0.219971 0.000000
vt 0.796631 0.058350 0.000000
vt 0.778809 0.100098 0.000000
vt 0.796631 0.186035 0.000000
vt 0.791748 0.147461 0.000000
vt 0.796631 0.058350 0.000000
vt 0.796631 0.186035 0.000000
vt 0.824219 0.027588 0.000000
vt 0.796631 0.058350 0.000000
vt 0.791748 0.147461 0.000000
vt 0.796631 0.108887 0.000000
vt 0.824219 0.027588 0.000000
vt 0.791748 0.147461 0.000000
vt 0.857910 0.011230 0.000000
vt 0.824219 0.027588 0.000000
vt 0.796631 0.108887 0.000000
vt 0.811279 0.074951 0.000000
vt 0.857910 0.011230 0.000000
vt 0.796631 0.108887 0.000000
vt 0.893555 0.011230 0.000000
vt 0.857910 0.011230 0.000000
vt 0.811279 0.074951 0.000000
vt 0.833740 0.049805 0.000000
vt 0.893555 0.011230 0.000000
vt 0.811279 0.074951 0.000000
vt 0.927246 0.027588 0.000000
vt 0.893555 0.011230 0.000000
vt 0.833740 0.049805 0.000000
vt 0.861084 0.036377 0.000000
vt 0.927246 0.027588 0.000000
vt 0.833740 0.049805 0.000000
vt 0.890381 0.036377 0.000000
vt 0.927246 0.027588 0.000000
vt 0.861084 0.036377 0.000000
vt 0.917725 0.049805 0.000000
vt 0.927246 0.027588 0.000000
vt 0.890381 0.036377 0.000000
vt 0.940186 0.074951 0.000000
vt 0.954834 0.058350 0.000000
vt 0.917725 0.049805 0.000000
vt 0.959717 0.147461 0.000000
vt 0.954834 0.058350 0.000000
vt 0.954834 0.108887 0.000000
vt 0.862549 0.734863 0.000000
vt 0.786865 0.626221 0.000000
vt 0.862549 0.493896 0.000000
vt 0.862549 0.493896 0.000000
vt 0.938477 0.626221 0.000000
vt 0.862549 0.734863 0.000000
vt 0.938477 0.734863 0.000000
vt 0.938477 0.825195 0.000000
vt 0.862549 0.734863 0.000000
vt 0.862549 0.397949 0.000000
vt 0.786865 0.493896 0.000000
vt 0.786865 0.397949 0.000000
vt 0.938477 0.397949 0.000000
vt 0.938477 0.493896 0.000000
vt 0.862549 0.397949 0.000000
vt 0.862549 0.493896 0.000000
vt 0.786865 0.626221 0.000000
vt 0.786865 0.493896 0.000000
vt 0.938477 0.493896 0.000000
vt 0.938477 0.626221 0.000000
vt 0.862549 0.493896 0.000000
vt 0.862549 0.825195 0.000000
vt 0.786865 0.825195 0.000000
vt 0.862549 0.734863 0.000000
vt 0.862549 0.734863 0.000000
vt 0.786865 0.825195 0.000000
vt 0.786865 0.734863 0.000000
vt 0.862549 0.825195 0.000000
vt 0.938477 0.825195 0.000000
vt 0.786865 0.825195 0.000000
vt 0.862549 0.734863 0.000000
vt 0.938477 0.825195 0.000000
vt 0.862549 0.825195 0.000000
vt 0.862549 0.493896 0.000000
vt 0.786865 0.493896 0.000000
vt 0.862549 0.397949 0.000000
vt 0.862549 0.397949 0.000000
vt 0.938477 0.493896 0.000000
vt 0.862549 0.493896 0.000000
vt 0.862549 0.734863 0.000000
vt 0.786865 0.734863 0.000000
vt 0.786865 0.626221 0.000000
vt 0.938477 0.626221 0.000000
vt 0.938477 0.734863 0.000000
vt 0.862549 0.734863 0.000000
vt 0.938477 0.734863 0.000000
vt 0.938477 0.626221 0.000000
vt 0.938477 0.825195 0.000000
vn -0.010010 -0.008545 0.999756
vn -0.010010 0.010498 0.999756
vn -0.007813 -0.028564 0.999512
vn -0.005127 -0.004883 -0.999756
vn -0.010498 -0.010010 -0.999756
vn -0.005859 -0.020508 -0.999756
vn 1.000000 0.000000 0.000000
vn 0.991699 0.127686 0.000000
vn 0.994873 0.099365 0.000000
vn -0.894287 0.000000 -0.447021
vn 0.994873 0.099365 0.000000
vn 0.991699 0.127686 0.000000
vn -0.010010 0.010498 0.999756
vn -0.010010 -0.008545 0.999756
vn -0.004639 0.010498 0.999756
vn -0.889160 -0.457275 0.000000
vn -0.889160 -0.457275 0.000000
vn -0.928711 -0.370361 0.000000
vn 0.000000 -0.894287 0.447021
vn 0.000000 0.242432 0.969971
vn 0.991699 0.127686 0.000000
vn 0.982910 -0.163818 -0.081787
vn 0.894287 -0.447021 0.000000
vn 1.000000 0.000000 0.000000
vn -1.000000 0.000000 0.000000
vn 1.000000 0.000000 0.000000
vn 0.894287 -0.447021 0.000000
vn 0.000000 0.000000 -1.000000
vn -0.002930 0.006836 -0.999756
vn -0.005127 -0.004883 -0.999756
vn -0.010498 -0.010010 -0.999756
vn -0.005127 -0.004883 -0.999756
vn -0.002930 0.006836 -0.999756
vn -0.007813 -0.028564 0.999512
vn 0.000000 -0.057617 0.998291
vn -0.010010 -0.008545 0.999756
vn -0.005859 -0.020508 -0.999756
vn 0.000000 0.000000 -1.000000
vn -0.005127 -0.004883 -0.999756
vn 0.995850 -0.089111 0.000000
vn 0.953125 0.302246 0.000000
vn 0.995850 -0.089111 0.000000
vn -0.004639 0.010498 0.999756
vn 0.000000 0.000000 1.000000
vn -0.010010 0.010498 0.999756
vn 1.000000 0.000000 0.000000
vn 0.994873 0.099365 0.000000
vn 0.982910 -0.163818 -0.081787
vn -0.894287 0.000000 -0.447021
vn -1.000000 0.000000 0.000000
vn 0.994873 0.099365 0.000000
vn 0.942627 -0.235596 0.235596
vn 1.000000 0.000000 0.000000
vn 0.991699 0.127686 0.000000
vn 0.942627 -0.235596 0.235596
vn 0.991699 0.127686 0.000000
vn 0.000000 -1.000000 0.000000
vn 0.000000 1.000000 0.000000
vn 0.000000 1.000000 0.000000
vn 0.000000 1.000000 0.000000
vn 0.000000 -0.894287 0.447021
vn 0.991699 0.127686 0.000000
vn 1.000000 0.000000 0.000000
vn -0.928711 -0.370361 0.000000
vn -0.928711 -0.370361 0.000000
vn -0.959717 -0.280273 0.000000
vn -0.928711 -0.370361 0.000000
vn -0.928711 -0.370361 0.000000
vn -0.889160 -0.457275 0.000000
vn 0.982910 -0.163818 -0.081787
vn 0.994873 0.099365 0.000000
vn 0.894287 -0.447021 0.000000
vn -1.000000 0.000000 0.000000
vn 0.894287 -0.447021 0.000000
vn 0.994873 0.099365 0.000000
vn 0.942139 0.334473 0.000000
vn 0.942139 0.334473 0.000000
vn 0.953125 0.302246 0.000000
vn 0.942139 0.334473 0.000000
vn 0.942139 0.334473 0.000000
vn 0.999756 -0.020996 0.000000
vn 0.000000 0.000000 -1.000000
vn 0.000000 0.000000 -1.000000
vn -0.002930 0.006836 -0.999756
vn -0.022217 -0.999512 0.000000
vn -0.022217 -0.999512 0.000000
vn -0.022217 -0.999512 0.000000
vn 0.999756 -0.020996 0.000000
vn 0.999756 -0.020996 0.000000
vn 0.942139 0.334473 0.000000
vn 0.000000 1.000000 0.000000
vn 0.000000 1.000000 0.000000
vn 0.000000 1.000000 0.000000
vn 0.000000 0.000000 1.000000
vn 0.000000 0.000000 1.000000
vn -0.004639 0.010498 0.999756
vn -0.022217 -0.999512 0.000000
vn -0.022217 -0.999512 0.000000
vn -0.022217 -0.999512 0.000000
vn 0.953125 0.302246 0.000000
vn 0.953125 0.302246 0.000000
vn 0.942139 0.334473 0.000000
vn 0.953125 0.302246 0.000000
vn 0.995850 -0.089111 0.000000
vn 0.953125 0.302246 0.000000
vn -0.959717 -0.280273 0.000000
vn -0.959717 -0.280273 0.000000
vn -0.928711 -0.370361 0.000000
vn 0.000000 1.000000 0.000000
vn 0.000000 1.000000 0.000000
vn 0.000000 1.000000 0.000000
vn 0.947998 0.100098 0.301270
vn 0.848145 -0.140381 0.510498
vn 0.986572 -0.159668 -0.030029
vn -0.669678 0.116699 -0.733154
vn -0.885498 -0.142822 -0.441895
vn -0.889404 0.116699 -0.441650
vn -0.791748 0.116699 0.599365
vn -0.553955 -0.121338 0.823486
vn -0.521729 0.116699 0.844727
vn 0.826416 0.335205 -0.451904
vn 0.692383 0.100098 -0.714355
vn 0.606201 0.358887 -0.709473
vn 0.808838 -0.360596 -0.463867
vn 0.435791 -0.899170 -0.036133
vn 0.336914 -0.653320 -0.677734
vn -0.791748 0.116699 0.599365
vn -0.790283 -0.142822 0.595459
vn -0.553955 -0.121338 0.823486
vn 0.834961 -0.140381 -0.531494
vn 0.470215 -0.329102 -0.818604
vn 0.331543 -0.144531 -0.932129
vn 0.606201 0.358887 -0.709473
vn 0.692383 0.100098 -0.714355
vn 0.390869 0.147217 -0.908447
vn -0.292236 -0.195801 -0.935791
vn -0.111816 -0.358643 -0.926514
vn -0.694092 -0.369629 -0.617432
vn 0.435791 -0.899170 -0.036133
vn -0.265625 -0.781006 -0.564697
vn 0.336914 -0.653320 -0.677734
vn -0.889404 0.116699 -0.441650
vn -0.984131 -0.121338 -0.128662
vn -0.988770 0.116699 -0.090332
vn -0.706299 0.704590 -0.065430
vn -0.888916 0.358887 0.284180
vn -0.509277 0.690674 0.512939
vn 0.523682 0.116699 0.843750
vn 0.848145 -0.140381 0.510498
vn 0.766602 0.147217 0.624512
vn -0.001221 0.999756 -0.007080
vn 0.635010 0.704590 -0.316162
vn 0.162842 0.690674 -0.704346
vn 0.523682 0.116699 0.843750
vn 0.492920 -0.156006 0.855713
vn 0.848145 -0.140381 0.510498
vn 0.193604 -0.366943 0.909668
vn -0.075684 -0.805664 0.587402
vn 0.486816 -0.689209 0.536133
vn -0.806152 -0.347900 0.478271
vn -0.552979 -0.759033 0.342773
vn -0.450928 -0.350098 0.820801
vn -0.111816 -0.358643 -0.926514
vn -0.265625 -0.781006 -0.564697
vn -0.694092 -0.369629 -0.617432
vn -0.034668 0.350098 -0.935791
vn -0.359619 0.116699 -0.925537
vn -0.338379 0.376953 -0.862061
vn -0.001221 0.999756 -0.007080
vn 0.162842 0.690674 -0.704346
vn -0.445557 0.714600 -0.539063
vn 0.208252 0.335205 0.918701
vn 0.523682 0.116699 0.843750
vn 0.522217 0.350098 0.777344
vn -0.463135 0.350098 0.813965
vn -0.181396 0.116699 0.976318
vn -0.166016 0.376953 0.911133
vn -0.988770 0.116699 -0.090332
vn -0.984131 -0.121338 -0.128662
vn -0.958008 -0.156006 0.239990
vn -0.984131 -0.121338 -0.128662
vn -0.933838 -0.356934 -0.014648
vn -0.958008 -0.156006 0.239990
vn 0.915283 0.335205 0.222656
vn 0.947998 0.100098 0.301270
vn 0.988770 0.116699 -0.092529
vn 0.203125 0.701416 0.682861
vn 0.741455 0.376953 0.554688
vn 0.662598 0.714600 0.223633
vn 0.947998 0.100098 0.301270
vn 0.986572 -0.159668 -0.030029
vn 0.988770 0.116699 -0.092529
vn 0.692383 0.100098 -0.714355
vn 0.834961 -0.140381 -0.531494
vn 0.331543 -0.144531 -0.932129
vn 0.758545 -0.367188 0.537842
vn 0.435791 -0.899170 -0.036133
vn 0.942383 -0.329102 0.055908
vn 0.193604 -0.366943 0.909668
vn 0.486816 -0.689209 0.536133
vn 0.758545 -0.367188 0.537842
vn -0.933838 -0.356934 -0.014648
vn -0.552979 -0.759033 0.342773
vn -0.806152 -0.347900 0.478271
vn 0.435791 -0.899170 -0.036133
vn -0.552979 -0.759033 0.342773
vn -0.558350 -0.805176 -0.198975
vn 0.331543 -0.144531 -0.932129
vn -0.111816 -0.358643 -0.926514
vn -0.292236 -0.195801 -0.935791
vn -0.034668 0.350098 -0.935791
vn 0.030273 0.100098 -0.994385
vn -0.359619 0.116699 -0.925537
vn -0.954834 0.116699 0.272705
vn -0.790283 -0.142822 0.595459
vn -0.791748 0.116699 0.599365
vn -0.509277 0.690674 0.512939
vn -0.888916 0.358887 0.284180
vn -0.729248 0.335205 0.595947
vn -0.660889 0.335205 -0.671143
vn -0.669678 0.116699 -0.733154
vn -0.889404 0.116699 -0.441650
vn -0.706299 0.704590 -0.065430
vn -0.848389 0.358887 -0.388672
vn -0.940674 0.335205 -0.050781
vn -0.181396 0.116699 0.976318
vn -0.211914 -0.156006 0.964600
vn 0.145264 -0.121338 0.981689
vn -0.450928 -0.350098 0.820801
vn -0.075684 -0.805664 0.587402
vn 0.193604 -0.366943 0.909668
vn -0.001221 0.999756 -0.007080
vn 0.203125 0.701416 0.682861
vn 0.662598 0.714600 0.223633
vn -0.509277 0.690674 0.512939
vn -0.463135 0.350098 0.813965
vn -0.166016 0.376953 0.911133
vn 0.926025 0.358887 -0.115967
vn 0.900879 0.147217 -0.407959
vn 0.826416 0.335205 -0.451904
vn -0.001221 0.999756 -0.007080
vn 0.662598 0.714600 0.223633
vn 0.635010 0.704590 -0.316162
vn -0.181396 0.116699 0.976318
vn 0.145264 -0.121338 0.981689
vn 0.183350 0.116699 0.975830
vn -0.166016 0.376953 0.911133
vn -0.181396 0.116699 0.976318
vn 0.183350 0.116699 0.975830
vn 0.808838 -0.360596 -0.463867
vn 0.336914 -0.653320 -0.677734
vn 0.470215 -0.329102 -0.818604
vn -0.111816 -0.358643 -0.926514
vn 0.336914 -0.653320 -0.677734
vn -0.265625 -0.781006 -0.564697
vn -0.933838 -0.356934 -0.014648
vn -0.558350 -0.805176 -0.198975
vn -0.552979 -0.759033 0.342773
vn -0.694092 -0.369629 -0.617432
vn -0.558350 -0.805176 -0.198975
vn -0.933838 -0.356934 -0.014648
vn 0.988770 0.116699 -0.092529
vn 0.986572 -0.159668 -0.030029
vn 0.834961 -0.140381 -0.531494
vn 0.942383 -0.329102 0.055908
vn 0.435791 -0.899170 -0.036133
vn 0.808838 -0.360596 -0.463867
vn 0.522217 0.350098 0.777344
vn 0.523682 0.116699 0.843750
vn 0.766602 0.147217 0.624512
vn 0.741455 0.376953 0.554688
vn 0.947998 0.100098 0.301270
vn 0.915283 0.335205 0.222656
vn -0.848389 0.358887 -0.388672
vn -0.988770 0.116699 -0.090332
vn -0.940674 0.335205 -0.050781
vn -0.888916 0.358887 0.284180
vn -0.954834 0.116699 0.272705
vn -0.791748 0.116699 0.599365
vn 0.162842 0.690674 -0.704346
vn -0.034668 0.350098 -0.935791
vn -0.338379 0.376953 -0.862061
vn 0.635010 0.704590 -0.316162
vn 0.606201 0.358887 -0.709473
vn 0.162842 0.690674 -0.704346
vn 0.030273 0.100098 -0.994385
vn -0.292236 -0.195801 -0.935791
vn -0.359619 0.116699 -0.925537
vn -0.669678 0.116699 -0.733154
vn -0.638916 -0.151123 -0.754150
vn -0.885498 -0.142822 -0.441895
vn 0.692383 0.100098 -0.714355
vn 0.331543 -0.144531 -0.932129
vn 0.390869 0.147217 -0.908447
vn 0.030273 0.100098 -0.994385
vn 0.331543 -0.144531 -0.932129
vn -0.292236 -0.195801 -0.935791
vn -0.001221 0.999756 -0.007080
vn -0.509277 0.690674 0.512939
vn 0.203125 0.701416 0.682861
vn -0.001221 0.999756 -0.007080
vn -0.706299 0.704590 -0.065430
vn -0.509277 0.690674 0.512939
vn 0.162842 0.690674 -0.704346
vn -0.338379 0.376953 -0.862061
vn -0.445557 0.714600 -0.539063
vn -0.445557 0.714600 -0.539063
vn -0.660889 0.335205 -0.671143
vn -0.848389 0.358887 -0.388672
vn -0.638916 -0.151123 -0.754150
vn -0.694092 -0.369629 -0.617432
vn -0.885498 -0.142822 -0.441895
vn -0.885498 -0.142822 -0.441895
vn -0.694092 -0.369629 -0.617432
vn -0.933838 -0.356934 -0.014648
vn -0.211914 -0.156006 0.964600
vn -0.450928 -0.350098 0.820801
vn 0.193604 -0.366943 0.909668
vn -0.790283 -0.142822 0.595459
vn -0.450928 -0.350098 0.820801
vn -0.553955 -0.121338 0.823486
vn 0.492920 -0.156006 0.855713
vn 0.193604 -0.366943 0.909668
vn 0.758545 -0.367188 0.537842
vn -0.211914 -0.156006 0.964600
vn 0.193604 -0.366943 0.909668
vn 0.145264 -0.121338 0.981689
vn 0.848145 -0.140381 0.510498
vn 0.758545 -0.367188 0.537842
vn 0.942383 -0.329102 0.055908
vn 0.492920 -0.156006 0.855713
vn 0.758545 -0.367188 0.537842
vn 0.848145 -0.140381 0.510498
vn 0.834961 -0.140381 -0.531494
vn 0.808838 -0.360596 -0.463867
vn 0.470215 -0.329102 -0.818604
vn 0.986572 -0.159668 -0.030029
vn 0.808838 -0.360596 -0.463867
vn 0.834961 -0.140381 -0.531494
vn 0.435791 -0.899170 -0.036133
vn 0.486816 -0.689209 0.536133
vn -0.075684 -0.805664 0.587402
vn 0.758545 -0.367188 0.537842
vn 0.486816 -0.689209 0.536133
vn 0.435791 -0.899170 -0.036133
vn 0.662598 0.714600 0.223633
vn 0.741455 0.376953 0.554688
vn 0.915283 0.335205 0.222656
vn 0.662598 0.714600 0.223633
vn 0.926025 0.358887 -0.115967
vn 0.635010 0.704590 -0.316162
vn -0.509277 0.690674 0.512939
vn -0.166016 0.376953 0.911133
vn 0.203125 0.701416 0.682861
vn 0.203125 0.701416 0.682861
vn 0.208252 0.335205 0.918701
vn 0.522217 0.350098 0.777344
vn -0.888916 0.358887 0.284180
vn -0.791748 0.116699 0.599365
vn -0.729248 0.335205 0.595947
vn -0.729248 0.335205 0.595947
vn -0.791748 0.116699 0.599365
vn -0.521729 0.116699 0.844727
vn -0.450928 -0.350098 0.820801
vn -0.552979 -0.759033 0.342773
vn -0.075684 -0.805664 0.587402
vn 0.435791 -0.899170 -0.036133
vn -0.075684 -0.805664 0.587402
vn -0.552979 -0.759033 0.342773
vn 0.162842 0.690674 -0.704346
vn 0.306152 0.335205 -0.890625
vn -0.034668 0.350098 -0.935791
vn 0.306152 0.335205 -0.890625
vn 0.030273 0.100098 -0.994385
vn -0.034668 0.350098 -0.935791
vn -0.958008 -0.156006 0.239990
vn -0.933838 -0.356934 -0.014648
vn -0.806152 -0.347900 0.478271
vn -0.790283 -0.142822 0.595459
vn -0.806152 -0.347900 0.478271
vn -0.450928 -0.350098 0.820801
vn 0.826416 0.335205 -0.451904
vn 0.900879 0.147217 -0.407959
vn 0.692383 0.100098 -0.714355
vn 0.900879 0.147217 -0.407959
vn 0.834961 -0.140381 -0.531494
vn 0.692383 0.100098 -0.714355
vn -0.660889 0.335205 -0.671143
vn -0.889404 0.116699 -0.441650
vn -0.848389 0.358887 -0.388672
vn -0.848389 0.358887 -0.388672
vn -0.889404 0.116699 -0.441650
vn -0.988770 0.116699 -0.090332
vn 0.000000 -1.000000 0.000000
vn 0.991699 0.127686 0.000000
vn 1.000000 0.000000 0.000000
vn -0.001221 0.999756 -0.007080
vn -0.445557 0.714600 -0.539063
vn -0.706299 0.704590 -0.065430
vn -0.445557 0.714600 -0.539063
vn -0.848389 0.358887 -0.388672
vn -0.706299 0.704590 -0.065430
vn 0.635010 0.704590 -0.316162
vn 0.926025 0.358887 -0.115967
vn 0.826416 0.335205 -0.451904
vn 0.635010 0.704590 -0.316162
vn 0.826416 0.335205 -0.451904
vn 0.606201 0.358887 -0.709473
vn 0.000000 0.242432 0.969971
vn -0.894287 0.000000 -0.447021
vn 0.991699 0.127686 0.000000
vn 0.000000 0.000000 -1.000000
vn 0.000000 0.000000 -1.000000
vn 0.000000 0.000000 -1.000000
vn -0.509277 0.690674 0.512939
vn -0.729248 0.335205 0.595947
vn -0.463135 0.350098 0.813965
vn -0.729248 0.335205 0.595947
vn -0.521729 0.116699 0.844727
vn -0.463135 0.350098 0.813965
vn 0.331543 -0.144531 -0.932129
vn 0.470215 -0.329102 -0.818604
vn -0.111816 -0.358643 -0.926514
vn 0.470215 -0.329102 -0.818604
vn 0.336914 -0.653320 -0.677734
vn -0.111816 -0.358643 -0.926514
vn 0.848145 -0.140381 0.510498
vn 0.942383 -0.329102 0.055908
vn 0.986572 -0.159668 -0.030029
vn 0.986572 -0.159668 -0.030029
vn 0.942383 -0.329102 0.055908
vn 0.808838 -0.360596 -0.463867
vn 0.203125 0.701416 0.682861
vn 0.522217 0.350098 0.777344
vn 0.741455 0.376953 0.554688
vn 0.522217 0.350098 0.777344
vn 0.766602 0.147217 0.624512
vn 0.741455 0.376953 0.554688
vn -0.706299 0.704590 -0.065430
vn -0.940674 0.335205 -0.050781
vn -0.888916 0.358887 0.284180
vn -0.940674 0.335205 -0.050781
vn -0.954834 0.116699 0.272705
vn -0.888916 0.358887 0.284180
vn 0.162842 0.690674 -0.704346
vn 0.606201 0.358887 -0.709473
vn 0.306152 0.335205 -0.890625
vn 0.606201 0.358887 -0.709473
vn 0.390869 0.147217 -0.908447
vn 0.306152 0.335205 -0.890625
vn -0.445557 0.714600 -0.539063
vn -0.338379 0.376953 -0.862061
vn -0.660889 0.335205 -0.671143
vn -0.338379 0.376953 -0.862061
vn -0.669678 0.116699 -0.733154
vn -0.660889 0.335205 -0.671143
vn 0.662598 0.714600 0.223633
vn 0.915283 0.335205 0.222656
vn 0.926025 0.358887 -0.115967
vn 0.915283 0.335205 0.222656
vn 0.988770 0.116699 -0.092529
vn 0.926025 0.358887 -0.115967
vn 0.203125 0.701416 0.682861
vn -0.166016 0.376953 0.911133
vn 0.208252 0.335205 0.918701
vn -0.166016 0.376953 0.911133
vn 0.183350 0.116699 0.975830
vn 0.208252 0.335205 0.918701
vn 0.741455 0.376953 0.554688
vn 0.766602 0.147217 0.624512
vn 0.947998 0.100098 0.301270
vn 0.766602 0.147217 0.624512
vn 0.848145 -0.140381 0.510498
vn 0.947998 0.100098 0.301270
vn -0.463135 0.350098 0.813965
vn -0.521729 0.116699 0.844727
vn -0.181396 0.116699 0.976318
vn -0.521729 0.116699 0.844727
vn -0.211914 -0.156006 0.964600
vn -0.181396 0.116699 0.976318
vn 0.926025 0.358887 -0.115967
vn 0.988770 0.116699 -0.092529
vn 0.900879 0.147217 -0.407959
vn 0.988770 0.116699 -0.092529
vn 0.834961 -0.140381 -0.531494
vn 0.900879 0.147217 -0.407959
vn -0.338379 0.376953 -0.862061
vn -0.359619 0.116699 -0.925537
vn -0.669678 0.116699 -0.733154
vn -0.359619 0.116699 -0.925537
vn -0.638916 -0.151123 -0.754150
vn -0.669678 0.116699 -0.733154
vn 0.208252 0.335205 0.918701
vn 0.183350 0.116699 0.975830
vn 0.523682 0.116699 0.843750
vn 0.183350 0.116699 0.975830
vn 0.492920 -0.156006 0.855713
vn 0.523682 0.116699 0.843750
vn 0.306152 0.335205 -0.890625
vn 0.390869 0.147217 -0.908447
vn 0.030273 0.100098 -0.994385
vn 0.390869 0.147217 -0.908447
vn 0.331543 -0.144531 -0.932129
vn 0.030273 0.100098 -0.994385
vn -0.940674 0.335205 -0.050781
vn -0.988770 0.116699 -0.090332
vn -0.954834 0.116699 0.272705
vn -0.988770 0.116699 -0.090332
vn -0.958008 -0.156006 0.239990
vn -0.954834 0.116699 0.272705
vn -0.958008 -0.156006 0.239990
vn -0.806152 -0.347900 0.478271
vn -0.790283 -0.142822 0.595459
vn -0.954834 0.116699 0.272705
vn -0.958008 -0.156006 0.239990
vn -0.790283 -0.142822 0.595459
vn -0.694092 -0.369629 -0.617432
vn -0.265625 -0.781006 -0.564697
vn -0.558350 -0.805176 -0.198975
vn 0.435791 -0.899170 -0.036133
vn -0.558350 -0.805176 -0.198975
vn -0.265625 -0.781006 -0.564697
vn -0.359619 0.116699 -0.925537
vn -0.292236 -0.195801 -0.935791
vn -0.638916 -0.151123 -0.754150
vn -0.292236 -0.195801 -0.935791
vn -0.694092 -0.369629 -0.617432
vn -0.638916 -0.151123 -0.754150
vn 0.183350 0.116699 0.975830
vn 0.145264 -0.121338 0.981689
vn 0.492920 -0.156006 0.855713
vn 0.145264 -0.121338 0.981689
vn 0.193604 -0.366943 0.909668
vn 0.492920 -0.156006 0.855713
vn -0.521729 0.116699 0.844727
vn -0.553955 -0.121338 0.823486
vn -0.211914 -0.156006 0.964600
vn -0.553955 -0.121338 0.823486
vn -0.450928 -0.350098 0.820801
vn -0.211914 -0.156006 0.964600
vn -0.885498 -0.142822 -0.441895
vn -0.933838 -0.356934 -0.014648
vn -0.984131 -0.121338 -0.128662
vn -0.889404 0.116699 -0.441650
vn -0.885498 -0.142822 -0.441895
vn -0.984131 -0.121338 -0.128662
vn 0.000000 0.156250 -0.987549
vn 0.000000 0.156250 -0.987549
vn 0.000000 0.156250 -0.987549
vn 0.000000 -0.156250 0.987549
vn 0.000000 -0.156250 0.987549
vn 0.000000 -0.156250 0.987549
vn 0.000000 -0.156250 0.987549
vn 0.000000 -0.156250 0.987549
vn 0.000000 -0.156250 0.987549
vn 0.000000 -0.156250 0.987549
vn 0.000000 -0.156250 0.987549
vn 0.000000 -0.156250 0.987549
vn 0.000000 -0.156250 0.987549
vn 0.000000 -0.156250 0.987549
vn 0.000000 -0.156250 0.987549
vn 0.000000 -0.156250 0.987549
vn 0.000000 -0.156250 0.987549
vn 0.000000 -0.156250 0.987549
vn 0.000000 0.156250 -0.987549
vn 0.000000 0.156250 -0.987549
vn 0.000000 0.156250 -0.987549
vn 0.000000 -0.156250 0.987549
vn 0.000000 -0.156250 0.987549
vn 0.000000 -0.156250 0.987549
vn 0.000000 -0.156250 0.987549
vn 0.000000 -0.156250 0.987549
vn 0.000000 -0.156250 0.987549
vn 0.000000 -0.156250 0.987549
vn 0.000000 -0.156250 0.987549
vn 0.000000 -0.156250 0.987549
vn 0.000000 -0.156250 0.987549
vn 0.000000 -0.156250 0.987549
vn 0.000000 -0.156250 0.987549
vn 0.000000 -0.156250 0.987549
vn 0.000000 -0.156250 0.987549
vn 0.000000 -0.156250 0.987549
vn 0.000000 0.156250 -0.987549
vn 0.000000 0.156250 -0.987549
vn 0.000000 0.156250 -0.987549
vn 0.000000 -0.156250 0.987549
vn 0.000000 -0.156250 0.987549
vn 0.000000 -0.156250 0.987549
vn 0.000000 0.156250 -0.987549
vn 0.000000 0.156250 -0.987549
vn 0.000000 0.156250 -0.987549
vn 0.000000 -0.156250 0.987549
vn 0.000000 -0.156250 0.987549
vn 0.000000 -0.156250 0.987549
vn 0.000000 0.156250 -0.987549
vn 0.000000 0.156250 -0.987549
vn 0.000000 0.156250 -0.987549
vn 0.000000 -0.156250 0.987549
vn 0.000000 -0.156250 0.987549
vn 0.000000 -0.156250 0.987549
vn 0.000000 0.156250 -0.987549
vn 0.000000 0.156250 -0.987549
vn 0.000000 0.156250 -0.987549
vn 0.000000 -0.156250 0.987549
vn 0.000000 -0.156250 0.987549
vn 0.000000 -0.156250 0.987549
vn 0.000000 -0.156250 0.987549
vn 0.000000 -0.156250 0.987549
vn 0.000000 -0.156250 0.987549
vn 0.000000 -0.156250 0.987549
vn 0.000000 -0.156250 0.987549
vn 0.000000 -0.156250 0.987549
vn 0.000000 -0.156250 0.987549
vn 0.000000 -0.156250 0.987549
vn 0.000000 -0.156250 0.987549
vn 0.000000 0.156250 -0.987549
vn 0.000000 0.156250 -0.987549
vn 0.000000 0.156250 -0.987549
vn 0.000000 -0.156250 0.987549
vn 0.000000 -0.156250 0.987549
vn 0.000000 -0.156250 0.987549
vn 0.000000 0.156250 -0.987549
vn 0.000000 0.156250 -0.987549
vn 0.000000 0.156250 -0.987549
vn 0.000000 -0.156250 0.987549
vn 0.000000 -0.156250 0.987549
vn 0.000000 -0.156250 0.987549
vn 0.000000 0.156250 -0.987549
vn 0.000000 0.156250 -0.987549
vn 0.000000 0.156250 -0.987549
vn 0.000000 -0.156250 0.987549
vn 0.000000 -0.156250 0.987549
vn 0.000000 -0.156250 0.987549
vn 0.000000 0.156250 -0.987549
vn 0.000000 0.156250 -0.987549
vn 0.000000 0.156250 -0.987549
vn 0.000000 -0.156250 0.987549
vn 0.000000 -0.156250 0.987549
vn 0.000000 -0.156250 0.987549
vn 0.000000 0.156250 -0.987549
vn 0.000000 0.156250 -0.987549
vn 0.000000 0.156250 -0.987549
vn 0.000000 -0.156250 0.987549
vn 0.000000 -0.156250 0.987549
vn 0.000000 -0.156250 0.987549
vn 0.000000 -0.156250 0.987549
vn 0.000000 -0.156250 0.987549
vn 0.000000 -0.156250 0.987549
vn 0.000000 -0.156250 0.987549
vn 0.000000 -0.156250 0.987549
vn 0.000000 -0.156250 0.987549
vn 0.000000 -0.156250 0.987549
vn 0.000000 -0.156250 0.987549
vn 0.000000 -0.156250 0.987549
vn 0.991699 0.127686 0.000000
vn 1.000000 0.000000 0.000000
vn 0.994873 0.099365 0.000000
vn 0.994873 0.099365 0.000000
vn -0.894287 0.000000 -0.447021
vn 0.991699 0.127686 0.000000
vn 0.000000 0.242432 0.969971
vn 0.000000 -0.894287 0.447021
vn 0.991699 0.127686 0.000000
vn 0.894287 -0.447021 0.000000
vn 0.982910 -0.163818 -0.081787
vn 1.000000 0.000000 0.000000
vn 1.000000 0.000000 0.000000
vn -1.000000 0.000000 0.000000
vn 0.894287 -0.447021 0.000000
vn 0.994873 0.099365 0.000000
vn 1.000000 0.000000 0.000000
vn 0.982910 -0.163818 -0.081787
vn -1.000000 0.000000 0.000000
vn -0.894287 0.000000 -0.447021
vn 0.994873 0.099365 0.000000
vn 1.000000 0.000000 0.000000
vn 0.942627 -0.235596 0.235596
vn 0.991699 0.127686 0.000000
vn 0.991699 0.127686 0.000000
vn 0.942627 -0.235596 0.235596
vn 0.000000 -1.000000 0.000000
vn 0.000000 -1.000000 0.000000
vn 0.000000 -1.000000 0.000000
vn 0.000000 -1.000000 0.000000
vn 0.991699 0.127686 0.000000
vn 0.000000 -0.894287 0.447021
vn 1.000000 0.000000 0.000000
vn 0.994873 0.099365 0.000000
vn 0.982910 -0.163818 -0.081787
vn 0.894287 -0.447021 0.000000
vn 0.894287 -0.447021 0.000000
vn -1.000000 0.000000 0.000000
vn 0.994873 0.099365 0.000000
vn 0.991699 0.127686 0.000000
vn 0.000000 -1.000000 0.000000
vn 1.000000 0.000000 0.000000
vn -0.894287 0.000000 -0.447021
vn 0.000000 0.242432 0.969971
vn 0.991699 0.127686 0.000000
vn 0.000000 0.000000 1.000000
vn 0.000000 0.000000 1.000000
vn 0.000000 0.000000 1.000000
usemtl Texture
f 1/1/1 2/2/2 3/3/3
f 4/4/4 5/5/5 6/6/6
f 7/7/7 8/8/8 9/9/9
f 10/10/10 11/11/11 12/12/12
f 13/13/13 14/14/14 15/15/15
f 16/16/16 17/17/17 18/18/18
f 19/19/19 20/20/20 21/21/21
f 22/22/22 23/23/23 24/24/24
f 25/25/25 26/26/26 27/27/27
f 28/28/28 29/29/29 30/30/30
f 31/31/31 32/32/32 33/33/33
f 34/34/34 35/35/35 36/36/36
f 37/37/37 38/38/38 39/39/39
f 40/40/40 41/41/41 42/42/42
f 43/43/43 44/44/44 45/45/45
f 46/46/46 47/47/47 48/48/48
f 49/49/49 50/50/50 51/51/51
f 52/52/52 53/53/53 54/54/54
f 55/55/55 56/56/56 57/57/57
f 58/58/58 59/59/59 60/60/60
f 61/61/61 62/62/62 63/63/63
f 64/64/64 65/65/65 66/66/66
f 67/67/67 68/68/68 69/69/69
f 70/70/70 71/71/71 72/72/72
f 73/73/73 74/74/74 75/75/75
f 76/76/76 77/77/77 78/78/78
f 79/79/79 80/80/80 81/81/81
f 82/82/82 83/83/83 84/84/84
f 85/85/85 86/86/86 87/87/87
f 88/88/88 89/89/89 90/90/90
f 91/91/91 92/92/92 93/93/93
f 94/94/94 95/95/95 96/96/96
f 97/97/97 98/98/98 99/99/99
f 100/100/100 101/101/101 102/102/102
f 103/103/103 104/104/104 105/105/105
f 106/106/106 107/107/107 108/108/108
f 109/109/109 110/110/110 111/111/111
f 112/112/112 113/113/113 114/114/114
f 115/115/115 116/116/116 117/117/117
f 118/118/118 119/119/119 120/120/120
f 121/121/121 122/122/122 123/123/123
f 124/124/124 125/125/125 126/126/126
f 127/127/127 128/128/128 129/129/129
f 130/130/130 131/131/131 132/132/132
f 133/133/133 134/134/134 135/135/135
f 136/136/136 137/137/137 138/138/138
f 139/139/139 140/140/140 141/141/141
f 142/142/142 143/143/143 144/144/144
f 145/145/145 146/146/146 147/147/147
f 148/148/148 149/149/149 150/150/150
f 151/151/151 152/152/152 153/153/153
f 154/154/154 155/155/155 156/156/156
f 157/157/157 158/158/158 159/159/159
f 160/160/160 161/161/161 162/162/162
f 163/163/163 164/164/164 165/165/165
f 166/166/166 167/167/167 168/168/168
f 169/169/169 170/170/170 171/171/171
f 172/172/172 173/173/173 174/174/174
f 175/175/175 176/176/176 177/177/177
f 178/178/178 179/179/179 180/180/180
f 181/181/181 182/182/182 183/183/183
f 184/184/184 185/185/185 186/186/186
f 187/187/187 188/188/188 189/189/189
f 190/190/190 191/191/191 192/192/192
f 193/193/193 194/194/194 195/195/195
f 196/196/196 197/197/197 198/198/198
f 199/199/199 200/200/200 201/201/201
f 202/202/202 203/203/203 204/204/204
f 205/205/205 206/206/206 207/207/207
f 208/208/208 209/209/209 210/210/210
f 211/211/211 212/212/212 213/213/213
f 214/214/214 215/215/215 216/216/216
f 217/217/217 218/218/218 219/219/219
f 220/220/220 221/221/221 222/222/222
f 223/223/223 224/224/224 225/225/225
f 226/226/226 227/227/227 228/228/228
f 229/229/229 230/230/230 231/231/231
f 232/232/232 233/233/233 234/234/234
f 235/235/235 236/236/236 237/237/237
f 238/238/238 239/239/239 240/240/240
f 241/241/241 242/242/242 243/243/243
f 244/244/244 245/245/245 246/246/246
f 247/247/247 248/248/248 249/249/249
f 250/250/250 251/251/251 252/252/252
f 253/253/253 254/254/254 255/255/255
f 256/256/256 257/257/257 258/258/258
f 259/259/259 260/260/260 261/261/261
f 262/262/262 263/263/263 264/264/264
f 265/265/265 266/266/266 267/267/267
f 268/268/268 269/269/269 270/270/270
f 271/271/271 272/272/272 273/273/273
f 274/274/274 275/275/275 276/276/276
f 277/277/277 278/278/278 279/279/279
f 280/280/280 281/281/281 282/282/282
f 283/283/283 284/284/284 285/285/285
f 286/286/286 287/287/287 288/288/288
f 289/289/289 290/290/290 291/291/291
f 292/292/292 293/293/293 294/294/294
f 295/295/295 296/296/296 297/297/297
f 298/298/298 299/299/299 300/300/300
f 301/301/301 302/302/302 303/303/303
f 304/304/304 305/305/305 306/306/306
f 307/307/307 308/308/308 309/309/309
f 310/310/310 311/311/311 312/312/312
f 313/313/313 314/314/314 315/315/315
f 316/316/316 317/317/317 318/318/318
f 319/319/319 320/320/320 321/321/321
f 322/322/322 323/323/323 324/324/324
f 325/325/325 326/326/326 327/327/327
f 328/328/328 329/329/329 330/330/330
f 331/331/331 332/332/332 333/333/333
f 334/334/334 335/335/335 336/336/336
f 337/337/337 338/338/338 339/339/339
f 340/340/340 341/341/341 342/342/342
f 343/343/343 344/344/344 345/345/345
f 346/346/346 347/347/347 348/348/348
f 349/349/349 350/350/350 351/351/351
f 352/352/352 353/353/353 354/354/354
f 355/355/355 356/356/356 357/357/357
f 358/358/358 359/359/359 360/360/360
f 361/361/361 362/362/362 363/363/363
f 364/364/364 365/365/365 366/366/366
f 367/367/367 368/368/368 369/369/369
f 370/370/370 371/371/371 372/372/372
f 373/373/373 374/374/374 375/375/375
f 376/376/376 377/377/377 378/378/378
f 379/379/379 380/380/380 381/381/381
f 382/382/382 383/383/383 384/384/384
f 385/385/385 386/386/386 387/387/387
f 388/388/388 389/389/389 390/390/390
f 391/391/391 392/392/392 393/393/393
f 394/394/394 395/395/395 396/396/396
f 397/397/397 398/398/398 399/399/399
f 400/400/400 401/401/401 402/402/402
f 403/403/403 404/404/404 405/405/405
f 406/406/406 407/407/407 408/408/408
f 409/409/409 410/410/410 411/411/411
f 412/412/412 413/413/413 414/414/414
f 415/415/415 416/416/416 417/417/417
f 418/418/418 419/419/419 420/420/420
f 421/421/421 422/422/422 423/423/423
f 424/424/424 425/425/425 426/426/426
f 427/427/427 428/428/428 429/429/429
f 430/430/430 431/431/431 432/432/432
f 433/433/433 434/434/434 435/435/435
f 436/436/436 437/437/437 438/438/438
f 439/439/439 440/440/440 441/441/441
f 442/442/442 443/443/443 444/444/444
f 445/445/445 446/446/446 447/447/447
f 448/448/448 449/449/449 450/450/450
f 451/451/451 452/452/452 453/453/453
f 454/454/454 455/455/455 456/456/456
f 457/457/457 458/458/458 459/459/459
f 460/460/460 461/461/461 462/462/462
f 463/463/463 464/464/464 465/465/465
f 466/466/466 467/467/467 468/468/468
f 469/469/469 470/470/470 471/471/471
f 472/472/472 473/473/473 474/474/474
f 475/475/475 476/476/476 477/477/477
f 478/478/478 479/479/479 480/480/480
f 481/481/481 482/482/482 483/483/483
f 484/484/484 485/485/485 486/486/486
f 487/487/487 488/488/488 489/489/489
f 490/490/490 491/491/491 492/492/492
f 493/493/493 494/494/494 495/495/495
f 496/496/496 497/497/497 498/498/498
f 499/499/499 500/500/500 501/501/501
f 502/502/502 503/503/503 504/504/504
f 505/505/505 506/506/506 507/507/507
f 508/508/508 509/509/509 510/510/510
f 511/511/511 512/512/512 513/513/513
f 514/514/514 515/515/515 516/516/516
f 517/517/517 518/518/518 519/519/519
f 520/520/520 521/521/521 522/522/522
f 523/523/523 524/524/524 525/525/525
f 526/526/526 527/527/527 528/528/528
f 529/529/529 530/530/530 531/531/531
f 532/532/532 533/533/533 534/534/534
f 535/535/535 536/536/536 537/537/537
f 538/538/538 539/539/539 540/540/540
f 541/541/541 542/542/542 543/543/543
f 544/544/544 545/545/545 546/546/546
f 547/547/547 548/548/548 549/549/549
f 550/550/550 551/551/551 552/552/552
f 553/553/553 554/554/554 555/555/555
f 556/556/556 557/557/557 558/558/558
f 559/559/559 560/560/560 561/561/561
f 562/562/562 563/563/563 564/564/564
f 565/565/565 566/566/566 567/567/567
f 568/568/568 569/569/569 570/570/570
f 571/571/571 572/572/572 573/573/573
f 574/574/574 575/575/575 576/576/576
f 577/577/577 578/578/578 579/579/579
f 580/580/580 581/581/581 582/582/582
f 583/583/583 584/584/584 585/585/585
f 586/586/586 587/587/587 588/588/588
f 589/589/589 590/590/590 591/591/591
f 592/592/592 593/593/593 594/594/594
f 595/595/595 596/596/596 597/597/597
f 598/598/598 599/599/599 600/600/600
f 601/601/601 602/602/602 603/603/603
f 604/604/604 605/605/605 606/606/606
f 607/607/607 608/608/608 609/609/609
f 610/610/610 611/611/611 612/612/612
f 613/613/613 614/614/614 615/615/615
f 616/616/616 617/617/617 618/618/618
f 619/619/619 620/620/620 621/621/621
f 622/622/622 623/623/623 624/624/624
f 625/625/625 626/626/626 627/627/627
f 628/628/628 629/629/629 630/630/630
f 631/631/631 632/632/632 633/633/633
f 634/634/634 635/635/635 636/636/636
f 637/637/637 638/638/638 639/639/639
f 640/640/640 641/641/641 642/642/642
f 643/643/643 644/644/644 645/645/645
f 646/646/646 647/647/647 648/648/648
f 649/649/649 650/650/650 651/651/651
f 652/652/652 653/653/653 654/654/654
f 655/655/655 656/656/656 657/657/657
f 658/658/658 659/659/659 660/660/660
f 661/661/661 662/662/662 663/663/663
f 664/664/664 665/665/665 666/666/666
f 667/667/667 668/668/668 669/669/669
f 670/670/670 671/671/671 672/672/672
f 673/673/673 674/674/674 675/675/675
f 676/676/676 677/677/677 678/678/678
f 679/679/679 680/680/680 681/681/681
f 682/682/682 683/683/683 684/684/684
f 685/685/685 686/686/686 687/687/687
f 688/688/688 689/689/689 690/690/690
f 691/691/691 692/692/692 693/693/693
f 694/694/694 695/695/695 696/696/696
f 697/697/697 698/698/698 699/699/699
f 700/700/700 701/701/701 702/702/702