# OBJ file
mtllib icon.icn.mtl
v -0.082031 1.875732 0.226074 0.247059 0.247059 0.247059 #0.000000
v -1.911377 0.672119 0.226074 0.247059 0.247059 0.247059 #0.000000
v -1.857666 0.585449 0.226074 0.247059 0.247059 0.247059 #0.000000
v -1.857666 0.585449 0.226074 0.247059 0.247059 0.247059 #0.000000
v 1.960938 0.620361 0.226074 0.247059 0.247059 0.247059 #0.000000
v -0.082031 1.875732 0.226074 0.247059 0.247059 0.247059 #0.000000
v -0.082031 1.875732 0.226074 0.247059 0.247059 0.247059 #0.000000
v 1.960938 0.620361 0.226074 0.247059 0.247059 0.247059 #0.000000
v 2.009766 0.659424 0.226074 0.247059 0.247059 0.247059 #0.000000
v -0.082031 1.875732 0.226074 0.247059 0.247059 0.247059 #0.000000
v 2.009766 0.659424 0.226074 0.247059 0.247059 0.247059 #0.000000
v 2.028809 0.732910 0.226074 0.247059 0.247059 0.247059 #0.000000
v 0.344482 3.608398 0.226074 0.247059 0.247059 0.247059 #0.000000
v 0.381104 3.654541 0.226074 0.247059 0.247059 0.247059 #0.000000
v -0.023193 4.331055 0.226074 0.247059 0.247059 0.247059 #0.000000
v -0.082031 1.875732 0.226074 0.247059 0.247059 0.247059 #0.000000
v -0.023193 4.331055 0.226074 0.247059 0.247059 0.247059 #0.000000
v -0.082031 4.358887 0.226074 0.247059 0.247059 0.247059 #0.000000
v -0.082031 1.875732 0.226074 0.247059 0.247059 0.247059 #0.000000
v -0.082031 4.358887 0.226074 0.247059 0.247059 0.247059 #0.000000
v -0.134766 4.328857 0.226074 0.247059 0.247059 0.247059 #0.000000
v -0.082031 1.875732 0.226074 0.247059 0.247059 0.247059 #0.000000
v -0.134766 4.328857 0.226074 0.247059 0.247059 0.247059 #0.000000
v -1.995117 0.983887 0.226074 0.247059 0.247059 0.247059 #0.000000
v -1.995117 0.983887 0.226074 0.247059 0.247059 0.247059 #0.000000
v -1.836670 0.864258 0.226074 0.247059 0.247059 0.247059 #0.000000
v -0.082031 1.875732 0.226074 0.247059 0.247059 0.247059 #0.000000
v -1.857666 0.585449 0.226074 0.247059 0.247059 0.247059 #0.000000
v -1.884033 0.551758 0.000000 0.247059 0.247059 0.247059 #0.000000
v 2.111084 0.553955 0.000000 0.247059 0.247059 0.247059 #0.000000
v 2.111084 0.553955 0.000000 0.247059 0.247059 0.247059 #0.000000
v 1.960938 0.620361 0.226074 0.247059 0.247059 0.247059 #0.000000
v -1.857666 0.585449 0.226074 0.247059 0.247059 0.247059 #0.000000
v 1.960938 0.620361 0.226074 0.247059 0.247059 0.247059 #0.000000
v 2.111084 0.553955 0.000000 0.247059 0.247059 0.247059 #0.000000
v 2.160156 0.580322 0.000000 0.247059 0.247059 0.247059 #0.000000
v 2.160156 0.580322 0.000000 0.247059 0.247059 0.247059 #0.000000
v 2.009766 0.659424 0.226074 0.247059 0.247059 0.247059 #0.000000
v 1.960938 0.620361 0.226074 0.247059 0.247059 0.247059 #0.000000
v 2.009766 0.659424 0.226074 0.247059 0.247059 0.247059 #0.000000
v 2.160156 0.580322 0.000000 0.247059 0.247059 0.247059 #0.000000
v 2.162109 0.636230 0.000000 0.247059 0.247059 0.247059 #0.000000
v 2.162109 0.636230 0.000000 0.247059 0.247059 0.247059 #0.000000
v 2.028809 0.732910 0.226074 0.247059 0.247059 0.247059 #0.000000
v 2.009766 0.659424 0.226074 0.247059 0.247059 0.247059 #0.000000
v -0.023193 4.420410 0.000000 0.247059 0.247059 0.247059 #0.000000
v -0.023193 4.331055 0.226074 0.247059 0.247059 0.247059 #0.000000
v 0.381104 3.654541 0.226074 0.247059 0.247059 0.247059 #0.000000
v 0.381104 3.654541 0.226074 0.247059 0.247059 0.247059 #0.000000
v 0.418945 3.654541 0.000000 0.247059 0.247059 0.247059 #0.000000
v -0.023193 4.420410 0.000000 0.247059 0.247059 0.247059 #0.000000
v -0.023193 4.331055 0.226074 0.247059 0.247059 0.247059 #0.000000
v -0.023193 4.420410 0.000000 0.247059 0.247059 0.247059 #0.000000
v -0.082031 4.447998 0.000000 0.247059 0.247059 0.247059 #0.000000
v -0.082031 4.447998 0.000000 0.247059 0.247059 0.247059 #0.000000
v -0.082031 4.358887 0.226074 0.247059 0.247059 0.247059 #0.000000
v -0.023193 4.331055 0.226074 0.247059 0.247059 0.247059 #0.000000
v -0.082031 4.358887 0.226074 0.247059 0.247059 0.247059 #0.000000
v -0.082031 4.447998 0.000000 0.247059 0.247059 0.247059 #0.000000
v -0.134766 4.417969 0.000000 0.247059 0.247059 0.247059 #0.000000
v -0.134766 4.417969 0.000000 0.247059 0.247059 0.247059 #0.000000
v -0.134766 4.328857 0.226074 0.247059 0.247059 0.247059 #0.000000
v -0.082031 4.358887 0.226074 0.247059 0.247059 0.247059 #0.000000
v -2.075195 0.999756 0.226074 0.247059 0.247059 0.247059 #0.000000
v -0.134766 4.328857 0.226074 0.247059 0.247059 0.247059 #0.000000
v -0.134766 4.417969 0.000000 0.247059 0.247059 0.247059 #0.000000
v -0.134766 4.417969 0.000000 0.247059 0.247059 0.247059 #0.000000
v -2.122314 0.977051 0.000000 0.247059 0.247059 0.247059 #0.000000
v -2.075195 0.999756 0.226074 0.247059 0.247059 0.247059 #0.000000
v 0.344482 3.608398 0.226074 0.247059 0.247059 0.247059 #0.000000
v -0.023193 4.331055 0.226074 0.247059 0.247059 0.247059 #0.000000
v -0.082031 1.875732 0.226074 0.247059 0.247059 0.247059 #0.000000
v -0.082031 1.875732 0.226074 0.247059 0.247059 0.247059 #0.000000
v 0.350098 3.243408 0.226074 0.247059 0.247059 0.247059 #0.000000
v 0.344482 3.608398 0.226074 0.247059 0.247059 0.247059 #0.000000
v 0.551758 3.424561 0.000000 0.247059 0.247059 0.247059 #0.000000
v 0.508545 3.340088 0.226074 0.247059 0.247059 0.247059 #0.000000
v 2.028809 0.732910 0.226074 0.247059 0.247059 0.247059 #0.000000
v 2.028809 0.732910 0.226074 0.247059 0.247059 0.247059 #0.000000
v 2.162109 0.636230 0.000000 0.247059 0.247059 0.247059 #0.000000
v 0.551758 3.424561 0.000000 0.247059 0.247059 0.247059 #0.000000
v 0.350098 3.243408 0.226074 0.247059 0.247059 0.247059 #0.000000
v -0.082031 1.875732 0.226074 0.247059 0.247059 0.247059 #0.000000
v 2.028809 0.732910 0.226074 0.247059 0.247059 0.247059 #0.000000
v 2.028809 0.732910 0.226074 0.247059 0.247059 0.247059 #0.000000
v 0.508545 3.340088 0.226074 0.247059 0.247059 0.247059 #0.000000
v 0.350098 3.243408 0.226074 0.247059 0.247059 0.247059 #0.000000
v 0.350098 3.243408 0.226074 0.247059 0.247059 0.247059 #0.000000
v 0.508545 3.340088 0.226074 0.247059 0.247059 0.247059 #0.000000
v 0.551758 3.424561 0.000000 0.247059 0.247059 0.247059 #0.000000
v 0.551758 3.424561 0.000000 0.247059 0.247059 0.247059 #0.000000
v 0.408691 3.375244 0.000000 0.247059 0.247059 0.247059 #0.000000
v 0.350098 3.243408 0.226074 0.247059 0.247059 0.247059 #0.000000
v 0.418945 3.654541 0.000000 0.247059 0.247059 0.247059 #0.000000
v 0.381104 3.654541 0.226074 0.247059 0.247059 0.247059 #0.000000
v 0.344482 3.608398 0.226074 0.247059 0.247059 0.247059 #0.000000
v 0.344482 3.608398 0.226074 0.247059 0.247059 0.247059 #0.000000
v 0.386475 3.608398 0.000000 0.247059 0.247059 0.247059 #0.000000
v 0.418945 3.654541 0.000000 0.247059 0.247059 0.247059 #0.000000
v 0.350098 3.243408 0.226074 0.247059 0.247059 0.247059 #0.000000
v 0.408691 3.375244 0.000000 0.247059 0.247059 0.247059 #0.000000
v 0.386475 3.608398 0.000000 0.247059 0.247059 0.247059 #0.000000
v 0.386475 3.608398 0.000000 0.247059 0.247059 0.247059 #0.000000
v 0.344482 3.608398 0.226074 0.247059 0.247059 0.247059 #0.000000
v 0.350098 3.243408 0.226074 0.247059 0.247059 0.247059 #0.000000
v -0.082031 1.875732 0.226074 0.247059 0.247059 0.247059 #0.000000
v -1.836670 0.864258 0.226074 0.247059 0.247059 0.247059 #0.000000
v -1.911377 0.672119 0.226074 0.247059 0.247059 0.247059 #0.000000
v -0.134766 4.328857 0.226074 0.247059 0.247059 0.247059 #0.000000
v -2.075195 0.999756 0.226074 0.247059 0.247059 0.247059 #0.000000
v -1.995117 0.983887 0.226074 0.247059 0.247059 0.247059 #0.000000
v -1.995117 0.983887 0.226074 0.247059 0.247059 0.247059 #0.000000
v -2.075195 0.999756 0.226074 0.247059 0.247059 0.247059 #0.000000
v -2.122314 0.977051 0.000000 0.247059 0.247059 0.247059 #0.000000
v -2.122314 0.977051 0.000000 0.247059 0.247059 0.247059 #0.000000
v -2.034180 0.968750 0.000000 0.247059 0.247059 0.247059 #0.000000
v -1.995117 0.983887 0.226074 0.247059 0.247059 0.247059 #0.000000
v -1.911377 0.672119 0.226074 0.247059 0.247059 0.247059 #0.000000
v -1.836670 0.864258 0.226074 0.247059 0.247059 0.247059 #0.000000
v -1.878418 0.836914 0.000000 0.247059 0.247059 0.247059 #0.000000
v -1.878418 0.836914 0.000000 0.247059 0.247059 0.247059 #0.000000
v -1.947998 0.648438 0.000000 0.247059 0.247059 0.247059 #0.000000
v -1.911377 0.672119 0.226074 0.247059 0.247059 0.247059 #0.000000
v -1.884033 0.551758 0.000000 0.247059 0.247059 0.247059 #0.000000
v -1.857666 0.585449 0.226074 0.247059 0.247059 0.247059 #0.000000
v -1.911377 0.672119 0.226074 0.247059 0.247059 0.247059 #0.000000
v -1.911377 0.672119 0.226074 0.247059 0.247059 0.247059 #0.000000
v -1.947998 0.648438 0.000000 0.247059 0.247059 0.247059 #0.000000
v -1.884033 0.551758 0.000000 0.247059 0.247059 0.247059 #0.000000
v -1.995117 0.983887 0.226074 0.247059 0.247059 0.247059 #0.000000
v -2.034180 0.968750 0.000000 0.247059 0.247059 0.247059 #0.000000
v -1.878418 0.836914 0.000000 0.247059 0.247059 0.247059 #0.000000
v -1.878418 0.836914 0.000000 0.247059 0.247059 0.247059 #0.000000
v -1.836670 0.864258 0.226074 0.247059 0.247059 0.247059 #0.000000
v -1.995117 0.983887 0.226074 0.247059 0.247059 0.247059 #0.000000
v -1.947998 0.582764 -0.226074 0.247059 0.247059 0.247059 #0.000000
v -2.001465 0.669434 -0.226074 0.247059 0.247059 0.247059 #0.000000
v -0.082031 1.875732 -0.226074 0.247059 0.247059 0.247059 #0.000000
v -0.082031 1.875732 -0.226074 0.247059 0.247059 0.247059 #0.000000
v 1.960938 0.620361 -0.226074 0.247059 0.247059 0.247059 #0.000000
v -1.947998 0.582764 -0.226074 0.247059 0.247059 0.247059 #0.000000
v -0.082031 1.875732 -0.226074 0.247059 0.247059 0.247059 #0.000000
v 2.009766 0.659424 -0.226074 0.247059 0.247059 0.247059 #0.000000
v 1.960938 0.620361 -0.226074 0.247059 0.247059 0.247059 #0.000000
v -0.082031 1.875732 -0.226074 0.247059 0.247059 0.247059 #0.000000
v 2.028809 0.732910 -0.226074 0.247059 0.247059 0.247059 #0.000000
v 2.009766 0.659424 -0.226074 0.247059 0.247059 0.247059 #0.000000
v 0.415283 3.608398 -0.226074 0.247059 0.247059 0.247059 #0.000000
v -0.023193 4.331055 -0.226074 0.247059 0.247059 0.247059 #0.000000
v 0.451904 3.654541 -0.226074 0.247059 0.247059 0.247059 #0.000000
v -0.082031 1.875732 -0.226074 0.247059 0.247059 0.247059 #0.000000
v -0.082031 4.358887 -0.226074 0.247059 0.247059 0.247059 #0.000000
v -0.023193 4.331055 -0.226074 0.247059 0.247059 0.247059 #0.000000
v -0.082031 1.875732 -0.226074 0.247059 0.247059 0.247059 #0.000000
v -0.134766 4.328857 -0.226074 0.247059 0.247059 0.247059 #0.000000
v -0.082031 4.358887 -0.226074 0.247059 0.247059 0.247059 #0.000000
v -2.045166 0.919922 -0.226074 0.247059 0.247059 0.247059 #0.000000
v -0.134766 4.328857 -0.226074 0.247059 0.247059 0.247059 #0.000000
v -0.082031 1.875732 -0.226074 0.247059 0.247059 0.247059 #0.000000
v -0.082031 1.875732 -0.226074 0.247059 0.247059 0.247059 #0.000000
v -1.964355 0.815918 -0.226074 0.247059 0.247059 0.247059 #0.000000
v -2.045166 0.919922 -0.226074 0.247059 0.247059 0.247059 #0.000000
v 2.111084 0.553955 0.000000 0.247059 0.247059 0.247059 #0.000000
v -1.884033 0.551758 0.000000 0.247059 0.247059 0.247059 #0.000000
v -1.947998 0.582764 -0.226074 0.247059 0.247059 0.247059 #0.000000
v -1.947998 0.582764 -0.226074 0.247059 0.247059 0.247059 #0.000000
v 1.960938 0.620361 -0.226074 0.247059 0.247059 0.247059 #0.000000
v 2.111084 0.553955 0.000000 0.247059 0.247059 0.247059 #0.000000
v 2.160156 0.580322 0.000000 0.247059 0.247059 0.247059 #0.000000
v 2.111084 0.553955 0.000000 0.247059 0.247059 0.247059 #0.000000
v 1.960938 0.620361 -0.226074 0.247059 0.247059 0.247059 #0.000000
v 1.960938 0.620361 -0.226074 0.247059 0.247059 0.247059 #0.000000
v 2.009766 0.659424 -0.226074 0.247059 0.247059 0.247059 #0.000000
v 2.160156 0.580322 0.000000 0.247059 0.247059 0.247059 #0.000000
v 2.162109 0.636230 0.000000 0.247059 0.247059 0.247059 #0.000000
v 2.160156 0.580322 0.000000 0.247059 0.247059 0.247059 #0.000000
v 2.009766 0.659424 -0.226074 0.247059 0.247059 0.247059 #0.000000
v 2.009766 0.659424 -0.226074 0.247059 0.247059 0.247059 #0.000000
v 2.028809 0.732910 -0.226074 0.247059 0.247059 0.247059 #0.000000
v 2.162109 0.636230 0.000000 0.247059 0.247059 0.247059 #0.000000
v 0.451904 3.654541 -0.226074 0.247059 0.247059 0.247059 #0.000000
v -0.023193 4.331055 -0.226074 0.247059 0.247059 0.247059 #0.000000
v -0.023193 4.420410 0.000000 0.247059 0.247059 0.247059 #0.000000
v -0.023193 4.420410 0.000000 0.247059 0.247059 0.247059 #0.000000
v 0.418945 3.654541 0.000000 0.247059 0.247059 0.247059 #0.000000
v 0.451904 3.654541 -0.226074 0.247059 0.247059 0.247059 #0.000000
v -0.082031 4.447998 0.000000 0.247059 0.247059 0.247059 #0.000000
v -0.023193 4.420410 0.000000 0.247059 0.247059 0.247059 #0.000000
v -0.023193 4.331055 -0.226074 0.247059 0.247059 0.247059 #0.000000
v -0.023193 4.331055 -0.226074 0.247059 0.247059 0.247059 #0.000000
v -0.082031 4.358887 -0.226074 0.247059 0.247059 0.247059 #0.000000
v -0.082031 4.447998 0.000000 0.247059 0.247059 0.247059 #0.000000
v -0.134766 4.417969 0.000000 0.247059 0.247059 0.247059 #0.000000
v -0.082031 4.447998 0.000000 0.247059 0.247059 0.247059 #0.000000
v -0.082031 4.358887 -0.226074 0.247059 0.247059 0.247059 #0.000000
v -0.082031 4.358887 -0.226074 0.247059 0.247059 0.247059 #0.000000
v -0.134766 4.328857 -0.226074 0.247059 0.247059 0.247059 #0.000000
v -0.134766 4.417969 0.000000 0.247059 0.247059 0.247059 #0.000000
v -0.134766 4.417969 0.000000 0.247059 0.247059 0.247059 #0.000000
v -0.134766 4.328857 -0.226074 0.247059 0.247059 0.247059 #0.000000
v -2.162109 0.946045 -0.226074 0.247059 0.247059 0.247059 #0.000000
v -2.162109 0.946045 -0.226074 0.247059 0.247059 0.247059 #0.000000
v -2.122314 0.977051 0.000000 0.247059 0.247059 0.247059 #0.000000
v -0.134766 4.417969 0.000000 0.247059 0.247059 0.247059 #0.000000
v -0.082031 1.875732 -0.226074 0.247059 0.247059 0.247059 #0.000000
v -0.023193 4.331055 -0.226074 0.247059 0.247059 0.247059 #0.000000
v 0.415283 3.608398 -0.226074 0.247059 0.247059 0.247059 #0.000000
v 0.415283 3.608398 -0.226074 0.247059 0.247059 0.247059 #0.000000
v 0.441406 3.440918 -0.226074 0.247059 0.247059 0.247059 #0.000000
v -0.082031 1.875732 -0.226074 0.247059 0.247059 0.247059 #0.000000
v 2.028809 0.732910 -0.226074 0.247059 0.247059 0.247059 #0.000000
v 0.520264 3.447754 -0.226074 0.247059 0.247059 0.247059 #0.000000
v 0.551758 3.424561 0.000000 0.247059 0.247059 0.247059 #0.000000
v 0.551758 3.424561 0.000000 0.247059 0.247059 0.247059 #0.000000
v 2.162109 0.636230 0.000000 0.247059 0.247059 0.247059 #0.000000
v 2.028809 0.732910 -0.226074 0.247059 0.247059 0.247059 #0.000000
v 2.028809 0.732910 -0.226074 0.247059 0.247059 0.247059 #0.000000
v -0.082031 1.875732 -0.226074 0.247059 0.247059 0.247059 #0.000000
v 0.441406 3.440918 -0.226074 0.247059 0.247059 0.247059 #0.000000
v 0.441406 3.440918 -0.226074 0.247059 0.247059 0.247059 #0.000000
v 0.520264 3.447754 -0.226074 0.247059 0.247059 0.247059 #0.000000
v 2.028809 0.732910 -0.226074 0.247059 0.247059 0.247059 #0.000000
v 0.551758 3.424561 0.000000 0.247059 0.247059 0.247059 #0.000000
v 0.520264 3.447754 -0.226074 0.247059 0.247059 0.247059 #0.000000
v 0.441406 3.440918 -0.226074 0.247059 0.247059 0.247059 #0.000000
v 0.441406 3.440918 -0.226074 0.247059 0.247059 0.247059 #0.000000
v 0.408691 3.375244 0.000000 0.247059 0.247059 0.247059 #0.000000
v 0.551758 3.424561 0.000000 0.247059 0.247059 0.247059 #0.000000
v 0.415283 3.608398 -0.226074 0.247059 0.247059 0.247059 #0.000000
v 0.451904 3.654541 -0.226074 0.247059 0.247059 0.247059 #0.000000
v 0.418945 3.654541 0.000000 0.247059 0.247059 0.247059 #0.000000
v 0.418945 3.654541 0.000000 0.247059 0.247059 0.247059 #0.000000
v 0.386475 3.608398 0.000000 0.247059 0.247059 0.247059 #0.000000
v 0.415283 3.608398 -0.226074 0.247059 0.247059 0.247059 #0.000000
v 0.386475 3.608398 0.000000 0.247059 0.247059 0.247059 #0.000000
v 0.408691 3.375244 0.000000 0.247059 0.247059 0.247059 #0.000000
v 0.441406 3.440918 -0.226074 0.247059 0.247059 0.247059 #0.000000
v 0.441406 3.440918 -0.226074 0.247059 0.247059 0.247059 #0.000000
v 0.415283 3.608398 -0.226074 0.247059 0.247059 0.247059 #0.000000
v 0.386475 3.608398 0.000000 0.247059 0.247059 0.247059 #0.000000
v -0.082031 1.875732 -0.226074 0.247059 0.247059 0.247059 #0.000000
v -2.001465 0.669434 -0.226074 0.247059 0.247059 0.247059 #0.000000
v -1.964355 0.815918 -0.226074 0.247059 0.247059 0.247059 #0.000000
v -0.134766 4.328857 -0.226074 0.247059 0.247059 0.247059 #0.000000
v -2.045166 0.919922 -0.226074 0.247059 0.247059 0.247059 #0.000000
v -2.162109 0.946045 -0.226074 0.247059 0.247059 0.247059 #0.000000
v -2.122314 0.977051 0.000000 0.247059 0.247059 0.247059 #0.000000
v -2.162109 0.946045 -0.226074 0.247059 0.247059 0.247059 #0.000000
v -2.045166 0.919922 -0.226074 0.247059 0.247059 0.247059 #0.000000
v -2.045166 0.919922 -0.226074 0.247059 0.247059 0.247059 #0.000000
v -2.034180 0.968750 0.000000 0.247059 0.247059 0.247059 #0.000000
v -2.122314 0.977051 0.000000 0.247059 0.247059 0.247059 #0.000000
v -1.878418 0.836914 0.000000 0.247059 0.247059 0.247059 #0.000000
v -1.964355 0.815918 -0.226074 0.247059 0.247059 0.247059 #0.000000
v -2.001465 0.669434 -0.226074 0.247059 0.247059 0.247059 #0.000000
v -2.001465 0.669434 -0.226074 0.247059 0.247059 0.247059 #0.000000
v -1.947998 0.648438 0.000000 0.247059 0.247059 0.247059 #0.000000
v -1.878418 0.836914 0.000000 0.247059 0.247059 0.247059 #0.000000
v -2.001465 0.669434 -0.226074 0.247059 0.247059 0.247059 #0.000000
v -1.947998 0.582764 -0.226074 0.247059 0.247059 0.247059 #0.000000
v -1.884033 0.551758 0.000000 0.247059 0.247059 0.247059 #0.000000
v -1.884033 0.551758 0.000000 0.247059 0.247059 0.247059 #0.000000
v -1.947998 0.648438 0.000000 0.247059 0.247059 0.247059 #0.000000
v -2.001465 0.669434 -0.226074 0.247059 0.247059 0.247059 #0.000000
v -1.878418 0.836914 0.000000 0.247059 0.247059 0.247059 #0.000000
v -2.034180 0.968750 0.000000 0.247059 0.247059 0.247059 #0.000000
v -2.045166 0.919922 -0.226074 0.247059 0.247059 0.247059 #0.000000
v -2.045166 0.919922 -0.226074 0.247059 0.247059 0.247059 #0.000000
v -1.964355 0.815918 -0.226074 0.247059 0.247059 0.247059 #0.000000
v -1.878418 0.836914 0.000000 0.247059 0.247059 0.247059 #0.000000
vt 0.480957 0.339844 0.000000
vt 0.058350 0.031250 0.000000
vt 0.070801 0.009033 0.000000
vt 0.070801 0.009033 0.000000
vt 0.952881 0.018066 0.000000
vt 0.480957 0.339844 0.000000
vt 0.480957 0.339844 0.000000
vt 0.952881 0.018066 0.000000
vt 0.964111 0.028076 0.000000
vt 0.480957 0.339844 0.000000
vt 0.964111 0.028076 0.000000
vt 0.968506 0.046875 0.000000
vt 0.579590 0.784180 0.000000
vt 0.587891 0.795898 0.000000
vt 0.494385 0.969482 0.000000
vt 0.480957 0.339844 0.000000
vt 0.494385 0.969482 0.000000
vt 0.480957 0.976563 0.000000
vt 0.480957 0.339844 0.000000
vt 0.480957 0.976563 0.000000
vt 0.468750 0.968750 0.000000
vt 0.480957 0.339844 0.000000
vt 0.468750 0.968750 0.000000
vt 0.039063 0.111084 0.000000
vt 0.039063 0.111084 0.000000
vt 0.075439 0.080566 0.000000
vt 0.480957 0.339844 0.000000
vt 0.070801 0.009033 0.000000
vt 0.064697 0.000488 0.000000
vt 0.987549 0.000977 0.000000
vt 0.987549 0.000977 0.000000
vt 0.952881 0.018066 0.000000
vt 0.070801 0.009033 0.000000
vt 0.952881 0.018066 0.000000
vt 0.987549 0.000977 0.000000
vt 0.999023 0.007813 0.000000
vt 0.999023 0.007813 0.000000
vt 0.964111 0.028076 0.000000
vt 0.952881 0.018066 0.000000
vt 0.964111 0.028076 0.000000
vt 0.999023 0.007813 0.000000
vt 0.999268 0.021973 0.000000
vt 0.999268 0.021973 0.000000
vt 0.968506 0.046875 0.000000
vt 0.964111 0.028076 0.000000
vt 0.494385 0.992188 0.000000
vt 0.494385 0.969482 0.000000
vt 0.587891 0.795898 0.000000
vt 0.587891 0.795898 0.000000
vt 0.596680 0.795898 0.000000
vt 0.494385 0.992188 0.000000
vt 0.494385 0.969482 0.000000
vt 0.494385 0.992188 0.000000
vt 0.480957 0.999268 0.000000
vt 0.480957 0.999268 0.000000
vt 0.480957 0.976563 0.000000
vt 0.494385 0.969482 0.000000
vt 0.480957 0.976563 0.000000
vt 0.480957 0.999268 0.000000
vt 0.468750 0.991699 0.000000
vt 0.468750 0.991699 0.000000
vt 0.468750 0.968750 0.000000
vt 0.480957 0.976563 0.000000
vt 0.020508 0.115234 0.000000
vt 0.468750 0.968750 0.000000
vt 0.468750 0.991699 0.000000
vt 0.468750 0.991699 0.000000
vt 0.009521 0.109375 0.000000
vt 0.020508 0.115234 0.000000
vt 0.579590 0.784180 0.000000
vt 0.494385 0.969482 0.000000
vt 0.480957 0.339844 0.000000
vt 0.480957 0.339844 0.000000
vt 0.580811 0.690430 0.000000
vt 0.579590 0.784180 0.000000
vt 0.627441 0.737061 0.000000
vt 0.617432 0.715332 0.000000
vt 0.968506 0.046875 0.000000
vt 0.968506 0.046875 0.000000
vt 0.999268 0.021973 0.000000
vt 0.627441 0.737061 0.000000
vt 0.580811 0.690430 0.000000
vt 0.480957 0.339844 0.000000
vt 0.968506 0.046875 0.000000
vt 0.968506 0.046875 0.000000
vt 0.617432 0.715332 0.000000
vt 0.580811 0.690430 0.000000
vt 0.580811 0.690430 0.000000
vt 0.617432 0.715332 0.000000
vt 0.627441 0.737061 0.000000
vt 0.627441 0.737061 0.000000
vt 0.594238 0.724365 0.000000
vt 0.580811 0.690430 0.000000
vt 0.596680 0.795898 0.000000
vt 0.587891 0.795898 0.000000
vt 0.579590 0.784180 0.000000
vt 0.579590 0.784180 0.000000
vt 0.589111 0.784180 0.000000
vt 0.596680 0.795898 0.000000
vt 0.580811 0.690430 0.000000
vt 0.594238 0.724365 0.000000
vt 0.589111 0.784180 0.000000
vt 0.589111 0.784180 0.000000
vt 0.579590 0.784180 0.000000
vt 0.580811 0.690430 0.000000
vt 0.480957 0.339844 0.000000
vt 0.075439 0.080566 0.000000
vt 0.058350 0.031250 0.000000
vt 0.468750 0.968750 0.000000
vt 0.020508 0.115234 0.000000
vt 0.039063 0.111084 0.000000
vt 0.039063 0.111084 0.000000
vt 0.020508 0.115234 0.000000
vt 0.009521 0.109375 0.000000
vt 0.009521 0.109375 0.000000
vt 0.030029 0.107422 0.000000
vt 0.039063 0.111084 0.000000
vt 0.058350 0.031250 0.000000
vt 0.075439 0.080566 0.000000
vt 0.065918 0.073486 0.000000
vt 0.065918 0.073486 0.000000
vt 0.049805 0.025146 0.000000
vt 0.058350 0.031250 0.000000
vt 0.064697 0.000488 0.000000
vt 0.070801 0.009033 0.000000
vt 0.058350 0.031250 0.000000
vt 0.058350 0.031250 0.000000
vt 0.049805 0.025146 0.000000
vt 0.064697 0.000488 0.000000
vt 0.039063 0.111084 0.000000
vt 0.030029 0.107422 0.000000
vt 0.065918 0.073486 0.000000
vt 0.065918 0.073486 0.000000
vt 0.075439 0.080566 0.000000
vt 0.039063 0.111084 0.000000
vt 0.049805 0.008301 0.000000
vt 0.037354 0.030518 0.000000
vt 0.480957 0.339844 0.000000
vt 0.480957 0.339844 0.000000
vt 0.952881 0.018066 0.000000
vt 0.049805 0.008301 0.000000
vt 0.480957 0.339844 0.000000
vt 0.964111 0.028076 0.000000
vt 0.952881 0.018066 0.000000
vt 0.480957 0.339844 0.000000
vt 0.968506 0.046875 0.000000
vt 0.964111 0.028076 0.000000
vt 0.595947 0.784180 0.000000
vt 0.494385 0.969482 0.000000
vt 0.604248 0.795898 0.000000
vt 0.480957 0.339844 0.000000
vt 0.480957 0.976563 0.000000
vt 0.494385 0.969482 0.000000
vt 0.480957 0.339844 0.000000
vt 0.468750 0.968750 0.000000
vt 0.480957 0.976563 0.000000
vt 0.027344 0.094727 0.000000
vt 0.468750 0.968750 0.000000
vt 0.480957 0.339844 0.000000
vt 0.480957 0.339844 0.000000
vt 0.046143 0.068115 0.000000
vt 0.027344 0.094727 0.000000
vt 0.987549 0.000977 0.000000
vt 0.064697 0.000488 0.000000
vt 0.049805 0.008301 0.000000
vt 0.049805 0.008301 0.000000
vt 0.952881 0.018066 0.000000
vt 0.987549 0.000977 0.000000
vt 0.999023 0.007813 0.000000
vt 0.987549 0.000977 0.000000
vt 0.952881 0.018066 0.000000
vt 0.952881 0.018066 0.000000
vt 0.964111 0.028076 0.000000
vt 0.999023 0.007813 0.000000
vt 0.999268 0.021973 0.000000
vt 0.999023 0.007813 0.000000
vt 0.964111 0.028076 0.000000
vt 0.964111 0.028076 0.000000
vt 0.968506 0.046875 0.000000
vt 0.999268 0.021973 0.000000
vt 0.604248 0.795898 0.000000
vt 0.494385 0.969482 0.000000
vt 0.494385 0.992188 0.000000
vt 0.494385 0.992188 0.000000
vt 0.596680 0.795898 0.000000
vt 0.604248 0.795898 0.000000
vt 0.480957 0.999268 0.000000
vt 0.494385 0.992188 0.000000
vt 0.494385 0.969482 0.000000
vt 0.494385 0.969482 0.000000
vt 0.480957 0.976563 0.000000
vt 0.480957 0.999268 0.000000
vt 0.468750 0.991699 0.000000
vt 0.480957 0.999268 0.000000
vt 0.480957 0.976563 0.000000
vt 0.480957 0.976563 0.000000
vt 0.468750 0.968750 0.000000
vt 0.468750 0.991699 0.000000
vt 0.468750 0.991699 0.000000
vt 0.468750 0.968750 0.000000
vt 0.000488 0.101563 0.000000
vt 0.000488 0.101563 0.000000
vt 0.009521 0.109375 0.000000
vt 0.468750 0.991699 0.000000
vt 0.480957 0.339844 0.000000
vt 0.494385 0.969482 0.000000
vt 0.595947 0.784180 0.000000
vt 0.595947 0.784180 0.000000
vt 0.601807 0.741211 0.000000
vt 0.480957 0.339844 0.000000
vt 0.968506 0.046875 0.000000
vt 0.620117 0.742920 0.000000
vt 0.627441 0.737061 0.000000
vt 0.627441 0.737061 0.000000
vt 0.999268 0.021973 0.000000
vt 0.968506 0.046875 0.000000
vt 0.968506 0.046875 0.000000
vt 0.480957 0.339844 0.000000
vt 0.601807 0.741211 0.000000
vt 0.601807 0.741211 0.000000
vt 0.620117 0.742920 0.000000
vt 0.968506 0.046875 0.000000
vt 0.627441 0.737061 0.000000
vt 0.620117 0.742920 0.000000
vt 0.601807 0.741211 0.000000
vt 0.601807 0.741211 0.000000
vt 0.594238 0.724365 0.000000
vt 0.627441 0.737061 0.000000
vt 0.595947 0.784180 0.000000
vt 0.604248 0.795898 0.000000
vt 0.596680 0.795898 0.000000
vt 0.596680 0.795898 0.000000
vt 0.589111 0.784180 0.000000
vt 0.595947 0.784180 0.000000
vt 0.589111 0.784180 0.000000
vt 0.594238 0.724365 0.000000
vt 0.601807 0.741211 0.000000
vt 0.601807 0.741211 0.000000
vt 0.595947 0.784180 0.000000
vt 0.589111 0.784180 0.000000
vt 0.480957 0.339844 0.000000
vt 0.037354 0.030518 0.000000
vt 0.046143 0.068115 0.000000
vt 0.468750 0.968750 0.000000
vt 0.027344 0.094727 0.000000
vt 0.000488 0.101563 0.000000
vt 0.009521 0.109375 0.000000
vt 0.000488 0.101563 0.000000
vt 0.027344 0.094727 0.000000
vt 0.027344 0.094727 0.000000
vt 0.030029 0.107422 0.000000
vt 0.009521 0.109375 0.000000
vt 0.065918 0.073486 0.000000
vt 0.046143 0.068115 0.000000
vt 0.037354 0.030518 0.000000
vt 0.037354 0.030518 0.000000
vt 0.049805 0.025146 0.000000
vt 0.065918 0.073486 0.000000
vt 0.037354 0.030518 0.000000
vt 0.049805 0.008301 0.000000
vt 0.064697 0.000488 0.000000
vt 0.064697 0.000488 0.000000
vt 0.049805 0.025146 0.000000
vt 0.037354 0.030518 0.000000
vt 0.065918 0.073486 0.000000
vt 0.030029 0.107422 0.000000
vt 0.027344 0.094727 0.000000
vt 0.027344 0.094727 0.000000
vt 0.046143 0.068115 0.000000
vt 0.065918 0.073486 0.000000
vn 0.000000 0.000000 1.000000
vn 0.000000 0.000000 1.000000
vn 0.000000 0.000000 1.000000
vn 0.000000 0.000000 1.000000
vn 0.000000 0.000000 1.000000
vn 0.000000 0.000000 1.000000
vn 0.000000 0.000000 1.000000
vn 0.000000 0.000000 1.000000
vn 0.000000 0.000000 1.000000
vn 0.000000 0.000000 1.000000
vn 0.000000 0.000000 1.000000
vn 0.000000 0.000000 1.000000
vn 0.000000 0.000000 1.000000
vn 0.000000 0.000000 1.000000
vn 0.000000 0.000000 1.000000
vn 0.000000 0.000000 1.000000
vn 0.000000 0.000000 1.000000
vn -0.000488 0.000000 0.999756
vn 0.000000 0.000000 1.000000
vn -0.000488 0.000000 0.999756
vn 0.000732 0.000000 0.999756
vn 0.000000 0.000000 1.000000
vn 0.000732 0.000000 0.999756
vn 0.000000 0.000000 1.000000
vn 0.000000 0.000000 1.000000
vn 0.000000 0.000000 1.000000
vn 0.000000 0.000000 1.000000
vn 0.000000 0.000000 1.000000
vn 0.000488 -0.988770 0.147949
vn 0.000488 -0.988770 0.147949
vn 0.000488 -0.988770 0.147949
vn 0.000000 0.000000 1.000000
vn 0.000000 0.000000 1.000000
vn 0.000000 0.000000 1.000000
vn 0.000488 -0.988770 0.147949
vn 0.408447 -0.766113 0.496094
vn 0.408447 -0.766113 0.496094
vn 0.000000 0.000000 1.000000
vn 0.000000 0.000000 1.000000
vn 0.000000 0.000000 1.000000
vn 0.408447 -0.766113 0.496094
vn 0.827637 -0.027588 0.560547
vn 0.827637 -0.027588 0.560547
vn 0.000000 0.000000 1.000000
vn 0.000000 0.000000 1.000000
vn 0.841064 0.502930 0.198486
vn 0.000000 0.000000 1.000000
vn 0.000000 0.000000 1.000000
vn 0.000000 0.000000 1.000000
vn 0.856934 0.494873 0.142822
vn 0.841064 0.502930 0.198486
vn 0.000000 0.000000 1.000000
vn 0.841064 0.502930 0.198486
vn 0.401123 0.851807 0.336182
vn 0.401123 0.851807 0.336182
vn -0.000488 0.000000 0.999756
vn 0.000000 0.000000 1.000000
vn -0.000488 0.000000 0.999756
vn 0.401123 0.851807 0.336182
vn -0.467529 0.822021 0.324463
vn -0.467529 0.822021 0.324463
vn 0.000732 0.000000 0.999756
vn -0.000488 0.000000 0.999756
vn -0.847168 0.493896 0.194824
vn 0.000732 0.000000 0.999756
vn -0.467529 0.822021 0.324463
vn -0.467529 0.822021 0.324463
vn -0.858643 0.495850 0.128418
vn -0.847168 0.493896 0.194824
vn 0.000000 0.000000 1.000000
vn 0.000000 0.000000 1.000000
vn 0.000000 0.000000 1.000000
vn 0.000000 0.000000 1.000000
vn 0.000000 0.000000 1.000000
vn 0.000000 0.000000 1.000000
vn 0.814453 0.474854 0.332764
vn 0.814453 0.474854 0.332764
vn 0.000000 0.000000 1.000000
vn 0.000000 0.000000 1.000000
vn 0.827637 -0.027588 0.560547
vn 0.814453 0.474854 0.332764
vn 0.000000 0.000000 1.000000
vn 0.000000 0.000000 1.000000
vn 0.000000 0.000000 1.000000
vn 0.000000 0.000000 1.000000
vn 0.814453 0.474854 0.332764
vn 0.000000 0.000000 1.000000
vn 0.000000 0.000000 1.000000
vn 0.814453 0.474854 0.332764
vn 0.814453 0.474854 0.332764
vn 0.814453 0.474854 0.332764
vn -0.295410 0.856689 0.422607
vn 0.000000 0.000000 1.000000
vn 0.856934 0.494873 0.142822
vn 0.000000 0.000000 1.000000
vn 0.000000 0.000000 1.000000
vn 0.000000 0.000000 1.000000
vn 0.807617 -0.570313 0.149658
vn 0.856934 0.494873 0.142822
vn 0.000000 0.000000 1.000000
vn -0.295410 0.856689 0.422607
vn 0.807617 -0.570313 0.149658
vn 0.807617 -0.570313 0.149658
vn 0.000000 0.000000 1.000000
vn 0.000000 0.000000 1.000000
vn 0.000000 0.000000 1.000000
vn 0.000000 0.000000 1.000000
vn 0.000000 0.000000 1.000000
vn 0.000732 0.000000 0.999756
vn -0.847168 0.493896 0.194824
vn 0.000000 0.000000 1.000000
vn 0.000000 0.000000 1.000000
vn -0.847168 0.493896 0.194824
vn -0.858643 0.495850 0.128418
vn -0.858643 0.495850 0.128418
vn -0.093018 -0.992188 0.081543
vn 0.000000 0.000000 1.000000
vn 0.000000 0.000000 1.000000
vn 0.000000 0.000000 1.000000
vn -0.924561 0.358643 0.127441
vn -0.924561 0.358643 0.127441
vn -0.931885 0.343506 0.115234
vn 0.000000 0.000000 1.000000
vn 0.000488 -0.988770 0.147949
vn -0.837158 -0.517822 0.174805
vn 0.000000 0.000000 1.000000
vn 0.000000 0.000000 1.000000
vn -0.931885 0.343506 0.115234
vn 0.000488 -0.988770 0.147949
vn 0.000000 0.000000 1.000000
vn -0.093018 -0.992188 0.081543
vn -0.924561 0.358643 0.127441
vn -0.924561 0.358643 0.127441
vn 0.000000 0.000000 1.000000
vn 0.000000 0.000000 1.000000
vn 0.000000 0.000000 -1.000000
vn 0.000000 0.000000 -1.000000
vn 0.000000 0.000000 -1.000000
vn 0.000000 0.000000 -1.000000
vn 0.000000 0.000000 -1.000000
vn 0.000000 0.000000 -1.000000
vn 0.000000 0.000000 -1.000000
vn 0.000000 0.000000 -1.000000
vn 0.000000 0.000000 -1.000000
vn 0.000000 0.000000 -1.000000
vn 0.000000 0.000000 -1.000000
vn 0.000000 0.000000 -1.000000
vn 0.000000 0.000000 -1.000000
vn 0.000000 0.000000 -1.000000
vn 0.000000 0.000000 -1.000000
vn 0.000000 0.000000 -1.000000
vn -0.000488 0.000000 -0.999756
vn 0.000000 0.000000 -1.000000
vn 0.000000 0.000000 -1.000000
vn 0.000732 0.000000 -0.999756
vn -0.000488 0.000000 -0.999756
vn 0.000000 0.000000 -1.000000
vn 0.000732 0.000000 -0.999756
vn 0.000000 0.000000 -1.000000
vn 0.000000 0.000000 -1.000000
vn 0.000000 0.000000 -1.000000
vn 0.000000 0.000000 -1.000000
vn 0.000488 -0.988770 0.147949
vn 0.000488 -0.988770 0.147949
vn 0.000000 0.000000 -1.000000
vn 0.000000 0.000000 -1.000000
vn 0.000000 0.000000 -1.000000
vn 0.000488 -0.988770 0.147949
vn 0.408447 -0.766113 0.496094
vn 0.000488 -0.988770 0.147949
vn 0.000000 0.000000 -1.000000
vn 0.000000 0.000000 -1.000000
vn 0.000000 0.000000 -1.000000
vn 0.408447 -0.766113 0.496094
vn 0.827637 -0.027588 0.560547
vn 0.408447 -0.766113 0.496094
vn 0.000000 0.000000 -1.000000
vn 0.000000 0.000000 -1.000000
vn 0.000000 0.000000 -1.000000
vn 0.827637 -0.027588 0.560547
vn 0.000000 0.000000 -1.000000
vn 0.000000 0.000000 -1.000000
vn 0.841064 0.502930 0.198486
vn 0.841064 0.502930 0.198486
vn 0.856934 0.494873 0.142822
vn 0.000000 0.000000 -1.000000
vn 0.401123 0.851807 0.336182
vn 0.841064 0.502930 0.198486
vn 0.000000 0.000000 -1.000000
vn 0.000000 0.000000 -1.000000
vn -0.000488 0.000000 -0.999756
vn 0.401123 0.851807 0.336182
vn -0.467529 0.822021 0.324463
vn 0.401123 0.851807 0.336182
vn -0.000488 0.000000 -0.999756
vn -0.000488 0.000000 -0.999756
vn 0.000732 0.000000 -0.999756
vn -0.467529 0.822021 0.324463
vn -0.467529 0.822021 0.324463
vn 0.000732 0.000000 -0.999756
vn -0.840576 0.503662 -0.198730
vn -0.840576 0.503662 -0.198730
vn -0.858643 0.495850 0.128418
vn -0.467529 0.822021 0.324463
vn 0.000000 0.000000 -1.000000
vn 0.000000 0.000000 -1.000000
vn 0.000000 0.000000 -1.000000
vn 0.000000 0.000000 -1.000000
vn 0.000000 0.000000 -1.000000
vn 0.000000 0.000000 -1.000000
vn 0.000000 0.000000 -1.000000
vn 0.871826 0.484375 -0.071533
vn 0.814453 0.474854 0.332764
vn 0.814453 0.474854 0.332764
vn 0.827637 -0.027588 0.560547
vn 0.000000 0.000000 -1.000000
vn 0.000000 0.000000 -1.000000
vn 0.000000 0.000000 -1.000000
vn 0.000000 0.000000 -1.000000
vn 0.000000 0.000000 -1.000000
vn 0.871826 0.484375 -0.071533
vn 0.000000 0.000000 -1.000000
vn 0.814453 0.474854 0.332764
vn 0.871826 0.484375 -0.071533
vn 0.000000 0.000000 -1.000000
vn 0.000000 0.000000 -1.000000
vn -0.295410 0.856689 0.422607
vn 0.814453 0.474854 0.332764
vn 0.000000 0.000000 -1.000000
vn 0.000000 0.000000 -1.000000
vn 0.856934 0.494873 0.142822
vn 0.856934 0.494873 0.142822
vn 0.807617 -0.570313 0.149658
vn 0.000000 0.000000 -1.000000
vn 0.807617 -0.570313 0.149658
vn -0.295410 0.856689 0.422607
vn 0.000000 0.000000 -1.000000
vn 0.000000 0.000000 -1.000000
vn 0.000000 0.000000 -1.000000
vn 0.807617 -0.570313 0.149658
vn 0.000000 0.000000 -1.000000
vn 0.000000 0.000000 -1.000000
vn 0.000000 0.000000 -1.000000
vn 0.000732 0.000000 -0.999756
vn 0.000000 0.000000 -1.000000
vn -0.840576 0.503662 -0.198730
vn -0.858643 0.495850 0.128418
vn -0.840576 0.503662 -0.198730
vn 0.000000 0.000000 -1.000000
vn 0.000000 0.000000 -1.000000
vn -0.093018 -0.992188 0.081543
vn -0.858643 0.495850 0.128418
vn -0.924561 0.358643 0.127441
vn 0.000000 0.000000 -1.000000
vn 0.000000 0.000000 -1.000000
vn 0.000000 0.000000 -1.000000
vn -0.931885 0.343506 0.115234
vn -0.924561 0.358643 0.127441
vn 0.000000 0.000000 -1.000000
vn -0.838623 -0.518555 0.166016
vn 0.000488 -0.988770 0.147949
vn 0.000488 -0.988770 0.147949
vn -0.931885 0.343506 0.115234
vn 0.000000 0.000000 -1.000000
vn -0.924561 0.358643 0.127441
vn -0.093018 -0.992188 0.081543
vn 0.000000 0.000000 -1.000000
vn 0.000000 0.000000 -1.000000
vn 0.000000 0.000000 -1.000000
vn -0.924561 0.358643 0.127441
usemtl Texture
f 1/1/1 2/2/2 3/3/3
f 4/4/4 5/5/5 6/6/6
f 7/7/7 8/8/8 9/9/9
f 10/10/10 11/11/11 12/12/12
f 13/13/13 14/14/14 15/15/15
f 16/16/16 17/17/17 18/18/18
f 19/19/19 20/20/20 21/21/21
f 22/22/22 23/23/23 24/24/24
f 25/25/25 26/26/26 27/27/27
f 28/28/28 29/29/29 30/30/30
f 31/31/31 32/32/32 33/33/33
f 34/34/34 35/35/35 36/36/36
f 37/37/37 38/38/38 39/39/39
f 40/40/40 41/41/41 42/42/42
f 43/43/43 44/44/44 45/45/45
f 46/46/46 47/47/47 48/48/48
f 49/49/49 50/50/50 51/51/51
f 52/52/52 53/53/53 54/54/54
f 55/55/55 56/56/56 57/57/57
f 58/58/58 59/59/59 60/60/60
f 61/61/61 62/62/62 63/63/63
f 64/64/64 65/65/65 66/66/66
f 67/67/67 68/68/68 69/69/69
f 70/70/70 71/71/71 72/72/72
f 73/73/73 74/74/74 75/75/75
f 76/76/76 77/77/77 78/78/78
f 79/79/79 80/80/80 81/81/81
f 82/82/82 83/83/83 84/84/84
f 85/85/85 86/86/86 87/87/87
f 88/88/88 89/89/89 90/90/90
f 91/91/91 92/92/92 93/93/93
f 94/94/94 95/95/95 96/96/96
f 97/97/97 98/98/98 99/99/99
f 100/100/100 101/101/101 102/102/102
f 103/103/103 104/104/104 105/105/105
f 106/106/106 107/107/107 108/108/108
f 109/109/109 110/110/110 111/111/111
f 112/112/112 113/113/113 114/114/114
f 115/115/115 116/116/116 117/117/117
f 118/118/118 119/119/119 120/120/120
f 121/121/121 122/122/122 123/123/123
f 124/124/124 125/125/125 126/126/126
f 127/127/127 128/128/128 129/129/129
f 130/130/130 131/131/131 132/132/132
f 133/133/133 134/134/134 135/135/135
f 136/136/136 137/137/137 138/138/138
f 139/139/139 140/140/140 141/141/141
f 142/142/142 143/143/143 144/144/144
f 145/145/145 146/146/146 147/147/147
f 148/148/148 149/149/149 150/150/150
f 151/151/151 152/152/152 153/153/153
f 154/154/154 155/155/155 156/156/156
f 157/157/157 158/158/158 159/159/159
f 160/160/160 161/161/161 162/162/162
f 163/163/163 164/164/164 165/165/165
f 166/166/166 167/167/167 168/168/168
f 169/169/169 170/170/170 171/171/171
f 172/172/172 173/173/173 174/174/174
f 175/175/175 176/176/176 177/177/177
f 178/178/178 179/179/179 180/180/180
f 181/181/181 182/182/182 183/183/183
f 184/184/184 185/185/185 186/186/186
f 187/187/187 188/188/188 189/189/189
f 190/190/190 191/191/191 192/192/192
f 193/193/193 194/194/194 195/195/195
f 196/196/196 197/197/197 198/198/198
f 199/199/199 200/200/200 201/201/201
f 202/202/202 203/203/203 204/204/204
f 205/205/205 206/206/206 207/207/207
f 208/208/208 209/209/209 210/210/210
f 211/211/211 212/212/212 213/213/213
f 214/214/214 215/215/215 216/216/216
f 217/217/217 218/218/218 219/219/219
f 220/220/220 221/221/221 222/222/222
f 223/223/223 224/224/224 225/225/225
f 226/226/226 227/227/227 228/228/228
f 229/229/229 230/230/230 231/231/231
f 232/232/232 233/233/233 234/234/234
f 235/235/235 236/236/236 237/237/237
f 238/238/238 239/239/239 240/240/240
f 241/241/241 242/242/242 243/243/243
f 244/244/244 245/245/245 246/246/246
f 247/247/247 248/248/248 249/249/249
f 250/250/250 251/251/251 252/252/252
f 253/253/253 254/254/254 255/255/255
f 256/256/256 257/257/257 258/258/258
f 259/259/259 260/260/260 261/261/261
f 262/262/262 263/263/263 264/264/264
f 265/265/265 266/266/266 267/267/267
f 268/268/268 269/269/269 270/270/270