# OBJ file
mtllib SH2.ICO.mtl
v 1.424561 0.203613 0.000000 0.501961 0.501961 0.501961 #0.000000
v 0.320068 0.015869 0.000000 0.501961 0.501961 0.501961 #0.000000
v 1.320801 0.791016 0.000000 0.501961 0.501961 0.501961 #0.000000
v 0.718750 4.898682 0.000000 0.501961 0.501961 0.501961 #0.000000
v 0.858398 4.370361 0.000000 0.501961 0.501961 0.501961 #0.000000
v 0.059326 4.894775 0.000000 0.501961 0.501961 0.501961 #0.000000
v 0.059326 4.894775 0.000000 0.501961 0.501961 0.501961 #0.000000
v 0.858398 4.370361 0.000000 0.501961 0.501961 0.501961 #0.000000
v -0.240967 4.268555 0.000000 0.501961 0.501961 0.501961 #0.000000
v -2.418701 1.917236 0.000000 0.501961 0.501961 0.501961 #0.000000
v -1.933105 3.919922 0.000000 0.501961 0.501961 0.501961 #0.000000
v -1.884521 1.606934 0.000000 0.501961 0.501961 0.501961 #0.000000
v -1.933105 3.919922 0.000000 0.501961 0.501961 0.501961 #0.000000
v -0.743164 4.333740 0.000000 0.501961 0.501961 0.501961 #0.000000
v -1.884521 1.606934 0.000000 0.501961 0.501961 0.501961 #0.000000
v -0.743164 4.333740 0.000000 0.501961 0.501961 0.501961 #0.000000
v -0.240967 4.268555 0.000000 0.501961 0.501961 0.501961 #0.000000
v -1.884521 1.606934 0.000000 0.501961 0.501961 0.501961 #0.000000
v 0.320068 0.015869 0.000000 0.501961 0.501961 0.501961 #0.000000
v -0.222168 0.361572 0.000000 0.501961 0.501961 0.501961 #0.000000
v 1.320801 0.791016 0.000000 0.501961 0.501961 0.501961 #0.000000
v 2.285889 1.626953 0.000000 0.501961 0.501961 0.501961 #0.000000
v 1.491699 1.266357 0.000000 0.501961 0.501961 0.501961 #0.000000
v 2.176514 3.439453 0.000000 0.501961 0.501961 0.501961 #0.000000
v 2.115723 4.524658 0.000000 0.501961 0.501961 0.501961 #0.000000
v 2.500000 4.050781 0.000000 0.501961 0.501961 0.501961 #0.000000
v 1.541016 4.365967 0.000000 0.501961 0.501961 0.501961 #0.000000
v 2.500000 4.050781 0.000000 0.501961 0.501961 0.501961 #0.000000
v 2.176514 3.439453 0.000000 0.501961 0.501961 0.501961 #0.000000
v 1.541016 4.365967 0.000000 0.501961 0.501961 0.501961 #0.000000
v -2.296387 0.863770 0.000000 0.501961 0.501961 0.501961 #0.000000
v -1.884521 1.606934 0.000000 0.501961 0.501961 0.501961 #0.000000
v -1.790527 0.192139 0.000000 0.501961 0.501961 0.501961 #0.000000
v -1.790527 0.192139 0.000000 0.501961 0.501961 0.501961 #0.000000
v -1.884521 1.606934 0.000000 0.501961 0.501961 0.501961 #0.000000
v -0.222168 0.361572 0.000000 0.501961 0.501961 0.501961 #0.000000
v -1.884521 1.606934 0.000000 0.501961 0.501961 0.501961 #0.000000
v -0.240967 4.268555 0.000000 0.501961 0.501961 0.501961 #0.000000
v -0.222168 0.361572 0.000000 0.501961 0.501961 0.501961 #0.000000
v -0.222168 0.361572 0.000000 0.501961 0.501961 0.501961 #0.000000
v -0.240967 4.268555 0.000000 0.501961 0.501961 0.501961 #0.000000
v 1.320801 0.791016 0.000000 0.501961 0.501961 0.501961 #0.000000
v 1.320801 0.791016 0.000000 0.501961 0.501961 0.501961 #0.000000
v -0.240967 4.268555 0.000000 0.501961 0.501961 0.501961 #0.000000
v 1.491699 1.266357 0.000000 0.501961 0.501961 0.501961 #0.000000
v -0.240967 4.268555 0.000000 0.501961 0.501961 0.501961 #0.000000
v 0.858398 4.370361 0.000000 0.501961 0.501961 0.501961 #0.000000
v 1.491699 1.266357 0.000000 0.501961 0.501961 0.501961 #0.000000
v 0.858398 4.370361 0.000000 0.501961 0.501961 0.501961 #0.000000
v 1.541016 4.365967 0.000000 0.501961 0.501961 0.501961 #0.000000
v 1.491699 1.266357 0.000000 0.501961 0.501961 0.501961 #0.000000
v 1.541016 4.365967 0.000000 0.501961 0.501961 0.501961 #0.000000
v 2.176514 3.439453 0.000000 0.501961 0.501961 0.501961 #0.000000
v 1.491699 1.266357 0.000000 0.501961 0.501961 0.501961 #0.000000
v -0.973389 0.366699 0.033447 0.501961 0.501961 0.501961 #0.000000
v -1.461914 0.285400 0.033447 0.501961 0.501961 0.501961 #0.000000
v -0.422119 0.044189 0.033447 0.501961 0.501961 0.501961 #0.000000
v -1.188477 0.850342 0.033447 0.501961 0.501961 0.501961 #0.000000
v -0.973389 0.366699 0.033447 0.501961 0.501961 0.501961 #0.000000
v -0.182861 0.475586 0.033447 0.501961 0.501961 0.501961 #0.000000
v -0.973389 0.366699 0.033447 0.501961 0.501961 0.501961 #0.000000
v -0.422119 0.044189 0.033447 0.501961 0.501961 0.501961 #0.000000
v -0.182861 0.475586 0.033447 0.501961 0.501961 0.501961 #0.000000
v -0.973389 0.366699 0.033447 0.501961 0.501961 0.501961 #0.000000
v -1.188477 0.850342 0.033447 0.501961 0.501961 0.501961 #0.000000
v -1.461914 0.285400 0.033447 0.501961 0.501961 0.501961 #0.000000
v -2.093018 4.539551 0.033447 0.501961 0.501961 0.501961 #0.000000
v -2.343994 4.716064 0.033447 0.501961 0.501961 0.501961 #0.000000
v -2.140869 3.992188 0.033447 0.501961 0.501961 0.501961 #0.000000
v -2.093018 4.539551 0.033447 0.501961 0.501961 0.501961 #0.000000
v -2.140869 3.992188 0.033447 0.501961 0.501961 0.501961 #0.000000
v -1.835449 5.000000 0.033447 0.501961 0.501961 0.501961 #0.000000
v -2.093018 4.539551 0.033447 0.501961 0.501961 0.501961 #0.000000
v -1.835449 5.000000 0.033447 0.501961 0.501961 0.501961 #0.000000
v -2.343994 4.716064 0.033447 0.501961 0.501961 0.501961 #0.000000
v -1.812256 4.508301 0.033447 0.501961 0.501961 0.501961 #0.000000
v -1.835449 5.000000 0.033447 0.501961 0.501961 0.501961 #0.000000
v -2.140869 3.992188 0.033447 0.501961 0.501961 0.501961 #0.000000
v -1.812256 4.508301 0.033447 0.501961 0.501961 0.501961 #0.000000
v -2.140869 3.992188 0.033447 0.501961 0.501961 0.501961 #0.000000
v -1.361572 4.684570 0.033447 0.501961 0.501961 0.501961 #0.000000
v -1.812256 4.508301 0.033447 0.501961 0.501961 0.501961 #0.000000
v -1.361572 4.684570 0.033447 0.501961 0.501961 0.501961 #0.000000
v -1.835449 5.000000 0.033447 0.501961 0.501961 0.501961 #0.000000
v -1.800049 1.536377 0.033447 0.501961 0.501961 0.501961 #0.000000
v -1.805420 1.281494 0.033447 0.501961 0.501961 0.501961 #0.000000
v -1.364502 1.463135 0.033447 0.501961 0.501961 0.501961 #0.000000
v -1.800049 1.536377 0.033447 0.501961 0.501961 0.501961 #0.000000
v -1.364502 1.463135 0.033447 0.501961 0.501961 0.501961 #0.000000
v -2.186523 1.788818 0.033447 0.501961 0.501961 0.501961 #0.000000
v -1.800049 1.536377 0.033447 0.501961 0.501961 0.501961 #0.000000
v -2.186523 1.788818 0.033447 0.501961 0.501961 0.501961 #0.000000
v -1.805420 1.281494 0.033447 0.501961 0.501961 0.501961 #0.000000
v -1.811035 1.778809 0.033447 0.501961 0.501961 0.501961 #0.000000
v -2.186523 1.788818 0.033447 0.501961 0.501961 0.501961 #0.000000
v -1.364502 1.463135 0.033447 0.501961 0.501961 0.501961 #0.000000
v -1.811035 1.778809 0.033447 0.501961 0.501961 0.501961 #0.000000
v -1.364502 1.463135 0.033447 0.501961 0.501961 0.501961 #0.000000
v -2.059570 2.188232 0.033447 0.501961 0.501961 0.501961 #0.000000
v -1.811035 1.778809 0.033447 0.501961 0.501961 0.501961 #0.000000
v -2.059570 2.188232 0.033447 0.501961 0.501961 0.501961 #0.000000
v -2.186523 1.788818 0.033447 0.501961 0.501961 0.501961 #0.000000
v 2.141846 1.832764 0.033447 0.501961 0.501961 0.501961 #0.000000
v 2.392578 1.880127 0.033447 0.501961 0.501961 0.501961 #0.000000
v 2.139404 2.317627 0.033447 0.501961 0.501961 0.501961 #0.000000
v 2.141846 1.832764 0.033447 0.501961 0.501961 0.501961 #0.000000
v 2.139404 2.317627 0.033447 0.501961 0.501961 0.501961 #0.000000
v 1.964355 1.362793 0.033447 0.501961 0.501961 0.501961 #0.000000
v 2.141846 1.832764 0.033447 0.501961 0.501961 0.501961 #0.000000
v 1.964355 1.362793 0.033447 0.501961 0.501961 0.501961 #0.000000
v 2.392578 1.880127 0.033447 0.501961 0.501961 0.501961 #0.000000
v 1.852783 0.702637 0.033447 0.501961 0.501961 0.501961 #0.000000
v 2.156982 0.640137 0.033447 0.501961 0.501961 0.501961 #0.000000
v 1.964355 1.362793 0.033447 0.501961 0.501961 0.501961 #0.000000
v 1.852783 0.702637 0.033447 0.501961 0.501961 0.501961 #0.000000
v 1.964355 1.362793 0.033447 0.501961 0.501961 0.501961 #0.000000
v 1.522949 0.111572 0.033447 0.501961 0.501961 0.501961 #0.000000
v 1.852783 0.702637 0.033447 0.501961 0.501961 0.501961 #0.000000
v 1.522949 0.111572 0.033447 0.501961 0.501961 0.501961 #0.000000
v 2.156982 0.640137 0.033447 0.501961 0.501961 0.501961 #0.000000
v 1.323242 0.612061 0.033447 0.501961 0.501961 0.501961 #0.000000
v 1.522949 0.111572 0.033447 0.501961 0.501961 0.501961 #0.000000
v 1.964355 1.362793 0.033447 0.501961 0.501961 0.501961 #0.000000
v 1.323242 0.612061 0.033447 0.501961 0.501961 0.501961 #0.000000
v 0.464111 0.197998 0.033447 0.501961 0.501961 0.501961 #0.000000
v 1.522949 0.111572 0.033447 0.501961 0.501961 0.501961 #0.000000
v 1.964355 1.362793 0.033447 0.501961 0.501961 0.501961 #0.000000
v 0.403076 0.958740 0.033447 0.501961 0.501961 0.501961 #0.000000
v 1.323242 0.612061 0.033447 0.501961 0.501961 0.501961 #0.000000
v 0.403076 0.958740 0.033447 0.501961 0.501961 0.501961 #0.000000
v 0.201416 0.492920 0.033447 0.501961 0.501961 0.501961 #0.000000
v 1.323242 0.612061 0.033447 0.501961 0.501961 0.501961 #0.000000
v 0.201416 0.492920 0.033447 0.501961 0.501961 0.501961 #0.000000
v 0.464111 0.197998 0.033447 0.501961 0.501961 0.501961 #0.000000
v 1.323242 0.612061 0.033447 0.501961 0.501961 0.501961 #0.000000
v 0.212891 4.149414 0.033447 0.501961 0.501961 0.501961 #0.000000
v -2.140869 3.992188 0.033447 0.501961 0.501961 0.501961 #0.000000
v -2.337891 3.614014 0.033447 0.501961 0.501961 0.501961 #0.000000
v -2.140869 3.992188 0.033447 0.501961 0.501961 0.501961 #0.000000
v 0.212891 4.149414 0.033447 0.501961 0.501961 0.501961 #0.000000
v -1.361572 4.684570 0.033447 0.501961 0.501961 0.501961 #0.000000
v 2.449951 2.837158 0.033447 0.501961 0.501961 0.501961 #0.000000
v 1.906494 4.240234 0.033447 0.501961 0.501961 0.501961 #0.000000
v 1.001953 4.385010 0.033447 0.501961 0.501961 0.501961 #0.000000
v 1.001953 4.385010 0.033447 0.501961 0.501961 0.501961 #0.000000
v 2.139404 2.317627 0.033447 0.501961 0.501961 0.501961 #0.000000
v 2.449951 2.837158 0.033447 0.501961 0.501961 0.501961 #0.000000
v 1.255371 3.426758 0.033447 0.501961 0.501961 0.501961 #0.000000
v 1.001953 4.385010 0.033447 0.501961 0.501961 0.501961 #0.000000
v 0.212891 4.149414 0.033447 0.501961 0.501961 0.501961 #0.000000
v 1.255371 3.426758 0.033447 0.501961 0.501961 0.501961 #0.000000
v 0.212891 4.149414 0.033447 0.501961 0.501961 0.501961 #0.000000
v 1.176270 3.233398 0.033447 0.501961 0.501961 0.501961 #0.000000
v 1.255371 3.426758 0.033447 0.501961 0.501961 0.501961 #0.000000
v 2.139404 2.317627 0.033447 0.501961 0.501961 0.501961 #0.000000
v 1.001953 4.385010 0.033447 0.501961 0.501961 0.501961 #0.000000
v 0.212891 4.149414 0.033447 0.501961 0.501961 0.501961 #0.000000
v -2.059570 2.188232 0.033447 0.501961 0.501961 0.501961 #0.000000
v -1.364502 1.463135 0.033447 0.501961 0.501961 0.501961 #0.000000
v -2.059570 2.188232 0.033447 0.501961 0.501961 0.501961 #0.000000
v 0.212891 4.149414 0.033447 0.501961 0.501961 0.501961 #0.000000
v -2.337891 3.614014 0.033447 0.501961 0.501961 0.501961 #0.000000
v 0.291016 2.575195 0.033447 0.501961 0.501961 0.501961 #0.000000
v 0.212891 4.149414 0.033447 0.501961 0.501961 0.501961 #0.000000
v -1.364502 1.463135 0.033447 0.501961 0.501961 0.501961 #0.000000
v 0.291016 2.575195 0.033447 0.501961 0.501961 0.501961 #0.000000
v 0.387451 1.890381 0.033447 0.501961 0.501961 0.501961 #0.000000
v 2.139404 2.317627 0.033447 0.501961 0.501961 0.501961 #0.000000
v 0.291016 2.575195 0.033447 0.501961 0.501961 0.501961 #0.000000
v 1.176270 3.233398 0.033447 0.501961 0.501961 0.501961 #0.000000
v 0.212891 4.149414 0.033447 0.501961 0.501961 0.501961 #0.000000
v 0.554688 1.683105 0.033447 0.501961 0.501961 0.501961 #0.000000
v 2.139404 2.317627 0.033447 0.501961 0.501961 0.501961 #0.000000
v 0.387451 1.890381 0.033447 0.501961 0.501961 0.501961 #0.000000
v 1.964355 1.362793 0.033447 0.501961 0.501961 0.501961 #0.000000
v 0.554688 1.683105 0.033447 0.501961 0.501961 0.501961 #0.000000
v 0.403076 0.958740 0.033447 0.501961 0.501961 0.501961 #0.000000
v 0.554688 1.683105 0.033447 0.501961 0.501961 0.501961 #0.000000
v -1.364502 1.463135 0.033447 0.501961 0.501961 0.501961 #0.000000
v 0.403076 0.958740 0.033447 0.501961 0.501961 0.501961 #0.000000
v -1.364502 1.463135 0.033447 0.501961 0.501961 0.501961 #0.000000
v -1.188477 0.850342 0.033447 0.501961 0.501961 0.501961 #0.000000
v 0.403076 0.958740 0.033447 0.501961 0.501961 0.501961 #0.000000
v 0.554688 1.683105 0.033447 0.501961 0.501961 0.501961 #0.000000
v 1.964355 1.362793 0.033447 0.501961 0.501961 0.501961 #0.000000
v 2.139404 2.317627 0.033447 0.501961 0.501961 0.501961 #0.000000
v 0.201416 0.492920 0.033447 0.501961 0.501961 0.501961 #0.000000
v 0.403076 0.958740 0.033447 0.501961 0.501961 0.501961 #0.000000
v -0.182861 0.475586 0.033447 0.501961 0.501961 0.501961 #0.000000
v -1.188477 0.850342 0.033447 0.501961 0.501961 0.501961 #0.000000
v -0.182861 0.475586 0.033447 0.501961 0.501961 0.501961 #0.000000
v 0.403076 0.958740 0.033447 0.501961 0.501961 0.501961 #0.000000
v 0.291016 2.575195 0.033447 0.501961 0.501961 0.501961 #0.000000
v 2.139404 2.317627 0.033447 0.501961 0.501961 0.501961 #0.000000
v 1.176270 3.233398 0.033447 0.501961 0.501961 0.501961 #0.000000
v 1.255371 3.426758 0.033447 0.501961 0.501961 0.501961 #0.000000
v 1.176270 3.233398 0.033447 0.501961 0.501961 0.501961 #0.000000
v 2.139404 2.317627 0.033447 0.501961 0.501961 0.501961 #0.000000
v 0.291016 2.575195 0.033447 0.501961 0.501961 0.501961 #0.000000
v -1.364502 1.463135 0.033447 0.501961 0.501961 0.501961 #0.000000
v 0.387451 1.890381 0.033447 0.501961 0.501961 0.501961 #0.000000
v 0.554688 1.683105 0.033447 0.501961 0.501961 0.501961 #0.000000
v 0.387451 1.890381 0.033447 0.501961 0.501961 0.501961 #0.000000
v -1.364502 1.463135 0.033447 0.501961 0.501961 0.501961 #0.000000
vt 0.104736 0.087646 0.000000
vt 0.208252 0.053955 0.000000
vt 0.114502 0.201172 0.000000
vt 0.168945 0.991455 0.000000
vt 0.160645 0.890381 0.000000
vt 0.229492 0.991699 0.000000
vt 0.229492 0.991699 0.000000
vt 0.160645 0.890381 0.000000
vt 0.255371 0.870117 0.000000
vt 0.468506 0.414307 0.000000
vt 0.423096 0.805420 0.000000
vt 0.419678 0.357178 0.000000
vt 0.423096 0.805420 0.000000
vt 0.309570 0.881592 0.000000
vt 0.419678 0.357178 0.000000
vt 0.309570 0.881592 0.000000
vt 0.255371 0.870117 0.000000
vt 0.419678 0.357178 0.000000
vt 0.208252 0.053955 0.000000
vt 0.261963 0.121826 0.000000
vt 0.114502 0.201172 0.000000
vt 0.018555 0.363281 0.000000
vt 0.095703 0.291504 0.000000
vt 0.027100 0.738525 0.000000
vt 0.037354 0.918457 0.000000
vt 0.001709 0.829102 0.000000
vt 0.076660 0.889648 0.000000
vt 0.001709 0.829102 0.000000
vt 0.027100 0.738525 0.000000
vt 0.076660 0.889648 0.000000
vt 0.459961 0.213623 0.000000
vt 0.419678 0.357178 0.000000
vt 0.409668 0.088379 0.000000
vt 0.409668 0.088379 0.000000
vt 0.419678 0.357178 0.000000
vt 0.261963 0.121826 0.000000
vt 0.419678 0.357178 0.000000
vt 0.255371 0.870117 0.000000
vt 0.261963 0.121826 0.000000
vt 0.261963 0.121826 0.000000
vt 0.255371 0.870117 0.000000
vt 0.114502 0.201172 0.000000
vt 0.114502 0.201172 0.000000
vt 0.255371 0.870117 0.000000
vt 0.095703 0.291504 0.000000
vt 0.255371 0.870117 0.000000
vt 0.160645 0.890381 0.000000
vt 0.095703 0.291504 0.000000
vt 0.160645 0.890381 0.000000
vt 0.076660 0.889648 0.000000
vt 0.095703 0.291504 0.000000
vt 0.076660 0.889648 0.000000
vt 0.027100 0.738525 0.000000
vt 0.095703 0.291504 0.000000
vt 0.669189 0.104004 0.000000
vt 0.622559 0.088623 0.000000
vt 0.719971 0.044922 0.000000
vt 0.650635 0.193115 0.000000
vt 0.669189 0.104004 0.000000
vt 0.738037 0.119873 0.000000
vt 0.669189 0.104004 0.000000
vt 0.719971 0.044922 0.000000
vt 0.738037 0.119873 0.000000
vt 0.669189 0.104004 0.000000
vt 0.650635 0.193115 0.000000
vt 0.622559 0.088623 0.000000
vt 0.560303 0.908936 0.000000
vt 0.535400 0.944580 0.000000
vt 0.558838 0.806152 0.000000
vt 0.560303 0.908936 0.000000
vt 0.558838 0.806152 0.000000
vt 0.582275 0.993164 0.000000
vt 0.560303 0.908936 0.000000
vt 0.582275 0.993164 0.000000
vt 0.535400 0.944580 0.000000
vt 0.589600 0.899170 0.000000
vt 0.582275 0.993164 0.000000
vt 0.558838 0.806152 0.000000
vt 0.589600 0.899170 0.000000
vt 0.558838 0.806152 0.000000
vt 0.637207 0.925781 0.000000
vt 0.589600 0.899170 0.000000
vt 0.637207 0.925781 0.000000
vt 0.582275 0.993164 0.000000
vt 0.589600 0.330078 0.000000
vt 0.588135 0.283447 0.000000
vt 0.628906 0.313232 0.000000
vt 0.589600 0.330078 0.000000
vt 0.628906 0.313232 0.000000
vt 0.555176 0.379150 0.000000
vt 0.589600 0.330078 0.000000
vt 0.555176 0.379150 0.000000
vt 0.588135 0.283447 0.000000
vt 0.589844 0.376953 0.000000
vt 0.555176 0.379150 0.000000
vt 0.628906 0.313232 0.000000
vt 0.589844 0.376953 0.000000
vt 0.628906 0.313232 0.000000
vt 0.569824 0.459473 0.000000
vt 0.589844 0.376953 0.000000
vt 0.569824 0.459473 0.000000
vt 0.555176 0.379150 0.000000
vt 0.967529 0.384277 0.000000
vt 0.993164 0.390137 0.000000
vt 0.967041 0.475342 0.000000
vt 0.967529 0.384277 0.000000
vt 0.967041 0.475342 0.000000
vt 0.949707 0.298096 0.000000
vt 0.967529 0.384277 0.000000
vt 0.949707 0.298096 0.000000
vt 0.993164 0.390137 0.000000
vt 0.938721 0.169189 0.000000
vt 0.966064 0.153076 0.000000
vt 0.949707 0.298096 0.000000
vt 0.938721 0.169189 0.000000
vt 0.949707 0.298096 0.000000
vt 0.907959 0.056396 0.000000
vt 0.938721 0.169189 0.000000
vt 0.907959 0.056396 0.000000
vt 0.966064 0.153076 0.000000
vt 0.889648 0.152100 0.000000
vt 0.907959 0.056396 0.000000
vt 0.949707 0.298096 0.000000
vt 0.889648 0.152100 0.000000
vt 0.809082 0.070313 0.000000
vt 0.907959 0.056396 0.000000
vt 0.949707 0.298096 0.000000
vt 0.802490 0.216309 0.000000
vt 0.889648 0.152100 0.000000
vt 0.802490 0.216309 0.000000
vt 0.785156 0.124023 0.000000
vt 0.889648 0.152100 0.000000
vt 0.785156 0.124023 0.000000
vt 0.809082 0.070313 0.000000
vt 0.889648 0.152100 0.000000
vt 0.781738 0.831543 0.000000
vt 0.558838 0.806152 0.000000
vt 0.539063 0.721436 0.000000
vt 0.558838 0.806152 0.000000
vt 0.781738 0.831543 0.000000
vt 0.637207 0.925781 0.000000
vt 0.994629 0.579346 0.000000
vt 0.944092 0.850098 0.000000
vt 0.860840 0.878906 0.000000
vt 0.860840 0.878906 0.000000
vt 0.967041 0.475342 0.000000
vt 0.994629 0.579346 0.000000
vt 0.882813 0.691406 0.000000
vt 0.860840 0.878906 0.000000
vt 0.781738 0.831543 0.000000
vt 0.882813 0.691406 0.000000
vt 0.781738 0.831543 0.000000
vt 0.874268 0.653320 0.000000
vt 0.882813 0.691406 0.000000
vt 0.967041 0.475342 0.000000
vt 0.860840 0.878906 0.000000
vt 0.781738 0.831543 0.000000
vt 0.569824 0.459473 0.000000
vt 0.628906 0.313232 0.000000
vt 0.569824 0.459473 0.000000
vt 0.781738 0.831543 0.000000
vt 0.539063 0.721436 0.000000
vt 0.788818 0.526855 0.000000
vt 0.781738 0.831543 0.000000
vt 0.628906 0.313232 0.000000
vt 0.788818 0.526855 0.000000
vt 0.797852 0.394287 0.000000
vt 0.967041 0.475342 0.000000
vt 0.788818 0.526855 0.000000
vt 0.874268 0.653320 0.000000
vt 0.781738 0.831543 0.000000
vt 0.813965 0.355957 0.000000
vt 0.967041 0.475342 0.000000
vt 0.797852 0.394287 0.000000
vt 0.949707 0.298096 0.000000
vt 0.813965 0.355957 0.000000
vt 0.802490 0.216309 0.000000
vt 0.813965 0.355957 0.000000
vt 0.628906 0.313232 0.000000
vt 0.802490 0.216309 0.000000
vt 0.628906 0.313232 0.000000
vt 0.650635 0.193115 0.000000
vt 0.802490 0.216309 0.000000
vt 0.813965 0.355957 0.000000
vt 0.949707 0.298096 0.000000
vt 0.967041 0.475342 0.000000
vt 0.785156 0.124023 0.000000
vt 0.802490 0.216309 0.000000
vt 0.738037 0.119873 0.000000
vt 0.650635 0.193115 0.000000
vt 0.738037 0.119873 0.000000
vt 0.802490 0.216309 0.000000
vt 0.788818 0.526855 0.000000
vt 0.967041 0.475342 0.000000
vt 0.874268 0.653320 0.000000
vt 0.882813 0.691406 0.000000
vt 0.874268 0.653320 0.000000
vt 0.967041 0.475342 0.000000
vt 0.788818 0.526855 0.000000
vt 0.628906 0.313232 0.000000
vt 0.797852 0.394287 0.000000
vt 0.813965 0.355957 0.000000
vt 0.797852 0.394287 0.000000
vt 0.628906 0.313232 0.000000
vn 0.000000 0.000000 -1.000000
vn 0.000000 0.000000 -1.000000
vn 0.000000 0.000000 -1.000000
vn 0.000000 0.000000 -1.000000
vn 0.000000 0.000000 -1.000000
vn 0.000000 0.000000 -1.000000
vn 0.000000 0.000000 -1.000000
vn 0.000000 0.000000 -1.000000
vn 0.000000 0.000000 -1.000000
vn 0.000000 0.000000 -1.000000
vn 0.000000 0.000000 -1.000000
vn 0.000000 0.000000 -1.000000
vn 0.000000 0.000000 -1.000000
vn 0.000000 0.000000 -1.000000
vn 0.000000 0.000000 -1.000000
vn 0.000000 0.000000 -1.000000
vn 0.000000 0.000000 -1.000000
vn 0.000000 0.000000 -1.000000
vn 0.000000 0.000000 -1.000000
vn 0.000000 0.000000 -1.000000
vn 0.000000 0.000000 -1.000000
vn 0.000000 0.000000 -1.000000
vn 0.000000 0.000000 -1.000000
vn 0.000000 0.000000 -1.000000
vn 0.000000 0.000000 -1.000000
vn 0.000000 0.000000 -1.000000
vn 0.000000 0.000000 -1.000000
vn 0.000000 0.000000 -1.000000
vn 0.000000 0.000000 -1.000000
vn 0.000000 0.000000 -1.000000
vn 0.000000 0.000000 -1.000000
vn 0.000000 0.000000 -1.000000
vn 0.000000 0.000000 -1.000000
vn 0.000000 0.000000 -1.000000
vn 0.000000 0.000000 -1.000000
vn 0.000000 0.000000 -1.000000
vn 0.000000 0.000000 -1.000000
vn 0.000000 0.000000 -1.000000
vn 0.000000 0.000000 -1.000000
vn 0.000000 0.000000 -1.000000
vn 0.000000 0.000000 -1.000000
vn 0.000000 0.000000 -1.000000
vn 0.000000 0.000000 -1.000000
vn 0.000000 0.000000 -1.000000
vn 0.000000 0.000000 -1.000000
vn 0.000000 0.000000 -1.000000
vn 0.000000 0.000000 -1.000000
vn 0.000000 0.000000 -1.000000
vn 0.000000 0.000000 -1.000000
vn 0.000000 0.000000 -1.000000
vn 0.000000 0.000000 -1.000000
vn 0.000000 0.000000 -1.000000
vn 0.000000 0.000000 -1.000000
vn 0.000000 0.000000 -1.000000
vn 0.000000 0.000000 1.000000
vn 0.000000 0.000000 1.000000
vn 0.000000 0.000000 1.000000
vn 0.000000 0.000000 1.000000
vn 0.000000 0.000000 1.000000
vn 0.000000 0.000000 1.000000
vn 0.000000 0.000000 1.000000
vn 0.000000 0.000000 1.000000
vn 0.000000 0.000000 1.000000
vn 0.000000 0.000000 1.000000
vn 0.000000 0.000000 1.000000
vn 0.000000 0.000000 1.000000
vn 0.000000 0.000000 1.000000
vn 0.000000 0.000000 1.000000
vn 0.000000 0.000000 1.000000
vn 0.000000 0.000000 1.000000
vn 0.000000 0.000000 1.000000
vn 0.000000 0.000000 1.000000
vn 0.000000 0.000000 1.000000
vn 0.000000 0.000000 1.000000
vn 0.000000 0.000000 1.000000
vn 0.000000 0.000000 1.000000
vn 0.000000 0.000000 1.000000
vn 0.000000 0.000000 1.000000
vn 0.000000 0.000000 1.000000
vn 0.000000 0.000000 1.000000
vn 0.000000 0.000000 1.000000
vn 0.000000 0.000000 1.000000
vn 0.000000 0.000000 1.000000
vn 0.000000 0.000000 1.000000
vn 0.000000 0.000000 1.000000
vn 0.000000 0.000000 1.000000
vn 0.000000 0.000000 1.000000
vn 0.000000 0.000000 1.000000
vn 0.000000 0.000000 1.000000
vn 0.000000 0.000000 1.000000
vn 0.000000 0.000000 1.000000
vn 0.000000 0.000000 1.000000
vn 0.000000 0.000000 1.000000
vn 0.000000 0.000000 1.000000
vn 0.000000 0.000000 1.000000
vn 0.000000 0.000000 1.000000
vn 0.000000 0.000000 1.000000
vn 0.000000 0.000000 1.000000
vn 0.000000 0.000000 1.000000
vn 0.000000 0.000000 1.000000
vn 0.000000 0.000000 1.000000
vn 0.000000 0.000000 1.000000
vn 0.000000 0.000000 1.000000
vn 0.000000 0.000000 1.000000
vn 0.000000 0.000000 1.000000
vn 0.000000 0.000000 1.000000
vn 0.000000 0.000000 1.000000
vn 0.000000 0.000000 1.000000
vn 0.000000 0.000000 1.000000
vn 0.000000 0.000000 1.000000
vn 0.000000 0.000000 1.000000
vn 0.000000 0.000000 1.000000
vn 0.000000 0.000000 1.000000
vn 0.000000 0.000000 1.000000
vn 0.000000 0.000000 1.000000
vn 0.000000 0.000000 1.000000
vn 0.000000 0.000000 1.000000
vn 0.000000 0.000000 1.000000
vn 0.000000 0.000000 1.000000
vn 0.000000 0.000000 1.000000
vn 0.000000 0.000000 1.000000
vn 0.000000 0.000000 1.000000
vn 0.000000 0.000000 1.000000
vn 0.000000 0.000000 1.000000
vn 0.000000 0.000000 1.000000
vn 0.000000 0.000000 1.000000
vn 0.000000 0.000000 1.000000
vn 0.000000 0.000000 1.000000
vn 0.000000 0.000000 1.000000
vn 0.000000 0.000000 1.000000
vn 0.000000 0.000000 1.000000
vn 0.000000 0.000000 1.000000
vn 0.000000 0.000000 1.000000
vn 0.000000 0.000000 1.000000
vn 0.000000 0.000000 1.000000
vn 0.000000 0.000000 1.000000
vn 0.000000 0.000000 1.000000
vn 0.000000 0.000000 1.000000
vn 0.000000 0.000000 1.000000
vn 0.000000 0.000000 1.000000
vn 0.000000 0.000000 1.000000
vn 0.000000 0.000000 1.000000
vn 0.000000 0.000000 1.000000
vn 0.000000 0.000000 1.000000
vn 0.000000 0.000000 1.000000
vn 0.000000 0.000000 1.000000
vn 0.000000 0.000000 1.000000
vn 0.000000 0.000000 1.000000
vn 0.000000 0.000000 1.000000
vn 0.000000 0.000000 1.000000
vn 0.000000 0.000000 1.000000
vn 0.000000 0.000000 1.000000
vn 0.000000 0.000000 1.000000
vn 0.000000 0.000000 1.000000
vn 0.000000 0.000000 1.000000
vn 0.000000 0.000000 1.000000
vn 0.000000 0.000000 1.000000
vn 0.000000 0.000000 1.000000
vn 0.000000 0.000000 1.000000
vn 0.000000 0.000000 1.000000
vn 0.000000 0.000000 1.000000
vn 0.000000 0.000000 1.000000
vn 0.000000 0.000000 1.000000
vn 0.000000 0.000000 1.000000
vn 0.000000 0.000000 1.000000
vn 0.000000 0.000000 1.000000
vn 0.000000 0.000000 1.000000
vn 0.000000 0.000000 1.000000
vn 0.000000 0.000000 1.000000
vn 0.000000 0.000000 1.000000
vn 0.000000 0.000000 1.000000
vn 0.000000 0.000000 1.000000
vn 0.000000 0.000000 1.000000
vn 0.000000 0.000000 1.000000
vn 0.000000 0.000000 1.000000
vn 0.000000 0.000000 1.000000
vn 0.000000 0.000000 1.000000
vn 0.000000 0.000000 1.000000
vn 0.000000 0.000000 1.000000
vn 0.000000 0.000000 1.000000
vn 0.000000 0.000000 1.000000
vn 0.000000 0.000000 1.000000
vn 0.000000 0.000000 1.000000
vn 0.000000 0.000000 1.000000
vn 0.000000 0.000000 1.000000
vn 0.000000 0.000000 1.000000
vn 0.000000 0.000000 1.000000
vn 0.000000 0.000000 1.000000
vn 0.000000 0.000000 1.000000
vn 0.000000 0.000000 1.000000
vn 0.000000 0.000000 1.000000
vn 0.000000 0.000000 1.000000
vn 0.000000 0.000000 1.000000
vn 0.000000 0.000000 1.000000
vn 0.000000 0.000000 1.000000
vn 0.000000 0.000000 1.000000
vn 0.000000 0.000000 1.000000
vn 0.000000 0.000000 1.000000
vn 0.000000 0.000000 1.000000
vn 0.000000 0.000000 1.000000
vn 0.000000 0.000000 1.000000
vn 0.000000 0.000000 1.000000
vn 0.000000 0.000000 1.000000
vn 0.000000 0.000000 1.000000
usemtl Texture
f 1/1/1 2/2/2 3/3/3
f 4/4/4 5/5/5 6/6/6
f 7/7/7 8/8/8 9/9/9
f 10/10/10 11/11/11 12/12/12
f 13/13/13 14/14/14 15/15/15
f 16/16/16 17/17/17 18/18/18
f 19/19/19 20/20/20 21/21/21
f 22/22/22 23/23/23 24/24/24
f 25/25/25 26/26/26 27/27/27
f 28/28/28 29/29/29 30/30/30
f 31/31/31 32/32/32 33/33/33
f 34/34/34 35/35/35 36/36/36
f 37/37/37 38/38/38 39/39/39
f 40/40/40 41/41/41 42/42/42
f 43/43/43 44/44/44 45/45/45
f 46/46/46 47/47/47 48/48/48
f 49/49/49 50/50/50 51/51/51
f 52/52/52 53/53/53 54/54/54
f 55/55/55 56/56/56 57/57/57
f 58/58/58 59/59/59 60/60/60
f 61/61/61 62/62/62 63/63/63
f 64/64/64 65/65/65 66/66/66
f 67/67/67 68/68/68 69/69/69
f 70/70/70 71/71/71 72/72/72
f 73/73/73 74/74/74 75/75/75
f 76/76/76 77/77/77 78/78/78
f 79/79/79 80/80/80 81/81/81
f 82/82/82 83/83/83 84/84/84
f 85/85/85 86/86/86 87/87/87
f 88/88/88 89/89/89 90/90/90
f 91/91/91 92/92/92 93/93/93
f 94/94/94 95/95/95 96/96/96
f 97/97/97 98/98/98 99/99/99
f 100/100/100 101/101/101 102/102/102
f 103/103/103 104/104/104 105/105/105
f 106/106/106 107/107/107 108/108/108
f 109/109/109 110/110/110 111/111/111
f 112/112/112 113/113/113 114/114/114
f 115/115/115 116/116/116 117/117/117
f 118/118/118 119/119/119 120/120/120
f 121/121/121 122/122/122 123/123/123
f 124/124/124 125/125/125 126/126/126
f 127/127/127 128/128/128 129/129/129
f 130/130/130 131/131/131 132/132/132
f 133/133/133 134/134/134 135/135/135
f 136/136/136 137/137/137 138/138/138
f 139/139/139 140/140/140 141/141/141
f 142/142/142 143/143/143 144/144/144
f 145/145/145 146/146/146 147/147/147
f 148/148/148 149/149/149 150/150/150
f 151/151/151 152/152/152 153/153/153
f 154/154/154 155/155/155 156/156/156
f 157/157/157 158/158/158 159/159/159
f 160/160/160 161/161/161 162/162/162
f 163/163/163 164/164/164 165/165/165
f 166/166/166 167/167/167 168/168/168
f 169/169/169 170/170/170 171/171/171
f 172/172/172 173/173/173 174/174/174
f 175/175/175 176/176/176 177/177/177
f 178/178/178 179/179/179 180/180/180
f 181/181/181 182/182/182 183/183/183
f 184/184/184 185/185/185 186/186/186
f 187/187/187 188/188/188 189/189/189
f 190/190/190 191/191/191 192/192/192
f 193/193/193 194/194/194 195/195/195
f 196/196/196 197/197/197 198/198/198
f 199/199/199 200/200/200 201/201/201
f 202/202/202 203/203/203 204/204/204