# OBJ file
mtllib fm5.ico.mtl
v 0.418701 1.457764 -1.268799 0.400000 0.400000 0.400000 #0.501961
v 0.677979 1.475342 -1.470459 0.498039 0.498039 0.498039 #0.501961
v 0.398438 1.116211 -1.274902 0.376471 0.376471 0.376471 #0.501961
v 0.398438 1.116211 -1.274902 0.376471 0.376471 0.376471 #0.501961
v 0.677979 1.475342 -1.470459 0.498039 0.498039 0.498039 #0.501961
v 0.645020 1.132080 -1.455811 0.376471 0.376471 0.376471 #0.501961
v 1.273438 1.435303 -1.013184 0.498039 0.498039 0.498039 #0.501961
v 1.568359 1.357422 -0.122803 0.396078 0.396078 0.396078 #0.501961
v 1.211426 1.094238 -1.021484 0.376471 0.376471 0.376471 #0.501961
v 1.211426 1.094238 -1.021484 0.376471 0.376471 0.376471 #0.501961
v 1.568359 1.357422 -0.122803 0.396078 0.396078 0.396078 #0.501961
v 1.491699 1.018066 -0.152344 0.349020 0.349020 0.349020 #0.501961
v 1.568359 1.357422 -0.122803 0.396078 0.396078 0.396078 #0.501961
v 1.120605 1.394775 1.005371 0.247059 0.247059 0.247059 #0.501961
v 1.491699 1.018066 -0.152344 0.349020 0.349020 0.349020 #0.501961
v 1.491699 1.018066 -0.152344 0.349020 0.349020 0.349020 #0.501961
v 1.120605 1.394775 1.005371 0.247059 0.247059 0.247059 #0.501961
v 1.798828 1.356445 0.010986 0.376471 0.376471 0.376471 #0.501961
v 0.693848 1.747559 -1.473877 0.400000 0.400000 0.400000 #0.501961
v 0.642822 2.120117 -1.356201 0.549020 0.549020 0.549020 #0.501961
v 1.285889 1.706299 -1.000488 0.400000 0.400000 0.400000 #0.501961
v 1.285889 1.706299 -1.000488 0.400000 0.400000 0.400000 #0.501961
v 0.642822 2.120117 -1.356201 0.549020 0.549020 0.549020 #0.501961
v 1.175049 2.081543 -0.913818 0.549020 0.549020 0.549020 #0.501961
v 1.285889 1.706299 -1.000488 0.400000 0.400000 0.400000 #0.501961
v 1.175049 2.081543 -0.913818 0.549020 0.549020 0.549020 #0.501961
v 1.575195 1.628418 -0.111328 0.400000 0.400000 0.400000 #0.501961
v 1.175049 2.081543 -0.913818 0.549020 0.549020 0.549020 #0.501961
v 1.462402 2.008057 -0.074951 0.376471 0.376471 0.376471 #0.501961
v 1.575195 1.628418 -0.111328 0.400000 0.400000 0.400000 #0.501961
v 1.575195 1.628418 -0.111328 0.400000 0.400000 0.400000 #0.501961
v 1.462402 2.008057 -0.074951 0.376471 0.376471 0.376471 #0.501961
v 1.120605 1.394775 1.005371 0.247059 0.247059 0.247059 #0.501961
v 1.175049 2.081543 -0.913818 0.549020 0.549020 0.549020 #0.501961
v 0.730957 2.421143 -0.662842 0.600000 0.600000 0.600000 #0.501961
v 1.462402 2.008057 -0.074951 0.376471 0.376471 0.376471 #0.501961
v 0.730957 2.421143 -0.662842 0.600000 0.600000 0.600000 #0.501961
v 0.960449 2.366943 -0.043701 0.400000 0.400000 0.400000 #0.501961
v 1.462402 2.008057 -0.074951 0.376471 0.376471 0.376471 #0.501961
v 1.798828 1.356445 0.010986 0.376471 0.376471 0.376471 #0.501961
v 1.462402 2.008057 -0.074951 0.376471 0.376471 0.376471 #0.501961
v 1.278320 2.486328 -0.302490 0.549020 0.549020 0.549020 #0.501961
v 1.462402 2.008057 -0.074951 0.376471 0.376471 0.376471 #0.501961
v 0.960449 2.366943 -0.043701 0.400000 0.400000 0.400000 #0.501961
v 1.278320 2.486328 -0.302490 0.549020 0.549020 0.549020 #0.501961
v 0.000000 2.418213 -1.042236 0.600000 0.600000 0.600000 #0.501961
v 0.730957 2.421143 -0.662842 0.600000 0.600000 0.600000 #0.501961
v 0.450684 2.362061 -1.136963 0.596078 0.596078 0.600000 #0.501961
v 1.491699 1.018066 -0.152344 0.349020 0.349020 0.349020 #0.501961
v 0.000000 1.015625 -0.633301 0.298039 0.298039 0.298039 #0.501961
v 1.211426 1.094238 -1.021484 0.376471 0.376471 0.376471 #0.501961
v 0.645020 1.132080 -1.455811 0.376471 0.376471 0.376471 #0.501961
v 1.211426 1.094238 -1.021484 0.376471 0.376471 0.376471 #0.501961
v 0.398438 1.116211 -1.274902 0.376471 0.376471 0.376471 #0.501961
v 1.278320 2.486328 -0.302490 0.549020 0.549020 0.549020 #0.501961
v 0.000000 2.563232 -0.029053 0.400000 0.400000 0.400000 #0.501961
v 0.000000 2.973145 -0.733154 0.549020 0.549020 0.549020 #0.501961
v 0.730957 2.421143 -0.662842 0.600000 0.600000 0.600000 #0.501961
v 0.000000 2.563232 -0.029053 0.400000 0.400000 0.400000 #0.501961
v 0.960449 2.366943 -0.043701 0.400000 0.400000 0.400000 #0.501961
v 0.960449 2.366943 -0.043701 0.400000 0.400000 0.400000 #0.501961
v 0.000000 2.563232 -0.029053 0.400000 0.400000 0.400000 #0.501961
v 1.278320 2.486328 -0.302490 0.549020 0.549020 0.549020 #0.501961
v 1.568359 1.357422 -0.122803 0.396078 0.396078 0.396078 #0.501961
v 0.418701 1.457764 -1.268799 0.400000 0.400000 0.400000 #0.501961
v 1.120605 1.394775 1.005371 0.247059 0.247059 0.247059 #0.501961
v 1.568359 1.357422 -0.122803 0.396078 0.396078 0.396078 #0.501961
v 1.273438 1.435303 -1.013184 0.498039 0.498039 0.498039 #0.501961
v 0.677979 1.475342 -1.470459 0.498039 0.498039 0.498039 #0.501961
v 1.568359 1.357422 -0.122803 0.396078 0.396078 0.396078 #0.501961
v 0.677979 1.475342 -1.470459 0.498039 0.498039 0.498039 #0.501961
v 0.418701 1.457764 -1.268799 0.400000 0.400000 0.400000 #0.501961
v 1.285889 1.706299 -1.000488 0.400000 0.400000 0.400000 #0.501961
v 1.575195 1.628418 -0.111328 0.400000 0.400000 0.400000 #0.501961
v 0.693848 1.747559 -1.473877 0.400000 0.400000 0.400000 #0.501961
v 1.575195 1.628418 -0.111328 0.400000 0.400000 0.400000 #0.501961
v 0.437500 1.727295 -1.243164 0.400000 0.400000 0.400000 #0.501961
v 0.693848 1.747559 -1.473877 0.400000 0.400000 0.400000 #0.501961
v 1.120605 1.394775 1.005371 0.247059 0.247059 0.247059 #0.501961
v 0.437500 1.727295 -1.243164 0.400000 0.400000 0.400000 #0.501961
v 1.575195 1.628418 -0.111328 0.400000 0.400000 0.400000 #0.501961
v 0.000000 2.418213 -1.042236 0.600000 0.600000 0.600000 #0.501961
v 0.450684 2.362061 -1.136963 0.596078 0.596078 0.600000 #0.501961
v 0.000000 1.718994 -1.146240 0.356863 0.356863 0.356863 #0.501961
v 0.000000 1.718994 -1.146240 0.356863 0.356863 0.356863 #0.501961
v 0.450684 2.362061 -1.136963 0.596078 0.596078 0.600000 #0.501961
v 0.437500 1.727295 -1.243164 0.400000 0.400000 0.400000 #0.501961
v 0.450684 2.362061 -1.136963 0.596078 0.596078 0.600000 #0.501961
v 0.642822 2.120117 -1.356201 0.549020 0.549020 0.549020 #0.501961
v 0.437500 1.727295 -1.243164 0.400000 0.400000 0.400000 #0.501961
v 0.437500 1.727295 -1.243164 0.400000 0.400000 0.400000 #0.501961
v 0.642822 2.120117 -1.356201 0.549020 0.549020 0.549020 #0.501961
v 0.693848 1.747559 -1.473877 0.400000 0.400000 0.400000 #0.501961
v 0.642822 2.120117 -1.356201 0.549020 0.549020 0.549020 #0.501961
v 0.450684 2.362061 -1.136963 0.596078 0.596078 0.600000 #0.501961
v 1.175049 2.081543 -0.913818 0.549020 0.549020 0.549020 #0.501961
v 0.730957 2.421143 -0.662842 0.600000 0.600000 0.600000 #0.501961
v 1.175049 2.081543 -0.913818 0.549020 0.549020 0.549020 #0.501961
v 0.450684 2.362061 -1.136963 0.596078 0.596078 0.600000 #0.501961
v 0.677979 1.475342 -1.470459 0.498039 0.498039 0.498039 #0.501961
v 1.273438 1.435303 -1.013184 0.498039 0.498039 0.498039 #0.501961
v 0.645020 1.132080 -1.455811 0.376471 0.376471 0.376471 #0.501961
v 0.645020 1.132080 -1.455811 0.376471 0.376471 0.376471 #0.501961
v 1.273438 1.435303 -1.013184 0.498039 0.498039 0.498039 #0.501961
v 1.211426 1.094238 -1.021484 0.376471 0.376471 0.376471 #0.501961
v 0.418701 1.457764 -1.268799 0.400000 0.400000 0.400000 #0.501961
v 0.398438 1.116211 -1.274902 0.376471 0.376471 0.376471 #0.501961
v 0.000000 1.450684 -1.188232 0.356863 0.356863 0.356863 #0.501961
v 0.000000 1.109863 -1.200195 0.356863 0.356863 0.356863 #0.501961
v 0.000000 1.450684 -1.188232 0.356863 0.356863 0.356863 #0.501961
v 0.398438 1.116211 -1.274902 0.376471 0.376471 0.376471 #0.501961
v 0.000000 2.563232 -0.029053 0.400000 0.400000 0.400000 #0.501961
v 0.730957 2.421143 -0.662842 0.600000 0.600000 0.600000 #0.501961
v 0.000000 2.418213 -1.042236 0.600000 0.600000 0.600000 #0.501961
v 1.211426 1.094238 -1.021484 0.376471 0.376471 0.376471 #0.501961
v 0.000000 1.015625 -0.633301 0.298039 0.298039 0.298039 #0.501961
v 0.398438 1.116211 -1.274902 0.376471 0.376471 0.376471 #0.501961
v 1.469482 0.902100 -0.449707 0.400000 0.400000 0.400000 #0.501961
v 0.000000 1.015625 -0.633301 0.298039 0.298039 0.298039 #0.501961
v 1.491699 1.018066 -0.152344 0.349020 0.349020 0.349020 #0.501961
v 0.000000 1.015625 -0.633301 0.298039 0.298039 0.298039 #0.501961
v 0.000000 1.109863 -1.200195 0.356863 0.356863 0.356863 #0.501961
v 0.398438 1.116211 -1.274902 0.376471 0.376471 0.376471 #0.501961
v 1.491699 1.018066 -0.152344 0.349020 0.349020 0.349020 #0.501961
v 1.798828 1.356445 0.010986 0.376471 0.376471 0.376471 #0.501961
v 1.469482 0.902100 -0.449707 0.400000 0.400000 0.400000 #0.501961
v 1.462402 2.008057 -0.074951 0.376471 0.376471 0.376471 #0.501961
v 1.798828 1.356445 0.010986 0.376471 0.376471 0.376471 #0.501961
v 1.120605 1.394775 1.005371 0.247059 0.247059 0.247059 #0.501961
v -0.418701 1.457764 -1.268799 0.400000 0.400000 0.400000 #0.501961
v -0.398438 1.116211 -1.274902 0.376471 0.376471 0.376471 #0.501961
v -0.677979 1.475342 -1.470459 0.498039 0.498039 0.498039 #0.501961
v -0.398438 1.116211 -1.274902 0.376471 0.376471 0.376471 #0.501961
v -0.645020 1.132080 -1.455811 0.376471 0.376471 0.376471 #0.501961
v -0.677979 1.475342 -1.470459 0.498039 0.498039 0.498039 #0.501961
v -1.273438 1.435303 -1.013184 0.498039 0.498039 0.498039 #0.501961
v -1.211426 1.094238 -1.021484 0.376471 0.376471 0.376471 #0.501961
v -1.562256 1.357422 -0.122803 0.396078 0.396078 0.396078 #0.501961
v -1.211426 1.094238 -1.021484 0.376471 0.376471 0.376471 #0.501961
v -1.485840 1.018066 -0.152344 0.349020 0.349020 0.349020 #0.501961
v -1.562256 1.357422 -0.122803 0.396078 0.396078 0.396078 #0.501961
v -1.562256 1.357422 -0.122803 0.396078 0.396078 0.396078 #0.501961
v -1.485840 1.018066 -0.152344 0.349020 0.349020 0.349020 #0.501961
v -1.120605 1.394775 1.005371 0.247059 0.247059 0.247059 #0.501961
v -1.485840 1.018066 -0.152344 0.349020 0.349020 0.349020 #0.501961
v -1.798828 1.356445 0.010986 0.376471 0.376471 0.376471 #0.501961
v -1.120605 1.394775 1.005371 0.247059 0.247059 0.247059 #0.501961
v -0.693848 1.747559 -1.473877 0.400000 0.400000 0.400000 #0.501961
v -1.285889 1.706299 -1.000488 0.400000 0.400000 0.400000 #0.501961
v -0.642822 2.120117 -1.356201 0.549020 0.549020 0.549020 #0.501961
v -1.285889 1.706299 -1.000488 0.400000 0.400000 0.400000 #0.501961
v -1.175049 2.081543 -0.913818 0.549020 0.549020 0.549020 #0.501961
v -0.642822 2.120117 -1.356201 0.549020 0.549020 0.549020 #0.501961
v -1.429688 2.008057 -0.074951 0.376471 0.376471 0.376471 #0.501961
v -1.175049 2.081543 -0.913818 0.549020 0.549020 0.549020 #0.501961
v -1.565186 1.628418 -0.111328 0.400000 0.400000 0.400000 #0.501961
v -1.565186 1.628418 -0.111328 0.400000 0.400000 0.400000 #0.501961
v -1.175049 2.081543 -0.913818 0.549020 0.549020 0.549020 #0.501961
v -1.285889 1.706299 -1.000488 0.400000 0.400000 0.400000 #0.501961
v -1.565186 1.628418 -0.111328 0.400000 0.400000 0.400000 #0.501961
v -1.120605 1.394775 1.005371 0.247059 0.247059 0.247059 #0.501961
v -1.429688 2.008057 -0.074951 0.376471 0.376471 0.376471 #0.501961
v -0.960449 2.366943 -0.043701 0.400000 0.400000 0.400000 #0.501961
v -0.730957 2.421143 -0.662842 0.600000 0.600000 0.600000 #0.501961
v -1.429688 2.008057 -0.074951 0.376471 0.376471 0.376471 #0.501961
v -1.429688 2.008057 -0.074951 0.376471 0.376471 0.376471 #0.501961
v -0.730957 2.421143 -0.662842 0.600000 0.600000 0.600000 #0.501961
v -1.175049 2.081543 -0.913818 0.549020 0.549020 0.549020 #0.501961
v -1.798828 1.356445 0.010986 0.376471 0.376471 0.376471 #0.501961
v -1.278320 2.522217 -0.711182 0.549020 0.549020 0.549020 #0.501961
v -1.429688 2.008057 -0.074951 0.376471 0.376471 0.376471 #0.501961
v -1.429688 2.008057 -0.074951 0.376471 0.376471 0.376471 #0.501961
v -1.278320 2.522217 -0.711182 0.549020 0.549020 0.549020 #0.501961
v -0.960449 2.366943 -0.043701 0.400000 0.400000 0.400000 #0.501961
v -0.730957 2.421143 -0.662842 0.600000 0.600000 0.600000 #0.501961
v 0.000000 2.563232 -0.029053 0.400000 0.400000 0.400000 #0.501961
v 0.000000 2.418213 -1.042236 0.600000 0.600000 0.600000 #0.501961
v -1.485840 1.018066 -0.152344 0.349020 0.349020 0.349020 #0.501961
v -1.211426 1.094238 -1.021484 0.376471 0.376471 0.376471 #0.501961
v 0.000000 1.015625 -0.633301 0.298039 0.298039 0.298039 #0.501961
v -0.645020 1.132080 -1.455811 0.376471 0.376471 0.376471 #0.501961
v -0.398438 1.116211 -1.274902 0.376471 0.376471 0.376471 #0.501961
v -1.211426 1.094238 -1.021484 0.376471 0.376471 0.376471 #0.501961
v -0.960449 2.366943 -0.043701 0.400000 0.400000 0.400000 #0.501961
v -1.278320 2.522217 -0.711182 0.549020 0.549020 0.549020 #0.501961
v 0.000000 2.973145 -0.733154 0.549020 0.549020 0.549020 #0.501961
v -0.730957 2.421143 -0.662842 0.600000 0.600000 0.600000 #0.501961
v -0.960449 2.366943 -0.043701 0.400000 0.400000 0.400000 #0.501961
v 0.000000 2.563232 -0.029053 0.400000 0.400000 0.400000 #0.501961
v -1.562256 1.357422 -0.122803 0.396078 0.396078 0.396078 #0.501961
v -1.120605 1.394775 1.005371 0.247059 0.247059 0.247059 #0.501961
v -0.418701 1.457764 -1.268799 0.400000 0.400000 0.400000 #0.501961
v -1.562256 1.357422 -0.122803 0.396078 0.396078 0.396078 #0.501961
v -0.677979 1.475342 -1.470459 0.498039 0.498039 0.498039 #0.501961
v -1.273438 1.435303 -1.013184 0.498039 0.498039 0.498039 #0.501961
v -1.562256 1.357422 -0.122803 0.396078 0.396078 0.396078 #0.501961
v -0.418701 1.457764 -1.268799 0.400000 0.400000 0.400000 #0.501961
v -0.677979 1.475342 -1.470459 0.498039 0.498039 0.498039 #0.501961
v -1.285889 1.706299 -1.000488 0.400000 0.400000 0.400000 #0.501961
v -0.693848 1.747559 -1.473877 0.400000 0.400000 0.400000 #0.501961
v -1.565186 1.628418 -0.111328 0.400000 0.400000 0.400000 #0.501961
v -1.565186 1.628418 -0.111328 0.400000 0.400000 0.400000 #0.501961
v -0.693848 1.747559 -1.473877 0.400000 0.400000 0.400000 #0.501961
v -0.437500 1.727295 -1.243164 0.400000 0.400000 0.400000 #0.501961
v -1.120605 1.394775 1.005371 0.247059 0.247059 0.247059 #0.501961
v -1.565186 1.628418 -0.111328 0.400000 0.400000 0.400000 #0.501961
v -0.437500 1.727295 -1.243164 0.400000 0.400000 0.400000 #0.501961
v 0.000000 2.418213 -1.042236 0.600000 0.600000 0.600000 #0.501961
v 0.000000 1.718994 -1.146240 0.356863 0.356863 0.356863 #0.501961
v -0.450684 2.362061 -1.136963 0.596078 0.596078 0.600000 #0.501961
v 0.000000 1.718994 -1.146240 0.356863 0.356863 0.356863 #0.501961
v -0.437500 1.727295 -1.243164 0.400000 0.400000 0.400000 #0.501961
v -0.450684 2.362061 -1.136963 0.596078 0.596078 0.600000 #0.501961
v -0.450684 2.362061 -1.136963 0.596078 0.596078 0.600000 #0.501961
v -0.437500 1.727295 -1.243164 0.400000 0.400000 0.400000 #0.501961
v -0.642822 2.120117 -1.356201 0.549020 0.549020 0.549020 #0.501961
v -0.437500 1.727295 -1.243164 0.400000 0.400000 0.400000 #0.501961
v -0.693848 1.747559 -1.473877 0.400000 0.400000 0.400000 #0.501961
v -0.642822 2.120117 -1.356201 0.549020 0.549020 0.549020 #0.501961
v -0.642822 2.120117 -1.356201 0.549020 0.549020 0.549020 #0.501961
v -1.175049 2.081543 -0.913818 0.549020 0.549020 0.549020 #0.501961
v -0.450684 2.362061 -1.136963 0.596078 0.596078 0.600000 #0.501961
v -0.730957 2.421143 -0.662842 0.600000 0.600000 0.600000 #0.501961
v -0.450684 2.362061 -1.136963 0.596078 0.596078 0.600000 #0.501961
v -1.175049 2.081543 -0.913818 0.549020 0.549020 0.549020 #0.501961
v -0.677979 1.475342 -1.470459 0.498039 0.498039 0.498039 #0.501961
v -0.645020 1.132080 -1.455811 0.376471 0.376471 0.376471 #0.501961
v -1.273438 1.435303 -1.013184 0.498039 0.498039 0.498039 #0.501961
v -0.645020 1.132080 -1.455811 0.376471 0.376471 0.376471 #0.501961
v -1.211426 1.094238 -1.021484 0.376471 0.376471 0.376471 #0.501961
v -1.273438 1.435303 -1.013184 0.498039 0.498039 0.498039 #0.501961
v -0.418701 1.457764 -1.268799 0.400000 0.400000 0.400000 #0.501961
v 0.000000 1.450684 -1.188232 0.356863 0.356863 0.356863 #0.501961
v -0.398438 1.116211 -1.274902 0.376471 0.376471 0.376471 #0.501961
v 0.000000 1.109863 -1.200195 0.356863 0.356863 0.356863 #0.501961
v -0.398438 1.116211 -1.274902 0.376471 0.376471 0.376471 #0.501961
v 0.000000 1.450684 -1.188232 0.356863 0.356863 0.356863 #0.501961
v -0.450684 2.362061 -1.136963 0.596078 0.596078 0.600000 #0.501961
v -0.730957 2.421143 -0.662842 0.600000 0.600000 0.600000 #0.501961
v 0.000000 2.418213 -1.042236 0.600000 0.600000 0.600000 #0.501961
v -1.211426 1.094238 -1.021484 0.376471 0.376471 0.376471 #0.501961
v -0.398438 1.116211 -1.274902 0.376471 0.376471 0.376471 #0.501961
v 0.000000 1.015625 -0.633301 0.298039 0.298039 0.298039 #0.501961
v -1.469482 0.902100 -0.449707 0.400000 0.400000 0.400000 #0.501961
v -1.485840 1.018066 -0.152344 0.349020 0.349020 0.349020 #0.501961
v 0.000000 1.015625 -0.633301 0.298039 0.298039 0.298039 #0.501961
v 0.000000 1.015625 -0.633301 0.298039 0.298039 0.298039 #0.501961
v -0.398438 1.116211 -1.274902 0.376471 0.376471 0.376471 #0.501961
v 0.000000 1.109863 -1.200195 0.356863 0.356863 0.356863 #0.501961
v -1.485840 1.018066 -0.152344 0.349020 0.349020 0.349020 #0.501961
v -1.469482 0.902100 -0.449707 0.400000 0.400000 0.400000 #0.501961
v -1.798828 1.356445 0.010986 0.376471 0.376471 0.376471 #0.501961
v -1.429688 2.008057 -0.074951 0.376471 0.376471 0.376471 #0.501961
v -1.120605 1.394775 1.005371 0.247059 0.247059 0.247059 #0.501961
v -1.798828 1.356445 0.010986 0.376471 0.376471 0.376471 #0.501961
v 0.000000 2.563232 -0.029053 0.400000 0.400000 0.400000 #0.501961
v -0.960449 2.366943 -0.043701 0.400000 0.400000 0.400000 #0.501961
v 0.000000 2.973145 -0.733154 0.549020 0.549020 0.549020 #0.501961
v 1.190430 1.707520 -0.926758 0.447059 0.447059 0.447059 #0.501961
v 1.190430 1.425781 -0.951416 0.349020 0.349020 0.349020 #0.501961
v 0.635498 1.748291 -1.394287 0.478431 0.478431 0.478431 #0.501961
v 0.635498 1.466553 -1.418945 0.349020 0.349020 0.349020 #0.501961
v 0.635498 1.748291 -1.394287 0.478431 0.478431 0.478431 #0.501961
v 1.190430 1.425781 -0.951416 0.349020 0.349020 0.349020 #0.501961
v 1.190430 1.707520 -0.926758 0.447059 0.447059 0.447059 #0.501961
v 1.480957 1.635010 -0.099854 0.447059 0.447059 0.447059 #0.501961
v 1.190430 1.425781 -0.951416 0.349020 0.349020 0.349020 #0.501961
v 1.190430 1.425781 -0.951416 0.349020 0.349020 0.349020 #0.501961
v 1.480957 1.635010 -0.099854 0.447059 0.447059 0.447059 #0.501961
v 1.480957 1.353271 -0.124512 0.349020 0.349020 0.349020 #0.501961
v 1.480957 1.353271 -0.124512 0.349020 0.349020 0.349020 #0.501961
v 1.480957 1.635010 -0.099854 0.447059 0.447059 0.447059 #0.501961
v 1.120605 1.394775 1.005371 0.247059 0.247059 0.247059 #0.501961
v 0.437500 1.727295 -1.243164 0.400000 0.400000 0.400000 #0.501961
v 0.635498 1.748291 -1.394287 0.478431 0.478431 0.478431 #0.501961
v 0.418701 1.457764 -1.268799 0.349020 0.349020 0.349020 #0.501961
v 0.418701 1.457764 -1.268799 0.349020 0.349020 0.349020 #0.501961
v 0.635498 1.748291 -1.394287 0.478431 0.478431 0.478431 #0.501961
v 0.635498 1.466553 -1.418945 0.349020 0.349020 0.349020 #0.501961
v 0.000000 1.450684 -1.188232 0.349020 0.349020 0.349020 #0.501961
v 0.000000 1.718994 -1.146240 0.400000 0.400000 0.400000 #0.501961
v 0.418701 1.457764 -1.268799 0.349020 0.349020 0.349020 #0.501961
v 0.418701 1.457764 -1.268799 0.349020 0.349020 0.349020 #0.501961
v 0.000000 1.718994 -1.146240 0.400000 0.400000 0.400000 #0.501961
v 0.437500 1.727295 -1.243164 0.400000 0.400000 0.400000 #0.501961
v -1.190430 1.707520 -0.926758 0.447059 0.447059 0.447059 #0.501961
v -0.635498 1.748291 -1.394287 0.478431 0.478431 0.478431 #0.501961
v -1.190430 1.425781 -0.951416 0.349020 0.349020 0.349020 #0.501961
v -0.635498 1.466553 -1.418945 0.349020 0.349020 0.349020 #0.501961
v -1.190430 1.425781 -0.951416 0.349020 0.349020 0.349020 #0.501961
v -0.635498 1.748291 -1.394287 0.478431 0.478431 0.478431 #0.501961
v -1.190430 1.707520 -0.926758 0.447059 0.447059 0.447059 #0.501961
v -1.190430 1.425781 -0.951416 0.349020 0.349020 0.349020 #0.501961
v -1.480957 1.635010 -0.099854 0.447059 0.447059 0.447059 #0.501961
v -1.190430 1.425781 -0.951416 0.349020 0.349020 0.349020 #0.501961
v -1.480957 1.353271 -0.124512 0.349020 0.349020 0.349020 #0.501961
v -1.480957 1.635010 -0.099854 0.447059 0.447059 0.447059 #0.501961
v -1.480957 1.353271 -0.124512 0.349020 0.349020 0.349020 #0.501961
v -1.120605 1.394775 1.005371 0.247059 0.247059 0.247059 #0.501961
v -1.480957 1.635010 -0.099854 0.447059 0.447059 0.447059 #0.501961
v -0.437500 1.727295 -1.243164 0.400000 0.400000 0.400000 #0.501961
v -0.418701 1.457764 -1.268799 0.349020 0.349020 0.349020 #0.501961
v -0.635498 1.748291 -1.394287 0.478431 0.478431 0.478431 #0.501961
v -0.418701 1.457764 -1.268799 0.349020 0.349020 0.349020 #0.501961
v -0.635498 1.466553 -1.418945 0.349020 0.349020 0.349020 #0.501961
v -0.635498 1.748291 -1.394287 0.478431 0.478431 0.478431 #0.501961
v 0.000000 1.450684 -1.188232 0.349020 0.349020 0.349020 #0.501961
v -0.418701 1.457764 -1.268799 0.349020 0.349020 0.349020 #0.501961
v 0.000000 1.718994 -1.146240 0.400000 0.400000 0.400000 #0.501961
v -0.418701 1.457764 -1.268799 0.349020 0.349020 0.349020 #0.501961
v -0.437500 1.727295 -1.243164 0.400000 0.400000 0.400000 #0.501961
v 0.000000 1.718994 -1.146240 0.400000 0.400000 0.400000 #0.501961
v 1.349854 1.386230 -0.294678 0.376471 0.376471 0.376471 #0.501961
v 1.349854 1.446289 -0.981201 0.478431 0.478431 0.478431 #0.501961
v 0.000000 1.450195 -1.026123 0.478431 0.478431 0.478431 #0.501961
v 0.000000 1.450195 -1.026123 0.478431 0.478431 0.478431 #0.501961
v 1.349854 1.446289 -0.981201 0.478431 0.478431 0.478431 #0.501961
v 0.784912 1.481934 -1.388672 0.478431 0.478431 0.478431 #0.501961
v -0.784912 1.481934 -1.388672 0.478431 0.478431 0.478431 #0.501961
v -1.349854 1.446289 -0.981201 0.478431 0.478431 0.478431 #0.501961
v 0.000000 1.450195 -1.026123 0.478431 0.478431 0.478431 #0.501961
v 0.784912 1.481934 -1.388672 0.478431 0.478431 0.478431 #0.501961
v 1.349854 1.446289 -0.981201 0.478431 0.478431 0.478431 #0.501961
v 1.349854 1.342773 -1.479248 0.600000 0.600000 0.600000 #0.501961
v -1.349854 1.342773 -1.479248 0.600000 0.600000 0.600000 #0.501961
v -1.349854 1.446289 -0.981201 0.478431 0.478431 0.478431 #0.501961
v -0.784912 1.481934 -1.388672 0.478431 0.478431 0.478431 #0.501961
v 0.000000 1.450195 -1.026123 0.478431 0.478431 0.478431 #0.501961
v -1.349854 1.446289 -0.981201 0.478431 0.478431 0.478431 #0.501961
v -1.349854 1.386230 -0.294678 0.376471 0.376471 0.376471 #0.501961
v 1.676514 0.434326 -0.848633 0.588235 0.588235 0.588235 #0.501961
v 1.469482 0.902100 -0.449707 0.400000 0.400000 0.400000 #0.501961
v 2.416016 1.344482 -0.123779 0.498039 0.498039 0.498039 #0.501961
v -1.676514 0.306396 -0.207031 0.588235 0.588235 0.588235 #0.501961
v -2.416016 1.674805 -0.094971 0.549020 0.549020 0.549020 #0.501961
v -1.469482 0.902100 -0.449707 0.400000 0.400000 0.400000 #0.501961
v 0.000000 2.973145 -0.733154 0.549020 0.549020 0.549020 #0.501961
v 0.065186 3.388916 -0.021729 0.447059 0.447059 0.447059 #0.501961
v 1.278320 2.486328 -0.302490 0.549020 0.549020 0.549020 #0.501961
v -1.798828 1.356445 0.010986 0.376471 0.376471 0.376471 #0.501961
v -2.416016 1.674805 -0.094971 0.549020 0.549020 0.549020 #0.501961
v -1.278320 2.522217 -0.711182 0.549020 0.549020 0.549020 #0.501961
v -1.469482 0.902100 -0.449707 0.400000 0.400000 0.400000 #0.501961
v -2.416016 1.674805 -0.094971 0.549020 0.549020 0.549020 #0.501961
v -1.798828 1.356445 0.010986 0.376471 0.376471 0.376471 #0.501961
v -1.278320 2.522217 -0.711182 0.549020 0.549020 0.549020 #0.501961
v -2.416016 1.674805 -0.094971 0.549020 0.549020 0.549020 #0.501961
v -1.709961 2.728027 -0.363525 0.498039 0.498039 0.498039 #0.501961
v 1.278320 2.486328 -0.302490 0.549020 0.549020 0.549020 #0.501961
v 2.239502 2.754150 -0.121582 0.498039 0.498039 0.498039 #0.501961
v 1.798828 1.356445 0.010986 0.376471 0.376471 0.376471 #0.501961
v -1.278320 2.522217 -0.711182 0.549020 0.549020 0.549020 #0.501961
v -1.709961 2.728027 -0.363525 0.498039 0.498039 0.498039 #0.501961
v 0.065186 3.388916 -0.021729 0.447059 0.447059 0.447059 #0.501961
v -1.709961 2.728027 -0.363525 0.498039 0.498039 0.498039 #0.501961
v 0.041016 3.847168 -0.229492 0.549020 0.549020 0.549020 #0.501961
v 0.065186 3.388916 -0.021729 0.447059 0.447059 0.447059 #0.501961
v 0.000000 1.015625 -0.633301 0.298039 0.298039 0.298039 #0.501961
v -0.510986 0.066650 -0.515381 0.498039 0.498039 0.498039 #0.501961
v -1.469482 0.902100 -0.449707 0.400000 0.400000 0.400000 #0.501961
v -0.510986 0.066650 -0.515381 0.498039 0.498039 0.498039 #0.501961
v -1.676514 0.306396 -0.207031 0.588235 0.588235 0.588235 #0.501961
v -1.469482 0.902100 -0.449707 0.400000 0.400000 0.400000 #0.501961
v -0.510986 0.066650 -0.515381 0.498039 0.498039 0.498039 #0.501961
v 0.000000 1.015625 -0.633301 0.298039 0.298039 0.298039 #0.501961
v 0.590332 0.599609 -0.989990 0.549020 0.549020 0.549020 #0.501961
v 2.416016 1.344482 -0.123779 0.498039 0.498039 0.498039 #0.501961
v 1.798828 1.356445 0.010986 0.376471 0.376471 0.376471 #0.501961
v 2.239502 2.754150 -0.121582 0.498039 0.498039 0.498039 #0.501961
v 2.416016 1.344482 -0.123779 0.498039 0.498039 0.498039 #0.501961
v 1.469482 0.902100 -0.449707 0.400000 0.400000 0.400000 #0.501961
v 1.798828 1.356445 0.010986 0.376471 0.376471 0.376471 #0.501961
v 1.278320 2.486328 -0.302490 0.549020 0.549020 0.549020 #0.501961
v 1.096191 3.227783 -0.602051 0.576471 0.576471 0.576471 #0.501961
v 2.239502 2.754150 -0.121582 0.498039 0.498039 0.498039 #0.501961
v -1.278320 2.522217 -0.711182 0.549020 0.549020 0.549020 #0.501961
v 0.065186 3.388916 -0.021729 0.447059 0.447059 0.447059 #0.501961
v 0.000000 2.973145 -0.733154 0.549020 0.549020 0.549020 #0.501961
v 1.278320 2.486328 -0.302490 0.549020 0.549020 0.549020 #0.501961
v 0.065186 3.388916 -0.021729 0.447059 0.447059 0.447059 #0.501961
v 1.096191 3.227783 -0.602051 0.576471 0.576471 0.576471 #0.501961
v 0.065186 3.388916 -0.021729 0.447059 0.447059 0.447059 #0.501961
v 0.041016 3.847168 -0.229492 0.549020 0.549020 0.549020 #0.501961
v 1.096191 3.227783 -0.602051 0.576471 0.576471 0.576471 #0.501961
v 0.590332 0.599609 -0.989990 0.549020 0.549020 0.549020 #0.501961
v 0.000000 1.015625 -0.633301 0.298039 0.298039 0.298039 #0.501961
v 1.469482 0.902100 -0.449707 0.400000 0.400000 0.400000 #0.501961
v 1.676514 0.434326 -0.848633 0.588235 0.588235 0.588235 #0.501961
v 0.590332 0.599609 -0.989990 0.549020 0.549020 0.549020 #0.501961
v 1.469482 0.902100 -0.449707 0.400000 0.400000 0.400000 #0.501961
v 1.676514 0.434326 -0.848633 0.588235 0.588235 0.588235 #0.501961
v 2.416016 1.344482 -0.123779 0.498039 0.498039 0.498039 #0.501961
v 1.469482 0.902100 -0.449707 0.400000 0.400000 0.400000 #0.501961
v -1.676514 0.306396 -0.207031 0.588235 0.588235 0.588235 #0.501961
v -1.469482 0.902100 -0.449707 0.400000 0.400000 0.400000 #0.501961
v -2.416016 1.674805 -0.094971 0.549020 0.549020 0.549020 #0.501961
v 0.000000 2.973145 -0.733154 0.549020 0.549020 0.549020 #0.501961
v 1.278320 2.486328 -0.302490 0.549020 0.549020 0.549020 #0.501961
v 0.065186 3.388916 -0.021729 0.447059 0.447059 0.447059 #0.501961
v -1.798828 1.356445 0.010986 0.376471 0.376471 0.376471 #0.501961
v -1.278320 2.522217 -0.711182 0.549020 0.549020 0.549020 #0.501961
v -2.416016 1.674805 -0.094971 0.549020 0.549020 0.549020 #0.501961
v 0.000000 1.325684 1.859619 0.498039 0.498039 0.498039 #0.501961
v 1.057373 1.126709 1.501953 0.447059 0.447059 0.447059 #0.501961
v 0.000000 2.332275 1.122070 0.647059 0.647059 0.647059 #0.501961
v 0.000000 2.332275 1.122070 0.647059 0.647059 0.647059 #0.501961
v 1.057373 1.126709 1.501953 0.447059 0.447059 0.447059 #0.501961
v 1.263916 2.121338 0.779297 0.600000 0.600000 0.600000 #0.501961
v 1.798828 1.356445 0.010986 0.376471 0.376471 0.376471 #0.501961
v 1.057373 1.126709 1.501953 0.447059 0.447059 0.447059 #0.501961
v 1.178955 0.885010 0.758545 0.372549 0.372549 0.372549 #0.501961
v -1.469482 0.902100 -0.449707 0.400000 0.400000 0.400000 #0.501961
v -1.798828 1.356445 0.010986 0.376471 0.376471 0.376471 #0.501961
v -2.416016 1.674805 -0.094971 0.549020 0.549020 0.549020 #0.501961
v 1.798828 1.356445 0.010986 0.376471 0.376471 0.376471 #0.501961
v 1.178955 0.885010 0.758545 0.372549 0.372549 0.372549 #0.501961
v 1.469482 0.902100 -0.449707 0.400000 0.400000 0.400000 #0.501961
v 0.000000 2.332275 1.122070 0.647059 0.647059 0.647059 #0.501961
v 1.263916 2.121338 0.779297 0.600000 0.600000 0.600000 #0.501961
v 0.000000 2.973145 -0.733154 0.549020 0.549020 0.549020 #0.501961
v 0.000000 2.973145 -0.733154 0.549020 0.549020 0.549020 #0.501961
v 1.263916 2.121338 0.779297 0.600000 0.600000 0.600000 #0.501961
v 1.278320 2.486328 -0.302490 0.549020 0.549020 0.549020 #0.501961
v -1.278320 2.522217 -0.711182 0.549020 0.549020 0.549020 #0.501961
v -1.709961 2.728027 -0.363525 0.498039 0.498039 0.498039 #0.501961
v -2.416016 1.674805 -0.094971 0.549020 0.549020 0.549020 #0.501961
v 1.278320 2.486328 -0.302490 0.549020 0.549020 0.549020 #0.501961
v 1.798828 1.356445 0.010986 0.376471 0.376471 0.376471 #0.501961
v 2.239502 2.754150 -0.121582 0.498039 0.498039 0.498039 #0.501961
v 1.263916 2.121338 0.779297 0.600000 0.600000 0.600000 #0.501961
v 1.798828 1.356445 0.010986 0.376471 0.376471 0.376471 #0.501961
v 1.278320 2.486328 -0.302490 0.549020 0.549020 0.549020 #0.501961
v 1.057373 1.126709 1.501953 0.447059 0.447059 0.447059 #0.501961
v 1.798828 1.356445 0.010986 0.376471 0.376471 0.376471 #0.501961
v 1.263916 2.121338 0.779297 0.600000 0.600000 0.600000 #0.501961
v -1.278320 2.522217 -0.711182 0.549020 0.549020 0.549020 #0.501961
v 0.065186 3.388916 -0.021729 0.447059 0.447059 0.447059 #0.501961
v -1.709961 2.728027 -0.363525 0.498039 0.498039 0.498039 #0.501961
v -1.709961 2.728027 -0.363525 0.498039 0.498039 0.498039 #0.501961
v 0.065186 3.388916 -0.021729 0.447059 0.447059 0.447059 #0.501961
v 0.041016 3.847168 -0.229492 0.549020 0.549020 0.549020 #0.501961
v -1.278320 2.522217 -0.711182 0.549020 0.549020 0.549020 #0.501961
v -1.263916 2.121338 0.779297 0.600000 0.600000 0.600000 #0.501961
v 0.000000 2.973145 -0.733154 0.549020 0.549020 0.549020 #0.501961
v 0.000000 2.332275 1.122070 0.647059 0.647059 0.647059 #0.501961
v 0.000000 2.973145 -0.733154 0.549020 0.549020 0.549020 #0.501961
v -1.263916 2.121338 0.779297 0.600000 0.600000 0.600000 #0.501961
v -1.263916 2.121338 0.779297 0.600000 0.600000 0.600000 #0.501961
v -1.057373 1.126709 1.501953 0.447059 0.447059 0.447059 #0.501961
v 0.000000 2.332275 1.122070 0.647059 0.647059 0.647059 #0.501961
v 0.000000 1.325684 1.859619 0.498039 0.498039 0.498039 #0.501961
v 0.000000 2.332275 1.122070 0.647059 0.647059 0.647059 #0.501961
v -1.057373 1.126709 1.501953 0.447059 0.447059 0.447059 #0.501961
v -1.057373 1.126709 1.501953 0.447059 0.447059 0.447059 #0.501961
v -1.178955 0.885010 0.758545 0.372549 0.372549 0.372549 #0.501961
v 0.000000 1.003174 1.826660 0.368627 0.368627 0.368627 #0.501961
v 0.000000 0.770508 1.170654 0.400000 0.400000 0.400000 #0.501961
v 0.000000 1.003174 1.826660 0.368627 0.368627 0.368627 #0.501961
v -1.178955 0.885010 0.758545 0.372549 0.372549 0.372549 #0.501961
v -1.469482 0.902100 -0.449707 0.400000 0.400000 0.400000 #0.501961
v 0.000000 1.015625 -0.633301 0.298039 0.298039 0.298039 #0.501961
v -1.178955 0.885010 0.758545 0.372549 0.372549 0.372549 #0.501961
v -1.178955 0.885010 0.758545 0.372549 0.372549 0.372549 #0.501961
v 0.000000 1.015625 -0.633301 0.298039 0.298039 0.298039 #0.501961
v 0.000000 0.770508 1.170654 0.400000 0.400000 0.400000 #0.501961
v 0.000000 1.015625 -0.633301 0.298039 0.298039 0.298039 #0.501961
v -1.469482 0.902100 -0.449707 0.400000 0.400000 0.400000 #0.501961
v -0.510986 0.066650 -0.515381 0.498039 0.498039 0.498039 #0.501961
v -0.510986 0.066650 -0.515381 0.498039 0.498039 0.498039 #0.501961
v -1.469482 0.902100 -0.449707 0.400000 0.400000 0.400000 #0.501961
v -1.676514 0.306396 -0.207031 0.588235 0.588235 0.588235 #0.501961
v -0.510986 0.066650 -0.515381 0.498039 0.498039 0.498039 #0.501961
v 0.590332 0.599609 -0.989990 0.549020 0.549020 0.549020 #0.501961
v 0.000000 1.015625 -0.633301 0.298039 0.298039 0.298039 #0.501961
v 1.469482 0.902100 -0.449707 0.400000 0.400000 0.400000 #0.501961
v 1.178955 0.885010 0.758545 0.372549 0.372549 0.372549 #0.501961
v 0.000000 1.015625 -0.633301 0.298039 0.298039 0.298039 #0.501961
v 0.000000 1.015625 -0.633301 0.298039 0.298039 0.298039 #0.501961
v 1.178955 0.885010 0.758545 0.372549 0.372549 0.372549 #0.501961
v 0.000000 0.770508 1.170654 0.400000 0.400000 0.400000 #0.501961
v 1.057373 1.126709 1.501953 0.447059 0.447059 0.447059 #0.501961
v 0.000000 1.003174 1.826660 0.368627 0.368627 0.368627 #0.501961
v 1.178955 0.885010 0.758545 0.372549 0.372549 0.372549 #0.501961
v 1.178955 0.885010 0.758545 0.372549 0.372549 0.372549 #0.501961
v 0.000000 1.003174 1.826660 0.368627 0.368627 0.368627 #0.501961
v 0.000000 0.770508 1.170654 0.400000 0.400000 0.400000 #0.501961
v 2.416016 1.344482 -0.123779 0.498039 0.498039 0.498039 #0.501961
v 2.239502 2.754150 -0.121582 0.498039 0.498039 0.498039 #0.501961
v 1.798828 1.356445 0.010986 0.376471 0.376471 0.376471 #0.501961
v 2.416016 1.344482 -0.123779 0.498039 0.498039 0.498039 #0.501961
v 1.798828 1.356445 0.010986 0.376471 0.376471 0.376471 #0.501961
v 1.469482 0.902100 -0.449707 0.400000 0.400000 0.400000 #0.501961
v -1.798828 1.356445 0.010986 0.376471 0.376471 0.376471 #0.501961
v -1.263916 2.121338 0.779297 0.600000 0.600000 0.600000 #0.501961
v -1.278320 2.522217 -0.711182 0.549020 0.549020 0.549020 #0.501961
v -1.798828 1.356445 0.010986 0.376471 0.376471 0.376471 #0.501961
v -1.057373 1.126709 1.501953 0.447059 0.447059 0.447059 #0.501961
v -1.263916 2.121338 0.779297 0.600000 0.600000 0.600000 #0.501961
v -1.178955 0.885010 0.758545 0.372549 0.372549 0.372549 #0.501961
v -1.057373 1.126709 1.501953 0.447059 0.447059 0.447059 #0.501961
v -1.798828 1.356445 0.010986 0.376471 0.376471 0.376471 #0.501961
v -1.469482 0.902100 -0.449707 0.400000 0.400000 0.400000 #0.501961
v -1.178955 0.885010 0.758545 0.372549 0.372549 0.372549 #0.501961
v -1.798828 1.356445 0.010986 0.376471 0.376471 0.376471 #0.501961
v 0.000000 1.325684 1.859619 0.498039 0.498039 0.498039 #0.501961
v 0.000000 1.243896 2.475830 0.549020 0.549020 0.549020 #0.501961
v 1.057373 1.126709 1.501953 0.447059 0.447059 0.447059 #0.501961
v -1.057373 1.126709 1.501953 0.447059 0.447059 0.447059 #0.501961
v 0.000000 1.243896 2.475830 0.549020 0.549020 0.549020 #0.501961
v 0.000000 1.325684 1.859619 0.498039 0.498039 0.498039 #0.501961
v 0.000000 1.003174 1.826660 0.368627 0.368627 0.368627 #0.501961
v 0.000000 1.243896 2.475830 0.549020 0.549020 0.549020 #0.501961
v -1.057373 1.126709 1.501953 0.447059 0.447059 0.447059 #0.501961
v 1.057373 1.126709 1.501953 0.447059 0.447059 0.447059 #0.501961
v 0.000000 1.243896 2.475830 0.549020 0.549020 0.549020 #0.501961
v 0.000000 1.003174 1.826660 0.368627 0.368627 0.368627 #0.501961
v 1.278320 2.486328 -0.302490 0.549020 0.549020 0.549020 #0.501961
v 2.239502 2.754150 -0.121582 0.498039 0.498039 0.498039 #0.501961
v 1.096191 3.227783 -0.602051 0.576471 0.576471 0.576471 #0.501961
v -1.278320 2.522217 -0.711182 0.549020 0.549020 0.549020 #0.501961
v 0.000000 2.973145 -0.733154 0.549020 0.549020 0.549020 #0.501961
v 0.065186 3.388916 -0.021729 0.447059 0.447059 0.447059 #0.501961
v 1.278320 2.486328 -0.302490 0.549020 0.549020 0.549020 #0.501961
v 1.096191 3.227783 -0.602051 0.576471 0.576471 0.576471 #0.501961
v 0.065186 3.388916 -0.021729 0.447059 0.447059 0.447059 #0.501961
v 0.065186 3.388916 -0.021729 0.447059 0.447059 0.447059 #0.501961
v 1.096191 3.227783 -0.602051 0.576471 0.576471 0.576471 #0.501961
v 0.041016 3.847168 -0.229492 0.549020 0.549020 0.549020 #0.501961
v 0.590332 0.599609 -0.989990 0.549020 0.549020 0.549020 #0.501961
v 1.469482 0.902100 -0.449707 0.400000 0.400000 0.400000 #0.501961
v 0.000000 1.015625 -0.633301 0.298039 0.298039 0.298039 #0.501961
v 1.676514 0.434326 -0.848633 0.588235 0.588235 0.588235 #0.501961
v 1.469482 0.902100 -0.449707 0.400000 0.400000 0.400000 #0.501961
v 0.590332 0.599609 -0.989990 0.549020 0.549020 0.549020 #0.501961
vt 0.907715 0.848389 0.000000
vt 0.864014 0.877441 0.000000
vt 0.911865 0.788574 0.000000
vt 0.911865 0.788574 0.000000
vt 0.864014 0.877441 0.000000
vt 0.864014 0.815430 0.000000
vt 0.769287 0.807861 0.000000
vt 0.704346 0.623779 0.000000
vt 0.787109 0.748779 0.000000
vt 0.787109 0.748779 0.000000
vt 0.704346 0.623779 0.000000
vt 0.748291 0.611328 0.000000
vt 0.704346 0.623779 0.000000
vt 0.707764 0.533691 0.000000
vt 0.748291 0.611328 0.000000
vt 0.564209 0.829590 0.000000
vt 0.529785 0.714355 0.000000
vt 0.529785 0.864258 0.000000
vt 0.862549 0.628662 0.000000
vt 0.862549 0.533203 0.000000
vt 0.751465 0.559814 0.000000
vt 0.751465 0.559814 0.000000
vt 0.862549 0.533203 0.000000
vt 0.787109 0.497803 0.000000
vt 0.751465 0.559814 0.000000
vt 0.787109 0.497803 0.000000
vt 0.660400 0.468262 0.000000
vt 0.787109 0.497803 0.000000
vt 0.710449 0.399170 0.000000
vt 0.660400 0.468262 0.000000
vt 0.660400 0.468262 0.000000
vt 0.710449 0.399170 0.000000
vt 0.669434 0.312744 0.000000
vt 0.787109 0.497803 0.000000
vt 0.859619 0.414795 0.000000
vt 0.710449 0.399170 0.000000
vt 0.859619 0.414795 0.000000
vt 0.821289 0.315430 0.000000
vt 0.710449 0.399170 0.000000
vt 0.529785 0.864258 0.000000
vt 0.495605 0.827637 0.000000
vt 0.405029 0.864258 0.000000
vt 0.495605 0.827637 0.000000
vt 0.481934 0.790771 0.000000
vt 0.405029 0.864258 0.000000
vt 0.983154 0.483643 0.000000
vt 0.859619 0.414795 0.000000
vt 0.910645 0.496338 0.000000
vt 0.748291 0.611328 0.000000
vt 0.982422 0.694336 0.000000
vt 0.787109 0.748779 0.000000
vt 0.864014 0.815430 0.000000
vt 0.787109 0.748779 0.000000
vt 0.911865 0.788574 0.000000
vt 0.405029 0.864258 0.000000
vt 0.481689 0.679199 0.000000
vt 0.405029 0.679199 0.000000
vt 0.859619 0.414795 0.000000
vt 0.983154 0.315430 0.000000
vt 0.821289 0.315430 0.000000
vt 0.481934 0.790771 0.000000
vt 0.481689 0.679199 0.000000
vt 0.405029 0.864258 0.000000
vt 0.483154 0.090088 0.000000
vt 0.610596 0.016846 0.000000
vt 0.401367 0.016846 0.000000
vt 0.483154 0.090088 0.000000
vt 0.566162 0.088135 0.000000
vt 0.620605 0.047607 0.000000
vt 0.483154 0.090088 0.000000
vt 0.620605 0.047607 0.000000
vt 0.610596 0.016846 0.000000
vt 0.077881 0.092773 0.000000
vt 0.161377 0.094238 0.000000
vt 0.022705 0.051025 0.000000
vt 0.161377 0.094238 0.000000
vt 0.036133 0.020020 0.000000
vt 0.022705 0.051025 0.000000
vt 0.243164 0.020020 0.000000
vt 0.036133 0.020020 0.000000
vt 0.161377 0.094238 0.000000
vt 0.983154 0.483643 0.000000
vt 0.910645 0.496338 0.000000
vt 0.983154 0.628662 0.000000
vt 0.983154 0.628662 0.000000
vt 0.910645 0.496338 0.000000
vt 0.910645 0.628662 0.000000
vt 0.910645 0.496338 0.000000
vt 0.862549 0.533203 0.000000
vt 0.910645 0.628662 0.000000
vt 0.910645 0.628662 0.000000
vt 0.862549 0.533203 0.000000
vt 0.862549 0.628662 0.000000
vt 0.862549 0.533203 0.000000
vt 0.910645 0.496338 0.000000
vt 0.787109 0.497803 0.000000
vt 0.859619 0.414795 0.000000
vt 0.787109 0.497803 0.000000
vt 0.910645 0.496338 0.000000
vt 0.864014 0.877441 0.000000
vt 0.769287 0.807861 0.000000
vt 0.864014 0.815430 0.000000
vt 0.864014 0.815430 0.000000
vt 0.769287 0.807861 0.000000
vt 0.787109 0.748779 0.000000
vt 0.907715 0.848389 0.000000
vt 0.911865 0.788574 0.000000
vt 0.982422 0.848389 0.000000
vt 0.982422 0.789063 0.000000
vt 0.982422 0.848389 0.000000
vt 0.911865 0.788574 0.000000
vt 0.983154 0.315430 0.000000
vt 0.859619 0.414795 0.000000
vt 0.983154 0.483643 0.000000
vt 0.787109 0.748779 0.000000
vt 0.982422 0.694336 0.000000
vt 0.911865 0.788574 0.000000
vt 0.589111 0.864258 0.000000
vt 0.588867 0.750244 0.000000
vt 0.564209 0.829590 0.000000
vt 0.982422 0.694336 0.000000
vt 0.982422 0.789063 0.000000
vt 0.911865 0.788574 0.000000
vt 0.564209 0.829590 0.000000
vt 0.529785 0.864258 0.000000
vt 0.589111 0.864258 0.000000
vt 0.495605 0.827637 0.000000
vt 0.529785 0.864258 0.000000
vt 0.529785 0.714355 0.000000
vt 0.907715 0.848389 0.000000
vt 0.911865 0.788574 0.000000
vt 0.864014 0.877441 0.000000
vt 0.911865 0.788574 0.000000
vt 0.864014 0.815430 0.000000
vt 0.864014 0.877441 0.000000
vt 0.769287 0.807861 0.000000
vt 0.787109 0.748779 0.000000
vt 0.704346 0.623779 0.000000
vt 0.787109 0.748779 0.000000
vt 0.748291 0.611328 0.000000
vt 0.704346 0.623779 0.000000
vt 0.704346 0.623779 0.000000
vt 0.748291 0.611328 0.000000
vt 0.707764 0.533691 0.000000
vt 0.564209 0.829590 0.000000
vt 0.529785 0.864258 0.000000
vt 0.529785 0.714355 0.000000
vt 0.862549 0.628662 0.000000
vt 0.751465 0.559814 0.000000
vt 0.862549 0.533203 0.000000
vt 0.751465 0.559814 0.000000
vt 0.787109 0.497803 0.000000
vt 0.862549 0.533203 0.000000
vt 0.710693 0.399170 0.000000
vt 0.787109 0.497803 0.000000
vt 0.660400 0.468262 0.000000
vt 0.660400 0.468262 0.000000
vt 0.787109 0.497803 0.000000
vt 0.751465 0.559814 0.000000
vt 0.660400 0.468262 0.000000
vt 0.669434 0.312744 0.000000
vt 0.710693 0.399170 0.000000
vt 0.821289 0.315430 0.000000
vt 0.859619 0.414795 0.000000
vt 0.710693 0.399170 0.000000
vt 0.710693 0.399170 0.000000
vt 0.859619 0.414795 0.000000
vt 0.787109 0.497803 0.000000
vt 0.529785 0.864258 0.000000
vt 0.405029 0.864258 0.000000
vt 0.495605 0.827637 0.000000
vt 0.495605 0.827637 0.000000
vt 0.405029 0.864258 0.000000
vt 0.481934 0.790771 0.000000
vt 0.859619 0.414795 0.000000
vt 0.983154 0.315430 0.000000
vt 0.983154 0.483643 0.000000
vt 0.748291 0.611328 0.000000
vt 0.787109 0.748779 0.000000
vt 0.982422 0.694336 0.000000
vt 0.864014 0.815430 0.000000
vt 0.911865 0.788574 0.000000
vt 0.787109 0.748779 0.000000
vt 0.481934 0.790771 0.000000
vt 0.405029 0.864258 0.000000
vt 0.405029 0.679199 0.000000
vt 0.859619 0.414795 0.000000
vt 0.821289 0.315430 0.000000
vt 0.983154 0.315430 0.000000
vt 0.483154 0.090088 0.000000
vt 0.401367 0.016846 0.000000
vt 0.610596 0.016846 0.000000
vt 0.483154 0.090088 0.000000
vt 0.620605 0.047607 0.000000
vt 0.566162 0.088135 0.000000
vt 0.483154 0.090088 0.000000
vt 0.610596 0.016846 0.000000
vt 0.620605 0.047607 0.000000
vt 0.077881 0.092773 0.000000
vt 0.022705 0.051025 0.000000
vt 0.161377 0.094238 0.000000
vt 0.161377 0.094238 0.000000
vt 0.022705 0.051025 0.000000
vt 0.036133 0.020020 0.000000
vt 0.243164 0.020020 0.000000
vt 0.161377 0.094238 0.000000
vt 0.036133 0.020020 0.000000
vt 0.983154 0.483643 0.000000
vt 0.983154 0.628662 0.000000
vt 0.910645 0.496338 0.000000
vt 0.983154 0.628662 0.000000
vt 0.910645 0.628662 0.000000
vt 0.910645 0.496338 0.000000
vt 0.910645 0.496338 0.000000
vt 0.910645 0.628662 0.000000
vt 0.862549 0.533203 0.000000
vt 0.910645 0.628662 0.000000
vt 0.862549 0.628662 0.000000
vt 0.862549 0.533203 0.000000
vt 0.862549 0.533203 0.000000
vt 0.787109 0.497803 0.000000
vt 0.910645 0.496338 0.000000
vt 0.859619 0.414795 0.000000
vt 0.910645 0.496338 0.000000
vt 0.787109 0.497803 0.000000
vt 0.864014 0.877441 0.000000
vt 0.864014 0.815430 0.000000
vt 0.769287 0.807861 0.000000
vt 0.864014 0.815430 0.000000
vt 0.787109 0.748779 0.000000
vt 0.769287 0.807861 0.000000
vt 0.907715 0.848389 0.000000
vt 0.982422 0.848389 0.000000
vt 0.911865 0.788574 0.000000
vt 0.982422 0.789063 0.000000
vt 0.911865 0.788574 0.000000
vt 0.982422 0.848389 0.000000
vt 0.910645 0.496338 0.000000
vt 0.859619 0.414795 0.000000
vt 0.983154 0.483643 0.000000
vt 0.787109 0.748779 0.000000
vt 0.911865 0.788574 0.000000
vt 0.982422 0.694336 0.000000
vt 0.589111 0.864258 0.000000
vt 0.564209 0.829590 0.000000
vt 0.588867 0.750244 0.000000
vt 0.982422 0.694336 0.000000
vt 0.911865 0.788574 0.000000
vt 0.982422 0.789063 0.000000
vt 0.564209 0.829590 0.000000
vt 0.589111 0.864258 0.000000
vt 0.529785 0.864258 0.000000
vt 0.495605 0.827637 0.000000
vt 0.529785 0.714355 0.000000
vt 0.529785 0.864258 0.000000
vt 0.481689 0.679199 0.000000
vt 0.481934 0.790771 0.000000
vt 0.405029 0.679199 0.000000
vt 0.597900 0.898193 0.000000
vt 0.597900 0.982178 0.000000
vt 0.755615 0.898193 0.000000
vt 0.755615 0.982178 0.000000
vt 0.755615 0.898193 0.000000
vt 0.597900 0.982178 0.000000
vt 0.597900 0.898193 0.000000
vt 0.343750 0.898193 0.000000
vt 0.597900 0.982178 0.000000
vt 0.597900 0.982178 0.000000
vt 0.343750 0.898193 0.000000
vt 0.343750 0.982178 0.000000
vt 0.343750 0.982178 0.000000
vt 0.343750 0.898193 0.000000
vt 0.040039 0.940674 0.000000
vt 0.845459 0.898193 0.000000
vt 0.755615 0.898193 0.000000
vt 0.845459 0.982178 0.000000
vt 0.845459 0.982178 0.000000
vt 0.755615 0.898193 0.000000
vt 0.755615 0.982178 0.000000
vt 0.983154 0.982178 0.000000
vt 0.983154 0.898193 0.000000
vt 0.845459 0.982178 0.000000
vt 0.845459 0.982178 0.000000
vt 0.983154 0.898193 0.000000
vt 0.845459 0.898193 0.000000
vt 0.597900 0.898193 0.000000
vt 0.755615 0.898193 0.000000
vt 0.597900 0.982178 0.000000
vt 0.755615 0.982178 0.000000
vt 0.597900 0.982178 0.000000
vt 0.755615 0.898193 0.000000
vt 0.597900 0.898193 0.000000
vt 0.597900 0.982178 0.000000
vt 0.343750 0.898193 0.000000
vt 0.597900 0.982178 0.000000
vt 0.343750 0.982178 0.000000
vt 0.343750 0.898193 0.000000
vt 0.343750 0.982178 0.000000
vt 0.040039 0.940674 0.000000
vt 0.343750 0.898193 0.000000
vt 0.845459 0.898193 0.000000
vt 0.845459 0.982178 0.000000
vt 0.755615 0.898193 0.000000
vt 0.845459 0.982178 0.000000
vt 0.755615 0.982178 0.000000
vt 0.755615 0.898193 0.000000
vt 0.983154 0.982178 0.000000
vt 0.845459 0.982178 0.000000
vt 0.983154 0.898193 0.000000
vt 0.845459 0.982178 0.000000
vt 0.845459 0.898193 0.000000
vt 0.983154 0.898193 0.000000
vt 0.786133 0.285400 0.000000
vt 0.849365 0.285400 0.000000
vt 0.849365 0.021484 0.000000
vt 0.849365 0.021484 0.000000
vt 0.849365 0.285400 0.000000
vt 0.984131 0.069092 0.000000
vt 0.647461 0.242676 0.000000
vt 0.773438 0.019775 0.000000
vt 0.773438 0.283447 0.000000
vt 0.984131 0.069092 0.000000
vt 0.849365 0.285400 0.000000
vt 0.984131 0.285400 0.000000
vt 0.647461 0.019775 0.000000
vt 0.773438 0.019775 0.000000
vt 0.647461 0.242676 0.000000
vt 0.773438 0.283447 0.000000
vt 0.773438 0.019775 0.000000
vt 0.833008 0.019775 0.000000
vt 0.322510 0.604004 0.000000
vt 0.382324 0.655518 0.000000
vt 0.463623 0.500244 0.000000
vt 0.295898 0.592773 0.000000
vt 0.486328 0.499512 0.000000
vt 0.384521 0.652832 0.000000
vt 0.615479 0.869873 0.000000
vt 0.689941 0.869873 0.000000
vt 0.593994 0.689209 0.000000
vt 0.460938 0.623047 0.000000
vt 0.486328 0.499512 0.000000
vt 0.589844 0.686523 0.000000
vt 0.384521 0.652832 0.000000
vt 0.486328 0.499512 0.000000
vt 0.460938 0.623047 0.000000
vt 0.589844 0.686523 0.000000
vt 0.486328 0.499512 0.000000
vt 0.670166 0.593018 0.000000
vt 0.593994 0.689209 0.000000
vt 0.660889 0.524170 0.000000
vt 0.460205 0.625977 0.000000
vt 0.589844 0.686523 0.000000
vt 0.670166 0.593018 0.000000
vt 0.689941 0.869873 0.000000
vt 0.670166 0.593018 0.000000
vt 0.761230 0.869873 0.000000
vt 0.689941 0.869873 0.000000
vt 0.384521 0.798828 0.000000
vt 0.256836 0.738037 0.000000
vt 0.384521 0.652832 0.000000
vt 0.256836 0.738037 0.000000
vt 0.295898 0.592773 0.000000
vt 0.384521 0.652832 0.000000
vt 0.256836 0.738037 0.000000
vt 0.384521 0.798828 0.000000
vt 0.307373 0.862793 0.000000
vt 0.463623 0.500244 0.000000
vt 0.460205 0.625977 0.000000
vt 0.660889 0.524170 0.000000
vt 0.463623 0.500244 0.000000
vt 0.382324 0.655518 0.000000
vt 0.460205 0.625977 0.000000
vt 0.593994 0.689209 0.000000
vt 0.692627 0.721680 0.000000
vt 0.660889 0.524170 0.000000
vt 0.589844 0.686523 0.000000
vt 0.689941 0.869873 0.000000
vt 0.615479 0.869873 0.000000
vt 0.593994 0.689209 0.000000
vt 0.689941 0.869873 0.000000
vt 0.692627 0.721680 0.000000
vt 0.689941 0.869873 0.000000
vt 0.761230 0.869873 0.000000
vt 0.692627 0.721680 0.000000
vt 0.309326 0.859375 0.000000
vt 0.384521 0.797607 0.000000
vt 0.382324 0.655518 0.000000
vt 0.322510 0.604004 0.000000
vt 0.309326 0.859375 0.000000
vt 0.382324 0.655518 0.000000
vt 0.322510 0.604004 0.000000
vt 0.463623 0.500244 0.000000
vt 0.382324 0.655518 0.000000
vt 0.295898 0.592773 0.000000
vt 0.384521 0.652832 0.000000
vt 0.486328 0.499512 0.000000
vt 0.615479 0.869873 0.000000
vt 0.593994 0.689209 0.000000
vt 0.689941 0.869873 0.000000
vt 0.460938 0.623047 0.000000
vt 0.589844 0.686523 0.000000
vt 0.486328 0.499512 0.000000
vt 0.327148 0.116699 0.000000
vt 0.569336 0.167480 0.000000
vt 0.327148 0.252930 0.000000
vt 0.327148 0.252930 0.000000
vt 0.569336 0.167480 0.000000
vt 0.503906 0.294434 0.000000
vt 0.269531 0.809570 0.000000
vt 0.182617 0.606934 0.000000
vt 0.174805 0.703857 0.000000
vt 0.384521 0.652832 0.000000
vt 0.460938 0.623047 0.000000
vt 0.486328 0.499512 0.000000
vt 0.269531 0.809570 0.000000
vt 0.174805 0.703857 0.000000
vt 0.223145 0.865967 0.000000
vt 0.327148 0.252930 0.000000
vt 0.503906 0.294434 0.000000
vt 0.327148 0.538574 0.000000
vt 0.327148 0.538574 0.000000
vt 0.503906 0.294434 0.000000
vt 0.505859 0.473633 0.000000
vt 0.589844 0.686523 0.000000
vt 0.670166 0.593018 0.000000
vt 0.486328 0.499512 0.000000
vt 0.593994 0.689209 0.000000
vt 0.460205 0.625977 0.000000
vt 0.660889 0.524170 0.000000
vt 0.503906 0.294434 0.000000
vt 0.640137 0.381104 0.000000
vt 0.505859 0.473633 0.000000
vt 0.569336 0.167480 0.000000
vt 0.640137 0.381104 0.000000
vt 0.503906 0.294434 0.000000
vt 0.589844 0.686523 0.000000
vt 0.689941 0.869873 0.000000
vt 0.670166 0.593018 0.000000
vt 0.670166 0.593018 0.000000
vt 0.689941 0.869873 0.000000
vt 0.761230 0.869873 0.000000
vt 0.148682 0.520264 0.000000
vt 0.150635 0.294678 0.000000
vt 0.327148 0.538574 0.000000
vt 0.327148 0.252930 0.000000
vt 0.327148 0.538574 0.000000
vt 0.150635 0.294678 0.000000
vt 0.150635 0.294678 0.000000
vt 0.081055 0.170654 0.000000
vt 0.327148 0.252930 0.000000
vt 0.327148 0.116699 0.000000
vt 0.327148 0.252930 0.000000
vt 0.081055 0.170654 0.000000
vt 0.182617 0.606934 0.000000
vt 0.174805 0.703857 0.000000
vt 0.016357 0.570557 0.000000
vt 0.016357 0.627441 0.000000
vt 0.016357 0.570557 0.000000
vt 0.174805 0.703857 0.000000
vt 0.223145 0.865967 0.000000
vt 0.016357 0.919189 0.000000
vt 0.174805 0.703857 0.000000
vt 0.174805 0.703857 0.000000
vt 0.016357 0.919189 0.000000
vt 0.016357 0.627441 0.000000
vt 0.384521 0.798828 0.000000
vt 0.384521 0.652832 0.000000
vt 0.256836 0.738037 0.000000
vt 0.256836 0.738037 0.000000
vt 0.384521 0.652832 0.000000
vt 0.295898 0.592773 0.000000
vt 0.256836 0.738037 0.000000
vt 0.307373 0.862793 0.000000
vt 0.384521 0.798828 0.000000
vt 0.223145 0.865967 0.000000
vt 0.174805 0.703857 0.000000
vt 0.016357 0.919189 0.000000
vt 0.016357 0.919189 0.000000
vt 0.174805 0.703857 0.000000
vt 0.016357 0.627441 0.000000
vt 0.182617 0.606934 0.000000
vt 0.016357 0.570557 0.000000
vt 0.174805 0.703857 0.000000
vt 0.174805 0.703857 0.000000
vt 0.016357 0.570557 0.000000
vt 0.016357 0.627441 0.000000
vt 0.463623 0.500244 0.000000
vt 0.660889 0.524170 0.000000
vt 0.460205 0.625977 0.000000
vt 0.463623 0.500244 0.000000
vt 0.460205 0.625977 0.000000
vt 0.382324 0.655518 0.000000
vt 0.018066 0.389160 0.000000
vt 0.150635 0.294678 0.000000
vt 0.148682 0.520264 0.000000
vt 0.018066 0.389160 0.000000
vt 0.081055 0.170654 0.000000
vt 0.150635 0.294678 0.000000
vt 0.174805 0.703857 0.000000
vt 0.182617 0.606934 0.000000
vt 0.269531 0.809570 0.000000
vt 0.223145 0.865967 0.000000
vt 0.174805 0.703857 0.000000
vt 0.269531 0.809570 0.000000
vt 0.327148 0.116699 0.000000
vt 0.327148 0.017334 0.000000
vt 0.569336 0.167480 0.000000
vt 0.081055 0.170654 0.000000
vt 0.327148 0.017334 0.000000
vt 0.327148 0.116699 0.000000
vt 0.016357 0.570557 0.000000
vt 0.016357 0.468750 0.000000
vt 0.182617 0.606934 0.000000
vt 0.182617 0.606934 0.000000
vt 0.016357 0.468750 0.000000
vt 0.016357 0.570557 0.000000
vt 0.593994 0.689209 0.000000
vt 0.660889 0.524170 0.000000
vt 0.692627 0.721680 0.000000
vt 0.589844 0.686523 0.000000
vt 0.615479 0.869873 0.000000
vt 0.689941 0.869873 0.000000
vt 0.593994 0.689209 0.000000
vt 0.692627 0.721680 0.000000
vt 0.689941 0.869873 0.000000
vt 0.689941 0.869873 0.000000
vt 0.692627 0.721680 0.000000
vt 0.761230 0.869873 0.000000
vt 0.309326 0.859375 0.000000
vt 0.382324 0.655518 0.000000
vt 0.384521 0.797607 0.000000
vt 0.322510 0.604004 0.000000
vt 0.382324 0.655518 0.000000
vt 0.309326 0.859375 0.000000
vn 0.369141 -0.403809 -0.836914
vn 0.199951 -0.652344 -0.730713
vn 0.308594 0.554443 -0.772461
vn 0.308594 0.554443 -0.772461
vn 0.199951 -0.652344 -0.730713
vn -0.218506 0.412354 -0.884277
vn -0.741211 -0.226318 -0.631592
vn -0.763184 -0.645264 -0.026367
vn -0.547852 0.743164 -0.383301
vn -0.547852 0.743164 -0.383301
vn -0.763184 -0.645264 -0.026367
vn -0.469971 -0.584229 -0.661377
vn -0.763184 -0.645264 -0.026367
vn -0.988770 -0.148682 0.001709
vn -0.469971 -0.584229 -0.661377
vn -0.469971 -0.584229 -0.661377
vn -0.988770 -0.148682 0.001709
vn -0.763916 0.198486 -0.613525
vn 0.027588 0.685059 -0.727783
vn -0.086426 -0.449707 -0.888672
vn -0.764404 0.002930 -0.644531
vn -0.764404 0.002930 -0.644531
vn -0.086426 -0.449707 -0.888672
vn -0.690674 -0.606201 -0.393799
vn -0.764404 0.002930 -0.644531
vn -0.690674 -0.606201 -0.393799
vn -0.787598 0.600098 -0.138428
vn -0.690674 -0.606201 -0.393799
vn -0.454346 -0.347412 -0.820068
vn -0.787598 0.600098 -0.138428
vn -0.787598 0.600098 -0.138428
vn -0.454346 -0.347412 -0.820068
vn -0.988770 -0.148682 0.001709
vn -0.690674 -0.606201 -0.393799
vn -0.329590 -0.930420 -0.158447
vn -0.454346 -0.347412 -0.820068
vn -0.329590 -0.930420 -0.158447
vn -0.118408 -0.308350 -0.943604
vn -0.454346 -0.347412 -0.820068
vn -0.763916 0.198486 -0.613525
vn -0.454346 -0.347412 -0.820068
vn 0.209229 0.592041 -0.778076
vn -0.454346 -0.347412 -0.820068
vn -0.118408 -0.308350 -0.943604
vn 0.209229 0.592041 -0.778076
vn 0.000000 -0.854004 -0.519775
vn -0.329590 -0.930420 -0.158447
vn 0.023193 -0.636719 -0.770508
vn -0.469971 -0.584229 -0.661377
vn 0.000000 0.973877 -0.226563
vn -0.547852 0.743164 -0.383301
vn -0.218506 0.412354 -0.884277
vn -0.547852 0.743164 -0.383301
vn 0.308594 0.554443 -0.772461
vn 0.209229 0.592041 -0.778076
vn 0.063477 -0.615234 -0.785400
vn -0.228027 -0.964600 -0.131592
vn -0.329590 -0.930420 -0.158447
vn 0.063477 -0.615234 -0.785400
vn -0.118408 -0.308350 -0.943604
vn -0.118408 -0.308350 -0.943604
vn 0.063477 -0.615234 -0.785400
vn 0.209229 0.592041 -0.778076
vn -0.763184 -0.645264 -0.026367
vn 0.369141 -0.403809 -0.836914
vn -0.988770 -0.148682 0.001709
vn -0.763184 -0.645264 -0.026367
vn -0.741211 -0.226318 -0.631592
vn 0.199951 -0.652344 -0.730713
vn -0.763184 -0.645264 -0.026367
vn 0.199951 -0.652344 -0.730713
vn 0.369141 -0.403809 -0.836914
vn -0.764404 0.002930 -0.644531
vn -0.787598 0.600098 -0.138428
vn 0.027588 0.685059 -0.727783
vn -0.787598 0.600098 -0.138428
vn 0.443848 0.253906 -0.859131
vn 0.027588 0.685059 -0.727783
vn -0.988770 -0.148682 0.001709
vn 0.443848 0.253906 -0.859131
vn -0.787598 0.600098 -0.138428
vn 0.000000 -0.854004 -0.519775
vn 0.023193 -0.636719 -0.770508
vn 0.000000 -0.145264 -0.989258
vn 0.000000 -0.145264 -0.989258
vn 0.023193 -0.636719 -0.770508
vn 0.443848 0.253906 -0.859131
vn 0.023193 -0.636719 -0.770508
vn -0.086426 -0.449707 -0.888672
vn 0.443848 0.253906 -0.859131
vn 0.443848 0.253906 -0.859131
vn -0.086426 -0.449707 -0.888672
vn 0.027588 0.685059 -0.727783
vn -0.086426 -0.449707 -0.888672
vn 0.023193 -0.636719 -0.770508
vn -0.690674 -0.606201 -0.393799
vn -0.329590 -0.930420 -0.158447
vn -0.690674 -0.606201 -0.393799
vn 0.023193 -0.636719 -0.770508
vn 0.199951 -0.652344 -0.730713
vn -0.741211 -0.226318 -0.631592
vn -0.218506 0.412354 -0.884277
vn -0.218506 0.412354 -0.884277
vn -0.741211 -0.226318 -0.631592
vn -0.547852 0.743164 -0.383301
vn 0.369141 -0.403809 -0.836914
vn 0.308594 0.554443 -0.772461
vn 0.000000 -0.072998 -0.997314
vn 0.000000 0.638916 -0.769043
vn 0.000000 -0.072998 -0.997314
vn 0.308594 0.554443 -0.772461
vn 0.063477 -0.615234 -0.785400
vn -0.329590 -0.930420 -0.158447
vn 0.000000 -0.854004 -0.519775
vn -0.547852 0.743164 -0.383301
vn 0.000000 0.973877 -0.226563
vn 0.308594 0.554443 -0.772461
vn -0.197510 0.091064 -0.975830
vn 0.000000 0.973877 -0.226563
vn -0.469971 -0.584229 -0.661377
vn 0.000000 0.973877 -0.226563
vn 0.000000 0.638916 -0.769043
vn 0.308594 0.554443 -0.772461
vn -0.469971 -0.584229 -0.661377
vn -0.763916 0.198486 -0.613525
vn -0.197510 0.091064 -0.975830
vn -0.454346 -0.347412 -0.820068
vn -0.763916 0.198486 -0.613525
vn -0.988770 -0.148682 0.001709
vn -0.369141 -0.403809 -0.836914
vn -0.308594 0.554443 -0.772461
vn -0.199951 -0.652344 -0.730713
vn -0.308594 0.554443 -0.772461
vn 0.218506 0.412354 -0.884277
vn -0.199951 -0.652344 -0.730713
vn 0.742432 -0.226318 -0.630127
vn 0.548828 0.743652 -0.380859
vn 0.764160 -0.644287 -0.024414
vn 0.548828 0.743652 -0.380859
vn 0.476318 -0.583008 -0.657959
vn 0.764160 -0.644287 -0.024414
vn 0.764160 -0.644287 -0.024414
vn 0.476318 -0.583008 -0.657959
vn 0.986572 -0.162598 0.004395
vn 0.476318 -0.583008 -0.657959
vn 0.820557 0.261230 -0.508057
vn 0.986572 -0.162598 0.004395
vn -0.027588 0.685059 -0.727783
vn 0.766602 0.003418 -0.642090
vn 0.086426 -0.449707 -0.888672
vn 0.766602 0.003418 -0.642090
vn 0.691406 -0.613525 -0.381104
vn 0.086426 -0.449707 -0.888672
vn 0.516602 -0.349609 -0.781494
vn 0.691406 -0.613525 -0.381104
vn 0.800537 0.585205 -0.127686
vn 0.800537 0.585205 -0.127686
vn 0.691406 -0.613525 -0.381104
vn 0.766602 0.003418 -0.642090
vn 0.800537 0.585205 -0.127686
vn 0.986572 -0.162598 0.004395
vn 0.516602 -0.349609 -0.781494
vn -0.162598 0.419678 -0.892822
vn 0.335938 -0.928467 -0.157227
vn 0.516602 -0.349609 -0.781494
vn 0.516602 -0.349609 -0.781494
vn 0.335938 -0.928467 -0.157227
vn 0.691406 -0.613525 -0.381104
vn 0.820557 0.261230 -0.508057
vn -0.490234 0.659668 -0.569336
vn 0.516602 -0.349609 -0.781494
vn 0.516602 -0.349609 -0.781494
vn -0.490234 0.659668 -0.569336
vn -0.162598 0.419678 -0.892822
vn 0.335938 -0.928467 -0.157227
vn 0.063477 -0.615234 -0.785400
vn 0.000000 -0.854004 -0.519775
vn 0.476318 -0.583008 -0.657959
vn 0.548828 0.743652 -0.380859
vn 0.000000 0.973877 -0.226563
vn 0.218506 0.412354 -0.884277
vn -0.308594 0.554443 -0.772461
vn 0.548828 0.743652 -0.380859
vn -0.162598 0.419678 -0.892822
vn -0.490234 0.659668 -0.569336
vn -0.228027 -0.964600 -0.131592
vn 0.335938 -0.928467 -0.157227
vn -0.162598 0.419678 -0.892822
vn 0.063477 -0.615234 -0.785400
vn 0.764160 -0.644287 -0.024414
vn 0.986572 -0.162598 0.004395
vn -0.369141 -0.403809 -0.836914
vn 0.764160 -0.644287 -0.024414
vn -0.199951 -0.652344 -0.730713
vn 0.742432 -0.226318 -0.630127
vn 0.764160 -0.644287 -0.024414
vn -0.369141 -0.403809 -0.836914
vn -0.199951 -0.652344 -0.730713
vn 0.766602 0.003418 -0.642090
vn -0.027588 0.685059 -0.727783
vn 0.800537 0.585205 -0.127686
vn 0.800537 0.585205 -0.127686
vn -0.027588 0.685059 -0.727783
vn -0.443604 0.253906 -0.859375
vn 0.986572 -0.162598 0.004395
vn 0.800537 0.585205 -0.127686
vn -0.443604 0.253906 -0.859375
vn 0.000000 -0.854004 -0.519775
vn 0.000000 -0.145264 -0.989258
vn -0.023193 -0.636719 -0.770508
vn 0.000000 -0.145264 -0.989258
vn -0.443604 0.253906 -0.859375
vn -0.023193 -0.636719 -0.770508
vn -0.023193 -0.636719 -0.770508
vn -0.443604 0.253906 -0.859375
vn 0.086426 -0.449707 -0.888672
vn -0.443604 0.253906 -0.859375
vn -0.027588 0.685059 -0.727783
vn 0.086426 -0.449707 -0.888672
vn 0.086426 -0.449707 -0.888672
vn 0.691406 -0.613525 -0.381104
vn -0.023193 -0.636719 -0.770508
vn 0.335938 -0.928467 -0.157227
vn -0.023193 -0.636719 -0.770508
vn 0.691406 -0.613525 -0.381104
vn -0.199951 -0.652344 -0.730713
vn 0.218506 0.412354 -0.884277
vn 0.742432 -0.226318 -0.630127
vn 0.218506 0.412354 -0.884277
vn 0.548828 0.743652 -0.380859
vn 0.742432 -0.226318 -0.630127
vn -0.369141 -0.403809 -0.836914
vn 0.000000 -0.072998 -0.997314
vn -0.308594 0.554443 -0.772461
vn 0.000000 0.638916 -0.769043
vn -0.308594 0.554443 -0.772461
vn 0.000000 -0.072998 -0.997314
vn -0.023193 -0.636719 -0.770508
vn 0.335938 -0.928467 -0.157227
vn 0.000000 -0.854004 -0.519775
vn 0.548828 0.743652 -0.380859
vn -0.308594 0.554443 -0.772461
vn 0.000000 0.973877 -0.226563
vn 0.218506 0.072021 -0.973145
vn 0.476318 -0.583008 -0.657959
vn 0.000000 0.973877 -0.226563
vn 0.000000 0.973877 -0.226563
vn -0.308594 0.554443 -0.772461
vn 0.000000 0.638916 -0.769043
vn 0.476318 -0.583008 -0.657959
vn 0.218506 0.072021 -0.973145
vn 0.820557 0.261230 -0.508057
vn 0.516602 -0.349609 -0.781494
vn 0.986572 -0.162598 0.004395
vn 0.820557 0.261230 -0.508057
vn 0.063477 -0.615234 -0.785400
vn -0.162598 0.419678 -0.892822
vn -0.228027 -0.964600 -0.131592
vn -0.823730 -0.049316 -0.564697
vn -0.823730 -0.049316 -0.564697
vn -0.035400 -0.102295 -0.993896
vn -0.047852 -0.086914 -0.994873
vn -0.035400 -0.102295 -0.993896
vn -0.823730 -0.049316 -0.564697
vn -0.823730 -0.049316 -0.564697
vn -0.992188 -0.010742 -0.123535
vn -0.823730 -0.049316 -0.564697
vn -0.823730 -0.049316 -0.564697
vn -0.992188 -0.010742 -0.123535
vn -0.999756 -0.000977 -0.012939
vn -0.999756 -0.000977 -0.012939
vn -0.992188 -0.010742 -0.123535
vn -0.988770 -0.148682 0.001709
vn 0.443848 0.253906 -0.859131
vn -0.035400 -0.102295 -0.993896
vn 0.369141 -0.403809 -0.836914
vn 0.369141 -0.403809 -0.836914
vn -0.035400 -0.102295 -0.993896
vn -0.047852 -0.086914 -0.994873
vn 0.000000 -0.072998 -0.997314
vn 0.000000 -0.145264 -0.989258
vn 0.369141 -0.403809 -0.836914
vn 0.369141 -0.403809 -0.836914
vn 0.000000 -0.145264 -0.989258
vn 0.443848 0.253906 -0.859131
vn 0.823730 -0.049316 -0.564697
vn 0.035400 -0.102295 -0.993896
vn 0.823730 -0.049316 -0.564697
vn 0.047852 -0.086914 -0.994873
vn 0.823730 -0.049316 -0.564697
vn 0.035400 -0.102295 -0.993896
vn 0.823730 -0.049316 -0.564697
vn 0.823730 -0.049316 -0.564697
vn 0.992188 -0.010742 -0.123535
vn 0.823730 -0.049316 -0.564697
vn 0.999756 -0.000977 -0.012939
vn 0.992188 -0.010742 -0.123535
vn 0.999756 -0.000977 -0.012939
vn 0.986572 -0.162598 0.004395
vn 0.992188 -0.010742 -0.123535
vn -0.443604 0.253906 -0.859375
vn -0.369141 -0.403809 -0.836914
vn 0.035400 -0.102295 -0.993896
vn -0.369141 -0.403809 -0.836914
vn 0.047852 -0.086914 -0.994873
vn 0.035400 -0.102295 -0.993896
vn 0.000000 -0.072998 -0.997314
vn -0.369141 -0.403809 -0.836914
vn 0.000000 -0.145264 -0.989258
vn -0.369141 -0.403809 -0.836914
vn -0.443604 0.253906 -0.859375
vn 0.000000 -0.145264 -0.989258
vn 0.000000 -0.996094 0.086914
vn -0.068848 -0.997559 -0.008301
vn 0.000000 -0.996094 0.086914
vn 0.000000 -0.996094 0.086914
vn -0.068848 -0.997559 -0.008301
vn -0.103516 -0.992920 -0.056885
vn 0.103516 -0.992920 -0.056885
vn 0.068848 -0.997559 -0.008301
vn 0.000000 -0.996094 0.086914
vn -0.103516 -0.992920 -0.056885
vn -0.068848 -0.997559 -0.008301
vn -0.204102 -0.958252 -0.199219
vn 0.204102 -0.958252 -0.199219
vn 0.068848 -0.997559 -0.008301
vn 0.103516 -0.992920 -0.056885
vn 0.000000 -0.996094 0.086914
vn 0.068848 -0.997559 -0.008301
vn 0.000000 -0.996094 0.086914
vn 0.587646 0.361572 0.723389
vn -0.197510 0.091064 -0.975830
vn 0.870361 0.348145 0.348145
vn 0.705811 -0.141113 0.693848
vn 0.486816 0.608643 -0.625977
vn 0.218506 0.072021 -0.973145
vn -0.228027 -0.964600 -0.131592
vn 0.000000 0.645752 -0.763184
vn 0.209229 0.592041 -0.778076
vn 0.820557 0.261230 -0.508057
vn 0.486816 0.608643 -0.625977
vn -0.490234 0.659668 -0.569336
vn 0.218506 0.072021 -0.973145
vn 0.486816 0.608643 -0.625977
vn 0.820557 0.261230 -0.508057
vn -0.490234 0.659668 -0.569336
vn 0.486816 0.608643 -0.625977
vn -0.298096 0.745117 -0.596191
vn 0.209229 0.592041 -0.778076
vn 0.599854 0.000000 -0.799805
vn -0.763916 0.198486 -0.613525
vn -0.490234 0.659668 -0.569336
vn -0.298096 0.745117 -0.596191
vn 0.000000 0.645752 -0.763184
vn -0.298096 0.745117 -0.596191
vn -1.000000 0.000000 0.000000
vn 0.000000 0.645752 -0.763184
vn 0.000000 0.973877 -0.226563
vn -0.190674 -0.667480 -0.719482
vn 0.218506 0.072021 -0.973145
vn -0.190674 -0.667480 -0.719482
vn 0.705811 -0.141113 0.693848
vn 0.218506 0.072021 -0.973145
vn -0.190674 -0.667480 -0.719482
vn 0.000000 0.973877 -0.226563
vn -0.487793 0.780518 -0.390137
vn 0.870361 0.348145 0.348145
vn -0.763916 0.198486 -0.613525
vn 0.599854 0.000000 -0.799805
vn 0.870361 0.348145 0.348145
vn -0.197510 0.091064 -0.975830
vn -0.763916 0.198486 -0.613525
vn 0.209229 0.592041 -0.778076
vn -0.218018 -0.436279 -0.872803
vn 0.599854 0.000000 -0.799805
vn -0.490234 0.659668 -0.569336
vn 0.000000 0.645752 -0.763184
vn -0.228027 -0.964600 -0.131592
vn 0.209229 0.592041 -0.778076
vn 0.000000 0.645752 -0.763184
vn -0.218018 -0.436279 -0.872803
vn 0.000000 0.645752 -0.763184
vn -1.000000 0.000000 0.000000
vn -0.218018 -0.436279 -0.872803
vn -0.487793 0.780518 -0.390137
vn 0.000000 0.973877 -0.226563
vn -0.197510 0.091064 -0.975830
vn 0.587646 0.361572 0.723389
vn -0.487793 0.780518 -0.390137
vn -0.197510 0.091064 -0.975830
vn 0.587646 0.361572 0.723389
vn 0.870361 0.348145 0.348145
vn -0.197510 0.091064 -0.975830
vn 0.705811 -0.141113 0.693848
vn 0.218506 0.072021 -0.973145
vn 0.486816 0.608643 -0.625977
vn -0.228027 -0.964600 -0.131592
vn 0.209229 0.592041 -0.778076
vn 0.000000 0.645752 -0.763184
vn 0.820557 0.261230 -0.508057
vn -0.490234 0.659668 -0.569336
vn 0.486816 0.608643 -0.625977
vn 0.000000 -0.864746 0.501953
vn -0.688477 0.044678 0.723633
vn 0.000000 -0.728271 0.685059
vn 0.000000 -0.728271 0.685059
vn -0.688477 0.044678 0.723633
vn -0.576660 -0.670898 0.465820
vn -0.763916 0.198486 -0.613525
vn -0.688477 0.044678 0.723633
vn -0.343994 0.922363 0.175293
vn 0.218506 0.072021 -0.973145
vn 0.820557 0.261230 -0.508057
vn 0.486816 0.608643 -0.625977
vn -0.763916 0.198486 -0.613525
vn -0.343994 0.922363 0.175293
vn -0.197510 0.091064 -0.975830
vn 0.000000 -0.728271 0.685059
vn -0.576660 -0.670898 0.465820
vn -0.228027 -0.964600 -0.131592
vn -0.228027 -0.964600 -0.131592
vn -0.576660 -0.670898 0.465820
vn 0.209229 0.592041 -0.778076
vn -0.490234 0.659668 -0.569336
vn -0.298096 0.745117 -0.596191
vn 0.486816 0.608643 -0.625977
vn 0.209229 0.592041 -0.778076
vn -0.763916 0.198486 -0.613525
vn 0.599854 0.000000 -0.799805
vn -0.576660 -0.670898 0.465820
vn -0.763916 0.198486 -0.613525
vn 0.209229 0.592041 -0.778076
vn -0.688477 0.044678 0.723633
vn -0.763916 0.198486 -0.613525
vn -0.576660 -0.670898 0.465820
vn -0.490234 0.659668 -0.569336
vn 0.000000 0.645752 -0.763184
vn -0.298096 0.745117 -0.596191
vn -0.298096 0.745117 -0.596191
vn 0.000000 0.645752 -0.763184
vn -1.000000 0.000000 0.000000
vn -0.490234 0.659668 -0.569336
vn 0.590576 -0.673828 0.443848
vn -0.228027 -0.964600 -0.131592
vn 0.000000 -0.728271 0.685059
vn -0.228027 -0.964600 -0.131592
vn 0.590576 -0.673828 0.443848
vn 0.590576 -0.673828 0.443848
vn 0.688477 0.044678 0.723633
vn 0.000000 -0.728271 0.685059
vn 0.000000 -0.864746 0.501953
vn 0.000000 -0.728271 0.685059
vn 0.688477 0.044678 0.723633
vn 0.688477 0.044678 0.723633
vn 0.343994 0.922363 0.175293
vn 0.000000 0.939941 0.340820
vn 0.000000 0.994873 0.100098
vn 0.000000 0.939941 0.340820
vn 0.343994 0.922363 0.175293
vn 0.218506 0.072021 -0.973145
vn 0.000000 0.973877 -0.226563
vn 0.343994 0.922363 0.175293
vn 0.343994 0.922363 0.175293
vn 0.000000 0.973877 -0.226563
vn 0.000000 0.994873 0.100098
vn 0.000000 0.973877 -0.226563
vn 0.218506 0.072021 -0.973145
vn -0.190674 -0.667480 -0.719482
vn -0.190674 -0.667480 -0.719482
vn 0.218506 0.072021 -0.973145
vn 0.705811 -0.141113 0.693848
vn -0.190674 -0.667480 -0.719482
vn -0.487793 0.780518 -0.390137
vn 0.000000 0.973877 -0.226563
vn -0.197510 0.091064 -0.975830
vn -0.343994 0.922363 0.175293
vn 0.000000 0.973877 -0.226563
vn 0.000000 0.973877 -0.226563
vn -0.343994 0.922363 0.175293
vn 0.000000 0.994873 0.100098
vn -0.688477 0.044678 0.723633
vn 0.000000 0.939941 0.340820
vn -0.343994 0.922363 0.175293
vn -0.343994 0.922363 0.175293
vn 0.000000 0.939941 0.340820
vn 0.000000 0.994873 0.100098
vn 0.870361 0.348145 0.348145
vn 0.599854 0.000000 -0.799805
vn -0.763916 0.198486 -0.613525
vn 0.870361 0.348145 0.348145
vn -0.763916 0.198486 -0.613525
vn -0.197510 0.091064 -0.975830
vn 0.820557 0.261230 -0.508057
vn 0.590576 -0.673828 0.443848
vn -0.490234 0.659668 -0.569336
vn 0.820557 0.261230 -0.508057
vn 0.688477 0.044678 0.723633
vn 0.590576 -0.673828 0.443848
vn 0.343994 0.922363 0.175293
vn 0.688477 0.044678 0.723633
vn 0.820557 0.261230 -0.508057
vn 0.218506 0.072021 -0.973145
vn 0.343994 0.922363 0.175293
vn 0.820557 0.261230 -0.508057
vn 0.000000 -0.864746 0.501953
vn 0.000000 -0.105225 0.994385
vn -0.688477 0.044678 0.723633
vn 0.688477 0.044678 0.723633
vn 0.000000 -0.105225 0.994385
vn 0.000000 -0.864746 0.501953
vn 0.000000 0.939941 0.340820
vn 0.000000 -0.105225 0.994385
vn 0.688477 0.044678 0.723633
vn -0.688477 0.044678 0.723633
vn 0.000000 -0.105225 0.994385
vn 0.000000 0.939941 0.340820
vn 0.209229 0.592041 -0.778076
vn 0.599854 0.000000 -0.799805
vn -0.218018 -0.436279 -0.872803
vn -0.490234 0.659668 -0.569336
vn -0.228027 -0.964600 -0.131592
vn 0.000000 0.645752 -0.763184
vn 0.209229 0.592041 -0.778076
vn -0.218018 -0.436279 -0.872803
vn 0.000000 0.645752 -0.763184
vn 0.000000 0.645752 -0.763184
vn -0.218018 -0.436279 -0.872803
vn -1.000000 0.000000 0.000000
vn -0.487793 0.780518 -0.390137
vn -0.197510 0.091064 -0.975830
vn 0.000000 0.973877 -0.226563
vn 0.587646 0.361572 0.723389
vn -0.197510 0.091064 -0.975830
vn -0.487793 0.780518 -0.390137
usemtl Texture
f 1/1/1 2/2/2 3/3/3
f 4/4/4 5/5/5 6/6/6
f 7/7/7 8/8/8 9/9/9
f 10/10/10 11/11/11 12/12/12
f 13/13/13 14/14/14 15/15/15
f 16/16/16 17/17/17 18/18/18
f 19/19/19 20/20/20 21/21/21
f 22/22/22 23/23/23 24/24/24
f 25/25/25 26/26/26 27/27/27
f 28/28/28 29/29/29 30/30/30
f 31/31/31 32/32/32 33/33/33
f 34/34/34 35/35/35 36/36/36
f 37/37/37 38/38/38 39/39/39
f 40/40/40 41/41/41 42/42/42
f 43/43/43 44/44/44 45/45/45
f 46/46/46 47/47/47 48/48/48
f 49/49/49 50/50/50 51/51/51
f 52/52/52 53/53/53 54/54/54
f 55/55/55 56/56/56 57/57/57
f 58/58/58 59/59/59 60/60/60
f 61/61/61 62/62/62 63/63/63
f 64/64/64 65/65/65 66/66/66
f 67/67/67 68/68/68 69/69/69
f 70/70/70 71/71/71 72/72/72
f 73/73/73 74/74/74 75/75/75
f 76/76/76 77/77/77 78/78/78
f 79/79/79 80/80/80 81/81/81
f 82/82/82 83/83/83 84/84/84
f 85/85/85 86/86/86 87/87/87
f 88/88/88 89/89/89 90/90/90
f 91/91/91 92/92/92 93/93/93
f 94/94/94 95/95/95 96/96/96
f 97/97/97 98/98/98 99/99/99
f 100/100/100 101/101/101 102/102/102
f 103/103/103 104/104/104 105/105/105
f 106/106/106 107/107/107 108/108/108
f 109/109/109 110/110/110 111/111/111
f 112/112/112 113/113/113 114/114/114
f 115/115/115 116/116/116 117/117/117
f 118/118/118 119/119/119 120/120/120
f 121/121/121 122/122/122 123/123/123
f 124/124/124 125/125/125 126/126/126
f 127/127/127 128/128/128 129/129/129
f 130/130/130 131/131/131 132/132/132
f 133/133/133 134/134/134 135/135/135
f 136/136/136 137/137/137 138/138/138
f 139/139/139 140/140/140 141/141/141
f 142/142/142 143/143/143 144/144/144
f 145/145/145 146/146/146 147/147/147
f 148/148/148 149/149/149 150/150/150
f 151/151/151 152/152/152 153/153/153
f 154/154/154 155/155/155 156/156/156
f 157/157/157 158/158/158 159/159/159
f 160/160/160 161/161/161 162/162/162
f 163/163/163 164/164/164 165/165/165
f 166/166/166 167/167/167 168/168/168
f 169/169/169 170/170/170 171/171/171
f 172/172/172 173/173/173 174/174/174
f 175/175/175 176/176/176 177/177/177
f 178/178/178 179/179/179 180/180/180
f 181/181/181 182/182/182 183/183/183
f 184/184/184 185/185/185 186/186/186
f 187/187/187 188/188/188 189/189/189
f 190/190/190 191/191/191 192/192/192
f 193/193/193 194/194/194 195/195/195
f 196/196/196 197/197/197 198/198/198
f 199/199/199 200/200/200 201/201/201
f 202/202/202 203/203/203 204/204/204
f 205/205/205 206/206/206 207/207/207
f 208/208/208 209/209/209 210/210/210
f 211/211/211 212/212/212 213/213/213
f 214/214/214 215/215/215 216/216/216
f 217/217/217 218/218/218 219/219/219
f 220/220/220 221/221/221 222/222/222
f 223/223/223 224/224/224 225/225/225
f 226/226/226 227/227/227 228/228/228
f 229/229/229 230/230/230 231/231/231
f 232/232/232 233/233/233 234/234/234
f 235/235/235 236/236/236 237/237/237
f 238/238/238 239/239/239 240/240/240
f 241/241/241 242/242/242 243/243/243
f 244/244/244 245/245/245 246/246/246
f 247/247/247 248/248/248 249/249/249
f 250/250/250 251/251/251 252/252/252
f 253/253/253 254/254/254 255/255/255
f 256/256/256 257/257/257 258/258/258
f 259/259/259 260/260/260 261/261/261
f 262/262/262 263/263/263 264/264/264
f 265/265/265 266/266/266 267/267/267
f 268/268/268 269/269/269 270/270/270
f 271/271/271 272/272/272 273/273/273
f 274/274/274 275/275/275 276/276/276
f 277/277/277 278/278/278 279/279/279
f 280/280/280 281/281/281 282/282/282
f 283/283/283 284/284/284 285/285/285
f 286/286/286 287/287/287 288/288/288
f 289/289/289 290/290/290 291/291/291
f 292/292/292 293/293/293 294/294/294
f 295/295/295 296/296/296 297/297/297
f 298/298/298 299/299/299 300/300/300
f 301/301/301 302/302/302 303/303/303
f 304/304/304 305/305/305 306/306/306
f 307/307/307 308/308/308 309/309/309
f 310/310/310 311/311/311 312/312/312
f 313/313/313 314/314/314 315/315/315
f 316/316/316 317/317/317 318/318/318
f 319/319/319 320/320/320 321/321/321
f 322/322/322 323/323/323 324/324/324
f 325/325/325 326/326/326 327/327/327
f 328/328/328 329/329/329 330/330/330
f 331/331/331 332/332/332 333/333/333
f 334/334/334 335/335/335 336/336/336
f 337/337/337 338/338/338 339/339/339
f 340/340/340 341/341/341 342/342/342
f 343/343/343 344/344/344 345/345/345
f 346/346/346 347/347/347 348/348/348
f 349/349/349 350/350/350 351/351/351
f 352/352/352 353/353/353 354/354/354
f 355/355/355 356/356/356 357/357/357
f 358/358/358 359/359/359 360/360/360
f 361/361/361 362/362/362 363/363/363
f 364/364/364 365/365/365 366/366/366
f 367/367/367 368/368/368 369/369/369
f 370/370/370 371/371/371 372/372/372
f 373/373/373 374/374/374 375/375/375
f 376/376/376 377/377/377 378/378/378
f 379/379/379 380/380/380 381/381/381
f 382/382/382 383/383/383 384/384/384
f 385/385/385 386/386/386 387/387/387
f 388/388/388 389/389/389 390/390/390
f 391/391/391 392/392/392 393/393/393
f 394/394/394 395/395/395 396/396/396
f 397/397/397 398/398/398 399/399/399
f 400/400/400 401/401/401 402/402/402
f 403/403/403 404/404/404 405/405/405
f 406/406/406 407/407/407 408/408/408
f 409/409/409 410/410/410 411/411/411
f 412/412/412 413/413/413 414/414/414
f 415/415/415 416/416/416 417/417/417
f 418/418/418 419/419/419 420/420/420
f 421/421/421 422/422/422 423/423/423
f 424/424/424 425/425/425 426/426/426
f 427/427/427 428/428/428 429/429/429
f 430/430/430 431/431/431 432/432/432
f 433/433/433 434/434/434 435/435/435
f 436/436/436 437/437/437 438/438/438
f 439/439/439 440/440/440 441/441/441
f 442/442/442 443/443/443 444/444/444
f 445/445/445 446/446/446 447/447/447
f 448/448/448 449/449/449 450/450/450
f 451/451/451 452/452/452 453/453/453
f 454/454/454 455/455/455 456/456/456
f 457/457/457 458/458/458 459/459/459
f 460/460/460 461/461/461 462/462/462
f 463/463/463 464/464/464 465/465/465
f 466/466/466 467/467/467 468/468/468
f 469/469/469 470/470/470 471/471/471
f 472/472/472 473/473/473 474/474/474
f 475/475/475 476/476/476 477/477/477
f 478/478/478 479/479/479 480/480/480
f 481/481/481 482/482/482 483/483/483
f 484/484/484 485/485/485 486/486/486
f 487/487/487 488/488/488 489/489/489
f 490/490/490 491/491/491 492/492/492
f 493/493/493 494/494/494 495/495/495
f 496/496/496 497/497/497 498/498/498
f 499/499/499 500/500/500 501/501/501
f 502/502/502 503/503/503 504/504/504
f 505/505/505 506/506/506 507/507/507
f 508/508/508 509/509/509 510/510/510
f 511/511/511 512/512/512 513/513/513
f 514/514/514 515/515/515 516/516/516
f 517/517/517 518/518/518 519/519/519
f 520/520/520 521/521/521 522/522/522
f 523/523/523 524/524/524 525/525/525
f 526/526/526 527/527/527 528/528/528
f 529/529/529 530/530/530 531/531/531
f 532/532/532 533/533/533 534/534/534