# OBJ file
mtllib standard.ico.mtl
v 2.331787 3.791992 -1.310303 0.498039 0.498039 0.498039 #0.000000
v 2.148193 3.121338 -1.219482 0.498039 0.498039 0.498039 #0.000000
v 1.883545 3.709229 -0.923584 0.498039 0.498039 0.498039 #0.000000
v 1.883545 3.709229 -0.923584 0.498039 0.498039 0.498039 #0.000000
v 2.148193 3.121338 -1.219482 0.498039 0.498039 0.498039 #0.000000
v 2.331787 3.791992 -1.310303 0.498039 0.498039 0.498039 #0.000000
v 2.192383 4.471436 -1.277832 0.498039 0.498039 0.498039 #0.000000
v 2.331787 3.791992 -1.310303 0.498039 0.498039 0.498039 #0.000000
v 1.441162 4.012207 -0.822021 0.498039 0.498039 0.498039 #0.000000
v 1.441162 4.012207 -0.822021 0.498039 0.498039 0.498039 #0.000000
v 2.331787 3.791992 -1.310303 0.498039 0.498039 0.498039 #0.000000
v 2.192383 4.471436 -1.277832 0.498039 0.498039 0.498039 #0.000000
v 1.441162 4.012207 -0.822021 0.498039 0.498039 0.498039 #0.000000
v 1.883545 3.709229 -0.923584 0.498039 0.498039 0.498039 #0.000000
v 2.331787 3.791992 -1.310303 0.498039 0.498039 0.498039 #0.000000
v 2.331787 3.791992 -1.310303 0.498039 0.498039 0.498039 #0.000000
v 1.883545 3.709229 -0.923584 0.498039 0.498039 0.498039 #0.000000
v 1.441162 4.012207 -0.822021 0.498039 0.498039 0.498039 #0.000000
v 1.284668 2.240723 0.790771 0.498039 0.498039 0.498039 #0.000000
v 2.193604 2.953857 0.362793 0.498039 0.498039 0.498039 #0.000000
v 1.776367 2.350098 1.571777 0.498039 0.498039 0.498039 #0.000000
v 2.192383 4.471436 -1.277832 0.498039 0.498039 0.498039 #0.000000
v 1.441162 4.012207 -0.822021 0.498039 0.498039 0.498039 #0.000000
v 1.594971 4.995361 -1.209473 0.498039 0.498039 0.498039 #0.000000
v 1.594971 4.995361 -1.209473 0.498039 0.498039 0.498039 #0.000000
v 1.441162 4.012207 -0.822021 0.498039 0.498039 0.498039 #0.000000
v 2.192383 4.471436 -1.277832 0.498039 0.498039 0.498039 #0.000000
v 1.183838 2.837891 -0.779297 0.498039 0.498039 0.498039 #0.000000
v 1.779541 3.687988 -1.147461 0.498039 0.498039 0.498039 #0.000000
v 2.193604 2.953857 0.362793 0.498039 0.498039 0.498039 #0.000000
v 2.189453 2.952637 0.362549 0.498039 0.498039 0.498039 #0.000000
v 1.777832 3.687256 -1.146240 0.498039 0.498039 0.498039 #0.000000
v 1.181885 2.836914 -0.777100 0.498039 0.498039 0.498039 #0.000000
v 1.773193 2.350098 1.569092 0.498039 0.498039 0.498039 #0.000000
v 2.189453 2.952637 0.362549 0.498039 0.498039 0.498039 #0.000000
v 1.125977 2.240967 0.702393 0.498039 0.498039 0.498039 #0.000000
v 2.193604 2.953857 0.362793 0.498039 0.498039 0.498039 #0.000000
v 1.284668 2.240723 0.790771 0.498039 0.498039 0.498039 #0.000000
v 1.183838 2.837891 -0.779297 0.498039 0.498039 0.498039 #0.000000
v 1.181885 2.836914 -0.777100 0.498039 0.498039 0.498039 #0.000000
v 1.125977 2.240967 0.702393 0.498039 0.498039 0.498039 #0.000000
v 2.189453 2.952637 0.362549 0.498039 0.498039 0.498039 #0.000000
v 0.923096 4.994385 -1.100586 0.498039 0.498039 0.498039 #0.000000
v 1.594971 4.995361 -1.209473 0.498039 0.498039 0.498039 #0.000000
v 1.441162 4.012207 -0.822021 0.498039 0.498039 0.498039 #0.000000
v 1.441162 4.012207 -0.822021 0.498039 0.498039 0.498039 #0.000000
v 1.594971 4.995361 -1.209473 0.498039 0.498039 0.498039 #0.000000
v 0.923096 4.994385 -1.100586 0.498039 0.498039 0.498039 #0.000000
v 1.114258 1.950439 -0.034912 0.498039 0.498039 0.498039 #0.000000
v 1.332764 1.835205 0.095215 0.498039 0.498039 0.498039 #0.000000
v 1.392578 1.519287 0.006348 0.498039 0.498039 0.498039 #0.000000
v 1.392578 1.519287 0.006348 0.498039 0.498039 0.498039 #0.000000
v 1.332764 1.835205 0.095215 0.498039 0.498039 0.498039 #0.000000
v 1.114258 1.950439 -0.030273 0.498039 0.498039 0.498039 #0.000000
v 1.253174 2.319092 -0.761475 0.498039 0.498039 0.498039 #0.000000
v 1.284668 2.240723 0.790771 0.498039 0.498039 0.498039 #0.000000
v 1.262695 1.961670 0.093262 0.498039 0.498039 0.498039 #0.000000
v 1.284668 2.240723 0.790771 0.498039 0.498039 0.498039 #0.000000
v 1.253174 2.319092 -0.761475 0.498039 0.498039 0.498039 #0.000000
v 1.183838 2.837891 -0.779297 0.498039 0.498039 0.498039 #0.000000
v 1.253174 2.319092 -0.761475 0.498039 0.498039 0.498039 #0.000000
v 1.262695 1.961670 0.093262 0.498039 0.498039 0.498039 #0.000000
v 1.132813 1.592529 -0.653564 0.498039 0.498039 0.498039 #0.000000
v 1.131836 1.592773 -0.652588 0.498039 0.498039 0.498039 #0.000000
v 1.261719 1.961426 0.093506 0.498039 0.498039 0.498039 #0.000000
v 1.252197 2.318604 -0.760254 0.498039 0.498039 0.498039 #0.000000
v 1.261719 1.961426 0.093506 0.498039 0.498039 0.498039 #0.000000
v 1.125977 2.240967 0.702393 0.498039 0.498039 0.498039 #0.000000
v 1.252197 2.318604 -0.760254 0.498039 0.498039 0.498039 #0.000000
v 1.181885 2.836914 -0.777100 0.498039 0.498039 0.498039 #0.000000
v 1.252197 2.318604 -0.760254 0.498039 0.498039 0.498039 #0.000000
v 1.125977 2.240967 0.702393 0.498039 0.498039 0.498039 #0.000000
v 1.262695 1.961670 0.093262 0.498039 0.498039 0.498039 #0.000000
v 1.284668 2.240723 0.790771 0.498039 0.498039 0.498039 #0.000000
v 0.984619 1.291260 0.369141 0.498039 0.498039 0.498039 #0.000000
v 1.392578 1.519287 0.006348 0.498039 0.498039 0.498039 #0.000000
v 1.001465 1.344971 -0.308838 0.498039 0.498039 0.498039 #0.000000
v 1.114258 1.950439 -0.034912 0.498039 0.498039 0.498039 #0.000000
v 1.392578 1.519287 0.006348 0.498039 0.498039 0.498039 #0.000000
v 1.114258 1.950439 -0.030273 0.498039 0.498039 0.498039 #0.000000
v 1.001465 1.344971 -0.304199 0.498039 0.498039 0.498039 #0.000000
v 1.253174 2.319092 -0.761475 0.498039 0.498039 0.498039 #0.000000
v 1.044189 2.426758 -1.028809 0.498039 0.498039 0.498039 #0.000000
v 1.183838 2.837891 -0.779297 0.498039 0.498039 0.498039 #0.000000
v 1.284668 2.240723 0.790771 0.498039 0.498039 0.498039 #0.000000
v 1.183838 2.837891 -0.779297 0.498039 0.498039 0.498039 #0.000000
v 1.006104 3.759033 0.054688 0.498039 0.498039 0.498039 #0.000000
v 1.111084 3.173096 1.016846 0.498039 0.498039 0.498039 #0.000000
v 1.284668 2.240723 0.790771 0.498039 0.498039 0.498039 #0.000000
v 1.006104 3.759033 0.054688 0.498039 0.498039 0.498039 #0.000000
v 1.253174 2.319092 -0.761475 0.498039 0.498039 0.498039 #0.000000
v 1.095947 1.874268 -1.059814 0.498039 0.498039 0.498039 #0.000000
v 1.044189 2.426758 -1.028809 0.498039 0.498039 0.498039 #0.000000
v 0.983887 1.291748 0.369141 0.498039 0.498039 0.498039 #0.000000
v 1.125977 2.240967 0.702393 0.498039 0.498039 0.498039 #0.000000
v 1.261719 1.961426 0.093506 0.498039 0.498039 0.498039 #0.000000
v 1.223633 2.337158 0.165283 0.498039 0.498039 0.498039 #0.000000
v 1.001465 1.344971 -0.304199 0.498039 0.498039 0.498039 #0.000000
v 1.057373 2.656738 -0.720459 0.498039 0.498039 0.498039 #0.000000
v 1.001465 1.344971 -0.304199 0.498039 0.498039 0.498039 #0.000000
v 1.262695 1.961670 0.093262 0.498039 0.498039 0.498039 #0.000000
v 0.984619 1.291260 0.369141 0.498039 0.498039 0.498039 #0.000000
v 0.983887 1.291748 0.369141 0.498039 0.498039 0.498039 #0.000000
v 1.261719 1.961426 0.093506 0.498039 0.498039 0.498039 #0.000000
v 1.000732 1.345459 -0.303467 0.498039 0.498039 0.498039 #0.000000
v 1.776367 2.350098 1.571777 0.498039 0.498039 0.498039 #0.000000
v 0.143311 1.862061 1.299072 0.498039 0.498039 0.498039 #0.000000
v 1.284668 2.240723 0.790771 0.498039 0.498039 0.498039 #0.000000
v 0.827148 1.020020 -0.265869 0.498039 0.498039 0.498039 #0.000000
v 1.013428 0.328857 0.476074 0.498039 0.498039 0.498039 #0.000000
v 1.356934 0.148926 -0.224854 0.498039 0.498039 0.498039 #0.000000
v 1.183838 2.837891 -0.779297 0.498039 0.498039 0.498039 #0.000000
v 0.142090 4.519775 -1.886719 0.498039 0.498039 0.498039 #0.000000
v 1.779541 3.687988 -1.147461 0.498039 0.498039 0.498039 #0.000000
v 1.777832 3.687256 -1.146240 0.498039 0.498039 0.498039 #0.000000
v 0.142090 4.518066 -1.884766 0.498039 0.498039 0.498039 #0.000000
v 1.181885 2.836914 -0.777100 0.498039 0.498039 0.498039 #0.000000
v 0.827148 1.020020 -0.265869 0.498039 0.498039 0.498039 #0.000000
v 1.356934 0.148926 -0.224854 0.498039 0.498039 0.498039 #0.000000
v 0.908447 0.062744 -0.771973 0.498039 0.498039 0.498039 #0.000000
v 1.125977 2.240967 0.702393 0.498039 0.498039 0.498039 #0.000000
v 0.143311 1.863037 1.093506 0.498039 0.498039 0.498039 #0.000000
v 1.773193 2.350098 1.569092 0.498039 0.498039 0.498039 #0.000000
v 1.057373 2.656738 -0.720459 0.498039 0.498039 0.498039 #0.000000
v 1.001465 1.344971 -0.304199 0.498039 0.498039 0.498039 #0.000000
v 0.893799 1.323242 -0.792725 0.498039 0.498039 0.498039 #0.000000
v 0.659668 1.219238 0.779541 0.498039 0.498039 0.498039 #0.000000
v 0.984619 1.291260 0.369141 0.498039 0.498039 0.498039 #0.000000
v 1.284668 2.240723 0.790771 0.498039 0.498039 0.498039 #0.000000
v 0.885010 0.912598 0.171875 0.498039 0.498039 0.498039 #0.000000
v 1.001465 1.344971 -0.304199 0.498039 0.498039 0.498039 #0.000000
v 0.984619 1.291260 0.369141 0.498039 0.498039 0.498039 #0.000000
v 0.983887 1.291748 0.369141 0.498039 0.498039 0.498039 #0.000000
v 1.000732 1.345459 -0.303467 0.498039 0.498039 0.498039 #0.000000
v 0.884521 0.913574 0.172119 0.498039 0.498039 0.498039 #0.000000
v 1.044189 2.426758 -1.028809 0.498039 0.498039 0.498039 #0.000000
v 0.512939 2.594727 -1.364746 0.498039 0.498039 0.498039 #0.000000
v 1.183838 2.837891 -0.779297 0.498039 0.498039 0.498039 #0.000000
v 0.340820 4.658691 -1.004150 0.498039 0.498039 0.498039 #0.000000
v 1.441162 4.012207 -0.822021 0.498039 0.498039 0.498039 #0.000000
v 0.923096 4.994385 -1.100586 0.498039 0.498039 0.498039 #0.000000
v 0.923096 4.994385 -1.100586 0.498039 0.498039 0.498039 #0.000000
v 1.441162 4.012207 -0.822021 0.498039 0.498039 0.498039 #0.000000
v 0.340820 4.658691 -1.004150 0.498039 0.498039 0.498039 #0.000000
v 0.801514 1.136475 -0.442871 0.498039 0.498039 0.498039 #0.000000
v 0.893799 1.323242 -0.792725 0.498039 0.498039 0.498039 #0.000000
v 1.001465 1.344971 -0.304199 0.498039 0.498039 0.498039 #0.000000
v 0.835449 3.876221 -0.837891 0.498039 0.498039 0.498039 #0.000000
v 1.441162 4.012207 -0.822021 0.498039 0.498039 0.498039 #0.000000
v 0.340820 4.658691 -1.004150 0.498039 0.498039 0.498039 #0.000000
v 0.340820 4.658691 -1.004150 0.498039 0.498039 0.498039 #0.000000
v 1.441162 4.012207 -0.822021 0.498039 0.498039 0.498039 #0.000000
v 0.835449 3.876221 -0.837891 0.498039 0.498039 0.498039 #0.000000
v 1.125977 2.240967 0.702393 0.498039 0.498039 0.498039 #0.000000
v 0.983887 1.291748 0.369141 0.498039 0.498039 0.498039 #0.000000
v 0.487305 0.728516 0.627197 0.498039 0.498039 0.498039 #0.000000
v 0.603760 1.271729 -1.069092 0.498039 0.498039 0.498039 #0.000000
v 1.057373 2.656738 -0.720459 0.498039 0.498039 0.498039 #0.000000
v 0.893799 1.323242 -0.792725 0.498039 0.498039 0.498039 #0.000000
v 0.143311 1.862061 1.299072 0.498039 0.498039 0.498039 #0.000000
v 1.284668 2.240723 0.790771 0.498039 0.498039 0.498039 #0.000000
v 1.111084 3.173096 1.016846 0.498039 0.498039 0.498039 #0.000000
v 0.827148 1.020020 -0.265869 0.498039 0.498039 0.498039 #0.000000
v 0.695801 0.931885 0.143799 0.498039 0.498039 0.498039 #0.000000
v 1.013428 0.328857 0.476074 0.498039 0.498039 0.498039 #0.000000
v 1.044189 2.426758 -1.028809 0.498039 0.498039 0.498039 #0.000000
v 0.852783 1.917725 -1.224121 0.498039 0.498039 0.498039 #0.000000
v 0.512939 2.594727 -1.364746 0.498039 0.498039 0.498039 #0.000000
v 1.006104 3.759033 0.054688 0.498039 0.498039 0.498039 #0.000000
v 1.183838 2.837891 -0.779297 0.498039 0.498039 0.498039 #0.000000
v 0.136719 3.933105 -0.278564 0.498039 0.498039 0.498039 #0.000000
v 0.587646 0.911377 -0.690430 0.498039 0.498039 0.498039 #0.000000
v 0.827148 1.020020 -0.265869 0.498039 0.498039 0.498039 #0.000000
v 0.908447 0.062744 -0.771973 0.498039 0.498039 0.498039 #0.000000
v 0.603760 1.271729 -1.069092 0.498039 0.498039 0.498039 #0.000000
v 0.633301 2.667725 -1.112305 0.498039 0.498039 0.498039 #0.000000
v 1.057373 2.656738 -0.720459 0.498039 0.498039 0.498039 #0.000000
v 1.125977 2.240967 0.702393 0.498039 0.498039 0.498039 #0.000000
v 0.487305 0.728516 0.627197 0.498039 0.498039 0.498039 #0.000000
v 0.648193 1.219727 0.768555 0.498039 0.498039 0.498039 #0.000000
v 1.111084 3.173096 1.016846 0.498039 0.498039 0.498039 #0.000000
v 1.006104 3.759033 0.054688 0.498039 0.498039 0.498039 #0.000000
v 0.137207 3.760498 0.793701 0.498039 0.498039 0.498039 #0.000000
v 0.801514 1.136475 -0.442871 0.498039 0.498039 0.498039 #0.000000
v 0.495850 1.045410 -0.846436 0.498039 0.498039 0.498039 #0.000000
v 0.893799 1.323242 -0.792725 0.498039 0.498039 0.498039 #0.000000
v 0.487549 0.727539 0.627441 0.498039 0.498039 0.498039 #0.000000
v 0.984619 1.291260 0.369141 0.498039 0.498039 0.498039 #0.000000
v 0.659668 1.219238 0.779541 0.498039 0.498039 0.498039 #0.000000
v 0.659668 1.219238 0.779541 0.498039 0.498039 0.498039 #0.000000
v 1.284668 2.240723 0.790771 0.498039 0.498039 0.498039 #0.000000
v 0.143311 1.862061 1.299072 0.498039 0.498039 0.498039 #0.000000
v 0.143311 1.862061 1.299072 0.498039 0.498039 0.498039 #0.000000
v 1.776367 2.350098 1.571777 0.498039 0.498039 0.498039 #0.000000
v 0.148926 2.121826 2.076172 0.498039 0.498039 0.498039 #0.000000
v 0.148926 2.122559 2.074219 0.498039 0.498039 0.498039 #0.000000
v 1.773193 2.350098 1.569092 0.498039 0.498039 0.498039 #0.000000
v 0.143311 1.863037 1.093506 0.498039 0.498039 0.498039 #0.000000
v 0.893799 1.323242 -0.792725 0.498039 0.498039 0.498039 #0.000000
v 0.495850 1.045410 -0.846436 0.498039 0.498039 0.498039 #0.000000
v 0.603760 1.271729 -1.069092 0.498039 0.498039 0.498039 #0.000000
v 0.801514 1.136475 -0.442871 0.498039 0.498039 0.498039 #0.000000
v 1.001465 1.344971 -0.304199 0.498039 0.498039 0.498039 #0.000000
v 0.144287 1.595459 0.862549 0.498039 0.498039 0.498039 #0.000000
v 0.143311 1.863037 1.093506 0.498039 0.498039 0.498039 #0.000000
v 1.125977 2.240967 0.702393 0.498039 0.498039 0.498039 #0.000000
v 0.648193 1.219727 0.768555 0.498039 0.498039 0.498039 #0.000000
v 1.013428 0.328857 0.476074 0.498039 0.498039 0.498039 #0.000000
v 0.695801 0.931885 0.143799 0.498039 0.498039 0.498039 #0.000000
v 0.144287 0.223877 0.772217 0.498039 0.498039 0.498039 #0.000000
v 0.133789 3.197998 -1.139160 0.498039 0.498039 0.498039 #0.000000
v 1.183838 2.837891 -0.779297 0.498039 0.498039 0.498039 #0.000000
v 0.512939 2.594727 -1.364746 0.498039 0.498039 0.498039 #0.000000
v 0.144287 0.895752 0.364502 0.498039 0.498039 0.498039 #0.000000
v 0.695801 0.931885 0.143799 0.498039 0.498039 0.498039 #0.000000
v 0.827148 1.020020 -0.265869 0.498039 0.498039 0.498039 #0.000000
v 0.908447 0.062744 -0.771973 0.498039 0.498039 0.498039 #0.000000
v 0.144287 0.818359 -0.874756 0.498039 0.498039 0.498039 #0.000000
v 0.587646 0.911377 -0.690430 0.498039 0.498039 0.498039 #0.000000
v 0.172852 3.195068 -1.123535 0.498039 0.498039 0.498039 #0.000000
v 0.554932 3.090332 -0.983154 0.498039 0.498039 0.498039 #0.000000
v 0.835449 3.876221 -0.837891 0.498039 0.498039 0.498039 #0.000000
v 0.835449 3.876221 -0.837891 0.498039 0.498039 0.498039 #0.000000
v 0.554932 3.090332 -0.983154 0.498039 0.498039 0.498039 #0.000000
v 0.172852 3.195068 -1.123535 0.498039 0.498039 0.498039 #0.000000
v 0.144287 0.895752 0.364502 0.498039 0.498039 0.498039 #0.000000
v 0.827148 1.020020 -0.265869 0.498039 0.498039 0.498039 #0.000000
v 0.587646 0.911377 -0.690430 0.498039 0.498039 0.498039 #0.000000
v 0.142090 4.519775 -1.886719 0.498039 0.498039 0.498039 #0.000000
v 1.183838 2.837891 -0.779297 0.498039 0.498039 0.498039 #0.000000
v 0.133789 3.197998 -1.139160 0.498039 0.498039 0.498039 #0.000000
v 0.133545 3.197754 -1.137939 0.498039 0.498039 0.498039 #0.000000
v 1.181885 2.836914 -0.777100 0.498039 0.498039 0.498039 #0.000000
v 0.142090 4.518066 -1.884766 0.498039 0.498039 0.498039 #0.000000
v 1.183838 2.837891 -0.779297 0.498039 0.498039 0.498039 #0.000000
v 0.133789 3.197998 -1.139160 0.498039 0.498039 0.498039 #0.000000
v 0.136719 3.933105 -0.278564 0.498039 0.498039 0.498039 #0.000000
v 0.495850 1.045410 -0.846436 0.498039 0.498039 0.498039 #0.000000
v 0.801514 1.136475 -0.442871 0.498039 0.498039 0.498039 #0.000000
v 0.139893 0.998779 -0.079834 0.498039 0.498039 0.498039 #0.000000
v 0.136719 2.889160 1.368896 0.498039 0.498039 0.498039 #0.000000
v 0.143311 1.862061 1.299072 0.498039 0.498039 0.498039 #0.000000
v 1.111084 3.173096 1.016846 0.498039 0.498039 0.498039 #0.000000
v 0.136719 2.889160 1.368896 0.498039 0.498039 0.498039 #0.000000
v 1.111084 3.173096 1.016846 0.498039 0.498039 0.498039 #0.000000
v 0.137207 3.760498 0.793701 0.498039 0.498039 0.498039 #0.000000
v 1.006104 3.759033 0.054688 0.498039 0.498039 0.498039 #0.000000
v 0.136719 3.933105 -0.278564 0.498039 0.498039 0.498039 #0.000000
v 0.137207 3.760498 0.793701 0.498039 0.498039 0.498039 #0.000000
v 0.340820 4.658691 -1.004150 0.498039 0.498039 0.498039 #0.000000
v 0.835449 3.876221 -0.837891 0.498039 0.498039 0.498039 #0.000000
v 0.093994 4.017090 -0.989990 0.498039 0.498039 0.498039 #0.000000
v 0.093994 4.017090 -0.989990 0.498039 0.498039 0.498039 #0.000000
v 0.835449 3.876221 -0.837891 0.498039 0.498039 0.498039 #0.000000
v 0.340820 4.658691 -1.004150 0.498039 0.498039 0.498039 #0.000000
v 0.908447 0.062744 -0.771973 0.498039 0.498039 0.498039 #0.000000
v 0.144287 0.058105 -0.942627 0.498039 0.498039 0.498039 #0.000000
v 0.144287 0.818359 -0.874756 0.498039 0.498039 0.498039 #0.000000
v 0.093994 4.017090 -0.989990 0.498039 0.498039 0.498039 #0.000000
v 0.835449 3.876221 -0.837891 0.498039 0.498039 0.498039 #0.000000
v 0.172852 3.195068 -1.123535 0.498039 0.498039 0.498039 #0.000000
v 0.172852 3.195068 -1.123535 0.498039 0.498039 0.498039 #0.000000
v 0.835449 3.876221 -0.837891 0.498039 0.498039 0.498039 #0.000000
v 0.093994 4.017090 -0.989990 0.498039 0.498039 0.498039 #0.000000
v 0.801514 1.136475 -0.442871 0.498039 0.498039 0.498039 #0.000000
v 0.144287 1.595459 0.862549 0.498039 0.498039 0.498039 #0.000000
v 0.139893 0.998779 -0.079834 0.498039 0.498039 0.498039 #0.000000
v 0.695801 0.931885 0.143799 0.498039 0.498039 0.498039 #0.000000
v 0.144287 0.895752 0.364502 0.498039 0.498039 0.498039 #0.000000
v 0.144287 0.223877 0.772217 0.498039 0.498039 0.498039 #0.000000
v 0.148926 0.788818 0.924561 0.498039 0.498039 0.498039 #0.000000
v 0.659668 1.219238 0.779541 0.498039 0.498039 0.498039 #0.000000
v 0.143311 1.862061 1.299072 0.498039 0.498039 0.498039 #0.000000
v 0.143311 1.863037 1.093506 0.498039 0.498039 0.498039 #0.000000
v 0.648193 1.219727 0.768555 0.498039 0.498039 0.498039 #0.000000
v 0.149170 0.789795 0.924072 0.498039 0.498039 0.498039 #0.000000
v -0.315186 1.271729 -1.069092 0.498039 0.498039 0.498039 #0.000000
v 0.633301 2.667725 -1.112305 0.498039 0.498039 0.498039 #0.000000
v 0.603760 1.271729 -1.069092 0.498039 0.498039 0.498039 #0.000000
v 0.374268 1.094971 -0.234131 0.498039 0.498039 0.498039 #0.000000
v 0.144287 0.852783 0.043945 0.498039 0.498039 0.498039 #0.000000
v 0.389648 0.819580 -0.219238 0.498039 0.498039 0.498039 #0.000000
v 0.144287 1.025879 -0.482666 0.498039 0.498039 0.498039 #0.000000
v 0.374268 1.094971 -0.234131 0.498039 0.498039 0.498039 #0.000000
v 0.389648 0.819580 -0.219238 0.498039 0.498039 0.498039 #0.000000
v 0.144287 0.895752 0.364502 0.498039 0.498039 0.498039 #0.000000
v 0.587646 0.911377 -0.690430 0.498039 0.498039 0.498039 #0.000000
v 0.144287 0.818359 -0.874756 0.498039 0.498039 0.498039 #0.000000
v 0.495850 1.045410 -0.846436 0.498039 0.498039 0.498039 #0.000000
v -0.315186 1.271729 -1.069092 0.498039 0.498039 0.498039 #0.000000
v 0.603760 1.271729 -1.069092 0.498039 0.498039 0.498039 #0.000000
v 0.144287 0.772949 -0.478516 0.498039 0.498039 0.498039 #0.000000
v 0.144287 1.025879 -0.482666 0.498039 0.498039 0.498039 #0.000000
v 0.389648 0.819580 -0.219238 0.498039 0.498039 0.498039 #0.000000
v 0.144287 1.124023 0.017578 0.498039 0.498039 0.498039 #0.000000
v 0.144287 0.852783 0.043945 0.498039 0.498039 0.498039 #0.000000
v 0.374268 1.094971 -0.234131 0.498039 0.498039 0.498039 #0.000000
v 0.512939 2.594727 -1.364746 0.498039 0.498039 0.498039 #0.000000
v -0.112305 2.655762 -1.357178 0.498039 0.498039 0.498039 #0.000000
v 0.133789 3.197998 -1.139160 0.498039 0.498039 0.498039 #0.000000
v -0.207275 1.045410 -0.846436 0.498039 0.498039 0.498039 #0.000000
v 0.495850 1.045410 -0.846436 0.498039 0.498039 0.498039 #0.000000
v 0.139893 0.998779 -0.079834 0.498039 0.498039 0.498039 #0.000000
v 0.144287 0.852783 0.043945 0.498039 0.498039 0.498039 #0.000000
v 0.144287 1.124023 0.017578 0.498039 0.498039 0.498039 #0.000000
v -0.085449 1.094971 -0.234131 0.498039 0.498039 0.498039 #0.000000
v 0.512939 2.594727 -1.364746 0.498039 0.498039 0.498039 #0.000000
v -0.201904 1.740479 -1.337402 0.498039 0.498039 0.498039 #0.000000
v -0.112305 2.655762 -1.357178 0.498039 0.498039 0.498039 #0.000000
v 0.144287 1.025879 -0.482666 0.498039 0.498039 0.498039 #0.000000
v 0.144287 0.772949 -0.478516 0.498039 0.498039 0.498039 #0.000000
v -0.101074 0.819580 -0.219238 0.498039 0.498039 0.498039 #0.000000
v 0.633301 2.667725 -1.112305 0.498039 0.498039 0.498039 #0.000000
v -0.315186 1.271729 -1.069092 0.498039 0.498039 0.498039 #0.000000
v -0.344482 2.667725 -1.112305 0.498039 0.498039 0.498039 #0.000000
v 0.495850 1.045410 -0.846436 0.498039 0.498039 0.498039 #0.000000
v -0.207275 1.045410 -0.846436 0.498039 0.498039 0.498039 #0.000000
v -0.315186 1.271729 -1.069092 0.498039 0.498039 0.498039 #0.000000
v 0.143311 1.863037 1.093506 0.498039 0.498039 0.498039 #0.000000
v 0.149170 0.789795 0.924072 0.498039 0.498039 0.498039 #0.000000
v -0.329346 1.217285 0.776123 0.498039 0.498039 0.498039 #0.000000
v -0.329834 1.216797 0.786865 0.498039 0.498039 0.498039 #0.000000
v 0.148926 0.788818 0.924561 0.498039 0.498039 0.498039 #0.000000
v 0.143311 1.862061 1.299072 0.498039 0.498039 0.498039 #0.000000
v -0.085449 1.094971 -0.234131 0.498039 0.498039 0.498039 #0.000000
v 0.144287 1.025879 -0.482666 0.498039 0.498039 0.498039 #0.000000
v -0.101074 0.819580 -0.219238 0.498039 0.498039 0.498039 #0.000000
v 0.144287 0.852783 0.043945 0.498039 0.498039 0.498039 #0.000000
v -0.085449 1.094971 -0.234131 0.498039 0.498039 0.498039 #0.000000
v -0.101074 0.819580 -0.219238 0.498039 0.498039 0.498039 #0.000000
v 0.144287 0.895752 0.364502 0.498039 0.498039 0.498039 #0.000000
v -0.406738 0.931885 0.143799 0.498039 0.498039 0.498039 #0.000000
v 0.144287 0.223877 0.772217 0.498039 0.498039 0.498039 #0.000000
v 0.144287 1.595459 0.862549 0.498039 0.498039 0.498039 #0.000000
v -0.512939 1.136475 -0.442871 0.498039 0.498039 0.498039 #0.000000
v 0.148682 0.998779 -0.079834 0.498039 0.498039 0.498039 #0.000000
v -0.538086 0.974609 -0.265869 0.498039 0.498039 0.498039 #0.000000
v 0.144287 0.895752 0.364502 0.498039 0.498039 0.498039 #0.000000
v 0.144287 0.818359 -0.874756 0.498039 0.498039 0.498039 #0.000000
v -0.234131 0.757813 -0.615234 0.498039 0.498039 0.498039 #0.000000
v 0.020996 0.483398 -0.811523 0.498039 0.498039 0.498039 #0.000000
v -0.161621 0.525391 -1.030029 0.498039 0.498039 0.498039 #0.000000
v 0.136719 3.933105 -0.278564 0.498039 0.498039 0.498039 #0.000000
v -0.703125 3.759033 0.054932 0.498039 0.498039 0.498039 #0.000000
v 0.137207 3.760498 0.793701 0.498039 0.498039 0.498039 #0.000000
v 0.136719 3.933105 -0.278564 0.498039 0.498039 0.498039 #0.000000
v 0.133789 3.197998 -1.139160 0.498039 0.498039 0.498039 #0.000000
v -0.703125 3.759033 0.054932 0.498039 0.498039 0.498039 #0.000000
v 0.133789 3.197998 -1.139160 0.498039 0.498039 0.498039 #0.000000
v -0.112305 2.655762 -1.357178 0.498039 0.498039 0.498039 #0.000000
v -0.471680 2.623291 -1.256348 0.498039 0.498039 0.498039 #0.000000
v -0.234131 0.757813 -0.615234 0.498039 0.498039 0.498039 #0.000000
v -0.245605 0.168457 -0.718506 0.498039 0.498039 0.498039 #0.000000
v 0.020996 0.483398 -0.811523 0.498039 0.498039 0.498039 #0.000000
v -0.161621 0.525391 -1.030029 0.498039 0.498039 0.498039 #0.000000
v 0.020996 0.483398 -0.811523 0.498039 0.498039 0.498039 #0.000000
v -0.383057 0.264404 -0.953125 0.498039 0.498039 0.498039 #0.000000
v -0.802979 3.173096 1.016846 0.498039 0.498039 0.498039 #0.000000
v 0.136719 2.889160 1.368896 0.498039 0.498039 0.498039 #0.000000
v 0.137207 3.760498 0.793701 0.498039 0.498039 0.498039 #0.000000
v -0.512939 1.136475 -0.442871 0.498039 0.498039 0.498039 #0.000000
v -0.207275 1.045410 -0.846436 0.498039 0.498039 0.498039 #0.000000
v 0.148682 0.998779 -0.079834 0.498039 0.498039 0.498039 #0.000000
v 0.020996 0.483398 -0.811523 0.498039 0.498039 0.498039 #0.000000
v -0.245605 0.168457 -0.718506 0.498039 0.498039 0.498039 #0.000000
v -0.383057 0.264404 -0.953125 0.498039 0.498039 0.498039 #0.000000
v 0.144287 0.058105 -0.942627 0.498039 0.498039 0.498039 #0.000000
v -0.962646 0.259033 -0.277100 0.498039 0.498039 0.498039 #0.000000
v 0.144287 0.818359 -0.874756 0.498039 0.498039 0.498039 #0.000000
v -0.981201 2.145508 0.743652 0.498039 0.498039 0.498039 #0.000000
v 0.143311 1.862061 1.299072 0.498039 0.498039 0.498039 #0.000000
v 0.136719 2.889160 1.368896 0.498039 0.498039 0.498039 #0.000000
v -0.314697 1.045166 -0.741699 0.498039 0.498039 0.498039 #0.000000
v -0.241699 0.491943 -1.122314 0.498039 0.498039 0.498039 #0.000000
v -0.210449 0.491943 -1.285156 0.498039 0.498039 0.498039 #0.000000
v -0.210449 0.491943 -1.285156 0.498039 0.498039 0.498039 #0.000000
v -0.241699 0.491943 -1.122314 0.498039 0.498039 0.498039 #0.000000
v -0.314697 0.104492 -0.741699 0.498039 0.498039 0.498039 #0.000000
v -0.373291 0.752686 -0.867432 0.498039 0.498039 0.498039 #0.000000
v -0.234131 0.757813 -0.615234 0.498039 0.498039 0.498039 #0.000000
v -0.161621 0.525391 -1.030029 0.498039 0.498039 0.498039 #0.000000
v -0.211914 0.491943 -1.285156 0.498039 0.498039 0.498039 #0.000000
v -0.316162 0.104492 -0.741699 0.498039 0.498039 0.498039 #0.000000
v -0.243164 0.491943 -1.122314 0.498039 0.498039 0.498039 #0.000000
v -0.316162 1.045166 -0.741699 0.498039 0.498039 0.498039 #0.000000
v -0.211914 0.491943 -1.285156 0.498039 0.498039 0.498039 #0.000000
v -0.243164 0.491943 -1.122314 0.498039 0.498039 0.498039 #0.000000
v -0.406738 0.931885 0.143799 0.498039 0.498039 0.498039 #0.000000
v 0.144287 0.895752 0.364502 0.498039 0.498039 0.498039 #0.000000
v -0.538086 0.974609 -0.265869 0.498039 0.498039 0.498039 #0.000000
v -0.210449 0.491943 -1.285156 0.498039 0.498039 0.498039 #0.000000
v -0.314697 0.104492 -0.741699 0.498039 0.498039 0.498039 #0.000000
v -0.314697 -0.061035 -0.741699 0.498039 0.498039 0.498039 #0.000000
v -0.211914 0.491943 -1.285156 0.498039 0.498039 0.498039 #0.000000
v -0.316162 -0.061035 -0.741699 0.498039 0.498039 0.498039 #0.000000
v -0.316162 0.104492 -0.741699 0.498039 0.498039 0.498039 #0.000000
v -0.314697 1.045166 -0.741699 0.498039 0.498039 0.498039 #0.000000
v -0.314697 0.879395 -0.741699 0.498039 0.498039 0.498039 #0.000000
v -0.241699 0.491943 -1.122314 0.498039 0.498039 0.498039 #0.000000
v -0.316162 1.045166 -0.741699 0.498039 0.498039 0.498039 #0.000000
v -0.243164 0.491943 -1.122314 0.498039 0.498039 0.498039 #0.000000
v -0.316162 0.879395 -0.741699 0.498039 0.498039 0.498039 #0.000000
v -0.406738 0.931885 0.143799 0.498039 0.498039 0.498039 #0.000000
v -0.669922 0.328857 0.476074 0.498039 0.498039 0.498039 #0.000000
v 0.144287 0.223877 0.772217 0.498039 0.498039 0.498039 #0.000000
v 0.143311 1.863037 1.093506 0.498039 0.498039 0.498039 #0.000000
v -0.329346 1.217285 0.776123 0.498039 0.498039 0.498039 #0.000000
v -0.775146 2.374268 0.623779 0.498039 0.498039 0.498039 #0.000000
v -0.234131 0.757813 -0.615234 0.498039 0.498039 0.498039 #0.000000
v -0.501221 0.442871 -0.522217 0.498039 0.498039 0.498039 #0.000000
v -0.245605 0.168457 -0.718506 0.498039 0.498039 0.498039 #0.000000
v -0.314697 -0.061035 -0.741699 0.498039 0.498039 0.498039 #0.000000
v -0.314697 0.104492 -0.741699 0.498039 0.498039 0.498039 #0.000000
v -0.387695 0.491943 -0.361328 0.498039 0.498039 0.498039 #0.000000
v -0.316162 -0.061035 -0.741699 0.498039 0.498039 0.498039 #0.000000
v -0.389160 0.491943 -0.361328 0.498039 0.498039 0.498039 #0.000000
v -0.316162 0.104492 -0.741699 0.498039 0.498039 0.498039 #0.000000
v -0.418945 0.491943 -0.198486 0.498039 0.498039 0.498039 #0.000000
v -0.314697 0.879395 -0.741699 0.498039 0.498039 0.498039 #0.000000
v -0.314697 1.045166 -0.741699 0.498039 0.498039 0.498039 #0.000000
v -0.112305 2.655762 -1.357178 0.498039 0.498039 0.498039 #0.000000
v -0.467041 1.937988 -1.303223 0.498039 0.498039 0.498039 #0.000000
v -0.471680 2.623291 -1.256348 0.498039 0.498039 0.498039 #0.000000
v -0.420410 0.491943 -0.198486 0.498039 0.498039 0.498039 #0.000000
v -0.316162 1.045166 -0.741699 0.498039 0.498039 0.498039 #0.000000
v -0.316162 0.879395 -0.741699 0.498039 0.498039 0.498039 #0.000000
v -0.712646 1.344971 -0.304199 0.498039 0.498039 0.498039 #0.000000
v -0.512939 1.136475 -0.442871 0.498039 0.498039 0.498039 #0.000000
v 0.144287 1.595459 0.862549 0.498039 0.498039 0.498039 #0.000000
v -0.501221 0.442871 -0.522217 0.498039 0.498039 0.498039 #0.000000
v -0.234131 0.757813 -0.615234 0.498039 0.498039 0.498039 #0.000000
v -0.373291 0.752686 -0.867432 0.498039 0.498039 0.498039 #0.000000
v -0.314697 -0.061035 -0.741699 0.498039 0.498039 0.498039 #0.000000
v -0.387695 0.491943 -0.361328 0.498039 0.498039 0.498039 #0.000000
v -0.418945 0.491943 -0.198486 0.498039 0.498039 0.498039 #0.000000
v -0.418945 0.491943 -0.198486 0.498039 0.498039 0.498039 #0.000000
v -0.387695 0.491943 -0.361328 0.498039 0.498039 0.498039 #0.000000
v -0.314697 0.879395 -0.741699 0.498039 0.498039 0.498039 #0.000000
v -1.416016 2.493408 1.631592 0.498039 0.498039 0.498039 #0.000000
v 0.148926 2.122559 2.074219 0.498039 0.498039 0.498039 #0.000000
v 0.143311 1.863037 1.093506 0.498039 0.498039 0.498039 #0.000000
v 0.143311 1.862061 1.299072 0.498039 0.498039 0.498039 #0.000000
v 0.148926 2.121826 2.076172 0.498039 0.498039 0.498039 #0.000000
v -1.417480 2.492920 1.633057 0.498039 0.498039 0.498039 #0.000000
v -0.316162 -0.061035 -0.741699 0.498039 0.498039 0.498039 #0.000000
v -0.420410 0.491943 -0.198486 0.498039 0.498039 0.498039 #0.000000
v -0.389160 0.491943 -0.361328 0.498039 0.498039 0.498039 #0.000000
v -0.420410 0.491943 -0.198486 0.498039 0.498039 0.498039 #0.000000
v -0.316162 0.879395 -0.741699 0.498039 0.498039 0.498039 #0.000000
v -0.389160 0.491943 -0.361328 0.498039 0.498039 0.498039 #0.000000
v -0.207275 1.045410 -0.846436 0.498039 0.498039 0.498039 #0.000000
v -0.605225 1.323242 -0.792725 0.498039 0.498039 0.498039 #0.000000
v -0.315186 1.271729 -1.069092 0.498039 0.498039 0.498039 #0.000000
v -0.594482 0.491943 -0.790527 0.498039 0.498039 0.498039 #0.000000
v -0.373291 0.752686 -0.867432 0.498039 0.498039 0.498039 #0.000000
v -0.161621 0.525391 -1.030029 0.498039 0.498039 0.498039 #0.000000
v -0.383057 0.264404 -0.953125 0.498039 0.498039 0.498039 #0.000000
v -0.594482 0.491943 -0.790527 0.498039 0.498039 0.498039 #0.000000
v -0.161621 0.525391 -1.030029 0.498039 0.498039 0.498039 #0.000000
v -0.981201 2.145508 0.743652 0.498039 0.498039 0.498039 #0.000000
v -0.329834 1.216797 0.786865 0.498039 0.498039 0.498039 #0.000000
v 0.143311 1.862061 1.299072 0.498039 0.498039 0.498039 #0.000000
v -0.383057 0.264404 -0.953125 0.498039 0.498039 0.498039 #0.000000
v -0.245605 0.168457 -0.718506 0.498039 0.498039 0.498039 #0.000000
v -0.594482 0.491943 -0.790527 0.498039 0.498039 0.498039 #0.000000
v 0.133789 3.197998 -1.139160 0.498039 0.498039 0.498039 #0.000000
v -0.471680 2.623291 -1.256348 0.498039 0.498039 0.498039 #0.000000
v -0.905518 2.917480 -0.717773 0.498039 0.498039 0.498039 #0.000000
v -0.207275 1.045410 -0.846436 0.498039 0.498039 0.498039 #0.000000
v -0.512939 1.136475 -0.442871 0.498039 0.498039 0.498039 #0.000000
v -0.605225 1.323242 -0.792725 0.498039 0.498039 0.498039 #0.000000
v -0.245605 0.168457 -0.718506 0.498039 0.498039 0.498039 #0.000000
v -0.501221 0.442871 -0.522217 0.498039 0.498039 0.498039 #0.000000
v -0.594482 0.491943 -0.790527 0.498039 0.498039 0.498039 #0.000000
v 0.144287 0.818359 -0.874756 0.498039 0.498039 0.498039 #0.000000
v -0.962646 0.259033 -0.277100 0.498039 0.498039 0.498039 #0.000000
v -0.538086 0.974609 -0.265869 0.498039 0.498039 0.498039 #0.000000
v -0.703125 3.759033 0.054932 0.498039 0.498039 0.498039 #0.000000
v -0.802979 3.173096 1.016846 0.498039 0.498039 0.498039 #0.000000
v 0.137207 3.760498 0.793701 0.498039 0.498039 0.498039 #0.000000
v -0.344482 2.667725 -1.112305 0.498039 0.498039 0.498039 #0.000000
v -0.315186 1.271729 -1.069092 0.498039 0.498039 0.498039 #0.000000
v -0.768799 2.656738 -0.720459 0.498039 0.498039 0.498039 #0.000000
v -0.329346 1.217285 0.776123 0.498039 0.498039 0.498039 #0.000000
v -0.327148 0.727539 0.627441 0.498039 0.498039 0.498039 #0.000000
v -0.775146 2.374268 0.623779 0.498039 0.498039 0.498039 #0.000000
v -0.805664 1.254395 0.431396 0.498039 0.498039 0.498039 #0.000000
v -0.327637 0.726563 0.627686 0.498039 0.498039 0.498039 #0.000000
v -0.329834 1.216797 0.786865 0.498039 0.498039 0.498039 #0.000000
v -0.594482 0.491943 -0.790527 0.498039 0.498039 0.498039 #0.000000
v -0.501221 0.442871 -0.522217 0.498039 0.498039 0.498039 #0.000000
v -0.373291 0.752686 -0.867432 0.498039 0.498039 0.498039 #0.000000
v 0.133789 3.197998 -1.139160 0.498039 0.498039 0.498039 #0.000000
v -0.905518 2.917480 -0.717773 0.498039 0.498039 0.498039 #0.000000
v -0.703125 3.759033 0.054932 0.498039 0.498039 0.498039 #0.000000
v 0.142090 4.518066 -1.884766 0.498039 0.498039 0.498039 #0.000000
v -1.807861 4.443848 -1.285645 0.498039 0.498039 0.498039 #0.000000
v 0.133545 3.197754 -1.137939 0.498039 0.498039 0.498039 #0.000000
v 0.133789 3.197998 -1.139160 0.498039 0.498039 0.498039 #0.000000
v -1.809814 4.445313 -1.286865 0.498039 0.498039 0.498039 #0.000000
v 0.142090 4.519775 -1.886719 0.498039 0.498039 0.498039 #0.000000
v -0.406738 0.931885 0.143799 0.498039 0.498039 0.498039 #0.000000
v -0.538086 0.974609 -0.265869 0.498039 0.498039 0.498039 #0.000000
v -0.669922 0.328857 0.476074 0.498039 0.498039 0.498039 #0.000000
v -0.802979 3.173096 1.016846 0.498039 0.498039 0.498039 #0.000000
v -0.981201 2.145508 0.743652 0.498039 0.498039 0.498039 #0.000000
v 0.136719 2.889160 1.368896 0.498039 0.498039 0.498039 #0.000000
v -0.768799 2.656738 -0.720459 0.498039 0.498039 0.498039 #0.000000
v -0.315186 1.271729 -1.069092 0.498039 0.498039 0.498039 #0.000000
v -0.605225 1.323242 -0.792725 0.498039 0.498039 0.498039 #0.000000
v -0.605225 1.323242 -0.792725 0.498039 0.498039 0.498039 #0.000000
v -0.512939 1.136475 -0.442871 0.498039 0.498039 0.498039 #0.000000
v -0.712646 1.344971 -0.304199 0.498039 0.498039 0.498039 #0.000000
v -0.327148 0.727539 0.627441 0.498039 0.498039 0.498039 #0.000000
v -0.804443 1.254883 0.431152 0.498039 0.498039 0.498039 #0.000000
v -0.775146 2.374268 0.623779 0.498039 0.498039 0.498039 #0.000000
v 0.143311 1.863037 1.093506 0.498039 0.498039 0.498039 #0.000000
v -0.775146 2.374268 0.623779 0.498039 0.498039 0.498039 #0.000000
v -1.416016 2.493408 1.631592 0.498039 0.498039 0.498039 #0.000000
v -0.804443 1.254883 0.431152 0.498039 0.498039 0.498039 #0.000000
v -0.550293 0.913574 0.172119 0.498039 0.498039 0.498039 #0.000000
v -0.711426 1.348633 -0.281250 0.498039 0.498039 0.498039 #0.000000
v -0.712402 1.348145 -0.281738 0.498039 0.498039 0.498039 #0.000000
v -0.551270 0.912598 0.171875 0.498039 0.498039 0.498039 #0.000000
v -0.805664 1.254395 0.431396 0.498039 0.498039 0.498039 #0.000000
v -0.712646 1.344971 -0.304199 0.498039 0.498039 0.498039 #0.000000
v -0.768799 2.656738 -0.720459 0.498039 0.498039 0.498039 #0.000000
v -0.605225 1.323242 -0.792725 0.498039 0.498039 0.498039 #0.000000
v -0.981201 2.145508 0.743652 0.498039 0.498039 0.498039 #0.000000
v -0.805664 1.254395 0.431396 0.498039 0.498039 0.498039 #0.000000
v -0.329834 1.216797 0.786865 0.498039 0.498039 0.498039 #0.000000
v -0.538086 0.974609 -0.265869 0.498039 0.498039 0.498039 #0.000000
v -0.962646 0.259033 -0.277100 0.498039 0.498039 0.498039 #0.000000
v -0.669922 0.328857 0.476074 0.498039 0.498039 0.498039 #0.000000
v -0.853760 1.959473 -1.147705 0.498039 0.498039 0.498039 #0.000000
v -0.867188 2.516113 -0.954346 0.498039 0.498039 0.498039 #0.000000
v -0.471680 2.623291 -1.256348 0.498039 0.498039 0.498039 #0.000000
v -1.184326 0.337402 -0.727539 0.498039 0.498039 0.498039 #0.000000
v -0.139160 0.296631 -0.625488 0.498039 0.498039 0.498039 #0.000000
v -0.887939 0.817871 -0.612061 0.498039 0.498039 0.498039 #0.000000
v -0.887939 0.817871 -0.612061 0.498039 0.498039 0.498039 #0.000000
v -0.139160 0.296631 -0.625488 0.498039 0.498039 0.498039 #0.000000
v -1.184326 0.337402 -0.727539 0.498039 0.498039 0.498039 #0.000000
v -0.471680 2.623291 -1.256348 0.498039 0.498039 0.498039 #0.000000
v -0.867188 2.516113 -0.954346 0.498039 0.498039 0.498039 #0.000000
v -0.905518 2.917480 -0.717773 0.498039 0.498039 0.498039 #0.000000
v -1.417480 2.492920 1.633057 0.498039 0.498039 0.498039 #0.000000
v -0.981201 2.145508 0.743652 0.498039 0.498039 0.498039 #0.000000
v 0.143311 1.862061 1.299072 0.498039 0.498039 0.498039 #0.000000
v -0.703125 3.759033 0.054932 0.498039 0.498039 0.498039 #0.000000
v -0.905518 2.917480 -0.717773 0.498039 0.498039 0.498039 #0.000000
v -0.802979 3.173096 1.016846 0.498039 0.498039 0.498039 #0.000000
v -0.712646 1.344971 -0.304199 0.498039 0.498039 0.498039 #0.000000
v -0.935059 2.337158 0.165283 0.498039 0.498039 0.498039 #0.000000
v -0.768799 2.656738 -0.720459 0.498039 0.498039 0.498039 #0.000000
v -0.804443 1.254883 0.431152 0.498039 0.498039 0.498039 #0.000000
v -0.711426 1.348633 -0.281250 0.498039 0.498039 0.498039 #0.000000
v -1.020020 1.961914 0.113525 0.498039 0.498039 0.498039 #0.000000
v -1.021484 1.962158 0.113281 0.498039 0.498039 0.498039 #0.000000
v -0.712402 1.348145 -0.281738 0.498039 0.498039 0.498039 #0.000000
v -0.805664 1.254395 0.431396 0.498039 0.498039 0.498039 #0.000000
v -0.903320 2.916504 -0.715820 0.498039 0.498039 0.498039 #0.000000
v 0.133545 3.197754 -1.137939 0.498039 0.498039 0.498039 #0.000000
v -1.807861 4.443848 -1.285645 0.498039 0.498039 0.498039 #0.000000
v -1.809814 4.445313 -1.286865 0.498039 0.498039 0.498039 #0.000000
v 0.133789 3.197998 -1.139160 0.498039 0.498039 0.498039 #0.000000
v -0.905518 2.917480 -0.717773 0.498039 0.498039 0.498039 #0.000000
v -0.775146 2.374268 0.623779 0.498039 0.498039 0.498039 #0.000000
v -0.804443 1.254883 0.431152 0.498039 0.498039 0.498039 #0.000000
v -1.020020 1.961914 0.113525 0.498039 0.498039 0.498039 #0.000000
v -0.712646 1.344971 -0.308838 0.498039 0.498039 0.498039 #0.000000
v -1.104004 1.532227 0.006348 0.498039 0.498039 0.498039 #0.000000
v -0.825684 1.950439 -0.034912 0.498039 0.498039 0.498039 #0.000000
v -0.825684 1.950439 -0.030273 0.498039 0.498039 0.498039 #0.000000
v -1.104004 1.532227 0.006348 0.498039 0.498039 0.498039 #0.000000
v -0.712646 1.344971 -0.304199 0.498039 0.498039 0.498039 #0.000000
v -0.905518 2.917480 -0.717773 0.498039 0.498039 0.498039 #0.000000
v -0.981201 2.145508 0.743652 0.498039 0.498039 0.498039 #0.000000
v -0.802979 3.173096 1.016846 0.498039 0.498039 0.498039 #0.000000
v -0.903320 2.916504 -0.715820 0.498039 0.498039 0.498039 #0.000000
v -0.775146 2.374268 0.623779 0.498039 0.498039 0.498039 #0.000000
v -1.041504 2.339355 -0.531738 0.498039 0.498039 0.498039 #0.000000
v -1.021484 1.962158 0.113281 0.498039 0.498039 0.498039 #0.000000
v -0.805664 1.254395 0.431396 0.498039 0.498039 0.498039 #0.000000
v -0.981201 2.145508 0.743652 0.498039 0.498039 0.498039 #0.000000
v -1.042725 2.340088 -0.532471 0.498039 0.498039 0.498039 #0.000000
v -0.905518 2.917480 -0.717773 0.498039 0.498039 0.498039 #0.000000
v -0.867188 2.516113 -0.954346 0.498039 0.498039 0.498039 #0.000000
v -1.041504 2.339355 -0.531738 0.498039 0.498039 0.498039 #0.000000
v -0.775146 2.374268 0.623779 0.498039 0.498039 0.498039 #0.000000
v -1.020020 1.961914 0.113525 0.498039 0.498039 0.498039 #0.000000
v -1.042725 2.340088 -0.532471 0.498039 0.498039 0.498039 #0.000000
v -0.867188 2.516113 -0.954346 0.498039 0.498039 0.498039 #0.000000
v -0.928955 1.874756 -1.056396 0.498039 0.498039 0.498039 #0.000000
v -1.042725 2.340088 -0.532471 0.498039 0.498039 0.498039 #0.000000
v -0.981201 2.145508 0.743652 0.498039 0.498039 0.498039 #0.000000
v -0.905518 2.917480 -0.717773 0.498039 0.498039 0.498039 #0.000000
v -1.063721 1.835693 0.095215 0.498039 0.498039 0.498039 #0.000000
v -0.825684 1.950439 -0.034912 0.498039 0.498039 0.498039 #0.000000
v -1.104004 1.532227 0.006348 0.498039 0.498039 0.498039 #0.000000
v -1.063721 1.835693 0.095215 0.498039 0.498039 0.498039 #0.000000
v -1.104004 1.532227 0.006348 0.498039 0.498039 0.498039 #0.000000
v -0.825684 1.950439 -0.030273 0.498039 0.498039 0.498039 #0.000000
v -1.021484 1.962158 0.113281 0.498039 0.498039 0.498039 #0.000000
v -0.981201 2.145508 0.743652 0.498039 0.498039 0.498039 #0.000000
v -1.042725 2.340088 -0.532471 0.498039 0.498039 0.498039 #0.000000
v -1.020020 1.961914 0.113525 0.498039 0.498039 0.498039 #0.000000
v -1.026367 1.643311 -0.525146 0.498039 0.498039 0.498039 #0.000000
v -1.041504 2.339355 -0.531738 0.498039 0.498039 0.498039 #0.000000
v -1.042725 2.340088 -0.532471 0.498039 0.498039 0.498039 #0.000000
v -1.027832 1.643066 -0.526123 0.498039 0.498039 0.498039 #0.000000
v -1.021484 1.962158 0.113281 0.498039 0.498039 0.498039 #0.000000
v -0.887939 0.817871 -0.612061 0.498039 0.498039 0.498039 #0.000000
v -1.505615 0.885498 -0.628418 0.498039 0.498039 0.498039 #0.000000
v -1.184326 0.337402 -0.727539 0.498039 0.498039 0.498039 #0.000000
v -1.184326 0.337402 -0.727539 0.498039 0.498039 0.498039 #0.000000
v -1.505615 0.885498 -0.628418 0.498039 0.498039 0.498039 #0.000000
v -0.887939 0.817871 -0.612061 0.498039 0.498039 0.498039 #0.000000
v -0.775146 2.374268 0.623779 0.498039 0.498039 0.498039 #0.000000
v -0.903320 2.916504 -0.715820 0.498039 0.498039 0.498039 #0.000000
v -2.261230 3.498779 0.069092 0.498039 0.498039 0.498039 #0.000000
v -2.263672 3.499268 0.069092 0.498039 0.498039 0.498039 #0.000000
v -0.905518 2.917480 -0.717773 0.498039 0.498039 0.498039 #0.000000
v -0.981201 2.145508 0.743652 0.498039 0.498039 0.498039 #0.000000
v -2.261230 3.498779 0.069092 0.498039 0.498039 0.498039 #0.000000
v -1.416016 2.493408 1.631592 0.498039 0.498039 0.498039 #0.000000
v -0.775146 2.374268 0.623779 0.498039 0.498039 0.498039 #0.000000
v -0.981201 2.145508 0.743652 0.498039 0.498039 0.498039 #0.000000
v -1.417480 2.492920 1.633057 0.498039 0.498039 0.498039 #0.000000
v -2.263672 3.499268 0.069092 0.498039 0.498039 0.498039 #0.000000
v -1.807861 4.443848 -1.285645 0.498039 0.498039 0.498039 #0.000000
v -2.261230 3.498779 0.069092 0.498039 0.498039 0.498039 #0.000000
v -0.903320 2.916504 -0.715820 0.498039 0.498039 0.498039 #0.000000
v -0.905518 2.917480 -0.717773 0.498039 0.498039 0.498039 #0.000000
v -2.263672 3.499268 0.069092 0.498039 0.498039 0.498039 #0.000000
v -1.809814 4.445313 -1.286865 0.498039 0.498039 0.498039 #0.000000
vt 0.258301 0.282227 0.000000
vt 0.248291 0.336426 0.000000
vt 0.200928 0.292725 0.000000
vt 0.200928 0.292725 0.000000
vt 0.248291 0.336426 0.000000
vt 0.258301 0.282227 0.000000
vt 0.251709 0.219238 0.000000
vt 0.258301 0.282227 0.000000
vt 0.140137 0.256836 0.000000
vt 0.140137 0.256836 0.000000
vt 0.258301 0.282227 0.000000
vt 0.251709 0.219238 0.000000
vt 0.140137 0.256836 0.000000
vt 0.200928 0.292725 0.000000
vt 0.258301 0.282227 0.000000
vt 0.258301 0.282227 0.000000
vt 0.200928 0.292725 0.000000
vt 0.140137 0.256836 0.000000
vt 0.757813 0.136719 0.000000
vt 0.593750 0.003906 0.000000
vt 0.812500 0.003906 0.000000
vt 0.251709 0.219238 0.000000
vt 0.140137 0.256836 0.000000
vt 0.194824 0.169434 0.000000
vt 0.194824 0.169434 0.000000
vt 0.140137 0.256836 0.000000
vt 0.251709 0.219238 0.000000
vt 0.417969 0.136719 0.000000
vt 0.371094 0.003906 0.000000
vt 0.593750 0.003906 0.000000
vt 0.593750 0.003906 0.000000
vt 0.371094 0.003906 0.000000
vt 0.417969 0.136719 0.000000
vt 0.812500 0.003906 0.000000
vt 0.593750 0.003906 0.000000
vt 0.757813 0.136719 0.000000
vt 0.593750 0.003906 0.000000
vt 0.757813 0.136719 0.000000
vt 0.417969 0.136719 0.000000
vt 0.417969 0.136719 0.000000
vt 0.757813 0.136719 0.000000
vt 0.593750 0.003906 0.000000
vt 0.089111 0.172607 0.000000
vt 0.194824 0.169434 0.000000
vt 0.140137 0.256836 0.000000
vt 0.140137 0.256836 0.000000
vt 0.194824 0.169434 0.000000
vt 0.089111 0.172607 0.000000
vt 0.554688 0.632813 0.000000
vt 0.496094 0.632813 0.000000
vt 0.496094 0.761719 0.000000
vt 0.683594 0.476563 0.000000
vt 0.667969 0.410156 0.000000
vt 0.617188 0.410156 0.000000
vt 0.568115 0.527344 0.000000
vt 0.359375 0.542969 0.000000
vt 0.460938 0.570313 0.000000
vt 0.359375 0.542969 0.000000
vt 0.568359 0.527344 0.000000
vt 0.589844 0.414063 0.000000
vt 0.568115 0.527344 0.000000
vt 0.460938 0.570313 0.000000
vt 0.558594 0.617188 0.000000
vt 0.558594 0.617188 0.000000
vt 0.460938 0.570313 0.000000
vt 0.568115 0.527344 0.000000
vt 0.460938 0.570313 0.000000
vt 0.359375 0.542969 0.000000
vt 0.568115 0.527344 0.000000
vt 0.589844 0.414063 0.000000
vt 0.568359 0.527344 0.000000
vt 0.359375 0.542969 0.000000
vt 0.460938 0.570313 0.000000
vt 0.359375 0.542969 0.000000
vt 0.378906 0.667969 0.000000
vt 0.496094 0.761719 0.000000
vt 0.609375 0.761719 0.000000
vt 0.554688 0.632813 0.000000
vt 0.683594 0.476563 0.000000
vt 0.617188 0.410156 0.000000
vt 0.609375 0.546875 0.000000
vt 0.996094 0.273438 0.000000
vt 0.929688 0.269531 0.000000
vt 0.950439 0.152344 0.000000
vt 0.292969 0.515625 0.000000
vt 0.113281 0.515625 0.000000
vt 0.113281 0.425781 0.000000
vt 0.292969 0.425781 0.000000
vt 0.292969 0.515625 0.000000
vt 0.113281 0.425781 0.000000
vt 0.996094 0.273438 0.000000
vt 0.941406 0.386719 0.000000
vt 0.929688 0.269531 0.000000
vt 0.378906 0.667969 0.000000
vt 0.359375 0.542969 0.000000
vt 0.460938 0.570313 0.000000
vt 0.554688 0.632813 0.000000
vt 0.609375 0.761719 0.000000
vt 0.707031 0.460938 0.000000
vt 0.480469 0.664063 0.000000
vt 0.460938 0.570313 0.000000
vt 0.378906 0.667969 0.000000
vt 0.378906 0.667969 0.000000
vt 0.460938 0.570313 0.000000
vt 0.480469 0.664063 0.000000
vt 0.812500 0.003906 0.000000
vt 0.968750 0.136719 0.000000
vt 0.757813 0.136719 0.000000
vt 0.570313 0.882080 0.000000
vt 0.648438 0.992188 0.000000
vt 0.519531 0.992188 0.000000
vt 0.417969 0.136719 0.000000
vt 0.171875 0.003906 0.000000
vt 0.371094 0.003906 0.000000
vt 0.371094 0.003906 0.000000
vt 0.171875 0.003906 0.000000
vt 0.417969 0.136719 0.000000
vt 0.484375 0.873047 0.000000
vt 0.519531 0.992188 0.000000
vt 0.429688 0.992188 0.000000
vt 0.757813 0.136719 0.000000
vt 0.968750 0.136719 0.000000
vt 0.812500 0.003906 0.000000
vt 0.707031 0.460938 0.000000
vt 0.609375 0.761719 0.000000
vt 0.722656 0.774658 0.000000
vt 0.281250 0.683594 0.000000
vt 0.378906 0.667969 0.000000
vt 0.359375 0.542969 0.000000
vt 0.407715 0.751465 0.000000
vt 0.480469 0.664063 0.000000
vt 0.378906 0.667969 0.000000
vt 0.378906 0.667969 0.000000
vt 0.480469 0.664063 0.000000
vt 0.407715 0.751465 0.000000
vt 0.929688 0.269531 0.000000
vt 0.819824 0.257813 0.000000
vt 0.950439 0.152344 0.000000
vt 0.031250 0.194092 0.000000
vt 0.140137 0.256836 0.000000
vt 0.088867 0.171143 0.000000
vt 0.088867 0.171143 0.000000
vt 0.140137 0.256836 0.000000
vt 0.031250 0.194092 0.000000
vt 0.660156 0.812500 0.000000
vt 0.722656 0.774658 0.000000
vt 0.609375 0.761719 0.000000
vt 0.069824 0.261963 0.000000
vt 0.140137 0.256836 0.000000
vt 0.031250 0.194092 0.000000
vt 0.031250 0.194092 0.000000
vt 0.140137 0.256836 0.000000
vt 0.069824 0.261963 0.000000
vt 0.359375 0.542969 0.000000
vt 0.378906 0.667969 0.000000
vt 0.295166 0.790527 0.000000
vt 0.785156 0.795410 0.000000
vt 0.707031 0.460938 0.000000
vt 0.722656 0.774658 0.000000
vt 0.390625 0.515625 0.000000
vt 0.292969 0.515625 0.000000
vt 0.292969 0.425781 0.000000
vt 0.570313 0.882080 0.000000
vt 0.664063 0.882080 0.000000
vt 0.648438 0.992188 0.000000
vt 0.929688 0.269531 0.000000
vt 0.897949 0.375000 0.000000
vt 0.819824 0.257813 0.000000
vt 0.113281 0.425781 0.000000
vt 0.113281 0.515625 0.000000
vt 0.011719 0.425781 0.000000
vt 0.398438 0.873047 0.000000
vt 0.484375 0.873047 0.000000
vt 0.429688 0.992188 0.000000
vt 0.785156 0.795410 0.000000
vt 0.785156 0.464844 0.000000
vt 0.707031 0.460938 0.000000
vt 0.359375 0.542969 0.000000
vt 0.295166 0.790527 0.000000
vt 0.281250 0.683594 0.000000
vt 0.292969 0.425781 0.000000
vt 0.113281 0.425781 0.000000
vt 0.171875 0.343750 0.000000
vt 0.660156 0.812500 0.000000
vt 0.804688 0.852783 0.000000
vt 0.722656 0.774658 0.000000
vt 0.295166 0.790527 0.000000
vt 0.378906 0.667969 0.000000
vt 0.281250 0.683594 0.000000
vt 0.281250 0.683594 0.000000
vt 0.359375 0.542969 0.000000
vt 0.203125 0.574219 0.000000
vt 0.968750 0.136719 0.000000
vt 0.812500 0.003906 0.000000
vt 0.996094 0.003906 0.000000
vt 0.996094 0.003906 0.000000
vt 0.812500 0.003906 0.000000
vt 0.968750 0.136719 0.000000
vt 0.722656 0.774658 0.000000
vt 0.804688 0.852783 0.000000
vt 0.785156 0.795410 0.000000
vt 0.184814 0.760010 0.000000
vt 0.206543 0.782227 0.000000
vt 0.114502 0.904541 0.000000
vt 0.203125 0.574219 0.000000
vt 0.359375 0.542969 0.000000
vt 0.281250 0.683594 0.000000
vt 0.648438 0.992188 0.000000
vt 0.664063 0.882080 0.000000
vt 0.769531 0.992188 0.000000
vt 0.746094 0.148438 0.000000
vt 0.950439 0.152344 0.000000
vt 0.819824 0.257813 0.000000
vt 0.359375 0.152344 0.000000
vt 0.441406 0.179688 0.000000
vt 0.460938 0.242188 0.000000
vt 0.429688 0.992188 0.000000
vt 0.316406 0.873047 0.000000
vt 0.398438 0.873047 0.000000
vt 0.010742 0.319336 0.000000
vt 0.050537 0.321289 0.000000
vt 0.069824 0.261963 0.000000
vt 0.069824 0.261963 0.000000
vt 0.050537 0.321289 0.000000
vt 0.010742 0.319336 0.000000
vt 0.359375 0.152344 0.000000
vt 0.460938 0.242188 0.000000
vt 0.429688 0.308594 0.000000
vt 0.171875 0.003906 0.000000
vt 0.417969 0.136719 0.000000
vt 0.214844 0.136719 0.000000
vt 0.214844 0.136719 0.000000
vt 0.417969 0.136719 0.000000
vt 0.171875 0.003906 0.000000
vt 0.113281 0.515625 0.000000
vt 0.011719 0.515625 0.000000
vt 0.011719 0.425781 0.000000
vt 0.145752 0.743164 0.000000
vt 0.184814 0.760010 0.000000
vt 0.114502 0.795166 0.000000
vt 0.390625 0.425781 0.000000
vt 0.390625 0.515625 0.000000
vt 0.292969 0.425781 0.000000
vt 0.390625 0.425781 0.000000
vt 0.292969 0.425781 0.000000
vt 0.335938 0.343750 0.000000
vt 0.113281 0.425781 0.000000
vt 0.011719 0.425781 0.000000
vt 0.097656 0.343750 0.000000
vt 0.031250 0.194092 0.000000
vt 0.069824 0.261963 0.000000
vt 0.010986 0.251221 0.000000
vt 0.010986 0.251221 0.000000
vt 0.069824 0.261963 0.000000
vt 0.031250 0.194092 0.000000
vt 0.429688 0.992188 0.000000
vt 0.316406 0.992188 0.000000
vt 0.316406 0.873047 0.000000
vt 0.010986 0.251221 0.000000
vt 0.069824 0.261963 0.000000
vt 0.010742 0.319336 0.000000
vt 0.010742 0.319336 0.000000
vt 0.069824 0.261963 0.000000
vt 0.010986 0.251221 0.000000
vt 0.184814 0.760010 0.000000
vt 0.114502 0.904541 0.000000
vt 0.114502 0.795166 0.000000
vt 0.664063 0.882080 0.000000
vt 0.769531 0.882080 0.000000
vt 0.769531 0.992188 0.000000
vt 0.202637 0.750977 0.000000
vt 0.281250 0.683594 0.000000
vt 0.203125 0.574219 0.000000
vt 0.203125 0.574219 0.000000
vt 0.281250 0.683594 0.000000
vt 0.202637 0.750977 0.000000
vt 0.785156 0.795410 0.000000
vt 0.992188 0.464844 0.000000
vt 0.992188 0.795410 0.000000
vt 0.812500 0.395508 0.000000
vt 0.910156 0.453125 0.000000
vt 0.812500 0.453125 0.000000
vt 0.730469 0.395508 0.000000
vt 0.812500 0.395508 0.000000
vt 0.812500 0.453125 0.000000
vt 0.359375 0.152344 0.000000
vt 0.429688 0.308594 0.000000
vt 0.375000 0.343750 0.000000
vt 0.972656 0.852783 0.000000
vt 0.785156 0.795410 0.000000
vt 0.992188 0.795410 0.000000
vt 0.730469 0.453125 0.000000
vt 0.730469 0.395508 0.000000
vt 0.812500 0.453125 0.000000
vt 0.910156 0.395508 0.000000
vt 0.910156 0.453125 0.000000
vt 0.812500 0.395508 0.000000
vt 0.819824 0.257813 0.000000
vt 0.710938 0.257813 0.000000
vt 0.746094 0.148438 0.000000
vt 0.079346 0.743164 0.000000
vt 0.145752 0.743164 0.000000
vt 0.114502 0.795166 0.000000
vt 0.910156 0.453125 0.000000
vt 0.910156 0.395508 0.000000
vt 0.812500 0.395508 0.000000
vt 0.819824 0.257813 0.000000
vt 0.707031 0.394531 0.000000
vt 0.710938 0.257813 0.000000
vt 0.730469 0.395508 0.000000
vt 0.730469 0.453125 0.000000
vt 0.812500 0.453125 0.000000
vt 0.992188 0.464844 0.000000
vt 0.785156 0.795410 0.000000
vt 0.785156 0.464844 0.000000
vt 0.972656 0.852783 0.000000
vt 0.804688 0.852783 0.000000
vt 0.785156 0.795410 0.000000
vt 0.203125 0.574219 0.000000
vt 0.202637 0.750977 0.000000
vt 0.281250 0.683594 0.000000
vt 0.281250 0.683594 0.000000
vt 0.202637 0.750977 0.000000
vt 0.203125 0.574219 0.000000
vt 0.812500 0.395508 0.000000
vt 0.730469 0.395508 0.000000
vt 0.812500 0.453125 0.000000
vt 0.910156 0.453125 0.000000
vt 0.812500 0.395508 0.000000
vt 0.812500 0.453125 0.000000
vt 0.769531 0.882080 0.000000
vt 0.867188 0.882080 0.000000
vt 0.769531 0.992188 0.000000
vt 0.114502 0.904541 0.000000
vt 0.184814 0.760010 0.000000
vt 0.114502 0.795166 0.000000
vt 0.270020 0.257813 0.000000
vt 0.359375 0.152344 0.000000
vt 0.375000 0.343750 0.000000
vt 0.066406 0.539063 0.000000
vt 0.136719 0.539063 0.000000
vt 0.136719 0.597656 0.000000
vt 0.011719 0.425781 0.000000
vt 0.113281 0.425781 0.000000
vt 0.097656 0.343750 0.000000
vt 0.011719 0.425781 0.000000
vt 0.011719 0.515625 0.000000
vt 0.113281 0.425781 0.000000
vt 0.746094 0.148438 0.000000
vt 0.710938 0.257813 0.000000
vt 0.632813 0.257813 0.000000
vt 0.075439 0.703125 0.000000
vt 0.078369 0.725830 0.000000
vt 0.088867 0.713867 0.000000
vt 0.136719 0.597656 0.000000
vt 0.195313 0.597656 0.000000
vt 0.136719 0.667969 0.000000
vt 0.292969 0.425781 0.000000
vt 0.390625 0.425781 0.000000
vt 0.335938 0.343750 0.000000
vt 0.184814 0.760010 0.000000
vt 0.145752 0.743164 0.000000
vt 0.114502 0.795166 0.000000
vt 0.195313 0.597656 0.000000
vt 0.195313 0.667969 0.000000
vt 0.136719 0.667969 0.000000
vt 0.316406 0.992188 0.000000
vt 0.109375 0.992188 0.000000
vt 0.316406 0.873047 0.000000
vt 0.292969 0.515625 0.000000
vt 0.390625 0.515625 0.000000
vt 0.390625 0.425781 0.000000
vt 0.007813 0.007813 0.000000
vt 0.140625 0.031250 0.000000
vt 0.164063 0.007813 0.000000
vt 0.164063 0.007813 0.000000
vt 0.140625 0.031250 0.000000
vt 0.140625 0.140625 0.000000
vt 0.066406 0.597656 0.000000
vt 0.066406 0.539063 0.000000
vt 0.136719 0.597656 0.000000
vt 0.164063 0.007813 0.000000
vt 0.140625 0.140625 0.000000
vt 0.140625 0.031250 0.000000
vt 0.007813 0.007813 0.000000
vt 0.164063 0.007813 0.000000
vt 0.140625 0.031250 0.000000
vt 0.281250 0.187500 0.000000
vt 0.359375 0.152344 0.000000
vt 0.270020 0.257813 0.000000
vt 0.164063 0.007813 0.000000
vt 0.140625 0.140625 0.000000
vt 0.164063 0.164063 0.000000
vt 0.164063 0.007813 0.000000
vt 0.164063 0.164063 0.000000
vt 0.140625 0.140625 0.000000
vt 0.007813 0.007813 0.000000
vt 0.031250 0.031250 0.000000
vt 0.140625 0.031250 0.000000
vt 0.007813 0.007813 0.000000
vt 0.140625 0.031250 0.000000
vt 0.031250 0.031250 0.000000
vt 0.867188 0.882080 0.000000
vt 0.882813 0.992188 0.000000
vt 0.769531 0.992188 0.000000
vt 0.203125 0.574219 0.000000
vt 0.281250 0.683594 0.000000
vt 0.359375 0.542969 0.000000
vt 0.075439 0.703125 0.000000
vt 0.064697 0.715088 0.000000
vt 0.078369 0.725830 0.000000
vt 0.164063 0.164063 0.000000
vt 0.140625 0.140625 0.000000
vt 0.031250 0.140625 0.000000
vt 0.164063 0.164063 0.000000
vt 0.031250 0.140625 0.000000
vt 0.140625 0.140625 0.000000
vt 0.007813 0.164063 0.000000
vt 0.031250 0.031250 0.000000
vt 0.007813 0.007813 0.000000
vt 0.710938 0.257813 0.000000
vt 0.671875 0.382813 0.000000
vt 0.632813 0.257813 0.000000
vt 0.007813 0.164063 0.000000
vt 0.007813 0.007813 0.000000
vt 0.031250 0.031250 0.000000
vt 0.206543 0.782227 0.000000
vt 0.184814 0.760010 0.000000
vt 0.114502 0.904541 0.000000
vt 0.007813 0.667969 0.000000
vt 0.007813 0.597656 0.000000
vt 0.066406 0.597656 0.000000
vt 0.164063 0.164063 0.000000
vt 0.031250 0.140625 0.000000
vt 0.007813 0.164063 0.000000
vt 0.007813 0.164063 0.000000
vt 0.031250 0.140625 0.000000
vt 0.031250 0.031250 0.000000
vt 0.812500 0.003906 0.000000
vt 0.996094 0.003906 0.000000
vt 0.968750 0.136719 0.000000
vt 0.968750 0.136719 0.000000
vt 0.996094 0.003906 0.000000
vt 0.812500 0.003906 0.000000
vt 0.164063 0.164063 0.000000
vt 0.007813 0.164063 0.000000
vt 0.031250 0.140625 0.000000
vt 0.007813 0.164063 0.000000
vt 0.031250 0.031250 0.000000
vt 0.031250 0.140625 0.000000
vt 0.804688 0.852783 0.000000
vt 0.722656 0.774658 0.000000
vt 0.785156 0.795410 0.000000
vt 0.066406 0.667969 0.000000
vt 0.066406 0.597656 0.000000
vt 0.136719 0.597656 0.000000
vt 0.136719 0.667969 0.000000
vt 0.066406 0.667969 0.000000
vt 0.136719 0.597656 0.000000
vt 0.359375 0.542969 0.000000
vt 0.281250 0.683594 0.000000
vt 0.203125 0.574219 0.000000
vt 0.136719 0.667969 0.000000
vt 0.136719 0.722656 0.000000
vt 0.066406 0.667969 0.000000
vt 0.746094 0.148438 0.000000
vt 0.632813 0.257813 0.000000
vt 0.550781 0.152344 0.000000
vt 0.804688 0.852783 0.000000
vt 0.660156 0.812500 0.000000
vt 0.722656 0.774658 0.000000
vt 0.136719 0.722656 0.000000
vt 0.066406 0.722656 0.000000
vt 0.066406 0.667969 0.000000
vt 0.316406 0.873047 0.000000
vt 0.109375 0.992188 0.000000
vt 0.152344 0.877686 0.000000
vt 0.113281 0.425781 0.000000
vt 0.292969 0.425781 0.000000
vt 0.171875 0.343750 0.000000
vt 0.785156 0.464844 0.000000
vt 0.785156 0.795410 0.000000
vt 0.707031 0.460938 0.000000
vt 0.281250 0.683594 0.000000
vt 0.295166 0.790527 0.000000
vt 0.359375 0.542969 0.000000
vt 0.378906 0.667969 0.000000
vt 0.295166 0.790527 0.000000
vt 0.281250 0.683594 0.000000
vt 0.066406 0.667969 0.000000
vt 0.007813 0.667969 0.000000
vt 0.066406 0.597656 0.000000
vt 0.011719 0.515625 0.000000
vt 0.113281 0.515625 0.000000
vt 0.113281 0.425781 0.000000
vt 0.171875 0.003906 0.000000
vt 0.371094 0.003906 0.000000
vt 0.214844 0.136719 0.000000
vt 0.214844 0.136719 0.000000
vt 0.371094 0.003906 0.000000
vt 0.171875 0.003906 0.000000
vt 0.867188 0.882080 0.000000
vt 0.945313 0.882080 0.000000
vt 0.882813 0.992188 0.000000
vt 0.292969 0.425781 0.000000
vt 0.292969 0.515625 0.000000
vt 0.390625 0.425781 0.000000
vt 0.707031 0.460938 0.000000
vt 0.785156 0.795410 0.000000
vt 0.722656 0.774658 0.000000
vt 0.722656 0.774658 0.000000
vt 0.660156 0.812500 0.000000
vt 0.609375 0.761719 0.000000
vt 0.295166 0.790527 0.000000
vt 0.378906 0.667969 0.000000
vt 0.359375 0.542969 0.000000
vt 0.968750 0.136719 0.000000
vt 0.757813 0.136719 0.000000
vt 0.812500 0.003906 0.000000
vt 0.378906 0.667969 0.000000
vt 0.407715 0.751465 0.000000
vt 0.480469 0.664063 0.000000
vt 0.480469 0.664063 0.000000
vt 0.407715 0.751465 0.000000
vt 0.378906 0.667969 0.000000
vt 0.609375 0.761719 0.000000
vt 0.707031 0.460938 0.000000
vt 0.722656 0.774658 0.000000
vt 0.359375 0.542969 0.000000
vt 0.378906 0.667969 0.000000
vt 0.281250 0.683594 0.000000
vt 0.945313 0.882080 0.000000
vt 0.996094 0.992188 0.000000
vt 0.882813 0.992188 0.000000
vt 0.578125 0.378906 0.000000
vt 0.554688 0.253906 0.000000
vt 0.632813 0.257813 0.000000
vt 0.410156 0.855469 0.000000
vt 0.617188 0.855469 0.000000
vt 0.460938 0.761719 0.000000
vt 0.460938 0.761719 0.000000
vt 0.617188 0.855469 0.000000
vt 0.410156 0.855469 0.000000
vt 0.632813 0.257813 0.000000
vt 0.554688 0.253906 0.000000
vt 0.550781 0.152344 0.000000
vt 0.812500 0.003906 0.000000
vt 0.757813 0.136719 0.000000
vt 0.968750 0.136719 0.000000
vt 0.113281 0.425781 0.000000
vt 0.113281 0.515625 0.000000
vt 0.292969 0.425781 0.000000
vt 0.609375 0.761719 0.000000
vt 0.554688 0.632813 0.000000
vt 0.707031 0.460938 0.000000
vt 0.378906 0.667969 0.000000
vt 0.480469 0.664063 0.000000
vt 0.460938 0.570313 0.000000
vt 0.460938 0.570313 0.000000
vt 0.480469 0.664063 0.000000
vt 0.378906 0.667969 0.000000
vt 0.417969 0.136719 0.000000
vt 0.214844 0.136719 0.000000
vt 0.371094 0.003906 0.000000
vt 0.371094 0.003906 0.000000
vt 0.214844 0.136719 0.000000
vt 0.417969 0.136719 0.000000
vt 0.359375 0.542969 0.000000
vt 0.378906 0.667969 0.000000
vt 0.460938 0.570313 0.000000
vt 0.609375 0.761719 0.000000
vt 0.496094 0.761719 0.000000
vt 0.554688 0.632813 0.000000
vt 0.617188 0.410156 0.000000
vt 0.683594 0.476563 0.000000
vt 0.609375 0.546875 0.000000
vt 0.113281 0.515625 0.000000
vt 0.292969 0.515625 0.000000
vt 0.292969 0.425781 0.000000
vt 0.589844 0.414063 0.000000
vt 0.359375 0.542969 0.000000
vt 0.568115 0.527344 0.000000
vt 0.460938 0.570313 0.000000
vt 0.378906 0.667969 0.000000
vt 0.359375 0.542969 0.000000
vt 0.468750 0.257813 0.000000
vt 0.550781 0.152344 0.000000
vt 0.554688 0.253906 0.000000
vt 0.568115 0.527344 0.000000
vt 0.359375 0.542969 0.000000
vt 0.460938 0.570313 0.000000
vt 0.468750 0.257813 0.000000
vt 0.554688 0.253906 0.000000
vt 0.503906 0.414063 0.000000
vt 0.568115 0.527344 0.000000
vt 0.359375 0.542969 0.000000
vt 0.589844 0.414063 0.000000
vt 0.496094 0.632813 0.000000
vt 0.554688 0.632813 0.000000
vt 0.496094 0.761719 0.000000
vt 0.667969 0.410156 0.000000
vt 0.683594 0.476563 0.000000
vt 0.617188 0.410156 0.000000
vt 0.460938 0.570313 0.000000
vt 0.359375 0.542969 0.000000
vt 0.568115 0.527344 0.000000
vt 0.460938 0.570313 0.000000
vt 0.558594 0.617188 0.000000
vt 0.568115 0.527344 0.000000
vt 0.568115 0.527344 0.000000
vt 0.558594 0.617188 0.000000
vt 0.460938 0.570313 0.000000
vt 0.460938 0.761719 0.000000
vt 0.335938 0.761719 0.000000
vt 0.410156 0.855469 0.000000
vt 0.410156 0.855469 0.000000
vt 0.335938 0.761719 0.000000
vt 0.460938 0.761719 0.000000
vt 0.757813 0.136719 0.000000
vt 0.417969 0.136719 0.000000
vt 0.593750 0.003906 0.000000
vt 0.593750 0.003906 0.000000
vt 0.417969 0.136719 0.000000
vt 0.757813 0.136719 0.000000
vt 0.593750 0.003906 0.000000
vt 0.812500 0.003906 0.000000
vt 0.757813 0.136719 0.000000
vt 0.757813 0.136719 0.000000
vt 0.812500 0.003906 0.000000
vt 0.593750 0.003906 0.000000
vt 0.371094 0.003906 0.000000
vt 0.593750 0.003906 0.000000
vt 0.417969 0.136719 0.000000
vt 0.417969 0.136719 0.000000
vt 0.593750 0.003906 0.000000
vt 0.371094 0.003906 0.000000
vn 0.579102 0.070068 -0.812012
vn 0.659424 -0.079102 -0.747314
vn 0.581543 0.327637 -0.744385
vn -0.581543 -0.327637 0.744385
vn -0.659424 0.079102 0.747314
vn -0.579102 -0.070068 0.812012
vn 0.429199 0.176514 -0.885498
vn 0.579102 0.070068 -0.812012
vn 0.241699 0.266846 -0.932861
vn -0.241699 -0.266846 0.932861
vn -0.579102 -0.070068 0.812012
vn -0.429199 -0.176514 0.885498
vn -0.241699 -0.266846 0.932861
vn -0.581543 -0.327637 0.744385
vn -0.579102 -0.070068 0.812012
vn 0.579102 0.070068 -0.812012
vn 0.581543 0.327637 -0.744385
vn 0.241699 0.266846 -0.932861
vn -0.427002 0.885254 -0.183838
vn -0.530518 0.773682 -0.345703
vn -0.397705 0.915771 -0.054932
vn 0.429199 0.176514 -0.885498
vn 0.241699 0.266846 -0.932861
vn 0.243652 0.322266 -0.914551
vn -0.243652 -0.322266 0.914551
vn -0.241699 -0.266846 0.932861
vn -0.429199 -0.176514 0.885498
vn -0.399658 0.639160 -0.656738
vn -0.350586 0.568115 -0.744141
vn -0.530518 0.773682 -0.345703
vn 0.507080 -0.791260 0.341309
vn 0.350098 -0.568604 0.744141
vn 0.630127 -0.544922 0.552979
vn 0.376709 -0.921631 0.090576
vn 0.507080 -0.791260 0.341309
vn 0.700439 -0.708252 -0.084961
vn -0.530518 0.773682 -0.345703
vn -0.427002 0.885254 -0.183838
vn -0.399658 0.639160 -0.656738
vn 0.630127 -0.544922 0.552979
vn 0.700439 -0.708252 -0.084961
vn 0.507080 -0.791260 0.341309
vn 0.066162 0.304199 -0.950195
vn 0.243652 0.322266 -0.914551
vn 0.241699 0.266846 -0.932861
vn -0.241699 -0.266846 0.932861
vn -0.243652 -0.322266 0.914551
vn -0.066162 -0.304199 0.950195
vn -0.562012 -0.287842 -0.775146
vn -0.603760 -0.319092 -0.730225
vn -0.551270 -0.280029 -0.785645
vn 0.542480 0.282227 0.791016
vn 0.593262 0.319580 0.738525
vn 0.552979 0.290039 0.780762
vn -0.954102 -0.050781 -0.294922
vn -0.867188 0.128174 0.480957
vn -0.980713 0.195068 0.006836
vn -0.867188 0.128174 0.480957
vn -0.954102 -0.050781 -0.294922
vn -0.807373 -0.377197 -0.453125
vn -0.954102 -0.050781 -0.294922
vn -0.980713 0.195068 0.006836
vn -0.980957 0.174805 -0.083984
vn 0.980957 -0.174805 0.083984
vn 0.991455 -0.054688 -0.118164
vn 0.998291 0.044922 -0.032959
vn 0.991455 -0.054688 -0.118164
vn 0.700439 -0.708252 -0.084961
vn 0.998291 0.044922 -0.032959
vn 0.630127 -0.544922 0.552979
vn 0.998291 0.044922 -0.032959
vn 0.700439 -0.708252 -0.084961
vn -0.980713 0.195068 0.006836
vn -0.867188 0.128174 0.480957
vn -0.888428 0.390625 0.240479
vn -0.551270 -0.280029 -0.785645
vn -0.530762 -0.264893 -0.804932
vn -0.562012 -0.287842 -0.775146
vn 0.542480 0.282227 0.791016
vn 0.552979 0.290039 0.780762
vn 0.522949 0.268066 0.808838
vn -0.954102 -0.050781 -0.294922
vn -0.681396 -0.158936 -0.714111
vn -0.807373 -0.377197 -0.453125
vn -0.867188 0.128174 0.480957
vn -0.807373 -0.377197 -0.453125
vn -0.655518 -0.750244 -0.085449
vn -0.697510 -0.358154 0.620361
vn -0.867188 0.128174 0.480957
vn -0.655518 -0.750244 -0.085449
vn -0.954102 -0.050781 -0.294922
vn -0.804199 -0.107666 -0.584473
vn -0.681396 -0.158936 -0.714111
vn 0.883545 -0.330322 -0.331299
vn 0.700439 -0.708252 -0.084961
vn 0.991455 -0.054688 -0.118164
vn -0.968506 0.111816 -0.221924
vn -0.856934 0.511719 0.057373
vn -0.855225 0.075928 -0.512451
vn -0.941162 0.337891 -0.003174
vn -0.980713 0.195068 0.006836
vn -0.888428 0.390625 0.240479
vn 0.883545 -0.330322 -0.331299
vn 0.991455 -0.054688 -0.118164
vn 0.941162 -0.337891 0.003174
vn -0.397705 0.915771 -0.054932
vn 0.037598 0.968262 0.246582
vn -0.427002 0.885254 -0.183838
vn -0.471924 -0.872070 -0.127441
vn -0.560303 -0.587158 0.583740
vn -0.837402 -0.498535 -0.222900
vn -0.399658 0.639160 -0.656738
vn 0.084473 0.488037 -0.868408
vn -0.350586 0.568115 -0.744141
vn 0.350098 -0.568604 0.744141
vn -0.084473 -0.488281 0.868408
vn 0.630127 -0.544922 0.552979
vn -0.471924 -0.872070 -0.127441
vn -0.837402 -0.498535 -0.222900
vn -0.542480 -0.283936 -0.790527
vn 0.700439 -0.708252 -0.084961
vn -0.062012 -0.718994 -0.691895
vn 0.376709 -0.921631 0.090576
vn -0.855225 0.075928 -0.512451
vn -0.856934 0.511719 0.057373
vn -0.803711 0.399902 -0.440430
vn -0.624023 0.372559 0.686523
vn -0.888428 0.390625 0.240479
vn -0.867188 0.128174 0.480957
vn -0.966553 0.255859 0.003662
vn -0.941162 0.337891 -0.003174
vn -0.888428 0.390625 0.240479
vn 0.883545 -0.330322 -0.331299
vn 0.941162 -0.337891 0.003174
vn 0.966553 -0.255859 -0.003662
vn -0.681396 -0.158936 -0.714111
vn -0.319092 -0.307617 -0.896240
vn -0.807373 -0.377197 -0.453125
vn 0.080566 -0.186768 0.979004
vn -0.241699 -0.266846 0.932861
vn -0.066162 -0.304199 0.950195
vn 0.066162 0.304199 -0.950195
vn 0.241699 0.266846 -0.932861
vn -0.080566 0.186768 -0.979004
vn -0.532471 0.840332 0.100098
vn -0.803711 0.399902 -0.440430
vn -0.856934 0.511719 0.057373
vn 0.158936 -0.051025 0.985840
vn -0.241699 -0.266846 0.932861
vn 0.080566 -0.186768 0.979004
vn -0.080566 0.186768 -0.979004
vn 0.241699 0.266846 -0.932861
vn -0.158936 0.051025 -0.985840
vn 0.700439 -0.708252 -0.084961
vn 0.883545 -0.330322 -0.331299
vn 0.761475 -0.348633 -0.546143
vn -0.361084 0.402100 -0.841064
vn -0.855225 0.075928 -0.512451
vn -0.803711 0.399902 -0.440430
vn 0.017578 0.224854 0.974121
vn -0.867188 0.128174 0.480957
vn -0.697510 -0.358154 0.620361
vn -0.471924 -0.872070 -0.127441
vn -0.362061 -0.794678 0.486816
vn -0.560303 -0.587158 0.583740
vn -0.681396 -0.158936 -0.714111
vn -0.555176 -0.107422 -0.824707
vn -0.319092 -0.307617 -0.896240
vn -0.655518 -0.750244 -0.085449
vn -0.807373 -0.377197 -0.453125
vn -0.007324 -0.937744 -0.346436
vn -0.300049 -0.754150 -0.583740
vn -0.471924 -0.872070 -0.127441
vn -0.542480 -0.283936 -0.790527
vn -0.361084 0.402100 -0.841064
vn -0.363037 0.036377 -0.930908
vn -0.855225 0.075928 -0.512451
vn 0.700439 -0.708252 -0.084961
vn 0.761475 -0.348633 -0.546143
vn 0.688721 -0.282227 -0.667480
vn -0.697510 -0.358154 0.620361
vn -0.655518 -0.750244 -0.085449
vn 0.004639 -0.841553 0.540039
vn -0.532471 0.840332 0.100098
vn -0.233154 0.897949 -0.372803
vn -0.803711 0.399902 -0.440430
vn -0.745605 0.420654 0.516357
vn -0.888428 0.390625 0.240479
vn -0.624023 0.372559 0.686523
vn -0.624023 0.372559 0.686523
vn -0.867188 0.128174 0.480957
vn 0.017578 0.224854 0.974121
vn 0.037598 0.968262 0.246582
vn -0.397705 0.915771 -0.054932
vn 0.043213 0.947266 0.316895
vn -0.044678 -0.965576 -0.255859
vn 0.376709 -0.921631 0.090576
vn -0.062012 -0.718994 -0.691895
vn -0.803711 0.399902 -0.440430
vn -0.233154 0.897949 -0.372803
vn -0.361084 0.402100 -0.841064
vn -0.532471 0.840332 0.100098
vn -0.856934 0.511719 0.057373
vn 0.000000 0.843750 0.536377
vn -0.062012 -0.718994 -0.691895
vn 0.700439 -0.708252 -0.084961
vn 0.688721 -0.282227 -0.667480
vn -0.560303 -0.587158 0.583740
vn -0.362061 -0.794678 0.486816
vn 0.003174 -0.543701 0.839111
vn -0.011719 -0.644287 -0.764404
vn -0.807373 -0.377197 -0.453125
vn -0.319092 -0.307617 -0.896240
vn 0.005615 -0.814941 0.579346
vn -0.362061 -0.794678 0.486816
vn -0.471924 -0.872070 -0.127441
vn -0.542480 -0.283936 -0.790527
vn 0.123291 -0.608643 -0.783447
vn -0.300049 -0.754150 -0.583740
vn 0.299072 0.106201 0.947998
vn 0.355469 0.045410 0.933350
vn 0.158936 -0.051025 0.985840
vn -0.158936 0.051025 -0.985840
vn -0.355469 -0.045410 -0.933350
vn -0.299072 -0.106201 -0.947998
vn 0.005615 -0.814941 0.579346
vn -0.471924 -0.872070 -0.127441
vn -0.300049 -0.754150 -0.583740
vn 0.084473 0.488037 -0.868408
vn -0.399658 0.639160 -0.656738
vn 0.052979 0.485840 -0.872314
vn -0.052734 -0.485840 0.872314
vn 0.630127 -0.544922 0.552979
vn -0.084473 -0.488281 0.868408
vn -0.807373 -0.377197 -0.453125
vn -0.011719 -0.644287 -0.764404
vn -0.007324 -0.937744 -0.346436
vn -0.233154 0.897949 -0.372803
vn -0.532471 0.840332 0.100098
vn -0.295410 0.914307 0.276855
vn 0.026855 -0.176514 0.983887
vn 0.017578 0.224854 0.974121
vn -0.697510 -0.358154 0.620361
vn 0.026855 -0.176514 0.983887
vn -0.697510 -0.358154 0.620361
vn 0.004639 -0.841553 0.540039
vn -0.655518 -0.750244 -0.085449
vn -0.007324 -0.937744 -0.346436
vn 0.004639 -0.841553 0.540039
vn -0.080566 0.186768 -0.979004
vn -0.158936 0.051025 -0.985840
vn -0.207764 -0.039551 -0.977295
vn 0.207764 0.039551 0.977295
vn 0.158936 -0.051025 0.985840
vn 0.080566 -0.186768 0.979004
vn -0.542480 -0.283936 -0.790527
vn 0.130615 -0.087646 -0.987305
vn 0.123291 -0.608643 -0.783447
vn -0.207764 -0.039551 -0.977295
vn -0.158936 0.051025 -0.985840
vn -0.299072 -0.106201 -0.947998
vn 0.299072 0.106201 0.947998
vn 0.158936 -0.051025 0.985840
vn 0.207764 0.039551 0.977295
vn -0.532471 0.840332 0.100098
vn 0.000000 0.843750 0.536377
vn -0.295410 0.914307 0.276855
vn -0.362061 -0.794678 0.486816
vn 0.005615 -0.814941 0.579346
vn 0.003174 -0.543701 0.839111
vn -0.000244 0.329102 0.944092
vn -0.624023 0.372559 0.686523
vn 0.017578 0.224854 0.974121
vn -0.062012 -0.718994 -0.691895
vn 0.688721 -0.282227 -0.667480
vn 0.003906 -0.155762 -0.987549
vn 0.361084 0.402100 -0.841064
vn -0.363037 0.036377 -0.930908
vn -0.361084 0.402100 -0.841064
vn -0.996826 -0.055176 0.055664
vn -0.737549 -0.070313 0.671143
vn -0.997559 -0.049316 -0.047363
vn -0.729492 0.004883 -0.683594
vn -0.996826 -0.055176 0.055664
vn -0.997559 -0.049316 -0.047363
vn 0.005615 -0.814941 0.579346
vn -0.300049 -0.754150 -0.583740
vn 0.123291 -0.608643 -0.783447
vn -0.233154 0.897949 -0.372803
vn 0.361084 0.402100 -0.841064
vn -0.361084 0.402100 -0.841064
vn -0.727051 0.011230 -0.686279
vn -0.729492 0.004883 -0.683594
vn -0.997559 -0.049316 -0.047363
vn -0.740479 -0.064697 0.668701
vn -0.737549 -0.070313 0.671143
vn -0.996826 -0.055176 0.055664
vn -0.319092 -0.307617 -0.896240
vn 0.144531 -0.248535 -0.957520
vn -0.011719 -0.644287 -0.764404
vn 0.232910 0.898193 -0.372314
vn -0.233154 0.897949 -0.372803
vn -0.295410 0.914307 0.276855
vn 0.737549 -0.070313 0.671143
vn 0.740479 -0.064697 0.668701
vn 0.996826 -0.055176 0.055664
vn -0.319092 -0.307617 -0.896240
vn 0.013916 0.020020 -0.999512
vn 0.144531 -0.248535 -0.957520
vn 0.729492 0.004883 -0.683594
vn 0.727051 0.011230 -0.686279
vn 0.997559 -0.049316 -0.047363
vn -0.363037 0.036377 -0.930908
vn 0.361084 0.402100 -0.841064
vn 0.363037 0.036377 -0.930908
vn -0.233154 0.897949 -0.372803
vn 0.232910 0.898193 -0.372314
vn 0.361084 0.402100 -0.841064
vn -0.062012 -0.718994 -0.691895
vn 0.003906 -0.155762 -0.987549
vn -0.598145 -0.159424 -0.785156
vn 0.534424 0.297119 0.791016
vn -0.000244 0.329102 0.944092
vn 0.017578 0.224854 0.974121
vn 0.996826 -0.055176 0.055664
vn 0.729492 0.004883 -0.683594
vn 0.997559 -0.049316 -0.047363
vn 0.737549 -0.070313 0.671143
vn 0.996826 -0.055176 0.055664
vn 0.997559 -0.049316 -0.047363
vn 0.005615 -0.814941 0.579346
vn 0.383057 -0.816406 0.431885
vn 0.003174 -0.543701 0.839111
vn 0.000000 0.843750 0.536377
vn 0.532471 0.840332 0.100098
vn 0.384277 0.840332 0.381592
vn 0.515137 -0.829590 -0.214111
vn 0.005615 -0.814941 0.579346
vn 0.123291 -0.608643 -0.783447
vn 0.067627 -0.997314 0.016846
vn -0.771973 -0.094971 -0.628174
vn -0.354248 -0.154541 -0.922119
vn -0.007324 -0.937744 -0.346436
vn 0.651611 -0.755615 -0.064697
vn 0.004639 -0.841553 0.540039
vn -0.007324 -0.937744 -0.346436
vn -0.011719 -0.644287 -0.764404
vn 0.651611 -0.755615 -0.064697
vn -0.011719 -0.644287 -0.764404
vn 0.144531 -0.248535 -0.957520
vn 0.436523 -0.350830 -0.828125
vn -0.487305 0.159912 0.858154
vn -0.487305 0.159912 0.858154
vn -0.487305 0.159912 0.858154
vn -0.354248 -0.154541 -0.922119
vn -0.771973 -0.094971 -0.628174
vn 0.328369 0.650635 -0.684570
vn 0.694336 -0.335205 0.636475
vn 0.026855 -0.176514 0.983887
vn 0.004639 -0.841553 0.540039
vn 0.532471 0.840332 0.100098
vn 0.232910 0.898193 -0.372314
vn 0.384277 0.840332 0.381592
vn -0.771973 -0.094971 -0.628174
vn 0.105713 0.940430 -0.322754
vn 0.328369 0.650635 -0.684570
vn 0.130615 -0.087646 -0.987305
vn 0.841064 -0.439697 -0.314209
vn 0.123291 -0.608643 -0.783447
vn 0.850098 0.103516 0.515869
vn 0.017578 0.224854 0.974121
vn 0.026855 -0.176514 0.983887
vn -0.981934 0.000000 0.188232
vn -0.981934 0.000000 0.188232
vn -0.981934 0.000000 0.188232
vn -0.981934 0.000000 0.188232
vn -0.981934 0.000000 0.188232
vn -0.981934 0.000000 0.188232
vn 0.298828 -0.856689 -0.420166
vn 0.067627 -0.997314 0.016846
vn -0.354248 -0.154541 -0.922119
vn 0.981934 0.000000 -0.188232
vn 0.981934 0.000000 -0.188232
vn 0.981934 0.000000 -0.188232
vn 0.981934 0.000000 -0.188232
vn 0.981934 0.000000 -0.188232
vn 0.981934 0.000000 -0.188232
vn 0.383057 -0.816406 0.431885
vn 0.005615 -0.814941 0.579346
vn 0.515137 -0.829590 -0.214111
vn -0.981934 0.000000 0.188232
vn -0.981934 0.000000 0.188232
vn -0.981934 0.000000 0.188232
vn 0.981934 0.000000 -0.188232
vn 0.981934 0.000000 -0.188232
vn 0.981934 0.000000 -0.188232
vn -0.981934 0.000000 0.188232
vn -0.981934 0.000000 0.188232
vn -0.981934 0.000000 0.188232
vn 0.981934 0.000000 -0.188232
vn 0.981934 0.000000 -0.188232
vn 0.981934 0.000000 -0.188232
vn 0.383057 -0.816406 0.431885
vn 0.552002 -0.567383 0.610596
vn 0.003174 -0.543701 0.839111
vn -0.062012 -0.718994 -0.691895
vn -0.598145 -0.159424 -0.785156
vn -0.783447 -0.605957 -0.136963
vn -0.487305 0.159912 0.858154
vn -0.487305 0.159912 0.858154
vn -0.487305 0.159912 0.858154
vn -0.981934 0.000000 0.188232
vn -0.981934 0.000000 0.188232
vn -0.981934 0.000000 0.188232
vn 0.981934 0.000000 -0.188232
vn 0.981934 0.000000 -0.188232
vn 0.981934 0.000000 -0.188232
vn -0.981934 0.000000 0.188232
vn -0.981934 0.000000 0.188232
vn -0.981934 0.000000 0.188232
vn 0.144531 -0.248535 -0.957520
vn 0.274658 -0.063477 -0.959229
vn 0.436523 -0.350830 -0.828125
vn 0.981934 0.000000 -0.188232
vn 0.981934 0.000000 -0.188232
vn 0.981934 0.000000 -0.188232
vn 0.856934 0.511719 0.057373
vn 0.532471 0.840332 0.100098
vn 0.000000 0.843750 0.536377
vn 0.945801 0.037842 0.322266
vn 0.067627 -0.997314 0.016846
vn 0.298828 -0.856689 -0.420166
vn -0.981934 0.000000 0.188232
vn -0.981934 0.000000 0.188232
vn -0.981934 0.000000 0.188232
vn -0.981934 0.000000 0.188232
vn -0.981934 0.000000 0.188232
vn -0.981934 0.000000 0.188232
vn -0.450439 -0.886719 0.102539
vn -0.044678 -0.965576 -0.255859
vn -0.062012 -0.718994 -0.691895
vn 0.037598 0.968262 0.246582
vn 0.043213 0.947266 0.316895
vn 0.526367 0.844971 0.091064
vn 0.981934 0.000000 -0.188232
vn 0.981934 0.000000 -0.188232
vn 0.981934 0.000000 -0.188232
vn 0.981934 0.000000 -0.188232
vn 0.981934 0.000000 -0.188232
vn 0.981934 0.000000 -0.188232
vn 0.232910 0.898193 -0.372314
vn 0.803711 0.399902 -0.440430
vn 0.361084 0.402100 -0.841064
vn 0.981689 -0.051270 -0.182617
vn 0.298828 -0.856689 -0.420166
vn -0.354248 -0.154541 -0.922119
vn 0.328369 0.650635 -0.684570
vn 0.981689 -0.051270 -0.182617
vn -0.354248 -0.154541 -0.922119
vn 0.850098 0.103516 0.515869
vn 0.534424 0.297119 0.791016
vn 0.017578 0.224854 0.974121
vn 0.328369 0.650635 -0.684570
vn 0.105713 0.940430 -0.322754
vn 0.981689 -0.051270 -0.182617
vn -0.011719 -0.644287 -0.764404
vn 0.436523 -0.350830 -0.828125
vn 0.809814 -0.425049 -0.403564
vn 0.232910 0.898193 -0.372314
vn 0.532471 0.840332 0.100098
vn 0.803711 0.399902 -0.440430
vn 0.105713 0.940430 -0.322754
vn 0.945801 0.037842 0.322266
vn 0.981689 -0.051270 -0.182617
vn 0.123291 -0.608643 -0.783447
vn 0.841064 -0.439697 -0.314209
vn 0.515137 -0.829590 -0.214111
vn 0.651611 -0.755615 -0.064697
vn 0.694336 -0.335205 0.636475
vn 0.004639 -0.841553 0.540039
vn 0.363037 0.036377 -0.930908
vn 0.361084 0.402100 -0.841064
vn 0.855225 0.075928 -0.512451
vn -0.598145 -0.159424 -0.785156
vn -0.608154 -0.163574 -0.776611
vn -0.783447 -0.605957 -0.136963
vn 0.858643 0.402588 0.316895
vn 0.592041 0.250977 0.765381
vn 0.534424 0.297119 0.791016
vn 0.981689 -0.051270 -0.182617
vn 0.945801 0.037842 0.322266
vn 0.298828 -0.856689 -0.420166
vn -0.011719 -0.644287 -0.764404
vn 0.809814 -0.425049 -0.403564
vn 0.651611 -0.755615 -0.064697
vn -0.084473 -0.488281 0.868408
vn -0.398193 -0.522949 0.753418
vn -0.052734 -0.485840 0.872314
vn 0.052979 0.485840 -0.872314
vn 0.398438 0.522705 -0.753418
vn 0.084473 0.488037 -0.868408
vn 0.383057 -0.816406 0.431885
vn 0.515137 -0.829590 -0.214111
vn 0.552002 -0.567383 0.610596
vn 0.694336 -0.335205 0.636475
vn 0.850098 0.103516 0.515869
vn 0.026855 -0.176514 0.983887
vn 0.855225 0.075928 -0.512451
vn 0.361084 0.402100 -0.841064
vn 0.803711 0.399902 -0.440430
vn 0.803711 0.399902 -0.440430
vn 0.532471 0.840332 0.100098
vn 0.856934 0.511719 0.057373
vn -0.608154 -0.163574 -0.776611
vn -0.847412 -0.294678 -0.441406
vn -0.783447 -0.605957 -0.136963
vn -0.062012 -0.718994 -0.691895
vn -0.783447 -0.605957 -0.136963
vn -0.450439 -0.886719 0.102539
vn -0.847412 -0.294678 -0.441406
vn -0.848877 -0.497803 0.176270
vn -0.894287 -0.413330 0.171143
vn 0.894287 0.413330 -0.171143
vn 0.848877 0.497803 -0.176270
vn 0.858643 0.402588 0.316895
vn 0.856934 0.511719 0.057373
vn 0.855225 0.075928 -0.512451
vn 0.803711 0.399902 -0.440430
vn 0.850098 0.103516 0.515869
vn 0.858643 0.402588 0.316895
vn 0.534424 0.297119 0.791016
vn 0.515137 -0.829590 -0.214111
vn 0.841064 -0.439697 -0.314209
vn 0.552002 -0.567383 0.610596
vn 0.629150 -0.240967 -0.738770
vn 0.793213 -0.229248 -0.563721
vn 0.436523 -0.350830 -0.828125
vn 0.075195 0.188965 0.979004
vn 0.102295 0.172363 0.979492
vn 0.079102 0.186523 0.979004
vn -0.079102 -0.186523 -0.979004
vn -0.102295 -0.172363 -0.979492
vn -0.075195 -0.188965 -0.979004
vn 0.436523 -0.350830 -0.828125
vn 0.793213 -0.229248 -0.563721
vn 0.809814 -0.425049 -0.403564
vn 0.526367 0.844971 0.091064
vn 0.538574 0.841309 -0.042236
vn 0.037598 0.968262 0.246582
vn 0.651611 -0.755615 -0.064697
vn 0.809814 -0.425049 -0.403564
vn 0.694336 -0.335205 0.636475
vn 0.856934 0.511719 0.057373
vn 0.968506 0.111816 -0.221924
vn 0.855225 0.075928 -0.512451
vn -0.847412 -0.294678 -0.441406
vn -0.894287 -0.413330 0.171143
vn -0.979004 0.022705 -0.201172
vn 0.993408 0.108887 0.030518
vn 0.894287 0.413330 -0.171143
vn 0.858643 0.402588 0.316895
vn -0.629639 -0.539551 0.558594
vn -0.052734 -0.485840 0.872314
vn -0.398193 -0.522949 0.753418
vn 0.398438 0.522705 -0.753418
vn 0.052979 0.485840 -0.872314
vn 0.437744 0.593262 -0.675293
vn -0.783447 -0.605957 -0.136963
vn -0.847412 -0.294678 -0.441406
vn -0.979004 0.022705 -0.201172
vn 0.523438 -0.267822 -0.808594
vn 0.535889 -0.277344 -0.797119
vn 0.541016 -0.281250 -0.792236
vn -0.531982 0.283447 0.797607
vn -0.527100 0.279785 0.802246
vn -0.515381 0.271240 0.812500
vn 0.809814 -0.425049 -0.403564
vn 0.850098 0.103516 0.515869
vn 0.694336 -0.335205 0.636475
vn -0.629639 -0.539551 0.558594
vn -0.783447 -0.605957 -0.136963
vn -0.967773 0.199951 -0.152100
vn 0.993408 0.108887 0.030518
vn 0.858643 0.402588 0.316895
vn 0.850098 0.103516 0.515869
vn 0.985840 -0.144775 -0.082764
vn 0.809814 -0.425049 -0.403564
vn 0.793213 -0.229248 -0.563721
vn -0.967773 0.199951 -0.152100
vn -0.783447 -0.605957 -0.136963
vn -0.979004 0.022705 -0.201172
vn 0.985840 -0.144775 -0.082764
vn 0.793213 -0.229248 -0.563721
vn 0.933350 -0.142090 -0.328857
vn 0.985840 -0.144775 -0.082764
vn 0.850098 0.103516 0.515869
vn 0.809814 -0.425049 -0.403564
vn 0.565430 -0.299805 -0.768066
vn 0.541016 -0.281250 -0.792236
vn 0.535889 -0.277344 -0.797119
vn -0.554688 0.300781 0.775635
vn -0.527100 0.279785 0.802246
vn -0.531982 0.283447 0.797607
vn 0.993408 0.108887 0.030518
vn 0.850098 0.103516 0.515869
vn 0.985840 -0.144775 -0.082764
vn -0.979004 0.022705 -0.201172
vn -0.999512 -0.021240 -0.020508
vn -0.967773 0.199951 -0.152100
vn 0.985840 -0.144775 -0.082764
vn 0.999512 0.021240 0.020508
vn 0.993408 0.108887 0.030518
vn 0.079102 0.186523 0.979004
vn 0.048340 0.205078 0.977295
vn 0.075195 0.188965 0.979004
vn -0.075195 -0.188965 -0.979004
vn -0.048340 -0.205078 -0.977295
vn -0.079102 -0.186523 -0.979004
vn -0.783447 -0.605957 -0.136963
vn -0.629639 -0.539551 0.558594
vn -0.558350 -0.716553 0.417725
vn 0.609619 0.664551 -0.431396
vn 0.437744 0.593262 -0.675293
vn 0.538574 0.841309 -0.042236
vn -0.558350 -0.716553 0.417725
vn -0.450439 -0.886719 0.102539
vn -0.783447 -0.605957 -0.136963
vn 0.538574 0.841309 -0.042236
vn 0.526367 0.844971 0.091064
vn 0.609619 0.664551 -0.431396
vn -0.398193 -0.522949 0.753418
vn -0.558350 -0.716553 0.417725
vn -0.629639 -0.539551 0.558594
vn 0.437744 0.593262 -0.675293
vn 0.609619 0.664551 -0.431396
vn 0.398438 0.522705 -0.753418
usemtl Texture
f 1/1/1 2/2/2 3/3/3
f 4/4/4 5/5/5 6/6/6
f 7/7/7 8/8/8 9/9/9
f 10/10/10 11/11/11 12/12/12
f 13/13/13 14/14/14 15/15/15
f 16/16/16 17/17/17 18/18/18
f 19/19/19 20/20/20 21/21/21
f 22/22/22 23/23/23 24/24/24
f 25/25/25 26/26/26 27/27/27
f 28/28/28 29/29/29 30/30/30
f 31/31/31 32/32/32 33/33/33
f 34/34/34 35/35/35 36/36/36
f 37/37/37 38/38/38 39/39/39
f 40/40/40 41/41/41 42/42/42
f 43/43/43 44/44/44 45/45/45
f 46/46/46 47/47/47 48/48/48
f 49/49/49 50/50/50 51/51/51
f 52/52/52 53/53/53 54/54/54
f 55/55/55 56/56/56 57/57/57
f 58/58/58 59/59/59 60/60/60
f 61/61/61 62/62/62 63/63/63
f 64/64/64 65/65/65 66/66/66
f 67/67/67 68/68/68 69/69/69
f 70/70/70 71/71/71 72/72/72
f 73/73/73 74/74/74 75/75/75
f 76/76/76 77/77/77 78/78/78
f 79/79/79 80/80/80 81/81/81
f 82/82/82 83/83/83 84/84/84
f 85/85/85 86/86/86 87/87/87
f 88/88/88 89/89/89 90/90/90
f 91/91/91 92/92/92 93/93/93
f 94/94/94 95/95/95 96/96/96
f 97/97/97 98/98/98 99/99/99
f 100/100/100 101/101/101 102/102/102
f 103/103/103 104/104/104 105/105/105
f 106/106/106 107/107/107 108/108/108
f 109/109/109 110/110/110 111/111/111
f 112/112/112 113/113/113 114/114/114
f 115/115/115 116/116/116 117/117/117
f 118/118/118 119/119/119 120/120/120
f 121/121/121 122/122/122 123/123/123
f 124/124/124 125/125/125 126/126/126
f 127/127/127 128/128/128 129/129/129
f 130/130/130 131/131/131 132/132/132
f 133/133/133 134/134/134 135/135/135
f 136/136/136 137/137/137 138/138/138
f 139/139/139 140/140/140 141/141/141
f 142/142/142 143/143/143 144/144/144
f 145/145/145 146/146/146 147/147/147
f 148/148/148 149/149/149 150/150/150
f 151/151/151 152/152/152 153/153/153
f 154/154/154 155/155/155 156/156/156
f 157/157/157 158/158/158 159/159/159
f 160/160/160 161/161/161 162/162/162
f 163/163/163 164/164/164 165/165/165
f 166/166/166 167/167/167 168/168/168
f 169/169/169 170/170/170 171/171/171
f 172/172/172 173/173/173 174/174/174
f 175/175/175 176/176/176 177/177/177
f 178/178/178 179/179/179 180/180/180
f 181/181/181 182/182/182 183/183/183
f 184/184/184 185/185/185 186/186/186
f 187/187/187 188/188/188 189/189/189
f 190/190/190 191/191/191 192/192/192
f 193/193/193 194/194/194 195/195/195
f 196/196/196 197/197/197 198/198/198
f 199/199/199 200/200/200 201/201/201
f 202/202/202 203/203/203 204/204/204
f 205/205/205 206/206/206 207/207/207
f 208/208/208 209/209/209 210/210/210
f 211/211/211 212/212/212 213/213/213
f 214/214/214 215/215/215 216/216/216
f 217/217/217 218/218/218 219/219/219
f 220/220/220 221/221/221 222/222/222
f 223/223/223 224/224/224 225/225/225
f 226/226/226 227/227/227 228/228/228
f 229/229/229 230/230/230 231/231/231
f 232/232/232 233/233/233 234/234/234
f 235/235/235 236/236/236 237/237/237
f 238/238/238 239/239/239 240/240/240
f 241/241/241 242/242/242 243/243/243
f 244/244/244 245/245/245 246/246/246
f 247/247/247 248/248/248 249/249/249
f 250/250/250 251/251/251 252/252/252
f 253/253/253 254/254/254 255/255/255
f 256/256/256 257/257/257 258/258/258
f 259/259/259 260/260/260 261/261/261
f 262/262/262 263/263/263 264/264/264
f 265/265/265 266/266/266 267/267/267
f 268/268/268 269/269/269 270/270/270
f 271/271/271 272/272/272 273/273/273
f 274/274/274 275/275/275 276/276/276
f 277/277/277 278/278/278 279/279/279
f 280/280/280 281/281/281 282/282/282
f 283/283/283 284/284/284 285/285/285
f 286/286/286 287/287/287 288/288/288
f 289/289/289 290/290/290 291/291/291
f 292/292/292 293/293/293 294/294/294
f 295/295/295 296/296/296 297/297/297
f 298/298/298 299/299/299 300/300/300
f 301/301/301 302/302/302 303/303/303
f 304/304/304 305/305/305 306/306/306
f 307/307/307 308/308/308 309/309/309
f 310/310/310 311/311/311 312/312/312
f 313/313/313 314/314/314 315/315/315
f 316/316/316 317/317/317 318/318/318
f 319/319/319 320/320/320 321/321/321
f 322/322/322 323/323/323 324/324/324
f 325/325/325 326/326/326 327/327/327
f 328/328/328 329/329/329 330/330/330
f 331/331/331 332/332/332 333/333/333
f 334/334/334 335/335/335 336/336/336
f 337/337/337 338/338/338 339/339/339
f 340/340/340 341/341/341 342/342/342
f 343/343/343 344/344/344 345/345/345
f 346/346/346 347/347/347 348/348/348
f 349/349/349 350/350/350 351/351/351
f 352/352/352 353/353/353 354/354/354
f 355/355/355 356/356/356 357/357/357
f 358/358/358 359/359/359 360/360/360
f 361/361/361 362/362/362 363/363/363
f 364/364/364 365/365/365 366/366/366
f 367/367/367 368/368/368 369/369/369
f 370/370/370 371/371/371 372/372/372
f 373/373/373 374/374/374 375/375/375
f 376/376/376 377/377/377 378/378/378
f 379/379/379 380/380/380 381/381/381
f 382/382/382 383/383/383 384/384/384
f 385/385/385 386/386/386 387/387/387
f 388/388/388 389/389/389 390/390/390
f 391/391/391 392/392/392 393/393/393
f 394/394/394 395/395/395 396/396/396
f 397/397/397 398/398/398 399/399/399
f 400/400/400 401/401/401 402/402/402
f 403/403/403 404/404/404 405/405/405
f 406/406/406 407/407/407 408/408/408
f 409/409/409 410/410/410 411/411/411
f 412/412/412 413/413/413 414/414/414
f 415/415/415 416/416/416 417/417/417
f 418/418/418 419/419/419 420/420/420
f 421/421/421 422/422/422 423/423/423
f 424/424/424 425/425/425 426/426/426
f 427/427/427 428/428/428 429/429/429
f 430/430/430 431/431/431 432/432/432
f 433/433/433 434/434/434 435/435/435
f 436/436/436 437/437/437 438/438/438
f 439/439/439 440/440/440 441/441/441
f 442/442/442 443/443/443 444/444/444
f 445/445/445 446/446/446 447/447/447
f 448/448/448 449/449/449 450/450/450
f 451/451/451 452/452/452 453/453/453
f 454/454/454 455/455/455 456/456/456
f 457/457/457 458/458/458 459/459/459
f 460/460/460 461/461/461 462/462/462
f 463/463/463 464/464/464 465/465/465
f 466/466/466 467/467/467 468/468/468
f 469/469/469 470/470/470 471/471/471
f 472/472/472 473/473/473 474/474/474
f 475/475/475 476/476/476 477/477/477
f 478/478/478 479/479/479 480/480/480
f 481/481/481 482/482/482 483/483/483
f 484/484/484 485/485/485 486/486/486
f 487/487/487 488/488/488 489/489/489
f 490/490/490 491/491/491 492/492/492
f 493/493/493 494/494/494 495/495/495
f 496/496/496 497/497/497 498/498/498
f 499/499/499 500/500/500 501/501/501
f 502/502/502 503/503/503 504/504/504
f 505/505/505 506/506/506 507/507/507
f 508/508/508 509/509/509 510/510/510
f 511/511/511 512/512/512 513/513/513
f 514/514/514 515/515/515 516/516/516
f 517/517/517 518/518/518 519/519/519
f 520/520/520 521/521/521 522/522/522
f 523/523/523 524/524/524 525/525/525
f 526/526/526 527/527/527 528/528/528
f 529/529/529 530/530/530 531/531/531
f 532/532/532 533/533/533 534/534/534
f 535/535/535 536/536/536 537/537/537
f 538/538/538 539/539/539 540/540/540
f 541/541/541 542/542/542 543/543/543
f 544/544/544 545/545/545 546/546/546
f 547/547/547 548/548/548 549/549/549
f 550/550/550 551/551/551 552/552/552
f 553/553/553 554/554/554 555/555/555
f 556/556/556 557/557/557 558/558/558
f 559/559/559 560/560/560 561/561/561
f 562/562/562 563/563/563 564/564/564
f 565/565/565 566/566/566 567/567/567
f 568/568/568 569/569/569 570/570/570
f 571/571/571 572/572/572 573/573/573
f 574/574/574 575/575/575 576/576/576
f 577/577/577 578/578/578 579/579/579
f 580/580/580 581/581/581 582/582/582
f 583/583/583 584/584/584 585/585/585
f 586/586/586 587/587/587 588/588/588
f 589/589/589 590/590/590 591/591/591
f 592/592/592 593/593/593 594/594/594
f 595/595/595 596/596/596 597/597/597
f 598/598/598 599/599/599 600/600/600
f 601/601/601 602/602/602 603/603/603
f 604/604/604 605/605/605 606/606/606
f 607/607/607 608/608/608 609/609/609
f 610/610/610 611/611/611 612/612/612
f 613/613/613 614/614/614 615/615/615
f 616/616/616 617/617/617 618/618/618
f 619/619/619 620/620/620 621/621/621
f 622/622/622 623/623/623 624/624/624
f 625/625/625 626/626/626 627/627/627
f 628/628/628 629/629/629 630/630/630
f 631/631/631 632/632/632 633/633/633
f 634/634/634 635/635/635 636/636/636