# OBJ file
mtllib SAVE.ICO.mtl
v -0.412354 1.319336 -0.161621 0.498039 0.498039 0.498039 #0.000000
v -0.327148 1.319336 -0.161621 0.498039 0.498039 0.498039 #0.000000
v -0.412354 1.319336 0.161621 0.498039 0.498039 0.498039 #0.000000
v -0.327148 1.319336 -0.161621 0.498039 0.498039 0.498039 #0.000000
v -0.327148 1.319336 0.161621 0.498039 0.498039 0.498039 #0.000000
v -0.412354 1.319336 0.161621 0.498039 0.498039 0.498039 #0.000000
v -0.188965 1.915039 -0.161621 0.498039 0.498039 0.498039 #0.000000
v -0.486816 1.915039 0.161621 0.498039 0.498039 0.498039 #0.000000
v -0.188965 1.915039 0.161621 0.498039 0.498039 0.498039 #0.000000
v -0.486816 1.915039 -0.161621 0.498039 0.498039 0.498039 #0.000000
v -0.486816 1.915039 0.161621 0.498039 0.498039 0.498039 #0.000000
v -0.188965 1.915039 -0.161621 0.498039 0.498039 0.498039 #0.000000
v 0.672607 1.361816 -0.161621 0.498039 0.498039 0.498039 #0.000000
v 0.598145 1.627686 -0.161621 0.498039 0.498039 0.498039 #0.000000
v 0.672607 1.361816 0.161621 0.498039 0.498039 0.498039 #0.000000
v 0.672607 1.361816 0.161621 0.498039 0.498039 0.498039 #0.000000
v 0.598145 1.627686 -0.161621 0.498039 0.498039 0.498039 #0.000000
v 0.598145 1.627686 0.161621 0.498039 0.498039 0.498039 #0.000000
v 0.672607 1.361816 -0.161621 0.498039 0.498039 0.498039 #0.000000
v 0.449219 1.393799 -0.161621 0.498039 0.498039 0.498039 #0.000000
v 0.598145 1.627686 -0.161621 0.498039 0.498039 0.498039 #0.000000
v 0.449219 1.319336 -0.161621 0.498039 0.498039 0.498039 #0.000000
v 0.449219 1.393799 -0.161621 0.498039 0.498039 0.498039 #0.000000
v 0.672607 1.361816 -0.161621 0.498039 0.498039 0.498039 #0.000000
v -0.327148 1.319336 -0.161621 0.498039 0.498039 0.498039 #0.000000
v -0.327148 1.393799 -0.161621 0.498039 0.498039 0.498039 #0.000000
v 0.449219 1.393799 -0.161621 0.498039 0.498039 0.498039 #0.000000
v -0.327148 1.319336 -0.161621 0.498039 0.498039 0.498039 #0.000000
v 0.449219 1.393799 -0.161621 0.498039 0.498039 0.498039 #0.000000
v 0.449219 1.319336 -0.161621 0.498039 0.498039 0.498039 #0.000000
v 0.449219 1.393799 0.161621 0.498039 0.498039 0.498039 #0.000000
v 0.598145 1.627686 0.161621 0.498039 0.498039 0.498039 #0.000000
v 0.598145 1.627686 -0.161621 0.498039 0.498039 0.498039 #0.000000
v 0.449219 1.393799 -0.161621 0.498039 0.498039 0.498039 #0.000000
v 0.449219 1.393799 0.161621 0.498039 0.498039 0.498039 #0.000000
v 0.598145 1.627686 -0.161621 0.498039 0.498039 0.498039 #0.000000
v 0.449219 1.393799 -0.161621 0.498039 0.498039 0.498039 #0.000000
v -0.327148 1.393799 0.161621 0.498039 0.498039 0.498039 #0.000000
v 0.449219 1.393799 0.161621 0.498039 0.498039 0.498039 #0.000000
v -0.327148 1.393799 -0.161621 0.498039 0.498039 0.498039 #0.000000
v -0.327148 1.393799 0.161621 0.498039 0.498039 0.498039 #0.000000
v 0.449219 1.393799 -0.161621 0.498039 0.498039 0.498039 #0.000000
v 0.672607 1.361816 0.161621 0.498039 0.498039 0.498039 #0.000000
v 0.598145 1.627686 0.161621 0.498039 0.498039 0.498039 #0.000000
v 0.449219 1.393799 0.161621 0.498039 0.498039 0.498039 #0.000000
v 0.449219 1.319336 0.161621 0.498039 0.498039 0.498039 #0.000000
v 0.672607 1.361816 0.161621 0.498039 0.498039 0.498039 #0.000000
v 0.449219 1.393799 0.161621 0.498039 0.498039 0.498039 #0.000000
v -0.327148 1.319336 0.161621 0.498039 0.498039 0.498039 #0.000000
v 0.449219 1.319336 0.161621 0.498039 0.498039 0.498039 #0.000000
v -0.327148 1.393799 0.161621 0.498039 0.498039 0.498039 #0.000000
v 0.449219 1.319336 0.161621 0.498039 0.498039 0.498039 #0.000000
v 0.449219 1.393799 0.161621 0.498039 0.498039 0.498039 #0.000000
v -0.327148 1.393799 0.161621 0.498039 0.498039 0.498039 #0.000000
v 0.449219 1.319336 0.161621 0.498039 0.498039 0.498039 #0.000000
v 0.672607 1.361816 -0.161621 0.498039 0.498039 0.498039 #0.000000
v 0.672607 1.361816 0.161621 0.498039 0.498039 0.498039 #0.000000
v 0.449219 1.319336 -0.161621 0.498039 0.498039 0.498039 #0.000000
v 0.672607 1.361816 -0.161621 0.498039 0.498039 0.498039 #0.000000
v 0.449219 1.319336 0.161621 0.498039 0.498039 0.498039 #0.000000
v -0.327148 1.319336 -0.161621 0.498039 0.498039 0.498039 #0.000000
v 0.449219 1.319336 -0.161621 0.498039 0.498039 0.498039 #0.000000
v -0.327148 1.319336 0.161621 0.498039 0.498039 0.498039 #0.000000
v 0.449219 1.319336 -0.161621 0.498039 0.498039 0.498039 #0.000000
v 0.449219 1.319336 0.161621 0.498039 0.498039 0.498039 #0.000000
v -0.327148 1.319336 0.161621 0.498039 0.498039 0.498039 #0.000000
v -0.412354 1.751709 -0.161621 0.498039 0.498039 0.498039 #0.000000
v -0.486816 1.915039 0.161621 0.498039 0.498039 0.498039 #0.000000
v -0.486816 1.915039 -0.161621 0.498039 0.498039 0.498039 #0.000000
v -0.412354 1.751709 -0.161621 0.498039 0.498039 0.498039 #0.000000
v -0.412354 1.751709 0.161621 0.498039 0.498039 0.498039 #0.000000
v -0.486816 1.915039 0.161621 0.498039 0.498039 0.498039 #0.000000
v -0.412354 1.319336 -0.161621 0.498039 0.498039 0.498039 #0.000000
v -0.412354 1.319336 0.161621 0.498039 0.498039 0.498039 #0.000000
v -0.412354 1.751709 0.161621 0.498039 0.498039 0.498039 #0.000000
v -0.412354 1.319336 -0.161621 0.498039 0.498039 0.498039 #0.000000
v -0.412354 1.751709 0.161621 0.498039 0.498039 0.498039 #0.000000
v -0.412354 1.751709 -0.161621 0.498039 0.498039 0.498039 #0.000000
v -0.412354 1.319336 0.161621 0.498039 0.498039 0.498039 #0.000000
v -0.327148 1.319336 0.161621 0.498039 0.498039 0.498039 #0.000000
v -0.327148 1.393799 0.161621 0.498039 0.498039 0.498039 #0.000000
v -0.412354 1.319336 0.161621 0.498039 0.498039 0.498039 #0.000000
v -0.327148 1.393799 0.161621 0.498039 0.498039 0.498039 #0.000000
v -0.412354 1.751709 0.161621 0.498039 0.498039 0.498039 #0.000000
v -0.327148 1.393799 0.161621 0.498039 0.498039 0.498039 #0.000000
v -0.327148 1.796875 0.161621 0.498039 0.498039 0.498039 #0.000000
v -0.412354 1.751709 0.161621 0.498039 0.498039 0.498039 #0.000000
v -0.412354 1.751709 0.161621 0.498039 0.498039 0.498039 #0.000000
v -0.327148 1.796875 0.161621 0.498039 0.498039 0.498039 #0.000000
v -0.486816 1.915039 0.161621 0.498039 0.498039 0.498039 #0.000000
v -0.327148 1.796875 0.161621 0.498039 0.498039 0.498039 #0.000000
v -0.188965 1.915039 0.161621 0.498039 0.498039 0.498039 #0.000000
v -0.486816 1.915039 0.161621 0.498039 0.498039 0.498039 #0.000000
v -0.327148 1.393799 -0.161621 0.498039 0.498039 0.498039 #0.000000
v -0.327148 1.796875 0.161621 0.498039 0.498039 0.498039 #0.000000
v -0.327148 1.393799 0.161621 0.498039 0.498039 0.498039 #0.000000
v -0.327148 1.393799 -0.161621 0.498039 0.498039 0.498039 #0.000000
v -0.327148 1.796875 -0.161621 0.498039 0.498039 0.498039 #0.000000
v -0.327148 1.796875 0.161621 0.498039 0.498039 0.498039 #0.000000
v -0.327148 1.796875 0.161621 0.498039 0.498039 0.498039 #0.000000
v -0.188965 1.915039 -0.161621 0.498039 0.498039 0.498039 #0.000000
v -0.188965 1.915039 0.161621 0.498039 0.498039 0.498039 #0.000000
v -0.327148 1.796875 -0.161621 0.498039 0.498039 0.498039 #0.000000
v -0.188965 1.915039 -0.161621 0.498039 0.498039 0.498039 #0.000000
v -0.327148 1.796875 0.161621 0.498039 0.498039 0.498039 #0.000000
v -0.327148 1.393799 -0.161621 0.498039 0.498039 0.498039 #0.000000
v -0.412354 1.751709 -0.161621 0.498039 0.498039 0.498039 #0.000000
v -0.327148 1.796875 -0.161621 0.498039 0.498039 0.498039 #0.000000
v -0.412354 1.319336 -0.161621 0.498039 0.498039 0.498039 #0.000000
v -0.412354 1.751709 -0.161621 0.498039 0.498039 0.498039 #0.000000
v -0.327148 1.393799 -0.161621 0.498039 0.498039 0.498039 #0.000000
v -0.412354 1.319336 -0.161621 0.498039 0.498039 0.498039 #0.000000
v -0.327148 1.393799 -0.161621 0.498039 0.498039 0.498039 #0.000000
v -0.327148 1.319336 -0.161621 0.498039 0.498039 0.498039 #0.000000
v -0.412354 1.751709 -0.161621 0.498039 0.498039 0.498039 #0.000000
v -0.486816 1.915039 -0.161621 0.498039 0.498039 0.498039 #0.000000
v -0.327148 1.796875 -0.161621 0.498039 0.498039 0.498039 #0.000000
v -0.327148 1.796875 -0.161621 0.498039 0.498039 0.498039 #0.000000
v -0.486816 1.915039 -0.161621 0.498039 0.498039 0.498039 #0.000000
v -0.188965 1.915039 -0.161621 0.498039 0.498039 0.498039 #0.000000
v 1.427979 2.734375 0.180664 0.498039 0.498039 0.498039 #0.000000
v 1.523926 2.734375 0.180664 0.498039 0.498039 0.498039 #0.000000
v 1.470703 2.883301 0.138184 0.498039 0.498039 0.498039 #0.000000
v 1.427979 2.734375 0.180664 0.498039 0.498039 0.498039 #0.000000
v 1.470703 2.883301 0.138184 0.498039 0.498039 0.498039 #0.000000
v 1.427979 2.883301 0.138184 0.498039 0.498039 0.498039 #0.000000
v 1.427979 2.734375 0.052979 0.498039 0.498039 0.498039 #0.000000
v 1.523926 2.734375 0.052979 0.498039 0.498039 0.498039 #0.000000
v 1.427979 2.734375 0.180664 0.498039 0.498039 0.498039 #0.000000
v 1.523926 2.734375 0.052979 0.498039 0.498039 0.498039 #0.000000
v 1.523926 2.734375 0.180664 0.498039 0.498039 0.498039 #0.000000
v 1.427979 2.734375 0.180664 0.498039 0.498039 0.498039 #0.000000
v 1.523926 2.734375 0.052979 0.498039 0.498039 0.498039 #0.000000
v 1.470703 2.883301 0.138184 0.498039 0.498039 0.498039 #0.000000
v 1.523926 2.734375 0.180664 0.498039 0.498039 0.498039 #0.000000
v 1.523926 2.734375 0.052979 0.498039 0.498039 0.498039 #0.000000
v 1.470703 2.883301 0.052979 0.498039 0.498039 0.498039 #0.000000
v 1.470703 2.883301 0.138184 0.498039 0.498039 0.498039 #0.000000
v 1.470703 2.883301 0.052979 0.498039 0.498039 0.498039 #0.000000
v 1.427979 2.883301 0.138184 0.498039 0.498039 0.498039 #0.000000
v 1.470703 2.883301 0.138184 0.498039 0.498039 0.498039 #0.000000
v 1.427979 2.883301 0.052979 0.498039 0.498039 0.498039 #0.000000
v 1.427979 2.883301 0.138184 0.498039 0.498039 0.498039 #0.000000
v 1.470703 2.883301 0.052979 0.498039 0.498039 0.498039 #0.000000
v 1.427979 2.734375 0.052979 0.498039 0.498039 0.498039 #0.000000
v 1.427979 2.734375 0.180664 0.498039 0.498039 0.498039 #0.000000
v 1.427979 2.883301 0.138184 0.498039 0.498039 0.498039 #0.000000
v 1.427979 2.734375 0.052979 0.498039 0.498039 0.498039 #0.000000
v 1.427979 2.883301 0.138184 0.498039 0.498039 0.498039 #0.000000
v 1.427979 2.883301 0.052979 0.498039 0.498039 0.498039 #0.000000
v 1.427979 2.734375 0.052979 0.498039 0.498039 0.498039 #0.000000
v 1.427979 2.883301 0.052979 0.498039 0.498039 0.498039 #0.000000
v 1.470703 2.883301 0.052979 0.498039 0.498039 0.498039 #0.000000
v 1.427979 2.734375 0.052979 0.498039 0.498039 0.498039 #0.000000
v 1.470703 2.883301 0.052979 0.498039 0.498039 0.498039 #0.000000
v 1.523926 2.734375 0.052979 0.498039 0.498039 0.498039 #0.000000
v 1.427979 2.734375 -0.180664 0.498039 0.498039 0.498039 #0.000000
v 1.427979 2.883301 -0.138184 0.498039 0.498039 0.498039 #0.000000
v 1.470703 2.883301 -0.138184 0.498039 0.498039 0.498039 #0.000000
v 1.427979 2.734375 -0.180664 0.498039 0.498039 0.498039 #0.000000
v 1.470703 2.883301 -0.138184 0.498039 0.498039 0.498039 #0.000000
v 1.523926 2.734375 -0.180664 0.498039 0.498039 0.498039 #0.000000
v 1.427979 2.734375 -0.180664 0.498039 0.498039 0.498039 #0.000000
v 1.523926 2.734375 -0.180664 0.498039 0.498039 0.498039 #0.000000
v 1.427979 2.734375 -0.052979 0.498039 0.498039 0.498039 #0.000000
v 1.523926 2.734375 -0.180664 0.498039 0.498039 0.498039 #0.000000
v 1.523926 2.734375 -0.052979 0.498039 0.498039 0.498039 #0.000000
v 1.427979 2.734375 -0.052979 0.498039 0.498039 0.498039 #0.000000
v 1.523926 2.734375 -0.180664 0.498039 0.498039 0.498039 #0.000000
v 1.470703 2.883301 -0.138184 0.498039 0.498039 0.498039 #0.000000
v 1.523926 2.734375 -0.052979 0.498039 0.498039 0.498039 #0.000000
v 1.523926 2.734375 -0.052979 0.498039 0.498039 0.498039 #0.000000
v 1.470703 2.883301 -0.138184 0.498039 0.498039 0.498039 #0.000000
v 1.470703 2.883301 -0.052979 0.498039 0.498039 0.498039 #0.000000
v 1.427979 2.883301 -0.138184 0.498039 0.498039 0.498039 #0.000000
v 1.427979 2.883301 -0.052979 0.498039 0.498039 0.498039 #0.000000
v 1.470703 2.883301 -0.138184 0.498039 0.498039 0.498039 #0.000000
v 1.470703 2.883301 -0.138184 0.498039 0.498039 0.498039 #0.000000
v 1.427979 2.883301 -0.052979 0.498039 0.498039 0.498039 #0.000000
v 1.470703 2.883301 -0.052979 0.498039 0.498039 0.498039 #0.000000
v 1.427979 2.734375 -0.180664 0.498039 0.498039 0.498039 #0.000000
v 1.427979 2.734375 -0.052979 0.498039 0.498039 0.498039 #0.000000
v 1.427979 2.883301 -0.138184 0.498039 0.498039 0.498039 #0.000000
v 1.427979 2.734375 -0.052979 0.498039 0.498039 0.498039 #0.000000
v 1.427979 2.883301 -0.052979 0.498039 0.498039 0.498039 #0.000000
v 1.427979 2.883301 -0.138184 0.498039 0.498039 0.498039 #0.000000
v 1.427979 2.734375 -0.052979 0.498039 0.498039 0.498039 #0.000000
v 1.523926 2.734375 -0.052979 0.498039 0.498039 0.498039 #0.000000
v 1.470703 2.883301 -0.052979 0.498039 0.498039 0.498039 #0.000000
v 1.427979 2.734375 -0.052979 0.498039 0.498039 0.498039 #0.000000
v 1.470703 2.883301 -0.052979 0.498039 0.498039 0.498039 #0.000000
v 1.427979 2.883301 -0.052979 0.498039 0.498039 0.498039 #0.000000
v -1.839355 2.749268 0.042969 0.498039 0.498039 0.498039 #0.000000
v -1.647705 2.749268 0.042969 0.498039 0.498039 0.498039 #0.000000
v -1.741455 2.872559 0.042969 0.498039 0.498039 0.498039 #0.000000
v -1.647705 2.749268 0.042969 0.498039 0.498039 0.498039 #0.000000
v -1.694580 2.872559 0.042969 0.498039 0.498039 0.498039 #0.000000
v -1.741455 2.872559 0.042969 0.498039 0.498039 0.498039 #0.000000
v -1.839355 2.749268 -0.042969 0.498039 0.498039 0.498039 #0.000000
v -1.647705 2.749268 -0.042969 0.498039 0.498039 0.498039 #0.000000
v -1.839355 2.749268 0.042969 0.498039 0.498039 0.498039 #0.000000
v -1.647705 2.749268 -0.042969 0.498039 0.498039 0.498039 #0.000000
v -1.647705 2.749268 0.042969 0.498039 0.498039 0.498039 #0.000000
v -1.839355 2.749268 0.042969 0.498039 0.498039 0.498039 #0.000000
v -1.647705 2.749268 -0.042969 0.498039 0.498039 0.498039 #0.000000
v -1.694580 2.872559 0.042969 0.498039 0.498039 0.498039 #0.000000
v -1.647705 2.749268 0.042969 0.498039 0.498039 0.498039 #0.000000
v -1.647705 2.749268 -0.042969 0.498039 0.498039 0.498039 #0.000000
v -1.694580 2.872559 -0.042969 0.498039 0.498039 0.498039 #0.000000
v -1.694580 2.872559 0.042969 0.498039 0.498039 0.498039 #0.000000
v -1.694580 2.872559 -0.042969 0.498039 0.498039 0.498039 #0.000000
v -1.741455 2.872559 0.042969 0.498039 0.498039 0.498039 #0.000000
v -1.694580 2.872559 0.042969 0.498039 0.498039 0.498039 #0.000000
v -1.741455 2.872559 -0.042969 0.498039 0.498039 0.498039 #0.000000
v -1.741455 2.872559 0.042969 0.498039 0.498039 0.498039 #0.000000
v -1.694580 2.872559 -0.042969 0.498039 0.498039 0.498039 #0.000000
v -1.839355 2.749268 0.042969 0.498039 0.498039 0.498039 #0.000000
v -1.741455 2.872559 0.042969 0.498039 0.498039 0.498039 #0.000000
v -1.741455 2.872559 -0.042969 0.498039 0.498039 0.498039 #0.000000
v -1.839355 2.749268 -0.042969 0.498039 0.498039 0.498039 #0.000000
v -1.839355 2.749268 0.042969 0.498039 0.498039 0.498039 #0.000000
v -1.741455 2.872559 -0.042969 0.498039 0.498039 0.498039 #0.000000
v -1.839355 2.749268 -0.042969 0.498039 0.498039 0.498039 #0.000000
v -1.741455 2.872559 -0.042969 0.498039 0.498039 0.498039 #0.000000
v -1.647705 2.749268 -0.042969 0.498039 0.498039 0.498039 #0.000000
v -1.647705 2.749268 -0.042969 0.498039 0.498039 0.498039 #0.000000
v -1.741455 2.872559 -0.042969 0.498039 0.498039 0.498039 #0.000000
v -1.694580 2.872559 -0.042969 0.498039 0.498039 0.498039 #0.000000
v -1.995605 2.617188 -0.108154 0.498039 0.498039 0.498039 #0.000000
v -1.995605 2.617188 0.108154 0.498039 0.498039 0.498039 #0.000000
v -1.995605 2.662109 0.000000 0.498039 0.498039 0.498039 #0.000000
v -1.995605 2.508789 0.153076 0.498039 0.498039 0.498039 #0.000000
v -1.995605 2.617188 0.108154 0.498039 0.498039 0.498039 #0.000000
v -1.995605 2.617188 -0.108154 0.498039 0.498039 0.498039 #0.000000
v -1.995605 2.400391 0.108154 0.498039 0.498039 0.498039 #0.000000
v -1.995605 2.508789 0.153076 0.498039 0.498039 0.498039 #0.000000
v -1.995605 2.617188 -0.108154 0.498039 0.498039 0.498039 #0.000000
v -1.995605 2.400391 0.108154 0.498039 0.498039 0.498039 #0.000000
v -1.995605 2.617188 -0.108154 0.498039 0.498039 0.498039 #0.000000
v -1.995605 2.508789 -0.153076 0.498039 0.498039 0.498039 #0.000000
v -1.995605 2.355469 0.000000 0.498039 0.498039 0.498039 #0.000000
v -1.995605 2.508789 -0.153076 0.498039 0.498039 0.498039 #0.000000
v -1.995605 2.400391 -0.108154 0.498039 0.498039 0.498039 #0.000000
v -1.995605 2.355469 0.000000 0.498039 0.498039 0.498039 #0.000000
v -1.995605 2.400391 0.108154 0.498039 0.498039 0.498039 #0.000000
v -1.995605 2.508789 -0.153076 0.498039 0.498039 0.498039 #0.000000
v -1.995605 2.617188 -0.108154 0.498039 0.498039 0.498039 #0.000000
v -1.995605 2.662109 0.000000 0.498039 0.498039 0.498039 #0.000000
v -1.880615 2.617188 -0.108154 0.498039 0.498039 0.498039 #0.000000
v -1.880615 2.617188 -0.108154 0.498039 0.498039 0.498039 #0.000000
v -1.995605 2.662109 0.000000 0.498039 0.498039 0.498039 #0.000000
v -1.880615 2.662109 0.000000 0.498039 0.498039 0.498039 #0.000000
v -1.995605 2.508789 -0.153076 0.498039 0.498039 0.498039 #0.000000
v -1.995605 2.617188 -0.108154 0.498039 0.498039 0.498039 #0.000000
v -1.880615 2.508789 -0.153076 0.498039 0.498039 0.498039 #0.000000
v -1.880615 2.508789 -0.153076 0.498039 0.498039 0.498039 #0.000000
v -1.995605 2.617188 -0.108154 0.498039 0.498039 0.498039 #0.000000
v -1.880615 2.617188 -0.108154 0.498039 0.498039 0.498039 #0.000000
v -1.995605 2.400391 -0.108154 0.498039 0.498039 0.498039 #0.000000
v -1.995605 2.508789 -0.153076 0.498039 0.498039 0.498039 #0.000000
v -1.880615 2.400391 -0.108154 0.498039 0.498039 0.498039 #0.000000
v -1.880615 2.400391 -0.108154 0.498039 0.498039 0.498039 #0.000000
v -1.995605 2.508789 -0.153076 0.498039 0.498039 0.498039 #0.000000
v -1.880615 2.508789 -0.153076 0.498039 0.498039 0.498039 #0.000000
v -1.995605 2.355469 0.000000 0.498039 0.498039 0.498039 #0.000000
v -1.995605 2.400391 -0.108154 0.498039 0.498039 0.498039 #0.000000
v -1.880615 2.400391 -0.108154 0.498039 0.498039 0.498039 #0.000000
v -1.995605 2.355469 0.000000 0.498039 0.498039 0.498039 #0.000000
v -1.880615 2.400391 -0.108154 0.498039 0.498039 0.498039 #0.000000
v -1.880615 2.355469 0.000000 0.498039 0.498039 0.498039 #0.000000
v -1.995605 2.355469 0.000000 0.498039 0.498039 0.498039 #0.000000
v -1.880615 2.355469 0.000000 0.498039 0.498039 0.498039 #0.000000
v -1.995605 2.400391 0.108154 0.498039 0.498039 0.498039 #0.000000
v -1.880615 2.355469 0.000000 0.498039 0.498039 0.498039 #0.000000
v -1.880615 2.400391 0.108154 0.498039 0.498039 0.498039 #0.000000
v -1.995605 2.400391 0.108154 0.498039 0.498039 0.498039 #0.000000
v -1.995605 2.400391 0.108154 0.498039 0.498039 0.498039 #0.000000
v -1.880615 2.400391 0.108154 0.498039 0.498039 0.498039 #0.000000
v -1.995605 2.508789 0.153076 0.498039 0.498039 0.498039 #0.000000
v -1.880615 2.400391 0.108154 0.498039 0.498039 0.498039 #0.000000
v -1.880615 2.508789 0.153076 0.498039 0.498039 0.498039 #0.000000
v -1.995605 2.508789 0.153076 0.498039 0.498039 0.498039 #0.000000
v -1.995605 2.508789 0.153076 0.498039 0.498039 0.498039 #0.000000
v -1.880615 2.508789 0.153076 0.498039 0.498039 0.498039 #0.000000
v -1.995605 2.617188 0.108154 0.498039 0.498039 0.498039 #0.000000
v -1.880615 2.508789 0.153076 0.498039 0.498039 0.498039 #0.000000
v -1.880615 2.617188 0.108154 0.498039 0.498039 0.498039 #0.000000
v -1.995605 2.617188 0.108154 0.498039 0.498039 0.498039 #0.000000
v -1.995605 2.617188 0.108154 0.498039 0.498039 0.498039 #0.000000
v -1.880615 2.617188 0.108154 0.498039 0.498039 0.498039 #0.000000
v -1.880615 2.662109 0.000000 0.498039 0.498039 0.498039 #0.000000
v -1.995605 2.617188 0.108154 0.498039 0.498039 0.498039 #0.000000
v -1.880615 2.662109 0.000000 0.498039 0.498039 0.498039 #0.000000
v -1.995605 2.662109 0.000000 0.498039 0.498039 0.498039 #0.000000
v -1.880615 2.617188 -0.108154 0.498039 0.498039 0.498039 #0.000000
v -1.880615 2.662109 0.000000 0.498039 0.498039 0.498039 #0.000000
v -1.880615 2.617188 0.108154 0.498039 0.498039 0.498039 #0.000000
v -1.880615 2.508789 0.153076 0.498039 0.498039 0.498039 #0.000000
v -1.880615 2.617188 -0.108154 0.498039 0.498039 0.498039 #0.000000
v -1.880615 2.617188 0.108154 0.498039 0.498039 0.498039 #0.000000
v -1.880615 2.400391 0.108154 0.498039 0.498039 0.498039 #0.000000
v -1.880615 2.617188 -0.108154 0.498039 0.498039 0.498039 #0.000000
v -1.880615 2.508789 0.153076 0.498039 0.498039 0.498039 #0.000000
v -1.880615 2.400391 0.108154 0.498039 0.498039 0.498039 #0.000000
v -1.880615 2.508789 -0.153076 0.498039 0.498039 0.498039 #0.000000
v -1.880615 2.617188 -0.108154 0.498039 0.498039 0.498039 #0.000000
v -1.880615 2.355469 0.000000 0.498039 0.498039 0.498039 #0.000000
v -1.880615 2.508789 -0.153076 0.498039 0.498039 0.498039 #0.000000
v -1.880615 2.400391 0.108154 0.498039 0.498039 0.498039 #0.000000
v -1.880615 2.355469 0.000000 0.498039 0.498039 0.498039 #0.000000
v -1.880615 2.400391 -0.108154 0.498039 0.498039 0.498039 #0.000000
v -1.880615 2.508789 -0.153076 0.498039 0.498039 0.498039 #0.000000
v 1.447266 1.531982 0.260254 0.498039 0.498039 0.498039 #0.000000
v 1.354004 1.915039 -0.260254 0.498039 0.498039 0.498039 #0.000000
v 1.354004 1.915039 0.260254 0.498039 0.498039 0.498039 #0.000000
v 1.447266 1.531982 -0.260254 0.498039 0.498039 0.498039 #0.000000
v 1.354004 1.915039 -0.260254 0.498039 0.498039 0.498039 #0.000000
v 1.447266 1.531982 0.260254 0.498039 0.498039 0.498039 #0.000000
v 1.942139 0.723389 -0.260254 0.498039 0.498039 0.498039 #0.000000
v 1.447266 1.531982 0.260254 0.498039 0.498039 0.498039 #0.000000
v 1.942139 0.723389 0.260254 0.498039 0.498039 0.498039 #0.000000
v 1.942139 0.723389 -0.260254 0.498039 0.498039 0.498039 #0.000000
v 1.447266 1.531982 -0.260254 0.498039 0.498039 0.498039 #0.000000
v 1.447266 1.531982 0.260254 0.498039 0.498039 0.498039 #0.000000
v 1.995605 0.216309 0.260254 0.498039 0.498039 0.498039 #0.000000
v 1.942139 0.723389 -0.260254 0.498039 0.498039 0.498039 #0.000000
v 1.942139 0.723389 0.260254 0.498039 0.498039 0.498039 #0.000000
v 1.995605 0.216309 -0.260254 0.498039 0.498039 0.498039 #0.000000
v 1.942139 0.723389 -0.260254 0.498039 0.498039 0.498039 #0.000000
v 1.995605 0.216309 0.260254 0.498039 0.498039 0.498039 #0.000000
v 1.843018 0.127441 -0.260254 0.498039 0.498039 0.498039 #0.000000
v 1.995605 0.216309 -0.260254 0.498039 0.498039 0.498039 #0.000000
v 1.843018 0.127441 0.260254 0.498039 0.498039 0.498039 #0.000000
v 1.843018 0.127441 0.260254 0.498039 0.498039 0.498039 #0.000000
v 1.995605 0.216309 -0.260254 0.498039 0.498039 0.498039 #0.000000
v 1.995605 0.216309 0.260254 0.498039 0.498039 0.498039 #0.000000
v 1.800537 0.000000 -0.217529 0.498039 0.498039 0.498039 #0.000000
v 1.843018 0.127441 -0.260254 0.498039 0.498039 0.498039 #0.000000
v 1.800537 0.000000 0.217529 0.498039 0.498039 0.498039 #0.000000
v 1.800537 0.000000 0.217529 0.498039 0.498039 0.498039 #0.000000
v 1.843018 0.127441 -0.260254 0.498039 0.498039 0.498039 #0.000000
v 1.843018 0.127441 0.260254 0.498039 0.498039 0.498039 #0.000000
v 1.630371 2.170410 -0.260254 0.498039 0.498039 0.498039 #0.000000
v 1.630371 2.766357 0.260254 0.498039 0.498039 0.498039 #0.000000
v 1.630371 2.170410 0.260254 0.498039 0.498039 0.498039 #0.000000
v 1.630371 2.170410 -0.260254 0.498039 0.498039 0.498039 #0.000000
v 1.630371 2.766357 -0.260254 0.498039 0.498039 0.498039 #0.000000
v 1.630371 2.766357 0.260254 0.498039 0.498039 0.498039 #0.000000
v 1.354004 1.915039 0.260254 0.498039 0.498039 0.498039 #0.000000
v 1.630371 2.170410 -0.260254 0.498039 0.498039 0.498039 #0.000000
v 1.630371 2.170410 0.260254 0.498039 0.498039 0.498039 #0.000000
v 1.354004 1.915039 -0.260254 0.498039 0.498039 0.498039 #0.000000
v 1.630371 2.170410 -0.260254 0.498039 0.498039 0.498039 #0.000000
v 1.354004 1.915039 0.260254 0.498039 0.498039 0.498039 #0.000000
v 0.342529 1.705322 0.108398 0.498039 0.498039 0.498039 #0.000000
v 0.429688 1.737061 0.108398 0.498039 0.498039 0.498039 #0.000000
v 0.210693 1.766846 0.108398 0.498039 0.498039 0.498039 #0.000000
v 0.429688 1.737061 0.108398 0.498039 0.498039 0.498039 #0.000000
v 0.136230 1.943604 0.108398 0.498039 0.498039 0.498039 #0.000000
v 0.210693 1.766846 0.108398 0.498039 0.498039 0.498039 #0.000000
v 0.080811 1.426514 0.108398 0.498039 0.498039 0.498039 #0.000000
v 0.155273 1.430664 0.108398 0.498039 0.498039 0.498039 #0.000000
v 0.144531 1.466797 0.108398 0.498039 0.498039 0.498039 #0.000000
v 0.080811 1.424316 0.108398 0.498039 0.498039 0.498039 #0.000000
v 0.155273 1.430664 0.108398 0.498039 0.498039 0.498039 #0.000000
v 0.080811 1.426514 0.108398 0.498039 0.498039 0.498039 #0.000000
v 0.155273 1.430664 0.108398 0.498039 0.498039 0.498039 #0.000000
v 0.223389 1.456299 0.108398 0.498039 0.498039 0.498039 #0.000000
v 0.144531 1.466797 0.108398 0.498039 0.498039 0.498039 #0.000000
v 0.223389 1.456299 0.108398 0.498039 0.498039 0.498039 #0.000000
v 0.217041 1.571045 0.108398 0.498039 0.498039 0.498039 #0.000000
v 0.144531 1.466797 0.108398 0.498039 0.498039 0.498039 #0.000000
v 0.223389 1.456299 0.108398 0.498039 0.498039 0.498039 #0.000000
v 0.285156 1.518066 0.108398 0.498039 0.498039 0.498039 #0.000000
v 0.217041 1.571045 0.108398 0.498039 0.498039 0.498039 #0.000000
v 0.217041 1.571045 0.108398 0.498039 0.498039 0.498039 #0.000000
v 0.327637 1.605225 0.108398 0.498039 0.498039 0.498039 #0.000000
v 0.231934 1.662598 0.108398 0.498039 0.498039 0.498039 #0.000000
v 0.285156 1.518066 0.108398 0.498039 0.498039 0.498039 #0.000000
v 0.327637 1.605225 0.108398 0.498039 0.498039 0.498039 #0.000000
v 0.217041 1.571045 0.108398 0.498039 0.498039 0.498039 #0.000000
v 0.231934 1.662598 0.108398 0.498039 0.498039 0.498039 #0.000000
v 0.342529 1.705322 0.108398 0.498039 0.498039 0.498039 #0.000000
v 0.210693 1.766846 0.108398 0.498039 0.498039 0.498039 #0.000000
v 0.327637 1.605225 0.108398 0.498039 0.498039 0.498039 #0.000000
v 0.342529 1.705322 0.108398 0.498039 0.498039 0.498039 #0.000000
v 0.231934 1.662598 0.108398 0.498039 0.498039 0.498039 #0.000000
v 0.429688 1.737061 0.108398 0.498039 0.498039 0.498039 #0.000000
v 0.485107 1.792480 0.108398 0.498039 0.498039 0.498039 #0.000000
v 0.136230 1.943604 0.108398 0.498039 0.498039 0.498039 #0.000000
v 0.485107 1.792480 0.108398 0.498039 0.498039 0.498039 #0.000000
v 0.506348 1.869141 0.108398 0.498039 0.498039 0.498039 #0.000000
v 0.136230 1.943604 0.108398 0.498039 0.498039 0.498039 #0.000000
v 0.506348 1.869141 0.108398 0.498039 0.498039 0.498039 #0.000000
v 0.461670 2.028564 0.108398 0.498039 0.498039 0.498039 #0.000000
v 0.136230 1.943604 0.108398 0.498039 0.498039 0.498039 #0.000000
v 0.429688 1.737061 -0.108398 0.498039 0.498039 0.498039 #0.000000
v 0.210693 1.766846 -0.108398 0.498039 0.498039 0.498039 #0.000000
v 0.136230 1.943604 -0.108398 0.498039 0.498039 0.498039 #0.000000
v 0.342529 1.705322 -0.108398 0.498039 0.498039 0.498039 #0.000000
v 0.210693 1.766846 -0.108398 0.498039 0.498039 0.498039 #0.000000
v 0.429688 1.737061 -0.108398 0.498039 0.498039 0.498039 #0.000000
v 0.080811 1.426514 -0.108398 0.498039 0.498039 0.498039 #0.000000
v 0.144531 1.466797 -0.108398 0.498039 0.498039 0.498039 #0.000000
v 0.155273 1.430664 -0.108398 0.498039 0.498039 0.498039 #0.000000
v 0.080811 1.424316 -0.108398 0.498039 0.498039 0.498039 #0.000000
v 0.080811 1.426514 -0.108398 0.498039 0.498039 0.498039 #0.000000
v 0.155273 1.430664 -0.108398 0.498039 0.498039 0.498039 #0.000000
v 0.155273 1.430664 -0.108398 0.498039 0.498039 0.498039 #0.000000
v 0.144531 1.466797 -0.108398 0.498039 0.498039 0.498039 #0.000000
v 0.223389 1.456299 -0.108398 0.498039 0.498039 0.498039 #0.000000
v 0.223389 1.456299 -0.108398 0.498039 0.498039 0.498039 #0.000000
v 0.144531 1.466797 -0.108398 0.498039 0.498039 0.498039 #0.000000
v 0.217041 1.571045 -0.108398 0.498039 0.498039 0.498039 #0.000000
v 0.223389 1.456299 -0.108398 0.498039 0.498039 0.498039 #0.000000
v 0.217041 1.571045 -0.108398 0.498039 0.498039 0.498039 #0.000000
v 0.285156 1.518066 -0.108398 0.498039 0.498039 0.498039 #0.000000
v 0.217041 1.571045 -0.108398 0.498039 0.498039 0.498039 #0.000000
v 0.231934 1.662598 -0.108398 0.498039 0.498039 0.498039 #0.000000
v 0.327637 1.605225 -0.108398 0.498039 0.498039 0.498039 #0.000000
v 0.285156 1.518066 -0.108398 0.498039 0.498039 0.498039 #0.000000
v 0.217041 1.571045 -0.108398 0.498039 0.498039 0.498039 #0.000000
v 0.327637 1.605225 -0.108398 0.498039 0.498039 0.498039 #0.000000
v 0.231934 1.662598 -0.108398 0.498039 0.498039 0.498039 #0.000000
v 0.210693 1.766846 -0.108398 0.498039 0.498039 0.498039 #0.000000
v 0.342529 1.705322 -0.108398 0.498039 0.498039 0.498039 #0.000000
v 0.327637 1.605225 -0.108398 0.498039 0.498039 0.498039 #0.000000
v 0.231934 1.662598 -0.108398 0.498039 0.498039 0.498039 #0.000000
v 0.342529 1.705322 -0.108398 0.498039 0.498039 0.498039 #0.000000
v 0.429688 1.737061 -0.108398 0.498039 0.498039 0.498039 #0.000000
v 0.136230 1.943604 -0.108398 0.498039 0.498039 0.498039 #0.000000
v 0.485107 1.792480 -0.108398 0.498039 0.498039 0.498039 #0.000000
v 0.485107 1.792480 -0.108398 0.498039 0.498039 0.498039 #0.000000
v 0.136230 1.943604 -0.108398 0.498039 0.498039 0.498039 #0.000000
v 0.506348 1.869141 -0.108398 0.498039 0.498039 0.498039 #0.000000
v 0.506348 1.869141 -0.108398 0.498039 0.498039 0.498039 #0.000000
v 0.136230 1.943604 -0.108398 0.498039 0.498039 0.498039 #0.000000
v 0.461670 2.028564 -0.108398 0.498039 0.498039 0.498039 #0.000000
v 0.210693 1.766846 -0.108398 0.498039 0.498039 0.498039 #0.000000
v 0.210693 1.766846 0.108398 0.498039 0.498039 0.498039 #0.000000
v 0.136230 1.943604 -0.108398 0.498039 0.498039 0.498039 #0.000000
v 0.210693 1.766846 0.108398 0.498039 0.498039 0.498039 #0.000000
v 0.136230 1.943604 0.108398 0.498039 0.498039 0.498039 #0.000000
v 0.136230 1.943604 -0.108398 0.498039 0.498039 0.498039 #0.000000
v 0.342529 1.705322 -0.108398 0.498039 0.498039 0.498039 #0.000000
v 0.429688 1.737061 -0.108398 0.498039 0.498039 0.498039 #0.000000
v 0.342529 1.705322 0.108398 0.498039 0.498039 0.498039 #0.000000
v 0.342529 1.705322 0.108398 0.498039 0.498039 0.498039 #0.000000
v 0.429688 1.737061 -0.108398 0.498039 0.498039 0.498039 #0.000000
v 0.429688 1.737061 0.108398 0.498039 0.498039 0.498039 #0.000000
v 0.080811 1.424316 -0.108398 0.498039 0.498039 0.498039 #0.000000
v 0.155273 1.430664 -0.108398 0.498039 0.498039 0.498039 #0.000000
v 0.080811 1.424316 0.108398 0.498039 0.498039 0.498039 #0.000000
v 0.080811 1.424316 0.108398 0.498039 0.498039 0.498039 #0.000000
v 0.155273 1.430664 -0.108398 0.498039 0.498039 0.498039 #0.000000
v 0.155273 1.430664 0.108398 0.498039 0.498039 0.498039 #0.000000
v 0.080811 1.424316 -0.108398 0.498039 0.498039 0.498039 #0.000000
v 0.080811 1.424316 0.108398 0.498039 0.498039 0.498039 #0.000000
v 0.080811 1.426514 -0.108398 0.498039 0.498039 0.498039 #0.000000
v 0.080811 1.424316 0.108398 0.498039 0.498039 0.498039 #0.000000
v 0.080811 1.426514 0.108398 0.498039 0.498039 0.498039 #0.000000
v 0.080811 1.426514 -0.108398 0.498039 0.498039 0.498039 #0.000000
v 0.080811 1.426514 -0.108398 0.498039 0.498039 0.498039 #0.000000
v 0.080811 1.426514 0.108398 0.498039 0.498039 0.498039 #0.000000
v 0.144531 1.466797 -0.108398 0.498039 0.498039 0.498039 #0.000000
v 0.080811 1.426514 0.108398 0.498039 0.498039 0.498039 #0.000000
v 0.144531 1.466797 0.108398 0.498039 0.498039 0.498039 #0.000000
v 0.144531 1.466797 -0.108398 0.498039 0.498039 0.498039 #0.000000
v 0.155273 1.430664 -0.108398 0.498039 0.498039 0.498039 #0.000000
v 0.223389 1.456299 -0.108398 0.498039 0.498039 0.498039 #0.000000
v 0.155273 1.430664 0.108398 0.498039 0.498039 0.498039 #0.000000
v 0.155273 1.430664 0.108398 0.498039 0.498039 0.498039 #0.000000
v 0.223389 1.456299 -0.108398 0.498039 0.498039 0.498039 #0.000000
v 0.223389 1.456299 0.108398 0.498039 0.498039 0.498039 #0.000000
v 0.144531 1.466797 -0.108398 0.498039 0.498039 0.498039 #0.000000
v 0.144531 1.466797 0.108398 0.498039 0.498039 0.498039 #0.000000
v 0.217041 1.571045 -0.108398 0.498039 0.498039 0.498039 #0.000000
v 0.144531 1.466797 0.108398 0.498039 0.498039 0.498039 #0.000000
v 0.217041 1.571045 0.108398 0.498039 0.498039 0.498039 #0.000000
v 0.217041 1.571045 -0.108398 0.498039 0.498039 0.498039 #0.000000
v 0.223389 1.456299 -0.108398 0.498039 0.498039 0.498039 #0.000000
v 0.285156 1.518066 -0.108398 0.498039 0.498039 0.498039 #0.000000
v 0.223389 1.456299 0.108398 0.498039 0.498039 0.498039 #0.000000
v 0.223389 1.456299 0.108398 0.498039 0.498039 0.498039 #0.000000
v 0.285156 1.518066 -0.108398 0.498039 0.498039 0.498039 #0.000000
v 0.285156 1.518066 0.108398 0.498039 0.498039 0.498039 #0.000000
v 0.285156 1.518066 -0.108398 0.498039 0.498039 0.498039 #0.000000
v 0.327637 1.605225 -0.108398 0.498039 0.498039 0.498039 #0.000000
v 0.285156 1.518066 0.108398 0.498039 0.498039 0.498039 #0.000000
v 0.285156 1.518066 0.108398 0.498039 0.498039 0.498039 #0.000000
v 0.327637 1.605225 -0.108398 0.498039 0.498039 0.498039 #0.000000
v 0.327637 1.605225 0.108398 0.498039 0.498039 0.498039 #0.000000
v 0.217041 1.571045 -0.108398 0.498039 0.498039 0.498039 #0.000000
v 0.217041 1.571045 0.108398 0.498039 0.498039 0.498039 #0.000000
v 0.231934 1.662598 -0.108398 0.498039 0.498039 0.498039 #0.000000
v 0.217041 1.571045 0.108398 0.498039 0.498039 0.498039 #0.000000
v 0.231934 1.662598 0.108398 0.498039 0.498039 0.498039 #0.000000
v 0.231934 1.662598 -0.108398 0.498039 0.498039 0.498039 #0.000000
v 0.327637 1.605225 -0.108398 0.498039 0.498039 0.498039 #0.000000
v 0.342529 1.705322 -0.108398 0.498039 0.498039 0.498039 #0.000000
v 0.327637 1.605225 0.108398 0.498039 0.498039 0.498039 #0.000000
v 0.327637 1.605225 0.108398 0.498039 0.498039 0.498039 #0.000000
v 0.342529 1.705322 -0.108398 0.498039 0.498039 0.498039 #0.000000
v 0.342529 1.705322 0.108398 0.498039 0.498039 0.498039 #0.000000
v 0.231934 1.662598 -0.108398 0.498039 0.498039 0.498039 #0.000000
v 0.231934 1.662598 0.108398 0.498039 0.498039 0.498039 #0.000000
v 0.210693 1.766846 0.108398 0.498039 0.498039 0.498039 #0.000000
v 0.231934 1.662598 -0.108398 0.498039 0.498039 0.498039 #0.000000
v 0.210693 1.766846 0.108398 0.498039 0.498039 0.498039 #0.000000
v 0.210693 1.766846 -0.108398 0.498039 0.498039 0.498039 #0.000000
v 0.429688 1.737061 -0.108398 0.498039 0.498039 0.498039 #0.000000
v 0.485107 1.792480 -0.108398 0.498039 0.498039 0.498039 #0.000000
v 0.429688 1.737061 0.108398 0.498039 0.498039 0.498039 #0.000000
v 0.429688 1.737061 0.108398 0.498039 0.498039 0.498039 #0.000000
v 0.485107 1.792480 -0.108398 0.498039 0.498039 0.498039 #0.000000
v 0.485107 1.792480 0.108398 0.498039 0.498039 0.498039 #0.000000
v 0.485107 1.792480 -0.108398 0.498039 0.498039 0.498039 #0.000000
v 0.506348 1.869141 -0.108398 0.498039 0.498039 0.498039 #0.000000
v 0.485107 1.792480 0.108398 0.498039 0.498039 0.498039 #0.000000
v 0.485107 1.792480 0.108398 0.498039 0.498039 0.498039 #0.000000
v 0.506348 1.869141 -0.108398 0.498039 0.498039 0.498039 #0.000000
v 0.506348 1.869141 0.108398 0.498039 0.498039 0.498039 #0.000000
v 0.136230 1.943604 -0.108398 0.498039 0.498039 0.498039 #0.000000
v 0.136230 1.943604 0.108398 0.498039 0.498039 0.498039 #0.000000
v 0.461670 2.028564 -0.108398 0.498039 0.498039 0.498039 #0.000000
v 0.136230 1.943604 0.108398 0.498039 0.498039 0.498039 #0.000000
v 0.461670 2.028564 0.108398 0.498039 0.498039 0.498039 #0.000000
v 0.461670 2.028564 -0.108398 0.498039 0.498039 0.498039 #0.000000
v 0.506348 1.869141 -0.108398 0.498039 0.498039 0.498039 #0.000000
v 0.461670 2.028564 -0.108398 0.498039 0.498039 0.498039 #0.000000
v 0.461670 2.028564 0.108398 0.498039 0.498039 0.498039 #0.000000
v 0.506348 1.869141 -0.108398 0.498039 0.498039 0.498039 #0.000000
v 0.461670 2.028564 0.108398 0.498039 0.498039 0.498039 #0.000000
v 0.506348 1.869141 0.108398 0.498039 0.498039 0.498039 #0.000000
v 1.630371 2.766357 -0.260254 0.498039 0.498039 0.498039 #0.000000
v -1.907227 2.766357 0.260254 0.498039 0.498039 0.498039 #0.000000
v 1.630371 2.766357 0.260254 0.498039 0.498039 0.498039 #0.000000
v -1.907227 2.766357 -0.260254 0.498039 0.498039 0.498039 #0.000000
v -1.907227 2.766357 0.260254 0.498039 0.498039 0.498039 #0.000000
v 1.630371 2.766357 -0.260254 0.498039 0.498039 0.498039 #0.000000
v 1.800537 0.000000 -0.217529 0.498039 0.498039 0.498039 #0.000000
v 1.800537 0.000000 0.217529 0.498039 0.498039 0.498039 #0.000000
v 1.034424 0.000000 0.217529 0.498039 0.498039 0.498039 #0.000000
v 1.034424 0.000000 -0.217529 0.498039 0.498039 0.498039 #0.000000
v 1.800537 0.000000 -0.217529 0.498039 0.498039 0.498039 #0.000000
v 1.034424 0.000000 0.217529 0.498039 0.498039 0.498039 #0.000000
v 0.481201 1.872559 -0.260254 0.498039 0.498039 0.498039 #0.000000
v -1.907227 1.957520 0.260254 0.498039 0.498039 0.498039 #0.000000
v -1.907227 1.957520 -0.260254 0.498039 0.498039 0.498039 #0.000000
v 0.481201 1.872559 -0.260254 0.498039 0.498039 0.498039 #0.000000
v 0.481201 1.872559 0.260254 0.498039 0.498039 0.498039 #0.000000
v -1.907227 1.957520 0.260254 0.498039 0.498039 0.498039 #0.000000
v 0.588135 1.574707 0.260254 0.498039 0.498039 0.498039 #0.000000
v 0.481201 1.872559 0.260254 0.498039 0.498039 0.498039 #0.000000
v 0.481201 1.872559 -0.260254 0.498039 0.498039 0.498039 #0.000000
v 0.588135 1.574707 -0.260254 0.498039 0.498039 0.498039 #0.000000
v 0.588135 1.574707 0.260254 0.498039 0.498039 0.498039 #0.000000
v 0.481201 1.872559 -0.260254 0.498039 0.498039 0.498039 #0.000000
v 0.766113 0.936279 -0.260254 0.498039 0.498039 0.498039 #0.000000
v 0.588135 1.574707 0.260254 0.498039 0.498039 0.498039 #0.000000
v 0.588135 1.574707 -0.260254 0.498039 0.498039 0.498039 #0.000000
v 0.766113 0.936279 -0.260254 0.498039 0.498039 0.498039 #0.000000
v 0.766113 0.936279 0.260254 0.498039 0.498039 0.498039 #0.000000
v 0.588135 1.574707 0.260254 0.498039 0.498039 0.498039 #0.000000
v 0.920654 0.382812 -0.260254 0.498039 0.498039 0.498039 #0.000000
v 0.766113 0.936279 0.260254 0.498039 0.498039 0.498039 #0.000000
v 0.766113 0.936279 -0.260254 0.498039 0.498039 0.498039 #0.000000
v 0.920654 0.382812 -0.260254 0.498039 0.498039 0.498039 #0.000000
v 0.920654 0.382812 0.260254 0.498039 0.498039 0.498039 #0.000000
v 0.766113 0.936279 0.260254 0.498039 0.498039 0.498039 #0.000000
v 0.967529 0.214844 -0.260254 0.498039 0.498039 0.498039 #0.000000
v 0.920654 0.382812 0.260254 0.498039 0.498039 0.498039 #0.000000
v 0.920654 0.382812 -0.260254 0.498039 0.498039 0.498039 #0.000000
v 0.967529 0.214844 -0.260254 0.498039 0.498039 0.498039 #0.000000
v 0.967529 0.214844 0.260254 0.498039 0.498039 0.498039 #0.000000
v 0.920654 0.382812 0.260254 0.498039 0.498039 0.498039 #0.000000
v 0.991943 0.127441 -0.260254 0.498039 0.498039 0.498039 #0.000000
v 0.991943 0.127441 0.260254 0.498039 0.498039 0.498039 #0.000000
v 0.967529 0.214844 0.260254 0.498039 0.498039 0.498039 #0.000000
v 0.991943 0.127441 -0.260254 0.498039 0.498039 0.498039 #0.000000
v 0.967529 0.214844 0.260254 0.498039 0.498039 0.498039 #0.000000
v 0.967529 0.214844 -0.260254 0.498039 0.498039 0.498039 #0.000000
v 1.034424 0.000000 -0.217529 0.498039 0.498039 0.498039 #0.000000
v 1.034424 0.000000 0.217529 0.498039 0.498039 0.498039 #0.000000
v 0.991943 0.127441 0.260254 0.498039 0.498039 0.498039 #0.000000
v 1.034424 0.000000 -0.217529 0.498039 0.498039 0.498039 #0.000000
v 0.991943 0.127441 0.260254 0.498039 0.498039 0.498039 #0.000000
v 0.991943 0.127441 -0.260254 0.498039 0.498039 0.498039 #0.000000
v 0.481201 1.872559 0.260254 0.498039 0.498039 0.498039 #0.000000
v -1.907227 2.766357 0.260254 0.498039 0.498039 0.498039 #0.000000
v -1.907227 1.957520 0.260254 0.498039 0.498039 0.498039 #0.000000
v 0.481201 1.872559 0.260254 0.498039 0.498039 0.498039 #0.000000
v 1.630371 2.766357 0.260254 0.498039 0.498039 0.498039 #0.000000
v -1.907227 2.766357 0.260254 0.498039 0.498039 0.498039 #0.000000
v 0.481201 1.872559 0.260254 0.498039 0.498039 0.498039 #0.000000
v 1.630371 2.170410 0.260254 0.498039 0.498039 0.498039 #0.000000
v 1.630371 2.766357 0.260254 0.498039 0.498039 0.498039 #0.000000
v 0.481201 1.872559 0.260254 0.498039 0.498039 0.498039 #0.000000
v 1.354004 1.915039 0.260254 0.498039 0.498039 0.498039 #0.000000
v 1.630371 2.170410 0.260254 0.498039 0.498039 0.498039 #0.000000
v 0.588135 1.574707 0.260254 0.498039 0.498039 0.498039 #0.000000
v 1.354004 1.915039 0.260254 0.498039 0.498039 0.498039 #0.000000
v 0.481201 1.872559 0.260254 0.498039 0.498039 0.498039 #0.000000
v 0.766113 0.936279 0.260254 0.498039 0.498039 0.498039 #0.000000
v 1.447266 1.531982 0.260254 0.498039 0.498039 0.498039 #0.000000
v 0.588135 1.574707 0.260254 0.498039 0.498039 0.498039 #0.000000
v 1.447266 1.531982 0.260254 0.498039 0.498039 0.498039 #0.000000
v 1.354004 1.915039 0.260254 0.498039 0.498039 0.498039 #0.000000
v 0.588135 1.574707 0.260254 0.498039 0.498039 0.498039 #0.000000
v 1.942139 0.723389 0.260254 0.498039 0.498039 0.498039 #0.000000
v 1.447266 1.531982 0.260254 0.498039 0.498039 0.498039 #0.000000
v 0.766113 0.936279 0.260254 0.498039 0.498039 0.498039 #0.000000
v 0.920654 0.382812 0.260254 0.498039 0.498039 0.498039 #0.000000
v 1.942139 0.723389 0.260254 0.498039 0.498039 0.498039 #0.000000
v 0.766113 0.936279 0.260254 0.498039 0.498039 0.498039 #0.000000
v 0.967529 0.214844 0.260254 0.498039 0.498039 0.498039 #0.000000
v 1.995605 0.216309 0.260254 0.498039 0.498039 0.498039 #0.000000
v 1.942139 0.723389 0.260254 0.498039 0.498039 0.498039 #0.000000
v 0.967529 0.214844 0.260254 0.498039 0.498039 0.498039 #0.000000
v 1.942139 0.723389 0.260254 0.498039 0.498039 0.498039 #0.000000
v 0.920654 0.382812 0.260254 0.498039 0.498039 0.498039 #0.000000
v 1.843018 0.127441 0.260254 0.498039 0.498039 0.498039 #0.000000
v 1.995605 0.216309 0.260254 0.498039 0.498039 0.498039 #0.000000
v 0.967529 0.214844 0.260254 0.498039 0.498039 0.498039 #0.000000
v 0.991943 0.127441 0.260254 0.498039 0.498039 0.498039 #0.000000
v 1.843018 0.127441 0.260254 0.498039 0.498039 0.498039 #0.000000
v 0.967529 0.214844 0.260254 0.498039 0.498039 0.498039 #0.000000
v 1.034424 0.000000 0.217529 0.498039 0.498039 0.498039 #0.000000
v 1.800537 0.000000 0.217529 0.498039 0.498039 0.498039 #0.000000
v 0.991943 0.127441 0.260254 0.498039 0.498039 0.498039 #0.000000
v 1.800537 0.000000 0.217529 0.498039 0.498039 0.498039 #0.000000
v 1.843018 0.127441 0.260254 0.498039 0.498039 0.498039 #0.000000
v 0.991943 0.127441 0.260254 0.498039 0.498039 0.498039 #0.000000
v 0.481201 1.872559 -0.260254 0.498039 0.498039 0.498039 #0.000000
v 1.630371 2.766357 -0.260254 0.498039 0.498039 0.498039 #0.000000
v 1.630371 2.170410 -0.260254 0.498039 0.498039 0.498039 #0.000000
v 0.481201 1.872559 -0.260254 0.498039 0.498039 0.498039 #0.000000
v -1.907227 2.766357 -0.260254 0.498039 0.498039 0.498039 #0.000000
v 1.630371 2.766357 -0.260254 0.498039 0.498039 0.498039 #0.000000
v 0.481201 1.872559 -0.260254 0.498039 0.498039 0.498039 #0.000000
v -1.907227 1.957520 -0.260254 0.498039 0.498039 0.498039 #0.000000
v -1.907227 2.766357 -0.260254 0.498039 0.498039 0.498039 #0.000000
v 0.481201 1.872559 -0.260254 0.498039 0.498039 0.498039 #0.000000
v 1.630371 2.170410 -0.260254 0.498039 0.498039 0.498039 #0.000000
v 1.354004 1.915039 -0.260254 0.498039 0.498039 0.498039 #0.000000
v 0.588135 1.574707 -0.260254 0.498039 0.498039 0.498039 #0.000000
v 0.481201 1.872559 -0.260254 0.498039 0.498039 0.498039 #0.000000
v 1.354004 1.915039 -0.260254 0.498039 0.498039 0.498039 #0.000000
v 1.447266 1.531982 -0.260254 0.498039 0.498039 0.498039 #0.000000
v 0.588135 1.574707 -0.260254 0.498039 0.498039 0.498039 #0.000000
v 1.354004 1.915039 -0.260254 0.498039 0.498039 0.498039 #0.000000
v 0.766113 0.936279 -0.260254 0.498039 0.498039 0.498039 #0.000000
v 0.588135 1.574707 -0.260254 0.498039 0.498039 0.498039 #0.000000
v 1.447266 1.531982 -0.260254 0.498039 0.498039 0.498039 #0.000000
v 1.942139 0.723389 -0.260254 0.498039 0.498039 0.498039 #0.000000
v 0.766113 0.936279 -0.260254 0.498039 0.498039 0.498039 #0.000000
v 1.447266 1.531982 -0.260254 0.498039 0.498039 0.498039 #0.000000
v 0.920654 0.382812 -0.260254 0.498039 0.498039 0.498039 #0.000000
v 0.766113 0.936279 -0.260254 0.498039 0.498039 0.498039 #0.000000
v 1.942139 0.723389 -0.260254 0.498039 0.498039 0.498039 #0.000000
v 0.967529 0.214844 -0.260254 0.498039 0.498039 0.498039 #0.000000
v 1.942139 0.723389 -0.260254 0.498039 0.498039 0.498039 #0.000000
v 1.995605 0.216309 -0.260254 0.498039 0.498039 0.498039 #0.000000
v 0.967529 0.214844 -0.260254 0.498039 0.498039 0.498039 #0.000000
v 0.920654 0.382812 -0.260254 0.498039 0.498039 0.498039 #0.000000
v 1.942139 0.723389 -0.260254 0.498039 0.498039 0.498039 #0.000000
v 0.991943 0.127441 -0.260254 0.498039 0.498039 0.498039 #0.000000
v 0.967529 0.214844 -0.260254 0.498039 0.498039 0.498039 #0.000000
v 1.843018 0.127441 -0.260254 0.498039 0.498039 0.498039 #0.000000
v 1.843018 0.127441 -0.260254 0.498039 0.498039 0.498039 #0.000000
v 0.967529 0.214844 -0.260254 0.498039 0.498039 0.498039 #0.000000
v 1.995605 0.216309 -0.260254 0.498039 0.498039 0.498039 #0.000000
v 1.034424 0.000000 -0.217529 0.498039 0.498039 0.498039 #0.000000
v 0.991943 0.127441 -0.260254 0.498039 0.498039 0.498039 #0.000000
v 1.800537 0.000000 -0.217529 0.498039 0.498039 0.498039 #0.000000
v 1.800537 0.000000 -0.217529 0.498039 0.498039 0.498039 #0.000000
v 0.991943 0.127441 -0.260254 0.498039 0.498039 0.498039 #0.000000
v 1.843018 0.127441 -0.260254 0.498039 0.498039 0.498039 #0.000000
v -1.907227 1.957520 -0.260254 0.498039 0.498039 0.498039 #0.000000
v -1.907227 1.957520 0.260254 0.498039 0.498039 0.498039 #0.000000
v -1.907227 2.766357 0.260254 0.498039 0.498039 0.498039 #0.000000
v -1.907227 1.957520 -0.260254 0.498039 0.498039 0.498039 #0.000000
v -1.907227 2.766357 0.260254 0.498039 0.498039 0.498039 #0.000000
v -1.907227 2.766357 -0.260254 0.498039 0.498039 0.498039 #0.000000
vt 0.000000 0.000000 0.000000
vt 0.000000 0.000000 0.000000
vt 0.587891 0.579834 0.000000
vt 0.000000 0.000000 0.000000
vt 0.601807 0.579834 0.000000
vt 0.587891 0.579834 0.000000
vt 0.000000 0.000000 0.000000
vt 0.575684 0.747314 0.000000
vt 0.624268 0.747314 0.000000
vt 0.000000 0.000000 0.000000
vt 0.575684 0.747314 0.000000
vt 0.000000 0.000000 0.000000
vt 0.000000 0.000000 0.000000
vt 0.000000 0.000000 0.000000
vt 0.773926 0.591064 0.000000
vt 0.773926 0.591064 0.000000
vt 0.000000 0.000000 0.000000
vt 0.766602 0.644287 0.000000
vt 0.000000 0.000000 0.000000
vt 0.000000 0.000000 0.000000
vt 0.000000 0.000000 0.000000
vt 0.000000 0.000000 0.000000
vt 0.000000 0.000000 0.000000
vt 0.000000 0.000000 0.000000
vt 0.000000 0.000000 0.000000
vt 0.000000 0.000000 0.000000
vt 0.000000 0.000000 0.000000
vt 0.000000 0.000000 0.000000
vt 0.000000 0.000000 0.000000
vt 0.000000 0.000000 0.000000
vt 0.738037 0.599365 0.000000
vt 0.766602 0.644287 0.000000
vt 0.000000 0.000000 0.000000
vt 0.000000 0.000000 0.000000
vt 0.738037 0.599365 0.000000
vt 0.000000 0.000000 0.000000
vt 0.000000 0.000000 0.000000
vt 0.601807 0.599365 0.000000
vt 0.738037 0.599365 0.000000
vt 0.000000 0.000000 0.000000
vt 0.601807 0.599365 0.000000
vt 0.000000 0.000000 0.000000
vt 0.773926 0.591064 0.000000
vt 0.766602 0.644287 0.000000
vt 0.738037 0.599365 0.000000
vt 0.734131 0.579834 0.000000
vt 0.773926 0.591064 0.000000
vt 0.738037 0.599365 0.000000
vt 0.601807 0.579834 0.000000
vt 0.734131 0.579834 0.000000
vt 0.601807 0.599365 0.000000
vt 0.734131 0.579834 0.000000
vt 0.738037 0.599365 0.000000
vt 0.601807 0.599365 0.000000
vt 0.734131 0.579834 0.000000
vt 0.000000 0.000000 0.000000
vt 0.773926 0.591064 0.000000
vt 0.000000 0.000000 0.000000
vt 0.000000 0.000000 0.000000
vt 0.734131 0.579834 0.000000
vt 0.000000 0.000000 0.000000
vt 0.000000 0.000000 0.000000
vt 0.601807 0.579834 0.000000
vt 0.000000 0.000000 0.000000
vt 0.734131 0.579834 0.000000
vt 0.601807 0.579834 0.000000
vt 0.000000 0.000000 0.000000
vt 0.575684 0.747314 0.000000
vt 0.000000 0.000000 0.000000
vt 0.000000 0.000000 0.000000
vt 0.587891 0.704590 0.000000
vt 0.575684 0.747314 0.000000
vt 0.000000 0.000000 0.000000
vt 0.587891 0.579834 0.000000
vt 0.587891 0.704590 0.000000
vt 0.000000 0.000000 0.000000
vt 0.587891 0.704590 0.000000
vt 0.000000 0.000000 0.000000
vt 0.587891 0.579834 0.000000
vt 0.601807 0.579834 0.000000
vt 0.601807 0.599365 0.000000
vt 0.587891 0.579834 0.000000
vt 0.601807 0.599365 0.000000
vt 0.587891 0.704590 0.000000
vt 0.601807 0.599365 0.000000
vt 0.601807 0.716553 0.000000
vt 0.587891 0.704590 0.000000
vt 0.587891 0.704590 0.000000
vt 0.601807 0.716553 0.000000
vt 0.575684 0.747314 0.000000
vt 0.601807 0.716553 0.000000
vt 0.624268 0.747314 0.000000
vt 0.575684 0.747314 0.000000
vt 0.000000 0.000000 0.000000
vt 0.601807 0.716553 0.000000
vt 0.601807 0.599365 0.000000
vt 0.000000 0.000000 0.000000
vt 0.000000 0.000000 0.000000
vt 0.601807 0.716553 0.000000
vt 0.601807 0.716553 0.000000
vt 0.000000 0.000000 0.000000
vt 0.624268 0.747314 0.000000
vt 0.000000 0.000000 0.000000
vt 0.000000 0.000000 0.000000
vt 0.601807 0.716553 0.000000
vt 0.000000 0.000000 0.000000
vt 0.000000 0.000000 0.000000
vt 0.000000 0.000000 0.000000
vt 0.000000 0.000000 0.000000
vt 0.000000 0.000000 0.000000
vt 0.000000 0.000000 0.000000
vt 0.000000 0.000000 0.000000
vt 0.000000 0.000000 0.000000
vt 0.000000 0.000000 0.000000
vt 0.000000 0.000000 0.000000
vt 0.000000 0.000000 0.000000
vt 0.000000 0.000000 0.000000
vt 0.000000 0.000000 0.000000
vt 0.000000 0.000000 0.000000
vt 0.000000 0.000000 0.000000
vt 0.920898 0.968750 0.000000
vt 0.931152 0.968750 0.000000
vt 0.925537 0.994629 0.000000
vt 0.920898 0.968750 0.000000
vt 0.925537 0.994629 0.000000
vt 0.920898 0.994629 0.000000
vt 0.920898 0.968750 0.000000
vt 0.931152 0.968750 0.000000
vt 0.920898 0.968750 0.000000
vt 0.931152 0.968750 0.000000
vt 0.931152 0.968750 0.000000
vt 0.920898 0.968750 0.000000
vt 0.931152 0.968750 0.000000
vt 0.925537 0.994629 0.000000
vt 0.931152 0.968750 0.000000
vt 0.931152 0.968750 0.000000
vt 0.925537 0.994629 0.000000
vt 0.925537 0.994629 0.000000
vt 0.925537 0.994629 0.000000
vt 0.920898 0.994629 0.000000
vt 0.925537 0.994629 0.000000
vt 0.920898 0.994629 0.000000
vt 0.920898 0.994629 0.000000
vt 0.925537 0.994629 0.000000
vt 0.920898 0.968750 0.000000
vt 0.920898 0.968750 0.000000
vt 0.920898 0.994629 0.000000
vt 0.920898 0.968750 0.000000
vt 0.920898 0.994629 0.000000
vt 0.920898 0.994629 0.000000
vt 0.920898 0.968750 0.000000
vt 0.920898 0.994629 0.000000
vt 0.925537 0.994629 0.000000
vt 0.920898 0.968750 0.000000
vt 0.925537 0.994629 0.000000
vt 0.931152 0.968750 0.000000
vt 0.920898 0.968750 0.000000
vt 0.920898 0.994629 0.000000
vt 0.925537 0.994629 0.000000
vt 0.920898 0.968750 0.000000
vt 0.925537 0.994629 0.000000
vt 0.931152 0.968750 0.000000
vt 0.920898 0.968750 0.000000
vt 0.931152 0.968750 0.000000
vt 0.920898 0.968750 0.000000
vt 0.931152 0.968750 0.000000
vt 0.931152 0.968750 0.000000
vt 0.920898 0.968750 0.000000
vt 0.931152 0.968750 0.000000
vt 0.925537 0.994629 0.000000
vt 0.931152 0.968750 0.000000
vt 0.931152 0.968750 0.000000
vt 0.925537 0.994629 0.000000
vt 0.925537 0.994629 0.000000
vt 0.920898 0.994629 0.000000
vt 0.920898 0.994629 0.000000
vt 0.925537 0.994629 0.000000
vt 0.925537 0.994629 0.000000
vt 0.920898 0.994629 0.000000
vt 0.925537 0.994629 0.000000
vt 0.920898 0.968750 0.000000
vt 0.920898 0.968750 0.000000
vt 0.920898 0.994629 0.000000
vt 0.920898 0.968750 0.000000
vt 0.920898 0.994629 0.000000
vt 0.920898 0.994629 0.000000
vt 0.920898 0.968750 0.000000
vt 0.931152 0.968750 0.000000
vt 0.925537 0.994629 0.000000
vt 0.920898 0.968750 0.000000
vt 0.925537 0.994629 0.000000
vt 0.920898 0.994629 0.000000
vt 0.301270 0.971436 0.000000
vt 0.315674 0.971436 0.000000
vt 0.308594 0.992920 0.000000
vt 0.315674 0.971436 0.000000
vt 0.312256 0.992920 0.000000
vt 0.308594 0.992920 0.000000
vt 0.301270 0.971436 0.000000
vt 0.315674 0.971436 0.000000
vt 0.301270 0.971436 0.000000
vt 0.315674 0.971436 0.000000
vt 0.315674 0.971436 0.000000
vt 0.301270 0.971436 0.000000
vt 0.315674 0.971436 0.000000
vt 0.312256 0.992920 0.000000
vt 0.315674 0.971436 0.000000
vt 0.315674 0.971436 0.000000
vt 0.312256 0.992920 0.000000
vt 0.312256 0.992920 0.000000
vt 0.312256 0.992920 0.000000
vt 0.308594 0.992920 0.000000
vt 0.312256 0.992920 0.000000
vt 0.308594 0.992920 0.000000
vt 0.308594 0.992920 0.000000
vt 0.312256 0.992920 0.000000
vt 0.301270 0.971436 0.000000
vt 0.308594 0.992920 0.000000
vt 0.308594 0.992920 0.000000
vt 0.301270 0.971436 0.000000
vt 0.301270 0.971436 0.000000
vt 0.308594 0.992920 0.000000
vt 0.301270 0.971436 0.000000
vt 0.308594 0.992920 0.000000
vt 0.315674 0.971436 0.000000
vt 0.315674 0.971436 0.000000
vt 0.308594 0.992920 0.000000
vt 0.312256 0.992920 0.000000
vt 0.736572 0.489502 0.000000
vt 0.648926 0.489502 0.000000
vt 0.692627 0.507812 0.000000
vt 0.630859 0.444824 0.000000
vt 0.648926 0.489502 0.000000
vt 0.736572 0.489502 0.000000
vt 0.648926 0.400146 0.000000
vt 0.630859 0.444824 0.000000
vt 0.736572 0.489502 0.000000
vt 0.648926 0.400146 0.000000
vt 0.736572 0.489502 0.000000
vt 0.754639 0.444824 0.000000
vt 0.692627 0.381592 0.000000
vt 0.754639 0.444824 0.000000
vt 0.736572 0.400146 0.000000
vt 0.692627 0.381592 0.000000
vt 0.648926 0.400146 0.000000
vt 0.754639 0.444824 0.000000
vt 0.736572 0.489502 0.000000
vt 0.692627 0.507812 0.000000
vt 0.736572 0.489502 0.000000
vt 0.736572 0.489502 0.000000
vt 0.692627 0.507812 0.000000
vt 0.692627 0.507812 0.000000
vt 0.754639 0.444824 0.000000
vt 0.736572 0.489502 0.000000
vt 0.754639 0.444824 0.000000
vt 0.754639 0.444824 0.000000
vt 0.736572 0.489502 0.000000
vt 0.736572 0.489502 0.000000
vt 0.736572 0.400146 0.000000
vt 0.754639 0.444824 0.000000
vt 0.736572 0.400146 0.000000
vt 0.736572 0.400146 0.000000
vt 0.754639 0.444824 0.000000
vt 0.754639 0.444824 0.000000
vt 0.692627 0.381592 0.000000
vt 0.736572 0.400146 0.000000
vt 0.736572 0.400146 0.000000
vt 0.692627 0.381592 0.000000
vt 0.736572 0.400146 0.000000
vt 0.692627 0.381592 0.000000
vt 0.692627 0.381592 0.000000
vt 0.692627 0.381592 0.000000
vt 0.648926 0.400146 0.000000
vt 0.692627 0.381592 0.000000
vt 0.648926 0.400146 0.000000
vt 0.648926 0.400146 0.000000
vt 0.648926 0.400146 0.000000
vt 0.648926 0.400146 0.000000
vt 0.630859 0.444824 0.000000
vt 0.648926 0.400146 0.000000
vt 0.630859 0.444824 0.000000
vt 0.630859 0.444824 0.000000
vt 0.630859 0.444824 0.000000
vt 0.630859 0.444824 0.000000
vt 0.648926 0.489502 0.000000
vt 0.630859 0.444824 0.000000
vt 0.648926 0.489502 0.000000
vt 0.648926 0.489502 0.000000
vt 0.648926 0.489502 0.000000
vt 0.648926 0.489502 0.000000
vt 0.692627 0.507812 0.000000
vt 0.648926 0.489502 0.000000
vt 0.692627 0.507812 0.000000
vt 0.692627 0.507812 0.000000
vt 0.736572 0.489502 0.000000
vt 0.692627 0.507812 0.000000
vt 0.648926 0.489502 0.000000
vt 0.630859 0.444824 0.000000
vt 0.736572 0.489502 0.000000
vt 0.648926 0.489502 0.000000
vt 0.648926 0.400146 0.000000
vt 0.736572 0.489502 0.000000
vt 0.630859 0.444824 0.000000
vt 0.648926 0.400146 0.000000
vt 0.754639 0.444824 0.000000
vt 0.736572 0.489502 0.000000
vt 0.692627 0.381592 0.000000
vt 0.754639 0.444824 0.000000
vt 0.648926 0.400146 0.000000
vt 0.692627 0.381592 0.000000
vt 0.736572 0.400146 0.000000
vt 0.754639 0.444824 0.000000
vt 0.320801 0.667725 0.000000
vt 0.428467 0.731445 0.000000
vt 0.320801 0.731445 0.000000
vt 0.428467 0.667725 0.000000
vt 0.428467 0.731445 0.000000
vt 0.320801 0.667725 0.000000
vt 0.428467 0.533203 0.000000
vt 0.320801 0.667725 0.000000
vt 0.320801 0.533203 0.000000
vt 0.428467 0.533203 0.000000
vt 0.428467 0.667725 0.000000
vt 0.320801 0.667725 0.000000
vt 0.320801 0.448975 0.000000
vt 0.428467 0.533203 0.000000
vt 0.320801 0.533203 0.000000
vt 0.428467 0.448975 0.000000
vt 0.428467 0.533203 0.000000
vt 0.320801 0.448975 0.000000
vt 0.428467 0.434326 0.000000
vt 0.428467 0.448975 0.000000
vt 0.320801 0.434326 0.000000
vt 0.320801 0.434326 0.000000
vt 0.428467 0.448975 0.000000
vt 0.320801 0.448975 0.000000
vt 0.418945 0.413086 0.000000
vt 0.428467 0.434326 0.000000
vt 0.330322 0.413086 0.000000
vt 0.330322 0.413086 0.000000
vt 0.428467 0.434326 0.000000
vt 0.320801 0.434326 0.000000
vt 0.183105 0.821289 0.000000
vt 0.066406 0.941650 0.000000
vt 0.066406 0.821289 0.000000
vt 0.183105 0.821289 0.000000
vt 0.183105 0.941650 0.000000
vt 0.066406 0.941650 0.000000
vt 0.066406 0.712402 0.000000
vt 0.183105 0.821289 0.000000
vt 0.066406 0.821289 0.000000
vt 0.183105 0.712402 0.000000
vt 0.183105 0.821289 0.000000
vt 0.066406 0.712402 0.000000
vt 0.728271 0.676025 0.000000
vt 0.740234 0.681885 0.000000
vt 0.709961 0.687256 0.000000
vt 0.740234 0.681885 0.000000
vt 0.699707 0.719971 0.000000
vt 0.709961 0.687256 0.000000
vt 0.691895 0.624512 0.000000
vt 0.702148 0.625244 0.000000
vt 0.700684 0.631836 0.000000
vt 0.691895 0.624023 0.000000
vt 0.702148 0.625244 0.000000
vt 0.691895 0.624512 0.000000
vt 0.702148 0.625244 0.000000
vt 0.711670 0.629883 0.000000
vt 0.700684 0.631836 0.000000
vt 0.711670 0.629883 0.000000
vt 0.710693 0.651123 0.000000
vt 0.700684 0.631836 0.000000
vt 0.711670 0.629883 0.000000
vt 0.720215 0.641357 0.000000
vt 0.710693 0.651123 0.000000
vt 0.710693 0.651123 0.000000
vt 0.726074 0.657471 0.000000
vt 0.712891 0.668213 0.000000
vt 0.720215 0.641357 0.000000
vt 0.726074 0.657471 0.000000
vt 0.710693 0.651123 0.000000
vt 0.712891 0.668213 0.000000
vt 0.728271 0.676025 0.000000
vt 0.709961 0.687256 0.000000
vt 0.726074 0.657471 0.000000
vt 0.728271 0.676025 0.000000
vt 0.712891 0.668213 0.000000
vt 0.740234 0.681885 0.000000
vt 0.747803 0.692139 0.000000
vt 0.699707 0.719971 0.000000
vt 0.747803 0.692139 0.000000
vt 0.750977 0.706299 0.000000
vt 0.699707 0.719971 0.000000
vt 0.750977 0.706299 0.000000
vt 0.744629 0.735840 0.000000
vt 0.699707 0.719971 0.000000
vt 0.740234 0.681885 0.000000
vt 0.709961 0.687256 0.000000
vt 0.699707 0.719971 0.000000
vt 0.728271 0.676025 0.000000
vt 0.709961 0.687256 0.000000
vt 0.740234 0.681885 0.000000
vt 0.691895 0.624512 0.000000
vt 0.700684 0.631836 0.000000
vt 0.702148 0.625244 0.000000
vt 0.691895 0.624023 0.000000
vt 0.691895 0.624512 0.000000
vt 0.702148 0.625244 0.000000
vt 0.702148 0.625244 0.000000
vt 0.700684 0.631836 0.000000
vt 0.711670 0.629883 0.000000
vt 0.711670 0.629883 0.000000
vt 0.700684 0.631836 0.000000
vt 0.710693 0.651123 0.000000
vt 0.711670 0.629883 0.000000
vt 0.710693 0.651123 0.000000
vt 0.720215 0.641357 0.000000
vt 0.710693 0.651123 0.000000
vt 0.712891 0.668213 0.000000
vt 0.726074 0.657471 0.000000
vt 0.720215 0.641357 0.000000
vt 0.710693 0.651123 0.000000
vt 0.726074 0.657471 0.000000
vt 0.712891 0.668213 0.000000
vt 0.709961 0.687256 0.000000
vt 0.728271 0.676025 0.000000
vt 0.726074 0.657471 0.000000
vt 0.712891 0.668213 0.000000
vt 0.728271 0.676025 0.000000
vt 0.740234 0.681885 0.000000
vt 0.699707 0.719971 0.000000
vt 0.747803 0.692139 0.000000
vt 0.747803 0.692139 0.000000
vt 0.699707 0.719971 0.000000
vt 0.750977 0.706299 0.000000
vt 0.750977 0.706299 0.000000
vt 0.699707 0.719971 0.000000
vt 0.744629 0.735840 0.000000
vt 0.709961 0.687256 0.000000
vt 0.709961 0.687256 0.000000
vt 0.699707 0.719971 0.000000
vt 0.709961 0.687256 0.000000
vt 0.699707 0.719971 0.000000
vt 0.699707 0.719971 0.000000
vt 0.728271 0.676025 0.000000
vt 0.740234 0.681885 0.000000
vt 0.728271 0.676025 0.000000
vt 0.728271 0.676025 0.000000
vt 0.740234 0.681885 0.000000
vt 0.740234 0.681885 0.000000
vt 0.691895 0.624023 0.000000
vt 0.702148 0.625244 0.000000
vt 0.691895 0.624023 0.000000
vt 0.691895 0.624023 0.000000
vt 0.702148 0.625244 0.000000
vt 0.702148 0.625244 0.000000
vt 0.691895 0.624023 0.000000
vt 0.691895 0.624023 0.000000
vt 0.691895 0.624512 0.000000
vt 0.691895 0.624023 0.000000
vt 0.691895 0.624512 0.000000
vt 0.691895 0.624512 0.000000
vt 0.691895 0.624512 0.000000
vt 0.691895 0.624512 0.000000
vt 0.700684 0.631836 0.000000
vt 0.691895 0.624512 0.000000
vt 0.700684 0.631836 0.000000
vt 0.700684 0.631836 0.000000
vt 0.702148 0.625244 0.000000
vt 0.711670 0.629883 0.000000
vt 0.702148 0.625244 0.000000
vt 0.702148 0.625244 0.000000
vt 0.711670 0.629883 0.000000
vt 0.711670 0.629883 0.000000
vt 0.700684 0.631836 0.000000
vt 0.700684 0.631836 0.000000
vt 0.710693 0.651123 0.000000
vt 0.700684 0.631836 0.000000
vt 0.710693 0.651123 0.000000
vt 0.710693 0.651123 0.000000
vt 0.711670 0.629883 0.000000
vt 0.720215 0.641357 0.000000
vt 0.711670 0.629883 0.000000
vt 0.711670 0.629883 0.000000
vt 0.720215 0.641357 0.000000
vt 0.720215 0.641357 0.000000
vt 0.720215 0.641357 0.000000
vt 0.726074 0.657471 0.000000
vt 0.720215 0.641357 0.000000
vt 0.720215 0.641357 0.000000
vt 0.726074 0.657471 0.000000
vt 0.726074 0.657471 0.000000
vt 0.710693 0.651123 0.000000
vt 0.710693 0.651123 0.000000
vt 0.712891 0.668213 0.000000
vt 0.710693 0.651123 0.000000
vt 0.712891 0.668213 0.000000
vt 0.712891 0.668213 0.000000
vt 0.726074 0.657471 0.000000
vt 0.728271 0.676025 0.000000
vt 0.726074 0.657471 0.000000
vt 0.726074 0.657471 0.000000
vt 0.728271 0.676025 0.000000
vt 0.728271 0.676025 0.000000
vt 0.712891 0.668213 0.000000
vt 0.712891 0.668213 0.000000
vt 0.709961 0.687256 0.000000
vt 0.712891 0.668213 0.000000
vt 0.709961 0.687256 0.000000
vt 0.709961 0.687256 0.000000
vt 0.740234 0.681885 0.000000
vt 0.747803 0.692139 0.000000
vt 0.740234 0.681885 0.000000
vt 0.740234 0.681885 0.000000
vt 0.747803 0.692139 0.000000
vt 0.747803 0.692139 0.000000
vt 0.747803 0.692139 0.000000
vt 0.750977 0.706299 0.000000
vt 0.747803 0.692139 0.000000
vt 0.747803 0.692139 0.000000
vt 0.750977 0.706299 0.000000
vt 0.750977 0.706299 0.000000
vt 0.699707 0.719971 0.000000
vt 0.699707 0.719971 0.000000
vt 0.744629 0.735840 0.000000
vt 0.699707 0.719971 0.000000
vt 0.744629 0.735840 0.000000
vt 0.744629 0.735840 0.000000
vt 0.750977 0.706299 0.000000
vt 0.744629 0.735840 0.000000
vt 0.744629 0.735840 0.000000
vt 0.750977 0.706299 0.000000
vt 0.744629 0.735840 0.000000
vt 0.750977 0.706299 0.000000
vt 0.070557 0.135254 0.000000
vt 1.002686 0.119873 0.000000
vt 0.070557 0.104736 0.000000
vt 1.002686 0.148926 0.000000
vt 1.002686 0.119873 0.000000
vt 0.070557 0.135254 0.000000
vt 0.571533 0.257324 0.000000
vt 0.508301 0.257324 0.000000
vt 0.508301 0.257324 0.000000
vt 0.571533 0.257324 0.000000
vt 0.571533 0.257324 0.000000
vt 0.508301 0.257324 0.000000
vt 0.577881 0.566162 0.000000
vt 0.502197 0.637695 0.000000
vt 0.577881 0.637695 0.000000
vt 0.577881 0.566162 0.000000
vt 0.502197 0.566162 0.000000
vt 0.502197 0.637695 0.000000
vt 0.502197 0.508301 0.000000
vt 0.502197 0.566162 0.000000
vt 0.577881 0.566162 0.000000
vt 0.577881 0.508301 0.000000
vt 0.502197 0.508301 0.000000
vt 0.577881 0.566162 0.000000
vt 0.577881 0.439209 0.000000
vt 0.502197 0.508301 0.000000
vt 0.577881 0.508301 0.000000
vt 0.577881 0.439209 0.000000
vt 0.502197 0.439209 0.000000
vt 0.502197 0.508301 0.000000
vt 0.577881 0.331787 0.000000
vt 0.502197 0.439209 0.000000
vt 0.577881 0.439209 0.000000
vt 0.577881 0.331787 0.000000
vt 0.502197 0.331787 0.000000
vt 0.502197 0.439209 0.000000
vt 0.577881 0.299072 0.000000
vt 0.502197 0.331787 0.000000
vt 0.577881 0.331787 0.000000
vt 0.577881 0.299072 0.000000
vt 0.502197 0.299072 0.000000
vt 0.502197 0.331787 0.000000
vt 0.577881 0.282227 0.000000
vt 0.502197 0.282227 0.000000
vt 0.502197 0.299072 0.000000
vt 0.577881 0.282227 0.000000
vt 0.502197 0.299072 0.000000
vt 0.577881 0.299072 0.000000
vt 0.571533 0.257324 0.000000
vt 0.508301 0.257324 0.000000
vt 0.502197 0.282227 0.000000
vt 0.571533 0.257324 0.000000
vt 0.502197 0.282227 0.000000
vt 0.577881 0.282227 0.000000
vt 0.759766 0.736084 0.000000
vt 0.273193 0.973389 0.000000
vt 0.273193 0.762451 0.000000
vt 0.759766 0.736084 0.000000
vt 0.945312 0.973389 0.000000
vt 0.273193 0.973389 0.000000
vt 0.759766 0.736084 0.000000
vt 0.951172 0.825928 0.000000
vt 0.945312 0.973389 0.000000
vt 0.759766 0.736084 0.000000
vt 0.897949 0.757324 0.000000
vt 0.951172 0.825928 0.000000
vt 0.764893 0.648438 0.000000
vt 0.897949 0.757324 0.000000
vt 0.759766 0.736084 0.000000
vt 0.800781 0.486084 0.000000
vt 0.904541 0.639404 0.000000
vt 0.764893 0.648438 0.000000
vt 0.904541 0.639404 0.000000
vt 0.897949 0.757324 0.000000
vt 0.764893 0.648438 0.000000
vt 0.986816 0.442383 0.000000
vt 0.904541 0.639404 0.000000
vt 0.800781 0.486084 0.000000
vt 0.828369 0.341797 0.000000
vt 0.986816 0.442383 0.000000
vt 0.800781 0.486084 0.000000
vt 0.826660 0.279785 0.000000
vt 0.996582 0.280273 0.000000
vt 0.986816 0.442383 0.000000
vt 0.826660 0.279785 0.000000
vt 0.986816 0.442383 0.000000
vt 0.828369 0.341797 0.000000
vt 0.967285 0.257080 0.000000
vt 0.996582 0.280273 0.000000
vt 0.826660 0.279785 0.000000
vt 0.835205 0.257080 0.000000
vt 0.967285 0.257080 0.000000
vt 0.826660 0.279785 0.000000
vt 0.838623 0.229736 0.000000
vt 0.959717 0.229736 0.000000
vt 0.835205 0.257080 0.000000
vt 0.959717 0.229736 0.000000
vt 0.967285 0.257080 0.000000
vt 0.835205 0.257080 0.000000
vt 0.302002 0.241455 0.000000
vt 0.072510 0.026367 0.000000
vt 0.070557 0.157959 0.000000
vt 0.302002 0.241455 0.000000
vt 0.846680 0.026367 0.000000
vt 0.072510 0.026367 0.000000
vt 0.302002 0.241455 0.000000
vt 0.848633 0.217285 0.000000
vt 0.846680 0.026367 0.000000
vt 0.302002 0.241455 0.000000
vt 0.070557 0.157959 0.000000
vt 0.137939 0.234375 0.000000
vt 0.276855 0.337158 0.000000
vt 0.302002 0.241455 0.000000
vt 0.137939 0.234375 0.000000
vt 0.133301 0.300293 0.000000
vt 0.276855 0.337158 0.000000
vt 0.137939 0.234375 0.000000
vt 0.230957 0.513672 0.000000
vt 0.276855 0.337158 0.000000
vt 0.133301 0.300293 0.000000
vt 0.018799 0.517334 0.000000
vt 0.230957 0.513672 0.000000
vt 0.133301 0.300293 0.000000
vt 0.219482 0.570068 0.000000
vt 0.230957 0.513672 0.000000
vt 0.018799 0.517334 0.000000
vt 0.220947 0.631836 0.000000
vt 0.018799 0.517334 0.000000
vt 0.019287 0.631592 0.000000
vt 0.220947 0.631836 0.000000
vt 0.219482 0.570068 0.000000
vt 0.018799 0.517334 0.000000
vt 0.200684 0.654541 0.000000
vt 0.220947 0.631836 0.000000
vt 0.048584 0.654541 0.000000
vt 0.048584 0.654541 0.000000
vt 0.220947 0.631836 0.000000
vt 0.019287 0.631592 0.000000
vt 0.197021 0.677979 0.000000
vt 0.200684 0.654541 0.000000
vt 0.056152 0.677979 0.000000
vt 0.056152 0.677979 0.000000
vt 0.200684 0.654541 0.000000
vt 0.048584 0.654541 0.000000
vt 0.785645 0.213379 0.000000
vt 0.595459 0.213379 0.000000
vt 0.595459 0.554688 0.000000
vt 0.785645 0.213379 0.000000
vt 0.595459 0.554688 0.000000
vt 0.785645 0.554688 0.000000
vn 0.653076 0.707031 -0.270508
vn 0.000000 0.941406 -0.336670
vn 0.270508 0.923828 0.270508
vn 0.000000 0.941406 -0.336670
vn 0.000000 0.881836 0.471191
vn 0.270508 0.923828 0.270508
vn -0.467041 -0.832275 -0.297607
vn 0.428955 -0.881836 0.195312
vn -0.477783 -0.480713 0.735107
vn 0.541016 -0.594238 -0.594727
vn 0.428955 -0.881836 0.195312
vn -0.467041 -0.832275 -0.297607
vn -0.743652 0.076172 -0.664062
vn -0.758301 -0.518066 -0.395264
vn -0.926758 -0.104736 0.360596
vn -0.926758 -0.104736 0.360596
vn -0.758301 -0.518066 -0.395264
vn -0.356445 -0.631836 0.687988
vn -0.743652 0.076172 -0.664062
vn 0.047119 -0.085693 -0.995117
vn -0.758301 -0.518066 -0.395264
vn -0.035889 0.380859 -0.923828
vn 0.047119 -0.085693 -0.995117
vn -0.743652 0.076172 -0.664062
vn 0.000000 0.941406 -0.336670
vn -0.409668 -0.443359 -0.796875
vn 0.047119 -0.085693 -0.995117
vn 0.000000 0.941406 -0.336670
vn 0.047119 -0.085693 -0.995117
vn -0.035889 0.380859 -0.923828
vn 0.706299 -0.671875 0.222412
vn -0.356445 -0.631836 0.687988
vn -0.758301 -0.518066 -0.395264
vn 0.047119 -0.085693 -0.995117
vn 0.706299 -0.671875 0.222412
vn -0.758301 -0.518066 -0.395264
vn 0.047119 -0.085693 -0.995117
vn -0.018555 -0.923828 0.382080
vn 0.706299 -0.671875 0.222412
vn -0.409668 -0.443359 -0.796875
vn -0.018555 -0.923828 0.382080
vn 0.047119 -0.085693 -0.995117
vn -0.926758 -0.104736 0.360596
vn -0.356445 -0.631836 0.687988
vn 0.706299 -0.671875 0.222412
vn -0.027344 0.193115 0.980713
vn -0.926758 -0.104736 0.360596
vn 0.706299 -0.671875 0.222412
vn 0.000000 0.881836 0.471191
vn -0.027344 0.193115 0.980713
vn -0.018555 -0.923828 0.382080
vn -0.027344 0.193115 0.980713
vn 0.706299 -0.671875 0.222412
vn -0.018555 -0.923828 0.382080
vn -0.027344 0.193115 0.980713
vn -0.743652 0.076172 -0.664062
vn -0.926758 -0.104736 0.360596
vn -0.035889 0.380859 -0.923828
vn -0.743652 0.076172 -0.664062
vn -0.027344 0.193115 0.980713
vn 0.000000 0.941406 -0.336670
vn -0.035889 0.380859 -0.923828
vn 0.000000 0.881836 0.471191
vn -0.035889 0.380859 -0.923828
vn -0.027344 0.193115 0.980713
vn 0.000000 0.881836 0.471191
vn 0.922607 0.329590 -0.199707
vn 0.428955 -0.881836 0.195312
vn 0.541016 -0.594238 -0.594727
vn 0.922607 0.329590 -0.199707
vn 0.955566 0.216064 0.199219
vn 0.428955 -0.881836 0.195312
vn 0.653076 0.707031 -0.270508
vn 0.270508 0.923828 0.270508
vn 0.955566 0.216064 0.199219
vn 0.653076 0.707031 -0.270508
vn 0.955566 0.216064 0.199219
vn 0.922607 0.329590 -0.199707
vn 0.270508 0.923828 0.270508
vn 0.000000 0.881836 0.471191
vn -0.018555 -0.923828 0.382080
vn 0.270508 0.923828 0.270508
vn -0.018555 -0.923828 0.382080
vn 0.955566 0.216064 0.199219
vn -0.018555 -0.923828 0.382080
vn -0.190430 0.041748 0.980713
vn 0.955566 0.216064 0.199219
vn 0.955566 0.216064 0.199219
vn -0.190430 0.041748 0.980713
vn 0.428955 -0.881836 0.195312
vn -0.190430 0.041748 0.980713
vn -0.477783 -0.480713 0.735107
vn 0.428955 -0.881836 0.195312
vn -0.409668 -0.443359 -0.796875
vn -0.190430 0.041748 0.980713
vn -0.018555 -0.923828 0.382080
vn -0.409668 -0.443359 -0.796875
vn -0.854248 0.314453 -0.413818
vn -0.190430 0.041748 0.980713
vn -0.190430 0.041748 0.980713
vn -0.467041 -0.832275 -0.297607
vn -0.477783 -0.480713 0.735107
vn -0.854248 0.314453 -0.413818
vn -0.467041 -0.832275 -0.297607
vn -0.190430 0.041748 0.980713
vn -0.409668 -0.443359 -0.796875
vn 0.922607 0.329590 -0.199707
vn -0.854248 0.314453 -0.413818
vn 0.653076 0.707031 -0.270508
vn 0.922607 0.329590 -0.199707
vn -0.409668 -0.443359 -0.796875
vn 0.653076 0.707031 -0.270508
vn -0.409668 -0.443359 -0.796875
vn 0.000000 0.941406 -0.336670
vn 0.922607 0.329590 -0.199707
vn 0.541016 -0.594238 -0.594727
vn -0.854248 0.314453 -0.413818
vn -0.854248 0.314453 -0.413818
vn 0.541016 -0.594238 -0.594727
vn -0.467041 -0.832275 -0.297607
vn 0.174316 0.142822 0.974121
vn -0.629883 0.232178 0.740967
vn -0.277344 -0.452881 0.847168
vn 0.174316 0.142822 0.974121
vn -0.277344 -0.452881 0.847168
vn 0.241455 -0.756836 0.607178
vn 0.653076 0.707031 -0.270508
vn -0.415771 0.890625 -0.182861
vn 0.174316 0.142822 0.974121
vn -0.415771 0.890625 -0.182861
vn -0.629883 0.232178 0.740967
vn 0.174316 0.142822 0.974121
vn -0.415771 0.890625 -0.182861
vn -0.277344 -0.452881 0.847168
vn -0.629883 0.232178 0.740967
vn -0.415771 0.890625 -0.182861
vn -0.581543 -0.778320 -0.236328
vn -0.277344 -0.452881 0.847168
vn -0.581543 -0.778320 -0.236328
vn 0.241455 -0.756836 0.607178
vn -0.277344 -0.452881 0.847168
vn 0.500000 -0.707031 -0.500000
vn 0.241455 -0.756836 0.607178
vn -0.581543 -0.778320 -0.236328
vn 0.653076 0.707031 -0.270508
vn 0.174316 0.142822 0.974121
vn 0.241455 -0.756836 0.607178
vn 0.653076 0.707031 -0.270508
vn 0.241455 -0.756836 0.607178
vn 0.500000 -0.707031 -0.500000
vn 0.653076 0.707031 -0.270508
vn 0.500000 -0.707031 -0.500000
vn -0.581543 -0.778320 -0.236328
vn 0.653076 0.707031 -0.270508
vn -0.581543 -0.778320 -0.236328
vn -0.415771 0.890625 -0.182861
vn 0.307861 0.036377 -0.950439
vn 0.457520 -0.635254 -0.622070
vn -0.277344 -0.452881 -0.847168
vn 0.307861 0.036377 -0.950439
vn -0.277344 -0.452881 -0.847168
vn -0.374268 0.498291 -0.781738
vn 0.307861 0.036377 -0.950439
vn -0.374268 0.498291 -0.781738
vn 0.353516 0.923828 0.146240
vn -0.374268 0.498291 -0.781738
vn -0.740967 0.586914 0.325928
vn 0.353516 0.923828 0.146240
vn -0.374268 0.498291 -0.781738
vn -0.277344 -0.452881 -0.847168
vn -0.740967 0.586914 0.325928
vn -0.740967 0.586914 0.325928
vn -0.277344 -0.452881 -0.847168
vn -0.598389 -0.663086 0.449219
vn 0.457520 -0.635254 -0.622070
vn 0.270508 -0.923828 0.270508
vn -0.277344 -0.452881 -0.847168
vn -0.277344 -0.452881 -0.847168
vn 0.270508 -0.923828 0.270508
vn -0.598389 -0.663086 0.449219
vn 0.307861 0.036377 -0.950439
vn 0.353516 0.923828 0.146240
vn 0.457520 -0.635254 -0.622070
vn 0.353516 0.923828 0.146240
vn 0.270508 -0.923828 0.270508
vn 0.457520 -0.635254 -0.622070
vn 0.353516 0.923828 0.146240
vn -0.740967 0.586914 0.325928
vn -0.598389 -0.663086 0.449219
vn 0.353516 0.923828 0.146240
vn -0.598389 -0.663086 0.449219
vn 0.270508 -0.923828 0.270508
vn 0.375732 0.598877 0.707031
vn -0.314941 0.217285 0.923828
vn 0.085205 -0.372803 0.923828
vn -0.314941 0.217285 0.923828
vn -0.556396 -0.436035 0.707031
vn 0.085205 -0.372803 0.923828
vn 0.523193 0.529297 -0.667725
vn -0.418945 0.888672 -0.185547
vn 0.375732 0.598877 0.707031
vn -0.418945 0.888672 -0.185547
vn -0.314941 0.217285 0.923828
vn 0.375732 0.598877 0.707031
vn -0.418945 0.888672 -0.185547
vn -0.556396 -0.436035 0.707031
vn -0.314941 0.217285 0.923828
vn -0.418945 0.888672 -0.185547
vn -0.573730 -0.784424 -0.234619
vn -0.556396 -0.436035 0.707031
vn -0.573730 -0.784424 -0.234619
vn 0.085205 -0.372803 0.923828
vn -0.556396 -0.436035 0.707031
vn 0.407959 -0.886963 -0.215576
vn 0.085205 -0.372803 0.923828
vn -0.573730 -0.784424 -0.234619
vn 0.375732 0.598877 0.707031
vn 0.085205 -0.372803 0.923828
vn 0.407959 -0.886963 -0.215576
vn 0.523193 0.529297 -0.667725
vn 0.375732 0.598877 0.707031
vn 0.407959 -0.886963 -0.215576
vn 0.523193 0.529297 -0.667725
vn 0.407959 -0.886963 -0.215576
vn -0.418945 0.888672 -0.185547
vn -0.418945 0.888672 -0.185547
vn 0.407959 -0.886963 -0.215576
vn -0.573730 -0.784424 -0.234619
vn 0.995117 -0.069092 -0.069092
vn 0.923828 -0.212402 0.318115
vn 0.707031 -0.693359 -0.137939
vn 0.923828 0.074463 0.375244
vn 0.923828 -0.212402 0.318115
vn 0.995117 -0.069092 -0.069092
vn 0.980713 0.162109 0.108154
vn 0.923828 0.074463 0.375244
vn 0.995117 -0.069092 -0.069092
vn 0.980713 0.162109 0.108154
vn 0.995117 -0.069092 -0.069092
vn 0.980713 0.000000 -0.195068
vn 0.923828 0.375244 -0.074463
vn 0.980713 0.000000 -0.195068
vn 0.707031 0.500000 -0.500000
vn 0.923828 0.375244 -0.074463
vn 0.980713 0.162109 0.108154
vn 0.980713 0.000000 -0.195068
vn 0.995117 -0.069092 -0.069092
vn 0.707031 -0.693359 -0.137939
vn -0.211182 -0.835205 -0.507568
vn -0.211182 -0.835205 -0.507568
vn 0.707031 -0.693359 -0.137939
vn -0.210449 -0.977295 -0.015869
vn 0.980713 0.000000 -0.195068
vn 0.995117 -0.069092 -0.069092
vn -0.211182 -0.231445 -0.949463
vn -0.211182 -0.231445 -0.949463
vn 0.995117 -0.069092 -0.069092
vn -0.211182 -0.835205 -0.507568
vn 0.707031 0.500000 -0.500000
vn 0.980713 0.000000 -0.195068
vn -0.107666 0.543701 -0.832275
vn -0.107666 0.543701 -0.832275
vn 0.980713 0.000000 -0.195068
vn -0.211182 -0.231445 -0.949463
vn 0.923828 0.375244 -0.074463
vn 0.707031 0.500000 -0.500000
vn -0.107666 0.543701 -0.832275
vn 0.923828 0.375244 -0.074463
vn -0.107666 0.543701 -0.832275
vn -0.210449 0.977295 -0.015869
vn 0.923828 0.375244 -0.074463
vn -0.210449 0.977295 -0.015869
vn 0.980713 0.162109 0.108154
vn -0.210449 0.977295 -0.015869
vn -0.210449 0.702393 0.679688
vn 0.980713 0.162109 0.108154
vn 0.980713 0.162109 0.108154
vn -0.210449 0.702393 0.679688
vn 0.923828 0.074463 0.375244
vn -0.210449 0.702393 0.679688
vn -0.210449 0.015869 0.977295
vn 0.923828 0.074463 0.375244
vn 0.923828 0.074463 0.375244
vn -0.210449 0.015869 0.977295
vn 0.923828 -0.212402 0.318115
vn -0.210449 0.015869 0.977295
vn -0.408203 -0.597900 0.689453
vn 0.923828 -0.212402 0.318115
vn 0.923828 -0.212402 0.318115
vn -0.408203 -0.597900 0.689453
vn -0.210449 -0.977295 -0.015869
vn 0.923828 -0.212402 0.318115
vn -0.210449 -0.977295 -0.015869
vn 0.707031 -0.693359 -0.137939
vn -0.211182 -0.835205 -0.507568
vn -0.210449 -0.977295 -0.015869
vn -0.408203 -0.597900 0.689453
vn -0.210449 0.015869 0.977295
vn -0.211182 -0.835205 -0.507568
vn -0.408203 -0.597900 0.689453
vn -0.210449 0.702393 0.679688
vn -0.211182 -0.835205 -0.507568
vn -0.210449 0.015869 0.977295
vn -0.210449 0.702393 0.679688
vn -0.211182 -0.231445 -0.949463
vn -0.211182 -0.835205 -0.507568
vn -0.210449 0.977295 -0.015869
vn -0.211182 -0.231445 -0.949463
vn -0.210449 0.702393 0.679688
vn -0.210449 0.977295 -0.015869
vn -0.107666 0.543701 -0.832275
vn -0.211182 -0.231445 -0.949463
vn -0.946777 -0.305420 0.099365
vn -0.973389 -0.032959 -0.226074
vn -0.938965 0.259766 0.224609
vn -0.860840 -0.330566 -0.386475
vn -0.973389 -0.032959 -0.226074
vn -0.946777 -0.305420 0.099365
vn -0.898438 -0.427002 -0.100830
vn -0.946777 -0.305420 0.099365
vn -0.859619 -0.329346 0.390381
vn -0.898438 -0.427002 -0.100830
vn -0.860840 -0.330566 -0.386475
vn -0.946777 -0.305420 0.099365
vn -0.966309 0.110596 0.231689
vn -0.898438 -0.427002 -0.100830
vn -0.859619 -0.329346 0.390381
vn -0.878662 0.417480 -0.230469
vn -0.898438 -0.427002 -0.100830
vn -0.966309 0.110596 0.231689
vn -0.741211 0.639648 -0.202881
vn -0.878662 0.417480 -0.230469
vn -0.597168 0.776123 0.201904
vn -0.597168 0.776123 0.201904
vn -0.878662 0.417480 -0.230469
vn -0.966309 0.110596 0.231689
vn -0.588135 0.785889 -0.190430
vn -0.741211 0.639648 -0.202881
vn -0.816895 0.542480 0.194580
vn -0.816895 0.542480 0.194580
vn -0.741211 0.639648 -0.202881
vn -0.597168 0.776123 0.201904
vn -0.975098 0.192627 -0.108643
vn -0.923828 -0.270508 0.270508
vn -0.860107 0.301514 0.410889
vn -0.975098 0.192627 -0.108643
vn -0.707031 -0.653076 -0.270508
vn -0.923828 -0.270508 0.270508
vn -0.938965 0.259766 0.224609
vn -0.975098 0.192627 -0.108643
vn -0.860107 0.301514 0.410889
vn -0.973389 -0.032959 -0.226074
vn -0.975098 0.192627 -0.108643
vn -0.938965 0.259766 0.224609
vn -0.113037 0.158691 0.980713
vn -0.104736 0.164307 0.980713
vn 0.183105 0.066650 0.980713
vn -0.104736 0.164307 0.980713
vn 0.087891 -0.043213 0.995117
vn 0.183105 0.066650 0.980713
vn 0.335205 -0.184326 0.923828
vn -0.042969 0.190186 0.980713
vn 0.135010 -0.140625 0.980713
vn 0.228027 0.669189 0.707031
vn -0.042969 0.190186 0.980713
vn 0.335205 -0.184326 0.923828
vn -0.042969 0.190186 0.980713
vn -0.105469 0.163818 0.980713
vn 0.135010 -0.140625 0.980713
vn -0.105469 0.163818 0.980713
vn 0.090820 -0.036621 0.995117
vn 0.135010 -0.140625 0.980713
vn -0.105469 0.163818 0.980713
vn -0.311523 0.222168 0.923828
vn 0.090820 -0.036621 0.995117
vn 0.090820 -0.036621 0.995117
vn -0.186279 0.057617 0.980713
vn 0.194824 0.003662 0.980713
vn -0.311523 0.222168 0.923828
vn -0.186279 0.057617 0.980713
vn 0.090820 -0.036621 0.995117
vn 0.194824 0.003662 0.980713
vn -0.113037 0.158691 0.980713
vn 0.183105 0.066650 0.980713
vn -0.186279 0.057617 0.980713
vn -0.113037 0.158691 0.980713
vn 0.194824 0.003662 0.980713
vn -0.104736 0.164307 0.980713
vn -0.330322 0.192627 0.923828
vn 0.087891 -0.043213 0.995117
vn -0.330322 0.192627 0.923828
vn -0.382568 -0.000244 0.923828
vn 0.087891 -0.043213 0.995117
vn -0.382568 -0.000244 0.923828
vn -0.351807 -0.613037 0.707031
vn 0.087891 -0.043213 0.995117
vn -0.086426 0.174805 -0.980713
vn 0.186279 0.057617 -0.980713
vn 0.097900 -0.002686 -0.995117
vn -0.151123 0.123047 -0.980713
vn 0.186279 0.057617 -0.980713
vn -0.086426 0.174805 -0.980713
vn 0.370605 -0.095215 -0.923828
vn 0.120117 -0.153564 -0.980713
vn -0.029785 0.192627 -0.980713
vn 0.478027 0.520752 -0.707031
vn 0.370605 -0.095215 -0.923828
vn -0.029785 0.192627 -0.980713
vn -0.029785 0.192627 -0.980713
vn 0.120117 -0.153564 -0.980713
vn -0.087402 0.174316 -0.980713
vn -0.087402 0.174316 -0.980713
vn 0.120117 -0.153564 -0.980713
vn 0.086182 -0.046387 -0.995117
vn -0.087402 0.174316 -0.980713
vn 0.086182 -0.046387 -0.995117
vn -0.291992 0.247070 -0.923828
vn 0.086182 -0.046387 -0.995117
vn 0.194580 -0.013672 -0.980713
vn -0.181152 0.071777 -0.980713
vn -0.291992 0.247070 -0.923828
vn 0.086182 -0.046387 -0.995117
vn -0.181152 0.071777 -0.980713
vn 0.194580 -0.013672 -0.980713
vn 0.186279 0.057617 -0.980713
vn -0.151123 0.123047 -0.980713
vn -0.181152 0.071777 -0.980713
vn 0.194580 -0.013672 -0.980713
vn -0.151123 0.123047 -0.980713
vn -0.086426 0.174805 -0.980713
vn 0.097900 -0.002686 -0.995117
vn -0.302979 0.233643 -0.923828
vn -0.302979 0.233643 -0.923828
vn 0.097900 -0.002686 -0.995117
vn -0.379150 0.051270 -0.923828
vn -0.379150 0.051270 -0.923828
vn 0.097900 -0.002686 -0.995117
vn -0.093506 -0.700684 -0.707031
vn 0.186279 0.057617 -0.980713
vn 0.183105 0.066650 0.980713
vn 0.097900 -0.002686 -0.995117
vn 0.183105 0.066650 0.980713
vn 0.087891 -0.043213 0.995117
vn 0.097900 -0.002686 -0.995117
vn -0.151123 0.123047 -0.980713
vn -0.086426 0.174805 -0.980713
vn -0.113037 0.158691 0.980713
vn -0.113037 0.158691 0.980713
vn -0.086426 0.174805 -0.980713
vn -0.104736 0.164307 0.980713
vn 0.478027 0.520752 -0.707031
vn -0.029785 0.192627 -0.980713
vn 0.228027 0.669189 0.707031
vn 0.228027 0.669189 0.707031
vn -0.029785 0.192627 -0.980713
vn -0.042969 0.190186 0.980713
vn 0.478027 0.520752 -0.707031
vn 0.228027 0.669189 0.707031
vn 0.370605 -0.095215 -0.923828
vn 0.228027 0.669189 0.707031
vn 0.335205 -0.184326 0.923828
vn 0.370605 -0.095215 -0.923828
vn 0.370605 -0.095215 -0.923828
vn 0.335205 -0.184326 0.923828
vn 0.120117 -0.153564 -0.980713
vn 0.335205 -0.184326 0.923828
vn 0.135010 -0.140625 0.980713
vn 0.120117 -0.153564 -0.980713
vn -0.029785 0.192627 -0.980713
vn -0.087402 0.174316 -0.980713
vn -0.042969 0.190186 0.980713
vn -0.042969 0.190186 0.980713
vn -0.087402 0.174316 -0.980713
vn -0.105469 0.163818 0.980713
vn 0.120117 -0.153564 -0.980713
vn 0.135010 -0.140625 0.980713
vn 0.086182 -0.046387 -0.995117
vn 0.135010 -0.140625 0.980713
vn 0.090820 -0.036621 0.995117
vn 0.086182 -0.046387 -0.995117
vn -0.087402 0.174316 -0.980713
vn -0.291992 0.247070 -0.923828
vn -0.105469 0.163818 0.980713
vn -0.105469 0.163818 0.980713
vn -0.291992 0.247070 -0.923828
vn -0.311523 0.222168 0.923828
vn -0.291992 0.247070 -0.923828
vn -0.181152 0.071777 -0.980713
vn -0.311523 0.222168 0.923828
vn -0.311523 0.222168 0.923828
vn -0.181152 0.071777 -0.980713
vn -0.186279 0.057617 0.980713
vn 0.086182 -0.046387 -0.995117
vn 0.090820 -0.036621 0.995117
vn 0.194580 -0.013672 -0.980713
vn 0.090820 -0.036621 0.995117
vn 0.194824 0.003662 0.980713
vn 0.194580 -0.013672 -0.980713
vn -0.181152 0.071777 -0.980713
vn -0.151123 0.123047 -0.980713
vn -0.186279 0.057617 0.980713
vn -0.186279 0.057617 0.980713
vn -0.151123 0.123047 -0.980713
vn -0.113037 0.158691 0.980713
vn 0.194580 -0.013672 -0.980713
vn 0.194824 0.003662 0.980713
vn 0.183105 0.066650 0.980713
vn 0.194580 -0.013672 -0.980713
vn 0.183105 0.066650 0.980713
vn 0.186279 0.057617 -0.980713
vn -0.086426 0.174805 -0.980713
vn -0.302979 0.233643 -0.923828
vn -0.104736 0.164307 0.980713
vn -0.104736 0.164307 0.980713
vn -0.302979 0.233643 -0.923828
vn -0.330322 0.192627 0.923828
vn -0.302979 0.233643 -0.923828
vn -0.379150 0.051270 -0.923828
vn -0.330322 0.192627 0.923828
vn -0.330322 0.192627 0.923828
vn -0.379150 0.051270 -0.923828
vn -0.382568 -0.000244 0.923828
vn 0.097900 -0.002686 -0.995117
vn 0.087891 -0.043213 0.995117
vn -0.093506 -0.700684 -0.707031
vn 0.087891 -0.043213 0.995117
vn -0.351807 -0.613037 0.707031
vn -0.093506 -0.700684 -0.707031
vn -0.379150 0.051270 -0.923828
vn -0.093506 -0.700684 -0.707031
vn -0.351807 -0.613037 0.707031
vn -0.379150 0.051270 -0.923828
vn -0.351807 -0.613037 0.707031
vn -0.382568 -0.000244 0.923828
vn -0.707031 -0.653076 -0.270508
vn 0.000000 -0.923828 0.382568
vn -0.923828 -0.270508 0.270508
vn 0.000000 -0.707031 -0.707031
vn 0.000000 -0.923828 0.382568
vn -0.707031 -0.653076 -0.270508
vn -0.588135 0.785889 -0.190430
vn -0.816895 0.542480 0.194580
vn 0.197021 0.960205 0.197021
vn 0.508789 0.835938 -0.204834
vn -0.588135 0.785889 -0.190430
vn 0.197021 0.960205 0.197021
vn 0.308105 0.943359 -0.122314
vn 0.032715 0.923096 0.382568
vn 0.025146 0.706543 -0.707031
vn 0.308105 0.943359 -0.122314
vn 0.441162 0.779053 0.444824
vn 0.032715 0.923096 0.382568
vn 0.942139 0.319824 0.097900
vn 0.441162 0.779053 0.444824
vn 0.308105 0.943359 -0.122314
vn 0.878418 0.285645 -0.382812
vn 0.942139 0.319824 0.097900
vn 0.308105 0.943359 -0.122314
vn 0.944580 0.263428 -0.195068
vn 0.942139 0.319824 0.097900
vn 0.878418 0.285645 -0.382812
vn 0.944580 0.263428 -0.195068
vn 0.944580 0.263428 0.195068
vn 0.942139 0.319824 0.097900
vn 0.944580 0.263428 -0.195068
vn 0.944580 0.263428 0.195068
vn 0.944580 0.263428 -0.195068
vn 0.944580 0.263428 -0.195068
vn 0.944580 0.263428 0.195068
vn 0.944580 0.263428 0.195068
vn 0.944580 0.263428 -0.195068
vn 0.944580 0.263428 0.195068
vn 0.944580 0.263428 -0.195068
vn 0.944580 0.263428 -0.195068
vn 0.944580 0.263428 0.195068
vn 0.944580 0.263428 0.195068
vn 0.935059 0.301025 -0.187012
vn 0.930664 0.313965 0.186768
vn 0.944580 0.263428 0.195068
vn 0.935059 0.301025 -0.187012
vn 0.944580 0.263428 0.195068
vn 0.944580 0.263428 -0.195068
vn 0.508789 0.835938 -0.204834
vn 0.197021 0.960205 0.197021
vn 0.930664 0.313965 0.186768
vn 0.508789 0.835938 -0.204834
vn 0.930664 0.313965 0.186768
vn 0.935059 0.301025 -0.187012
vn 0.441162 0.779053 0.444824
vn 0.000000 -0.923828 0.382568
vn 0.032715 0.923096 0.382568
vn 0.441162 0.779053 0.444824
vn -0.923828 -0.270508 0.270508
vn 0.000000 -0.923828 0.382568
vn 0.441162 0.779053 0.444824
vn -0.860107 0.301514 0.410889
vn -0.923828 -0.270508 0.270508
vn 0.441162 0.779053 0.444824
vn -0.938965 0.259766 0.224609
vn -0.860107 0.301514 0.410889
vn 0.942139 0.319824 0.097900
vn -0.938965 0.259766 0.224609
vn 0.441162 0.779053 0.444824
vn 0.944580 0.263428 0.195068
vn -0.946777 -0.305420 0.099365
vn 0.942139 0.319824 0.097900
vn -0.946777 -0.305420 0.099365
vn -0.938965 0.259766 0.224609
vn 0.942139 0.319824 0.097900
vn -0.859619 -0.329346 0.390381
vn -0.946777 -0.305420 0.099365
vn 0.944580 0.263428 0.195068
vn 0.944580 0.263428 0.195068
vn -0.859619 -0.329346 0.390381
vn 0.944580 0.263428 0.195068
vn 0.944580 0.263428 0.195068
vn -0.966309 0.110596 0.231689
vn -0.859619 -0.329346 0.390381
vn 0.944580 0.263428 0.195068
vn -0.859619 -0.329346 0.390381
vn 0.944580 0.263428 0.195068
vn -0.597168 0.776123 0.201904
vn -0.966309 0.110596 0.231689
vn 0.944580 0.263428 0.195068
vn 0.930664 0.313965 0.186768
vn -0.597168 0.776123 0.201904
vn 0.944580 0.263428 0.195068
vn 0.197021 0.960205 0.197021
vn -0.816895 0.542480 0.194580
vn 0.930664 0.313965 0.186768
vn -0.816895 0.542480 0.194580
vn -0.597168 0.776123 0.201904
vn 0.930664 0.313965 0.186768
vn 0.308105 0.943359 -0.122314
vn -0.707031 -0.653076 -0.270508
vn -0.975098 0.192627 -0.108643
vn 0.308105 0.943359 -0.122314
vn 0.000000 -0.707031 -0.707031
vn -0.707031 -0.653076 -0.270508
vn 0.308105 0.943359 -0.122314
vn 0.025146 0.706543 -0.707031
vn 0.000000 -0.707031 -0.707031
vn 0.308105 0.943359 -0.122314
vn -0.975098 0.192627 -0.108643
vn -0.973389 -0.032959 -0.226074
vn 0.878418 0.285645 -0.382812
vn 0.308105 0.943359 -0.122314
vn -0.973389 -0.032959 -0.226074
vn -0.860840 -0.330566 -0.386475
vn 0.878418 0.285645 -0.382812
vn -0.973389 -0.032959 -0.226074
vn 0.944580 0.263428 -0.195068
vn 0.878418 0.285645 -0.382812
vn -0.860840 -0.330566 -0.386475
vn -0.898438 -0.427002 -0.100830
vn 0.944580 0.263428 -0.195068
vn -0.860840 -0.330566 -0.386475
vn 0.944580 0.263428 -0.195068
vn 0.944580 0.263428 -0.195068
vn -0.898438 -0.427002 -0.100830
vn 0.944580 0.263428 -0.195068
vn -0.898438 -0.427002 -0.100830
vn -0.878662 0.417480 -0.230469
vn 0.944580 0.263428 -0.195068
vn 0.944580 0.263428 -0.195068
vn -0.898438 -0.427002 -0.100830
vn 0.935059 0.301025 -0.187012
vn 0.944580 0.263428 -0.195068
vn -0.741211 0.639648 -0.202881
vn -0.741211 0.639648 -0.202881
vn 0.944580 0.263428 -0.195068
vn -0.878662 0.417480 -0.230469
vn 0.508789 0.835938 -0.204834
vn 0.935059 0.301025 -0.187012
vn -0.588135 0.785889 -0.190430
vn -0.588135 0.785889 -0.190430
vn 0.935059 0.301025 -0.187012
vn -0.741211 0.639648 -0.202881
vn 1.000000 0.000000 0.000000
vn 1.000000 0.000000 0.000000
vn 1.000000 0.000000 0.000000
vn 1.000000 0.000000 0.000000
vn 1.000000 0.000000 0.000000
vn 1.000000 0.000000 0.000000
usemtl Texture
f 1/1/1 2/2/2 3/3/3
f 4/4/4 5/5/5 6/6/6
f 7/7/7 8/8/8 9/9/9
f 10/10/10 11/11/11 12/12/12
f 13/13/13 14/14/14 15/15/15
f 16/16/16 17/17/17 18/18/18
f 19/19/19 20/20/20 21/21/21
f 22/22/22 23/23/23 24/24/24
f 25/25/25 26/26/26 27/27/27
f 28/28/28 29/29/29 30/30/30
f 31/31/31 32/32/32 33/33/33
f 34/34/34 35/35/35 36/36/36
f 37/37/37 38/38/38 39/39/39
f 40/40/40 41/41/41 42/42/42
f 43/43/43 44/44/44 45/45/45
f 46/46/46 47/47/47 48/48/48
f 49/49/49 50/50/50 51/51/51
f 52/52/52 53/53/53 54/54/54
f 55/55/55 56/56/56 57/57/57
f 58/58/58 59/59/59 60/60/60
f 61/61/61 62/62/62 63/63/63
f 64/64/64 65/65/65 66/66/66
f 67/67/67 68/68/68 69/69/69
f 70/70/70 71/71/71 72/72/72
f 73/73/73 74/74/74 75/75/75
f 76/76/76 77/77/77 78/78/78
f 79/79/79 80/80/80 81/81/81
f 82/82/82 83/83/83 84/84/84
f 85/85/85 86/86/86 87/87/87
f 88/88/88 89/89/89 90/90/90
f 91/91/91 92/92/92 93/93/93
f 94/94/94 95/95/95 96/96/96
f 97/97/97 98/98/98 99/99/99
f 100/100/100 101/101/101 102/102/102
f 103/103/103 104/104/104 105/105/105
f 106/106/106 107/107/107 108/108/108
f 109/109/109 110/110/110 111/111/111
f 112/112/112 113/113/113 114/114/114
f 115/115/115 116/116/116 117/117/117
f 118/118/118 119/119/119 120/120/120
f 121/121/121 122/122/122 123/123/123
f 124/124/124 125/125/125 126/126/126
f 127/127/127 128/128/128 129/129/129
f 130/130/130 131/131/131 132/132/132
f 133/133/133 134/134/134 135/135/135
f 136/136/136 137/137/137 138/138/138
f 139/139/139 140/140/140 141/141/141
f 142/142/142 143/143/143 144/144/144
f 145/145/145 146/146/146 147/147/147
f 148/148/148 149/149/149 150/150/150
f 151/151/151 152/152/152 153/153/153
f 154/154/154 155/155/155 156/156/156
f 157/157/157 158/158/158 159/159/159
f 160/160/160 161/161/161 162/162/162
f 163/163/163 164/164/164 165/165/165
f 166/166/166 167/167/167 168/168/168
f 169/169/169 170/170/170 171/171/171
f 172/172/172 173/173/173 174/174/174
f 175/175/175 176/176/176 177/177/177
f 178/178/178 179/179/179 180/180/180
f 181/181/181 182/182/182 183/183/183
f 184/184/184 185/185/185 186/186/186
f 187/187/187 188/188/188 189/189/189
f 190/190/190 191/191/191 192/192/192
f 193/193/193 194/194/194 195/195/195
f 196/196/196 197/197/197 198/198/198
f 199/199/199 200/200/200 201/201/201
f 202/202/202 203/203/203 204/204/204
f 205/205/205 206/206/206 207/207/207
f 208/208/208 209/209/209 210/210/210
f 211/211/211 212/212/212 213/213/213
f 214/214/214 215/215/215 216/216/216
f 217/217/217 218/218/218 219/219/219
f 220/220/220 221/221/221 222/222/222
f 223/223/223 224/224/224 225/225/225
f 226/226/226 227/227/227 228/228/228
f 229/229/229 230/230/230 231/231/231
f 232/232/232 233/233/233 234/234/234
f 235/235/235 236/236/236 237/237/237
f 238/238/238 239/239/239 240/240/240
f 241/241/241 242/242/242 243/243/243
f 244/244/244 245/245/245 246/246/246
f 247/247/247 248/248/248 249/249/249
f 250/250/250 251/251/251 252/252/252
f 253/253/253 254/254/254 255/255/255
f 256/256/256 257/257/257 258/258/258
f 259/259/259 260/260/260 261/261/261
f 262/262/262 263/263/263 264/264/264
f 265/265/265 266/266/266 267/267/267
f 268/268/268 269/269/269 270/270/270
f 271/271/271 272/272/272 273/273/273
f 274/274/274 275/275/275 276/276/276
f 277/277/277 278/278/278 279/279/279
f 280/280/280 281/281/281 282/282/282
f 283/283/283 284/284/284 285/285/285
f 286/286/286 287/287/287 288/288/288
f 289/289/289 290/290/290 291/291/291
f 292/292/292 293/293/293 294/294/294
f 295/295/295 296/296/296 297/297/297
f 298/298/298 299/299/299 300/300/300
f 301/301/301 302/302/302 303/303/303
f 304/304/304 305/305/305 306/306/306
f 307/307/307 308/308/308 309/309/309
f 310/310/310 311/311/311 312/312/312
f 313/313/313 314/314/314 315/315/315
f 316/316/316 317/317/317 318/318/318
f 319/319/319 320/320/320 321/321/321
f 322/322/322 323/323/323 324/324/324
f 325/325/325 326/326/326 327/327/327
f 328/328/328 329/329/329 330/330/330
f 331/331/331 332/332/332 333/333/333
f 334/334/334 335/335/335 336/336/336
f 337/337/337 338/338/338 339/339/339
f 340/340/340 341/341/341 342/342/342
f 343/343/343 344/344/344 345/345/345
f 346/346/346 347/347/347 348/348/348
f 349/349/349 350/350/350 351/351/351
f 352/352/352 353/353/353 354/354/354
f 355/355/355 356/356/356 357/357/357
f 358/358/358 359/359/359 360/360/360
f 361/361/361 362/362/362 363/363/363
f 364/364/364 365/365/365 366/366/366
f 367/367/367 368/368/368 369/369/369
f 370/370/370 371/371/371 372/372/372
f 373/373/373 374/374/374 375/375/375
f 376/376/376 377/377/377 378/378/378
f 379/379/379 380/380/380 381/381/381
f 382/382/382 383/383/383 384/384/384
f 385/385/385 386/386/386 387/387/387
f 388/388/388 389/389/389 390/390/390
f 391/391/391 392/392/392 393/393/393
f 394/394/394 395/395/395 396/396/396
f 397/397/397 398/398/398 399/399/399
f 400/400/400 401/401/401 402/402/402
f 403/403/403 404/404/404 405/405/405
f 406/406/406 407/407/407 408/408/408
f 409/409/409 410/410/410 411/411/411
f 412/412/412 413/413/413 414/414/414
f 415/415/415 416/416/416 417/417/417
f 418/418/418 419/419/419 420/420/420
f 421/421/421 422/422/422 423/423/423
f 424/424/424 425/425/425 426/426/426
f 427/427/427 428/428/428 429/429/429
f 430/430/430 431/431/431 432/432/432
f 433/433/433 434/434/434 435/435/435
f 436/436/436 437/437/437 438/438/438
f 439/439/439 440/440/440 441/441/441
f 442/442/442 443/443/443 444/444/444
f 445/445/445 446/446/446 447/447/447
f 448/448/448 449/449/449 450/450/450
f 451/451/451 452/452/452 453/453/453
f 454/454/454 455/455/455 456/456/456
f 457/457/457 458/458/458 459/459/459
f 460/460/460 461/461/461 462/462/462
f 463/463/463 464/464/464 465/465/465
f 466/466/466 467/467/467 468/468/468
f 469/469/469 470/470/470 471/471/471
f 472/472/472 473/473/473 474/474/474
f 475/475/475 476/476/476 477/477/477
f 478/478/478 479/479/479 480/480/480
f 481/481/481 482/482/482 483/483/483
f 484/484/484 485/485/485 486/486/486
f 487/487/487 488/488/488 489/489/489
f 490/490/490 491/491/491 492/492/492
f 493/493/493 494/494/494 495/495/495
f 496/496/496 497/497/497 498/498/498
f 499/499/499 500/500/500 501/501/501
f 502/502/502 503/503/503 504/504/504
f 505/505/505 506/506/506 507/507/507
f 508/508/508 509/509/509 510/510/510
f 511/511/511 512/512/512 513/513/513
f 514/514/514 515/515/515 516/516/516
f 517/517/517 518/518/518 519/519/519
f 520/520/520 521/521/521 522/522/522
f 523/523/523 524/524/524 525/525/525
f 526/526/526 527/527/527 528/528/528
f 529/529/529 530/530/530 531/531/531
f 532/532/532 533/533/533 534/534/534
f 535/535/535 536/536/536 537/537/537
f 538/538/538 539/539/539 540/540/540
f 541/541/541 542/542/542 543/543/543
f 544/544/544 545/545/545 546/546/546
f 547/547/547 548/548/548 549/549/549
f 550/550/550 551/551/551 552/552/552
f 553/553/553 554/554/554 555/555/555
f 556/556/556 557/557/557 558/558/558
f 559/559/559 560/560/560 561/561/561
f 562/562/562 563/563/563 564/564/564
f 565/565/565 566/566/566 567/567/567
f 568/568/568 569/569/569 570/570/570
f 571/571/571 572/572/572 573/573/573
f 574/574/574 575/575/575 576/576/576
f 577/577/577 578/578/578 579/579/579
f 580/580/580 581/581/581 582/582/582
f 583/583/583 584/584/584 585/585/585
f 586/586/586 587/587/587 588/588/588
f 589/589/589 590/590/590 591/591/591
f 592/592/592 593/593/593 594/594/594
f 595/595/595 596/596/596 597/597/597
f 598/598/598 599/599/599 600/600/600
f 601/601/601 602/602/602 603/603/603
f 604/604/604 605/605/605 606/606/606
f 607/607/607 608/608/608 609/609/609
f 610/610/610 611/611/611 612/612/612
f 613/613/613 614/614/614 615/615/615
f 616/616/616 617/617/617 618/618/618
f 619/619/619 620/620/620 621/621/621
f 622/622/622 623/623/623 624/624/624
f 625/625/625 626/626/626 627/627/627
f 628/628/628 629/629/629 630/630/630
f 631/631/631 632/632/632 633/633/633
f 634/634/634 635/635/635 636/636/636
f 637/637/637 638/638/638 639/639/639
f 640/640/640 641/641/641 642/642/642
f 643/643/643 644/644/644 645/645/645
f 646/646/646 647/647/647 648/648/648
f 649/649/649 650/650/650 651/651/651
f 652/652/652 653/653/653 654/654/654
f 655/655/655 656/656/656 657/657/657
f 658/658/658 659/659/659 660/660/660
f 661/661/661 662/662/662 663/663/663
f 664/664/664 665/665/665 666/666/666
f 667/667/667 668/668/668 669/669/669
f 670/670/670 671/671/671 672/672/672
f 673/673/673 674/674/674 675/675/675
f 676/676/676 677/677/677 678/678/678
f 679/679/679 680/680/680 681/681/681
f 682/682/682 683/683/683 684/684/684
