# OBJ file
mtllib ICON.ICO.mtl
v 0.000000 2.925049 -0.435303 0.501961 0.501961 0.501961 #0.501961
v -1.812256 4.130615 0.000000 0.501961 0.501961 0.501961 #0.501961
v -1.434326 4.380615 0.000000 0.501961 0.501961 0.501961 #0.501961
v 2.079834 3.809082 0.000000 0.501961 0.501961 0.501961 #0.501961
v 0.000000 2.925049 -0.435303 0.501961 0.501961 0.501961 #0.501961
v 1.812256 4.130615 0.000000 0.501961 0.501961 0.501961 #0.501961
v 0.000000 2.925049 -0.435303 0.501961 0.501961 0.501961 #0.501961
v -2.178955 2.925049 0.000000 0.501961 0.501961 0.501961 #0.501961
v -2.187744 3.392334 0.000000 0.501961 0.501961 0.501961 #0.501961
v 0.000000 2.925049 -0.435303 0.501961 0.501961 0.501961 #0.501961
v -0.459229 4.278564 0.000000 0.501961 0.501961 0.501961 #0.501961
v 0.000000 3.939941 0.000000 0.501961 0.501961 0.501961 #0.501961
v 2.187744 3.392334 0.000000 0.501961 0.501961 0.501961 #0.501961
v 2.178955 2.925049 0.000000 0.501961 0.501961 0.501961 #0.501961
v 0.000000 2.925049 -0.435303 0.501961 0.501961 0.501961 #0.501961
v 0.459229 4.278564 0.000000 0.501961 0.501961 0.501961 #0.501961
v 0.000000 2.925049 -0.435303 0.501961 0.501961 0.501961 #0.501961
v 0.000000 3.939941 0.000000 0.501961 0.501961 0.501961 #0.501961
v -2.187744 3.392334 0.000000 0.501961 0.501961 0.501961 #0.501961
v -2.079834 3.809082 0.000000 0.501961 0.501961 0.501961 #0.501961
v 0.000000 2.925049 -0.435303 0.501961 0.501961 0.501961 #0.501961
v 1.999756 2.439941 0.000000 0.501961 0.501961 0.501961 #0.501961
v 0.000000 0.440186 0.000000 0.501961 0.501961 0.501961 #0.501961
v 0.000000 2.925049 -0.435303 0.501961 0.501961 0.501961 #0.501961
v -2.178955 2.925049 0.000000 0.501961 0.501961 0.501961 #0.501961
v 0.000000 2.925049 -0.435303 0.501961 0.501961 0.501961 #0.501961
v -1.999756 2.439941 0.000000 0.501961 0.501961 0.501961 #0.501961
v 1.434326 4.380615 0.000000 0.501961 0.501961 0.501961 #0.501961
v 0.000000 2.925049 -0.435303 0.501961 0.501961 0.501961 #0.501961
v 0.941650 4.439941 0.000000 0.501961 0.501961 0.501961 #0.501961
v 0.000000 2.925049 -0.435303 0.501961 0.501961 0.501961 #0.501961
v 2.079834 3.809082 0.000000 0.501961 0.501961 0.501961 #0.501961
v 2.187744 3.392334 0.000000 0.501961 0.501961 0.501961 #0.501961
v 0.000000 2.925049 -0.435303 0.501961 0.501961 0.501961 #0.501961
v 2.178955 2.925049 0.000000 0.501961 0.501961 0.501961 #0.501961
v 1.999756 2.439941 0.000000 0.501961 0.501961 0.501961 #0.501961
v 0.000000 2.925049 -0.435303 0.501961 0.501961 0.501961 #0.501961
v -0.941650 4.439941 0.000000 0.501961 0.501961 0.501961 #0.501961
v -0.459229 4.278564 0.000000 0.501961 0.501961 0.501961 #0.501961
v 1.812256 4.130615 0.000000 0.501961 0.501961 0.501961 #0.501961
v 0.000000 2.925049 -0.435303 0.501961 0.501961 0.501961 #0.501961
v 1.434326 4.380615 0.000000 0.501961 0.501961 0.501961 #0.501961
v 0.000000 0.440186 0.000000 0.501961 0.501961 0.501961 #0.501961
v -1.999756 2.439941 0.000000 0.501961 0.501961 0.501961 #0.501961
v 0.000000 2.925049 -0.435303 0.501961 0.501961 0.501961 #0.501961
v 0.459229 4.278564 0.000000 0.501961 0.501961 0.501961 #0.501961
v 0.941650 4.439941 0.000000 0.501961 0.501961 0.501961 #0.501961
v 0.000000 2.925049 -0.435303 0.501961 0.501961 0.501961 #0.501961
v -1.434326 4.380615 0.000000 0.501961 0.501961 0.501961 #0.501961
v -0.941650 4.439941 0.000000 0.501961 0.501961 0.501961 #0.501961
v 0.000000 2.925049 -0.435303 0.501961 0.501961 0.501961 #0.501961
v -1.434326 4.380615 0.000000 0.501961 0.501961 0.501961 #0.501961
v -1.812256 4.130615 0.000000 0.501961 0.501961 0.501961 #0.501961
v 0.000000 2.925049 0.435303 0.501961 0.501961 0.501961 #0.501961
v 1.812256 4.130615 0.000000 0.501961 0.501961 0.501961 #0.501961
v 0.000000 2.925049 0.435303 0.501961 0.501961 0.501961 #0.501961
v 2.079834 3.809082 0.000000 0.501961 0.501961 0.501961 #0.501961
v -2.187744 3.392334 0.000000 0.501961 0.501961 0.501961 #0.501961
v -2.178955 2.925049 0.000000 0.501961 0.501961 0.501961 #0.501961
v 0.000000 2.925049 0.435303 0.501961 0.501961 0.501961 #0.501961
v 0.000000 3.939941 0.000000 0.501961 0.501961 0.501961 #0.501961
v -0.459229 4.278564 0.000000 0.501961 0.501961 0.501961 #0.501961
v 0.000000 2.925049 0.435303 0.501961 0.501961 0.501961 #0.501961
v 0.000000 2.925049 0.435303 0.501961 0.501961 0.501961 #0.501961
v 2.178955 2.925049 0.000000 0.501961 0.501961 0.501961 #0.501961
v 2.187744 3.392334 0.000000 0.501961 0.501961 0.501961 #0.501961
v 0.000000 3.939941 0.000000 0.501961 0.501961 0.501961 #0.501961
v 0.000000 2.925049 0.435303 0.501961 0.501961 0.501961 #0.501961
v 0.459229 4.278564 0.000000 0.501961 0.501961 0.501961 #0.501961
v 0.000000 2.925049 0.435303 0.501961 0.501961 0.501961 #0.501961
v -2.079834 3.809082 0.000000 0.501961 0.501961 0.501961 #0.501961
v -2.187744 3.392334 0.000000 0.501961 0.501961 0.501961 #0.501961
v 0.000000 2.925049 0.435303 0.501961 0.501961 0.501961 #0.501961
v 0.000000 0.440186 0.000000 0.501961 0.501961 0.501961 #0.501961
v 1.999756 2.439941 0.000000 0.501961 0.501961 0.501961 #0.501961
v -1.999756 2.439941 0.000000 0.501961 0.501961 0.501961 #0.501961
v 0.000000 2.925049 0.435303 0.501961 0.501961 0.501961 #0.501961
v -2.178955 2.925049 0.000000 0.501961 0.501961 0.501961 #0.501961
v 0.941650 4.439941 0.000000 0.501961 0.501961 0.501961 #0.501961
v 0.000000 2.925049 0.435303 0.501961 0.501961 0.501961 #0.501961
v 1.434326 4.380615 0.000000 0.501961 0.501961 0.501961 #0.501961
v 2.187744 3.392334 0.000000 0.501961 0.501961 0.501961 #0.501961
v 2.079834 3.809082 0.000000 0.501961 0.501961 0.501961 #0.501961
v 0.000000 2.925049 0.435303 0.501961 0.501961 0.501961 #0.501961
v 1.999756 2.439941 0.000000 0.501961 0.501961 0.501961 #0.501961
v 2.178955 2.925049 0.000000 0.501961 0.501961 0.501961 #0.501961
v 0.000000 2.925049 0.435303 0.501961 0.501961 0.501961 #0.501961
v -0.459229 4.278564 0.000000 0.501961 0.501961 0.501961 #0.501961
v -0.941650 4.439941 0.000000 0.501961 0.501961 0.501961 #0.501961
v 0.000000 2.925049 0.435303 0.501961 0.501961 0.501961 #0.501961
v 1.434326 4.380615 0.000000 0.501961 0.501961 0.501961 #0.501961
v 0.000000 2.925049 0.435303 0.501961 0.501961 0.501961 #0.501961
v 1.812256 4.130615 0.000000 0.501961 0.501961 0.501961 #0.501961
v 0.000000 2.925049 0.435303 0.501961 0.501961 0.501961 #0.501961
v -1.999756 2.439941 0.000000 0.501961 0.501961 0.501961 #0.501961
v 0.000000 0.440186 0.000000 0.501961 0.501961 0.501961 #0.501961
v 0.000000 2.925049 0.435303 0.501961 0.501961 0.501961 #0.501961
v 0.941650 4.439941 0.000000 0.501961 0.501961 0.501961 #0.501961
v 0.459229 4.278564 0.000000 0.501961 0.501961 0.501961 #0.501961
v 0.000000 2.925049 0.435303 0.501961 0.501961 0.501961 #0.501961
v -0.941650 4.439941 0.000000 0.501961 0.501961 0.501961 #0.501961
v -1.434326 4.380615 0.000000 0.501961 0.501961 0.501961 #0.501961
v -1.812256 4.130615 0.000000 0.501961 0.501961 0.501961 #0.501961
v 0.000000 2.925049 -0.435303 0.501961 0.501961 0.501961 #0.501961
v -2.079834 3.809082 0.000000 0.501961 0.501961 0.501961 #0.501961
v -1.812256 4.130615 0.000000 0.501961 0.501961 0.501961 #0.501961
v -2.079834 3.809082 0.000000 0.501961 0.501961 0.501961 #0.501961
v 0.000000 2.925049 0.435303 0.501961 0.501961 0.501961 #0.501961
vt 0.505371 0.464600 0.000000
vt 0.883057 0.177490 0.000000
vt 0.804443 0.131104 0.000000
vt 0.072021 0.254639 0.000000
vt 0.505371 0.464600 0.000000
vt 0.127930 0.177490 0.000000
vt 0.505371 0.464600 0.000000
vt 0.933594 0.464844 0.000000
vt 0.961426 0.368164 0.000000
vt 0.505371 0.464600 0.000000
vt 0.601074 0.150146 0.000000
vt 0.505371 0.239258 0.000000
vt 0.049561 0.368164 0.000000
vt 0.077393 0.464844 0.000000
vt 0.505371 0.464600 0.000000
vt 0.409668 0.150146 0.000000
vt 0.505371 0.464600 0.000000
vt 0.505371 0.239258 0.000000
vt 0.961426 0.368164 0.000000
vt 0.938965 0.254639 0.000000
vt 0.505371 0.464600 0.000000
vt 0.140869 0.564941 0.000000
vt 0.505371 0.906494 0.000000
vt 0.505371 0.464600 0.000000
vt 0.933594 0.464844 0.000000
vt 0.505371 0.464600 0.000000
vt 0.870117 0.564941 0.000000
vt 0.206543 0.131104 0.000000
vt 0.505371 0.464600 0.000000
vt 0.309326 0.120117 0.000000
vt 0.505371 0.464600 0.000000
vt 0.072021 0.254639 0.000000
vt 0.049561 0.368164 0.000000
vt 0.505371 0.464600 0.000000
vt 0.077393 0.464844 0.000000
vt 0.140869 0.564941 0.000000
vt 0.505371 0.464600 0.000000
vt 0.701660 0.120117 0.000000
vt 0.601074 0.150146 0.000000
vt 0.127930 0.177490 0.000000
vt 0.505371 0.464600 0.000000
vt 0.206543 0.131104 0.000000
vt 0.505371 0.906494 0.000000
vt 0.870117 0.564941 0.000000
vt 0.505371 0.464600 0.000000
vt 0.409668 0.150146 0.000000
vt 0.309326 0.120117 0.000000
vt 0.505371 0.464600 0.000000
vt 0.804443 0.131104 0.000000
vt 0.701660 0.120117 0.000000
vt 0.505371 0.464600 0.000000
vt 0.206543 0.131104 0.000000
vt 0.127930 0.177490 0.000000
vt 0.505615 0.464600 0.000000
vt 0.883057 0.177490 0.000000
vt 0.505615 0.464600 0.000000
vt 0.938965 0.254639 0.000000
vt 0.049561 0.368164 0.000000
vt 0.077393 0.464844 0.000000
vt 0.505615 0.464600 0.000000
vt 0.505615 0.239258 0.000000
vt 0.409912 0.150146 0.000000
vt 0.505615 0.464600 0.000000
vt 0.505615 0.464600 0.000000
vt 0.933594 0.464844 0.000000
vt 0.961426 0.368164 0.000000
vt 0.505615 0.239258 0.000000
vt 0.505615 0.464600 0.000000
vt 0.601318 0.150146 0.000000
vt 0.505615 0.464600 0.000000
vt 0.072021 0.254639 0.000000
vt 0.049561 0.368164 0.000000
vt 0.505615 0.464600 0.000000
vt 0.505615 0.906494 0.000000
vt 0.870117 0.564941 0.000000
vt 0.140869 0.564941 0.000000
vt 0.505615 0.464600 0.000000
vt 0.077393 0.464844 0.000000
vt 0.701660 0.120117 0.000000
vt 0.505615 0.464600 0.000000
vt 0.804443 0.131104 0.000000
vt 0.961426 0.368164 0.000000
vt 0.938965 0.254639 0.000000
vt 0.505615 0.464600 0.000000
vt 0.870117 0.564941 0.000000
vt 0.933594 0.464844 0.000000
vt 0.505615 0.464600 0.000000
vt 0.409912 0.150146 0.000000
vt 0.309326 0.120117 0.000000
vt 0.505615 0.464600 0.000000
vt 0.804443 0.131104 0.000000
vt 0.505615 0.464600 0.000000
vt 0.883057 0.177490 0.000000
vt 0.505615 0.464600 0.000000
vt 0.140869 0.564941 0.000000
vt 0.505615 0.906494 0.000000
vt 0.505615 0.464600 0.000000
vt 0.701660 0.120117 0.000000
vt 0.601318 0.150146 0.000000
vt 0.505615 0.464600 0.000000
vt 0.309326 0.120117 0.000000
vt 0.206543 0.131104 0.000000
vt 0.883057 0.177490 0.000000
vt 0.505371 0.464600 0.000000
vt 0.938965 0.254639 0.000000
vt 0.127930 0.177490 0.000000
vt 0.072021 0.254639 0.000000
vt 0.505615 0.464600 0.000000
vn 0.000000 -0.123779 -0.992188
vn 0.134277 -0.151611 -0.979248
vn 0.074219 -0.217773 -0.972900
vn -0.168457 -0.086914 -0.981689
vn 0.000000 -0.123779 -0.992188
vn -0.134277 -0.151611 -0.979248
vn 0.000000 -0.123779 -0.992188
vn 0.195801 0.037842 -0.979736
vn 0.190430 -0.021973 -0.981201
vn 0.000000 -0.123779 -0.992188
vn -0.196777 -0.360107 -0.911621
vn 0.000000 -0.394043 -0.918945
vn -0.190430 -0.021973 -0.981201
vn -0.195801 0.037842 -0.979736
vn 0.000000 -0.123779 -0.992188
vn 0.196777 -0.360107 -0.911621
vn 0.000000 -0.123779 -0.992188
vn 0.000000 -0.394043 -0.918945
vn 0.190430 -0.021973 -0.981201
vn 0.168457 -0.086914 -0.981689
vn 0.000000 -0.123779 -0.992188
vn -0.182861 0.121094 -0.975586
vn 0.000000 0.172363 -0.984863
vn 0.000000 -0.123779 -0.992188
vn 0.195801 0.037842 -0.979736
vn 0.000000 -0.123779 -0.992188
vn 0.182861 0.121094 -0.975586
vn -0.074219 -0.217773 -0.972900
vn 0.000000 -0.123779 -0.992188
vn 0.041260 -0.299561 -0.953125
vn 0.000000 -0.123779 -0.992188
vn -0.168457 -0.086914 -0.981689
vn -0.190430 -0.021973 -0.981201
vn 0.000000 -0.123779 -0.992188
vn -0.195801 0.037842 -0.979736
vn -0.182861 0.121094 -0.975586
vn 0.000000 -0.123779 -0.992188
vn -0.041260 -0.299561 -0.953125
vn -0.196777 -0.360107 -0.911621
vn -0.134277 -0.151611 -0.979248
vn 0.000000 -0.123779 -0.992188
vn -0.074219 -0.217773 -0.972900
vn 0.000000 0.172363 -0.984863
vn 0.182861 0.121094 -0.975586
vn 0.000000 -0.123779 -0.992188
vn 0.196777 -0.360107 -0.911621
vn 0.041260 -0.299561 -0.953125
vn 0.000000 -0.123779 -0.992188
vn 0.074219 -0.217773 -0.972900
vn -0.041260 -0.299561 -0.953125
vn 0.000000 -0.123779 -0.992188
vn 0.074219 -0.217773 0.972900
vn 0.134277 -0.151611 0.979248
vn 0.000000 -0.123779 0.992188
vn -0.134277 -0.151611 0.979248
vn 0.000000 -0.123779 0.992188
vn -0.168457 -0.086914 0.981689
vn 0.190430 -0.021973 0.981201
vn 0.195801 0.037842 0.979736
vn 0.000000 -0.123779 0.992188
vn 0.000000 -0.394043 0.918945
vn -0.196777 -0.360107 0.911621
vn 0.000000 -0.123779 0.992188
vn 0.000000 -0.123779 0.992188
vn -0.195801 0.037842 0.979736
vn -0.190430 -0.021973 0.981201
vn 0.000000 -0.394043 0.918945
vn 0.000000 -0.123779 0.992188
vn 0.196777 -0.360107 0.911621
vn 0.000000 -0.123779 0.992188
vn 0.168457 -0.086914 0.981689
vn 0.190430 -0.021973 0.981201
vn 0.000000 -0.123779 0.992188
vn 0.000000 0.172363 0.984863
vn -0.182861 0.121094 0.975586
vn 0.182861 0.121094 0.975586
vn 0.000000 -0.123779 0.992188
vn 0.195801 0.037842 0.979736
vn 0.041260 -0.299561 0.953125
vn 0.000000 -0.123779 0.992188
vn -0.074219 -0.217773 0.972900
vn -0.190430 -0.021973 0.981201
vn -0.168457 -0.086914 0.981689
vn 0.000000 -0.123779 0.992188
vn -0.182861 0.121094 0.975586
vn -0.195801 0.037842 0.979736
vn 0.000000 -0.123779 0.992188
vn -0.196777 -0.360107 0.911621
vn -0.041260 -0.299561 0.953125
vn 0.000000 -0.123779 0.992188
vn -0.074219 -0.217773 0.972900
vn 0.000000 -0.123779 0.992188
vn -0.134277 -0.151611 0.979248
vn 0.000000 -0.123779 0.992188
vn 0.182861 0.121094 0.975586
vn 0.000000 0.172363 0.984863
vn 0.000000 -0.123779 0.992188
vn 0.041260 -0.299561 0.953125
vn 0.196777 -0.360107 0.911621
vn 0.000000 -0.123779 0.992188
vn -0.041260 -0.299561 0.953125
vn 0.074219 -0.217773 0.972900
vn 0.134277 -0.151611 -0.979248
vn 0.000000 -0.123779 -0.992188
vn 0.168457 -0.086914 -0.981689
vn 0.134277 -0.151611 0.979248
vn 0.168457 -0.086914 0.981689
vn 0.000000 -0.123779 0.992188
usemtl Texture
f 1/1/1 2/2/2 3/3/3
f 4/4/4 5/5/5 6/6/6
f 7/7/7 8/8/8 9/9/9
f 10/10/10 11/11/11 12/12/12
f 13/13/13 14/14/14 15/15/15
f 16/16/16 17/17/17 18/18/18
f 19/19/19 20/20/20 21/21/21
f 22/22/22 23/23/23 24/24/24
f 25/25/25 26/26/26 27/27/27
f 28/28/28 29/29/29 30/30/30
f 31/31/31 32/32/32 33/33/33
f 34/34/34 35/35/35 36/36/36
f 37/37/37 38/38/38 39/39/39
f 40/40/40 41/41/41 42/42/42
f 43/43/43 44/44/44 45/45/45
f 46/46/46 47/47/47 48/48/48
f 49/49/49 50/50/50 51/51/51
f 52/52/52 53/53/53 54/54/54
f 55/55/55 56/56/56 57/57/57
f 58/58/58 59/59/59 60/60/60
f 61/61/61 62/62/62 63/63/63
f 64/64/64 65/65/65 66/66/66
f 67/67/67 68/68/68 69/69/69
f 70/70/70 71/71/71 72/72/72
f 73/73/73 74/74/74 75/75/75
f 76/76/76 77/77/77 78/78/78
f 79/79/79 80/80/80 81/81/81
f 82/82/82 83/83/83 84/84/84
f 85/85/85 86/86/86 87/87/87
f 88/88/88 89/89/89 90/90/90
f 91/91/91 92/92/92 93/93/93
f 94/94/94 95/95/95 96/96/96
f 97/97/97 98/98/98 99/99/99
f 100/100/100 101/101/101 102/102/102
f 103/103/103 104/104/104 105/105/105
f 106/106/106 107/107/107 108/108/108