# OBJ file
mtllib memicon.ico.mtl
v 0.004150 2.220947 -1.312988 0.498039 0.498039 0.498039 #0.498039
v -1.108887 2.112305 -1.029297 0.498039 0.498039 0.498039 #0.498039
v -0.982422 2.592773 -2.153076 0.498039 0.498039 0.498039 #0.498039
v -1.815674 2.265137 -1.750732 0.498039 0.498039 0.498039 #0.498039
v -0.982422 2.592773 -2.153076 0.498039 0.498039 0.498039 #0.498039
v -1.108887 2.112305 -1.029297 0.498039 0.498039 0.498039 #0.498039
v 0.004150 2.220947 -1.312988 0.498039 0.498039 0.498039 #0.498039
v 0.001953 2.509277 0.727295 0.498039 0.498039 0.498039 #0.498039
v -1.108887 2.112305 -1.029297 0.498039 0.498039 0.498039 #0.498039
v -2.372314 1.806396 -1.041748 0.498039 0.498039 0.498039 #0.498039
v -1.108887 2.112305 -1.029297 0.498039 0.498039 0.498039 #0.498039
v -2.567627 1.163086 -0.110840 0.498039 0.498039 0.498039 #0.498039
v -2.567627 1.163086 -0.110840 0.498039 0.498039 0.498039 #0.498039
v -1.108887 2.112305 -1.029297 0.498039 0.498039 0.498039 #0.498039
v -1.533936 1.505615 0.066895 0.498039 0.498039 0.498039 #0.498039
v -1.108887 2.112305 -1.029297 0.498039 0.498039 0.498039 #0.498039
v 0.001953 2.509277 0.727295 0.498039 0.498039 0.498039 #0.498039
v -1.533936 1.505615 0.066895 0.498039 0.498039 0.498039 #0.498039
v -2.372314 0.566650 0.783936 0.498039 0.498039 0.498039 #0.498039
v -2.567627 1.163086 -0.110840 0.498039 0.498039 0.498039 #0.498039
v -1.108887 0.847412 1.097900 0.498039 0.498039 0.498039 #0.498039
v -2.567627 1.163086 -0.110840 0.498039 0.498039 0.498039 #0.498039
v -1.533936 1.505615 0.066895 0.498039 0.498039 0.498039 #0.498039
v -1.108887 0.847412 1.097900 0.498039 0.498039 0.498039 #0.498039
v -1.533936 1.505615 0.066895 0.498039 0.498039 0.498039 #0.498039
v 0.001953 2.509277 0.727295 0.498039 0.498039 0.498039 #0.498039
v -1.108887 0.847412 1.097900 0.498039 0.498039 0.498039 #0.498039
v -0.982422 -0.169189 1.958496 0.498039 0.498039 0.498039 #0.498039
v -1.815674 0.085693 1.499756 0.498039 0.498039 0.498039 #0.498039
v 0.004395 0.545166 1.431885 0.498039 0.498039 0.498039 #0.498039
v -1.815674 0.085693 1.499756 0.498039 0.498039 0.498039 #0.498039
v -1.108887 0.847412 1.097900 0.498039 0.498039 0.498039 #0.498039
v 0.004395 0.545166 1.431885 0.498039 0.498039 0.498039 #0.498039
v -1.108887 0.847412 1.097900 0.498039 0.498039 0.498039 #0.498039
v 0.001953 2.509277 0.727295 0.498039 0.498039 0.498039 #0.498039
v 0.004395 0.545166 1.431885 0.498039 0.498039 0.498039 #0.498039
v 0.982422 -0.169189 1.958496 0.498039 0.498039 0.498039 #0.498039
v 0.004395 0.545166 1.431885 0.498039 0.498039 0.498039 #0.498039
v 1.815674 0.085693 1.499756 0.498039 0.498039 0.498039 #0.498039
v 1.815674 0.085693 1.499756 0.498039 0.498039 0.498039 #0.498039
v 0.004395 0.545166 1.431885 0.498039 0.498039 0.498039 #0.498039
v 1.117920 0.847412 1.097900 0.498039 0.498039 0.498039 #0.498039
v 0.004395 0.545166 1.431885 0.498039 0.498039 0.498039 #0.498039
v 0.001953 2.509277 0.727295 0.498039 0.498039 0.498039 #0.498039
v 1.117920 0.847412 1.097900 0.498039 0.498039 0.498039 #0.498039
v 2.372314 0.566650 0.783936 0.498039 0.498039 0.498039 #0.498039
v 1.117920 0.847412 1.097900 0.498039 0.498039 0.498039 #0.498039
v 2.567627 1.163086 -0.110840 0.498039 0.498039 0.498039 #0.498039
v 2.567627 1.163086 -0.110840 0.498039 0.498039 0.498039 #0.498039
v 1.117920 0.847412 1.097900 0.498039 0.498039 0.498039 #0.498039
v 1.542969 1.505615 0.066895 0.498039 0.498039 0.498039 #0.498039
v 1.117920 0.847412 1.097900 0.498039 0.498039 0.498039 #0.498039
v 0.001953 2.509277 0.727295 0.498039 0.498039 0.498039 #0.498039
v 1.542969 1.505615 0.066895 0.498039 0.498039 0.498039 #0.498039
v 2.372314 1.806396 -1.041748 0.498039 0.498039 0.498039 #0.498039
v 2.567627 1.163086 -0.110840 0.498039 0.498039 0.498039 #0.498039
v 1.117920 2.112305 -1.029297 0.498039 0.498039 0.498039 #0.498039
v 2.567627 1.163086 -0.110840 0.498039 0.498039 0.498039 #0.498039
v 1.542969 1.505615 0.066895 0.498039 0.498039 0.498039 #0.498039
v 1.117920 2.112305 -1.029297 0.498039 0.498039 0.498039 #0.498039
v 1.542969 1.505615 0.066895 0.498039 0.498039 0.498039 #0.498039
v 0.001953 2.509277 0.727295 0.498039 0.498039 0.498039 #0.498039
v 1.117920 2.112305 -1.029297 0.498039 0.498039 0.498039 #0.498039
v 0.004150 2.220947 -1.312988 0.498039 0.498039 0.498039 #0.498039
v 0.982422 2.592773 -2.153076 0.498039 0.498039 0.498039 #0.498039
v 1.117920 2.112305 -1.029297 0.498039 0.498039 0.498039 #0.498039
v 0.982422 2.592773 -2.153076 0.498039 0.498039 0.498039 #0.498039
v 1.815674 2.265137 -1.750732 0.498039 0.498039 0.498039 #0.498039
v 1.117920 2.112305 -1.029297 0.498039 0.498039 0.498039 #0.498039
v 1.117920 2.112305 -1.029297 0.498039 0.498039 0.498039 #0.498039
v 0.001953 2.509277 0.727295 0.498039 0.498039 0.498039 #0.498039
v 0.004150 2.220947 -1.312988 0.498039 0.498039 0.498039 #0.498039
v -1.815674 2.265137 -1.750732 0.498039 0.498039 0.498039 #0.498039
v -1.108887 2.112305 -1.029297 0.498039 0.498039 0.498039 #0.498039
v -2.372314 1.806396 -1.041748 0.498039 0.498039 0.498039 #0.498039
v -2.372314 0.566650 0.783936 0.498039 0.498039 0.498039 #0.498039
v -1.108887 0.847412 1.097900 0.498039 0.498039 0.498039 #0.498039
v -1.815674 0.085693 1.499756 0.498039 0.498039 0.498039 #0.498039
v 1.815674 0.085693 1.499756 0.498039 0.498039 0.498039 #0.498039
v 1.117920 0.847412 1.097900 0.498039 0.498039 0.498039 #0.498039
v 2.372314 0.566650 0.783936 0.498039 0.498039 0.498039 #0.498039
v 2.372314 1.806396 -1.041748 0.498039 0.498039 0.498039 #0.498039
v 1.117920 2.112305 -1.029297 0.498039 0.498039 0.498039 #0.498039
v 1.815674 2.265137 -1.750732 0.498039 0.498039 0.498039 #0.498039
v -0.982422 2.592773 -2.153076 0.498039 0.498039 0.498039 #0.498039
v 0.000000 2.703613 -2.292725 0.498039 0.498039 0.498039 #0.498039
v 0.004150 2.220947 -1.312988 0.498039 0.498039 0.498039 #0.498039
v 0.982422 2.592773 -2.153076 0.498039 0.498039 0.498039 #0.498039
v 0.004150 2.220947 -1.312988 0.498039 0.498039 0.498039 #0.498039
v 0.000000 2.703613 -2.292725 0.498039 0.498039 0.498039 #0.498039
v 0.982422 -0.169189 1.958496 0.498039 0.498039 0.498039 #0.498039
v 0.000000 -0.301514 2.121338 0.498039 0.498039 0.498039 #0.498039
v 0.004395 0.545166 1.431885 0.498039 0.498039 0.498039 #0.498039
v 0.000000 -0.301514 2.121338 0.498039 0.498039 0.498039 #0.498039
v -0.982422 -0.169189 1.958496 0.498039 0.498039 0.498039 #0.498039
v 0.004395 0.545166 1.431885 0.498039 0.498039 0.498039 #0.498039
v -0.978760 2.749756 -2.049316 0.498039 0.498039 0.498039 #0.498039
v -0.961426 2.775146 -1.945313 0.498039 0.498039 0.498039 #0.498039
v 0.000000 2.859619 -2.188721 0.498039 0.498039 0.498039 #0.498039
v 0.000000 2.859619 -2.188721 0.498039 0.498039 0.498039 #0.498039
v -0.961426 2.775146 -1.945313 0.498039 0.498039 0.498039 #0.498039
v 0.000000 2.879639 -2.078369 0.498039 0.498039 0.498039 #0.498039
v -1.808838 2.424316 -1.647949 0.498039 0.498039 0.498039 #0.498039
v -1.678711 2.333740 -1.500000 0.498039 0.498039 0.498039 #0.498039
v -0.978760 2.749756 -2.049316 0.498039 0.498039 0.498039 #0.498039
v -1.678711 2.333740 -1.500000 0.498039 0.498039 0.498039 #0.498039
v -0.961426 2.775146 -1.945313 0.498039 0.498039 0.498039 #0.498039
v -0.978760 2.749756 -2.049316 0.498039 0.498039 0.498039 #0.498039
v -1.678711 2.333740 -1.500000 0.498039 0.498039 0.498039 #0.498039
v -1.808838 2.424316 -1.647949 0.498039 0.498039 0.498039 #0.498039
v -2.321533 1.991699 -0.856689 0.498039 0.498039 0.498039 #0.498039
v -2.363281 1.967529 -0.956543 0.498039 0.498039 0.498039 #0.498039
v -2.321533 1.991699 -0.856689 0.498039 0.498039 0.498039 #0.498039
v -1.808838 2.424316 -1.647949 0.498039 0.498039 0.498039 #0.498039
v -2.363281 1.967529 -0.956543 0.498039 0.498039 0.498039 #0.498039
v -2.558105 1.343262 -0.034668 0.498039 0.498039 0.498039 #0.498039
v -2.321533 1.991699 -0.856689 0.498039 0.498039 0.498039 #0.498039
v -2.558105 1.343262 -0.034668 0.498039 0.498039 0.498039 #0.498039
v -2.512695 1.412598 0.016113 0.498039 0.498039 0.498039 #0.498039
v -2.321533 1.991699 -0.856689 0.498039 0.498039 0.498039 #0.498039
v -2.558105 1.343262 -0.034668 0.498039 0.498039 0.498039 #0.498039
v -2.363281 0.734131 0.846680 0.498039 0.498039 0.498039 #0.498039
v -2.512695 1.412598 0.016113 0.498039 0.498039 0.498039 #0.498039
v -2.363281 0.734131 0.846680 0.498039 0.498039 0.498039 #0.498039
v -2.321533 0.817871 0.847412 0.498039 0.498039 0.498039 #0.498039
v -2.512695 1.412598 0.016113 0.498039 0.498039 0.498039 #0.498039
v -1.776611 0.361328 1.583496 0.498039 0.498039 0.498039 #0.498039
v -2.321533 0.817871 0.847412 0.498039 0.498039 0.498039 #0.498039
v -1.808838 0.260254 1.563232 0.498039 0.498039 0.498039 #0.498039
v -1.808838 0.260254 1.563232 0.498039 0.498039 0.498039 #0.498039
v -2.321533 0.817871 0.847412 0.498039 0.498039 0.498039 #0.498039
v -2.363281 0.734131 0.846680 0.498039 0.498039 0.498039 #0.498039
v -1.808838 0.260254 1.563232 0.498039 0.498039 0.498039 #0.498039
v -0.978760 0.015625 2.009277 0.498039 0.498039 0.498039 #0.498039
v -1.776611 0.361328 1.583496 0.498039 0.498039 0.498039 #0.498039
v -0.978760 0.015625 2.009277 0.498039 0.498039 0.498039 #0.498039
v -0.961426 0.138428 2.006592 0.498039 0.498039 0.498039 #0.498039
v -1.776611 0.361328 1.583496 0.498039 0.498039 0.498039 #0.498039
v -0.978760 0.015625 2.009277 0.498039 0.498039 0.498039 #0.498039
v 0.000000 -0.103027 2.179688 0.498039 0.498039 0.498039 #0.498039
v -0.961426 0.138428 2.006592 0.498039 0.498039 0.498039 #0.498039
v 0.000000 -0.103027 2.179688 0.498039 0.498039 0.498039 #0.498039
v 0.000000 0.037109 2.177246 0.498039 0.498039 0.498039 #0.498039
v -0.961426 0.138428 2.006592 0.498039 0.498039 0.498039 #0.498039
v 0.978760 0.015625 2.009277 0.498039 0.498039 0.498039 #0.498039
v 0.961426 0.138428 2.006592 0.498039 0.498039 0.498039 #0.498039
v 0.000000 -0.103027 2.179688 0.498039 0.498039 0.498039 #0.498039
v 0.961426 0.138428 2.006592 0.498039 0.498039 0.498039 #0.498039
v 0.000000 0.037109 2.177246 0.498039 0.498039 0.498039 #0.498039
v 0.000000 -0.103027 2.179688 0.498039 0.498039 0.498039 #0.498039
v 1.808838 0.260254 1.563232 0.498039 0.498039 0.498039 #0.498039
v 1.776611 0.361328 1.583496 0.498039 0.498039 0.498039 #0.498039
v 0.978760 0.015625 2.009277 0.498039 0.498039 0.498039 #0.498039
v 1.776611 0.361328 1.583496 0.498039 0.498039 0.498039 #0.498039
v 0.961426 0.138428 2.006592 0.498039 0.498039 0.498039 #0.498039
v 0.978760 0.015625 2.009277 0.498039 0.498039 0.498039 #0.498039
v 1.776611 0.361328 1.583496 0.498039 0.498039 0.498039 #0.498039
v 1.808838 0.260254 1.563232 0.498039 0.498039 0.498039 #0.498039
v 2.321533 0.817871 0.847412 0.498039 0.498039 0.498039 #0.498039
v 2.363281 0.734131 0.846680 0.498039 0.498039 0.498039 #0.498039
v 2.321533 0.817871 0.847412 0.498039 0.498039 0.498039 #0.498039
v 1.808838 0.260254 1.563232 0.498039 0.498039 0.498039 #0.498039
v 2.558105 1.343262 -0.034668 0.498039 0.498039 0.498039 #0.498039
v 2.512695 1.412598 0.016113 0.498039 0.498039 0.498039 #0.498039
v 2.363281 0.734131 0.846680 0.498039 0.498039 0.498039 #0.498039
v 2.512695 1.412598 0.016113 0.498039 0.498039 0.498039 #0.498039
v 2.321533 0.817871 0.847412 0.498039 0.498039 0.498039 #0.498039
v 2.363281 0.734131 0.846680 0.498039 0.498039 0.498039 #0.498039
v 2.363281 1.967529 -0.956543 0.498039 0.498039 0.498039 #0.498039
v 2.321533 1.991699 -0.856689 0.498039 0.498039 0.498039 #0.498039
v 2.558105 1.343262 -0.034668 0.498039 0.498039 0.498039 #0.498039
v 2.321533 1.991699 -0.856689 0.498039 0.498039 0.498039 #0.498039
v 2.512695 1.412598 0.016113 0.498039 0.498039 0.498039 #0.498039
v 2.558105 1.343262 -0.034668 0.498039 0.498039 0.498039 #0.498039
v 1.678711 2.333740 -1.500000 0.498039 0.498039 0.498039 #0.498039
v 2.321533 1.991699 -0.856689 0.498039 0.498039 0.498039 #0.498039
v 1.808838 2.424316 -1.647949 0.498039 0.498039 0.498039 #0.498039
v 1.808838 2.424316 -1.647949 0.498039 0.498039 0.498039 #0.498039
v 2.321533 1.991699 -0.856689 0.498039 0.498039 0.498039 #0.498039
v 2.363281 1.967529 -0.956543 0.498039 0.498039 0.498039 #0.498039
v 1.808838 2.424316 -1.647949 0.498039 0.498039 0.498039 #0.498039
v 0.978760 2.749756 -2.049316 0.498039 0.498039 0.498039 #0.498039
v 1.678711 2.333740 -1.500000 0.498039 0.498039 0.498039 #0.498039
v 0.978760 2.749756 -2.049316 0.498039 0.498039 0.498039 #0.498039
v 0.961426 2.775146 -1.945313 0.498039 0.498039 0.498039 #0.498039
v 1.678711 2.333740 -1.500000 0.498039 0.498039 0.498039 #0.498039
v 0.978760 2.749756 -2.049316 0.498039 0.498039 0.498039 #0.498039
v 0.000000 2.859619 -2.188721 0.498039 0.498039 0.498039 #0.498039
v 0.961426 2.775146 -1.945313 0.498039 0.498039 0.498039 #0.498039
v 0.000000 2.859619 -2.188721 0.498039 0.498039 0.498039 #0.498039
v 0.000000 2.879639 -2.078369 0.498039 0.498039 0.498039 #0.498039
v 0.961426 2.775146 -1.945313 0.498039 0.498039 0.498039 #0.498039
v 0.003662 2.657715 -1.026123 0.498039 0.498039 0.498039 #0.498039
v -0.961426 2.775146 -1.945313 0.498039 0.498039 0.498039 #0.498039
v -1.093506 2.441895 -0.714111 0.498039 0.498039 0.498039 #0.498039
v -1.678711 2.333740 -1.500000 0.498039 0.498039 0.498039 #0.498039
v -1.093506 2.441895 -0.714111 0.498039 0.498039 0.498039 #0.498039
v -0.961426 2.775146 -1.945313 0.498039 0.498039 0.498039 #0.498039
v -1.093506 2.441895 -0.714111 0.498039 0.498039 0.498039 #0.498039
v -2.321533 1.991699 -0.856689 0.498039 0.498039 0.498039 #0.498039
v -1.512451 1.795410 0.257568 0.498039 0.498039 0.498039 #0.498039
v -2.512695 1.412598 0.016113 0.498039 0.498039 0.498039 #0.498039
v -1.512451 1.795410 0.257568 0.498039 0.498039 0.498039 #0.498039
v -2.321533 1.991699 -0.856689 0.498039 0.498039 0.498039 #0.498039
v -1.133057 1.174316 1.180176 0.498039 0.498039 0.498039 #0.498039
v -1.512451 1.795410 0.257568 0.498039 0.498039 0.498039 #0.498039
v -2.321533 0.817871 0.847412 0.498039 0.498039 0.498039 #0.498039
v -2.321533 0.817871 0.847412 0.498039 0.498039 0.498039 #0.498039
v -1.512451 1.795410 0.257568 0.498039 0.498039 0.498039 #0.498039
v -2.512695 1.412598 0.016113 0.498039 0.498039 0.498039 #0.498039
v 0.003662 0.926514 1.537109 0.498039 0.498039 0.498039 #0.498039
v -1.133057 1.174316 1.180176 0.498039 0.498039 0.498039 #0.498039
v -0.961426 0.138428 2.006592 0.498039 0.498039 0.498039 #0.498039
v -0.961426 0.138428 2.006592 0.498039 0.498039 0.498039 #0.498039
v -1.133057 1.174316 1.180176 0.498039 0.498039 0.498039 #0.498039
v -1.776611 0.361328 1.583496 0.498039 0.498039 0.498039 #0.498039
v 0.003662 0.926514 1.537109 0.498039 0.498039 0.498039 #0.498039
v 0.961426 0.138428 2.006592 0.498039 0.498039 0.498039 #0.498039
v 1.140869 1.174316 1.180176 0.498039 0.498039 0.498039 #0.498039
v 1.776611 0.361328 1.583496 0.498039 0.498039 0.498039 #0.498039
v 1.140869 1.174316 1.180176 0.498039 0.498039 0.498039 #0.498039
v 0.961426 0.138428 2.006592 0.498039 0.498039 0.498039 #0.498039
v 1.140869 1.174316 1.180176 0.498039 0.498039 0.498039 #0.498039
v 2.321533 0.817871 0.847412 0.498039 0.498039 0.498039 #0.498039
v 1.454590 1.793213 0.258789 0.498039 0.498039 0.498039 #0.498039
v 2.512695 1.412598 0.016113 0.498039 0.498039 0.498039 #0.498039
v 1.454590 1.793213 0.258789 0.498039 0.498039 0.498039 #0.498039
v 2.321533 0.817871 0.847412 0.498039 0.498039 0.498039 #0.498039
v 1.101074 2.441895 -0.714111 0.498039 0.498039 0.498039 #0.498039
v 1.454590 1.793213 0.258789 0.498039 0.498039 0.498039 #0.498039
v 2.321533 1.991699 -0.856689 0.498039 0.498039 0.498039 #0.498039
v 2.321533 1.991699 -0.856689 0.498039 0.498039 0.498039 #0.498039
v 1.454590 1.793213 0.258789 0.498039 0.498039 0.498039 #0.498039
v 2.512695 1.412598 0.016113 0.498039 0.498039 0.498039 #0.498039
v 0.003662 2.657715 -1.026123 0.498039 0.498039 0.498039 #0.498039
v 1.101074 2.441895 -0.714111 0.498039 0.498039 0.498039 #0.498039
v 0.961426 2.775146 -1.945313 0.498039 0.498039 0.498039 #0.498039
v 0.961426 2.775146 -1.945313 0.498039 0.498039 0.498039 #0.498039
v 1.101074 2.441895 -0.714111 0.498039 0.498039 0.498039 #0.498039
v 1.678711 2.333740 -1.500000 0.498039 0.498039 0.498039 #0.498039
v -2.321533 1.991699 -0.856689 0.498039 0.498039 0.498039 #0.498039
v -1.093506 2.441895 -0.714111 0.498039 0.498039 0.498039 #0.498039
v -1.678711 2.333740 -1.500000 0.498039 0.498039 0.498039 #0.498039
v -1.776611 0.361328 1.583496 0.498039 0.498039 0.498039 #0.498039
v -1.133057 1.174316 1.180176 0.498039 0.498039 0.498039 #0.498039
v -2.321533 0.817871 0.847412 0.498039 0.498039 0.498039 #0.498039
v 2.321533 0.817871 0.847412 0.498039 0.498039 0.498039 #0.498039
v 1.140869 1.174316 1.180176 0.498039 0.498039 0.498039 #0.498039
v 1.776611 0.361328 1.583496 0.498039 0.498039 0.498039 #0.498039
v 1.678711 2.333740 -1.500000 0.498039 0.498039 0.498039 #0.498039
v 1.101074 2.441895 -0.714111 0.498039 0.498039 0.498039 #0.498039
v 2.321533 1.991699 -0.856689 0.498039 0.498039 0.498039 #0.498039
v 0.003662 2.657715 -1.026123 0.498039 0.498039 0.498039 #0.498039
v 0.000000 2.879639 -2.078369 0.498039 0.498039 0.498039 #0.498039
v -0.961426 2.775146 -1.945313 0.498039 0.498039 0.498039 #0.498039
v 0.000000 2.879639 -2.078369 0.498039 0.498039 0.498039 #0.498039
v 0.003662 2.657715 -1.026123 0.498039 0.498039 0.498039 #0.498039
v 0.961426 2.775146 -1.945313 0.498039 0.498039 0.498039 #0.498039
v 0.003662 0.926514 1.537109 0.498039 0.498039 0.498039 #0.498039
v 0.000000 0.037109 2.177246 0.498039 0.498039 0.498039 #0.498039
v 0.961426 0.138428 2.006592 0.498039 0.498039 0.498039 #0.498039
v 0.003662 0.926514 1.537109 0.498039 0.498039 0.498039 #0.498039
v -0.961426 0.138428 2.006592 0.498039 0.498039 0.498039 #0.498039
v 0.000000 0.037109 2.177246 0.498039 0.498039 0.498039 #0.498039
v -1.036621 2.795166 -0.369873 0.498039 0.498039 0.498039 #0.498039
v -0.927002 3.092285 0.115479 0.498039 0.498039 0.498039 #0.498039
v 0.001953 3.044922 -0.679199 0.498039 0.498039 0.498039 #0.498039
v -0.927002 3.092285 0.115479 0.498039 0.498039 0.498039 #0.498039
v 0.001953 3.294189 -0.169678 0.498039 0.498039 0.498039 #0.498039
v 0.001953 3.044922 -0.679199 0.498039 0.498039 0.498039 #0.498039
v -1.433350 2.233398 0.539795 0.498039 0.498039 0.498039 #0.498039
v -1.281738 2.627197 0.841309 0.498039 0.498039 0.498039 #0.498039
v -1.036621 2.795166 -0.369873 0.498039 0.498039 0.498039 #0.498039
v -1.281738 2.627197 0.841309 0.498039 0.498039 0.498039 #0.498039
v -0.927002 3.092285 0.115479 0.498039 0.498039 0.498039 #0.498039
v -1.036621 2.795166 -0.369873 0.498039 0.498039 0.498039 #0.498039
v -1.433350 2.233398 0.539795 0.498039 0.498039 0.498039 #0.498039
v -1.074219 1.640137 1.427246 0.498039 0.498039 0.498039 #0.498039
v -1.281738 2.627197 0.841309 0.498039 0.498039 0.498039 #0.498039
v -1.074219 1.640137 1.427246 0.498039 0.498039 0.498039 #0.498039
v -0.988770 2.082275 1.623779 0.498039 0.498039 0.498039 #0.498039
v -1.281738 2.627197 0.841309 0.498039 0.498039 0.498039 #0.498039
v 0.001953 1.418701 1.757324 0.498039 0.498039 0.498039 #0.498039
v 0.001953 1.913330 1.898438 0.498039 0.498039 0.498039 #0.498039
v -1.074219 1.640137 1.427246 0.498039 0.498039 0.498039 #0.498039
v 0.001953 1.913330 1.898438 0.498039 0.498039 0.498039 #0.498039
v -0.988770 2.082275 1.623779 0.498039 0.498039 0.498039 #0.498039
v -1.074219 1.640137 1.427246 0.498039 0.498039 0.498039 #0.498039
v 1.078125 1.640137 1.427246 0.498039 0.498039 0.498039 #0.498039
v 0.992676 2.082275 1.623779 0.498039 0.498039 0.498039 #0.498039
v 0.001953 1.418701 1.757324 0.498039 0.498039 0.498039 #0.498039
v 0.992676 2.082275 1.623779 0.498039 0.498039 0.498039 #0.498039
v 0.001953 1.913330 1.898438 0.498039 0.498039 0.498039 #0.498039
v 0.001953 1.418701 1.757324 0.498039 0.498039 0.498039 #0.498039
v 1.437500 2.233398 0.539795 0.498039 0.498039 0.498039 #0.498039
v 1.285889 2.627197 0.841309 0.498039 0.498039 0.498039 #0.498039
v 1.078125 1.640137 1.427246 0.498039 0.498039 0.498039 #0.498039
v 1.285889 2.627197 0.841309 0.498039 0.498039 0.498039 #0.498039
v 0.992676 2.082275 1.623779 0.498039 0.498039 0.498039 #0.498039
v 1.078125 1.640137 1.427246 0.498039 0.498039 0.498039 #0.498039
v 1.437500 2.233398 0.539795 0.498039 0.498039 0.498039 #0.498039
v 1.040771 2.795166 -0.369873 0.498039 0.498039 0.498039 #0.498039
v 1.285889 2.627197 0.841309 0.498039 0.498039 0.498039 #0.498039
v 1.040771 2.795166 -0.369873 0.498039 0.498039 0.498039 #0.498039
v 0.931152 3.092285 0.115479 0.498039 0.498039 0.498039 #0.498039
v 1.285889 2.627197 0.841309 0.498039 0.498039 0.498039 #0.498039
v 1.040771 2.795166 -0.369873 0.498039 0.498039 0.498039 #0.498039
v 0.001953 3.044922 -0.679199 0.498039 0.498039 0.498039 #0.498039
v 0.931152 3.092285 0.115479 0.498039 0.498039 0.498039 #0.498039
v 0.001953 3.044922 -0.679199 0.498039 0.498039 0.498039 #0.498039
v 0.001953 3.294189 -0.169678 0.498039 0.498039 0.498039 #0.498039
v 0.931152 3.092285 0.115479 0.498039 0.498039 0.498039 #0.498039
v -0.927002 3.092285 0.115479 0.498039 0.498039 0.498039 #0.498039
v -0.656006 3.195068 0.498779 0.498039 0.498039 0.498039 #0.498039
v 0.001953 3.294189 -0.169678 0.498039 0.498039 0.498039 #0.498039
v -0.656006 3.195068 0.498779 0.498039 0.498039 0.498039 #0.498039
v 0.001953 3.343018 0.276123 0.498039 0.498039 0.498039 #0.498039
v 0.001953 3.294189 -0.169678 0.498039 0.498039 0.498039 #0.498039
v -0.656006 3.195068 0.498779 0.498039 0.498039 0.498039 #0.498039
v 0.001953 2.991943 1.080078 0.498039 0.498039 0.498039 #0.498039
v 0.001953 3.343018 0.276123 0.498039 0.498039 0.498039 #0.498039
v -1.281738 2.627197 0.841309 0.498039 0.498039 0.498039 #0.498039
v -0.906982 2.866699 0.998291 0.498039 0.498039 0.498039 #0.498039
v -0.927002 3.092285 0.115479 0.498039 0.498039 0.498039 #0.498039
v -0.906982 2.866699 0.998291 0.498039 0.498039 0.498039 #0.498039
v -0.656006 3.195068 0.498779 0.498039 0.498039 0.498039 #0.498039
v -0.927002 3.092285 0.115479 0.498039 0.498039 0.498039 #0.498039
v -0.906982 2.866699 0.998291 0.498039 0.498039 0.498039 #0.498039
v 0.001953 2.991943 1.080078 0.498039 0.498039 0.498039 #0.498039
v -0.656006 3.195068 0.498779 0.498039 0.498039 0.498039 #0.498039
v -1.281738 2.627197 0.841309 0.498039 0.498039 0.498039 #0.498039
v -0.988770 2.082275 1.623779 0.498039 0.498039 0.498039 #0.498039
v -0.906982 2.866699 0.998291 0.498039 0.498039 0.498039 #0.498039
v -0.988770 2.082275 1.623779 0.498039 0.498039 0.498039 #0.498039
v -0.668945 2.457031 1.571533 0.498039 0.498039 0.498039 #0.498039
v -0.906982 2.866699 0.998291 0.498039 0.498039 0.498039 #0.498039
v -0.668945 2.457031 1.571533 0.498039 0.498039 0.498039 #0.498039
v 0.001953 2.991943 1.080078 0.498039 0.498039 0.498039 #0.498039
v -0.906982 2.866699 0.998291 0.498039 0.498039 0.498039 #0.498039
v 0.001953 1.913330 1.898438 0.498039 0.498039 0.498039 #0.498039
v 0.001953 2.344727 1.765137 0.498039 0.498039 0.498039 #0.498039
v -0.988770 2.082275 1.623779 0.498039 0.498039 0.498039 #0.498039
v 0.001953 2.344727 1.765137 0.498039 0.498039 0.498039 #0.498039
v -0.668945 2.457031 1.571533 0.498039 0.498039 0.498039 #0.498039
v -0.988770 2.082275 1.623779 0.498039 0.498039 0.498039 #0.498039
v 0.001953 2.344727 1.765137 0.498039 0.498039 0.498039 #0.498039
v 0.001953 2.991943 1.080078 0.498039 0.498039 0.498039 #0.498039
v -0.668945 2.457031 1.571533 0.498039 0.498039 0.498039 #0.498039
v 0.001953 1.913330 1.898438 0.498039 0.498039 0.498039 #0.498039
v 0.992676 2.082275 1.623779 0.498039 0.498039 0.498039 #0.498039
v 0.001953 2.344727 1.765137 0.498039 0.498039 0.498039 #0.498039
v 0.992676 2.082275 1.623779 0.498039 0.498039 0.498039 #0.498039
v 0.672852 2.457031 1.571533 0.498039 0.498039 0.498039 #0.498039
v 0.001953 2.344727 1.765137 0.498039 0.498039 0.498039 #0.498039
v 0.672852 2.457031 1.571533 0.498039 0.498039 0.498039 #0.498039
v 0.001953 2.991943 1.080078 0.498039 0.498039 0.498039 #0.498039
v 0.001953 2.344727 1.765137 0.498039 0.498039 0.498039 #0.498039
v 1.285889 2.627197 0.841309 0.498039 0.498039 0.498039 #0.498039
v 0.911377 2.866699 0.998291 0.498039 0.498039 0.498039 #0.498039
v 0.992676 2.082275 1.623779 0.498039 0.498039 0.498039 #0.498039
v 0.911377 2.866699 0.998291 0.498039 0.498039 0.498039 #0.498039
v 0.672852 2.457031 1.571533 0.498039 0.498039 0.498039 #0.498039
v 0.992676 2.082275 1.623779 0.498039 0.498039 0.498039 #0.498039
v 0.911377 2.866699 0.998291 0.498039 0.498039 0.498039 #0.498039
v 0.001953 2.991943 1.080078 0.498039 0.498039 0.498039 #0.498039
v 0.672852 2.457031 1.571533 0.498039 0.498039 0.498039 #0.498039
v 1.285889 2.627197 0.841309 0.498039 0.498039 0.498039 #0.498039
v 0.931152 3.092285 0.115479 0.498039 0.498039 0.498039 #0.498039
v 0.911377 2.866699 0.998291 0.498039 0.498039 0.498039 #0.498039
v 0.931152 3.092285 0.115479 0.498039 0.498039 0.498039 #0.498039
v 0.659912 3.195068 0.498779 0.498039 0.498039 0.498039 #0.498039
v 0.911377 2.866699 0.998291 0.498039 0.498039 0.498039 #0.498039
v 0.659912 3.195068 0.498779 0.498039 0.498039 0.498039 #0.498039
v 0.001953 2.991943 1.080078 0.498039 0.498039 0.498039 #0.498039
v 0.911377 2.866699 0.998291 0.498039 0.498039 0.498039 #0.498039
v 0.931152 3.092285 0.115479 0.498039 0.498039 0.498039 #0.498039
v 0.001953 3.294189 -0.169678 0.498039 0.498039 0.498039 #0.498039
v 0.659912 3.195068 0.498779 0.498039 0.498039 0.498039 #0.498039
v 0.001953 3.294189 -0.169678 0.498039 0.498039 0.498039 #0.498039
v 0.001953 3.343018 0.276123 0.498039 0.498039 0.498039 #0.498039
v 0.659912 3.195068 0.498779 0.498039 0.498039 0.498039 #0.498039
v 0.001953 3.343018 0.276123 0.498039 0.498039 0.498039 #0.498039
v 0.001953 2.991943 1.080078 0.498039 0.498039 0.498039 #0.498039
v 0.659912 3.195068 0.498779 0.498039 0.498039 0.498039 #0.498039
v -1.093506 2.441895 -0.714111 0.498039 0.498039 0.498039 #0.498039
v -1.036621 2.795166 -0.369873 0.498039 0.498039 0.498039 #0.498039
v 0.003662 2.657715 -1.026123 0.498039 0.498039 0.498039 #0.498039
v -1.036621 2.795166 -0.369873 0.498039 0.498039 0.498039 #0.498039
v 0.001953 3.044922 -0.679199 0.498039 0.498039 0.498039 #0.498039
v 0.003662 2.657715 -1.026123 0.498039 0.498039 0.498039 #0.498039
v -1.093506 2.441895 -0.714111 0.498039 0.498039 0.498039 #0.498039
v -1.512451 1.795410 0.257568 0.498039 0.498039 0.498039 #0.498039
v -1.036621 2.795166 -0.369873 0.498039 0.498039 0.498039 #0.498039
v -1.512451 1.795410 0.257568 0.498039 0.498039 0.498039 #0.498039
v -1.433350 2.233398 0.539795 0.498039 0.498039 0.498039 #0.498039
v -1.036621 2.795166 -0.369873 0.498039 0.498039 0.498039 #0.498039
v -1.133057 1.174316 1.180176 0.498039 0.498039 0.498039 #0.498039
v -1.074219 1.640137 1.427246 0.498039 0.498039 0.498039 #0.498039
v -1.512451 1.795410 0.257568 0.498039 0.498039 0.498039 #0.498039
v -1.074219 1.640137 1.427246 0.498039 0.498039 0.498039 #0.498039
v -1.433350 2.233398 0.539795 0.498039 0.498039 0.498039 #0.498039
v -1.512451 1.795410 0.257568 0.498039 0.498039 0.498039 #0.498039
v 0.003662 0.926514 1.537109 0.498039 0.498039 0.498039 #0.498039
v 0.001953 1.418701 1.757324 0.498039 0.498039 0.498039 #0.498039
v -1.133057 1.174316 1.180176 0.498039 0.498039 0.498039 #0.498039
v 0.001953 1.418701 1.757324 0.498039 0.498039 0.498039 #0.498039
v -1.074219 1.640137 1.427246 0.498039 0.498039 0.498039 #0.498039
v -1.133057 1.174316 1.180176 0.498039 0.498039 0.498039 #0.498039
v 1.140869 1.174316 1.180176 0.498039 0.498039 0.498039 #0.498039
v 1.078125 1.640137 1.427246 0.498039 0.498039 0.498039 #0.498039
v 0.003662 0.926514 1.537109 0.498039 0.498039 0.498039 #0.498039
v 1.078125 1.640137 1.427246 0.498039 0.498039 0.498039 #0.498039
v 0.001953 1.418701 1.757324 0.498039 0.498039 0.498039 #0.498039
v 0.003662 0.926514 1.537109 0.498039 0.498039 0.498039 #0.498039
v 1.140869 1.174316 1.180176 0.498039 0.498039 0.498039 #0.498039
v 1.454590 1.793213 0.258789 0.498039 0.498039 0.498039 #0.498039
v 1.078125 1.640137 1.427246 0.498039 0.498039 0.498039 #0.498039
v 1.454590 1.793213 0.258789 0.498039 0.498039 0.498039 #0.498039
v 1.437500 2.233398 0.539795 0.498039 0.498039 0.498039 #0.498039
v 1.078125 1.640137 1.427246 0.498039 0.498039 0.498039 #0.498039
v 1.101074 2.441895 -0.714111 0.498039 0.498039 0.498039 #0.498039
v 1.040771 2.795166 -0.369873 0.498039 0.498039 0.498039 #0.498039
v 1.454590 1.793213 0.258789 0.498039 0.498039 0.498039 #0.498039
v 1.040771 2.795166 -0.369873 0.498039 0.498039 0.498039 #0.498039
v 1.437500 2.233398 0.539795 0.498039 0.498039 0.498039 #0.498039
v 1.454590 1.793213 0.258789 0.498039 0.498039 0.498039 #0.498039
v 0.003662 2.657715 -1.026123 0.498039 0.498039 0.498039 #0.498039
v 0.001953 3.044922 -0.679199 0.498039 0.498039 0.498039 #0.498039
v 1.101074 2.441895 -0.714111 0.498039 0.498039 0.498039 #0.498039
v 0.001953 3.044922 -0.679199 0.498039 0.498039 0.498039 #0.498039
v 1.040771 2.795166 -0.369873 0.498039 0.498039 0.498039 #0.498039
v 1.101074 2.441895 -0.714111 0.498039 0.498039 0.498039 #0.498039
v -1.808838 2.424316 -1.647949 0.498039 0.498039 0.498039 #0.498039
v -0.978760 2.749756 -2.049316 0.498039 0.498039 0.498039 #0.498039
v -1.815674 2.265137 -1.750732 0.498039 0.498039 0.498039 #0.498039
v -1.815674 2.265137 -1.750732 0.498039 0.498039 0.498039 #0.498039
v -0.978760 2.749756 -2.049316 0.498039 0.498039 0.498039 #0.498039
v -0.982422 2.592773 -2.153076 0.498039 0.498039 0.498039 #0.498039
v -1.815674 2.265137 -1.750732 0.498039 0.498039 0.498039 #0.498039
v -2.372314 1.806396 -1.041748 0.498039 0.498039 0.498039 #0.498039
v -1.808838 2.424316 -1.647949 0.498039 0.498039 0.498039 #0.498039
v -2.372314 1.806396 -1.041748 0.498039 0.498039 0.498039 #0.498039
v -2.363281 1.967529 -0.956543 0.498039 0.498039 0.498039 #0.498039
v -1.808838 2.424316 -1.647949 0.498039 0.498039 0.498039 #0.498039
v -2.372314 1.806396 -1.041748 0.498039 0.498039 0.498039 #0.498039
v -2.567627 1.163086 -0.110840 0.498039 0.498039 0.498039 #0.498039
v -2.363281 1.967529 -0.956543 0.498039 0.498039 0.498039 #0.498039
v -2.567627 1.163086 -0.110840 0.498039 0.498039 0.498039 #0.498039
v -2.558105 1.343262 -0.034668 0.498039 0.498039 0.498039 #0.498039
v -2.363281 1.967529 -0.956543 0.498039 0.498039 0.498039 #0.498039
v -2.567627 1.163086 -0.110840 0.498039 0.498039 0.498039 #0.498039
v -2.372314 0.566650 0.783936 0.498039 0.498039 0.498039 #0.498039
v -2.558105 1.343262 -0.034668 0.498039 0.498039 0.498039 #0.498039
v -2.372314 0.566650 0.783936 0.498039 0.498039 0.498039 #0.498039
v -2.363281 0.734131 0.846680 0.498039 0.498039 0.498039 #0.498039
v -2.558105 1.343262 -0.034668 0.498039 0.498039 0.498039 #0.498039
v -1.808838 0.260254 1.563232 0.498039 0.498039 0.498039 #0.498039
v -2.363281 0.734131 0.846680 0.498039 0.498039 0.498039 #0.498039
v -1.815674 0.085693 1.499756 0.498039 0.498039 0.498039 #0.498039
v -1.815674 0.085693 1.499756 0.498039 0.498039 0.498039 #0.498039
v -2.363281 0.734131 0.846680 0.498039 0.498039 0.498039 #0.498039
v -2.372314 0.566650 0.783936 0.498039 0.498039 0.498039 #0.498039
v -1.815674 0.085693 1.499756 0.498039 0.498039 0.498039 #0.498039
v -0.982422 -0.169189 1.958496 0.498039 0.498039 0.498039 #0.498039
v -1.808838 0.260254 1.563232 0.498039 0.498039 0.498039 #0.498039
v -0.982422 -0.169189 1.958496 0.498039 0.498039 0.498039 #0.498039
v -0.978760 0.015625 2.009277 0.498039 0.498039 0.498039 #0.498039
v -1.808838 0.260254 1.563232 0.498039 0.498039 0.498039 #0.498039
v 0.000000 -0.103027 2.179688 0.498039 0.498039 0.498039 #0.498039
v -0.978760 0.015625 2.009277 0.498039 0.498039 0.498039 #0.498039
v 0.000000 -0.301514 2.121338 0.498039 0.498039 0.498039 #0.498039
v 0.000000 -0.301514 2.121338 0.498039 0.498039 0.498039 #0.498039
v -0.978760 0.015625 2.009277 0.498039 0.498039 0.498039 #0.498039
v -0.982422 -0.169189 1.958496 0.498039 0.498039 0.498039 #0.498039
v 0.982422 -0.169189 1.958496 0.498039 0.498039 0.498039 #0.498039
v 0.978760 0.015625 2.009277 0.498039 0.498039 0.498039 #0.498039
v 0.000000 -0.301514 2.121338 0.498039 0.498039 0.498039 #0.498039
v 0.978760 0.015625 2.009277 0.498039 0.498039 0.498039 #0.498039
v 0.000000 -0.103027 2.179688 0.498039 0.498039 0.498039 #0.498039
v 0.000000 -0.301514 2.121338 0.498039 0.498039 0.498039 #0.498039
v 1.815674 0.085693 1.499756 0.498039 0.498039 0.498039 #0.498039
v 1.808838 0.260254 1.563232 0.498039 0.498039 0.498039 #0.498039
v 0.982422 -0.169189 1.958496 0.498039 0.498039 0.498039 #0.498039
v 1.808838 0.260254 1.563232 0.498039 0.498039 0.498039 #0.498039
v 0.978760 0.015625 2.009277 0.498039 0.498039 0.498039 #0.498039
v 0.982422 -0.169189 1.958496 0.498039 0.498039 0.498039 #0.498039
v 2.372314 0.566650 0.783936 0.498039 0.498039 0.498039 #0.498039
v 2.363281 0.734131 0.846680 0.498039 0.498039 0.498039 #0.498039
v 1.815674 0.085693 1.499756 0.498039 0.498039 0.498039 #0.498039
v 2.363281 0.734131 0.846680 0.498039 0.498039 0.498039 #0.498039
v 1.808838 0.260254 1.563232 0.498039 0.498039 0.498039 #0.498039
v 1.815674 0.085693 1.499756 0.498039 0.498039 0.498039 #0.498039
v 2.567627 1.163086 -0.110840 0.498039 0.498039 0.498039 #0.498039
v 2.558105 1.343262 -0.034668 0.498039 0.498039 0.498039 #0.498039
v 2.372314 0.566650 0.783936 0.498039 0.498039 0.498039 #0.498039
v 2.558105 1.343262 -0.034668 0.498039 0.498039 0.498039 #0.498039
v 2.363281 0.734131 0.846680 0.498039 0.498039 0.498039 #0.498039
v 2.372314 0.566650 0.783936 0.498039 0.498039 0.498039 #0.498039
v 2.372314 1.806396 -1.041748 0.498039 0.498039 0.498039 #0.498039
v 2.363281 1.967529 -0.956543 0.498039 0.498039 0.498039 #0.498039
v 2.567627 1.163086 -0.110840 0.498039 0.498039 0.498039 #0.498039
v 2.363281 1.967529 -0.956543 0.498039 0.498039 0.498039 #0.498039
v 2.558105 1.343262 -0.034668 0.498039 0.498039 0.498039 #0.498039
v 2.567627 1.163086 -0.110840 0.498039 0.498039 0.498039 #0.498039
v 1.815674 2.265137 -1.750732 0.498039 0.498039 0.498039 #0.498039
v 1.808838 2.424316 -1.647949 0.498039 0.498039 0.498039 #0.498039
v 2.372314 1.806396 -1.041748 0.498039 0.498039 0.498039 #0.498039
v 1.808838 2.424316 -1.647949 0.498039 0.498039 0.498039 #0.498039
v 2.363281 1.967529 -0.956543 0.498039 0.498039 0.498039 #0.498039
v 2.372314 1.806396 -1.041748 0.498039 0.498039 0.498039 #0.498039
v 0.982422 2.592773 -2.153076 0.498039 0.498039 0.498039 #0.498039
v 0.978760 2.749756 -2.049316 0.498039 0.498039 0.498039 #0.498039
v 1.815674 2.265137 -1.750732 0.498039 0.498039 0.498039 #0.498039
v 0.978760 2.749756 -2.049316 0.498039 0.498039 0.498039 #0.498039
v 1.808838 2.424316 -1.647949 0.498039 0.498039 0.498039 #0.498039
v 1.815674 2.265137 -1.750732 0.498039 0.498039 0.498039 #0.498039
v 0.000000 2.703613 -2.292725 0.498039 0.498039 0.498039 #0.498039
v 0.000000 2.859619 -2.188721 0.498039 0.498039 0.498039 #0.498039
v 0.982422 2.592773 -2.153076 0.498039 0.498039 0.498039 #0.498039
v 0.000000 2.859619 -2.188721 0.498039 0.498039 0.498039 #0.498039
v 0.978760 2.749756 -2.049316 0.498039 0.498039 0.498039 #0.498039
v 0.982422 2.592773 -2.153076 0.498039 0.498039 0.498039 #0.498039
v 0.000000 2.703613 -2.292725 0.498039 0.498039 0.498039 #0.498039
v -0.982422 2.592773 -2.153076 0.498039 0.498039 0.498039 #0.498039
v 0.000000 2.859619 -2.188721 0.498039 0.498039 0.498039 #0.498039
v -0.982422 2.592773 -2.153076 0.498039 0.498039 0.498039 #0.498039
v -0.978760 2.749756 -2.049316 0.498039 0.498039 0.498039 #0.498039
v 0.000000 2.859619 -2.188721 0.498039 0.498039 0.498039 #0.498039
vt 0.368164 0.521729 0.000000
vt 0.135498 0.523682 0.000000
vt 0.481934 0.941895 0.000000
vt 0.255859 0.990234 0.000000
vt 0.481934 0.941895 0.000000
vt 0.135498 0.523682 0.000000
vt 0.472656 0.482910 0.000000
vt 0.246094 0.009033 0.000000
vt 0.019531 0.482910 0.000000
vt 0.481934 0.941895 0.000000
vt 0.368164 0.521729 0.000000
vt 0.255859 0.990234 0.000000
vt 0.255859 0.990234 0.000000
vt 0.368164 0.521729 0.000000
vt 0.135498 0.523682 0.000000
vt 0.019531 0.482910 0.000000
vt 0.246094 0.009033 0.000000
vt 0.472656 0.482910 0.000000
vt 0.255859 0.990234 0.000000
vt 0.481934 0.941895 0.000000
vt 0.135498 0.523682 0.000000
vt 0.481934 0.941895 0.000000
vt 0.368164 0.521729 0.000000
vt 0.135498 0.523682 0.000000
vt 0.472656 0.482910 0.000000
vt 0.246094 0.009033 0.000000
vt 0.019531 0.482910 0.000000
vt 0.255859 0.990234 0.000000
vt 0.481934 0.941895 0.000000
vt 0.135498 0.523682 0.000000
vt 0.481934 0.941895 0.000000
vt 0.368164 0.521729 0.000000
vt 0.135498 0.523682 0.000000
vt 0.019531 0.482910 0.000000
vt 0.246094 0.009033 0.000000
vt 0.472656 0.482910 0.000000
vt 0.481934 0.941895 0.000000
vt 0.368164 0.521729 0.000000
vt 0.255859 0.990234 0.000000
vt 0.255859 0.990234 0.000000
vt 0.368164 0.521729 0.000000
vt 0.135498 0.523682 0.000000
vt 0.472656 0.482910 0.000000
vt 0.246094 0.009033 0.000000
vt 0.019531 0.482910 0.000000
vt 0.481934 0.941895 0.000000
vt 0.368164 0.521729 0.000000
vt 0.255859 0.990234 0.000000
vt 0.255859 0.990234 0.000000
vt 0.368164 0.521729 0.000000
vt 0.135498 0.523682 0.000000
vt 0.019531 0.482910 0.000000
vt 0.246094 0.009033 0.000000
vt 0.472656 0.482910 0.000000
vt 0.255859 0.990234 0.000000
vt 0.481934 0.941895 0.000000
vt 0.135498 0.523682 0.000000
vt 0.481934 0.941895 0.000000
vt 0.368164 0.521729 0.000000
vt 0.135498 0.523682 0.000000
vt 0.472656 0.482910 0.000000
vt 0.246094 0.009033 0.000000
vt 0.019531 0.482910 0.000000
vt 0.135498 0.523682 0.000000
vt 0.255859 0.990234 0.000000
vt 0.368164 0.521729 0.000000
vt 0.255859 0.990234 0.000000
vt 0.481934 0.941895 0.000000
vt 0.368164 0.521729 0.000000
vt 0.019531 0.482910 0.000000
vt 0.246094 0.009033 0.000000
vt 0.472656 0.482910 0.000000
vt 0.255859 0.990234 0.000000
vt 0.135498 0.523682 0.000000
vt 0.026855 0.938477 0.000000
vt 0.255859 0.990234 0.000000
vt 0.135498 0.523682 0.000000
vt 0.026855 0.938477 0.000000
vt 0.255859 0.990234 0.000000
vt 0.135498 0.523682 0.000000
vt 0.026855 0.938477 0.000000
vt 0.255859 0.990234 0.000000
vt 0.135498 0.523682 0.000000
vt 0.026855 0.938477 0.000000
vt 0.026855 0.938477 0.000000
vt 0.255859 0.990234 0.000000
vt 0.135498 0.523682 0.000000
vt 0.255859 0.990234 0.000000
vt 0.135498 0.523682 0.000000
vt 0.026855 0.938477 0.000000
vt 0.026855 0.938477 0.000000
vt 0.255859 0.990234 0.000000
vt 0.135498 0.523682 0.000000
vt 0.026855 0.938477 0.000000
vt 0.255859 0.990234 0.000000
vt 0.135498 0.523682 0.000000
vt 0.254395 0.968262 0.000000
vt 0.255859 0.990234 0.000000
vt 0.038330 0.924805 0.000000
vt 0.038330 0.924805 0.000000
vt 0.255859 0.990234 0.000000
vt 0.026855 0.938477 0.000000
vt 0.254395 0.968262 0.000000
vt 0.255859 0.990234 0.000000
vt 0.038330 0.924805 0.000000
vt 0.255859 0.990234 0.000000
vt 0.026855 0.938477 0.000000
vt 0.038330 0.924805 0.000000
vt 0.026855 0.938477 0.000000
vt 0.038330 0.924805 0.000000
vt 0.255859 0.990234 0.000000
vt 0.254395 0.968262 0.000000
vt 0.255859 0.990234 0.000000
vt 0.038330 0.924805 0.000000
vt 0.038330 0.924805 0.000000
vt 0.254395 0.968262 0.000000
vt 0.026855 0.938477 0.000000
vt 0.254395 0.968262 0.000000
vt 0.255859 0.990234 0.000000
vt 0.026855 0.938477 0.000000
vt 0.038330 0.924805 0.000000
vt 0.254395 0.968262 0.000000
vt 0.026855 0.938477 0.000000
vt 0.254395 0.968262 0.000000
vt 0.255859 0.990234 0.000000
vt 0.026855 0.938477 0.000000
vt 0.255859 0.990234 0.000000
vt 0.026855 0.938477 0.000000
vt 0.254395 0.968262 0.000000
vt 0.254395 0.968262 0.000000
vt 0.026855 0.938477 0.000000
vt 0.038330 0.924805 0.000000
vt 0.038330 0.924805 0.000000
vt 0.254395 0.968262 0.000000
vt 0.026855 0.938477 0.000000
vt 0.254395 0.968262 0.000000
vt 0.255859 0.990234 0.000000
vt 0.026855 0.938477 0.000000
vt 0.038330 0.924805 0.000000
vt 0.254395 0.968262 0.000000
vt 0.026855 0.938477 0.000000
vt 0.254395 0.968262 0.000000
vt 0.255859 0.990234 0.000000
vt 0.026855 0.938477 0.000000
vt 0.254395 0.968262 0.000000
vt 0.255859 0.990234 0.000000
vt 0.038330 0.924805 0.000000
vt 0.255859 0.990234 0.000000
vt 0.026855 0.938477 0.000000
vt 0.038330 0.924805 0.000000
vt 0.254395 0.968262 0.000000
vt 0.255859 0.990234 0.000000
vt 0.038330 0.924805 0.000000
vt 0.255859 0.990234 0.000000
vt 0.026855 0.938477 0.000000
vt 0.038330 0.924805 0.000000
vt 0.026855 0.938477 0.000000
vt 0.038330 0.924805 0.000000
vt 0.255859 0.990234 0.000000
vt 0.254395 0.968262 0.000000
vt 0.255859 0.990234 0.000000
vt 0.038330 0.924805 0.000000
vt 0.254395 0.968262 0.000000
vt 0.255859 0.990234 0.000000
vt 0.038330 0.924805 0.000000
vt 0.255859 0.990234 0.000000
vt 0.026855 0.938477 0.000000
vt 0.038330 0.924805 0.000000
vt 0.254395 0.968262 0.000000
vt 0.255859 0.990234 0.000000
vt 0.038330 0.924805 0.000000
vt 0.255859 0.990234 0.000000
vt 0.026855 0.938477 0.000000
vt 0.038330 0.924805 0.000000
vt 0.255859 0.990234 0.000000
vt 0.026855 0.938477 0.000000
vt 0.254395 0.968262 0.000000
vt 0.254395 0.968262 0.000000
vt 0.026855 0.938477 0.000000
vt 0.038330 0.924805 0.000000
vt 0.038330 0.924805 0.000000
vt 0.254395 0.968262 0.000000
vt 0.026855 0.938477 0.000000
vt 0.254395 0.968262 0.000000
vt 0.255859 0.990234 0.000000
vt 0.026855 0.938477 0.000000
vt 0.038330 0.924805 0.000000
vt 0.254395 0.968262 0.000000
vt 0.026855 0.938477 0.000000
vt 0.254395 0.968262 0.000000
vt 0.255859 0.990234 0.000000
vt 0.026855 0.938477 0.000000
vt 0.135498 0.523682 0.000000
vt 0.255859 0.990234 0.000000
vt 0.368164 0.521729 0.000000
vt 0.481934 0.941895 0.000000
vt 0.368164 0.521729 0.000000
vt 0.255859 0.990234 0.000000
vt 0.135498 0.523682 0.000000
vt 0.255859 0.990234 0.000000
vt 0.368164 0.521729 0.000000
vt 0.481934 0.941895 0.000000
vt 0.368164 0.521729 0.000000
vt 0.255859 0.990234 0.000000
vt 0.368164 0.521729 0.000000
vt 0.135498 0.523682 0.000000
vt 0.255859 0.990234 0.000000
vt 0.255859 0.990234 0.000000
vt 0.135498 0.523682 0.000000
vt 0.026855 0.938477 0.000000
vt 0.368164 0.521729 0.000000
vt 0.135498 0.523682 0.000000
vt 0.255859 0.990234 0.000000
vt 0.255859 0.990234 0.000000
vt 0.135498 0.523682 0.000000
vt 0.026855 0.938477 0.000000
vt 0.135498 0.523682 0.000000
vt 0.255859 0.990234 0.000000
vt 0.368164 0.521729 0.000000
vt 0.481934 0.941895 0.000000
vt 0.368164 0.521729 0.000000
vt 0.255859 0.990234 0.000000
vt 0.135498 0.523682 0.000000
vt 0.255859 0.990234 0.000000
vt 0.368164 0.521729 0.000000
vt 0.481934 0.941895 0.000000
vt 0.368164 0.521729 0.000000
vt 0.255859 0.990234 0.000000
vt 0.135498 0.523682 0.000000
vt 0.368164 0.521729 0.000000
vt 0.255859 0.990234 0.000000
vt 0.255859 0.990234 0.000000
vt 0.368164 0.521729 0.000000
vt 0.481934 0.941895 0.000000
vt 0.135498 0.523682 0.000000
vt 0.368164 0.521729 0.000000
vt 0.255859 0.990234 0.000000
vt 0.255859 0.990234 0.000000
vt 0.368164 0.521729 0.000000
vt 0.481934 0.941895 0.000000
vt 0.255859 0.990234 0.000000
vt 0.135498 0.523682 0.000000
vt 0.026855 0.938477 0.000000
vt 0.481934 0.941895 0.000000
vt 0.368164 0.521729 0.000000
vt 0.255859 0.990234 0.000000
vt 0.255859 0.990234 0.000000
vt 0.135498 0.523682 0.000000
vt 0.026855 0.938477 0.000000
vt 0.026855 0.938477 0.000000
vt 0.135498 0.523682 0.000000
vt 0.255859 0.990234 0.000000
vt 0.135498 0.523682 0.000000
vt 0.026855 0.938477 0.000000
vt 0.255859 0.990234 0.000000
vt 0.026855 0.938477 0.000000
vt 0.135498 0.523682 0.000000
vt 0.255859 0.990234 0.000000
vt 0.135498 0.523682 0.000000
vt 0.026855 0.938477 0.000000
vt 0.255859 0.990234 0.000000
vt 0.368164 0.521729 0.000000
vt 0.255859 0.990234 0.000000
vt 0.481934 0.941895 0.000000
vt 0.521240 0.752930 0.000000
vt 0.526855 0.490967 0.000000
vt 0.977783 0.752930 0.000000
vt 0.526855 0.490967 0.000000
vt 0.977051 0.489990 0.000000
vt 0.977783 0.752930 0.000000
vt 0.977783 0.752930 0.000000
vt 0.977295 0.492432 0.000000
vt 0.521240 0.752930 0.000000
vt 0.977295 0.492432 0.000000
vt 0.526855 0.490967 0.000000
vt 0.521240 0.752930 0.000000
vt 0.977783 0.752930 0.000000
vt 0.521240 0.752930 0.000000
vt 0.977295 0.492432 0.000000
vt 0.521240 0.752930 0.000000
vt 0.527100 0.489990 0.000000
vt 0.977295 0.492432 0.000000
vt 0.977783 0.752930 0.000000
vt 0.977051 0.492432 0.000000
vt 0.521240 0.752930 0.000000
vt 0.977051 0.492432 0.000000
vt 0.527100 0.489990 0.000000
vt 0.521240 0.752930 0.000000
vt 0.521240 0.752930 0.000000
vt 0.527100 0.489990 0.000000
vt 0.977783 0.752930 0.000000
vt 0.527100 0.489990 0.000000
vt 0.977051 0.492432 0.000000
vt 0.977783 0.752930 0.000000
vt 0.977783 0.752930 0.000000
vt 0.977295 0.492432 0.000000
vt 0.521240 0.752930 0.000000
vt 0.977295 0.492432 0.000000
vt 0.527100 0.489990 0.000000
vt 0.521240 0.752930 0.000000
vt 0.977783 0.752930 0.000000
vt 0.521240 0.752930 0.000000
vt 0.977295 0.492432 0.000000
vt 0.521240 0.752930 0.000000
vt 0.526611 0.490967 0.000000
vt 0.977295 0.492432 0.000000
vt 0.521240 0.752930 0.000000
vt 0.977783 0.752930 0.000000
vt 0.526611 0.490967 0.000000
vt 0.977783 0.752930 0.000000
vt 0.977051 0.489990 0.000000
vt 0.526611 0.490967 0.000000
vt 0.526855 0.490967 0.000000
vt 0.549316 0.380371 0.000000
vt 0.977051 0.489990 0.000000
vt 0.549316 0.380371 0.000000
vt 0.956299 0.380371 0.000000
vt 0.977051 0.489990 0.000000
vt 0.549316 0.380371 0.000000
vt 0.752686 0.008545 0.000000
vt 0.956299 0.380371 0.000000
vt 0.977295 0.492432 0.000000
vt 0.957031 0.380371 0.000000
vt 0.526855 0.490967 0.000000
vt 0.957031 0.380371 0.000000
vt 0.549316 0.380371 0.000000
vt 0.526855 0.490967 0.000000
vt 0.957031 0.380371 0.000000
vt 0.752686 0.008545 0.000000
vt 0.549316 0.380371 0.000000
vt 0.977295 0.492432 0.000000
vt 0.527100 0.489990 0.000000
vt 0.957031 0.380371 0.000000
vt 0.527100 0.489990 0.000000
vt 0.549072 0.380371 0.000000
vt 0.957031 0.380371 0.000000
vt 0.549072 0.380371 0.000000
vt 0.752686 0.008545 0.000000
vt 0.957031 0.380371 0.000000
vt 0.977051 0.492432 0.000000
vt 0.957031 0.380371 0.000000
vt 0.527100 0.489990 0.000000
vt 0.957031 0.380371 0.000000
vt 0.549072 0.380371 0.000000
vt 0.527100 0.489990 0.000000
vt 0.957031 0.380371 0.000000
vt 0.752686 0.008545 0.000000
vt 0.549072 0.380371 0.000000
vt 0.977051 0.492432 0.000000
vt 0.527100 0.489990 0.000000
vt 0.957031 0.380371 0.000000
vt 0.527100 0.489990 0.000000
vt 0.549072 0.380371 0.000000
vt 0.957031 0.380371 0.000000
vt 0.549072 0.380371 0.000000
vt 0.752686 0.008545 0.000000
vt 0.957031 0.380371 0.000000
vt 0.977295 0.492432 0.000000
vt 0.957031 0.380371 0.000000
vt 0.527100 0.489990 0.000000
vt 0.957031 0.380371 0.000000
vt 0.549072 0.380371 0.000000
vt 0.527100 0.489990 0.000000
vt 0.957031 0.380371 0.000000
vt 0.752686 0.008545 0.000000
vt 0.549072 0.380371 0.000000
vt 0.977295 0.492432 0.000000
vt 0.526611 0.490967 0.000000
vt 0.957031 0.380371 0.000000
vt 0.526611 0.490967 0.000000
vt 0.548828 0.380371 0.000000
vt 0.957031 0.380371 0.000000
vt 0.548828 0.380371 0.000000
vt 0.752686 0.008545 0.000000
vt 0.957031 0.380371 0.000000
vt 0.526611 0.490967 0.000000
vt 0.977051 0.489990 0.000000
vt 0.548828 0.380371 0.000000
vt 0.977051 0.489990 0.000000
vt 0.956299 0.380371 0.000000
vt 0.548828 0.380371 0.000000
vt 0.956299 0.380371 0.000000
vt 0.752686 0.008545 0.000000
vt 0.548828 0.380371 0.000000
vt 0.521240 0.989746 0.000000
vt 0.521240 0.752930 0.000000
vt 0.977295 0.989746 0.000000
vt 0.521240 0.752930 0.000000
vt 0.977783 0.752930 0.000000
vt 0.977295 0.989746 0.000000
vt 0.521240 0.989746 0.000000
vt 0.977295 0.989746 0.000000
vt 0.521240 0.752930 0.000000
vt 0.977295 0.989746 0.000000
vt 0.977783 0.752930 0.000000
vt 0.521240 0.752930 0.000000
vt 0.521729 0.989746 0.000000
vt 0.521240 0.752930 0.000000
vt 0.977295 0.989746 0.000000
vt 0.521240 0.752930 0.000000
vt 0.977783 0.752930 0.000000
vt 0.977295 0.989746 0.000000
vt 0.977295 0.989746 0.000000
vt 0.977783 0.752930 0.000000
vt 0.521729 0.989746 0.000000
vt 0.977783 0.752930 0.000000
vt 0.521240 0.752930 0.000000
vt 0.521729 0.989746 0.000000
vt 0.521240 0.989746 0.000000
vt 0.521240 0.752930 0.000000
vt 0.977295 0.989746 0.000000
vt 0.521240 0.752930 0.000000
vt 0.977783 0.752930 0.000000
vt 0.977295 0.989746 0.000000
vt 0.521240 0.989746 0.000000
vt 0.977295 0.989746 0.000000
vt 0.521240 0.752930 0.000000
vt 0.977295 0.989746 0.000000
vt 0.977783 0.752930 0.000000
vt 0.521240 0.752930 0.000000
vt 0.521729 0.989746 0.000000
vt 0.521240 0.752930 0.000000
vt 0.977295 0.989746 0.000000
vt 0.521240 0.752930 0.000000
vt 0.977783 0.752930 0.000000
vt 0.977295 0.989746 0.000000
vt 0.977295 0.989746 0.000000
vt 0.977783 0.752930 0.000000
vt 0.521729 0.989746 0.000000
vt 0.977783 0.752930 0.000000
vt 0.521240 0.752930 0.000000
vt 0.521729 0.989746 0.000000
vt 0.254395 0.968262 0.000000
vt 0.038330 0.924805 0.000000
vt 0.253174 0.946045 0.000000
vt 0.253174 0.946045 0.000000
vt 0.038330 0.924805 0.000000
vt 0.050049 0.911133 0.000000
vt 0.050049 0.911133 0.000000
vt 0.253174 0.946045 0.000000
vt 0.038330 0.924805 0.000000
vt 0.253174 0.946045 0.000000
vt 0.254395 0.968262 0.000000
vt 0.038330 0.924805 0.000000
vt 0.050049 0.911133 0.000000
vt 0.253174 0.946045 0.000000
vt 0.038330 0.924805 0.000000
vt 0.253174 0.946045 0.000000
vt 0.254395 0.968262 0.000000
vt 0.038330 0.924805 0.000000
vt 0.050049 0.911133 0.000000
vt 0.253174 0.946045 0.000000
vt 0.038330 0.924805 0.000000
vt 0.253174 0.946045 0.000000
vt 0.254395 0.968262 0.000000
vt 0.038330 0.924805 0.000000
vt 0.254395 0.968262 0.000000
vt 0.038330 0.924805 0.000000
vt 0.253174 0.946045 0.000000
vt 0.253174 0.946045 0.000000
vt 0.038330 0.924805 0.000000
vt 0.050049 0.911133 0.000000
vt 0.050049 0.911133 0.000000
vt 0.253174 0.946045 0.000000
vt 0.038330 0.924805 0.000000
vt 0.253174 0.946045 0.000000
vt 0.254395 0.968262 0.000000
vt 0.038330 0.924805 0.000000
vt 0.254395 0.968262 0.000000
vt 0.038330 0.924805 0.000000
vt 0.253174 0.946045 0.000000
vt 0.253174 0.946045 0.000000
vt 0.038330 0.924805 0.000000
vt 0.050049 0.911133 0.000000
vt 0.253174 0.946045 0.000000
vt 0.254395 0.968262 0.000000
vt 0.050049 0.911133 0.000000
vt 0.254395 0.968262 0.000000
vt 0.038330 0.924805 0.000000
vt 0.050049 0.911133 0.000000
vt 0.253174 0.946045 0.000000
vt 0.254395 0.968262 0.000000
vt 0.050049 0.911133 0.000000
vt 0.254395 0.968262 0.000000
vt 0.038330 0.924805 0.000000
vt 0.050049 0.911133 0.000000
vt 0.253174 0.946045 0.000000
vt 0.254395 0.968262 0.000000
vt 0.050049 0.911133 0.000000
vt 0.254395 0.968262 0.000000
vt 0.038330 0.924805 0.000000
vt 0.050049 0.911133 0.000000
vt 0.253174 0.946045 0.000000
vt 0.254395 0.968262 0.000000
vt 0.050049 0.911133 0.000000
vt 0.254395 0.968262 0.000000
vt 0.038330 0.924805 0.000000
vt 0.050049 0.911133 0.000000
vt 0.253174 0.946045 0.000000
vt 0.254395 0.968262 0.000000
vt 0.050049 0.911133 0.000000
vt 0.254395 0.968262 0.000000
vt 0.038330 0.924805 0.000000
vt 0.050049 0.911133 0.000000
vt 0.253174 0.946045 0.000000
vt 0.254395 0.968262 0.000000
vt 0.050049 0.911133 0.000000
vt 0.254395 0.968262 0.000000
vt 0.038330 0.924805 0.000000
vt 0.050049 0.911133 0.000000
vt 0.253174 0.946045 0.000000
vt 0.254395 0.968262 0.000000
vt 0.050049 0.911133 0.000000
vt 0.254395 0.968262 0.000000
vt 0.038330 0.924805 0.000000
vt 0.050049 0.911133 0.000000
vt 0.253174 0.946045 0.000000
vt 0.254395 0.968262 0.000000
vt 0.050049 0.911133 0.000000
vt 0.254395 0.968262 0.000000
vt 0.038330 0.924805 0.000000
vt 0.050049 0.911133 0.000000
vt 0.050049 0.911133 0.000000
vt 0.253174 0.946045 0.000000
vt 0.038330 0.924805 0.000000
vt 0.253174 0.946045 0.000000
vt 0.254395 0.968262 0.000000
vt 0.038330 0.924805 0.000000
vn 0.000000 -0.188232 0.981934
vn -0.201660 -0.148926 0.967773
vn -0.000244 0.064697 0.997803
vn 0.005371 0.062988 0.997803
vn -0.000244 0.064697 0.997803
vn -0.201660 -0.148926 0.967773
vn 0.000000 -0.188232 0.981934
vn -0.000244 -0.857178 0.514404
vn -0.201660 -0.148926 0.967773
vn -0.002197 0.067871 0.997559
vn -0.201660 -0.148926 0.967773
vn -0.021484 0.062256 0.997803
vn -0.021484 0.062256 0.997803
vn -0.201660 -0.148926 0.967773
vn -0.323975 0.038086 0.945068
vn -0.201660 -0.148926 0.967773
vn -0.000244 -0.857178 0.514404
vn -0.323975 0.038086 0.945068
vn -0.029297 0.021240 0.999268
vn -0.021484 0.062256 0.997803
vn -0.196777 0.198486 0.959961
vn -0.021484 0.062256 0.997803
vn -0.323975 0.038086 0.945068
vn -0.196777 0.198486 0.959961
vn -0.323975 0.038086 0.945068
vn -0.000244 -0.857178 0.514404
vn -0.196777 0.198486 0.959961
vn -0.018555 -0.034668 0.999023
vn -0.014893 -0.008301 0.999756
vn 0.000000 0.215820 0.976318
vn -0.014893 -0.008301 0.999756
vn -0.196777 0.198486 0.959961
vn 0.000000 0.215820 0.976318
vn -0.196777 0.198486 0.959961
vn -0.000244 -0.857178 0.514404
vn 0.000000 0.215820 0.976318
vn 0.018555 -0.034668 0.999023
vn 0.000000 0.215820 0.976318
vn 0.014893 -0.008301 0.999756
vn 0.014893 -0.008301 0.999756
vn 0.000000 0.215820 0.976318
vn 0.196777 0.198486 0.959961
vn 0.000000 0.215820 0.976318
vn -0.000244 -0.857178 0.514404
vn 0.196777 0.198486 0.959961
vn 0.029297 0.021240 0.999268
vn 0.196777 0.198486 0.959961
vn 0.021484 0.062256 0.997803
vn 0.021484 0.062256 0.997803
vn 0.196777 0.198486 0.959961
vn 0.323975 0.038086 0.945068
vn 0.196777 0.198486 0.959961
vn -0.000244 -0.857178 0.514404
vn 0.323975 0.038086 0.945068
vn 0.002197 0.067871 0.997559
vn 0.021484 0.062256 0.997803
vn 0.201660 -0.148926 0.967773
vn 0.021484 0.062256 0.997803
vn 0.323975 0.038086 0.945068
vn 0.201660 -0.148926 0.967773
vn 0.323975 0.038086 0.945068
vn -0.000244 -0.857178 0.514404
vn 0.201660 -0.148926 0.967773
vn 0.000000 -0.188232 0.981934
vn 0.000244 0.064697 0.997803
vn 0.201660 -0.148926 0.967773
vn 0.000244 0.064697 0.997803
vn -0.005371 0.062988 0.997803
vn 0.201660 -0.148926 0.967773
vn 0.201660 -0.148926 0.967773
vn -0.000244 -0.857178 0.514404
vn 0.000000 -0.188232 0.981934
vn 0.005371 0.062988 0.997803
vn -0.201660 -0.148926 0.967773
vn -0.002197 0.067871 0.997559
vn -0.029297 0.021240 0.999268
vn -0.196777 0.198486 0.959961
vn -0.014893 -0.008301 0.999756
vn 0.014893 -0.008301 0.999756
vn 0.196777 0.198486 0.959961
vn 0.029297 0.021240 0.999268
vn 0.002197 0.067871 0.997559
vn 0.201660 -0.148926 0.967773
vn -0.005371 0.062988 0.997803
vn -0.000244 0.064697 0.997803
vn 0.000000 0.065674 0.997803
vn 0.000000 -0.188232 0.981934
vn 0.000244 0.064697 0.997803
vn 0.000000 -0.188232 0.981934
vn 0.000000 0.065674 0.997803
vn 0.018555 -0.034668 0.999023
vn 0.000000 -0.061279 0.998047
vn 0.000000 0.215820 0.976318
vn 0.000000 -0.061279 0.998047
vn -0.018555 -0.034668 0.999023
vn 0.000000 0.215820 0.976318
vn 0.400146 0.824951 0.398926
vn 0.252441 0.967041 -0.026367
vn 0.000000 0.831055 0.555908
vn 0.000000 0.831055 0.555908
vn 0.252441 0.967041 -0.026367
vn 0.000000 0.999756 -0.014893
vn 0.611328 0.783203 0.111572
vn 0.290039 0.917480 -0.271484
vn 0.400146 0.824951 0.398926
vn 0.290039 0.917480 -0.271484
vn 0.252441 0.967041 -0.026367
vn 0.400146 0.824951 0.398926
vn 0.290039 0.917480 -0.271484
vn 0.611328 0.783203 0.111572
vn 0.514893 0.807861 -0.286133
vn 0.907959 0.406250 0.101563
vn 0.514893 0.807861 -0.286133
vn 0.611328 0.783203 0.111572
vn 0.907959 0.406250 0.101563
vn 0.956055 0.238281 -0.170410
vn 0.514893 0.807861 -0.286133
vn 0.956055 0.238281 -0.170410
vn 0.710449 0.560303 -0.425293
vn 0.514893 0.807861 -0.286133
vn 0.956055 0.238281 -0.170410
vn 0.862061 0.113525 -0.493408
vn 0.710449 0.560303 -0.425293
vn 0.862061 0.113525 -0.493408
vn 0.585205 0.494873 -0.642090
vn 0.710449 0.560303 -0.425293
vn 0.489990 0.294922 -0.820068
vn 0.585205 0.494873 -0.642090
vn 0.648682 -0.041992 -0.759766
vn 0.648682 -0.041992 -0.759766
vn 0.585205 0.494873 -0.642090
vn 0.862061 0.113525 -0.493408
vn 0.648682 -0.041992 -0.759766
vn 0.338623 -0.110107 -0.934326
vn 0.489990 0.294922 -0.820068
vn 0.338623 -0.110107 -0.934326
vn 0.213867 0.335693 -0.917236
vn 0.489990 0.294922 -0.820068
vn 0.338623 -0.110107 -0.934326
vn 0.000000 -0.072998 -0.997314
vn 0.213867 0.335693 -0.917236
vn 0.000000 -0.072998 -0.997314
vn 0.000000 0.317383 -0.947998
vn 0.213867 0.335693 -0.917236
vn -0.338623 -0.110107 -0.934326
vn -0.214111 0.335205 -0.917236
vn 0.000000 -0.072998 -0.997314
vn -0.214111 0.335205 -0.917236
vn 0.000000 0.317383 -0.947998
vn 0.000000 -0.072998 -0.997314
vn -0.648682 -0.041992 -0.759766
vn -0.490479 0.294189 -0.820068
vn -0.338623 -0.110107 -0.934326
vn -0.490479 0.294189 -0.820068
vn -0.214111 0.335205 -0.917236
vn -0.338623 -0.110107 -0.934326
vn -0.490479 0.294189 -0.820068
vn -0.648682 -0.041992 -0.759766
vn -0.583252 0.499268 -0.640381
vn -0.862061 0.113525 -0.493408
vn -0.583252 0.499268 -0.640381
vn -0.648682 -0.041992 -0.759766
vn -0.956055 0.238281 -0.170410
vn -0.704346 0.565186 -0.428955
vn -0.862061 0.113525 -0.493408
vn -0.704346 0.565186 -0.428955
vn -0.583252 0.499268 -0.640381
vn -0.862061 0.113525 -0.493408
vn -0.907959 0.406250 0.101563
vn -0.512695 0.807861 -0.290039
vn -0.956055 0.238281 -0.170410
vn -0.512695 0.807861 -0.290039
vn -0.704346 0.565186 -0.428955
vn -0.956055 0.238281 -0.170410
vn -0.290771 0.917480 -0.270508
vn -0.512695 0.807861 -0.290039
vn -0.611328 0.783203 0.111572
vn -0.611328 0.783203 0.111572
vn -0.512695 0.807861 -0.290039
vn -0.907959 0.406250 0.101563
vn -0.611328 0.783203 0.111572
vn -0.400146 0.824951 0.398926
vn -0.290771 0.917480 -0.270508
vn -0.400146 0.824951 0.398926
vn -0.252686 0.967041 -0.025635
vn -0.290771 0.917480 -0.270508
vn -0.400146 0.824951 0.398926
vn 0.000000 0.831055 0.555908
vn -0.252686 0.967041 -0.025635
vn 0.000000 0.831055 0.555908
vn 0.000000 0.999756 -0.014893
vn -0.252686 0.967041 -0.025635
vn 0.000000 0.973633 -0.227539
vn 0.252441 0.967041 -0.026367
vn 0.317383 0.914795 -0.249268
vn 0.290039 0.917480 -0.271484
vn 0.317383 0.914795 -0.249268
vn 0.252441 0.967041 -0.026367
vn 0.317383 0.914795 -0.249268
vn 0.514893 0.807861 -0.286133
vn 0.391357 0.760742 -0.517578
vn 0.710449 0.560303 -0.425293
vn 0.391357 0.760742 -0.517578
vn 0.514893 0.807861 -0.286133
vn 0.281982 0.633057 -0.720703
vn 0.391357 0.760742 -0.517578
vn 0.585205 0.494873 -0.642090
vn 0.585205 0.494873 -0.642090
vn 0.391357 0.760742 -0.517578
vn 0.710449 0.560303 -0.425293
vn 0.000000 0.597900 -0.801514
vn 0.281982 0.633057 -0.720703
vn 0.213867 0.335693 -0.917236
vn 0.213867 0.335693 -0.917236
vn 0.281982 0.633057 -0.720703
vn 0.489990 0.294922 -0.820068
vn 0.000000 0.597900 -0.801514
vn -0.214111 0.335205 -0.917236
vn -0.283447 0.636230 -0.717285
vn -0.490479 0.294189 -0.820068
vn -0.283447 0.636230 -0.717285
vn -0.214111 0.335205 -0.917236
vn -0.283447 0.636230 -0.717285
vn -0.583252 0.499268 -0.640381
vn -0.381592 0.764404 -0.519531
vn -0.704346 0.565186 -0.428955
vn -0.381592 0.764404 -0.519531
vn -0.583252 0.499268 -0.640381
vn -0.318848 0.913330 -0.252930
vn -0.381592 0.764404 -0.519531
vn -0.512695 0.807861 -0.290039
vn -0.512695 0.807861 -0.290039
vn -0.381592 0.764404 -0.519531
vn -0.704346 0.565186 -0.428955
vn 0.000000 0.973633 -0.227539
vn -0.318848 0.913330 -0.252930
vn -0.252686 0.967041 -0.025635
vn -0.252686 0.967041 -0.025635
vn -0.318848 0.913330 -0.252930
vn -0.290771 0.917480 -0.270508
vn 0.514893 0.807861 -0.286133
vn 0.317383 0.914795 -0.249268
vn 0.290039 0.917480 -0.271484
vn 0.489990 0.294922 -0.820068
vn 0.281982 0.633057 -0.720703
vn 0.585205 0.494873 -0.642090
vn -0.583252 0.499268 -0.640381
vn -0.283447 0.636230 -0.717285
vn -0.490479 0.294189 -0.820068
vn -0.290771 0.917480 -0.270508
vn -0.318848 0.913330 -0.252930
vn -0.512695 0.807861 -0.290039
vn 0.000000 0.973633 -0.227539
vn 0.000000 0.999756 -0.014893
vn 0.252441 0.967041 -0.026367
vn 0.000000 0.999756 -0.014893
vn 0.000000 0.973633 -0.227539
vn -0.252686 0.967041 -0.025635
vn 0.000000 0.597900 -0.801514
vn 0.000000 0.317383 -0.947998
vn -0.214111 0.335205 -0.917236
vn 0.000000 0.597900 -0.801514
vn 0.213867 0.335693 -0.917236
vn 0.000000 0.317383 -0.947998
vn 0.722412 0.579590 0.376709
vn 0.524902 0.843506 0.112305
vn -0.049316 0.816162 0.575439
vn 0.524902 0.843506 0.112305
vn 0.000000 0.976318 0.215088
vn -0.049316 0.816162 0.575439
vn 0.974609 0.194824 -0.108643
vn 0.872803 0.421631 -0.245361
vn 0.722412 0.579590 0.376709
vn 0.872803 0.421631 -0.245361
vn 0.524902 0.843506 0.112305
vn 0.722412 0.579590 0.376709
vn 0.974609 0.194824 -0.108643
vn 0.743408 -0.166504 -0.647461
vn 0.872803 0.421631 -0.245361
vn 0.743408 -0.166504 -0.647461
vn 0.524658 0.257568 -0.811279
vn 0.872803 0.421631 -0.245361
vn 0.008301 -0.358154 -0.933594
vn 0.072998 -0.060791 -0.995361
vn 0.743408 -0.166504 -0.647461
vn 0.072998 -0.060791 -0.995361
vn 0.524658 0.257568 -0.811279
vn 0.743408 -0.166504 -0.647461
vn -0.756836 -0.193848 -0.623779
vn -0.504639 0.180908 -0.843994
vn 0.008301 -0.358154 -0.933594
vn -0.504639 0.180908 -0.843994
vn 0.072998 -0.060791 -0.995361
vn 0.008301 -0.358154 -0.933594
vn -0.986084 0.146240 -0.077148
vn -0.872803 0.421631 -0.245605
vn -0.756836 -0.193848 -0.623779
vn -0.872803 0.421631 -0.245605
vn -0.504639 0.180908 -0.843994
vn -0.756836 -0.193848 -0.623779
vn -0.986084 0.146240 -0.077148
vn -0.783691 0.536865 0.312012
vn -0.872803 0.421631 -0.245605
vn -0.783691 0.536865 0.312012
vn -0.524658 0.843506 0.112305
vn -0.872803 0.421631 -0.245605
vn -0.783691 0.536865 0.312012
vn -0.049316 0.816162 0.575439
vn -0.524658 0.843506 0.112305
vn -0.049316 0.816162 0.575439
vn 0.000000 0.976318 0.215088
vn -0.524658 0.843506 0.112305
vn 0.524902 0.843506 0.112305
vn 0.276611 0.942139 -0.188965
vn 0.000000 0.976318 0.215088
vn 0.276611 0.942139 -0.188965
vn 0.000000 0.987793 -0.154785
vn 0.000000 0.976318 0.215088
vn 0.276611 0.942139 -0.188965
vn 0.000000 0.831299 -0.555664
vn 0.000000 0.987793 -0.154785
vn 0.872803 0.421631 -0.245361
vn 0.461670 0.746338 -0.479004
vn 0.524902 0.843506 0.112305
vn 0.461670 0.746338 -0.479004
vn 0.276611 0.942139 -0.188965
vn 0.524902 0.843506 0.112305
vn 0.461670 0.746338 -0.479004
vn 0.000000 0.831299 -0.555664
vn 0.276611 0.942139 -0.188965
vn 0.872803 0.421631 -0.245361
vn 0.524658 0.257568 -0.811279
vn 0.461670 0.746338 -0.479004
vn 0.524658 0.257568 -0.811279
vn 0.260742 0.615723 -0.743408
vn 0.461670 0.746338 -0.479004
vn 0.260742 0.615723 -0.743408
vn 0.000000 0.831299 -0.555664
vn 0.461670 0.746338 -0.479004
vn 0.072998 -0.060791 -0.995361
vn 0.000000 0.462158 -0.886719
vn 0.524658 0.257568 -0.811279
vn 0.000000 0.462158 -0.886719
vn 0.260742 0.615723 -0.743408
vn 0.524658 0.257568 -0.811279
vn 0.000000 0.462158 -0.886719
vn 0.000000 0.831299 -0.555664
vn 0.260742 0.615723 -0.743408
vn 0.072998 -0.060791 -0.995361
vn -0.504639 0.180908 -0.843994
vn 0.000000 0.462158 -0.886719
vn -0.504639 0.180908 -0.843994
vn -0.260742 0.615723 -0.743408
vn 0.000000 0.462158 -0.886719
vn -0.260742 0.615723 -0.743408
vn 0.000000 0.831299 -0.555664
vn 0.000000 0.462158 -0.886719
vn -0.872803 0.421631 -0.245605
vn -0.461670 0.746338 -0.479004
vn -0.504639 0.180908 -0.843994
vn -0.461670 0.746338 -0.479004
vn -0.260742 0.615723 -0.743408
vn -0.504639 0.180908 -0.843994
vn -0.461670 0.746338 -0.479004
vn 0.000000 0.831299 -0.555664
vn -0.260742 0.615723 -0.743408
vn -0.872803 0.421631 -0.245605
vn -0.524658 0.843506 0.112305
vn -0.461670 0.746338 -0.479004
vn -0.524658 0.843506 0.112305
vn -0.276611 0.942139 -0.188965
vn -0.461670 0.746338 -0.479004
vn -0.276611 0.942139 -0.188965
vn 0.000000 0.831299 -0.555664
vn -0.461670 0.746338 -0.479004
vn -0.524658 0.843506 0.112305
vn 0.000000 0.976318 0.215088
vn -0.276611 0.942139 -0.188965
vn 0.000000 0.976318 0.215088
vn 0.000000 0.987793 -0.154785
vn -0.276611 0.942139 -0.188965
vn 0.000000 0.987793 -0.154785
vn 0.000000 0.831299 -0.555664
vn -0.276611 0.942139 -0.188965
vn 0.688721 0.559570 0.460693
vn 0.722412 0.579590 0.376709
vn 0.123779 0.681641 0.720703
vn 0.722412 0.579590 0.376709
vn -0.049316 0.816162 0.575439
vn 0.123779 0.681641 0.720703
vn 0.688721 0.559570 0.460693
vn 0.987549 0.136963 -0.076416
vn 0.722412 0.579590 0.376709
vn 0.987549 0.136963 -0.076416
vn 0.974609 0.194824 -0.108643
vn 0.722412 0.579590 0.376709
vn 0.593018 -0.309814 -0.742920
vn 0.743408 -0.166504 -0.647461
vn 0.987549 0.136963 -0.076416
vn 0.743408 -0.166504 -0.647461
vn 0.974609 0.194824 -0.108643
vn 0.987549 0.136963 -0.076416
vn -0.120850 -0.412109 -0.902832
vn 0.008301 -0.358154 -0.933594
vn 0.593018 -0.309814 -0.742920
vn 0.008301 -0.358154 -0.933594
vn 0.743408 -0.166504 -0.647461
vn 0.593018 -0.309814 -0.742920
vn -0.728516 -0.241943 -0.640625
vn -0.756836 -0.193848 -0.623779
vn -0.120850 -0.412109 -0.902832
vn -0.756836 -0.193848 -0.623779
vn 0.008301 -0.358154 -0.933594
vn -0.120850 -0.412109 -0.902832
vn -0.728516 -0.241943 -0.640625
vn -0.994873 0.088135 -0.044434
vn -0.756836 -0.193848 -0.623779
vn -0.994873 0.088135 -0.044434
vn -0.986084 0.146240 -0.077148
vn -0.756836 -0.193848 -0.623779
vn -0.594238 0.591797 0.544189
vn -0.783691 0.536865 0.312012
vn -0.994873 0.088135 -0.044434
vn -0.783691 0.536865 0.312012
vn -0.986084 0.146240 -0.077148
vn -0.994873 0.088135 -0.044434
vn 0.123779 0.681641 0.720703
vn -0.049316 0.816162 0.575439
vn -0.594238 0.591797 0.544189
vn -0.049316 0.816162 0.575439
vn -0.783691 0.536865 0.312012
vn -0.594238 0.591797 0.544189
vn 0.611328 0.783203 0.111572
vn 0.400146 0.824951 0.398926
vn 0.005371 0.062988 0.997803
vn 0.005371 0.062988 0.997803
vn 0.400146 0.824951 0.398926
vn -0.000244 0.064697 0.997803
vn 0.005371 0.062988 0.997803
vn -0.002197 0.067871 0.997559
vn 0.611328 0.783203 0.111572
vn -0.002197 0.067871 0.997559
vn 0.907959 0.406250 0.101563
vn 0.611328 0.783203 0.111572
vn -0.002197 0.067871 0.997559
vn -0.021484 0.062256 0.997803
vn 0.907959 0.406250 0.101563
vn -0.021484 0.062256 0.997803
vn 0.956055 0.238281 -0.170410
vn 0.907959 0.406250 0.101563
vn -0.021484 0.062256 0.997803
vn -0.029297 0.021240 0.999268
vn 0.956055 0.238281 -0.170410
vn -0.029297 0.021240 0.999268
vn 0.862061 0.113525 -0.493408
vn 0.956055 0.238281 -0.170410
vn 0.648682 -0.041992 -0.759766
vn 0.862061 0.113525 -0.493408
vn -0.014893 -0.008301 0.999756
vn -0.014893 -0.008301 0.999756
vn 0.862061 0.113525 -0.493408
vn -0.029297 0.021240 0.999268
vn -0.014893 -0.008301 0.999756
vn -0.018555 -0.034668 0.999023
vn 0.648682 -0.041992 -0.759766
vn -0.018555 -0.034668 0.999023
vn 0.338623 -0.110107 -0.934326
vn 0.648682 -0.041992 -0.759766
vn 0.000000 -0.072998 -0.997314
vn 0.338623 -0.110107 -0.934326
vn 0.000000 -0.061279 0.998047
vn 0.000000 -0.061279 0.998047
vn 0.338623 -0.110107 -0.934326
vn -0.018555 -0.034668 0.999023
vn 0.018555 -0.034668 0.999023
vn -0.338623 -0.110107 -0.934326
vn 0.000000 -0.061279 0.998047
vn -0.338623 -0.110107 -0.934326
vn 0.000000 -0.072998 -0.997314
vn 0.000000 -0.061279 0.998047
vn 0.014893 -0.008301 0.999756
vn -0.648682 -0.041992 -0.759766
vn 0.018555 -0.034668 0.999023
vn -0.648682 -0.041992 -0.759766
vn -0.338623 -0.110107 -0.934326
vn 0.018555 -0.034668 0.999023
vn 0.029297 0.021240 0.999268
vn -0.862061 0.113525 -0.493408
vn 0.014893 -0.008301 0.999756
vn -0.862061 0.113525 -0.493408
vn -0.648682 -0.041992 -0.759766
vn 0.014893 -0.008301 0.999756
vn 0.021484 0.062256 0.997803
vn -0.956055 0.238281 -0.170410
vn 0.029297 0.021240 0.999268
vn -0.956055 0.238281 -0.170410
vn -0.862061 0.113525 -0.493408
vn 0.029297 0.021240 0.999268
vn 0.002197 0.067871 0.997559
vn -0.907959 0.406250 0.101563
vn 0.021484 0.062256 0.997803
vn -0.907959 0.406250 0.101563
vn -0.956055 0.238281 -0.170410
vn 0.021484 0.062256 0.997803
vn -0.005371 0.062988 0.997803
vn -0.611328 0.783203 0.111572
vn 0.002197 0.067871 0.997559
vn -0.611328 0.783203 0.111572
vn -0.907959 0.406250 0.101563
vn 0.002197 0.067871 0.997559
vn 0.000244 0.064697 0.997803
vn -0.400146 0.824951 0.398926
vn -0.005371 0.062988 0.997803
vn -0.400146 0.824951 0.398926
vn -0.611328 0.783203 0.111572
vn -0.005371 0.062988 0.997803
vn 0.000000 0.065674 0.997803
vn 0.000000 0.831055 0.555908
vn 0.000244 0.064697 0.997803
vn 0.000000 0.831055 0.555908
vn -0.400146 0.824951 0.398926
vn 0.000244 0.064697 0.997803
vn 0.000000 0.065674 0.997803
vn -0.000244 0.064697 0.997803
vn 0.000000 0.831055 0.555908
vn -0.000244 0.064697 0.997803
vn 0.400146 0.824951 0.398926
vn 0.000000 0.831055 0.555908
usemtl Texture
f 1/1/1 2/2/2 3/3/3
f 4/4/4 5/5/5 6/6/6
f 7/7/7 8/8/8 9/9/9
f 10/10/10 11/11/11 12/12/12
f 13/13/13 14/14/14 15/15/15
f 16/16/16 17/17/17 18/18/18
f 19/19/19 20/20/20 21/21/21
f 22/22/22 23/23/23 24/24/24
f 25/25/25 26/26/26 27/27/27
f 28/28/28 29/29/29 30/30/30
f 31/31/31 32/32/32 33/33/33
f 34/34/34 35/35/35 36/36/36
f 37/37/37 38/38/38 39/39/39
f 40/40/40 41/41/41 42/42/42
f 43/43/43 44/44/44 45/45/45
f 46/46/46 47/47/47 48/48/48
f 49/49/49 50/50/50 51/51/51
f 52/52/52 53/53/53 54/54/54
f 55/55/55 56/56/56 57/57/57
f 58/58/58 59/59/59 60/60/60
f 61/61/61 62/62/62 63/63/63
f 64/64/64 65/65/65 66/66/66
f 67/67/67 68/68/68 69/69/69
f 70/70/70 71/71/71 72/72/72
f 73/73/73 74/74/74 75/75/75
f 76/76/76 77/77/77 78/78/78
f 79/79/79 80/80/80 81/81/81
f 82/82/82 83/83/83 84/84/84
f 85/85/85 86/86/86 87/87/87
f 88/88/88 89/89/89 90/90/90
f 91/91/91 92/92/92 93/93/93
f 94/94/94 95/95/95 96/96/96
f 97/97/97 98/98/98 99/99/99
f 100/100/100 101/101/101 102/102/102
f 103/103/103 104/104/104 105/105/105
f 106/106/106 107/107/107 108/108/108
f 109/109/109 110/110/110 111/111/111
f 112/112/112 113/113/113 114/114/114
f 115/115/115 116/116/116 117/117/117
f 118/118/118 119/119/119 120/120/120
f 121/121/121 122/122/122 123/123/123
f 124/124/124 125/125/125 126/126/126
f 127/127/127 128/128/128 129/129/129
f 130/130/130 131/131/131 132/132/132
f 133/133/133 134/134/134 135/135/135
f 136/136/136 137/137/137 138/138/138
f 139/139/139 140/140/140 141/141/141
f 142/142/142 143/143/143 144/144/144
f 145/145/145 146/146/146 147/147/147
f 148/148/148 149/149/149 150/150/150
f 151/151/151 152/152/152 153/153/153
f 154/154/154 155/155/155 156/156/156
f 157/157/157 158/158/158 159/159/159
f 160/160/160 161/161/161 162/162/162
f 163/163/163 164/164/164 165/165/165
f 166/166/166 167/167/167 168/168/168
f 169/169/169 170/170/170 171/171/171
f 172/172/172 173/173/173 174/174/174
f 175/175/175 176/176/176 177/177/177
f 178/178/178 179/179/179 180/180/180
f 181/181/181 182/182/182 183/183/183
f 184/184/184 185/185/185 186/186/186
f 187/187/187 188/188/188 189/189/189
f 190/190/190 191/191/191 192/192/192
f 193/193/193 194/194/194 195/195/195
f 196/196/196 197/197/197 198/198/198
f 199/199/199 200/200/200 201/201/201
f 202/202/202 203/203/203 204/204/204
f 205/205/205 206/206/206 207/207/207
f 208/208/208 209/209/209 210/210/210
f 211/211/211 212/212/212 213/213/213
f 214/214/214 215/215/215 216/216/216
f 217/217/217 218/218/218 219/219/219
f 220/220/220 221/221/221 222/222/222
f 223/223/223 224/224/224 225/225/225
f 226/226/226 227/227/227 228/228/228
f 229/229/229 230/230/230 231/231/231
f 232/232/232 233/233/233 234/234/234
f 235/235/235 236/236/236 237/237/237
f 238/238/238 239/239/239 240/240/240
f 241/241/241 242/242/242 243/243/243
f 244/244/244 245/245/245 246/246/246
f 247/247/247 248/248/248 249/249/249
f 250/250/250 251/251/251 252/252/252
f 253/253/253 254/254/254 255/255/255
f 256/256/256 257/257/257 258/258/258
f 259/259/259 260/260/260 261/261/261
f 262/262/262 263/263/263 264/264/264
f 265/265/265 266/266/266 267/267/267
f 268/268/268 269/269/269 270/270/270
f 271/271/271 272/272/272 273/273/273
f 274/274/274 275/275/275 276/276/276
f 277/277/277 278/278/278 279/279/279
f 280/280/280 281/281/281 282/282/282
f 283/283/283 284/284/284 285/285/285
f 286/286/286 287/287/287 288/288/288
f 289/289/289 290/290/290 291/291/291
f 292/292/292 293/293/293 294/294/294
f 295/295/295 296/296/296 297/297/297
f 298/298/298 299/299/299 300/300/300
f 301/301/301 302/302/302 303/303/303
f 304/304/304 305/305/305 306/306/306
f 307/307/307 308/308/308 309/309/309
f 310/310/310 311/311/311 312/312/312
f 313/313/313 314/314/314 315/315/315
f 316/316/316 317/317/317 318/318/318
f 319/319/319 320/320/320 321/321/321
f 322/322/322 323/323/323 324/324/324
f 325/325/325 326/326/326 327/327/327
f 328/328/328 329/329/329 330/330/330
f 331/331/331 332/332/332 333/333/333
f 334/334/334 335/335/335 336/336/336
f 337/337/337 338/338/338 339/339/339
f 340/340/340 341/341/341 342/342/342
f 343/343/343 344/344/344 345/345/345
f 346/346/346 347/347/347 348/348/348
f 349/349/349 350/350/350 351/351/351
f 352/352/352 353/353/353 354/354/354
f 355/355/355 356/356/356 357/357/357
f 358/358/358 359/359/359 360/360/360
f 361/361/361 362/362/362 363/363/363
f 364/364/364 365/365/365 366/366/366
f 367/367/367 368/368/368 369/369/369
f 370/370/370 371/371/371 372/372/372
f 373/373/373 374/374/374 375/375/375
f 376/376/376 377/377/377 378/378/378
f 379/379/379 380/380/380 381/381/381
f 382/382/382 383/383/383 384/384/384
f 385/385/385 386/386/386 387/387/387
f 388/388/388 389/389/389 390/390/390
f 391/391/391 392/392/392 393/393/393
f 394/394/394 395/395/395 396/396/396
f 397/397/397 398/398/398 399/399/399
f 400/400/400 401/401/401 402/402/402
f 403/403/403 404/404/404 405/405/405
f 406/406/406 407/407/407 408/408/408
f 409/409/409 410/410/410 411/411/411
f 412/412/412 413/413/413 414/414/414
f 415/415/415 416/416/416 417/417/417
f 418/418/418 419/419/419 420/420/420
f 421/421/421 422/422/422 423/423/423
f 424/424/424 425/425/425 426/426/426
f 427/427/427 428/428/428 429/429/429
f 430/430/430 431/431/431 432/432/432
f 433/433/433 434/434/434 435/435/435
f 436/436/436 437/437/437 438/438/438
f 439/439/439 440/440/440 441/441/441
f 442/442/442 443/443/443 444/444/444
f 445/445/445 446/446/446 447/447/447
f 448/448/448 449/449/449 450/450/450
f 451/451/451 452/452/452 453/453/453
f 454/454/454 455/455/455 456/456/456
f 457/457/457 458/458/458 459/459/459
f 460/460/460 461/461/461 462/462/462
f 463/463/463 464/464/464 465/465/465
f 466/466/466 467/467/467 468/468/468
f 469/469/469 470/470/470 471/471/471
f 472/472/472 473/473/473 474/474/474
f 475/475/475 476/476/476 477/477/477
f 478/478/478 479/479/479 480/480/480
f 481/481/481 482/482/482 483/483/483
f 484/484/484 485/485/485 486/486/486
f 487/487/487 488/488/488 489/489/489
f 490/490/490 491/491/491 492/492/492
f 493/493/493 494/494/494 495/495/495
f 496/496/496 497/497/497 498/498/498
f 499/499/499 500/500/500 501/501/501
f 502/502/502 503/503/503 504/504/504
f 505/505/505 506/506/506 507/507/507
f 508/508/508 509/509/509 510/510/510
f 511/511/511 512/512/512 513/513/513
f 514/514/514 515/515/515 516/516/516
f 517/517/517 518/518/518 519/519/519
f 520/520/520 521/521/521 522/522/522
f 523/523/523 524/524/524 525/525/525
f 526/526/526 527/527/527 528/528/528