# OBJ file
mtllib omegaico.ico.mtl
v 0.000000 0.420898 -1.120605 1.000000 1.000000 1.000000 #0.000000
v 0.000000 0.517578 -1.182617 1.000000 1.000000 1.000000 #0.000000
v 0.170410 0.426025 -1.145752 1.000000 1.000000 1.000000 #0.000000
v -0.170410 0.426025 -1.145752 1.000000 1.000000 1.000000 #0.000000
v 0.000000 0.517578 -1.182617 1.000000 1.000000 1.000000 #0.000000
v 0.000000 0.420898 -1.120605 1.000000 1.000000 1.000000 #0.000000
v 0.000000 0.517578 -1.182617 1.000000 1.000000 1.000000 #0.000000
v 0.000000 0.738281 -1.210205 1.000000 1.000000 1.000000 #0.000000
v 0.277100 0.724365 -1.051514 1.000000 1.000000 1.000000 #0.000000
v -0.277100 0.724365 -1.051514 1.000000 1.000000 1.000000 #0.000000
v 0.000000 0.738281 -1.210205 1.000000 1.000000 1.000000 #0.000000
v 0.000000 0.517578 -1.182617 1.000000 1.000000 1.000000 #0.000000
v 0.000000 0.517578 -1.182617 1.000000 1.000000 1.000000 #0.000000
v 0.277100 0.724365 -1.051514 1.000000 1.000000 1.000000 #0.000000
v 0.170410 0.426025 -1.145752 1.000000 1.000000 1.000000 #0.000000
v -0.170410 0.426025 -1.145752 1.000000 1.000000 1.000000 #0.000000
v -0.277100 0.724365 -1.051514 1.000000 1.000000 1.000000 #0.000000
v 0.000000 0.517578 -1.182617 1.000000 1.000000 1.000000 #0.000000
v 0.000000 0.738281 -1.210205 1.000000 1.000000 1.000000 #0.000000
v 0.000000 1.027832 -1.299805 1.000000 1.000000 1.000000 #0.000000
v 0.277100 0.724365 -1.051514 1.000000 1.000000 1.000000 #0.000000
v -0.277100 0.724365 -1.051514 1.000000 1.000000 1.000000 #0.000000
v 0.000000 1.027832 -1.299805 1.000000 1.000000 1.000000 #0.000000
v 0.000000 0.738281 -1.210205 1.000000 1.000000 1.000000 #0.000000
v 0.473633 1.158936 -0.886475 1.000000 1.000000 1.000000 #0.000000
v 0.277100 0.724365 -1.051514 1.000000 1.000000 1.000000 #0.000000
v 0.000000 1.027832 -1.299805 1.000000 1.000000 1.000000 #0.000000
v 0.000000 1.027832 -1.299805 1.000000 1.000000 1.000000 #0.000000
v -0.277100 0.724365 -1.051514 1.000000 1.000000 1.000000 #0.000000
v -0.473633 1.158936 -0.886475 1.000000 1.000000 1.000000 #0.000000
v 0.000000 1.420898 -1.320557 1.000000 1.000000 1.000000 #0.000000
v 0.000000 1.896729 -1.155029 1.000000 1.000000 1.000000 #0.000000
v 0.098633 1.844971 -1.103027 1.000000 1.000000 1.000000 #0.000000
v -0.098633 1.844971 -1.103027 1.000000 1.000000 1.000000 #0.000000
v 0.000000 1.896729 -1.155029 1.000000 1.000000 1.000000 #0.000000
v 0.000000 1.420898 -1.320557 1.000000 1.000000 1.000000 #0.000000
v 0.098633 1.844971 -1.103027 1.000000 1.000000 1.000000 #0.000000
v 0.313721 1.710938 -1.066406 1.000000 1.000000 1.000000 #0.000000
v 0.000000 1.420898 -1.320557 1.000000 1.000000 1.000000 #0.000000
v 0.000000 1.420898 -1.320557 1.000000 1.000000 1.000000 #0.000000
v 0.313721 1.710938 -1.066406 1.000000 1.000000 1.000000 #0.000000
v 0.341553 1.441650 -1.072266 1.000000 1.000000 1.000000 #0.000000
v 0.000000 1.420898 -1.320557 1.000000 1.000000 1.000000 #0.000000
v -0.313721 1.710938 -1.066406 1.000000 1.000000 1.000000 #0.000000
v -0.098633 1.844971 -1.103027 1.000000 1.000000 1.000000 #0.000000
v -0.341553 1.441650 -1.072266 1.000000 1.000000 1.000000 #0.000000
v -0.313721 1.710938 -1.066406 1.000000 1.000000 1.000000 #0.000000
v 0.000000 1.420898 -1.320557 1.000000 1.000000 1.000000 #0.000000
v 0.000000 2.076172 -1.223877 1.000000 1.000000 1.000000 #0.000000
v 0.000000 2.837646 -1.112549 1.000000 1.000000 1.000000 #0.000000
v 0.150391 2.336182 -1.210938 1.000000 1.000000 1.000000 #0.000000
v -0.150391 2.336182 -1.210938 1.000000 1.000000 1.000000 #0.000000
v 0.000000 2.837646 -1.112549 1.000000 1.000000 1.000000 #0.000000
v 0.000000 2.076172 -1.223877 1.000000 1.000000 1.000000 #0.000000
v 0.000000 2.076172 -1.223877 1.000000 1.000000 1.000000 #0.000000
v 0.150391 2.336182 -1.210938 1.000000 1.000000 1.000000 #0.000000
v 0.132080 2.054443 -1.192627 1.000000 1.000000 1.000000 #0.000000
v -0.132080 2.054443 -1.192627 1.000000 1.000000 1.000000 #0.000000
v -0.150391 2.336182 -1.210938 1.000000 1.000000 1.000000 #0.000000
v 0.000000 2.076172 -1.223877 1.000000 1.000000 1.000000 #0.000000
v -0.493408 2.409668 -1.089355 1.000000 1.000000 1.000000 #0.000000
v -0.601074 2.709717 -0.846680 1.000000 1.000000 1.000000 #0.000000
v 0.000000 2.837646 -1.112549 1.000000 1.000000 1.000000 #0.000000
v 0.000000 2.837646 -1.112549 1.000000 1.000000 1.000000 #0.000000
v -0.150391 2.336182 -1.210938 1.000000 1.000000 1.000000 #0.000000
v -0.493408 2.409668 -1.089355 1.000000 1.000000 1.000000 #0.000000
v 0.000000 3.117432 -0.830811 1.000000 1.000000 1.000000 #0.000000
v 0.000000 3.338135 -0.189453 1.000000 1.000000 1.000000 #0.000000
v 0.592773 3.240479 0.158447 1.000000 1.000000 1.000000 #0.000000
v -0.592773 3.240479 0.158447 1.000000 1.000000 1.000000 #0.000000
v 0.000000 3.338135 -0.189453 1.000000 1.000000 1.000000 #0.000000
v 0.000000 3.117432 -0.830811 1.000000 1.000000 1.000000 #0.000000
v 0.000000 3.117432 -0.830811 1.000000 1.000000 1.000000 #0.000000
v 0.592773 3.240479 0.158447 1.000000 1.000000 1.000000 #0.000000
v 0.541016 3.001709 -0.651611 1.000000 1.000000 1.000000 #0.000000
v -0.541016 3.001709 -0.651611 1.000000 1.000000 1.000000 #0.000000
v -0.592773 3.240479 0.158447 1.000000 1.000000 1.000000 #0.000000
v 0.000000 3.117432 -0.830811 1.000000 1.000000 1.000000 #0.000000
v 0.000000 3.338135 -0.189453 1.000000 1.000000 1.000000 #0.000000
v 0.000000 3.234619 0.492920 1.000000 1.000000 1.000000 #0.000000
v 0.592773 3.240479 0.158447 1.000000 1.000000 1.000000 #0.000000
v -0.592773 3.240479 0.158447 1.000000 1.000000 1.000000 #0.000000
v 0.000000 3.234619 0.492920 1.000000 1.000000 1.000000 #0.000000
v 0.000000 3.338135 -0.189453 1.000000 1.000000 1.000000 #0.000000
v 0.000000 3.234619 0.492920 1.000000 1.000000 1.000000 #0.000000
v 0.000000 2.938232 0.927490 1.000000 1.000000 1.000000 #0.000000
v 0.527100 2.937744 0.758545 1.000000 1.000000 1.000000 #0.000000
v -0.527100 2.937744 0.758545 1.000000 1.000000 1.000000 #0.000000
v 0.000000 2.938232 0.927490 1.000000 1.000000 1.000000 #0.000000
v 0.000000 3.234619 0.492920 1.000000 1.000000 1.000000 #0.000000
v 0.527100 2.937744 0.758545 1.000000 1.000000 1.000000 #0.000000
v 0.592773 3.240479 0.158447 1.000000 1.000000 1.000000 #0.000000
v 0.000000 3.234619 0.492920 1.000000 1.000000 1.000000 #0.000000
v 0.000000 3.234619 0.492920 1.000000 1.000000 1.000000 #0.000000
v -0.592773 3.240479 0.158447 1.000000 1.000000 1.000000 #0.000000
v -0.527100 2.937744 0.758545 1.000000 1.000000 1.000000 #0.000000
v 0.000000 2.938232 0.927490 1.000000 1.000000 1.000000 #0.000000
v 0.000000 2.545166 1.279297 1.000000 1.000000 1.000000 #0.000000
v 0.518799 2.325195 1.135986 1.000000 1.000000 1.000000 #0.000000
v -0.518799 2.325195 1.135986 1.000000 1.000000 1.000000 #0.000000
v 0.000000 2.545166 1.279297 1.000000 1.000000 1.000000 #0.000000
v 0.000000 2.938232 0.927490 1.000000 1.000000 1.000000 #0.000000
v 0.000000 2.938232 0.927490 1.000000 1.000000 1.000000 #0.000000
v 0.518799 2.325195 1.135986 1.000000 1.000000 1.000000 #0.000000
v 0.527100 2.937744 0.758545 1.000000 1.000000 1.000000 #0.000000
v 0.000000 2.938232 0.927490 1.000000 1.000000 1.000000 #0.000000
v -0.527100 2.937744 0.758545 1.000000 1.000000 1.000000 #0.000000
v -0.518799 2.325195 1.135986 1.000000 1.000000 1.000000 #0.000000
v 0.000000 2.545166 1.279297 1.000000 1.000000 1.000000 #0.000000
v 0.000000 1.676025 1.320557 1.000000 1.000000 1.000000 #0.000000
v 0.518799 2.325195 1.135986 1.000000 1.000000 1.000000 #0.000000
v -0.518799 2.325195 1.135986 1.000000 1.000000 1.000000 #0.000000
v 0.000000 1.676025 1.320557 1.000000 1.000000 1.000000 #0.000000
v 0.000000 2.545166 1.279297 1.000000 1.000000 1.000000 #0.000000
v 0.000000 1.676025 1.320557 1.000000 1.000000 1.000000 #0.000000
v 0.000000 1.007080 1.033203 1.000000 1.000000 1.000000 #0.000000
v 0.250000 1.470947 1.212158 1.000000 1.000000 1.000000 #0.000000
v -0.250000 1.470947 1.212158 1.000000 1.000000 1.000000 #0.000000
v 0.000000 1.007080 1.033203 1.000000 1.000000 1.000000 #0.000000
v 0.000000 1.676025 1.320557 1.000000 1.000000 1.000000 #0.000000
v 0.000000 1.676025 1.320557 1.000000 1.000000 1.000000 #0.000000
v 0.250000 1.470947 1.212158 1.000000 1.000000 1.000000 #0.000000
v 0.518799 1.836182 1.175049 1.000000 1.000000 1.000000 #0.000000
v -0.518799 1.836182 1.175049 1.000000 1.000000 1.000000 #0.000000
v -0.250000 1.470947 1.212158 1.000000 1.000000 1.000000 #0.000000
v 0.000000 1.676025 1.320557 1.000000 1.000000 1.000000 #0.000000
v 0.000000 1.676025 1.320557 1.000000 1.000000 1.000000 #0.000000
v 0.518799 1.836182 1.175049 1.000000 1.000000 1.000000 #0.000000
v 0.518799 2.325195 1.135986 1.000000 1.000000 1.000000 #0.000000
v -0.518799 2.325195 1.135986 1.000000 1.000000 1.000000 #0.000000
v -0.518799 1.836182 1.175049 1.000000 1.000000 1.000000 #0.000000
v 0.000000 1.676025 1.320557 1.000000 1.000000 1.000000 #0.000000
v 0.293701 1.045166 1.074707 1.000000 1.000000 1.000000 #0.000000
v 0.250000 1.470947 1.212158 1.000000 1.000000 1.000000 #0.000000
v 0.000000 1.007080 1.033203 1.000000 1.000000 1.000000 #0.000000
v 0.000000 1.007080 1.033203 1.000000 1.000000 1.000000 #0.000000
v -0.250000 1.470947 1.212158 1.000000 1.000000 1.000000 #0.000000
v -0.293701 1.045166 1.074707 1.000000 1.000000 1.000000 #0.000000
v 0.805664 2.898438 0.135254 1.000000 1.000000 1.000000 #0.000000
v 0.541016 3.001709 -0.651611 1.000000 1.000000 1.000000 #0.000000
v 0.592773 3.240479 0.158447 1.000000 1.000000 1.000000 #0.000000
v 0.527100 2.937744 0.758545 1.000000 1.000000 1.000000 #0.000000
v 0.805664 2.898438 0.135254 1.000000 1.000000 1.000000 #0.000000
v 0.592773 3.240479 0.158447 1.000000 1.000000 1.000000 #0.000000
v 0.789795 2.415039 0.756104 1.000000 1.000000 1.000000 #0.000000
v 0.527100 2.937744 0.758545 1.000000 1.000000 1.000000 #0.000000
v 0.518799 2.325195 1.135986 1.000000 1.000000 1.000000 #0.000000
v 0.801270 1.926025 0.795166 1.000000 1.000000 1.000000 #0.000000
v 0.789795 2.415039 0.756104 1.000000 1.000000 1.000000 #0.000000
v 0.518799 2.325195 1.135986 1.000000 1.000000 1.000000 #0.000000
v 0.518799 2.325195 1.135986 1.000000 1.000000 1.000000 #0.000000
v 0.518799 1.836182 1.175049 1.000000 1.000000 1.000000 #0.000000
v 0.801270 1.926025 0.795166 1.000000 1.000000 1.000000 #0.000000
v 0.527100 2.937744 0.758545 1.000000 1.000000 1.000000 #0.000000
v 0.789795 2.415039 0.756104 1.000000 1.000000 1.000000 #0.000000
v 0.805664 2.898438 0.135254 1.000000 1.000000 1.000000 #0.000000
v 0.933594 2.189209 -0.000977 1.000000 1.000000 1.000000 #0.000000
v 0.805664 2.898438 0.135254 1.000000 1.000000 1.000000 #0.000000
v 0.789795 2.415039 0.756104 1.000000 1.000000 1.000000 #0.000000
v 0.789795 2.415039 0.756104 1.000000 1.000000 1.000000 #0.000000
v 0.801270 1.926025 0.795166 1.000000 1.000000 1.000000 #0.000000
v 0.933594 2.189209 -0.000977 1.000000 1.000000 1.000000 #0.000000
v 0.842285 2.072754 -0.596924 1.000000 1.000000 1.000000 #0.000000
v 0.735107 2.152344 -0.971924 1.000000 1.000000 1.000000 #0.000000
v 0.738281 2.336182 -0.898926 1.000000 1.000000 1.000000 #0.000000
v 0.738281 2.336182 -0.898926 1.000000 1.000000 1.000000 #0.000000
v 0.735107 2.152344 -0.971924 1.000000 1.000000 1.000000 #0.000000
v 0.493408 2.409668 -1.089355 1.000000 1.000000 1.000000 #0.000000
v 0.493408 2.409668 -1.089355 1.000000 1.000000 1.000000 #0.000000
v 0.601074 2.709717 -0.846680 1.000000 1.000000 1.000000 #0.000000
v 0.738281 2.336182 -0.898926 1.000000 1.000000 1.000000 #0.000000
v 0.738281 2.336182 -0.898926 1.000000 1.000000 1.000000 #0.000000
v 0.601074 2.709717 -0.846680 1.000000 1.000000 1.000000 #0.000000
v 0.621338 2.795410 -0.657715 1.000000 1.000000 1.000000 #0.000000
v 0.738281 2.336182 -0.898926 1.000000 1.000000 1.000000 #0.000000
v 0.621338 2.795410 -0.657715 1.000000 1.000000 1.000000 #0.000000
v 0.842285 2.072754 -0.596924 1.000000 1.000000 1.000000 #0.000000
v 0.440674 2.056641 -1.058838 1.000000 1.000000 1.000000 #0.000000
v 0.132080 2.054443 -1.192627 1.000000 1.000000 1.000000 #0.000000
v 0.735107 2.152344 -0.971924 1.000000 1.000000 1.000000 #0.000000
v 0.842285 2.072754 -0.596924 1.000000 1.000000 1.000000 #0.000000
v 0.674316 1.979004 -0.927734 1.000000 1.000000 1.000000 #0.000000
v 0.735107 2.152344 -0.971924 1.000000 1.000000 1.000000 #0.000000
v 0.735107 2.152344 -0.971924 1.000000 1.000000 1.000000 #0.000000
v 0.674316 1.979004 -0.927734 1.000000 1.000000 1.000000 #0.000000
v 0.440674 2.056641 -1.058838 1.000000 1.000000 1.000000 #0.000000
v 0.440674 2.056641 -1.058838 1.000000 1.000000 1.000000 #0.000000
v 0.190186 1.957764 -1.026855 1.000000 1.000000 1.000000 #0.000000
v 0.132080 2.054443 -1.192627 1.000000 1.000000 1.000000 #0.000000
v 0.132080 2.054443 -1.192627 1.000000 1.000000 1.000000 #0.000000
v 0.190186 1.957764 -1.026855 1.000000 1.000000 1.000000 #0.000000
v 0.098633 1.844971 -1.103027 1.000000 1.000000 1.000000 #0.000000
v 0.541016 3.001709 -0.651611 1.000000 1.000000 1.000000 #0.000000
v 0.621338 2.795410 -0.657715 1.000000 1.000000 1.000000 #0.000000
v 0.601074 2.709717 -0.846680 1.000000 1.000000 1.000000 #0.000000
v 0.674316 1.979004 -0.927734 1.000000 1.000000 1.000000 #0.000000
v 0.356689 1.883057 -0.957520 1.000000 1.000000 1.000000 #0.000000
v 0.440674 2.056641 -1.058838 1.000000 1.000000 1.000000 #0.000000
v 0.709473 1.869629 -0.840088 1.000000 1.000000 1.000000 #0.000000
v 0.356689 1.883057 -0.957520 1.000000 1.000000 1.000000 #0.000000
v 0.674316 1.979004 -0.927734 1.000000 1.000000 1.000000 #0.000000
v 0.674316 1.979004 -0.927734 1.000000 1.000000 1.000000 #0.000000
v 0.842285 2.072754 -0.596924 1.000000 1.000000 1.000000 #0.000000
v 0.709473 1.869629 -0.840088 1.000000 1.000000 1.000000 #0.000000
v 0.190186 1.957764 -1.026855 1.000000 1.000000 1.000000 #0.000000
v 0.440674 2.056641 -1.058838 1.000000 1.000000 1.000000 #0.000000
v 0.356689 1.883057 -0.957520 1.000000 1.000000 1.000000 #0.000000
v 0.356689 1.883057 -0.957520 1.000000 1.000000 1.000000 #0.000000
v 0.313721 1.710938 -1.066406 1.000000 1.000000 1.000000 #0.000000
v 0.098633 1.844971 -1.103027 1.000000 1.000000 1.000000 #0.000000
v 0.642578 1.809814 -0.888428 1.000000 1.000000 1.000000 #0.000000
v 0.313721 1.710938 -1.066406 1.000000 1.000000 1.000000 #0.000000
v 0.356689 1.883057 -0.957520 1.000000 1.000000 1.000000 #0.000000
v 0.356689 1.883057 -0.957520 1.000000 1.000000 1.000000 #0.000000
v 0.098633 1.844971 -1.103027 1.000000 1.000000 1.000000 #0.000000
v 0.190186 1.957764 -1.026855 1.000000 1.000000 1.000000 #0.000000
v 0.356689 1.883057 -0.957520 1.000000 1.000000 1.000000 #0.000000
v 0.709473 1.869629 -0.840088 1.000000 1.000000 1.000000 #0.000000
v 0.642578 1.809814 -0.888428 1.000000 1.000000 1.000000 #0.000000
v 0.851074 1.724365 -0.554932 1.000000 1.000000 1.000000 #0.000000
v 0.709473 1.869629 -0.840088 1.000000 1.000000 1.000000 #0.000000
v 0.842285 2.072754 -0.596924 1.000000 1.000000 1.000000 #0.000000
v 0.621338 2.795410 -0.657715 1.000000 1.000000 1.000000 #0.000000
v 0.933594 2.189209 -0.000977 1.000000 1.000000 1.000000 #0.000000
v 0.842285 2.072754 -0.596924 1.000000 1.000000 1.000000 #0.000000
v 0.842285 2.072754 -0.596924 1.000000 1.000000 1.000000 #0.000000
v 0.933594 2.189209 -0.000977 1.000000 1.000000 1.000000 #0.000000
v 0.851074 1.724365 -0.554932 1.000000 1.000000 1.000000 #0.000000
v 0.851074 1.724365 -0.554932 1.000000 1.000000 1.000000 #0.000000
v 0.766113 1.614014 -0.810303 1.000000 1.000000 1.000000 #0.000000
v 0.709473 1.869629 -0.840088 1.000000 1.000000 1.000000 #0.000000
v 0.709473 1.869629 -0.840088 1.000000 1.000000 1.000000 #0.000000
v 0.766113 1.614014 -0.810303 1.000000 1.000000 1.000000 #0.000000
v 0.642578 1.809814 -0.888428 1.000000 1.000000 1.000000 #0.000000
v 0.341553 1.441650 -1.072266 1.000000 1.000000 1.000000 #0.000000
v 0.313721 1.710938 -1.066406 1.000000 1.000000 1.000000 #0.000000
v 0.766113 1.614014 -0.810303 1.000000 1.000000 1.000000 #0.000000
v 0.766113 1.614014 -0.810303 1.000000 1.000000 1.000000 #0.000000
v 0.313721 1.710938 -1.066406 1.000000 1.000000 1.000000 #0.000000
v 0.642578 1.809814 -0.888428 1.000000 1.000000 1.000000 #0.000000
v 0.766113 1.614014 -0.810303 1.000000 1.000000 1.000000 #0.000000
v 0.473633 1.158936 -0.886475 1.000000 1.000000 1.000000 #0.000000
v 0.341553 1.441650 -1.072266 1.000000 1.000000 1.000000 #0.000000
v 0.933594 2.189209 -0.000977 1.000000 1.000000 1.000000 #0.000000
v 0.857910 1.436035 0.005615 1.000000 1.000000 1.000000 #0.000000
v 0.851074 1.724365 -0.554932 1.000000 1.000000 1.000000 #0.000000
v 0.621338 2.795410 -0.657715 1.000000 1.000000 1.000000 #0.000000
v 0.805664 2.898438 0.135254 1.000000 1.000000 1.000000 #0.000000
v 0.933594 2.189209 -0.000977 1.000000 1.000000 1.000000 #0.000000
v 0.541016 3.001709 -0.651611 1.000000 1.000000 1.000000 #0.000000
v 0.805664 2.898438 0.135254 1.000000 1.000000 1.000000 #0.000000
v 0.621338 2.795410 -0.657715 1.000000 1.000000 1.000000 #0.000000
v 0.724609 0.789307 -0.208008 1.000000 1.000000 1.000000 #0.000000
v 0.464844 0.703613 -0.830811 1.000000 1.000000 1.000000 #0.000000
v 0.473633 1.158936 -0.886475 1.000000 1.000000 1.000000 #0.000000
v 0.170410 0.426025 -1.145752 1.000000 1.000000 1.000000 #0.000000
v 0.464844 0.703613 -0.830811 1.000000 1.000000 1.000000 #0.000000
v 0.724609 0.789307 -0.208008 1.000000 1.000000 1.000000 #0.000000
v 0.544922 0.674316 -0.074219 1.000000 1.000000 1.000000 #0.000000
v 0.170410 0.426025 -1.145752 1.000000 1.000000 1.000000 #0.000000
v 0.724609 0.789307 -0.208008 1.000000 1.000000 1.000000 #0.000000
v 0.724609 0.789307 -0.208008 1.000000 1.000000 1.000000 #0.000000
v 0.784180 1.056641 -0.056152 1.000000 1.000000 1.000000 #0.000000
v 0.544922 0.674316 -0.074219 1.000000 1.000000 1.000000 #0.000000
v 0.277100 0.724365 -1.051514 1.000000 1.000000 1.000000 #0.000000
v 0.473633 1.158936 -0.886475 1.000000 1.000000 1.000000 #0.000000
v 0.464844 0.703613 -0.830811 1.000000 1.000000 1.000000 #0.000000
v 0.170410 0.426025 -1.145752 1.000000 1.000000 1.000000 #0.000000
v 0.277100 0.724365 -1.051514 1.000000 1.000000 1.000000 #0.000000
v 0.464844 0.703613 -0.830811 1.000000 1.000000 1.000000 #0.000000
v 0.801270 1.926025 0.795166 1.000000 1.000000 1.000000 #0.000000
v 0.857910 1.436035 0.005615 1.000000 1.000000 1.000000 #0.000000
v 0.933594 2.189209 -0.000977 1.000000 1.000000 1.000000 #0.000000
v 0.544922 0.674316 -0.074219 1.000000 1.000000 1.000000 #0.000000
v 0.784180 1.056641 -0.056152 1.000000 1.000000 1.000000 #0.000000
v 0.857910 1.436035 0.005615 1.000000 1.000000 1.000000 #0.000000
v 0.857910 1.436035 0.005615 1.000000 1.000000 1.000000 #0.000000
v 0.801270 1.926025 0.795166 1.000000 1.000000 1.000000 #0.000000
v 0.788086 1.229492 0.389404 1.000000 1.000000 1.000000 #0.000000
v 0.857910 1.436035 0.005615 1.000000 1.000000 1.000000 #0.000000
v 0.749268 0.774902 0.206543 1.000000 1.000000 1.000000 #0.000000
v 0.544922 0.674316 -0.074219 1.000000 1.000000 1.000000 #0.000000
v 0.788086 1.229492 0.389404 1.000000 1.000000 1.000000 #0.000000
v 0.749268 0.774902 0.206543 1.000000 1.000000 1.000000 #0.000000
v 0.857910 1.436035 0.005615 1.000000 1.000000 1.000000 #0.000000
v 0.801270 1.926025 0.795166 1.000000 1.000000 1.000000 #0.000000
v 0.518799 1.836182 1.175049 1.000000 1.000000 1.000000 #0.000000
v 0.756104 1.242188 0.713623 1.000000 1.000000 1.000000 #0.000000
v 0.756104 1.242188 0.713623 1.000000 1.000000 1.000000 #0.000000
v 0.788086 1.229492 0.389404 1.000000 1.000000 1.000000 #0.000000
v 0.801270 1.926025 0.795166 1.000000 1.000000 1.000000 #0.000000
v -0.592773 3.240479 0.158447 1.000000 1.000000 1.000000 #0.000000
v -0.541016 3.001709 -0.651611 1.000000 1.000000 1.000000 #0.000000
v -0.805664 2.898438 0.135254 1.000000 1.000000 1.000000 #0.000000
v -0.592773 3.240479 0.158447 1.000000 1.000000 1.000000 #0.000000
v -0.805664 2.898438 0.135254 1.000000 1.000000 1.000000 #0.000000
v -0.527100 2.937744 0.758545 1.000000 1.000000 1.000000 #0.000000
v -0.738281 2.336182 -0.898926 1.000000 1.000000 1.000000 #0.000000
v -0.735107 2.152344 -0.971924 1.000000 1.000000 1.000000 #0.000000
v -0.842285 2.072754 -0.596924 1.000000 1.000000 1.000000 #0.000000
v -0.493408 2.409668 -1.089355 1.000000 1.000000 1.000000 #0.000000
v -0.735107 2.152344 -0.971924 1.000000 1.000000 1.000000 #0.000000
v -0.738281 2.336182 -0.898926 1.000000 1.000000 1.000000 #0.000000
v -0.738281 2.336182 -0.898926 1.000000 1.000000 1.000000 #0.000000
v -0.601074 2.709717 -0.846680 1.000000 1.000000 1.000000 #0.000000
v -0.493408 2.409668 -1.089355 1.000000 1.000000 1.000000 #0.000000
v -0.621338 2.795410 -0.657715 1.000000 1.000000 1.000000 #0.000000
v -0.601074 2.709717 -0.846680 1.000000 1.000000 1.000000 #0.000000
v -0.738281 2.336182 -0.898926 1.000000 1.000000 1.000000 #0.000000
v -0.842285 2.072754 -0.596924 1.000000 1.000000 1.000000 #0.000000
v -0.621338 2.795410 -0.657715 1.000000 1.000000 1.000000 #0.000000
v -0.738281 2.336182 -0.898926 1.000000 1.000000 1.000000 #0.000000
v -0.735107 2.152344 -0.971924 1.000000 1.000000 1.000000 #0.000000
v -0.132080 2.054443 -1.192627 1.000000 1.000000 1.000000 #0.000000
v -0.440674 2.056641 -1.058838 1.000000 1.000000 1.000000 #0.000000
v -0.735107 2.152344 -0.971924 1.000000 1.000000 1.000000 #0.000000
v -0.674316 1.979004 -0.927734 1.000000 1.000000 1.000000 #0.000000
v -0.842285 2.072754 -0.596924 1.000000 1.000000 1.000000 #0.000000
v -0.440674 2.056641 -1.058838 1.000000 1.000000 1.000000 #0.000000
v -0.674316 1.979004 -0.927734 1.000000 1.000000 1.000000 #0.000000
v -0.735107 2.152344 -0.971924 1.000000 1.000000 1.000000 #0.000000
v -0.132080 2.054443 -1.192627 1.000000 1.000000 1.000000 #0.000000
v -0.190186 1.957764 -1.026855 1.000000 1.000000 1.000000 #0.000000
v -0.440674 2.056641 -1.058838 1.000000 1.000000 1.000000 #0.000000
v -0.098633 1.844971 -1.103027 1.000000 1.000000 1.000000 #0.000000
v -0.190186 1.957764 -1.026855 1.000000 1.000000 1.000000 #0.000000
v -0.132080 2.054443 -1.192627 1.000000 1.000000 1.000000 #0.000000
v -0.601074 2.709717 -0.846680 1.000000 1.000000 1.000000 #0.000000
v -0.621338 2.795410 -0.657715 1.000000 1.000000 1.000000 #0.000000
v -0.541016 3.001709 -0.651611 1.000000 1.000000 1.000000 #0.000000
v -0.440674 2.056641 -1.058838 1.000000 1.000000 1.000000 #0.000000
v -0.356689 1.883057 -0.957520 1.000000 1.000000 1.000000 #0.000000
v -0.674316 1.979004 -0.927734 1.000000 1.000000 1.000000 #0.000000
v -0.674316 1.979004 -0.927734 1.000000 1.000000 1.000000 #0.000000
v -0.356689 1.883057 -0.957520 1.000000 1.000000 1.000000 #0.000000
v -0.709473 1.869629 -0.840088 1.000000 1.000000 1.000000 #0.000000
v -0.709473 1.869629 -0.840088 1.000000 1.000000 1.000000 #0.000000
v -0.842285 2.072754 -0.596924 1.000000 1.000000 1.000000 #0.000000
v -0.674316 1.979004 -0.927734 1.000000 1.000000 1.000000 #0.000000
v -0.356689 1.883057 -0.957520 1.000000 1.000000 1.000000 #0.000000
v -0.440674 2.056641 -1.058838 1.000000 1.000000 1.000000 #0.000000
v -0.190186 1.957764 -1.026855 1.000000 1.000000 1.000000 #0.000000
v -0.098633 1.844971 -1.103027 1.000000 1.000000 1.000000 #0.000000
v -0.313721 1.710938 -1.066406 1.000000 1.000000 1.000000 #0.000000
v -0.356689 1.883057 -0.957520 1.000000 1.000000 1.000000 #0.000000
v -0.356689 1.883057 -0.957520 1.000000 1.000000 1.000000 #0.000000
v -0.313721 1.710938 -1.066406 1.000000 1.000000 1.000000 #0.000000
v -0.642578 1.809814 -0.888428 1.000000 1.000000 1.000000 #0.000000
v -0.190186 1.957764 -1.026855 1.000000 1.000000 1.000000 #0.000000
v -0.098633 1.844971 -1.103027 1.000000 1.000000 1.000000 #0.000000
v -0.356689 1.883057 -0.957520 1.000000 1.000000 1.000000 #0.000000
v -0.642578 1.809814 -0.888428 1.000000 1.000000 1.000000 #0.000000
v -0.709473 1.869629 -0.840088 1.000000 1.000000 1.000000 #0.000000
v -0.356689 1.883057 -0.957520 1.000000 1.000000 1.000000 #0.000000
v -0.842285 2.072754 -0.596924 1.000000 1.000000 1.000000 #0.000000
v -0.709473 1.869629 -0.840088 1.000000 1.000000 1.000000 #0.000000
v -0.851074 1.724365 -0.554932 1.000000 1.000000 1.000000 #0.000000
v -0.842285 2.072754 -0.596924 1.000000 1.000000 1.000000 #0.000000
v -0.933594 2.189209 -0.000977 1.000000 1.000000 1.000000 #0.000000
v -0.621338 2.795410 -0.657715 1.000000 1.000000 1.000000 #0.000000
v -0.851074 1.724365 -0.554932 1.000000 1.000000 1.000000 #0.000000
v -0.933594 2.189209 -0.000977 1.000000 1.000000 1.000000 #0.000000
v -0.842285 2.072754 -0.596924 1.000000 1.000000 1.000000 #0.000000
v -0.709473 1.869629 -0.840088 1.000000 1.000000 1.000000 #0.000000
v -0.766113 1.614014 -0.810303 1.000000 1.000000 1.000000 #0.000000
v -0.851074 1.724365 -0.554932 1.000000 1.000000 1.000000 #0.000000
v -0.642578 1.809814 -0.888428 1.000000 1.000000 1.000000 #0.000000
v -0.766113 1.614014 -0.810303 1.000000 1.000000 1.000000 #0.000000
v -0.709473 1.869629 -0.840088 1.000000 1.000000 1.000000 #0.000000
v -0.724609 0.789307 -0.208008 1.000000 1.000000 1.000000 #0.000000
v -0.851074 1.724365 -0.554932 1.000000 1.000000 1.000000 #0.000000
v -0.766113 1.614014 -0.810303 1.000000 1.000000 1.000000 #0.000000
v -0.766113 1.614014 -0.810303 1.000000 1.000000 1.000000 #0.000000
v -0.313721 1.710938 -1.066406 1.000000 1.000000 1.000000 #0.000000
v -0.341553 1.441650 -1.072266 1.000000 1.000000 1.000000 #0.000000
v -0.642578 1.809814 -0.888428 1.000000 1.000000 1.000000 #0.000000
v -0.313721 1.710938 -1.066406 1.000000 1.000000 1.000000 #0.000000
v -0.766113 1.614014 -0.810303 1.000000 1.000000 1.000000 #0.000000
v -0.766113 1.614014 -0.810303 1.000000 1.000000 1.000000 #0.000000
v -0.473633 1.158936 -0.886475 1.000000 1.000000 1.000000 #0.000000
v -0.724609 0.789307 -0.208008 1.000000 1.000000 1.000000 #0.000000
v -0.341553 1.441650 -1.072266 1.000000 1.000000 1.000000 #0.000000
v -0.473633 1.158936 -0.886475 1.000000 1.000000 1.000000 #0.000000
v -0.766113 1.614014 -0.810303 1.000000 1.000000 1.000000 #0.000000
v -0.851074 1.724365 -0.554932 1.000000 1.000000 1.000000 #0.000000
v -0.857910 1.436035 0.005615 1.000000 1.000000 1.000000 #0.000000
v -0.933594 2.189209 -0.000977 1.000000 1.000000 1.000000 #0.000000
v -0.933594 2.189209 -0.000977 1.000000 1.000000 1.000000 #0.000000
v -0.805664 2.898438 0.135254 1.000000 1.000000 1.000000 #0.000000
v -0.621338 2.795410 -0.657715 1.000000 1.000000 1.000000 #0.000000
v -0.621338 2.795410 -0.657715 1.000000 1.000000 1.000000 #0.000000
v -0.805664 2.898438 0.135254 1.000000 1.000000 1.000000 #0.000000
v -0.541016 3.001709 -0.651611 1.000000 1.000000 1.000000 #0.000000
v -0.789795 2.415039 0.756104 1.000000 1.000000 1.000000 #0.000000
v -0.527100 2.937744 0.758545 1.000000 1.000000 1.000000 #0.000000
v -0.805664 2.898438 0.135254 1.000000 1.000000 1.000000 #0.000000
v -0.805664 2.898438 0.135254 1.000000 1.000000 1.000000 #0.000000
v -0.933594 2.189209 -0.000977 1.000000 1.000000 1.000000 #0.000000
v -0.789795 2.415039 0.756104 1.000000 1.000000 1.000000 #0.000000
v -0.473633 1.158936 -0.886475 1.000000 1.000000 1.000000 #0.000000
v -0.464844 0.703613 -0.830811 1.000000 1.000000 1.000000 #0.000000
v -0.724609 0.789307 -0.208008 1.000000 1.000000 1.000000 #0.000000
v -0.724609 0.789307 -0.208008 1.000000 1.000000 1.000000 #0.000000
v -0.464844 0.703613 -0.830811 1.000000 1.000000 1.000000 #0.000000
v -0.170410 0.426025 -1.145752 1.000000 1.000000 1.000000 #0.000000
v -0.724609 0.789307 -0.208008 1.000000 1.000000 1.000000 #0.000000
v -0.170410 0.426025 -1.145752 1.000000 1.000000 1.000000 #0.000000
v -0.544922 0.674316 -0.074219 1.000000 1.000000 1.000000 #0.000000
v -0.544922 0.674316 -0.074219 1.000000 1.000000 1.000000 #0.000000
v -0.784180 1.056641 -0.056152 1.000000 1.000000 1.000000 #0.000000
v -0.724609 0.789307 -0.208008 1.000000 1.000000 1.000000 #0.000000
v -0.464844 0.703613 -0.830811 1.000000 1.000000 1.000000 #0.000000
v -0.473633 1.158936 -0.886475 1.000000 1.000000 1.000000 #0.000000
v -0.277100 0.724365 -1.051514 1.000000 1.000000 1.000000 #0.000000
v -0.277100 0.724365 -1.051514 1.000000 1.000000 1.000000 #0.000000
v -0.170410 0.426025 -1.145752 1.000000 1.000000 1.000000 #0.000000
v -0.464844 0.703613 -0.830811 1.000000 1.000000 1.000000 #0.000000
v -0.933594 2.189209 -0.000977 1.000000 1.000000 1.000000 #0.000000
v -0.857910 1.436035 0.005615 1.000000 1.000000 1.000000 #0.000000
v -0.801270 1.926025 0.795166 1.000000 1.000000 1.000000 #0.000000
v -0.933594 2.189209 -0.000977 1.000000 1.000000 1.000000 #0.000000
v -0.801270 1.926025 0.795166 1.000000 1.000000 1.000000 #0.000000
v -0.789795 2.415039 0.756104 1.000000 1.000000 1.000000 #0.000000
v -0.857910 1.436035 0.005615 1.000000 1.000000 1.000000 #0.000000
v -0.784180 1.056641 -0.056152 1.000000 1.000000 1.000000 #0.000000
v -0.544922 0.674316 -0.074219 1.000000 1.000000 1.000000 #0.000000
v -0.788086 1.229492 0.389404 1.000000 1.000000 1.000000 #0.000000
v -0.801270 1.926025 0.795166 1.000000 1.000000 1.000000 #0.000000
v -0.857910 1.436035 0.005615 1.000000 1.000000 1.000000 #0.000000
v -0.544922 0.674316 -0.074219 1.000000 1.000000 1.000000 #0.000000
v -0.749268 0.774902 0.206543 1.000000 1.000000 1.000000 #0.000000
v -0.857910 1.436035 0.005615 1.000000 1.000000 1.000000 #0.000000
v -0.857910 1.436035 0.005615 1.000000 1.000000 1.000000 #0.000000
v -0.749268 0.774902 0.206543 1.000000 1.000000 1.000000 #0.000000
v -0.788086 1.229492 0.389404 1.000000 1.000000 1.000000 #0.000000
v -0.756104 1.242188 0.713623 1.000000 1.000000 1.000000 #0.000000
v -0.518799 1.836182 1.175049 1.000000 1.000000 1.000000 #0.000000
v -0.801270 1.926025 0.795166 1.000000 1.000000 1.000000 #0.000000
v -0.801270 1.926025 0.795166 1.000000 1.000000 1.000000 #0.000000
v -0.518799 1.836182 1.175049 1.000000 1.000000 1.000000 #0.000000
v -0.518799 2.325195 1.135986 1.000000 1.000000 1.000000 #0.000000
v -0.801270 1.926025 0.795166 1.000000 1.000000 1.000000 #0.000000
v -0.518799 2.325195 1.135986 1.000000 1.000000 1.000000 #0.000000
v -0.789795 2.415039 0.756104 1.000000 1.000000 1.000000 #0.000000
v -0.801270 1.926025 0.795166 1.000000 1.000000 1.000000 #0.000000
v -0.788086 1.229492 0.389404 1.000000 1.000000 1.000000 #0.000000
v -0.756104 1.242188 0.713623 1.000000 1.000000 1.000000 #0.000000
v -0.527100 2.937744 0.758545 1.000000 1.000000 1.000000 #0.000000
v -0.789795 2.415039 0.756104 1.000000 1.000000 1.000000 #0.000000
v -0.518799 2.325195 1.135986 1.000000 1.000000 1.000000 #0.000000
v 0.000000 0.420898 -0.575684 1.000000 1.000000 1.000000 #0.000000
v 0.000000 0.420898 -1.120605 1.000000 1.000000 1.000000 #0.000000
v 0.170410 0.426025 -1.145752 1.000000 1.000000 1.000000 #0.000000
v 0.170410 0.426025 -1.145752 1.000000 1.000000 1.000000 #0.000000
v 0.544922 0.674316 -0.074219 1.000000 1.000000 1.000000 #0.000000
v 0.000000 0.420898 -0.575684 1.000000 1.000000 1.000000 #0.000000
v -0.544922 0.674316 -0.074219 1.000000 1.000000 1.000000 #0.000000
v -0.170410 0.426025 -1.145752 1.000000 1.000000 1.000000 #0.000000
v 0.000000 0.420898 -1.120605 1.000000 1.000000 1.000000 #0.000000
v 0.000000 0.420898 -1.120605 1.000000 1.000000 1.000000 #0.000000
v 0.000000 0.420898 -0.575684 1.000000 1.000000 1.000000 #0.000000
v -0.544922 0.674316 -0.074219 1.000000 1.000000 1.000000 #0.000000
v 0.000000 1.027832 -1.299805 1.000000 1.000000 1.000000 #0.000000
v 0.000000 1.420898 -1.320557 1.000000 1.000000 1.000000 #0.000000
v 0.341553 1.441650 -1.072266 1.000000 1.000000 1.000000 #0.000000
v 0.341553 1.441650 -1.072266 1.000000 1.000000 1.000000 #0.000000
v 0.473633 1.158936 -0.886475 1.000000 1.000000 1.000000 #0.000000
v 0.000000 1.027832 -1.299805 1.000000 1.000000 1.000000 #0.000000
v -0.473633 1.158936 -0.886475 1.000000 1.000000 1.000000 #0.000000
v -0.341553 1.441650 -1.072266 1.000000 1.000000 1.000000 #0.000000
v 0.000000 1.420898 -1.320557 1.000000 1.000000 1.000000 #0.000000
v 0.000000 1.420898 -1.320557 1.000000 1.000000 1.000000 #0.000000
v 0.000000 1.027832 -1.299805 1.000000 1.000000 1.000000 #0.000000
v -0.473633 1.158936 -0.886475 1.000000 1.000000 1.000000 #0.000000
v 0.000000 1.896729 -1.155029 1.000000 1.000000 1.000000 #0.000000
v 0.000000 2.076172 -1.223877 1.000000 1.000000 1.000000 #0.000000
v 0.132080 2.054443 -1.192627 1.000000 1.000000 1.000000 #0.000000
v 0.132080 2.054443 -1.192627 1.000000 1.000000 1.000000 #0.000000
v 0.098633 1.844971 -1.103027 1.000000 1.000000 1.000000 #0.000000
v 0.000000 1.896729 -1.155029 1.000000 1.000000 1.000000 #0.000000
v -0.098633 1.844971 -1.103027 1.000000 1.000000 1.000000 #0.000000
v -0.132080 2.054443 -1.192627 1.000000 1.000000 1.000000 #0.000000
v 0.000000 2.076172 -1.223877 1.000000 1.000000 1.000000 #0.000000
v 0.000000 2.076172 -1.223877 1.000000 1.000000 1.000000 #0.000000
v 0.000000 1.896729 -1.155029 1.000000 1.000000 1.000000 #0.000000
v -0.098633 1.844971 -1.103027 1.000000 1.000000 1.000000 #0.000000
v 0.000000 2.837646 -1.112549 1.000000 1.000000 1.000000 #0.000000
v 0.000000 3.117432 -0.830811 1.000000 1.000000 1.000000 #0.000000
v 0.541016 3.001709 -0.651611 1.000000 1.000000 1.000000 #0.000000
v 0.541016 3.001709 -0.651611 1.000000 1.000000 1.000000 #0.000000
v 0.601074 2.709717 -0.846680 1.000000 1.000000 1.000000 #0.000000
v 0.000000 2.837646 -1.112549 1.000000 1.000000 1.000000 #0.000000
v -0.601074 2.709717 -0.846680 1.000000 1.000000 1.000000 #0.000000
v -0.541016 3.001709 -0.651611 1.000000 1.000000 1.000000 #0.000000
v 0.000000 3.117432 -0.830811 1.000000 1.000000 1.000000 #0.000000
v 0.000000 3.117432 -0.830811 1.000000 1.000000 1.000000 #0.000000
v 0.000000 2.837646 -1.112549 1.000000 1.000000 1.000000 #0.000000
v -0.601074 2.709717 -0.846680 1.000000 1.000000 1.000000 #0.000000
v 0.000000 2.837646 -1.112549 1.000000 1.000000 1.000000 #0.000000
v 0.601074 2.709717 -0.846680 1.000000 1.000000 1.000000 #0.000000
v 0.493408 2.409668 -1.089355 1.000000 1.000000 1.000000 #0.000000
v 0.493408 2.409668 -1.089355 1.000000 1.000000 1.000000 #0.000000
v 0.150391 2.336182 -1.210938 1.000000 1.000000 1.000000 #0.000000
v 0.000000 2.837646 -1.112549 1.000000 1.000000 1.000000 #0.000000
v 0.000000 1.007080 1.033203 1.000000 1.000000 1.000000 #0.000000
v 0.000000 0.683105 1.074707 1.000000 1.000000 1.000000 #0.000000
v 0.356934 0.733154 1.145752 1.000000 1.000000 1.000000 #0.000000
v 0.356934 0.733154 1.145752 1.000000 1.000000 1.000000 #0.000000
v 0.293701 1.045166 1.074707 1.000000 1.000000 1.000000 #0.000000
v 0.000000 1.007080 1.033203 1.000000 1.000000 1.000000 #0.000000
v -0.293701 1.045166 1.074707 1.000000 1.000000 1.000000 #0.000000
v -0.356934 0.733154 1.145752 1.000000 1.000000 1.000000 #0.000000
v 0.000000 0.683105 1.074707 1.000000 1.000000 1.000000 #0.000000
v 0.000000 0.683105 1.074707 1.000000 1.000000 1.000000 #0.000000
v 0.000000 1.007080 1.033203 1.000000 1.000000 1.000000 #0.000000
v -0.293701 1.045166 1.074707 1.000000 1.000000 1.000000 #0.000000
v 0.735107 2.152344 -0.971924 1.000000 1.000000 1.000000 #0.000000
v 0.132080 2.054443 -1.192627 1.000000 1.000000 1.000000 #0.000000
v 0.150391 2.336182 -1.210938 1.000000 1.000000 1.000000 #0.000000
v 0.150391 2.336182 -1.210938 1.000000 1.000000 1.000000 #0.000000
v 0.493408 2.409668 -1.089355 1.000000 1.000000 1.000000 #0.000000
v 0.735107 2.152344 -0.971924 1.000000 1.000000 1.000000 #0.000000
v 0.766113 1.614014 -0.810303 1.000000 1.000000 1.000000 #0.000000
v 0.851074 1.724365 -0.554932 1.000000 1.000000 1.000000 #0.000000
v 0.724609 0.789307 -0.208008 1.000000 1.000000 1.000000 #0.000000
v 0.724609 0.789307 -0.208008 1.000000 1.000000 1.000000 #0.000000
v 0.473633 1.158936 -0.886475 1.000000 1.000000 1.000000 #0.000000
v 0.766113 1.614014 -0.810303 1.000000 1.000000 1.000000 #0.000000
v 0.857910 1.436035 0.005615 1.000000 1.000000 1.000000 #0.000000
v 0.784180 1.056641 -0.056152 1.000000 1.000000 1.000000 #0.000000
v 0.724609 0.789307 -0.208008 1.000000 1.000000 1.000000 #0.000000
v 0.724609 0.789307 -0.208008 1.000000 1.000000 1.000000 #0.000000
v 0.851074 1.724365 -0.554932 1.000000 1.000000 1.000000 #0.000000
v 0.857910 1.436035 0.005615 1.000000 1.000000 1.000000 #0.000000
v 0.250000 1.470947 1.212158 1.000000 1.000000 1.000000 #0.000000
v 0.293701 1.045166 1.074707 1.000000 1.000000 1.000000 #0.000000
v 0.756104 1.242188 0.713623 1.000000 1.000000 1.000000 #0.000000
v 0.756104 1.242188 0.713623 1.000000 1.000000 1.000000 #0.000000
v 0.518799 1.836182 1.175049 1.000000 1.000000 1.000000 #0.000000
v 0.250000 1.470947 1.212158 1.000000 1.000000 1.000000 #0.000000
v 0.788086 1.229492 0.389404 1.000000 1.000000 1.000000 #0.000000
v 0.756104 1.242188 0.713623 1.000000 1.000000 1.000000 #0.000000
v 0.803711 0.959473 0.741211 1.000000 1.000000 1.000000 #0.000000
v 0.803711 0.959473 0.741211 1.000000 1.000000 1.000000 #0.000000
v 0.749268 0.774902 0.206543 1.000000 1.000000 1.000000 #0.000000
v 0.788086 1.229492 0.389404 1.000000 1.000000 1.000000 #0.000000
v 0.293701 1.045166 1.074707 1.000000 1.000000 1.000000 #0.000000
v 0.356934 0.733154 1.145752 1.000000 1.000000 1.000000 #0.000000
v 0.803711 0.959473 0.741211 1.000000 1.000000 1.000000 #0.000000
v 0.803711 0.959473 0.741211 1.000000 1.000000 1.000000 #0.000000
v 0.756104 1.242188 0.713623 1.000000 1.000000 1.000000 #0.000000
v 0.293701 1.045166 1.074707 1.000000 1.000000 1.000000 #0.000000
v -0.493408 2.409668 -1.089355 1.000000 1.000000 1.000000 #0.000000
v -0.150391 2.336182 -1.210938 1.000000 1.000000 1.000000 #0.000000
v -0.132080 2.054443 -1.192627 1.000000 1.000000 1.000000 #0.000000
v -0.132080 2.054443 -1.192627 1.000000 1.000000 1.000000 #0.000000
v -0.735107 2.152344 -0.971924 1.000000 1.000000 1.000000 #0.000000
v -0.493408 2.409668 -1.089355 1.000000 1.000000 1.000000 #0.000000
v -0.851074 1.724365 -0.554932 1.000000 1.000000 1.000000 #0.000000
v -0.724609 0.789307 -0.208008 1.000000 1.000000 1.000000 #0.000000
v -0.784180 1.056641 -0.056152 1.000000 1.000000 1.000000 #0.000000
v -0.784180 1.056641 -0.056152 1.000000 1.000000 1.000000 #0.000000
v -0.857910 1.436035 0.005615 1.000000 1.000000 1.000000 #0.000000
v -0.851074 1.724365 -0.554932 1.000000 1.000000 1.000000 #0.000000
v -0.518799 1.836182 1.175049 1.000000 1.000000 1.000000 #0.000000
v -0.756104 1.242188 0.713623 1.000000 1.000000 1.000000 #0.000000
v -0.293701 1.045166 1.074707 1.000000 1.000000 1.000000 #0.000000
v -0.293701 1.045166 1.074707 1.000000 1.000000 1.000000 #0.000000
v -0.250000 1.470947 1.212158 1.000000 1.000000 1.000000 #0.000000
v -0.518799 1.836182 1.175049 1.000000 1.000000 1.000000 #0.000000
v -0.749268 0.774902 0.206543 1.000000 1.000000 1.000000 #0.000000
v -0.803711 0.959473 0.741211 1.000000 1.000000 1.000000 #0.000000
v -0.756104 1.242188 0.713623 1.000000 1.000000 1.000000 #0.000000
v -0.756104 1.242188 0.713623 1.000000 1.000000 1.000000 #0.000000
v -0.788086 1.229492 0.389404 1.000000 1.000000 1.000000 #0.000000
v -0.749268 0.774902 0.206543 1.000000 1.000000 1.000000 #0.000000
v -0.756104 1.242188 0.713623 1.000000 1.000000 1.000000 #0.000000
v -0.803711 0.959473 0.741211 1.000000 1.000000 1.000000 #0.000000
v -0.356934 0.733154 1.145752 1.000000 1.000000 1.000000 #0.000000
v -0.356934 0.733154 1.145752 1.000000 1.000000 1.000000 #0.000000
v -0.293701 1.045166 1.074707 1.000000 1.000000 1.000000 #0.000000
v -0.756104 1.242188 0.713623 1.000000 1.000000 1.000000 #0.000000
v 0.749268 0.774902 0.206543 1.000000 1.000000 1.000000 #0.000000
v 0.000000 0.683105 1.074707 1.000000 1.000000 1.000000 #0.000000
v -0.544922 0.674316 -0.074219 1.000000 1.000000 1.000000 #0.000000
v 0.000000 0.420898 -0.575684 1.000000 1.000000 1.000000 #0.000000
v 0.544922 0.674316 -0.074219 1.000000 1.000000 1.000000 #0.000000
v 0.749268 0.774902 0.206543 1.000000 1.000000 1.000000 #0.000000
v 0.749268 0.774902 0.206543 1.000000 1.000000 1.000000 #0.000000
v 0.803711 0.959473 0.741211 1.000000 1.000000 1.000000 #0.000000
v 0.356934 0.733154 1.145752 1.000000 1.000000 1.000000 #0.000000
v 0.000000 0.683105 1.074707 1.000000 1.000000 1.000000 #0.000000
v -0.356934 0.733154 1.145752 1.000000 1.000000 1.000000 #0.000000
v -0.803711 0.959473 0.741211 1.000000 1.000000 1.000000 #0.000000
v -0.803711 0.959473 0.741211 1.000000 1.000000 1.000000 #0.000000
v -0.749268 0.774902 0.206543 1.000000 1.000000 1.000000 #0.000000
v -0.544922 0.674316 -0.074219 1.000000 1.000000 1.000000 #0.000000
v -0.544922 0.674316 -0.074219 1.000000 1.000000 1.000000 #0.000000
v 0.000000 0.420898 -0.575684 1.000000 1.000000 1.000000 #0.000000
v 0.749268 0.774902 0.206543 1.000000 1.000000 1.000000 #0.000000
v 0.749268 0.774902 0.206543 1.000000 1.000000 1.000000 #0.000000
v 0.356934 0.733154 1.145752 1.000000 1.000000 1.000000 #0.000000
v 0.000000 0.683105 1.074707 1.000000 1.000000 1.000000 #0.000000
v 0.000000 0.683105 1.074707 1.000000 1.000000 1.000000 #0.000000
v -0.803711 0.959473 0.741211 1.000000 1.000000 1.000000 #0.000000
v -0.544922 0.674316 -0.074219 1.000000 1.000000 1.000000 #0.000000
vt 0.499756 0.854980 0.000000
vt 0.499756 0.826904 0.000000
vt 0.475586 0.853516 0.000000
vt 0.524170 0.853516 0.000000
vt 0.499756 0.826904 0.000000
vt 0.499756 0.854980 0.000000
vt 0.499756 0.826904 0.000000
vt 0.499756 0.762695 0.000000
vt 0.457275 0.766602 0.000000
vt 0.542480 0.766602 0.000000
vt 0.499756 0.762695 0.000000
vt 0.499756 0.826904 0.000000
vt 0.499756 0.826904 0.000000
vt 0.457275 0.766602 0.000000
vt 0.475586 0.853516 0.000000
vt 0.524170 0.853516 0.000000
vt 0.542480 0.766602 0.000000
vt 0.499756 0.826904 0.000000
vt 0.499756 0.762695 0.000000
vt 0.499756 0.678223 0.000000
vt 0.457275 0.766602 0.000000
vt 0.542480 0.766602 0.000000
vt 0.499756 0.678223 0.000000
vt 0.499756 0.762695 0.000000
vt 0.418701 0.640137 0.000000
vt 0.457275 0.766602 0.000000
vt 0.499756 0.678223 0.000000
vt 0.499756 0.678223 0.000000
vt 0.542480 0.766602 0.000000
vt 0.581055 0.640137 0.000000
vt 0.499756 0.563965 0.000000
vt 0.499756 0.425537 0.000000
vt 0.485107 0.440674 0.000000
vt 0.514648 0.440674 0.000000
vt 0.499756 0.425537 0.000000
vt 0.499756 0.563965 0.000000
vt 0.485107 0.440674 0.000000
vt 0.452637 0.479492 0.000000
vt 0.499756 0.563965 0.000000
vt 0.499756 0.563965 0.000000
vt 0.452637 0.479492 0.000000
vt 0.448975 0.557861 0.000000
vt 0.499756 0.563965 0.000000
vt 0.547119 0.479492 0.000000
vt 0.514648 0.440674 0.000000
vt 0.550781 0.557861 0.000000
vt 0.547119 0.479492 0.000000
vt 0.499756 0.563965 0.000000
vt 0.499756 0.373291 0.000000
vt 0.499756 0.151611 0.000000
vt 0.479492 0.297607 0.000000
vt 0.520264 0.297607 0.000000
vt 0.499756 0.151611 0.000000
vt 0.499756 0.373291 0.000000
vt 0.499756 0.373291 0.000000
vt 0.479492 0.297607 0.000000
vt 0.481689 0.379639 0.000000
vt 0.518066 0.379639 0.000000
vt 0.520264 0.297607 0.000000
vt 0.499756 0.373291 0.000000
vt 0.569824 0.276367 0.000000
vt 0.601807 0.188965 0.000000
vt 0.499756 0.151611 0.000000
vt 0.499756 0.151611 0.000000
vt 0.520264 0.297607 0.000000
vt 0.569824 0.276367 0.000000
vt 0.499756 0.070312 0.000000
vt 0.499756 0.006104 0.000000
vt 0.198730 0.034668 0.000000
vt 0.801025 0.034668 0.000000
vt 0.499756 0.006104 0.000000
vt 0.499756 0.070312 0.000000
vt 0.499756 0.070312 0.000000
vt 0.198730 0.034668 0.000000
vt 0.384766 0.104004 0.000000
vt 0.614990 0.104004 0.000000
vt 0.801025 0.034668 0.000000
vt 0.499756 0.070312 0.000000
vt 0.499756 0.006104 0.000000
vt 0.000000 0.036133 0.000000
vt 0.198730 0.034668 0.000000
vt 0.801025 0.034668 0.000000
vt 0.999756 0.036133 0.000000
vt 0.499756 0.006104 0.000000
vt 0.000000 0.036133 0.000000
vt 0.000000 0.122559 0.000000
vt 0.092773 0.122559 0.000000
vt 0.906982 0.122559 0.000000
vt 0.999756 0.122559 0.000000
vt 0.999756 0.036133 0.000000
vt 0.092773 0.122559 0.000000
vt 0.198730 0.034668 0.000000
vt 0.000000 0.036133 0.000000
vt 0.999756 0.036133 0.000000
vt 0.801025 0.034668 0.000000
vt 0.906982 0.122559 0.000000
vt 0.000000 0.122559 0.000000
vt 0.000000 0.236816 0.000000
vt 0.065918 0.300781 0.000000
vt 0.933838 0.300781 0.000000
vt 0.999756 0.236816 0.000000
vt 0.999756 0.122559 0.000000
vt 0.000000 0.122559 0.000000
vt 0.065918 0.300781 0.000000
vt 0.092773 0.122559 0.000000
vt 0.999756 0.122559 0.000000
vt 0.906982 0.122559 0.000000
vt 0.933838 0.300781 0.000000
vt 0.000000 0.236816 0.000000
vt 0.000000 0.489746 0.000000
vt 0.065918 0.300781 0.000000
vt 0.933838 0.300781 0.000000
vt 0.999756 0.489746 0.000000
vt 0.999756 0.236816 0.000000
vt 0.000000 0.489746 0.000000
vt 0.000000 0.684326 0.000000
vt 0.031250 0.549316 0.000000
vt 0.968506 0.549316 0.000000
vt 0.999756 0.684326 0.000000
vt 0.999756 0.489746 0.000000
vt 0.000000 0.489746 0.000000
vt 0.031250 0.549316 0.000000
vt 0.064209 0.443115 0.000000
vt 0.935547 0.443115 0.000000
vt 0.968506 0.549316 0.000000
vt 0.999756 0.489746 0.000000
vt 0.000000 0.489746 0.000000
vt 0.064209 0.443115 0.000000
vt 0.065918 0.300781 0.000000
vt 0.933838 0.300781 0.000000
vt 0.935547 0.443115 0.000000
vt 0.999756 0.489746 0.000000
vt 0.041016 0.673340 0.000000
vt 0.031250 0.549316 0.000000
vt 0.000000 0.684326 0.000000
vt 0.999756 0.684326 0.000000
vt 0.968506 0.549316 0.000000
vt 0.958740 0.673340 0.000000
vt 0.215820 0.134033 0.000000
vt 0.384766 0.104004 0.000000
vt 0.198730 0.034668 0.000000
vt 0.092773 0.122559 0.000000
vt 0.215820 0.134033 0.000000
vt 0.198730 0.034668 0.000000
vt 0.124268 0.274658 0.000000
vt 0.092773 0.122559 0.000000
vt 0.065918 0.300781 0.000000
vt 0.121582 0.416992 0.000000
vt 0.124268 0.274658 0.000000
vt 0.065918 0.300781 0.000000
vt 0.065918 0.300781 0.000000
vt 0.064209 0.443115 0.000000
vt 0.121582 0.416992 0.000000
vt 0.092773 0.122559 0.000000
vt 0.124268 0.274658 0.000000
vt 0.215820 0.134033 0.000000
vt 0.243408 0.340332 0.000000
vt 0.215820 0.134033 0.000000
vt 0.124268 0.274658 0.000000
vt 0.124268 0.274658 0.000000
vt 0.121582 0.416992 0.000000
vt 0.243408 0.340332 0.000000
vt 0.343018 0.374268 0.000000
vt 0.393555 0.351074 0.000000
vt 0.386963 0.297607 0.000000
vt 0.386963 0.297607 0.000000
vt 0.393555 0.351074 0.000000
vt 0.429932 0.276367 0.000000
vt 0.429932 0.276367 0.000000
vt 0.397949 0.188965 0.000000
vt 0.386963 0.297607 0.000000
vt 0.386963 0.297607 0.000000
vt 0.397949 0.188965 0.000000
vt 0.374512 0.164062 0.000000
vt 0.386963 0.297607 0.000000
vt 0.374512 0.164062 0.000000
vt 0.343018 0.374268 0.000000
vt 0.434814 0.378906 0.000000
vt 0.481689 0.379639 0.000000
vt 0.393555 0.351074 0.000000
vt 0.343018 0.374268 0.000000
vt 0.396484 0.401611 0.000000
vt 0.393555 0.351074 0.000000
vt 0.393555 0.351074 0.000000
vt 0.396484 0.401611 0.000000
vt 0.434814 0.378906 0.000000
vt 0.434814 0.378906 0.000000
vt 0.469482 0.407715 0.000000
vt 0.481689 0.379639 0.000000
vt 0.481689 0.379639 0.000000
vt 0.469482 0.407715 0.000000
vt 0.485107 0.440674 0.000000
vt 0.384766 0.104004 0.000000
vt 0.374512 0.164062 0.000000
vt 0.397949 0.188965 0.000000
vt 0.396484 0.401611 0.000000
vt 0.440918 0.429443 0.000000
vt 0.434814 0.378906 0.000000
vt 0.384521 0.433350 0.000000
vt 0.440918 0.429443 0.000000
vt 0.396484 0.401611 0.000000
vt 0.396484 0.401611 0.000000
vt 0.343018 0.374268 0.000000
vt 0.384521 0.433350 0.000000
vt 0.469482 0.407715 0.000000
vt 0.434814 0.378906 0.000000
vt 0.440918 0.429443 0.000000
vt 0.440918 0.429443 0.000000
vt 0.452637 0.479492 0.000000
vt 0.485107 0.440674 0.000000
vt 0.396729 0.450928 0.000000
vt 0.452637 0.479492 0.000000
vt 0.440918 0.429443 0.000000
vt 0.440918 0.429443 0.000000
vt 0.485107 0.440674 0.000000
vt 0.469482 0.407715 0.000000
vt 0.440918 0.429443 0.000000
vt 0.384521 0.433350 0.000000
vt 0.396729 0.450928 0.000000
vt 0.336670 0.475586 0.000000
vt 0.384521 0.433350 0.000000
vt 0.343018 0.374268 0.000000
vt 0.374512 0.164062 0.000000
vt 0.243408 0.340332 0.000000
vt 0.343018 0.374268 0.000000
vt 0.343018 0.374268 0.000000
vt 0.243408 0.340332 0.000000
vt 0.336670 0.475586 0.000000
vt 0.336670 0.475586 0.000000
vt 0.375488 0.507812 0.000000
vt 0.384521 0.433350 0.000000
vt 0.384521 0.433350 0.000000
vt 0.375488 0.507812 0.000000
vt 0.396729 0.450928 0.000000
vt 0.448975 0.557861 0.000000
vt 0.452637 0.479492 0.000000
vt 0.375488 0.507812 0.000000
vt 0.375488 0.507812 0.000000
vt 0.452637 0.479492 0.000000
vt 0.396729 0.450928 0.000000
vt 0.375488 0.507812 0.000000
vt 0.418701 0.640137 0.000000
vt 0.448975 0.557861 0.000000
vt 0.243408 0.340332 0.000000
vt 0.241455 0.559570 0.000000
vt 0.336670 0.475586 0.000000
vt 0.374512 0.164062 0.000000
vt 0.215820 0.134033 0.000000
vt 0.243408 0.340332 0.000000
vt 0.384766 0.104004 0.000000
vt 0.215820 0.134033 0.000000
vt 0.374512 0.164062 0.000000
vt 0.286377 0.747803 0.000000
vt 0.415283 0.772705 0.000000
vt 0.418701 0.640137 0.000000
vt 0.475586 0.853516 0.000000
vt 0.415283 0.772705 0.000000
vt 0.286377 0.747803 0.000000
vt 0.260254 0.781250 0.000000
vt 0.475586 0.853516 0.000000
vt 0.286377 0.747803 0.000000
vt 0.286377 0.747803 0.000000
vt 0.253418 0.669922 0.000000
vt 0.260254 0.781250 0.000000
vt 0.457275 0.766602 0.000000
vt 0.418701 0.640137 0.000000
vt 0.415283 0.772705 0.000000
vt 0.475586 0.853516 0.000000
vt 0.457275 0.766602 0.000000
vt 0.415283 0.772705 0.000000
vt 0.121582 0.416992 0.000000
vt 0.241455 0.559570 0.000000
vt 0.243408 0.340332 0.000000
vt 0.260254 0.781250 0.000000
vt 0.253418 0.669922 0.000000
vt 0.241455 0.559570 0.000000
vt 0.241455 0.559570 0.000000
vt 0.121582 0.416992 0.000000
vt 0.170654 0.619629 0.000000
vt 0.241455 0.559570 0.000000
vt 0.199463 0.751953 0.000000
vt 0.260254 0.781250 0.000000
vt 0.170654 0.619629 0.000000
vt 0.199463 0.751953 0.000000
vt 0.241455 0.559570 0.000000
vt 0.121582 0.416992 0.000000
vt 0.064209 0.443115 0.000000
vt 0.125244 0.615967 0.000000
vt 0.125244 0.615967 0.000000
vt 0.170654 0.619629 0.000000
vt 0.121582 0.416992 0.000000
vt 0.801025 0.034668 0.000000
vt 0.614990 0.104004 0.000000
vt 0.783936 0.134033 0.000000
vt 0.801025 0.034668 0.000000
vt 0.783936 0.134033 0.000000
vt 0.906982 0.122559 0.000000
vt 0.612793 0.297607 0.000000
vt 0.606201 0.351074 0.000000
vt 0.656738 0.374268 0.000000
vt 0.569824 0.276367 0.000000
vt 0.606201 0.351074 0.000000
vt 0.612793 0.297607 0.000000
vt 0.612793 0.297607 0.000000
vt 0.601807 0.188965 0.000000
vt 0.569824 0.276367 0.000000
vt 0.625244 0.164062 0.000000
vt 0.601807 0.188965 0.000000
vt 0.612793 0.297607 0.000000
vt 0.656738 0.374268 0.000000
vt 0.625244 0.164062 0.000000
vt 0.612793 0.297607 0.000000
vt 0.606201 0.351074 0.000000
vt 0.518066 0.379639 0.000000
vt 0.564941 0.378906 0.000000
vt 0.606201 0.351074 0.000000
vt 0.603271 0.401611 0.000000
vt 0.656738 0.374268 0.000000
vt 0.564941 0.378906 0.000000
vt 0.603271 0.401611 0.000000
vt 0.606201 0.351074 0.000000
vt 0.518066 0.379639 0.000000
vt 0.530273 0.407715 0.000000
vt 0.564941 0.378906 0.000000
vt 0.514648 0.440674 0.000000
vt 0.530273 0.407715 0.000000
vt 0.518066 0.379639 0.000000
vt 0.601807 0.188965 0.000000
vt 0.625244 0.164062 0.000000
vt 0.614990 0.104004 0.000000
vt 0.564941 0.378906 0.000000
vt 0.558838 0.429443 0.000000
vt 0.603271 0.401611 0.000000
vt 0.603271 0.401611 0.000000
vt 0.558838 0.429443 0.000000
vt 0.615234 0.433350 0.000000
vt 0.615234 0.433350 0.000000
vt 0.656738 0.374268 0.000000
vt 0.603271 0.401611 0.000000
vt 0.558838 0.429443 0.000000
vt 0.564941 0.378906 0.000000
vt 0.530273 0.407715 0.000000
vt 0.514648 0.440674 0.000000
vt 0.547119 0.479492 0.000000
vt 0.558838 0.429443 0.000000
vt 0.558838 0.429443 0.000000
vt 0.547119 0.479492 0.000000
vt 0.603027 0.450928 0.000000
vt 0.530273 0.407715 0.000000
vt 0.514648 0.440674 0.000000
vt 0.558838 0.429443 0.000000
vt 0.603027 0.450928 0.000000
vt 0.615234 0.433350 0.000000
vt 0.558838 0.429443 0.000000
vt 0.656738 0.374268 0.000000
vt 0.615234 0.433350 0.000000
vt 0.663086 0.475586 0.000000
vt 0.656738 0.374268 0.000000
vt 0.756348 0.340332 0.000000
vt 0.625244 0.164062 0.000000
vt 0.663086 0.475586 0.000000
vt 0.756348 0.340332 0.000000
vt 0.656738 0.374268 0.000000
vt 0.615234 0.433350 0.000000
vt 0.624268 0.507812 0.000000
vt 0.663086 0.475586 0.000000
vt 0.603027 0.450928 0.000000
vt 0.624268 0.507812 0.000000
vt 0.615234 0.433350 0.000000
vt 0.713379 0.747803 0.000000
vt 0.663086 0.475586 0.000000
vt 0.624268 0.507812 0.000000
vt 0.624268 0.507812 0.000000
vt 0.547119 0.479492 0.000000
vt 0.550781 0.557861 0.000000
vt 0.603027 0.450928 0.000000
vt 0.547119 0.479492 0.000000
vt 0.624268 0.507812 0.000000
vt 0.624268 0.507812 0.000000
vt 0.581055 0.640137 0.000000
vt 0.713379 0.747803 0.000000
vt 0.550781 0.557861 0.000000
vt 0.581055 0.640137 0.000000
vt 0.624268 0.507812 0.000000
vt 0.663086 0.475586 0.000000
vt 0.758301 0.559570 0.000000
vt 0.756348 0.340332 0.000000
vt 0.756348 0.340332 0.000000
vt 0.783936 0.134033 0.000000
vt 0.625244 0.164062 0.000000
vt 0.625244 0.164062 0.000000
vt 0.783936 0.134033 0.000000
vt 0.614990 0.104004 0.000000
vt 0.875488 0.274658 0.000000
vt 0.906982 0.122559 0.000000
vt 0.783936 0.134033 0.000000
vt 0.783936 0.134033 0.000000
vt 0.756348 0.340332 0.000000
vt 0.875488 0.274658 0.000000
vt 0.581055 0.640137 0.000000
vt 0.584473 0.772705 0.000000
vt 0.713379 0.747803 0.000000
vt 0.713379 0.747803 0.000000
vt 0.584473 0.772705 0.000000
vt 0.524170 0.853516 0.000000
vt 0.713379 0.747803 0.000000
vt 0.524170 0.853516 0.000000
vt 0.739502 0.781250 0.000000
vt 0.739502 0.781250 0.000000
vt 0.746338 0.669922 0.000000
vt 0.713379 0.747803 0.000000
vt 0.584473 0.772705 0.000000
vt 0.581055 0.640137 0.000000
vt 0.542480 0.766602 0.000000
vt 0.542480 0.766602 0.000000
vt 0.524170 0.853516 0.000000
vt 0.584473 0.772705 0.000000
vt 0.756348 0.340332 0.000000
vt 0.758301 0.559570 0.000000
vt 0.878174 0.416992 0.000000
vt 0.756348 0.340332 0.000000
vt 0.878174 0.416992 0.000000
vt 0.875488 0.274658 0.000000
vt 0.758301 0.559570 0.000000
vt 0.746338 0.669922 0.000000
vt 0.739502 0.781250 0.000000
vt 0.829102 0.619629 0.000000
vt 0.878174 0.416992 0.000000
vt 0.758301 0.559570 0.000000
vt 0.739502 0.781250 0.000000
vt 0.800293 0.751953 0.000000
vt 0.758301 0.559570 0.000000
vt 0.758301 0.559570 0.000000
vt 0.800293 0.751953 0.000000
vt 0.829102 0.619629 0.000000
vt 0.874512 0.615967 0.000000
vt 0.935547 0.443115 0.000000
vt 0.878174 0.416992 0.000000
vt 0.878174 0.416992 0.000000
vt 0.935547 0.443115 0.000000
vt 0.933838 0.300781 0.000000
vt 0.878174 0.416992 0.000000
vt 0.933838 0.300781 0.000000
vt 0.875488 0.274658 0.000000
vt 0.878174 0.416992 0.000000
vt 0.829102 0.619629 0.000000
vt 0.874512 0.615967 0.000000
vt 0.906982 0.122559 0.000000
vt 0.875488 0.274658 0.000000
vt 0.933838 0.300781 0.000000
vt 0.499756 0.854980 0.000000
vt 0.499756 0.854980 0.000000
vt 0.475586 0.853516 0.000000
vt 0.475586 0.853516 0.000000
vt 0.260254 0.781250 0.000000
vt 0.499756 0.854980 0.000000
vt 0.739502 0.781250 0.000000
vt 0.524170 0.853516 0.000000
vt 0.499756 0.854980 0.000000
vt 0.499756 0.854980 0.000000
vt 0.499756 0.854980 0.000000
vt 0.739502 0.781250 0.000000
vt 0.499756 0.678223 0.000000
vt 0.499756 0.563965 0.000000
vt 0.448975 0.557861 0.000000
vt 0.448975 0.557861 0.000000
vt 0.418701 0.640137 0.000000
vt 0.499756 0.678223 0.000000
vt 0.581055 0.640137 0.000000
vt 0.550781 0.557861 0.000000
vt 0.499756 0.563965 0.000000
vt 0.499756 0.563965 0.000000
vt 0.499756 0.678223 0.000000
vt 0.581055 0.640137 0.000000
vt 0.499756 0.425537 0.000000
vt 0.499756 0.373291 0.000000
vt 0.481689 0.379639 0.000000
vt 0.481689 0.379639 0.000000
vt 0.485107 0.440674 0.000000
vt 0.499756 0.425537 0.000000
vt 0.514648 0.440674 0.000000
vt 0.518066 0.379639 0.000000
vt 0.499756 0.373291 0.000000
vt 0.499756 0.373291 0.000000
vt 0.499756 0.425537 0.000000
vt 0.514648 0.440674 0.000000
vt 0.499756 0.151611 0.000000
vt 0.499756 0.070312 0.000000
vt 0.384766 0.104004 0.000000
vt 0.384766 0.104004 0.000000
vt 0.397949 0.188965 0.000000
vt 0.499756 0.151611 0.000000
vt 0.601807 0.188965 0.000000
vt 0.614990 0.104004 0.000000
vt 0.499756 0.070312 0.000000
vt 0.499756 0.070312 0.000000
vt 0.499756 0.151611 0.000000
vt 0.601807 0.188965 0.000000
vt 0.499756 0.151611 0.000000
vt 0.397949 0.188965 0.000000
vt 0.429932 0.276367 0.000000
vt 0.429932 0.276367 0.000000
vt 0.479492 0.297607 0.000000
vt 0.499756 0.151611 0.000000
vt 0.000000 0.684326 0.000000
vt 0.000000 0.778564 0.000000
vt 0.046387 0.764160 0.000000
vt 0.046387 0.764160 0.000000
vt 0.041016 0.673340 0.000000
vt 0.000000 0.684326 0.000000
vt 0.958740 0.673340 0.000000
vt 0.953369 0.764160 0.000000
vt 0.999756 0.778564 0.000000
vt 0.999756 0.778564 0.000000
vt 0.999756 0.684326 0.000000
vt 0.958740 0.673340 0.000000
vt 0.393555 0.351074 0.000000
vt 0.481689 0.379639 0.000000
vt 0.479492 0.297607 0.000000
vt 0.479492 0.297607 0.000000
vt 0.429932 0.276367 0.000000
vt 0.393555 0.351074 0.000000
vt 0.375488 0.507812 0.000000
vt 0.336670 0.475586 0.000000
vt 0.286377 0.747803 0.000000
vt 0.286377 0.747803 0.000000
vt 0.418701 0.640137 0.000000
vt 0.375488 0.507812 0.000000
vt 0.241455 0.559570 0.000000
vt 0.253418 0.669922 0.000000
vt 0.286377 0.747803 0.000000
vt 0.286377 0.747803 0.000000
vt 0.336670 0.475586 0.000000
vt 0.241455 0.559570 0.000000
vt 0.031250 0.549316 0.000000
vt 0.041016 0.673340 0.000000
vt 0.125244 0.615967 0.000000
vt 0.125244 0.615967 0.000000
vt 0.064209 0.443115 0.000000
vt 0.031250 0.549316 0.000000
vt 0.170654 0.619629 0.000000
vt 0.125244 0.615967 0.000000
vt 0.127197 0.698242 0.000000
vt 0.127197 0.698242 0.000000
vt 0.199463 0.751953 0.000000
vt 0.170654 0.619629 0.000000
vt 0.041016 0.673340 0.000000
vt 0.046387 0.764160 0.000000
vt 0.127197 0.698242 0.000000
vt 0.127197 0.698242 0.000000
vt 0.125244 0.615967 0.000000
vt 0.041016 0.673340 0.000000
vt 0.569824 0.276367 0.000000
vt 0.520264 0.297607 0.000000
vt 0.518066 0.379639 0.000000
vt 0.518066 0.379639 0.000000
vt 0.606201 0.351074 0.000000
vt 0.569824 0.276367 0.000000
vt 0.663086 0.475586 0.000000
vt 0.713379 0.747803 0.000000
vt 0.746338 0.669922 0.000000
vt 0.746338 0.669922 0.000000
vt 0.758301 0.559570 0.000000
vt 0.663086 0.475586 0.000000
vt 0.935547 0.443115 0.000000
vt 0.874512 0.615967 0.000000
vt 0.958740 0.673340 0.000000
vt 0.958740 0.673340 0.000000
vt 0.968506 0.549316 0.000000
vt 0.935547 0.443115 0.000000
vt 0.800293 0.751953 0.000000
vt 0.872559 0.698242 0.000000
vt 0.874512 0.615967 0.000000
vt 0.874512 0.615967 0.000000
vt 0.829102 0.619629 0.000000
vt 0.800293 0.751953 0.000000
vt 0.874512 0.615967 0.000000
vt 0.872559 0.698242 0.000000
vt 0.953369 0.764160 0.000000
vt 0.953369 0.764160 0.000000
vt 0.958740 0.673340 0.000000
vt 0.874512 0.615967 0.000000
vt 0.564453 0.822510 0.000000
vt 0.580811 0.804688 0.000000
vt 0.592773 0.828125 0.000000
vt 0.580811 0.838379 0.000000
vt 0.568848 0.828125 0.000000
vt 0.564453 0.822510 0.000000
vt 0.564453 0.822510 0.000000
vt 0.563232 0.811523 0.000000
vt 0.572998 0.803223 0.000000
vt 0.580811 0.804688 0.000000
vt 0.588623 0.803223 0.000000
vt 0.598389 0.811523 0.000000
vt 0.598389 0.811523 0.000000
vt 0.597168 0.822510 0.000000
vt 0.592773 0.828125 0.000000
vt 0.592773 0.828125 0.000000
vt 0.580811 0.838379 0.000000
vt 0.564453 0.822510 0.000000
vt 0.564453 0.822510 0.000000
vt 0.572998 0.803223 0.000000
vt 0.580811 0.804688 0.000000
vt 0.580811 0.804688 0.000000
vt 0.598389 0.811523 0.000000
vt 0.592773 0.828125 0.000000
vn 0.108154 0.537354 -0.836182
vn 0.108154 0.537354 -0.836182
vn 0.108154 0.537354 -0.836182
vn -0.108154 0.537354 -0.836182
vn -0.108154 0.537354 -0.836182
vn -0.108154 0.537354 -0.836182
vn -0.489746 0.107910 -0.864990
vn -0.489746 0.107910 -0.864990
vn -0.489746 0.107910 -0.864990
vn 0.489746 0.107910 -0.864990
vn 0.489746 0.107910 -0.864990
vn 0.489746 0.107910 -0.864990
vn -0.302246 -0.187012 -0.934570
vn -0.302246 -0.187012 -0.934570
vn -0.302246 -0.187012 -0.934570
vn 0.302246 -0.187012 -0.934570
vn 0.302246 -0.187012 -0.934570
vn 0.302246 -0.187012 -0.934570
vn -0.469727 0.260986 -0.843262
vn -0.469727 0.260986 -0.843262
vn -0.469727 0.260986 -0.843262
vn 0.469727 0.260986 -0.843262
vn 0.469727 0.260986 -0.843262
vn 0.469727 0.260986 -0.843262
vn -0.659424 0.012451 -0.751465
vn -0.659424 0.012451 -0.751465
vn -0.659424 0.012451 -0.751465
vn 0.659424 0.012451 -0.751465
vn 0.659424 0.012451 -0.751465
vn 0.659424 0.012451 -0.751465
vn -0.557129 -0.272705 -0.784180
vn -0.557129 -0.272705 -0.784180
vn -0.557129 -0.272705 -0.784180
vn 0.557129 -0.272705 -0.784180
vn 0.557129 -0.272705 -0.784180
vn 0.557129 -0.272705 -0.784180
vn -0.367676 -0.355225 -0.859131
vn -0.367676 -0.355225 -0.859131
vn -0.367676 -0.355225 -0.859131
vn -0.582764 -0.077881 -0.808594
vn -0.582764 -0.077881 -0.808594
vn -0.582764 -0.077881 -0.808594
vn 0.367676 -0.355225 -0.859131
vn 0.367676 -0.355225 -0.859131
vn 0.367676 -0.355225 -0.859131
vn 0.582764 -0.077881 -0.808594
vn 0.582764 -0.077881 -0.808594
vn 0.582764 -0.077881 -0.808594
vn 0.162598 -0.142578 -0.976074
vn 0.162598 -0.142578 -0.976074
vn 0.162598 -0.142578 -0.976074
vn -0.162598 -0.142578 -0.976074
vn -0.162598 -0.142578 -0.976074
vn -0.162598 -0.142578 -0.976074
vn -0.217041 0.077393 -0.972900
vn -0.217041 0.077393 -0.972900
vn -0.217041 0.077393 -0.972900
vn 0.217041 0.077393 -0.972900
vn 0.217041 0.077393 -0.972900
vn 0.217041 0.077393 -0.972900
vn 0.439209 -0.464600 -0.768799
vn 0.439209 -0.464600 -0.768799
vn 0.439209 -0.464600 -0.768799
vn 0.271729 -0.263184 -0.925537
vn 0.271729 -0.263184 -0.925537
vn 0.271729 -0.263184 -0.925537
vn -0.327637 -0.893311 -0.307373
vn -0.327637 -0.893311 -0.307373
vn -0.327637 -0.893311 -0.307373
vn 0.327637 -0.893311 -0.307373
vn 0.327637 -0.893311 -0.307373
vn 0.327637 -0.893311 -0.307373
vn -0.290527 -0.912598 -0.287354
vn -0.290527 -0.912598 -0.287354
vn -0.290527 -0.912598 -0.287354
vn 0.290527 -0.912598 -0.287354
vn 0.290527 -0.912598 -0.287354
vn 0.290527 -0.912598 -0.287354
vn -0.074707 -0.985840 0.149170
vn -0.074707 -0.985840 0.149170
vn -0.074707 -0.985840 0.149170
vn 0.074707 -0.985840 0.149170
vn 0.074707 -0.985840 0.149170
vn 0.074707 -0.985840 0.149170
vn -0.178467 -0.812500 0.554688
vn -0.178467 -0.812500 0.554688
vn -0.178467 -0.812500 0.554688
vn 0.178467 -0.812500 0.554688
vn 0.178467 -0.812500 0.554688
vn 0.178467 -0.812500 0.554688
vn -0.250000 -0.853027 0.457520
vn -0.250000 -0.853027 0.457520
vn -0.250000 -0.853027 0.457520
vn 0.250000 -0.853027 0.457520
vn 0.250000 -0.853027 0.457520
vn 0.250000 -0.853027 0.457520
vn -0.438721 -0.599121 0.669434
vn -0.438721 -0.599121 0.669434
vn -0.438721 -0.599121 0.669434
vn 0.438721 -0.599121 0.669434
vn 0.438721 -0.599121 0.669434
vn 0.438721 -0.599121 0.669434
vn -0.263916 -0.503418 0.822510
vn -0.263916 -0.503418 0.822510
vn -0.263916 -0.503418 0.822510
vn 0.263916 -0.503418 0.822510
vn 0.263916 -0.503418 0.822510
vn 0.263916 -0.503418 0.822510
vn -0.283691 -0.045166 0.957764
vn -0.283691 -0.045166 0.957764
vn -0.283691 -0.045166 0.957764
vn 0.283691 -0.045166 0.957764
vn 0.283691 -0.045166 0.957764
vn 0.283691 -0.045166 0.957764
vn -0.073486 0.393555 0.916260
vn -0.073486 0.393555 0.916260
vn -0.073486 0.393555 0.916260
vn 0.073486 0.393555 0.916260
vn 0.073486 0.393555 0.916260
vn 0.073486 0.393555 0.916260
vn -0.303955 0.127441 0.943848
vn -0.303955 0.127441 0.943848
vn -0.303955 0.127441 0.943848
vn 0.303955 0.127441 0.943848
vn 0.303955 0.127441 0.943848
vn 0.303955 0.127441 0.943848
vn -0.246826 -0.076904 0.965820
vn -0.246826 -0.076904 0.965820
vn -0.246826 -0.076904 0.965820
vn 0.246826 -0.076904 0.965820
vn 0.246826 -0.076904 0.965820
vn 0.246826 -0.076904 0.965820
vn 0.093018 0.314453 0.944580
vn 0.093018 0.314453 0.944580
vn 0.093018 0.314453 0.944580
vn -0.093018 0.314453 0.944580
vn -0.093018 0.314453 0.944580
vn -0.093018 0.314453 0.944580
vn -0.823975 -0.526611 -0.207764
vn -0.823975 -0.526611 -0.207764
vn -0.823975 -0.526611 -0.207764
vn -0.810791 -0.481934 0.331787
vn -0.810791 -0.481934 0.331787
vn -0.810791 -0.481934 0.331787
vn -0.718018 -0.357910 0.596680
vn -0.718018 -0.357910 0.596680
vn -0.718018 -0.357910 0.596680
vn -0.804688 -0.065674 0.589600
vn -0.804688 -0.065674 0.589600
vn -0.804688 -0.065674 0.589600
vn -0.795898 -0.048096 0.603271
vn -0.795898 -0.048096 0.603271
vn -0.795898 -0.048096 0.603271
vn -0.838135 -0.419434 0.347900
vn -0.838135 -0.419434 0.347900
vn -0.838135 -0.419434 0.347900
vn -0.978516 -0.149414 0.141113
vn -0.978516 -0.149414 0.141113
vn -0.978516 -0.149414 0.141113
vn -0.983643 -0.036865 0.175781
vn -0.983643 -0.036865 0.175781
vn -0.983643 -0.036865 0.175781
vn -0.962402 -0.085449 -0.257080
vn -0.962402 -0.085449 -0.257080
vn -0.962402 -0.085449 -0.257080
vn -0.640381 -0.274170 -0.717285
vn -0.640381 -0.274170 -0.717285
vn -0.640381 -0.274170 -0.717285
vn -0.639160 -0.331787 -0.693604
vn -0.639160 -0.331787 -0.693604
vn -0.639160 -0.331787 -0.693604
vn -0.893311 -0.364746 -0.261719
vn -0.893311 -0.364746 -0.261719
vn -0.893311 -0.364746 -0.261719
vn -0.954834 -0.285156 -0.080322
vn -0.954834 -0.285156 -0.080322
vn -0.954834 -0.285156 -0.080322
vn -0.371582 0.369873 -0.851318
vn -0.371582 0.369873 -0.851318
vn -0.371582 0.369873 -0.851318
vn -0.862061 0.385498 -0.328369
vn -0.862061 0.385498 -0.328369
vn -0.862061 0.385498 -0.328369
vn -0.367920 0.348633 -0.861816
vn -0.367920 0.348633 -0.861816
vn -0.367920 0.348633 -0.861816
vn -0.244141 0.797852 -0.550781
vn -0.244141 0.797852 -0.550781
vn -0.244141 0.797852 -0.550781
vn -0.810547 0.335449 -0.479736
vn -0.810547 0.335449 -0.479736
vn -0.810547 0.335449 -0.479736
vn -0.897217 -0.357178 -0.258545
vn -0.897217 -0.357178 -0.258545
vn -0.897217 -0.357178 -0.258545
vn -0.246582 0.574951 -0.779785
vn -0.246582 0.574951 -0.779785
vn -0.246582 0.574951 -0.779785
vn -0.242676 0.557617 -0.793457
vn -0.242676 0.557617 -0.793457
vn -0.242676 0.557617 -0.793457
vn -0.896729 0.061768 -0.437988
vn -0.896729 0.061768 -0.437988
vn -0.896729 0.061768 -0.437988
vn -0.105713 0.539062 -0.835449
vn -0.105713 0.539062 -0.835449
vn -0.105713 0.539062 -0.835449
vn -0.398438 -0.416260 -0.817139
vn -0.398438 -0.416260 -0.817139
vn -0.398438 -0.416260 -0.817139
vn -0.317383 -0.448242 -0.835449
vn -0.317383 -0.448242 -0.835449
vn -0.317383 -0.448242 -0.835449
vn -0.455322 -0.212158 -0.864502
vn -0.455322 -0.212158 -0.864502
vn -0.455322 -0.212158 -0.864502
vn -0.306396 -0.364746 -0.878906
vn -0.306396 -0.364746 -0.878906
vn -0.306396 -0.364746 -0.878906
vn -0.888428 0.032715 -0.457520
vn -0.888428 0.032715 -0.457520
vn -0.888428 0.032715 -0.457520
vn -0.941895 -0.271240 -0.197266
vn -0.941895 -0.271240 -0.197266
vn -0.941895 -0.271240 -0.197266
vn -0.988037 -0.006104 -0.152588
vn -0.988037 -0.006104 -0.152588
vn -0.988037 -0.006104 -0.152588
vn -0.914062 -0.158203 -0.372803
vn -0.914062 -0.158203 -0.372803
vn -0.914062 -0.158203 -0.372803
vn -0.566895 -0.028809 -0.822998
vn -0.566895 -0.028809 -0.822998
vn -0.566895 -0.028809 -0.822998
vn -0.502930 -0.070801 -0.861328
vn -0.502930 -0.070801 -0.861328
vn -0.502930 -0.070801 -0.861328
vn -0.485107 0.042725 -0.873047
vn -0.485107 0.042725 -0.873047
vn -0.485107 0.042725 -0.873047
vn -0.578857 0.241455 -0.778564
vn -0.578857 0.241455 -0.778564
vn -0.578857 0.241455 -0.778564
vn -0.992676 0.100586 -0.063721
vn -0.992676 0.100586 -0.063721
vn -0.992676 0.100586 -0.063721
vn -0.943848 -0.218018 -0.247314
vn -0.943848 -0.218018 -0.247314
vn -0.943848 -0.218018 -0.247314
vn -0.898193 -0.357422 -0.254883
vn -0.898193 -0.357422 -0.254883
vn -0.898193 -0.357422 -0.254883
vn -0.924072 0.063721 -0.376709
vn -0.924072 0.063721 -0.376709
vn -0.924072 0.063721 -0.376709
vn -0.793701 0.551758 -0.255127
vn -0.793701 0.551758 -0.255127
vn -0.793701 0.551758 -0.255127
vn -0.541504 0.840576 0.005371
vn -0.541504 0.840576 0.005371
vn -0.541504 0.840576 0.005371
vn -0.699951 0.464111 0.542480
vn -0.699951 0.464111 0.542480
vn -0.699951 0.464111 0.542480
vn -0.753662 0.093750 -0.650146
vn -0.753662 0.093750 -0.650146
vn -0.753662 0.093750 -0.650146
vn -0.756836 0.064941 -0.650146
vn -0.756836 0.064941 -0.650146
vn -0.756836 0.064941 -0.650146
vn -0.986328 0.098145 0.131592
vn -0.986328 0.098145 0.131592
vn -0.986328 0.098145 0.131592
vn -0.253906 0.203613 0.945312
vn -0.253906 0.203613 0.945312
vn -0.253906 0.203613 0.945312
vn -0.987061 0.093750 0.128906
vn -0.987061 0.093750 0.128906
vn -0.987061 0.093750 0.128906
vn -0.820557 0.284912 -0.495117
vn -0.820557 0.284912 -0.495117
vn -0.820557 0.284912 -0.495117
vn -0.985596 0.127930 0.110107
vn -0.985596 0.127930 0.110107
vn -0.985596 0.127930 0.110107
vn -0.809814 0.121582 0.573486
vn -0.809814 0.121582 0.573486
vn -0.809814 0.121582 0.573486
vn -0.991699 0.077393 0.100342
vn -0.991699 0.077393 0.100342
vn -0.991699 0.077393 0.100342
vn 0.823975 -0.526611 -0.207764
vn 0.823975 -0.526611 -0.207764
vn 0.823975 -0.526611 -0.207764
vn 0.810791 -0.481934 0.331787
vn 0.810791 -0.481934 0.331787
vn 0.810791 -0.481934 0.331787
vn 0.962402 -0.085449 -0.257080
vn 0.962402 -0.085449 -0.257080
vn 0.962402 -0.085449 -0.257080
vn 0.640381 -0.274170 -0.717285
vn 0.640381 -0.274170 -0.717285
vn 0.640381 -0.274170 -0.717285
vn 0.639160 -0.331787 -0.693604
vn 0.639160 -0.331787 -0.693604
vn 0.639160 -0.331787 -0.693604
vn 0.893311 -0.364746 -0.261719
vn 0.893311 -0.364746 -0.261719
vn 0.893311 -0.364746 -0.261719
vn 0.954834 -0.285156 -0.080322
vn 0.954834 -0.285156 -0.080322
vn 0.954834 -0.285156 -0.080322
vn 0.371582 0.369873 -0.851318
vn 0.371582 0.369873 -0.851318
vn 0.371582 0.369873 -0.851318
vn 0.862061 0.385498 -0.328369
vn 0.862061 0.385498 -0.328369
vn 0.862061 0.385498 -0.328369
vn 0.367920 0.348633 -0.861816
vn 0.367920 0.348633 -0.861816
vn 0.367920 0.348633 -0.861816
vn 0.244141 0.797852 -0.550781
vn 0.244141 0.797852 -0.550781
vn 0.244141 0.797852 -0.550781
vn 0.810547 0.335449 -0.479736
vn 0.810547 0.335449 -0.479736
vn 0.810547 0.335449 -0.479736
vn 0.897217 -0.357178 -0.258545
vn 0.897217 -0.357178 -0.258545
vn 0.897217 -0.357178 -0.258545
vn 0.246582 0.574951 -0.779785
vn 0.246582 0.574951 -0.779785
vn 0.246582 0.574951 -0.779785
vn 0.242676 0.557617 -0.793457
vn 0.242676 0.557617 -0.793457
vn 0.242676 0.557617 -0.793457
vn 0.896729 0.061768 -0.437988
vn 0.896729 0.061768 -0.437988
vn 0.896729 0.061768 -0.437988
vn 0.105713 0.539062 -0.835449
vn 0.105713 0.539062 -0.835449
vn 0.105713 0.539062 -0.835449
vn 0.398438 -0.416260 -0.817139
vn 0.398438 -0.416260 -0.817139
vn 0.398438 -0.416260 -0.817139
vn 0.317383 -0.448242 -0.835449
vn 0.317383 -0.448242 -0.835449
vn 0.317383 -0.448242 -0.835449
vn 0.455322 -0.212158 -0.864502
vn 0.455322 -0.212158 -0.864502
vn 0.455322 -0.212158 -0.864502
vn 0.306396 -0.364746 -0.878906
vn 0.306396 -0.364746 -0.878906
vn 0.306396 -0.364746 -0.878906
vn 0.888428 0.032715 -0.457520
vn 0.888428 0.032715 -0.457520
vn 0.888428 0.032715 -0.457520
vn 0.941895 -0.271240 -0.197266
vn 0.941895 -0.271240 -0.197266
vn 0.941895 -0.271240 -0.197266
vn 0.988037 -0.006104 -0.152588
vn 0.988037 -0.006104 -0.152588
vn 0.988037 -0.006104 -0.152588
vn 0.914062 -0.158203 -0.372803
vn 0.914062 -0.158203 -0.372803
vn 0.914062 -0.158203 -0.372803
vn 0.566895 -0.028809 -0.822998
vn 0.566895 -0.028809 -0.822998
vn 0.566895 -0.028809 -0.822998
vn 0.950928 0.211914 -0.225098
vn 0.950928 0.211914 -0.225098
vn 0.950928 0.211914 -0.225098
vn 0.502930 -0.070801 -0.861328
vn 0.502930 -0.070801 -0.861328
vn 0.502930 -0.070801 -0.861328
vn 0.485107 0.042725 -0.873047
vn 0.485107 0.042725 -0.873047
vn 0.485107 0.042725 -0.873047
vn 0.762695 0.405762 -0.503174
vn 0.762695 0.405762 -0.503174
vn 0.762695 0.405762 -0.503174
vn 0.578857 0.241455 -0.778564
vn 0.578857 0.241455 -0.778564
vn 0.578857 0.241455 -0.778564
vn 0.992676 0.100586 -0.063721
vn 0.992676 0.100586 -0.063721
vn 0.992676 0.100586 -0.063721
vn 0.943848 -0.218018 -0.247314
vn 0.943848 -0.218018 -0.247314
vn 0.943848 -0.218018 -0.247314
vn 0.898193 -0.357422 -0.254883
vn 0.898193 -0.357422 -0.254883
vn 0.898193 -0.357422 -0.254883
vn 0.838135 -0.419434 0.347900
vn 0.838135 -0.419434 0.347900
vn 0.838135 -0.419434 0.347900
vn 0.978516 -0.149414 0.141113
vn 0.978516 -0.149414 0.141113
vn 0.978516 -0.149414 0.141113
vn 0.924072 0.063721 -0.376709
vn 0.924072 0.063721 -0.376709
vn 0.924072 0.063721 -0.376709
vn 0.793701 0.551758 -0.255127
vn 0.793701 0.551758 -0.255127
vn 0.793701 0.551758 -0.255127
vn 0.541504 0.840576 0.005371
vn 0.541504 0.840576 0.005371
vn 0.541504 0.840576 0.005371
vn 0.699951 0.464111 0.542480
vn 0.699951 0.464111 0.542480
vn 0.699951 0.464111 0.542480
vn 0.753662 0.093750 -0.650146
vn 0.753662 0.093750 -0.650146
vn 0.753662 0.093750 -0.650146
vn 0.756836 0.064941 -0.650146
vn 0.756836 0.064941 -0.650146
vn 0.756836 0.064941 -0.650146
vn 0.986328 0.098145 0.131592
vn 0.986328 0.098145 0.131592
vn 0.986328 0.098145 0.131592
vn 0.983643 -0.036865 0.175781
vn 0.983643 -0.036865 0.175781
vn 0.983643 -0.036865 0.175781
vn 0.253906 0.203613 0.945312
vn 0.253906 0.203613 0.945312
vn 0.253906 0.203613 0.945312
vn 0.987061 0.093750 0.128906
vn 0.987061 0.093750 0.128906
vn 0.987061 0.093750 0.128906
vn 0.820557 0.284912 -0.495117
vn 0.820557 0.284912 -0.495117
vn 0.820557 0.284912 -0.495117
vn 0.985596 0.127930 0.110107
vn 0.985596 0.127930 0.110107
vn 0.985596 0.127930 0.110107
vn 0.809814 0.121582 0.573486
vn 0.809814 0.121582 0.573486
vn 0.809814 0.121582 0.573486
vn 0.795898 -0.048096 0.603271
vn 0.795898 -0.048096 0.603271
vn 0.795898 -0.048096 0.603271
vn 0.804688 -0.065674 0.589600
vn 0.804688 -0.065674 0.589600
vn 0.804688 -0.065674 0.589600
vn 0.991699 0.077393 0.100342
vn 0.991699 0.077393 0.100342
vn 0.991699 0.077393 0.100342
vn 0.718018 -0.357910 0.596680
vn 0.718018 -0.357910 0.596680
vn 0.718018 -0.357910 0.596680
vn -0.029053 0.999512 0.000000
vn -0.029053 0.999512 0.000000
vn -0.029053 0.999512 0.000000
vn -0.346191 0.933105 0.095215
vn -0.346191 0.933105 0.095215
vn -0.346191 0.933105 0.095215
vn 0.059082 0.976807 0.205566
vn 0.059082 0.976807 0.205566
vn 0.059082 0.976807 0.205566
vn 0.421387 0.906738 0.000000
vn 0.421387 0.906738 0.000000
vn 0.421387 0.906738 0.000000
vn -0.588867 0.042236 -0.806885
vn -0.588867 0.042236 -0.806885
vn -0.588867 0.042236 -0.806885
vn -0.673828 0.159424 -0.721436
vn -0.673828 0.159424 -0.721436
vn -0.673828 0.159424 -0.721436
vn 0.579834 0.240479 -0.778076
vn 0.579834 0.240479 -0.778076
vn 0.579834 0.240479 -0.778076
vn 0.663086 0.039307 -0.747314
vn 0.663086 0.039307 -0.747314
vn 0.663086 0.039307 -0.747314
vn -0.159668 0.354248 -0.921143
vn -0.159668 0.354248 -0.921143
vn -0.159668 0.354248 -0.921143
vn -0.244629 0.414795 -0.876221
vn -0.244629 0.414795 -0.876221
vn -0.244629 0.414795 -0.876221
vn 0.145752 0.409180 -0.900391
vn 0.145752 0.409180 -0.900391
vn 0.145752 0.409180 -0.900391
vn 0.290771 0.343262 -0.892822
vn 0.290771 0.343262 -0.892822
vn 0.290771 0.343262 -0.892822
vn -0.359375 -0.661865 -0.657471
vn -0.359375 -0.661865 -0.657471
vn -0.359375 -0.661865 -0.657471
vn -0.431885 -0.560303 -0.706543
vn -0.431885 -0.560303 -0.706543
vn -0.431885 -0.560303 -0.706543
vn 0.365723 -0.567383 -0.737549
vn 0.365723 -0.567383 -0.737549
vn 0.365723 -0.567383 -0.737549
vn 0.419922 -0.643799 -0.639404
vn 0.419922 -0.643799 -0.639404
vn 0.419922 -0.643799 -0.639404
vn -0.439209 -0.464600 -0.768799
vn -0.439209 -0.464600 -0.768799
vn -0.439209 -0.464600 -0.768799
vn -0.271729 -0.263184 -0.925537
vn -0.271729 -0.263184 -0.925537
vn -0.271729 -0.263184 -0.925537
vn 0.210205 -0.124268 0.969482
vn 0.210205 -0.124268 0.969482
vn 0.210205 -0.124268 0.969482
vn 0.161377 -0.187500 0.968750
vn 0.161377 -0.187500 0.968750
vn 0.161377 -0.187500 0.968750
vn -0.215576 -0.174805 0.960693
vn -0.215576 -0.174805 0.960693
vn -0.215576 -0.174805 0.960693
vn -0.155029 -0.125732 0.979736
vn -0.155029 -0.125732 0.979736
vn -0.155029 -0.125732 0.979736
vn -0.354492 0.083496 -0.931152
vn -0.354492 0.083496 -0.931152
vn -0.354492 0.083496 -0.931152
vn -0.350830 0.095459 -0.931396
vn -0.350830 0.095459 -0.931396
vn -0.350830 0.095459 -0.931396
vn -0.950928 0.211914 -0.225098
vn -0.950928 0.211914 -0.225098
vn -0.950928 0.211914 -0.225098
vn -0.762695 0.405762 -0.503174
vn -0.762695 0.405762 -0.503174
vn -0.762695 0.405762 -0.503174
vn -0.981201 0.178711 -0.070557
vn -0.981201 0.178711 -0.070557
vn -0.981201 0.178711 -0.070557
vn -0.980469 0.169189 -0.098633
vn -0.980469 0.169189 -0.098633
vn -0.980469 0.169189 -0.098633
vn -0.650635 0.172119 0.739502
vn -0.650635 0.172119 0.739502
vn -0.650635 0.172119 0.739502
vn -0.573975 0.346680 0.741699
vn -0.573975 0.346680 0.741699
vn -0.573975 0.346680 0.741699
vn -0.980469 -0.173828 0.089600
vn -0.980469 -0.173828 0.089600
vn -0.980469 -0.173828 0.089600
vn -0.995117 0.050781 -0.083496
vn -0.995117 0.050781 -0.083496
vn -0.995117 0.050781 -0.083496
vn -0.557373 -0.290283 0.777588
vn -0.557373 -0.290283 0.777588
vn -0.557373 -0.290283 0.777588
vn -0.559082 -0.173096 0.810547
vn -0.559082 -0.173096 0.810547
vn -0.559082 -0.173096 0.810547
vn 0.348877 0.083496 -0.933350
vn 0.348877 0.083496 -0.933350
vn 0.348877 0.083496 -0.933350
vn 0.355225 0.090820 -0.930176
vn 0.355225 0.090820 -0.930176
vn 0.355225 0.090820 -0.930176
vn 0.981689 0.166748 -0.091797
vn 0.981689 0.166748 -0.091797
vn 0.981689 0.166748 -0.091797
vn 0.979492 0.173340 -0.100830
vn 0.979492 0.173340 -0.100830
vn 0.979492 0.173340 -0.100830
vn 0.661621 0.276611 0.696533
vn 0.661621 0.276611 0.696533
vn 0.661621 0.276611 0.696533
vn 0.439209 0.234863 0.866943
vn 0.439209 0.234863 0.866943
vn 0.439209 0.234863 0.866943
vn 0.977051 -0.149658 -0.150879
vn 0.977051 -0.149658 -0.150879
vn 0.977051 -0.149658 -0.150879
vn 0.986816 0.124756 0.101807
vn 0.986816 0.124756 0.101807
vn 0.986816 0.124756 0.101807
vn 0.609375 -0.177979 0.772461
vn 0.609375 -0.177979 0.772461
vn 0.609375 -0.177979 0.772461
vn 0.510010 -0.288086 0.810303
vn 0.510010 -0.288086 0.810303
vn 0.510010 -0.288086 0.810303
vn -0.084229 0.995850 -0.032471
vn -0.084229 0.995850 -0.032471
vn -0.084229 0.995850 -0.032471
vn -0.380371 0.923096 0.052734
vn -0.380371 0.923096 0.052734
vn -0.380371 0.923096 0.052734
vn -0.586670 0.781738 0.210205
vn -0.586670 0.781738 0.210205
vn -0.586670 0.781738 0.210205
vn 0.191895 0.931396 -0.309082
vn 0.191895 0.931396 -0.309082
vn 0.191895 0.931396 -0.309082
vn 0.017822 0.945557 0.324707
vn 0.017822 0.945557 0.324707
vn 0.017822 0.945557 0.324707
vn 0.023438 0.902100 0.430420
vn 0.023438 0.902100 0.430420
vn 0.023438 0.902100 0.430420
vn -0.135986 0.990479 0.012695
vn -0.135986 0.990479 0.012695
vn -0.135986 0.990479 0.012695
vn 0.389160 0.900879 0.191162
vn 0.389160 0.900879 0.191162
vn 0.389160 0.900879 0.191162
usemtl Texture
f 1/1/1 2/2/2 3/3/3
f 4/4/4 5/5/5 6/6/6
f 7/7/7 8/8/8 9/9/9
f 10/10/10 11/11/11 12/12/12
f 13/13/13 14/14/14 15/15/15
f 16/16/16 17/17/17 18/18/18
f 19/19/19 20/20/20 21/21/21
f 22/22/22 23/23/23 24/24/24
f 25/25/25 26/26/26 27/27/27
f 28/28/28 29/29/29 30/30/30
f 31/31/31 32/32/32 33/33/33
f 34/34/34 35/35/35 36/36/36
f 37/37/37 38/38/38 39/39/39
f 40/40/40 41/41/41 42/42/42
f 43/43/43 44/44/44 45/45/45
f 46/46/46 47/47/47 48/48/48
f 49/49/49 50/50/50 51/51/51
f 52/52/52 53/53/53 54/54/54
f 55/55/55 56/56/56 57/57/57
f 58/58/58 59/59/59 60/60/60
f 61/61/61 62/62/62 63/63/63
f 64/64/64 65/65/65 66/66/66
f 67/67/67 68/68/68 69/69/69
f 70/70/70 71/71/71 72/72/72
f 73/73/73 74/74/74 75/75/75
f 76/76/76 77/77/77 78/78/78
f 79/79/79 80/80/80 81/81/81
f 82/82/82 83/83/83 84/84/84
f 85/85/85 86/86/86 87/87/87
f 88/88/88 89/89/89 90/90/90
f 91/91/91 92/92/92 93/93/93
f 94/94/94 95/95/95 96/96/96
f 97/97/97 98/98/98 99/99/99
f 100/100/100 101/101/101 102/102/102
f 103/103/103 104/104/104 105/105/105
f 106/106/106 107/107/107 108/108/108
f 109/109/109 110/110/110 111/111/111
f 112/112/112 113/113/113 114/114/114
f 115/115/115 116/116/116 117/117/117
f 118/118/118 119/119/119 120/120/120
f 121/121/121 122/122/122 123/123/123
f 124/124/124 125/125/125 126/126/126
f 127/127/127 128/128/128 129/129/129
f 130/130/130 131/131/131 132/132/132
f 133/133/133 134/134/134 135/135/135
f 136/136/136 137/137/137 138/138/138
f 139/139/139 140/140/140 141/141/141
f 142/142/142 143/143/143 144/144/144
f 145/145/145 146/146/146 147/147/147
f 148/148/148 149/149/149 150/150/150
f 151/151/151 152/152/152 153/153/153
f 154/154/154 155/155/155 156/156/156
f 157/157/157 158/158/158 159/159/159
f 160/160/160 161/161/161 162/162/162
f 163/163/163 164/164/164 165/165/165
f 166/166/166 167/167/167 168/168/168
f 169/169/169 170/170/170 171/171/171
f 172/172/172 173/173/173 174/174/174
f 175/175/175 176/176/176 177/177/177
f 178/178/178 179/179/179 180/180/180
f 181/181/181 182/182/182 183/183/183
f 184/184/184 185/185/185 186/186/186
f 187/187/187 188/188/188 189/189/189
f 190/190/190 191/191/191 192/192/192
f 193/193/193 194/194/194 195/195/195
f 196/196/196 197/197/197 198/198/198
f 199/199/199 200/200/200 201/201/201
f 202/202/202 203/203/203 204/204/204
f 205/205/205 206/206/206 207/207/207
f 208/208/208 209/209/209 210/210/210
f 211/211/211 212/212/212 213/213/213
f 214/214/214 215/215/215 216/216/216
f 217/217/217 218/218/218 219/219/219
f 220/220/220 221/221/221 222/222/222
f 223/223/223 224/224/224 225/225/225
f 226/226/226 227/227/227 228/228/228
f 229/229/229 230/230/230 231/231/231
f 232/232/232 233/233/233 234/234/234
f 235/235/235 236/236/236 237/237/237
f 238/238/238 239/239/239 240/240/240
f 241/241/241 242/242/242 243/243/243
f 244/244/244 245/245/245 246/246/246
f 247/247/247 248/248/248 249/249/249
f 250/250/250 251/251/251 252/252/252
f 253/253/253 254/254/254 255/255/255
f 256/256/256 257/257/257 258/258/258
f 259/259/259 260/260/260 261/261/261
f 262/262/262 263/263/263 264/264/264
f 265/265/265 266/266/266 267/267/267
f 268/268/268 269/269/269 270/270/270
f 271/271/271 272/272/272 273/273/273
f 274/274/274 275/275/275 276/276/276
f 277/277/277 278/278/278 279/279/279
f 280/280/280 281/281/281 282/282/282
f 283/283/283 284/284/284 285/285/285
f 286/286/286 287/287/287 288/288/288
f 289/289/289 290/290/290 291/291/291
f 292/292/292 293/293/293 294/294/294
f 295/295/295 296/296/296 297/297/297
f 298/298/298 299/299/299 300/300/300
f 301/301/301 302/302/302 303/303/303
f 304/304/304 305/305/305 306/306/306
f 307/307/307 308/308/308 309/309/309
f 310/310/310 311/311/311 312/312/312
f 313/313/313 314/314/314 315/315/315
f 316/316/316 317/317/317 318/318/318
f 319/319/319 320/320/320 321/321/321
f 322/322/322 323/323/323 324/324/324
f 325/325/325 326/326/326 327/327/327
f 328/328/328 329/329/329 330/330/330
f 331/331/331 332/332/332 333/333/333
f 334/334/334 335/335/335 336/336/336
f 337/337/337 338/338/338 339/339/339
f 340/340/340 341/341/341 342/342/342
f 343/343/343 344/344/344 345/345/345
f 346/346/346 347/347/347 348/348/348
f 349/349/349 350/350/350 351/351/351
f 352/352/352 353/353/353 354/354/354
f 355/355/355 356/356/356 357/357/357
f 358/358/358 359/359/359 360/360/360
f 361/361/361 362/362/362 363/363/363
f 364/364/364 365/365/365 366/366/366
f 367/367/367 368/368/368 369/369/369
f 370/370/370 371/371/371 372/372/372
f 373/373/373 374/374/374 375/375/375
f 376/376/376 377/377/377 378/378/378
f 379/379/379 380/380/380 381/381/381
f 382/382/382 383/383/383 384/384/384
f 385/385/385 386/386/386 387/387/387
f 388/388/388 389/389/389 390/390/390
f 391/391/391 392/392/392 393/393/393
f 394/394/394 395/395/395 396/396/396
f 397/397/397 398/398/398 399/399/399
f 400/400/400 401/401/401 402/402/402
f 403/403/403 404/404/404 405/405/405
f 406/406/406 407/407/407 408/408/408
f 409/409/409 410/410/410 411/411/411
f 412/412/412 413/413/413 414/414/414
f 415/415/415 416/416/416 417/417/417
f 418/418/418 419/419/419 420/420/420
f 421/421/421 422/422/422 423/423/423
f 424/424/424 425/425/425 426/426/426
f 427/427/427 428/428/428 429/429/429
f 430/430/430 431/431/431 432/432/432
f 433/433/433 434/434/434 435/435/435
f 436/436/436 437/437/437 438/438/438
f 439/439/439 440/440/440 441/441/441
f 442/442/442 443/443/443 444/444/444
f 445/445/445 446/446/446 447/447/447
f 448/448/448 449/449/449 450/450/450
f 451/451/451 452/452/452 453/453/453
f 454/454/454 455/455/455 456/456/456
f 457/457/457 458/458/458 459/459/459
f 460/460/460 461/461/461 462/462/462
f 463/463/463 464/464/464 465/465/465
f 466/466/466 467/467/467 468/468/468
f 469/469/469 470/470/470 471/471/471
f 472/472/472 473/473/473 474/474/474
f 475/475/475 476/476/476 477/477/477
f 478/478/478 479/479/479 480/480/480
f 481/481/481 482/482/482 483/483/483
f 484/484/484 485/485/485 486/486/486
f 487/487/487 488/488/488 489/489/489
f 490/490/490 491/491/491 492/492/492
f 493/493/493 494/494/494 495/495/495
f 496/496/496 497/497/497 498/498/498
f 499/499/499 500/500/500 501/501/501
f 502/502/502 503/503/503 504/504/504
f 505/505/505 506/506/506 507/507/507
f 508/508/508 509/509/509 510/510/510
f 511/511/511 512/512/512 513/513/513
f 514/514/514 515/515/515 516/516/516
f 517/517/517 518/518/518 519/519/519
f 520/520/520 521/521/521 522/522/522
f 523/523/523 524/524/524 525/525/525
f 526/526/526 527/527/527 528/528/528
f 529/529/529 530/530/530 531/531/531
f 532/532/532 533/533/533 534/534/534
f 535/535/535 536/536/536 537/537/537
f 538/538/538 539/539/539 540/540/540
f 541/541/541 542/542/542 543/543/543
f 544/544/544 545/545/545 546/546/546
f 547/547/547 548/548/548 549/549/549
f 550/550/550 551/551/551 552/552/552
f 553/553/553 554/554/554 555/555/555
f 556/556/556 557/557/557 558/558/558
f 559/559/559 560/560/560 561/561/561
f 562/562/562 563/563/563 564/564/564
f 565/565/565 566/566/566 567/567/567
f 568/568/568 569/569/569 570/570/570
f 571/571/571 572/572/572 573/573/573
f 574/574/574 575/575/575 576/576/576
f 577/577/577 578/578/578 579/579/579
f 580/580/580 581/581/581 582/582/582
f 583/583/583 584/584/584 585/585/585
f 586/586/586 587/587/587 588/588/588
f 589/589/589 590/590/590 591/591/591
f 592/592/592 593/593/593 594/594/594
f 595/595/595 596/596/596 597/597/597
f 598/598/598 599/599/599 600/600/600
f 601/601/601 602/602/602 603/603/603
f 604/604/604 605/605/605 606/606/606
