# OBJ file
mtllib GOBLIN.ICO.mtl
v 0.770996 1.966797 -0.271240 1.000000 1.000000 1.000000 #1.000000
v 0.788086 2.549561 -0.510498 1.000000 1.000000 1.000000 #1.000000
v 0.373291 1.997314 -0.722900 1.000000 1.000000 1.000000 #1.000000
v 0.742676 2.013184 -0.586670 1.000000 1.000000 1.000000 #1.000000
v 0.788086 2.549561 -0.510498 1.000000 1.000000 1.000000 #1.000000
v 0.770996 1.966797 -0.271240 1.000000 1.000000 1.000000 #1.000000
v 0.373291 1.997314 -0.722900 1.000000 1.000000 1.000000 #1.000000
v 0.788086 2.549561 -0.510498 1.000000 1.000000 1.000000 #1.000000
v 0.742676 2.013184 -0.586670 1.000000 1.000000 1.000000 #1.000000
v 0.334229 2.629639 -0.583252 1.000000 1.000000 1.000000 #1.000000
v 0.273438 2.588379 -0.881836 1.000000 1.000000 1.000000 #1.000000
v 0.000000 2.894043 -0.579834 1.000000 1.000000 1.000000 #1.000000
v 0.699463 2.572998 -0.336670 1.000000 1.000000 1.000000 #1.000000
v 0.334229 2.629639 -0.583252 1.000000 1.000000 1.000000 #1.000000
v 0.274902 2.754395 -0.400391 1.000000 1.000000 1.000000 #1.000000
v 0.547607 2.911133 -0.260742 1.000000 1.000000 1.000000 #1.000000
v 0.699463 2.572998 -0.336670 1.000000 1.000000 1.000000 #1.000000
v 0.274902 2.754395 -0.400391 1.000000 1.000000 1.000000 #1.000000
v 0.000000 2.894043 -0.579834 1.000000 1.000000 1.000000 #1.000000
v 0.274902 2.754395 -0.400391 1.000000 1.000000 1.000000 #1.000000
v 0.334229 2.629639 -0.583252 1.000000 1.000000 1.000000 #1.000000
v 0.699463 2.572998 -0.336670 1.000000 1.000000 1.000000 #1.000000
v 0.901123 2.002441 -0.173096 1.000000 1.000000 1.000000 #1.000000
v 0.382568 2.222168 -0.625732 1.000000 1.000000 1.000000 #1.000000
v 0.334229 2.629639 -0.583252 1.000000 1.000000 1.000000 #1.000000
v 0.382568 2.222168 -0.625732 1.000000 1.000000 1.000000 #1.000000
v 0.000000 2.437256 -0.835205 1.000000 1.000000 1.000000 #1.000000
v 0.382568 2.222168 -0.625732 1.000000 1.000000 1.000000 #1.000000
v 0.000000 2.317383 -0.851074 1.000000 1.000000 1.000000 #1.000000
v 0.000000 2.437256 -0.835205 1.000000 1.000000 1.000000 #1.000000
v 0.000000 2.732178 -0.916992 1.000000 1.000000 1.000000 #1.000000
v 0.273438 2.588379 -0.881836 1.000000 1.000000 1.000000 #1.000000
v 0.000000 2.537109 -0.996826 1.000000 1.000000 1.000000 #1.000000
v 0.273438 2.588379 -0.881836 1.000000 1.000000 1.000000 #1.000000
v 0.000000 2.437256 -0.835205 1.000000 1.000000 1.000000 #1.000000
v 0.000000 2.537109 -0.996826 1.000000 1.000000 1.000000 #1.000000
v 0.000000 1.906982 -1.214844 1.000000 1.000000 1.000000 #1.000000
v 0.518799 1.906982 -1.080566 1.000000 1.000000 1.000000 #1.000000
v 0.000000 1.533447 -1.088379 1.000000 1.000000 1.000000 #1.000000
v 0.518799 1.906982 -1.080566 1.000000 1.000000 1.000000 #1.000000
v 0.447266 1.533447 -0.975098 1.000000 1.000000 1.000000 #1.000000
v 0.000000 1.533447 -1.088379 1.000000 1.000000 1.000000 #1.000000
v 0.675293 1.578369 -0.510742 1.000000 1.000000 1.000000 #1.000000
v 0.447266 1.533447 -0.975098 1.000000 1.000000 1.000000 #1.000000
v 0.769287 1.954834 -0.626709 1.000000 1.000000 1.000000 #1.000000
v 0.447266 1.533447 -0.975098 1.000000 1.000000 1.000000 #1.000000
v 0.518799 1.906982 -1.080566 1.000000 1.000000 1.000000 #1.000000
v 0.769287 1.954834 -0.626709 1.000000 1.000000 1.000000 #1.000000
v 0.000000 2.173584 0.109375 1.000000 1.000000 1.000000 #1.000000
v 0.563477 2.188965 -1.026367 1.000000 1.000000 1.000000 #1.000000
v 0.000000 2.249268 -1.166992 1.000000 1.000000 1.000000 #1.000000
v 0.563477 2.188965 -1.026367 1.000000 1.000000 1.000000 #1.000000
v 0.000000 2.173584 0.109375 1.000000 1.000000 1.000000 #1.000000
v 0.793457 2.095703 -0.599609 1.000000 1.000000 1.000000 #1.000000
v 0.273438 2.588379 -0.881836 1.000000 1.000000 1.000000 #1.000000
v 0.334229 2.629639 -0.583252 1.000000 1.000000 1.000000 #1.000000
v 0.000000 2.437256 -0.835205 1.000000 1.000000 1.000000 #1.000000
v 1.535400 3.166504 0.792236 1.000000 1.000000 1.000000 #1.000000
v 1.482910 3.375977 0.495361 1.000000 1.000000 1.000000 #1.000000
v 0.772461 2.801514 0.596924 1.000000 1.000000 1.000000 #1.000000
v 0.772461 2.801514 0.596924 1.000000 1.000000 1.000000 #1.000000
v 1.482910 3.375977 0.495361 1.000000 1.000000 1.000000 #1.000000
v 0.853760 3.160645 0.201416 1.000000 1.000000 1.000000 #1.000000
v 0.833984 2.718506 0.032715 1.000000 1.000000 1.000000 #1.000000
v 1.482910 3.375977 0.495361 1.000000 1.000000 1.000000 #1.000000
v 1.653564 2.759277 0.732178 1.000000 1.000000 1.000000 #1.000000
v 0.900635 2.477783 0.178955 1.000000 1.000000 1.000000 #1.000000
v 1.653564 2.759277 0.732178 1.000000 1.000000 1.000000 #1.000000
v 0.772461 2.801514 0.596924 1.000000 1.000000 1.000000 #1.000000
v 0.772461 2.801514 0.596924 1.000000 1.000000 1.000000 #1.000000
v 1.653564 2.759277 0.732178 1.000000 1.000000 1.000000 #1.000000
v 1.535400 3.166504 0.792236 1.000000 1.000000 1.000000 #1.000000
v 1.535400 3.166504 0.792236 1.000000 1.000000 1.000000 #1.000000
v 2.449219 3.423584 0.592285 1.000000 1.000000 1.000000 #1.000000
v 1.482910 3.375977 0.495361 1.000000 1.000000 1.000000 #1.000000
v 1.653564 2.759277 0.732178 1.000000 1.000000 1.000000 #1.000000
v 2.449219 3.423584 0.592285 1.000000 1.000000 1.000000 #1.000000
v 1.535400 3.166504 0.792236 1.000000 1.000000 1.000000 #1.000000
v 0.833984 2.718506 0.032715 1.000000 1.000000 1.000000 #1.000000
v 0.687500 2.918701 -0.031006 1.000000 1.000000 1.000000 #1.000000
v 0.853760 3.160645 0.201416 1.000000 1.000000 1.000000 #1.000000
v 0.772461 2.801514 0.596924 1.000000 1.000000 1.000000 #1.000000
v 0.853760 3.160645 0.201416 1.000000 1.000000 1.000000 #1.000000
v 0.687500 2.918701 -0.031006 1.000000 1.000000 1.000000 #1.000000
v 0.699463 2.572998 -0.336670 1.000000 1.000000 1.000000 #1.000000
v 0.547607 2.911133 -0.260742 1.000000 1.000000 1.000000 #1.000000
v 0.833984 2.718506 0.032715 1.000000 1.000000 1.000000 #1.000000
v 0.901123 2.002441 -0.173096 1.000000 1.000000 1.000000 #1.000000
v 0.833984 2.718506 0.032715 1.000000 1.000000 1.000000 #1.000000
v 0.900635 2.477783 0.178955 1.000000 1.000000 1.000000 #1.000000
v 0.547607 2.911133 -0.260742 1.000000 1.000000 1.000000 #1.000000
v 0.687500 2.918701 -0.031006 1.000000 1.000000 1.000000 #1.000000
v 0.833984 2.718506 0.032715 1.000000 1.000000 1.000000 #1.000000
v 0.901123 2.002441 -0.173096 1.000000 1.000000 1.000000 #1.000000
v 0.699463 2.572998 -0.336670 1.000000 1.000000 1.000000 #1.000000
v 0.833984 2.718506 0.032715 1.000000 1.000000 1.000000 #1.000000
v 0.900635 2.477783 0.178955 1.000000 1.000000 1.000000 #1.000000
v 0.833984 2.718506 0.032715 1.000000 1.000000 1.000000 #1.000000
v 1.653564 2.759277 0.732178 1.000000 1.000000 1.000000 #1.000000
v 2.449219 3.423584 0.592285 1.000000 1.000000 1.000000 #1.000000
v 1.653564 2.759277 0.732178 1.000000 1.000000 1.000000 #1.000000
v 1.482910 3.375977 0.495361 1.000000 1.000000 1.000000 #1.000000
v 0.308350 2.923340 -0.479004 1.000000 1.000000 1.000000 #1.000000
v 0.274902 2.754395 -0.400391 1.000000 1.000000 1.000000 #1.000000
v 0.000000 2.894043 -0.579834 1.000000 1.000000 1.000000 #1.000000
v 0.308350 2.923340 -0.479004 1.000000 1.000000 1.000000 #1.000000
v 0.000000 3.122070 -0.577881 1.000000 1.000000 1.000000 #1.000000
v 0.470703 3.111816 -0.448486 1.000000 1.000000 1.000000 #1.000000
v 0.532227 3.149902 -0.105469 1.000000 1.000000 1.000000 #1.000000
v 0.547607 2.911133 -0.260742 1.000000 1.000000 1.000000 #1.000000
v 0.470703 3.111816 -0.448486 1.000000 1.000000 1.000000 #1.000000
v 0.470703 3.111816 -0.448486 1.000000 1.000000 1.000000 #1.000000
v 0.547607 2.911133 -0.260742 1.000000 1.000000 1.000000 #1.000000
v 0.308350 2.923340 -0.479004 1.000000 1.000000 1.000000 #1.000000
v 0.000000 2.894043 -0.579834 1.000000 1.000000 1.000000 #1.000000
v 0.273438 2.588379 -0.881836 1.000000 1.000000 1.000000 #1.000000
v 0.000000 2.732178 -0.916992 1.000000 1.000000 1.000000 #1.000000
v 0.547607 2.911133 -0.260742 1.000000 1.000000 1.000000 #1.000000
v 0.532227 3.149902 -0.105469 1.000000 1.000000 1.000000 #1.000000
v 0.687500 2.918701 -0.031006 1.000000 1.000000 1.000000 #1.000000
v 0.470703 3.111816 -0.448486 1.000000 1.000000 1.000000 #1.000000
v 0.000000 3.122070 -0.577881 1.000000 1.000000 1.000000 #1.000000
v 0.532227 3.149902 -0.105469 1.000000 1.000000 1.000000 #1.000000
v 0.000000 2.894043 -0.579834 1.000000 1.000000 1.000000 #1.000000
v 0.000000 3.122070 -0.577881 1.000000 1.000000 1.000000 #1.000000
v 0.308350 2.923340 -0.479004 1.000000 1.000000 1.000000 #1.000000
v 0.000000 3.324219 0.154785 1.000000 1.000000 1.000000 #1.000000
v 0.343018 3.130859 0.860107 1.000000 1.000000 1.000000 #1.000000
v 0.532227 3.149902 -0.105469 1.000000 1.000000 1.000000 #1.000000
v 0.343018 3.130859 0.860107 1.000000 1.000000 1.000000 #1.000000
v 0.298584 2.540283 1.056152 1.000000 1.000000 1.000000 #1.000000
v 0.772461 2.801514 0.596924 1.000000 1.000000 1.000000 #1.000000
v 0.532227 3.149902 -0.105469 1.000000 1.000000 1.000000 #1.000000
v 0.000000 3.122070 -0.577881 1.000000 1.000000 1.000000 #1.000000
v 0.000000 3.324219 0.154785 1.000000 1.000000 1.000000 #1.000000
v 0.838623 2.229736 0.382812 1.000000 1.000000 1.000000 #1.000000
v 0.298584 2.540283 1.056152 1.000000 1.000000 1.000000 #1.000000
v 0.541992 1.981689 0.586426 1.000000 1.000000 1.000000 #1.000000
v 0.298584 2.540283 1.056152 1.000000 1.000000 1.000000 #1.000000
v 0.900635 2.477783 0.178955 1.000000 1.000000 1.000000 #1.000000
v 0.772461 2.801514 0.596924 1.000000 1.000000 1.000000 #1.000000
v 0.772461 2.801514 0.596924 1.000000 1.000000 1.000000 #1.000000
v 0.687500 2.918701 -0.031006 1.000000 1.000000 1.000000 #1.000000
v 0.532227 3.149902 -0.105469 1.000000 1.000000 1.000000 #1.000000
v 0.838623 2.229736 0.382812 1.000000 1.000000 1.000000 #1.000000
v 1.045654 1.693115 -0.046387 1.000000 1.000000 1.000000 #1.000000
v 0.900635 2.477783 0.178955 1.000000 1.000000 1.000000 #1.000000
v 1.045654 1.693115 -0.046387 1.000000 1.000000 1.000000 #1.000000
v 0.901123 2.002441 -0.173096 1.000000 1.000000 1.000000 #1.000000
v 0.900635 2.477783 0.178955 1.000000 1.000000 1.000000 #1.000000
v 0.343018 3.130859 0.860107 1.000000 1.000000 1.000000 #1.000000
v 0.772461 2.801514 0.596924 1.000000 1.000000 1.000000 #1.000000
v 0.532227 3.149902 -0.105469 1.000000 1.000000 1.000000 #1.000000
v 0.547607 2.911133 -0.260742 1.000000 1.000000 1.000000 #1.000000
v 0.274902 2.754395 -0.400391 1.000000 1.000000 1.000000 #1.000000
v 0.308350 2.923340 -0.479004 1.000000 1.000000 1.000000 #1.000000
v 0.853760 3.160645 0.201416 1.000000 1.000000 1.000000 #1.000000
v 1.482910 3.375977 0.495361 1.000000 1.000000 1.000000 #1.000000
v 0.833984 2.718506 0.032715 1.000000 1.000000 1.000000 #1.000000
v 0.699463 2.572998 -0.336670 1.000000 1.000000 1.000000 #1.000000
v 0.382568 2.222168 -0.625732 1.000000 1.000000 1.000000 #1.000000
v 0.334229 2.629639 -0.583252 1.000000 1.000000 1.000000 #1.000000
v 0.000000 2.249268 -1.166992 1.000000 1.000000 1.000000 #1.000000
v 0.563477 2.188965 -1.026367 1.000000 1.000000 1.000000 #1.000000
v 0.000000 1.906982 -1.214844 1.000000 1.000000 1.000000 #1.000000
v 0.563477 2.188965 -1.026367 1.000000 1.000000 1.000000 #1.000000
v 0.518799 1.906982 -1.080566 1.000000 1.000000 1.000000 #1.000000
v 0.000000 1.906982 -1.214844 1.000000 1.000000 1.000000 #1.000000
v 0.518799 1.906982 -1.080566 1.000000 1.000000 1.000000 #1.000000
v 0.563477 2.188965 -1.026367 1.000000 1.000000 1.000000 #1.000000
v 0.769287 1.954834 -0.626709 1.000000 1.000000 1.000000 #1.000000
v 0.769287 1.954834 -0.626709 1.000000 1.000000 1.000000 #1.000000
v 0.563477 2.188965 -1.026367 1.000000 1.000000 1.000000 #1.000000
v 0.793457 2.095703 -0.599609 1.000000 1.000000 1.000000 #1.000000
v 0.313477 1.205566 -0.738037 1.000000 1.000000 1.000000 #1.000000
v 0.000000 1.088135 -0.377197 1.000000 1.000000 1.000000 #1.000000
v 0.000000 1.193359 -0.848877 1.000000 1.000000 1.000000 #1.000000
v 0.000000 1.937744 0.615479 1.000000 1.000000 1.000000 #1.000000
v 0.000000 1.197998 0.109131 1.000000 1.000000 1.000000 #1.000000
v 0.541992 1.981689 0.586426 1.000000 1.000000 1.000000 #1.000000
v 0.541992 1.981689 0.586426 1.000000 1.000000 1.000000 #1.000000
v 0.000000 1.197998 0.109131 1.000000 1.000000 1.000000 #1.000000
v 0.556885 1.298584 0.080322 1.000000 1.000000 1.000000 #1.000000
v 0.000000 1.937744 0.615479 1.000000 1.000000 1.000000 #1.000000
v 0.541992 1.981689 0.586426 1.000000 1.000000 1.000000 #1.000000
v 0.000000 2.540283 1.157227 1.000000 1.000000 1.000000 #1.000000
v 0.541992 1.981689 0.586426 1.000000 1.000000 1.000000 #1.000000
v 0.298584 2.540283 1.056152 1.000000 1.000000 1.000000 #1.000000
v 0.000000 2.540283 1.157227 1.000000 1.000000 1.000000 #1.000000
v 0.000000 2.540283 1.157227 1.000000 1.000000 1.000000 #1.000000
v 0.298584 2.540283 1.056152 1.000000 1.000000 1.000000 #1.000000
v 0.000000 3.130859 0.860107 1.000000 1.000000 1.000000 #1.000000
v 0.298584 2.540283 1.056152 1.000000 1.000000 1.000000 #1.000000
v 0.343018 3.130859 0.860107 1.000000 1.000000 1.000000 #1.000000
v 0.000000 3.130859 0.860107 1.000000 1.000000 1.000000 #1.000000
v 0.343018 3.130859 0.860107 1.000000 1.000000 1.000000 #1.000000
v 0.000000 3.324219 0.154785 1.000000 1.000000 1.000000 #1.000000
v 0.000000 3.130859 0.860107 1.000000 1.000000 1.000000 #1.000000
v 1.045654 1.693115 -0.046387 1.000000 1.000000 1.000000 #1.000000
v 0.838623 2.229736 0.382812 1.000000 1.000000 1.000000 #1.000000
v 0.556885 1.298584 0.080322 1.000000 1.000000 1.000000 #1.000000
v 0.556885 1.298584 0.080322 1.000000 1.000000 1.000000 #1.000000
v 0.838623 2.229736 0.382812 1.000000 1.000000 1.000000 #1.000000
v 0.541992 1.981689 0.586426 1.000000 1.000000 1.000000 #1.000000
v 0.447266 1.533447 -0.975098 1.000000 1.000000 1.000000 #1.000000
v 0.675293 1.578369 -0.510742 1.000000 1.000000 1.000000 #1.000000
v 0.313477 1.205566 -0.738037 1.000000 1.000000 1.000000 #1.000000
v 0.471680 1.202148 -0.328613 1.000000 1.000000 1.000000 #1.000000
v 0.313477 1.205566 -0.738037 1.000000 1.000000 1.000000 #1.000000
v 0.675293 1.578369 -0.510742 1.000000 1.000000 1.000000 #1.000000
v 0.000000 1.533447 -1.088379 1.000000 1.000000 1.000000 #1.000000
v 0.447266 1.533447 -0.975098 1.000000 1.000000 1.000000 #1.000000
v 0.000000 1.193359 -0.848877 1.000000 1.000000 1.000000 #1.000000
v 0.447266 1.533447 -0.975098 1.000000 1.000000 1.000000 #1.000000
v 0.313477 1.205566 -0.738037 1.000000 1.000000 1.000000 #1.000000
v 0.000000 1.193359 -0.848877 1.000000 1.000000 1.000000 #1.000000
v 0.900635 2.477783 0.178955 1.000000 1.000000 1.000000 #1.000000
v 0.298584 2.540283 1.056152 1.000000 1.000000 1.000000 #1.000000
v 0.838623 2.229736 0.382812 1.000000 1.000000 1.000000 #1.000000
v 0.793457 2.095703 -0.599609 1.000000 1.000000 1.000000 #1.000000
v 0.000000 2.173584 0.109375 1.000000 1.000000 1.000000 #1.000000
v 0.901123 2.002441 -0.173096 1.000000 1.000000 1.000000 #1.000000
v 0.901123 2.002441 -0.173096 1.000000 1.000000 1.000000 #1.000000
v 0.769287 1.954834 -0.626709 1.000000 1.000000 1.000000 #1.000000
v 0.793457 2.095703 -0.599609 1.000000 1.000000 1.000000 #1.000000
v 0.675293 1.578369 -0.510742 1.000000 1.000000 1.000000 #1.000000
v 0.769287 1.954834 -0.626709 1.000000 1.000000 1.000000 #1.000000
v 1.045654 1.693115 -0.046387 1.000000 1.000000 1.000000 #1.000000
v 1.045654 1.693115 -0.046387 1.000000 1.000000 1.000000 #1.000000
v 0.769287 1.954834 -0.626709 1.000000 1.000000 1.000000 #1.000000
v 0.901123 2.002441 -0.173096 1.000000 1.000000 1.000000 #1.000000
v 0.556885 1.298584 0.080322 1.000000 1.000000 1.000000 #1.000000
v 0.471680 1.202148 -0.328613 1.000000 1.000000 1.000000 #1.000000
v 1.045654 1.693115 -0.046387 1.000000 1.000000 1.000000 #1.000000
v 0.471680 1.202148 -0.328613 1.000000 1.000000 1.000000 #1.000000
v 0.675293 1.578369 -0.510742 1.000000 1.000000 1.000000 #1.000000
v 1.045654 1.693115 -0.046387 1.000000 1.000000 1.000000 #1.000000
v 0.000000 1.197998 0.109131 1.000000 1.000000 1.000000 #1.000000
v 0.000000 1.088135 -0.377197 1.000000 1.000000 1.000000 #1.000000
v 0.556885 1.298584 0.080322 1.000000 1.000000 1.000000 #1.000000
v 0.556885 1.298584 0.080322 1.000000 1.000000 1.000000 #1.000000
v 0.000000 1.088135 -0.377197 1.000000 1.000000 1.000000 #1.000000
v 0.471680 1.202148 -0.328613 1.000000 1.000000 1.000000 #1.000000
v 0.471680 1.202148 -0.328613 1.000000 1.000000 1.000000 #1.000000
v 0.000000 1.088135 -0.377197 1.000000 1.000000 1.000000 #1.000000
v 0.313477 1.205566 -0.738037 1.000000 1.000000 1.000000 #1.000000
v 0.495117 3.386963 -0.322510 1.000000 1.000000 1.000000 #1.000000
v 0.764160 2.748291 -0.110596 1.000000 1.000000 1.000000 #1.000000
v 0.536377 3.012451 -0.579834 1.000000 1.000000 1.000000 #1.000000
v 0.469482 3.274414 0.952637 1.000000 1.000000 1.000000 #1.000000
v 0.355957 2.521729 1.112793 1.000000 1.000000 1.000000 #1.000000
v 0.865234 2.610352 0.642334 1.000000 1.000000 1.000000 #1.000000
v 0.495117 3.386963 -0.322510 1.000000 1.000000 1.000000 #1.000000
v 0.527100 3.436035 0.314941 1.000000 1.000000 1.000000 #1.000000
v 0.764160 2.748291 -0.110596 1.000000 1.000000 1.000000 #1.000000
v 0.892334 2.691650 0.198486 1.000000 1.000000 1.000000 #1.000000
v 0.764160 2.748291 -0.110596 1.000000 1.000000 1.000000 #1.000000
v 0.527100 3.436035 0.314941 1.000000 1.000000 1.000000 #1.000000
v 0.495117 3.386963 -0.322510 1.000000 1.000000 1.000000 #1.000000
v 0.536377 3.012451 -0.579834 1.000000 1.000000 1.000000 #1.000000
v 0.000000 3.049316 -0.663574 1.000000 1.000000 1.000000 #1.000000
v 0.000000 3.667480 0.357422 1.000000 1.000000 1.000000 #1.000000
v 0.527100 3.436035 0.314941 1.000000 1.000000 1.000000 #1.000000
v 0.000000 3.642822 -0.287354 1.000000 1.000000 1.000000 #1.000000
v 0.000000 3.642822 -0.287354 1.000000 1.000000 1.000000 #1.000000
v 0.527100 3.436035 0.314941 1.000000 1.000000 1.000000 #1.000000
v 0.495117 3.386963 -0.322510 1.000000 1.000000 1.000000 #1.000000
v 0.000000 2.518066 1.214844 1.000000 1.000000 1.000000 #1.000000
v 0.469482 3.274414 0.952637 1.000000 1.000000 1.000000 #1.000000
v 0.000000 3.397949 1.002441 1.000000 1.000000 1.000000 #1.000000
v 0.495117 3.386963 -0.322510 1.000000 1.000000 1.000000 #1.000000
v 0.000000 3.049316 -0.663574 1.000000 1.000000 1.000000 #1.000000
v 0.000000 3.642822 -0.287354 1.000000 1.000000 1.000000 #1.000000
v 0.000000 2.518066 1.214844 1.000000 1.000000 1.000000 #1.000000
v 0.355957 2.521729 1.112793 1.000000 1.000000 1.000000 #1.000000
v 0.469482 3.274414 0.952637 1.000000 1.000000 1.000000 #1.000000
v 0.000000 3.667480 0.357422 1.000000 1.000000 1.000000 #1.000000
v 0.000000 3.397949 1.002441 1.000000 1.000000 1.000000 #1.000000
v 0.527100 3.436035 0.314941 1.000000 1.000000 1.000000 #1.000000
v 0.527100 3.436035 0.314941 1.000000 1.000000 1.000000 #1.000000
v 0.000000 3.397949 1.002441 1.000000 1.000000 1.000000 #1.000000
v 0.469482 3.274414 0.952637 1.000000 1.000000 1.000000 #1.000000
v 0.469482 3.274414 0.952637 1.000000 1.000000 1.000000 #1.000000
v 0.865234 2.610352 0.642334 1.000000 1.000000 1.000000 #1.000000
v 0.527100 3.436035 0.314941 1.000000 1.000000 1.000000 #1.000000
v 0.865234 2.610352 0.642334 1.000000 1.000000 1.000000 #1.000000
v 0.892334 2.691650 0.198486 1.000000 1.000000 1.000000 #1.000000
v 0.527100 3.436035 0.314941 1.000000 1.000000 1.000000 #1.000000
v -0.770996 1.966797 -0.271240 1.000000 1.000000 1.000000 #1.000000
v -0.373291 1.997314 -0.722900 1.000000 1.000000 1.000000 #1.000000
v -0.788086 2.549561 -0.510498 1.000000 1.000000 1.000000 #1.000000
v -0.742676 2.013184 -0.586670 1.000000 1.000000 1.000000 #1.000000
v -0.770996 1.966797 -0.271240 1.000000 1.000000 1.000000 #1.000000
v -0.788086 2.549561 -0.510498 1.000000 1.000000 1.000000 #1.000000
v -0.373291 1.997314 -0.722900 1.000000 1.000000 1.000000 #1.000000
v -0.742676 2.013184 -0.586670 1.000000 1.000000 1.000000 #1.000000
v -0.788086 2.549561 -0.510498 1.000000 1.000000 1.000000 #1.000000
v -0.334229 2.629639 -0.583252 1.000000 1.000000 1.000000 #1.000000
v 0.000000 2.894043 -0.579834 1.000000 1.000000 1.000000 #1.000000
v -0.273438 2.588379 -0.881836 1.000000 1.000000 1.000000 #1.000000
v -0.699463 2.572998 -0.336670 1.000000 1.000000 1.000000 #1.000000
v -0.274902 2.754395 -0.400391 1.000000 1.000000 1.000000 #1.000000
v -0.334229 2.629639 -0.583252 1.000000 1.000000 1.000000 #1.000000
v -0.547607 2.911133 -0.260742 1.000000 1.000000 1.000000 #1.000000
v -0.274902 2.754395 -0.400391 1.000000 1.000000 1.000000 #1.000000
v -0.699463 2.572998 -0.336670 1.000000 1.000000 1.000000 #1.000000
v 0.000000 2.894043 -0.579834 1.000000 1.000000 1.000000 #1.000000
v -0.334229 2.629639 -0.583252 1.000000 1.000000 1.000000 #1.000000
v -0.274902 2.754395 -0.400391 1.000000 1.000000 1.000000 #1.000000
v -0.699463 2.572998 -0.336670 1.000000 1.000000 1.000000 #1.000000
v -0.382568 2.222168 -0.625732 1.000000 1.000000 1.000000 #1.000000
v -0.901123 2.002441 -0.173096 1.000000 1.000000 1.000000 #1.000000
v -0.334229 2.629639 -0.583252 1.000000 1.000000 1.000000 #1.000000
v 0.000000 2.437256 -0.835205 1.000000 1.000000 1.000000 #1.000000
v -0.382568 2.222168 -0.625732 1.000000 1.000000 1.000000 #1.000000
v -0.382568 2.222168 -0.625732 1.000000 1.000000 1.000000 #1.000000
v 0.000000 2.437256 -0.835205 1.000000 1.000000 1.000000 #1.000000
v 0.000000 2.317383 -0.851074 1.000000 1.000000 1.000000 #1.000000
v 0.000000 2.732178 -0.916992 1.000000 1.000000 1.000000 #1.000000
v 0.000000 2.537109 -0.996826 1.000000 1.000000 1.000000 #1.000000
v -0.273438 2.588379 -0.881836 1.000000 1.000000 1.000000 #1.000000
v -0.273438 2.588379 -0.881836 1.000000 1.000000 1.000000 #1.000000
v 0.000000 2.537109 -0.996826 1.000000 1.000000 1.000000 #1.000000
v 0.000000 2.437256 -0.835205 1.000000 1.000000 1.000000 #1.000000
v 0.000000 1.906982 -1.214844 1.000000 1.000000 1.000000 #1.000000
v 0.000000 1.533447 -1.088379 1.000000 1.000000 1.000000 #1.000000
v -0.518799 1.906982 -1.080566 1.000000 1.000000 1.000000 #1.000000
v 0.000000 1.533447 -1.088379 1.000000 1.000000 1.000000 #1.000000
v -0.447266 1.533447 -0.975098 1.000000 1.000000 1.000000 #1.000000
v -0.518799 1.906982 -1.080566 1.000000 1.000000 1.000000 #1.000000
v -0.675293 1.578369 -0.510742 1.000000 1.000000 1.000000 #1.000000
v -0.769287 1.954834 -0.626709 1.000000 1.000000 1.000000 #1.000000
v -0.447266 1.533447 -0.975098 1.000000 1.000000 1.000000 #1.000000
v -0.769287 1.954834 -0.626709 1.000000 1.000000 1.000000 #1.000000
v -0.518799 1.906982 -1.080566 1.000000 1.000000 1.000000 #1.000000
v -0.447266 1.533447 -0.975098 1.000000 1.000000 1.000000 #1.000000
v 0.000000 2.173584 0.109375 1.000000 1.000000 1.000000 #1.000000
v 0.000000 2.249268 -1.166992 1.000000 1.000000 1.000000 #1.000000
v -0.563477 2.188965 -1.026367 1.000000 1.000000 1.000000 #1.000000
v -0.563477 2.188965 -1.026367 1.000000 1.000000 1.000000 #1.000000
v -0.793457 2.095703 -0.599609 1.000000 1.000000 1.000000 #1.000000
v 0.000000 2.173584 0.109375 1.000000 1.000000 1.000000 #1.000000
v -0.273438 2.588379 -0.881836 1.000000 1.000000 1.000000 #1.000000
v 0.000000 2.437256 -0.835205 1.000000 1.000000 1.000000 #1.000000
v -0.334229 2.629639 -0.583252 1.000000 1.000000 1.000000 #1.000000
v -1.535400 3.166504 0.792236 1.000000 1.000000 1.000000 #1.000000
v -0.772461 2.801514 0.596924 1.000000 1.000000 1.000000 #1.000000
v -1.482910 3.375977 0.495361 1.000000 1.000000 1.000000 #1.000000
v -0.772461 2.801514 0.596924 1.000000 1.000000 1.000000 #1.000000
v -0.853760 3.160645 0.201416 1.000000 1.000000 1.000000 #1.000000
v -1.482910 3.375977 0.495361 1.000000 1.000000 1.000000 #1.000000
v -0.833984 2.718506 0.032715 1.000000 1.000000 1.000000 #1.000000
v -1.653564 2.759277 0.732178 1.000000 1.000000 1.000000 #1.000000
v -1.482910 3.375977 0.495361 1.000000 1.000000 1.000000 #1.000000
v -0.900635 2.477783 0.178955 1.000000 1.000000 1.000000 #1.000000
v -0.772461 2.801514 0.596924 1.000000 1.000000 1.000000 #1.000000
v -1.653564 2.759277 0.732178 1.000000 1.000000 1.000000 #1.000000
v -0.772461 2.801514 0.596924 1.000000 1.000000 1.000000 #1.000000
v -1.535400 3.166504 0.792236 1.000000 1.000000 1.000000 #1.000000
v -1.653564 2.759277 0.732178 1.000000 1.000000 1.000000 #1.000000
v -1.535400 3.166504 0.792236 1.000000 1.000000 1.000000 #1.000000
v -1.482910 3.375977 0.495361 1.000000 1.000000 1.000000 #1.000000
v -2.449219 3.423584 0.592285 1.000000 1.000000 1.000000 #1.000000
v -1.653564 2.759277 0.732178 1.000000 1.000000 1.000000 #1.000000
v -1.535400 3.166504 0.792236 1.000000 1.000000 1.000000 #1.000000
v -2.449219 3.423584 0.592285 1.000000 1.000000 1.000000 #1.000000
v -0.833984 2.718506 0.032715 1.000000 1.000000 1.000000 #1.000000
v -0.853760 3.160645 0.201416 1.000000 1.000000 1.000000 #1.000000
v -0.687500 2.918701 -0.031006 1.000000 1.000000 1.000000 #1.000000
v -0.772461 2.801514 0.596924 1.000000 1.000000 1.000000 #1.000000
v -0.687500 2.918701 -0.031006 1.000000 1.000000 1.000000 #1.000000
v -0.853760 3.160645 0.201416 1.000000 1.000000 1.000000 #1.000000
v -0.699463 2.572998 -0.336670 1.000000 1.000000 1.000000 #1.000000
v -0.833984 2.718506 0.032715 1.000000 1.000000 1.000000 #1.000000
v -0.547607 2.911133 -0.260742 1.000000 1.000000 1.000000 #1.000000
v -0.901123 2.002441 -0.173096 1.000000 1.000000 1.000000 #1.000000
v -0.900635 2.477783 0.178955 1.000000 1.000000 1.000000 #1.000000
v -0.833984 2.718506 0.032715 1.000000 1.000000 1.000000 #1.000000
v -0.547607 2.911133 -0.260742 1.000000 1.000000 1.000000 #1.000000
v -0.833984 2.718506 0.032715 1.000000 1.000000 1.000000 #1.000000
v -0.687500 2.918701 -0.031006 1.000000 1.000000 1.000000 #1.000000
v -0.901123 2.002441 -0.173096 1.000000 1.000000 1.000000 #1.000000
v -0.833984 2.718506 0.032715 1.000000 1.000000 1.000000 #1.000000
v -0.699463 2.572998 -0.336670 1.000000 1.000000 1.000000 #1.000000
v -0.900635 2.477783 0.178955 1.000000 1.000000 1.000000 #1.000000
v -1.653564 2.759277 0.732178 1.000000 1.000000 1.000000 #1.000000
v -0.833984 2.718506 0.032715 1.000000 1.000000 1.000000 #1.000000
v -2.449219 3.423584 0.592285 1.000000 1.000000 1.000000 #1.000000
v -1.482910 3.375977 0.495361 1.000000 1.000000 1.000000 #1.000000
v -1.653564 2.759277 0.732178 1.000000 1.000000 1.000000 #1.000000
v -0.308350 2.923340 -0.479004 1.000000 1.000000 1.000000 #1.000000
v 0.000000 2.894043 -0.579834 1.000000 1.000000 1.000000 #1.000000
v -0.274902 2.754395 -0.400391 1.000000 1.000000 1.000000 #1.000000
v -0.308350 2.923340 -0.479004 1.000000 1.000000 1.000000 #1.000000
v -0.470703 3.111816 -0.448486 1.000000 1.000000 1.000000 #1.000000
v 0.000000 3.122070 -0.577881 1.000000 1.000000 1.000000 #1.000000
v -0.532227 3.149902 -0.105469 1.000000 1.000000 1.000000 #1.000000
v -0.470703 3.111816 -0.448486 1.000000 1.000000 1.000000 #1.000000
v -0.547607 2.911133 -0.260742 1.000000 1.000000 1.000000 #1.000000
v -0.470703 3.111816 -0.448486 1.000000 1.000000 1.000000 #1.000000
v -0.308350 2.923340 -0.479004 1.000000 1.000000 1.000000 #1.000000
v -0.547607 2.911133 -0.260742 1.000000 1.000000 1.000000 #1.000000
v 0.000000 2.894043 -0.579834 1.000000 1.000000 1.000000 #1.000000
v 0.000000 2.732178 -0.916992 1.000000 1.000000 1.000000 #1.000000
v -0.273438 2.588379 -0.881836 1.000000 1.000000 1.000000 #1.000000
v -0.547607 2.911133 -0.260742 1.000000 1.000000 1.000000 #1.000000
v -0.687500 2.918701 -0.031006 1.000000 1.000000 1.000000 #1.000000
v -0.532227 3.149902 -0.105469 1.000000 1.000000 1.000000 #1.000000
v -0.470703 3.111816 -0.448486 1.000000 1.000000 1.000000 #1.000000
v -0.532227 3.149902 -0.105469 1.000000 1.000000 1.000000 #1.000000
v 0.000000 3.122070 -0.577881 1.000000 1.000000 1.000000 #1.000000
v 0.000000 2.894043 -0.579834 1.000000 1.000000 1.000000 #1.000000
v -0.308350 2.923340 -0.479004 1.000000 1.000000 1.000000 #1.000000
v 0.000000 3.122070 -0.577881 1.000000 1.000000 1.000000 #1.000000
v 0.000000 3.324219 0.154785 1.000000 1.000000 1.000000 #1.000000
v -0.532227 3.149902 -0.105469 1.000000 1.000000 1.000000 #1.000000
v -0.343018 3.130859 0.860107 1.000000 1.000000 1.000000 #1.000000
v -0.343018 3.130859 0.860107 1.000000 1.000000 1.000000 #1.000000
v -0.772461 2.801514 0.596924 1.000000 1.000000 1.000000 #1.000000
v -0.298584 2.540283 1.056152 1.000000 1.000000 1.000000 #1.000000
v -0.532227 3.149902 -0.105469 1.000000 1.000000 1.000000 #1.000000
v 0.000000 3.324219 0.154785 1.000000 1.000000 1.000000 #1.000000
v 0.000000 3.122070 -0.577881 1.000000 1.000000 1.000000 #1.000000
v -0.838623 2.229736 0.382812 1.000000 1.000000 1.000000 #1.000000
v -0.541992 1.981689 0.586426 1.000000 1.000000 1.000000 #1.000000
v -0.298584 2.540283 1.056152 1.000000 1.000000 1.000000 #1.000000
v -0.298584 2.540283 1.056152 1.000000 1.000000 1.000000 #1.000000
v -0.772461 2.801514 0.596924 1.000000 1.000000 1.000000 #1.000000
v -0.900635 2.477783 0.178955 1.000000 1.000000 1.000000 #1.000000
v -0.772461 2.801514 0.596924 1.000000 1.000000 1.000000 #1.000000
v -0.532227 3.149902 -0.105469 1.000000 1.000000 1.000000 #1.000000
v -0.687500 2.918701 -0.031006 1.000000 1.000000 1.000000 #1.000000
v -0.838623 2.229736 0.382812 1.000000 1.000000 1.000000 #1.000000
v -0.900635 2.477783 0.178955 1.000000 1.000000 1.000000 #1.000000
v -1.045654 1.693115 -0.046387 1.000000 1.000000 1.000000 #1.000000
v -1.045654 1.693115 -0.046387 1.000000 1.000000 1.000000 #1.000000
v -0.900635 2.477783 0.178955 1.000000 1.000000 1.000000 #1.000000
v -0.901123 2.002441 -0.173096 1.000000 1.000000 1.000000 #1.000000
v -0.343018 3.130859 0.860107 1.000000 1.000000 1.000000 #1.000000
v -0.532227 3.149902 -0.105469 1.000000 1.000000 1.000000 #1.000000
v -0.772461 2.801514 0.596924 1.000000 1.000000 1.000000 #1.000000
v -0.547607 2.911133 -0.260742 1.000000 1.000000 1.000000 #1.000000
v -0.308350 2.923340 -0.479004 1.000000 1.000000 1.000000 #1.000000
v -0.274902 2.754395 -0.400391 1.000000 1.000000 1.000000 #1.000000
v -0.853760 3.160645 0.201416 1.000000 1.000000 1.000000 #1.000000
v -0.833984 2.718506 0.032715 1.000000 1.000000 1.000000 #1.000000
v -1.482910 3.375977 0.495361 1.000000 1.000000 1.000000 #1.000000
v -0.699463 2.572998 -0.336670 1.000000 1.000000 1.000000 #1.000000
v -0.334229 2.629639 -0.583252 1.000000 1.000000 1.000000 #1.000000
v -0.382568 2.222168 -0.625732 1.000000 1.000000 1.000000 #1.000000
v 0.000000 2.249268 -1.166992 1.000000 1.000000 1.000000 #1.000000
v 0.000000 1.906982 -1.214844 1.000000 1.000000 1.000000 #1.000000
v -0.563477 2.188965 -1.026367 1.000000 1.000000 1.000000 #1.000000
v -0.563477 2.188965 -1.026367 1.000000 1.000000 1.000000 #1.000000
v 0.000000 1.906982 -1.214844 1.000000 1.000000 1.000000 #1.000000
v -0.518799 1.906982 -1.080566 1.000000 1.000000 1.000000 #1.000000
v -0.518799 1.906982 -1.080566 1.000000 1.000000 1.000000 #1.000000
v -0.769287 1.954834 -0.626709 1.000000 1.000000 1.000000 #1.000000
v -0.563477 2.188965 -1.026367 1.000000 1.000000 1.000000 #1.000000
v -0.769287 1.954834 -0.626709 1.000000 1.000000 1.000000 #1.000000
v -0.793457 2.095703 -0.599609 1.000000 1.000000 1.000000 #1.000000
v -0.563477 2.188965 -1.026367 1.000000 1.000000 1.000000 #1.000000
v -0.313477 1.205566 -0.738037 1.000000 1.000000 1.000000 #1.000000
v 0.000000 1.193359 -0.848877 1.000000 1.000000 1.000000 #1.000000
v 0.000000 1.088135 -0.377197 1.000000 1.000000 1.000000 #1.000000
v 0.000000 1.937744 0.615479 1.000000 1.000000 1.000000 #1.000000
v -0.541992 1.981689 0.586426 1.000000 1.000000 1.000000 #1.000000
v 0.000000 1.197998 0.109131 1.000000 1.000000 1.000000 #1.000000
v -0.541992 1.981689 0.586426 1.000000 1.000000 1.000000 #1.000000
v -0.556885 1.298584 0.080322 1.000000 1.000000 1.000000 #1.000000
v 0.000000 1.197998 0.109131 1.000000 1.000000 1.000000 #1.000000
v 0.000000 1.937744 0.615479 1.000000 1.000000 1.000000 #1.000000
v 0.000000 2.540283 1.157227 1.000000 1.000000 1.000000 #1.000000
v -0.541992 1.981689 0.586426 1.000000 1.000000 1.000000 #1.000000
v -0.541992 1.981689 0.586426 1.000000 1.000000 1.000000 #1.000000
v 0.000000 2.540283 1.157227 1.000000 1.000000 1.000000 #1.000000
v -0.298584 2.540283 1.056152 1.000000 1.000000 1.000000 #1.000000
v 0.000000 2.540283 1.157227 1.000000 1.000000 1.000000 #1.000000
v 0.000000 3.130859 0.860107 1.000000 1.000000 1.000000 #1.000000
v -0.298584 2.540283 1.056152 1.000000 1.000000 1.000000 #1.000000
v 0.000000 3.130859 0.860107 1.000000 1.000000 1.000000 #1.000000
v -0.343018 3.130859 0.860107 1.000000 1.000000 1.000000 #1.000000
v -0.298584 2.540283 1.056152 1.000000 1.000000 1.000000 #1.000000
v -0.343018 3.130859 0.860107 1.000000 1.000000 1.000000 #1.000000
v 0.000000 3.130859 0.860107 1.000000 1.000000 1.000000 #1.000000
v 0.000000 3.324219 0.154785 1.000000 1.000000 1.000000 #1.000000
v -1.045654 1.693115 -0.046387 1.000000 1.000000 1.000000 #1.000000
v -0.556885 1.298584 0.080322 1.000000 1.000000 1.000000 #1.000000
v -0.838623 2.229736 0.382812 1.000000 1.000000 1.000000 #1.000000
v -0.556885 1.298584 0.080322 1.000000 1.000000 1.000000 #1.000000
v -0.541992 1.981689 0.586426 1.000000 1.000000 1.000000 #1.000000
v -0.838623 2.229736 0.382812 1.000000 1.000000 1.000000 #1.000000
v -0.447266 1.533447 -0.975098 1.000000 1.000000 1.000000 #1.000000
v -0.313477 1.205566 -0.738037 1.000000 1.000000 1.000000 #1.000000
v -0.675293 1.578369 -0.510742 1.000000 1.000000 1.000000 #1.000000
v -0.471680 1.202148 -0.328613 1.000000 1.000000 1.000000 #1.000000
v -0.675293 1.578369 -0.510742 1.000000 1.000000 1.000000 #1.000000
v -0.313477 1.205566 -0.738037 1.000000 1.000000 1.000000 #1.000000
v 0.000000 1.533447 -1.088379 1.000000 1.000000 1.000000 #1.000000
v 0.000000 1.193359 -0.848877 1.000000 1.000000 1.000000 #1.000000
v -0.447266 1.533447 -0.975098 1.000000 1.000000 1.000000 #1.000000
v 0.000000 1.193359 -0.848877 1.000000 1.000000 1.000000 #1.000000
v -0.313477 1.205566 -0.738037 1.000000 1.000000 1.000000 #1.000000
v -0.447266 1.533447 -0.975098 1.000000 1.000000 1.000000 #1.000000
v -0.900635 2.477783 0.178955 1.000000 1.000000 1.000000 #1.000000
v -0.838623 2.229736 0.382812 1.000000 1.000000 1.000000 #1.000000
v -0.298584 2.540283 1.056152 1.000000 1.000000 1.000000 #1.000000
v -0.793457 2.095703 -0.599609 1.000000 1.000000 1.000000 #1.000000
v -0.901123 2.002441 -0.173096 1.000000 1.000000 1.000000 #1.000000
v 0.000000 2.173584 0.109375 1.000000 1.000000 1.000000 #1.000000
v -0.901123 2.002441 -0.173096 1.000000 1.000000 1.000000 #1.000000
v -0.793457 2.095703 -0.599609 1.000000 1.000000 1.000000 #1.000000
v -0.769287 1.954834 -0.626709 1.000000 1.000000 1.000000 #1.000000
v -0.675293 1.578369 -0.510742 1.000000 1.000000 1.000000 #1.000000
v -1.045654 1.693115 -0.046387 1.000000 1.000000 1.000000 #1.000000
v -0.769287 1.954834 -0.626709 1.000000 1.000000 1.000000 #1.000000
v -1.045654 1.693115 -0.046387 1.000000 1.000000 1.000000 #1.000000
v -0.901123 2.002441 -0.173096 1.000000 1.000000 1.000000 #1.000000
v -0.769287 1.954834 -0.626709 1.000000 1.000000 1.000000 #1.000000
v -0.556885 1.298584 0.080322 1.000000 1.000000 1.000000 #1.000000
v -1.045654 1.693115 -0.046387 1.000000 1.000000 1.000000 #1.000000
v -0.471680 1.202148 -0.328613 1.000000 1.000000 1.000000 #1.000000
v -1.045654 1.693115 -0.046387 1.000000 1.000000 1.000000 #1.000000
v -0.675293 1.578369 -0.510742 1.000000 1.000000 1.000000 #1.000000
v -0.471680 1.202148 -0.328613 1.000000 1.000000 1.000000 #1.000000
v 0.000000 1.197998 0.109131 1.000000 1.000000 1.000000 #1.000000
v -0.556885 1.298584 0.080322 1.000000 1.000000 1.000000 #1.000000
v 0.000000 1.088135 -0.377197 1.000000 1.000000 1.000000 #1.000000
v -0.556885 1.298584 0.080322 1.000000 1.000000 1.000000 #1.000000
v -0.471680 1.202148 -0.328613 1.000000 1.000000 1.000000 #1.000000
v 0.000000 1.088135 -0.377197 1.000000 1.000000 1.000000 #1.000000
v -0.471680 1.202148 -0.328613 1.000000 1.000000 1.000000 #1.000000
v -0.313477 1.205566 -0.738037 1.000000 1.000000 1.000000 #1.000000
v 0.000000 1.088135 -0.377197 1.000000 1.000000 1.000000 #1.000000
v -0.495117 3.386963 -0.322510 1.000000 1.000000 1.000000 #1.000000
v -0.536377 3.012451 -0.579834 1.000000 1.000000 1.000000 #1.000000
v -0.764160 2.748291 -0.110596 1.000000 1.000000 1.000000 #1.000000
v -0.469482 3.274414 0.952637 1.000000 1.000000 1.000000 #1.000000
v -0.865234 2.610352 0.642334 1.000000 1.000000 1.000000 #1.000000
v -0.355957 2.521729 1.112793 1.000000 1.000000 1.000000 #1.000000
v -0.495117 3.386963 -0.322510 1.000000 1.000000 1.000000 #1.000000
v -0.764160 2.748291 -0.110596 1.000000 1.000000 1.000000 #1.000000
v -0.527100 3.436035 0.314941 1.000000 1.000000 1.000000 #1.000000
v -0.892334 2.691650 0.198486 1.000000 1.000000 1.000000 #1.000000
v -0.527100 3.436035 0.314941 1.000000 1.000000 1.000000 #1.000000
v -0.764160 2.748291 -0.110596 1.000000 1.000000 1.000000 #1.000000
v -0.495117 3.386963 -0.322510 1.000000 1.000000 1.000000 #1.000000
v 0.000000 3.049316 -0.663574 1.000000 1.000000 1.000000 #1.000000
v -0.536377 3.012451 -0.579834 1.000000 1.000000 1.000000 #1.000000
v 0.000000 3.667480 0.357422 1.000000 1.000000 1.000000 #1.000000
v 0.000000 3.642822 -0.287354 1.000000 1.000000 1.000000 #1.000000
v -0.527100 3.436035 0.314941 1.000000 1.000000 1.000000 #1.000000
v 0.000000 3.642822 -0.287354 1.000000 1.000000 1.000000 #1.000000
v -0.495117 3.386963 -0.322510 1.000000 1.000000 1.000000 #1.000000
v -0.527100 3.436035 0.314941 1.000000 1.000000 1.000000 #1.000000
v 0.000000 2.518066 1.214844 1.000000 1.000000 1.000000 #1.000000
v 0.000000 3.397949 1.002441 1.000000 1.000000 1.000000 #1.000000
v -0.469482 3.274414 0.952637 1.000000 1.000000 1.000000 #1.000000
v -0.495117 3.386963 -0.322510 1.000000 1.000000 1.000000 #1.000000
v 0.000000 3.642822 -0.287354 1.000000 1.000000 1.000000 #1.000000
v 0.000000 3.049316 -0.663574 1.000000 1.000000 1.000000 #1.000000
v 0.000000 2.518066 1.214844 1.000000 1.000000 1.000000 #1.000000
v -0.469482 3.274414 0.952637 1.000000 1.000000 1.000000 #1.000000
v -0.355957 2.521729 1.112793 1.000000 1.000000 1.000000 #1.000000
v 0.000000 3.667480 0.357422 1.000000 1.000000 1.000000 #1.000000
v -0.527100 3.436035 0.314941 1.000000 1.000000 1.000000 #1.000000
v 0.000000 3.397949 1.002441 1.000000 1.000000 1.000000 #1.000000
v -0.527100 3.436035 0.314941 1.000000 1.000000 1.000000 #1.000000
v -0.469482 3.274414 0.952637 1.000000 1.000000 1.000000 #1.000000
v 0.000000 3.397949 1.002441 1.000000 1.000000 1.000000 #1.000000
v -0.469482 3.274414 0.952637 1.000000 1.000000 1.000000 #1.000000
v -0.527100 3.436035 0.314941 1.000000 1.000000 1.000000 #1.000000
v -0.865234 2.610352 0.642334 1.000000 1.000000 1.000000 #1.000000
v -0.865234 2.610352 0.642334 1.000000 1.000000 1.000000 #1.000000
v -0.527100 3.436035 0.314941 1.000000 1.000000 1.000000 #1.000000
v -0.892334 2.691650 0.198486 1.000000 1.000000 1.000000 #1.000000
v 0.000000 2.317383 -0.851074 0.498039 0.498039 0.498039 #1.000000
v 0.382568 2.222168 -0.625732 0.498039 0.498039 0.498039 #1.000000
v 0.000000 2.173584 0.109375 0.498039 0.498039 0.498039 #1.000000
v 0.901123 2.002441 -0.173096 0.498039 0.498039 0.498039 #1.000000
v 0.767090 1.998535 -0.021484 0.498039 0.498039 0.498039 #1.000000
v 0.382568 2.222168 -0.625732 0.498039 0.498039 0.498039 #1.000000
v 0.382568 2.222168 -0.625732 0.498039 0.498039 0.498039 #1.000000
v 0.767090 1.998535 -0.021484 0.498039 0.498039 0.498039 #1.000000
v 0.000000 2.173584 0.109375 0.498039 0.498039 0.498039 #1.000000
v -0.382568 2.222168 -0.625732 0.498039 0.498039 0.498039 #1.000000
v 0.000000 2.317383 -0.851074 0.498039 0.498039 0.498039 #1.000000
v 0.000000 2.173584 0.109375 0.498039 0.498039 0.498039 #1.000000
v -0.901123 2.002441 -0.173096 0.498039 0.498039 0.498039 #1.000000
v -0.382568 2.222168 -0.625732 0.498039 0.498039 0.498039 #1.000000
v -0.767090 1.998535 -0.021484 0.498039 0.498039 0.498039 #1.000000
v -0.382568 2.222168 -0.625732 0.498039 0.498039 0.498039 #1.000000
v 0.000000 2.173584 0.109375 0.498039 0.498039 0.498039 #1.000000
v -0.767090 1.998535 -0.021484 0.498039 0.498039 0.498039 #1.000000
vt 0.138672 0.215088 0.000000
vt 0.067139 0.420898 0.000000
vt 0.009277 0.212646 0.000000
vt 0.074707 0.211670 0.000000
vt 0.067139 0.420898 0.000000
vt 0.138672 0.215088 0.000000
vt 0.009277 0.212646 0.000000
vt 0.067139 0.420898 0.000000
vt 0.074707 0.211670 0.000000
vt 0.566650 0.732910 0.000000
vt 0.628418 0.724609 0.000000
vt 0.612061 0.819336 0.000000
vt 0.439697 0.684570 0.000000
vt 0.566650 0.732910 0.000000
vt 0.536377 0.784912 0.000000
vt 0.441650 0.832031 0.000000
vt 0.439697 0.684570 0.000000
vt 0.536377 0.784912 0.000000
vt 0.612061 0.819336 0.000000
vt 0.536377 0.784912 0.000000
vt 0.566650 0.732910 0.000000
vt 0.439697 0.684570 0.000000
vt 0.435303 0.524170 0.000000
vt 0.574707 0.620361 0.000000
vt 0.566650 0.732910 0.000000
vt 0.574707 0.620361 0.000000
vt 0.643799 0.706055 0.000000
vt 0.574707 0.620361 0.000000
vt 0.663086 0.634277 0.000000
vt 0.643799 0.706055 0.000000
vt 0.666016 0.784912 0.000000
vt 0.628418 0.724609 0.000000
vt 0.688477 0.731201 0.000000
vt 0.628418 0.724609 0.000000
vt 0.643799 0.706055 0.000000
vt 0.688477 0.731201 0.000000
vt 0.717041 0.449707 0.000000
vt 0.608643 0.463623 0.000000
vt 0.686768 0.364502 0.000000
vt 0.608643 0.463623 0.000000
vt 0.595703 0.391602 0.000000
vt 0.686768 0.364502 0.000000
vt 0.497803 0.410156 0.000000
vt 0.595703 0.391602 0.000000
vt 0.520508 0.493896 0.000000
vt 0.595703 0.391602 0.000000
vt 0.608643 0.463623 0.000000
vt 0.520508 0.493896 0.000000
vt 0.492188 0.537598 0.000000
vt 0.671387 0.586914 0.000000
vt 0.683350 0.562012 0.000000
vt 0.671387 0.586914 0.000000
vt 0.492188 0.537598 0.000000
vt 0.658691 0.611816 0.000000
vt 0.628418 0.724609 0.000000
vt 0.566650 0.732910 0.000000
vt 0.643799 0.706055 0.000000
vt 0.825195 0.757324 0.000000
vt 0.929932 0.777344 0.000000
vt 0.767090 0.965820 0.000000
vt 0.767090 0.965820 0.000000
vt 0.929932 0.777344 0.000000
vt 0.890381 0.943848 0.000000
vt 0.849609 0.043701 0.000000
vt 0.927002 0.299805 0.000000
vt 0.734131 0.235840 0.000000
vt 0.699707 0.932861 0.000000
vt 0.760010 0.749023 0.000000
vt 0.767090 0.965820 0.000000
vt 0.767090 0.965820 0.000000
vt 0.760010 0.749023 0.000000
vt 0.825195 0.757324 0.000000
vt 0.825195 0.757324 0.000000
vt 0.919922 0.536133 0.000000
vt 0.929932 0.777344 0.000000
vt 0.760010 0.749023 0.000000
vt 0.919922 0.536133 0.000000
vt 0.825195 0.757324 0.000000
vt 0.849609 0.043701 0.000000
vt 0.921875 0.035156 0.000000
vt 0.960693 0.111084 0.000000
vt 0.767090 0.965820 0.000000
vt 0.890381 0.943848 0.000000
vt 0.831543 0.992188 0.000000
vt 0.439697 0.684570 0.000000
vt 0.441650 0.832031 0.000000
vt 0.326660 0.748047 0.000000
vt 0.435303 0.524170 0.000000
vt 0.326660 0.748047 0.000000
vt 0.281982 0.676514 0.000000
vt 0.441650 0.832031 0.000000
vt 0.341553 0.802979 0.000000
vt 0.326660 0.748047 0.000000
vt 0.435303 0.524170 0.000000
vt 0.439697 0.684570 0.000000
vt 0.326660 0.748047 0.000000
vt 0.755615 0.035400 0.000000
vt 0.849609 0.043701 0.000000
vt 0.734131 0.235840 0.000000
vt 0.834961 0.552490 0.000000
vt 0.734131 0.235840 0.000000
vt 0.927002 0.299805 0.000000
vt 0.515137 0.834229 0.000000
vt 0.536377 0.784912 0.000000
vt 0.612061 0.819336 0.000000
vt 0.515137 0.834229 0.000000
vt 0.595947 0.888916 0.000000
vt 0.475586 0.874023 0.000000
vt 0.411377 0.917969 0.000000
vt 0.441650 0.832031 0.000000
vt 0.475586 0.874023 0.000000
vt 0.475586 0.874023 0.000000
vt 0.441650 0.832031 0.000000
vt 0.515137 0.834229 0.000000
vt 0.612061 0.819336 0.000000
vt 0.628418 0.724609 0.000000
vt 0.666016 0.784912 0.000000
vt 0.441650 0.832031 0.000000
vt 0.411377 0.917969 0.000000
vt 0.341553 0.802979 0.000000
vt 0.475586 0.874023 0.000000
vt 0.595947 0.888916 0.000000
vt 0.411377 0.917969 0.000000
vt 0.612061 0.819336 0.000000
vt 0.595947 0.888916 0.000000
vt 0.515137 0.834229 0.000000
vt 0.427002 0.983643 0.000000
vt 0.178223 0.905518 0.000000
vt 0.411377 0.917969 0.000000
vt 0.178223 0.905518 0.000000
vt 0.119873 0.712158 0.000000
vt 0.260254 0.784180 0.000000
vt 0.411377 0.917969 0.000000
vt 0.595947 0.888916 0.000000
vt 0.427002 0.983643 0.000000
vt 0.241943 0.609375 0.000000
vt 0.119873 0.712158 0.000000
vt 0.193604 0.548828 0.000000
vt 0.119873 0.712158 0.000000
vt 0.281982 0.676514 0.000000
vt 0.260254 0.784180 0.000000
vt 0.260254 0.784180 0.000000
vt 0.341553 0.802979 0.000000
vt 0.411377 0.917969 0.000000
vt 0.241943 0.609375 0.000000
vt 0.395264 0.413330 0.000000
vt 0.281982 0.676514 0.000000
vt 0.395264 0.413330 0.000000
vt 0.435303 0.524170 0.000000
vt 0.281982 0.676514 0.000000
vt 0.178223 0.905518 0.000000
vt 0.260254 0.784180 0.000000
vt 0.411377 0.917969 0.000000
vt 0.441650 0.832031 0.000000
vt 0.536377 0.784912 0.000000
vt 0.515137 0.834229 0.000000
vt 0.960693 0.111084 0.000000
vt 0.927002 0.299805 0.000000
vt 0.849609 0.043701 0.000000
vt 0.439697 0.684570 0.000000
vt 0.574707 0.620361 0.000000
vt 0.566650 0.732910 0.000000
vt 0.729248 0.528809 0.000000
vt 0.602051 0.527588 0.000000
vt 0.717041 0.449707 0.000000
vt 0.602051 0.527588 0.000000
vt 0.608643 0.463623 0.000000
vt 0.717041 0.449707 0.000000
vt 0.608643 0.463623 0.000000
vt 0.602051 0.527588 0.000000
vt 0.520508 0.493896 0.000000
vt 0.520508 0.493896 0.000000
vt 0.602051 0.527588 0.000000
vt 0.529053 0.524170 0.000000
vt 0.565918 0.316406 0.000000
vt 0.463867 0.229492 0.000000
vt 0.632812 0.299805 0.000000
vt 0.129883 0.485107 0.000000
vt 0.329102 0.217285 0.000000
vt 0.193604 0.548828 0.000000
vt 0.193604 0.548828 0.000000
vt 0.329102 0.217285 0.000000
vt 0.354492 0.330566 0.000000
vt 0.129883 0.485107 0.000000
vt 0.193604 0.548828 0.000000
vt 0.052246 0.714111 0.000000
vt 0.193604 0.548828 0.000000
vt 0.119873 0.712158 0.000000
vt 0.052246 0.714111 0.000000
vt 0.052246 0.714111 0.000000
vt 0.119873 0.712158 0.000000
vt 0.139160 0.981445 0.000000
vt 0.119873 0.712158 0.000000
vt 0.178223 0.905518 0.000000
vt 0.139160 0.981445 0.000000
vt 0.178223 0.905518 0.000000
vt 0.427002 0.983643 0.000000
vt 0.139160 0.981445 0.000000
vt 0.395264 0.413330 0.000000
vt 0.241943 0.609375 0.000000
vt 0.354492 0.330566 0.000000
vt 0.354492 0.330566 0.000000
vt 0.241943 0.609375 0.000000
vt 0.193604 0.548828 0.000000
vt 0.595703 0.391602 0.000000
vt 0.497803 0.410156 0.000000
vt 0.565918 0.316406 0.000000
vt 0.473389 0.320312 0.000000
vt 0.565918 0.316406 0.000000
vt 0.497803 0.410156 0.000000
vt 0.686768 0.364502 0.000000
vt 0.595703 0.391602 0.000000
vt 0.632812 0.299805 0.000000
vt 0.595703 0.391602 0.000000
vt 0.565918 0.316406 0.000000
vt 0.632812 0.299805 0.000000
vt 0.281982 0.676514 0.000000
vt 0.119873 0.712158 0.000000
vt 0.241943 0.609375 0.000000
vt 0.658691 0.611816 0.000000
vt 0.492188 0.537598 0.000000
vt 0.641602 0.633545 0.000000
vt 0.434570 0.525146 0.000000
vt 0.520508 0.493896 0.000000
vt 0.529053 0.524170 0.000000
vt 0.497803 0.410156 0.000000
vt 0.520508 0.493896 0.000000
vt 0.395508 0.414551 0.000000
vt 0.395508 0.414551 0.000000
vt 0.520508 0.493896 0.000000
vt 0.434570 0.525146 0.000000
vt 0.354736 0.328613 0.000000
vt 0.473389 0.320312 0.000000
vt 0.395508 0.414551 0.000000
vt 0.473389 0.320312 0.000000
vt 0.497803 0.410156 0.000000
vt 0.395508 0.414551 0.000000
vt 0.330322 0.218750 0.000000
vt 0.463867 0.229492 0.000000
vt 0.354736 0.328613 0.000000
vt 0.354736 0.328613 0.000000
vt 0.463867 0.229492 0.000000
vt 0.473389 0.320312 0.000000
vt 0.473389 0.320312 0.000000
vt 0.463867 0.229492 0.000000
vt 0.565918 0.316406 0.000000
vt 0.388672 0.098145 0.000000
vt 0.333984 0.008545 0.000000
vt 0.431396 0.014648 0.000000
vt 0.222656 0.117188 0.000000
vt 0.141357 0.063477 0.000000
vt 0.196289 0.041748 0.000000
vt 0.388672 0.098145 0.000000
vt 0.288818 0.126953 0.000000
vt 0.333984 0.008545 0.000000
vt 0.263916 0.022949 0.000000
vt 0.333984 0.008545 0.000000
vt 0.288818 0.126953 0.000000
vt 0.388672 0.098145 0.000000
vt 0.431396 0.014648 0.000000
vt 0.494629 0.022217 0.000000
vt 0.315918 0.160400 0.000000
vt 0.288818 0.126953 0.000000
vt 0.468506 0.119141 0.000000
vt 0.468506 0.119141 0.000000
vt 0.288818 0.126953 0.000000
vt 0.388672 0.098145 0.000000
vt 0.103516 0.097656 0.000000
vt 0.222656 0.117188 0.000000
vt 0.203369 0.198975 0.000000
vt 0.388672 0.098145 0.000000
vt 0.494629 0.022217 0.000000
vt 0.468506 0.119141 0.000000
vt 0.103516 0.097656 0.000000
vt 0.141357 0.063477 0.000000
vt 0.222656 0.117188 0.000000
vt 0.315918 0.160400 0.000000
vt 0.203369 0.198975 0.000000
vt 0.288818 0.126953 0.000000
vt 0.288818 0.126953 0.000000
vt 0.203369 0.198975 0.000000
vt 0.222656 0.117188 0.000000
vt 0.222656 0.117188 0.000000
vt 0.196289 0.041748 0.000000
vt 0.288818 0.126953 0.000000
vt 0.196289 0.041748 0.000000
vt 0.263916 0.022949 0.000000
vt 0.288818 0.126953 0.000000
vt 0.138672 0.215088 0.000000
vt 0.009277 0.212646 0.000000
vt 0.067139 0.420898 0.000000
vt 0.074707 0.211670 0.000000
vt 0.138672 0.215088 0.000000
vt 0.067139 0.420898 0.000000
vt 0.009277 0.212646 0.000000
vt 0.074707 0.211670 0.000000
vt 0.067139 0.420898 0.000000
vt 0.566650 0.732910 0.000000
vt 0.612061 0.819336 0.000000
vt 0.628418 0.724609 0.000000
vt 0.439697 0.684570 0.000000
vt 0.536377 0.784912 0.000000
vt 0.566650 0.732910 0.000000
vt 0.441650 0.832031 0.000000
vt 0.536377 0.784912 0.000000
vt 0.439697 0.684570 0.000000
vt 0.612061 0.819336 0.000000
vt 0.566650 0.732910 0.000000
vt 0.536377 0.784912 0.000000
vt 0.439697 0.684570 0.000000
vt 0.574707 0.620361 0.000000
vt 0.435303 0.524170 0.000000
vt 0.566650 0.732910 0.000000
vt 0.643799 0.706055 0.000000
vt 0.574707 0.620361 0.000000
vt 0.574707 0.620361 0.000000
vt 0.643799 0.706055 0.000000
vt 0.663086 0.634277 0.000000
vt 0.666016 0.784912 0.000000
vt 0.688477 0.731201 0.000000
vt 0.628418 0.724609 0.000000
vt 0.628418 0.724609 0.000000
vt 0.688477 0.731201 0.000000
vt 0.643799 0.706055 0.000000
vt 0.717041 0.449707 0.000000
vt 0.686768 0.364502 0.000000
vt 0.608643 0.463623 0.000000
vt 0.686768 0.364502 0.000000
vt 0.595703 0.391602 0.000000
vt 0.608643 0.463623 0.000000
vt 0.497803 0.410156 0.000000
vt 0.520508 0.493896 0.000000
vt 0.595703 0.391602 0.000000
vt 0.520508 0.493896 0.000000
vt 0.608643 0.463623 0.000000
vt 0.595703 0.391602 0.000000
vt 0.492188 0.537598 0.000000
vt 0.683350 0.562012 0.000000
vt 0.671387 0.586914 0.000000
vt 0.671387 0.586914 0.000000
vt 0.658691 0.611816 0.000000
vt 0.492188 0.537598 0.000000
vt 0.628418 0.724609 0.000000
vt 0.643799 0.706055 0.000000
vt 0.566650 0.732910 0.000000
vt 0.825195 0.757324 0.000000
vt 0.767090 0.965820 0.000000
vt 0.929932 0.777344 0.000000
vt 0.767090 0.965820 0.000000
vt 0.890381 0.943848 0.000000
vt 0.929932 0.777344 0.000000
vt 0.849609 0.043701 0.000000
vt 0.734131 0.235840 0.000000
vt 0.927002 0.299805 0.000000
vt 0.699707 0.932861 0.000000
vt 0.767090 0.965820 0.000000
vt 0.760010 0.749023 0.000000
vt 0.767090 0.965820 0.000000
vt 0.825195 0.757324 0.000000
vt 0.760010 0.749023 0.000000
vt 0.825195 0.757324 0.000000
vt 0.929932 0.777344 0.000000
vt 0.919922 0.536133 0.000000
vt 0.760010 0.749023 0.000000
vt 0.825195 0.757324 0.000000
vt 0.919922 0.536133 0.000000
vt 0.849609 0.043701 0.000000
vt 0.960693 0.111084 0.000000
vt 0.921875 0.035156 0.000000
vt 0.767090 0.965820 0.000000
vt 0.831543 0.992188 0.000000
vt 0.890381 0.943848 0.000000
vt 0.439697 0.684570 0.000000
vt 0.326660 0.748047 0.000000
vt 0.441650 0.832031 0.000000
vt 0.435303 0.524170 0.000000
vt 0.281982 0.676514 0.000000
vt 0.326660 0.748047 0.000000
vt 0.441650 0.832031 0.000000
vt 0.326660 0.748047 0.000000
vt 0.341553 0.802979 0.000000
vt 0.435303 0.524170 0.000000
vt 0.326660 0.748047 0.000000
vt 0.439697 0.684570 0.000000
vt 0.755615 0.035400 0.000000
vt 0.734131 0.235840 0.000000
vt 0.849609 0.043701 0.000000
vt 0.834961 0.552490 0.000000
vt 0.927002 0.299805 0.000000
vt 0.734131 0.235840 0.000000
vt 0.515137 0.834229 0.000000
vt 0.612061 0.819336 0.000000
vt 0.536377 0.784912 0.000000
vt 0.515137 0.834229 0.000000
vt 0.475586 0.874023 0.000000
vt 0.595947 0.888916 0.000000
vt 0.411377 0.917969 0.000000
vt 0.475586 0.874023 0.000000
vt 0.441650 0.832031 0.000000
vt 0.475586 0.874023 0.000000
vt 0.515137 0.834229 0.000000
vt 0.441650 0.832031 0.000000
vt 0.612061 0.819336 0.000000
vt 0.666016 0.784912 0.000000
vt 0.628418 0.724609 0.000000
vt 0.441650 0.832031 0.000000
vt 0.341553 0.802979 0.000000
vt 0.411377 0.917969 0.000000
vt 0.475586 0.874023 0.000000
vt 0.411377 0.917969 0.000000
vt 0.595947 0.888916 0.000000
vt 0.612061 0.819336 0.000000
vt 0.515137 0.834229 0.000000
vt 0.595947 0.888916 0.000000
vt 0.427002 0.983643 0.000000
vt 0.411377 0.917969 0.000000
vt 0.178223 0.905518 0.000000
vt 0.178223 0.905518 0.000000
vt 0.260254 0.784180 0.000000
vt 0.119873 0.712158 0.000000
vt 0.411377 0.917969 0.000000
vt 0.427002 0.983643 0.000000
vt 0.595947 0.888916 0.000000
vt 0.241943 0.609375 0.000000
vt 0.193604 0.548828 0.000000
vt 0.119873 0.712158 0.000000
vt 0.119873 0.712158 0.000000
vt 0.260254 0.784180 0.000000
vt 0.281982 0.676514 0.000000
vt 0.260254 0.784180 0.000000
vt 0.411377 0.917969 0.000000
vt 0.341553 0.802979 0.000000
vt 0.241943 0.609375 0.000000
vt 0.281982 0.676514 0.000000
vt 0.395264 0.413330 0.000000
vt 0.395264 0.413330 0.000000
vt 0.281982 0.676514 0.000000
vt 0.435303 0.524170 0.000000
vt 0.178223 0.905518 0.000000
vt 0.411377 0.917969 0.000000
vt 0.260254 0.784180 0.000000
vt 0.441650 0.832031 0.000000
vt 0.515137 0.834229 0.000000
vt 0.536377 0.784912 0.000000
vt 0.960693 0.111084 0.000000
vt 0.849609 0.043701 0.000000
vt 0.927002 0.299805 0.000000
vt 0.439697 0.684570 0.000000
vt 0.566650 0.732910 0.000000
vt 0.574707 0.620361 0.000000
vt 0.729248 0.528809 0.000000
vt 0.717041 0.449707 0.000000
vt 0.602051 0.527588 0.000000
vt 0.602051 0.527588 0.000000
vt 0.717041 0.449707 0.000000
vt 0.608643 0.463623 0.000000
vt 0.608643 0.463623 0.000000
vt 0.520508 0.493896 0.000000
vt 0.602051 0.527588 0.000000
vt 0.520508 0.493896 0.000000
vt 0.529053 0.524170 0.000000
vt 0.602051 0.527588 0.000000
vt 0.565918 0.316406 0.000000
vt 0.632812 0.299805 0.000000
vt 0.463867 0.229492 0.000000
vt 0.129883 0.485107 0.000000
vt 0.193604 0.548828 0.000000
vt 0.329102 0.217285 0.000000
vt 0.193604 0.548828 0.000000
vt 0.354492 0.330566 0.000000
vt 0.329102 0.217285 0.000000
vt 0.129883 0.485107 0.000000
vt 0.052246 0.714111 0.000000
vt 0.193604 0.548828 0.000000
vt 0.193604 0.548828 0.000000
vt 0.052246 0.714111 0.000000
vt 0.119873 0.712158 0.000000
vt 0.052246 0.714111 0.000000
vt 0.139160 0.981445 0.000000
vt 0.119873 0.712158 0.000000
vt 0.139160 0.981445 0.000000
vt 0.178223 0.905518 0.000000
vt 0.119873 0.712158 0.000000
vt 0.178223 0.905518 0.000000
vt 0.139160 0.981445 0.000000
vt 0.427002 0.983643 0.000000
vt 0.395264 0.413330 0.000000
vt 0.354492 0.330566 0.000000
vt 0.241943 0.609375 0.000000
vt 0.354492 0.330566 0.000000
vt 0.193604 0.548828 0.000000
vt 0.241943 0.609375 0.000000
vt 0.595703 0.391602 0.000000
vt 0.565918 0.316406 0.000000
vt 0.497803 0.410156 0.000000
vt 0.473389 0.320312 0.000000
vt 0.497803 0.410156 0.000000
vt 0.565918 0.316406 0.000000
vt 0.686768 0.364502 0.000000
vt 0.632812 0.299805 0.000000
vt 0.595703 0.391602 0.000000
vt 0.632812 0.299805 0.000000
vt 0.565918 0.316406 0.000000
vt 0.595703 0.391602 0.000000
vt 0.281982 0.676514 0.000000
vt 0.241943 0.609375 0.000000
vt 0.119873 0.712158 0.000000
vt 0.658691 0.611816 0.000000
vt 0.641602 0.633545 0.000000
vt 0.492188 0.537598 0.000000
vt 0.434570 0.525146 0.000000
vt 0.529053 0.524170 0.000000
vt 0.520508 0.493896 0.000000
vt 0.497803 0.410156 0.000000
vt 0.395508 0.414551 0.000000
vt 0.520508 0.493896 0.000000
vt 0.395508 0.414551 0.000000
vt 0.434570 0.525146 0.000000
vt 0.520508 0.493896 0.000000
vt 0.354736 0.328613 0.000000
vt 0.395508 0.414551 0.000000
vt 0.473389 0.320312 0.000000
vt 0.395508 0.414551 0.000000
vt 0.497803 0.410156 0.000000
vt 0.473389 0.320312 0.000000
vt 0.330322 0.218750 0.000000
vt 0.354736 0.328613 0.000000
vt 0.463867 0.229492 0.000000
vt 0.354736 0.328613 0.000000
vt 0.473389 0.320312 0.000000
vt 0.463867 0.229492 0.000000
vt 0.473389 0.320312 0.000000
vt 0.565918 0.316406 0.000000
vt 0.463867 0.229492 0.000000
vt 0.388672 0.098145 0.000000
vt 0.431396 0.014648 0.000000
vt 0.333984 0.008545 0.000000
vt 0.222656 0.117188 0.000000
vt 0.196289 0.041748 0.000000
vt 0.141357 0.063477 0.000000
vt 0.388672 0.098145 0.000000
vt 0.333984 0.008545 0.000000
vt 0.288818 0.126953 0.000000
vt 0.263916 0.022949 0.000000
vt 0.288818 0.126953 0.000000
vt 0.333984 0.008545 0.000000
vt 0.388672 0.098145 0.000000
vt 0.494629 0.022217 0.000000
vt 0.431396 0.014648 0.000000
vt 0.315918 0.160400 0.000000
vt 0.468506 0.119141 0.000000
vt 0.288818 0.126953 0.000000
vt 0.468506 0.119141 0.000000
vt 0.388672 0.098145 0.000000
vt 0.288818 0.126953 0.000000
vt 0.103516 0.097656 0.000000
vt 0.203369 0.198975 0.000000
vt 0.222656 0.117188 0.000000
vt 0.388672 0.098145 0.000000
vt 0.468506 0.119141 0.000000
vt 0.494629 0.022217 0.000000
vt 0.103516 0.097656 0.000000
vt 0.222656 0.117188 0.000000
vt 0.141357 0.063477 0.000000
vt 0.315918 0.160400 0.000000
vt 0.288818 0.126953 0.000000
vt 0.203369 0.198975 0.000000
vt 0.288818 0.126953 0.000000
vt 0.222656 0.117188 0.000000
vt 0.203369 0.198975 0.000000
vt 0.222656 0.117188 0.000000
vt 0.288818 0.126953 0.000000
vt 0.196289 0.041748 0.000000
vt 0.196289 0.041748 0.000000
vt 0.288818 0.126953 0.000000
vt 0.263916 0.022949 0.000000
vt 0.758789 0.226074 0.000000
vt 0.781982 0.292725 0.000000
vt 0.908691 0.255859 0.000000
vt 0.836426 0.387695 0.000000
vt 0.864258 0.371582 0.000000
vt 0.781982 0.292725 0.000000
vt 0.781982 0.292725 0.000000
vt 0.864258 0.371582 0.000000
vt 0.908691 0.255859 0.000000
vt 0.805908 0.173340 0.000000
vt 0.758789 0.226074 0.000000
vt 0.908691 0.255859 0.000000
vt 0.892578 0.106689 0.000000
vt 0.805908 0.173340 0.000000
vt 0.912109 0.132324 0.000000
vt 0.805908 0.173340 0.000000
vt 0.908691 0.255859 0.000000
vt 0.912109 0.132324 0.000000
vn 0.709229 -0.285156 0.644287
vn 0.709229 -0.285156 0.644287
vn 0.709229 -0.285156 0.644287
vn -0.789551 -0.020020 -0.613037
vn -0.789551 -0.020020 -0.613037
vn -0.992432 0.069824 -0.099609
vn -0.339844 -0.103760 -0.934570
vn -0.789551 -0.020020 -0.613037
vn -0.789551 -0.020020 -0.613037
vn -0.715088 -0.392090 -0.578369
vn -0.745605 -0.085205 -0.660645
vn 0.000000 -0.565918 -0.824219
vn -0.646484 -0.353271 -0.676025
vn -0.715088 -0.392090 -0.578369
vn -0.550049 -0.251953 -0.795898
vn -0.766357 -0.144775 -0.625488
vn -0.646484 -0.353271 -0.676025
vn -0.550049 -0.251953 -0.795898
vn 0.000000 -0.565918 -0.824219
vn -0.550049 -0.251953 -0.795898
vn -0.715088 -0.392090 -0.578369
vn -0.646484 -0.353271 -0.676025
vn -0.908936 -0.142090 -0.391357
vn -0.575439 -0.108643 -0.810303
vn -0.715088 -0.392090 -0.578369
vn -0.575439 -0.108643 -0.810303
vn 0.000000 -0.154785 -0.987793
vn -0.575439 -0.108643 -0.810303
vn 0.000000 -0.131348 -0.991211
vn 0.000000 -0.154785 -0.987793
vn 0.000000 -0.675049 -0.737549
vn -0.745605 -0.085205 -0.660645
vn 0.000000 0.301514 -0.953369
vn -0.745605 -0.085205 -0.660645
vn 0.000000 0.962402 -0.270752
vn 0.000000 0.301514 -0.953369
vn 0.000000 0.011230 -0.999756
vn -0.540771 0.177979 -0.822021
vn 0.000000 0.407715 -0.912842
vn -0.540771 0.177979 -0.822021
vn -0.580322 0.485840 -0.653320
vn 0.000000 0.407715 -0.912842
vn -0.781982 0.481201 -0.395752
vn -0.580322 0.485840 -0.653320
vn -0.896240 0.130859 -0.423584
vn -0.580322 0.485840 -0.653320
vn -0.540771 0.177979 -0.822021
vn -0.896240 0.130859 -0.423584
vn 0.000000 -0.996338 0.084717
vn -0.142334 -0.986084 0.083984
vn 0.000000 -0.998047 0.058838
vn -0.142334 -0.986084 0.083984
vn 0.000000 -0.996338 0.084717
vn -0.193115 -0.974854 0.108887
vn -0.745605 -0.085205 -0.660645
vn -0.715088 -0.392090 -0.578369
vn 0.000000 0.962402 -0.270752
vn 0.146729 -0.363770 0.919678
vn 0.357422 -0.739746 0.569580
vn -0.152832 -0.401611 0.902832
vn -0.152832 -0.401611 0.902832
vn 0.357422 -0.739746 0.569580
vn 0.717773 -0.582275 0.381348
vn -0.758545 -0.188721 -0.623291
vn -0.380127 0.039795 -0.923828
vn -0.483643 0.244873 -0.840088
vn -0.977295 0.150146 0.148193
vn 0.019043 0.389648 0.920654
vn -0.152832 -0.401611 0.902832
vn -0.152832 -0.401611 0.902832
vn 0.019043 0.389648 0.920654
vn 0.146729 -0.363770 0.919678
vn 0.146729 -0.363770 0.919678
vn -0.078369 -0.423584 0.902344
vn 0.357422 -0.739746 0.569580
vn 0.019043 0.389648 0.920654
vn -0.078369 -0.423584 0.902344
vn 0.146729 -0.363770 0.919678
vn -0.758545 -0.188721 -0.623291
vn -0.652588 -0.605225 -0.455322
vn -0.487061 -0.292236 -0.822754
vn -0.152832 -0.401611 0.902832
vn 0.717773 -0.582275 0.381348
vn -0.652588 -0.605225 -0.455322
vn -0.646484 -0.353271 -0.676025
vn -0.766357 -0.144775 -0.625488
vn -0.758545 -0.188721 -0.623291
vn -0.908936 -0.142090 -0.391357
vn -0.758545 -0.188721 -0.623291
vn -0.977295 0.150146 0.148193
vn -0.766357 -0.144775 -0.625488
vn -0.652588 -0.605225 -0.455322
vn -0.758545 -0.188721 -0.623291
vn -0.908936 -0.142090 -0.391357
vn -0.646484 -0.353271 -0.676025
vn -0.758545 -0.188721 -0.623291
vn -0.977295 0.150146 0.148193
vn -0.758545 -0.188721 -0.623291
vn -0.483643 0.244873 -0.840088
vn -0.110107 0.329346 -0.937500
vn -0.483643 0.244873 -0.840088
vn -0.380127 0.039795 -0.923828
vn -0.434326 0.282227 -0.855225
vn -0.550049 -0.251953 -0.795898
vn 0.000000 -0.565918 -0.824219
vn -0.434326 0.282227 -0.855225
vn 0.000000 -0.632568 -0.774170
vn -0.670898 -0.248779 -0.698242
vn -0.622803 -0.770020 -0.137695
vn -0.766357 -0.144775 -0.625488
vn -0.670898 -0.248779 -0.698242
vn -0.670898 -0.248779 -0.698242
vn -0.766357 -0.144775 -0.625488
vn -0.434326 0.282227 -0.855225
vn 0.000000 -0.565918 -0.824219
vn -0.745605 -0.085205 -0.660645
vn 0.000000 -0.675049 -0.737549
vn -0.766357 -0.144775 -0.625488
vn -0.622803 -0.770020 -0.137695
vn -0.652588 -0.605225 -0.455322
vn -0.670898 -0.248779 -0.698242
vn 0.000000 -0.632568 -0.774170
vn -0.622803 -0.770020 -0.137695
vn 0.000000 -0.565918 -0.824219
vn 0.000000 -0.632568 -0.774170
vn -0.434326 0.282227 -0.855225
vn -0.183105 -0.982422 0.030762
vn -0.388672 -0.755859 0.526367
vn -0.622803 -0.770020 -0.137695
vn -0.388672 -0.755859 0.526367
vn -0.556152 0.004395 0.830811
vn -0.152832 -0.401611 0.902832
vn -0.622803 -0.770020 -0.137695
vn 0.000000 -0.632568 -0.774170
vn -0.183105 -0.982422 0.030762
vn -0.774658 0.161377 0.611084
vn -0.556152 0.004395 0.830811
vn -0.352051 0.531982 0.769775
vn -0.556152 0.004395 0.830811
vn -0.977295 0.150146 0.148193
vn -0.152832 -0.401611 0.902832
vn -0.152832 -0.401611 0.902832
vn -0.652588 -0.605225 -0.455322
vn -0.622803 -0.770020 -0.137695
vn -0.774658 0.161377 0.611084
vn -0.961426 0.263672 -0.077637
vn -0.977295 0.150146 0.148193
vn -0.961426 0.263672 -0.077637
vn -0.908936 -0.142090 -0.391357
vn -0.977295 0.150146 0.148193
vn -0.388672 -0.755859 0.526367
vn -0.152832 -0.401611 0.902832
vn -0.622803 -0.770020 -0.137695
vn -0.766357 -0.144775 -0.625488
vn -0.550049 -0.251953 -0.795898
vn -0.434326 0.282227 -0.855225
vn -0.487061 -0.292236 -0.822754
vn -0.380127 0.039795 -0.923828
vn -0.758545 -0.188721 -0.623291
vn -0.646484 -0.353271 -0.676025
vn -0.575439 -0.108643 -0.810303
vn -0.715088 -0.392090 -0.578369
vn 0.000000 -0.138672 -0.990234
vn -0.615234 -0.048096 -0.786621
vn 0.000000 0.011230 -0.999756
vn -0.615234 -0.048096 -0.786621
vn -0.540771 0.177979 -0.822021
vn 0.000000 0.011230 -0.999756
vn -0.540771 0.177979 -0.822021
vn -0.615234 -0.048096 -0.786621
vn -0.896240 0.130859 -0.423584
vn -0.896240 0.130859 -0.423584
vn -0.615234 -0.048096 -0.786621
vn -0.921875 0.085205 -0.377441
vn -0.474121 0.802002 -0.363037
vn 0.000000 0.999756 0.020508
vn 0.000000 0.780273 -0.625244
vn -0.091553 0.615234 0.782715
vn -0.148682 0.745850 0.648926
vn -0.352051 0.531982 0.769775
vn -0.352051 0.531982 0.769775
vn -0.148682 0.745850 0.648926
vn -0.448975 0.756592 0.474854
vn -0.091553 0.615234 0.782715
vn -0.352051 0.531982 0.769775
vn -0.250488 0.302002 0.919678
vn -0.352051 0.531982 0.769775
vn -0.556152 0.004395 0.830811
vn -0.250488 0.302002 0.919678
vn -0.250488 0.302002 0.919678
vn -0.556152 0.004395 0.830811
vn -0.106934 -0.633301 0.766357
vn -0.556152 0.004395 0.830811
vn -0.388672 -0.755859 0.526367
vn -0.106934 -0.633301 0.766357
vn -0.388672 -0.755859 0.526367
vn -0.183105 -0.982422 0.030762
vn -0.106934 -0.633301 0.766357
vn -0.961426 0.263672 -0.077637
vn -0.774658 0.161377 0.611084
vn -0.448975 0.756592 0.474854
vn -0.448975 0.756592 0.474854
vn -0.774658 0.161377 0.611084
vn -0.352051 0.531982 0.769775
vn -0.580322 0.485840 -0.653320
vn -0.781982 0.481201 -0.395752
vn -0.474121 0.802002 -0.363037
vn -0.550537 0.824951 -0.126465
vn -0.474121 0.802002 -0.363037
vn -0.781982 0.481201 -0.395752
vn 0.000000 0.407715 -0.912842
vn -0.580322 0.485840 -0.653320
vn 0.000000 0.780273 -0.625244
vn -0.580322 0.485840 -0.653320
vn -0.474121 0.802002 -0.363037
vn 0.000000 0.780273 -0.625244
vn -0.977295 0.150146 0.148193
vn -0.556152 0.004395 0.830811
vn -0.774658 0.161377 0.611084
vn -0.230225 -0.960938 0.152100
vn -0.230225 -0.960938 0.152100
vn -0.230225 -0.960938 0.152100
vn -0.908936 -0.142090 -0.391357
vn -0.896240 0.130859 -0.423584
vn -0.921875 0.085205 -0.377441
vn -0.781982 0.481201 -0.395752
vn -0.896240 0.130859 -0.423584
vn -0.961426 0.263672 -0.077637
vn -0.961426 0.263672 -0.077637
vn -0.896240 0.130859 -0.423584
vn -0.908936 -0.142090 -0.391357
vn -0.448975 0.756592 0.474854
vn -0.550537 0.824951 -0.126465
vn -0.961426 0.263672 -0.077637
vn -0.550537 0.824951 -0.126465
vn -0.781982 0.481201 -0.395752
vn -0.961426 0.263672 -0.077637
vn -0.148682 0.745850 0.648926
vn 0.000000 0.999756 0.020508
vn -0.448975 0.756592 0.474854
vn -0.448975 0.756592 0.474854
vn 0.000000 0.999756 0.020508
vn -0.550537 0.824951 -0.126465
vn -0.550537 0.824951 -0.126465
vn 0.000000 0.999756 0.020508
vn -0.474121 0.802002 -0.363037
vn -0.622314 -0.615234 -0.483643
vn -0.903076 -0.374756 -0.208496
vn -0.614258 -0.491455 -0.616943
vn -0.532471 -0.427246 0.730469
vn -0.484619 -0.111328 0.867432
vn -0.868408 -0.322998 0.375488
vn -0.622314 -0.615234 -0.483643
vn -0.693115 -0.717773 0.063477
vn -0.903076 -0.374756 -0.208496
vn -0.847656 -0.457764 -0.267334
vn -0.903076 -0.374756 -0.208496
vn -0.693115 -0.717773 0.063477
vn -0.622314 -0.615234 -0.483643
vn -0.614258 -0.491455 -0.616943
vn 0.000000 -0.557129 -0.830322
vn 0.000000 -0.983887 0.177734
vn -0.693115 -0.717773 0.063477
vn 0.000000 -0.925537 -0.378418
vn 0.000000 -0.925537 -0.378418
vn -0.693115 -0.717773 0.063477
vn -0.622314 -0.615234 -0.483643
vn 0.000000 -0.201416 0.979248
vn -0.532471 -0.427246 0.730469
vn 0.000000 -0.786621 0.617188
vn -0.622314 -0.615234 -0.483643
vn 0.000000 -0.557129 -0.830322
vn 0.000000 -0.925537 -0.378418
vn 0.000000 -0.201416 0.979248
vn -0.484619 -0.111328 0.867432
vn -0.532471 -0.427246 0.730469
vn 0.000000 -0.983887 0.177734
vn 0.000000 -0.786621 0.617188
vn -0.693115 -0.717773 0.063477
vn -0.693115 -0.717773 0.063477
vn 0.000000 -0.786621 0.617188
vn -0.532471 -0.427246 0.730469
vn -0.532471 -0.427246 0.730469
vn -0.868408 -0.322998 0.375488
vn -0.693115 -0.717773 0.063477
vn -0.868408 -0.322998 0.375488
vn -0.897705 -0.419922 0.131592
vn -0.693115 -0.717773 0.063477
vn -0.709229 -0.285156 0.644287
vn -0.709229 -0.285156 0.644287
vn -0.709229 -0.285156 0.644287
vn 0.789551 -0.020020 -0.613037
vn 0.992432 0.069824 -0.099609
vn 0.789551 -0.020020 -0.613037
vn 0.339844 -0.103760 -0.934570
vn 0.789551 -0.020020 -0.613037
vn 0.789551 -0.020020 -0.613037
vn 0.715088 -0.392090 -0.578369
vn 0.000000 -0.565918 -0.824219
vn 0.745605 -0.085205 -0.660645
vn 0.646484 -0.353271 -0.676025
vn 0.550049 -0.251953 -0.795898
vn 0.715088 -0.392090 -0.578369
vn 0.766357 -0.144775 -0.625488
vn 0.550049 -0.251953 -0.795898
vn 0.646484 -0.353271 -0.676025
vn 0.000000 -0.565918 -0.824219
vn 0.715088 -0.392090 -0.578369
vn 0.550049 -0.251953 -0.795898
vn 0.646484 -0.353271 -0.676025
vn 0.575439 -0.108643 -0.810303
vn 0.908936 -0.142090 -0.391357
vn 0.715088 -0.392090 -0.578369
vn 0.000000 -0.154785 -0.987793
vn 0.575439 -0.108643 -0.810303
vn 0.575439 -0.108643 -0.810303
vn 0.000000 -0.154785 -0.987793
vn 0.000000 -0.131348 -0.991211
vn 0.000000 -0.675049 -0.737549
vn 0.000000 0.301514 -0.953369
vn 0.745605 -0.085205 -0.660645
vn 0.745605 -0.085205 -0.660645
vn 0.000000 0.301514 -0.953369
vn 0.000000 0.962402 -0.270752
vn 0.000000 0.011230 -0.999756
vn 0.000000 0.407715 -0.912842
vn 0.540771 0.177979 -0.822021
vn 0.000000 0.407715 -0.912842
vn 0.580322 0.485840 -0.653320
vn 0.540771 0.177979 -0.822021
vn 0.781982 0.481201 -0.395752
vn 0.896240 0.130859 -0.423584
vn 0.580322 0.485840 -0.653320
vn 0.896240 0.130859 -0.423584
vn 0.540771 0.177979 -0.822021
vn 0.580322 0.485840 -0.653320
vn 0.000000 -0.996338 0.084717
vn 0.000000 -0.998047 0.058838
vn 0.142334 -0.986084 0.083984
vn 0.142334 -0.986084 0.083984
vn 0.193115 -0.974854 0.108887
vn 0.000000 -0.996338 0.084717
vn 0.745605 -0.085205 -0.660645
vn 0.000000 0.962402 -0.270752
vn 0.715088 -0.392090 -0.578369
vn -0.146729 -0.363770 0.919678
vn 0.152832 -0.401611 0.902832
vn -0.357422 -0.739746 0.569580
vn 0.152832 -0.401611 0.902832
vn -0.717773 -0.582275 0.381348
vn -0.357422 -0.739746 0.569580
vn 0.758545 -0.188721 -0.623291
vn 0.483643 0.244873 -0.840088
vn 0.380127 0.039795 -0.923828
vn 0.977295 0.150146 0.148193
vn 0.152832 -0.401611 0.902832
vn -0.019043 0.389648 0.920654
vn 0.152832 -0.401611 0.902832
vn -0.146729 -0.363770 0.919678
vn -0.019043 0.389648 0.920654
vn -0.146729 -0.363770 0.919678
vn -0.357422 -0.739746 0.569580
vn 0.078369 -0.423584 0.902344
vn -0.019043 0.389648 0.920654
vn -0.146729 -0.363770 0.919678
vn 0.078369 -0.423584 0.902344
vn 0.758545 -0.188721 -0.623291
vn 0.487061 -0.292236 -0.822754
vn 0.652588 -0.605225 -0.455322
vn 0.152832 -0.401611 0.902832
vn 0.652588 -0.605225 -0.455322
vn -0.717773 -0.582275 0.381348
vn 0.646484 -0.353271 -0.676025
vn 0.758545 -0.188721 -0.623291
vn 0.766357 -0.144775 -0.625488
vn 0.908936 -0.142090 -0.391357
vn 0.977295 0.150146 0.148193
vn 0.758545 -0.188721 -0.623291
vn 0.766357 -0.144775 -0.625488
vn 0.758545 -0.188721 -0.623291
vn 0.652588 -0.605225 -0.455322
vn 0.908936 -0.142090 -0.391357
vn 0.758545 -0.188721 -0.623291
vn 0.646484 -0.353271 -0.676025
vn 0.977295 0.150146 0.148193
vn 0.483643 0.244873 -0.840088
vn 0.758545 -0.188721 -0.623291
vn 0.110107 0.329346 -0.937500
vn 0.380127 0.039795 -0.923828
vn 0.483643 0.244873 -0.840088
vn 0.434326 0.282227 -0.855225
vn 0.000000 -0.565918 -0.824219
vn 0.550049 -0.251953 -0.795898
vn 0.434326 0.282227 -0.855225
vn 0.670898 -0.248779 -0.698242
vn 0.000000 -0.632568 -0.774170
vn 0.622803 -0.770020 -0.137695
vn 0.670898 -0.248779 -0.698242
vn 0.766357 -0.144775 -0.625488
vn 0.670898 -0.248779 -0.698242
vn 0.434326 0.282227 -0.855225
vn 0.766357 -0.144775 -0.625488
vn 0.000000 -0.565918 -0.824219
vn 0.000000 -0.675049 -0.737549
vn 0.745605 -0.085205 -0.660645
vn 0.766357 -0.144775 -0.625488
vn 0.652588 -0.605225 -0.455322
vn 0.622803 -0.770020 -0.137695
vn 0.670898 -0.248779 -0.698242
vn 0.622803 -0.770020 -0.137695
vn 0.000000 -0.632568 -0.774170
vn 0.000000 -0.565918 -0.824219
vn 0.434326 0.282227 -0.855225
vn 0.000000 -0.632568 -0.774170
vn 0.183105 -0.982422 0.030762
vn 0.622803 -0.770020 -0.137695
vn 0.388672 -0.755859 0.526367
vn 0.388672 -0.755859 0.526367
vn 0.152832 -0.401611 0.902832
vn 0.556152 0.004395 0.830811
vn 0.622803 -0.770020 -0.137695
vn 0.183105 -0.982422 0.030762
vn 0.000000 -0.632568 -0.774170
vn 0.774658 0.161377 0.611084
vn 0.352051 0.531982 0.769775
vn 0.556152 0.004395 0.830811
vn 0.556152 0.004395 0.830811
vn 0.152832 -0.401611 0.902832
vn 0.977295 0.150146 0.148193
vn 0.152832 -0.401611 0.902832
vn 0.622803 -0.770020 -0.137695
vn 0.652588 -0.605225 -0.455322
vn 0.774658 0.161377 0.611084
vn 0.977295 0.150146 0.148193
vn 0.961426 0.263672 -0.077637
vn 0.961426 0.263672 -0.077637
vn 0.977295 0.150146 0.148193
vn 0.908936 -0.142090 -0.391357
vn 0.388672 -0.755859 0.526367
vn 0.622803 -0.770020 -0.137695
vn 0.152832 -0.401611 0.902832
vn 0.766357 -0.144775 -0.625488
vn 0.434326 0.282227 -0.855225
vn 0.550049 -0.251953 -0.795898
vn 0.487061 -0.292236 -0.822754
vn 0.758545 -0.188721 -0.623291
vn 0.380127 0.039795 -0.923828
vn 0.646484 -0.353271 -0.676025
vn 0.715088 -0.392090 -0.578369
vn 0.575439 -0.108643 -0.810303
vn 0.000000 -0.138672 -0.990234
vn 0.000000 0.011230 -0.999756
vn 0.615234 -0.048096 -0.786621
vn 0.615234 -0.048096 -0.786621
vn 0.000000 0.011230 -0.999756
vn 0.540771 0.177979 -0.822021
vn 0.540771 0.177979 -0.822021
vn 0.896240 0.130859 -0.423584
vn 0.615234 -0.048096 -0.786621
vn 0.896240 0.130859 -0.423584
vn 0.921875 0.085205 -0.377441
vn 0.615234 -0.048096 -0.786621
vn 0.474121 0.802002 -0.363037
vn 0.000000 0.780273 -0.625244
vn 0.000000 0.999756 0.020508
vn 0.091553 0.615234 0.782715
vn 0.352051 0.531982 0.769775
vn 0.148682 0.745850 0.648926
vn 0.352051 0.531982 0.769775
vn 0.448975 0.756592 0.474854
vn 0.148682 0.745850 0.648926
vn 0.091553 0.615234 0.782715
vn 0.250488 0.302002 0.919678
vn 0.352051 0.531982 0.769775
vn 0.352051 0.531982 0.769775
vn 0.250488 0.302002 0.919678
vn 0.556152 0.004395 0.830811
vn 0.250488 0.302002 0.919678
vn 0.106934 -0.633301 0.766357
vn 0.556152 0.004395 0.830811
vn 0.106934 -0.633301 0.766357
vn 0.388672 -0.755859 0.526367
vn 0.556152 0.004395 0.830811
vn 0.388672 -0.755859 0.526367
vn 0.106934 -0.633301 0.766357
vn 0.183105 -0.982422 0.030762
vn 0.961426 0.263672 -0.077637
vn 0.448975 0.756592 0.474854
vn 0.774658 0.161377 0.611084
vn 0.448975 0.756592 0.474854
vn 0.352051 0.531982 0.769775
vn 0.774658 0.161377 0.611084
vn 0.580322 0.485840 -0.653320
vn 0.474121 0.802002 -0.363037
vn 0.781982 0.481201 -0.395752
vn 0.550537 0.824951 -0.126465
vn 0.781982 0.481201 -0.395752
vn 0.474121 0.802002 -0.363037
vn 0.000000 0.407715 -0.912842
vn 0.000000 0.780273 -0.625244
vn 0.580322 0.485840 -0.653320
vn 0.000000 0.780273 -0.625244
vn 0.474121 0.802002 -0.363037
vn 0.580322 0.485840 -0.653320
vn 0.977295 0.150146 0.148193
vn 0.774658 0.161377 0.611084
vn 0.556152 0.004395 0.830811
vn 0.230225 -0.960938 0.152100
vn 0.230225 -0.960938 0.152100
vn 0.230225 -0.960938 0.152100
vn 0.908936 -0.142090 -0.391357
vn 0.921875 0.085205 -0.377441
vn 0.896240 0.130859 -0.423584
vn 0.781982 0.481201 -0.395752
vn 0.961426 0.263672 -0.077637
vn 0.896240 0.130859 -0.423584
vn 0.961426 0.263672 -0.077637
vn 0.908936 -0.142090 -0.391357
vn 0.896240 0.130859 -0.423584
vn 0.448975 0.756592 0.474854
vn 0.961426 0.263672 -0.077637
vn 0.550537 0.824951 -0.126465
vn 0.961426 0.263672 -0.077637
vn 0.781982 0.481201 -0.395752
vn 0.550537 0.824951 -0.126465
vn 0.148682 0.745850 0.648926
vn 0.448975 0.756592 0.474854
vn 0.000000 0.999756 0.020508
vn 0.448975 0.756592 0.474854
vn 0.550537 0.824951 -0.126465
vn 0.000000 0.999756 0.020508
vn 0.550537 0.824951 -0.126465
vn 0.474121 0.802002 -0.363037
vn 0.000000 0.999756 0.020508
vn 0.622314 -0.615234 -0.483643
vn 0.614258 -0.491455 -0.616943
vn 0.903076 -0.374756 -0.208496
vn 0.532471 -0.427246 0.730469
vn 0.868408 -0.322998 0.375488
vn 0.484619 -0.111328 0.867432
vn 0.622314 -0.615234 -0.483643
vn 0.903076 -0.374756 -0.208496
vn 0.693115 -0.717773 0.063477
vn 0.847656 -0.457764 -0.267334
vn 0.693115 -0.717773 0.063477
vn 0.903076 -0.374756 -0.208496
vn 0.622314 -0.615234 -0.483643
vn 0.000000 -0.557129 -0.830322
vn 0.614258 -0.491455 -0.616943
vn 0.000000 -0.983887 0.177734
vn 0.000000 -0.925537 -0.378418
vn 0.693115 -0.717773 0.063477
vn 0.000000 -0.925537 -0.378418
vn 0.622314 -0.615234 -0.483643
vn 0.693115 -0.717773 0.063477
vn 0.000000 -0.201416 0.979248
vn 0.000000 -0.786621 0.617188
vn 0.532471 -0.427246 0.730469
vn 0.622314 -0.615234 -0.483643
vn 0.000000 -0.925537 -0.378418
vn 0.000000 -0.557129 -0.830322
vn 0.000000 -0.201416 0.979248
vn 0.532471 -0.427246 0.730469
vn 0.484619 -0.111328 0.867432
vn 0.000000 -0.983887 0.177734
vn 0.693115 -0.717773 0.063477
vn 0.000000 -0.786621 0.617188
vn 0.693115 -0.717773 0.063477
vn 0.532471 -0.427246 0.730469
vn 0.000000 -0.786621 0.617188
vn 0.532471 -0.427246 0.730469
vn 0.693115 -0.717773 0.063477
vn 0.868408 -0.322998 0.375488
vn 0.868408 -0.322998 0.375488
vn 0.693115 -0.717773 0.063477
vn 0.897705 -0.419922 0.131592
vn 0.156982 0.976562 -0.145996
vn 0.156982 0.976562 -0.145996
vn 0.156982 0.976562 -0.145996
vn 0.215576 0.952393 -0.215088
vn 0.232666 0.950928 -0.203613
vn 0.232666 0.950928 -0.203613
vn 0.232666 0.950928 -0.203613
vn 0.232666 0.950928 -0.203613
vn 0.249268 0.948975 -0.192383
vn -0.156982 0.976562 -0.145996
vn -0.156982 0.976562 -0.145996
vn -0.156982 0.976562 -0.145996
vn -0.215820 0.952393 -0.214844
vn -0.232666 0.950928 -0.203613
vn -0.232666 0.950928 -0.203613
vn -0.232666 0.950928 -0.203613
vn -0.249268 0.948975 -0.192383
vn -0.232666 0.950928 -0.203613
usemtl Texture
f 1/1/1 2/2/2 3/3/3
f 4/4/4 5/5/5 6/6/6
f 7/7/7 8/8/8 9/9/9
f 10/10/10 11/11/11 12/12/12
f 13/13/13 14/14/14 15/15/15
f 16/16/16 17/17/17 18/18/18
f 19/19/19 20/20/20 21/21/21
f 22/22/22 23/23/23 24/24/24
f 25/25/25 26/26/26 27/27/27
f 28/28/28 29/29/29 30/30/30
f 31/31/31 32/32/32 33/33/33
f 34/34/34 35/35/35 36/36/36
f 37/37/37 38/38/38 39/39/39
f 40/40/40 41/41/41 42/42/42
f 43/43/43 44/44/44 45/45/45
f 46/46/46 47/47/47 48/48/48
f 49/49/49 50/50/50 51/51/51
f 52/52/52 53/53/53 54/54/54
f 55/55/55 56/56/56 57/57/57
f 58/58/58 59/59/59 60/60/60
f 61/61/61 62/62/62 63/63/63
f 64/64/64 65/65/65 66/66/66
f 67/67/67 68/68/68 69/69/69
f 70/70/70 71/71/71 72/72/72
f 73/73/73 74/74/74 75/75/75
f 76/76/76 77/77/77 78/78/78
f 79/79/79 80/80/80 81/81/81
f 82/82/82 83/83/83 84/84/84
f 85/85/85 86/86/86 87/87/87
f 88/88/88 89/89/89 90/90/90
f 91/91/91 92/92/92 93/93/93
f 94/94/94 95/95/95 96/96/96
f 97/97/97 98/98/98 99/99/99
f 100/100/100 101/101/101 102/102/102
f 103/103/103 104/104/104 105/105/105
f 106/106/106 107/107/107 108/108/108
f 109/109/109 110/110/110 111/111/111
f 112/112/112 113/113/113 114/114/114
f 115/115/115 116/116/116 117/117/117
f 118/118/118 119/119/119 120/120/120
f 121/121/121 122/122/122 123/123/123
f 124/124/124 125/125/125 126/126/126
f 127/127/127 128/128/128 129/129/129
f 130/130/130 131/131/131 132/132/132
f 133/133/133 134/134/134 135/135/135
f 136/136/136 137/137/137 138/138/138
f 139/139/139 140/140/140 141/141/141
f 142/142/142 143/143/143 144/144/144
f 145/145/145 146/146/146 147/147/147
f 148/148/148 149/149/149 150/150/150
f 151/151/151 152/152/152 153/153/153
f 154/154/154 155/155/155 156/156/156
f 157/157/157 158/158/158 159/159/159
f 160/160/160 161/161/161 162/162/162
f 163/163/163 164/164/164 165/165/165
f 166/166/166 167/167/167 168/168/168
f 169/169/169 170/170/170 171/171/171
f 172/172/172 173/173/173 174/174/174
f 175/175/175 176/176/176 177/177/177
f 178/178/178 179/179/179 180/180/180
f 181/181/181 182/182/182 183/183/183
f 184/184/184 185/185/185 186/186/186
f 187/187/187 188/188/188 189/189/189
f 190/190/190 191/191/191 192/192/192
f 193/193/193 194/194/194 195/195/195
f 196/196/196 197/197/197 198/198/198
f 199/199/199 200/200/200 201/201/201
f 202/202/202 203/203/203 204/204/204
f 205/205/205 206/206/206 207/207/207
f 208/208/208 209/209/209 210/210/210
f 211/211/211 212/212/212 213/213/213
f 214/214/214 215/215/215 216/216/216
f 217/217/217 218/218/218 219/219/219
f 220/220/220 221/221/221 222/222/222
f 223/223/223 224/224/224 225/225/225
f 226/226/226 227/227/227 228/228/228
f 229/229/229 230/230/230 231/231/231
f 232/232/232 233/233/233 234/234/234
f 235/235/235 236/236/236 237/237/237
f 238/238/238 239/239/239 240/240/240
f 241/241/241 242/242/242 243/243/243
f 244/244/244 245/245/245 246/246/246
f 247/247/247 248/248/248 249/249/249
f 250/250/250 251/251/251 252/252/252
f 253/253/253 254/254/254 255/255/255
f 256/256/256 257/257/257 258/258/258
f 259/259/259 260/260/260 261/261/261
f 262/262/262 263/263/263 264/264/264
f 265/265/265 266/266/266 267/267/267
f 268/268/268 269/269/269 270/270/270
f 271/271/271 272/272/272 273/273/273
f 274/274/274 275/275/275 276/276/276
f 277/277/277 278/278/278 279/279/279
f 280/280/280 281/281/281 282/282/282
f 283/283/283 284/284/284 285/285/285
f 286/286/286 287/287/287 288/288/288
f 289/289/289 290/290/290 291/291/291
f 292/292/292 293/293/293 294/294/294
f 295/295/295 296/296/296 297/297/297
f 298/298/298 299/299/299 300/300/300
f 301/301/301 302/302/302 303/303/303
f 304/304/304 305/305/305 306/306/306
f 307/307/307 308/308/308 309/309/309
f 310/310/310 311/311/311 312/312/312
f 313/313/313 314/314/314 315/315/315
f 316/316/316 317/317/317 318/318/318
f 319/319/319 320/320/320 321/321/321
f 322/322/322 323/323/323 324/324/324
f 325/325/325 326/326/326 327/327/327
f 328/328/328 329/329/329 330/330/330
f 331/331/331 332/332/332 333/333/333
f 334/334/334 335/335/335 336/336/336
f 337/337/337 338/338/338 339/339/339
f 340/340/340 341/341/341 342/342/342
f 343/343/343 344/344/344 345/345/345
f 346/346/346 347/347/347 348/348/348
f 349/349/349 350/350/350 351/351/351
f 352/352/352 353/353/353 354/354/354
f 355/355/355 356/356/356 357/357/357
f 358/358/358 359/359/359 360/360/360
f 361/361/361 362/362/362 363/363/363
f 364/364/364 365/365/365 366/366/366
f 367/367/367 368/368/368 369/369/369
f 370/370/370 371/371/371 372/372/372
f 373/373/373 374/374/374 375/375/375
f 376/376/376 377/377/377 378/378/378
f 379/379/379 380/380/380 381/381/381
f 382/382/382 383/383/383 384/384/384
f 385/385/385 386/386/386 387/387/387
f 388/388/388 389/389/389 390/390/390
f 391/391/391 392/392/392 393/393/393
f 394/394/394 395/395/395 396/396/396
f 397/397/397 398/398/398 399/399/399
f 400/400/400 401/401/401 402/402/402
f 403/403/403 404/404/404 405/405/405
f 406/406/406 407/407/407 408/408/408
f 409/409/409 410/410/410 411/411/411
f 412/412/412 413/413/413 414/414/414
f 415/415/415 416/416/416 417/417/417
f 418/418/418 419/419/419 420/420/420
f 421/421/421 422/422/422 423/423/423
f 424/424/424 425/425/425 426/426/426
f 427/427/427 428/428/428 429/429/429
f 430/430/430 431/431/431 432/432/432
f 433/433/433 434/434/434 435/435/435
f 436/436/436 437/437/437 438/438/438
f 439/439/439 440/440/440 441/441/441
f 442/442/442 443/443/443 444/444/444
f 445/445/445 446/446/446 447/447/447
f 448/448/448 449/449/449 450/450/450
f 451/451/451 452/452/452 453/453/453
f 454/454/454 455/455/455 456/456/456
f 457/457/457 458/458/458 459/459/459
f 460/460/460 461/461/461 462/462/462
f 463/463/463 464/464/464 465/465/465
f 466/466/466 467/467/467 468/468/468
f 469/469/469 470/470/470 471/471/471
f 472/472/472 473/473/473 474/474/474
f 475/475/475 476/476/476 477/477/477
f 478/478/478 479/479/479 480/480/480
f 481/481/481 482/482/482 483/483/483
f 484/484/484 485/485/485 486/486/486
f 487/487/487 488/488/488 489/489/489
f 490/490/490 491/491/491 492/492/492
f 493/493/493 494/494/494 495/495/495
f 496/496/496 497/497/497 498/498/498
f 499/499/499 500/500/500 501/501/501
f 502/502/502 503/503/503 504/504/504
f 505/505/505 506/506/506 507/507/507
f 508/508/508 509/509/509 510/510/510
f 511/511/511 512/512/512 513/513/513
f 514/514/514 515/515/515 516/516/516
f 517/517/517 518/518/518 519/519/519
f 520/520/520 521/521/521 522/522/522
f 523/523/523 524/524/524 525/525/525
f 526/526/526 527/527/527 528/528/528
f 529/529/529 530/530/530 531/531/531
f 532/532/532 533/533/533 534/534/534
f 535/535/535 536/536/536 537/537/537
f 538/538/538 539/539/539 540/540/540
f 541/541/541 542/542/542 543/543/543
f 544/544/544 545/545/545 546/546/546
f 547/547/547 548/548/548 549/549/549
f 550/550/550 551/551/551 552/552/552
f 553/553/553 554/554/554 555/555/555
f 556/556/556 557/557/557 558/558/558
f 559/559/559 560/560/560 561/561/561
f 562/562/562 563/563/563 564/564/564
f 565/565/565 566/566/566 567/567/567
f 568/568/568 569/569/569 570/570/570
f 571/571/571 572/572/572 573/573/573
f 574/574/574 575/575/575 576/576/576
f 577/577/577 578/578/578 579/579/579
f 580/580/580 581/581/581 582/582/582
f 583/583/583 584/584/584 585/585/585
f 586/586/586 587/587/587 588/588/588
f 589/589/589 590/590/590 591/591/591
f 592/592/592 593/593/593 594/594/594
