# OBJ file
mtllib rtcw.ico.mtl
v 0.167969 2.289063 0.136719 0.501961 0.501961 0.501961 #0.501961
v 0.167969 1.753906 -0.136719 0.501961 0.501961 0.501961 #0.501961
v 0.167969 1.753906 0.136719 0.501961 0.501961 0.501961 #0.501961
v 0.167969 1.753906 0.136719 0.501961 0.501961 0.501961 #0.501961
v 0.167969 1.753906 -0.136719 0.501961 0.501961 0.501961 #0.501961
v 1.796875 1.753906 -0.136719 0.501961 0.501961 0.501961 #0.501961
v 0.167969 1.753906 0.136719 0.501961 0.501961 0.501961 #0.501961
v 1.796875 1.753906 -0.136719 0.501961 0.501961 0.501961 #0.501961
v 1.796875 1.753906 0.136719 0.501961 0.501961 0.501961 #0.501961
v 1.796875 1.753906 0.136719 0.501961 0.501961 0.501961 #0.501961
v 1.796875 1.753906 -0.136719 0.501961 0.501961 0.501961 #0.501961
v 1.957031 1.914063 -0.136719 0.501961 0.501961 0.501961 #0.501961
v 1.796875 1.753906 0.136719 0.501961 0.501961 0.501961 #0.501961
v 1.957031 1.914063 -0.136719 0.501961 0.501961 0.501961 #0.501961
v 1.957031 1.914063 0.136719 0.501961 0.501961 0.501961 #0.501961
v 1.957031 1.914063 0.136719 0.501961 0.501961 0.501961 #0.501961
v 1.957031 1.914063 -0.136719 0.501961 0.501961 0.501961 #0.501961
v 1.246094 1.910156 -0.136719 0.501961 0.501961 0.501961 #0.501961
v 0.167969 1.753906 -0.136719 0.501961 0.501961 0.501961 #0.501961
v 0.167969 2.289063 0.136719 0.501961 0.501961 0.501961 #0.501961
v 0.167969 2.289063 -0.136719 0.501961 0.501961 0.501961 #0.501961
v 0.167969 2.289063 -0.136719 0.501961 0.501961 0.501961 #0.501961
v 0.167969 2.289063 0.136719 0.501961 0.501961 0.501961 #0.501961
v 0.125000 2.328125 -0.136719 0.501961 0.501961 0.501961 #0.501961
v 0.167969 2.289063 0.136719 0.501961 0.501961 0.501961 #0.501961
v 0.125000 2.328125 0.136719 0.501961 0.501961 0.501961 #0.501961
v 0.125000 2.328125 -0.136719 0.501961 0.501961 0.501961 #0.501961
v 0.125000 2.328125 -0.136719 0.501961 0.501961 0.501961 #0.501961
v 0.125000 2.328125 0.136719 0.501961 0.501961 0.501961 #0.501961
v 0.019531 2.339844 0.136719 0.501961 0.501961 0.501961 #0.501961
v 0.125000 2.328125 -0.136719 0.501961 0.501961 0.501961 #0.501961
v 0.019531 2.339844 0.136719 0.501961 0.501961 0.501961 #0.501961
v 0.019531 2.339844 -0.136719 0.501961 0.501961 0.501961 #0.501961
v 0.019531 2.339844 -0.136719 0.501961 0.501961 0.501961 #0.501961
v 0.019531 2.339844 0.136719 0.501961 0.501961 0.501961 #0.501961
v 0.054688 2.417969 -0.136719 0.501961 0.501961 0.501961 #0.501961
v 0.019531 2.339844 0.136719 0.501961 0.501961 0.501961 #0.501961
v 0.054688 2.417969 0.136719 0.501961 0.501961 0.501961 #0.501961
v 0.054688 2.417969 -0.136719 0.501961 0.501961 0.501961 #0.501961
v 0.054688 2.417969 -0.136719 0.501961 0.501961 0.501961 #0.501961
v 0.054688 2.417969 0.136719 0.501961 0.501961 0.501961 #0.501961
v 0.109375 2.449219 0.136719 0.501961 0.501961 0.501961 #0.501961
v 0.054688 2.417969 -0.136719 0.501961 0.501961 0.501961 #0.501961
v 0.109375 2.449219 0.136719 0.501961 0.501961 0.501961 #0.501961
v 0.109375 2.449219 -0.136719 0.501961 0.501961 0.501961 #0.501961
v 0.109375 2.449219 -0.136719 0.501961 0.501961 0.501961 #0.501961
v 0.109375 2.449219 0.136719 0.501961 0.501961 0.501961 #0.501961
v 0.503906 2.515625 -0.136719 0.501961 0.501961 0.501961 #0.501961
v 0.109375 2.449219 0.136719 0.501961 0.501961 0.501961 #0.501961
v 0.503906 2.515625 0.136719 0.501961 0.501961 0.501961 #0.501961
v 0.503906 2.515625 -0.136719 0.501961 0.501961 0.501961 #0.501961
v 0.503906 2.515625 -0.136719 0.501961 0.501961 0.501961 #0.501961
v 0.503906 2.515625 0.136719 0.501961 0.501961 0.501961 #0.501961
v 0.503906 1.953125 0.136719 0.501961 0.501961 0.501961 #0.501961
v 0.503906 2.515625 -0.136719 0.501961 0.501961 0.501961 #0.501961
v 0.503906 1.953125 0.136719 0.501961 0.501961 0.501961 #0.501961
v 0.503906 1.953125 -0.136719 0.501961 0.501961 0.501961 #0.501961
v 0.503906 1.953125 -0.136719 0.501961 0.501961 0.501961 #0.501961
v 0.503906 1.953125 0.136719 0.501961 0.501961 0.501961 #0.501961
v 0.847656 1.953125 0.136719 0.501961 0.501961 0.501961 #0.501961
v 0.503906 1.953125 -0.136719 0.501961 0.501961 0.501961 #0.501961
v 0.847656 1.953125 0.136719 0.501961 0.501961 0.501961 #0.501961
v 0.847656 1.953125 -0.136719 0.501961 0.501961 0.501961 #0.501961
v 0.847656 1.953125 -0.136719 0.501961 0.501961 0.501961 #0.501961
v 0.847656 1.953125 0.136719 0.501961 0.501961 0.501961 #0.501961
v 0.648438 2.152344 0.136719 0.501961 0.501961 0.501961 #0.501961
v 0.847656 1.953125 -0.136719 0.501961 0.501961 0.501961 #0.501961
v 0.648438 2.152344 0.136719 0.501961 0.501961 0.501961 #0.501961
v 0.648438 2.152344 -0.136719 0.501961 0.501961 0.501961 #0.501961
v 0.648438 2.152344 -0.136719 0.501961 0.501961 0.501961 #0.501961
v 0.648438 2.152344 0.136719 0.501961 0.501961 0.501961 #0.501961
v 2.195313 2.152344 0.136719 0.501961 0.501961 0.501961 #0.501961
v 0.648438 2.152344 -0.136719 0.501961 0.501961 0.501961 #0.501961
v 2.195313 2.152344 0.136719 0.501961 0.501961 0.501961 #0.501961
v 2.195313 2.152344 -0.136719 0.501961 0.501961 0.501961 #0.501961
v 2.195313 2.152344 -0.136719 0.501961 0.501961 0.501961 #0.501961
v 2.195313 2.152344 0.136719 0.501961 0.501961 0.501961 #0.501961
v 2.042969 2.000000 0.136719 0.501961 0.501961 0.501961 #0.501961
v 2.195313 2.152344 -0.136719 0.501961 0.501961 0.501961 #0.501961
v 2.042969 2.000000 0.136719 0.501961 0.501961 0.501961 #0.501961
v 2.042969 2.000000 -0.136719 0.501961 0.501961 0.501961 #0.501961
v 2.042969 2.000000 -0.136719 0.501961 0.501961 0.501961 #0.501961
v 2.042969 2.000000 0.136719 0.501961 0.501961 0.501961 #0.501961
v 1.164063 2.000000 0.136719 0.501961 0.501961 0.501961 #0.501961
v 1.957031 1.914063 0.136719 0.501961 0.501961 0.501961 #0.501961
v 1.246094 1.910156 -0.136719 0.501961 0.501961 0.501961 #0.501961
v 1.246094 1.910156 0.136719 0.501961 0.501961 0.501961 #0.501961
v 1.246094 1.910156 0.136719 0.501961 0.501961 0.501961 #0.501961
v 1.246094 1.910156 -0.136719 0.501961 0.501961 0.501961 #0.501961
v 1.164063 2.000000 0.136719 0.501961 0.501961 0.501961 #0.501961
v 1.246094 1.910156 -0.136719 0.501961 0.501961 0.501961 #0.501961
v 1.164063 2.000000 -0.136719 0.501961 0.501961 0.501961 #0.501961
v 1.164063 2.000000 0.136719 0.501961 0.501961 0.501961 #0.501961
v 1.164063 2.000000 0.136719 0.501961 0.501961 0.501961 #0.501961
v 1.164063 2.000000 -0.136719 0.501961 0.501961 0.501961 #0.501961
v 2.042969 2.000000 -0.136719 0.501961 0.501961 0.501961 #0.501961
v -1.160156 2.003906 0.136719 0.501961 0.501961 0.501961 #0.501961
v -1.160156 2.003906 -0.136719 0.501961 0.501961 0.501961 #0.501961
v -1.253906 1.914063 0.136719 0.501961 0.501961 0.501961 #0.501961
v -1.160156 2.003906 -0.136719 0.501961 0.501961 0.501961 #0.501961
v -1.253906 1.914063 -0.136719 0.501961 0.501961 0.501961 #0.501961
v -1.253906 1.914063 0.136719 0.501961 0.501961 0.501961 #0.501961
v -1.253906 1.914063 0.136719 0.501961 0.501961 0.501961 #0.501961
v -1.253906 1.914063 -0.136719 0.501961 0.501961 0.501961 #0.501961
v -1.957031 1.914063 -0.136719 0.501961 0.501961 0.501961 #0.501961
v -1.253906 1.914063 0.136719 0.501961 0.501961 0.501961 #0.501961
v -1.957031 1.914063 -0.136719 0.501961 0.501961 0.501961 #0.501961
v -1.957031 1.914063 0.136719 0.501961 0.501961 0.501961 #0.501961
v -1.957031 1.914063 0.136719 0.501961 0.501961 0.501961 #0.501961
v -1.957031 1.914063 -0.136719 0.501961 0.501961 0.501961 #0.501961
v -1.800781 1.753906 -0.136719 0.501961 0.501961 0.501961 #0.501961
v -1.957031 1.914063 0.136719 0.501961 0.501961 0.501961 #0.501961
v -1.800781 1.753906 -0.136719 0.501961 0.501961 0.501961 #0.501961
v -1.800781 1.753906 0.136719 0.501961 0.501961 0.501961 #0.501961
v -1.800781 1.753906 0.136719 0.501961 0.501961 0.501961 #0.501961
v -1.800781 1.753906 -0.136719 0.501961 0.501961 0.501961 #0.501961
v -0.171875 1.753906 -0.136719 0.501961 0.501961 0.501961 #0.501961
v -1.800781 1.753906 0.136719 0.501961 0.501961 0.501961 #0.501961
v -0.171875 1.753906 -0.136719 0.501961 0.501961 0.501961 #0.501961
v -0.171875 1.753906 0.136719 0.501961 0.501961 0.501961 #0.501961
v -0.171875 1.753906 0.136719 0.501961 0.501961 0.501961 #0.501961
v -0.171875 1.753906 -0.136719 0.501961 0.501961 0.501961 #0.501961
v -0.171875 2.292969 -0.136719 0.501961 0.501961 0.501961 #0.501961
v -0.171875 1.753906 0.136719 0.501961 0.501961 0.501961 #0.501961
v -0.171875 2.292969 -0.136719 0.501961 0.501961 0.501961 #0.501961
v -0.171875 2.292969 0.136719 0.501961 0.501961 0.501961 #0.501961
v -0.171875 2.292969 0.136719 0.501961 0.501961 0.501961 #0.501961
v -0.171875 2.292969 -0.136719 0.501961 0.501961 0.501961 #0.501961
v -0.128906 2.332031 0.136719 0.501961 0.501961 0.501961 #0.501961
v -0.171875 2.292969 -0.136719 0.501961 0.501961 0.501961 #0.501961
v -0.128906 2.332031 -0.136719 0.501961 0.501961 0.501961 #0.501961
v -0.128906 2.332031 0.136719 0.501961 0.501961 0.501961 #0.501961
v -0.128906 2.332031 0.136719 0.501961 0.501961 0.501961 #0.501961
v -0.128906 2.332031 -0.136719 0.501961 0.501961 0.501961 #0.501961
v -0.023438 2.343750 -0.136719 0.501961 0.501961 0.501961 #0.501961
v -0.128906 2.332031 0.136719 0.501961 0.501961 0.501961 #0.501961
v -0.023438 2.343750 -0.136719 0.501961 0.501961 0.501961 #0.501961
v -0.023438 2.343750 0.136719 0.501961 0.501961 0.501961 #0.501961
v -0.023438 2.343750 0.136719 0.501961 0.501961 0.501961 #0.501961
v -0.023438 2.343750 -0.136719 0.501961 0.501961 0.501961 #0.501961
v -0.058594 2.417969 0.136719 0.501961 0.501961 0.501961 #0.501961
v -0.023438 2.343750 -0.136719 0.501961 0.501961 0.501961 #0.501961
v -0.058594 2.417969 -0.136719 0.501961 0.501961 0.501961 #0.501961
v -0.058594 2.417969 0.136719 0.501961 0.501961 0.501961 #0.501961
v -0.058594 2.417969 0.136719 0.501961 0.501961 0.501961 #0.501961
v -0.058594 2.417969 -0.136719 0.501961 0.501961 0.501961 #0.501961
v -0.109375 2.445313 0.136719 0.501961 0.501961 0.501961 #0.501961
v -0.058594 2.417969 -0.136719 0.501961 0.501961 0.501961 #0.501961
v -0.109375 2.445313 -0.136719 0.501961 0.501961 0.501961 #0.501961
v -0.109375 2.445313 0.136719 0.501961 0.501961 0.501961 #0.501961
v -0.109375 2.445313 -0.136719 0.501961 0.501961 0.501961 #0.501961
v -0.511719 2.519531 -0.136719 0.501961 0.501961 0.501961 #0.501961
v -0.109375 2.445313 0.136719 0.501961 0.501961 0.501961 #0.501961
v -0.109375 2.445313 0.136719 0.501961 0.501961 0.501961 #0.501961
v -0.511719 2.519531 -0.136719 0.501961 0.501961 0.501961 #0.501961
v -0.511719 2.519531 0.136719 0.501961 0.501961 0.501961 #0.501961
v -0.511719 2.519531 -0.136719 0.501961 0.501961 0.501961 #0.501961
v -0.511719 1.953125 -0.136719 0.501961 0.501961 0.501961 #0.501961
v -0.511719 2.519531 0.136719 0.501961 0.501961 0.501961 #0.501961
v -0.511719 2.519531 0.136719 0.501961 0.501961 0.501961 #0.501961
v -0.511719 1.953125 -0.136719 0.501961 0.501961 0.501961 #0.501961
v -0.511719 1.953125 0.136719 0.501961 0.501961 0.501961 #0.501961
v -0.511719 1.953125 -0.136719 0.501961 0.501961 0.501961 #0.501961
v -0.855469 1.953125 -0.136719 0.501961 0.501961 0.501961 #0.501961
v -0.511719 1.953125 0.136719 0.501961 0.501961 0.501961 #0.501961
v -0.511719 1.953125 0.136719 0.501961 0.501961 0.501961 #0.501961
v -0.855469 1.953125 -0.136719 0.501961 0.501961 0.501961 #0.501961
v -0.855469 1.953125 0.136719 0.501961 0.501961 0.501961 #0.501961
v -0.855469 1.953125 -0.136719 0.501961 0.501961 0.501961 #0.501961
v -0.652344 2.156250 -0.136719 0.501961 0.501961 0.501961 #0.501961
v -0.855469 1.953125 0.136719 0.501961 0.501961 0.501961 #0.501961
v -0.855469 1.953125 0.136719 0.501961 0.501961 0.501961 #0.501961
v -0.652344 2.156250 -0.136719 0.501961 0.501961 0.501961 #0.501961
v -0.652344 2.156250 0.136719 0.501961 0.501961 0.501961 #0.501961
v -0.652344 2.156250 -0.136719 0.501961 0.501961 0.501961 #0.501961
v -2.195313 2.156250 -0.136719 0.501961 0.501961 0.501961 #0.501961
v -0.652344 2.156250 0.136719 0.501961 0.501961 0.501961 #0.501961
v -0.652344 2.156250 0.136719 0.501961 0.501961 0.501961 #0.501961
v -2.195313 2.156250 -0.136719 0.501961 0.501961 0.501961 #0.501961
v -2.195313 2.156250 0.136719 0.501961 0.501961 0.501961 #0.501961
v -2.195313 2.156250 -0.136719 0.501961 0.501961 0.501961 #0.501961
v -2.039063 2.000000 -0.136719 0.501961 0.501961 0.501961 #0.501961
v -2.195313 2.156250 0.136719 0.501961 0.501961 0.501961 #0.501961
v -2.195313 2.156250 0.136719 0.501961 0.501961 0.501961 #0.501961
v -2.039063 2.000000 -0.136719 0.501961 0.501961 0.501961 #0.501961
v -2.039063 2.000000 0.136719 0.501961 0.501961 0.501961 #0.501961
v -2.039063 2.000000 -0.136719 0.501961 0.501961 0.501961 #0.501961
v -1.160156 2.003906 -0.136719 0.501961 0.501961 0.501961 #0.501961
v -2.039063 2.000000 0.136719 0.501961 0.501961 0.501961 #0.501961
v -2.039063 2.000000 0.136719 0.501961 0.501961 0.501961 #0.501961
v -1.160156 2.003906 -0.136719 0.501961 0.501961 0.501961 #0.501961
v -1.160156 2.003906 0.136719 0.501961 0.501961 0.501961 #0.501961
v 0.550781 1.468750 0.136719 0.501961 0.501961 0.501961 #0.501961
v 0.550781 1.468750 -0.136719 0.501961 0.501961 0.501961 #0.501961
v 1.507813 1.468750 0.136719 0.501961 0.501961 0.501961 #0.501961
v 0.550781 1.468750 -0.136719 0.501961 0.501961 0.501961 #0.501961
v 1.507813 1.468750 -0.136719 0.501961 0.501961 0.501961 #0.501961
v 1.507813 1.468750 0.136719 0.501961 0.501961 0.501961 #0.501961
v 1.507813 1.468750 0.136719 0.501961 0.501961 0.501961 #0.501961
v 1.507813 1.468750 -0.136719 0.501961 0.501961 0.501961 #0.501961
v 1.679688 1.640625 -0.136719 0.501961 0.501961 0.501961 #0.501961
v 1.507813 1.468750 0.136719 0.501961 0.501961 0.501961 #0.501961
v 1.679688 1.640625 -0.136719 0.501961 0.501961 0.501961 #0.501961
v 1.679688 1.640625 0.136719 0.501961 0.501961 0.501961 #0.501961
v 1.679688 1.640625 0.136719 0.501961 0.501961 0.501961 #0.501961
v 1.679688 1.640625 -0.136719 0.501961 0.501961 0.501961 #0.501961
v 0.261719 1.640625 -0.136719 0.501961 0.501961 0.501961 #0.501961
v 1.679688 1.640625 0.136719 0.501961 0.501961 0.501961 #0.501961
v 0.261719 1.640625 -0.136719 0.501961 0.501961 0.501961 #0.501961
v 0.261719 1.640625 0.136719 0.501961 0.501961 0.501961 #0.501961
v 0.261719 1.640625 0.136719 0.501961 0.501961 0.501961 #0.501961
v 0.261719 1.640625 -0.136719 0.501961 0.501961 0.501961 #0.501961
v 0.261719 0.656250 0.136719 0.501961 0.501961 0.501961 #0.501961
v 0.261719 1.640625 -0.136719 0.501961 0.501961 0.501961 #0.501961
v 0.261719 0.656250 -0.136719 0.501961 0.501961 0.501961 #0.501961
v 0.261719 0.656250 0.136719 0.501961 0.501961 0.501961 #0.501961
v 0.261719 0.656250 -0.136719 0.501961 0.501961 0.501961 #0.501961
v 0.136719 0.781250 -0.136719 0.501961 0.501961 0.501961 #0.501961
v 0.261719 0.656250 0.136719 0.501961 0.501961 0.501961 #0.501961
v 0.261719 0.656250 0.136719 0.501961 0.501961 0.501961 #0.501961
v 0.136719 0.781250 -0.136719 0.501961 0.501961 0.501961 #0.501961
v 0.136719 0.781250 0.136719 0.501961 0.501961 0.501961 #0.501961
v 0.136719 0.781250 -0.136719 0.501961 0.501961 0.501961 #0.501961
v 0.136719 1.636719 -0.136719 0.501961 0.501961 0.501961 #0.501961
v 0.136719 0.781250 0.136719 0.501961 0.501961 0.501961 #0.501961
v 0.136719 0.781250 0.136719 0.501961 0.501961 0.501961 #0.501961
v 0.136719 1.636719 -0.136719 0.501961 0.501961 0.501961 #0.501961
v 0.136719 1.636719 0.136719 0.501961 0.501961 0.501961 #0.501961
v 0.136719 1.636719 -0.136719 0.501961 0.501961 0.501961 #0.501961
v -0.152344 1.636719 -0.136719 0.501961 0.501961 0.501961 #0.501961
v 0.136719 1.636719 0.136719 0.501961 0.501961 0.501961 #0.501961
v 0.136719 1.636719 0.136719 0.501961 0.501961 0.501961 #0.501961
v -0.152344 1.636719 -0.136719 0.501961 0.501961 0.501961 #0.501961
v -0.152344 1.636719 0.136719 0.501961 0.501961 0.501961 #0.501961
v -0.152344 1.636719 -0.136719 0.501961 0.501961 0.501961 #0.501961
v -0.152344 0.660156 -0.136719 0.501961 0.501961 0.501961 #0.501961
v -0.152344 1.636719 0.136719 0.501961 0.501961 0.501961 #0.501961
v -0.152344 1.636719 0.136719 0.501961 0.501961 0.501961 #0.501961
v -0.152344 0.660156 -0.136719 0.501961 0.501961 0.501961 #0.501961
v -0.152344 0.660156 0.136719 0.501961 0.501961 0.501961 #0.501961
v -0.152344 0.660156 -0.136719 0.501961 0.501961 0.501961 #0.501961
v -0.285156 0.792969 -0.136719 0.501961 0.501961 0.501961 #0.501961
v -0.152344 0.660156 0.136719 0.501961 0.501961 0.501961 #0.501961
v -0.152344 0.660156 0.136719 0.501961 0.501961 0.501961 #0.501961
v -0.285156 0.792969 -0.136719 0.501961 0.501961 0.501961 #0.501961
v -0.285156 0.792969 0.136719 0.501961 0.501961 0.501961 #0.501961
v -0.285156 0.792969 -0.136719 0.501961 0.501961 0.501961 #0.501961
v -0.281250 1.640625 -0.136719 0.501961 0.501961 0.501961 #0.501961
v -0.285156 0.792969 0.136719 0.501961 0.501961 0.501961 #0.501961
v -0.285156 0.792969 0.136719 0.501961 0.501961 0.501961 #0.501961
v -0.281250 1.640625 -0.136719 0.501961 0.501961 0.501961 #0.501961
v -0.281250 1.640625 0.136719 0.501961 0.501961 0.501961 #0.501961
v -0.281250 1.640625 -0.136719 0.501961 0.501961 0.501961 #0.501961
v -1.687500 1.640625 -0.136719 0.501961 0.501961 0.501961 #0.501961
v -0.281250 1.640625 0.136719 0.501961 0.501961 0.501961 #0.501961
v -0.281250 1.640625 0.136719 0.501961 0.501961 0.501961 #0.501961
v -1.687500 1.640625 -0.136719 0.501961 0.501961 0.501961 #0.501961
v -1.687500 1.640625 0.136719 0.501961 0.501961 0.501961 #0.501961
v -1.687500 1.640625 -0.136719 0.501961 0.501961 0.501961 #0.501961
v -1.511719 1.468750 -0.136719 0.501961 0.501961 0.501961 #0.501961
v -1.687500 1.640625 0.136719 0.501961 0.501961 0.501961 #0.501961
v -1.687500 1.640625 0.136719 0.501961 0.501961 0.501961 #0.501961
v -1.511719 1.468750 -0.136719 0.501961 0.501961 0.501961 #0.501961
v -1.511719 1.468750 0.136719 0.501961 0.501961 0.501961 #0.501961
v -1.511719 1.468750 -0.136719 0.501961 0.501961 0.501961 #0.501961
v -0.574219 1.468750 -0.136719 0.501961 0.501961 0.501961 #0.501961
v -1.511719 1.468750 0.136719 0.501961 0.501961 0.501961 #0.501961
v -1.511719 1.468750 0.136719 0.501961 0.501961 0.501961 #0.501961
v -0.574219 1.468750 -0.136719 0.501961 0.501961 0.501961 #0.501961
v -0.574219 1.468750 0.136719 0.501961 0.501961 0.501961 #0.501961
v -0.574219 1.468750 -0.136719 0.501961 0.501961 0.501961 #0.501961
v -0.574219 0.472656 -0.136719 0.501961 0.501961 0.501961 #0.501961
v -0.574219 1.468750 0.136719 0.501961 0.501961 0.501961 #0.501961
v -0.574219 1.468750 0.136719 0.501961 0.501961 0.501961 #0.501961
v -0.574219 0.472656 -0.136719 0.501961 0.501961 0.501961 #0.501961
v -0.574219 0.472656 0.136719 0.501961 0.501961 0.501961 #0.501961
v -0.574219 0.472656 -0.136719 0.501961 0.501961 0.501961 #0.501961
v -0.285156 0.183594 -0.136719 0.501961 0.501961 0.501961 #0.501961
v -0.574219 0.472656 0.136719 0.501961 0.501961 0.501961 #0.501961
v -0.574219 0.472656 0.136719 0.501961 0.501961 0.501961 #0.501961
v -0.285156 0.183594 -0.136719 0.501961 0.501961 0.501961 #0.501961
v -0.285156 0.183594 0.136719 0.501961 0.501961 0.501961 #0.501961
v -0.285156 0.183594 -0.136719 0.501961 0.501961 0.501961 #0.501961
v -0.285156 0.593750 -0.136719 0.501961 0.501961 0.501961 #0.501961
v -0.285156 0.183594 0.136719 0.501961 0.501961 0.501961 #0.501961
v -0.285156 0.183594 0.136719 0.501961 0.501961 0.501961 #0.501961
v -0.285156 0.593750 -0.136719 0.501961 0.501961 0.501961 #0.501961
v -0.285156 0.593750 0.136719 0.501961 0.501961 0.501961 #0.501961
v -0.285156 0.593750 -0.136719 0.501961 0.501961 0.501961 #0.501961
v -0.171875 0.484375 -0.136719 0.501961 0.501961 0.501961 #0.501961
v -0.285156 0.593750 0.136719 0.501961 0.501961 0.501961 #0.501961
v -0.285156 0.593750 0.136719 0.501961 0.501961 0.501961 #0.501961
v -0.171875 0.484375 -0.136719 0.501961 0.501961 0.501961 #0.501961
v -0.171875 0.484375 0.136719 0.501961 0.501961 0.501961 #0.501961
v -0.171875 0.484375 -0.136719 0.501961 0.501961 0.501961 #0.501961
v -0.171875 0.324219 -0.136719 0.501961 0.501961 0.501961 #0.501961
v -0.171875 0.484375 0.136719 0.501961 0.501961 0.501961 #0.501961
v -0.171875 0.484375 0.136719 0.501961 0.501961 0.501961 #0.501961
v -0.171875 0.324219 -0.136719 0.501961 0.501961 0.501961 #0.501961
v -0.171875 0.324219 0.136719 0.501961 0.501961 0.501961 #0.501961
v -0.171875 0.324219 -0.136719 0.501961 0.501961 0.501961 #0.501961
v 0.144531 0.003906 -0.136719 0.501961 0.501961 0.501961 #0.501961
v -0.171875 0.324219 0.136719 0.501961 0.501961 0.501961 #0.501961
v -0.171875 0.324219 0.136719 0.501961 0.501961 0.501961 #0.501961
v 0.144531 0.003906 -0.136719 0.501961 0.501961 0.501961 #0.501961
v 0.144531 0.003906 0.136719 0.501961 0.501961 0.501961 #0.501961
v 0.144531 0.003906 -0.136719 0.501961 0.501961 0.501961 #0.501961
v 0.144531 0.574219 -0.136719 0.501961 0.501961 0.501961 #0.501961
v 0.144531 0.003906 0.136719 0.501961 0.501961 0.501961 #0.501961
v 0.144531 0.003906 0.136719 0.501961 0.501961 0.501961 #0.501961
v 0.144531 0.574219 -0.136719 0.501961 0.501961 0.501961 #0.501961
v 0.144531 0.574219 0.136719 0.501961 0.501961 0.501961 #0.501961
v 0.144531 0.574219 -0.136719 0.501961 0.501961 0.501961 #0.501961
v 0.550781 0.167969 -0.136719 0.501961 0.501961 0.501961 #0.501961
v 0.144531 0.574219 0.136719 0.501961 0.501961 0.501961 #0.501961
v 0.144531 0.574219 0.136719 0.501961 0.501961 0.501961 #0.501961
v 0.550781 0.167969 -0.136719 0.501961 0.501961 0.501961 #0.501961
v 0.550781 0.167969 0.136719 0.501961 0.501961 0.501961 #0.501961
v 0.550781 0.167969 -0.136719 0.501961 0.501961 0.501961 #0.501961
v 0.550781 1.468750 -0.136719 0.501961 0.501961 0.501961 #0.501961
v 0.550781 0.167969 0.136719 0.501961 0.501961 0.501961 #0.501961
v 0.550781 0.167969 0.136719 0.501961 0.501961 0.501961 #0.501961
v 0.550781 1.468750 -0.136719 0.501961 0.501961 0.501961 #0.501961
v 0.550781 1.468750 0.136719 0.501961 0.501961 0.501961 #0.501961
v -0.023438 2.343750 0.136719 0.501961 0.501961 0.501961 #0.501961
v -0.058594 2.417969 0.136719 0.501961 0.501961 0.501961 #0.501961
v -0.128906 2.332031 0.136719 0.501961 0.501961 0.501961 #0.501961
v -0.058594 2.417969 0.136719 0.501961 0.501961 0.501961 #0.501961
v -0.109375 2.445313 0.136719 0.501961 0.501961 0.501961 #0.501961
v -0.128906 2.332031 0.136719 0.501961 0.501961 0.501961 #0.501961
v -0.128906 2.332031 0.136719 0.501961 0.501961 0.501961 #0.501961
v -0.109375 2.445313 0.136719 0.501961 0.501961 0.501961 #0.501961
v -0.171875 2.292969 0.136719 0.501961 0.501961 0.501961 #0.501961
v -0.109375 2.445313 0.136719 0.501961 0.501961 0.501961 #0.501961
v -0.511719 2.519531 0.136719 0.501961 0.501961 0.501961 #0.501961
v -0.171875 2.292969 0.136719 0.501961 0.501961 0.501961 #0.501961
v -0.171875 2.292969 0.136719 0.501961 0.501961 0.501961 #0.501961
v -0.511719 2.519531 0.136719 0.501961 0.501961 0.501961 #0.501961
v -0.511719 1.953125 0.136719 0.501961 0.501961 0.501961 #0.501961
v -0.171875 2.292969 0.136719 0.501961 0.501961 0.501961 #0.501961
v -0.511719 1.953125 0.136719 0.501961 0.501961 0.501961 #0.501961
v -0.171875 1.753906 0.136719 0.501961 0.501961 0.501961 #0.501961
v -0.171875 1.753906 0.136719 0.501961 0.501961 0.501961 #0.501961
v -0.511719 1.953125 0.136719 0.501961 0.501961 0.501961 #0.501961
v -0.855469 1.953125 0.136719 0.501961 0.501961 0.501961 #0.501961
v 0.847656 1.953125 -0.136719 0.501961 0.501961 0.501961 #0.501961
v 0.167969 1.753906 -0.136719 0.501961 0.501961 0.501961 #0.501961
v 0.503906 1.953125 -0.136719 0.501961 0.501961 0.501961 #0.501961
v 0.167969 1.753906 -0.136719 0.501961 0.501961 0.501961 #0.501961
v 0.167969 2.289063 -0.136719 0.501961 0.501961 0.501961 #0.501961
v 0.503906 1.953125 -0.136719 0.501961 0.501961 0.501961 #0.501961
v 0.503906 1.953125 -0.136719 0.501961 0.501961 0.501961 #0.501961
v 0.167969 2.289063 -0.136719 0.501961 0.501961 0.501961 #0.501961
v 0.503906 2.515625 -0.136719 0.501961 0.501961 0.501961 #0.501961
v 0.503906 2.515625 -0.136719 0.501961 0.501961 0.501961 #0.501961
v 0.167969 2.289063 -0.136719 0.501961 0.501961 0.501961 #0.501961
v 0.109375 2.449219 -0.136719 0.501961 0.501961 0.501961 #0.501961
v 0.109375 2.449219 -0.136719 0.501961 0.501961 0.501961 #0.501961
v 0.167969 2.289063 -0.136719 0.501961 0.501961 0.501961 #0.501961
v 0.125000 2.328125 -0.136719 0.501961 0.501961 0.501961 #0.501961
v 0.109375 2.449219 -0.136719 0.501961 0.501961 0.501961 #0.501961
v 0.125000 2.328125 -0.136719 0.501961 0.501961 0.501961 #0.501961
v 0.054688 2.417969 -0.136719 0.501961 0.501961 0.501961 #0.501961
v 0.054688 2.417969 -0.136719 0.501961 0.501961 0.501961 #0.501961
v 0.125000 2.328125 -0.136719 0.501961 0.501961 0.501961 #0.501961
v 0.019531 2.339844 -0.136719 0.501961 0.501961 0.501961 #0.501961
v 0.136719 1.636719 0.136719 0.501961 0.501961 0.501961 #0.501961
v -0.152344 1.636719 0.136719 0.501961 0.501961 0.501961 #0.501961
v 0.136719 0.781250 0.136719 0.501961 0.501961 0.501961 #0.501961
v -0.152344 1.636719 0.136719 0.501961 0.501961 0.501961 #0.501961
v -0.152344 0.660156 0.136719 0.501961 0.501961 0.501961 #0.501961
v 0.136719 0.781250 0.136719 0.501961 0.501961 0.501961 #0.501961
v -0.152344 0.660156 0.136719 0.501961 0.501961 0.501961 #0.501961
v 0.144531 0.574219 0.136719 0.501961 0.501961 0.501961 #0.501961
v 0.136719 0.781250 0.136719 0.501961 0.501961 0.501961 #0.501961
v 0.136719 0.781250 0.136719 0.501961 0.501961 0.501961 #0.501961
v 0.144531 0.574219 0.136719 0.501961 0.501961 0.501961 #0.501961
v 0.261719 0.656250 0.136719 0.501961 0.501961 0.501961 #0.501961
v -1.687500 1.640625 0.136719 0.501961 0.501961 0.501961 #0.501961
v -1.511719 1.468750 0.136719 0.501961 0.501961 0.501961 #0.501961
v -0.281250 1.640625 0.136719 0.501961 0.501961 0.501961 #0.501961
v -1.511719 1.468750 0.136719 0.501961 0.501961 0.501961 #0.501961
v -0.574219 1.468750 0.136719 0.501961 0.501961 0.501961 #0.501961
v -0.281250 1.640625 0.136719 0.501961 0.501961 0.501961 #0.501961
v -0.281250 1.640625 0.136719 0.501961 0.501961 0.501961 #0.501961
v -0.574219 1.468750 0.136719 0.501961 0.501961 0.501961 #0.501961
v -0.285156 0.792969 0.136719 0.501961 0.501961 0.501961 #0.501961
v 2.042969 2.000000 0.136719 0.501961 0.501961 0.501961 #0.501961
v 2.195313 2.152344 0.136719 0.501961 0.501961 0.501961 #0.501961
v 1.164063 2.000000 0.136719 0.501961 0.501961 0.501961 #0.501961
v 2.195313 2.152344 0.136719 0.501961 0.501961 0.501961 #0.501961
v 0.648438 2.152344 0.136719 0.501961 0.501961 0.501961 #0.501961
v 1.164063 2.000000 0.136719 0.501961 0.501961 0.501961 #0.501961
v 0.648438 2.152344 0.136719 0.501961 0.501961 0.501961 #0.501961
v 0.847656 1.953125 0.136719 0.501961 0.501961 0.501961 #0.501961
v 1.164063 2.000000 0.136719 0.501961 0.501961 0.501961 #0.501961
v 1.164063 2.000000 0.136719 0.501961 0.501961 0.501961 #0.501961
v 0.847656 1.953125 0.136719 0.501961 0.501961 0.501961 #0.501961
v 1.246094 1.910156 0.136719 0.501961 0.501961 0.501961 #0.501961
v -1.957031 1.914063 0.136719 0.501961 0.501961 0.501961 #0.501961
v -1.800781 1.753906 0.136719 0.501961 0.501961 0.501961 #0.501961
v -1.253906 1.914063 0.136719 0.501961 0.501961 0.501961 #0.501961
v -1.800781 1.753906 0.136719 0.501961 0.501961 0.501961 #0.501961
v -0.171875 1.753906 0.136719 0.501961 0.501961 0.501961 #0.501961
v -1.253906 1.914063 0.136719 0.501961 0.501961 0.501961 #0.501961
v -0.171875 1.753906 0.136719 0.501961 0.501961 0.501961 #0.501961
v -0.855469 1.953125 0.136719 0.501961 0.501961 0.501961 #0.501961
v -1.253906 1.914063 0.136719 0.501961 0.501961 0.501961 #0.501961
v -1.253906 1.914063 0.136719 0.501961 0.501961 0.501961 #0.501961
v -0.855469 1.953125 0.136719 0.501961 0.501961 0.501961 #0.501961
v -1.160156 2.003906 0.136719 0.501961 0.501961 0.501961 #0.501961
v -0.855469 1.953125 0.136719 0.501961 0.501961 0.501961 #0.501961
v -0.652344 2.156250 0.136719 0.501961 0.501961 0.501961 #0.501961
v -1.160156 2.003906 0.136719 0.501961 0.501961 0.501961 #0.501961
v -0.652344 2.156250 0.136719 0.501961 0.501961 0.501961 #0.501961
v -2.195313 2.156250 0.136719 0.501961 0.501961 0.501961 #0.501961
v -1.160156 2.003906 0.136719 0.501961 0.501961 0.501961 #0.501961
v -1.160156 2.003906 0.136719 0.501961 0.501961 0.501961 #0.501961
v -2.195313 2.156250 0.136719 0.501961 0.501961 0.501961 #0.501961
v -2.039063 2.000000 0.136719 0.501961 0.501961 0.501961 #0.501961
v 1.679688 1.640625 -0.136719 0.501961 0.501961 0.501961 #0.501961
v 1.507813 1.468750 -0.136719 0.501961 0.501961 0.501961 #0.501961
v 0.261719 1.640625 -0.136719 0.501961 0.501961 0.501961 #0.501961
v 1.507813 1.468750 -0.136719 0.501961 0.501961 0.501961 #0.501961
v 0.550781 1.468750 -0.136719 0.501961 0.501961 0.501961 #0.501961
v 0.261719 1.640625 -0.136719 0.501961 0.501961 0.501961 #0.501961
v 0.261719 1.640625 -0.136719 0.501961 0.501961 0.501961 #0.501961
v 0.550781 1.468750 -0.136719 0.501961 0.501961 0.501961 #0.501961
v 0.261719 0.656250 -0.136719 0.501961 0.501961 0.501961 #0.501961
v 0.550781 1.468750 -0.136719 0.501961 0.501961 0.501961 #0.501961
v 0.550781 0.167969 -0.136719 0.501961 0.501961 0.501961 #0.501961
v 0.261719 0.656250 -0.136719 0.501961 0.501961 0.501961 #0.501961
v 0.550781 0.167969 -0.136719 0.501961 0.501961 0.501961 #0.501961
v 0.144531 0.574219 -0.136719 0.501961 0.501961 0.501961 #0.501961
v 0.261719 0.656250 -0.136719 0.501961 0.501961 0.501961 #0.501961
v 0.261719 0.656250 -0.136719 0.501961 0.501961 0.501961 #0.501961
v 0.144531 0.574219 -0.136719 0.501961 0.501961 0.501961 #0.501961
v 0.136719 0.781250 -0.136719 0.501961 0.501961 0.501961 #0.501961
v 0.144531 0.574219 -0.136719 0.501961 0.501961 0.501961 #0.501961
v -0.152344 0.660156 -0.136719 0.501961 0.501961 0.501961 #0.501961
v 0.136719 0.781250 -0.136719 0.501961 0.501961 0.501961 #0.501961
v -0.152344 0.660156 -0.136719 0.501961 0.501961 0.501961 #0.501961
v -0.152344 1.636719 -0.136719 0.501961 0.501961 0.501961 #0.501961
v 0.136719 0.781250 -0.136719 0.501961 0.501961 0.501961 #0.501961
v 0.136719 0.781250 -0.136719 0.501961 0.501961 0.501961 #0.501961
v -0.152344 1.636719 -0.136719 0.501961 0.501961 0.501961 #0.501961
v 0.136719 1.636719 -0.136719 0.501961 0.501961 0.501961 #0.501961
v 1.957031 1.914063 -0.136719 0.501961 0.501961 0.501961 #0.501961
v 1.796875 1.753906 -0.136719 0.501961 0.501961 0.501961 #0.501961
v 1.246094 1.910156 -0.136719 0.501961 0.501961 0.501961 #0.501961
v 1.796875 1.753906 -0.136719 0.501961 0.501961 0.501961 #0.501961
v 0.167969 1.753906 -0.136719 0.501961 0.501961 0.501961 #0.501961
v 1.246094 1.910156 -0.136719 0.501961 0.501961 0.501961 #0.501961
v 0.167969 1.753906 -0.136719 0.501961 0.501961 0.501961 #0.501961
v 0.847656 1.953125 -0.136719 0.501961 0.501961 0.501961 #0.501961
v 1.246094 1.910156 -0.136719 0.501961 0.501961 0.501961 #0.501961
v 1.246094 1.910156 -0.136719 0.501961 0.501961 0.501961 #0.501961
v 0.847656 1.953125 -0.136719 0.501961 0.501961 0.501961 #0.501961
v 1.164063 2.000000 -0.136719 0.501961 0.501961 0.501961 #0.501961
v 0.847656 1.953125 -0.136719 0.501961 0.501961 0.501961 #0.501961
v 0.648438 2.152344 -0.136719 0.501961 0.501961 0.501961 #0.501961
v 1.164063 2.000000 -0.136719 0.501961 0.501961 0.501961 #0.501961
v 0.648438 2.152344 -0.136719 0.501961 0.501961 0.501961 #0.501961
v 2.195313 2.152344 -0.136719 0.501961 0.501961 0.501961 #0.501961
v 1.164063 2.000000 -0.136719 0.501961 0.501961 0.501961 #0.501961
v 1.164063 2.000000 -0.136719 0.501961 0.501961 0.501961 #0.501961
v 2.195313 2.152344 -0.136719 0.501961 0.501961 0.501961 #0.501961
v 2.042969 2.000000 -0.136719 0.501961 0.501961 0.501961 #0.501961
v -2.039063 2.000000 -0.136719 0.501961 0.501961 0.501961 #0.501961
v -2.195313 2.156250 -0.136719 0.501961 0.501961 0.501961 #0.501961
v -1.160156 2.003906 -0.136719 0.501961 0.501961 0.501961 #0.501961
v -2.195313 2.156250 -0.136719 0.501961 0.501961 0.501961 #0.501961
v -0.652344 2.156250 -0.136719 0.501961 0.501961 0.501961 #0.501961
v -1.160156 2.003906 -0.136719 0.501961 0.501961 0.501961 #0.501961
v -0.652344 2.156250 -0.136719 0.501961 0.501961 0.501961 #0.501961
v -0.855469 1.953125 -0.136719 0.501961 0.501961 0.501961 #0.501961
v -1.160156 2.003906 -0.136719 0.501961 0.501961 0.501961 #0.501961
v -1.160156 2.003906 -0.136719 0.501961 0.501961 0.501961 #0.501961
v -0.855469 1.953125 -0.136719 0.501961 0.501961 0.501961 #0.501961
v -1.253906 1.914063 -0.136719 0.501961 0.501961 0.501961 #0.501961
v 0.167969 2.289063 0.136719 0.501961 0.501961 0.501961 #0.501961
v 0.167969 1.753906 0.136719 0.501961 0.501961 0.501961 #0.501961
v 0.503906 1.953125 0.136719 0.501961 0.501961 0.501961 #0.501961
v 0.503906 1.953125 0.136719 0.501961 0.501961 0.501961 #0.501961
v 0.167969 1.753906 0.136719 0.501961 0.501961 0.501961 #0.501961
v 0.847656 1.953125 0.136719 0.501961 0.501961 0.501961 #0.501961
v 0.847656 1.953125 0.136719 0.501961 0.501961 0.501961 #0.501961
v 0.167969 1.753906 0.136719 0.501961 0.501961 0.501961 #0.501961
v 1.246094 1.910156 0.136719 0.501961 0.501961 0.501961 #0.501961
v 0.167969 1.753906 0.136719 0.501961 0.501961 0.501961 #0.501961
v 1.796875 1.753906 0.136719 0.501961 0.501961 0.501961 #0.501961
v 1.246094 1.910156 0.136719 0.501961 0.501961 0.501961 #0.501961
v 1.246094 1.910156 0.136719 0.501961 0.501961 0.501961 #0.501961
v 1.796875 1.753906 0.136719 0.501961 0.501961 0.501961 #0.501961
v 1.957031 1.914063 0.136719 0.501961 0.501961 0.501961 #0.501961
v 0.144531 0.574219 0.136719 0.501961 0.501961 0.501961 #0.501961
v 0.550781 0.167969 0.136719 0.501961 0.501961 0.501961 #0.501961
v 0.261719 0.656250 0.136719 0.501961 0.501961 0.501961 #0.501961
v 0.550781 0.167969 0.136719 0.501961 0.501961 0.501961 #0.501961
v 0.550781 1.468750 0.136719 0.501961 0.501961 0.501961 #0.501961
v 0.261719 0.656250 0.136719 0.501961 0.501961 0.501961 #0.501961
v 0.261719 0.656250 0.136719 0.501961 0.501961 0.501961 #0.501961
v 0.550781 1.468750 0.136719 0.501961 0.501961 0.501961 #0.501961
v 0.261719 1.640625 0.136719 0.501961 0.501961 0.501961 #0.501961
v 0.550781 1.468750 0.136719 0.501961 0.501961 0.501961 #0.501961
v 1.507813 1.468750 0.136719 0.501961 0.501961 0.501961 #0.501961
v 0.261719 1.640625 0.136719 0.501961 0.501961 0.501961 #0.501961
v 0.261719 1.640625 0.136719 0.501961 0.501961 0.501961 #0.501961
v 1.507813 1.468750 0.136719 0.501961 0.501961 0.501961 #0.501961
v 1.679688 1.640625 0.136719 0.501961 0.501961 0.501961 #0.501961
v -0.285156 0.183594 0.136719 0.501961 0.501961 0.501961 #0.501961
v -0.285156 0.593750 0.136719 0.501961 0.501961 0.501961 #0.501961
v -0.574219 0.472656 0.136719 0.501961 0.501961 0.501961 #0.501961
v -0.574219 1.468750 0.136719 0.501961 0.501961 0.501961 #0.501961
v -0.574219 0.472656 0.136719 0.501961 0.501961 0.501961 #0.501961
v -0.285156 0.792969 0.136719 0.501961 0.501961 0.501961 #0.501961
v -0.574219 0.472656 0.136719 0.501961 0.501961 0.501961 #0.501961
v -0.285156 0.593750 0.136719 0.501961 0.501961 0.501961 #0.501961
v -0.285156 0.792969 0.136719 0.501961 0.501961 0.501961 #0.501961
v -0.285156 0.792969 0.136719 0.501961 0.501961 0.501961 #0.501961
v -0.285156 0.593750 0.136719 0.501961 0.501961 0.501961 #0.501961
v -0.152344 0.660156 0.136719 0.501961 0.501961 0.501961 #0.501961
v -0.285156 0.593750 0.136719 0.501961 0.501961 0.501961 #0.501961
v -0.171875 0.484375 0.136719 0.501961 0.501961 0.501961 #0.501961
v -0.152344 0.660156 0.136719 0.501961 0.501961 0.501961 #0.501961
v -0.152344 0.660156 0.136719 0.501961 0.501961 0.501961 #0.501961
v -0.171875 0.484375 0.136719 0.501961 0.501961 0.501961 #0.501961
v 0.144531 0.574219 0.136719 0.501961 0.501961 0.501961 #0.501961
v -0.171875 0.484375 0.136719 0.501961 0.501961 0.501961 #0.501961
v -0.171875 0.324219 0.136719 0.501961 0.501961 0.501961 #0.501961
v 0.144531 0.574219 0.136719 0.501961 0.501961 0.501961 #0.501961
v 0.144531 0.574219 0.136719 0.501961 0.501961 0.501961 #0.501961
v -0.171875 0.324219 0.136719 0.501961 0.501961 0.501961 #0.501961
v 0.144531 0.003906 0.136719 0.501961 0.501961 0.501961 #0.501961
v -0.171875 2.292969 -0.136719 0.501961 0.501961 0.501961 #0.501961
v -0.171875 1.753906 -0.136719 0.501961 0.501961 0.501961 #0.501961
v -0.511719 1.953125 -0.136719 0.501961 0.501961 0.501961 #0.501961
v -0.511719 1.953125 -0.136719 0.501961 0.501961 0.501961 #0.501961
v -0.171875 1.753906 -0.136719 0.501961 0.501961 0.501961 #0.501961
v -0.855469 1.953125 -0.136719 0.501961 0.501961 0.501961 #0.501961
v -0.855469 1.953125 -0.136719 0.501961 0.501961 0.501961 #0.501961
v -0.171875 1.753906 -0.136719 0.501961 0.501961 0.501961 #0.501961
v -1.253906 1.914063 -0.136719 0.501961 0.501961 0.501961 #0.501961
v -0.171875 1.753906 -0.136719 0.501961 0.501961 0.501961 #0.501961
v -1.800781 1.753906 -0.136719 0.501961 0.501961 0.501961 #0.501961
v -1.253906 1.914063 -0.136719 0.501961 0.501961 0.501961 #0.501961
v -1.253906 1.914063 -0.136719 0.501961 0.501961 0.501961 #0.501961
v -1.800781 1.753906 -0.136719 0.501961 0.501961 0.501961 #0.501961
v -1.957031 1.914063 -0.136719 0.501961 0.501961 0.501961 #0.501961
v 0.503906 1.953125 0.136719 0.501961 0.501961 0.501961 #0.501961
v 0.503906 2.515625 0.136719 0.501961 0.501961 0.501961 #0.501961
v 0.167969 2.289063 0.136719 0.501961 0.501961 0.501961 #0.501961
v 0.503906 2.515625 0.136719 0.501961 0.501961 0.501961 #0.501961
v 0.109375 2.449219 0.136719 0.501961 0.501961 0.501961 #0.501961
v 0.167969 2.289063 0.136719 0.501961 0.501961 0.501961 #0.501961
v 0.167969 2.289063 0.136719 0.501961 0.501961 0.501961 #0.501961
v 0.109375 2.449219 0.136719 0.501961 0.501961 0.501961 #0.501961
v 0.125000 2.328125 0.136719 0.501961 0.501961 0.501961 #0.501961
v 0.109375 2.449219 0.136719 0.501961 0.501961 0.501961 #0.501961
v 0.054688 2.417969 0.136719 0.501961 0.501961 0.501961 #0.501961
v 0.125000 2.328125 0.136719 0.501961 0.501961 0.501961 #0.501961
v 0.125000 2.328125 0.136719 0.501961 0.501961 0.501961 #0.501961
v 0.054688 2.417969 0.136719 0.501961 0.501961 0.501961 #0.501961
v 0.019531 2.339844 0.136719 0.501961 0.501961 0.501961 #0.501961
v 0.144531 0.003906 -0.136719 0.501961 0.501961 0.501961 #0.501961
v -0.171875 0.324219 -0.136719 0.501961 0.501961 0.501961 #0.501961
v 0.144531 0.574219 -0.136719 0.501961 0.501961 0.501961 #0.501961
v -0.171875 0.324219 -0.136719 0.501961 0.501961 0.501961 #0.501961
v -0.171875 0.484375 -0.136719 0.501961 0.501961 0.501961 #0.501961
v 0.144531 0.574219 -0.136719 0.501961 0.501961 0.501961 #0.501961
v 0.144531 0.574219 -0.136719 0.501961 0.501961 0.501961 #0.501961
v -0.171875 0.484375 -0.136719 0.501961 0.501961 0.501961 #0.501961
v -0.152344 0.660156 -0.136719 0.501961 0.501961 0.501961 #0.501961
v -0.171875 0.484375 -0.136719 0.501961 0.501961 0.501961 #0.501961
v -0.285156 0.593750 -0.136719 0.501961 0.501961 0.501961 #0.501961
v -0.152344 0.660156 -0.136719 0.501961 0.501961 0.501961 #0.501961
v -0.152344 0.660156 -0.136719 0.501961 0.501961 0.501961 #0.501961
v -0.285156 0.593750 -0.136719 0.501961 0.501961 0.501961 #0.501961
v -0.285156 0.792969 -0.136719 0.501961 0.501961 0.501961 #0.501961
v -0.511719 1.953125 -0.136719 0.501961 0.501961 0.501961 #0.501961
v -0.511719 2.519531 -0.136719 0.501961 0.501961 0.501961 #0.501961
v -0.171875 2.292969 -0.136719 0.501961 0.501961 0.501961 #0.501961
v -0.511719 2.519531 -0.136719 0.501961 0.501961 0.501961 #0.501961
v -0.109375 2.445313 -0.136719 0.501961 0.501961 0.501961 #0.501961
v -0.171875 2.292969 -0.136719 0.501961 0.501961 0.501961 #0.501961
v -0.171875 2.292969 -0.136719 0.501961 0.501961 0.501961 #0.501961
v -0.109375 2.445313 -0.136719 0.501961 0.501961 0.501961 #0.501961
v -0.128906 2.332031 -0.136719 0.501961 0.501961 0.501961 #0.501961
v -0.109375 2.445313 -0.136719 0.501961 0.501961 0.501961 #0.501961
v -0.058594 2.417969 -0.136719 0.501961 0.501961 0.501961 #0.501961
v -0.128906 2.332031 -0.136719 0.501961 0.501961 0.501961 #0.501961
v -0.128906 2.332031 -0.136719 0.501961 0.501961 0.501961 #0.501961
v -0.058594 2.417969 -0.136719 0.501961 0.501961 0.501961 #0.501961
v -0.023438 2.343750 -0.136719 0.501961 0.501961 0.501961 #0.501961
v -0.285156 0.183594 -0.136719 0.501961 0.501961 0.501961 #0.501961
v -0.574219 0.472656 -0.136719 0.501961 0.501961 0.501961 #0.501961
v -0.285156 0.593750 -0.136719 0.501961 0.501961 0.501961 #0.501961
v -0.285156 0.593750 -0.136719 0.501961 0.501961 0.501961 #0.501961
v -0.574219 0.472656 -0.136719 0.501961 0.501961 0.501961 #0.501961
v -0.285156 0.792969 -0.136719 0.501961 0.501961 0.501961 #0.501961
v -0.574219 0.472656 -0.136719 0.501961 0.501961 0.501961 #0.501961
v -0.574219 1.468750 -0.136719 0.501961 0.501961 0.501961 #0.501961
v -0.285156 0.792969 -0.136719 0.501961 0.501961 0.501961 #0.501961
v -0.285156 0.792969 -0.136719 0.501961 0.501961 0.501961 #0.501961
v -0.574219 1.468750 -0.136719 0.501961 0.501961 0.501961 #0.501961
v -0.281250 1.640625 -0.136719 0.501961 0.501961 0.501961 #0.501961
v -0.574219 1.468750 -0.136719 0.501961 0.501961 0.501961 #0.501961
v -1.511719 1.468750 -0.136719 0.501961 0.501961 0.501961 #0.501961
v -0.281250 1.640625 -0.136719 0.501961 0.501961 0.501961 #0.501961
v -0.281250 1.640625 -0.136719 0.501961 0.501961 0.501961 #0.501961
v -1.511719 1.468750 -0.136719 0.501961 0.501961 0.501961 #0.501961
v -1.687500 1.640625 -0.136719 0.501961 0.501961 0.501961 #0.501961
vt 0.032227 0.731445 0.000000
vt 0.095215 0.944580 0.000000
vt 0.032227 0.944580 0.000000
vt 0.032227 0.944580 0.000000
vt 0.095215 0.944580 0.000000
vt 0.095215 0.944336 0.000000
vt 0.032227 0.944580 0.000000
vt 0.095215 0.944336 0.000000
vt 0.032227 0.944336 0.000000
vt 0.032227 0.944336 0.000000
vt 0.095215 0.944336 0.000000
vt 0.095215 0.881348 0.000000
vt 0.032227 0.944336 0.000000
vt 0.095215 0.881348 0.000000
vt 0.032227 0.881348 0.000000
vt 0.032227 0.881348 0.000000
vt 0.095215 0.881348 0.000000
vt 0.095215 0.881836 0.000000
vt 0.095215 0.944580 0.000000
vt 0.032227 0.731445 0.000000
vt 0.095215 0.731445 0.000000
vt 0.095215 0.731445 0.000000
vt 0.032227 0.731445 0.000000
vt 0.095215 0.715576 0.000000
vt 0.032227 0.731445 0.000000
vt 0.032227 0.715576 0.000000
vt 0.095215 0.715576 0.000000
vt 0.095215 0.715576 0.000000
vt 0.032227 0.715576 0.000000
vt 0.032227 0.711426 0.000000
vt 0.095215 0.715576 0.000000
vt 0.032227 0.711426 0.000000
vt 0.095215 0.711426 0.000000
vt 0.095215 0.711426 0.000000
vt 0.032227 0.711426 0.000000
vt 0.095215 0.680664 0.000000
vt 0.032227 0.711426 0.000000
vt 0.032227 0.680664 0.000000
vt 0.095215 0.680664 0.000000
vt 0.095215 0.680664 0.000000
vt 0.032227 0.680664 0.000000
vt 0.032227 0.668457 0.000000
vt 0.095215 0.680664 0.000000
vt 0.032227 0.668457 0.000000
vt 0.095215 0.668457 0.000000
vt 0.095215 0.668457 0.000000
vt 0.032227 0.668457 0.000000
vt 0.095215 0.641113 0.000000
vt 0.032227 0.668457 0.000000
vt 0.032227 0.641113 0.000000
vt 0.095215 0.641113 0.000000
vt 0.095215 0.641113 0.000000
vt 0.032227 0.641113 0.000000
vt 0.032227 0.864990 0.000000
vt 0.095215 0.641113 0.000000
vt 0.032227 0.864990 0.000000
vt 0.095215 0.864990 0.000000
vt 0.095215 0.864990 0.000000
vt 0.032227 0.864990 0.000000
vt 0.032227 0.864746 0.000000
vt 0.095215 0.864990 0.000000
vt 0.032227 0.864746 0.000000
vt 0.095215 0.864746 0.000000
vt 0.095215 0.864746 0.000000
vt 0.032227 0.864746 0.000000
vt 0.032227 0.785400 0.000000
vt 0.095215 0.864746 0.000000
vt 0.032227 0.785400 0.000000
vt 0.095215 0.785400 0.000000
vt 0.095215 0.785400 0.000000
vt 0.032227 0.785400 0.000000
vt 0.032227 0.785889 0.000000
vt 0.095215 0.785400 0.000000
vt 0.032227 0.785889 0.000000
vt 0.095215 0.785889 0.000000
vt 0.095215 0.785889 0.000000
vt 0.032227 0.785889 0.000000
vt 0.032227 0.846191 0.000000
vt 0.095215 0.785889 0.000000
vt 0.032227 0.846191 0.000000
vt 0.095215 0.846191 0.000000
vt 0.095215 0.846191 0.000000
vt 0.032227 0.846191 0.000000
vt 0.032227 0.846680 0.000000
vt 0.032227 0.881348 0.000000
vt 0.095215 0.881836 0.000000
vt 0.032227 0.881836 0.000000
vt 0.032227 0.881836 0.000000
vt 0.095215 0.881836 0.000000
vt 0.032227 0.846680 0.000000
vt 0.095215 0.881836 0.000000
vt 0.095215 0.846680 0.000000
vt 0.032227 0.846680 0.000000
vt 0.032227 0.846680 0.000000
vt 0.095215 0.846680 0.000000
vt 0.095215 0.846191 0.000000
vt 0.032227 0.845703 0.000000
vt 0.095215 0.845703 0.000000
vt 0.032227 0.881348 0.000000
vt 0.095215 0.845703 0.000000
vt 0.095215 0.881348 0.000000
vt 0.032227 0.881348 0.000000
vt 0.032227 0.881348 0.000000
vt 0.095215 0.881348 0.000000
vt 0.095215 0.881348 0.000000
vt 0.032227 0.881348 0.000000
vt 0.095215 0.881348 0.000000
vt 0.032227 0.881348 0.000000
vt 0.032227 0.881348 0.000000
vt 0.095215 0.881348 0.000000
vt 0.095215 0.944092 0.000000
vt 0.032227 0.881348 0.000000
vt 0.095215 0.944092 0.000000
vt 0.032227 0.944092 0.000000
vt 0.032227 0.944092 0.000000
vt 0.095215 0.944092 0.000000
vt 0.095215 0.944092 0.000000
vt 0.032227 0.944092 0.000000
vt 0.095215 0.944092 0.000000
vt 0.032227 0.944092 0.000000
vt 0.032227 0.944092 0.000000
vt 0.095215 0.944092 0.000000
vt 0.095215 0.730957 0.000000
vt 0.032227 0.944092 0.000000
vt 0.095215 0.730957 0.000000
vt 0.032227 0.730957 0.000000
vt 0.032227 0.730957 0.000000
vt 0.095215 0.730957 0.000000
vt 0.032227 0.715088 0.000000
vt 0.095215 0.730957 0.000000
vt 0.095215 0.715088 0.000000
vt 0.032227 0.715088 0.000000
vt 0.032227 0.715088 0.000000
vt 0.095215 0.715088 0.000000
vt 0.095215 0.710693 0.000000
vt 0.032227 0.715088 0.000000
vt 0.095215 0.710693 0.000000
vt 0.032227 0.710693 0.000000
vt 0.032227 0.710693 0.000000
vt 0.095215 0.710693 0.000000
vt 0.032227 0.679932 0.000000
vt 0.095215 0.710693 0.000000
vt 0.095215 0.679932 0.000000
vt 0.032227 0.679932 0.000000
vt 0.032227 0.679932 0.000000
vt 0.095215 0.679932 0.000000
vt 0.032227 0.669922 0.000000
vt 0.095215 0.679932 0.000000
vt 0.095215 0.669678 0.000000
vt 0.032227 0.669922 0.000000
vt 0.095215 0.669678 0.000000
vt 0.095215 0.640381 0.000000
vt 0.032227 0.669922 0.000000
vt 0.032227 0.669922 0.000000
vt 0.095215 0.640381 0.000000
vt 0.032227 0.640381 0.000000
vt 0.095215 0.640381 0.000000
vt 0.095215 0.864502 0.000000
vt 0.032227 0.640381 0.000000
vt 0.032227 0.640381 0.000000
vt 0.095215 0.864502 0.000000
vt 0.032227 0.864502 0.000000
vt 0.095215 0.864502 0.000000
vt 0.095215 0.864502 0.000000
vt 0.032227 0.864502 0.000000
vt 0.032227 0.864502 0.000000
vt 0.095215 0.864502 0.000000
vt 0.032227 0.864502 0.000000
vt 0.095215 0.864502 0.000000
vt 0.095215 0.784668 0.000000
vt 0.032227 0.864502 0.000000
vt 0.032227 0.864502 0.000000
vt 0.095215 0.784668 0.000000
vt 0.032227 0.784668 0.000000
vt 0.095215 0.784668 0.000000
vt 0.095215 0.784668 0.000000
vt 0.032227 0.784668 0.000000
vt 0.032227 0.784668 0.000000
vt 0.095215 0.784668 0.000000
vt 0.032227 0.784668 0.000000
vt 0.095215 0.784668 0.000000
vt 0.095215 0.846191 0.000000
vt 0.032227 0.784668 0.000000
vt 0.032227 0.784668 0.000000
vt 0.095215 0.846191 0.000000
vt 0.032227 0.846191 0.000000
vt 0.095215 0.846191 0.000000
vt 0.095215 0.845703 0.000000
vt 0.032227 0.846191 0.000000
vt 0.032227 0.846191 0.000000
vt 0.095215 0.845703 0.000000
vt 0.032227 0.845703 0.000000
vt 0.154541 0.589355 0.000000
vt 0.217529 0.589355 0.000000
vt 0.154541 0.589355 0.000000
vt 0.217529 0.589355 0.000000
vt 0.217529 0.589355 0.000000
vt 0.154541 0.589355 0.000000
vt 0.154541 0.589355 0.000000
vt 0.217529 0.589355 0.000000
vt 0.217529 0.520508 0.000000
vt 0.154541 0.589355 0.000000
vt 0.217529 0.520508 0.000000
vt 0.154541 0.520508 0.000000
vt 0.154541 0.520508 0.000000
vt 0.217529 0.520508 0.000000
vt 0.217529 0.520508 0.000000
vt 0.154541 0.520508 0.000000
vt 0.217529 0.520508 0.000000
vt 0.154541 0.520508 0.000000
vt 0.154541 0.520508 0.000000
vt 0.217529 0.520508 0.000000
vt 0.154541 0.725830 0.000000
vt 0.217529 0.520508 0.000000
vt 0.217529 0.725830 0.000000
vt 0.154541 0.725830 0.000000
vt 0.217529 0.725830 0.000000
vt 0.217529 0.675781 0.000000
vt 0.154541 0.725830 0.000000
vt 0.154541 0.725830 0.000000
vt 0.217529 0.675781 0.000000
vt 0.154541 0.675781 0.000000
vt 0.217529 0.675781 0.000000
vt 0.217529 0.522461 0.000000
vt 0.154541 0.675781 0.000000
vt 0.154541 0.675781 0.000000
vt 0.217529 0.522461 0.000000
vt 0.154541 0.522461 0.000000
vt 0.217529 0.522461 0.000000
vt 0.217529 0.522461 0.000000
vt 0.154541 0.522461 0.000000
vt 0.154541 0.522461 0.000000
vt 0.217529 0.522461 0.000000
vt 0.154541 0.522461 0.000000
vt 0.217529 0.522461 0.000000
vt 0.217529 0.723877 0.000000
vt 0.154541 0.522461 0.000000
vt 0.154541 0.522461 0.000000
vt 0.217529 0.723877 0.000000
vt 0.154541 0.723877 0.000000
vt 0.217529 0.723877 0.000000
vt 0.217529 0.671875 0.000000
vt 0.154541 0.723877 0.000000
vt 0.154541 0.723877 0.000000
vt 0.217529 0.671875 0.000000
vt 0.154541 0.671875 0.000000
vt 0.217529 0.671875 0.000000
vt 0.217529 0.520996 0.000000
vt 0.154541 0.671875 0.000000
vt 0.154541 0.671875 0.000000
vt 0.217529 0.520996 0.000000
vt 0.154541 0.520996 0.000000
vt 0.217529 0.520996 0.000000
vt 0.217529 0.520996 0.000000
vt 0.154541 0.520996 0.000000
vt 0.154541 0.520996 0.000000
vt 0.217529 0.520996 0.000000
vt 0.154541 0.520996 0.000000
vt 0.217529 0.520996 0.000000
vt 0.217529 0.589355 0.000000
vt 0.154541 0.520996 0.000000
vt 0.154541 0.520996 0.000000
vt 0.217529 0.589355 0.000000
vt 0.154541 0.589355 0.000000
vt 0.217529 0.589355 0.000000
vt 0.217529 0.589355 0.000000
vt 0.154541 0.589355 0.000000
vt 0.154541 0.589355 0.000000
vt 0.217529 0.589355 0.000000
vt 0.154541 0.589355 0.000000
vt 0.217529 0.589355 0.000000
vt 0.217529 0.797852 0.000000
vt 0.154541 0.589355 0.000000
vt 0.154541 0.589355 0.000000
vt 0.217529 0.797852 0.000000
vt 0.154541 0.797852 0.000000
vt 0.217529 0.797852 0.000000
vt 0.217529 0.912598 0.000000
vt 0.154541 0.797852 0.000000
vt 0.154541 0.797852 0.000000
vt 0.217529 0.912598 0.000000
vt 0.154541 0.912598 0.000000
vt 0.217529 0.912598 0.000000
vt 0.217529 0.749756 0.000000
vt 0.154541 0.912598 0.000000
vt 0.154541 0.912598 0.000000
vt 0.217529 0.749756 0.000000
vt 0.154541 0.749756 0.000000
vt 0.217529 0.749756 0.000000
vt 0.217529 0.794189 0.000000
vt 0.154541 0.749756 0.000000
vt 0.154541 0.749756 0.000000
vt 0.217529 0.794189 0.000000
vt 0.154541 0.794189 0.000000
vt 0.217529 0.794189 0.000000
vt 0.217529 0.856934 0.000000
vt 0.154541 0.794189 0.000000
vt 0.154541 0.794189 0.000000
vt 0.217529 0.856934 0.000000
vt 0.154541 0.856934 0.000000
vt 0.217529 0.856934 0.000000
vt 0.217529 0.984863 0.000000
vt 0.154541 0.856934 0.000000
vt 0.154541 0.856934 0.000000
vt 0.217529 0.984863 0.000000
vt 0.154541 0.984863 0.000000
vt 0.217529 0.984863 0.000000
vt 0.217529 0.758545 0.000000
vt 0.154541 0.984863 0.000000
vt 0.154541 0.984863 0.000000
vt 0.217529 0.758545 0.000000
vt 0.154541 0.758545 0.000000
vt 0.217529 0.758545 0.000000
vt 0.217529 0.919678 0.000000
vt 0.154541 0.758545 0.000000
vt 0.154541 0.758545 0.000000
vt 0.217529 0.919678 0.000000
vt 0.154541 0.919678 0.000000
vt 0.217529 0.919678 0.000000
vt 0.217529 0.589355 0.000000
vt 0.154541 0.919678 0.000000
vt 0.154541 0.919678 0.000000
vt 0.217529 0.589355 0.000000
vt 0.154541 0.589355 0.000000
vt 0.501953 0.193848 0.000000
vt 0.509277 0.167969 0.000000
vt 0.524658 0.197510 0.000000
vt 0.509277 0.167969 0.000000
vt 0.520264 0.159668 0.000000
vt 0.524658 0.197510 0.000000
vt 0.524658 0.197510 0.000000
vt 0.520264 0.159668 0.000000
vt 0.533936 0.210693 0.000000
vt 0.520264 0.159668 0.000000
vt 0.618896 0.134766 0.000000
vt 0.533936 0.210693 0.000000
vt 0.533936 0.210693 0.000000
vt 0.618896 0.134766 0.000000
vt 0.618896 0.315918 0.000000
vt 0.533936 0.210693 0.000000
vt 0.618896 0.315918 0.000000
vt 0.534180 0.411865 0.000000
vt 0.534180 0.411865 0.000000
vt 0.618896 0.315918 0.000000
vt 0.686279 0.315918 0.000000
vt 0.315918 0.316162 0.000000
vt 0.471191 0.412598 0.000000
vt 0.390381 0.316406 0.000000
vt 0.471191 0.412598 0.000000
vt 0.471680 0.211426 0.000000
vt 0.390381 0.316406 0.000000
vt 0.390381 0.316406 0.000000
vt 0.471680 0.211426 0.000000
vt 0.390381 0.135254 0.000000
vt 0.390381 0.135254 0.000000
vt 0.471680 0.211426 0.000000
vt 0.484131 0.158203 0.000000
vt 0.484131 0.158203 0.000000
vt 0.471680 0.211426 0.000000
vt 0.480713 0.197998 0.000000
vt 0.484131 0.158203 0.000000
vt 0.480713 0.197998 0.000000
vt 0.496094 0.168457 0.000000
vt 0.496094 0.168457 0.000000
vt 0.480713 0.197998 0.000000
vt 0.499512 0.194336 0.000000
vt 0.470459 0.410400 0.000000
vt 0.541992 0.410400 0.000000
vt 0.470459 0.695557 0.000000
vt 0.541992 0.410400 0.000000
vt 0.541992 0.736328 0.000000
vt 0.470459 0.695557 0.000000
vt 0.541992 0.736328 0.000000
vt 0.468262 0.772461 0.000000
vt 0.470459 0.695557 0.000000
vt 0.470459 0.695557 0.000000
vt 0.468262 0.772461 0.000000
vt 0.454834 0.737793 0.000000
vt 0.866211 0.409180 0.000000
vt 0.827881 0.486084 0.000000
vt 0.555176 0.409180 0.000000
vt 0.827881 0.486084 0.000000
vt 0.625000 0.486084 0.000000
vt 0.555176 0.409180 0.000000
vt 0.555176 0.409180 0.000000
vt 0.625000 0.486084 0.000000
vt 0.556396 0.692627 0.000000
vt 0.071289 0.324707 0.000000
vt 0.024414 0.249756 0.000000
vt 0.248291 0.325195 0.000000
vt 0.024414 0.249756 0.000000
vt 0.359375 0.249512 0.000000
vt 0.248291 0.325195 0.000000
vt 0.359375 0.249512 0.000000
vt 0.315918 0.316162 0.000000
vt 0.248291 0.325195 0.000000
vt 0.248291 0.325195 0.000000
vt 0.315918 0.316162 0.000000
vt 0.229736 0.323486 0.000000
vt 0.924316 0.322998 0.000000
vt 0.868896 0.411865 0.000000
vt 0.771729 0.322998 0.000000
vt 0.868896 0.411865 0.000000
vt 0.534180 0.411865 0.000000
vt 0.771729 0.322998 0.000000
vt 0.534180 0.411865 0.000000
vt 0.686279 0.315918 0.000000
vt 0.771729 0.322998 0.000000
vt 0.771729 0.322998 0.000000
vt 0.686279 0.315918 0.000000
vt 0.751465 0.324219 0.000000
vt 0.686279 0.315918 0.000000
vt 0.642334 0.249023 0.000000
vt 0.751465 0.324219 0.000000
vt 0.642334 0.249023 0.000000
vt 0.975830 0.249023 0.000000
vt 0.751465 0.324219 0.000000
vt 0.751465 0.324219 0.000000
vt 0.975830 0.249023 0.000000
vt 0.927979 0.324707 0.000000
vt 0.135986 0.408691 0.000000
vt 0.173584 0.486084 0.000000
vt 0.454834 0.408691 0.000000
vt 0.173584 0.486084 0.000000
vt 0.380371 0.486084 0.000000
vt 0.454834 0.408691 0.000000
vt 0.454834 0.408691 0.000000
vt 0.380371 0.486084 0.000000
vt 0.454834 0.737793 0.000000
vt 0.380371 0.486084 0.000000
vt 0.380371 0.915283 0.000000
vt 0.454834 0.737793 0.000000
vt 0.380371 0.915283 0.000000
vt 0.468262 0.772461 0.000000
vt 0.454834 0.737793 0.000000
vt 0.454834 0.737793 0.000000
vt 0.468262 0.772461 0.000000
vt 0.470459 0.695557 0.000000
vt 0.468262 0.772461 0.000000
vt 0.541992 0.736328 0.000000
vt 0.470459 0.695557 0.000000
vt 0.541992 0.736328 0.000000
vt 0.541992 0.410400 0.000000
vt 0.470459 0.695557 0.000000
vt 0.470459 0.695557 0.000000
vt 0.541992 0.410400 0.000000
vt 0.470459 0.410400 0.000000
vt 0.076416 0.322998 0.000000
vt 0.134521 0.412109 0.000000
vt 0.229736 0.323486 0.000000
vt 0.134521 0.412109 0.000000
vt 0.471191 0.412598 0.000000
vt 0.229736 0.323486 0.000000
vt 0.471191 0.412598 0.000000
vt 0.315918 0.316162 0.000000
vt 0.229736 0.323486 0.000000
vt 0.229736 0.323486 0.000000
vt 0.315918 0.316162 0.000000
vt 0.248291 0.325195 0.000000
vt 0.315918 0.316162 0.000000
vt 0.359375 0.249512 0.000000
vt 0.248291 0.325195 0.000000
vt 0.359375 0.249512 0.000000
vt 0.024414 0.249756 0.000000
vt 0.248291 0.325195 0.000000
vt 0.248291 0.325195 0.000000
vt 0.024414 0.249756 0.000000
vt 0.071289 0.324707 0.000000
vt 0.927979 0.324707 0.000000
vt 0.975830 0.249023 0.000000
vt 0.751465 0.324219 0.000000
vt 0.975830 0.249023 0.000000
vt 0.642334 0.249023 0.000000
vt 0.751465 0.324219 0.000000
vt 0.642334 0.249023 0.000000
vt 0.686279 0.315918 0.000000
vt 0.751465 0.324219 0.000000
vt 0.751465 0.324219 0.000000
vt 0.686279 0.315918 0.000000
vt 0.771729 0.322998 0.000000
vt 0.471680 0.211426 0.000000
vt 0.471191 0.412598 0.000000
vt 0.390381 0.316406 0.000000
vt 0.390381 0.316406 0.000000
vt 0.471191 0.412598 0.000000
vt 0.315918 0.316162 0.000000
vt 0.315918 0.316162 0.000000
vt 0.471191 0.412598 0.000000
vt 0.229736 0.323486 0.000000
vt 0.471191 0.412598 0.000000
vt 0.134521 0.412109 0.000000
vt 0.229736 0.323486 0.000000
vt 0.229736 0.323486 0.000000
vt 0.134521 0.412109 0.000000
vt 0.076416 0.322998 0.000000
vt 0.468262 0.772461 0.000000
vt 0.380371 0.915283 0.000000
vt 0.454834 0.737793 0.000000
vt 0.380371 0.915283 0.000000
vt 0.380371 0.486084 0.000000
vt 0.454834 0.737793 0.000000
vt 0.454834 0.737793 0.000000
vt 0.380371 0.486084 0.000000
vt 0.454834 0.408691 0.000000
vt 0.380371 0.486084 0.000000
vt 0.173584 0.486084 0.000000
vt 0.454834 0.408691 0.000000
vt 0.454834 0.408691 0.000000
vt 0.173584 0.486084 0.000000
vt 0.135986 0.408691 0.000000
vt 0.556396 0.895264 0.000000
vt 0.556396 0.758057 0.000000
vt 0.625000 0.798584 0.000000
vt 0.625000 0.486084 0.000000
vt 0.625000 0.798584 0.000000
vt 0.556396 0.692627 0.000000
vt 0.625000 0.798584 0.000000
vt 0.556396 0.758057 0.000000
vt 0.556396 0.692627 0.000000
vt 0.556396 0.692627 0.000000
vt 0.556396 0.758057 0.000000
vt 0.541992 0.736328 0.000000
vt 0.556396 0.758057 0.000000
vt 0.545898 0.795410 0.000000
vt 0.541992 0.736328 0.000000
vt 0.541992 0.736328 0.000000
vt 0.545898 0.795410 0.000000
vt 0.468262 0.772461 0.000000
vt 0.545898 0.795410 0.000000
vt 0.545898 0.833740 0.000000
vt 0.468262 0.772461 0.000000
vt 0.468262 0.772461 0.000000
vt 0.545898 0.833740 0.000000
vt 0.468262 0.950928 0.000000
vt 0.533936 0.210693 0.000000
vt 0.534180 0.411865 0.000000
vt 0.618896 0.315918 0.000000
vt 0.618896 0.315918 0.000000
vt 0.534180 0.411865 0.000000
vt 0.686279 0.315918 0.000000
vt 0.686279 0.315918 0.000000
vt 0.534180 0.411865 0.000000
vt 0.771729 0.322998 0.000000
vt 0.534180 0.411865 0.000000
vt 0.868896 0.411865 0.000000
vt 0.771729 0.322998 0.000000
vt 0.771729 0.322998 0.000000
vt 0.868896 0.411865 0.000000
vt 0.924316 0.322998 0.000000
vt 0.390381 0.316406 0.000000
vt 0.390381 0.135254 0.000000
vt 0.471680 0.211426 0.000000
vt 0.390381 0.135254 0.000000
vt 0.484131 0.158203 0.000000
vt 0.471680 0.211426 0.000000
vt 0.471680 0.211426 0.000000
vt 0.484131 0.158203 0.000000
vt 0.480713 0.197998 0.000000
vt 0.484131 0.158203 0.000000
vt 0.496094 0.168457 0.000000
vt 0.480713 0.197998 0.000000
vt 0.480713 0.197998 0.000000
vt 0.496094 0.168457 0.000000
vt 0.499512 0.194336 0.000000
vt 0.468262 0.950928 0.000000
vt 0.545898 0.833740 0.000000
vt 0.468262 0.772461 0.000000
vt 0.545898 0.833740 0.000000
vt 0.545898 0.795410 0.000000
vt 0.468262 0.772461 0.000000
vt 0.468262 0.772461 0.000000
vt 0.545898 0.795410 0.000000
vt 0.541992 0.736328 0.000000
vt 0.545898 0.795410 0.000000
vt 0.556396 0.758057 0.000000
vt 0.541992 0.736328 0.000000
vt 0.541992 0.736328 0.000000
vt 0.556396 0.758057 0.000000
vt 0.556396 0.692627 0.000000
vt 0.618896 0.315918 0.000000
vt 0.618896 0.134766 0.000000
vt 0.533936 0.210693 0.000000
vt 0.618896 0.134766 0.000000
vt 0.520264 0.159424 0.000000
vt 0.533936 0.210693 0.000000
vt 0.533936 0.210693 0.000000
vt 0.520264 0.159424 0.000000
vt 0.524658 0.197510 0.000000
vt 0.520264 0.159424 0.000000
vt 0.509521 0.167969 0.000000
vt 0.524658 0.197510 0.000000
vt 0.524658 0.197510 0.000000
vt 0.509521 0.167969 0.000000
vt 0.501953 0.193848 0.000000
vt 0.556396 0.895264 0.000000
vt 0.625000 0.798584 0.000000
vt 0.556396 0.758057 0.000000
vt 0.556396 0.758057 0.000000
vt 0.625000 0.798584 0.000000
vt 0.556396 0.692627 0.000000
vt 0.625000 0.798584 0.000000
vt 0.625000 0.486084 0.000000
vt 0.556396 0.692627 0.000000
vt 0.556396 0.692627 0.000000
vt 0.625000 0.486084 0.000000
vt 0.555176 0.409180 0.000000
vt 0.625000 0.486084 0.000000
vt 0.827881 0.486084 0.000000
vt 0.555176 0.409180 0.000000
vt 0.555176 0.409180 0.000000
vt 0.827881 0.486084 0.000000
vt 0.866211 0.409180 0.000000
vn 0.629883 0.249756 0.735107
vn 0.479004 0.201660 -0.854004
vn 0.235596 0.434570 0.869141
vn 0.235596 0.434570 0.869141
vn 0.479004 0.201660 -0.854004
vn -0.186279 0.779053 -0.598389
vn 0.235596 0.434570 0.869141
vn -0.186279 0.779053 -0.598389
vn -0.403809 0.696045 0.593506
vn -0.403809 0.696045 0.593506
vn -0.186279 0.779053 -0.598389
vn -0.773682 0.225830 -0.591797
vn -0.403809 0.696045 0.593506
vn -0.773682 0.225830 -0.591797
vn -0.378906 -0.738770 0.556885
vn -0.378906 -0.738770 0.556885
vn -0.773682 0.225830 -0.591797
vn -0.248535 -0.631592 -0.734131
vn 0.479004 0.201660 -0.854004
vn 0.629883 0.249756 0.735107
vn 0.418457 0.153320 -0.895020
vn 0.418457 0.153320 -0.895020
vn 0.629883 0.249756 0.735107
vn 0.342529 0.713379 -0.610840
vn 0.629883 0.249756 0.735107
vn 0.229736 0.478271 0.847412
vn 0.342529 0.713379 -0.610840
vn 0.342529 0.713379 -0.610840
vn 0.229736 0.478271 0.847412
vn 0.813232 0.434570 0.386230
vn 0.342529 0.713379 -0.610840
vn 0.813232 0.434570 0.386230
vn 0.687256 0.366943 -0.626465
vn 0.687256 0.366943 -0.626465
vn 0.813232 0.434570 0.386230
vn 0.656250 -0.612305 -0.440674
vn 0.813232 0.434570 0.386230
vn 0.523926 -0.467529 0.711670
vn 0.656250 -0.612305 -0.440674
vn 0.656250 -0.612305 -0.440674
vn 0.523926 -0.467529 0.711670
vn 0.277344 -0.755371 0.593506
vn 0.656250 -0.612305 -0.440674
vn 0.277344 -0.755371 0.593506
vn 0.221680 -0.531494 -0.817383
vn 0.221680 -0.531494 -0.817383
vn 0.277344 -0.755371 0.593506
vn -0.476318 -0.612305 -0.630615
vn 0.277344 -0.755371 0.593506
vn -0.332275 -0.423340 0.842529
vn -0.476318 -0.612305 -0.630615
vn -0.476318 -0.612305 -0.630615
vn -0.332275 -0.423340 0.842529
vn -0.519287 -0.285400 0.805176
vn -0.476318 -0.612305 -0.630615
vn -0.519287 -0.285400 0.805176
vn -0.228027 -0.552246 -0.801758
vn -0.228027 -0.552246 -0.801758
vn -0.519287 -0.285400 0.805176
vn 0.180420 -0.308838 0.933594
vn -0.228027 -0.552246 -0.801758
vn 0.180420 -0.308838 0.933594
vn 0.377197 0.079834 -0.922607
vn 0.377197 0.079834 -0.922607
vn 0.180420 -0.308838 0.933594
vn 0.585693 0.153320 0.795654
vn 0.377197 0.079834 -0.922607
vn 0.585693 0.153320 0.795654
vn 0.320313 -0.531494 -0.783936
vn 0.320313 -0.531494 -0.783936
vn 0.585693 0.153320 0.795654
vn -0.271484 -0.531494 0.802002
vn 0.320313 -0.531494 -0.783936
vn -0.271484 -0.531494 0.802002
vn -0.535400 0.153320 -0.830322
vn -0.535400 0.153320 -0.830322
vn -0.271484 -0.531494 0.802002
vn -0.475342 0.808838 0.345459
vn -0.535400 0.153320 -0.830322
vn -0.475342 0.808838 0.345459
vn -0.226318 0.908447 -0.351074
vn -0.226318 0.908447 -0.351074
vn -0.475342 0.808838 0.345459
vn -0.341064 0.128906 0.930908
vn -0.378906 -0.738770 0.556885
vn -0.248535 -0.631592 -0.734131
vn -0.162598 -0.400879 0.901367
vn -0.162598 -0.400879 0.901367
vn -0.248535 -0.631592 -0.734131
vn -0.341064 0.128906 0.930908
vn -0.248535 -0.631592 -0.734131
vn -0.153076 0.055176 -0.986572
vn -0.341064 0.128906 0.930908
vn -0.341064 0.128906 0.930908
vn -0.153076 0.055176 -0.986572
vn -0.226318 0.908447 -0.351074
vn 0.189453 0.055176 0.980225
vn 0.352295 0.128906 -0.926758
vn 0.257568 -0.631592 0.730957
vn 0.352295 0.128906 -0.926758
vn 0.195801 -0.400879 -0.894775
vn 0.257568 -0.631592 0.730957
vn 0.257568 -0.631592 0.730957
vn 0.195801 -0.400879 -0.894775
vn 0.412354 -0.738770 -0.532471
vn 0.257568 -0.631592 0.730957
vn 0.412354 -0.738770 -0.532471
vn 0.812988 0.201660 0.545898
vn 0.812988 0.201660 0.545898
vn 0.412354 -0.738770 -0.532471
vn 0.439453 0.696045 -0.567383
vn 0.812988 0.201660 0.545898
vn 0.439453 0.696045 -0.567383
vn 0.222656 0.779053 0.585938
vn 0.222656 0.779053 0.585938
vn 0.439453 0.696045 -0.567383
vn -0.181641 0.434570 -0.881836
vn 0.222656 0.779053 0.585938
vn -0.181641 0.434570 -0.881836
vn -0.425537 0.201660 0.881836
vn -0.425537 0.201660 0.881836
vn -0.181641 0.434570 -0.881836
vn -0.602295 0.249756 -0.758057
vn -0.425537 0.201660 0.881836
vn -0.602295 0.249756 -0.758057
vn -0.362549 0.153320 0.919189
vn -0.362549 0.153320 0.919189
vn -0.602295 0.249756 -0.758057
vn -0.319824 0.713379 0.623047
vn -0.602295 0.249756 -0.758057
vn -0.198242 0.478271 -0.855225
vn -0.319824 0.713379 0.623047
vn -0.319824 0.713379 0.623047
vn -0.198242 0.478271 -0.855225
vn -0.788086 0.434570 -0.435791
vn -0.319824 0.713379 0.623047
vn -0.788086 0.434570 -0.435791
vn -0.647461 0.366943 0.667725
vn -0.647461 0.366943 0.667725
vn -0.788086 0.434570 -0.435791
vn -0.642334 -0.510498 0.571289
vn -0.788086 0.434570 -0.435791
vn -0.511475 -0.631592 -0.582275
vn -0.642334 -0.510498 0.571289
vn -0.642334 -0.510498 0.571289
vn -0.511475 -0.631592 -0.582275
vn -0.255371 -0.755371 0.603271
vn -0.511475 -0.631592 -0.582275
vn -0.150391 -0.531494 -0.833252
vn -0.255371 -0.755371 0.603271
vn -0.150391 -0.531494 -0.833252
vn 0.241211 -0.687012 -0.685059
vn -0.255371 -0.755371 0.603271
vn -0.255371 -0.755371 0.603271
vn 0.241211 -0.687012 -0.685059
vn 0.642334 -0.355469 0.678955
vn 0.241211 -0.687012 -0.685059
vn 0.567871 -0.285400 -0.771729
vn 0.642334 -0.355469 0.678955
vn 0.642334 -0.355469 0.678955
vn 0.567871 -0.285400 -0.771729
vn 0.276855 -0.552246 0.786133
vn 0.567871 -0.285400 -0.771729
vn -0.122559 -0.308838 -0.942871
vn 0.276855 -0.552246 0.786133
vn 0.276855 -0.552246 0.786133
vn -0.122559 -0.308838 -0.942871
vn -0.319580 0.079834 0.944092
vn -0.122559 -0.308838 -0.942871
vn -0.535400 0.153320 -0.830322
vn -0.319580 0.079834 0.944092
vn -0.319580 0.079834 0.944092
vn -0.535400 0.153320 -0.830322
vn -0.271484 -0.531494 0.802002
vn -0.535400 0.153320 -0.830322
vn 0.320313 -0.531494 -0.783936
vn -0.271484 -0.531494 0.802002
vn -0.271484 -0.531494 0.802002
vn 0.320313 -0.531494 -0.783936
vn 0.585693 0.153320 0.795654
vn 0.320313 -0.531494 -0.783936
vn 0.487793 0.808838 -0.327637
vn 0.585693 0.153320 0.795654
vn 0.585693 0.153320 0.795654
vn 0.487793 0.808838 -0.327637
vn 0.239258 0.908447 0.342529
vn 0.487793 0.808838 -0.327637
vn 0.352295 0.128906 -0.926758
vn 0.239258 0.908447 0.342529
vn 0.239258 0.908447 0.342529
vn 0.352295 0.128906 -0.926758
vn 0.189453 0.055176 0.980225
vn -0.283691 0.297119 0.911621
vn -0.457520 0.478271 -0.749268
vn -0.330566 0.808838 0.485840
vn -0.457520 0.478271 -0.749268
vn -0.232666 0.622070 -0.747314
vn -0.330566 0.808838 0.485840
vn -0.330566 0.808838 0.485840
vn -0.232666 0.622070 -0.747314
vn -0.773682 0.225830 -0.591797
vn -0.330566 0.808838 0.485840
vn -0.773682 0.225830 -0.591797
vn -0.378906 -0.738770 0.556885
vn -0.378906 -0.738770 0.556885
vn -0.773682 0.225830 -0.591797
vn 0.516846 -0.489258 -0.702148
vn -0.378906 -0.738770 0.556885
vn 0.516846 -0.489258 -0.702148
vn 0.315918 -0.308838 0.896973
vn 0.315918 -0.308838 0.896973
vn 0.516846 -0.489258 -0.702148
vn 0.156006 -0.332275 0.929932
vn 0.516846 -0.489258 -0.702148
vn 0.114502 -0.189697 -0.975098
vn 0.156006 -0.332275 0.929932
vn 0.114502 -0.189697 -0.975098
vn -0.455078 -0.308838 -0.834961
vn 0.156006 -0.332275 0.929932
vn 0.156006 -0.332275 0.929932
vn -0.455078 -0.308838 -0.834961
vn -0.534424 -0.165527 0.828613
vn -0.455078 -0.308838 -0.834961
vn -0.792725 -0.423340 -0.438232
vn -0.534424 -0.165527 0.828613
vn -0.534424 -0.165527 0.828613
vn -0.792725 -0.423340 -0.438232
vn -0.387939 -0.830078 0.400146
vn -0.792725 -0.423340 -0.438232
vn 0.363525 -0.668945 -0.647949
vn -0.387939 -0.830078 0.400146
vn -0.387939 -0.830078 0.400146
vn 0.363525 -0.668945 -0.647949
vn 0.674805 -0.355469 0.646484
vn 0.363525 -0.668945 -0.647949
vn 0.282471 -0.141113 -0.948730
vn 0.674805 -0.355469 0.646484
vn 0.674805 -0.355469 0.646484
vn 0.282471 -0.141113 -0.948730
vn -0.076660 -0.285400 0.955078
vn 0.282471 -0.141113 -0.948730
vn -0.455078 -0.308838 -0.834961
vn -0.076660 -0.285400 0.955078
vn -0.076660 -0.285400 0.955078
vn -0.455078 -0.308838 -0.834961
vn -0.534424 -0.165527 0.828613
vn -0.455078 -0.308838 -0.834961
vn -0.499268 -0.285400 -0.817871
vn -0.534424 -0.165527 0.828613
vn -0.534424 -0.165527 0.828613
vn -0.499268 -0.285400 -0.817871
vn -0.247803 -0.552246 0.795898
vn -0.499268 -0.285400 -0.817871
vn 0.412354 -0.738770 -0.532471
vn -0.247803 -0.552246 0.795898
vn -0.247803 -0.552246 0.795898
vn 0.412354 -0.738770 -0.532471
vn 0.794922 0.225830 0.562744
vn 0.412354 -0.738770 -0.532471
vn 0.439453 0.696045 -0.567383
vn 0.794922 0.225830 0.562744
vn 0.794922 0.225830 0.562744
vn 0.439453 0.696045 -0.567383
vn 0.208252 0.779053 0.591064
vn 0.439453 0.696045 -0.567383
vn 0.303223 0.520996 -0.797607
vn 0.208252 0.779053 0.591064
vn 0.208252 0.779053 0.591064
vn 0.303223 0.520996 -0.797607
vn 0.554443 0.249756 0.793701
vn 0.303223 0.520996 -0.797607
vn 0.696533 0.153320 -0.700684
vn 0.554443 0.249756 0.793701
vn 0.554443 0.249756 0.793701
vn 0.696533 0.153320 -0.700684
vn 0.593018 0.343750 0.727783
vn 0.696533 0.153320 -0.700684
vn 0.265381 0.779053 -0.567871
vn 0.593018 0.343750 0.727783
vn 0.593018 0.343750 0.727783
vn 0.265381 0.779053 -0.567871
vn -0.717285 0.389648 0.577148
vn 0.265381 0.779053 -0.567871
vn -0.270264 0.153320 -0.950439
vn -0.717285 0.389648 0.577148
vn -0.717285 0.389648 0.577148
vn -0.270264 0.153320 -0.950439
vn 0.110596 0.320557 0.940674
vn -0.270264 0.153320 -0.950439
vn 0.610840 0.343750 -0.712891
vn 0.110596 0.320557 0.940674
vn 0.110596 0.320557 0.940674
vn 0.610840 0.343750 -0.712891
vn 0.661133 0.153320 0.734131
vn 0.610840 0.343750 -0.712891
vn 0.812988 0.201660 -0.545898
vn 0.661133 0.153320 0.734131
vn 0.661133 0.153320 0.734131
vn 0.812988 0.201660 -0.545898
vn 0.710205 0.389648 0.585938
vn 0.812988 0.201660 -0.545898
vn 0.265381 0.779053 -0.567871
vn 0.710205 0.389648 0.585938
vn 0.710205 0.389648 0.585938
vn 0.265381 0.779053 -0.567871
vn -0.717285 0.389648 0.577148
vn 0.265381 0.779053 -0.567871
vn -0.176514 0.104492 -0.978516
vn -0.717285 0.389648 0.577148
vn -0.717285 0.389648 0.577148
vn -0.176514 0.104492 -0.978516
vn 0.089844 0.225830 0.969971
vn -0.176514 0.104492 -0.978516
vn 0.196533 0.562500 -0.802979
vn 0.089844 0.225830 0.969971
vn 0.089844 0.225830 0.969971
vn 0.196533 0.562500 -0.802979
vn -0.521240 0.273438 0.808105
vn 0.196533 0.562500 -0.802979
vn -0.457520 0.478271 -0.749268
vn -0.521240 0.273438 0.808105
vn -0.521240 0.273438 0.808105
vn -0.457520 0.478271 -0.749268
vn -0.283691 0.297119 0.911621
vn -0.647461 0.366943 0.667725
vn -0.642334 -0.510498 0.571289
vn -0.319824 0.713379 0.623047
vn -0.642334 -0.510498 0.571289
vn -0.255371 -0.755371 0.603271
vn -0.319824 0.713379 0.623047
vn -0.319824 0.713379 0.623047
vn -0.255371 -0.755371 0.603271
vn -0.362549 0.153320 0.919189
vn -0.255371 -0.755371 0.603271
vn 0.642334 -0.355469 0.678955
vn -0.362549 0.153320 0.919189
vn -0.362549 0.153320 0.919189
vn 0.642334 -0.355469 0.678955
vn 0.276855 -0.552246 0.786133
vn -0.362549 0.153320 0.919189
vn 0.276855 -0.552246 0.786133
vn -0.425537 0.201660 0.881836
vn -0.425537 0.201660 0.881836
vn 0.276855 -0.552246 0.786133
vn -0.319580 0.079834 0.944092
vn 0.377197 0.079834 -0.922607
vn 0.479004 0.201660 -0.854004
vn -0.228027 -0.552246 -0.801758
vn 0.479004 0.201660 -0.854004
vn 0.418457 0.153320 -0.895020
vn -0.228027 -0.552246 -0.801758
vn -0.228027 -0.552246 -0.801758
vn 0.418457 0.153320 -0.895020
vn -0.476318 -0.612305 -0.630615
vn -0.476318 -0.612305 -0.630615
vn 0.418457 0.153320 -0.895020
vn 0.221680 -0.531494 -0.817383
vn 0.221680 -0.531494 -0.817383
vn 0.418457 0.153320 -0.895020
vn 0.342529 0.713379 -0.610840
vn 0.221680 -0.531494 -0.817383
vn 0.342529 0.713379 -0.610840
vn 0.656250 -0.612305 -0.440674
vn 0.656250 -0.612305 -0.440674
vn 0.342529 0.713379 -0.610840
vn 0.687256 0.366943 -0.626465
vn -0.387939 -0.830078 0.400146
vn 0.674805 -0.355469 0.646484
vn -0.534424 -0.165527 0.828613
vn 0.674805 -0.355469 0.646484
vn -0.076660 -0.285400 0.955078
vn -0.534424 -0.165527 0.828613
vn -0.076660 -0.285400 0.955078
vn 0.089844 0.225830 0.969971
vn -0.534424 -0.165527 0.828613
vn -0.534424 -0.165527 0.828613
vn 0.089844 0.225830 0.969971
vn 0.156006 -0.332275 0.929932
vn 0.794922 0.225830 0.562744
vn 0.208252 0.779053 0.591064
vn -0.247803 -0.552246 0.795898
vn 0.208252 0.779053 0.591064
vn 0.554443 0.249756 0.793701
vn -0.247803 -0.552246 0.795898
vn -0.247803 -0.552246 0.795898
vn 0.554443 0.249756 0.793701
vn -0.534424 -0.165527 0.828613
vn -0.475342 0.808838 0.345459
vn -0.271484 -0.531494 0.802002
vn -0.341064 0.128906 0.930908
vn -0.271484 -0.531494 0.802002
vn 0.585693 0.153320 0.795654
vn -0.341064 0.128906 0.930908
vn 0.585693 0.153320 0.795654
vn 0.180420 -0.308838 0.933594
vn -0.341064 0.128906 0.930908
vn -0.341064 0.128906 0.930908
vn 0.180420 -0.308838 0.933594
vn -0.162598 -0.400879 0.901367
vn 0.812988 0.201660 0.545898
vn 0.222656 0.779053 0.585938
vn 0.257568 -0.631592 0.730957
vn 0.222656 0.779053 0.585938
vn -0.425537 0.201660 0.881836
vn 0.257568 -0.631592 0.730957
vn -0.425537 0.201660 0.881836
vn -0.319580 0.079834 0.944092
vn 0.257568 -0.631592 0.730957
vn 0.257568 -0.631592 0.730957
vn -0.319580 0.079834 0.944092
vn 0.189453 0.055176 0.980225
vn -0.319580 0.079834 0.944092
vn -0.271484 -0.531494 0.802002
vn 0.189453 0.055176 0.980225
vn -0.271484 -0.531494 0.802002
vn 0.585693 0.153320 0.795654
vn 0.189453 0.055176 0.980225
vn 0.189453 0.055176 0.980225
vn 0.585693 0.153320 0.795654
vn 0.239258 0.908447 0.342529
vn -0.773682 0.225830 -0.591797
vn -0.232666 0.622070 -0.747314
vn 0.516846 -0.489258 -0.702148
vn -0.232666 0.622070 -0.747314
vn -0.457520 0.478271 -0.749268
vn 0.516846 -0.489258 -0.702148
vn 0.516846 -0.489258 -0.702148
vn -0.457520 0.478271 -0.749268
vn 0.114502 -0.189697 -0.975098
vn -0.457520 0.478271 -0.749268
vn 0.196533 0.562500 -0.802979
vn 0.114502 -0.189697 -0.975098
vn 0.196533 0.562500 -0.802979
vn -0.176514 0.104492 -0.978516
vn 0.114502 -0.189697 -0.975098
vn 0.114502 -0.189697 -0.975098
vn -0.176514 0.104492 -0.978516
vn -0.455078 -0.308838 -0.834961
vn -0.176514 0.104492 -0.978516
vn 0.282471 -0.141113 -0.948730
vn -0.455078 -0.308838 -0.834961
vn 0.282471 -0.141113 -0.948730
vn 0.363525 -0.668945 -0.647949
vn -0.455078 -0.308838 -0.834961
vn -0.455078 -0.308838 -0.834961
vn 0.363525 -0.668945 -0.647949
vn -0.792725 -0.423340 -0.438232
vn -0.773682 0.225830 -0.591797
vn -0.186279 0.779053 -0.598389
vn -0.248535 -0.631592 -0.734131
vn -0.186279 0.779053 -0.598389
vn 0.479004 0.201660 -0.854004
vn -0.248535 -0.631592 -0.734131
vn 0.479004 0.201660 -0.854004
vn 0.377197 0.079834 -0.922607
vn -0.248535 -0.631592 -0.734131
vn -0.248535 -0.631592 -0.734131
vn 0.377197 0.079834 -0.922607
vn -0.153076 0.055176 -0.986572
vn 0.377197 0.079834 -0.922607
vn 0.320313 -0.531494 -0.783936
vn -0.153076 0.055176 -0.986572
vn 0.320313 -0.531494 -0.783936
vn -0.535400 0.153320 -0.830322
vn -0.153076 0.055176 -0.986572
vn -0.153076 0.055176 -0.986572
vn -0.535400 0.153320 -0.830322
vn -0.226318 0.908447 -0.351074
vn 0.487793 0.808838 -0.327637
vn 0.320313 -0.531494 -0.783936
vn 0.352295 0.128906 -0.926758
vn 0.320313 -0.531494 -0.783936
vn -0.535400 0.153320 -0.830322
vn 0.352295 0.128906 -0.926758
vn -0.535400 0.153320 -0.830322
vn -0.122559 -0.308838 -0.942871
vn 0.352295 0.128906 -0.926758
vn 0.352295 0.128906 -0.926758
vn -0.122559 -0.308838 -0.942871
vn 0.195801 -0.400879 -0.894775
vn 0.629883 0.249756 0.735107
vn 0.235596 0.434570 0.869141
vn -0.519287 -0.285400 0.805176
vn -0.519287 -0.285400 0.805176
vn 0.235596 0.434570 0.869141
vn 0.180420 -0.308838 0.933594
vn 0.180420 -0.308838 0.933594
vn 0.235596 0.434570 0.869141
vn -0.162598 -0.400879 0.901367
vn 0.235596 0.434570 0.869141
vn -0.403809 0.696045 0.593506
vn -0.162598 -0.400879 0.901367
vn -0.162598 -0.400879 0.901367
vn -0.403809 0.696045 0.593506
vn -0.378906 -0.738770 0.556885
vn 0.089844 0.225830 0.969971
vn -0.521240 0.273438 0.808105
vn 0.156006 -0.332275 0.929932
vn -0.521240 0.273438 0.808105
vn -0.283691 0.297119 0.911621
vn 0.156006 -0.332275 0.929932
vn 0.156006 -0.332275 0.929932
vn -0.283691 0.297119 0.911621
vn 0.315918 -0.308838 0.896973
vn -0.283691 0.297119 0.911621
vn -0.330566 0.808838 0.485840
vn 0.315918 -0.308838 0.896973
vn 0.315918 -0.308838 0.896973
vn -0.330566 0.808838 0.485840
vn -0.378906 -0.738770 0.556885
vn -0.717285 0.389648 0.577148
vn 0.110596 0.320557 0.940674
vn 0.593018 0.343750 0.727783
vn 0.554443 0.249756 0.793701
vn 0.593018 0.343750 0.727783
vn -0.534424 -0.165527 0.828613
vn 0.593018 0.343750 0.727783
vn 0.110596 0.320557 0.940674
vn -0.534424 -0.165527 0.828613
vn -0.534424 -0.165527 0.828613
vn 0.110596 0.320557 0.940674
vn -0.076660 -0.285400 0.955078
vn 0.110596 0.320557 0.940674
vn 0.661133 0.153320 0.734131
vn -0.076660 -0.285400 0.955078
vn -0.076660 -0.285400 0.955078
vn 0.661133 0.153320 0.734131
vn 0.089844 0.225830 0.969971
vn 0.661133 0.153320 0.734131
vn 0.710205 0.389648 0.585938
vn 0.089844 0.225830 0.969971
vn 0.089844 0.225830 0.969971
vn 0.710205 0.389648 0.585938
vn -0.717285 0.389648 0.577148
vn -0.602295 0.249756 -0.758057
vn -0.181641 0.434570 -0.881836
vn 0.567871 -0.285400 -0.771729
vn 0.567871 -0.285400 -0.771729
vn -0.181641 0.434570 -0.881836
vn -0.122559 -0.308838 -0.942871
vn -0.122559 -0.308838 -0.942871
vn -0.181641 0.434570 -0.881836
vn 0.195801 -0.400879 -0.894775
vn -0.181641 0.434570 -0.881836
vn 0.439453 0.696045 -0.567383
vn 0.195801 -0.400879 -0.894775
vn 0.195801 -0.400879 -0.894775
vn 0.439453 0.696045 -0.567383
vn 0.412354 -0.738770 -0.532471
vn -0.519287 -0.285400 0.805176
vn -0.332275 -0.423340 0.842529
vn 0.629883 0.249756 0.735107
vn -0.332275 -0.423340 0.842529
vn 0.277344 -0.755371 0.593506
vn 0.629883 0.249756 0.735107
vn 0.629883 0.249756 0.735107
vn 0.277344 -0.755371 0.593506
vn 0.229736 0.478271 0.847412
vn 0.277344 -0.755371 0.593506
vn 0.523926 -0.467529 0.711670
vn 0.229736 0.478271 0.847412
vn 0.229736 0.478271 0.847412
vn 0.523926 -0.467529 0.711670
vn 0.813232 0.434570 0.386230
vn 0.265381 0.779053 -0.567871
vn 0.812988 0.201660 -0.545898
vn -0.176514 0.104492 -0.978516
vn 0.812988 0.201660 -0.545898
vn 0.610840 0.343750 -0.712891
vn -0.176514 0.104492 -0.978516
vn -0.176514 0.104492 -0.978516
vn 0.610840 0.343750 -0.712891
vn 0.282471 -0.141113 -0.948730
vn 0.610840 0.343750 -0.712891
vn -0.270264 0.153320 -0.950439
vn 0.282471 -0.141113 -0.948730
vn 0.282471 -0.141113 -0.948730
vn -0.270264 0.153320 -0.950439
vn -0.455078 -0.308838 -0.834961
vn 0.567871 -0.285400 -0.771729
vn 0.241211 -0.687012 -0.685059
vn -0.602295 0.249756 -0.758057
vn 0.241211 -0.687012 -0.685059
vn -0.150391 -0.531494 -0.833252
vn -0.602295 0.249756 -0.758057
vn -0.602295 0.249756 -0.758057
vn -0.150391 -0.531494 -0.833252
vn -0.198242 0.478271 -0.855225
vn -0.150391 -0.531494 -0.833252
vn -0.511475 -0.631592 -0.582275
vn -0.198242 0.478271 -0.855225
vn -0.198242 0.478271 -0.855225
vn -0.511475 -0.631592 -0.582275
vn -0.788086 0.434570 -0.435791
vn 0.265381 0.779053 -0.567871
vn 0.696533 0.153320 -0.700684
vn -0.270264 0.153320 -0.950439
vn -0.270264 0.153320 -0.950439
vn 0.696533 0.153320 -0.700684
vn -0.455078 -0.308838 -0.834961
vn 0.696533 0.153320 -0.700684
vn 0.303223 0.520996 -0.797607
vn -0.455078 -0.308838 -0.834961
vn -0.455078 -0.308838 -0.834961
vn 0.303223 0.520996 -0.797607
vn -0.499268 -0.285400 -0.817871
vn 0.303223 0.520996 -0.797607
vn 0.439453 0.696045 -0.567383
vn -0.499268 -0.285400 -0.817871
vn -0.499268 -0.285400 -0.817871
vn 0.439453 0.696045 -0.567383
vn 0.412354 -0.738770 -0.532471
usemtl Texture
f 1/1/1 2/2/2 3/3/3
f 4/4/4 5/5/5 6/6/6
f 7/7/7 8/8/8 9/9/9
f 10/10/10 11/11/11 12/12/12
f 13/13/13 14/14/14 15/15/15
f 16/16/16 17/17/17 18/18/18
f 19/19/19 20/20/20 21/21/21
f 22/22/22 23/23/23 24/24/24
f 25/25/25 26/26/26 27/27/27
f 28/28/28 29/29/29 30/30/30
f 31/31/31 32/32/32 33/33/33
f 34/34/34 35/35/35 36/36/36
f 37/37/37 38/38/38 39/39/39
f 40/40/40 41/41/41 42/42/42
f 43/43/43 44/44/44 45/45/45
f 46/46/46 47/47/47 48/48/48
f 49/49/49 50/50/50 51/51/51
f 52/52/52 53/53/53 54/54/54
f 55/55/55 56/56/56 57/57/57
f 58/58/58 59/59/59 60/60/60
f 61/61/61 62/62/62 63/63/63
f 64/64/64 65/65/65 66/66/66
f 67/67/67 68/68/68 69/69/69
f 70/70/70 71/71/71 72/72/72
f 73/73/73 74/74/74 75/75/75
f 76/76/76 77/77/77 78/78/78
f 79/79/79 80/80/80 81/81/81
f 82/82/82 83/83/83 84/84/84
f 85/85/85 86/86/86 87/87/87
f 88/88/88 89/89/89 90/90/90
f 91/91/91 92/92/92 93/93/93
f 94/94/94 95/95/95 96/96/96
f 97/97/97 98/98/98 99/99/99
f 100/100/100 101/101/101 102/102/102
f 103/103/103 104/104/104 105/105/105
f 106/106/106 107/107/107 108/108/108
f 109/109/109 110/110/110 111/111/111
f 112/112/112 113/113/113 114/114/114
f 115/115/115 116/116/116 117/117/117
f 118/118/118 119/119/119 120/120/120
f 121/121/121 122/122/122 123/123/123
f 124/124/124 125/125/125 126/126/126
f 127/127/127 128/128/128 129/129/129
f 130/130/130 131/131/131 132/132/132
f 133/133/133 134/134/134 135/135/135
f 136/136/136 137/137/137 138/138/138
f 139/139/139 140/140/140 141/141/141
f 142/142/142 143/143/143 144/144/144
f 145/145/145 146/146/146 147/147/147
f 148/148/148 149/149/149 150/150/150
f 151/151/151 152/152/152 153/153/153
f 154/154/154 155/155/155 156/156/156
f 157/157/157 158/158/158 159/159/159
f 160/160/160 161/161/161 162/162/162
f 163/163/163 164/164/164 165/165/165
f 166/166/166 167/167/167 168/168/168
f 169/169/169 170/170/170 171/171/171
f 172/172/172 173/173/173 174/174/174
f 175/175/175 176/176/176 177/177/177
f 178/178/178 179/179/179 180/180/180
f 181/181/181 182/182/182 183/183/183
f 184/184/184 185/185/185 186/186/186
f 187/187/187 188/188/188 189/189/189
f 190/190/190 191/191/191 192/192/192
f 193/193/193 194/194/194 195/195/195
f 196/196/196 197/197/197 198/198/198
f 199/199/199 200/200/200 201/201/201
f 202/202/202 203/203/203 204/204/204
f 205/205/205 206/206/206 207/207/207
f 208/208/208 209/209/209 210/210/210
f 211/211/211 212/212/212 213/213/213
f 214/214/214 215/215/215 216/216/216
f 217/217/217 218/218/218 219/219/219
f 220/220/220 221/221/221 222/222/222
f 223/223/223 224/224/224 225/225/225
f 226/226/226 227/227/227 228/228/228
f 229/229/229 230/230/230 231/231/231
f 232/232/232 233/233/233 234/234/234
f 235/235/235 236/236/236 237/237/237
f 238/238/238 239/239/239 240/240/240
f 241/241/241 242/242/242 243/243/243
f 244/244/244 245/245/245 246/246/246
f 247/247/247 248/248/248 249/249/249
f 250/250/250 251/251/251 252/252/252
f 253/253/253 254/254/254 255/255/255
f 256/256/256 257/257/257 258/258/258
f 259/259/259 260/260/260 261/261/261
f 262/262/262 263/263/263 264/264/264
f 265/265/265 266/266/266 267/267/267
f 268/268/268 269/269/269 270/270/270
f 271/271/271 272/272/272 273/273/273
f 274/274/274 275/275/275 276/276/276
f 277/277/277 278/278/278 279/279/279
f 280/280/280 281/281/281 282/282/282
f 283/283/283 284/284/284 285/285/285
f 286/286/286 287/287/287 288/288/288
f 289/289/289 290/290/290 291/291/291
f 292/292/292 293/293/293 294/294/294
f 295/295/295 296/296/296 297/297/297
f 298/298/298 299/299/299 300/300/300
f 301/301/301 302/302/302 303/303/303
f 304/304/304 305/305/305 306/306/306
f 307/307/307 308/308/308 309/309/309
f 310/310/310 311/311/311 312/312/312
f 313/313/313 314/314/314 315/315/315
f 316/316/316 317/317/317 318/318/318
f 319/319/319 320/320/320 321/321/321
f 322/322/322 323/323/323 324/324/324
f 325/325/325 326/326/326 327/327/327
f 328/328/328 329/329/329 330/330/330
f 331/331/331 332/332/332 333/333/333
f 334/334/334 335/335/335 336/336/336
f 337/337/337 338/338/338 339/339/339
f 340/340/340 341/341/341 342/342/342
f 343/343/343 344/344/344 345/345/345
f 346/346/346 347/347/347 348/348/348
f 349/349/349 350/350/350 351/351/351
f 352/352/352 353/353/353 354/354/354
f 355/355/355 356/356/356 357/357/357
f 358/358/358 359/359/359 360/360/360
f 361/361/361 362/362/362 363/363/363
f 364/364/364 365/365/365 366/366/366
f 367/367/367 368/368/368 369/369/369
f 370/370/370 371/371/371 372/372/372
f 373/373/373 374/374/374 375/375/375
f 376/376/376 377/377/377 378/378/378
f 379/379/379 380/380/380 381/381/381
f 382/382/382 383/383/383 384/384/384
f 385/385/385 386/386/386 387/387/387
f 388/388/388 389/389/389 390/390/390
f 391/391/391 392/392/392 393/393/393
f 394/394/394 395/395/395 396/396/396
f 397/397/397 398/398/398 399/399/399
f 400/400/400 401/401/401 402/402/402
f 403/403/403 404/404/404 405/405/405
f 406/406/406 407/407/407 408/408/408
f 409/409/409 410/410/410 411/411/411
f 412/412/412 413/413/413 414/414/414
f 415/415/415 416/416/416 417/417/417
f 418/418/418 419/419/419 420/420/420
f 421/421/421 422/422/422 423/423/423
f 424/424/424 425/425/425 426/426/426
f 427/427/427 428/428/428 429/429/429
f 430/430/430 431/431/431 432/432/432
f 433/433/433 434/434/434 435/435/435
f 436/436/436 437/437/437 438/438/438
f 439/439/439 440/440/440 441/441/441
f 442/442/442 443/443/443 444/444/444
f 445/445/445 446/446/446 447/447/447
f 448/448/448 449/449/449 450/450/450
f 451/451/451 452/452/452 453/453/453
f 454/454/454 455/455/455 456/456/456
f 457/457/457 458/458/458 459/459/459
f 460/460/460 461/461/461 462/462/462
f 463/463/463 464/464/464 465/465/465
f 466/466/466 467/467/467 468/468/468
f 469/469/469 470/470/470 471/471/471
f 472/472/472 473/473/473 474/474/474
f 475/475/475 476/476/476 477/477/477
f 478/478/478 479/479/479 480/480/480
f 481/481/481 482/482/482 483/483/483
f 484/484/484 485/485/485 486/486/486
f 487/487/487 488/488/488 489/489/489
f 490/490/490 491/491/491 492/492/492
f 493/493/493 494/494/494 495/495/495
f 496/496/496 497/497/497 498/498/498
f 499/499/499 500/500/500 501/501/501
f 502/502/502 503/503/503 504/504/504
f 505/505/505 506/506/506 507/507/507
f 508/508/508 509/509/509 510/510/510
f 511/511/511 512/512/512 513/513/513
f 514/514/514 515/515/515 516/516/516
f 517/517/517 518/518/518 519/519/519
f 520/520/520 521/521/521 522/522/522
f 523/523/523 524/524/524 525/525/525
f 526/526/526 527/527/527 528/528/528
f 529/529/529 530/530/530 531/531/531
f 532/532/532 533/533/533 534/534/534
f 535/535/535 536/536/536 537/537/537
f 538/538/538 539/539/539 540/540/540
f 541/541/541 542/542/542 543/543/543
f 544/544/544 545/545/545 546/546/546
f 547/547/547 548/548/548 549/549/549
f 550/550/550 551/551/551 552/552/552
f 553/553/553 554/554/554 555/555/555
f 556/556/556 557/557/557 558/558/558
f 559/559/559 560/560/560 561/561/561
f 562/562/562 563/563/563 564/564/564
f 565/565/565 566/566/566 567/567/567
f 568/568/568 569/569/569 570/570/570
f 571/571/571 572/572/572 573/573/573
f 574/574/574 575/575/575 576/576/576
f 577/577/577 578/578/578 579/579/579
f 580/580/580 581/581/581 582/582/582
f 583/583/583 584/584/584 585/585/585
f 586/586/586 587/587/587 588/588/588
f 589/589/589 590/590/590 591/591/591
f 592/592/592 593/593/593 594/594/594
f 595/595/595 596/596/596 597/597/597
f 598/598/598 599/599/599 600/600/600
f 601/601/601 602/602/602 603/603/603
f 604/604/604 605/605/605 606/606/606
f 607/607/607 608/608/608 609/609/609
f 610/610/610 611/611/611 612/612/612