# OBJ file
mtllib hidden.ico.mtl
v -1.322021 1.905518 0.191162 0.501961 0.501961 0.501961 #0.501961
v -1.076172 1.902588 0.202637 0.501961 0.501961 0.501961 #0.501961
v -1.143555 1.632568 0.131836 0.501961 0.501961 0.501961 #0.501961
v -1.283936 1.582031 0.112305 0.501961 0.501961 0.501961 #0.501961
v -1.143555 1.632568 0.131836 0.501961 0.501961 0.501961 #0.501961
v -1.084473 1.569092 0.118896 0.501961 0.501961 0.501961 #0.501961
v 2.629639 2.390381 0.520264 0.501961 0.501961 0.501961 #0.501961
v 2.634521 2.362061 0.406250 0.501961 0.501961 0.501961 #0.501961
v 2.175781 2.432373 0.348633 0.501961 0.501961 0.501961 #0.501961
v 2.637207 2.271729 0.327148 0.501961 0.501961 0.501961 #0.501961
v 2.179688 2.294678 0.228027 0.501961 0.501961 0.501961 #0.501961
v 2.175781 2.432373 0.348633 0.501961 0.501961 0.501961 #0.501961
v 2.623291 2.200684 0.611572 0.501961 0.501961 0.501961 #0.501961
v 2.625244 2.314941 0.595947 0.501961 0.501961 0.501961 #0.501961
v 2.161377 2.360352 0.636719 0.501961 0.501961 0.501961 #0.501961
v 2.629639 2.390381 0.520264 0.501961 0.501961 0.501961 #0.501961
v 2.168213 2.475342 0.521973 0.501961 0.501961 0.501961 #0.501961
v 2.161377 2.360352 0.636719 0.501961 0.501961 0.501961 #0.501961
v 2.629639 2.087891 0.444824 0.501961 0.501961 0.501961 #0.501961
v 2.625244 2.113281 0.545654 0.501961 0.501961 0.501961 #0.501961
v 2.161377 2.053711 0.560303 0.501961 0.501961 0.501961 #0.501961
v 2.623291 2.200684 0.611572 0.501961 0.501961 0.501961 #0.501961
v 2.158203 2.186768 0.660400 0.501961 0.501961 0.501961 #0.501961
v 2.161377 2.053711 0.560303 0.501961 0.501961 0.501961 #0.501961
v 2.637207 2.271729 0.327148 0.501961 0.501961 0.501961 #0.501961
v 2.634521 2.160400 0.355957 0.501961 0.501961 0.501961 #0.501961
v 2.175781 2.125732 0.271973 0.501961 0.501961 0.501961 #0.501961
v 2.629639 2.087891 0.444824 0.501961 0.501961 0.501961 #0.501961
v 2.168213 2.015381 0.407227 0.501961 0.501961 0.501961 #0.501961
v 2.175781 2.125732 0.271973 0.501961 0.501961 0.501961 #0.501961
v 2.629639 2.340088 0.505615 0.501961 0.501961 0.501961 #0.501961
v 2.633057 2.321289 0.429199 0.501961 0.501961 0.501961 #0.501961
v 2.634521 2.362061 0.406250 0.501961 0.501961 0.501961 #0.501961
v 2.633057 2.321289 0.429199 0.501961 0.501961 0.501961 #0.501961
v 2.634766 2.260498 0.375977 0.501961 0.501961 0.501961 #0.501961
v 2.637207 2.271729 0.327148 0.501961 0.501961 0.501961 #0.501961
v 2.625488 2.212891 0.566895 0.501961 0.501961 0.501961 #0.501961
v 2.626709 2.289551 0.556396 0.501961 0.501961 0.501961 #0.501961
v 2.625244 2.314941 0.595947 0.501961 0.501961 0.501961 #0.501961
v 2.626709 2.289551 0.556396 0.501961 0.501961 0.501961 #0.501961
v 2.629639 2.340088 0.505615 0.501961 0.501961 0.501961 #0.501961
v 2.629639 2.390381 0.520264 0.501961 0.501961 0.501961 #0.501961
v 2.629639 2.137207 0.455078 0.501961 0.501961 0.501961 #0.501961
v 2.626709 2.154053 0.522705 0.501961 0.501961 0.501961 #0.501961
v 2.625244 2.113281 0.545654 0.501961 0.501961 0.501961 #0.501961
v 2.626709 2.154053 0.522705 0.501961 0.501961 0.501961 #0.501961
v 2.625488 2.212891 0.566895 0.501961 0.501961 0.501961 #0.501961
v 2.623291 2.200684 0.611572 0.501961 0.501961 0.501961 #0.501961
v 2.634766 2.260498 0.375977 0.501961 0.501961 0.501961 #0.501961
v 2.633057 2.185791 0.395508 0.501961 0.501961 0.501961 #0.501961
v 2.634521 2.160400 0.355957 0.501961 0.501961 0.501961 #0.501961
v 2.633057 2.185791 0.395508 0.501961 0.501961 0.501961 #0.501961
v 2.629639 2.137207 0.455078 0.501961 0.501961 0.501961 #0.501961
v 2.629639 2.087891 0.444824 0.501961 0.501961 0.501961 #0.501961
v 2.633057 2.321289 0.429199 0.501961 0.501961 0.501961 #0.501961
v 2.629639 2.340088 0.505615 0.501961 0.501961 0.501961 #0.501961
v 1.729736 2.248047 0.433838 0.501961 0.501961 0.501961 #0.501961
v 2.634766 2.260498 0.375977 0.501961 0.501961 0.501961 #0.501961
v 2.633057 2.321289 0.429199 0.501961 0.501961 0.501961 #0.501961
v 1.729736 2.248047 0.433838 0.501961 0.501961 0.501961 #0.501961
v 2.626709 2.289551 0.556396 0.501961 0.501961 0.501961 #0.501961
v 2.625488 2.212891 0.566895 0.501961 0.501961 0.501961 #0.501961
v 1.729736 2.248047 0.433838 0.501961 0.501961 0.501961 #0.501961
v 2.629639 2.340088 0.505615 0.501961 0.501961 0.501961 #0.501961
v 2.626709 2.289551 0.556396 0.501961 0.501961 0.501961 #0.501961
v 1.729736 2.248047 0.433838 0.501961 0.501961 0.501961 #0.501961
v 2.626709 2.154053 0.522705 0.501961 0.501961 0.501961 #0.501961
v 2.629639 2.137207 0.455078 0.501961 0.501961 0.501961 #0.501961
v 1.729736 2.248047 0.433838 0.501961 0.501961 0.501961 #0.501961
v 2.625488 2.212891 0.566895 0.501961 0.501961 0.501961 #0.501961
v 2.626709 2.154053 0.522705 0.501961 0.501961 0.501961 #0.501961
v 1.729736 2.248047 0.433838 0.501961 0.501961 0.501961 #0.501961
v 2.633057 2.185791 0.395508 0.501961 0.501961 0.501961 #0.501961
v 2.634766 2.260498 0.375977 0.501961 0.501961 0.501961 #0.501961
v 1.729736 2.248047 0.433838 0.501961 0.501961 0.501961 #0.501961
v 2.629639 2.137207 0.455078 0.501961 0.501961 0.501961 #0.501961
v 2.633057 2.185791 0.395508 0.501961 0.501961 0.501961 #0.501961
v 1.729736 2.248047 0.433838 0.501961 0.501961 0.501961 #0.501961
v 1.283203 2.660645 0.448730 0.501961 0.501961 0.501961 #0.501961
v 1.567139 2.746826 0.500732 0.501961 0.501961 0.501961 #0.501961
v 2.565674 2.470703 0.524414 0.501961 0.501961 0.501961 #0.501961
v 2.397461 2.939697 0.633057 0.501961 0.501961 0.501961 #0.501961
v 2.543945 2.895996 0.629395 0.501961 0.501961 0.501961 #0.501961
v 2.565674 2.470703 0.524414 0.501961 0.501961 0.501961 #0.501961
v 1.277832 2.632813 0.560791 0.501961 0.501961 0.501961 #0.501961
v 1.563232 2.726563 0.581787 0.501961 0.501961 0.501961 #0.501961
v 1.567139 2.746826 0.500732 0.501961 0.501961 0.501961 #0.501961
v 2.565674 2.470703 0.524414 0.501961 0.501961 0.501961 #0.501961
v 1.563232 2.726563 0.581787 0.501961 0.501961 0.501961 #0.501961
v 1.277832 2.632813 0.560791 0.501961 0.501961 0.501961 #0.501961
v 2.565674 2.470703 0.524414 0.501961 0.501961 0.501961 #0.501961
v 1.567139 2.746826 0.500732 0.501961 0.501961 0.501961 #0.501961
v 2.247803 2.814697 0.557617 0.501961 0.501961 0.501961 #0.501961
v 2.247803 2.814697 0.557617 0.501961 0.501961 0.501961 #0.501961
v 1.567139 2.746826 0.500732 0.501961 0.501961 0.501961 #0.501961
v 1.563232 2.726563 0.581787 0.501961 0.501961 0.501961 #0.501961
v 2.565674 2.470703 0.524414 0.501961 0.501961 0.501961 #0.501961
v 2.244385 2.797363 0.627197 0.501961 0.501961 0.501961 #0.501961
v 1.563232 2.726563 0.581787 0.501961 0.501961 0.501961 #0.501961
v 2.565674 2.470703 0.524414 0.501961 0.501961 0.501961 #0.501961
v 2.247803 2.814697 0.557617 0.501961 0.501961 0.501961 #0.501961
v 2.397461 2.939697 0.633057 0.501961 0.501961 0.501961 #0.501961
v 2.244385 2.797363 0.627197 0.501961 0.501961 0.501961 #0.501961
v 2.397461 2.939697 0.633057 0.501961 0.501961 0.501961 #0.501961
v 2.247803 2.814697 0.557617 0.501961 0.501961 0.501961 #0.501961
v 2.565674 2.470703 0.524414 0.501961 0.501961 0.501961 #0.501961
v 2.397461 2.939697 0.633057 0.501961 0.501961 0.501961 #0.501961
v 2.244385 2.797363 0.627197 0.501961 0.501961 0.501961 #0.501961
v 2.565674 2.470703 0.524414 0.501961 0.501961 0.501961 #0.501961
v 1.277832 2.632813 0.560791 0.501961 0.501961 0.501961 #0.501961
v 1.283203 2.660645 0.448730 0.501961 0.501961 0.501961 #0.501961
v 2.410156 1.204590 0.201172 0.501961 0.501961 0.501961 #0.501961
v 2.342773 1.292236 0.007324 0.501961 0.501961 0.501961 #0.501961
v 2.558594 1.785156 0.353271 0.501961 0.501961 0.501961 #0.501961
v 2.558594 1.785156 0.353271 0.501961 0.501961 0.501961 #0.501961
v 2.342773 1.292236 0.007324 0.501961 0.501961 0.501961 #0.501961
v 2.446777 1.835693 0.047363 0.501961 0.501961 0.501961 #0.501961
v -0.425049 1.902100 0.234619 0.501961 0.501961 0.501961 #0.501961
v 2.476318 1.880371 0.372803 0.501961 0.501961 0.501961 #0.501961
v 2.323730 1.943604 -0.026855 0.501961 0.501961 0.501961 #0.501961
v 2.166260 1.222412 -0.084229 0.501961 0.501961 0.501961 #0.501961
v 2.323730 1.943604 -0.026855 0.501961 0.501961 0.501961 #0.501961
v 2.342773 1.292236 0.007324 0.501961 0.501961 0.501961 #0.501961
v 0.106201 1.357910 -0.152344 0.501961 0.501961 0.501961 #0.501961
v 2.166260 1.222412 -0.084229 0.501961 0.501961 0.501961 #0.501961
v 2.244873 1.108643 0.168945 0.501961 0.501961 0.501961 #0.501961
v -0.313477 1.854004 -0.115479 0.501961 0.501961 0.501961 #0.501961
v -0.079590 1.641602 -0.096436 0.501961 0.501961 0.501961 #0.501961
v -0.206299 1.576172 0.164307 0.501961 0.501961 0.501961 #0.501961
v 2.342773 1.292236 0.007324 0.501961 0.501961 0.501961 #0.501961
v 2.323730 1.943604 -0.026855 0.501961 0.501961 0.501961 #0.501961
v 2.446777 1.835693 0.047363 0.501961 0.501961 0.501961 #0.501961
v 2.558594 1.785156 0.353271 0.501961 0.501961 0.501961 #0.501961
v 2.446777 1.835693 0.047363 0.501961 0.501961 0.501961 #0.501961
v 2.476318 1.880371 0.372803 0.501961 0.501961 0.501961 #0.501961
v 2.323730 1.943604 -0.026855 0.501961 0.501961 0.501961 #0.501961
v 2.476318 1.880371 0.372803 0.501961 0.501961 0.501961 #0.501961
v 2.446777 1.835693 0.047363 0.501961 0.501961 0.501961 #0.501961
v -0.425049 1.902100 0.234619 0.501961 0.501961 0.501961 #0.501961
v -0.275146 1.949463 -0.100586 0.501961 0.501961 0.501961 #0.501961
v -0.466797 1.801025 0.207520 0.501961 0.501961 0.501961 #0.501961
v -0.313477 1.854004 -0.115479 0.501961 0.501961 0.501961 #0.501961
v -0.466797 1.801025 0.207520 0.501961 0.501961 0.501961 #0.501961
v -0.275146 1.949463 -0.100586 0.501961 0.501961 0.501961 #0.501961
v 2.244873 1.108643 0.168945 0.501961 0.501961 0.501961 #0.501961
v 2.166260 1.222412 -0.084229 0.501961 0.501961 0.501961 #0.501961
v 2.410156 1.204590 0.201172 0.501961 0.501961 0.501961 #0.501961
v 2.342773 1.292236 0.007324 0.501961 0.501961 0.501961 #0.501961
v 2.410156 1.204590 0.201172 0.501961 0.501961 0.501961 #0.501961
v 2.166260 1.222412 -0.084229 0.501961 0.501961 0.501961 #0.501961
v 2.323730 1.943604 -0.026855 0.501961 0.501961 0.501961 #0.501961
v -0.313477 1.854004 -0.115479 0.501961 0.501961 0.501961 #0.501961
v -0.275146 1.949463 -0.100586 0.501961 0.501961 0.501961 #0.501961
v -0.206299 1.576172 0.164307 0.501961 0.501961 0.501961 #0.501961
v -0.079590 1.641602 -0.096436 0.501961 0.501961 0.501961 #0.501961
v 0.106201 1.357910 -0.152344 0.501961 0.501961 0.501961 #0.501961
v -0.079590 1.641602 -0.096436 0.501961 0.501961 0.501961 #0.501961
v -0.313477 1.854004 -0.115479 0.501961 0.501961 0.501961 #0.501961
v 2.323730 1.943604 -0.026855 0.501961 0.501961 0.501961 #0.501961
v 2.166260 1.222412 -0.084229 0.501961 0.501961 0.501961 #0.501961
v -0.079590 1.641602 -0.096436 0.501961 0.501961 0.501961 #0.501961
v 2.323730 1.943604 -0.026855 0.501961 0.501961 0.501961 #0.501961
v 2.166260 1.222412 -0.084229 0.501961 0.501961 0.501961 #0.501961
v 0.106201 1.357910 -0.152344 0.501961 0.501961 0.501961 #0.501961
v -0.079590 1.641602 -0.096436 0.501961 0.501961 0.501961 #0.501961
v 2.410156 1.204590 0.201172 0.501961 0.501961 0.501961 #0.501961
v 2.558594 1.785156 0.353271 0.501961 0.501961 0.501961 #0.501961
v 2.322998 1.192627 0.406250 0.501961 0.501961 0.501961 #0.501961
v 2.558594 1.785156 0.353271 0.501961 0.501961 0.501961 #0.501961
v 2.417725 1.689209 0.635254 0.501961 0.501961 0.501961 #0.501961
v 2.322998 1.192627 0.406250 0.501961 0.501961 0.501961 #0.501961
v -0.425049 1.902100 0.234619 0.501961 0.501961 0.501961 #0.501961
v -0.308350 1.783203 0.565674 0.501961 0.501961 0.501961 #0.501961
v 2.285645 1.752441 0.739746 0.501961 0.501961 0.501961 #0.501961
v 2.140381 1.092041 0.437744 0.501961 0.501961 0.501961 #0.501961
v 2.322998 1.192627 0.406250 0.501961 0.501961 0.501961 #0.501961
v 2.285645 1.752441 0.739746 0.501961 0.501961 0.501961 #0.501961
v 0.080566 1.227783 0.369629 0.501961 0.501961 0.501961 #0.501961
v -0.001221 1.260010 0.095703 0.501961 0.501961 0.501961 #0.501961
v 2.244873 1.108643 0.168945 0.501961 0.501961 0.501961 #0.501961
v -0.345459 1.692871 0.530518 0.501961 0.501961 0.501961 #0.501961
v -0.466797 1.801025 0.207520 0.501961 0.501961 0.501961 #0.501961
v -0.206299 1.576172 0.164307 0.501961 0.501961 0.501961 #0.501961
v 2.322998 1.192627 0.406250 0.501961 0.501961 0.501961 #0.501961
v 2.417725 1.689209 0.635254 0.501961 0.501961 0.501961 #0.501961
v 2.285645 1.752441 0.739746 0.501961 0.501961 0.501961 #0.501961
v 2.558594 1.785156 0.353271 0.501961 0.501961 0.501961 #0.501961
v 2.476318 1.880371 0.372803 0.501961 0.501961 0.501961 #0.501961
v 2.417725 1.689209 0.635254 0.501961 0.501961 0.501961 #0.501961
v 2.285645 1.752441 0.739746 0.501961 0.501961 0.501961 #0.501961
v 2.417725 1.689209 0.635254 0.501961 0.501961 0.501961 #0.501961
v 2.476318 1.880371 0.372803 0.501961 0.501961 0.501961 #0.501961
v -0.425049 1.902100 0.234619 0.501961 0.501961 0.501961 #0.501961
v -0.466797 1.801025 0.207520 0.501961 0.501961 0.501961 #0.501961
v -0.308350 1.783203 0.565674 0.501961 0.501961 0.501961 #0.501961
v -0.345459 1.692871 0.530518 0.501961 0.501961 0.501961 #0.501961
v -0.308350 1.783203 0.565674 0.501961 0.501961 0.501961 #0.501961
v -0.466797 1.801025 0.207520 0.501961 0.501961 0.501961 #0.501961
v 2.244873 1.108643 0.168945 0.501961 0.501961 0.501961 #0.501961
v 2.410156 1.204590 0.201172 0.501961 0.501961 0.501961 #0.501961
v 2.140381 1.092041 0.437744 0.501961 0.501961 0.501961 #0.501961
v 2.322998 1.192627 0.406250 0.501961 0.501961 0.501961 #0.501961
v 2.140381 1.092041 0.437744 0.501961 0.501961 0.501961 #0.501961
v 2.410156 1.204590 0.201172 0.501961 0.501961 0.501961 #0.501961
v 2.285645 1.752441 0.739746 0.501961 0.501961 0.501961 #0.501961
v -0.308350 1.783203 0.565674 0.501961 0.501961 0.501961 #0.501961
v -0.345459 1.692871 0.530518 0.501961 0.501961 0.501961 #0.501961
v -0.206299 1.576172 0.164307 0.501961 0.501961 0.501961 #0.501961
v -0.001221 1.260010 0.095703 0.501961 0.501961 0.501961 #0.501961
v 0.080566 1.227783 0.369629 0.501961 0.501961 0.501961 #0.501961
v -0.105957 1.508789 0.435791 0.501961 0.501961 0.501961 #0.501961
v 2.285645 1.752441 0.739746 0.501961 0.501961 0.501961 #0.501961
v -0.345459 1.692871 0.530518 0.501961 0.501961 0.501961 #0.501961
v 2.140381 1.092041 0.437744 0.501961 0.501961 0.501961 #0.501961
v 2.285645 1.752441 0.739746 0.501961 0.501961 0.501961 #0.501961
v -0.105957 1.508789 0.435791 0.501961 0.501961 0.501961 #0.501961
v 2.140381 1.092041 0.437744 0.501961 0.501961 0.501961 #0.501961
v -0.105957 1.508789 0.435791 0.501961 0.501961 0.501961 #0.501961
v 0.080566 1.227783 0.369629 0.501961 0.501961 0.501961 #0.501961
v -1.491943 2.345947 -0.079102 0.501961 0.501961 0.501961 #0.501961
v 2.156250 2.618164 0.140381 0.501961 0.501961 0.501961 #0.501961
v 2.151855 1.948730 0.059326 0.501961 0.501961 0.501961 #0.501961
v -1.491943 2.345947 -0.079102 0.501961 0.501961 0.501961 #0.501961
v -1.423340 2.742676 0.133789 0.501961 0.501961 0.501961 #0.501961
v 2.156250 2.618164 0.140381 0.501961 0.501961 0.501961 #0.501961
v 2.122803 1.801514 0.650146 0.501961 0.501961 0.501961 #0.501961
v 2.151855 1.948730 0.059326 0.501961 0.501961 0.501961 #0.501961
v 2.283203 2.650879 0.555420 0.501961 0.501961 0.501961 #0.501961
v 2.283203 2.650879 0.555420 0.501961 0.501961 0.501961 #0.501961
v 2.151855 1.948730 0.059326 0.501961 0.501961 0.501961 #0.501961
v 2.156250 2.618164 0.140381 0.501961 0.501961 0.501961 #0.501961
v 2.283203 2.650879 0.555420 0.501961 0.501961 0.501961 #0.501961
v 2.176514 2.676758 0.212402 0.501961 0.501961 0.501961 #0.501961
v -1.423340 2.742676 0.133789 0.501961 0.501961 0.501961 #0.501961
v 2.122803 1.801514 0.650146 0.501961 0.501961 0.501961 #0.501961
v -1.604248 1.920654 0.420166 0.501961 0.501961 0.501961 #0.501961
v -1.582031 2.032715 -0.028809 0.501961 0.501961 0.501961 #0.501961
v 2.156250 2.618164 0.140381 0.501961 0.501961 0.501961 #0.501961
v 2.379883 2.490967 0.208252 0.501961 0.501961 0.501961 #0.501961
v 2.151855 1.948730 0.059326 0.501961 0.501961 0.501961 #0.501961
v -1.582031 2.032715 -0.028809 0.501961 0.501961 0.501961 #0.501961
v -1.604248 1.920654 0.420166 0.501961 0.501961 0.501961 #0.501961
v -1.733887 1.323242 0.210449 0.501961 0.501961 0.501961 #0.501961
v 2.283203 2.650879 0.555420 0.501961 0.501961 0.501961 #0.501961
v 2.581299 2.470459 0.525146 0.501961 0.501961 0.501961 #0.501961
v 2.176514 2.676758 0.212402 0.501961 0.501961 0.501961 #0.501961
v -1.582031 2.032715 -0.028809 0.501961 0.501961 0.501961 #0.501961
v -1.733887 1.323242 0.210449 0.501961 0.501961 0.501961 #0.501961
v -1.716553 1.409912 -0.136719 0.501961 0.501961 0.501961 #0.501961
v -2.602051 1.895996 0.125488 0.501961 0.501961 0.501961 #0.501961
v -2.637695 2.352295 0.092041 0.501961 0.501961 0.501961 #0.501961
v -2.527832 1.947998 -0.085693 0.501961 0.501961 0.501961 #0.501961
v -2.527832 1.947998 -0.085693 0.501961 0.501961 0.501961 #0.501961
v -1.423340 2.742676 0.133789 0.501961 0.501961 0.501961 #0.501961
v -1.491943 2.345947 -0.079102 0.501961 0.501961 0.501961 #0.501961
v -2.527832 1.947998 -0.085693 0.501961 0.501961 0.501961 #0.501961
v -2.637695 2.352295 0.092041 0.501961 0.501961 0.501961 #0.501961
v -1.423340 2.742676 0.133789 0.501961 0.501961 0.501961 #0.501961
v -1.801758 0.126221 -0.501709 0.501961 0.501961 0.501961 #0.501961
v -1.716553 1.409912 -0.136719 0.501961 0.501961 0.501961 #0.501961
v -1.766357 0.061035 -0.290527 0.501961 0.501961 0.501961 #0.501961
v -1.716553 1.409912 -0.136719 0.501961 0.501961 0.501961 #0.501961
v -1.733887 1.323242 0.210449 0.501961 0.501961 0.501961 #0.501961
v -1.766357 0.061035 -0.290527 0.501961 0.501961 0.501961 #0.501961
v -2.438965 -0.028809 -0.623291 0.501961 0.501961 0.501961 #0.501961
v -1.884766 -0.035156 -0.597168 0.501961 0.501961 0.501961 #0.501961
v -1.843018 -0.233154 -0.367676 0.501961 0.501961 0.501961 #0.501961
v -2.561279 0.227783 -0.554688 0.501961 0.501961 0.501961 #0.501961
v -2.438965 -0.028809 -0.623291 0.501961 0.501961 0.501961 #0.501961
v -2.534180 -0.225342 -0.399902 0.501961 0.501961 0.501961 #0.501961
v -2.438965 -0.028809 -0.623291 0.501961 0.501961 0.501961 #0.501961
v -2.561279 0.227783 -0.554688 0.501961 0.501961 0.501961 #0.501961
v -1.801758 0.126221 -0.501709 0.501961 0.501961 0.501961 #0.501961
v -1.884766 -0.035156 -0.597168 0.501961 0.501961 0.501961 #0.501961
v -1.801758 0.126221 -0.501709 0.501961 0.501961 0.501961 #0.501961
v -1.712891 0.010986 -0.574219 0.501961 0.501961 0.501961 #0.501961
v -0.576416 1.992920 0.129395 0.501961 0.501961 0.501961 #0.501961
v -0.699219 1.633789 0.154297 0.501961 0.501961 0.501961 #0.501961
v -0.732422 1.660400 0.048340 0.501961 0.501961 0.501961 #0.501961
v -1.843018 -0.233154 -0.367676 0.501961 0.501961 0.501961 #0.501961
v -1.884766 -0.035156 -0.597168 0.501961 0.501961 0.501961 #0.501961
v -1.671143 -0.184570 -0.347168 0.501961 0.501961 0.501961 #0.501961
v -1.712891 0.010986 -0.574219 0.501961 0.501961 0.501961 #0.501961
v -1.671143 -0.184570 -0.347168 0.501961 0.501961 0.501961 #0.501961
v -1.884766 -0.035156 -0.597168 0.501961 0.501961 0.501961 #0.501961
v -1.801758 0.126221 -0.501709 0.501961 0.501961 0.501961 #0.501961
v -1.884766 -0.035156 -0.597168 0.501961 0.501961 0.501961 #0.501961
v -2.438965 -0.028809 -0.623291 0.501961 0.501961 0.501961 #0.501961
v -1.667480 -0.073975 -0.319336 0.501961 0.501961 0.501961 #0.501961
v -1.712891 0.010986 -0.574219 0.501961 0.501961 0.501961 #0.501961
v -1.766357 0.061035 -0.290527 0.501961 0.501961 0.501961 #0.501961
v -1.801758 0.126221 -0.501709 0.501961 0.501961 0.501961 #0.501961
v -1.766357 0.061035 -0.290527 0.501961 0.501961 0.501961 #0.501961
v -1.712891 0.010986 -0.574219 0.501961 0.501961 0.501961 #0.501961
v -1.716553 1.409912 -0.136719 0.501961 0.501961 0.501961 #0.501961
v -1.801758 0.126221 -0.501709 0.501961 0.501961 0.501961 #0.501961
v -2.561279 0.227783 -0.554688 0.501961 0.501961 0.501961 #0.501961
v -0.798584 1.581055 0.031494 0.501961 0.501961 0.501961 #0.501961
v -0.765137 1.555908 0.131592 0.501961 0.501961 0.501961 #0.501961
v -0.732422 1.483643 0.115234 0.501961 0.501961 0.501961 #0.501961
v -0.765137 1.555908 0.131592 0.501961 0.501961 0.501961 #0.501961
v -0.798584 1.581055 0.031494 0.501961 0.501961 0.501961 #0.501961
v -0.699219 1.633789 0.154297 0.501961 0.501961 0.501961 #0.501961
v -0.732422 1.660400 0.048340 0.501961 0.501961 0.501961 #0.501961
v -0.699219 1.633789 0.154297 0.501961 0.501961 0.501961 #0.501961
v -0.798584 1.581055 0.031494 0.501961 0.501961 0.501961 #0.501961
v -0.766113 1.507080 0.021240 0.501961 0.501961 0.501961 #0.501961
v -0.732422 1.483643 0.115234 0.501961 0.501961 0.501961 #0.501961
v -0.801025 1.444824 0.006104 0.501961 0.501961 0.501961 #0.501961
v -0.787598 1.913330 0.102051 0.501961 0.501961 0.501961 #0.501961
v -0.576416 1.992920 0.129395 0.501961 0.501961 0.501961 #0.501961
v -0.732422 1.660400 0.048340 0.501961 0.501961 0.501961 #0.501961
v -1.037842 1.529297 0.012695 0.501961 0.501961 0.501961 #0.501961
v -0.801025 1.444824 0.006104 0.501961 0.501961 0.501961 #0.501961
v -1.712158 1.439209 -0.040283 0.501961 0.501961 0.501961 #0.501961
v -0.766113 1.507080 0.021240 0.501961 0.501961 0.501961 #0.501961
v -0.923584 1.585205 0.025635 0.501961 0.501961 0.501961 #0.501961
v -0.798584 1.581055 0.031494 0.501961 0.501961 0.501961 #0.501961
v -0.798584 1.581055 0.031494 0.501961 0.501961 0.501961 #0.501961
v -0.923584 1.585205 0.025635 0.501961 0.501961 0.501961 #0.501961
v -0.732422 1.660400 0.048340 0.501961 0.501961 0.501961 #0.501961
v -0.923584 1.585205 0.025635 0.501961 0.501961 0.501961 #0.501961
v -0.766113 1.507080 0.021240 0.501961 0.501961 0.501961 #0.501961
v -0.801025 1.444824 0.006104 0.501961 0.501961 0.501961 #0.501961
v -0.846680 1.694336 0.050049 0.501961 0.501961 0.501961 #0.501961
v -0.732422 1.660400 0.048340 0.501961 0.501961 0.501961 #0.501961
v -0.923584 1.585205 0.025635 0.501961 0.501961 0.501961 #0.501961
v -1.582520 1.535400 -0.012451 0.501961 0.501961 0.501961 #0.501961
v -1.712158 1.439209 -0.040283 0.501961 0.501961 0.501961 #0.501961
v -1.585938 2.004639 0.082275 0.501961 0.501961 0.501961 #0.501961
v -1.493652 1.921631 0.069092 0.501961 0.501961 0.501961 #0.501961
v -0.576416 1.992920 0.129395 0.501961 0.501961 0.501961 #0.501961
v -0.787598 1.913330 0.102051 0.501961 0.501961 0.501961 #0.501961
v -0.576416 1.992920 0.129395 0.501961 0.501961 0.501961 #0.501961
v -1.493652 1.921631 0.069092 0.501961 0.501961 0.501961 #0.501961
v -1.585938 2.004639 0.082275 0.501961 0.501961 0.501961 #0.501961
v -0.798584 1.858398 0.322754 0.501961 0.501961 0.501961 #0.501961
v -0.787598 1.913330 0.102051 0.501961 0.501961 0.501961 #0.501961
v -0.846680 1.694336 0.050049 0.501961 0.501961 0.501961 #0.501961
v -1.047119 1.482910 0.197998 0.501961 0.501961 0.501961 #0.501961
v -1.037842 1.529297 0.012695 0.501961 0.501961 0.501961 #0.501961
v -1.582520 1.535400 -0.012451 0.501961 0.501961 0.501961 #0.501961
v -0.933350 1.535645 0.223633 0.501961 0.501961 0.501961 #0.501961
v -0.923584 1.585205 0.025635 0.501961 0.501961 0.501961 #0.501961
v -1.037842 1.529297 0.012695 0.501961 0.501961 0.501961 #0.501961
v -0.857178 1.641846 0.260498 0.501961 0.501961 0.501961 #0.501961
v -0.923584 1.585205 0.025635 0.501961 0.501961 0.501961 #0.501961
v -0.933350 1.535645 0.223633 0.501961 0.501961 0.501961 #0.501961
v -0.923584 1.585205 0.025635 0.501961 0.501961 0.501961 #0.501961
v -0.857178 1.641846 0.260498 0.501961 0.501961 0.501961 #0.501961
v -0.846680 1.694336 0.050049 0.501961 0.501961 0.501961 #0.501961
v -1.591797 1.489258 0.172607 0.501961 0.501961 0.501961 #0.501961
v -1.582520 1.535400 -0.012451 0.501961 0.501961 0.501961 #0.501961
v -1.493652 1.921631 0.069092 0.501961 0.501961 0.501961 #0.501961
v -1.504395 1.866455 0.289795 0.501961 0.501961 0.501961 #0.501961
v -0.787598 1.913330 0.102051 0.501961 0.501961 0.501961 #0.501961
v -0.798584 1.858398 0.322754 0.501961 0.501961 0.501961 #0.501961
v -0.787598 1.913330 0.102051 0.501961 0.501961 0.501961 #0.501961
v -1.504395 1.866455 0.289795 0.501961 0.501961 0.501961 #0.501961
v -1.493652 1.921631 0.069092 0.501961 0.501961 0.501961 #0.501961
v -2.361816 1.505615 -0.163330 0.501961 0.501961 0.501961 #0.501961
v -2.561279 0.227783 -0.554688 0.501961 0.501961 0.501961 #0.501961
v -2.648682 0.164551 -0.308350 0.501961 0.501961 0.501961 #0.501961
v -2.561279 0.227783 -0.554688 0.501961 0.501961 0.501961 #0.501961
v -2.361816 1.505615 -0.163330 0.501961 0.501961 0.501961 #0.501961
v -1.716553 1.409912 -0.136719 0.501961 0.501961 0.501961 #0.501961
v -2.205566 1.704590 -0.017090 0.501961 0.501961 0.501961 #0.501961
v -1.582031 2.032715 -0.028809 0.501961 0.501961 0.501961 #0.501961
v -1.716553 1.409912 -0.136719 0.501961 0.501961 0.501961 #0.501961
v -1.491943 2.345947 -0.079102 0.501961 0.501961 0.501961 #0.501961
v -1.582031 2.032715 -0.028809 0.501961 0.501961 0.501961 #0.501961
v -2.205566 1.704590 -0.017090 0.501961 0.501961 0.501961 #0.501961
v -2.205566 1.704590 -0.017090 0.501961 0.501961 0.501961 #0.501961
v -2.602051 1.895996 0.125488 0.501961 0.501961 0.501961 #0.501961
v -2.527832 1.947998 -0.085693 0.501961 0.501961 0.501961 #0.501961
v -2.602051 1.895996 0.125488 0.501961 0.501961 0.501961 #0.501961
v -2.205566 1.704590 -0.017090 0.501961 0.501961 0.501961 #0.501961
v -2.382080 1.676025 0.081543 0.501961 0.501961 0.501961 #0.501961
v -2.361816 1.505615 -0.163330 0.501961 0.501961 0.501961 #0.501961
v -2.438721 1.452881 0.022949 0.501961 0.501961 0.501961 #0.501961
v -2.205566 1.704590 -0.017090 0.501961 0.501961 0.501961 #0.501961
v -2.382080 1.676025 0.081543 0.501961 0.501961 0.501961 #0.501961
v -2.205566 1.704590 -0.017090 0.501961 0.501961 0.501961 #0.501961
v -2.438721 1.452881 0.022949 0.501961 0.501961 0.501961 #0.501961
v -1.716553 1.409912 -0.136719 0.501961 0.501961 0.501961 #0.501961
v -2.361816 1.505615 -0.163330 0.501961 0.501961 0.501961 #0.501961
v -2.205566 1.704590 -0.017090 0.501961 0.501961 0.501961 #0.501961
v 2.379883 2.490967 0.208252 0.501961 0.501961 0.501961 #0.501961
v 2.156250 2.618164 0.140381 0.501961 0.501961 0.501961 #0.501961
v 2.176514 2.676758 0.212402 0.501961 0.501961 0.501961 #0.501961
v 2.283203 2.650879 0.555420 0.501961 0.501961 0.501961 #0.501961
v 2.156250 2.618164 0.140381 0.501961 0.501961 0.501961 #0.501961
v 2.176514 2.676758 0.212402 0.501961 0.501961 0.501961 #0.501961
v 2.156250 2.618164 0.140381 0.501961 0.501961 0.501961 #0.501961
v -1.423340 2.742676 0.133789 0.501961 0.501961 0.501961 #0.501961
v 2.176514 2.676758 0.212402 0.501961 0.501961 0.501961 #0.501961
v 2.581299 2.470459 0.525146 0.501961 0.501961 0.501961 #0.501961
v 2.379883 2.490967 0.208252 0.501961 0.501961 0.501961 #0.501961
v 2.176514 2.676758 0.212402 0.501961 0.501961 0.501961 #0.501961
v -1.850830 2.665771 0.240234 0.501961 0.501961 0.501961 #0.501961
v -2.289551 2.420410 0.271729 0.501961 0.501961 0.501961 #0.501961
v -1.911377 2.676514 0.354248 0.501961 0.501961 0.501961 #0.501961
v -1.851318 2.707275 0.250732 0.501961 0.501961 0.501961 #0.501961
v -1.753662 2.712646 0.256836 0.501961 0.501961 0.501961 #0.501961
v -1.850830 2.665771 0.240234 0.501961 0.501961 0.501961 #0.501961
v -1.851318 2.707275 0.250732 0.501961 0.501961 0.501961 #0.501961
v -1.911865 2.718262 0.364502 0.501961 0.501961 0.501961 #0.501961
v -1.753662 2.712646 0.256836 0.501961 0.501961 0.501961 #0.501961
v -1.851318 2.707275 0.250732 0.501961 0.501961 0.501961 #0.501961
v -1.911377 2.676514 0.354248 0.501961 0.501961 0.501961 #0.501961
v -1.911865 2.718262 0.364502 0.501961 0.501961 0.501961 #0.501961
v -1.911377 2.676514 0.354248 0.501961 0.501961 0.501961 #0.501961
v -1.851318 2.707275 0.250732 0.501961 0.501961 0.501961 #0.501961
v -1.850830 2.665771 0.240234 0.501961 0.501961 0.501961 #0.501961
v -1.850830 2.665771 0.240234 0.501961 0.501961 0.501961 #0.501961
v -1.753662 2.712646 0.256836 0.501961 0.501961 0.501961 #0.501961
v -1.687744 2.633789 0.212158 0.501961 0.501961 0.501961 #0.501961
v -2.289551 2.420410 0.271729 0.501961 0.501961 0.501961 #0.501961
v -1.850830 2.665771 0.240234 0.501961 0.501961 0.501961 #0.501961
v -1.687744 2.633789 0.212158 0.501961 0.501961 0.501961 #0.501961
v -2.527832 1.947998 -0.085693 0.501961 0.501961 0.501961 #0.501961
v -1.491943 2.345947 -0.079102 0.501961 0.501961 0.501961 #0.501961
v -2.205566 1.704590 -0.017090 0.501961 0.501961 0.501961 #0.501961
v -1.582031 2.032715 -0.028809 0.501961 0.501961 0.501961 #0.501961
v -1.491943 2.345947 -0.079102 0.501961 0.501961 0.501961 #0.501961
v 2.151855 1.948730 0.059326 0.501961 0.501961 0.501961 #0.501961
v -1.671143 -0.184570 -0.347168 0.501961 0.501961 0.501961 #0.501961
v -1.712891 0.010986 -0.574219 0.501961 0.501961 0.501961 #0.501961
v -1.667480 -0.073975 -0.319336 0.501961 0.501961 0.501961 #0.501961
v -1.526611 2.171631 0.619141 0.501961 0.501961 0.501961 #0.501961
v 2.122803 1.801514 0.650146 0.501961 0.501961 0.501961 #0.501961
v 2.118896 2.430664 0.893066 0.501961 0.501961 0.501961 #0.501961
v -1.526611 2.171631 0.619141 0.501961 0.501961 0.501961 #0.501961
v 2.118896 2.430664 0.893066 0.501961 0.501961 0.501961 #0.501961
v -1.447510 2.620361 0.624268 0.501961 0.501961 0.501961 #0.501961
v 2.283203 2.650879 0.555420 0.501961 0.501961 0.501961 #0.501961
v 2.118896 2.430664 0.893066 0.501961 0.501961 0.501961 #0.501961
v 2.122803 1.801514 0.650146 0.501961 0.501961 0.501961 #0.501961
v 2.283203 2.650879 0.555420 0.501961 0.501961 0.501961 #0.501961
v -1.423340 2.742676 0.133789 0.501961 0.501961 0.501961 #0.501961
v -1.447510 2.620361 0.624268 0.501961 0.501961 0.501961 #0.501961
v 2.118896 2.430664 0.893066 0.501961 0.501961 0.501961 #0.501961
v 2.122803 1.801514 0.650146 0.501961 0.501961 0.501961 #0.501961
v 2.350830 2.344727 0.794678 0.501961 0.501961 0.501961 #0.501961
v 2.283203 2.650879 0.555420 0.501961 0.501961 0.501961 #0.501961
v 2.144531 2.515625 0.859131 0.501961 0.501961 0.501961 #0.501961
v 2.581299 2.470459 0.525146 0.501961 0.501961 0.501961 #0.501961
v -2.637695 2.352295 0.092041 0.501961 0.501961 0.501961 #0.501961
v -2.651123 2.284180 0.365234 0.501961 0.501961 0.501961 #0.501961
v -1.423340 2.742676 0.133789 0.501961 0.501961 0.501961 #0.501961
v -1.447510 2.620361 0.624268 0.501961 0.501961 0.501961 #0.501961
v -1.423340 2.742676 0.133789 0.501961 0.501961 0.501961 #0.501961
v -2.651123 2.284180 0.365234 0.501961 0.501961 0.501961 #0.501961
v -2.602051 1.895996 0.125488 0.501961 0.501961 0.501961 #0.501961
v -2.651123 2.284180 0.365234 0.501961 0.501961 0.501961 #0.501961
v -2.637695 2.352295 0.092041 0.501961 0.501961 0.501961 #0.501961
v -2.651123 2.284180 0.365234 0.501961 0.501961 0.501961 #0.501961
v -2.602051 1.895996 0.125488 0.501961 0.501961 0.501961 #0.501961
v -2.549072 1.841309 0.342285 0.501961 0.501961 0.501961 #0.501961
v -2.549072 1.841309 0.342285 0.501961 0.501961 0.501961 #0.501961
v -1.526611 2.171631 0.619141 0.501961 0.501961 0.501961 #0.501961
v -1.447510 2.620361 0.624268 0.501961 0.501961 0.501961 #0.501961
v -2.549072 1.841309 0.342285 0.501961 0.501961 0.501961 #0.501961
v -1.447510 2.620361 0.624268 0.501961 0.501961 0.501961 #0.501961
v -2.651123 2.284180 0.365234 0.501961 0.501961 0.501961 #0.501961
v -1.822754 0.020508 -0.077637 0.501961 0.501961 0.501961 #0.501961
v -1.766357 0.061035 -0.290527 0.501961 0.501961 0.501961 #0.501961
v -1.733887 1.323242 0.210449 0.501961 0.501961 0.501961 #0.501961
v -2.464844 -0.158691 -0.103027 0.501961 0.501961 0.501961 #0.501961
v -2.534180 -0.225342 -0.399902 0.501961 0.501961 0.501961 #0.501961
v -1.843018 -0.233154 -0.367676 0.501961 0.501961 0.501961 #0.501961
v -2.585938 0.103027 -0.054199 0.501961 0.501961 0.501961 #0.501961
v -2.648682 0.164551 -0.308350 0.501961 0.501961 0.501961 #0.501961
v -2.534180 -0.225342 -0.399902 0.501961 0.501961 0.501961 #0.501961
v -2.464844 -0.158691 -0.103027 0.501961 0.501961 0.501961 #0.501961
v -1.822754 0.020508 -0.077637 0.501961 0.501961 0.501961 #0.501961
v -2.585938 0.103027 -0.054199 0.501961 0.501961 0.501961 #0.501961
v -1.910645 -0.164795 -0.077148 0.501961 0.501961 0.501961 #0.501961
v -1.822754 0.020508 -0.077637 0.501961 0.501961 0.501961 #0.501961
v -2.464844 -0.158691 -0.103027 0.501961 0.501961 0.501961 #0.501961
v -0.699219 1.633789 0.154297 0.501961 0.501961 0.501961 #0.501961
v -0.576416 1.992920 0.129395 0.501961 0.501961 0.501961 #0.501961
v -0.587402 1.936279 0.355713 0.501961 0.501961 0.501961 #0.501961
v -0.587402 1.936279 0.355713 0.501961 0.501961 0.501961 #0.501961
v -0.742676 1.608398 0.256592 0.501961 0.501961 0.501961 #0.501961
v -0.699219 1.633789 0.154297 0.501961 0.501961 0.501961 #0.501961
v -1.712158 1.439209 -0.040283 0.501961 0.501961 0.501961 #0.501961
v -0.801025 1.444824 0.006104 0.501961 0.501961 0.501961 #0.501961
v -1.720947 1.394287 0.139893 0.501961 0.501961 0.501961 #0.501961
v -0.810059 1.399902 0.186279 0.501961 0.501961 0.501961 #0.501961
v -1.720947 1.394287 0.139893 0.501961 0.501961 0.501961 #0.501961
v -0.801025 1.444824 0.006104 0.501961 0.501961 0.501961 #0.501961
v -1.843018 -0.233154 -0.367676 0.501961 0.501961 0.501961 #0.501961
v -1.671143 -0.184570 -0.347168 0.501961 0.501961 0.501961 #0.501961
v -1.910645 -0.164795 -0.077148 0.501961 0.501961 0.501961 #0.501961
v -1.738281 -0.116943 -0.059814 0.501961 0.501961 0.501961 #0.501961
v -1.910645 -0.164795 -0.077148 0.501961 0.501961 0.501961 #0.501961
v -1.671143 -0.184570 -0.347168 0.501961 0.501961 0.501961 #0.501961
v -1.822754 0.020508 -0.077637 0.501961 0.501961 0.501961 #0.501961
v -1.910645 -0.164795 -0.077148 0.501961 0.501961 0.501961 #0.501961
v -1.738281 -0.116943 -0.059814 0.501961 0.501961 0.501961 #0.501961
v -1.667480 -0.073975 -0.319336 0.501961 0.501961 0.501961 #0.501961
v -1.766357 0.061035 -0.290527 0.501961 0.501961 0.501961 #0.501961
v -1.738281 -0.116943 -0.059814 0.501961 0.501961 0.501961 #0.501961
v -1.822754 0.020508 -0.077637 0.501961 0.501961 0.501961 #0.501961
v -1.738281 -0.116943 -0.059814 0.501961 0.501961 0.501961 #0.501961
v -1.766357 0.061035 -0.290527 0.501961 0.501961 0.501961 #0.501961
v -1.733887 1.323242 0.210449 0.501961 0.501961 0.501961 #0.501961
v -2.585938 0.103027 -0.054199 0.501961 0.501961 0.501961 #0.501961
v -1.822754 0.020508 -0.077637 0.501961 0.501961 0.501961 #0.501961
v -0.808350 1.531982 0.228027 0.501961 0.501961 0.501961 #0.501961
v -0.775391 1.461182 0.205566 0.501961 0.501961 0.501961 #0.501961
v -0.765137 1.555908 0.131592 0.501961 0.501961 0.501961 #0.501961
v -0.732422 1.483643 0.115234 0.501961 0.501961 0.501961 #0.501961
v -0.765137 1.555908 0.131592 0.501961 0.501961 0.501961 #0.501961
v -0.775391 1.461182 0.205566 0.501961 0.501961 0.501961 #0.501961
v -0.765137 1.555908 0.131592 0.501961 0.501961 0.501961 #0.501961
v -0.699219 1.633789 0.154297 0.501961 0.501961 0.501961 #0.501961
v -0.808350 1.531982 0.228027 0.501961 0.501961 0.501961 #0.501961
v -0.742676 1.608398 0.256592 0.501961 0.501961 0.501961 #0.501961
v -0.808350 1.531982 0.228027 0.501961 0.501961 0.501961 #0.501961
v -0.699219 1.633789 0.154297 0.501961 0.501961 0.501961 #0.501961
v -0.775391 1.461182 0.205566 0.501961 0.501961 0.501961 #0.501961
v -0.810059 1.399902 0.186279 0.501961 0.501961 0.501961 #0.501961
v -0.732422 1.483643 0.115234 0.501961 0.501961 0.501961 #0.501961
v -0.801025 1.444824 0.006104 0.501961 0.501961 0.501961 #0.501961
v -0.732422 1.483643 0.115234 0.501961 0.501961 0.501961 #0.501961
v -0.810059 1.399902 0.186279 0.501961 0.501961 0.501961 #0.501961
v -1.604248 1.920654 0.420166 0.501961 0.501961 0.501961 #0.501961
v -1.597168 1.947998 0.308594 0.501961 0.501961 0.501961 #0.501961
v -0.587402 1.936279 0.355713 0.501961 0.501961 0.501961 #0.501961
v -0.798584 1.858398 0.322754 0.501961 0.501961 0.501961 #0.501961
v -0.857178 1.641846 0.260498 0.501961 0.501961 0.501961 #0.501961
v -0.742676 1.608398 0.256592 0.501961 0.501961 0.501961 #0.501961
v -1.047119 1.482910 0.197998 0.501961 0.501961 0.501961 #0.501961
v -1.591797 1.489258 0.172607 0.501961 0.501961 0.501961 #0.501961
v -1.720947 1.394287 0.139893 0.501961 0.501961 0.501961 #0.501961
v -0.775391 1.461182 0.205566 0.501961 0.501961 0.501961 #0.501961
v -0.808350 1.531982 0.228027 0.501961 0.501961 0.501961 #0.501961
v -0.933350 1.535645 0.223633 0.501961 0.501961 0.501961 #0.501961
v -0.808350 1.531982 0.228027 0.501961 0.501961 0.501961 #0.501961
v -0.742676 1.608398 0.256592 0.501961 0.501961 0.501961 #0.501961
v -0.933350 1.535645 0.223633 0.501961 0.501961 0.501961 #0.501961
v -0.933350 1.535645 0.223633 0.501961 0.501961 0.501961 #0.501961
v -1.047119 1.482910 0.197998 0.501961 0.501961 0.501961 #0.501961
v -0.810059 1.399902 0.186279 0.501961 0.501961 0.501961 #0.501961
v -0.857178 1.641846 0.260498 0.501961 0.501961 0.501961 #0.501961
v -0.933350 1.535645 0.223633 0.501961 0.501961 0.501961 #0.501961
v -0.742676 1.608398 0.256592 0.501961 0.501961 0.501961 #0.501961
v -1.591797 1.489258 0.172607 0.501961 0.501961 0.501961 #0.501961
v -1.504395 1.866455 0.289795 0.501961 0.501961 0.501961 #0.501961
v -1.597168 1.947998 0.308594 0.501961 0.501961 0.501961 #0.501961
v -1.504395 1.866455 0.289795 0.501961 0.501961 0.501961 #0.501961
v -0.798584 1.858398 0.322754 0.501961 0.501961 0.501961 #0.501961
v -0.587402 1.936279 0.355713 0.501961 0.501961 0.501961 #0.501961
v -0.587402 1.936279 0.355713 0.501961 0.501961 0.501961 #0.501961
v -1.597168 1.947998 0.308594 0.501961 0.501961 0.501961 #0.501961
v -1.504395 1.866455 0.289795 0.501961 0.501961 0.501961 #0.501961
v -2.380859 1.410400 0.218750 0.501961 0.501961 0.501961 #0.501961
v -2.438721 1.452881 0.022949 0.501961 0.501961 0.501961 #0.501961
v -2.648682 0.164551 -0.308350 0.501961 0.501961 0.501961 #0.501961
v -2.585938 0.103027 -0.054199 0.501961 0.501961 0.501961 #0.501961
v -1.733887 1.323242 0.210449 0.501961 0.501961 0.501961 #0.501961
v -2.380859 1.410400 0.218750 0.501961 0.501961 0.501961 #0.501961
v -2.216309 1.650879 0.197998 0.501961 0.501961 0.501961 #0.501961
v -1.733887 1.323242 0.210449 0.501961 0.501961 0.501961 #0.501961
v -1.604248 1.920654 0.420166 0.501961 0.501961 0.501961 #0.501961
v -1.526611 2.171631 0.619141 0.501961 0.501961 0.501961 #0.501961
v -2.216309 1.650879 0.197998 0.501961 0.501961 0.501961 #0.501961
v -1.604248 1.920654 0.420166 0.501961 0.501961 0.501961 #0.501961
v -2.216309 1.650879 0.197998 0.501961 0.501961 0.501961 #0.501961
v -2.602051 1.895996 0.125488 0.501961 0.501961 0.501961 #0.501961
v -2.382080 1.676025 0.081543 0.501961 0.501961 0.501961 #0.501961
v -2.602051 1.895996 0.125488 0.501961 0.501961 0.501961 #0.501961
v -2.216309 1.650879 0.197998 0.501961 0.501961 0.501961 #0.501961
v -2.549072 1.841309 0.342285 0.501961 0.501961 0.501961 #0.501961
v -2.380859 1.410400 0.218750 0.501961 0.501961 0.501961 #0.501961
v -2.216309 1.650879 0.197998 0.501961 0.501961 0.501961 #0.501961
v -2.438721 1.452881 0.022949 0.501961 0.501961 0.501961 #0.501961
v -2.382080 1.676025 0.081543 0.501961 0.501961 0.501961 #0.501961
v -2.438721 1.452881 0.022949 0.501961 0.501961 0.501961 #0.501961
v -2.216309 1.650879 0.197998 0.501961 0.501961 0.501961 #0.501961
v -1.733887 1.323242 0.210449 0.501961 0.501961 0.501961 #0.501961
v -2.216309 1.650879 0.197998 0.501961 0.501961 0.501961 #0.501961
v -2.380859 1.410400 0.218750 0.501961 0.501961 0.501961 #0.501961
v 2.350830 2.344727 0.794678 0.501961 0.501961 0.501961 #0.501961
v 2.144531 2.515625 0.859131 0.501961 0.501961 0.501961 #0.501961
v 2.118896 2.430664 0.893066 0.501961 0.501961 0.501961 #0.501961
v 2.283203 2.650879 0.555420 0.501961 0.501961 0.501961 #0.501961
v 2.144531 2.515625 0.859131 0.501961 0.501961 0.501961 #0.501961
v 2.118896 2.430664 0.893066 0.501961 0.501961 0.501961 #0.501961
v 2.144531 2.515625 0.859131 0.501961 0.501961 0.501961 #0.501961
v 2.283203 2.650879 0.555420 0.501961 0.501961 0.501961 #0.501961
v -1.447510 2.620361 0.624268 0.501961 0.501961 0.501961 #0.501961
v 2.118896 2.430664 0.893066 0.501961 0.501961 0.501961 #0.501961
v 2.144531 2.515625 0.859131 0.501961 0.501961 0.501961 #0.501961
v -1.447510 2.620361 0.624268 0.501961 0.501961 0.501961 #0.501961
v 2.581299 2.470459 0.525146 0.501961 0.501961 0.501961 #0.501961
v 2.144531 2.515625 0.859131 0.501961 0.501961 0.501961 #0.501961
v 2.350830 2.344727 0.794678 0.501961 0.501961 0.501961 #0.501961
v -1.861328 2.612061 0.454834 0.501961 0.501961 0.501961 #0.501961
v -1.911377 2.676514 0.354248 0.501961 0.501961 0.501961 #0.501961
v -2.289551 2.420410 0.271729 0.501961 0.501961 0.501961 #0.501961
v -1.700928 2.567139 0.479736 0.501961 0.501961 0.501961 #0.501961
v -1.687744 2.633789 0.212158 0.501961 0.501961 0.501961 #0.501961
v -1.753662 2.712646 0.256836 0.501961 0.501961 0.501961 #0.501961
v -1.753662 2.712646 0.256836 0.501961 0.501961 0.501961 #0.501961
v -1.764404 2.659180 0.471436 0.501961 0.501961 0.501961 #0.501961
v -1.700928 2.567139 0.479736 0.501961 0.501961 0.501961 #0.501961
v -1.861816 2.653809 0.465088 0.501961 0.501961 0.501961 #0.501961
v -1.861328 2.612061 0.454834 0.501961 0.501961 0.501961 #0.501961
v -1.764404 2.659180 0.471436 0.501961 0.501961 0.501961 #0.501961
v -1.753662 2.712646 0.256836 0.501961 0.501961 0.501961 #0.501961
v -1.911865 2.718262 0.364502 0.501961 0.501961 0.501961 #0.501961
v -1.764404 2.659180 0.471436 0.501961 0.501961 0.501961 #0.501961
v -1.861816 2.653809 0.465088 0.501961 0.501961 0.501961 #0.501961
v -1.764404 2.659180 0.471436 0.501961 0.501961 0.501961 #0.501961
v -1.911865 2.718262 0.364502 0.501961 0.501961 0.501961 #0.501961
v -1.861816 2.653809 0.465088 0.501961 0.501961 0.501961 #0.501961
v -1.911865 2.718262 0.364502 0.501961 0.501961 0.501961 #0.501961
v -1.911377 2.676514 0.354248 0.501961 0.501961 0.501961 #0.501961
v -1.911377 2.676514 0.354248 0.501961 0.501961 0.501961 #0.501961
v -1.861328 2.612061 0.454834 0.501961 0.501961 0.501961 #0.501961
v -1.861816 2.653809 0.465088 0.501961 0.501961 0.501961 #0.501961
v -1.861328 2.612061 0.454834 0.501961 0.501961 0.501961 #0.501961
v -1.700928 2.567139 0.479736 0.501961 0.501961 0.501961 #0.501961
v -1.764404 2.659180 0.471436 0.501961 0.501961 0.501961 #0.501961
v -2.289551 2.420410 0.271729 0.501961 0.501961 0.501961 #0.501961
v -1.700928 2.567139 0.479736 0.501961 0.501961 0.501961 #0.501961
v -1.861328 2.612061 0.454834 0.501961 0.501961 0.501961 #0.501961
v -2.549072 1.841309 0.342285 0.501961 0.501961 0.501961 #0.501961
v -2.216309 1.650879 0.197998 0.501961 0.501961 0.501961 #0.501961
v -1.526611 2.171631 0.619141 0.501961 0.501961 0.501961 #0.501961
v -1.604248 1.920654 0.420166 0.501961 0.501961 0.501961 #0.501961
v 2.122803 1.801514 0.650146 0.501961 0.501961 0.501961 #0.501961
v -1.526611 2.171631 0.619141 0.501961 0.501961 0.501961 #0.501961
v -1.671143 -0.184570 -0.347168 0.501961 0.501961 0.501961 #0.501961
v -1.667480 -0.073975 -0.319336 0.501961 0.501961 0.501961 #0.501961
v -1.738281 -0.116943 -0.059814 0.501961 0.501961 0.501961 #0.501961
vt 0.802979 0.141602 0.000000
vt 0.755859 0.141602 0.000000
vt 0.771484 0.338379 0.000000
vt 0.802979 0.354248 0.000000
vt 0.771484 0.338379 0.000000
vt 0.755859 0.377930 0.000000
vt 0.102295 0.897461 0.000000
vt 0.110107 0.913330 0.000000
vt 0.094482 0.818848 0.000000
vt 0.125977 0.921143 0.000000
vt 0.117920 0.834473 0.000000
vt 0.094482 0.818848 0.000000
vt 0.133789 0.881836 0.000000
vt 0.110107 0.881836 0.000000
vt 0.110107 0.771484 0.000000
vt 0.102295 0.897461 0.000000
vt 0.094482 0.795166 0.000000
vt 0.110107 0.771484 0.000000
vt 0.141602 0.905273 0.000000
vt 0.141602 0.889648 0.000000
vt 0.149414 0.779297 0.000000
vt 0.133789 0.881836 0.000000
vt 0.133789 0.763672 0.000000
vt 0.149414 0.779297 0.000000
vt 0.125977 0.921143 0.000000
vt 0.133789 0.921143 0.000000
vt 0.141602 0.826660 0.000000
vt 0.141602 0.905273 0.000000
vt 0.157471 0.810791 0.000000
vt 0.141602 0.826660 0.000000
vt 0.110107 0.897461 0.000000
vt 0.110107 0.905273 0.000000
vt 0.110107 0.913330 0.000000
vt 0.110107 0.905273 0.000000
vt 0.125977 0.913330 0.000000
vt 0.125977 0.921143 0.000000
vt 0.125977 0.889648 0.000000
vt 0.117920 0.889648 0.000000
vt 0.110107 0.881836 0.000000
vt 0.117920 0.889648 0.000000
vt 0.110107 0.897461 0.000000
vt 0.102295 0.897461 0.000000
vt 0.141602 0.905273 0.000000
vt 0.133789 0.897461 0.000000
vt 0.141602 0.889648 0.000000
vt 0.133789 0.897461 0.000000
vt 0.125977 0.889648 0.000000
vt 0.133789 0.881836 0.000000
vt 0.125977 0.913330 0.000000
vt 0.133789 0.913330 0.000000
vt 0.133789 0.921143 0.000000
vt 0.133789 0.913330 0.000000
vt 0.141602 0.905273 0.000000
vt 0.141602 0.905273 0.000000
vt 0.149414 0.023438 0.000000
vt 0.141602 0.023438 0.000000
vt 0.141602 0.039307 0.000000
vt 0.157471 0.031494 0.000000
vt 0.149414 0.023438 0.000000
vt 0.141602 0.039307 0.000000
vt 0.133789 0.031494 0.000000
vt 0.133789 0.047119 0.000000
vt 0.141602 0.039307 0.000000
vt 0.141602 0.023438 0.000000
vt 0.133789 0.031494 0.000000
vt 0.141602 0.039307 0.000000
vt 0.133789 0.054932 0.000000
vt 0.149414 0.054932 0.000000
vt 0.141602 0.039307 0.000000
vt 0.133789 0.047119 0.000000
vt 0.133789 0.054932 0.000000
vt 0.141602 0.039307 0.000000
vt 0.157471 0.047119 0.000000
vt 0.157471 0.031494 0.000000
vt 0.141602 0.039307 0.000000
vt 0.149414 0.054932 0.000000
vt 0.157471 0.047119 0.000000
vt 0.141602 0.039307 0.000000
vt 0.062988 0.598389 0.000000
vt 0.047119 0.661377 0.000000
vt 0.094482 0.881836 0.000000
vt 0.031494 0.826660 0.000000
vt 0.031494 0.865967 0.000000
vt 0.094482 0.881836 0.000000
vt 0.070801 0.582520 0.000000
vt 0.054932 0.637695 0.000000
vt 0.047119 0.661377 0.000000
vt 0.094482 0.881836 0.000000
vt 0.054932 0.637695 0.000000
vt 0.070801 0.582520 0.000000
vt 0.094482 0.881836 0.000000
vt 0.047119 0.661377 0.000000
vt 0.047119 0.810791 0.000000
vt 0.047119 0.810791 0.000000
vt 0.047119 0.661377 0.000000
vt 0.054932 0.637695 0.000000
vt 0.094482 0.881836 0.000000
vt 0.047119 0.795166 0.000000
vt 0.054932 0.637695 0.000000
vt 0.094482 0.881836 0.000000
vt 0.047119 0.810791 0.000000
vt 0.031494 0.826660 0.000000
vt 0.047119 0.795166 0.000000
vt 0.031494 0.826660 0.000000
vt 0.047119 0.810791 0.000000
vt 0.094482 0.881836 0.000000
vt 0.031494 0.826660 0.000000
vt 0.047119 0.795166 0.000000
vt 0.094482 0.881836 0.000000
vt 0.070801 0.582520 0.000000
vt 0.062988 0.598389 0.000000
vt 0.212402 0.661377 0.000000
vt 0.220459 0.637695 0.000000
vt 0.204590 0.401367 0.000000
vt 0.204590 0.401367 0.000000
vt 0.220459 0.637695 0.000000
vt 0.212402 0.425049 0.000000
vt 0.432861 0.322754 0.000000
vt 0.212402 0.346436 0.000000
vt 0.220459 0.369873 0.000000
vt 0.236084 0.684814 0.000000
vt 0.220459 0.369873 0.000000
vt 0.220459 0.637695 0.000000
vt 0.393555 0.606201 0.000000
vt 0.236084 0.684814 0.000000
vt 0.228271 0.684814 0.000000
vt 0.425049 0.401367 0.000000
vt 0.409424 0.480225 0.000000
vt 0.417236 0.480225 0.000000
vt 0.220459 0.637695 0.000000
vt 0.220459 0.369873 0.000000
vt 0.212402 0.425049 0.000000
vt 0.204590 0.401367 0.000000
vt 0.212402 0.425049 0.000000
vt 0.212402 0.346436 0.000000
vt 0.220459 0.369873 0.000000
vt 0.212402 0.346436 0.000000
vt 0.212402 0.425049 0.000000
vt 0.432861 0.322754 0.000000
vt 0.425049 0.346436 0.000000
vt 0.432861 0.369873 0.000000
vt 0.425049 0.401367 0.000000
vt 0.432861 0.369873 0.000000
vt 0.425049 0.346436 0.000000
vt 0.228271 0.684814 0.000000
vt 0.236084 0.684814 0.000000
vt 0.212402 0.661377 0.000000
vt 0.220459 0.637695 0.000000
vt 0.212402 0.661377 0.000000
vt 0.236084 0.684814 0.000000
vt 0.220459 0.369873 0.000000
vt 0.425049 0.401367 0.000000
vt 0.425049 0.346436 0.000000
vt 0.417236 0.480225 0.000000
vt 0.409424 0.480225 0.000000
vt 0.393555 0.606201 0.000000
vt 0.409424 0.480225 0.000000
vt 0.425049 0.401367 0.000000
vt 0.220459 0.369873 0.000000
vt 0.236084 0.684814 0.000000
vt 0.409424 0.480225 0.000000
vt 0.220459 0.369873 0.000000
vt 0.236084 0.684814 0.000000
vt 0.393555 0.606201 0.000000
vt 0.409424 0.480225 0.000000
vt 0.212402 0.661377 0.000000
vt 0.204590 0.401367 0.000000
vt 0.220459 0.606201 0.000000
vt 0.204590 0.401367 0.000000
vt 0.212402 0.369873 0.000000
vt 0.220459 0.606201 0.000000
vt 0.432861 0.322754 0.000000
vt 0.425049 0.322754 0.000000
vt 0.220459 0.346436 0.000000
vt 0.236084 0.661377 0.000000
vt 0.220459 0.606201 0.000000
vt 0.220459 0.346436 0.000000
vt 0.393555 0.582520 0.000000
vt 0.401367 0.606201 0.000000
vt 0.228271 0.684814 0.000000
vt 0.425049 0.369873 0.000000
vt 0.432861 0.369873 0.000000
vt 0.417236 0.480225 0.000000
vt 0.220459 0.606201 0.000000
vt 0.212402 0.369873 0.000000
vt 0.220459 0.346436 0.000000
vt 0.204590 0.401367 0.000000
vt 0.212402 0.346436 0.000000
vt 0.212402 0.369873 0.000000
vt 0.220459 0.346436 0.000000
vt 0.212402 0.369873 0.000000
vt 0.212402 0.346436 0.000000
vt 0.432861 0.322754 0.000000
vt 0.432861 0.369873 0.000000
vt 0.425049 0.322754 0.000000
vt 0.425049 0.369873 0.000000
vt 0.425049 0.322754 0.000000
vt 0.432861 0.369873 0.000000
vt 0.228271 0.684814 0.000000
vt 0.212402 0.661377 0.000000
vt 0.236084 0.661377 0.000000
vt 0.220459 0.606201 0.000000
vt 0.236084 0.661377 0.000000
vt 0.212402 0.661377 0.000000
vt 0.220459 0.346436 0.000000
vt 0.425049 0.322754 0.000000
vt 0.425049 0.369873 0.000000
vt 0.417236 0.480225 0.000000
vt 0.401367 0.606201 0.000000
vt 0.393555 0.582520 0.000000
vt 0.409424 0.448730 0.000000
vt 0.220459 0.346436 0.000000
vt 0.425049 0.369873 0.000000
vt 0.236084 0.661377 0.000000
vt 0.220459 0.346436 0.000000
vt 0.409424 0.448730 0.000000
vt 0.236084 0.661377 0.000000
vt 0.409424 0.448730 0.000000
vt 0.393555 0.582520 0.000000
vt 0.117920 0.236084 0.000000
vt 0.180908 0.952637 0.000000
vt 0.054932 0.952637 0.000000
vt 0.117920 0.236084 0.000000
vt 0.188965 0.243896 0.000000
vt 0.180908 0.952637 0.000000
vt 0.180908 0.755859 0.000000
vt 0.165283 0.865967 0.000000
vt 0.070801 0.818848 0.000000
vt 0.070801 0.818848 0.000000
vt 0.165283 0.865967 0.000000
vt 0.070801 0.850342 0.000000
vt 0.188965 0.968262 0.000000
vt 0.188965 0.960449 0.000000
vt 0.188965 0.243896 0.000000
vt 0.031494 0.936768 0.000000
vt 0.047119 0.188965 0.000000
vt 0.062988 0.220459 0.000000
vt 0.062988 0.944824 0.000000
vt 0.070801 0.976318 0.000000
vt 0.141602 0.921143 0.000000
vt 0.527344 0.787354 0.000000
vt 0.527344 0.732178 0.000000
vt 0.417236 0.732178 0.000000
vt 0.070801 0.818848 0.000000
vt 0.094482 0.889648 0.000000
vt 0.062988 0.842285 0.000000
vt 0.527344 0.787354 0.000000
vt 0.417236 0.732178 0.000000
vt 0.417236 0.787354 0.000000
vt 0.173096 0.110107 0.000000
vt 0.173096 0.094482 0.000000
vt 0.173096 0.110107 0.000000
vt 0.039307 0.047119 0.000000
vt 0.188965 0.243896 0.000000
vt 0.117920 0.236084 0.000000
vt 0.039307 0.047119 0.000000
vt 0.117920 0.015625 0.000000
vt 0.188965 0.243896 0.000000
vt 0.196777 0.787354 0.000000
vt 0.417236 0.787354 0.000000
vt 0.196777 0.755859 0.000000
vt 0.417236 0.787354 0.000000
vt 0.417236 0.732178 0.000000
vt 0.196777 0.755859 0.000000
vt 0.858154 0.771484 0.000000
vt 0.677002 0.763672 0.000000
vt 0.669189 0.787354 0.000000
vt 0.897461 0.739990 0.000000
vt 0.858154 0.771484 0.000000
vt 0.881836 0.787354 0.000000
vt 0.858154 0.771484 0.000000
vt 0.897461 0.739990 0.000000
vt 0.653320 0.739990 0.000000
vt 0.677002 0.763672 0.000000
vt 0.653320 0.739990 0.000000
vt 0.621826 0.755859 0.000000
vt 0.078613 0.110107 0.000000
vt 0.078613 0.125977 0.000000
vt 0.086426 0.117920 0.000000
vt 0.669189 0.787354 0.000000
vt 0.677002 0.763672 0.000000
vt 0.614014 0.779297 0.000000
vt 0.621826 0.755859 0.000000
vt 0.614014 0.779297 0.000000
vt 0.677002 0.763672 0.000000
vt 0.653320 0.739990 0.000000
vt 0.677002 0.763672 0.000000
vt 0.858154 0.771484 0.000000
vt 0.495850 0.968262 0.000000
vt 0.495850 0.968262 0.000000
vt 0.480225 0.944824 0.000000
vt 0.472412 0.952637 0.000000
vt 0.480225 0.944824 0.000000
vt 0.495850 0.968262 0.000000
vt 0.283447 0.921143 0.000000
vt 0.472412 0.952637 0.000000
vt 0.480225 0.787354 0.000000
vt 0.086426 0.125977 0.000000
vt 0.086426 0.125977 0.000000
vt 0.086426 0.125977 0.000000
vt 0.086426 0.125977 0.000000
vt 0.086426 0.125977 0.000000
vt 0.078613 0.125977 0.000000
vt 0.086426 0.117920 0.000000
vt 0.078613 0.125977 0.000000
vt 0.086426 0.125977 0.000000
vt 0.086426 0.125977 0.000000
vt 0.086426 0.125977 0.000000
vt 0.086426 0.125977 0.000000
vt 0.086426 0.110107 0.000000
vt 0.078613 0.110107 0.000000
vt 0.086426 0.117920 0.000000
vt 0.102295 0.125977 0.000000
vt 0.086426 0.125977 0.000000
vt 0.133789 0.125977 0.000000
vt 0.086426 0.125977 0.000000
vt 0.094482 0.125977 0.000000
vt 0.086426 0.125977 0.000000
vt 0.086426 0.125977 0.000000
vt 0.094482 0.125977 0.000000
vt 0.086426 0.117920 0.000000
vt 0.094482 0.125977 0.000000
vt 0.086426 0.125977 0.000000
vt 0.086426 0.125977 0.000000
vt 0.086426 0.117920 0.000000
vt 0.086426 0.117920 0.000000
vt 0.094482 0.125977 0.000000
vt 0.125977 0.125977 0.000000
vt 0.133789 0.125977 0.000000
vt 0.125977 0.110107 0.000000
vt 0.117920 0.110107 0.000000
vt 0.078613 0.110107 0.000000
vt 0.086426 0.110107 0.000000
vt 0.078613 0.110107 0.000000
vt 0.117920 0.110107 0.000000
vt 0.125977 0.110107 0.000000
vt 0.086426 0.117920 0.000000
vt 0.086426 0.110107 0.000000
vt 0.086426 0.117920 0.000000
vt 0.102295 0.125977 0.000000
vt 0.102295 0.125977 0.000000
vt 0.125977 0.125977 0.000000
vt 0.094482 0.125977 0.000000
vt 0.094482 0.125977 0.000000
vt 0.102295 0.125977 0.000000
vt 0.086426 0.125977 0.000000
vt 0.094482 0.125977 0.000000
vt 0.094482 0.125977 0.000000
vt 0.094482 0.125977 0.000000
vt 0.086426 0.125977 0.000000
vt 0.086426 0.117920 0.000000
vt 0.125977 0.125977 0.000000
vt 0.125977 0.125977 0.000000
vt 0.117920 0.110107 0.000000
vt 0.117920 0.110107 0.000000
vt 0.086426 0.110107 0.000000
vt 0.086426 0.117920 0.000000
vt 0.086426 0.110107 0.000000
vt 0.117920 0.110107 0.000000
vt 0.117920 0.110107 0.000000
vt 0.480225 0.732178 0.000000
vt 0.196777 0.732178 0.000000
vt 0.196777 0.755859 0.000000
vt 0.480225 0.787354 0.000000
vt 0.275391 0.787354 0.000000
vt 0.283447 0.921143 0.000000
vt 0.243896 0.802979 0.000000
vt 0.196777 0.928955 0.000000
vt 0.283447 0.921143 0.000000
vt 0.117920 0.236084 0.000000
vt 0.062988 0.220459 0.000000
vt 0.000000 0.102295 0.000000
vt 0.157471 0.117920 0.000000
vt 0.173096 0.110107 0.000000
vt 0.173096 0.110107 0.000000
vt 0.173096 0.110107 0.000000
vt 0.157471 0.117920 0.000000
vt 0.165283 0.117920 0.000000
vt 0.480225 0.732178 0.000000
vt 0.480225 0.755859 0.000000
vt 0.535400 0.739990 0.000000
vt 0.535400 0.747803 0.000000
vt 0.535400 0.739990 0.000000
vt 0.480225 0.755859 0.000000
vt 0.283447 0.921143 0.000000
vt 0.275391 0.787354 0.000000
vt 0.243896 0.802979 0.000000
vt 0.094482 0.889648 0.000000
vt 0.070801 0.850342 0.000000
vt 0.062988 0.842285 0.000000
vt 0.070801 0.818848 0.000000
vt 0.070801 0.850342 0.000000
vt 0.062988 0.842285 0.000000
vt 0.180908 0.952637 0.000000
vt 0.188965 0.243896 0.000000
vt 0.188965 0.960449 0.000000
vt 0.094482 0.889648 0.000000
vt 0.094482 0.889648 0.000000
vt 0.062988 0.842285 0.000000
vt 0.133789 0.086426 0.000000
vt 0.157471 0.094482 0.000000
vt 0.141602 0.086426 0.000000
vt 0.133789 0.086426 0.000000
vt 0.133789 0.086426 0.000000
vt 0.133789 0.086426 0.000000
vt 0.133789 0.086426 0.000000
vt 0.141602 0.086426 0.000000
vt 0.133789 0.086426 0.000000
vt 0.133789 0.086426 0.000000
vt 0.141602 0.086426 0.000000
vt 0.141602 0.086426 0.000000
vt 0.141602 0.086426 0.000000
vt 0.133789 0.086426 0.000000
vt 0.133789 0.086426 0.000000
vt 0.133789 0.086426 0.000000
vt 0.133789 0.086426 0.000000
vt 0.125977 0.086426 0.000000
vt 0.157471 0.094482 0.000000
vt 0.133789 0.086426 0.000000
vt 0.125977 0.086426 0.000000
vt 0.039307 0.047119 0.000000
vt 0.117920 0.236084 0.000000
vt 0.000000 0.102295 0.000000
vt 0.062988 0.220459 0.000000
vt 0.117920 0.236084 0.000000
vt 0.054932 0.952637 0.000000
vt 0.519531 0.968262 0.000000
vt 0.495850 0.968262 0.000000
vt 0.495850 0.968262 0.000000
vt 0.094482 0.196777 0.000000
vt 0.031494 0.936768 0.000000
vt 0.157471 0.928955 0.000000
vt 0.094482 0.196777 0.000000
vt 0.157471 0.928955 0.000000
vt 0.180908 0.212402 0.000000
vt 0.070801 0.818848 0.000000
vt 0.094482 0.732178 0.000000
vt 0.180908 0.755859 0.000000
vt 0.188965 0.968262 0.000000
vt 0.188965 0.243896 0.000000
vt 0.180908 0.212402 0.000000
vt 0.094482 0.732178 0.000000
vt 0.180908 0.755859 0.000000
vt 0.110107 0.795166 0.000000
vt 0.070801 0.818848 0.000000
vt 0.086426 0.739990 0.000000
vt 0.094482 0.889648 0.000000
vt 0.117920 0.015625 0.000000
vt 0.110107 0.000000 0.000000
vt 0.188965 0.243896 0.000000
vt 0.180908 0.212402 0.000000
vt 0.188965 0.243896 0.000000
vt 0.110107 0.000000 0.000000
vt 0.173096 0.110107 0.000000
vt 0.173096 0.094482 0.000000
vt 0.173096 0.094482 0.000000
vt 0.173096 0.094482 0.000000
vt 0.173096 0.110107 0.000000
vt 0.173096 0.110107 0.000000
vt 0.031494 0.015625 0.000000
vt 0.094482 0.196777 0.000000
vt 0.180908 0.212402 0.000000
vt 0.031494 0.015625 0.000000
vt 0.180908 0.212402 0.000000
vt 0.110107 0.000000 0.000000
vt 0.196777 0.732178 0.000000
vt 0.196777 0.755859 0.000000
vt 0.417236 0.732178 0.000000
vt 0.684814 0.787354 0.000000
vt 0.653320 0.787354 0.000000
vt 0.873779 0.787354 0.000000
vt 0.645508 0.747803 0.000000
vt 0.614014 0.739990 0.000000
vt 0.653320 0.787354 0.000000
vt 0.684814 0.787354 0.000000
vt 0.881836 0.755859 0.000000
vt 0.645508 0.747803 0.000000
vt 0.865967 0.779297 0.000000
vt 0.881836 0.755859 0.000000
vt 0.684814 0.787354 0.000000
vt 0.078613 0.125977 0.000000
vt 0.078613 0.110107 0.000000
vt 0.078613 0.110107 0.000000
vt 0.078613 0.110107 0.000000
vt 0.086426 0.125977 0.000000
vt 0.078613 0.125977 0.000000
vt 0.133789 0.125977 0.000000
vt 0.086426 0.125977 0.000000
vt 0.133789 0.125977 0.000000
vt 0.086426 0.133789 0.000000
vt 0.133789 0.125977 0.000000
vt 0.086426 0.125977 0.000000
vt 0.873779 0.787354 0.000000
vt 0.921143 0.771484 0.000000
vt 0.865967 0.779297 0.000000
vt 0.921143 0.771484 0.000000
vt 0.865967 0.779297 0.000000
vt 0.921143 0.771484 0.000000
vt 0.881836 0.755859 0.000000
vt 0.865967 0.779297 0.000000
vt 0.921143 0.771484 0.000000
vt 0.921143 0.763672 0.000000
vt 0.889648 0.739990 0.000000
vt 0.921143 0.771484 0.000000
vt 0.141602 0.180908 0.000000
vt 0.133789 0.180908 0.000000
vt 0.141602 0.180908 0.000000
vt 0.283447 0.944824 0.000000
vt 0.480225 0.787354 0.000000
vt 0.472412 0.944824 0.000000
vt 0.086426 0.125977 0.000000
vt 0.086426 0.125977 0.000000
vt 0.086426 0.125977 0.000000
vt 0.086426 0.125977 0.000000
vt 0.086426 0.125977 0.000000
vt 0.086426 0.125977 0.000000
vt 0.086426 0.125977 0.000000
vt 0.078613 0.125977 0.000000
vt 0.086426 0.125977 0.000000
vt 0.086426 0.125977 0.000000
vt 0.086426 0.125977 0.000000
vt 0.078613 0.125977 0.000000
vt 0.086426 0.125977 0.000000
vt 0.086426 0.133789 0.000000
vt 0.086426 0.125977 0.000000
vt 0.086426 0.125977 0.000000
vt 0.086426 0.125977 0.000000
vt 0.086426 0.133789 0.000000
vt 0.125977 0.110107 0.000000
vt 0.125977 0.110107 0.000000
vt 0.078613 0.110107 0.000000
vt 0.086426 0.117920 0.000000
vt 0.086426 0.125977 0.000000
vt 0.086426 0.125977 0.000000
vt 0.102295 0.125977 0.000000
vt 0.125977 0.125977 0.000000
vt 0.133789 0.125977 0.000000
vt 0.086426 0.125977 0.000000
vt 0.086426 0.125977 0.000000
vt 0.094482 0.125977 0.000000
vt 0.086426 0.125977 0.000000
vt 0.086426 0.125977 0.000000
vt 0.094482 0.125977 0.000000
vt 0.094482 0.125977 0.000000
vt 0.102295 0.125977 0.000000
vt 0.086426 0.133789 0.000000
vt 0.086426 0.125977 0.000000
vt 0.094482 0.125977 0.000000
vt 0.086426 0.125977 0.000000
vt 0.125977 0.125977 0.000000
vt 0.117920 0.110107 0.000000
vt 0.125977 0.110107 0.000000
vt 0.117920 0.110107 0.000000
vt 0.086426 0.117920 0.000000
vt 0.078613 0.110107 0.000000
vt 0.078613 0.110107 0.000000
vt 0.125977 0.110107 0.000000
vt 0.117920 0.110107 0.000000
vt 0.488037 0.771484 0.000000
vt 0.480225 0.755859 0.000000
vt 0.196777 0.755859 0.000000
vt 0.480225 0.787354 0.000000
vt 0.283447 0.944824 0.000000
vt 0.275391 0.802979 0.000000
vt 0.243896 0.826660 0.000000
vt 0.283447 0.944824 0.000000
vt 0.196777 0.968262 0.000000
vt 0.094482 0.196777 0.000000
vt 0.000000 0.086426 0.000000
vt 0.047119 0.188965 0.000000
vt 0.157471 0.117920 0.000000
vt 0.173096 0.110107 0.000000
vt 0.165283 0.117920 0.000000
vt 0.173096 0.110107 0.000000
vt 0.157471 0.117920 0.000000
vt 0.173096 0.110107 0.000000
vt 0.488037 0.771484 0.000000
vt 0.535400 0.763672 0.000000
vt 0.480225 0.755859 0.000000
vt 0.535400 0.747803 0.000000
vt 0.480225 0.755859 0.000000
vt 0.535400 0.763672 0.000000
vt 0.283447 0.944824 0.000000
vt 0.243896 0.826660 0.000000
vt 0.275391 0.802979 0.000000
vt 0.110107 0.795166 0.000000
vt 0.086426 0.739990 0.000000
vt 0.094482 0.732178 0.000000
vt 0.070801 0.818848 0.000000
vt 0.086426 0.739990 0.000000
vt 0.094482 0.732178 0.000000
vt 0.173096 0.936768 0.000000
vt 0.188965 0.968262 0.000000
vt 0.180908 0.212402 0.000000
vt 0.157471 0.928955 0.000000
vt 0.173096 0.936768 0.000000
vt 0.180908 0.212402 0.000000
vt 0.094482 0.889648 0.000000
vt 0.086426 0.739990 0.000000
vt 0.110107 0.795166 0.000000
vt 0.133789 0.086426 0.000000
vt 0.141602 0.086426 0.000000
vt 0.157471 0.094482 0.000000
vt 0.125977 0.086426 0.000000
vt 0.125977 0.086426 0.000000
vt 0.133789 0.086426 0.000000
vt 0.133789 0.086426 0.000000
vt 0.133789 0.086426 0.000000
vt 0.125977 0.086426 0.000000
vt 0.133789 0.086426 0.000000
vt 0.133789 0.086426 0.000000
vt 0.133789 0.086426 0.000000
vt 0.133789 0.086426 0.000000
vt 0.141602 0.086426 0.000000
vt 0.133789 0.086426 0.000000
vt 0.133789 0.086426 0.000000
vt 0.133789 0.086426 0.000000
vt 0.141602 0.086426 0.000000
vt 0.133789 0.086426 0.000000
vt 0.141602 0.086426 0.000000
vt 0.141602 0.086426 0.000000
vt 0.141602 0.086426 0.000000
vt 0.133789 0.086426 0.000000
vt 0.133789 0.086426 0.000000
vt 0.133789 0.086426 0.000000
vt 0.125977 0.086426 0.000000
vt 0.133789 0.086426 0.000000
vt 0.157471 0.094482 0.000000
vt 0.125977 0.086426 0.000000
vt 0.133789 0.086426 0.000000
vt 0.031494 0.015625 0.000000
vt 0.000000 0.086426 0.000000
vt 0.094482 0.196777 0.000000
vt 0.047119 0.188965 0.000000
vt 0.031494 0.936768 0.000000
vt 0.094482 0.196777 0.000000
vt 0.921143 0.771484 0.000000
vt 0.921143 0.763672 0.000000
vt 0.921143 0.771484 0.000000
vn -0.047852 -0.241943 -0.968994
vn -0.047852 -0.241943 -0.968994
vn -0.047852 -0.241943 -0.968994
vn -0.047363 -0.239258 -0.969727
vn -0.047363 -0.239258 -0.969727
vn -0.047363 -0.239258 -0.969727
vn -0.175293 -0.957031 -0.229736
vn -0.175293 -0.957031 -0.229736
vn -0.175293 -0.957031 -0.229736
vn -0.191895 -0.649658 -0.735352
vn -0.191895 -0.649658 -0.735352
vn -0.191895 -0.649658 -0.735352
vn -0.099609 -0.132813 0.986084
vn -0.099609 -0.132813 0.986084
vn -0.099609 -0.132813 0.986084
vn -0.130371 -0.697266 0.704590
vn -0.130371 -0.697266 0.704590
vn -0.130371 -0.697266 0.704590
vn -0.130859 0.959961 0.246826
vn -0.130859 0.959961 0.246826
vn -0.130859 0.959961 0.246826
vn -0.101563 0.596924 0.795654
vn -0.101563 0.596924 0.795654
vn -0.101563 0.596924 0.795654
vn -0.192627 0.250488 -0.948486
vn -0.192627 0.250488 -0.948486
vn -0.192627 0.250488 -0.948486
vn -0.170898 0.767822 -0.616943
vn -0.170898 0.767822 -0.616943
vn -0.170898 0.767822 -0.616943
vn -0.998779 0.011230 0.046387
vn -0.998779 0.011230 0.046387
vn -0.998779 0.011230 0.046387
vn -0.998779 0.011475 0.046143
vn -0.998779 0.011475 0.046143
vn -0.998779 0.011475 0.046143
vn -0.998779 0.010254 0.044678
vn -0.998779 0.010254 0.044678
vn -0.998779 0.010254 0.044678
vn -0.998779 0.012695 0.044922
vn -0.998779 0.012695 0.044922
vn -0.998779 0.012695 0.044922
vn -0.998779 0.009766 0.045654
vn -0.998779 0.009766 0.045654
vn -0.998779 0.009766 0.045654
vn -0.998779 0.012207 0.044678
vn -0.998779 0.012207 0.044678
vn -0.998779 0.012207 0.044678
vn -0.998779 0.011475 0.045654
vn -0.998779 0.011475 0.045654
vn -0.998779 0.011475 0.045654
vn -0.998779 0.010986 0.046875
vn -0.998779 0.010986 0.046875
vn -0.998779 0.010986 0.046875
vn -0.079590 0.967041 0.241455
vn -0.079590 0.967041 0.241455
vn -0.079590 0.967041 0.241455
vn -0.056885 0.656494 0.751953
vn -0.056885 0.656494 0.751953
vn -0.056885 0.656494 0.751953
vn -0.140137 0.136475 -0.980469
vn -0.140137 0.136475 -0.980469
vn -0.140137 0.136475 -0.980469
vn -0.127686 0.706543 -0.695801
vn -0.127686 0.706543 -0.695801
vn -0.127686 0.706543 -0.695801
vn -0.124268 -0.963867 -0.234619
vn -0.124268 -0.963867 -0.234619
vn -0.124268 -0.963867 -0.234619
vn -0.140625 -0.596191 -0.790039
vn -0.140625 -0.596191 -0.790039
vn -0.140625 -0.596191 -0.790039
vn -0.058105 -0.251221 0.966064
vn -0.058105 -0.251221 0.966064
vn -0.058105 -0.251221 0.966064
vn -0.079834 -0.770020 0.632568
vn -0.079834 -0.770020 0.632568
vn -0.079834 -0.770020 0.632568
vn -0.095703 -0.263672 -0.959717
vn -0.095703 -0.263672 -0.959717
vn -0.095703 -0.263672 -0.959717
vn -0.047852 -0.241455 -0.968994
vn -0.047852 -0.241455 -0.968994
vn -0.047852 -0.241455 -0.968994
vn 0.319092 -0.922852 0.214600
vn 0.319092 -0.922852 0.214600
vn 0.319092 -0.922852 0.214600
vn 0.000000 0.218506 0.975586
vn 0.000000 0.218506 0.975586
vn 0.000000 0.218506 0.975586
vn -0.066650 -0.156738 -0.985352
vn -0.066650 -0.156738 -0.985352
vn -0.066650 -0.156738 -0.985352
vn 0.115723 -0.964844 0.235107
vn 0.115723 -0.964844 0.235107
vn 0.115723 -0.964844 0.235107
vn 0.029053 0.325928 0.944824
vn 0.029053 0.325928 0.944824
vn 0.029053 0.325928 0.944824
vn -0.221924 -0.294922 -0.929199
vn -0.221924 -0.294922 -0.929199
vn -0.221924 -0.294922 -0.929199
vn 0.676514 -0.721436 0.146484
vn 0.676514 -0.721436 0.146484
vn 0.676514 -0.721436 0.146484
vn -0.129395 0.179443 0.975098
vn -0.129395 0.179443 0.975098
vn -0.129395 0.179443 0.975098
vn 0.127686 0.960938 -0.244629
vn 0.127686 0.960938 -0.244629
vn 0.127686 0.960938 -0.244629
vn -0.915283 0.134521 -0.378906
vn -0.915283 0.134521 -0.378906
vn -0.915283 0.134521 -0.378906
vn -0.920410 0.149414 -0.361084
vn -0.920410 0.149414 -0.361084
vn -0.920410 0.149414 -0.361084
vn 0.000732 -0.988770 0.147705
vn 0.000732 -0.988770 0.147705
vn 0.000732 -0.988770 0.147705
vn -0.470215 0.032471 -0.881836
vn -0.470215 0.032471 -0.881836
vn -0.470215 0.032471 -0.881836
vn 0.048340 0.918945 -0.391113
vn 0.048340 0.918945 -0.391113
vn 0.048340 0.918945 -0.391113
vn 0.606689 0.667236 -0.430176
vn 0.606689 0.667236 -0.430176
vn 0.606689 0.667236 -0.430176
vn -0.496094 0.031006 -0.867676
vn -0.496094 0.031006 -0.867676
vn -0.496094 0.031006 -0.867676
vn -0.730957 -0.663818 -0.157471
vn -0.730957 -0.663818 -0.157471
vn -0.730957 -0.663818 -0.157471
vn -0.703369 -0.692627 -0.158936
vn -0.703369 -0.692627 -0.158936
vn -0.703369 -0.692627 -0.158936
vn 0.843750 -0.433350 -0.316162
vn 0.843750 -0.433350 -0.316162
vn 0.843750 -0.433350 -0.316162
vn 0.853027 -0.395508 -0.339844
vn 0.853027 -0.395508 -0.339844
vn 0.853027 -0.395508 -0.339844
vn -0.508545 0.715088 -0.479248
vn -0.508545 0.715088 -0.479248
vn -0.508545 0.715088 -0.479248
vn -0.529297 0.688477 -0.495361
vn -0.529297 0.688477 -0.495361
vn -0.529297 0.688477 -0.495361
vn -0.028320 -0.142822 -0.989258
vn -0.028320 -0.142822 -0.989258
vn -0.028320 -0.142822 -0.989258
vn 0.774658 0.404297 -0.485840
vn 0.774658 0.404297 -0.485840
vn 0.774658 0.404297 -0.485840
vn -0.035156 0.050537 -0.998047
vn -0.035156 0.050537 -0.998047
vn -0.035156 0.050537 -0.998047
vn -0.019287 -0.074951 -0.996826
vn -0.019287 -0.074951 -0.996826
vn -0.019287 -0.074951 -0.996826
vn -0.046631 -0.222412 -0.973633
vn -0.046631 -0.222412 -0.973633
vn -0.046631 -0.222412 -0.973633
vn -0.878906 0.317627 0.354980
vn -0.878906 0.317627 0.354980
vn -0.878906 0.317627 0.354980
vn -0.885986 0.322510 0.332764
vn -0.885986 0.322510 0.332764
vn -0.885986 0.322510 0.332764
vn 0.010010 -0.942627 0.333252
vn 0.010010 -0.942627 0.333252
vn 0.010010 -0.942627 0.333252
vn -0.387695 0.452393 0.802979
vn -0.387695 0.452393 0.802979
vn -0.387695 0.452393 0.802979
vn 0.062988 0.993652 -0.091553
vn 0.062988 0.993652 -0.091553
vn 0.062988 0.993652 -0.091553
vn 0.628418 0.776855 0.008545
vn 0.628418 0.776855 0.008545
vn 0.628418 0.776855 0.008545
vn -0.414551 0.445068 0.793457
vn -0.414551 0.445068 0.793457
vn -0.414551 0.445068 0.793457
vn -0.697021 -0.496338 0.517090
vn -0.697021 -0.496338 0.517090
vn -0.697021 -0.496338 0.517090
vn -0.668701 -0.521729 0.529297
vn -0.668701 -0.521729 0.529297
vn -0.668701 -0.521729 0.529297
vn 0.879150 -0.255371 0.401611
vn 0.879150 -0.255371 0.401611
vn 0.879150 -0.255371 0.401611
vn 0.890381 -0.208252 0.404297
vn 0.890381 -0.208252 0.404297
vn 0.890381 -0.208252 0.404297
vn -0.478027 0.868164 0.132080
vn -0.478027 0.868164 0.132080
vn -0.478027 0.868164 0.132080
vn -0.497314 0.852295 0.161621
vn -0.497314 0.852295 0.161621
vn -0.497314 0.852295 0.161621
vn 0.066895 0.337646 0.938721
vn 0.066895 0.337646 0.938721
vn 0.066895 0.337646 0.938721
vn 0.806885 0.566650 0.165527
vn 0.806885 0.566650 0.165527
vn 0.806885 0.566650 0.165527
vn 0.056396 0.513672 0.855957
vn 0.056396 0.513672 0.855957
vn 0.056396 0.513672 0.855957
vn 0.074951 0.400879 0.912842
vn 0.074951 0.400879 0.912842
vn 0.074951 0.400879 0.912842
vn 0.048828 0.259521 0.964355
vn 0.048828 0.259521 0.964355
vn 0.048828 0.259521 0.964355
vn -0.050537 -0.119629 -0.991455
vn -0.050537 -0.119629 -0.991455
vn -0.050537 -0.119629 -0.991455
vn -0.017822 -0.470215 -0.882080
vn -0.017822 -0.470215 -0.882080
vn -0.017822 -0.470215 -0.882080
vn -0.982666 0.185303 0.001953
vn -0.982666 0.185303 0.001953
vn -0.982666 0.185303 0.001953
vn -0.955078 -0.029297 -0.294434
vn -0.955078 -0.029297 -0.294434
vn -0.955078 -0.029297 -0.294434
vn -0.016602 -0.997314 0.069824
vn -0.016602 -0.997314 0.069824
vn -0.016602 -0.997314 0.069824
vn 0.015869 0.969971 -0.242676
vn 0.015869 0.969971 -0.242676
vn 0.015869 0.969971 -0.242676
vn -0.345459 -0.110352 -0.931641
vn -0.345459 -0.110352 -0.931641
vn -0.345459 -0.110352 -0.931641
vn -0.977539 0.210449 -0.004150
vn -0.977539 0.210449 -0.004150
vn -0.977539 0.210449 -0.004150
vn -0.508301 -0.855713 -0.093506
vn -0.508301 -0.855713 -0.093506
vn -0.508301 -0.855713 -0.093506
vn -0.977539 0.210449 -0.003662
vn -0.977539 0.210449 -0.003662
vn -0.977539 0.210449 -0.003662
vn 0.930908 0.098389 -0.351318
vn 0.930908 0.098389 -0.351318
vn 0.930908 0.098389 -0.351318
vn 0.182373 -0.489014 -0.852783
vn 0.182373 -0.489014 -0.852783
vn 0.182373 -0.489014 -0.852783
vn 0.090332 -0.379883 -0.920410
vn 0.090332 -0.379883 -0.920410
vn 0.090332 -0.379883 -0.920410
vn -0.985107 0.016846 -0.170166
vn -0.985107 0.016846 -0.170166
vn -0.985107 0.016846 -0.170166
vn -0.998291 0.041260 0.039307
vn -0.998291 0.041260 0.039307
vn -0.998291 0.041260 0.039307
vn -0.021973 0.754883 -0.655029
vn -0.021973 0.754883 -0.655029
vn -0.021973 0.754883 -0.655029
vn 0.856445 0.208008 -0.459229
vn 0.856445 0.208008 -0.459229
vn 0.856445 0.208008 -0.459229
vn -0.106445 -0.303955 -0.946533
vn -0.106445 -0.303955 -0.946533
vn -0.106445 -0.303955 -0.946533
vn 0.024902 -0.518311 -0.854492
vn 0.024902 -0.518311 -0.854492
vn 0.024902 -0.518311 -0.854492
vn -0.876221 0.324219 -0.355957
vn -0.876221 0.324219 -0.355957
vn -0.876221 0.324219 -0.355957
vn -0.276611 0.701904 -0.656006
vn -0.276611 0.701904 -0.656006
vn -0.276611 0.701904 -0.656006
vn -0.276123 0.702393 -0.655762
vn -0.276123 0.702393 -0.655762
vn -0.276123 0.702393 -0.655762
vn -0.046631 -0.490479 -0.869873
vn -0.046631 -0.490479 -0.869873
vn -0.046631 -0.490479 -0.869873
vn -0.810791 -0.583008 0.049805
vn -0.810791 -0.583008 0.049805
vn -0.810791 -0.583008 0.049805
vn -0.805176 -0.591064 0.047363
vn -0.805176 -0.591064 0.047363
vn -0.805176 -0.591064 0.047363
vn -0.102295 -0.265625 -0.958496
vn -0.102295 -0.265625 -0.958496
vn -0.102295 -0.265625 -0.958496
vn -0.881348 -0.428223 -0.197998
vn -0.881348 -0.428223 -0.197998
vn -0.881348 -0.428223 -0.197998
vn -0.756592 0.527832 -0.385254
vn -0.756592 0.527832 -0.385254
vn -0.756592 0.527832 -0.385254
vn -0.750000 0.546387 -0.372314
vn -0.750000 0.546387 -0.372314
vn -0.750000 0.546387 -0.372314
vn -0.839111 0.374512 -0.394043
vn -0.839111 0.374512 -0.394043
vn -0.839111 0.374512 -0.394043
vn -0.047119 -0.217285 -0.974854
vn -0.047119 -0.217285 -0.974854
vn -0.047119 -0.217285 -0.974854
vn -0.047852 -0.214844 -0.975342
vn -0.047852 -0.214844 -0.975342
vn -0.047852 -0.214844 -0.975342
vn -0.051270 -0.159180 -0.985840
vn -0.051270 -0.159180 -0.985840
vn -0.051270 -0.159180 -0.985840
vn -0.051514 -0.165771 -0.984619
vn -0.051514 -0.165771 -0.984619
vn -0.051514 -0.165771 -0.984619
vn -0.051025 -0.181152 -0.981689
vn -0.051025 -0.181152 -0.981689
vn -0.051025 -0.181152 -0.981689
vn -0.041748 -0.189941 -0.980713
vn -0.041748 -0.189941 -0.980713
vn -0.041748 -0.189941 -0.980713
vn -0.050537 -0.197754 -0.978760
vn -0.050537 -0.197754 -0.978760
vn -0.050537 -0.197754 -0.978760
vn -0.047852 -0.208008 -0.976807
vn -0.047852 -0.208008 -0.976807
vn -0.047852 -0.208008 -0.976807
vn -0.047852 -0.208496 -0.976807
vn -0.047852 -0.208496 -0.976807
vn -0.047852 -0.208496 -0.976807
vn 0.966064 -0.256836 0.015625
vn 0.966064 -0.256836 0.015625
vn 0.966064 -0.256836 0.015625
vn 0.000000 -0.969971 0.242188
vn 0.000000 -0.969971 0.242188
vn 0.000000 -0.969971 0.242188
vn 0.448486 -0.871826 0.195801
vn 0.448486 -0.871826 0.195801
vn 0.448486 -0.871826 0.195801
vn 0.824463 -0.556885 0.098633
vn 0.824463 -0.556885 0.098633
vn 0.824463 -0.556885 0.098633
vn 0.823486 -0.558350 0.098145
vn 0.823486 -0.558350 0.098145
vn 0.823486 -0.558350 0.098145
vn -0.974609 0.222900 -0.007324
vn -0.974609 0.222900 -0.007324
vn -0.974609 0.222900 -0.007324
vn 0.000000 0.970215 -0.241455
vn 0.000000 0.970215 -0.241455
vn 0.000000 0.970215 -0.241455
vn 0.000000 0.969971 -0.242432
vn 0.000000 0.969971 -0.242432
vn 0.000000 0.969971 -0.242432
vn 0.927490 -0.229980 -0.293457
vn 0.927490 -0.229980 -0.293457
vn 0.927490 -0.229980 -0.293457
vn -0.080811 -0.280273 -0.956299
vn -0.080811 -0.280273 -0.956299
vn -0.080811 -0.280273 -0.956299
vn 0.120605 -0.194580 -0.973389
vn 0.120605 -0.194580 -0.973389
vn 0.120605 -0.194580 -0.973389
vn -0.075928 0.179199 -0.980713
vn -0.075928 0.179199 -0.980713
vn -0.075928 0.179199 -0.980713
vn 0.508301 0.777344 -0.370117
vn 0.508301 0.777344 -0.370117
vn 0.508301 0.777344 -0.370117
vn 0.437012 0.265381 -0.859131
vn 0.437012 0.265381 -0.859131
vn 0.437012 0.265381 -0.859131
vn 0.737793 -0.664795 -0.116211
vn 0.737793 -0.664795 -0.116211
vn 0.737793 -0.664795 -0.116211
vn 0.500244 -0.336426 -0.797607
vn 0.500244 -0.336426 -0.797607
vn 0.500244 -0.336426 -0.797607
vn -0.113037 -0.529053 -0.840820
vn -0.113037 -0.529053 -0.840820
vn -0.113037 -0.529053 -0.840820
vn -0.520996 -0.584229 -0.621826
vn -0.520996 -0.584229 -0.621826
vn -0.520996 -0.584229 -0.621826
vn -0.954834 -0.031738 -0.294434
vn -0.954834 -0.031738 -0.294434
vn -0.954834 -0.031738 -0.294434
vn -0.027832 -0.771484 -0.635498
vn -0.027832 -0.771484 -0.635498
vn -0.027832 -0.771484 -0.635498
vn -0.626953 -0.694092 -0.353516
vn -0.626953 -0.694092 -0.353516
vn -0.626953 -0.694092 -0.353516
vn 0.478516 -0.813232 -0.330566
vn 0.478516 -0.813232 -0.330566
vn 0.478516 -0.813232 -0.330566
vn -0.046875 -0.245361 -0.968262
vn -0.046875 -0.245361 -0.968262
vn -0.046875 -0.245361 -0.968262
vn 0.046875 -0.991455 -0.120605
vn 0.046875 -0.991455 -0.120605
vn 0.046875 -0.991455 -0.120605
vn 0.873291 -0.106445 -0.475098
vn 0.873291 -0.106445 -0.475098
vn 0.873291 -0.106445 -0.475098
vn 0.873535 -0.109619 -0.474121
vn 0.873535 -0.109619 -0.474121
vn 0.873535 -0.109619 -0.474121
vn 0.064941 -0.450195 -0.890381
vn 0.064941 -0.450195 -0.890381
vn 0.064941 -0.450195 -0.890381
vn 0.143311 -0.130127 -0.980957
vn 0.143311 -0.130127 -0.980957
vn 0.143311 -0.130127 -0.980957
vn -0.074463 0.177734 -0.981201
vn -0.074463 0.177734 -0.981201
vn -0.074463 0.177734 -0.981201
vn -0.019531 0.163818 -0.986084
vn -0.019531 0.163818 -0.986084
vn -0.019531 0.163818 -0.986084
vn -0.984863 -0.010498 -0.171875
vn -0.984863 -0.010498 -0.171875
vn -0.984863 -0.010498 -0.171875
vn 0.044434 0.359863 0.931641
vn 0.044434 0.359863 0.931641
vn 0.044434 0.359863 0.931641
vn 0.074951 -0.001709 0.997070
vn 0.074951 -0.001709 0.997070
vn 0.074951 -0.001709 0.997070
vn -0.922607 0.133789 0.361572
vn -0.922607 0.133789 0.361572
vn -0.922607 0.133789 0.361572
vn 0.003418 -0.970215 0.241699
vn 0.003418 -0.970215 0.241699
vn 0.003418 -0.970215 0.241699
vn -0.254150 0.346924 0.902588
vn -0.254150 0.346924 0.902588
vn -0.254150 0.346924 0.902588
vn -0.477783 -0.700439 0.530029
vn -0.477783 -0.700439 0.530029
vn -0.477783 -0.700439 0.530029
vn 0.305420 -0.927246 0.216064
vn 0.305420 -0.927246 0.216064
vn 0.305420 -0.927246 0.216064
vn 0.305420 -0.927246 0.216064
vn 0.305420 -0.927246 0.216064
vn 0.305420 -0.927246 0.216064
vn 0.994141 0.082520 -0.069336
vn 0.994141 0.082520 -0.069336
vn 0.994141 0.082520 -0.069336
vn 0.957031 0.229492 0.175781
vn 0.957031 0.229492 0.175781
vn 0.957031 0.229492 0.175781
vn 0.272217 -0.036865 0.961426
vn 0.272217 -0.036865 0.961426
vn 0.272217 -0.036865 0.961426
vn 0.184326 0.093018 0.978271
vn 0.184326 0.093018 0.978271
vn 0.184326 0.093018 0.978271
vn -0.965088 0.117432 0.233154
vn -0.965088 0.117432 0.233154
vn -0.965088 0.117432 0.233154
vn 0.021240 0.974121 0.223877
vn 0.021240 0.974121 0.223877
vn 0.021240 0.974121 0.223877
vn 0.890625 0.378906 0.226563
vn 0.890625 0.378906 0.226563
vn 0.890625 0.378906 0.226563
vn -0.010742 0.178467 0.983643
vn -0.010742 0.178467 0.983643
vn -0.010742 0.178467 0.983643
vn 0.046143 -0.024414 0.998535
vn 0.046143 -0.024414 0.998535
vn 0.046143 -0.024414 0.998535
vn -0.944824 0.325439 -0.035400
vn -0.944824 0.325439 -0.035400
vn -0.944824 0.325439 -0.035400
vn -0.846436 0.473877 0.241943
vn -0.846436 0.473877 0.241943
vn -0.846436 0.473877 0.241943
vn -0.018066 0.970215 -0.240967
vn -0.018066 0.970215 -0.240967
vn -0.018066 0.970215 -0.240967
vn -0.018066 0.970215 -0.240967
vn -0.018066 0.970215 -0.240967
vn -0.018066 0.970215 -0.240967
vn -0.231201 0.933594 0.273438
vn -0.231201 0.933594 0.273438
vn -0.231201 0.933594 0.273438
vn -0.231445 0.933350 0.273682
vn -0.231445 0.933350 0.273682
vn -0.231445 0.933350 0.273682
vn 0.115479 -0.057373 0.991455
vn 0.115479 -0.057373 0.991455
vn 0.115479 -0.057373 0.991455
vn -0.798340 -0.519775 0.303711
vn -0.798340 -0.519775 0.303711
vn -0.798340 -0.519775 0.303711
vn -0.791504 -0.526611 0.309814
vn -0.791504 -0.526611 0.309814
vn -0.791504 -0.526611 0.309814
vn -0.006348 0.216309 0.976074
vn -0.006348 0.216309 0.976074
vn -0.006348 0.216309 0.976074
vn -0.856445 -0.256592 0.447510
vn -0.856445 -0.256592 0.447510
vn -0.856445 -0.256592 0.447510
vn -0.840088 -0.274414 0.467773
vn -0.840088 -0.274414 0.467773
vn -0.840088 -0.274414 0.467773
vn -0.729248 0.664551 0.161865
vn -0.729248 0.664551 0.161865
vn -0.729248 0.664551 0.161865
vn -0.724365 0.674805 0.140137
vn -0.724365 0.674805 0.140137
vn -0.724365 0.674805 0.140137
vn -0.806641 0.535156 0.250488
vn -0.806641 0.535156 0.250488
vn -0.806641 0.535156 0.250488
vn -0.657715 0.737793 -0.150879
vn -0.657715 0.737793 -0.150879
vn -0.657715 0.737793 -0.150879
vn 0.000000 0.971191 -0.238037
vn 0.000000 0.971191 -0.238037
vn 0.000000 0.971191 -0.238037
vn 0.048096 0.265381 0.962646
vn 0.048096 0.265381 0.962646
vn 0.048096 0.265381 0.962646
vn 0.047607 0.268555 0.961914
vn 0.047607 0.268555 0.961914
vn 0.047607 0.268555 0.961914
vn 0.042480 0.320068 0.946289
vn 0.042480 0.320068 0.946289
vn 0.042480 0.320068 0.946289
vn 0.042480 0.317383 0.947266
vn 0.042480 0.317383 0.947266
vn 0.042480 0.317383 0.947266
vn 0.045166 0.302979 0.951416
vn 0.045166 0.302979 0.951416
vn 0.045166 0.302979 0.951416
vn 0.052979 0.293213 0.954346
vn 0.052979 0.293213 0.954346
vn 0.052979 0.293213 0.954346
vn 0.044678 0.284180 0.957520
vn 0.044678 0.284180 0.957520
vn 0.044678 0.284180 0.957520
vn 0.047852 0.276123 0.959717
vn 0.047852 0.276123 0.959717
vn 0.047852 0.276123 0.959717
vn 0.047852 0.275879 0.959961
vn 0.047852 0.275879 0.959961
vn 0.047852 0.275879 0.959961
vn 0.955811 -0.087158 0.279297
vn 0.955811 -0.087158 0.279297
vn 0.955811 -0.087158 0.279297
vn 0.014648 0.201904 0.979004
vn 0.014648 0.201904 0.979004
vn 0.014648 0.201904 0.979004
vn 0.215332 0.281494 0.935059
vn 0.215332 0.281494 0.935059
vn 0.215332 0.281494 0.935059
vn 0.012207 0.618652 0.785400
vn 0.012207 0.618652 0.785400
vn 0.012207 0.618652 0.785400
vn 0.509033 0.626953 0.589355
vn 0.509033 0.626953 0.589355
vn 0.509033 0.626953 0.589355
vn 0.522705 0.847900 -0.086182
vn 0.522705 0.847900 -0.086182
vn 0.522705 0.847900 -0.086182
vn 0.760742 -0.550049 0.343994
vn 0.760742 -0.550049 0.343994
vn 0.760742 -0.550049 0.343994
vn 0.580078 0.065674 0.811523
vn 0.580078 0.065674 0.811523
vn 0.580078 0.065674 0.811523
vn -0.022217 -0.070557 0.997070
vn -0.022217 -0.070557 0.997070
vn -0.022217 -0.070557 0.997070
vn -0.447021 -0.211914 0.868896
vn -0.447021 -0.211914 0.868896
vn -0.447021 -0.211914 0.868896
vn -0.922607 0.133789 0.361572
vn -0.922607 0.133789 0.361572
vn -0.922607 0.133789 0.361572
vn 0.000000 -0.913330 0.406738
vn 0.000000 -0.913330 0.406738
vn 0.000000 -0.913330 0.406738
vn 0.049072 -0.383057 0.922119
vn 0.049072 -0.383057 0.922119
vn 0.049072 -0.383057 0.922119
vn -0.575195 -0.432861 0.693848
vn -0.575195 -0.432861 0.693848
vn -0.575195 -0.432861 0.693848
vn 0.525391 -0.573242 0.628662
vn 0.525391 -0.573242 0.628662
vn 0.525391 -0.573242 0.628662
vn -0.802490 -0.568115 0.180908
vn -0.802490 -0.568115 0.180908
vn -0.802490 -0.568115 0.180908
vn -0.801514 -0.569092 0.181885
vn -0.801514 -0.569092 0.181885
vn -0.801514 -0.569092 0.181885
vn 0.049805 0.238770 0.969727
vn 0.049805 0.238770 0.969727
vn 0.049805 0.238770 0.969727
vn -0.201172 -0.947998 0.246094
vn -0.201172 -0.947998 0.246094
vn -0.201172 -0.947998 0.246094
vn 0.082031 -0.820068 0.566162
vn 0.082031 -0.820068 0.566162
vn 0.082031 -0.820068 0.566162
vn 0.915527 0.105713 0.387695
vn 0.915527 0.105713 0.387695
vn 0.915527 0.105713 0.387695
vn 0.915527 0.105713 0.387695
vn 0.915527 0.105713 0.387695
vn 0.915527 0.105713 0.387695
vn 0.158936 0.020508 0.986816
vn 0.158936 0.020508 0.986816
vn 0.158936 0.020508 0.986816
vn 0.236572 0.340576 0.909912
vn 0.236572 0.340576 0.909912
vn 0.236572 0.340576 0.909912
vn 0.012939 0.618164 0.785645
vn 0.012939 0.618164 0.785645
vn 0.012939 0.618164 0.785645
vn 0.068115 0.606689 0.791748
vn 0.068115 0.606689 0.791748
vn 0.068115 0.606689 0.791748
vn -0.964111 0.093994 0.247314
vn -0.964111 0.093994 0.247314
vn -0.964111 0.093994 0.247314
usemtl Texture
f 1/1/1 2/2/2 3/3/3
f 4/4/4 5/5/5 6/6/6
f 7/7/7 8/8/8 9/9/9
f 10/10/10 11/11/11 12/12/12
f 13/13/13 14/14/14 15/15/15
f 16/16/16 17/17/17 18/18/18
f 19/19/19 20/20/20 21/21/21
f 22/22/22 23/23/23 24/24/24
f 25/25/25 26/26/26 27/27/27
f 28/28/28 29/29/29 30/30/30
f 31/31/31 32/32/32 33/33/33
f 34/34/34 35/35/35 36/36/36
f 37/37/37 38/38/38 39/39/39
f 40/40/40 41/41/41 42/42/42
f 43/43/43 44/44/44 45/45/45
f 46/46/46 47/47/47 48/48/48
f 49/49/49 50/50/50 51/51/51
f 52/52/52 53/53/53 54/54/54
f 55/55/55 56/56/56 57/57/57
f 58/58/58 59/59/59 60/60/60
f 61/61/61 62/62/62 63/63/63
f 64/64/64 65/65/65 66/66/66
f 67/67/67 68/68/68 69/69/69
f 70/70/70 71/71/71 72/72/72
f 73/73/73 74/74/74 75/75/75
f 76/76/76 77/77/77 78/78/78
f 79/79/79 80/80/80 81/81/81
f 82/82/82 83/83/83 84/84/84
f 85/85/85 86/86/86 87/87/87
f 88/88/88 89/89/89 90/90/90
f 91/91/91 92/92/92 93/93/93
f 94/94/94 95/95/95 96/96/96
f 97/97/97 98/98/98 99/99/99
f 100/100/100 101/101/101 102/102/102
f 103/103/103 104/104/104 105/105/105
f 106/106/106 107/107/107 108/108/108
f 109/109/109 110/110/110 111/111/111
f 112/112/112 113/113/113 114/114/114
f 115/115/115 116/116/116 117/117/117
f 118/118/118 119/119/119 120/120/120
f 121/121/121 122/122/122 123/123/123
f 124/124/124 125/125/125 126/126/126
f 127/127/127 128/128/128 129/129/129
f 130/130/130 131/131/131 132/132/132
f 133/133/133 134/134/134 135/135/135
f 136/136/136 137/137/137 138/138/138
f 139/139/139 140/140/140 141/141/141
f 142/142/142 143/143/143 144/144/144
f 145/145/145 146/146/146 147/147/147
f 148/148/148 149/149/149 150/150/150
f 151/151/151 152/152/152 153/153/153
f 154/154/154 155/155/155 156/156/156
f 157/157/157 158/158/158 159/159/159
f 160/160/160 161/161/161 162/162/162
f 163/163/163 164/164/164 165/165/165
f 166/166/166 167/167/167 168/168/168
f 169/169/169 170/170/170 171/171/171
f 172/172/172 173/173/173 174/174/174
f 175/175/175 176/176/176 177/177/177
f 178/178/178 179/179/179 180/180/180
f 181/181/181 182/182/182 183/183/183
f 184/184/184 185/185/185 186/186/186
f 187/187/187 188/188/188 189/189/189
f 190/190/190 191/191/191 192/192/192
f 193/193/193 194/194/194 195/195/195
f 196/196/196 197/197/197 198/198/198
f 199/199/199 200/200/200 201/201/201
f 202/202/202 203/203/203 204/204/204
f 205/205/205 206/206/206 207/207/207
f 208/208/208 209/209/209 210/210/210
f 211/211/211 212/212/212 213/213/213
f 214/214/214 215/215/215 216/216/216
f 217/217/217 218/218/218 219/219/219
f 220/220/220 221/221/221 222/222/222
f 223/223/223 224/224/224 225/225/225
f 226/226/226 227/227/227 228/228/228
f 229/229/229 230/230/230 231/231/231
f 232/232/232 233/233/233 234/234/234
f 235/235/235 236/236/236 237/237/237
f 238/238/238 239/239/239 240/240/240
f 241/241/241 242/242/242 243/243/243
f 244/244/244 245/245/245 246/246/246
f 247/247/247 248/248/248 249/249/249
f 250/250/250 251/251/251 252/252/252
f 253/253/253 254/254/254 255/255/255
f 256/256/256 257/257/257 258/258/258
f 259/259/259 260/260/260 261/261/261
f 262/262/262 263/263/263 264/264/264
f 265/265/265 266/266/266 267/267/267
f 268/268/268 269/269/269 270/270/270
f 271/271/271 272/272/272 273/273/273
f 274/274/274 275/275/275 276/276/276
f 277/277/277 278/278/278 279/279/279
f 280/280/280 281/281/281 282/282/282
f 283/283/283 284/284/284 285/285/285
f 286/286/286 287/287/287 288/288/288
f 289/289/289 290/290/290 291/291/291
f 292/292/292 293/293/293 294/294/294
f 295/295/295 296/296/296 297/297/297
f 298/298/298 299/299/299 300/300/300
f 301/301/301 302/302/302 303/303/303
f 304/304/304 305/305/305 306/306/306
f 307/307/307 308/308/308 309/309/309
f 310/310/310 311/311/311 312/312/312
f 313/313/313 314/314/314 315/315/315
f 316/316/316 317/317/317 318/318/318
f 319/319/319 320/320/320 321/321/321
f 322/322/322 323/323/323 324/324/324
f 325/325/325 326/326/326 327/327/327
f 328/328/328 329/329/329 330/330/330
f 331/331/331 332/332/332 333/333/333
f 334/334/334 335/335/335 336/336/336
f 337/337/337 338/338/338 339/339/339
f 340/340/340 341/341/341 342/342/342
f 343/343/343 344/344/344 345/345/345
f 346/346/346 347/347/347 348/348/348
f 349/349/349 350/350/350 351/351/351
f 352/352/352 353/353/353 354/354/354
f 355/355/355 356/356/356 357/357/357
f 358/358/358 359/359/359 360/360/360
f 361/361/361 362/362/362 363/363/363
f 364/364/364 365/365/365 366/366/366
f 367/367/367 368/368/368 369/369/369
f 370/370/370 371/371/371 372/372/372
f 373/373/373 374/374/374 375/375/375
f 376/376/376 377/377/377 378/378/378
f 379/379/379 380/380/380 381/381/381
f 382/382/382 383/383/383 384/384/384
f 385/385/385 386/386/386 387/387/387
f 388/388/388 389/389/389 390/390/390
f 391/391/391 392/392/392 393/393/393
f 394/394/394 395/395/395 396/396/396
f 397/397/397 398/398/398 399/399/399
f 400/400/400 401/401/401 402/402/402
f 403/403/403 404/404/404 405/405/405
f 406/406/406 407/407/407 408/408/408
f 409/409/409 410/410/410 411/411/411
f 412/412/412 413/413/413 414/414/414
f 415/415/415 416/416/416 417/417/417
f 418/418/418 419/419/419 420/420/420
f 421/421/421 422/422/422 423/423/423
f 424/424/424 425/425/425 426/426/426
f 427/427/427 428/428/428 429/429/429
f 430/430/430 431/431/431 432/432/432
f 433/433/433 434/434/434 435/435/435
f 436/436/436 437/437/437 438/438/438
f 439/439/439 440/440/440 441/441/441
f 442/442/442 443/443/443 444/444/444
f 445/445/445 446/446/446 447/447/447
f 448/448/448 449/449/449 450/450/450
f 451/451/451 452/452/452 453/453/453
f 454/454/454 455/455/455 456/456/456
f 457/457/457 458/458/458 459/459/459
f 460/460/460 461/461/461 462/462/462
f 463/463/463 464/464/464 465/465/465
f 466/466/466 467/467/467 468/468/468
f 469/469/469 470/470/470 471/471/471
f 472/472/472 473/473/473 474/474/474
f 475/475/475 476/476/476 477/477/477
f 478/478/478 479/479/479 480/480/480
f 481/481/481 482/482/482 483/483/483
f 484/484/484 485/485/485 486/486/486
f 487/487/487 488/488/488 489/489/489
f 490/490/490 491/491/491 492/492/492
f 493/493/493 494/494/494 495/495/495
f 496/496/496 497/497/497 498/498/498
f 499/499/499 500/500/500 501/501/501
f 502/502/502 503/503/503 504/504/504
f 505/505/505 506/506/506 507/507/507
f 508/508/508 509/509/509 510/510/510
f 511/511/511 512/512/512 513/513/513
f 514/514/514 515/515/515 516/516/516
f 517/517/517 518/518/518 519/519/519
f 520/520/520 521/521/521 522/522/522
f 523/523/523 524/524/524 525/525/525
f 526/526/526 527/527/527 528/528/528
f 529/529/529 530/530/530 531/531/531
f 532/532/532 533/533/533 534/534/534
f 535/535/535 536/536/536 537/537/537
f 538/538/538 539/539/539 540/540/540
f 541/541/541 542/542/542 543/543/543
f 544/544/544 545/545/545 546/546/546
f 547/547/547 548/548/548 549/549/549
f 550/550/550 551/551/551 552/552/552
f 553/553/553 554/554/554 555/555/555
f 556/556/556 557/557/557 558/558/558
f 559/559/559 560/560/560 561/561/561
f 562/562/562 563/563/563 564/564/564
f 565/565/565 566/566/566 567/567/567
f 568/568/568 569/569/569 570/570/570
f 571/571/571 572/572/572 573/573/573
f 574/574/574 575/575/575 576/576/576
f 577/577/577 578/578/578 579/579/579
f 580/580/580 581/581/581 582/582/582
f 583/583/583 584/584/584 585/585/585
f 586/586/586 587/587/587 588/588/588
f 589/589/589 590/590/590 591/591/591
f 592/592/592 593/593/593 594/594/594
f 595/595/595 596/596/596 597/597/597
f 598/598/598 599/599/599 600/600/600
f 601/601/601 602/602/602 603/603/603
f 604/604/604 605/605/605 606/606/606
f 607/607/607 608/608/608 609/609/609
f 610/610/610 611/611/611 612/612/612
f 613/613/613 614/614/614 615/615/615
f 616/616/616 617/617/617 618/618/618
f 619/619/619 620/620/620 621/621/621
f 622/622/622 623/623/623 624/624/624
f 625/625/625 626/626/626 627/627/627
f 628/628/628 629/629/629 630/630/630
f 631/631/631 632/632/632 633/633/633
f 634/634/634 635/635/635 636/636/636
f 637/637/637 638/638/638 639/639/639