# OBJ file
mtllib MLB_PS2.ico.mtl
v 1.483398 2.873291 -1.902588 0.498039 0.498039 0.498039 #1.000000
v 1.376953 2.156250 -1.890869 0.498039 0.498039 0.498039 #1.000000
v 0.752197 2.932373 -2.331299 0.498039 0.498039 0.498039 #1.000000
v 0.752197 2.932373 -2.331299 0.498039 0.498039 0.498039 #1.000000
v 1.376953 2.156250 -1.890869 0.498039 0.498039 0.498039 #1.000000
v 0.674805 2.175781 -2.315430 0.498039 0.498039 0.498039 #1.000000
v 1.504150 4.198975 -0.154053 0.498039 0.498039 0.498039 #1.000000
v 1.386719 4.188477 -0.869629 0.498039 0.498039 0.498039 #1.000000
v 0.778809 4.635986 -0.084229 0.498039 0.498039 0.498039 #1.000000
v 0.778809 4.635986 -0.084229 0.498039 0.498039 0.498039 #1.000000
v 1.386719 4.188477 -0.869629 0.498039 0.498039 0.498039 #1.000000
v 0.689941 4.620850 -0.839355 0.498039 0.498039 0.498039 #1.000000
v 1.524658 2.450439 1.171143 0.498039 0.498039 0.498039 #1.000000
v 1.415527 3.167236 1.162109 0.498039 0.498039 0.498039 #1.000000
v 0.805420 2.388916 1.618896 0.498039 0.498039 0.498039 #1.000000
v 0.805420 2.388916 1.618896 0.498039 0.498039 0.498039 #1.000000
v 1.415527 3.167236 1.162109 0.498039 0.498039 0.498039 #1.000000
v 0.724854 3.145020 1.605225 0.498039 0.498039 0.498039 #1.000000
v 1.504150 1.124756 -0.577148 0.498039 0.498039 0.498039 #1.000000
v 1.405518 1.135010 0.140869 0.498039 0.498039 0.498039 #1.000000
v 0.778809 0.685059 -0.627686 0.498039 0.498039 0.498039 #1.000000
v 0.778809 0.685059 -0.627686 0.498039 0.498039 0.498039 #1.000000
v 1.405518 1.135010 0.140869 0.498039 0.498039 0.498039 #1.000000
v 0.709717 0.699951 0.129150 0.498039 0.498039 0.498039 #1.000000
v -1.619141 2.867676 -1.861572 0.498039 0.498039 0.498039 #1.000000
v -1.509766 2.150879 -1.852539 0.498039 0.498039 0.498039 #1.000000
v -2.052002 2.768066 -1.137207 0.498039 0.498039 0.498039 #1.000000
v -2.052002 2.768066 -1.137207 0.498039 0.498039 0.498039 #1.000000
v -1.509766 2.150879 -1.852539 0.498039 0.498039 0.498039 #1.000000
v -1.933105 2.017334 -1.162354 0.498039 0.498039 0.498039 #1.000000
v 1.524658 2.450439 1.171143 0.498039 0.498039 0.498039 #1.000000
v 1.415527 1.762695 0.968994 0.498039 0.498039 0.498039 #1.000000
v 1.957520 2.550049 0.446777 0.498039 0.498039 0.498039 #1.000000
v 1.957520 2.550049 0.446777 0.498039 0.498039 0.498039 #1.000000
v 1.415527 1.762695 0.968994 0.498039 0.498039 0.498039 #1.000000
v 1.838623 1.820313 0.268311 0.498039 0.498039 0.498039 #1.000000
v -0.070801 1.722900 -2.263184 0.498039 0.498039 0.498039 #1.000000
v -0.797119 1.798828 -2.129150 0.498039 0.498039 0.498039 #1.000000
v -0.073730 2.112305 -2.432861 0.498039 0.498039 0.498039 #1.000000
v -0.073730 2.112305 -2.432861 0.498039 0.498039 0.498039 #1.000000
v -0.797119 1.798828 -2.129150 0.498039 0.498039 0.498039 #1.000000
v -0.819336 2.173096 -2.295654 0.498039 0.498039 0.498039 #1.000000
v -1.619141 2.867676 -1.861572 0.498039 0.498039 0.498039 #1.000000
v -1.509766 3.555420 -1.659424 0.498039 0.498039 0.498039 #1.000000
v -0.899902 2.929199 -2.309570 0.498039 0.498039 0.498039 #1.000000
v -0.899902 2.929199 -2.309570 0.498039 0.498039 0.498039 #1.000000
v -1.509766 3.555420 -1.659424 0.498039 0.498039 0.498039 #1.000000
v -0.819336 3.653564 -2.091797 0.498039 0.498039 0.498039 #1.000000
v -0.067871 4.407471 -1.670654 0.498039 0.498039 0.498039 #1.000000
v 0.642090 4.287354 -1.587646 0.498039 0.498039 0.498039 #1.000000
v -0.073730 3.749268 -2.207764 0.498039 0.498039 0.498039 #1.000000
v -0.073730 3.749268 -2.207764 0.498039 0.498039 0.498039 #1.000000
v 0.642090 4.287354 -1.587646 0.498039 0.498039 0.498039 #1.000000
v 0.674805 3.656250 -2.111572 0.498039 0.498039 0.498039 #1.000000
v -0.067871 4.407471 -1.670654 0.498039 0.498039 0.498039 #1.000000
v -0.775146 4.284668 -1.569092 0.498039 0.498039 0.498039 #1.000000
v -0.058105 4.747070 -0.891602 0.498039 0.498039 0.498039 #1.000000
v -0.058105 4.747070 -0.891602 0.498039 0.498039 0.498039 #1.000000
v -0.775146 4.284668 -1.569092 0.498039 0.498039 0.498039 #1.000000
v -0.804199 4.618164 -0.819580 0.498039 0.498039 0.498039 #1.000000
v -1.598389 4.193359 -0.113037 0.498039 0.498039 0.498039 #1.000000
v -1.481201 3.989990 0.572754 0.498039 0.498039 0.498039 #1.000000
v -0.873291 4.633057 -0.062500 0.498039 0.498039 0.498039 #1.000000
v -0.873291 4.633057 -0.062500 0.498039 0.498039 0.498039 #1.000000
v -1.481201 3.989990 0.572754 0.498039 0.498039 0.498039 #1.000000
v -0.784180 4.414551 0.660400 0.498039 0.498039 0.498039 #1.000000
v -0.026367 3.984619 1.403076 0.498039 0.498039 0.498039 #1.000000
v 0.680664 3.893799 1.271973 0.498039 0.498039 0.498039 #1.000000
v -0.036133 4.521973 0.744873 0.498039 0.498039 0.498039 #1.000000
v -0.036133 4.521973 0.744873 0.498039 0.498039 0.498039 #1.000000
v 0.680664 3.893799 1.271973 0.498039 0.498039 0.498039 #1.000000
v 0.709717 4.417236 0.640625 0.498039 0.498039 0.498039 #1.000000
v -0.026367 3.984619 1.403076 0.498039 0.498039 0.498039 #1.000000
v -0.736572 3.891113 1.290771 0.498039 0.498039 0.498039 #1.000000
v -0.020508 3.205811 1.742432 0.498039 0.498039 0.498039 #1.000000
v -0.020508 3.205811 1.742432 0.498039 0.498039 0.498039 #1.000000
v -0.736572 3.891113 1.290771 0.498039 0.498039 0.498039 #1.000000
v -0.769287 3.142334 1.625000 0.498039 0.498039 0.498039 #1.000000
v -1.577637 2.444824 1.212158 0.498039 0.498039 0.498039 #1.000000
v -1.471436 1.757568 1.007080 0.498039 0.498039 0.498039 #1.000000
v -0.846436 2.385742 1.640869 0.498039 0.498039 0.498039 #1.000000
v -0.846436 2.385742 1.640869 0.498039 0.498039 0.498039 #1.000000
v -1.471436 1.757568 1.007080 0.498039 0.498039 0.498039 #1.000000
v -0.769287 1.661865 1.421143 0.498039 0.498039 0.498039 #1.000000
v -0.023438 1.239746 1.248779 0.498039 0.498039 0.498039 #1.000000
v 0.702881 1.348877 1.140137 0.498039 0.498039 0.498039 #1.000000
v -0.020508 1.568848 1.517334 0.498039 0.498039 0.498039 #1.000000
v -0.020508 1.568848 1.517334 0.498039 0.498039 0.498039 #1.000000
v 0.702881 1.348877 1.140137 0.498039 0.498039 0.498039 #1.000000
v 0.724854 1.664551 1.401367 0.498039 0.498039 0.498039 #1.000000
v -0.026367 0.910645 0.980225 0.498039 0.498039 0.498039 #1.000000
v -0.736572 1.031006 0.897217 0.498039 0.498039 0.498039 #1.000000
v -0.036133 0.571045 0.201172 0.498039 0.498039 0.498039 #1.000000
v -0.036133 0.571045 0.201172 0.498039 0.498039 0.498039 #1.000000
v -0.736572 1.031006 0.897217 0.498039 0.498039 0.498039 #1.000000
v -0.784180 0.697266 0.148926 0.498039 0.498039 0.498039 #1.000000
v -1.598389 1.119141 -0.536133 0.498039 0.498039 0.498039 #1.000000
v -1.500000 1.322754 -1.224854 0.498039 0.498039 0.498039 #1.000000
v -0.873291 0.682129 -0.605957 0.498039 0.498039 0.498039 #1.000000
v -0.873291 0.682129 -0.605957 0.498039 0.498039 0.498039 #1.000000
v -1.500000 1.322754 -1.224854 0.498039 0.498039 0.498039 #1.000000
v -0.804199 0.900879 -1.331055 0.498039 0.498039 0.498039 #1.000000
v -0.067871 1.333496 -2.093506 0.498039 0.498039 0.498039 #1.000000
v 0.642090 1.427002 -1.981201 0.498039 0.498039 0.498039 #1.000000
v -0.058105 0.796143 -1.435303 0.498039 0.498039 0.498039 #1.000000
v -0.058105 0.796143 -1.435303 0.498039 0.498039 0.498039 #1.000000
v 0.642090 1.427002 -1.981201 0.498039 0.498039 0.498039 #1.000000
v 0.689941 0.903564 -1.350830 0.498039 0.498039 0.498039 #1.000000
v -1.598389 1.119141 -0.536133 0.498039 0.498039 0.498039 #1.000000
v -1.481201 1.129639 0.179199 0.498039 0.498039 0.498039 #1.000000
v -2.041016 1.836914 -0.431396 0.498039 0.498039 0.498039 #1.000000
v -2.041016 1.836914 -0.431396 0.498039 0.498039 0.498039 #1.000000
v -1.481201 1.129639 0.179199 0.498039 0.498039 0.498039 #1.000000
v -1.913086 1.813477 0.317871 0.498039 0.498039 0.498039 #1.000000
v -1.577637 2.444824 1.212158 0.498039 0.498039 0.498039 #1.000000
v -1.471436 3.161865 1.200439 0.498039 0.498039 0.498039 #1.000000
v -2.030029 2.542969 0.499512 0.498039 0.498039 0.498039 #1.000000
v -2.030029 2.542969 0.499512 0.498039 0.498039 0.498039 #1.000000
v -1.471436 3.161865 1.200439 0.498039 0.498039 0.498039 #1.000000
v -1.913086 3.294189 0.521484 0.498039 0.498039 0.498039 #1.000000
v -1.598389 4.193359 -0.113037 0.498039 0.498039 0.498039 #1.000000
v -1.500000 4.183105 -0.831299 0.498039 0.498039 0.498039 #1.000000
v -2.041016 3.473877 -0.206055 0.498039 0.498039 0.498039 #1.000000
v -2.041016 3.473877 -0.206055 0.498039 0.498039 0.498039 #1.000000
v -1.500000 4.183105 -0.831299 0.498039 0.498039 0.498039 #1.000000
v -1.933105 3.497803 -0.958740 0.498039 0.498039 0.498039 #1.000000
v 1.504150 1.124756 -0.577148 0.498039 0.498039 0.498039 #1.000000
v 1.386719 1.328125 -1.263184 0.498039 0.498039 0.498039 #1.000000
v 1.946533 1.844238 -0.484131 0.498039 0.498039 0.498039 #1.000000
v 1.946533 1.844238 -0.484131 0.498039 0.498039 0.498039 #1.000000
v 1.386719 1.328125 -1.263184 0.498039 0.498039 0.498039 #1.000000
v 1.818604 2.024170 -1.211914 0.498039 0.498039 0.498039 #1.000000
v 1.483398 2.873291 -1.902588 0.498039 0.498039 0.498039 #1.000000
v 1.376953 3.560547 -1.697510 0.498039 0.498039 0.498039 #1.000000
v 1.935547 2.775391 -1.189941 0.498039 0.498039 0.498039 #1.000000
v 1.935547 2.775391 -1.189941 0.498039 0.498039 0.498039 #1.000000
v 1.376953 3.560547 -1.697510 0.498039 0.498039 0.498039 #1.000000
v 1.818604 3.504639 -1.008301 0.498039 0.498039 0.498039 #1.000000
v 1.504150 4.198975 -0.154053 0.498039 0.498039 0.498039 #1.000000
v 1.405518 3.995361 0.534424 0.498039 0.498039 0.498039 #1.000000
v 1.946533 3.481201 -0.258789 0.498039 0.498039 0.498039 #1.000000
v 1.946533 3.481201 -0.258789 0.498039 0.498039 0.498039 #1.000000
v 1.405518 3.995361 0.534424 0.498039 0.498039 0.498039 #1.000000
v 1.838623 3.301025 0.471924 0.498039 0.498039 0.498039 #1.000000
v 1.376953 2.156250 -1.890869 0.498039 0.498039 0.498039 #1.000000
v 1.159912 1.615723 -1.740234 0.498039 0.498039 0.498039 #1.000000
v 0.674805 2.175781 -2.315430 0.498039 0.498039 0.498039 #1.000000
v 0.674805 2.175781 -2.315430 0.498039 0.498039 0.498039 #1.000000
v 1.159912 1.615723 -1.740234 0.498039 0.498039 0.498039 #1.000000
v 0.642090 1.427002 -1.981201 0.498039 0.498039 0.498039 #1.000000
v 0.642090 1.427002 -1.981201 0.498039 0.498039 0.498039 #1.000000
v -0.070801 1.722900 -2.263184 0.498039 0.498039 0.498039 #1.000000
v 0.674805 2.175781 -2.315430 0.498039 0.498039 0.498039 #1.000000
v 0.674805 2.175781 -2.315430 0.498039 0.498039 0.498039 #1.000000
v -0.070801 1.722900 -2.263184 0.498039 0.498039 0.498039 #1.000000
v -0.073730 2.112305 -2.432861 0.498039 0.498039 0.498039 #1.000000
v -0.073730 2.112305 -2.432861 0.498039 0.498039 0.498039 #1.000000
v -0.075439 2.949219 -2.453369 0.498039 0.498039 0.498039 #1.000000
v 0.674805 2.175781 -2.315430 0.498039 0.498039 0.498039 #1.000000
v 0.674805 2.175781 -2.315430 0.498039 0.498039 0.498039 #1.000000
v -0.075439 2.949219 -2.453369 0.498039 0.498039 0.498039 #1.000000
v 0.752197 2.932373 -2.331299 0.498039 0.498039 0.498039 #1.000000
v 1.386719 4.188477 -0.869629 0.498039 0.498039 0.498039 #1.000000
v 1.159912 4.040283 -1.406738 0.498039 0.498039 0.498039 #1.000000
v 0.689941 4.620850 -0.839355 0.498039 0.498039 0.498039 #1.000000
v 0.689941 4.620850 -0.839355 0.498039 0.498039 0.498039 #1.000000
v 1.159912 4.040283 -1.406738 0.498039 0.498039 0.498039 #1.000000
v 0.642090 4.287354 -1.587646 0.498039 0.498039 0.498039 #1.000000
v -0.067871 4.407471 -1.670654 0.498039 0.498039 0.498039 #1.000000
v -0.058105 4.747070 -0.891602 0.498039 0.498039 0.498039 #1.000000
v 0.642090 4.287354 -1.587646 0.498039 0.498039 0.498039 #1.000000
v 0.642090 4.287354 -1.587646 0.498039 0.498039 0.498039 #1.000000
v -0.058105 4.747070 -0.891602 0.498039 0.498039 0.498039 #1.000000
v 0.689941 4.620850 -0.839355 0.498039 0.498039 0.498039 #1.000000
v -0.058105 4.747070 -0.891602 0.498039 0.498039 0.498039 #1.000000
v -0.047119 4.767578 -0.054932 0.498039 0.498039 0.498039 #1.000000
v 0.689941 4.620850 -0.839355 0.498039 0.498039 0.498039 #1.000000
v 0.689941 4.620850 -0.839355 0.498039 0.498039 0.498039 #1.000000
v -0.047119 4.767578 -0.054932 0.498039 0.498039 0.498039 #1.000000
v 0.778809 4.635986 -0.084229 0.498039 0.498039 0.498039 #1.000000
v 1.415527 3.167236 1.162109 0.498039 0.498039 0.498039 #1.000000
v 1.192627 3.706787 1.017578 0.498039 0.498039 0.498039 #1.000000
v 0.724854 3.145020 1.605225 0.498039 0.498039 0.498039 #1.000000
v 0.724854 3.145020 1.605225 0.498039 0.498039 0.498039 #1.000000
v 1.192627 3.706787 1.017578 0.498039 0.498039 0.498039 #1.000000
v 0.680664 3.893799 1.271973 0.498039 0.498039 0.498039 #1.000000
v -0.026367 3.984619 1.403076 0.498039 0.498039 0.498039 #1.000000
v -0.020508 3.205811 1.742432 0.498039 0.498039 0.498039 #1.000000
v 0.680664 3.893799 1.271973 0.498039 0.498039 0.498039 #1.000000
v 0.680664 3.893799 1.271973 0.498039 0.498039 0.498039 #1.000000
v -0.020508 3.205811 1.742432 0.498039 0.498039 0.498039 #1.000000
v 0.724854 3.145020 1.605225 0.498039 0.498039 0.498039 #1.000000
v -0.020508 3.205811 1.742432 0.498039 0.498039 0.498039 #1.000000
v -0.018555 2.369141 1.762939 0.498039 0.498039 0.498039 #1.000000
v 0.724854 3.145020 1.605225 0.498039 0.498039 0.498039 #1.000000
v 0.724854 3.145020 1.605225 0.498039 0.498039 0.498039 #1.000000
v -0.018555 2.369141 1.762939 0.498039 0.498039 0.498039 #1.000000
v 0.805420 2.388916 1.618896 0.498039 0.498039 0.498039 #1.000000
v 1.405518 1.135010 0.140869 0.498039 0.498039 0.498039 #1.000000
v 1.192627 1.282227 0.683838 0.498039 0.498039 0.498039 #1.000000
v 0.709717 0.699951 0.129150 0.498039 0.498039 0.498039 #1.000000
v 0.709717 0.699951 0.129150 0.498039 0.498039 0.498039 #1.000000
v 1.192627 1.282227 0.683838 0.498039 0.498039 0.498039 #1.000000
v 0.680664 1.033447 0.878662 0.498039 0.498039 0.498039 #1.000000
v -0.026367 0.910645 0.980225 0.498039 0.498039 0.498039 #1.000000
v -0.036133 0.571045 0.201172 0.498039 0.498039 0.498039 #1.000000
v 0.680664 1.033447 0.878662 0.498039 0.498039 0.498039 #1.000000
v 0.680664 1.033447 0.878662 0.498039 0.498039 0.498039 #1.000000
v -0.036133 0.571045 0.201172 0.498039 0.498039 0.498039 #1.000000
v 0.709717 0.699951 0.129150 0.498039 0.498039 0.498039 #1.000000
v -0.036133 0.571045 0.201172 0.498039 0.498039 0.498039 #1.000000
v -0.047119 0.550537 -0.635254 0.498039 0.498039 0.498039 #1.000000
v 0.709717 0.699951 0.129150 0.498039 0.498039 0.498039 #1.000000
v 0.709717 0.699951 0.129150 0.498039 0.498039 0.498039 #1.000000
v -0.047119 0.550537 -0.635254 0.498039 0.498039 0.498039 #1.000000
v 0.778809 0.685059 -0.627686 0.498039 0.498039 0.498039 #1.000000
v -1.509766 2.150879 -1.852539 0.498039 0.498039 0.498039 #1.000000
v -1.287109 1.611328 -1.708008 0.498039 0.498039 0.498039 #1.000000
v -1.933105 2.017334 -1.162354 0.498039 0.498039 0.498039 #1.000000
v -1.933105 2.017334 -1.162354 0.498039 0.498039 0.498039 #1.000000
v -1.287109 1.611328 -1.708008 0.498039 0.498039 0.498039 #1.000000
v -1.500000 1.322754 -1.224854 0.498039 0.498039 0.498039 #1.000000
v -1.598389 1.119141 -0.536133 0.498039 0.498039 0.498039 #1.000000
v -2.041016 1.836914 -0.431396 0.498039 0.498039 0.498039 #1.000000
v -1.500000 1.322754 -1.224854 0.498039 0.498039 0.498039 #1.000000
v -1.500000 1.322754 -1.224854 0.498039 0.498039 0.498039 #1.000000
v -2.041016 1.836914 -0.431396 0.498039 0.498039 0.498039 #1.000000
v -1.933105 2.017334 -1.162354 0.498039 0.498039 0.498039 #1.000000
v -2.041016 1.836914 -0.431396 0.498039 0.498039 0.498039 #1.000000
v -2.175293 2.655273 -0.316895 0.498039 0.498039 0.498039 #1.000000
v -1.933105 2.017334 -1.162354 0.498039 0.498039 0.498039 #1.000000
v -1.933105 2.017334 -1.162354 0.498039 0.498039 0.498039 #1.000000
v -2.175293 2.655273 -0.316895 0.498039 0.498039 0.498039 #1.000000
v -2.052002 2.768066 -1.137207 0.498039 0.498039 0.498039 #1.000000
v 1.415527 1.762695 0.968994 0.498039 0.498039 0.498039 #1.000000
v 1.192627 1.282227 0.683838 0.498039 0.498039 0.498039 #1.000000
v 1.838623 1.820313 0.268311 0.498039 0.498039 0.498039 #1.000000
v 1.838623 1.820313 0.268311 0.498039 0.498039 0.498039 #1.000000
v 1.192627 1.282227 0.683838 0.498039 0.498039 0.498039 #1.000000
v 1.405518 1.135010 0.140869 0.498039 0.498039 0.498039 #1.000000
v 1.504150 1.124756 -0.577148 0.498039 0.498039 0.498039 #1.000000
v 1.946533 1.844238 -0.484131 0.498039 0.498039 0.498039 #1.000000
v 1.405518 1.135010 0.140869 0.498039 0.498039 0.498039 #1.000000
v 1.405518 1.135010 0.140869 0.498039 0.498039 0.498039 #1.000000
v 1.946533 1.844238 -0.484131 0.498039 0.498039 0.498039 #1.000000
v 1.838623 1.820313 0.268311 0.498039 0.498039 0.498039 #1.000000
v 1.946533 1.844238 -0.484131 0.498039 0.498039 0.498039 #1.000000
v 2.080811 2.662842 -0.373291 0.498039 0.498039 0.498039 #1.000000
v 1.838623 1.820313 0.268311 0.498039 0.498039 0.498039 #1.000000
v 1.838623 1.820313 0.268311 0.498039 0.498039 0.498039 #1.000000
v 2.080811 2.662842 -0.373291 0.498039 0.498039 0.498039 #1.000000
v 1.957520 2.550049 0.446777 0.498039 0.498039 0.498039 #1.000000
v -1.287109 1.611328 -1.708008 0.498039 0.498039 0.498039 #1.000000
v -1.509766 2.150879 -1.852539 0.498039 0.498039 0.498039 #1.000000
v -0.797119 1.798828 -2.129150 0.498039 0.498039 0.498039 #1.000000
v -0.797119 1.798828 -2.129150 0.498039 0.498039 0.498039 #1.000000
v -1.509766 2.150879 -1.852539 0.498039 0.498039 0.498039 #1.000000
v -0.819336 2.173096 -2.295654 0.498039 0.498039 0.498039 #1.000000
v -1.619141 2.867676 -1.861572 0.498039 0.498039 0.498039 #1.000000
v -0.899902 2.929199 -2.309570 0.498039 0.498039 0.498039 #1.000000
v -1.509766 2.150879 -1.852539 0.498039 0.498039 0.498039 #1.000000
v -1.509766 2.150879 -1.852539 0.498039 0.498039 0.498039 #1.000000
v -0.899902 2.929199 -2.309570 0.498039 0.498039 0.498039 #1.000000
v -0.819336 2.173096 -2.295654 0.498039 0.498039 0.498039 #1.000000
v -0.899902 2.929199 -2.309570 0.498039 0.498039 0.498039 #1.000000
v -0.075439 2.949219 -2.453369 0.498039 0.498039 0.498039 #1.000000
v -0.819336 2.173096 -2.295654 0.498039 0.498039 0.498039 #1.000000
v -0.819336 2.173096 -2.295654 0.498039 0.498039 0.498039 #1.000000
v -0.075439 2.949219 -2.453369 0.498039 0.498039 0.498039 #1.000000
v -0.073730 2.112305 -2.432861 0.498039 0.498039 0.498039 #1.000000
v -1.509766 3.555420 -1.659424 0.498039 0.498039 0.498039 #1.000000
v -1.287109 4.035889 -1.374268 0.498039 0.498039 0.498039 #1.000000
v -0.819336 3.653564 -2.091797 0.498039 0.498039 0.498039 #1.000000
v -0.819336 3.653564 -2.091797 0.498039 0.498039 0.498039 #1.000000
v -1.287109 4.035889 -1.374268 0.498039 0.498039 0.498039 #1.000000
v -0.775146 4.284668 -1.569092 0.498039 0.498039 0.498039 #1.000000
v -0.067871 4.407471 -1.670654 0.498039 0.498039 0.498039 #1.000000
v -0.073730 3.749268 -2.207764 0.498039 0.498039 0.498039 #1.000000
v -0.775146 4.284668 -1.569092 0.498039 0.498039 0.498039 #1.000000
v -0.775146 4.284668 -1.569092 0.498039 0.498039 0.498039 #1.000000
v -0.073730 3.749268 -2.207764 0.498039 0.498039 0.498039 #1.000000
v -0.819336 3.653564 -2.091797 0.498039 0.498039 0.498039 #1.000000
v -0.073730 3.749268 -2.207764 0.498039 0.498039 0.498039 #1.000000
v -0.075439 2.949219 -2.453369 0.498039 0.498039 0.498039 #1.000000
v -0.819336 3.653564 -2.091797 0.498039 0.498039 0.498039 #1.000000
v -0.819336 3.653564 -2.091797 0.498039 0.498039 0.498039 #1.000000
v -0.075439 2.949219 -2.453369 0.498039 0.498039 0.498039 #1.000000
v -0.899902 2.929199 -2.309570 0.498039 0.498039 0.498039 #1.000000
v 0.642090 4.287354 -1.587646 0.498039 0.498039 0.498039 #1.000000
v 1.159912 4.040283 -1.406738 0.498039 0.498039 0.498039 #1.000000
v 0.674805 3.656250 -2.111572 0.498039 0.498039 0.498039 #1.000000
v 0.674805 3.656250 -2.111572 0.498039 0.498039 0.498039 #1.000000
v 1.159912 4.040283 -1.406738 0.498039 0.498039 0.498039 #1.000000
v 1.376953 3.560547 -1.697510 0.498039 0.498039 0.498039 #1.000000
v 1.483398 2.873291 -1.902588 0.498039 0.498039 0.498039 #1.000000
v 0.752197 2.932373 -2.331299 0.498039 0.498039 0.498039 #1.000000
v 1.376953 3.560547 -1.697510 0.498039 0.498039 0.498039 #1.000000
v 1.376953 3.560547 -1.697510 0.498039 0.498039 0.498039 #1.000000
v 0.752197 2.932373 -2.331299 0.498039 0.498039 0.498039 #1.000000
v 0.674805 3.656250 -2.111572 0.498039 0.498039 0.498039 #1.000000
v 0.752197 2.932373 -2.331299 0.498039 0.498039 0.498039 #1.000000
v -0.075439 2.949219 -2.453369 0.498039 0.498039 0.498039 #1.000000
v 0.674805 3.656250 -2.111572 0.498039 0.498039 0.498039 #1.000000
v 0.674805 3.656250 -2.111572 0.498039 0.498039 0.498039 #1.000000
v -0.075439 2.949219 -2.453369 0.498039 0.498039 0.498039 #1.000000
v -0.073730 3.749268 -2.207764 0.498039 0.498039 0.498039 #1.000000
v -0.775146 4.284668 -1.569092 0.498039 0.498039 0.498039 #1.000000
v -1.287109 4.035889 -1.374268 0.498039 0.498039 0.498039 #1.000000
v -0.804199 4.618164 -0.819580 0.498039 0.498039 0.498039 #1.000000
v -0.804199 4.618164 -0.819580 0.498039 0.498039 0.498039 #1.000000
v -1.287109 4.035889 -1.374268 0.498039 0.498039 0.498039 #1.000000
v -1.500000 4.183105 -0.831299 0.498039 0.498039 0.498039 #1.000000
v -1.598389 4.193359 -0.113037 0.498039 0.498039 0.498039 #1.000000
v -0.873291 4.633057 -0.062500 0.498039 0.498039 0.498039 #1.000000
v -1.500000 4.183105 -0.831299 0.498039 0.498039 0.498039 #1.000000
v -1.500000 4.183105 -0.831299 0.498039 0.498039 0.498039 #1.000000
v -0.873291 4.633057 -0.062500 0.498039 0.498039 0.498039 #1.000000
v -0.804199 4.618164 -0.819580 0.498039 0.498039 0.498039 #1.000000
v -0.873291 4.633057 -0.062500 0.498039 0.498039 0.498039 #1.000000
v -0.047119 4.767578 -0.054932 0.498039 0.498039 0.498039 #1.000000
v -0.804199 4.618164 -0.819580 0.498039 0.498039 0.498039 #1.000000
v -0.804199 4.618164 -0.819580 0.498039 0.498039 0.498039 #1.000000
v -0.047119 4.767578 -0.054932 0.498039 0.498039 0.498039 #1.000000
v -0.058105 4.747070 -0.891602 0.498039 0.498039 0.498039 #1.000000
v -1.481201 3.989990 0.572754 0.498039 0.498039 0.498039 #1.000000
v -1.254395 3.702393 1.049805 0.498039 0.498039 0.498039 #1.000000
v -0.784180 4.414551 0.660400 0.498039 0.498039 0.498039 #1.000000
v -0.784180 4.414551 0.660400 0.498039 0.498039 0.498039 #1.000000
v -1.254395 3.702393 1.049805 0.498039 0.498039 0.498039 #1.000000
v -0.736572 3.891113 1.290771 0.498039 0.498039 0.498039 #1.000000
v -0.026367 3.984619 1.403076 0.498039 0.498039 0.498039 #1.000000
v -0.036133 4.521973 0.744873 0.498039 0.498039 0.498039 #1.000000
v -0.736572 3.891113 1.290771 0.498039 0.498039 0.498039 #1.000000
v -0.736572 3.891113 1.290771 0.498039 0.498039 0.498039 #1.000000
v -0.036133 4.521973 0.744873 0.498039 0.498039 0.498039 #1.000000
v -0.784180 4.414551 0.660400 0.498039 0.498039 0.498039 #1.000000
v -0.036133 4.521973 0.744873 0.498039 0.498039 0.498039 #1.000000
v -0.047119 4.767578 -0.054932 0.498039 0.498039 0.498039 #1.000000
v -0.784180 4.414551 0.660400 0.498039 0.498039 0.498039 #1.000000
v -0.784180 4.414551 0.660400 0.498039 0.498039 0.498039 #1.000000
v -0.047119 4.767578 -0.054932 0.498039 0.498039 0.498039 #1.000000
v -0.873291 4.633057 -0.062500 0.498039 0.498039 0.498039 #1.000000
v 0.680664 3.893799 1.271973 0.498039 0.498039 0.498039 #1.000000
v 1.192627 3.706787 1.017578 0.498039 0.498039 0.498039 #1.000000
v 0.709717 4.417236 0.640625 0.498039 0.498039 0.498039 #1.000000
v 0.709717 4.417236 0.640625 0.498039 0.498039 0.498039 #1.000000
v 1.192627 3.706787 1.017578 0.498039 0.498039 0.498039 #1.000000
v 1.405518 3.995361 0.534424 0.498039 0.498039 0.498039 #1.000000
v 1.504150 4.198975 -0.154053 0.498039 0.498039 0.498039 #1.000000
v 0.778809 4.635986 -0.084229 0.498039 0.498039 0.498039 #1.000000
v 1.405518 3.995361 0.534424 0.498039 0.498039 0.498039 #1.000000
v 1.405518 3.995361 0.534424 0.498039 0.498039 0.498039 #1.000000
v 0.778809 4.635986 -0.084229 0.498039 0.498039 0.498039 #1.000000
v 0.709717 4.417236 0.640625 0.498039 0.498039 0.498039 #1.000000
v 0.778809 4.635986 -0.084229 0.498039 0.498039 0.498039 #1.000000
v -0.047119 4.767578 -0.054932 0.498039 0.498039 0.498039 #1.000000
v 0.709717 4.417236 0.640625 0.498039 0.498039 0.498039 #1.000000
v 0.709717 4.417236 0.640625 0.498039 0.498039 0.498039 #1.000000
v -0.047119 4.767578 -0.054932 0.498039 0.498039 0.498039 #1.000000
v -0.036133 4.521973 0.744873 0.498039 0.498039 0.498039 #1.000000
v -0.736572 3.891113 1.290771 0.498039 0.498039 0.498039 #1.000000
v -1.254395 3.702393 1.049805 0.498039 0.498039 0.498039 #1.000000
v -0.769287 3.142334 1.625000 0.498039 0.498039 0.498039 #1.000000
v -0.769287 3.142334 1.625000 0.498039 0.498039 0.498039 #1.000000
v -1.254395 3.702393 1.049805 0.498039 0.498039 0.498039 #1.000000
v -1.471436 3.161865 1.200439 0.498039 0.498039 0.498039 #1.000000
v -1.577637 2.444824 1.212158 0.498039 0.498039 0.498039 #1.000000
v -0.846436 2.385742 1.640869 0.498039 0.498039 0.498039 #1.000000
v -1.471436 3.161865 1.200439 0.498039 0.498039 0.498039 #1.000000
v -1.471436 3.161865 1.200439 0.498039 0.498039 0.498039 #1.000000
v -0.846436 2.385742 1.640869 0.498039 0.498039 0.498039 #1.000000
v -0.769287 3.142334 1.625000 0.498039 0.498039 0.498039 #1.000000
v -0.846436 2.385742 1.640869 0.498039 0.498039 0.498039 #1.000000
v -0.018555 2.369141 1.762939 0.498039 0.498039 0.498039 #1.000000
v -0.769287 3.142334 1.625000 0.498039 0.498039 0.498039 #1.000000
v -0.769287 3.142334 1.625000 0.498039 0.498039 0.498039 #1.000000
v -0.018555 2.369141 1.762939 0.498039 0.498039 0.498039 #1.000000
v -0.020508 3.205811 1.742432 0.498039 0.498039 0.498039 #1.000000
v -1.471436 1.757568 1.007080 0.498039 0.498039 0.498039 #1.000000
v -1.254395 1.277832 0.716309 0.498039 0.498039 0.498039 #1.000000
v -0.769287 1.661865 1.421143 0.498039 0.498039 0.498039 #1.000000
v -0.769287 1.661865 1.421143 0.498039 0.498039 0.498039 #1.000000
v -1.254395 1.277832 0.716309 0.498039 0.498039 0.498039 #1.000000
v -0.736572 1.031006 0.897217 0.498039 0.498039 0.498039 #1.000000
v -0.736572 1.031006 0.897217 0.498039 0.498039 0.498039 #1.000000
v -0.023438 1.239746 1.248779 0.498039 0.498039 0.498039 #1.000000
v -0.769287 1.661865 1.421143 0.498039 0.498039 0.498039 #1.000000
v -0.769287 1.661865 1.421143 0.498039 0.498039 0.498039 #1.000000
v -0.023438 1.239746 1.248779 0.498039 0.498039 0.498039 #1.000000
v -0.020508 1.568848 1.517334 0.498039 0.498039 0.498039 #1.000000
v -0.020508 1.568848 1.517334 0.498039 0.498039 0.498039 #1.000000
v -0.018555 2.369141 1.762939 0.498039 0.498039 0.498039 #1.000000
v -0.769287 1.661865 1.421143 0.498039 0.498039 0.498039 #1.000000
v -0.769287 1.661865 1.421143 0.498039 0.498039 0.498039 #1.000000
v -0.018555 2.369141 1.762939 0.498039 0.498039 0.498039 #1.000000
v -0.846436 2.385742 1.640869 0.498039 0.498039 0.498039 #1.000000
v 1.192627 1.282227 0.683838 0.498039 0.498039 0.498039 #1.000000
v 1.415527 1.762695 0.968994 0.498039 0.498039 0.498039 #1.000000
v 0.702881 1.348877 1.140137 0.498039 0.498039 0.498039 #1.000000
v 0.702881 1.348877 1.140137 0.498039 0.498039 0.498039 #1.000000
v 1.415527 1.762695 0.968994 0.498039 0.498039 0.498039 #1.000000
v 0.724854 1.664551 1.401367 0.498039 0.498039 0.498039 #1.000000
v 1.524658 2.450439 1.171143 0.498039 0.498039 0.498039 #1.000000
v 0.805420 2.388916 1.618896 0.498039 0.498039 0.498039 #1.000000
v 1.415527 1.762695 0.968994 0.498039 0.498039 0.498039 #1.000000
v 1.415527 1.762695 0.968994 0.498039 0.498039 0.498039 #1.000000
v 0.805420 2.388916 1.618896 0.498039 0.498039 0.498039 #1.000000
v 0.724854 1.664551 1.401367 0.498039 0.498039 0.498039 #1.000000
v 0.805420 2.388916 1.618896 0.498039 0.498039 0.498039 #1.000000
v -0.018555 2.369141 1.762939 0.498039 0.498039 0.498039 #1.000000
v 0.724854 1.664551 1.401367 0.498039 0.498039 0.498039 #1.000000
v 0.724854 1.664551 1.401367 0.498039 0.498039 0.498039 #1.000000
v -0.018555 2.369141 1.762939 0.498039 0.498039 0.498039 #1.000000
v -0.020508 1.568848 1.517334 0.498039 0.498039 0.498039 #1.000000
v -0.736572 1.031006 0.897217 0.498039 0.498039 0.498039 #1.000000
v -1.254395 1.277832 0.716309 0.498039 0.498039 0.498039 #1.000000
v -0.784180 0.697266 0.148926 0.498039 0.498039 0.498039 #1.000000
v -0.784180 0.697266 0.148926 0.498039 0.498039 0.498039 #1.000000
v -1.254395 1.277832 0.716309 0.498039 0.498039 0.498039 #1.000000
v -1.481201 1.129639 0.179199 0.498039 0.498039 0.498039 #1.000000
v -1.598389 1.119141 -0.536133 0.498039 0.498039 0.498039 #1.000000
v -0.873291 0.682129 -0.605957 0.498039 0.498039 0.498039 #1.000000
v -1.481201 1.129639 0.179199 0.498039 0.498039 0.498039 #1.000000
v -1.481201 1.129639 0.179199 0.498039 0.498039 0.498039 #1.000000
v -0.873291 0.682129 -0.605957 0.498039 0.498039 0.498039 #1.000000
v -0.784180 0.697266 0.148926 0.498039 0.498039 0.498039 #1.000000
v -0.873291 0.682129 -0.605957 0.498039 0.498039 0.498039 #1.000000
v -0.047119 0.550537 -0.635254 0.498039 0.498039 0.498039 #1.000000
v -0.784180 0.697266 0.148926 0.498039 0.498039 0.498039 #1.000000
v -0.784180 0.697266 0.148926 0.498039 0.498039 0.498039 #1.000000
v -0.047119 0.550537 -0.635254 0.498039 0.498039 0.498039 #1.000000
v -0.036133 0.571045 0.201172 0.498039 0.498039 0.498039 #1.000000
v -1.500000 1.322754 -1.224854 0.498039 0.498039 0.498039 #1.000000
v -1.287109 1.611328 -1.708008 0.498039 0.498039 0.498039 #1.000000
v -0.804199 0.900879 -1.331055 0.498039 0.498039 0.498039 #1.000000
v -0.804199 0.900879 -1.331055 0.498039 0.498039 0.498039 #1.000000
v -1.287109 1.611328 -1.708008 0.498039 0.498039 0.498039 #1.000000
v -0.775146 1.424316 -1.962402 0.498039 0.498039 0.498039 #1.000000
v -0.067871 1.333496 -2.093506 0.498039 0.498039 0.498039 #1.000000
v -0.058105 0.796143 -1.435303 0.498039 0.498039 0.498039 #1.000000
v -0.775146 1.424316 -1.962402 0.498039 0.498039 0.498039 #1.000000
v -0.775146 1.424316 -1.962402 0.498039 0.498039 0.498039 #1.000000
v -0.058105 0.796143 -1.435303 0.498039 0.498039 0.498039 #1.000000
v -0.804199 0.900879 -1.331055 0.498039 0.498039 0.498039 #1.000000
v -0.058105 0.796143 -1.435303 0.498039 0.498039 0.498039 #1.000000
v -0.047119 0.550537 -0.635254 0.498039 0.498039 0.498039 #1.000000
v -0.804199 0.900879 -1.331055 0.498039 0.498039 0.498039 #1.000000
v -0.804199 0.900879 -1.331055 0.498039 0.498039 0.498039 #1.000000
v -0.047119 0.550537 -0.635254 0.498039 0.498039 0.498039 #1.000000
v -0.873291 0.682129 -0.605957 0.498039 0.498039 0.498039 #1.000000
v 0.642090 1.427002 -1.981201 0.498039 0.498039 0.498039 #1.000000
v 1.159912 1.615723 -1.740234 0.498039 0.498039 0.498039 #1.000000
v 0.689941 0.903564 -1.350830 0.498039 0.498039 0.498039 #1.000000
v 0.689941 0.903564 -1.350830 0.498039 0.498039 0.498039 #1.000000
v 1.159912 1.615723 -1.740234 0.498039 0.498039 0.498039 #1.000000
v 1.386719 1.328125 -1.263184 0.498039 0.498039 0.498039 #1.000000
v 1.504150 1.124756 -0.577148 0.498039 0.498039 0.498039 #1.000000
v 0.778809 0.685059 -0.627686 0.498039 0.498039 0.498039 #1.000000
v 1.386719 1.328125 -1.263184 0.498039 0.498039 0.498039 #1.000000
v 1.386719 1.328125 -1.263184 0.498039 0.498039 0.498039 #1.000000
v 0.778809 0.685059 -0.627686 0.498039 0.498039 0.498039 #1.000000
v 0.689941 0.903564 -1.350830 0.498039 0.498039 0.498039 #1.000000
v 0.778809 0.685059 -0.627686 0.498039 0.498039 0.498039 #1.000000
v -0.047119 0.550537 -0.635254 0.498039 0.498039 0.498039 #1.000000
v 0.689941 0.903564 -1.350830 0.498039 0.498039 0.498039 #1.000000
v 0.689941 0.903564 -1.350830 0.498039 0.498039 0.498039 #1.000000
v -0.047119 0.550537 -0.635254 0.498039 0.498039 0.498039 #1.000000
v -0.058105 0.796143 -1.435303 0.498039 0.498039 0.498039 #1.000000
v -1.481201 1.129639 0.179199 0.498039 0.498039 0.498039 #1.000000
v -1.254395 1.277832 0.716309 0.498039 0.498039 0.498039 #1.000000
v -1.913086 1.813477 0.317871 0.498039 0.498039 0.498039 #1.000000
v -1.913086 1.813477 0.317871 0.498039 0.498039 0.498039 #1.000000
v -1.254395 1.277832 0.716309 0.498039 0.498039 0.498039 #1.000000
v -1.471436 1.757568 1.007080 0.498039 0.498039 0.498039 #1.000000
v -1.577637 2.444824 1.212158 0.498039 0.498039 0.498039 #1.000000
v -2.030029 2.542969 0.499512 0.498039 0.498039 0.498039 #1.000000
v -1.471436 1.757568 1.007080 0.498039 0.498039 0.498039 #1.000000
v -1.471436 1.757568 1.007080 0.498039 0.498039 0.498039 #1.000000
v -2.030029 2.542969 0.499512 0.498039 0.498039 0.498039 #1.000000
v -1.913086 1.813477 0.317871 0.498039 0.498039 0.498039 #1.000000
v -2.030029 2.542969 0.499512 0.498039 0.498039 0.498039 #1.000000
v -2.175293 2.655273 -0.316895 0.498039 0.498039 0.498039 #1.000000
v -1.913086 1.813477 0.317871 0.498039 0.498039 0.498039 #1.000000
v -1.913086 1.813477 0.317871 0.498039 0.498039 0.498039 #1.000000
v -2.175293 2.655273 -0.316895 0.498039 0.498039 0.498039 #1.000000
v -2.041016 1.836914 -0.431396 0.498039 0.498039 0.498039 #1.000000
v -1.471436 3.161865 1.200439 0.498039 0.498039 0.498039 #1.000000
v -1.254395 3.702393 1.049805 0.498039 0.498039 0.498039 #1.000000
v -1.913086 3.294189 0.521484 0.498039 0.498039 0.498039 #1.000000
v -1.913086 3.294189 0.521484 0.498039 0.498039 0.498039 #1.000000
v -1.254395 3.702393 1.049805 0.498039 0.498039 0.498039 #1.000000
v -1.481201 3.989990 0.572754 0.498039 0.498039 0.498039 #1.000000
v -1.598389 4.193359 -0.113037 0.498039 0.498039 0.498039 #1.000000
v -2.041016 3.473877 -0.206055 0.498039 0.498039 0.498039 #1.000000
v -1.481201 3.989990 0.572754 0.498039 0.498039 0.498039 #1.000000
v -1.481201 3.989990 0.572754 0.498039 0.498039 0.498039 #1.000000
v -2.041016 3.473877 -0.206055 0.498039 0.498039 0.498039 #1.000000
v -1.913086 3.294189 0.521484 0.498039 0.498039 0.498039 #1.000000
v -2.041016 3.473877 -0.206055 0.498039 0.498039 0.498039 #1.000000
v -2.175293 2.655273 -0.316895 0.498039 0.498039 0.498039 #1.000000
v -1.913086 3.294189 0.521484 0.498039 0.498039 0.498039 #1.000000
v -1.913086 3.294189 0.521484 0.498039 0.498039 0.498039 #1.000000
v -2.175293 2.655273 -0.316895 0.498039 0.498039 0.498039 #1.000000
v -2.030029 2.542969 0.499512 0.498039 0.498039 0.498039 #1.000000
v -1.500000 4.183105 -0.831299 0.498039 0.498039 0.498039 #1.000000
v -1.287109 4.035889 -1.374268 0.498039 0.498039 0.498039 #1.000000
v -1.933105 3.497803 -0.958740 0.498039 0.498039 0.498039 #1.000000
v -1.933105 3.497803 -0.958740 0.498039 0.498039 0.498039 #1.000000
v -1.287109 4.035889 -1.374268 0.498039 0.498039 0.498039 #1.000000
v -1.509766 3.555420 -1.659424 0.498039 0.498039 0.498039 #1.000000
v -1.619141 2.867676 -1.861572 0.498039 0.498039 0.498039 #1.000000
v -2.052002 2.768066 -1.137207 0.498039 0.498039 0.498039 #1.000000
v -1.509766 3.555420 -1.659424 0.498039 0.498039 0.498039 #1.000000
v -1.509766 3.555420 -1.659424 0.498039 0.498039 0.498039 #1.000000
v -2.052002 2.768066 -1.137207 0.498039 0.498039 0.498039 #1.000000
v -1.933105 3.497803 -0.958740 0.498039 0.498039 0.498039 #1.000000
v -2.052002 2.768066 -1.137207 0.498039 0.498039 0.498039 #1.000000
v -2.175293 2.655273 -0.316895 0.498039 0.498039 0.498039 #1.000000
v -1.933105 3.497803 -0.958740 0.498039 0.498039 0.498039 #1.000000
v -1.933105 3.497803 -0.958740 0.498039 0.498039 0.498039 #1.000000
v -2.175293 2.655273 -0.316895 0.498039 0.498039 0.498039 #1.000000
v -2.041016 3.473877 -0.206055 0.498039 0.498039 0.498039 #1.000000
v 1.386719 1.328125 -1.263184 0.498039 0.498039 0.498039 #1.000000
v 1.159912 1.615723 -1.740234 0.498039 0.498039 0.498039 #1.000000
v 1.818604 2.024170 -1.211914 0.498039 0.498039 0.498039 #1.000000
v 1.818604 2.024170 -1.211914 0.498039 0.498039 0.498039 #1.000000
v 1.159912 1.615723 -1.740234 0.498039 0.498039 0.498039 #1.000000
v 1.376953 2.156250 -1.890869 0.498039 0.498039 0.498039 #1.000000
v 1.483398 2.873291 -1.902588 0.498039 0.498039 0.498039 #1.000000
v 1.935547 2.775391 -1.189941 0.498039 0.498039 0.498039 #1.000000
v 1.376953 2.156250 -1.890869 0.498039 0.498039 0.498039 #1.000000
v 1.376953 2.156250 -1.890869 0.498039 0.498039 0.498039 #1.000000
v 1.935547 2.775391 -1.189941 0.498039 0.498039 0.498039 #1.000000
v 1.818604 2.024170 -1.211914 0.498039 0.498039 0.498039 #1.000000
v 1.935547 2.775391 -1.189941 0.498039 0.498039 0.498039 #1.000000
v 2.080811 2.662842 -0.373291 0.498039 0.498039 0.498039 #1.000000
v 1.818604 2.024170 -1.211914 0.498039 0.498039 0.498039 #1.000000
v 1.818604 2.024170 -1.211914 0.498039 0.498039 0.498039 #1.000000
v 2.080811 2.662842 -0.373291 0.498039 0.498039 0.498039 #1.000000
v 1.946533 1.844238 -0.484131 0.498039 0.498039 0.498039 #1.000000
v 1.376953 3.560547 -1.697510 0.498039 0.498039 0.498039 #1.000000
v 1.159912 4.040283 -1.406738 0.498039 0.498039 0.498039 #1.000000
v 1.818604 3.504639 -1.008301 0.498039 0.498039 0.498039 #1.000000
v 1.818604 3.504639 -1.008301 0.498039 0.498039 0.498039 #1.000000
v 1.159912 4.040283 -1.406738 0.498039 0.498039 0.498039 #1.000000
v 1.386719 4.188477 -0.869629 0.498039 0.498039 0.498039 #1.000000
v 1.504150 4.198975 -0.154053 0.498039 0.498039 0.498039 #1.000000
v 1.946533 3.481201 -0.258789 0.498039 0.498039 0.498039 #1.000000
v 1.386719 4.188477 -0.869629 0.498039 0.498039 0.498039 #1.000000
v 1.386719 4.188477 -0.869629 0.498039 0.498039 0.498039 #1.000000
v 1.946533 3.481201 -0.258789 0.498039 0.498039 0.498039 #1.000000
v 1.818604 3.504639 -1.008301 0.498039 0.498039 0.498039 #1.000000
v 1.946533 3.481201 -0.258789 0.498039 0.498039 0.498039 #1.000000
v 2.080811 2.662842 -0.373291 0.498039 0.498039 0.498039 #1.000000
v 1.818604 3.504639 -1.008301 0.498039 0.498039 0.498039 #1.000000
v 1.818604 3.504639 -1.008301 0.498039 0.498039 0.498039 #1.000000
v 2.080811 2.662842 -0.373291 0.498039 0.498039 0.498039 #1.000000
v 1.935547 2.775391 -1.189941 0.498039 0.498039 0.498039 #1.000000
v 1.405518 3.995361 0.534424 0.498039 0.498039 0.498039 #1.000000
v 1.192627 3.706787 1.017578 0.498039 0.498039 0.498039 #1.000000
v 1.838623 3.301025 0.471924 0.498039 0.498039 0.498039 #1.000000
v 1.838623 3.301025 0.471924 0.498039 0.498039 0.498039 #1.000000
v 1.192627 3.706787 1.017578 0.498039 0.498039 0.498039 #1.000000
v 1.415527 3.167236 1.162109 0.498039 0.498039 0.498039 #1.000000
v 1.524658 2.450439 1.171143 0.498039 0.498039 0.498039 #1.000000
v 1.957520 2.550049 0.446777 0.498039 0.498039 0.498039 #1.000000
v 1.415527 3.167236 1.162109 0.498039 0.498039 0.498039 #1.000000
v 1.415527 3.167236 1.162109 0.498039 0.498039 0.498039 #1.000000
v 1.957520 2.550049 0.446777 0.498039 0.498039 0.498039 #1.000000
v 1.838623 3.301025 0.471924 0.498039 0.498039 0.498039 #1.000000
v 1.957520 2.550049 0.446777 0.498039 0.498039 0.498039 #1.000000
v 2.080811 2.662842 -0.373291 0.498039 0.498039 0.498039 #1.000000
v 1.838623 3.301025 0.471924 0.498039 0.498039 0.498039 #1.000000
v 1.838623 3.301025 0.471924 0.498039 0.498039 0.498039 #1.000000
v 2.080811 2.662842 -0.373291 0.498039 0.498039 0.498039 #1.000000
v 1.946533 3.481201 -0.258789 0.498039 0.498039 0.498039 #1.000000
v 0.642090 1.427002 -1.981201 0.498039 0.498039 0.498039 #1.000000
v -0.067871 1.333496 -2.093506 0.498039 0.498039 0.498039 #1.000000
v -0.070801 1.722900 -2.263184 0.498039 0.498039 0.498039 #1.000000
v -0.797119 1.798828 -2.129150 0.498039 0.498039 0.498039 #1.000000
v -0.070801 1.722900 -2.263184 0.498039 0.498039 0.498039 #1.000000
v -0.775146 1.424316 -1.962402 0.498039 0.498039 0.498039 #1.000000
v -0.775146 1.424316 -1.962402 0.498039 0.498039 0.498039 #1.000000
v -0.070801 1.722900 -2.263184 0.498039 0.498039 0.498039 #1.000000
v -0.067871 1.333496 -2.093506 0.498039 0.498039 0.498039 #1.000000
v -0.775146 1.424316 -1.962402 0.498039 0.498039 0.498039 #1.000000
v -1.287109 1.611328 -1.708008 0.498039 0.498039 0.498039 #1.000000
v -0.797119 1.798828 -2.129150 0.498039 0.498039 0.498039 #1.000000
v -0.736572 1.031006 0.897217 0.498039 0.498039 0.498039 #1.000000
v -0.026367 0.910645 0.980225 0.498039 0.498039 0.498039 #1.000000
v -0.023438 1.239746 1.248779 0.498039 0.498039 0.498039 #1.000000
v 0.702881 1.348877 1.140137 0.498039 0.498039 0.498039 #1.000000
v -0.023438 1.239746 1.248779 0.498039 0.498039 0.498039 #1.000000
v 0.680664 1.033447 0.878662 0.498039 0.498039 0.498039 #1.000000
v 0.680664 1.033447 0.878662 0.498039 0.498039 0.498039 #1.000000
v -0.023438 1.239746 1.248779 0.498039 0.498039 0.498039 #1.000000
v -0.026367 0.910645 0.980225 0.498039 0.498039 0.498039 #1.000000
v 0.680664 1.033447 0.878662 0.498039 0.498039 0.498039 #1.000000
v 1.192627 1.282227 0.683838 0.498039 0.498039 0.498039 #1.000000
v 0.702881 1.348877 1.140137 0.498039 0.498039 0.498039 #1.000000
vt 0.073242 0.765625 0.000000
vt 0.103027 0.597412 0.000000
vt 0.272705 0.765625 0.000000
vt 0.272705 0.765625 0.000000
vt 0.103027 0.597412 0.000000
vt 0.294434 0.588135 0.000000
vt 0.480225 0.292725 0.000000
vt 0.494629 0.209229 0.000000
vt 0.421143 0.292725 0.000000
vt 0.421143 0.292725 0.000000
vt 0.494629 0.209229 0.000000
vt 0.437012 0.204834 0.000000
vt 0.926514 0.765625 0.000000
vt 0.896973 0.934082 0.000000
vt 0.727051 0.765625 0.000000
vt 0.727051 0.765625 0.000000
vt 0.896973 0.934082 0.000000
vt 0.705322 0.943115 0.000000
vt 0.894775 0.292725 0.000000
vt 0.880371 0.375977 0.000000
vt 0.969971 0.292725 0.000000
vt 0.969971 0.292725 0.000000
vt 0.880371 0.375977 0.000000
vt 0.954102 0.380371 0.000000
vt 0.687500 0.110107 0.000000
vt 0.782227 0.122803 0.000000
vt 0.687500 0.195557 0.000000
vt 0.687500 0.195557 0.000000
vt 0.782227 0.122803 0.000000
vt 0.787354 0.204834 0.000000
vt 0.687500 0.485352 0.000000
vt 0.782227 0.462402 0.000000
vt 0.687500 0.396973 0.000000
vt 0.687500 0.396973 0.000000
vt 0.782227 0.462402 0.000000
vt 0.787354 0.380371 0.000000
vt 0.499756 0.483398 0.000000
vt 0.699951 0.505615 0.000000
vt 0.499756 0.569580 0.000000
vt 0.499756 0.569580 0.000000
vt 0.699951 0.505615 0.000000
vt 0.705322 0.588135 0.000000
vt 0.926514 0.765625 0.000000
vt 0.896729 0.933838 0.000000
vt 0.727051 0.765625 0.000000
vt 0.727051 0.765625 0.000000
vt 0.896729 0.933838 0.000000
vt 0.705322 0.943115 0.000000
vt 0.499756 1.134033 0.000000
vt 0.304932 1.108398 0.000000
vt 0.499756 0.961670 0.000000
vt 0.499756 0.961670 0.000000
vt 0.304932 1.108398 0.000000
vt 0.294434 0.943115 0.000000
vt 0.480225 0.110107 0.000000
vt 0.494629 0.122803 0.000000
vt 0.421143 0.195557 0.000000
vt 0.421143 0.195557 0.000000
vt 0.494629 0.122803 0.000000
vt 0.437012 0.204834 0.000000
vt 0.480225 0.292725 0.000000
vt 0.494629 0.375977 0.000000
vt 0.421143 0.292725 0.000000
vt 0.421143 0.292725 0.000000
vt 0.494629 0.375977 0.000000
vt 0.437012 0.380371 0.000000
vt 0.480225 0.475098 0.000000
vt 0.494629 0.462402 0.000000
vt 0.421143 0.389648 0.000000
vt 0.421143 0.389648 0.000000
vt 0.494629 0.462402 0.000000
vt 0.437012 0.380371 0.000000
vt 0.499756 1.134277 0.000000
vt 0.304932 1.108643 0.000000
vt 0.499756 0.961914 0.000000
vt 0.499756 0.961914 0.000000
vt 0.304932 1.108643 0.000000
vt 0.294434 0.943115 0.000000
vt 0.073242 0.765625 0.000000
vt 0.102783 0.597168 0.000000
vt 0.272705 0.765625 0.000000
vt 0.272705 0.765625 0.000000
vt 0.102783 0.597168 0.000000
vt 0.294434 0.588135 0.000000
vt 0.499756 0.483154 0.000000
vt 0.700195 0.505371 0.000000
vt 0.499756 0.569336 0.000000
vt 0.499756 0.569336 0.000000
vt 0.700195 0.505371 0.000000
vt 0.705322 0.588135 0.000000
vt 0.942627 0.475098 0.000000
vt 0.896484 0.462402 0.000000
vt 1.001953 0.389648 0.000000
vt 1.001953 0.389648 0.000000
vt 0.896484 0.462402 0.000000
vt 0.954102 0.380371 0.000000
vt 0.894775 0.292725 0.000000
vt 0.880371 0.209229 0.000000
vt 0.969971 0.292725 0.000000
vt 0.969971 0.292725 0.000000
vt 0.880371 0.209229 0.000000
vt 0.954102 0.204834 0.000000
vt 0.942627 0.110107 0.000000
vt 0.896484 0.122803 0.000000
vt 1.001953 0.195557 0.000000
vt 1.001953 0.195557 0.000000
vt 0.896484 0.122803 0.000000
vt 0.954102 0.204834 0.000000
vt 0.894775 0.292725 0.000000
vt 0.880371 0.375977 0.000000
vt 0.797852 0.292725 0.000000
vt 0.797852 0.292725 0.000000
vt 0.880371 0.375977 0.000000
vt 0.787354 0.380371 0.000000
vt 0.687500 0.485352 0.000000
vt 0.586914 0.478516 0.000000
vt 0.687500 0.396973 0.000000
vt 0.687500 0.396973 0.000000
vt 0.586914 0.478516 0.000000
vt 0.587646 0.387695 0.000000
vt 0.480225 0.292725 0.000000
vt 0.494629 0.209229 0.000000
vt 0.577148 0.292725 0.000000
vt 0.577148 0.292725 0.000000
vt 0.494629 0.209229 0.000000
vt 0.587646 0.204834 0.000000
vt 0.894775 0.292725 0.000000
vt 0.880371 0.209229 0.000000
vt 0.797852 0.292725 0.000000
vt 0.797852 0.292725 0.000000
vt 0.880371 0.209229 0.000000
vt 0.787354 0.204834 0.000000
vt 0.687500 0.110107 0.000000
vt 0.592773 0.122803 0.000000
vt 0.687500 0.195557 0.000000
vt 0.687500 0.195557 0.000000
vt 0.592773 0.122803 0.000000
vt 0.587646 0.204834 0.000000
vt 0.480225 0.292725 0.000000
vt 0.494629 0.375977 0.000000
vt 0.577148 0.292725 0.000000
vt 0.577148 0.292725 0.000000
vt 0.494629 0.375977 0.000000
vt 0.587646 0.387695 0.000000
vt 0.103027 0.597412 0.000000
vt 0.163330 0.475098 0.000000
vt 0.294434 0.588135 0.000000
vt 0.294434 0.588135 0.000000
vt 0.163330 0.475098 0.000000
vt 0.304932 0.422852 0.000000
vt 0.304932 0.422852 0.000000
vt 0.499756 0.483398 0.000000
vt 0.294434 0.588135 0.000000
vt 0.294434 0.588135 0.000000
vt 0.499756 0.483398 0.000000
vt 0.499756 0.569580 0.000000
vt 0.499756 0.569580 0.000000
vt 0.499756 0.765625 0.000000
vt 0.294434 0.588135 0.000000
vt 0.294434 0.588135 0.000000
vt 0.499756 0.765625 0.000000
vt 0.272705 0.765625 0.000000
vt 0.494629 0.209229 0.000000
vt 0.524170 0.148682 0.000000
vt 0.437012 0.204834 0.000000
vt 0.437012 0.204834 0.000000
vt 0.524170 0.148682 0.000000
vt 0.494629 0.122803 0.000000
vt 0.480225 0.110107 0.000000
vt 0.421143 0.195557 0.000000
vt 0.494629 0.122803 0.000000
vt 0.494629 0.122803 0.000000
vt 0.421143 0.195557 0.000000
vt 0.437012 0.204834 0.000000
vt 0.421143 0.195557 0.000000
vt 0.403320 0.292725 0.000000
vt 0.437012 0.204834 0.000000
vt 0.437012 0.204834 0.000000
vt 0.403320 0.292725 0.000000
vt 0.421143 0.292725 0.000000
vt 0.896973 0.934082 0.000000
vt 0.836426 1.056396 0.000000
vt 0.705322 0.943115 0.000000
vt 0.705322 0.943115 0.000000
vt 0.836426 1.056396 0.000000
vt 0.694824 1.108643 0.000000
vt 0.499756 1.134277 0.000000
vt 0.499756 0.961914 0.000000
vt 0.694824 1.108643 0.000000
vt 0.694824 1.108643 0.000000
vt 0.499756 0.961914 0.000000
vt 0.705322 0.943115 0.000000
vt 0.499756 0.961914 0.000000
vt 0.499756 0.765625 0.000000
vt 0.705322 0.943115 0.000000
vt 0.705322 0.943115 0.000000
vt 0.499756 0.765625 0.000000
vt 0.727051 0.765625 0.000000
vt 0.880371 0.375977 0.000000
vt 0.851074 0.436523 0.000000
vt 0.954102 0.380371 0.000000
vt 0.954102 0.380371 0.000000
vt 0.851074 0.436523 0.000000
vt 0.896484 0.462402 0.000000
vt 0.942627 0.475098 0.000000
vt 1.001953 0.389648 0.000000
vt 0.896484 0.462402 0.000000
vt 0.896484 0.462402 0.000000
vt 1.001953 0.389648 0.000000
vt 0.954102 0.380371 0.000000
vt 1.001953 0.389648 0.000000
vt 1.019775 0.292725 0.000000
vt 0.954102 0.380371 0.000000
vt 0.954102 0.380371 0.000000
vt 1.019775 0.292725 0.000000
vt 0.969971 0.292725 0.000000
vt 0.782227 0.122803 0.000000
vt 0.851074 0.148682 0.000000
vt 0.787354 0.204834 0.000000
vt 0.787354 0.204834 0.000000
vt 0.851074 0.148682 0.000000
vt 0.880371 0.209229 0.000000
vt 0.894775 0.292725 0.000000
vt 0.797852 0.292725 0.000000
vt 0.880371 0.209229 0.000000
vt 0.880371 0.209229 0.000000
vt 0.797852 0.292725 0.000000
vt 0.787354 0.204834 0.000000
vt 0.797852 0.292725 0.000000
vt 0.687500 0.292725 0.000000
vt 0.787354 0.204834 0.000000
vt 0.787354 0.204834 0.000000
vt 0.687500 0.292725 0.000000
vt 0.687500 0.195557 0.000000
vt 0.782227 0.462402 0.000000
vt 0.851074 0.436523 0.000000
vt 0.787354 0.380371 0.000000
vt 0.787354 0.380371 0.000000
vt 0.851074 0.436523 0.000000
vt 0.880371 0.375977 0.000000
vt 0.894775 0.292725 0.000000
vt 0.797852 0.292725 0.000000
vt 0.880371 0.375977 0.000000
vt 0.880371 0.375977 0.000000
vt 0.797852 0.292725 0.000000
vt 0.787354 0.380371 0.000000
vt 0.797852 0.292725 0.000000
vt 0.687500 0.292725 0.000000
vt 0.787354 0.380371 0.000000
vt 0.787354 0.380371 0.000000
vt 0.687500 0.292725 0.000000
vt 0.687500 0.396973 0.000000
vt 0.836426 0.475098 0.000000
vt 0.896729 0.597412 0.000000
vt 0.699951 0.505615 0.000000
vt 0.699951 0.505615 0.000000
vt 0.896729 0.597412 0.000000
vt 0.705322 0.588135 0.000000
vt 0.926514 0.765625 0.000000
vt 0.727051 0.765625 0.000000
vt 0.896729 0.597412 0.000000
vt 0.896729 0.597412 0.000000
vt 0.727051 0.765625 0.000000
vt 0.705322 0.588135 0.000000
vt 0.727051 0.765625 0.000000
vt 0.499756 0.765625 0.000000
vt 0.705322 0.588135 0.000000
vt 0.705322 0.588135 0.000000
vt 0.499756 0.765625 0.000000
vt 0.499756 0.569580 0.000000
vt 0.896729 0.933838 0.000000
vt 0.836426 1.056152 0.000000
vt 0.705322 0.943115 0.000000
vt 0.705322 0.943115 0.000000
vt 0.836426 1.056152 0.000000
vt 0.694824 1.108398 0.000000
vt 0.499756 1.134033 0.000000
vt 0.499756 0.961670 0.000000
vt 0.694824 1.108398 0.000000
vt 0.694824 1.108398 0.000000
vt 0.499756 0.961670 0.000000
vt 0.705322 0.943115 0.000000
vt 0.499756 0.961670 0.000000
vt 0.499756 0.765625 0.000000
vt 0.705322 0.943115 0.000000
vt 0.705322 0.943115 0.000000
vt 0.499756 0.765625 0.000000
vt 0.727051 0.765625 0.000000
vt 0.304932 1.108398 0.000000
vt 0.163330 1.056152 0.000000
vt 0.294434 0.943115 0.000000
vt 0.294434 0.943115 0.000000
vt 0.163330 1.056152 0.000000
vt 0.103027 0.933838 0.000000
vt 0.073242 0.765625 0.000000
vt 0.272705 0.765625 0.000000
vt 0.103027 0.933838 0.000000
vt 0.103027 0.933838 0.000000
vt 0.272705 0.765625 0.000000
vt 0.294434 0.943115 0.000000
vt 0.272705 0.765625 0.000000
vt 0.499756 0.765625 0.000000
vt 0.294434 0.943115 0.000000
vt 0.294434 0.943115 0.000000
vt 0.499756 0.765625 0.000000
vt 0.499756 0.961670 0.000000
vt 0.494629 0.122803 0.000000
vt 0.524170 0.148682 0.000000
vt 0.437012 0.204834 0.000000
vt 0.437012 0.204834 0.000000
vt 0.524170 0.148682 0.000000
vt 0.494629 0.209229 0.000000
vt 0.480225 0.292725 0.000000
vt 0.421143 0.292725 0.000000
vt 0.494629 0.209229 0.000000
vt 0.494629 0.209229 0.000000
vt 0.421143 0.292725 0.000000
vt 0.437012 0.204834 0.000000
vt 0.421143 0.292725 0.000000
vt 0.403320 0.292725 0.000000
vt 0.437012 0.204834 0.000000
vt 0.437012 0.204834 0.000000
vt 0.403320 0.292725 0.000000
vt 0.421143 0.195557 0.000000
vt 0.494629 0.375977 0.000000
vt 0.518311 0.452637 0.000000
vt 0.437012 0.380371 0.000000
vt 0.437012 0.380371 0.000000
vt 0.518311 0.452637 0.000000
vt 0.494629 0.462402 0.000000
vt 0.480225 0.475098 0.000000
vt 0.421143 0.389648 0.000000
vt 0.494629 0.462402 0.000000
vt 0.494629 0.462402 0.000000
vt 0.421143 0.389648 0.000000
vt 0.437012 0.380371 0.000000
vt 0.421143 0.389648 0.000000
vt 0.403320 0.292725 0.000000
vt 0.437012 0.380371 0.000000
vt 0.437012 0.380371 0.000000
vt 0.403320 0.292725 0.000000
vt 0.421143 0.292725 0.000000
vt 0.494629 0.462402 0.000000
vt 0.518311 0.452637 0.000000
vt 0.437012 0.380371 0.000000
vt 0.437012 0.380371 0.000000
vt 0.518311 0.452637 0.000000
vt 0.494629 0.375977 0.000000
vt 0.480225 0.292725 0.000000
vt 0.421143 0.292725 0.000000
vt 0.494629 0.375977 0.000000
vt 0.494629 0.375977 0.000000
vt 0.421143 0.292725 0.000000
vt 0.437012 0.380371 0.000000
vt 0.421143 0.292725 0.000000
vt 0.403320 0.292725 0.000000
vt 0.437012 0.380371 0.000000
vt 0.437012 0.380371 0.000000
vt 0.403320 0.292725 0.000000
vt 0.421143 0.389648 0.000000
vt 0.304932 1.108643 0.000000
vt 0.163330 1.056396 0.000000
vt 0.294434 0.943115 0.000000
vt 0.294434 0.943115 0.000000
vt 0.163330 1.056396 0.000000
vt 0.102783 0.934082 0.000000
vt 0.073242 0.765625 0.000000
vt 0.272705 0.765625 0.000000
vt 0.102783 0.934082 0.000000
vt 0.102783 0.934082 0.000000
vt 0.272705 0.765625 0.000000
vt 0.294434 0.943115 0.000000
vt 0.272705 0.765625 0.000000
vt 0.499756 0.765625 0.000000
vt 0.294434 0.943115 0.000000
vt 0.294434 0.943115 0.000000
vt 0.499756 0.765625 0.000000
vt 0.499756 0.961914 0.000000
vt 0.102783 0.597168 0.000000
vt 0.163330 0.474854 0.000000
vt 0.294434 0.588135 0.000000
vt 0.294434 0.588135 0.000000
vt 0.163330 0.474854 0.000000
vt 0.304932 0.422607 0.000000
vt 0.304932 0.422607 0.000000
vt 0.499756 0.483154 0.000000
vt 0.294434 0.588135 0.000000
vt 0.294434 0.588135 0.000000
vt 0.499756 0.483154 0.000000
vt 0.499756 0.569336 0.000000
vt 0.499756 0.569336 0.000000
vt 0.499756 0.765625 0.000000
vt 0.294434 0.588135 0.000000
vt 0.294434 0.588135 0.000000
vt 0.499756 0.765625 0.000000
vt 0.272705 0.765625 0.000000
vt 0.836426 0.474854 0.000000
vt 0.896973 0.597168 0.000000
vt 0.700195 0.505371 0.000000
vt 0.700195 0.505371 0.000000
vt 0.896973 0.597168 0.000000
vt 0.705322 0.588135 0.000000
vt 0.926514 0.765625 0.000000
vt 0.727051 0.765625 0.000000
vt 0.896973 0.597168 0.000000
vt 0.896973 0.597168 0.000000
vt 0.727051 0.765625 0.000000
vt 0.705322 0.588135 0.000000
vt 0.727051 0.765625 0.000000
vt 0.499756 0.765625 0.000000
vt 0.705322 0.588135 0.000000
vt 0.705322 0.588135 0.000000
vt 0.499756 0.765625 0.000000
vt 0.499756 0.569336 0.000000
vt 0.896484 0.462402 0.000000
vt 0.851074 0.436523 0.000000
vt 0.954102 0.380371 0.000000
vt 0.954102 0.380371 0.000000
vt 0.851074 0.436523 0.000000
vt 0.880371 0.375977 0.000000
vt 0.894775 0.292725 0.000000
vt 0.969971 0.292725 0.000000
vt 0.880371 0.375977 0.000000
vt 0.880371 0.375977 0.000000
vt 0.969971 0.292725 0.000000
vt 0.954102 0.380371 0.000000
vt 0.969971 0.292725 0.000000
vt 1.019775 0.292725 0.000000
vt 0.954102 0.380371 0.000000
vt 0.954102 0.380371 0.000000
vt 1.019775 0.292725 0.000000
vt 1.001953 0.389648 0.000000
vt 0.880371 0.209229 0.000000
vt 0.851074 0.148682 0.000000
vt 0.954102 0.204834 0.000000
vt 0.954102 0.204834 0.000000
vt 0.851074 0.148682 0.000000
vt 0.896484 0.122803 0.000000
vt 0.942627 0.110107 0.000000
vt 1.001953 0.195557 0.000000
vt 0.896484 0.122803 0.000000
vt 0.896484 0.122803 0.000000
vt 1.001953 0.195557 0.000000
vt 0.954102 0.204834 0.000000
vt 1.001953 0.195557 0.000000
vt 1.019775 0.292725 0.000000
vt 0.954102 0.204834 0.000000
vt 0.954102 0.204834 0.000000
vt 1.019775 0.292725 0.000000
vt 0.969971 0.292725 0.000000
vt 0.896484 0.122803 0.000000
vt 0.851074 0.148682 0.000000
vt 0.954102 0.204834 0.000000
vt 0.954102 0.204834 0.000000
vt 0.851074 0.148682 0.000000
vt 0.880371 0.209229 0.000000
vt 0.894775 0.292725 0.000000
vt 0.969971 0.292725 0.000000
vt 0.880371 0.209229 0.000000
vt 0.880371 0.209229 0.000000
vt 0.969971 0.292725 0.000000
vt 0.954102 0.204834 0.000000
vt 0.969971 0.292725 0.000000
vt 1.019775 0.292725 0.000000
vt 0.954102 0.204834 0.000000
vt 0.954102 0.204834 0.000000
vt 1.019775 0.292725 0.000000
vt 1.001953 0.195557 0.000000
vt 0.880371 0.375977 0.000000
vt 0.851074 0.436523 0.000000
vt 0.787354 0.380371 0.000000
vt 0.787354 0.380371 0.000000
vt 0.851074 0.436523 0.000000
vt 0.782227 0.462402 0.000000
vt 0.687500 0.485352 0.000000
vt 0.687500 0.396973 0.000000
vt 0.782227 0.462402 0.000000
vt 0.782227 0.462402 0.000000
vt 0.687500 0.396973 0.000000
vt 0.787354 0.380371 0.000000
vt 0.687500 0.396973 0.000000
vt 0.687500 0.292725 0.000000
vt 0.787354 0.380371 0.000000
vt 0.787354 0.380371 0.000000
vt 0.687500 0.292725 0.000000
vt 0.797852 0.292725 0.000000
vt 0.586914 0.478516 0.000000
vt 0.518311 0.452637 0.000000
vt 0.587646 0.387695 0.000000
vt 0.587646 0.387695 0.000000
vt 0.518311 0.452637 0.000000
vt 0.494629 0.375977 0.000000
vt 0.480225 0.292725 0.000000
vt 0.577148 0.292725 0.000000
vt 0.494629 0.375977 0.000000
vt 0.494629 0.375977 0.000000
vt 0.577148 0.292725 0.000000
vt 0.587646 0.387695 0.000000
vt 0.577148 0.292725 0.000000
vt 0.687500 0.292725 0.000000
vt 0.587646 0.387695 0.000000
vt 0.587646 0.387695 0.000000
vt 0.687500 0.292725 0.000000
vt 0.687500 0.396973 0.000000
vt 0.494629 0.209229 0.000000
vt 0.524170 0.148682 0.000000
vt 0.587646 0.204834 0.000000
vt 0.587646 0.204834 0.000000
vt 0.524170 0.148682 0.000000
vt 0.592773 0.122803 0.000000
vt 0.687500 0.110107 0.000000
vt 0.687500 0.195557 0.000000
vt 0.592773 0.122803 0.000000
vt 0.592773 0.122803 0.000000
vt 0.687500 0.195557 0.000000
vt 0.587646 0.204834 0.000000
vt 0.687500 0.195557 0.000000
vt 0.687500 0.292725 0.000000
vt 0.587646 0.204834 0.000000
vt 0.587646 0.204834 0.000000
vt 0.687500 0.292725 0.000000
vt 0.577148 0.292725 0.000000
vt 0.880371 0.209229 0.000000
vt 0.851074 0.148682 0.000000
vt 0.787354 0.204834 0.000000
vt 0.787354 0.204834 0.000000
vt 0.851074 0.148682 0.000000
vt 0.782227 0.122803 0.000000
vt 0.687500 0.110107 0.000000
vt 0.687500 0.195557 0.000000
vt 0.782227 0.122803 0.000000
vt 0.782227 0.122803 0.000000
vt 0.687500 0.195557 0.000000
vt 0.787354 0.204834 0.000000
vt 0.687500 0.195557 0.000000
vt 0.687500 0.292725 0.000000
vt 0.787354 0.204834 0.000000
vt 0.787354 0.204834 0.000000
vt 0.687500 0.292725 0.000000
vt 0.797852 0.292725 0.000000
vt 0.592773 0.122803 0.000000
vt 0.524170 0.148682 0.000000
vt 0.587646 0.204834 0.000000
vt 0.587646 0.204834 0.000000
vt 0.524170 0.148682 0.000000
vt 0.494629 0.209229 0.000000
vt 0.480225 0.292725 0.000000
vt 0.577148 0.292725 0.000000
vt 0.494629 0.209229 0.000000
vt 0.494629 0.209229 0.000000
vt 0.577148 0.292725 0.000000
vt 0.587646 0.204834 0.000000
vt 0.577148 0.292725 0.000000
vt 0.687500 0.292725 0.000000
vt 0.587646 0.204834 0.000000
vt 0.587646 0.204834 0.000000
vt 0.687500 0.292725 0.000000
vt 0.687500 0.195557 0.000000
vt 0.494629 0.375977 0.000000
vt 0.518311 0.452637 0.000000
vt 0.587646 0.387695 0.000000
vt 0.587646 0.387695 0.000000
vt 0.518311 0.452637 0.000000
vt 0.586914 0.478516 0.000000
vt 0.687500 0.485352 0.000000
vt 0.687500 0.396973 0.000000
vt 0.586914 0.478516 0.000000
vt 0.586914 0.478516 0.000000
vt 0.687500 0.396973 0.000000
vt 0.587646 0.387695 0.000000
vt 0.687500 0.396973 0.000000
vt 0.687500 0.292725 0.000000
vt 0.587646 0.387695 0.000000
vt 0.587646 0.387695 0.000000
vt 0.687500 0.292725 0.000000
vt 0.577148 0.292725 0.000000
vt 0.077393 0.413574 0.000000
vt 0.154541 0.285400 0.000000
vt 0.212646 0.333496 0.000000
vt 0.324707 0.229004 0.000000
vt 0.212646 0.333496 0.000000
vt 0.266113 0.185791 0.000000
vt 0.266113 0.185791 0.000000
vt 0.212646 0.333496 0.000000
vt 0.154541 0.285400 0.000000
vt 0.266113 0.185791 0.000000
vt 0.369873 0.132324 0.000000
vt 0.324707 0.229004 0.000000
vt 0.027344 0.424561 0.000000
vt 0.133301 0.259033 0.000000
vt 0.199219 0.314453 0.000000
vt 0.345215 0.175781 0.000000
vt 0.199219 0.314453 0.000000
vt 0.278564 0.126465 0.000000
vt 0.278564 0.126465 0.000000
vt 0.199219 0.314453 0.000000
vt 0.133301 0.259033 0.000000
vt 0.278564 0.126465 0.000000
vt 0.409668 0.051758 0.000000
vt 0.345215 0.175781 0.000000
vn -0.697510 -0.097412 -0.709717
vn -0.662842 0.215088 -0.716797
vn -0.399902 -0.124756 -0.907715
vn -0.399902 -0.124756 -0.907715
vn -0.662842 0.215088 -0.716797
vn -0.315918 0.251709 -0.914551
vn -0.707031 -0.701660 0.086914
vn -0.667725 -0.709229 -0.225098
vn -0.412109 -0.903076 0.118652
vn -0.412109 -0.903076 0.118652
vn -0.667725 -0.709229 -0.225098
vn -0.344238 -0.909668 -0.231689
vn -0.716309 0.094971 0.690918
vn -0.680908 -0.217529 0.699219
vn -0.424316 0.123291 0.896973
vn -0.424316 0.123291 0.896973
vn -0.680908 -0.217529 0.699219
vn -0.360596 -0.227783 0.904297
vn -0.707031 0.699219 -0.105713
vn -0.676025 0.706787 0.207275
vn -0.412109 0.901611 -0.129395
vn -0.412109 0.901611 -0.129395
vn -0.676025 0.706787 0.207275
vn -0.353516 0.908447 0.222656
vn 0.716309 -0.094971 -0.690918
vn 0.657715 0.242432 -0.712891
vn 0.916260 -0.054443 -0.396240
vn 0.916260 -0.054443 -0.396240
vn 0.657715 0.242432 -0.712891
vn 0.874023 0.299805 -0.381836
vn -0.716309 0.094971 0.690918
vn -0.657715 0.426025 0.620850
vn -0.916260 0.054443 0.396240
vn -0.916260 0.054443 0.396240
vn -0.657715 0.426025 0.620850
vn -0.874023 0.391602 0.286621
vn 0.012695 0.404785 -0.914063
vn 0.357910 0.400146 -0.843506
vn 0.052734 0.256836 -0.964844
vn 0.052734 0.256836 -0.964844
vn 0.357910 0.400146 -0.843506
vn 0.326172 0.189697 -0.925781
vn 0.716309 -0.094971 -0.690918
vn 0.680908 -0.398193 -0.614258
vn 0.424316 -0.123291 -0.896973
vn 0.424316 -0.123291 -0.896973
vn 0.680908 -0.398193 -0.614258
vn 0.360596 -0.463623 -0.809082
vn 0.009277 -0.796631 -0.604004
vn -0.301758 -0.757813 -0.578125
vn 0.011963 -0.532471 -0.846191
vn 0.011963 -0.532471 -0.846191
vn -0.301758 -0.757813 -0.578125
vn -0.337402 -0.464844 -0.818359
vn 0.009277 -0.796631 -0.604004
vn 0.319580 -0.756592 -0.569824
vn 0.005371 -0.958740 -0.284180
vn 0.005371 -0.958740 -0.284180
vn 0.319580 -0.756592 -0.569824
vn 0.353516 -0.908447 -0.222656
vn 0.707031 -0.699219 0.105713
vn 0.667725 -0.622070 0.408203
vn 0.412109 -0.901611 0.129395
vn 0.412109 -0.901611 0.129395
vn 0.667725 -0.622070 0.408203
vn 0.344238 -0.813232 0.468750
vn -0.009277 -0.604004 0.796631
vn -0.319580 -0.574707 0.753174
vn -0.005371 -0.846191 0.532471
vn -0.005371 -0.846191 0.532471
vn -0.319580 -0.574707 0.753174
vn -0.353516 -0.814453 0.459473
vn -0.009277 -0.604004 0.796631
vn 0.301758 -0.573486 0.761230
vn -0.011963 -0.284180 0.958496
vn -0.011963 -0.284180 0.958496
vn 0.301758 -0.573486 0.761230
vn 0.337402 -0.226563 0.913574
vn 0.697510 0.097412 0.709717
vn 0.662842 0.400635 0.632080
vn 0.399902 0.124756 0.907715
vn 0.399902 0.124756 0.907715
vn 0.662842 0.400635 0.632080
vn 0.315918 0.489258 0.812744
vn 0.051758 0.635498 0.770020
vn -0.353027 0.615479 0.704590
vn -0.052734 0.507813 0.859619
vn -0.052734 0.507813 0.859619
vn -0.353027 0.615479 0.704590
vn -0.326172 0.432861 0.840332
vn -0.009277 0.796631 0.604004
vn 0.303223 0.757568 0.577637
vn -0.005371 0.958740 0.284180
vn -0.005371 0.958740 0.284180
vn 0.303223 0.757568 0.577637
vn 0.344238 0.909668 0.231689
vn 0.707031 0.701660 -0.086914
vn 0.676025 0.624512 -0.390381
vn 0.412109 0.903076 -0.118652
vn 0.412109 0.903076 -0.118652
vn 0.676025 0.624512 -0.390381
vn 0.353516 0.814453 -0.459473
vn 0.009277 0.604004 -0.796631
vn -0.303223 0.573242 -0.760742
vn 0.005371 0.846191 -0.532471
vn 0.005371 0.846191 -0.532471
vn -0.303223 0.573242 -0.760742
vn -0.344238 0.813232 -0.468750
vn 0.707031 0.701660 -0.086914
vn 0.667725 0.709229 0.225098
vn 0.910889 0.409912 -0.043945
vn 0.910889 0.409912 -0.043945
vn 0.667725 0.709229 0.225098
vn 0.864746 0.394775 0.309570
vn 0.697510 0.097412 0.709717
vn 0.662842 -0.215088 0.716797
vn 0.905273 0.057617 0.420410
vn 0.905273 0.057617 0.420410
vn 0.662842 -0.215088 0.716797
vn 0.864746 -0.296631 0.404785
vn 0.707031 -0.699219 0.105713
vn 0.676025 -0.706787 -0.207275
vn 0.910889 -0.406738 0.068115
vn 0.910889 -0.406738 0.068115
vn 0.676025 -0.706787 -0.207275
vn 0.874023 -0.391602 -0.286621
vn -0.707031 0.699219 -0.105713
vn -0.667725 0.622070 -0.408203
vn -0.910889 0.406738 -0.068115
vn -0.910889 0.406738 -0.068115
vn -0.667725 0.622070 -0.408203
vn -0.864746 0.296631 -0.404785
vn -0.697510 -0.097412 -0.709717
vn -0.662842 -0.400635 -0.632080
vn -0.905273 -0.057617 -0.420410
vn -0.905273 -0.057617 -0.420410
vn -0.662842 -0.400635 -0.632080
vn -0.864746 -0.394775 -0.309570
vn -0.707031 -0.701660 0.086914
vn -0.676025 -0.624512 0.390381
vn -0.910889 -0.409912 0.043945
vn -0.910889 -0.409912 0.043945
vn -0.676025 -0.624512 0.390381
vn -0.874023 -0.299805 0.381836
vn -0.662842 0.215088 -0.716797
vn -0.569580 0.492188 -0.658203
vn -0.315918 0.251709 -0.914551
vn -0.315918 0.251709 -0.914551
vn -0.569580 0.492188 -0.658203
vn -0.303223 0.573242 -0.760742
vn -0.303223 0.573242 -0.760742
vn 0.012695 0.404785 -0.914063
vn -0.315918 0.251709 -0.914551
vn -0.315918 0.251709 -0.914551
vn 0.012695 0.404785 -0.914063
vn 0.052734 0.256836 -0.964844
vn 0.052734 0.256836 -0.964844
vn 0.013184 -0.136230 -0.990479
vn -0.315918 0.251709 -0.914551
vn -0.315918 0.251709 -0.914551
vn 0.013184 -0.136230 -0.990479
vn -0.399902 -0.124756 -0.907715
vn -0.667725 -0.709229 -0.225098
vn -0.569580 -0.651611 -0.500732
vn -0.344238 -0.909668 -0.231689
vn -0.344238 -0.909668 -0.231689
vn -0.569580 -0.651611 -0.500732
vn -0.301758 -0.757813 -0.578125
vn 0.009277 -0.796631 -0.604004
vn 0.005371 -0.958740 -0.284180
vn -0.301758 -0.757813 -0.578125
vn -0.301758 -0.757813 -0.578125
vn 0.005371 -0.958740 -0.284180
vn -0.344238 -0.909668 -0.231689
vn 0.005371 -0.958740 -0.284180
vn 0.000000 -0.990479 0.136230
vn -0.344238 -0.909668 -0.231689
vn -0.344238 -0.909668 -0.231689
vn 0.000000 -0.990479 0.136230
vn -0.412109 -0.903076 0.118652
vn -0.680908 -0.217529 0.699219
vn -0.584961 -0.494141 0.642822
vn -0.360596 -0.227783 0.904297
vn -0.360596 -0.227783 0.904297
vn -0.584961 -0.494141 0.642822
vn -0.319580 -0.574707 0.753174
vn -0.009277 -0.604004 0.796631
vn -0.011963 -0.284180 0.958496
vn -0.319580 -0.574707 0.753174
vn -0.319580 -0.574707 0.753174
vn -0.011963 -0.284180 0.958496
vn -0.360596 -0.227783 0.904297
vn -0.011963 -0.284180 0.958496
vn -0.013184 0.136230 0.990479
vn -0.360596 -0.227783 0.904297
vn -0.360596 -0.227783 0.904297
vn -0.013184 0.136230 0.990479
vn -0.424316 0.123291 0.896973
vn -0.676025 0.706787 0.207275
vn -0.587158 0.649170 0.483154
vn -0.353516 0.908447 0.222656
vn -0.353516 0.908447 0.222656
vn -0.587158 0.649170 0.483154
vn -0.321289 0.756348 0.569580
vn -0.009277 0.796631 0.604004
vn -0.005371 0.958740 0.284180
vn -0.321289 0.756348 0.569580
vn -0.321289 0.756348 0.569580
vn -0.005371 0.958740 0.284180
vn -0.353516 0.908447 0.222656
vn -0.005371 0.958740 0.284180
vn 0.000000 0.990479 -0.136230
vn -0.353516 0.908447 0.222656
vn -0.353516 0.908447 0.222656
vn 0.000000 0.990479 -0.136230
vn -0.412109 0.901611 -0.129395
vn 0.657715 0.242432 -0.712891
vn 0.587158 0.494385 -0.640625
vn 0.874023 0.299805 -0.381836
vn 0.874023 0.299805 -0.381836
vn 0.587158 0.494385 -0.640625
vn 0.676025 0.624512 -0.390381
vn 0.707031 0.701660 -0.086914
vn 0.910889 0.409912 -0.043945
vn 0.676025 0.624512 -0.390381
vn 0.676025 0.624512 -0.390381
vn 0.910889 0.409912 -0.043945
vn 0.874023 0.299805 -0.381836
vn 0.910889 0.409912 -0.043945
vn 0.999756 0.001709 0.013184
vn 0.874023 0.299805 -0.381836
vn 0.874023 0.299805 -0.381836
vn 0.999756 0.001709 0.013184
vn 0.916260 -0.054443 -0.396240
vn -0.657715 0.426025 0.620850
vn -0.587158 0.649170 0.483154
vn -0.874023 0.391602 0.286621
vn -0.874023 0.391602 0.286621
vn -0.587158 0.649170 0.483154
vn -0.676025 0.706787 0.207275
vn -0.707031 0.699219 -0.105713
vn -0.910889 0.406738 -0.068115
vn -0.676025 0.706787 0.207275
vn -0.676025 0.706787 0.207275
vn -0.910889 0.406738 -0.068115
vn -0.874023 0.391602 0.286621
vn -0.910889 0.406738 -0.068115
vn -0.999756 -0.001709 -0.013184
vn -0.874023 0.391602 0.286621
vn -0.874023 0.391602 0.286621
vn -0.999756 -0.001709 -0.013184
vn -0.916260 0.054443 0.396240
vn 0.587158 0.494385 -0.640625
vn 0.657715 0.242432 -0.712891
vn 0.357910 0.400146 -0.843506
vn 0.357910 0.400146 -0.843506
vn 0.657715 0.242432 -0.712891
vn 0.326172 0.189697 -0.925781
vn 0.716309 -0.094971 -0.690918
vn 0.424316 -0.123291 -0.896973
vn 0.657715 0.242432 -0.712891
vn 0.657715 0.242432 -0.712891
vn 0.424316 -0.123291 -0.896973
vn 0.326172 0.189697 -0.925781
vn 0.424316 -0.123291 -0.896973
vn 0.013184 -0.136230 -0.990479
vn 0.326172 0.189697 -0.925781
vn 0.326172 0.189697 -0.925781
vn 0.013184 -0.136230 -0.990479
vn 0.052734 0.256836 -0.964844
vn 0.680908 -0.398193 -0.614258
vn 0.584961 -0.649414 -0.485352
vn 0.360596 -0.463623 -0.809082
vn 0.360596 -0.463623 -0.809082
vn 0.584961 -0.649414 -0.485352
vn 0.319580 -0.756592 -0.569824
vn 0.009277 -0.796631 -0.604004
vn 0.011963 -0.532471 -0.846191
vn 0.319580 -0.756592 -0.569824
vn 0.319580 -0.756592 -0.569824
vn 0.011963 -0.532471 -0.846191
vn 0.360596 -0.463623 -0.809082
vn 0.011963 -0.532471 -0.846191
vn 0.013184 -0.136230 -0.990479
vn 0.360596 -0.463623 -0.809082
vn 0.360596 -0.463623 -0.809082
vn 0.013184 -0.136230 -0.990479
vn 0.424316 -0.123291 -0.896973
vn -0.301758 -0.757813 -0.578125
vn -0.569580 -0.651611 -0.500732
vn -0.337402 -0.464844 -0.818359
vn -0.337402 -0.464844 -0.818359
vn -0.569580 -0.651611 -0.500732
vn -0.662842 -0.400635 -0.632080
vn -0.697510 -0.097412 -0.709717
vn -0.399902 -0.124756 -0.907715
vn -0.662842 -0.400635 -0.632080
vn -0.662842 -0.400635 -0.632080
vn -0.399902 -0.124756 -0.907715
vn -0.337402 -0.464844 -0.818359
vn -0.399902 -0.124756 -0.907715
vn 0.013184 -0.136230 -0.990479
vn -0.337402 -0.464844 -0.818359
vn -0.337402 -0.464844 -0.818359
vn 0.013184 -0.136230 -0.990479
vn 0.011963 -0.532471 -0.846191
vn 0.319580 -0.756592 -0.569824
vn 0.584961 -0.649414 -0.485352
vn 0.353516 -0.908447 -0.222656
vn 0.353516 -0.908447 -0.222656
vn 0.584961 -0.649414 -0.485352
vn 0.676025 -0.706787 -0.207275
vn 0.707031 -0.699219 0.105713
vn 0.412109 -0.901611 0.129395
vn 0.676025 -0.706787 -0.207275
vn 0.676025 -0.706787 -0.207275
vn 0.412109 -0.901611 0.129395
vn 0.353516 -0.908447 -0.222656
vn 0.412109 -0.901611 0.129395
vn 0.000000 -0.990479 0.136230
vn 0.353516 -0.908447 -0.222656
vn 0.353516 -0.908447 -0.222656
vn 0.000000 -0.990479 0.136230
vn 0.005371 -0.958740 -0.284180
vn 0.667725 -0.622070 0.408203
vn 0.569580 -0.492188 0.658203
vn 0.344238 -0.813232 0.468750
vn 0.344238 -0.813232 0.468750
vn 0.569580 -0.492188 0.658203
vn 0.301758 -0.573486 0.761230
vn -0.009277 -0.604004 0.796631
vn -0.005371 -0.846191 0.532471
vn 0.301758 -0.573486 0.761230
vn 0.301758 -0.573486 0.761230
vn -0.005371 -0.846191 0.532471
vn 0.344238 -0.813232 0.468750
vn -0.005371 -0.846191 0.532471
vn 0.000000 -0.990479 0.136230
vn 0.344238 -0.813232 0.468750
vn 0.344238 -0.813232 0.468750
vn 0.000000 -0.990479 0.136230
vn 0.412109 -0.901611 0.129395
vn -0.319580 -0.574707 0.753174
vn -0.584961 -0.494141 0.642822
vn -0.353516 -0.814453 0.459473
vn -0.353516 -0.814453 0.459473
vn -0.584961 -0.494141 0.642822
vn -0.676025 -0.624512 0.390381
vn -0.707031 -0.701660 0.086914
vn -0.412109 -0.903076 0.118652
vn -0.676025 -0.624512 0.390381
vn -0.676025 -0.624512 0.390381
vn -0.412109 -0.903076 0.118652
vn -0.353516 -0.814453 0.459473
vn -0.412109 -0.903076 0.118652
vn 0.000000 -0.990479 0.136230
vn -0.353516 -0.814453 0.459473
vn -0.353516 -0.814453 0.459473
vn 0.000000 -0.990479 0.136230
vn -0.005371 -0.846191 0.532471
vn 0.301758 -0.573486 0.761230
vn 0.569580 -0.492188 0.658203
vn 0.337402 -0.226563 0.913574
vn 0.337402 -0.226563 0.913574
vn 0.569580 -0.492188 0.658203
vn 0.662842 -0.215088 0.716797
vn 0.697510 0.097412 0.709717
vn 0.399902 0.124756 0.907715
vn 0.662842 -0.215088 0.716797
vn 0.662842 -0.215088 0.716797
vn 0.399902 0.124756 0.907715
vn 0.337402 -0.226563 0.913574
vn 0.399902 0.124756 0.907715
vn -0.013184 0.136230 0.990479
vn 0.337402 -0.226563 0.913574
vn 0.337402 -0.226563 0.913574
vn -0.013184 0.136230 0.990479
vn -0.011963 -0.284180 0.958496
vn 0.662842 0.400635 0.632080
vn 0.569580 0.651611 0.500732
vn 0.315918 0.489258 0.812744
vn 0.315918 0.489258 0.812744
vn 0.569580 0.651611 0.500732
vn 0.303223 0.757568 0.577637
vn 0.303223 0.757568 0.577637
vn 0.051758 0.635498 0.770020
vn 0.315918 0.489258 0.812744
vn 0.315918 0.489258 0.812744
vn 0.051758 0.635498 0.770020
vn -0.052734 0.507813 0.859619
vn -0.052734 0.507813 0.859619
vn -0.013184 0.136230 0.990479
vn 0.315918 0.489258 0.812744
vn 0.315918 0.489258 0.812744
vn -0.013184 0.136230 0.990479
vn 0.399902 0.124756 0.907715
vn -0.587158 0.649170 0.483154
vn -0.657715 0.426025 0.620850
vn -0.353027 0.615479 0.704590
vn -0.353027 0.615479 0.704590
vn -0.657715 0.426025 0.620850
vn -0.326172 0.432861 0.840332
vn -0.716309 0.094971 0.690918
vn -0.424316 0.123291 0.896973
vn -0.657715 0.426025 0.620850
vn -0.657715 0.426025 0.620850
vn -0.424316 0.123291 0.896973
vn -0.326172 0.432861 0.840332
vn -0.424316 0.123291 0.896973
vn -0.013184 0.136230 0.990479
vn -0.326172 0.432861 0.840332
vn -0.326172 0.432861 0.840332
vn -0.013184 0.136230 0.990479
vn -0.052734 0.507813 0.859619
vn 0.303223 0.757568 0.577637
vn 0.569580 0.651611 0.500732
vn 0.344238 0.909668 0.231689
vn 0.344238 0.909668 0.231689
vn 0.569580 0.651611 0.500732
vn 0.667725 0.709229 0.225098
vn 0.707031 0.701660 -0.086914
vn 0.412109 0.903076 -0.118652
vn 0.667725 0.709229 0.225098
vn 0.667725 0.709229 0.225098
vn 0.412109 0.903076 -0.118652
vn 0.344238 0.909668 0.231689
vn 0.412109 0.903076 -0.118652
vn 0.000000 0.990479 -0.136230
vn 0.344238 0.909668 0.231689
vn 0.344238 0.909668 0.231689
vn 0.000000 0.990479 -0.136230
vn -0.005371 0.958740 0.284180
vn 0.676025 0.624512 -0.390381
vn 0.587158 0.494385 -0.640625
vn 0.353516 0.814453 -0.459473
vn 0.353516 0.814453 -0.459473
vn 0.587158 0.494385 -0.640625
vn 0.321289 0.574463 -0.752686
vn 0.009277 0.604004 -0.796631
vn 0.005371 0.846191 -0.532471
vn 0.321289 0.574463 -0.752686
vn 0.321289 0.574463 -0.752686
vn 0.005371 0.846191 -0.532471
vn 0.353516 0.814453 -0.459473
vn 0.005371 0.846191 -0.532471
vn 0.000000 0.990479 -0.136230
vn 0.353516 0.814453 -0.459473
vn 0.353516 0.814453 -0.459473
vn 0.000000 0.990479 -0.136230
vn 0.412109 0.903076 -0.118652
vn -0.303223 0.573242 -0.760742
vn -0.569580 0.492188 -0.658203
vn -0.344238 0.813232 -0.468750
vn -0.344238 0.813232 -0.468750
vn -0.569580 0.492188 -0.658203
vn -0.667725 0.622070 -0.408203
vn -0.707031 0.699219 -0.105713
vn -0.412109 0.901611 -0.129395
vn -0.667725 0.622070 -0.408203
vn -0.667725 0.622070 -0.408203
vn -0.412109 0.901611 -0.129395
vn -0.344238 0.813232 -0.468750
vn -0.412109 0.901611 -0.129395
vn 0.000000 0.990479 -0.136230
vn -0.344238 0.813232 -0.468750
vn -0.344238 0.813232 -0.468750
vn 0.000000 0.990479 -0.136230
vn 0.005371 0.846191 -0.532471
vn 0.667725 0.709229 0.225098
vn 0.569580 0.651611 0.500732
vn 0.864746 0.394775 0.309570
vn 0.864746 0.394775 0.309570
vn 0.569580 0.651611 0.500732
vn 0.662842 0.400635 0.632080
vn 0.697510 0.097412 0.709717
vn 0.905273 0.057617 0.420410
vn 0.662842 0.400635 0.632080
vn 0.662842 0.400635 0.632080
vn 0.905273 0.057617 0.420410
vn 0.864746 0.394775 0.309570
vn 0.905273 0.057617 0.420410
vn 0.999756 0.001709 0.013184
vn 0.864746 0.394775 0.309570
vn 0.864746 0.394775 0.309570
vn 0.999756 0.001709 0.013184
vn 0.910889 0.409912 -0.043945
vn 0.662842 -0.215088 0.716797
vn 0.569580 -0.492188 0.658203
vn 0.864746 -0.296631 0.404785
vn 0.864746 -0.296631 0.404785
vn 0.569580 -0.492188 0.658203
vn 0.667725 -0.622070 0.408203
vn 0.707031 -0.699219 0.105713
vn 0.910889 -0.406738 0.068115
vn 0.667725 -0.622070 0.408203
vn 0.667725 -0.622070 0.408203
vn 0.910889 -0.406738 0.068115
vn 0.864746 -0.296631 0.404785
vn 0.910889 -0.406738 0.068115
vn 0.999756 0.001709 0.013184
vn 0.864746 -0.296631 0.404785
vn 0.864746 -0.296631 0.404785
vn 0.999756 0.001709 0.013184
vn 0.905273 0.057617 0.420410
vn 0.676025 -0.706787 -0.207275
vn 0.584961 -0.649414 -0.485352
vn 0.874023 -0.391602 -0.286621
vn 0.874023 -0.391602 -0.286621
vn 0.584961 -0.649414 -0.485352
vn 0.680908 -0.398193 -0.614258
vn 0.716309 -0.094971 -0.690918
vn 0.916260 -0.054443 -0.396240
vn 0.680908 -0.398193 -0.614258
vn 0.680908 -0.398193 -0.614258
vn 0.916260 -0.054443 -0.396240
vn 0.874023 -0.391602 -0.286621
vn 0.916260 -0.054443 -0.396240
vn 0.999756 0.001709 0.013184
vn 0.874023 -0.391602 -0.286621
vn 0.874023 -0.391602 -0.286621
vn 0.999756 0.001709 0.013184
vn 0.910889 -0.406738 0.068115
vn -0.667725 0.622070 -0.408203
vn -0.569580 0.492188 -0.658203
vn -0.864746 0.296631 -0.404785
vn -0.864746 0.296631 -0.404785
vn -0.569580 0.492188 -0.658203
vn -0.662842 0.215088 -0.716797
vn -0.697510 -0.097412 -0.709717
vn -0.905273 -0.057617 -0.420410
vn -0.662842 0.215088 -0.716797
vn -0.662842 0.215088 -0.716797
vn -0.905273 -0.057617 -0.420410
vn -0.864746 0.296631 -0.404785
vn -0.905273 -0.057617 -0.420410
vn -0.999756 -0.001709 -0.013184
vn -0.864746 0.296631 -0.404785
vn -0.864746 0.296631 -0.404785
vn -0.999756 -0.001709 -0.013184
vn -0.910889 0.406738 -0.068115
vn -0.662842 -0.400635 -0.632080
vn -0.569580 -0.651611 -0.500732
vn -0.864746 -0.394775 -0.309570
vn -0.864746 -0.394775 -0.309570
vn -0.569580 -0.651611 -0.500732
vn -0.667725 -0.709229 -0.225098
vn -0.707031 -0.701660 0.086914
vn -0.910889 -0.409912 0.043945
vn -0.667725 -0.709229 -0.225098
vn -0.667725 -0.709229 -0.225098
vn -0.910889 -0.409912 0.043945
vn -0.864746 -0.394775 -0.309570
vn -0.910889 -0.409912 0.043945
vn -0.999756 -0.001709 -0.013184
vn -0.864746 -0.394775 -0.309570
vn -0.864746 -0.394775 -0.309570
vn -0.999756 -0.001709 -0.013184
vn -0.905273 -0.057617 -0.420410
vn -0.676025 -0.624512 0.390381
vn -0.584961 -0.494141 0.642822
vn -0.874023 -0.299805 0.381836
vn -0.874023 -0.299805 0.381836
vn -0.584961 -0.494141 0.642822
vn -0.680908 -0.217529 0.699219
vn -0.716309 0.094971 0.690918
vn -0.916260 0.054443 0.396240
vn -0.680908 -0.217529 0.699219
vn -0.680908 -0.217529 0.699219
vn -0.916260 0.054443 0.396240
vn -0.874023 -0.299805 0.381836
vn -0.916260 0.054443 0.396240
vn -0.999756 -0.001709 -0.013184
vn -0.874023 -0.299805 0.381836
vn -0.874023 -0.299805 0.381836
vn -0.999756 -0.001709 -0.013184
vn -0.910889 -0.409912 0.043945
vn -0.303223 0.573242 -0.760742
vn 0.009277 0.604004 -0.796631
vn 0.012695 0.404785 -0.914063
vn 0.357910 0.400146 -0.843506
vn 0.012695 0.404785 -0.914063
vn 0.321289 0.574463 -0.752686
vn 0.321289 0.574463 -0.752686
vn 0.012695 0.404785 -0.914063
vn 0.009277 0.604004 -0.796631
vn 0.321289 0.574463 -0.752686
vn 0.587158 0.494385 -0.640625
vn 0.357910 0.400146 -0.843506
vn 0.303223 0.757568 0.577637
vn -0.009277 0.796631 0.604004
vn -0.077637 0.635010 0.768311
vn -0.367920 0.608154 0.703125
vn -0.077637 0.635010 0.768311
vn -0.321289 0.756348 0.569580
vn -0.321289 0.756348 0.569580
vn -0.077637 0.635010 0.768311
vn -0.009277 0.796631 0.604004
vn -0.321289 0.756348 0.569580
vn -0.587158 0.649170 0.483154
vn -0.367920 0.608154 0.703125
usemtl Texture
f 1/1/1 2/2/2 3/3/3
f 4/4/4 5/5/5 6/6/6
f 7/7/7 8/8/8 9/9/9
f 10/10/10 11/11/11 12/12/12
f 13/13/13 14/14/14 15/15/15
f 16/16/16 17/17/17 18/18/18
f 19/19/19 20/20/20 21/21/21
f 22/22/22 23/23/23 24/24/24
f 25/25/25 26/26/26 27/27/27
f 28/28/28 29/29/29 30/30/30
f 31/31/31 32/32/32 33/33/33
f 34/34/34 35/35/35 36/36/36
f 37/37/37 38/38/38 39/39/39
f 40/40/40 41/41/41 42/42/42
f 43/43/43 44/44/44 45/45/45
f 46/46/46 47/47/47 48/48/48
f 49/49/49 50/50/50 51/51/51
f 52/52/52 53/53/53 54/54/54
f 55/55/55 56/56/56 57/57/57
f 58/58/58 59/59/59 60/60/60
f 61/61/61 62/62/62 63/63/63
f 64/64/64 65/65/65 66/66/66
f 67/67/67 68/68/68 69/69/69
f 70/70/70 71/71/71 72/72/72
f 73/73/73 74/74/74 75/75/75
f 76/76/76 77/77/77 78/78/78
f 79/79/79 80/80/80 81/81/81
f 82/82/82 83/83/83 84/84/84
f 85/85/85 86/86/86 87/87/87
f 88/88/88 89/89/89 90/90/90
f 91/91/91 92/92/92 93/93/93
f 94/94/94 95/95/95 96/96/96
f 97/97/97 98/98/98 99/99/99
f 100/100/100 101/101/101 102/102/102
f 103/103/103 104/104/104 105/105/105
f 106/106/106 107/107/107 108/108/108
f 109/109/109 110/110/110 111/111/111
f 112/112/112 113/113/113 114/114/114
f 115/115/115 116/116/116 117/117/117
f 118/118/118 119/119/119 120/120/120
f 121/121/121 122/122/122 123/123/123
f 124/124/124 125/125/125 126/126/126
f 127/127/127 128/128/128 129/129/129
f 130/130/130 131/131/131 132/132/132
f 133/133/133 134/134/134 135/135/135
f 136/136/136 137/137/137 138/138/138
f 139/139/139 140/140/140 141/141/141
f 142/142/142 143/143/143 144/144/144
f 145/145/145 146/146/146 147/147/147
f 148/148/148 149/149/149 150/150/150
f 151/151/151 152/152/152 153/153/153
f 154/154/154 155/155/155 156/156/156
f 157/157/157 158/158/158 159/159/159
f 160/160/160 161/161/161 162/162/162
f 163/163/163 164/164/164 165/165/165
f 166/166/166 167/167/167 168/168/168
f 169/169/169 170/170/170 171/171/171
f 172/172/172 173/173/173 174/174/174
f 175/175/175 176/176/176 177/177/177
f 178/178/178 179/179/179 180/180/180
f 181/181/181 182/182/182 183/183/183
f 184/184/184 185/185/185 186/186/186
f 187/187/187 188/188/188 189/189/189
f 190/190/190 191/191/191 192/192/192
f 193/193/193 194/194/194 195/195/195
f 196/196/196 197/197/197 198/198/198
f 199/199/199 200/200/200 201/201/201
f 202/202/202 203/203/203 204/204/204
f 205/205/205 206/206/206 207/207/207
f 208/208/208 209/209/209 210/210/210
f 211/211/211 212/212/212 213/213/213
f 214/214/214 215/215/215 216/216/216
f 217/217/217 218/218/218 219/219/219
f 220/220/220 221/221/221 222/222/222
f 223/223/223 224/224/224 225/225/225
f 226/226/226 227/227/227 228/228/228
f 229/229/229 230/230/230 231/231/231
f 232/232/232 233/233/233 234/234/234
f 235/235/235 236/236/236 237/237/237
f 238/238/238 239/239/239 240/240/240
f 241/241/241 242/242/242 243/243/243
f 244/244/244 245/245/245 246/246/246
f 247/247/247 248/248/248 249/249/249
f 250/250/250 251/251/251 252/252/252
f 253/253/253 254/254/254 255/255/255
f 256/256/256 257/257/257 258/258/258
f 259/259/259 260/260/260 261/261/261
f 262/262/262 263/263/263 264/264/264
f 265/265/265 266/266/266 267/267/267
f 268/268/268 269/269/269 270/270/270
f 271/271/271 272/272/272 273/273/273
f 274/274/274 275/275/275 276/276/276
f 277/277/277 278/278/278 279/279/279
f 280/280/280 281/281/281 282/282/282
f 283/283/283 284/284/284 285/285/285
f 286/286/286 287/287/287 288/288/288
f 289/289/289 290/290/290 291/291/291
f 292/292/292 293/293/293 294/294/294
f 295/295/295 296/296/296 297/297/297
f 298/298/298 299/299/299 300/300/300
f 301/301/301 302/302/302 303/303/303
f 304/304/304 305/305/305 306/306/306
f 307/307/307 308/308/308 309/309/309
f 310/310/310 311/311/311 312/312/312
f 313/313/313 314/314/314 315/315/315
f 316/316/316 317/317/317 318/318/318
f 319/319/319 320/320/320 321/321/321
f 322/322/322 323/323/323 324/324/324
f 325/325/325 326/326/326 327/327/327
f 328/328/328 329/329/329 330/330/330
f 331/331/331 332/332/332 333/333/333
f 334/334/334 335/335/335 336/336/336
f 337/337/337 338/338/338 339/339/339
f 340/340/340 341/341/341 342/342/342
f 343/343/343 344/344/344 345/345/345
f 346/346/346 347/347/347 348/348/348
f 349/349/349 350/350/350 351/351/351
f 352/352/352 353/353/353 354/354/354
f 355/355/355 356/356/356 357/357/357
f 358/358/358 359/359/359 360/360/360
f 361/361/361 362/362/362 363/363/363
f 364/364/364 365/365/365 366/366/366
f 367/367/367 368/368/368 369/369/369
f 370/370/370 371/371/371 372/372/372
f 373/373/373 374/374/374 375/375/375
f 376/376/376 377/377/377 378/378/378
f 379/379/379 380/380/380 381/381/381
f 382/382/382 383/383/383 384/384/384
f 385/385/385 386/386/386 387/387/387
f 388/388/388 389/389/389 390/390/390
f 391/391/391 392/392/392 393/393/393
f 394/394/394 395/395/395 396/396/396
f 397/397/397 398/398/398 399/399/399
f 400/400/400 401/401/401 402/402/402
f 403/403/403 404/404/404 405/405/405
f 406/406/406 407/407/407 408/408/408
f 409/409/409 410/410/410 411/411/411
f 412/412/412 413/413/413 414/414/414
f 415/415/415 416/416/416 417/417/417
f 418/418/418 419/419/419 420/420/420
f 421/421/421 422/422/422 423/423/423
f 424/424/424 425/425/425 426/426/426
f 427/427/427 428/428/428 429/429/429
f 430/430/430 431/431/431 432/432/432
f 433/433/433 434/434/434 435/435/435
f 436/436/436 437/437/437 438/438/438
f 439/439/439 440/440/440 441/441/441
f 442/442/442 443/443/443 444/444/444
f 445/445/445 446/446/446 447/447/447
f 448/448/448 449/449/449 450/450/450
f 451/451/451 452/452/452 453/453/453
f 454/454/454 455/455/455 456/456/456
f 457/457/457 458/458/458 459/459/459
f 460/460/460 461/461/461 462/462/462
f 463/463/463 464/464/464 465/465/465
f 466/466/466 467/467/467 468/468/468
f 469/469/469 470/470/470 471/471/471
f 472/472/472 473/473/473 474/474/474
f 475/475/475 476/476/476 477/477/477
f 478/478/478 479/479/479 480/480/480
f 481/481/481 482/482/482 483/483/483
f 484/484/484 485/485/485 486/486/486
f 487/487/487 488/488/488 489/489/489
f 490/490/490 491/491/491 492/492/492
f 493/493/493 494/494/494 495/495/495
f 496/496/496 497/497/497 498/498/498
f 499/499/499 500/500/500 501/501/501
f 502/502/502 503/503/503 504/504/504
f 505/505/505 506/506/506 507/507/507
f 508/508/508 509/509/509 510/510/510
f 511/511/511 512/512/512 513/513/513
f 514/514/514 515/515/515 516/516/516
f 517/517/517 518/518/518 519/519/519
f 520/520/520 521/521/521 522/522/522
f 523/523/523 524/524/524 525/525/525
f 526/526/526 527/527/527 528/528/528
f 529/529/529 530/530/530 531/531/531
f 532/532/532 533/533/533 534/534/534
f 535/535/535 536/536/536 537/537/537
f 538/538/538 539/539/539 540/540/540
f 541/541/541 542/542/542 543/543/543
f 544/544/544 545/545/545 546/546/546
f 547/547/547 548/548/548 549/549/549
f 550/550/550 551/551/551 552/552/552
f 553/553/553 554/554/554 555/555/555
f 556/556/556 557/557/557 558/558/558
f 559/559/559 560/560/560 561/561/561
f 562/562/562 563/563/563 564/564/564
f 565/565/565 566/566/566 567/567/567
f 568/568/568 569/569/569 570/570/570
f 571/571/571 572/572/572 573/573/573
f 574/574/574 575/575/575 576/576/576
f 577/577/577 578/578/578 579/579/579
f 580/580/580 581/581/581 582/582/582
f 583/583/583 584/584/584 585/585/585
f 586/586/586 587/587/587 588/588/588
f 589/589/589 590/590/590 591/591/591
f 592/592/592 593/593/593 594/594/594
f 595/595/595 596/596/596 597/597/597
f 598/598/598 599/599/599 600/600/600