# OBJ file
mtllib copy.ico.mtl
v -0.248047 4.907959 -0.202637 0.290196 0.290196 0.290196 #0.000000
v -0.254150 4.877686 0.365723 0.290196 0.290196 0.290196 #0.000000
v 0.104736 4.885742 0.243164 0.290196 0.290196 0.290196 #0.000000
v -0.248047 4.907959 -0.202637 0.290196 0.290196 0.290196 #0.000000
v 0.104736 4.885742 0.243164 0.290196 0.290196 0.290196 #0.000000
v 0.303467 4.845459 -0.077148 0.290196 0.290196 0.290196 #0.000000
v -0.248047 4.907959 -0.202637 0.290196 0.290196 0.290196 #0.000000
v 0.303467 4.845459 -0.077148 0.290196 0.290196 0.290196 #0.000000
v 0.248779 4.775391 -0.446045 0.290196 0.290196 0.290196 #0.000000
v -0.248047 4.907959 -0.202637 0.290196 0.290196 0.290196 #0.000000
v 0.248779 4.775391 -0.446045 0.290196 0.290196 0.290196 #0.000000
v -0.033203 4.708496 -0.690430 0.290196 0.290196 0.290196 #0.000000
v -0.248047 4.907959 -0.202637 0.290196 0.290196 0.290196 #0.000000
v -0.033203 4.708496 -0.690430 0.290196 0.290196 0.290196 #0.000000
v -0.411133 4.676025 -0.696289 0.290196 0.290196 0.290196 #0.000000
v -0.248047 4.907959 -0.202637 0.290196 0.290196 0.290196 #0.000000
v -0.411133 4.676025 -0.696289 0.290196 0.290196 0.290196 #0.000000
v -0.707764 4.693115 -0.460449 0.290196 0.290196 0.290196 #0.000000
v -0.248047 4.907959 -0.202637 0.290196 0.290196 0.290196 #0.000000
v -0.707764 4.693115 -0.460449 0.290196 0.290196 0.290196 #0.000000
v -0.784668 4.751709 -0.093506 0.290196 0.290196 0.290196 #0.000000
v -0.248047 4.907959 -0.202637 0.290196 0.290196 0.290196 #0.000000
v -0.784668 4.751709 -0.093506 0.290196 0.290196 0.290196 #0.000000
v -0.605469 4.824707 0.232422 0.290196 0.290196 0.290196 #0.000000
v -0.248047 4.907959 -0.202637 0.290196 0.290196 0.290196 #0.000000
v -0.605469 4.824707 0.232422 0.290196 0.290196 0.290196 #0.000000
v -0.254150 4.877686 0.365723 0.290196 0.290196 0.290196 #0.000000
v 0.378174 4.591309 0.609131 0.290196 0.290196 0.290196 #0.000000
v 0.104736 4.885742 0.243164 0.290196 0.290196 0.290196 #0.000000
v -0.254150 4.877686 0.365723 0.290196 0.290196 0.290196 #0.000000
v -0.254150 4.877686 0.365723 0.290196 0.290196 0.290196 #0.000000
v -0.235107 4.577148 0.818359 0.290196 0.290196 0.290196 #0.000000
v 0.378174 4.591309 0.609131 0.290196 0.290196 0.290196 #0.000000
v 0.718018 4.522217 0.061279 0.290196 0.290196 0.290196 #0.000000
v 0.303467 4.845459 -0.077148 0.290196 0.290196 0.290196 #0.000000
v 0.104736 4.885742 0.243164 0.290196 0.290196 0.290196 #0.000000
v 0.104736 4.885742 0.243164 0.290196 0.290196 0.290196 #0.000000
v 0.378174 4.591309 0.609131 0.290196 0.290196 0.290196 #0.000000
v 0.718018 4.522217 0.061279 0.290196 0.290196 0.290196 #0.000000
v 0.624756 4.402588 -0.569092 0.290196 0.290196 0.290196 #0.000000
v 0.248779 4.775391 -0.446045 0.290196 0.290196 0.290196 #0.000000
v 0.303467 4.845459 -0.077148 0.290196 0.290196 0.290196 #0.000000
v 0.303467 4.845459 -0.077148 0.290196 0.290196 0.290196 #0.000000
v 0.718018 4.522217 0.061279 0.290196 0.290196 0.290196 #0.000000
v 0.624756 4.402588 -0.569092 0.290196 0.290196 0.290196 #0.000000
v 0.142334 4.288086 -0.986816 0.290196 0.290196 0.290196 #0.000000
v -0.033203 4.708496 -0.690430 0.290196 0.290196 0.290196 #0.000000
v 0.248779 4.775391 -0.446045 0.290196 0.290196 0.290196 #0.000000
v 0.248779 4.775391 -0.446045 0.290196 0.290196 0.290196 #0.000000
v 0.624756 4.402588 -0.569092 0.290196 0.290196 0.290196 #0.000000
v 0.142334 4.288086 -0.986816 0.290196 0.290196 0.290196 #0.000000
v -0.503418 4.232422 -0.996826 0.290196 0.290196 0.290196 #0.000000
v -0.411133 4.676025 -0.696289 0.290196 0.290196 0.290196 #0.000000
v -0.033203 4.708496 -0.690430 0.290196 0.290196 0.290196 #0.000000
v -0.033203 4.708496 -0.690430 0.290196 0.290196 0.290196 #0.000000
v 0.142334 4.288086 -0.986816 0.290196 0.290196 0.290196 #0.000000
v -0.503418 4.232422 -0.996826 0.290196 0.290196 0.290196 #0.000000
v -1.010498 4.261719 -0.593750 0.290196 0.290196 0.290196 #0.000000
v -0.707764 4.693115 -0.460449 0.290196 0.290196 0.290196 #0.000000
v -0.411133 4.676025 -0.696289 0.290196 0.290196 0.290196 #0.000000
v -0.411133 4.676025 -0.696289 0.290196 0.290196 0.290196 #0.000000
v -0.503418 4.232422 -0.996826 0.290196 0.290196 0.290196 #0.000000
v -1.010498 4.261719 -0.593750 0.290196 0.290196 0.290196 #0.000000
v -1.141846 4.362061 0.032959 0.290196 0.290196 0.290196 #0.000000
v -0.784668 4.751709 -0.093506 0.290196 0.290196 0.290196 #0.000000
v -0.707764 4.693115 -0.460449 0.290196 0.290196 0.290196 #0.000000
v -0.707764 4.693115 -0.460449 0.290196 0.290196 0.290196 #0.000000
v -1.010498 4.261719 -0.593750 0.290196 0.290196 0.290196 #0.000000
v -1.141846 4.362061 0.032959 0.290196 0.290196 0.290196 #0.000000
v -0.835449 4.486816 0.590576 0.290196 0.290196 0.290196 #0.000000
v -0.605469 4.824707 0.232422 0.290196 0.290196 0.290196 #0.000000
v -0.784668 4.751709 -0.093506 0.290196 0.290196 0.290196 #0.000000
v -0.784668 4.751709 -0.093506 0.290196 0.290196 0.290196 #0.000000
v -1.141846 4.362061 0.032959 0.290196 0.290196 0.290196 #0.000000
v -0.835449 4.486816 0.590576 0.290196 0.290196 0.290196 #0.000000
v -0.235107 4.577148 0.818359 0.290196 0.290196 0.290196 #0.000000
v -0.254150 4.877686 0.365723 0.290196 0.290196 0.290196 #0.000000
v -0.605469 4.824707 0.232422 0.290196 0.290196 0.290196 #0.000000
v -0.605469 4.824707 0.232422 0.290196 0.290196 0.290196 #0.000000
v -0.835449 4.486816 0.590576 0.290196 0.290196 0.290196 #0.000000
v -0.235107 4.577148 0.818359 0.290196 0.290196 0.290196 #0.000000
v 0.521973 4.092529 0.826416 0.290196 0.290196 0.290196 #0.000000
v 0.378174 4.591309 0.609131 0.290196 0.290196 0.290196 #0.000000
v -0.235107 4.577148 0.818359 0.290196 0.290196 0.290196 #0.000000
v -0.235107 4.577148 0.818359 0.290196 0.290196 0.290196 #0.000000
v -0.195801 4.075928 1.071045 0.290196 0.290196 0.290196 #0.000000
v 0.521973 4.092529 0.826416 0.290196 0.290196 0.290196 #0.000000
v 0.919434 4.011719 0.185059 0.290196 0.290196 0.290196 #0.000000
v 0.718018 4.522217 0.061279 0.290196 0.290196 0.290196 #0.000000
v 0.378174 4.591309 0.609131 0.290196 0.290196 0.290196 #0.000000
v 0.378174 4.591309 0.609131 0.290196 0.290196 0.290196 #0.000000
v 0.521973 4.092529 0.826416 0.290196 0.290196 0.290196 #0.000000
v 0.919434 4.011719 0.185059 0.290196 0.290196 0.290196 #0.000000
v 0.810547 3.871582 -0.552246 0.290196 0.290196 0.290196 #0.000000
v 0.624756 4.402588 -0.569092 0.290196 0.290196 0.290196 #0.000000
v 0.718018 4.522217 0.061279 0.290196 0.290196 0.290196 #0.000000
v 0.718018 4.522217 0.061279 0.290196 0.290196 0.290196 #0.000000
v 0.919434 4.011719 0.185059 0.290196 0.290196 0.290196 #0.000000
v 0.810547 3.871582 -0.552246 0.290196 0.290196 0.290196 #0.000000
v 0.246094 3.737549 -1.041260 0.290196 0.290196 0.290196 #0.000000
v 0.142334 4.288086 -0.986816 0.290196 0.290196 0.290196 #0.000000
v 0.624756 4.402588 -0.569092 0.290196 0.290196 0.290196 #0.000000
v 0.624756 4.402588 -0.569092 0.290196 0.290196 0.290196 #0.000000
v 0.810547 3.871582 -0.552246 0.290196 0.290196 0.290196 #0.000000
v 0.246094 3.737549 -1.041260 0.290196 0.290196 0.290196 #0.000000
v -0.509521 3.672607 -1.052734 0.290196 0.290196 0.290196 #0.000000
v -0.503418 4.232422 -0.996826 0.290196 0.290196 0.290196 #0.000000
v 0.142334 4.288086 -0.986816 0.290196 0.290196 0.290196 #0.000000
v 0.142334 4.288086 -0.986816 0.290196 0.290196 0.290196 #0.000000
v 0.246094 3.737549 -1.041260 0.290196 0.290196 0.290196 #0.000000
v -0.509521 3.672607 -1.052734 0.290196 0.290196 0.290196 #0.000000
v -1.103271 3.706787 -0.581543 0.290196 0.290196 0.290196 #0.000000
v -1.010498 4.261719 -0.593750 0.290196 0.290196 0.290196 #0.000000
v -0.503418 4.232422 -0.996826 0.290196 0.290196 0.290196 #0.000000
v -0.503418 4.232422 -0.996826 0.290196 0.290196 0.290196 #0.000000
v -0.509521 3.672607 -1.052734 0.290196 0.290196 0.290196 #0.000000
v -1.103271 3.706787 -0.581543 0.290196 0.290196 0.290196 #0.000000
v -1.256592 3.824219 0.152100 0.290196 0.290196 0.290196 #0.000000
v -1.141846 4.362061 0.032959 0.290196 0.290196 0.290196 #0.000000
v -1.010498 4.261719 -0.593750 0.290196 0.290196 0.290196 #0.000000
v -1.010498 4.261719 -0.593750 0.290196 0.290196 0.290196 #0.000000
v -1.103271 3.706787 -0.581543 0.290196 0.290196 0.290196 #0.000000
v -1.256592 3.824219 0.152100 0.290196 0.290196 0.290196 #0.000000
v -0.898438 3.969971 0.804688 0.290196 0.290196 0.290196 #0.000000
v -0.835449 4.486816 0.590576 0.290196 0.290196 0.290196 #0.000000
v -1.141846 4.362061 0.032959 0.290196 0.290196 0.290196 #0.000000
v -1.141846 4.362061 0.032959 0.290196 0.290196 0.290196 #0.000000
v -1.256592 3.824219 0.152100 0.290196 0.290196 0.290196 #0.000000
v -0.898438 3.969971 0.804688 0.290196 0.290196 0.290196 #0.000000
v -0.195801 4.075928 1.071045 0.290196 0.290196 0.290196 #0.000000
v -0.235107 4.577148 0.818359 0.290196 0.290196 0.290196 #0.000000
v -0.835449 4.486816 0.590576 0.290196 0.290196 0.290196 #0.000000
v -0.835449 4.486816 0.590576 0.290196 0.290196 0.290196 #0.000000
v -0.898438 3.969971 0.804688 0.290196 0.290196 0.290196 #0.000000
v -0.195801 4.075928 1.071045 0.290196 0.290196 0.290196 #0.000000
v -0.151855 3.548584 1.164795 0.290196 0.290196 0.290196 #0.000000
v 0.565918 3.565186 0.919922 0.290196 0.290196 0.290196 #0.000000
v 0.521973 4.092529 0.826416 0.290196 0.290196 0.290196 #0.000000
v 0.521973 4.092529 0.826416 0.290196 0.290196 0.290196 #0.000000
v -0.195801 4.075928 1.071045 0.290196 0.290196 0.290196 #0.000000
v -0.151855 3.548584 1.164795 0.290196 0.290196 0.290196 #0.000000
v 0.565918 3.565186 0.919922 0.290196 0.290196 0.290196 #0.000000
v 0.963623 3.484375 0.278809 0.290196 0.290196 0.290196 #0.000000
v 0.919434 4.011719 0.185059 0.290196 0.290196 0.290196 #0.000000
v 0.919434 4.011719 0.185059 0.290196 0.290196 0.290196 #0.000000
v 0.521973 4.092529 0.826416 0.290196 0.290196 0.290196 #0.000000
v 0.565918 3.565186 0.919922 0.290196 0.290196 0.290196 #0.000000
v 0.963623 3.484375 0.278809 0.290196 0.290196 0.290196 #0.000000
v 0.854492 3.344238 -0.458740 0.290196 0.290196 0.290196 #0.000000
v 0.810547 3.871582 -0.552246 0.290196 0.290196 0.290196 #0.000000
v 0.810547 3.871582 -0.552246 0.290196 0.290196 0.290196 #0.000000
v 0.919434 4.011719 0.185059 0.290196 0.290196 0.290196 #0.000000
v 0.963623 3.484375 0.278809 0.290196 0.290196 0.290196 #0.000000
v 0.854492 3.344238 -0.458740 0.290196 0.290196 0.290196 #0.000000
v 0.290039 3.210449 -0.947754 0.290196 0.290196 0.290196 #0.000000
v 0.246094 3.737549 -1.041260 0.290196 0.290196 0.290196 #0.000000
v 0.246094 3.737549 -1.041260 0.290196 0.290196 0.290196 #0.000000
v 0.810547 3.871582 -0.552246 0.290196 0.290196 0.290196 #0.000000
v 0.854492 3.344238 -0.458740 0.290196 0.290196 0.290196 #0.000000
v 0.290039 3.210449 -0.947754 0.290196 0.290196 0.290196 #0.000000
v -0.465576 3.145264 -0.959229 0.290196 0.290196 0.290196 #0.000000
v -0.509521 3.672607 -1.052734 0.290196 0.290196 0.290196 #0.000000
v -0.509521 3.672607 -1.052734 0.290196 0.290196 0.290196 #0.000000
v 0.246094 3.737549 -1.041260 0.290196 0.290196 0.290196 #0.000000
v 0.290039 3.210449 -0.947754 0.290196 0.290196 0.290196 #0.000000
v -0.465576 3.145264 -0.959229 0.290196 0.290196 0.290196 #0.000000
v -1.059082 3.179443 -0.487793 0.290196 0.290196 0.290196 #0.000000
v -1.103271 3.706787 -0.581543 0.290196 0.290196 0.290196 #0.000000
v -1.103271 3.706787 -0.581543 0.290196 0.290196 0.290196 #0.000000
v -0.509521 3.672607 -1.052734 0.290196 0.290196 0.290196 #0.000000
v -0.465576 3.145264 -0.959229 0.290196 0.290196 0.290196 #0.000000
v -1.059082 3.179443 -0.487793 0.290196 0.290196 0.290196 #0.000000
v -1.212646 3.296875 0.245605 0.290196 0.290196 0.290196 #0.000000
v -1.256592 3.824219 0.152100 0.290196 0.290196 0.290196 #0.000000
v -1.256592 3.824219 0.152100 0.290196 0.290196 0.290196 #0.000000
v -1.103271 3.706787 -0.581543 0.290196 0.290196 0.290196 #0.000000
v -1.059082 3.179443 -0.487793 0.290196 0.290196 0.290196 #0.000000
v -1.212646 3.296875 0.245605 0.290196 0.290196 0.290196 #0.000000
v -0.854248 3.442627 0.898438 0.290196 0.290196 0.290196 #0.000000
v -0.898438 3.969971 0.804688 0.290196 0.290196 0.290196 #0.000000
v -0.898438 3.969971 0.804688 0.290196 0.290196 0.290196 #0.000000
v -1.256592 3.824219 0.152100 0.290196 0.290196 0.290196 #0.000000
v -1.212646 3.296875 0.245605 0.290196 0.290196 0.290196 #0.000000
v -0.854248 3.442627 0.898438 0.290196 0.290196 0.290196 #0.000000
v -0.151855 3.548584 1.164795 0.290196 0.290196 0.290196 #0.000000
v -0.195801 4.075928 1.071045 0.290196 0.290196 0.290196 #0.000000
v -0.195801 4.075928 1.071045 0.290196 0.290196 0.290196 #0.000000
v -0.898438 3.969971 0.804688 0.290196 0.290196 0.290196 #0.000000
v -0.854248 3.442627 0.898438 0.290196 0.290196 0.290196 #0.000000
v 0.364502 1.293945 1.022461 0.290196 0.290196 0.290196 #0.000000
v 0.578369 1.858154 1.182617 0.290196 0.290196 0.290196 #0.000000
v -0.111328 1.927002 1.401855 0.290196 0.290196 0.290196 #0.000000
v -0.111328 1.927002 1.401855 0.290196 0.290196 0.290196 #0.000000
v -0.114502 1.341797 1.174805 0.290196 0.290196 0.290196 #0.000000
v 0.364502 1.293945 1.022461 0.290196 0.290196 0.290196 #0.000000
v 0.629883 1.208984 0.601562 0.290196 0.290196 0.290196 #0.000000
v 0.960449 1.735840 0.576416 0.290196 0.290196 0.290196 #0.000000
v 0.578369 1.858154 1.182617 0.290196 0.290196 0.290196 #0.000000
v 0.578369 1.858154 1.182617 0.290196 0.290196 0.290196 #0.000000
v 0.364502 1.293945 1.022461 0.290196 0.290196 0.290196 #0.000000
v 0.629883 1.208984 0.601562 0.290196 0.290196 0.290196 #0.000000
v 0.557129 1.126709 0.108887 0.290196 0.290196 0.290196 #0.000000
v 0.855469 1.617188 -0.132324 0.290196 0.290196 0.290196 #0.000000
v 0.960449 1.735840 0.576416 0.290196 0.290196 0.290196 #0.000000
v 0.960449 1.735840 0.576416 0.290196 0.290196 0.290196 #0.000000
v 0.629883 1.208984 0.601562 0.290196 0.290196 0.290196 #0.000000
v 0.557129 1.126709 0.108887 0.290196 0.290196 0.290196 #0.000000
v 0.180176 1.085449 -0.224365 0.290196 0.290196 0.290196 #0.000000
v 0.312988 1.558105 -0.612793 0.290196 0.290196 0.290196 #0.000000
v 0.855469 1.617188 -0.132324 0.290196 0.290196 0.290196 #0.000000
v 0.855469 1.617188 -0.132324 0.290196 0.290196 0.290196 #0.000000
v 0.557129 1.126709 0.108887 0.290196 0.290196 0.290196 #0.000000
v 0.180176 1.085449 -0.224365 0.290196 0.290196 0.290196 #0.000000
v -0.323975 1.104980 -0.243164 0.290196 0.290196 0.290196 #0.000000
v -0.413086 1.585938 -0.639648 0.290196 0.290196 0.290196 #0.000000
v 0.312988 1.558105 -0.612793 0.290196 0.290196 0.290196 #0.000000
v 0.312988 1.558105 -0.612793 0.290196 0.290196 0.290196 #0.000000
v 0.180176 1.085449 -0.224365 0.290196 0.290196 0.290196 #0.000000
v -0.323975 1.104980 -0.243164 0.290196 0.290196 0.290196 #0.000000
v -0.720215 1.175537 0.061768 0.290196 0.290196 0.290196 #0.000000
v -0.983643 1.687744 -0.200439 0.290196 0.290196 0.290196 #0.000000
v -0.413086 1.585938 -0.639648 0.290196 0.290196 0.290196 #0.000000
v -0.413086 1.585938 -0.639648 0.290196 0.290196 0.290196 #0.000000
v -0.323975 1.104980 -0.243164 0.290196 0.290196 0.290196 #0.000000
v -0.720215 1.175537 0.061768 0.290196 0.290196 0.290196 #0.000000
v -0.822754 1.264648 0.547852 0.290196 0.290196 0.290196 #0.000000
v -1.131104 1.815918 0.499023 0.290196 0.290196 0.290196 #0.000000
v -0.983643 1.687744 -0.200439 0.290196 0.290196 0.290196 #0.000000
v -0.983643 1.687744 -0.200439 0.290196 0.290196 0.290196 #0.000000
v -0.720215 1.175537 0.061768 0.290196 0.290196 0.290196 #0.000000
v -0.822754 1.264648 0.547852 0.290196 0.290196 0.290196 #0.000000
v -0.583496 1.330322 0.987305 0.290196 0.290196 0.290196 #0.000000
v -0.786621 1.910400 1.132080 0.290196 0.290196 0.290196 #0.000000
v -1.131104 1.815918 0.499023 0.290196 0.290196 0.290196 #0.000000
v -1.131104 1.815918 0.499023 0.290196 0.290196 0.290196 #0.000000
v -0.822754 1.264648 0.547852 0.290196 0.290196 0.290196 #0.000000
v -0.583496 1.330322 0.987305 0.290196 0.290196 0.290196 #0.000000
v -0.114502 1.341797 1.174805 0.290196 0.290196 0.290196 #0.000000
v -0.111328 1.927002 1.401855 0.290196 0.290196 0.290196 #0.000000
v -0.786621 1.910400 1.132080 0.290196 0.290196 0.290196 #0.000000
v -0.786621 1.910400 1.132080 0.290196 0.290196 0.290196 #0.000000
v -0.583496 1.330322 0.987305 0.290196 0.290196 0.290196 #0.000000
v -0.114502 1.341797 1.174805 0.290196 0.290196 0.290196 #0.000000
v 0.145508 1.042725 0.791260 0.290196 0.290196 0.290196 #0.000000
v 0.364502 1.293945 1.022461 0.290196 0.290196 0.290196 #0.000000
v -0.114502 1.341797 1.174805 0.290196 0.290196 0.290196 #0.000000
v -0.114502 1.341797 1.174805 0.290196 0.290196 0.290196 #0.000000
v -0.109375 1.068115 0.872314 0.290196 0.290196 0.290196 #0.000000
v 0.145508 1.042725 0.791260 0.290196 0.290196 0.290196 #0.000000
v 0.286621 0.997559 0.567139 0.290196 0.290196 0.290196 #0.000000
v 0.629883 1.208984 0.601562 0.290196 0.290196 0.290196 #0.000000
v 0.364502 1.293945 1.022461 0.290196 0.290196 0.290196 #0.000000
v 0.364502 1.293945 1.022461 0.290196 0.290196 0.290196 #0.000000
v 0.145508 1.042725 0.791260 0.290196 0.290196 0.290196 #0.000000
v 0.286621 0.997559 0.567139 0.290196 0.290196 0.290196 #0.000000
v 0.247803 0.953857 0.305176 0.290196 0.290196 0.290196 #0.000000
v 0.557129 1.126709 0.108887 0.290196 0.290196 0.290196 #0.000000
v 0.629883 1.208984 0.601562 0.290196 0.290196 0.290196 #0.000000
v 0.629883 1.208984 0.601562 0.290196 0.290196 0.290196 #0.000000
v 0.286621 0.997559 0.567139 0.290196 0.290196 0.290196 #0.000000
v 0.247803 0.953857 0.305176 0.290196 0.290196 0.290196 #0.000000
v 0.047363 0.931885 0.127686 0.290196 0.290196 0.290196 #0.000000
v 0.180176 1.085449 -0.224365 0.290196 0.290196 0.290196 #0.000000
v 0.557129 1.126709 0.108887 0.290196 0.290196 0.290196 #0.000000
v 0.557129 1.126709 0.108887 0.290196 0.290196 0.290196 #0.000000
v 0.247803 0.953857 0.305176 0.290196 0.290196 0.290196 #0.000000
v 0.047363 0.931885 0.127686 0.290196 0.290196 0.290196 #0.000000
v -0.220947 0.942139 0.117676 0.290196 0.290196 0.290196 #0.000000
v -0.323975 1.104980 -0.243164 0.290196 0.290196 0.290196 #0.000000
v 0.180176 1.085449 -0.224365 0.290196 0.290196 0.290196 #0.000000
v 0.180176 1.085449 -0.224365 0.290196 0.290196 0.290196 #0.000000
v 0.047363 0.931885 0.127686 0.290196 0.290196 0.290196 #0.000000
v -0.220947 0.942139 0.117676 0.290196 0.290196 0.290196 #0.000000
v -0.431641 0.979736 0.280029 0.290196 0.290196 0.290196 #0.000000
v -0.720215 1.175537 0.061768 0.290196 0.290196 0.290196 #0.000000
v -0.323975 1.104980 -0.243164 0.290196 0.290196 0.290196 #0.000000
v -0.323975 1.104980 -0.243164 0.290196 0.290196 0.290196 #0.000000
v -0.220947 0.942139 0.117676 0.290196 0.290196 0.290196 #0.000000
v -0.431641 0.979736 0.280029 0.290196 0.290196 0.290196 #0.000000
v -0.486084 1.027100 0.538574 0.290196 0.290196 0.290196 #0.000000
v -0.822754 1.264648 0.547852 0.290196 0.290196 0.290196 #0.000000
v -0.720215 1.175537 0.061768 0.290196 0.290196 0.290196 #0.000000
v -0.720215 1.175537 0.061768 0.290196 0.290196 0.290196 #0.000000
v -0.431641 0.979736 0.280029 0.290196 0.290196 0.290196 #0.000000
v -0.486084 1.027100 0.538574 0.290196 0.290196 0.290196 #0.000000
v -0.358887 1.062012 0.772461 0.290196 0.290196 0.290196 #0.000000
v -0.583496 1.330322 0.987305 0.290196 0.290196 0.290196 #0.000000
v -0.822754 1.264648 0.547852 0.290196 0.290196 0.290196 #0.000000
v -0.822754 1.264648 0.547852 0.290196 0.290196 0.290196 #0.000000
v -0.486084 1.027100 0.538574 0.290196 0.290196 0.290196 #0.000000
v -0.358887 1.062012 0.772461 0.290196 0.290196 0.290196 #0.000000
v -0.109375 1.068115 0.872314 0.290196 0.290196 0.290196 #0.000000
v -0.114502 1.341797 1.174805 0.290196 0.290196 0.290196 #0.000000
v -0.583496 1.330322 0.987305 0.290196 0.290196 0.290196 #0.000000
v -0.583496 1.330322 0.987305 0.290196 0.290196 0.290196 #0.000000
v -0.358887 1.062012 0.772461 0.290196 0.290196 0.290196 #0.000000
v -0.109375 1.068115 0.872314 0.290196 0.290196 0.290196 #0.000000
v -0.099365 0.926270 0.498779 0.290196 0.290196 0.290196 #0.000000
v 0.145508 1.042725 0.791260 0.290196 0.290196 0.290196 #0.000000
v -0.109375 1.068115 0.872314 0.290196 0.290196 0.290196 #0.000000
v -0.099365 0.926270 0.498779 0.290196 0.290196 0.290196 #0.000000
v 0.286621 0.997559 0.567139 0.290196 0.290196 0.290196 #0.000000
v 0.145508 1.042725 0.791260 0.290196 0.290196 0.290196 #0.000000
v -0.099365 0.926270 0.498779 0.290196 0.290196 0.290196 #0.000000
v 0.247803 0.953857 0.305176 0.290196 0.290196 0.290196 #0.000000
v 0.286621 0.997559 0.567139 0.290196 0.290196 0.290196 #0.000000
v -0.099365 0.926270 0.498779 0.290196 0.290196 0.290196 #0.000000
v 0.047363 0.931885 0.127686 0.290196 0.290196 0.290196 #0.000000
v 0.247803 0.953857 0.305176 0.290196 0.290196 0.290196 #0.000000
v -0.099365 0.926270 0.498779 0.290196 0.290196 0.290196 #0.000000
v -0.220947 0.942139 0.117676 0.290196 0.290196 0.290196 #0.000000
v 0.047363 0.931885 0.127686 0.290196 0.290196 0.290196 #0.000000
v -0.099365 0.926270 0.498779 0.290196 0.290196 0.290196 #0.000000
v -0.431641 0.979736 0.280029 0.290196 0.290196 0.290196 #0.000000
v -0.220947 0.942139 0.117676 0.290196 0.290196 0.290196 #0.000000
v -0.099365 0.926270 0.498779 0.290196 0.290196 0.290196 #0.000000
v -0.486084 1.027100 0.538574 0.290196 0.290196 0.290196 #0.000000
v -0.431641 0.979736 0.280029 0.290196 0.290196 0.290196 #0.000000
v -0.099365 0.926270 0.498779 0.290196 0.290196 0.290196 #0.000000
v -0.358887 1.062012 0.772461 0.290196 0.290196 0.290196 #0.000000
v -0.486084 1.027100 0.538574 0.290196 0.290196 0.290196 #0.000000
v -0.099365 0.926270 0.498779 0.290196 0.290196 0.290196 #0.000000
v -0.109375 1.068115 0.872314 0.290196 0.290196 0.290196 #0.000000
v -0.358887 1.062012 0.772461 0.290196 0.290196 0.290196 #0.000000
v -0.097900 2.577148 1.357666 0.290196 0.290196 0.290196 #0.000000
v 0.635986 2.503906 1.124268 0.290196 0.290196 0.290196 #0.000000
v 0.545654 3.066162 0.930664 0.290196 0.290196 0.290196 #0.000000
v 0.545654 3.066162 0.930664 0.290196 0.290196 0.290196 #0.000000
v -0.109375 3.057373 1.152588 0.290196 0.290196 0.290196 #0.000000
v -0.097900 2.577148 1.357666 0.290196 0.290196 0.290196 #0.000000
v 0.635986 2.503906 1.124268 0.290196 0.290196 0.290196 #0.000000
v 1.042480 2.373535 0.479248 0.290196 0.290196 0.290196 #0.000000
v 0.908447 2.989502 0.346436 0.290196 0.290196 0.290196 #0.000000
v 0.908447 2.989502 0.346436 0.290196 0.290196 0.290196 #0.000000
v 0.545654 3.066162 0.930664 0.290196 0.290196 0.290196 #0.000000
v 0.635986 2.503906 1.124268 0.290196 0.290196 0.290196 #0.000000
v 1.042480 2.373535 0.479248 0.290196 0.290196 0.290196 #0.000000
v 0.930908 2.247559 -0.275146 0.290196 0.290196 0.290196 #0.000000
v 0.808838 2.862793 -0.326172 0.290196 0.290196 0.290196 #0.000000
v 0.808838 2.862793 -0.326172 0.290196 0.290196 0.290196 #0.000000
v 0.908447 2.989502 0.346436 0.290196 0.290196 0.290196 #0.000000
v 1.042480 2.373535 0.479248 0.290196 0.290196 0.290196 #0.000000
v 0.930908 2.247559 -0.275146 0.290196 0.290196 0.290196 #0.000000
v 0.353760 2.184570 -0.786377 0.290196 0.290196 0.290196 #0.000000
v 0.293945 2.745605 -0.772949 0.290196 0.290196 0.290196 #0.000000
v 0.293945 2.745605 -0.772949 0.290196 0.290196 0.290196 #0.000000
v 0.808838 2.862793 -0.326172 0.290196 0.290196 0.290196 #0.000000
v 0.930908 2.247559 -0.275146 0.290196 0.290196 0.290196 #0.000000
v 0.353760 2.184570 -0.786377 0.290196 0.290196 0.290196 #0.000000
v -0.419189 2.214111 -0.814941 0.290196 0.290196 0.290196 #0.000000
v -0.395752 2.692627 -0.784424 0.290196 0.290196 0.290196 #0.000000
v -0.395752 2.692627 -0.784424 0.290196 0.290196 0.290196 #0.000000
v 0.293945 2.745605 -0.772949 0.290196 0.290196 0.290196 #0.000000
v 0.353760 2.184570 -0.786377 0.290196 0.290196 0.290196 #0.000000
v -0.419189 2.214111 -0.814941 0.290196 0.290196 0.290196 #0.000000
v -1.026123 2.322266 -0.347412 0.290196 0.290196 0.290196 #0.000000
v -0.937256 2.728760 -0.355469 0.290196 0.290196 0.290196 #0.000000
v -0.937256 2.728760 -0.355469 0.290196 0.290196 0.290196 #0.000000
v -0.395752 2.692627 -0.784424 0.290196 0.290196 0.290196 #0.000000
v -0.419189 2.214111 -0.814941 0.290196 0.290196 0.290196 #0.000000
v -1.026123 2.322266 -0.347412 0.290196 0.290196 0.290196 #0.000000
v -1.183105 2.458740 0.396973 0.290196 0.290196 0.290196 #0.000000
v -1.077393 2.837158 0.312988 0.290196 0.290196 0.290196 #0.000000
v -1.077393 2.837158 0.312988 0.290196 0.290196 0.290196 #0.000000
v -0.937256 2.728760 -0.355469 0.290196 0.290196 0.290196 #0.000000
v -1.026123 2.322266 -0.347412 0.290196 0.290196 0.290196 #0.000000
v -1.183105 2.458740 0.396973 0.290196 0.290196 0.290196 #0.000000
v -0.816406 2.559326 1.070557 0.290196 0.290196 0.290196 #0.000000
v -0.750244 2.966797 0.908691 0.290196 0.290196 0.290196 #0.000000
v -0.750244 2.966797 0.908691 0.290196 0.290196 0.290196 #0.000000
v -1.077393 2.837158 0.312988 0.290196 0.290196 0.290196 #0.000000
v -1.183105 2.458740 0.396973 0.290196 0.290196 0.290196 #0.000000
v -0.816406 2.559326 1.070557 0.290196 0.290196 0.290196 #0.000000
v -0.097900 2.577148 1.357666 0.290196 0.290196 0.290196 #0.000000
v -0.109375 3.057373 1.152588 0.290196 0.290196 0.290196 #0.000000
v -0.109375 3.057373 1.152588 0.290196 0.290196 0.290196 #0.000000
v -0.750244 2.966797 0.908691 0.290196 0.290196 0.290196 #0.000000
v -0.816406 2.559326 1.070557 0.290196 0.290196 0.290196 #0.000000
v -0.109375 3.057373 1.152588 0.290196 0.290196 0.290196 #0.000000
v 0.545654 3.066162 0.930664 0.290196 0.290196 0.290196 #0.000000
v 0.565918 3.565186 0.919922 0.290196 0.290196 0.290196 #0.000000
v 0.565918 3.565186 0.919922 0.290196 0.290196 0.290196 #0.000000
v -0.151855 3.548584 1.164795 0.290196 0.290196 0.290196 #0.000000
v -0.109375 3.057373 1.152588 0.290196 0.290196 0.290196 #0.000000
v 0.545654 3.066162 0.930664 0.290196 0.290196 0.290196 #0.000000
v 0.908447 2.989502 0.346436 0.290196 0.290196 0.290196 #0.000000
v 0.963623 3.484375 0.278809 0.290196 0.290196 0.290196 #0.000000
v 0.963623 3.484375 0.278809 0.290196 0.290196 0.290196 #0.000000
v 0.565918 3.565186 0.919922 0.290196 0.290196 0.290196 #0.000000
v 0.545654 3.066162 0.930664 0.290196 0.290196 0.290196 #0.000000
v 0.908447 2.989502 0.346436 0.290196 0.290196 0.290196 #0.000000
v 0.808838 2.862793 -0.326172 0.290196 0.290196 0.290196 #0.000000
v 0.854492 3.344238 -0.458740 0.290196 0.290196 0.290196 #0.000000
v 0.854492 3.344238 -0.458740 0.290196 0.290196 0.290196 #0.000000
v 0.963623 3.484375 0.278809 0.290196 0.290196 0.290196 #0.000000
v 0.908447 2.989502 0.346436 0.290196 0.290196 0.290196 #0.000000
v 0.808838 2.862793 -0.326172 0.290196 0.290196 0.290196 #0.000000
v 0.293945 2.745605 -0.772949 0.290196 0.290196 0.290196 #0.000000
v 0.290039 3.210449 -0.947754 0.290196 0.290196 0.290196 #0.000000
v 0.290039 3.210449 -0.947754 0.290196 0.290196 0.290196 #0.000000
v 0.854492 3.344238 -0.458740 0.290196 0.290196 0.290196 #0.000000
v 0.808838 2.862793 -0.326172 0.290196 0.290196 0.290196 #0.000000
v 0.293945 2.745605 -0.772949 0.290196 0.290196 0.290196 #0.000000
v -0.395752 2.692627 -0.784424 0.290196 0.290196 0.290196 #0.000000
v -0.465576 3.145264 -0.959229 0.290196 0.290196 0.290196 #0.000000
v -0.465576 3.145264 -0.959229 0.290196 0.290196 0.290196 #0.000000
v 0.290039 3.210449 -0.947754 0.290196 0.290196 0.290196 #0.000000
v 0.293945 2.745605 -0.772949 0.290196 0.290196 0.290196 #0.000000
v -0.395752 2.692627 -0.784424 0.290196 0.290196 0.290196 #0.000000
v -0.937256 2.728760 -0.355469 0.290196 0.290196 0.290196 #0.000000
v -1.059082 3.179443 -0.487793 0.290196 0.290196 0.290196 #0.000000
v -1.059082 3.179443 -0.487793 0.290196 0.290196 0.290196 #0.000000
v -0.465576 3.145264 -0.959229 0.290196 0.290196 0.290196 #0.000000
v -0.395752 2.692627 -0.784424 0.290196 0.290196 0.290196 #0.000000
v -0.937256 2.728760 -0.355469 0.290196 0.290196 0.290196 #0.000000
v -1.077393 2.837158 0.312988 0.290196 0.290196 0.290196 #0.000000
v -1.212646 3.296875 0.245605 0.290196 0.290196 0.290196 #0.000000
v -1.212646 3.296875 0.245605 0.290196 0.290196 0.290196 #0.000000
v -1.059082 3.179443 -0.487793 0.290196 0.290196 0.290196 #0.000000
v -0.937256 2.728760 -0.355469 0.290196 0.290196 0.290196 #0.000000
v -1.077393 2.837158 0.312988 0.290196 0.290196 0.290196 #0.000000
v -0.750244 2.966797 0.908691 0.290196 0.290196 0.290196 #0.000000
v -0.854248 3.442627 0.898438 0.290196 0.290196 0.290196 #0.000000
v -0.854248 3.442627 0.898438 0.290196 0.290196 0.290196 #0.000000
v -1.212646 3.296875 0.245605 0.290196 0.290196 0.290196 #0.000000
v -1.077393 2.837158 0.312988 0.290196 0.290196 0.290196 #0.000000
v -0.750244 2.966797 0.908691 0.290196 0.290196 0.290196 #0.000000
v -0.109375 3.057373 1.152588 0.290196 0.290196 0.290196 #0.000000
v -0.151855 3.548584 1.164795 0.290196 0.290196 0.290196 #0.000000
v -0.151855 3.548584 1.164795 0.290196 0.290196 0.290196 #0.000000
v -0.854248 3.442627 0.898438 0.290196 0.290196 0.290196 #0.000000
v -0.750244 2.966797 0.908691 0.290196 0.290196 0.290196 #0.000000
v -0.111328 1.927002 1.401855 0.290196 0.290196 0.290196 #0.000000
v 0.578369 1.858154 1.182617 0.290196 0.290196 0.290196 #0.000000
v 0.635986 2.503906 1.124268 0.290196 0.290196 0.290196 #0.000000
v 0.635986 2.503906 1.124268 0.290196 0.290196 0.290196 #0.000000
v -0.097900 2.577148 1.357666 0.290196 0.290196 0.290196 #0.000000
v -0.111328 1.927002 1.401855 0.290196 0.290196 0.290196 #0.000000
v 0.578369 1.858154 1.182617 0.290196 0.290196 0.290196 #0.000000
v 0.960449 1.735840 0.576416 0.290196 0.290196 0.290196 #0.000000
v 1.042480 2.373535 0.479248 0.290196 0.290196 0.290196 #0.000000
v 1.042480 2.373535 0.479248 0.290196 0.290196 0.290196 #0.000000
v 0.635986 2.503906 1.124268 0.290196 0.290196 0.290196 #0.000000
v 0.578369 1.858154 1.182617 0.290196 0.290196 0.290196 #0.000000
v 0.960449 1.735840 0.576416 0.290196 0.290196 0.290196 #0.000000
v 0.855469 1.617188 -0.132324 0.290196 0.290196 0.290196 #0.000000
v 0.930908 2.247559 -0.275146 0.290196 0.290196 0.290196 #0.000000
v 0.930908 2.247559 -0.275146 0.290196 0.290196 0.290196 #0.000000
v 1.042480 2.373535 0.479248 0.290196 0.290196 0.290196 #0.000000
v 0.960449 1.735840 0.576416 0.290196 0.290196 0.290196 #0.000000
v 0.855469 1.617188 -0.132324 0.290196 0.290196 0.290196 #0.000000
v 0.312988 1.558105 -0.612793 0.290196 0.290196 0.290196 #0.000000
v 0.353760 2.184570 -0.786377 0.290196 0.290196 0.290196 #0.000000
v 0.353760 2.184570 -0.786377 0.290196 0.290196 0.290196 #0.000000
v 0.930908 2.247559 -0.275146 0.290196 0.290196 0.290196 #0.000000
v 0.855469 1.617188 -0.132324 0.290196 0.290196 0.290196 #0.000000
v 0.312988 1.558105 -0.612793 0.290196 0.290196 0.290196 #0.000000
v -0.413086 1.585938 -0.639648 0.290196 0.290196 0.290196 #0.000000
v -0.419189 2.214111 -0.814941 0.290196 0.290196 0.290196 #0.000000
v -0.419189 2.214111 -0.814941 0.290196 0.290196 0.290196 #0.000000
v 0.353760 2.184570 -0.786377 0.290196 0.290196 0.290196 #0.000000
v 0.312988 1.558105 -0.612793 0.290196 0.290196 0.290196 #0.000000
v -0.413086 1.585938 -0.639648 0.290196 0.290196 0.290196 #0.000000
v -0.983643 1.687744 -0.200439 0.290196 0.290196 0.290196 #0.000000
v -1.026123 2.322266 -0.347412 0.290196 0.290196 0.290196 #0.000000
v -1.026123 2.322266 -0.347412 0.290196 0.290196 0.290196 #0.000000
v -0.419189 2.214111 -0.814941 0.290196 0.290196 0.290196 #0.000000
v -0.413086 1.585938 -0.639648 0.290196 0.290196 0.290196 #0.000000
v -0.983643 1.687744 -0.200439 0.290196 0.290196 0.290196 #0.000000
v -1.131104 1.815918 0.499023 0.290196 0.290196 0.290196 #0.000000
v -1.183105 2.458740 0.396973 0.290196 0.290196 0.290196 #0.000000
v -1.183105 2.458740 0.396973 0.290196 0.290196 0.290196 #0.000000
v -1.026123 2.322266 -0.347412 0.290196 0.290196 0.290196 #0.000000
v -0.983643 1.687744 -0.200439 0.290196 0.290196 0.290196 #0.000000
v -1.131104 1.815918 0.499023 0.290196 0.290196 0.290196 #0.000000
v -0.786621 1.910400 1.132080 0.290196 0.290196 0.290196 #0.000000
v -0.816406 2.559326 1.070557 0.290196 0.290196 0.290196 #0.000000
v -0.816406 2.559326 1.070557 0.290196 0.290196 0.290196 #0.000000
v -1.183105 2.458740 0.396973 0.290196 0.290196 0.290196 #0.000000
v -1.131104 1.815918 0.499023 0.290196 0.290196 0.290196 #0.000000
v -0.786621 1.910400 1.132080 0.290196 0.290196 0.290196 #0.000000
v -0.111328 1.927002 1.401855 0.290196 0.290196 0.290196 #0.000000
v -0.097900 2.577148 1.357666 0.290196 0.290196 0.290196 #0.000000
v -0.097900 2.577148 1.357666 0.290196 0.290196 0.290196 #0.000000
v -0.816406 2.559326 1.070557 0.290196 0.290196 0.290196 #0.000000
v -0.786621 1.910400 1.132080 0.290196 0.290196 0.290196 #0.000000
v 0.000000 0.850830 0.000000 0.290196 0.290196 0.290196 #0.000000
v -1.786377 0.542725 -0.893799 0.290196 0.290196 0.290196 #0.000000
v -1.928955 0.684570 -0.029297 0.290196 0.290196 0.290196 #0.000000
v 0.000000 0.850830 0.000000 0.290196 0.290196 0.290196 #0.000000
v -1.428467 0.438232 -1.650879 0.290196 0.290196 0.290196 #0.000000
v -1.786377 0.542725 -0.893799 0.290196 0.290196 0.290196 #0.000000
v 0.000000 0.850830 0.000000 0.290196 0.290196 0.290196 #0.000000
v -0.897949 0.383545 -2.208496 0.290196 0.290196 0.290196 #0.000000
v -1.428467 0.438232 -1.650879 0.290196 0.290196 0.290196 #0.000000
v 0.000000 0.850830 0.000000 0.290196 0.290196 0.290196 #0.000000
v -0.259277 0.385010 -2.500000 0.290196 0.290196 0.290196 #0.000000
v -0.897949 0.383545 -2.208496 0.290196 0.290196 0.290196 #0.000000
v 0.000000 0.850830 0.000000 0.290196 0.290196 0.290196 #0.000000
v 0.410400 0.442871 -2.489746 0.290196 0.290196 0.290196 #0.000000
v -0.259277 0.385010 -2.500000 0.290196 0.290196 0.290196 #0.000000
v 0.000000 0.850830 0.000000 0.290196 0.290196 0.290196 #0.000000
v 1.030762 0.549805 -2.179199 0.290196 0.290196 0.290196 #0.000000
v 0.410400 0.442871 -2.489746 0.290196 0.290196 0.290196 #0.000000
v 0.000000 0.850830 0.000000 0.290196 0.290196 0.290196 #0.000000
v 1.526855 0.692871 -1.605957 0.290196 0.290196 0.290196 #0.000000
v 1.030762 0.549805 -2.179199 0.290196 0.290196 0.290196 #0.000000
v 0.000000 0.850830 0.000000 0.290196 0.290196 0.290196 #0.000000
v 1.838867 0.855225 -0.838867 0.290196 0.290196 0.290196 #0.000000
v 1.526855 0.692871 -1.605957 0.290196 0.290196 0.290196 #0.000000
v 0.000000 0.850830 0.000000 0.290196 0.290196 0.290196 #0.000000
v 1.928955 1.016846 0.029297 0.290196 0.290196 0.290196 #0.000000
v 1.838867 0.855225 -0.838867 0.290196 0.290196 0.290196 #0.000000
v 0.000000 0.850830 0.000000 0.290196 0.290196 0.290196 #0.000000
v 1.786377 1.158691 0.893799 0.290196 0.290196 0.290196 #0.000000
v 1.928955 1.016846 0.029297 0.290196 0.290196 0.290196 #0.000000
v 0.000000 0.850830 0.000000 0.290196 0.290196 0.290196 #0.000000
v 1.428467 1.263184 1.650879 0.290196 0.290196 0.290196 #0.000000
v 1.786377 1.158691 0.893799 0.290196 0.290196 0.290196 #0.000000
v 0.000000 0.850830 0.000000 0.290196 0.290196 0.290196 #0.000000
v 0.897949 1.317871 2.208496 0.290196 0.290196 0.290196 #0.000000
v 1.428467 1.263184 1.650879 0.290196 0.290196 0.290196 #0.000000
v 0.000000 0.850830 0.000000 0.290196 0.290196 0.290196 #0.000000
v 0.259277 1.316406 2.499756 0.290196 0.290196 0.290196 #0.000000
v 0.897949 1.317871 2.208496 0.290196 0.290196 0.290196 #0.000000
v 0.000000 0.850830 0.000000 0.290196 0.290196 0.290196 #0.000000
v -0.410400 1.258545 2.489746 0.290196 0.290196 0.290196 #0.000000
v 0.259277 1.316406 2.499756 0.290196 0.290196 0.290196 #0.000000
v 0.000000 0.850830 0.000000 0.290196 0.290196 0.290196 #0.000000
v -1.030762 1.151611 2.179199 0.290196 0.290196 0.290196 #0.000000
v -0.410400 1.258545 2.489746 0.290196 0.290196 0.290196 #0.000000
v 0.000000 0.850830 0.000000 0.290196 0.290196 0.290196 #0.000000
v -1.526855 1.008545 1.605957 0.290196 0.290196 0.290196 #0.000000
v -1.030762 1.151611 2.179199 0.290196 0.290196 0.290196 #0.000000
v 0.000000 0.850830 0.000000 0.290196 0.290196 0.290196 #0.000000
v -1.838867 0.846191 0.838867 0.290196 0.290196 0.290196 #0.000000
v -1.526855 1.008545 1.605957 0.290196 0.290196 0.290196 #0.000000
v 0.000000 0.850830 0.000000 0.290196 0.290196 0.290196 #0.000000
v -1.928955 0.684570 -0.029297 0.290196 0.290196 0.290196 #0.000000
v -1.838867 0.846191 0.838867 0.290196 0.290196 0.290196 #0.000000
vt 0.555176 0.240967 0.000000
vt 0.555176 0.236572 0.000000
vt 0.532227 0.236572 0.000000
vt 0.555176 0.240967 0.000000
vt 0.532227 0.236572 0.000000
vt 0.520020 0.236572 0.000000
vt 0.555176 0.240967 0.000000
vt 0.520020 0.236572 0.000000
vt 0.524170 0.236572 0.000000
vt 0.555176 0.240967 0.000000
vt 0.524170 0.236572 0.000000
vt 0.542969 0.236572 0.000000
vt 0.555176 0.240967 0.000000
vt 0.542969 0.236572 0.000000
vt 0.567383 0.236572 0.000000
vt 0.555176 0.240967 0.000000
vt 0.567383 0.236572 0.000000
vt 0.586182 0.236572 0.000000
vt 0.555176 0.240967 0.000000
vt 0.586182 0.236572 0.000000
vt 0.590332 0.236572 0.000000
vt 0.555176 0.240967 0.000000
vt 0.590332 0.236572 0.000000
vt 0.578125 0.236572 0.000000
vt 0.555176 0.240967 0.000000
vt 0.578125 0.236572 0.000000
vt 0.555176 0.236572 0.000000
vt 0.515869 0.223145 0.000000
vt 0.532227 0.236572 0.000000
vt 0.555176 0.236572 0.000000
vt 0.555176 0.236572 0.000000
vt 0.555176 0.223145 0.000000
vt 0.515869 0.223145 0.000000
vt 0.494873 0.223145 0.000000
vt 0.520020 0.236572 0.000000
vt 0.532227 0.236572 0.000000
vt 0.532227 0.236572 0.000000
vt 0.515869 0.223145 0.000000
vt 0.494873 0.223145 0.000000
vt 0.502197 0.223145 0.000000
vt 0.524170 0.236572 0.000000
vt 0.520020 0.236572 0.000000
vt 0.520020 0.236572 0.000000
vt 0.494873 0.223145 0.000000
vt 0.502197 0.223145 0.000000
vt 0.335449 0.821533 0.000000
vt 0.395508 0.985840 0.000000
vt 0.252686 0.988525 0.000000
vt 0.252686 0.988525 0.000000
vt 0.091064 0.826416 0.000000
vt 0.335449 0.821533 0.000000
vt 0.647705 0.821777 0.000000
vt 0.578369 0.985840 0.000000
vt 0.395508 0.985840 0.000000
vt 0.395508 0.985840 0.000000
vt 0.335449 0.821533 0.000000
vt 0.647705 0.821777 0.000000
vt 0.881592 0.826904 0.000000
vt 0.715088 0.989014 0.000000
vt 0.578369 0.985840 0.000000
vt 0.578369 0.985840 0.000000
vt 0.647705 0.821777 0.000000
vt 0.881592 0.826904 0.000000
vt 0.615479 0.223145 0.000000
vt 0.590332 0.236572 0.000000
vt 0.586182 0.236572 0.000000
vt 0.586182 0.236572 0.000000
vt 0.608154 0.223145 0.000000
vt 0.615479 0.223145 0.000000
vt 0.594482 0.223145 0.000000
vt 0.578125 0.236572 0.000000
vt 0.590332 0.236572 0.000000
vt 0.590332 0.236572 0.000000
vt 0.615479 0.223145 0.000000
vt 0.594482 0.223145 0.000000
vt 0.555176 0.223145 0.000000
vt 0.555176 0.236572 0.000000
vt 0.578125 0.236572 0.000000
vt 0.578125 0.236572 0.000000
vt 0.594482 0.223145 0.000000
vt 0.555176 0.223145 0.000000
vt 0.509277 0.204102 0.000000
vt 0.515869 0.223145 0.000000
vt 0.555176 0.223145 0.000000
vt 0.555176 0.223145 0.000000
vt 0.555176 0.204102 0.000000
vt 0.509277 0.204102 0.000000
vt 0.484619 0.204102 0.000000
vt 0.494873 0.223145 0.000000
vt 0.515869 0.223145 0.000000
vt 0.515869 0.223145 0.000000
vt 0.509277 0.204102 0.000000
vt 0.484619 0.204102 0.000000
vt 0.493164 0.204102 0.000000
vt 0.502197 0.223145 0.000000
vt 0.494873 0.223145 0.000000
vt 0.494873 0.223145 0.000000
vt 0.484619 0.204102 0.000000
vt 0.493164 0.204102 0.000000
vt 0.310791 0.590088 0.000000
vt 0.335449 0.821533 0.000000
vt 0.091064 0.826416 0.000000
vt 0.091064 0.826416 0.000000
vt 0.024902 0.595947 0.000000
vt 0.310791 0.590088 0.000000
vt 0.676270 0.590332 0.000000
vt 0.647705 0.821777 0.000000
vt 0.335449 0.821533 0.000000
vt 0.335449 0.821533 0.000000
vt 0.310791 0.590088 0.000000
vt 0.676270 0.590332 0.000000
vt 0.949951 0.596436 0.000000
vt 0.881592 0.826904 0.000000
vt 0.647705 0.821777 0.000000
vt 0.647705 0.821777 0.000000
vt 0.676270 0.590332 0.000000
vt 0.949951 0.596436 0.000000
vt 0.625732 0.204102 0.000000
vt 0.615479 0.223145 0.000000
vt 0.608154 0.223145 0.000000
vt 0.608154 0.223145 0.000000
vt 0.617188 0.204102 0.000000
vt 0.625732 0.204102 0.000000
vt 0.601074 0.204102 0.000000
vt 0.594482 0.223145 0.000000
vt 0.615479 0.223145 0.000000
vt 0.615479 0.223145 0.000000
vt 0.625732 0.204102 0.000000
vt 0.601074 0.204102 0.000000
vt 0.555176 0.204102 0.000000
vt 0.555176 0.223145 0.000000
vt 0.594482 0.223145 0.000000
vt 0.594482 0.223145 0.000000
vt 0.601074 0.204102 0.000000
vt 0.555176 0.204102 0.000000
vt 0.555176 0.185059 0.000000
vt 0.509277 0.185059 0.000000
vt 0.509277 0.204102 0.000000
vt 0.509277 0.204102 0.000000
vt 0.555176 0.204102 0.000000
vt 0.555176 0.185059 0.000000
vt 0.509277 0.185059 0.000000
vt 0.484619 0.185059 0.000000
vt 0.484619 0.204102 0.000000
vt 0.484619 0.204102 0.000000
vt 0.509277 0.204102 0.000000
vt 0.509277 0.185059 0.000000
vt 0.484619 0.185059 0.000000
vt 0.493164 0.185059 0.000000
vt 0.493164 0.204102 0.000000
vt 0.493164 0.204102 0.000000
vt 0.484619 0.204102 0.000000
vt 0.484619 0.185059 0.000000
vt 0.024902 0.367188 0.000000
vt 0.310791 0.361328 0.000000
vt 0.310791 0.590088 0.000000
vt 0.310791 0.590088 0.000000
vt 0.024902 0.595947 0.000000
vt 0.024902 0.367188 0.000000
vt 0.310791 0.361328 0.000000
vt 0.676270 0.361572 0.000000
vt 0.676270 0.590332 0.000000
vt 0.676270 0.590332 0.000000
vt 0.310791 0.590088 0.000000
vt 0.310791 0.361328 0.000000
vt 0.676270 0.361572 0.000000
vt 0.949951 0.367676 0.000000
vt 0.949951 0.596436 0.000000
vt 0.949951 0.596436 0.000000
vt 0.676270 0.590332 0.000000
vt 0.676270 0.361572 0.000000
vt 0.617188 0.185059 0.000000
vt 0.625732 0.185059 0.000000
vt 0.625732 0.204102 0.000000
vt 0.625732 0.204102 0.000000
vt 0.617188 0.204102 0.000000
vt 0.617188 0.185059 0.000000
vt 0.625732 0.185059 0.000000
vt 0.601074 0.185059 0.000000
vt 0.601074 0.204102 0.000000
vt 0.601074 0.204102 0.000000
vt 0.625732 0.204102 0.000000
vt 0.625732 0.185059 0.000000
vt 0.601074 0.185059 0.000000
vt 0.555176 0.185059 0.000000
vt 0.555176 0.204102 0.000000
vt 0.555176 0.204102 0.000000
vt 0.601074 0.204102 0.000000
vt 0.601074 0.185059 0.000000
vt 0.534668 0.105713 0.000000
vt 0.517578 0.123779 0.000000
vt 0.561279 0.126709 0.000000
vt 0.561279 0.126709 0.000000
vt 0.564941 0.107910 0.000000
vt 0.534668 0.105713 0.000000
vt 0.518555 0.104492 0.000000
vt 0.494385 0.122070 0.000000
vt 0.517578 0.123779 0.000000
vt 0.517578 0.123779 0.000000
vt 0.534668 0.105713 0.000000
vt 0.518555 0.104492 0.000000
vt 0.524170 0.104980 0.000000
vt 0.502441 0.122803 0.000000
vt 0.494385 0.122070 0.000000
vt 0.494385 0.122070 0.000000
vt 0.518555 0.104492 0.000000
vt 0.524170 0.104980 0.000000
vt 0.548828 0.106689 0.000000
vt 0.538086 0.125244 0.000000
vt 0.502441 0.122803 0.000000
vt 0.502441 0.122803 0.000000
vt 0.524170 0.104980 0.000000
vt 0.548828 0.106689 0.000000
vt 0.581055 0.108887 0.000000
vt 0.584473 0.128418 0.000000
vt 0.538086 0.125244 0.000000
vt 0.538086 0.125244 0.000000
vt 0.548828 0.106689 0.000000
vt 0.581055 0.108887 0.000000
vt 0.605957 0.110596 0.000000
vt 0.620361 0.130859 0.000000
vt 0.584473 0.128418 0.000000
vt 0.584473 0.128418 0.000000
vt 0.581055 0.108887 0.000000
vt 0.605957 0.110596 0.000000
vt 0.611572 0.111084 0.000000
vt 0.628418 0.131592 0.000000
vt 0.620361 0.130859 0.000000
vt 0.620361 0.130859 0.000000
vt 0.605957 0.110596 0.000000
vt 0.611572 0.111084 0.000000
vt 0.595459 0.109863 0.000000
vt 0.604980 0.129883 0.000000
vt 0.628418 0.131592 0.000000
vt 0.628418 0.131592 0.000000
vt 0.611572 0.111084 0.000000
vt 0.595459 0.109863 0.000000
vt 0.564941 0.107910 0.000000
vt 0.561279 0.126709 0.000000
vt 0.604980 0.129883 0.000000
vt 0.604980 0.129883 0.000000
vt 0.595459 0.109863 0.000000
vt 0.564941 0.107910 0.000000
vt 0.550293 0.099121 0.000000
vt 0.534668 0.105713 0.000000
vt 0.564941 0.107910 0.000000
vt 0.564941 0.107910 0.000000
vt 0.566406 0.100098 0.000000
vt 0.550293 0.099121 0.000000
vt 0.541748 0.098389 0.000000
vt 0.518555 0.104492 0.000000
vt 0.534668 0.105713 0.000000
vt 0.534668 0.105713 0.000000
vt 0.550293 0.099121 0.000000
vt 0.541748 0.098389 0.000000
vt 0.544678 0.098633 0.000000
vt 0.524170 0.104980 0.000000
vt 0.518555 0.104492 0.000000
vt 0.518555 0.104492 0.000000
vt 0.541748 0.098389 0.000000
vt 0.544678 0.098633 0.000000
vt 0.557861 0.099609 0.000000
vt 0.548828 0.106689 0.000000
vt 0.524170 0.104980 0.000000
vt 0.524170 0.104980 0.000000
vt 0.544678 0.098633 0.000000
vt 0.557861 0.099609 0.000000
vt 0.574951 0.100830 0.000000
vt 0.581055 0.108887 0.000000
vt 0.548828 0.106689 0.000000
vt 0.548828 0.106689 0.000000
vt 0.557861 0.099609 0.000000
vt 0.574951 0.100830 0.000000
vt 0.588135 0.101562 0.000000
vt 0.605957 0.110596 0.000000
vt 0.581055 0.108887 0.000000
vt 0.581055 0.108887 0.000000
vt 0.574951 0.100830 0.000000
vt 0.588135 0.101562 0.000000
vt 0.591309 0.101807 0.000000
vt 0.611572 0.111084 0.000000
vt 0.605957 0.110596 0.000000
vt 0.605957 0.110596 0.000000
vt 0.588135 0.101562 0.000000
vt 0.591309 0.101807 0.000000
vt 0.582520 0.101318 0.000000
vt 0.595459 0.109863 0.000000
vt 0.611572 0.111084 0.000000
vt 0.611572 0.111084 0.000000
vt 0.591309 0.101807 0.000000
vt 0.582520 0.101318 0.000000
vt 0.566406 0.100098 0.000000
vt 0.564941 0.107910 0.000000
vt 0.595459 0.109863 0.000000
vt 0.595459 0.109863 0.000000
vt 0.582520 0.101318 0.000000
vt 0.566406 0.100098 0.000000
vt 0.566895 0.097412 0.000000
vt 0.550293 0.099121 0.000000
vt 0.566406 0.100098 0.000000
vt 0.566895 0.097412 0.000000
vt 0.541748 0.098389 0.000000
vt 0.550293 0.099121 0.000000
vt 0.566895 0.097412 0.000000
vt 0.544678 0.098633 0.000000
vt 0.541748 0.098389 0.000000
vt 0.566895 0.097412 0.000000
vt 0.557861 0.099609 0.000000
vt 0.544678 0.098633 0.000000
vt 0.566895 0.097412 0.000000
vt 0.574951 0.100830 0.000000
vt 0.557861 0.099609 0.000000
vt 0.566895 0.097412 0.000000
vt 0.588135 0.101562 0.000000
vt 0.574951 0.100830 0.000000
vt 0.566895 0.097412 0.000000
vt 0.591309 0.101807 0.000000
vt 0.588135 0.101562 0.000000
vt 0.566895 0.097412 0.000000
vt 0.582520 0.101318 0.000000
vt 0.591309 0.101807 0.000000
vt 0.566895 0.097412 0.000000
vt 0.566406 0.100098 0.000000
vt 0.582520 0.101318 0.000000
vt 0.556885 0.149658 0.000000
vt 0.510254 0.146484 0.000000
vt 0.513184 0.167480 0.000000
vt 0.513184 0.167480 0.000000
vt 0.555176 0.167725 0.000000
vt 0.556885 0.149658 0.000000
vt 0.510254 0.146484 0.000000
vt 0.485596 0.144775 0.000000
vt 0.490967 0.167480 0.000000
vt 0.490967 0.167480 0.000000
vt 0.513184 0.167480 0.000000
vt 0.510254 0.146484 0.000000
vt 0.485596 0.144775 0.000000
vt 0.494141 0.145264 0.000000
vt 0.498779 0.167480 0.000000
vt 0.498779 0.167480 0.000000
vt 0.490967 0.167480 0.000000
vt 0.485596 0.144775 0.000000
vt 0.494141 0.145264 0.000000
vt 0.532227 0.147949 0.000000
vt 0.532959 0.167725 0.000000
vt 0.532959 0.167725 0.000000
vt 0.498779 0.167480 0.000000
vt 0.494141 0.145264 0.000000
vt 0.532227 0.147949 0.000000
vt 0.581787 0.151367 0.000000
vt 0.577393 0.167969 0.000000
vt 0.577393 0.167969 0.000000
vt 0.532959 0.167725 0.000000
vt 0.532227 0.147949 0.000000
vt 0.581787 0.151367 0.000000
vt 0.619629 0.154053 0.000000
vt 0.611572 0.167969 0.000000
vt 0.611572 0.167969 0.000000
vt 0.577393 0.167969 0.000000
vt 0.581787 0.151367 0.000000
vt 0.619629 0.154053 0.000000
vt 0.628174 0.154785 0.000000
vt 0.619385 0.168213 0.000000
vt 0.619385 0.168213 0.000000
vt 0.611572 0.167969 0.000000
vt 0.619629 0.154053 0.000000
vt 0.628174 0.154785 0.000000
vt 0.603516 0.153076 0.000000
vt 0.597168 0.167969 0.000000
vt 0.597168 0.167969 0.000000
vt 0.619385 0.168213 0.000000
vt 0.628174 0.154785 0.000000
vt 0.603516 0.153076 0.000000
vt 0.556885 0.149658 0.000000
vt 0.555176 0.167725 0.000000
vt 0.555176 0.167725 0.000000
vt 0.597168 0.167969 0.000000
vt 0.603516 0.153076 0.000000
vt 0.555176 0.167725 0.000000
vt 0.513184 0.167480 0.000000
vt 0.509277 0.185059 0.000000
vt 0.509277 0.185059 0.000000
vt 0.555176 0.185059 0.000000
vt 0.555176 0.167725 0.000000
vt 0.513184 0.167480 0.000000
vt 0.490967 0.167480 0.000000
vt 0.484619 0.185059 0.000000
vt 0.484619 0.185059 0.000000
vt 0.509277 0.185059 0.000000
vt 0.513184 0.167480 0.000000
vt 0.490967 0.167480 0.000000
vt 0.498779 0.167480 0.000000
vt 0.493164 0.185059 0.000000
vt 0.493164 0.185059 0.000000
vt 0.484619 0.185059 0.000000
vt 0.490967 0.167480 0.000000
vt 0.064941 0.158447 0.000000
vt 0.325928 0.155273 0.000000
vt 0.310791 0.361328 0.000000
vt 0.310791 0.361328 0.000000
vt 0.024902 0.367188 0.000000
vt 0.064941 0.158447 0.000000
vt 0.325928 0.155273 0.000000
vt 0.658936 0.158447 0.000000
vt 0.676270 0.361572 0.000000
vt 0.676270 0.361572 0.000000
vt 0.310791 0.361328 0.000000
vt 0.325928 0.155273 0.000000
vt 0.658936 0.158447 0.000000
vt 0.908447 0.166016 0.000000
vt 0.949951 0.367676 0.000000
vt 0.949951 0.367676 0.000000
vt 0.676270 0.361572 0.000000
vt 0.658936 0.158447 0.000000
vt 0.611572 0.167969 0.000000
vt 0.619385 0.168213 0.000000
vt 0.625732 0.185059 0.000000
vt 0.625732 0.185059 0.000000
vt 0.617188 0.185059 0.000000
vt 0.611572 0.167969 0.000000
vt 0.619385 0.168213 0.000000
vt 0.597168 0.167969 0.000000
vt 0.601074 0.185059 0.000000
vt 0.601074 0.185059 0.000000
vt 0.625732 0.185059 0.000000
vt 0.619385 0.168213 0.000000
vt 0.597168 0.167969 0.000000
vt 0.555176 0.167725 0.000000
vt 0.555176 0.185059 0.000000
vt 0.555176 0.185059 0.000000
vt 0.601074 0.185059 0.000000
vt 0.597168 0.167969 0.000000
vt 0.561279 0.126709 0.000000
vt 0.517578 0.123779 0.000000
vt 0.510254 0.146484 0.000000
vt 0.510254 0.146484 0.000000
vt 0.556885 0.149658 0.000000
vt 0.561279 0.126709 0.000000
vt 0.517578 0.123779 0.000000
vt 0.494385 0.122070 0.000000
vt 0.485596 0.144775 0.000000
vt 0.485596 0.144775 0.000000
vt 0.510254 0.146484 0.000000
vt 0.517578 0.123779 0.000000
vt 0.494385 0.122070 0.000000
vt 0.502441 0.122803 0.000000
vt 0.494141 0.145264 0.000000
vt 0.494141 0.145264 0.000000
vt 0.485596 0.144775 0.000000
vt 0.494385 0.122070 0.000000
vt 0.502441 0.122803 0.000000
vt 0.538086 0.125244 0.000000
vt 0.532227 0.147949 0.000000
vt 0.532227 0.147949 0.000000
vt 0.494141 0.145264 0.000000
vt 0.502441 0.122803 0.000000
vt 0.538086 0.125244 0.000000
vt 0.584473 0.128418 0.000000
vt 0.581787 0.151367 0.000000
vt 0.581787 0.151367 0.000000
vt 0.532227 0.147949 0.000000
vt 0.538086 0.125244 0.000000
vt 0.584473 0.128418 0.000000
vt 0.620361 0.130859 0.000000
vt 0.619629 0.154053 0.000000
vt 0.619629 0.154053 0.000000
vt 0.581787 0.151367 0.000000
vt 0.584473 0.128418 0.000000
vt 0.620361 0.130859 0.000000
vt 0.628418 0.131592 0.000000
vt 0.628174 0.154785 0.000000
vt 0.628174 0.154785 0.000000
vt 0.619629 0.154053 0.000000
vt 0.620361 0.130859 0.000000
vt 0.628418 0.131592 0.000000
vt 0.604980 0.129883 0.000000
vt 0.603516 0.153076 0.000000
vt 0.603516 0.153076 0.000000
vt 0.628174 0.154785 0.000000
vt 0.628418 0.131592 0.000000
vt 0.604980 0.129883 0.000000
vt 0.561279 0.126709 0.000000
vt 0.556885 0.149658 0.000000
vt 0.556885 0.149658 0.000000
vt 0.603516 0.153076 0.000000
vt 0.604980 0.129883 0.000000
vt 0.248779 0.282227 0.000000
vt 0.249756 0.281982 0.000000
vt 0.249756 0.282227 0.000000
vt 0.248779 0.282227 0.000000
vt 0.249512 0.281738 0.000000
vt 0.249756 0.281982 0.000000
vt 0.248779 0.282227 0.000000
vt 0.249268 0.281494 0.000000
vt 0.249512 0.281738 0.000000
vt 0.248779 0.282227 0.000000
vt 0.248779 0.281250 0.000000
vt 0.249268 0.281494 0.000000
vt 0.248779 0.282227 0.000000
vt 0.248535 0.281250 0.000000
vt 0.248779 0.281250 0.000000
vt 0.248779 0.282227 0.000000
vt 0.248291 0.281494 0.000000
vt 0.248535 0.281250 0.000000
vt 0.248779 0.282227 0.000000
vt 0.248047 0.281738 0.000000
vt 0.248291 0.281494 0.000000
vt 0.248779 0.282227 0.000000
vt 0.247803 0.281982 0.000000
vt 0.248047 0.281738 0.000000
vt 0.248779 0.282227 0.000000
vt 0.247803 0.282227 0.000000
vt 0.247803 0.281982 0.000000
vt 0.248779 0.282227 0.000000
vt 0.247803 0.282715 0.000000
vt 0.247803 0.282227 0.000000
vt 0.248779 0.282227 0.000000
vt 0.248047 0.282959 0.000000
vt 0.247803 0.282715 0.000000
vt 0.248779 0.282227 0.000000
vt 0.248291 0.283203 0.000000
vt 0.248047 0.282959 0.000000
vt 0.248779 0.282227 0.000000
vt 0.248535 0.283203 0.000000
vt 0.248291 0.283203 0.000000
vt 0.248779 0.282227 0.000000
vt 0.248779 0.283203 0.000000
vt 0.248535 0.283203 0.000000
vt 0.248779 0.282227 0.000000
vt 0.249268 0.283203 0.000000
vt 0.248779 0.283203 0.000000
vt 0.248779 0.282227 0.000000
vt 0.249512 0.282959 0.000000
vt 0.249268 0.283203 0.000000
vt 0.248779 0.282227 0.000000
vt 0.249756 0.282715 0.000000
vt 0.249512 0.282959 0.000000
vt 0.248779 0.282227 0.000000
vt 0.249756 0.282227 0.000000
vt 0.249756 0.282715 0.000000
vn 0.081787 -0.981201 0.174072
vn 0.085449 -0.928711 -0.360352
vn -0.249268 -0.936523 -0.246094
vn 0.081787 -0.981201 0.174072
vn -0.249268 -0.936523 -0.246094
vn -0.434814 -0.898682 0.052734
vn 0.081787 -0.981201 0.174072
vn -0.434814 -0.898682 0.052734
vn -0.384033 -0.833496 0.396973
vn 0.081787 -0.981201 0.174072
vn -0.384033 -0.833496 0.396973
vn -0.120605 -0.770996 0.625244
vn 0.081787 -0.981201 0.174072
vn -0.120605 -0.770996 0.625244
vn 0.231689 -0.740479 0.630615
vn 0.081787 -0.981201 0.174072
vn 0.231689 -0.740479 0.630615
vn 0.508789 -0.756348 0.410645
vn 0.081787 -0.981201 0.174072
vn 0.508789 -0.756348 0.410645
vn 0.580322 -0.811279 0.068115
vn 0.081787 -0.981201 0.174072
vn 0.580322 -0.811279 0.068115
vn 0.413086 -0.879395 -0.236084
vn 0.081787 -0.981201 0.174072
vn 0.413086 -0.879395 -0.236084
vn 0.085449 -0.928711 -0.360352
vn -0.494141 -0.651855 -0.574951
vn -0.249268 -0.936523 -0.246094
vn 0.085449 -0.928711 -0.360352
vn 0.085449 -0.928711 -0.360352
vn 0.066650 -0.638916 -0.766113
vn -0.494141 -0.651855 -0.574951
vn -0.804688 -0.588623 -0.073975
vn -0.434814 -0.898682 0.052734
vn -0.249268 -0.936523 -0.246094
vn -0.249268 -0.936523 -0.246094
vn -0.494141 -0.651855 -0.574951
vn -0.804688 -0.588623 -0.073975
vn -0.719482 -0.479248 0.502197
vn -0.384033 -0.833496 0.396973
vn -0.434814 -0.898682 0.052734
vn -0.434814 -0.898682 0.052734
vn -0.804688 -0.588623 -0.073975
vn -0.719482 -0.479248 0.502197
vn -0.278564 -0.374512 0.884033
vn -0.120605 -0.770996 0.625244
vn -0.384033 -0.833496 0.396973
vn -0.384033 -0.833496 0.396973
vn -0.719482 -0.479248 0.502197
vn -0.278564 -0.374512 0.884033
vn 0.311768 -0.323730 0.893066
vn 0.231689 -0.740479 0.630615
vn -0.120605 -0.770996 0.625244
vn -0.120605 -0.770996 0.625244
vn -0.278564 -0.374512 0.884033
vn 0.311768 -0.323730 0.893066
vn 0.775391 -0.350342 0.524902
vn 0.508789 -0.756348 0.410645
vn 0.231689 -0.740479 0.630615
vn 0.231689 -0.740479 0.630615
vn 0.311768 -0.323730 0.893066
vn 0.775391 -0.350342 0.524902
vn 0.895508 -0.442139 -0.048096
vn 0.580322 -0.811279 0.068115
vn 0.508789 -0.756348 0.410645
vn 0.508789 -0.756348 0.410645
vn 0.775391 -0.350342 0.524902
vn 0.895508 -0.442139 -0.048096
vn 0.615479 -0.556152 -0.558105
vn 0.413086 -0.879395 -0.236084
vn 0.580322 -0.811279 0.068115
vn 0.580322 -0.811279 0.068115
vn 0.895508 -0.442139 -0.048096
vn 0.615479 -0.556152 -0.558105
vn 0.066650 -0.638916 -0.766113
vn 0.085449 -0.928711 -0.360352
vn 0.413086 -0.879395 -0.236084
vn 0.413086 -0.879395 -0.236084
vn 0.615479 -0.556152 -0.558105
vn 0.066650 -0.638916 -0.766113
vn -0.599854 -0.322998 -0.731689
vn -0.494141 -0.651855 -0.574951
vn 0.066650 -0.638916 -0.766113
vn 0.066650 -0.638916 -0.766113
vn 0.041016 -0.308350 -0.950195
vn -0.599854 -0.322998 -0.731689
vn -0.954590 -0.250977 -0.159424
vn -0.804688 -0.588623 -0.073975
vn -0.494141 -0.651855 -0.574951
vn -0.494141 -0.651855 -0.574951
vn -0.599854 -0.322998 -0.731689
vn -0.954590 -0.250977 -0.159424
vn -0.857178 -0.125977 0.498779
vn -0.719482 -0.479248 0.502197
vn -0.804688 -0.588623 -0.073975
vn -0.804688 -0.588623 -0.073975
vn -0.954590 -0.250977 -0.159424
vn -0.857178 -0.125977 0.498779
vn -0.353516 -0.006348 0.935303
vn -0.278564 -0.374512 0.884033
vn -0.719482 -0.479248 0.502197
vn -0.719482 -0.479248 0.502197
vn -0.857178 -0.125977 0.498779
vn -0.353516 -0.006348 0.935303
vn 0.321045 0.051514 0.945557
vn 0.311768 -0.323730 0.893066
vn -0.278564 -0.374512 0.884033
vn -0.278564 -0.374512 0.884033
vn -0.353516 -0.006348 0.935303
vn 0.321045 0.051514 0.945557
vn 0.850830 0.020996 0.524658
vn 0.775391 -0.350342 0.524902
vn 0.311768 -0.323730 0.893066
vn 0.311768 -0.323730 0.893066
vn 0.321045 0.051514 0.945557
vn 0.850830 0.020996 0.524658
vn 0.987793 -0.083740 -0.129883
vn 0.895508 -0.442139 -0.048096
vn 0.775391 -0.350342 0.524902
vn 0.775391 -0.350342 0.524902
vn 0.850830 0.020996 0.524658
vn 0.987793 -0.083740 -0.129883
vn 0.667969 -0.213867 -0.712402
vn 0.615479 -0.556152 -0.558105
vn 0.895508 -0.442139 -0.048096
vn 0.895508 -0.442139 -0.048096
vn 0.987793 -0.083740 -0.129883
vn 0.667969 -0.213867 -0.712402
vn 0.041016 -0.308350 -0.950195
vn 0.066650 -0.638916 -0.766113
vn 0.615479 -0.556152 -0.558105
vn 0.615479 -0.556152 -0.558105
vn 0.667969 -0.213867 -0.712402
vn 0.041016 -0.308350 -0.950195
vn 0.021729 -0.075439 -0.996826
vn -0.622314 -0.091309 -0.777344
vn -0.599854 -0.322998 -0.731689
vn -0.599854 -0.322998 -0.731689
vn 0.041016 -0.308350 -0.950195
vn 0.021729 -0.075439 -0.996826
vn -0.622314 -0.091309 -0.777344
vn -0.979004 -0.019775 -0.201660
vn -0.954590 -0.250977 -0.159424
vn -0.954590 -0.250977 -0.159424
vn -0.599854 -0.322998 -0.731689
vn -0.622314 -0.091309 -0.777344
vn -0.979004 -0.019775 -0.201660
vn -0.881348 0.105957 0.460205
vn -0.857178 -0.125977 0.498779
vn -0.857178 -0.125977 0.498779
vn -0.954590 -0.250977 -0.159424
vn -0.979004 -0.019775 -0.201660
vn -0.881348 0.105957 0.460205
vn -0.374756 0.226807 0.898682
vn -0.353516 -0.006348 0.935303
vn -0.353516 -0.006348 0.935303
vn -0.857178 -0.125977 0.498779
vn -0.881348 0.105957 0.460205
vn -0.374756 0.226807 0.898682
vn 0.303223 0.286377 0.908691
vn 0.321045 0.051514 0.945557
vn 0.321045 0.051514 0.945557
vn -0.353516 -0.006348 0.935303
vn -0.374756 0.226807 0.898682
vn 0.303223 0.286377 0.908691
vn 0.835449 0.256836 0.485352
vn 0.850830 0.020996 0.524658
vn 0.850830 0.020996 0.524658
vn 0.321045 0.051514 0.945557
vn 0.303223 0.286377 0.908691
vn 0.835449 0.256836 0.485352
vn 0.973145 0.151855 -0.172607
vn 0.987793 -0.083740 -0.129883
vn 0.987793 -0.083740 -0.129883
vn 0.850830 0.020996 0.524658
vn 0.835449 0.256836 0.485352
vn 0.973145 0.151855 -0.172607
vn 0.651855 0.020508 -0.757812
vn 0.667969 -0.213867 -0.712402
vn 0.667969 -0.213867 -0.712402
vn 0.987793 -0.083740 -0.129883
vn 0.973145 0.151855 -0.172607
vn 0.651855 0.020508 -0.757812
vn 0.021729 -0.075439 -0.996826
vn 0.041016 -0.308350 -0.950195
vn 0.041016 -0.308350 -0.950195
vn 0.667969 -0.213867 -0.712402
vn 0.651855 0.020508 -0.757812
vn -0.430176 0.580811 -0.690674
vn -0.578857 0.187256 -0.793457
vn 0.040527 0.135742 -0.989746
vn 0.040527 0.135742 -0.989746
vn 0.049805 0.538330 -0.841064
vn -0.430176 0.580811 -0.690674
vn -0.697998 0.663818 -0.268311
vn -0.923584 0.291992 -0.247803
vn -0.578857 0.187256 -0.793457
vn -0.578857 0.187256 -0.793457
vn -0.430176 0.580811 -0.690674
vn -0.697998 0.663818 -0.268311
vn -0.624268 0.747314 0.226807
vn -0.828857 0.400635 0.390381
vn -0.923584 0.291992 -0.247803
vn -0.923584 0.291992 -0.247803
vn -0.697998 0.663818 -0.268311
vn -0.624268 0.747314 0.226807
vn -0.244873 0.791992 0.558838
vn -0.340088 0.461670 0.819092
vn -0.828857 0.400635 0.390381
vn -0.828857 0.400635 0.390381
vn -0.624268 0.747314 0.226807
vn -0.244873 0.791992 0.558838
vn 0.258057 0.777344 0.573242
vn 0.310303 0.447021 0.838623
vn -0.340088 0.461670 0.819092
vn -0.340088 0.461670 0.819092
vn -0.244873 0.791992 0.558838
vn 0.258057 0.777344 0.573242
vn 0.650146 0.710938 0.267090
vn 0.818848 0.364258 0.443115
vn 0.310303 0.447021 0.838623
vn 0.310303 0.447021 0.838623
vn 0.258057 0.777344 0.573242
vn 0.650146 0.710938 0.267090
vn 0.751221 0.623535 -0.215576
vn 0.950195 0.251709 -0.182617
vn 0.818848 0.364258 0.443115
vn 0.818848 0.364258 0.443115
vn 0.650146 0.710938 0.267090
vn 0.751221 0.623535 -0.215576
vn 0.515137 0.555420 -0.652344
vn 0.643555 0.161377 -0.747803
vn 0.950195 0.251709 -0.182617
vn 0.950195 0.251709 -0.182617
vn 0.751221 0.623535 -0.215576
vn 0.515137 0.555420 -0.652344
vn 0.049805 0.538330 -0.841064
vn 0.040527 0.135742 -0.989746
vn 0.643555 0.161377 -0.747803
vn 0.643555 0.161377 -0.747803
vn 0.515137 0.555420 -0.652344
vn 0.049805 0.538330 -0.841064
vn -0.209961 0.857178 -0.469971
vn -0.430176 0.580811 -0.690674
vn 0.049805 0.538330 -0.841064
vn 0.049805 0.538330 -0.841064
vn 0.051025 0.832031 -0.551758
vn -0.209961 0.857178 -0.469971
vn -0.355469 0.903076 -0.239990
vn -0.697998 0.663818 -0.268311
vn -0.430176 0.580811 -0.690674
vn -0.430176 0.580811 -0.690674
vn -0.209961 0.857178 -0.469971
vn -0.355469 0.903076 -0.239990
vn -0.315430 0.948242 0.029297
vn -0.624268 0.747314 0.226807
vn -0.697998 0.663818 -0.268311
vn -0.697998 0.663818 -0.268311
vn -0.355469 0.903076 -0.239990
vn -0.315430 0.948242 0.029297
vn -0.109131 0.971191 0.210449
vn -0.244873 0.791992 0.558838
vn -0.624268 0.747314 0.226807
vn -0.624268 0.747314 0.226807
vn -0.315430 0.948242 0.029297
vn -0.109131 0.971191 0.210449
vn 0.164551 0.961670 0.218994
vn 0.258057 0.777344 0.573242
vn -0.244873 0.791992 0.558838
vn -0.244873 0.791992 0.558838
vn -0.109131 0.971191 0.210449
vn 0.164551 0.961670 0.218994
vn 0.378418 0.923828 0.052490
vn 0.650146 0.710938 0.267090
vn 0.258057 0.777344 0.573242
vn 0.258057 0.777344 0.573242
vn 0.164551 0.961670 0.218994
vn 0.378418 0.923828 0.052490
vn 0.433594 0.875977 -0.210449
vn 0.751221 0.623535 -0.215576
vn 0.650146 0.710938 0.267090
vn 0.650146 0.710938 0.267090
vn 0.378418 0.923828 0.052490
vn 0.433594 0.875977 -0.210449
vn 0.304932 0.839600 -0.448975
vn 0.515137 0.555420 -0.652344
vn 0.751221 0.623535 -0.215576
vn 0.751221 0.623535 -0.215576
vn 0.433594 0.875977 -0.210449
vn 0.304932 0.839600 -0.448975
vn 0.051025 0.832031 -0.551758
vn 0.049805 0.538330 -0.841064
vn 0.515137 0.555420 -0.652344
vn 0.515137 0.555420 -0.652344
vn 0.304932 0.839600 -0.448975
vn 0.051025 0.832031 -0.551758
vn 0.042969 0.984131 -0.170898
vn -0.209961 0.857178 -0.469971
vn 0.051025 0.832031 -0.551758
vn 0.042969 0.984131 -0.170898
vn -0.355469 0.903076 -0.239990
vn -0.209961 0.857178 -0.469971
vn 0.042969 0.984131 -0.170898
vn -0.315430 0.948242 0.029297
vn -0.355469 0.903076 -0.239990
vn 0.042969 0.984131 -0.170898
vn -0.109131 0.971191 0.210449
vn -0.315430 0.948242 0.029297
vn 0.042969 0.984131 -0.170898
vn 0.164551 0.961670 0.218994
vn -0.109131 0.971191 0.210449
vn 0.042969 0.984131 -0.170898
vn 0.378418 0.923828 0.052490
vn 0.164551 0.961670 0.218994
vn 0.042969 0.984131 -0.170898
vn 0.433594 0.875977 -0.210449
vn 0.378418 0.923828 0.052490
vn 0.042969 0.984131 -0.170898
vn 0.304932 0.839600 -0.448975
vn 0.433594 0.875977 -0.210449
vn 0.042969 0.984131 -0.170898
vn 0.051025 0.832031 -0.551758
vn 0.304932 0.839600 -0.448975
vn 0.025391 -0.228516 -0.973145
vn -0.621826 -0.178467 -0.762207
vn -0.624756 -0.173340 -0.761230
vn -0.624756 -0.173340 -0.761230
vn 0.020508 -0.192139 -0.980957
vn 0.025391 -0.228516 -0.973145
vn -0.621826 -0.178467 -0.762207
vn -0.978516 -0.073975 -0.191162
vn -0.978271 -0.083496 -0.188721
vn -0.978271 -0.083496 -0.188721
vn -0.624756 -0.173340 -0.761230
vn -0.621826 -0.178467 -0.762207
vn -0.978516 -0.073975 -0.191162
vn -0.880127 0.038330 0.472656
vn -0.881104 0.038574 0.470703
vn -0.881104 0.038574 0.470703
vn -0.978271 -0.083496 -0.188721
vn -0.978516 -0.073975 -0.191162
vn -0.880127 0.038330 0.472656
vn -0.372559 0.104980 0.921875
vn -0.377197 0.136719 0.915771
vn -0.377197 0.136719 0.915771
vn -0.881104 0.038574 0.470703
vn -0.880127 0.038330 0.472656
vn -0.372559 0.104980 0.921875
vn 0.308594 0.091553 0.946533
vn 0.304688 0.161133 0.938477
vn 0.304688 0.161133 0.938477
vn -0.377197 0.136719 0.915771
vn -0.372559 0.104980 0.921875
vn 0.308594 0.091553 0.946533
vn 0.845459 0.003418 0.533936
vn 0.847168 0.097168 0.522217
vn 0.847168 0.097168 0.522217
vn 0.304688 0.161133 0.938477
vn 0.308594 0.091553 0.946533
vn 0.845459 0.003418 0.533936
vn 0.985596 -0.113281 -0.125000
vn 0.989502 -0.020996 -0.142334
vn 0.989502 -0.020996 -0.142334
vn 0.847168 0.097168 0.522217
vn 0.845459 0.003418 0.533936
vn 0.985596 -0.113281 -0.125000
vn 0.661377 -0.203125 -0.721680
vn 0.660645 -0.133545 -0.738525
vn 0.660645 -0.133545 -0.738525
vn 0.989502 -0.020996 -0.142334
vn 0.985596 -0.113281 -0.125000
vn 0.661377 -0.203125 -0.721680
vn 0.025391 -0.228516 -0.973145
vn 0.020508 -0.192139 -0.980957
vn 0.020508 -0.192139 -0.980957
vn 0.660645 -0.133545 -0.738525
vn 0.661377 -0.203125 -0.721680
vn 0.020508 -0.192139 -0.980957
vn -0.624756 -0.173340 -0.761230
vn -0.622314 -0.091309 -0.777344
vn -0.622314 -0.091309 -0.777344
vn 0.021729 -0.075439 -0.996826
vn 0.020508 -0.192139 -0.980957
vn -0.624756 -0.173340 -0.761230
vn -0.978271 -0.083496 -0.188721
vn -0.979004 -0.019775 -0.201660
vn -0.979004 -0.019775 -0.201660
vn -0.622314 -0.091309 -0.777344
vn -0.624756 -0.173340 -0.761230
vn -0.978271 -0.083496 -0.188721
vn -0.881104 0.038574 0.470703
vn -0.881348 0.105957 0.460205
vn -0.881348 0.105957 0.460205
vn -0.979004 -0.019775 -0.201660
vn -0.978271 -0.083496 -0.188721
vn -0.881104 0.038574 0.470703
vn -0.377197 0.136719 0.915771
vn -0.374756 0.226807 0.898682
vn -0.374756 0.226807 0.898682
vn -0.881348 0.105957 0.460205
vn -0.881104 0.038574 0.470703
vn -0.377197 0.136719 0.915771
vn 0.304688 0.161133 0.938477
vn 0.303223 0.286377 0.908691
vn 0.303223 0.286377 0.908691
vn -0.374756 0.226807 0.898682
vn -0.377197 0.136719 0.915771
vn 0.304688 0.161133 0.938477
vn 0.847168 0.097168 0.522217
vn 0.835449 0.256836 0.485352
vn 0.835449 0.256836 0.485352
vn 0.303223 0.286377 0.908691
vn 0.304688 0.161133 0.938477
vn 0.847168 0.097168 0.522217
vn 0.989502 -0.020996 -0.142334
vn 0.973145 0.151855 -0.172607
vn 0.973145 0.151855 -0.172607
vn 0.835449 0.256836 0.485352
vn 0.847168 0.097168 0.522217
vn 0.989502 -0.020996 -0.142334
vn 0.660645 -0.133545 -0.738525
vn 0.651855 0.020508 -0.757812
vn 0.651855 0.020508 -0.757812
vn 0.973145 0.151855 -0.172607
vn 0.989502 -0.020996 -0.142334
vn 0.660645 -0.133545 -0.738525
vn 0.020508 -0.192139 -0.980957
vn 0.021729 -0.075439 -0.996826
vn 0.021729 -0.075439 -0.996826
vn 0.651855 0.020508 -0.757812
vn 0.660645 -0.133545 -0.738525
vn 0.040527 0.135742 -0.989746
vn -0.578857 0.187256 -0.793457
vn -0.621826 -0.178467 -0.762207
vn -0.621826 -0.178467 -0.762207
vn 0.025391 -0.228516 -0.973145
vn 0.040527 0.135742 -0.989746
vn -0.578857 0.187256 -0.793457
vn -0.923584 0.291992 -0.247803
vn -0.978516 -0.073975 -0.191162
vn -0.978516 -0.073975 -0.191162
vn -0.621826 -0.178467 -0.762207
vn -0.578857 0.187256 -0.793457
vn -0.923584 0.291992 -0.247803
vn -0.828857 0.400635 0.390381
vn -0.880127 0.038330 0.472656
vn -0.880127 0.038330 0.472656
vn -0.978516 -0.073975 -0.191162
vn -0.923584 0.291992 -0.247803
vn -0.828857 0.400635 0.390381
vn -0.340088 0.461670 0.819092
vn -0.372559 0.104980 0.921875
vn -0.372559 0.104980 0.921875
vn -0.880127 0.038330 0.472656
vn -0.828857 0.400635 0.390381
vn -0.340088 0.461670 0.819092
vn 0.310303 0.447021 0.838623
vn 0.308594 0.091553 0.946533
vn 0.308594 0.091553 0.946533
vn -0.372559 0.104980 0.921875
vn -0.340088 0.461670 0.819092
vn 0.310303 0.447021 0.838623
vn 0.818848 0.364258 0.443115
vn 0.845459 0.003418 0.533936
vn 0.845459 0.003418 0.533936
vn 0.308594 0.091553 0.946533
vn 0.310303 0.447021 0.838623
vn 0.818848 0.364258 0.443115
vn 0.950195 0.251709 -0.182617
vn 0.985596 -0.113281 -0.125000
vn 0.985596 -0.113281 -0.125000
vn 0.845459 0.003418 0.533936
vn 0.818848 0.364258 0.443115
vn 0.950195 0.251709 -0.182617
vn 0.643555 0.161377 -0.747803
vn 0.661377 -0.203125 -0.721680
vn 0.661377 -0.203125 -0.721680
vn 0.985596 -0.113281 -0.125000
vn 0.950195 0.251709 -0.182617
vn 0.643555 0.161377 -0.747803
vn 0.040527 0.135742 -0.989746
vn 0.025391 -0.228516 -0.973145
vn 0.025391 -0.228516 -0.973145
vn 0.661377 -0.203125 -0.721680
vn 0.643555 0.161377 -0.747803
vn 0.081787 -0.981201 0.174072
vn 0.081787 -0.981201 0.174072
vn 0.081787 -0.981201 0.174072
vn 0.081787 -0.981201 0.174072
vn 0.081787 -0.981201 0.174072
vn 0.081787 -0.981201 0.174072
vn 0.081787 -0.981201 0.174072
vn 0.081787 -0.981201 0.174072
vn 0.081787 -0.981201 0.174072
vn 0.081787 -0.981201 0.174072
vn 0.081787 -0.981201 0.174072
vn 0.081787 -0.981201 0.174072
vn 0.081787 -0.981201 0.174072
vn 0.081787 -0.981201 0.174072
vn 0.081787 -0.981201 0.174072
vn 0.081787 -0.981201 0.174072
vn 0.081787 -0.981201 0.174072
vn 0.081787 -0.981201 0.174072
vn 0.081787 -0.981201 0.174072
vn 0.081787 -0.981201 0.174072
vn 0.081787 -0.981201 0.174072
vn 0.081787 -0.981201 0.174072
vn 0.081787 -0.981201 0.174072
vn 0.081787 -0.981201 0.174072
vn 0.081787 -0.981201 0.174072
vn 0.081787 -0.981201 0.174072
vn 0.081787 -0.981201 0.174072
vn 0.081787 -0.981201 0.174072
vn 0.081787 -0.981201 0.174072
vn 0.081787 -0.981201 0.174072
vn 0.081787 -0.981201 0.174072
vn 0.081787 -0.981201 0.174072
vn 0.081787 -0.981201 0.174072
vn 0.081787 -0.981201 0.174072
vn 0.081787 -0.981201 0.174072
vn 0.081787 -0.981201 0.174072
vn 0.081787 -0.981201 0.174072
vn 0.081787 -0.981201 0.174072
vn 0.081787 -0.981201 0.174072
vn 0.081787 -0.981201 0.174072
vn 0.081787 -0.981201 0.174072
vn 0.081787 -0.981201 0.174072
vn 0.081787 -0.981201 0.174072
vn 0.081787 -0.981201 0.174072
vn 0.081787 -0.981201 0.174072
vn 0.081787 -0.981201 0.174072
vn 0.081787 -0.981201 0.174072
vn 0.081787 -0.981201 0.174072
vn 0.081787 -0.981201 0.174072
vn 0.081787 -0.981201 0.174072
vn 0.081787 -0.981201 0.174072
vn 0.081787 -0.981201 0.174072
vn 0.081787 -0.981201 0.174072
vn 0.081787 -0.981201 0.174072
usemtl Texture
f 1/1/1 2/2/2 3/3/3
f 4/4/4 5/5/5 6/6/6
f 7/7/7 8/8/8 9/9/9
f 10/10/10 11/11/11 12/12/12
f 13/13/13 14/14/14 15/15/15
f 16/16/16 17/17/17 18/18/18
f 19/19/19 20/20/20 21/21/21
f 22/22/22 23/23/23 24/24/24
f 25/25/25 26/26/26 27/27/27
f 28/28/28 29/29/29 30/30/30
f 31/31/31 32/32/32 33/33/33
f 34/34/34 35/35/35 36/36/36
f 37/37/37 38/38/38 39/39/39
f 40/40/40 41/41/41 42/42/42
f 43/43/43 44/44/44 45/45/45
f 46/46/46 47/47/47 48/48/48
f 49/49/49 50/50/50 51/51/51
f 52/52/52 53/53/53 54/54/54
f 55/55/55 56/56/56 57/57/57
f 58/58/58 59/59/59 60/60/60
f 61/61/61 62/62/62 63/63/63
f 64/64/64 65/65/65 66/66/66
f 67/67/67 68/68/68 69/69/69
f 70/70/70 71/71/71 72/72/72
f 73/73/73 74/74/74 75/75/75
f 76/76/76 77/77/77 78/78/78
f 79/79/79 80/80/80 81/81/81
f 82/82/82 83/83/83 84/84/84
f 85/85/85 86/86/86 87/87/87
f 88/88/88 89/89/89 90/90/90
f 91/91/91 92/92/92 93/93/93
f 94/94/94 95/95/95 96/96/96
f 97/97/97 98/98/98 99/99/99
f 100/100/100 101/101/101 102/102/102
f 103/103/103 104/104/104 105/105/105
f 106/106/106 107/107/107 108/108/108
f 109/109/109 110/110/110 111/111/111
f 112/112/112 113/113/113 114/114/114
f 115/115/115 116/116/116 117/117/117
f 118/118/118 119/119/119 120/120/120
f 121/121/121 122/122/122 123/123/123
f 124/124/124 125/125/125 126/126/126
f 127/127/127 128/128/128 129/129/129
f 130/130/130 131/131/131 132/132/132
f 133/133/133 134/134/134 135/135/135
f 136/136/136 137/137/137 138/138/138
f 139/139/139 140/140/140 141/141/141
f 142/142/142 143/143/143 144/144/144
f 145/145/145 146/146/146 147/147/147
f 148/148/148 149/149/149 150/150/150
f 151/151/151 152/152/152 153/153/153
f 154/154/154 155/155/155 156/156/156
f 157/157/157 158/158/158 159/159/159
f 160/160/160 161/161/161 162/162/162
f 163/163/163 164/164/164 165/165/165
f 166/166/166 167/167/167 168/168/168
f 169/169/169 170/170/170 171/171/171
f 172/172/172 173/173/173 174/174/174
f 175/175/175 176/176/176 177/177/177
f 178/178/178 179/179/179 180/180/180
f 181/181/181 182/182/182 183/183/183
f 184/184/184 185/185/185 186/186/186
f 187/187/187 188/188/188 189/189/189
f 190/190/190 191/191/191 192/192/192
f 193/193/193 194/194/194 195/195/195
f 196/196/196 197/197/197 198/198/198
f 199/199/199 200/200/200 201/201/201
f 202/202/202 203/203/203 204/204/204
f 205/205/205 206/206/206 207/207/207
f 208/208/208 209/209/209 210/210/210
f 211/211/211 212/212/212 213/213/213
f 214/214/214 215/215/215 216/216/216
f 217/217/217 218/218/218 219/219/219
f 220/220/220 221/221/221 222/222/222
f 223/223/223 224/224/224 225/225/225
f 226/226/226 227/227/227 228/228/228
f 229/229/229 230/230/230 231/231/231
f 232/232/232 233/233/233 234/234/234
f 235/235/235 236/236/236 237/237/237
f 238/238/238 239/239/239 240/240/240
f 241/241/241 242/242/242 243/243/243
f 244/244/244 245/245/245 246/246/246
f 247/247/247 248/248/248 249/249/249
f 250/250/250 251/251/251 252/252/252
f 253/253/253 254/254/254 255/255/255
f 256/256/256 257/257/257 258/258/258
f 259/259/259 260/260/260 261/261/261
f 262/262/262 263/263/263 264/264/264
f 265/265/265 266/266/266 267/267/267
f 268/268/268 269/269/269 270/270/270
f 271/271/271 272/272/272 273/273/273
f 274/274/274 275/275/275 276/276/276
f 277/277/277 278/278/278 279/279/279
f 280/280/280 281/281/281 282/282/282
f 283/283/283 284/284/284 285/285/285
f 286/286/286 287/287/287 288/288/288
f 289/289/289 290/290/290 291/291/291
f 292/292/292 293/293/293 294/294/294
f 295/295/295 296/296/296 297/297/297
f 298/298/298 299/299/299 300/300/300
f 301/301/301 302/302/302 303/303/303
f 304/304/304 305/305/305 306/306/306
f 307/307/307 308/308/308 309/309/309
f 310/310/310 311/311/311 312/312/312
f 313/313/313 314/314/314 315/315/315
f 316/316/316 317/317/317 318/318/318
f 319/319/319 320/320/320 321/321/321
f 322/322/322 323/323/323 324/324/324
f 325/325/325 326/326/326 327/327/327
f 328/328/328 329/329/329 330/330/330
f 331/331/331 332/332/332 333/333/333
f 334/334/334 335/335/335 336/336/336
f 337/337/337 338/338/338 339/339/339
f 340/340/340 341/341/341 342/342/342
f 343/343/343 344/344/344 345/345/345
f 346/346/346 347/347/347 348/348/348
f 349/349/349 350/350/350 351/351/351
f 352/352/352 353/353/353 354/354/354
f 355/355/355 356/356/356 357/357/357
f 358/358/358 359/359/359 360/360/360
f 361/361/361 362/362/362 363/363/363
f 364/364/364 365/365/365 366/366/366
f 367/367/367 368/368/368 369/369/369
f 370/370/370 371/371/371 372/372/372
f 373/373/373 374/374/374 375/375/375
f 376/376/376 377/377/377 378/378/378
f 379/379/379 380/380/380 381/381/381
f 382/382/382 383/383/383 384/384/384
f 385/385/385 386/386/386 387/387/387
f 388/388/388 389/389/389 390/390/390
f 391/391/391 392/392/392 393/393/393
f 394/394/394 395/395/395 396/396/396
f 397/397/397 398/398/398 399/399/399
f 400/400/400 401/401/401 402/402/402
f 403/403/403 404/404/404 405/405/405
f 406/406/406 407/407/407 408/408/408
f 409/409/409 410/410/410 411/411/411
f 412/412/412 413/413/413 414/414/414
f 415/415/415 416/416/416 417/417/417
f 418/418/418 419/419/419 420/420/420
f 421/421/421 422/422/422 423/423/423
f 424/424/424 425/425/425 426/426/426
f 427/427/427 428/428/428 429/429/429
f 430/430/430 431/431/431 432/432/432
f 433/433/433 434/434/434 435/435/435
f 436/436/436 437/437/437 438/438/438
f 439/439/439 440/440/440 441/441/441
f 442/442/442 443/443/443 444/444/444
f 445/445/445 446/446/446 447/447/447
f 448/448/448 449/449/449 450/450/450
f 451/451/451 452/452/452 453/453/453
f 454/454/454 455/455/455 456/456/456
f 457/457/457 458/458/458 459/459/459
f 460/460/460 461/461/461 462/462/462
f 463/463/463 464/464/464 465/465/465
f 466/466/466 467/467/467 468/468/468
f 469/469/469 470/470/470 471/471/471
f 472/472/472 473/473/473 474/474/474
f 475/475/475 476/476/476 477/477/477
f 478/478/478 479/479/479 480/480/480
f 481/481/481 482/482/482 483/483/483
f 484/484/484 485/485/485 486/486/486
f 487/487/487 488/488/488 489/489/489
f 490/490/490 491/491/491 492/492/492
f 493/493/493 494/494/494 495/495/495
f 496/496/496 497/497/497 498/498/498
f 499/499/499 500/500/500 501/501/501
f 502/502/502 503/503/503 504/504/504
f 505/505/505 506/506/506 507/507/507
f 508/508/508 509/509/509 510/510/510
f 511/511/511 512/512/512 513/513/513
f 514/514/514 515/515/515 516/516/516
f 517/517/517 518/518/518 519/519/519
f 520/520/520 521/521/521 522/522/522
f 523/523/523 524/524/524 525/525/525
f 526/526/526 527/527/527 528/528/528
f 529/529/529 530/530/530 531/531/531
f 532/532/532 533/533/533 534/534/534
f 535/535/535 536/536/536 537/537/537
f 538/538/538 539/539/539 540/540/540
