# OBJ file
mtllib inoki_icon.ico.mtl
v 1.875000 0.001709 0.000000 0.501961 0.501961 0.501961 #0.501961
v -1.875000 0.001709 0.000000 0.501961 0.501961 0.501961 #0.501961
v -1.875000 3.751709 0.000000 0.501961 0.501961 0.501961 #0.501961
v -1.875000 3.751709 0.000000 0.501961 0.501961 0.501961 #0.501961
v 1.875000 3.751709 0.000000 0.501961 0.501961 0.501961 #0.501961
v 1.875000 0.001709 0.000000 0.501961 0.501961 0.501961 #0.501961
v -1.875000 0.001709 0.000244 0.501961 0.501961 0.501961 #0.501961
v 1.875000 0.001709 0.000244 0.501961 0.501961 0.501961 #0.501961
v 1.875000 3.751709 0.000244 0.501961 0.501961 0.501961 #0.501961
v 1.875000 3.751709 0.000244 0.501961 0.501961 0.501961 #0.501961
v -1.875000 3.751709 0.000244 0.501961 0.501961 0.501961 #0.501961
v -1.875000 0.001709 0.000244 0.501961 0.501961 0.501961 #0.501961
vt 0.000000 1.000000 0.000000
vt 0.497070 1.000000 0.000000
vt 0.497070 0.000000 0.000000
vt 0.497070 0.000000 0.000000
vt 0.000000 0.000000 0.000000
vt 0.000000 1.000000 0.000000
vt 0.495361 1.000000 0.000000
vt 1.000000 1.000000 0.000000
vt 1.000000 0.000000 0.000000
vt 1.000000 0.000000 0.000000
vt 0.495361 0.000000 0.000000
vt 0.495361 1.000000 0.000000
vn 0.000000 0.000000 -1.000000
vn 0.000000 0.000000 -1.000000
vn 0.000000 0.000000 -1.000000
vn 0.000000 0.000000 -1.000000
vn 0.000000 0.000000 -1.000000
vn 0.000000 0.000000 -1.000000
vn 0.000000 0.000000 1.000000
vn 0.000000 0.000000 1.000000
vn 0.000000 0.000000 1.000000
vn 0.000000 0.000000 1.000000
vn 0.000000 0.000000 1.000000
vn 0.000000 0.000000 1.000000
usemtl Texture
f 1/1/1 2/2/2 3/3/3
f 4/4/4 5/5/5 6/6/6
f 7/7/7 8/8/8 9/9/9
f 10/10/10 11/11/11 12/12/12
