# OBJ file
mtllib SAVE.ICO.mtl
v 0.335449 0.481445 0.006836 0.498039 0.498039 0.498039 #0.000000
v 0.368408 0.586914 0.446777 0.498039 0.498039 0.498039 #0.000000
v -0.565430 1.348389 0.402832 0.498039 0.498039 0.498039 #0.000000
v 0.335449 0.481445 0.006836 0.498039 0.498039 0.498039 #0.000000
v -0.565430 1.348389 0.402832 0.498039 0.498039 0.498039 #0.000000
v -0.614746 1.179688 0.006836 0.498039 0.498039 0.498039 #0.000000
v -0.565430 1.348389 0.402832 0.498039 0.498039 0.498039 #0.000000
v -1.259521 2.070068 0.402832 0.498039 0.498039 0.498039 #0.000000
v -1.393555 1.987305 0.006836 0.498039 0.498039 0.498039 #0.000000
v -0.614746 1.179688 0.006836 0.498039 0.498039 0.498039 #0.000000
v -0.565430 1.348389 0.402832 0.498039 0.498039 0.498039 #0.000000
v -1.393555 1.987305 0.006836 0.498039 0.498039 0.498039 #0.000000
v -0.614746 1.179688 0.006836 0.498039 0.498039 0.498039 #0.000000
v -1.393555 1.987305 0.006836 0.498039 0.498039 0.498039 #0.000000
v -0.565430 1.348389 -0.391357 0.498039 0.498039 0.498039 #0.000000
v -0.565430 1.348389 -0.391357 0.498039 0.498039 0.498039 #0.000000
v -1.393555 1.987305 0.006836 0.498039 0.498039 0.498039 #0.000000
v -1.259521 2.070068 -0.391357 0.498039 0.498039 0.498039 #0.000000
v 0.335449 0.481445 0.006836 0.498039 0.498039 0.498039 #0.000000
v -0.614746 1.179688 0.006836 0.498039 0.498039 0.498039 #0.000000
v -0.565430 1.348389 -0.391357 0.498039 0.498039 0.498039 #0.000000
v 0.335449 0.481445 0.006836 0.498039 0.498039 0.498039 #0.000000
v -0.565430 1.348389 -0.391357 0.498039 0.498039 0.498039 #0.000000
v 0.368408 0.586914 -0.434326 0.498039 0.498039 0.498039 #0.000000
v 1.376221 2.750732 0.006836 0.498039 0.498039 0.498039 #0.000000
v 1.003174 3.421875 0.006836 0.498039 0.498039 0.498039 #0.000000
v 0.894043 3.369873 0.402832 0.498039 0.498039 0.498039 #0.000000
v 1.376221 2.750732 0.006836 0.498039 0.498039 0.498039 #0.000000
v 0.894043 3.369873 0.402832 0.498039 0.498039 0.498039 #0.000000
v 1.222656 2.775391 0.402832 0.498039 0.498039 0.498039 #0.000000
v 1.376221 2.750732 0.006836 0.498039 0.498039 0.498039 #0.000000
v 1.222656 2.775391 -0.391357 0.498039 0.498039 0.498039 #0.000000
v 0.894043 3.369873 -0.391357 0.498039 0.498039 0.498039 #0.000000
v 1.376221 2.750732 0.006836 0.498039 0.498039 0.498039 #0.000000
v 0.894043 3.369873 -0.391357 0.498039 0.498039 0.498039 #0.000000
v 1.003174 3.421875 0.006836 0.498039 0.498039 0.498039 #0.000000
v 0.894043 3.369873 -0.391357 0.498039 0.498039 0.498039 #0.000000
v 0.178711 3.794678 -0.391357 0.498039 0.498039 0.498039 #0.000000
v 0.207275 3.898926 0.006836 0.498039 0.498039 0.498039 #0.000000
v 0.894043 3.369873 -0.391357 0.498039 0.498039 0.498039 #0.000000
v 0.207275 3.898926 0.006836 0.498039 0.498039 0.498039 #0.000000
v 1.003174 3.421875 0.006836 0.498039 0.498039 0.498039 #0.000000
v 0.894043 3.369873 0.402832 0.498039 0.498039 0.498039 #0.000000
v 1.003174 3.421875 0.006836 0.498039 0.498039 0.498039 #0.000000
v 0.207275 3.898926 0.006836 0.498039 0.498039 0.498039 #0.000000
v 0.894043 3.369873 0.402832 0.498039 0.498039 0.498039 #0.000000
v 0.207275 3.898926 0.006836 0.498039 0.498039 0.498039 #0.000000
v 0.178711 3.794678 0.402832 0.498039 0.498039 0.498039 #0.000000
v -0.475098 3.697510 -0.391357 0.498039 0.498039 0.498039 #0.000000
v -0.519043 3.792969 0.006836 0.498039 0.498039 0.498039 #0.000000
v 0.207275 3.898926 0.006836 0.498039 0.498039 0.498039 #0.000000
v -0.475098 3.697510 -0.391357 0.498039 0.498039 0.498039 #0.000000
v 0.207275 3.898926 0.006836 0.498039 0.498039 0.498039 #0.000000
v 0.178711 3.794678 -0.391357 0.498039 0.498039 0.498039 #0.000000
v -1.001465 3.274414 -0.391357 0.498039 0.498039 0.498039 #0.000000
v -1.104248 3.324219 0.006836 0.498039 0.498039 0.498039 #0.000000
v -0.519043 3.792969 0.006836 0.498039 0.498039 0.498039 #0.000000
v -1.001465 3.274414 -0.391357 0.498039 0.498039 0.498039 #0.000000
v -0.519043 3.792969 0.006836 0.498039 0.498039 0.498039 #0.000000
v -0.475098 3.697510 -0.391357 0.498039 0.498039 0.498039 #0.000000
v -1.001465 3.274414 0.402832 0.498039 0.498039 0.498039 #0.000000
v -0.475098 3.697510 0.402832 0.498039 0.498039 0.498039 #0.000000
v -0.519043 3.792969 0.006836 0.498039 0.498039 0.498039 #0.000000
v -1.001465 3.274414 0.402832 0.498039 0.498039 0.498039 #0.000000
v -0.519043 3.792969 0.006836 0.498039 0.498039 0.498039 #0.000000
v -1.104248 3.324219 0.006836 0.498039 0.498039 0.498039 #0.000000
v -0.475098 3.697510 0.402832 0.498039 0.498039 0.498039 #0.000000
v 0.178711 3.794678 0.402832 0.498039 0.498039 0.498039 #0.000000
v 0.207275 3.898926 0.006836 0.498039 0.498039 0.498039 #0.000000
v -0.475098 3.697510 0.402832 0.498039 0.498039 0.498039 #0.000000
v 0.207275 3.898926 0.006836 0.498039 0.498039 0.498039 #0.000000
v -0.519043 3.792969 0.006836 0.498039 0.498039 0.498039 #0.000000
v -1.259521 2.070068 0.402832 0.498039 0.498039 0.498039 #0.000000
v -1.333984 2.721924 0.402832 0.498039 0.498039 0.498039 #0.000000
v -1.476318 2.712158 0.006836 0.498039 0.498039 0.498039 #0.000000
v -1.393555 1.987305 0.006836 0.498039 0.498039 0.498039 #0.000000
v -1.259521 2.070068 0.402832 0.498039 0.498039 0.498039 #0.000000
v -1.476318 2.712158 0.006836 0.498039 0.498039 0.498039 #0.000000
v -1.476318 2.712158 0.006836 0.498039 0.498039 0.498039 #0.000000
v -1.001465 3.274414 0.402832 0.498039 0.498039 0.498039 #0.000000
v -1.104248 3.324219 0.006836 0.498039 0.498039 0.498039 #0.000000
v -1.476318 2.712158 0.006836 0.498039 0.498039 0.498039 #0.000000
v -1.333984 2.721924 0.402832 0.498039 0.498039 0.498039 #0.000000
v -1.001465 3.274414 0.402832 0.498039 0.498039 0.498039 #0.000000
v -1.476318 2.712158 0.006836 0.498039 0.498039 0.498039 #0.000000
v -1.001465 3.274414 -0.391357 0.498039 0.498039 0.498039 #0.000000
v -1.333984 2.721924 -0.391357 0.498039 0.498039 0.498039 #0.000000
v -1.476318 2.712158 0.006836 0.498039 0.498039 0.498039 #0.000000
v -1.104248 3.324219 0.006836 0.498039 0.498039 0.498039 #0.000000
v -1.001465 3.274414 -0.391357 0.498039 0.498039 0.498039 #0.000000
v -1.393555 1.987305 0.006836 0.498039 0.498039 0.498039 #0.000000
v -1.476318 2.712158 0.006836 0.498039 0.498039 0.498039 #0.000000
v -1.259521 2.070068 -0.391357 0.498039 0.498039 0.498039 #0.000000
v -1.259521 2.070068 -0.391357 0.498039 0.498039 0.498039 #0.000000
v -1.476318 2.712158 0.006836 0.498039 0.498039 0.498039 #0.000000
v -1.333984 2.721924 -0.391357 0.498039 0.498039 0.498039 #0.000000
v 1.243652 1.965088 0.006836 0.498039 0.498039 0.498039 #0.000000
v 1.125488 2.055176 -0.391357 0.498039 0.498039 0.498039 #0.000000
v 1.376221 2.750732 0.006836 0.498039 0.498039 0.498039 #0.000000
v 1.125488 2.055176 -0.391357 0.498039 0.498039 0.498039 #0.000000
v 1.222656 2.775391 -0.391357 0.498039 0.498039 0.498039 #0.000000
v 1.376221 2.750732 0.006836 0.498039 0.498039 0.498039 #0.000000
v 1.243652 1.965088 0.006836 0.498039 0.498039 0.498039 #0.000000
v 1.376221 2.750732 0.006836 0.498039 0.498039 0.498039 #0.000000
v 1.125488 2.055176 0.402832 0.498039 0.498039 0.498039 #0.000000
v 1.125488 2.055176 0.402832 0.498039 0.498039 0.498039 #0.000000
v 1.376221 2.750732 0.006836 0.498039 0.498039 0.498039 #0.000000
v 1.222656 2.775391 0.402832 0.498039 0.498039 0.498039 #0.000000
v 1.067139 1.328369 0.006836 0.498039 0.498039 0.498039 #0.000000
v 1.243652 1.965088 0.006836 0.498039 0.498039 0.498039 #0.000000
v 0.904297 1.397461 0.446777 0.498039 0.498039 0.498039 #0.000000
v 0.904297 1.397461 0.446777 0.498039 0.498039 0.498039 #0.000000
v 1.243652 1.965088 0.006836 0.498039 0.498039 0.498039 #0.000000
v 1.125488 2.055176 0.402832 0.498039 0.498039 0.498039 #0.000000
v 0.904297 1.397461 -0.434326 0.498039 0.498039 0.498039 #0.000000
v 1.125488 2.055176 -0.391357 0.498039 0.498039 0.498039 #0.000000
v 1.243652 1.965088 0.006836 0.498039 0.498039 0.498039 #0.000000
v 1.067139 1.328369 0.006836 0.498039 0.498039 0.498039 #0.000000
v 0.904297 1.397461 -0.434326 0.498039 0.498039 0.498039 #0.000000
v 1.243652 1.965088 0.006836 0.498039 0.498039 0.498039 #0.000000
v 1.215820 0.131348 -0.169189 0.498039 0.498039 0.498039 #0.000000
v 1.358887 0.312500 -0.227539 0.498039 0.498039 0.498039 #0.000000
v 1.476318 0.237305 0.006836 0.498039 0.498039 0.498039 #0.000000
v 1.279297 0.000000 0.006836 0.498039 0.498039 0.498039 #0.000000
v 1.215820 0.131348 -0.169189 0.498039 0.498039 0.498039 #0.000000
v 1.476318 0.237305 0.006836 0.498039 0.498039 0.498039 #0.000000
v 1.358887 0.312500 -0.227539 0.498039 0.498039 0.498039 #0.000000
v 1.319092 0.610596 -0.216064 0.498039 0.498039 0.498039 #0.000000
v 1.438232 0.625000 0.006836 0.498039 0.498039 0.498039 #0.000000
v 1.476318 0.237305 0.006836 0.498039 0.498039 0.498039 #0.000000
v 1.358887 0.312500 -0.227539 0.498039 0.498039 0.498039 #0.000000
v 1.438232 0.625000 0.006836 0.498039 0.498039 0.498039 #0.000000
v 1.476318 0.237305 0.006836 0.498039 0.498039 0.498039 #0.000000
v 1.438232 0.625000 0.006836 0.498039 0.498039 0.498039 #0.000000
v 1.358887 0.312500 0.220947 0.498039 0.498039 0.498039 #0.000000
v 1.358887 0.312500 0.220947 0.498039 0.498039 0.498039 #0.000000
v 1.438232 0.625000 0.006836 0.498039 0.498039 0.498039 #0.000000
v 1.319092 0.610596 0.209717 0.498039 0.498039 0.498039 #0.000000
v 1.279297 0.000000 0.006836 0.498039 0.498039 0.498039 #0.000000
v 1.476318 0.237305 0.006836 0.498039 0.498039 0.498039 #0.000000
v 1.215820 0.131348 0.162598 0.498039 0.498039 0.498039 #0.000000
v 1.215820 0.131348 0.162598 0.498039 0.498039 0.498039 #0.000000
v 1.476318 0.237305 0.006836 0.498039 0.498039 0.498039 #0.000000
v 1.358887 0.312500 0.220947 0.498039 0.498039 0.498039 #0.000000
v 1.006592 0.537842 -0.386475 0.498039 0.498039 0.498039 #0.000000
v 0.368408 0.586914 -0.434326 0.498039 0.498039 0.498039 #0.000000
v 0.596436 0.968262 -0.520996 0.498039 0.498039 0.498039 #0.000000
v 0.951416 0.197998 -0.290527 0.498039 0.498039 0.498039 #0.000000
v 0.368408 0.586914 -0.434326 0.498039 0.498039 0.498039 #0.000000
v 1.006592 0.537842 -0.386475 0.498039 0.498039 0.498039 #0.000000
v 1.006592 0.537842 -0.386475 0.498039 0.498039 0.498039 #0.000000
v 0.596436 0.968262 -0.520996 0.498039 0.498039 0.498039 #0.000000
v 1.096191 0.923096 -0.290527 0.498039 0.498039 0.498039 #0.000000
v 1.096191 0.923096 -0.290527 0.498039 0.498039 0.498039 #0.000000
v 0.596436 0.968262 -0.520996 0.498039 0.498039 0.498039 #0.000000
v 0.904297 1.397461 -0.434326 0.498039 0.498039 0.498039 #0.000000
v 1.006592 0.537842 -0.386475 0.498039 0.498039 0.498039 #0.000000
v 1.096191 0.923096 -0.290527 0.498039 0.498039 0.498039 #0.000000
v 1.319092 0.610596 -0.216064 0.498039 0.498039 0.498039 #0.000000
v 1.358887 0.312500 -0.227539 0.498039 0.498039 0.498039 #0.000000
v 1.006592 0.537842 -0.386475 0.498039 0.498039 0.498039 #0.000000
v 1.319092 0.610596 -0.216064 0.498039 0.498039 0.498039 #0.000000
v 1.215820 0.131348 -0.169189 0.498039 0.498039 0.498039 #0.000000
v 0.951416 0.197998 -0.290527 0.498039 0.498039 0.498039 #0.000000
v 1.006592 0.537842 -0.386475 0.498039 0.498039 0.498039 #0.000000
v 1.215820 0.131348 -0.169189 0.498039 0.498039 0.498039 #0.000000
v 1.006592 0.537842 -0.386475 0.498039 0.498039 0.498039 #0.000000
v 1.358887 0.312500 -0.227539 0.498039 0.498039 0.498039 #0.000000
v 1.096191 0.923096 0.284180 0.498039 0.498039 0.498039 #0.000000
v 1.205811 0.967529 0.006836 0.498039 0.498039 0.498039 #0.000000
v 1.067139 1.328369 0.006836 0.498039 0.498039 0.498039 #0.000000
v 1.096191 0.923096 0.284180 0.498039 0.498039 0.498039 #0.000000
v 1.067139 1.328369 0.006836 0.498039 0.498039 0.498039 #0.000000
v 0.904297 1.397461 0.446777 0.498039 0.498039 0.498039 #0.000000
v 1.319092 0.610596 0.209717 0.498039 0.498039 0.498039 #0.000000
v 1.205811 0.967529 0.006836 0.498039 0.498039 0.498039 #0.000000
v 1.096191 0.923096 0.284180 0.498039 0.498039 0.498039 #0.000000
v 1.319092 0.610596 0.209717 0.498039 0.498039 0.498039 #0.000000
v 1.438232 0.625000 0.006836 0.498039 0.498039 0.498039 #0.000000
v 1.205811 0.967529 0.006836 0.498039 0.498039 0.498039 #0.000000
v 1.319092 0.610596 -0.216064 0.498039 0.498039 0.498039 #0.000000
v 1.096191 0.923096 -0.290527 0.498039 0.498039 0.498039 #0.000000
v 1.205811 0.967529 0.006836 0.498039 0.498039 0.498039 #0.000000
v 1.319092 0.610596 -0.216064 0.498039 0.498039 0.498039 #0.000000
v 1.205811 0.967529 0.006836 0.498039 0.498039 0.498039 #0.000000
v 1.438232 0.625000 0.006836 0.498039 0.498039 0.498039 #0.000000
v 1.096191 0.923096 -0.290527 0.498039 0.498039 0.498039 #0.000000
v 0.904297 1.397461 -0.434326 0.498039 0.498039 0.498039 #0.000000
v 1.067139 1.328369 0.006836 0.498039 0.498039 0.498039 #0.000000
v 1.096191 0.923096 -0.290527 0.498039 0.498039 0.498039 #0.000000
v 1.067139 1.328369 0.006836 0.498039 0.498039 0.498039 #0.000000
v 1.205811 0.967529 0.006836 0.498039 0.498039 0.498039 #0.000000
v 0.951416 0.197998 0.284180 0.498039 0.498039 0.498039 #0.000000
v 1.006592 0.537842 0.380127 0.498039 0.498039 0.498039 #0.000000
v 0.368408 0.586914 0.446777 0.498039 0.498039 0.498039 #0.000000
v 1.006592 0.537842 0.380127 0.498039 0.498039 0.498039 #0.000000
v 0.596436 0.968262 0.532227 0.498039 0.498039 0.498039 #0.000000
v 0.368408 0.586914 0.446777 0.498039 0.498039 0.498039 #0.000000
v 1.215820 0.131348 0.162598 0.498039 0.498039 0.498039 #0.000000
v 1.358887 0.312500 0.220947 0.498039 0.498039 0.498039 #0.000000
v 1.006592 0.537842 0.380127 0.498039 0.498039 0.498039 #0.000000
v 1.215820 0.131348 0.162598 0.498039 0.498039 0.498039 #0.000000
v 1.006592 0.537842 0.380127 0.498039 0.498039 0.498039 #0.000000
v 0.951416 0.197998 0.284180 0.498039 0.498039 0.498039 #0.000000
v 1.358887 0.312500 0.220947 0.498039 0.498039 0.498039 #0.000000
v 1.319092 0.610596 0.209717 0.498039 0.498039 0.498039 #0.000000
v 1.006592 0.537842 0.380127 0.498039 0.498039 0.498039 #0.000000
v 1.006592 0.537842 0.380127 0.498039 0.498039 0.498039 #0.000000
v 1.319092 0.610596 0.209717 0.498039 0.498039 0.498039 #0.000000
v 1.096191 0.923096 0.284180 0.498039 0.498039 0.498039 #0.000000
v 1.006592 0.537842 0.380127 0.498039 0.498039 0.498039 #0.000000
v 1.096191 0.923096 0.284180 0.498039 0.498039 0.498039 #0.000000
v 0.596436 0.968262 0.532227 0.498039 0.498039 0.498039 #0.000000
v 1.096191 0.923096 0.284180 0.498039 0.498039 0.498039 #0.000000
v 0.904297 1.397461 0.446777 0.498039 0.498039 0.498039 #0.000000
v 0.596436 0.968262 0.532227 0.498039 0.498039 0.498039 #0.000000
v 0.951416 0.197998 0.284180 0.498039 0.498039 0.498039 #0.000000
v 0.368408 0.586914 0.446777 0.498039 0.498039 0.498039 #0.000000
v 0.335449 0.481445 0.006836 0.498039 0.498039 0.498039 #0.000000
v 0.932861 0.084717 0.006836 0.498039 0.498039 0.498039 #0.000000
v 0.951416 0.197998 0.284180 0.498039 0.498039 0.498039 #0.000000
v 0.335449 0.481445 0.006836 0.498039 0.498039 0.498039 #0.000000
v 0.951416 0.197998 -0.290527 0.498039 0.498039 0.498039 #0.000000
v 0.335449 0.481445 0.006836 0.498039 0.498039 0.498039 #0.000000
v 0.368408 0.586914 -0.434326 0.498039 0.498039 0.498039 #0.000000
v 0.932861 0.084717 0.006836 0.498039 0.498039 0.498039 #0.000000
v 0.335449 0.481445 0.006836 0.498039 0.498039 0.498039 #0.000000
v 0.951416 0.197998 -0.290527 0.498039 0.498039 0.498039 #0.000000
v 0.932861 0.084717 0.006836 0.498039 0.498039 0.498039 #0.000000
v 0.951416 0.197998 -0.290527 0.498039 0.498039 0.498039 #0.000000
v 1.215820 0.131348 -0.169189 0.498039 0.498039 0.498039 #0.000000
v 1.279297 0.000000 0.006836 0.498039 0.498039 0.498039 #0.000000
v 0.932861 0.084717 0.006836 0.498039 0.498039 0.498039 #0.000000
v 1.215820 0.131348 -0.169189 0.498039 0.498039 0.498039 #0.000000
v 1.279297 0.000000 0.006836 0.498039 0.498039 0.498039 #0.000000
v 1.215820 0.131348 0.162598 0.498039 0.498039 0.498039 #0.000000
v 0.932861 0.084717 0.006836 0.498039 0.498039 0.498039 #0.000000
v 0.932861 0.084717 0.006836 0.498039 0.498039 0.498039 #0.000000
v 1.215820 0.131348 0.162598 0.498039 0.498039 0.498039 #0.000000
v 0.951416 0.197998 0.284180 0.498039 0.498039 0.498039 #0.000000
v -0.309570 3.385254 0.732910 0.498039 0.498039 0.498039 #0.000000
v 0.107178 3.471436 0.732910 0.498039 0.498039 0.498039 #0.000000
v -0.475098 3.697510 0.402832 0.498039 0.498039 0.498039 #0.000000
v 0.107178 3.471436 0.732910 0.498039 0.498039 0.498039 #0.000000
v 0.178711 3.794678 0.402832 0.498039 0.498039 0.498039 #0.000000
v -0.475098 3.697510 0.402832 0.498039 0.498039 0.498039 #0.000000
v -0.652344 3.094727 0.732910 0.498039 0.498039 0.498039 #0.000000
v -0.475098 3.697510 0.402832 0.498039 0.498039 0.498039 #0.000000
v -1.001465 3.274414 0.402832 0.498039 0.498039 0.498039 #0.000000
v -0.652344 3.094727 0.732910 0.498039 0.498039 0.498039 #0.000000
v -0.309570 3.385254 0.732910 0.498039 0.498039 0.498039 #0.000000
v -0.475098 3.697510 0.402832 0.498039 0.498039 0.498039 #0.000000
v -0.311768 2.951172 0.876221 0.498039 0.498039 0.498039 #0.000000
v -0.309570 3.385254 0.732910 0.498039 0.498039 0.498039 #0.000000
v -0.652344 3.094727 0.732910 0.498039 0.498039 0.498039 #0.000000
v -0.311768 2.951172 0.876221 0.498039 0.498039 0.498039 #0.000000
v -0.183105 3.064941 0.876221 0.498039 0.498039 0.498039 #0.000000
v -0.309570 3.385254 0.732910 0.498039 0.498039 0.498039 #0.000000
v -0.183105 3.064941 0.876221 0.498039 0.498039 0.498039 #0.000000
v -0.017090 3.104248 0.876221 0.498039 0.498039 0.498039 #0.000000
v -0.309570 3.385254 0.732910 0.498039 0.498039 0.498039 #0.000000
v -0.017090 3.104248 0.876221 0.498039 0.498039 0.498039 #0.000000
v 0.107178 3.471436 0.732910 0.498039 0.498039 0.498039 #0.000000
v -0.309570 3.385254 0.732910 0.498039 0.498039 0.498039 #0.000000
v 0.904297 1.397461 0.446777 0.498039 0.498039 0.498039 #0.000000
v 1.125488 2.055176 0.402832 0.498039 0.498039 0.498039 #0.000000
v 0.391602 2.023438 0.732910 0.498039 0.498039 0.498039 #0.000000
v 0.391602 2.023438 0.732910 0.498039 0.498039 0.498039 #0.000000
v 1.125488 2.055176 0.402832 0.498039 0.498039 0.498039 #0.000000
v 0.664551 2.405762 0.732910 0.498039 0.498039 0.498039 #0.000000
v 1.125488 2.055176 0.402832 0.498039 0.498039 0.498039 #0.000000
v 1.222656 2.775391 0.402832 0.498039 0.498039 0.498039 #0.000000
v 0.664551 2.405762 0.732910 0.498039 0.498039 0.498039 #0.000000
v 0.664551 2.405762 0.732910 0.498039 0.498039 0.498039 #0.000000
v 1.222656 2.775391 0.402832 0.498039 0.498039 0.498039 #0.000000
v 0.801270 2.820068 0.732910 0.498039 0.498039 0.498039 #0.000000
v 0.664551 2.405762 0.732910 0.498039 0.498039 0.498039 #0.000000
v 0.801270 2.820068 0.732910 0.498039 0.498039 0.498039 #0.000000
v 0.302246 2.708984 0.876221 0.498039 0.498039 0.498039 #0.000000
v 0.302246 2.708984 0.876221 0.498039 0.498039 0.498039 #0.000000
v 0.801270 2.820068 0.732910 0.498039 0.498039 0.498039 #0.000000
v 0.282715 2.890625 0.876221 0.498039 0.498039 0.498039 #0.000000
v 0.391602 2.023438 0.732910 0.498039 0.498039 0.498039 #0.000000
v 0.664551 2.405762 0.732910 0.498039 0.498039 0.498039 #0.000000
v 0.234863 2.541748 0.876221 0.498039 0.498039 0.498039 #0.000000
v 0.664551 2.405762 0.732910 0.498039 0.498039 0.498039 #0.000000
v 0.302246 2.708984 0.876221 0.498039 0.498039 0.498039 #0.000000
v 0.234863 2.541748 0.876221 0.498039 0.498039 0.498039 #0.000000
v 1.222656 2.775391 0.402832 0.498039 0.498039 0.498039 #0.000000
v 0.894043 3.369873 0.402832 0.498039 0.498039 0.498039 #0.000000
v 0.801270 2.820068 0.732910 0.498039 0.498039 0.498039 #0.000000
v 0.801270 2.820068 0.732910 0.498039 0.498039 0.498039 #0.000000
v 0.894043 3.369873 0.402832 0.498039 0.498039 0.498039 #0.000000
v 0.546631 3.229004 0.732910 0.498039 0.498039 0.498039 #0.000000
v 0.546631 3.229004 0.732910 0.498039 0.498039 0.498039 #0.000000
v 0.178711 3.794678 0.402832 0.498039 0.498039 0.498039 #0.000000
v 0.107178 3.471436 0.732910 0.498039 0.498039 0.498039 #0.000000
v 0.546631 3.229004 0.732910 0.498039 0.498039 0.498039 #0.000000
v 0.894043 3.369873 0.402832 0.498039 0.498039 0.498039 #0.000000
v 0.178711 3.794678 0.402832 0.498039 0.498039 0.498039 #0.000000
v 0.157227 3.034180 0.876221 0.498039 0.498039 0.498039 #0.000000
v 0.107178 3.471436 0.732910 0.498039 0.498039 0.498039 #0.000000
v -0.017090 3.104248 0.876221 0.498039 0.498039 0.498039 #0.000000
v 0.157227 3.034180 0.876221 0.498039 0.498039 0.498039 #0.000000
v 0.546631 3.229004 0.732910 0.498039 0.498039 0.498039 #0.000000
v 0.107178 3.471436 0.732910 0.498039 0.498039 0.498039 #0.000000
v 0.282715 2.890625 0.876221 0.498039 0.498039 0.498039 #0.000000
v 0.546631 3.229004 0.732910 0.498039 0.498039 0.498039 #0.000000
v 0.157227 3.034180 0.876221 0.498039 0.498039 0.498039 #0.000000
v 0.801270 2.820068 0.732910 0.498039 0.498039 0.498039 #0.000000
v 0.546631 3.229004 0.732910 0.498039 0.498039 0.498039 #0.000000
v 0.282715 2.890625 0.876221 0.498039 0.498039 0.498039 #0.000000
v 0.368408 0.586914 0.446777 0.498039 0.498039 0.498039 #0.000000
v 0.596436 0.968262 0.532227 0.498039 0.498039 0.498039 #0.000000
v 0.022217 1.610596 0.732910 0.498039 0.498039 0.498039 #0.000000
v 0.596436 0.968262 0.532227 0.498039 0.498039 0.498039 #0.000000
v 0.238525 1.709717 0.732910 0.498039 0.498039 0.498039 #0.000000
v 0.022217 1.610596 0.732910 0.498039 0.498039 0.498039 #0.000000
v 0.596436 0.968262 0.532227 0.498039 0.498039 0.498039 #0.000000
v 0.904297 1.397461 0.446777 0.498039 0.498039 0.498039 #0.000000
v 0.238525 1.709717 0.732910 0.498039 0.498039 0.498039 #0.000000
v 0.904297 1.397461 0.446777 0.498039 0.498039 0.498039 #0.000000
v 0.391602 2.023438 0.732910 0.498039 0.498039 0.498039 #0.000000
v 0.238525 1.709717 0.732910 0.498039 0.498039 0.498039 #0.000000
v 0.238525 1.709717 0.732910 0.498039 0.498039 0.498039 #0.000000
v 0.391602 2.023438 0.732910 0.498039 0.498039 0.498039 #0.000000
v 0.100586 2.441162 0.876221 0.498039 0.498039 0.498039 #0.000000
v 0.391602 2.023438 0.732910 0.498039 0.498039 0.498039 #0.000000
v 0.234863 2.541748 0.876221 0.498039 0.498039 0.498039 #0.000000
v 0.100586 2.441162 0.876221 0.498039 0.498039 0.498039 #0.000000
v 0.022217 1.610596 0.732910 0.498039 0.498039 0.498039 #0.000000
v 0.238525 1.709717 0.732910 0.498039 0.498039 0.498039 #0.000000
v -0.067139 2.422607 0.876221 0.498039 0.498039 0.498039 #0.000000
v 0.238525 1.709717 0.732910 0.498039 0.498039 0.498039 #0.000000
v 0.100586 2.441162 0.876221 0.498039 0.498039 0.498039 #0.000000
v -0.067139 2.422607 0.876221 0.498039 0.498039 0.498039 #0.000000
v 0.368408 0.586914 0.446777 0.498039 0.498039 0.498039 #0.000000
v 0.022217 1.610596 0.732910 0.498039 0.498039 0.498039 #0.000000
v -0.565430 1.348389 0.402832 0.498039 0.498039 0.498039 #0.000000
v -0.565430 1.348389 0.402832 0.498039 0.498039 0.498039 #0.000000
v 0.022217 1.610596 0.732910 0.498039 0.498039 0.498039 #0.000000
v -0.439453 1.871338 0.732910 0.498039 0.498039 0.498039 #0.000000
v 0.022217 1.610596 0.732910 0.498039 0.498039 0.498039 #0.000000
v -0.067139 2.422607 0.876221 0.498039 0.498039 0.498039 #0.000000
v -0.439453 1.871338 0.732910 0.498039 0.498039 0.498039 #0.000000
v -0.439453 1.871338 0.732910 0.498039 0.498039 0.498039 #0.000000
v -0.067139 2.422607 0.876221 0.498039 0.498039 0.498039 #0.000000
v -0.234619 2.500244 0.876221 0.498039 0.498039 0.498039 #0.000000
v -0.439453 1.871338 0.732910 0.498039 0.498039 0.498039 #0.000000
v -0.234619 2.500244 0.876221 0.498039 0.498039 0.498039 #0.000000
v -0.839600 2.304688 0.732910 0.498039 0.498039 0.498039 #0.000000
v -0.839600 2.304688 0.732910 0.498039 0.498039 0.498039 #0.000000
v -0.234619 2.500244 0.876221 0.498039 0.498039 0.498039 #0.000000
v -0.353027 2.637939 0.876221 0.498039 0.498039 0.498039 #0.000000
v -0.565430 1.348389 0.402832 0.498039 0.498039 0.498039 #0.000000
v -0.439453 1.871338 0.732910 0.498039 0.498039 0.498039 #0.000000
v -1.259521 2.070068 0.402832 0.498039 0.498039 0.498039 #0.000000
v -0.439453 1.871338 0.732910 0.498039 0.498039 0.498039 #0.000000
v -0.839600 2.304688 0.732910 0.498039 0.498039 0.498039 #0.000000
v -1.259521 2.070068 0.402832 0.498039 0.498039 0.498039 #0.000000
v -1.259521 2.070068 0.402832 0.498039 0.498039 0.498039 #0.000000
v -0.839600 2.304688 0.732910 0.498039 0.498039 0.498039 #0.000000
v -1.333984 2.721924 0.402832 0.498039 0.498039 0.498039 #0.000000
v -0.839600 2.304688 0.732910 0.498039 0.498039 0.498039 #0.000000
v -0.869629 2.723389 0.732910 0.498039 0.498039 0.498039 #0.000000
v -1.333984 2.721924 0.402832 0.498039 0.498039 0.498039 #0.000000
v -0.839600 2.304688 0.732910 0.498039 0.498039 0.498039 #0.000000
v -0.353027 2.637939 0.876221 0.498039 0.498039 0.498039 #0.000000
v -0.869629 2.723389 0.732910 0.498039 0.498039 0.498039 #0.000000
v -0.353027 2.637939 0.876221 0.498039 0.498039 0.498039 #0.000000
v -0.373535 2.798584 0.876221 0.498039 0.498039 0.498039 #0.000000
v -0.869629 2.723389 0.732910 0.498039 0.498039 0.498039 #0.000000
v -0.869629 2.723389 0.732910 0.498039 0.498039 0.498039 #0.000000
v -0.373535 2.798584 0.876221 0.498039 0.498039 0.498039 #0.000000
v -0.652344 3.094727 0.732910 0.498039 0.498039 0.498039 #0.000000
v -0.373535 2.798584 0.876221 0.498039 0.498039 0.498039 #0.000000
v -0.311768 2.951172 0.876221 0.498039 0.498039 0.498039 #0.000000
v -0.652344 3.094727 0.732910 0.498039 0.498039 0.498039 #0.000000
v -1.333984 2.721924 0.402832 0.498039 0.498039 0.498039 #0.000000
v -0.869629 2.723389 0.732910 0.498039 0.498039 0.498039 #0.000000
v -1.001465 3.274414 0.402832 0.498039 0.498039 0.498039 #0.000000
v -0.869629 2.723389 0.732910 0.498039 0.498039 0.498039 #0.000000
v -0.652344 3.094727 0.732910 0.498039 0.498039 0.498039 #0.000000
v -1.001465 3.274414 0.402832 0.498039 0.498039 0.498039 #0.000000
v 1.125488 2.055176 -0.391357 0.498039 0.498039 0.498039 #0.000000
v 0.664551 2.405762 -0.726074 0.498039 0.498039 0.498039 #0.000000
v 1.222656 2.775391 -0.391357 0.498039 0.498039 0.498039 #0.000000
v 0.664551 2.405762 -0.726074 0.498039 0.498039 0.498039 #0.000000
v 0.801270 2.820068 -0.726074 0.498039 0.498039 0.498039 #0.000000
v 1.222656 2.775391 -0.391357 0.498039 0.498039 0.498039 #0.000000
v 0.904297 1.397461 -0.434326 0.498039 0.498039 0.498039 #0.000000
v 0.391602 2.023438 -0.726074 0.498039 0.498039 0.498039 #0.000000
v 1.125488 2.055176 -0.391357 0.498039 0.498039 0.498039 #0.000000
v 0.391602 2.023438 -0.726074 0.498039 0.498039 0.498039 #0.000000
v 0.664551 2.405762 -0.726074 0.498039 0.498039 0.498039 #0.000000
v 1.125488 2.055176 -0.391357 0.498039 0.498039 0.498039 #0.000000
v 0.391602 2.023438 -0.726074 0.498039 0.498039 0.498039 #0.000000
v 0.234863 2.541748 -0.876221 0.498039 0.498039 0.498039 #0.000000
v 0.664551 2.405762 -0.726074 0.498039 0.498039 0.498039 #0.000000
v 0.664551 2.405762 -0.726074 0.498039 0.498039 0.498039 #0.000000
v 0.234863 2.541748 -0.876221 0.498039 0.498039 0.498039 #0.000000
v 0.302246 2.708984 -0.876221 0.498039 0.498039 0.498039 #0.000000
v 0.664551 2.405762 -0.726074 0.498039 0.498039 0.498039 #0.000000
v 0.302246 2.708984 -0.876221 0.498039 0.498039 0.498039 #0.000000
v 0.801270 2.820068 -0.726074 0.498039 0.498039 0.498039 #0.000000
v 0.302246 2.708984 -0.876221 0.498039 0.498039 0.498039 #0.000000
v 0.282715 2.890625 -0.876221 0.498039 0.498039 0.498039 #0.000000
v 0.801270 2.820068 -0.726074 0.498039 0.498039 0.498039 #0.000000
v 0.546631 3.229004 -0.726074 0.498039 0.498039 0.498039 #0.000000
v 0.107178 3.471436 -0.726074 0.498039 0.498039 0.498039 #0.000000
v 0.178711 3.794678 -0.391357 0.498039 0.498039 0.498039 #0.000000
v 0.546631 3.229004 -0.726074 0.498039 0.498039 0.498039 #0.000000
v 0.178711 3.794678 -0.391357 0.498039 0.498039 0.498039 #0.000000
v 0.894043 3.369873 -0.391357 0.498039 0.498039 0.498039 #0.000000
v 0.801270 2.820068 -0.726074 0.498039 0.498039 0.498039 #0.000000
v 0.546631 3.229004 -0.726074 0.498039 0.498039 0.498039 #0.000000
v 0.894043 3.369873 -0.391357 0.498039 0.498039 0.498039 #0.000000
v 1.222656 2.775391 -0.391357 0.498039 0.498039 0.498039 #0.000000
v 0.801270 2.820068 -0.726074 0.498039 0.498039 0.498039 #0.000000
v 0.894043 3.369873 -0.391357 0.498039 0.498039 0.498039 #0.000000
v 0.282715 2.890625 -0.876221 0.498039 0.498039 0.498039 #0.000000
v 0.157227 3.034180 -0.876221 0.498039 0.498039 0.498039 #0.000000
v 0.546631 3.229004 -0.726074 0.498039 0.498039 0.498039 #0.000000
v 0.801270 2.820068 -0.726074 0.498039 0.498039 0.498039 #0.000000
v 0.282715 2.890625 -0.876221 0.498039 0.498039 0.498039 #0.000000
v 0.546631 3.229004 -0.726074 0.498039 0.498039 0.498039 #0.000000
v 0.157227 3.034180 -0.876221 0.498039 0.498039 0.498039 #0.000000
v -0.017090 3.104248 -0.876221 0.498039 0.498039 0.498039 #0.000000
v 0.107178 3.471436 -0.726074 0.498039 0.498039 0.498039 #0.000000
v 0.157227 3.034180 -0.876221 0.498039 0.498039 0.498039 #0.000000
v 0.107178 3.471436 -0.726074 0.498039 0.498039 0.498039 #0.000000
v 0.546631 3.229004 -0.726074 0.498039 0.498039 0.498039 #0.000000
v -0.652344 3.094727 -0.726074 0.498039 0.498039 0.498039 #0.000000
v -1.001465 3.274414 -0.391357 0.498039 0.498039 0.498039 #0.000000
v -0.475098 3.697510 -0.391357 0.498039 0.498039 0.498039 #0.000000
v -0.652344 3.094727 -0.726074 0.498039 0.498039 0.498039 #0.000000
v -0.475098 3.697510 -0.391357 0.498039 0.498039 0.498039 #0.000000
v -0.309570 3.385254 -0.726074 0.498039 0.498039 0.498039 #0.000000
v -0.309570 3.385254 -0.726074 0.498039 0.498039 0.498039 #0.000000
v -0.475098 3.697510 -0.391357 0.498039 0.498039 0.498039 #0.000000
v 0.107178 3.471436 -0.726074 0.498039 0.498039 0.498039 #0.000000
v 0.107178 3.471436 -0.726074 0.498039 0.498039 0.498039 #0.000000
v -0.475098 3.697510 -0.391357 0.498039 0.498039 0.498039 #0.000000
v 0.178711 3.794678 -0.391357 0.498039 0.498039 0.498039 #0.000000
v -0.183105 3.064941 -0.876221 0.498039 0.498039 0.498039 #0.000000
v -0.309570 3.385254 -0.726074 0.498039 0.498039 0.498039 #0.000000
v -0.017090 3.104248 -0.876221 0.498039 0.498039 0.498039 #0.000000
v -0.017090 3.104248 -0.876221 0.498039 0.498039 0.498039 #0.000000
v -0.309570 3.385254 -0.726074 0.498039 0.498039 0.498039 #0.000000
v 0.107178 3.471436 -0.726074 0.498039 0.498039 0.498039 #0.000000
v -0.311768 2.951172 -0.876221 0.498039 0.498039 0.498039 #0.000000
v -0.652344 3.094727 -0.726074 0.498039 0.498039 0.498039 #0.000000
v -0.309570 3.385254 -0.726074 0.498039 0.498039 0.498039 #0.000000
v -0.311768 2.951172 -0.876221 0.498039 0.498039 0.498039 #0.000000
v -0.309570 3.385254 -0.726074 0.498039 0.498039 0.498039 #0.000000
v -0.183105 3.064941 -0.876221 0.498039 0.498039 0.498039 #0.000000
v 0.368408 0.586914 -0.434326 0.498039 0.498039 0.498039 #0.000000
v 0.022217 1.610596 -0.726074 0.498039 0.498039 0.498039 #0.000000
v 0.596436 0.968262 -0.520996 0.498039 0.498039 0.498039 #0.000000
v 0.596436 0.968262 -0.520996 0.498039 0.498039 0.498039 #0.000000
v 0.022217 1.610596 -0.726074 0.498039 0.498039 0.498039 #0.000000
v 0.238525 1.709717 -0.726074 0.498039 0.498039 0.498039 #0.000000
v 0.022217 1.610596 -0.726074 0.498039 0.498039 0.498039 #0.000000
v -0.067139 2.422607 -0.876221 0.498039 0.498039 0.498039 #0.000000
v 0.238525 1.709717 -0.726074 0.498039 0.498039 0.498039 #0.000000
v 0.238525 1.709717 -0.726074 0.498039 0.498039 0.498039 #0.000000
v -0.067139 2.422607 -0.876221 0.498039 0.498039 0.498039 #0.000000
v 0.100586 2.441162 -0.876221 0.498039 0.498039 0.498039 #0.000000
v 0.238525 1.709717 -0.726074 0.498039 0.498039 0.498039 #0.000000
v 0.100586 2.441162 -0.876221 0.498039 0.498039 0.498039 #0.000000
v 0.391602 2.023438 -0.726074 0.498039 0.498039 0.498039 #0.000000
v 0.391602 2.023438 -0.726074 0.498039 0.498039 0.498039 #0.000000
v 0.100586 2.441162 -0.876221 0.498039 0.498039 0.498039 #0.000000
v 0.234863 2.541748 -0.876221 0.498039 0.498039 0.498039 #0.000000
v 0.596436 0.968262 -0.520996 0.498039 0.498039 0.498039 #0.000000
v 0.238525 1.709717 -0.726074 0.498039 0.498039 0.498039 #0.000000
v 0.904297 1.397461 -0.434326 0.498039 0.498039 0.498039 #0.000000
v 0.904297 1.397461 -0.434326 0.498039 0.498039 0.498039 #0.000000
v 0.238525 1.709717 -0.726074 0.498039 0.498039 0.498039 #0.000000
v 0.391602 2.023438 -0.726074 0.498039 0.498039 0.498039 #0.000000
v -0.439453 1.871338 -0.726074 0.498039 0.498039 0.498039 #0.000000
v -1.259521 2.070068 -0.391357 0.498039 0.498039 0.498039 #0.000000
v -0.839600 2.304688 -0.726074 0.498039 0.498039 0.498039 #0.000000
v -0.565430 1.348389 -0.391357 0.498039 0.498039 0.498039 #0.000000
v -1.259521 2.070068 -0.391357 0.498039 0.498039 0.498039 #0.000000
v -0.439453 1.871338 -0.726074 0.498039 0.498039 0.498039 #0.000000
v -0.439453 1.871338 -0.726074 0.498039 0.498039 0.498039 #0.000000
v -0.839600 2.304688 -0.726074 0.498039 0.498039 0.498039 #0.000000
v -0.234619 2.500244 -0.876221 0.498039 0.498039 0.498039 #0.000000
v -0.839600 2.304688 -0.726074 0.498039 0.498039 0.498039 #0.000000
v -0.353027 2.637939 -0.876221 0.498039 0.498039 0.498039 #0.000000
v -0.234619 2.500244 -0.876221 0.498039 0.498039 0.498039 #0.000000
v -0.439453 1.871338 -0.726074 0.498039 0.498039 0.498039 #0.000000
v -0.234619 2.500244 -0.876221 0.498039 0.498039 0.498039 #0.000000
v -0.067139 2.422607 -0.876221 0.498039 0.498039 0.498039 #0.000000
v 0.022217 1.610596 -0.726074 0.498039 0.498039 0.498039 #0.000000
v -0.439453 1.871338 -0.726074 0.498039 0.498039 0.498039 #0.000000
v -0.067139 2.422607 -0.876221 0.498039 0.498039 0.498039 #0.000000
v 0.368408 0.586914 -0.434326 0.498039 0.498039 0.498039 #0.000000
v -0.565430 1.348389 -0.391357 0.498039 0.498039 0.498039 #0.000000
v 0.022217 1.610596 -0.726074 0.498039 0.498039 0.498039 #0.000000
v -0.565430 1.348389 -0.391357 0.498039 0.498039 0.498039 #0.000000
v -0.439453 1.871338 -0.726074 0.498039 0.498039 0.498039 #0.000000
v 0.022217 1.610596 -0.726074 0.498039 0.498039 0.498039 #0.000000
v -1.259521 2.070068 -0.391357 0.498039 0.498039 0.498039 #0.000000
v -1.333984 2.721924 -0.391357 0.498039 0.498039 0.498039 #0.000000
v -0.839600 2.304688 -0.726074 0.498039 0.498039 0.498039 #0.000000
v -0.839600 2.304688 -0.726074 0.498039 0.498039 0.498039 #0.000000
v -1.333984 2.721924 -0.391357 0.498039 0.498039 0.498039 #0.000000
v -0.869629 2.723389 -0.726074 0.498039 0.498039 0.498039 #0.000000
v -1.333984 2.721924 -0.391357 0.498039 0.498039 0.498039 #0.000000
v -1.001465 3.274414 -0.391357 0.498039 0.498039 0.498039 #0.000000
v -0.869629 2.723389 -0.726074 0.498039 0.498039 0.498039 #0.000000
v -0.869629 2.723389 -0.726074 0.498039 0.498039 0.498039 #0.000000
v -1.001465 3.274414 -0.391357 0.498039 0.498039 0.498039 #0.000000
v -0.652344 3.094727 -0.726074 0.498039 0.498039 0.498039 #0.000000
v -0.869629 2.723389 -0.726074 0.498039 0.498039 0.498039 #0.000000
v -0.652344 3.094727 -0.726074 0.498039 0.498039 0.498039 #0.000000
v -0.373535 2.798584 -0.876221 0.498039 0.498039 0.498039 #0.000000
v -0.373535 2.798584 -0.876221 0.498039 0.498039 0.498039 #0.000000
v -0.652344 3.094727 -0.726074 0.498039 0.498039 0.498039 #0.000000
v -0.311768 2.951172 -0.876221 0.498039 0.498039 0.498039 #0.000000
v -0.839600 2.304688 -0.726074 0.498039 0.498039 0.498039 #0.000000
v -0.869629 2.723389 -0.726074 0.498039 0.498039 0.498039 #0.000000
v -0.353027 2.637939 -0.876221 0.498039 0.498039 0.498039 #0.000000
v -0.353027 2.637939 -0.876221 0.498039 0.498039 0.498039 #0.000000
v -0.869629 2.723389 -0.726074 0.498039 0.498039 0.498039 #0.000000
v -0.373535 2.798584 -0.876221 0.498039 0.498039 0.498039 #0.000000
v 0.282715 2.890625 0.876221 0.498039 0.498039 0.498039 #0.000000
v 0.157227 3.034180 0.876221 0.498039 0.498039 0.498039 #0.000000
v 0.279785 2.892822 -0.003662 0.498039 0.498039 0.498039 #0.000000
v 0.279785 2.892822 -0.003662 0.498039 0.498039 0.498039 #0.000000
v 0.157227 3.034180 0.876221 0.498039 0.498039 0.498039 #0.000000
v 0.159668 3.032227 -0.003662 0.498039 0.498039 0.498039 #0.000000
v 0.159668 3.032227 -0.003662 0.498039 0.498039 0.498039 #0.000000
v 0.157227 3.034180 0.876221 0.498039 0.498039 0.498039 #0.000000
v -0.009033 3.098145 -0.003662 0.498039 0.498039 0.498039 #0.000000
v 0.157227 3.034180 0.876221 0.498039 0.498039 0.498039 #0.000000
v -0.017090 3.104248 0.876221 0.498039 0.498039 0.498039 #0.000000
v -0.009033 3.098145 -0.003662 0.498039 0.498039 0.498039 #0.000000
v 0.157227 3.034180 -0.876221 0.498039 0.498039 0.498039 #0.000000
v -0.009033 3.098145 -0.003662 0.498039 0.498039 0.498039 #0.000000
v -0.017090 3.104248 -0.876221 0.498039 0.498039 0.498039 #0.000000
v 0.159668 3.032227 -0.003662 0.498039 0.498039 0.498039 #0.000000
v -0.009033 3.098145 -0.003662 0.498039 0.498039 0.498039 #0.000000
v 0.157227 3.034180 -0.876221 0.498039 0.498039 0.498039 #0.000000
v 0.279785 2.892822 -0.003662 0.498039 0.498039 0.498039 #0.000000
v 0.159668 3.032227 -0.003662 0.498039 0.498039 0.498039 #0.000000
v 0.157227 3.034180 -0.876221 0.498039 0.498039 0.498039 #0.000000
v 0.282715 2.890625 -0.876221 0.498039 0.498039 0.498039 #0.000000
v 0.279785 2.892822 -0.003662 0.498039 0.498039 0.498039 #0.000000
v 0.157227 3.034180 -0.876221 0.498039 0.498039 0.498039 #0.000000
v -0.232178 2.498535 -0.003662 0.498039 0.498039 0.498039 #0.000000
v -0.345215 2.632080 -0.003662 0.498039 0.498039 0.498039 #0.000000
v -0.234619 2.500244 0.876221 0.498039 0.498039 0.498039 #0.000000
v -0.234619 2.500244 0.876221 0.498039 0.498039 0.498039 #0.000000
v -0.345215 2.632080 -0.003662 0.498039 0.498039 0.498039 #0.000000
v -0.353027 2.637939 0.876221 0.498039 0.498039 0.498039 #0.000000
v -0.067139 2.422607 0.876221 0.498039 0.498039 0.498039 #0.000000
v -0.070312 2.424805 -0.003662 0.498039 0.498039 0.498039 #0.000000
v -0.234619 2.500244 0.876221 0.498039 0.498039 0.498039 #0.000000
v -0.070312 2.424805 -0.003662 0.498039 0.498039 0.498039 #0.000000
v -0.232178 2.498535 -0.003662 0.498039 0.498039 0.498039 #0.000000
v -0.234619 2.500244 0.876221 0.498039 0.498039 0.498039 #0.000000
v -0.070312 2.424805 -0.003662 0.498039 0.498039 0.498039 #0.000000
v -0.234619 2.500244 -0.876221 0.498039 0.498039 0.498039 #0.000000
v -0.232178 2.498535 -0.003662 0.498039 0.498039 0.498039 #0.000000
v -0.067139 2.422607 -0.876221 0.498039 0.498039 0.498039 #0.000000
v -0.234619 2.500244 -0.876221 0.498039 0.498039 0.498039 #0.000000
v -0.070312 2.424805 -0.003662 0.498039 0.498039 0.498039 #0.000000
v -0.232178 2.498535 -0.003662 0.498039 0.498039 0.498039 #0.000000
v -0.234619 2.500244 -0.876221 0.498039 0.498039 0.498039 #0.000000
v -0.345215 2.632080 -0.003662 0.498039 0.498039 0.498039 #0.000000
v -0.234619 2.500244 -0.876221 0.498039 0.498039 0.498039 #0.000000
v -0.353027 2.637939 -0.876221 0.498039 0.498039 0.498039 #0.000000
v -0.345215 2.632080 -0.003662 0.498039 0.498039 0.498039 #0.000000
v -0.353027 2.637939 -0.876221 0.498039 0.498039 0.498039 #0.000000
v -0.373535 2.798584 -0.876221 0.498039 0.498039 0.498039 #0.000000
v -0.362305 2.790039 -0.003662 0.498039 0.498039 0.498039 #0.000000
v -0.345215 2.632080 -0.003662 0.498039 0.498039 0.498039 #0.000000
v -0.353027 2.637939 -0.876221 0.498039 0.498039 0.498039 #0.000000
v -0.362305 2.790039 -0.003662 0.498039 0.498039 0.498039 #0.000000
v -0.362305 2.790039 -0.003662 0.498039 0.498039 0.498039 #0.000000
v -0.373535 2.798584 -0.876221 0.498039 0.498039 0.498039 #0.000000
v -0.299072 2.941895 -0.003662 0.498039 0.498039 0.498039 #0.000000
v -0.373535 2.798584 -0.876221 0.498039 0.498039 0.498039 #0.000000
v -0.311768 2.951172 -0.876221 0.498039 0.498039 0.498039 #0.000000
v -0.299072 2.941895 -0.003662 0.498039 0.498039 0.498039 #0.000000
v -0.362305 2.790039 -0.003662 0.498039 0.498039 0.498039 #0.000000
v -0.299072 2.941895 -0.003662 0.498039 0.498039 0.498039 #0.000000
v -0.373535 2.798584 0.876221 0.498039 0.498039 0.498039 #0.000000
v -0.373535 2.798584 0.876221 0.498039 0.498039 0.498039 #0.000000
v -0.299072 2.941895 -0.003662 0.498039 0.498039 0.498039 #0.000000
v -0.311768 2.951172 0.876221 0.498039 0.498039 0.498039 #0.000000
v -0.345215 2.632080 -0.003662 0.498039 0.498039 0.498039 #0.000000
v -0.362305 2.790039 -0.003662 0.498039 0.498039 0.498039 #0.000000
v -0.353027 2.637939 0.876221 0.498039 0.498039 0.498039 #0.000000
v -0.353027 2.637939 0.876221 0.498039 0.498039 0.498039 #0.000000
v -0.362305 2.790039 -0.003662 0.498039 0.498039 0.498039 #0.000000
v -0.373535 2.798584 0.876221 0.498039 0.498039 0.498039 #0.000000
v -0.299072 2.941895 -0.003662 0.498039 0.498039 0.498039 #0.000000
v -0.183105 3.064941 0.876221 0.498039 0.498039 0.498039 #0.000000
v -0.311768 2.951172 0.876221 0.498039 0.498039 0.498039 #0.000000
v -0.299072 2.941895 -0.003662 0.498039 0.498039 0.498039 #0.000000
v -0.171631 3.056152 -0.003662 0.498039 0.498039 0.498039 #0.000000
v -0.183105 3.064941 0.876221 0.498039 0.498039 0.498039 #0.000000
v -0.299072 2.941895 -0.003662 0.498039 0.498039 0.498039 #0.000000
v -0.311768 2.951172 -0.876221 0.498039 0.498039 0.498039 #0.000000
v -0.183105 3.064941 -0.876221 0.498039 0.498039 0.498039 #0.000000
v -0.299072 2.941895 -0.003662 0.498039 0.498039 0.498039 #0.000000
v -0.183105 3.064941 -0.876221 0.498039 0.498039 0.498039 #0.000000
v -0.171631 3.056152 -0.003662 0.498039 0.498039 0.498039 #0.000000
v -0.171631 3.056152 -0.003662 0.498039 0.498039 0.498039 #0.000000
v -0.183105 3.064941 -0.876221 0.498039 0.498039 0.498039 #0.000000
v -0.017090 3.104248 -0.876221 0.498039 0.498039 0.498039 #0.000000
v -0.171631 3.056152 -0.003662 0.498039 0.498039 0.498039 #0.000000
v -0.017090 3.104248 -0.876221 0.498039 0.498039 0.498039 #0.000000
v -0.009033 3.098145 -0.003662 0.498039 0.498039 0.498039 #0.000000
v -0.171631 3.056152 -0.003662 0.498039 0.498039 0.498039 #0.000000
v -0.017090 3.104248 0.876221 0.498039 0.498039 0.498039 #0.000000
v -0.183105 3.064941 0.876221 0.498039 0.498039 0.498039 #0.000000
v -0.171631 3.056152 -0.003662 0.498039 0.498039 0.498039 #0.000000
v -0.009033 3.098145 -0.003662 0.498039 0.498039 0.498039 #0.000000
v -0.017090 3.104248 0.876221 0.498039 0.498039 0.498039 #0.000000
v 0.234863 2.541748 0.876221 0.498039 0.498039 0.498039 #0.000000
v 0.302246 2.708984 0.876221 0.498039 0.498039 0.498039 #0.000000
v 0.226807 2.547852 -0.003662 0.498039 0.498039 0.498039 #0.000000
v 0.226807 2.547852 -0.003662 0.498039 0.498039 0.498039 #0.000000
v 0.302246 2.708984 0.876221 0.498039 0.498039 0.498039 #0.000000
v 0.295410 2.714111 -0.003662 0.498039 0.498039 0.498039 #0.000000
v 0.302246 2.708984 0.876221 0.498039 0.498039 0.498039 #0.000000
v 0.282715 2.890625 0.876221 0.498039 0.498039 0.498039 #0.000000
v 0.295410 2.714111 -0.003662 0.498039 0.498039 0.498039 #0.000000
v 0.295410 2.714111 -0.003662 0.498039 0.498039 0.498039 #0.000000
v 0.282715 2.890625 0.876221 0.498039 0.498039 0.498039 #0.000000
v 0.279785 2.892822 -0.003662 0.498039 0.498039 0.498039 #0.000000
v 0.295410 2.714111 -0.003662 0.498039 0.498039 0.498039 #0.000000
v 0.279785 2.892822 -0.003662 0.498039 0.498039 0.498039 #0.000000
v 0.282715 2.890625 -0.876221 0.498039 0.498039 0.498039 #0.000000
v 0.302246 2.708984 -0.876221 0.498039 0.498039 0.498039 #0.000000
v 0.295410 2.714111 -0.003662 0.498039 0.498039 0.498039 #0.000000
v 0.282715 2.890625 -0.876221 0.498039 0.498039 0.498039 #0.000000
v 0.234863 2.541748 -0.876221 0.498039 0.498039 0.498039 #0.000000
v 0.226807 2.547852 -0.003662 0.498039 0.498039 0.498039 #0.000000
v 0.302246 2.708984 -0.876221 0.498039 0.498039 0.498039 #0.000000
v 0.226807 2.547852 -0.003662 0.498039 0.498039 0.498039 #0.000000
v 0.295410 2.714111 -0.003662 0.498039 0.498039 0.498039 #0.000000
v 0.302246 2.708984 -0.876221 0.498039 0.498039 0.498039 #0.000000
v -0.067139 2.422607 0.876221 0.498039 0.498039 0.498039 #0.000000
v 0.100586 2.441162 0.876221 0.498039 0.498039 0.498039 #0.000000
v 0.093750 2.446289 -0.003662 0.498039 0.498039 0.498039 #0.000000
v -0.067139 2.422607 0.876221 0.498039 0.498039 0.498039 #0.000000
v 0.093750 2.446289 -0.003662 0.498039 0.498039 0.498039 #0.000000
v -0.070312 2.424805 -0.003662 0.498039 0.498039 0.498039 #0.000000
v 0.100586 2.441162 0.876221 0.498039 0.498039 0.498039 #0.000000
v 0.234863 2.541748 0.876221 0.498039 0.498039 0.498039 #0.000000
v 0.226807 2.547852 -0.003662 0.498039 0.498039 0.498039 #0.000000
v 0.100586 2.441162 0.876221 0.498039 0.498039 0.498039 #0.000000
v 0.226807 2.547852 -0.003662 0.498039 0.498039 0.498039 #0.000000
v 0.093750 2.446289 -0.003662 0.498039 0.498039 0.498039 #0.000000
v 0.100586 2.441162 -0.876221 0.498039 0.498039 0.498039 #0.000000
v 0.093750 2.446289 -0.003662 0.498039 0.498039 0.498039 #0.000000
v 0.226807 2.547852 -0.003662 0.498039 0.498039 0.498039 #0.000000
v 0.100586 2.441162 -0.876221 0.498039 0.498039 0.498039 #0.000000
v 0.226807 2.547852 -0.003662 0.498039 0.498039 0.498039 #0.000000
v 0.234863 2.541748 -0.876221 0.498039 0.498039 0.498039 #0.000000
v -0.067139 2.422607 -0.876221 0.498039 0.498039 0.498039 #0.000000
v 0.093750 2.446289 -0.003662 0.498039 0.498039 0.498039 #0.000000
v 0.100586 2.441162 -0.876221 0.498039 0.498039 0.498039 #0.000000
v -0.067139 2.422607 -0.876221 0.498039 0.498039 0.498039 #0.000000
v -0.070312 2.424805 -0.003662 0.498039 0.498039 0.498039 #0.000000
v 0.093750 2.446289 -0.003662 0.498039 0.498039 0.498039 #0.000000
vt 0.513184 0.100342 0.000000
vt 0.445557 0.156982 0.000000
vt 0.663330 0.349609 0.000000
vt 0.513184 0.100342 0.000000
vt 0.663330 0.349609 0.000000
vt 0.734619 0.277100 0.000000
vt 0.663330 0.349609 0.000000
vt 0.791016 0.532227 0.000000
vt 0.859619 0.491211 0.000000
vt 0.734619 0.277100 0.000000
vt 0.663330 0.349609 0.000000
vt 0.859619 0.491211 0.000000
vt 0.734619 0.277100 0.000000
vt 0.859619 0.491211 0.000000
vt 0.663330 0.349609 0.000000
vt 0.663330 0.349609 0.000000
vt 0.859619 0.491211 0.000000
vt 0.791016 0.532227 0.000000
vt 0.513184 0.100342 0.000000
vt 0.734619 0.277100 0.000000
vt 0.663330 0.349609 0.000000
vt 0.513184 0.100342 0.000000
vt 0.663330 0.349609 0.000000
vt 0.445557 0.156982 0.000000
vt 0.170410 0.714355 0.000000
vt 0.257324 0.884033 0.000000
vt 0.282959 0.870850 0.000000
vt 0.170410 0.714355 0.000000
vt 0.282959 0.870850 0.000000
vt 0.206299 0.720703 0.000000
vt 0.170410 0.714355 0.000000
vt 0.206299 0.720703 0.000000
vt 0.282959 0.870850 0.000000
vt 0.170410 0.714355 0.000000
vt 0.282959 0.870850 0.000000
vt 0.257324 0.884033 0.000000
vt 0.282959 0.870850 0.000000
vt 0.440186 0.928467 0.000000
vt 0.413086 0.964355 0.000000
vt 0.282959 0.870850 0.000000
vt 0.413086 0.964355 0.000000
vt 0.257324 0.884033 0.000000
vt 0.282959 0.870850 0.000000
vt 0.257324 0.884033 0.000000
vt 0.413086 0.964355 0.000000
vt 0.282959 0.870850 0.000000
vt 0.413086 0.964355 0.000000
vt 0.440186 0.928467 0.000000
vt 0.578369 0.937012 0.000000
vt 0.612305 0.978027 0.000000
vt 0.413086 0.964355 0.000000
vt 0.578369 0.937012 0.000000
vt 0.413086 0.964355 0.000000
vt 0.440186 0.928467 0.000000
vt 0.716553 0.811035 0.000000
vt 0.709229 0.929443 0.000000
vt 0.612305 0.978027 0.000000
vt 0.716553 0.811035 0.000000
vt 0.612305 0.978027 0.000000
vt 0.578369 0.937012 0.000000
vt 0.716553 0.811035 0.000000
vt 0.578369 0.937012 0.000000
vt 0.612305 0.978027 0.000000
vt 0.716553 0.811035 0.000000
vt 0.612305 0.978027 0.000000
vt 0.709229 0.929443 0.000000
vt 0.578369 0.937012 0.000000
vt 0.440186 0.928467 0.000000
vt 0.413086 0.964355 0.000000
vt 0.578369 0.937012 0.000000
vt 0.413086 0.964355 0.000000
vt 0.612305 0.978027 0.000000
vt 0.791016 0.532227 0.000000
vt 0.801514 0.697021 0.000000
vt 0.871338 0.674561 0.000000
vt 0.859619 0.491211 0.000000
vt 0.791016 0.532227 0.000000
vt 0.871338 0.674561 0.000000
vt 0.871338 0.674561 0.000000
vt 0.716553 0.811035 0.000000
vt 0.709229 0.929443 0.000000
vt 0.871338 0.674561 0.000000
vt 0.801514 0.697021 0.000000
vt 0.716553 0.811035 0.000000
vt 0.871338 0.674561 0.000000
vt 0.716553 0.811035 0.000000
vt 0.801514 0.697021 0.000000
vt 0.871338 0.674561 0.000000
vt 0.709229 0.929443 0.000000
vt 0.716553 0.811035 0.000000
vt 0.859619 0.491211 0.000000
vt 0.871338 0.674561 0.000000
vt 0.791016 0.532227 0.000000
vt 0.791016 0.532227 0.000000
vt 0.871338 0.674561 0.000000
vt 0.801514 0.697021 0.000000
vt 0.201416 0.515625 0.000000
vt 0.229004 0.538330 0.000000
vt 0.170410 0.714355 0.000000
vt 0.229004 0.538330 0.000000
vt 0.206299 0.720703 0.000000
vt 0.170410 0.714355 0.000000
vt 0.201416 0.515625 0.000000
vt 0.170410 0.714355 0.000000
vt 0.229004 0.538330 0.000000
vt 0.229004 0.538330 0.000000
vt 0.170410 0.714355 0.000000
vt 0.206299 0.720703 0.000000
vt 0.242432 0.354736 0.000000
vt 0.201416 0.515625 0.000000
vt 0.290527 0.362061 0.000000
vt 0.290527 0.362061 0.000000
vt 0.201416 0.515625 0.000000
vt 0.229004 0.538330 0.000000
vt 0.290527 0.362061 0.000000
vt 0.229004 0.538330 0.000000
vt 0.201416 0.515625 0.000000
vt 0.242432 0.354736 0.000000
vt 0.290527 0.362061 0.000000
vt 0.201416 0.515625 0.000000
vt 0.207764 0.051758 0.000000
vt 0.174561 0.097656 0.000000
vt 0.147217 0.078613 0.000000
vt 0.193115 0.018555 0.000000
vt 0.207764 0.051758 0.000000
vt 0.147217 0.078613 0.000000
vt 0.174561 0.097656 0.000000
vt 0.193848 0.163086 0.000000
vt 0.166016 0.166748 0.000000
vt 0.147217 0.078613 0.000000
vt 0.174561 0.097656 0.000000
vt 0.166016 0.166748 0.000000
vt 0.147217 0.078613 0.000000
vt 0.166016 0.166748 0.000000
vt 0.174561 0.097656 0.000000
vt 0.174561 0.097656 0.000000
vt 0.166016 0.166748 0.000000
vt 0.193848 0.163086 0.000000
vt 0.193115 0.018555 0.000000
vt 0.147217 0.078613 0.000000
vt 0.207764 0.051758 0.000000
vt 0.207764 0.051758 0.000000
vt 0.147217 0.078613 0.000000
vt 0.174561 0.097656 0.000000
vt 0.256592 0.154541 0.000000
vt 0.445557 0.156982 0.000000
vt 0.352295 0.263428 0.000000
vt 0.309570 0.058594 0.000000
vt 0.445557 0.156982 0.000000
vt 0.256592 0.154541 0.000000
vt 0.256592 0.154541 0.000000
vt 0.352295 0.263428 0.000000
vt 0.245850 0.241943 0.000000
vt 0.245850 0.241943 0.000000
vt 0.352295 0.263428 0.000000
vt 0.290527 0.362061 0.000000
vt 0.256592 0.154541 0.000000
vt 0.245850 0.241943 0.000000
vt 0.193848 0.163086 0.000000
vt 0.174561 0.097656 0.000000
vt 0.256592 0.154541 0.000000
vt 0.193848 0.163086 0.000000
vt 0.207764 0.051758 0.000000
vt 0.309570 0.058594 0.000000
vt 0.256592 0.154541 0.000000
vt 0.207764 0.051758 0.000000
vt 0.256592 0.154541 0.000000
vt 0.174561 0.097656 0.000000
vt 0.245850 0.241943 0.000000
vt 0.220215 0.253418 0.000000
vt 0.242432 0.354736 0.000000
vt 0.245850 0.241943 0.000000
vt 0.242432 0.354736 0.000000
vt 0.290527 0.362061 0.000000
vt 0.193848 0.163086 0.000000
vt 0.220215 0.253418 0.000000
vt 0.245850 0.241943 0.000000
vt 0.193848 0.163086 0.000000
vt 0.166016 0.166748 0.000000
vt 0.220215 0.253418 0.000000
vt 0.193848 0.163086 0.000000
vt 0.245850 0.241943 0.000000
vt 0.220215 0.253418 0.000000
vt 0.193848 0.163086 0.000000
vt 0.220215 0.253418 0.000000
vt 0.166016 0.166748 0.000000
vt 0.245850 0.241943 0.000000
vt 0.290527 0.362061 0.000000
vt 0.242432 0.354736 0.000000
vt 0.245850 0.241943 0.000000
vt 0.242432 0.354736 0.000000
vt 0.220215 0.253418 0.000000
vt 0.309570 0.058594 0.000000
vt 0.256592 0.154541 0.000000
vt 0.445557 0.156982 0.000000
vt 0.256592 0.154541 0.000000
vt 0.352295 0.263428 0.000000
vt 0.445557 0.156982 0.000000
vt 0.207764 0.051758 0.000000
vt 0.174561 0.097656 0.000000
vt 0.256592 0.154541 0.000000
vt 0.207764 0.051758 0.000000
vt 0.256592 0.154541 0.000000
vt 0.309570 0.058594 0.000000
vt 0.174561 0.097656 0.000000
vt 0.193848 0.163086 0.000000
vt 0.256592 0.154541 0.000000
vt 0.256592 0.154541 0.000000
vt 0.193848 0.163086 0.000000
vt 0.245850 0.241943 0.000000
vt 0.256592 0.154541 0.000000
vt 0.245850 0.241943 0.000000
vt 0.352295 0.263428 0.000000
vt 0.245850 0.241943 0.000000
vt 0.290527 0.362061 0.000000
vt 0.352295 0.263428 0.000000
vt 0.309570 0.058594 0.000000
vt 0.445557 0.156982 0.000000
vt 0.513184 0.100342 0.000000
vt 0.373779 0.020020 0.000000
vt 0.309570 0.058594 0.000000
vt 0.513184 0.100342 0.000000
vt 0.309570 0.058594 0.000000
vt 0.513184 0.100342 0.000000
vt 0.445557 0.156982 0.000000
vt 0.373779 0.020020 0.000000
vt 0.513184 0.100342 0.000000
vt 0.309570 0.058594 0.000000
vt 0.373779 0.020020 0.000000
vt 0.309570 0.058594 0.000000
vt 0.207764 0.051758 0.000000
vt 0.193115 0.018555 0.000000
vt 0.373779 0.020020 0.000000
vt 0.207764 0.051758 0.000000
vt 0.193115 0.018555 0.000000
vt 0.207764 0.051758 0.000000
vt 0.373779 0.020020 0.000000
vt 0.373779 0.020020 0.000000
vt 0.207764 0.051758 0.000000
vt 0.309570 0.058594 0.000000
vt 0.563477 0.874756 0.000000
vt 0.466309 0.896729 0.000000
vt 0.578369 0.937012 0.000000
vt 0.466309 0.896729 0.000000
vt 0.440186 0.928467 0.000000
vt 0.578369 0.937012 0.000000
vt 0.643555 0.801270 0.000000
vt 0.578369 0.937012 0.000000
vt 0.716553 0.811035 0.000000
vt 0.643555 0.801270 0.000000
vt 0.563477 0.874756 0.000000
vt 0.578369 0.937012 0.000000
vt 0.586182 0.762939 0.000000
vt 0.563477 0.874756 0.000000
vt 0.643555 0.801270 0.000000
vt 0.586182 0.762939 0.000000
vt 0.554443 0.790771 0.000000
vt 0.563477 0.874756 0.000000
vt 0.554443 0.790771 0.000000
vt 0.513672 0.800293 0.000000
vt 0.563477 0.874756 0.000000
vt 0.513672 0.800293 0.000000
vt 0.466309 0.896729 0.000000
vt 0.563477 0.874756 0.000000
vt 0.290527 0.362061 0.000000
vt 0.229004 0.538330 0.000000
vt 0.400146 0.530518 0.000000
vt 0.400146 0.530518 0.000000
vt 0.229004 0.538330 0.000000
vt 0.336426 0.627197 0.000000
vt 0.229004 0.538330 0.000000
vt 0.206299 0.720703 0.000000
vt 0.336426 0.627197 0.000000
vt 0.336426 0.627197 0.000000
vt 0.206299 0.720703 0.000000
vt 0.304443 0.731934 0.000000
vt 0.336426 0.627197 0.000000
vt 0.304443 0.731934 0.000000
vt 0.434814 0.703369 0.000000
vt 0.434814 0.703369 0.000000
vt 0.304443 0.731934 0.000000
vt 0.439453 0.748047 0.000000
vt 0.400146 0.530518 0.000000
vt 0.336426 0.627197 0.000000
vt 0.451416 0.662354 0.000000
vt 0.336426 0.627197 0.000000
vt 0.434814 0.703369 0.000000
vt 0.451416 0.662354 0.000000
vt 0.206299 0.720703 0.000000
vt 0.282959 0.870850 0.000000
vt 0.304443 0.731934 0.000000
vt 0.304443 0.731934 0.000000
vt 0.282959 0.870850 0.000000
vt 0.364014 0.835449 0.000000
vt 0.364014 0.835449 0.000000
vt 0.440186 0.928467 0.000000
vt 0.466309 0.896729 0.000000
vt 0.364014 0.835449 0.000000
vt 0.282959 0.870850 0.000000
vt 0.440186 0.928467 0.000000
vt 0.470459 0.783203 0.000000
vt 0.466309 0.896729 0.000000
vt 0.513672 0.800293 0.000000
vt 0.470459 0.783203 0.000000
vt 0.364014 0.835449 0.000000
vt 0.466309 0.896729 0.000000
vt 0.439453 0.748047 0.000000
vt 0.364014 0.835449 0.000000
vt 0.470459 0.783203 0.000000
vt 0.304443 0.731934 0.000000
vt 0.364014 0.835449 0.000000
vt 0.439453 0.748047 0.000000
vt 0.445557 0.156982 0.000000
vt 0.352295 0.263428 0.000000
vt 0.486084 0.426025 0.000000
vt 0.352295 0.263428 0.000000
vt 0.435791 0.451172 0.000000
vt 0.486084 0.426025 0.000000
vt 0.352295 0.263428 0.000000
vt 0.290527 0.362061 0.000000
vt 0.435791 0.451172 0.000000
vt 0.290527 0.362061 0.000000
vt 0.400146 0.530518 0.000000
vt 0.435791 0.451172 0.000000
vt 0.435791 0.451172 0.000000
vt 0.400146 0.530518 0.000000
vt 0.484375 0.637695 0.000000
vt 0.400146 0.530518 0.000000
vt 0.451416 0.662354 0.000000
vt 0.484375 0.637695 0.000000
vt 0.486084 0.426025 0.000000
vt 0.435791 0.451172 0.000000
vt 0.525879 0.633057 0.000000
vt 0.435791 0.451172 0.000000
vt 0.484375 0.637695 0.000000
vt 0.525879 0.633057 0.000000
vt 0.445557 0.156982 0.000000
vt 0.486084 0.426025 0.000000
vt 0.663330 0.349609 0.000000
vt 0.663330 0.349609 0.000000
vt 0.486084 0.426025 0.000000
vt 0.593994 0.491943 0.000000
vt 0.486084 0.426025 0.000000
vt 0.525879 0.633057 0.000000
vt 0.593994 0.491943 0.000000
vt 0.593994 0.491943 0.000000
vt 0.525879 0.633057 0.000000
vt 0.567139 0.652100 0.000000
vt 0.593994 0.491943 0.000000
vt 0.567139 0.652100 0.000000
vt 0.687256 0.601562 0.000000
vt 0.687256 0.601562 0.000000
vt 0.567139 0.652100 0.000000
vt 0.596436 0.686035 0.000000
vt 0.663330 0.349609 0.000000
vt 0.593994 0.491943 0.000000
vt 0.791016 0.532227 0.000000
vt 0.593994 0.491943 0.000000
vt 0.687256 0.601562 0.000000
vt 0.791016 0.532227 0.000000
vt 0.791016 0.532227 0.000000
vt 0.687256 0.601562 0.000000
vt 0.801514 0.697021 0.000000
vt 0.687256 0.601562 0.000000
vt 0.694092 0.707520 0.000000
vt 0.801514 0.697021 0.000000
vt 0.687256 0.601562 0.000000
vt 0.596436 0.686035 0.000000
vt 0.694092 0.707520 0.000000
vt 0.596436 0.686035 0.000000
vt 0.601562 0.725342 0.000000
vt 0.694092 0.707520 0.000000
vt 0.694092 0.707520 0.000000
vt 0.601562 0.725342 0.000000
vt 0.643555 0.801270 0.000000
vt 0.601562 0.725342 0.000000
vt 0.586182 0.762939 0.000000
vt 0.643555 0.801270 0.000000
vt 0.801514 0.697021 0.000000
vt 0.694092 0.707520 0.000000
vt 0.716553 0.811035 0.000000
vt 0.694092 0.707520 0.000000
vt 0.643555 0.801270 0.000000
vt 0.716553 0.811035 0.000000
vt 0.229004 0.538330 0.000000
vt 0.336426 0.627197 0.000000
vt 0.206299 0.720703 0.000000
vt 0.336426 0.627197 0.000000
vt 0.304443 0.731934 0.000000
vt 0.206299 0.720703 0.000000
vt 0.290527 0.362061 0.000000
vt 0.400146 0.530518 0.000000
vt 0.229004 0.538330 0.000000
vt 0.400146 0.530518 0.000000
vt 0.336426 0.627197 0.000000
vt 0.229004 0.538330 0.000000
vt 0.400146 0.530518 0.000000
vt 0.451416 0.662354 0.000000
vt 0.336426 0.627197 0.000000
vt 0.336426 0.627197 0.000000
vt 0.451416 0.662354 0.000000
vt 0.434814 0.703369 0.000000
vt 0.336426 0.627197 0.000000
vt 0.434814 0.703369 0.000000
vt 0.304443 0.731934 0.000000
vt 0.434814 0.703369 0.000000
vt 0.439453 0.748047 0.000000
vt 0.304443 0.731934 0.000000
vt 0.364014 0.835449 0.000000
vt 0.466309 0.896729 0.000000
vt 0.440186 0.928467 0.000000
vt 0.364014 0.835449 0.000000
vt 0.440186 0.928467 0.000000
vt 0.282959 0.870850 0.000000
vt 0.304443 0.731934 0.000000
vt 0.364014 0.835449 0.000000
vt 0.282959 0.870850 0.000000
vt 0.206299 0.720703 0.000000
vt 0.304443 0.731934 0.000000
vt 0.282959 0.870850 0.000000
vt 0.439453 0.748047 0.000000
vt 0.470459 0.783203 0.000000
vt 0.364014 0.835449 0.000000
vt 0.304443 0.731934 0.000000
vt 0.439453 0.748047 0.000000
vt 0.364014 0.835449 0.000000
vt 0.470459 0.783203 0.000000
vt 0.513672 0.800293 0.000000
vt 0.466309 0.896729 0.000000
vt 0.470459 0.783203 0.000000
vt 0.466309 0.896729 0.000000
vt 0.364014 0.835449 0.000000
vt 0.643555 0.801270 0.000000
vt 0.716553 0.811035 0.000000
vt 0.578369 0.937012 0.000000
vt 0.643555 0.801270 0.000000
vt 0.578369 0.937012 0.000000
vt 0.563477 0.874756 0.000000
vt 0.563477 0.874756 0.000000
vt 0.578369 0.937012 0.000000
vt 0.466309 0.896729 0.000000
vt 0.466309 0.896729 0.000000
vt 0.578369 0.937012 0.000000
vt 0.440186 0.928467 0.000000
vt 0.554443 0.790771 0.000000
vt 0.563477 0.874756 0.000000
vt 0.513672 0.800293 0.000000
vt 0.513672 0.800293 0.000000
vt 0.563477 0.874756 0.000000
vt 0.466309 0.896729 0.000000
vt 0.586182 0.762939 0.000000
vt 0.643555 0.801270 0.000000
vt 0.563477 0.874756 0.000000
vt 0.586182 0.762939 0.000000
vt 0.563477 0.874756 0.000000
vt 0.554443 0.790771 0.000000
vt 0.445557 0.156982 0.000000
vt 0.486084 0.426025 0.000000
vt 0.352295 0.263428 0.000000
vt 0.352295 0.263428 0.000000
vt 0.486084 0.426025 0.000000
vt 0.435791 0.451172 0.000000
vt 0.486084 0.426025 0.000000
vt 0.525879 0.633057 0.000000
vt 0.435791 0.451172 0.000000
vt 0.435791 0.451172 0.000000
vt 0.525879 0.633057 0.000000
vt 0.484375 0.637695 0.000000
vt 0.435791 0.451172 0.000000
vt 0.484375 0.637695 0.000000
vt 0.400146 0.530518 0.000000
vt 0.400146 0.530518 0.000000
vt 0.484375 0.637695 0.000000
vt 0.451416 0.662354 0.000000
vt 0.352295 0.263428 0.000000
vt 0.435791 0.451172 0.000000
vt 0.290527 0.362061 0.000000
vt 0.290527 0.362061 0.000000
vt 0.435791 0.451172 0.000000
vt 0.400146 0.530518 0.000000
vt 0.593994 0.491943 0.000000
vt 0.791016 0.532227 0.000000
vt 0.687256 0.601562 0.000000
vt 0.663330 0.349609 0.000000
vt 0.791016 0.532227 0.000000
vt 0.593994 0.491943 0.000000
vt 0.593994 0.491943 0.000000
vt 0.687256 0.601562 0.000000
vt 0.567139 0.652100 0.000000
vt 0.687256 0.601562 0.000000
vt 0.596436 0.686035 0.000000
vt 0.567139 0.652100 0.000000
vt 0.593994 0.491943 0.000000
vt 0.567139 0.652100 0.000000
vt 0.525879 0.633057 0.000000
vt 0.486084 0.426025 0.000000
vt 0.593994 0.491943 0.000000
vt 0.525879 0.633057 0.000000
vt 0.445557 0.156982 0.000000
vt 0.663330 0.349609 0.000000
vt 0.486084 0.426025 0.000000
vt 0.663330 0.349609 0.000000
vt 0.593994 0.491943 0.000000
vt 0.486084 0.426025 0.000000
vt 0.791016 0.532227 0.000000
vt 0.801514 0.697021 0.000000
vt 0.687256 0.601562 0.000000
vt 0.687256 0.601562 0.000000
vt 0.801514 0.697021 0.000000
vt 0.694092 0.707520 0.000000
vt 0.801514 0.697021 0.000000
vt 0.716553 0.811035 0.000000
vt 0.694092 0.707520 0.000000
vt 0.694092 0.707520 0.000000
vt 0.716553 0.811035 0.000000
vt 0.643555 0.801270 0.000000
vt 0.694092 0.707520 0.000000
vt 0.643555 0.801270 0.000000
vt 0.601562 0.725342 0.000000
vt 0.601562 0.725342 0.000000
vt 0.643555 0.801270 0.000000
vt 0.586182 0.762939 0.000000
vt 0.687256 0.601562 0.000000
vt 0.694092 0.707520 0.000000
vt 0.596436 0.686035 0.000000
vt 0.596436 0.686035 0.000000
vt 0.694092 0.707520 0.000000
vt 0.601562 0.725342 0.000000
vt 0.439453 0.748047 0.000000
vt 0.470459 0.783203 0.000000
vt 0.440186 0.748535 0.000000
vt 0.440186 0.748535 0.000000
vt 0.470459 0.783203 0.000000
vt 0.469727 0.782715 0.000000
vt 0.469727 0.782715 0.000000
vt 0.470459 0.783203 0.000000
vt 0.511475 0.798828 0.000000
vt 0.470459 0.783203 0.000000
vt 0.513672 0.800293 0.000000
vt 0.511475 0.798828 0.000000
vt 0.470459 0.783203 0.000000
vt 0.511475 0.798828 0.000000
vt 0.513672 0.800293 0.000000
vt 0.469727 0.782715 0.000000
vt 0.511475 0.798828 0.000000
vt 0.470459 0.783203 0.000000
vt 0.440186 0.748535 0.000000
vt 0.469727 0.782715 0.000000
vt 0.470459 0.783203 0.000000
vt 0.439453 0.748047 0.000000
vt 0.440186 0.748535 0.000000
vt 0.470459 0.783203 0.000000
vt 0.566650 0.651855 0.000000
vt 0.594482 0.684570 0.000000
vt 0.567139 0.652100 0.000000
vt 0.567139 0.652100 0.000000
vt 0.594482 0.684570 0.000000
vt 0.596436 0.686035 0.000000
vt 0.525879 0.633057 0.000000
vt 0.526611 0.633545 0.000000
vt 0.567139 0.652100 0.000000
vt 0.526611 0.633545 0.000000
vt 0.566650 0.651855 0.000000
vt 0.567139 0.652100 0.000000
vt 0.526611 0.633545 0.000000
vt 0.567139 0.652100 0.000000
vt 0.566650 0.651855 0.000000
vt 0.525879 0.633057 0.000000
vt 0.567139 0.652100 0.000000
vt 0.526611 0.633545 0.000000
vt 0.566650 0.651855 0.000000
vt 0.567139 0.652100 0.000000
vt 0.594482 0.684570 0.000000
vt 0.567139 0.652100 0.000000
vt 0.596436 0.686035 0.000000
vt 0.594482 0.684570 0.000000
vt 0.596436 0.686035 0.000000
vt 0.601562 0.725342 0.000000
vt 0.598633 0.723389 0.000000
vt 0.594482 0.684570 0.000000
vt 0.596436 0.686035 0.000000
vt 0.598633 0.723389 0.000000
vt 0.598633 0.723389 0.000000
vt 0.601562 0.725342 0.000000
vt 0.583252 0.760498 0.000000
vt 0.601562 0.725342 0.000000
vt 0.586182 0.762939 0.000000
vt 0.583252 0.760498 0.000000
vt 0.598633 0.723389 0.000000
vt 0.583252 0.760498 0.000000
vt 0.601562 0.725342 0.000000
vt 0.601562 0.725342 0.000000
vt 0.583252 0.760498 0.000000
vt 0.586182 0.762939 0.000000
vt 0.594482 0.684570 0.000000
vt 0.598633 0.723389 0.000000
vt 0.596436 0.686035 0.000000
vt 0.596436 0.686035 0.000000
vt 0.598633 0.723389 0.000000
vt 0.601562 0.725342 0.000000
vt 0.583252 0.760498 0.000000
vt 0.554443 0.790771 0.000000
vt 0.586182 0.762939 0.000000
vt 0.583252 0.760498 0.000000
vt 0.551758 0.788574 0.000000
vt 0.554443 0.790771 0.000000
vt 0.583252 0.760498 0.000000
vt 0.586182 0.762939 0.000000
vt 0.554443 0.790771 0.000000
vt 0.583252 0.760498 0.000000
vt 0.554443 0.790771 0.000000
vt 0.551758 0.788574 0.000000
vt 0.551758 0.788574 0.000000
vt 0.554443 0.790771 0.000000
vt 0.513672 0.800293 0.000000
vt 0.551758 0.788574 0.000000
vt 0.513672 0.800293 0.000000
vt 0.511475 0.798828 0.000000
vt 0.551758 0.788574 0.000000
vt 0.513672 0.800293 0.000000
vt 0.554443 0.790771 0.000000
vt 0.551758 0.788574 0.000000
vt 0.511475 0.798828 0.000000
vt 0.513672 0.800293 0.000000
vt 0.451416 0.662354 0.000000
vt 0.434814 0.703369 0.000000
vt 0.453369 0.663818 0.000000
vt 0.453369 0.663818 0.000000
vt 0.434814 0.703369 0.000000
vt 0.436279 0.704590 0.000000
vt 0.434814 0.703369 0.000000
vt 0.439453 0.748047 0.000000
vt 0.436279 0.704590 0.000000
vt 0.436279 0.704590 0.000000
vt 0.439453 0.748047 0.000000
vt 0.440186 0.748535 0.000000
vt 0.436279 0.704590 0.000000
vt 0.440186 0.748535 0.000000
vt 0.439453 0.748047 0.000000
vt 0.434814 0.703369 0.000000
vt 0.436279 0.704590 0.000000
vt 0.439453 0.748047 0.000000
vt 0.451416 0.662354 0.000000
vt 0.453369 0.663818 0.000000
vt 0.434814 0.703369 0.000000
vt 0.453369 0.663818 0.000000
vt 0.436279 0.704590 0.000000
vt 0.434814 0.703369 0.000000
vt 0.525879 0.633057 0.000000
vt 0.484375 0.637695 0.000000
vt 0.486084 0.638916 0.000000
vt 0.525879 0.633057 0.000000
vt 0.486084 0.638916 0.000000
vt 0.526611 0.633545 0.000000
vt 0.484375 0.637695 0.000000
vt 0.451416 0.662354 0.000000
vt 0.453369 0.663818 0.000000
vt 0.484375 0.637695 0.000000
vt 0.453369 0.663818 0.000000
vt 0.486084 0.638916 0.000000
vt 0.484375 0.637695 0.000000
vt 0.486084 0.638916 0.000000
vt 0.453369 0.663818 0.000000
vt 0.484375 0.637695 0.000000
vt 0.453369 0.663818 0.000000
vt 0.451416 0.662354 0.000000
vt 0.525879 0.633057 0.000000
vt 0.486084 0.638916 0.000000
vt 0.484375 0.637695 0.000000
vt 0.525879 0.633057 0.000000
vt 0.526611 0.633545 0.000000
vt 0.486084 0.638916 0.000000
vn 0.606201 0.779297 0.157715
vn 0.376465 0.652100 0.657715
vn 0.605713 0.719238 0.339844
vn 0.606201 0.779297 0.157715
vn 0.605713 0.719238 0.339844
vn 0.632080 0.750244 0.193604
vn 0.605713 0.719238 0.339844
vn 0.791992 0.423096 0.439697
vn 0.735107 0.645996 0.205078
vn 0.632080 0.750244 0.193604
vn 0.605713 0.719238 0.339844
vn 0.735107 0.645996 0.205078
vn 0.632080 0.750244 0.193604
vn 0.735107 0.645996 0.205078
vn 0.641602 0.660156 -0.389893
vn 0.641602 0.660156 -0.389893
vn 0.735107 0.645996 0.205078
vn 0.793213 0.423340 -0.437500
vn 0.606201 0.779297 0.157715
vn 0.632080 0.750244 0.193604
vn 0.641602 0.660156 -0.389893
vn 0.606201 0.779297 0.157715
vn 0.641602 0.660156 -0.389893
vn 0.387939 0.644531 -0.658447
vn -0.884033 -0.440918 0.153809
vn -0.798096 -0.597900 0.072510
vn -0.772217 -0.547119 0.322266
vn -0.884033 -0.440918 0.153809
vn -0.772217 -0.547119 0.322266
vn -0.852783 -0.208496 0.478271
vn -0.884033 -0.440918 0.153809
vn -0.854492 -0.208496 -0.475586
vn -0.769287 -0.552002 -0.320801
vn -0.884033 -0.440918 0.153809
vn -0.769287 -0.552002 -0.320801
vn -0.798096 -0.597900 0.072510
vn -0.769287 -0.552002 -0.320801
vn -0.283691 -0.877197 -0.386963
vn -0.467529 -0.871094 -0.148682
vn -0.769287 -0.552002 -0.320801
vn -0.467529 -0.871094 -0.148682
vn -0.798096 -0.597900 0.072510
vn -0.772217 -0.547119 0.322266
vn -0.798096 -0.597900 0.072510
vn -0.467529 -0.871094 -0.148682
vn -0.772217 -0.547119 0.322266
vn -0.467529 -0.871094 -0.148682
vn -0.253906 -0.884766 0.390381
vn 0.239502 -0.916504 -0.319580
vn 0.378906 -0.905273 -0.190918
vn -0.467529 -0.871094 -0.148682
vn 0.239502 -0.916504 -0.319580
vn -0.467529 -0.871094 -0.148682
vn -0.283691 -0.877197 -0.386963
vn 0.652588 -0.697998 -0.294189
vn 0.691162 -0.719727 -0.061768
vn 0.378906 -0.905273 -0.190918
vn 0.652588 -0.697998 -0.294189
vn 0.378906 -0.905273 -0.190918
vn 0.239502 -0.916504 -0.319580
vn 0.652588 -0.697510 0.294922
vn 0.397217 -0.858887 0.322998
vn 0.378906 -0.905273 -0.190918
vn 0.652588 -0.697510 0.294922
vn 0.378906 -0.905273 -0.190918
vn 0.691162 -0.719727 -0.061768
vn 0.397217 -0.858887 0.322998
vn -0.253906 -0.884766 0.390381
vn -0.467529 -0.871094 -0.148682
vn 0.397217 -0.858887 0.322998
vn -0.467529 -0.871094 -0.148682
vn 0.378906 -0.905273 -0.190918
vn 0.791992 0.423096 0.439697
vn 0.873291 -0.093018 0.477783
vn 0.953613 -0.044678 0.297363
vn 0.735107 0.645996 0.205078
vn 0.791992 0.423096 0.439697
vn 0.953613 -0.044678 0.297363
vn 0.953613 -0.044678 0.297363
vn 0.652588 -0.697510 0.294922
vn 0.691162 -0.719727 -0.061768
vn 0.953613 -0.044678 0.297363
vn 0.873291 -0.093018 0.477783
vn 0.652588 -0.697510 0.294922
vn 0.953613 -0.044678 0.297363
vn 0.652588 -0.697998 -0.294189
vn 0.853027 -0.241455 -0.462402
vn 0.953613 -0.044678 0.297363
vn 0.691162 -0.719727 -0.061768
vn 0.652588 -0.697998 -0.294189
vn 0.735107 0.645996 0.205078
vn 0.953613 -0.044678 0.297363
vn 0.793213 0.423340 -0.437500
vn 0.793213 0.423340 -0.437500
vn 0.953613 -0.044678 0.297363
vn 0.853027 -0.241455 -0.462402
vn -0.979980 0.195312 -0.032471
vn -0.895020 0.167236 -0.413086
vn -0.884033 -0.440918 0.153809
vn -0.895020 0.167236 -0.413086
vn -0.854492 -0.208496 -0.475586
vn -0.884033 -0.440918 0.153809
vn -0.979980 0.195312 -0.032471
vn -0.884033 -0.440918 0.153809
vn -0.891846 0.167480 0.419434
vn -0.891846 0.167480 0.419434
vn -0.884033 -0.440918 0.153809
vn -0.852783 -0.208496 0.478271
vn -0.983887 0.107422 0.142090
vn -0.979980 0.195312 -0.032471
vn -0.876709 0.175293 0.447510
vn -0.876709 0.175293 0.447510
vn -0.979980 0.195312 -0.032471
vn -0.891846 0.167480 0.419434
vn -0.850342 0.209961 -0.482178
vn -0.895020 0.167236 -0.413086
vn -0.979980 0.195312 -0.032471
vn -0.983887 0.107422 0.142090
vn -0.850342 0.209961 -0.482178
vn -0.979980 0.195312 -0.032471
vn -0.508057 0.587402 -0.629639
vn -0.737549 0.311523 -0.598633
vn -0.766602 0.497559 -0.405518
vn -0.506104 0.854492 -0.115723
vn -0.508057 0.587402 -0.629639
vn -0.766602 0.497559 -0.405518
vn -0.737549 0.311523 -0.598633
vn -0.736816 -0.180420 -0.651367
vn -0.953125 -0.157959 -0.257324
vn -0.766602 0.497559 -0.405518
vn -0.737549 0.311523 -0.598633
vn -0.953125 -0.157959 -0.257324
vn -0.766602 0.497559 -0.405518
vn -0.953125 -0.157959 -0.257324
vn -0.811768 0.033203 0.582764
vn -0.811768 0.033203 0.582764
vn -0.953125 -0.157959 -0.257324
vn -0.796143 -0.270264 0.541016
vn -0.506104 0.854492 -0.115723
vn -0.766602 0.497559 -0.405518
vn -0.479980 0.546631 0.686035
vn -0.479980 0.546631 0.686035
vn -0.766602 0.497559 -0.405518
vn -0.811768 0.033203 0.582764
vn -0.148926 0.184082 -0.971436
vn 0.387939 0.644531 -0.658447
vn -0.209229 0.136719 -0.968018
vn -0.003662 0.505371 -0.862549
vn 0.387939 0.644531 -0.658447
vn -0.148926 0.184082 -0.971436
vn -0.148926 0.184082 -0.971436
vn -0.209229 0.136719 -0.968018
vn -0.501465 -0.104980 -0.858643
vn -0.501465 -0.104980 -0.858643
vn -0.209229 0.136719 -0.968018
vn -0.850342 0.209961 -0.482178
vn -0.148926 0.184082 -0.971436
vn -0.501465 -0.104980 -0.858643
vn -0.736816 -0.180420 -0.651367
vn -0.737549 0.311523 -0.598633
vn -0.148926 0.184082 -0.971436
vn -0.736816 -0.180420 -0.651367
vn -0.508057 0.587402 -0.629639
vn -0.003662 0.505371 -0.862549
vn -0.148926 0.184082 -0.971436
vn -0.508057 0.587402 -0.629639
vn -0.148926 0.184082 -0.971436
vn -0.737549 0.311523 -0.598633
vn -0.838379 -0.306885 0.450195
vn -0.852783 -0.421143 0.308350
vn -0.983887 0.107422 0.142090
vn -0.838379 -0.306885 0.450195
vn -0.983887 0.107422 0.142090
vn -0.876709 0.175293 0.447510
vn -0.796143 -0.270264 0.541016
vn -0.852783 -0.421143 0.308350
vn -0.838379 -0.306885 0.450195
vn -0.796143 -0.270264 0.541016
vn -0.953125 -0.157959 -0.257324
vn -0.852783 -0.421143 0.308350
vn -0.736816 -0.180420 -0.651367
vn -0.501465 -0.104980 -0.858643
vn -0.852783 -0.421143 0.308350
vn -0.736816 -0.180420 -0.651367
vn -0.852783 -0.421143 0.308350
vn -0.953125 -0.157959 -0.257324
vn -0.501465 -0.104980 -0.858643
vn -0.850342 0.209961 -0.482178
vn -0.983887 0.107422 0.142090
vn -0.501465 -0.104980 -0.858643
vn -0.983887 0.107422 0.142090
vn -0.852783 -0.421143 0.308350
vn -0.020264 0.505127 0.862549
vn -0.129883 0.272949 0.953125
vn 0.376465 0.652100 0.657715
vn -0.129883 0.272949 0.953125
vn -0.232178 0.147461 0.961182
vn 0.376465 0.652100 0.657715
vn -0.479980 0.546631 0.686035
vn -0.811768 0.033203 0.582764
vn -0.129883 0.272949 0.953125
vn -0.479980 0.546631 0.686035
vn -0.129883 0.272949 0.953125
vn -0.020264 0.505127 0.862549
vn -0.811768 0.033203 0.582764
vn -0.796143 -0.270264 0.541016
vn -0.129883 0.272949 0.953125
vn -0.129883 0.272949 0.953125
vn -0.796143 -0.270264 0.541016
vn -0.838379 -0.306885 0.450195
vn -0.129883 0.272949 0.953125
vn -0.838379 -0.306885 0.450195
vn -0.232178 0.147461 0.961182
vn -0.838379 -0.306885 0.450195
vn -0.876709 0.175293 0.447510
vn -0.232178 0.147461 0.961182
vn -0.020264 0.505127 0.862549
vn 0.376465 0.652100 0.657715
vn 0.606201 0.779297 0.157715
vn 0.452148 0.890625 0.043213
vn -0.020264 0.505127 0.862549
vn 0.606201 0.779297 0.157715
vn -0.003662 0.505371 -0.862549
vn 0.606201 0.779297 0.157715
vn 0.387939 0.644531 -0.658447
vn 0.452148 0.890625 0.043213
vn 0.606201 0.779297 0.157715
vn -0.003662 0.505371 -0.862549
vn 0.452148 0.890625 0.043213
vn -0.003662 0.505371 -0.862549
vn -0.508057 0.587402 -0.629639
vn -0.506104 0.854492 -0.115723
vn 0.452148 0.890625 0.043213
vn -0.508057 0.587402 -0.629639
vn -0.506104 0.854492 -0.115723
vn -0.479980 0.546631 0.686035
vn 0.452148 0.890625 0.043213
vn 0.452148 0.890625 0.043213
vn -0.479980 0.546631 0.686035
vn -0.020264 0.505127 0.862549
vn 0.242920 -0.566162 0.787354
vn 0.075195 -0.641602 0.763184
vn 0.397217 -0.858887 0.322998
vn 0.075195 -0.641602 0.763184
vn -0.253906 -0.884766 0.390381
vn 0.397217 -0.858887 0.322998
vn 0.407715 -0.464111 0.786133
vn 0.397217 -0.858887 0.322998
vn 0.652588 -0.697510 0.294922
vn 0.407715 -0.464111 0.786133
vn 0.242920 -0.566162 0.787354
vn 0.397217 -0.858887 0.322998
vn 0.280518 -0.262451 0.923096
vn 0.242920 -0.566162 0.787354
vn 0.407715 -0.464111 0.786133
vn 0.280518 -0.262451 0.923096
vn 0.179443 -0.341553 0.922363
vn 0.242920 -0.566162 0.787354
vn 0.179443 -0.341553 0.922363
vn 0.032227 -0.366943 0.929443
vn 0.242920 -0.566162 0.787354
vn 0.032227 -0.366943 0.929443
vn 0.075195 -0.641602 0.763184
vn 0.242920 -0.566162 0.787354
vn -0.876709 0.175293 0.447510
vn -0.891846 0.167480 0.419434
vn -0.375244 0.155762 0.913574
vn -0.375244 0.155762 0.913574
vn -0.891846 0.167480 0.419434
vn -0.451172 0.203613 0.868652
vn -0.891846 0.167480 0.419434
vn -0.852783 -0.208496 0.478271
vn -0.451172 0.203613 0.868652
vn -0.451172 0.203613 0.868652
vn -0.852783 -0.208496 0.478271
vn -0.480469 0.080811 0.873047
vn -0.451172 0.203613 0.868652
vn -0.480469 0.080811 0.873047
vn -0.285400 0.069824 0.955566
vn -0.285400 0.069824 0.955566
vn -0.480469 0.080811 0.873047
vn -0.267334 -0.112061 0.956787
vn -0.375244 0.155762 0.913574
vn -0.451172 0.203613 0.868652
vn -0.240234 0.174805 0.954590
vn -0.451172 0.203613 0.868652
vn -0.285400 0.069824 0.955566
vn -0.240234 0.174805 0.954590
vn -0.852783 -0.208496 0.478271
vn -0.772217 -0.547119 0.322266
vn -0.480469 0.080811 0.873047
vn -0.480469 0.080811 0.873047
vn -0.772217 -0.547119 0.322266
vn -0.453369 -0.456543 0.765137
vn -0.453369 -0.456543 0.765137
vn -0.253906 -0.884766 0.390381
vn 0.075195 -0.641602 0.763184
vn -0.453369 -0.456543 0.765137
vn -0.772217 -0.547119 0.322266
vn -0.253906 -0.884766 0.390381
vn -0.170166 -0.295654 0.939697
vn 0.075195 -0.641602 0.763184
vn 0.032227 -0.366943 0.929443
vn -0.170166 -0.295654 0.939697
vn -0.453369 -0.456543 0.765137
vn 0.075195 -0.641602 0.763184
vn -0.267334 -0.112061 0.956787
vn -0.453369 -0.456543 0.765137
vn -0.170166 -0.295654 0.939697
vn -0.480469 0.080811 0.873047
vn -0.453369 -0.456543 0.765137
vn -0.267334 -0.112061 0.956787
vn 0.376465 0.652100 0.657715
vn -0.232178 0.147461 0.961182
vn -0.029541 0.244873 0.968994
vn -0.232178 0.147461 0.961182
vn -0.203369 0.167236 0.964600
vn -0.029541 0.244873 0.968994
vn -0.232178 0.147461 0.961182
vn -0.876709 0.175293 0.447510
vn -0.203369 0.167236 0.964600
vn -0.876709 0.175293 0.447510
vn -0.375244 0.155762 0.913574
vn -0.203369 0.167236 0.964600
vn -0.203369 0.167236 0.964600
vn -0.375244 0.155762 0.913574
vn -0.184326 0.169678 0.968018
vn -0.375244 0.155762 0.913574
vn -0.240234 0.174805 0.954590
vn -0.184326 0.169678 0.968018
vn -0.029541 0.244873 0.968994
vn -0.203369 0.167236 0.964600
vn -0.018799 0.177002 0.983887
vn -0.203369 0.167236 0.964600
vn -0.184326 0.169678 0.968018
vn -0.018799 0.177002 0.983887
vn 0.376465 0.652100 0.657715
vn -0.029541 0.244873 0.968994
vn 0.605713 0.719238 0.339844
vn 0.605713 0.719238 0.339844
vn -0.029541 0.244873 0.968994
vn 0.210449 0.344727 0.914551
vn -0.029541 0.244873 0.968994
vn -0.018799 0.177002 0.983887
vn 0.210449 0.344727 0.914551
vn 0.210449 0.344727 0.914551
vn -0.018799 0.177002 0.983887
vn 0.134277 0.176270 0.975098
vn 0.210449 0.344727 0.914551
vn 0.134277 0.176270 0.975098
vn 0.255615 0.178223 0.949951
vn 0.255615 0.178223 0.949951
vn 0.134277 0.176270 0.975098
vn 0.226074 0.091064 0.969727
vn 0.605713 0.719238 0.339844
vn 0.210449 0.344727 0.914551
vn 0.791992 0.423096 0.439697
vn 0.210449 0.344727 0.914551
vn 0.255615 0.178223 0.949951
vn 0.791992 0.423096 0.439697
vn 0.791992 0.423096 0.439697
vn 0.255615 0.178223 0.949951
vn 0.873291 -0.093018 0.477783
vn 0.255615 0.178223 0.949951
vn 0.452148 -0.002197 0.891846
vn 0.873291 -0.093018 0.477783
vn 0.255615 0.178223 0.949951
vn 0.226074 0.091064 0.969727
vn 0.452148 -0.002197 0.891846
vn 0.226074 0.091064 0.969727
vn 0.295654 -0.060303 0.953125
vn 0.452148 -0.002197 0.891846
vn 0.452148 -0.002197 0.891846
vn 0.295654 -0.060303 0.953125
vn 0.407715 -0.464111 0.786133
vn 0.295654 -0.060303 0.953125
vn 0.280518 -0.262451 0.923096
vn 0.407715 -0.464111 0.786133
vn 0.873291 -0.093018 0.477783
vn 0.452148 -0.002197 0.891846
vn 0.652588 -0.697510 0.294922
vn 0.452148 -0.002197 0.891846
vn 0.407715 -0.464111 0.786133
vn 0.652588 -0.697510 0.294922
vn -0.895020 0.167236 -0.413086
vn -0.514404 0.143066 -0.845215
vn -0.854492 -0.208496 -0.475586
vn -0.514404 0.143066 -0.845215
vn -0.487305 0.081543 -0.869141
vn -0.854492 -0.208496 -0.475586
vn -0.850342 0.209961 -0.482178
vn -0.379395 0.159180 -0.911133
vn -0.895020 0.167236 -0.413086
vn -0.379395 0.159180 -0.911133
vn -0.514404 0.143066 -0.845215
vn -0.895020 0.167236 -0.413086
vn -0.379395 0.159180 -0.911133
vn -0.250488 0.182373 -0.950684
vn -0.514404 0.143066 -0.845215
vn -0.514404 0.143066 -0.845215
vn -0.250488 0.182373 -0.950684
vn -0.294434 0.076904 -0.952393
vn -0.514404 0.143066 -0.845215
vn -0.294434 0.076904 -0.952393
vn -0.487305 0.081543 -0.869141
vn -0.294434 0.076904 -0.952393
vn -0.278809 -0.116699 -0.953125
vn -0.487305 0.081543 -0.869141
vn -0.379883 -0.560791 -0.735352
vn -0.221924 -0.538086 -0.812988
vn -0.283691 -0.877197 -0.386963
vn -0.379883 -0.560791 -0.735352
vn -0.283691 -0.877197 -0.386963
vn -0.769287 -0.552002 -0.320801
vn -0.487305 0.081543 -0.869141
vn -0.379883 -0.560791 -0.735352
vn -0.769287 -0.552002 -0.320801
vn -0.854492 -0.208496 -0.475586
vn -0.487305 0.081543 -0.869141
vn -0.769287 -0.552002 -0.320801
vn -0.278809 -0.116699 -0.953125
vn -0.207031 -0.279297 -0.937500
vn -0.379883 -0.560791 -0.735352
vn -0.487305 0.081543 -0.869141
vn -0.278809 -0.116699 -0.953125
vn -0.379883 -0.560791 -0.735352
vn -0.207031 -0.279297 -0.937500
vn -0.023438 -0.368164 -0.929199
vn -0.221924 -0.538086 -0.812988
vn -0.207031 -0.279297 -0.937500
vn -0.221924 -0.538086 -0.812988
vn -0.379883 -0.560791 -0.735352
vn 0.419922 -0.473145 -0.774170
vn 0.652588 -0.697998 -0.294189
vn 0.239502 -0.916504 -0.319580
vn 0.419922 -0.473145 -0.774170
vn 0.239502 -0.916504 -0.319580
vn 0.299805 -0.543457 -0.783691
vn 0.299805 -0.543457 -0.783691
vn 0.239502 -0.916504 -0.319580
vn -0.221924 -0.538086 -0.812988
vn -0.221924 -0.538086 -0.812988
vn 0.239502 -0.916504 -0.319580
vn -0.283691 -0.877197 -0.386963
vn 0.186523 -0.355225 -0.915771
vn 0.299805 -0.543457 -0.783691
vn -0.023438 -0.368164 -0.929199
vn -0.023438 -0.368164 -0.929199
vn 0.299805 -0.543457 -0.783691
vn -0.221924 -0.538086 -0.812988
vn 0.291748 -0.272705 -0.916504
vn 0.419922 -0.473145 -0.774170
vn 0.299805 -0.543457 -0.783691
vn 0.291748 -0.272705 -0.916504
vn 0.299805 -0.543457 -0.783691
vn 0.186523 -0.355225 -0.915771
vn 0.387939 0.644531 -0.658447
vn -0.038818 0.243652 -0.968994
vn -0.209229 0.136719 -0.968018
vn -0.209229 0.136719 -0.968018
vn -0.038818 0.243652 -0.968994
vn -0.113525 0.194580 -0.974121
vn -0.038818 0.243652 -0.968994
vn -0.019775 0.185059 -0.982422
vn -0.113525 0.194580 -0.974121
vn -0.113525 0.194580 -0.974121
vn -0.019775 0.185059 -0.982422
vn -0.125977 0.191162 -0.973389
vn -0.113525 0.194580 -0.974121
vn -0.125977 0.191162 -0.973389
vn -0.379395 0.159180 -0.911133
vn -0.379395 0.159180 -0.911133
vn -0.125977 0.191162 -0.973389
vn -0.250488 0.182373 -0.950684
vn -0.209229 0.136719 -0.968018
vn -0.113525 0.194580 -0.974121
vn -0.850342 0.209961 -0.482178
vn -0.850342 0.209961 -0.482178
vn -0.113525 0.194580 -0.974121
vn -0.379395 0.159180 -0.911133
vn 0.365479 0.359375 -0.858398
vn 0.793213 0.423340 -0.437500
vn 0.355469 0.270752 -0.894287
vn 0.641602 0.660156 -0.389893
vn 0.793213 0.423340 -0.437500
vn 0.365479 0.359375 -0.858398
vn 0.365479 0.359375 -0.858398
vn 0.355469 0.270752 -0.894287
vn 0.162842 0.176270 -0.970703
vn 0.355469 0.270752 -0.894287
vn 0.236084 0.095215 -0.966797
vn 0.162842 0.176270 -0.970703
vn 0.365479 0.359375 -0.858398
vn 0.162842 0.176270 -0.970703
vn -0.019775 0.185059 -0.982422
vn -0.038818 0.243652 -0.968994
vn 0.365479 0.359375 -0.858398
vn -0.019775 0.185059 -0.982422
vn 0.387939 0.644531 -0.658447
vn 0.641602 0.660156 -0.389893
vn -0.038818 0.243652 -0.968994
vn 0.641602 0.660156 -0.389893
vn 0.365479 0.359375 -0.858398
vn -0.038818 0.243652 -0.968994
vn 0.793213 0.423340 -0.437500
vn 0.853027 -0.241455 -0.462402
vn 0.355469 0.270752 -0.894287
vn 0.355469 0.270752 -0.894287
vn 0.853027 -0.241455 -0.462402
vn 0.548340 -0.115967 -0.827881
vn 0.853027 -0.241455 -0.462402
vn 0.652588 -0.697998 -0.294189
vn 0.548340 -0.115967 -0.827881
vn 0.548340 -0.115967 -0.827881
vn 0.652588 -0.697998 -0.294189
vn 0.419922 -0.473145 -0.774170
vn 0.548340 -0.115967 -0.827881
vn 0.419922 -0.473145 -0.774170
vn 0.314209 -0.117188 -0.941895
vn 0.314209 -0.117188 -0.941895
vn 0.419922 -0.473145 -0.774170
vn 0.291748 -0.272705 -0.916504
vn 0.355469 0.270752 -0.894287
vn 0.548340 -0.115967 -0.827881
vn 0.236084 0.095215 -0.966797
vn 0.236084 0.095215 -0.966797
vn 0.548340 -0.115967 -0.827881
vn 0.314209 -0.117188 -0.941895
vn 0.917969 0.396484 0.002930
vn 0.670654 0.741455 0.000732
vn 0.780029 0.625488 0.000244
vn 0.780029 0.625488 0.000244
vn 0.670654 0.741455 0.000732
vn 0.626221 0.779297 0.000000
vn 0.626221 0.779297 0.000000
vn 0.670654 0.741455 0.000732
vn 0.329834 0.943848 0.000732
vn 0.670654 0.741455 0.000732
vn 0.069336 0.997314 0.007080
vn 0.329834 0.943848 0.000732
vn 0.477295 0.878662 -0.001709
vn 0.329834 0.943848 0.000732
vn 0.069336 0.997314 -0.007324
vn 0.626221 0.779297 0.000000
vn 0.329834 0.943848 0.000732
vn 0.477295 0.878662 -0.001709
vn 0.780029 0.625488 0.000244
vn 0.626221 0.779297 0.000000
vn 0.477295 0.878662 -0.001709
vn 0.917969 0.396484 -0.003174
vn 0.780029 0.625488 0.000244
vn 0.477295 0.878662 -0.001709
vn -0.646240 -0.762939 0.000000
vn -0.785156 -0.618896 0.000488
vn -0.686768 -0.726807 0.000977
vn -0.686768 -0.726807 0.000977
vn -0.785156 -0.618896 0.000488
vn -0.915527 -0.401855 0.006348
vn -0.156250 -0.987549 0.002930
vn -0.386230 -0.922363 0.000244
vn -0.686768 -0.726807 0.000977
vn -0.386230 -0.922363 0.000244
vn -0.646240 -0.762939 0.000000
vn -0.686768 -0.726807 0.000977
vn -0.386230 -0.922363 0.000244
vn -0.512451 -0.858398 -0.000244
vn -0.646240 -0.762939 0.000000
vn -0.156250 -0.987549 -0.002930
vn -0.512451 -0.858398 -0.000244
vn -0.386230 -0.922363 0.000244
vn -0.646240 -0.762939 0.000000
vn -0.512451 -0.858398 -0.000244
vn -0.785156 -0.618896 0.000488
vn -0.512451 -0.858398 -0.000244
vn -0.915527 -0.401855 -0.006348
vn -0.785156 -0.618896 0.000488
vn -0.915527 -0.401855 -0.006348
vn -0.991211 0.130859 -0.014404
vn -0.999512 -0.023682 -0.008057
vn -0.785156 -0.618896 0.000488
vn -0.915527 -0.401855 -0.006348
vn -0.999512 -0.023682 -0.008057
vn -0.999512 -0.023682 -0.008057
vn -0.991211 0.130859 -0.014404
vn -0.913086 0.406982 -0.008545
vn -0.991211 0.130859 -0.014404
vn -0.815918 0.577393 -0.017822
vn -0.913086 0.406982 -0.008545
vn -0.999512 -0.023682 -0.008057
vn -0.913086 0.406982 -0.008545
vn -0.965820 0.258545 0.015137
vn -0.965820 0.258545 0.015137
vn -0.913086 0.406982 -0.008545
vn -0.815918 0.577393 0.017822
vn -0.785156 -0.618896 0.000488
vn -0.999512 -0.023682 -0.008057
vn -0.915527 -0.401855 0.006348
vn -0.915527 -0.401855 0.006348
vn -0.999512 -0.023682 -0.008057
vn -0.965820 0.258545 0.015137
vn -0.913086 0.406982 -0.008545
vn -0.566895 0.823486 0.016113
vn -0.815918 0.577393 0.017822
vn -0.913086 0.406982 -0.008545
vn -0.571533 0.820312 0.002197
vn -0.566895 0.823486 0.016113
vn -0.913086 0.406982 -0.008545
vn -0.815918 0.577393 -0.017822
vn -0.566895 0.823486 -0.016357
vn -0.913086 0.406982 -0.008545
vn -0.566895 0.823486 -0.016357
vn -0.571533 0.820312 0.002197
vn -0.571533 0.820312 0.002197
vn -0.566895 0.823486 -0.016357
vn 0.069336 0.997314 -0.007324
vn -0.571533 0.820312 0.002197
vn 0.069336 0.997314 -0.007324
vn 0.329834 0.943848 0.000732
vn -0.571533 0.820312 0.002197
vn 0.069336 0.997314 0.007080
vn -0.566895 0.823486 0.016113
vn -0.571533 0.820312 0.002197
vn 0.329834 0.943848 0.000732
vn 0.069336 0.997314 0.007080
vn 0.792480 -0.609619 0.011475
vn 0.965576 -0.259277 0.009766
vn 0.913330 -0.406982 0.006104
vn 0.913330 -0.406982 0.006104
vn 0.965576 -0.259277 0.009766
vn 0.986816 -0.160889 0.006104
vn 0.965576 -0.259277 0.009766
vn 0.917969 0.396484 0.002930
vn 0.986816 -0.160889 0.006104
vn 0.986816 -0.160889 0.006104
vn 0.917969 0.396484 0.002930
vn 0.780029 0.625488 0.000244
vn 0.986816 -0.160889 0.006104
vn 0.780029 0.625488 0.000244
vn 0.917969 0.396484 -0.003174
vn 0.989990 -0.139648 -0.009033
vn 0.986816 -0.160889 0.006104
vn 0.917969 0.396484 -0.003174
vn 0.792480 -0.609619 -0.011719
vn 0.913330 -0.406982 0.006104
vn 0.989990 -0.139648 -0.009033
vn 0.913330 -0.406982 0.006104
vn 0.986816 -0.160889 0.006104
vn 0.989990 -0.139648 -0.009033
vn -0.156250 -0.987549 0.002930
vn 0.369629 -0.928955 0.008545
vn 0.216064 -0.976318 0.004150
vn -0.156250 -0.987549 0.002930
vn 0.216064 -0.976318 0.004150
vn -0.386230 -0.922363 0.000244
vn 0.369629 -0.928955 0.008545
vn 0.792480 -0.609619 0.011475
vn 0.913330 -0.406982 0.006104
vn 0.369629 -0.928955 0.008545
vn 0.913330 -0.406982 0.006104
vn 0.216064 -0.976318 0.004150
vn 0.491455 -0.870605 -0.009277
vn 0.216064 -0.976318 0.004150
vn 0.913330 -0.406982 0.006104
vn 0.491455 -0.870605 -0.009277
vn 0.913330 -0.406982 0.006104
vn 0.792480 -0.609619 -0.011719
vn -0.156250 -0.987549 -0.002930
vn 0.216064 -0.976318 0.004150
vn 0.491455 -0.870605 -0.009277
vn -0.156250 -0.987549 -0.002930
vn -0.386230 -0.922363 0.000244
vn 0.216064 -0.976318 0.004150
usemtl Texture
f 1/1/1 2/2/2 3/3/3
f 4/4/4 5/5/5 6/6/6
f 7/7/7 8/8/8 9/9/9
f 10/10/10 11/11/11 12/12/12
f 13/13/13 14/14/14 15/15/15
f 16/16/16 17/17/17 18/18/18
f 19/19/19 20/20/20 21/21/21
f 22/22/22 23/23/23 24/24/24
f 25/25/25 26/26/26 27/27/27
f 28/28/28 29/29/29 30/30/30
f 31/31/31 32/32/32 33/33/33
f 34/34/34 35/35/35 36/36/36
f 37/37/37 38/38/38 39/39/39
f 40/40/40 41/41/41 42/42/42
f 43/43/43 44/44/44 45/45/45
f 46/46/46 47/47/47 48/48/48
f 49/49/49 50/50/50 51/51/51
f 52/52/52 53/53/53 54/54/54
f 55/55/55 56/56/56 57/57/57
f 58/58/58 59/59/59 60/60/60
f 61/61/61 62/62/62 63/63/63
f 64/64/64 65/65/65 66/66/66
f 67/67/67 68/68/68 69/69/69
f 70/70/70 71/71/71 72/72/72
f 73/73/73 74/74/74 75/75/75
f 76/76/76 77/77/77 78/78/78
f 79/79/79 80/80/80 81/81/81
f 82/82/82 83/83/83 84/84/84
f 85/85/85 86/86/86 87/87/87
f 88/88/88 89/89/89 90/90/90
f 91/91/91 92/92/92 93/93/93
f 94/94/94 95/95/95 96/96/96
f 97/97/97 98/98/98 99/99/99
f 100/100/100 101/101/101 102/102/102
f 103/103/103 104/104/104 105/105/105
f 106/106/106 107/107/107 108/108/108
f 109/109/109 110/110/110 111/111/111
f 112/112/112 113/113/113 114/114/114
f 115/115/115 116/116/116 117/117/117
f 118/118/118 119/119/119 120/120/120
f 121/121/121 122/122/122 123/123/123
f 124/124/124 125/125/125 126/126/126
f 127/127/127 128/128/128 129/129/129
f 130/130/130 131/131/131 132/132/132
f 133/133/133 134/134/134 135/135/135
f 136/136/136 137/137/137 138/138/138
f 139/139/139 140/140/140 141/141/141
f 142/142/142 143/143/143 144/144/144
f 145/145/145 146/146/146 147/147/147
f 148/148/148 149/149/149 150/150/150
f 151/151/151 152/152/152 153/153/153
f 154/154/154 155/155/155 156/156/156
f 157/157/157 158/158/158 159/159/159
f 160/160/160 161/161/161 162/162/162
f 163/163/163 164/164/164 165/165/165
f 166/166/166 167/167/167 168/168/168
f 169/169/169 170/170/170 171/171/171
f 172/172/172 173/173/173 174/174/174
f 175/175/175 176/176/176 177/177/177
f 178/178/178 179/179/179 180/180/180
f 181/181/181 182/182/182 183/183/183
f 184/184/184 185/185/185 186/186/186
f 187/187/187 188/188/188 189/189/189
f 190/190/190 191/191/191 192/192/192
f 193/193/193 194/194/194 195/195/195
f 196/196/196 197/197/197 198/198/198
f 199/199/199 200/200/200 201/201/201
f 202/202/202 203/203/203 204/204/204
f 205/205/205 206/206/206 207/207/207
f 208/208/208 209/209/209 210/210/210
f 211/211/211 212/212/212 213/213/213
f 214/214/214 215/215/215 216/216/216
f 217/217/217 218/218/218 219/219/219
f 220/220/220 221/221/221 222/222/222
f 223/223/223 224/224/224 225/225/225
f 226/226/226 227/227/227 228/228/228
f 229/229/229 230/230/230 231/231/231
f 232/232/232 233/233/233 234/234/234
f 235/235/235 236/236/236 237/237/237
f 238/238/238 239/239/239 240/240/240
f 241/241/241 242/242/242 243/243/243
f 244/244/244 245/245/245 246/246/246
f 247/247/247 248/248/248 249/249/249
f 250/250/250 251/251/251 252/252/252
f 253/253/253 254/254/254 255/255/255
f 256/256/256 257/257/257 258/258/258
f 259/259/259 260/260/260 261/261/261
f 262/262/262 263/263/263 264/264/264
f 265/265/265 266/266/266 267/267/267
f 268/268/268 269/269/269 270/270/270
f 271/271/271 272/272/272 273/273/273
f 274/274/274 275/275/275 276/276/276
f 277/277/277 278/278/278 279/279/279
f 280/280/280 281/281/281 282/282/282
f 283/283/283 284/284/284 285/285/285
f 286/286/286 287/287/287 288/288/288
f 289/289/289 290/290/290 291/291/291
f 292/292/292 293/293/293 294/294/294
f 295/295/295 296/296/296 297/297/297
f 298/298/298 299/299/299 300/300/300
f 301/301/301 302/302/302 303/303/303
f 304/304/304 305/305/305 306/306/306
f 307/307/307 308/308/308 309/309/309
f 310/310/310 311/311/311 312/312/312
f 313/313/313 314/314/314 315/315/315
f 316/316/316 317/317/317 318/318/318
f 319/319/319 320/320/320 321/321/321
f 322/322/322 323/323/323 324/324/324
f 325/325/325 326/326/326 327/327/327
f 328/328/328 329/329/329 330/330/330
f 331/331/331 332/332/332 333/333/333
f 334/334/334 335/335/335 336/336/336
f 337/337/337 338/338/338 339/339/339
f 340/340/340 341/341/341 342/342/342
f 343/343/343 344/344/344 345/345/345
f 346/346/346 347/347/347 348/348/348
f 349/349/349 350/350/350 351/351/351
f 352/352/352 353/353/353 354/354/354
f 355/355/355 356/356/356 357/357/357
f 358/358/358 359/359/359 360/360/360
f 361/361/361 362/362/362 363/363/363
f 364/364/364 365/365/365 366/366/366
f 367/367/367 368/368/368 369/369/369
f 370/370/370 371/371/371 372/372/372
f 373/373/373 374/374/374 375/375/375
f 376/376/376 377/377/377 378/378/378
f 379/379/379 380/380/380 381/381/381
f 382/382/382 383/383/383 384/384/384
f 385/385/385 386/386/386 387/387/387
f 388/388/388 389/389/389 390/390/390
f 391/391/391 392/392/392 393/393/393
f 394/394/394 395/395/395 396/396/396
f 397/397/397 398/398/398 399/399/399
f 400/400/400 401/401/401 402/402/402
f 403/403/403 404/404/404 405/405/405
f 406/406/406 407/407/407 408/408/408
f 409/409/409 410/410/410 411/411/411
f 412/412/412 413/413/413 414/414/414
f 415/415/415 416/416/416 417/417/417
f 418/418/418 419/419/419 420/420/420
f 421/421/421 422/422/422 423/423/423
f 424/424/424 425/425/425 426/426/426
f 427/427/427 428/428/428 429/429/429
f 430/430/430 431/431/431 432/432/432
f 433/433/433 434/434/434 435/435/435
f 436/436/436 437/437/437 438/438/438
f 439/439/439 440/440/440 441/441/441
f 442/442/442 443/443/443 444/444/444
f 445/445/445 446/446/446 447/447/447
f 448/448/448 449/449/449 450/450/450
f 451/451/451 452/452/452 453/453/453
f 454/454/454 455/455/455 456/456/456
f 457/457/457 458/458/458 459/459/459
f 460/460/460 461/461/461 462/462/462
f 463/463/463 464/464/464 465/465/465
f 466/466/466 467/467/467 468/468/468
f 469/469/469 470/470/470 471/471/471
f 472/472/472 473/473/473 474/474/474
f 475/475/475 476/476/476 477/477/477
f 478/478/478 479/479/479 480/480/480
f 481/481/481 482/482/482 483/483/483
f 484/484/484 485/485/485 486/486/486
f 487/487/487 488/488/488 489/489/489
f 490/490/490 491/491/491 492/492/492
f 493/493/493 494/494/494 495/495/495
f 496/496/496 497/497/497 498/498/498
f 499/499/499 500/500/500 501/501/501
f 502/502/502 503/503/503 504/504/504
f 505/505/505 506/506/506 507/507/507
f 508/508/508 509/509/509 510/510/510
f 511/511/511 512/512/512 513/513/513
f 514/514/514 515/515/515 516/516/516
f 517/517/517 518/518/518 519/519/519
f 520/520/520 521/521/521 522/522/522
f 523/523/523 524/524/524 525/525/525
f 526/526/526 527/527/527 528/528/528
f 529/529/529 530/530/530 531/531/531
f 532/532/532 533/533/533 534/534/534
f 535/535/535 536/536/536 537/537/537
f 538/538/538 539/539/539 540/540/540
f 541/541/541 542/542/542 543/543/543
f 544/544/544 545/545/545 546/546/546
f 547/547/547 548/548/548 549/549/549
f 550/550/550 551/551/551 552/552/552
f 553/553/553 554/554/554 555/555/555
f 556/556/556 557/557/557 558/558/558
f 559/559/559 560/560/560 561/561/561
f 562/562/562 563/563/563 564/564/564
f 565/565/565 566/566/566 567/567/567
f 568/568/568 569/569/569 570/570/570
f 571/571/571 572/572/572 573/573/573
f 574/574/574 575/575/575 576/576/576
f 577/577/577 578/578/578 579/579/579
f 580/580/580 581/581/581 582/582/582
f 583/583/583 584/584/584 585/585/585
f 586/586/586 587/587/587 588/588/588
f 589/589/589 590/590/590 591/591/591
f 592/592/592 593/593/593 594/594/594
f 595/595/595 596/596/596 597/597/597
f 598/598/598 599/599/599 600/600/600
f 601/601/601 602/602/602 603/603/603
f 604/604/604 605/605/605 606/606/606
f 607/607/607 608/608/608 609/609/609
f 610/610/610 611/611/611 612/612/612
f 613/613/613 614/614/614 615/615/615
f 616/616/616 617/617/617 618/618/618
f 619/619/619 620/620/620 621/621/621
f 622/622/622 623/623/623 624/624/624
f 625/625/625 626/626/626 627/627/627
f 628/628/628 629/629/629 630/630/630
f 631/631/631 632/632/632 633/633/633
f 634/634/634 635/635/635 636/636/636
f 637/637/637 638/638/638 639/639/639
f 640/640/640 641/641/641 642/642/642
f 643/643/643 644/644/644 645/645/645
f 646/646/646 647/647/647 648/648/648
f 649/649/649 650/650/650 651/651/651
f 652/652/652 653/653/653 654/654/654
f 655/655/655 656/656/656 657/657/657
f 658/658/658 659/659/659 660/660/660
f 661/661/661 662/662/662 663/663/663
f 664/664/664 665/665/665 666/666/666
f 667/667/667 668/668/668 669/669/669
f 670/670/670 671/671/671 672/672/672
